<?xml version="1.0" standalone="no"?>
<!DOCTYPE svg PUBLIC "-//W3C//DTD SVG 1.1//EN" "http://www.w3.org/Graphics/SVG/1.1/DTD/svg11.dtd" >
<svg>
<metadata>
Created by FontForge 20090622 at Tue Jan 23 10:34:23 2018
 By deploy user
Copyright &#195;&#130;&#194;&#169; 2008 - 2011 Linotype GmbH, www.linotype.com. All rights reserved. This font software may not be reproduced, modified, disclosed or transferred without the express written approval of Linotype GmbH.
</metadata>
<defs>
<font id="DINNextArabic-Black" horiz-adv-x="570" >
  <font-face 
    font-family="DIN Next Arabic Black"
    font-weight="900"
    font-stretch="normal"
    units-per-em="1000"
    panose-1="0 0 0 0 0 0 0 0 0 0"
    ascent="750"
    descent="-250"
    x-height="490"
    cap-height="680"
    bbox="-202.692 -486 1545 1389"
    underline-thickness="50"
    underline-position="-50"
    unicode-range="U+000D-U+FEFC"
  />
<missing-glyph horiz-adv-x="558" 
d="M220 123v84q0 10 10 10h97q10 0 10 -10v-84q0 -10 -10 -10h-97q-10 0 -10 10zM327 257h-97q-10 0 -10 10v23q0 31 22 54l31 32q32 33 32 51q0 29 -28 29q-27 0 -34 -28q-3 -10 -12 -9l-91 12q-10 0 -8 11q7 55 47.5 88t103.5 33q67 0 106.5 -35.5t39.5 -88.5
q0 -30 -11 -52.5t-38 -50.5l-31 -32q-12 -12 -12 -32v-5q0 -10 -10 -10zM90 588v-496q0 -6 6 -6h366q6 0 6 6v496q0 6 -6 6h-366q-6 0 -6 -6zM0 10v660q0 10 10 10h538q10 0 10 -10v-660q0 -10 -10 -10h-538q-10 0 -10 10z" />
    <glyph glyph-name="uniFB50" unicode="&#x671;" horiz-adv-x="299" arabic-form="isolated" 
d="M249 670v-660q0 -10 -10 -10h-179q-10 0 -10 10v660q0 10 10 10h179q10 0 10 -10zM173 861q-20 0 -43 -10v-29h50q18 0 18 20q0 19 -25 19zM29 822h12q10 0 10 11v85q0 7 8 7h63q8 0 8 -7v-5q35 11 67 11q80 0 80 -87q0 -44 -12.5 -61t-41.5 -17h-194q-7 0 -7 7v49
q0 7 7 7z" />
    <glyph glyph-name="aAlifWasla.fina" unicode="&#x671;" horiz-adv-x="306" arabic-form="final" 
d="M173 861q-20 0 -43 -10v-29h50q18 0 18 20q0 19 -25 19zM29 822h12q10 0 10 11v85q0 7 8 7h63q8 0 8 -7v-5q35 11 67 11q80 0 80 -87q0 -44 -12.5 -61t-41.5 -17h-194q-7 0 -7 7v49q0 7 7 7zM50 126v544q0 10 10 10h179q10 0 10 -10v-453q0 -29 11.5 -41t36.5 -12h9
q21 0 30.5 -19.5t9.5 -66.5q0 -46 -9 -62t-31 -16h-139q-63 0 -90 30t-27 96z" />
    <glyph glyph-name="uniFB56" unicode="&#x67e;" horiz-adv-x="892" arabic-form="isolated" 
d="M297 164h297q27 0 38 11.5t11 41.5v207q0 10 10 10h179q10 0 10 -10v-298q0 -67 -27 -96.5t-92 -29.5h-556q-63 0 -90 30t-27 96v233q0 10 10 10h179q10 0 10 -10v-142q0 -29 11.5 -41t36.5 -12zM602 -210h-133q-10 0 -10 10v124q0 10 10 10h133q10 0 10 -10v-124
q0 -10 -10 -10zM421 -210h-133q-10 0 -10 10v124q0 10 10 10h133q10 0 10 -10v-124q0 -10 -10 -10zM523 -381h-151q-10 0 -10 10v124q0 10 10 10h151q10 0 10 -10v-124q0 -10 -10 -10z" />
    <glyph glyph-name="aPeh.fina" unicode="&#x67e;" horiz-adv-x="938" arabic-form="final" 
d="M827 49q-25 -49 -104 -49h-556q-63 0 -90 30t-27 96v233q0 10 10 10h179q10 0 10 -10v-142q0 -29 11.5 -41t36.5 -12h297q27 0 38 11.5t11 41.5v207q0 10 10 10h179q10 0 10 -10v-219q9 -41 62 -41h34q40 0 40 -83q0 -81 -40 -81q-38 0 -63.5 10.5t-47.5 38.5zM600 -210
h-133q-10 0 -10 10v124q0 10 10 10h133q10 0 10 -10v-124q0 -10 -10 -10zM419 -210h-133q-10 0 -10 10v124q0 10 10 10h133q10 0 10 -10v-124q0 -10 -10 -10zM521 -381h-151q-10 0 -10 10v124q0 10 10 10h151q10 0 10 -10v-124q0 -10 -10 -10z" />
    <glyph glyph-name="aPeh.init" unicode="&#x67e;" horiz-adv-x="362" arabic-form="initial" 
d="M185 0h-185q-21 0 -30.5 17.5t-9.5 61.5q0 85 40 85h55q25 0 36.5 12t11.5 41v207q0 10 10 10h179q10 0 10 -10v-298q0 -66 -27 -96t-90 -30zM342 -210h-133q-10 0 -10 10v124q0 10 10 10h133q10 0 10 -10v-124q0 -10 -10 -10zM161 -210h-133q-10 0 -10 10v124
q0 10 10 10h133q10 0 10 -10v-124q0 -10 -10 -10zM263 -381h-151q-10 0 -10 10v124q0 10 10 10h151q10 0 10 -10v-124q0 -10 -10 -10z" />
    <glyph glyph-name="aPeh.medi" unicode="&#x67e;" horiz-adv-x="398" arabic-form="medial" 
d="M356 -210h-133q-10 0 -10 10v124q0 10 10 10h133q10 0 10 -10v-124q0 -10 -10 -10zM175 -210h-133q-10 0 -10 10v124q0 10 10 10h133q10 0 10 -10v-124q0 -10 -10 -10zM277 -381h-151q-10 0 -10 10v124q0 10 10 10h151q10 0 10 -10v-124q0 -10 -10 -10zM287 49
q-25 -49 -102 -49h-185q-21 0 -30.5 18.5t-9.5 65.5q0 80 40 80h55q25 0 36.5 12t11.5 41v207q0 10 10 10h179q10 0 10 -10v-219q9 -41 62 -41h34q40 0 40 -83q0 -81 -40 -81q-38 0 -63.5 10.5t-47.5 38.5z" />
    <glyph glyph-name="uniFB66" unicode="&#x679;" horiz-adv-x="892" arabic-form="isolated" 
d="M297 164h297q27 0 38 11.5t11 41.5v207q0 10 10 10h179q10 0 10 -10v-298q0 -67 -27 -96.5t-92 -29.5h-556q-63 0 -90 30t-27 96v233q0 10 10 10h179q10 0 10 -10v-142q0 -29 11.5 -41t36.5 -12zM469 540q-20 0 -43 -10v-29h50q18 0 18 20q0 19 -25 19zM325 501h12
q10 0 10 11v139q0 7 8 7h63q8 0 8 -7v-59q36 11 67 11q80 0 80 -81q0 -47 -12.5 -65.5t-41.5 -18.5h-194q-7 0 -7 7v49q0 7 7 7z" />
    <glyph glyph-name="aTteh.fina" unicode="&#x679;" horiz-adv-x="938" arabic-form="final" 
d="M469 540q-20 0 -43 -10v-29h50q18 0 18 20q0 19 -25 19zM325 501h12q10 0 10 11v139q0 7 8 7h63q8 0 8 -7v-59q36 11 67 11q80 0 80 -81q0 -47 -12.5 -65.5t-41.5 -18.5h-194q-7 0 -7 7v49q0 7 7 7zM827 49q-25 -49 -104 -49h-556q-63 0 -90 30t-27 96v233q0 10 10 10
h179q10 0 10 -10v-142q0 -29 11.5 -41t36.5 -12h297q27 0 38 11.5t11 41.5v207q0 10 10 10h179q10 0 10 -10v-219q9 -41 62 -41h34q40 0 40 -83q0 -81 -40 -81q-38 0 -63.5 10.5t-47.5 38.5z" />
    <glyph glyph-name="aTteh.init" unicode="&#x679;" horiz-adv-x="305" arabic-form="initial" 
d="M171 605q-20 0 -43 -10v-29h50q18 0 18 20q0 19 -25 19zM27 566h12q10 0 10 11v139q0 7 8 7h63q8 0 8 -7v-59q36 11 67 11q80 0 80 -81q0 -47 -12.5 -65.5t-41.5 -18.5h-194q-7 0 -7 7v49q0 7 7 7zM138 0h-138q-21 0 -30.5 7.5t-9.5 27.5q0 36 11 82.5t29 46.5h8
q25 0 36.5 12t11.5 41v207q0 10 10 10h179q10 0 10 -10v-298q0 -66 -27 -96t-90 -30z" />
    <glyph glyph-name="aTteh.medi" unicode="&#x679;" horiz-adv-x="351" arabic-form="medial" 
d="M180 605q-20 0 -43 -10v-29h50q18 0 18 20q0 19 -25 19zM36 566h12q10 0 10 11v139q0 7 8 7h63q8 0 8 -7v-59q36 11 67 11q80 0 80 -81q0 -47 -12.5 -65.5t-41.5 -18.5h-194q-7 0 -7 7v49q0 7 7 7zM240 49q-25 -49 -102 -49h-138q-21 0 -30.5 7.5t-9.5 27.5q0 36 11 82.5
t29 46.5h8q25 0 36.5 12t11.5 41v207q0 10 10 10h179q10 0 10 -10v-219q9 -41 62 -41h34q40 0 40 -83q0 -81 -40 -81q-38 0 -63.5 10.5t-47.5 38.5z" />
    <glyph glyph-name="uniFB6A" unicode="&#x6a4;" horiz-adv-x="1017" arabic-form="isolated" 
d="M726 286q-57 0 -57 -63q0 -38 14.5 -52t42.5 -14q29 0 43 13.5t14 52.5q0 36 -14 49.5t-43 13.5zM726 0h-559q-63 0 -90 30t-27 96v233q0 10 10 10h179q10 0 10 -10v-142q0 -29 11.5 -41t36.5 -12h182q-4 17 -4 50q0 236 251 236t251 -236q0 -214 -251 -214zM877 536
h-133q-10 0 -10 10v124q0 10 10 10h133q10 0 10 -10v-124q0 -10 -10 -10zM696 536h-133q-10 0 -10 10v124q0 10 10 10h133q10 0 10 -10v-124q0 -10 -10 -10zM794 709h-151q-10 0 -10 10v124q0 10 10 10h151q10 0 10 -10v-124q0 -10 -10 -10z" />
    <glyph glyph-name="aVeh.fina" unicode="&#x6a4;" horiz-adv-x="986" arabic-form="final" 
d="M693 330q-19 0 -35.5 -16t-16.5 -48q0 -22 8.5 -39.5t17 -25.5t26.5 -20q18 12 26.5 20t17 25.5t8.5 39.5q0 32 -16.5 48t-35.5 16zM693 450q108 0 177 -42t69 -125q0 -72 -66 -119h113q21 0 30.5 -19t9.5 -66q0 -79 -40 -79h-163q-90 0 -129 24q-44 -24 -137 -24h-390
q-63 0 -90 30t-27 96v243q0 10 10 10h179q10 0 10 -10v-152q0 -29 11.5 -41t36.5 -12h216q-66 47 -66 119q0 83 69 125t177 42zM853 536h-133q-10 0 -10 10v124q0 10 10 10h133q10 0 10 -10v-124q0 -10 -10 -10zM672 536h-133q-10 0 -10 10v124q0 10 10 10h133q10 0 10 -10
v-124q0 -10 -10 -10zM770 709h-151q-10 0 -10 10v124q0 10 10 10h151q10 0 10 -10v-124q0 -10 -10 -10z" />
    <glyph glyph-name="aVeh.init" unicode="&#x6a4;" horiz-adv-x="579" arabic-form="initial" 
d="M288 286q-57 0 -57 -63q0 -38 14.5 -52t42.5 -14q29 0 43 13.5t14 52.5q0 36 -14 49.5t-43 13.5zM288 0h-288q-22 0 -31 17.5t-9 64.5q0 82 40 82h41q-4 17 -4 50q0 236 251 236t251 -236q0 -214 -251 -214zM448 536h-133q-10 0 -10 10v124q0 10 10 10h133q10 0 10 -10
v-124q0 -10 -10 -10zM267 536h-133q-10 0 -10 10v124q0 10 10 10h133q10 0 10 -10v-124q0 -10 -10 -10zM365 709h-151q-10 0 -10 10v124q0 10 10 10h151q10 0 10 -10v-124q0 -10 -10 -10z" />
    <glyph glyph-name="aVeh.medi" unicode="&#x6a4;" horiz-adv-x="602" arabic-form="medial" 
d="M305 330q-19 0 -35.5 -15.5t-16.5 -47.5q0 -23 8.5 -40.5t17 -25.5t26.5 -20q18 12 26.5 20t17 25.5t8.5 40.5q0 32 -16.5 47.5t-35.5 15.5zM305 450q108 0 177 -41.5t69 -124.5q0 -73 -66 -120h117q21 0 30.5 -19t9.5 -66q0 -79 -40 -79h-167q-90 0 -129 24
q-44 -24 -137 -24h-169q-21 0 -30.5 19.5t-9.5 64.5q0 80 40 80h125q-66 47 -66 120q0 83 69 124.5t177 41.5zM463 536h-133q-10 0 -10 10v124q0 10 10 10h133q10 0 10 -10v-124q0 -10 -10 -10zM282 536h-133q-10 0 -10 10v124q0 10 10 10h133q10 0 10 -10v-124
q0 -10 -10 -10zM380 709h-151q-10 0 -10 10v124q0 10 10 10h151q10 0 10 -10v-124q0 -10 -10 -10z" />
    <glyph glyph-name="uniFB7A" unicode="&#x686;" horiz-adv-x="610" arabic-form="isolated" 
d="M310 -210h-75q-113 0 -164 41t-51 152q0 99 49.5 140t142.5 41h83q40 0 55.5 11.5t15.5 43.5q0 26 -17 46.5t-52 20.5q-41 0 -92 -36q-9 -5 -14 -1l-75 106q-9 11 -2 16q48 39 94.5 59t109.5 20q124 0 188 -64.5t64 -179.5q0 -64 -13.5 -106t-41.5 -63t-60 -29t-79 -8
h-113q-24 0 -33 -4.5t-9 -18.5t8 -18.5t34 -4.5h47q10 0 10 -10v-144q0 -10 -10 -10zM547 -121h-80q-6 0 -6 6v74q0 6 6 6h80q6 0 6 -6v-74q0 -6 -6 -6zM438 -121h-79q-6 0 -6 6v74q0 6 6 6h79q6 0 6 -6v-74q0 -6 -6 -6zM500 -224h-91q-6 0 -6 6v75q0 6 6 6h91q6 0 6 -6v-75
q0 -6 -6 -6z" />
    <glyph glyph-name="aTcheh.fina" unicode="&#x686;" horiz-adv-x="665" arabic-form="final" 
d="M310 -210h-75q-113 0 -164 41t-51 152q0 99 49.5 140t142.5 41h83q40 0 55.5 11.5t15.5 43.5q0 26 -17 46.5t-52 20.5q-41 0 -92 -36q-9 -5 -14 -1l-75 106q-9 11 -2 16q48 39 94.5 59t109.5 20q124 0 188 -64.5t64 -180.5q9 -41 62 -41h34q40 0 40 -83q0 -81 -40 -81
q-47 0 -75.5 13.5t-51.5 50.5q-23 -37 -63 -50.5t-100 -13.5h-113q-24 0 -33 -4.5t-9 -18.5t8 -18.5t34 -4.5h47q10 0 10 -10v-144q0 -10 -10 -10zM547 -121h-80q-6 0 -6 6v74q0 6 6 6h80q6 0 6 -6v-74q0 -6 -6 -6zM438 -121h-79q-6 0 -6 6v74q0 6 6 6h79q6 0 6 -6v-74
q0 -6 -6 -6zM500 -224h-91q-6 0 -6 6v75q0 6 6 6h91q6 0 6 -6v-75q0 -6 -6 -6z" />
    <glyph glyph-name="aTcheh.init" unicode="&#x686;" horiz-adv-x="527" arabic-form="initial" 
d="M293 0h-293q-21 0 -30.5 17.5t-9.5 61.5q0 85 40 85h212q40 0 55.5 11.5t15.5 43.5q0 26 -17 46.5t-52 20.5q-41 0 -92 -36q-9 -5 -14 -1l-75 106q-9 11 -2 16q48 39 94.5 59t109.5 20q124 0 188 -64.5t64 -179.5q0 -64 -13.5 -106t-41.5 -63t-60 -29t-79 -8zM397 -210
h-133q-10 0 -10 10v124q0 10 10 10h133q10 0 10 -10v-124q0 -10 -10 -10zM216 -210h-133q-10 0 -10 10v124q0 10 10 10h133q10 0 10 -10v-124q0 -10 -10 -10zM318 -381h-151q-10 0 -10 10v124q0 10 10 10h151q10 0 10 -10v-124q0 -10 -10 -10z" />
    <glyph glyph-name="aTcheh.medi" unicode="&#x686;" horiz-adv-x="583" arabic-form="medial" 
d="M293 0h-293q-21 0 -30.5 17.5t-9.5 61.5q0 85 40 85h212q40 0 55.5 11.5t15.5 43.5q0 26 -17 46.5t-52 20.5q-41 0 -92 -36q-9 -5 -14 -1l-75 106q-9 11 -2 16q48 39 94.5 59t109.5 20q124 0 188 -64.5t64 -179.5q9 -42 62 -42h34q40 0 40 -83q0 -81 -40 -81
q-47 0 -75.5 13.5t-51.5 50.5q-23 -37 -63 -50.5t-100 -13.5zM397 -210h-133q-10 0 -10 10v124q0 10 10 10h133q10 0 10 -10v-124q0 -10 -10 -10zM216 -210h-133q-10 0 -10 10v124q0 10 10 10h133q10 0 10 -10v-124q0 -10 -10 -10zM318 -381h-151q-10 0 -10 10v124
q0 10 10 10h151q10 0 10 -10v-124q0 -10 -10 -10z" />
    <glyph glyph-name="uniFB88" unicode="&#x688;" horiz-adv-x="505" arabic-form="isolated" 
d="M460 268v-97q0 -92 -40 -131.5t-119 -39.5h-261q-10 0 -10 10v144q0 10 10 10h152q41 0 52.5 10t11.5 36v28q0 28 -15 38t-51 10h-113q-10 0 -10 10v144q0 10 10 10h200q94 0 138.5 -44t44.5 -138zM266 605q-20 0 -43 -10v-29h50q18 0 18 20q0 19 -25 19zM122 566h12
q10 0 10 11v139q0 7 8 7h63q8 0 8 -7v-59q36 11 67 11q80 0 80 -81q0 -47 -12.5 -65.5t-41.5 -18.5h-194q-7 0 -7 7v49q0 7 7 7z" />
    <glyph glyph-name="aDdal.fina" unicode="&#x688;" horiz-adv-x="555" arabic-form="final" 
d="M460 268v-67q13 -37 61 -37h34q40 0 40 -83q0 -81 -40 -81q-44 0 -72 12t-50 44q-38 -56 -132 -56h-261q-10 0 -10 10v144q0 10 10 10h152q41 0 52.5 10t11.5 36v28q0 28 -15 38t-51 10h-113q-10 0 -10 10v144q0 10 10 10h200q94 0 138.5 -44t44.5 -138zM266 605
q-20 0 -43 -10v-29h50q18 0 18 20q0 19 -25 19zM122 566h12q10 0 10 11v139q0 7 8 7h63q8 0 8 -7v-59q36 11 67 11q80 0 80 -81q0 -47 -12.5 -65.5t-41.5 -18.5h-194q-7 0 -7 7v49q0 7 7 7z" />
    <glyph glyph-name="uniFB8A" unicode="&#x698;" horiz-adv-x="356" arabic-form="isolated" 
d="M80 -210h-65q-10 0 -10 10v144q0 10 10 10h20q41 0 56.5 20t15.5 65v385q0 10 10 10h179q10 0 10 -10v-398q0 -123 -55 -179.5t-171 -56.5zM357 536h-133q-10 0 -10 10v124q0 10 10 10h133q10 0 10 -10v-124q0 -10 -10 -10zM176 536h-133q-10 0 -10 10v124q0 10 10 10
h133q10 0 10 -10v-124q0 -10 -10 -10zM274 709h-151q-10 0 -10 10v124q0 10 10 10h151q10 0 10 -10v-124q0 -10 -10 -10z" />
    <glyph glyph-name="aJeh.fina" unicode="&#x698;" horiz-adv-x="402" arabic-form="final" 
d="M80 -210h-65q-10 0 -10 10v144q0 10 10 10h20q41 0 56.5 20t15.5 65v385q0 10 10 10h179q10 0 10 -10v-219q9 -41 62 -41h34q40 0 40 -83q0 -81 -40 -81q-69 0 -96 36v-10q0 -123 -55 -179.5t-171 -56.5zM357 536h-133q-10 0 -10 10v124q0 10 10 10h133q10 0 10 -10v-124
q0 -10 -10 -10zM176 536h-133q-10 0 -10 10v124q0 10 10 10h133q10 0 10 -10v-124q0 -10 -10 -10zM274 709h-151q-10 0 -10 10v124q0 10 10 10h151q10 0 10 -10v-124q0 -10 -10 -10z" />
    <glyph glyph-name="uniFB8C" unicode="&#x691;" horiz-adv-x="356" arabic-form="isolated" 
d="M80 -210h-65q-10 0 -10 10v144q0 10 10 10h20q41 0 56.5 20t15.5 65v385q0 10 10 10h179q10 0 10 -10v-398q0 -123 -55 -179.5t-171 -56.5zM225 605q-20 0 -43 -10v-29h50q18 0 18 20q0 19 -25 19zM81 566h12q10 0 10 11v139q0 7 8 7h63q8 0 8 -7v-59q36 11 67 11
q80 0 80 -81q0 -47 -12.5 -65.5t-41.5 -18.5h-194q-7 0 -7 7v49q0 7 7 7z" />
    <glyph glyph-name="aRreh.fina" unicode="&#x691;" horiz-adv-x="402" arabic-form="final" 
d="M80 -210h-65q-10 0 -10 10v144q0 10 10 10h20q41 0 56.5 20t15.5 65v385q0 10 10 10h179q10 0 10 -10v-219q9 -41 62 -41h34q40 0 40 -83q0 -81 -40 -81q-69 0 -96 36v-10q0 -123 -55 -179.5t-171 -56.5zM225 605q-20 0 -43 -10v-29h50q18 0 18 20q0 19 -25 19zM81 566
h12q10 0 10 11v139q0 7 8 7h63q8 0 8 -7v-59q36 11 67 11q80 0 80 -81q0 -47 -12.5 -65.5t-41.5 -18.5h-194q-7 0 -7 7v49q0 7 7 7z" />
    <glyph glyph-name="uniFB8E" unicode="&#x6a9;" horiz-adv-x="918" arabic-form="isolated" 
d="M714 0h-547q-63 0 -90 30t-27 96v233q0 10 10 10h179q10 0 10 -10v-142q0 -29 11.5 -41t36.5 -12h308q40 0 52 8t12 36v30q0 30 -14.5 40.5t-51.5 10.5h-139q-10 0 -10 10v108q0 7 9 16l232 274q6 7 13 3l117 -99q8 -8 4 -14l-119 -137q86 -8 124.5 -53.5t38.5 -137.5
v-88q0 -92 -40 -131.5t-119 -39.5z" />
    <glyph glyph-name="aKeheh.fina" unicode="&#x6a9;" horiz-adv-x="968" arabic-form="final" 
d="M714 0h-547q-63 0 -90 30t-27 96v233q0 10 10 10h179q10 0 10 -10v-142q0 -29 11.5 -41t36.5 -12h308q40 0 52 8t12 36v30q0 30 -14.5 40.5t-51.5 10.5h-139q-10 0 -10 10v108q0 7 9 16l232 274q6 7 13 3l117 -99q8 -8 4 -14l-119 -137q86 -8 124.5 -53.5t38.5 -137.5
v-54q9 -41 62 -41h34q40 0 40 -83q0 -81 -40 -81q-45 0 -72.5 11.5t-49.5 45.5q-38 -57 -133 -57z" />
    <glyph glyph-name="aKeheh.init" unicode="&#x6a9;" horiz-adv-x="498" arabic-form="initial" 
d="M409 587l-119 -137q86 -8 124.5 -53.5t38.5 -137.5v-88q0 -92 -40 -131.5t-119 -39.5h-294q-21 0 -30.5 19.5t-9.5 68.5q0 41 9.5 58.5t30.5 17.5h185q40 0 52 8t12 36v30q0 30 -14.5 40.5t-51.5 10.5h-139q-10 0 -10 10v108q0 7 9 16l232 274q6 7 13 3l117 -99
q8 -8 4 -14z" />
    <glyph glyph-name="aKeheh.medi" unicode="&#x6a9;" horiz-adv-x="549" arabic-form="medial" 
d="M409 587l-119 -137q86 -8 124.5 -53.5t38.5 -137.5v-54q9 -41 62 -41h34q40 0 40 -83q0 -81 -40 -81q-45 0 -72.5 11.5t-49.5 45.5q-38 -57 -133 -57h-294q-21 0 -30.5 19.5t-9.5 68.5q0 41 9.5 58.5t30.5 17.5h185q40 0 52 8t12 36v30q0 30 -14.5 40.5t-51.5 10.5h-139
q-10 0 -10 10v108q0 7 9 16l232 274q6 7 13 3l117 -99q8 -8 4 -14z" />
    <glyph glyph-name="uniFB92" unicode="&#x6af;" horiz-adv-x="918" arabic-form="isolated" 
d="M714 0h-547q-63 0 -90 30t-27 96v233q0 10 10 10h179q10 0 10 -10v-142q0 -29 11.5 -41t36.5 -12h308q40 0 52 8t12 36v30q0 30 -14.5 40.5t-51.5 10.5h-139q-10 0 -10 10v108q0 7 9 16l232 274q6 7 13 3l117 -99q8 -8 4 -14l-119 -137q86 -8 124.5 -53.5t38.5 -137.5
v-88q0 -92 -40 -131.5t-119 -39.5zM663 729l-225 -264q-6 -7 -13 -3l-93 76q-8 5 -4 14l225 264q6 7 13 3l93 -76q8 -8 4 -14z" />
    <glyph glyph-name="aGaf.fina" unicode="&#x6af;" horiz-adv-x="923" arabic-form="final" 
d="M670 729l-225 -264q-6 -7 -13 -3l-93 76q-8 5 -4 14l225 264q6 7 13 3l93 -76q8 -8 4 -14zM721 0h-547q-63 0 -90 30t-27 96v233q0 10 10 10h179q10 0 10 -10v-142q0 -29 11.5 -41t36.5 -12h308q40 0 52 8t12 36v30q0 30 -14.5 40.5t-51.5 10.5h-139q-10 0 -10 10v108
q0 7 9 16l232 274q6 7 13 3l117 -99q8 -8 4 -14l-119 -137q86 -8 124.5 -53.5t38.5 -137.5v-54q9 -41 62 -41h34q40 0 40 -83q0 -81 -40 -81q-45 0 -72.5 11.5t-49.5 45.5q-38 -57 -133 -57z" />
    <glyph glyph-name="aGaf.init" unicode="&#x6af;" horiz-adv-x="569" arabic-form="initial" 
d="M308 729l-225 -264q-6 -7 -13 -3l-93 76q-8 5 -4 14l225 264q6 7 13 3l93 -76q8 -8 4 -14zM365 0h-373q-21 0 -30.5 15.5t-9.5 59.5q0 89 40 89h264q40 0 52 8t12 36v30q0 30 -14.5 40.5t-51.5 10.5h-139q-10 0 -10 10v108q0 7 9 16l232 274q6 7 13 3l117 -99q8 -8 4 -14
l-119 -137q86 -8 124.5 -53.5t38.5 -137.5v-88q0 -92 -40 -131.5t-119 -39.5z" />
    <glyph glyph-name="aGaf.medi" unicode="&#x6af;" horiz-adv-x="611" arabic-form="medial" 
d="M298 729l-225 -264q-6 -7 -13 -3l-93 76q-8 5 -4 14l225 264q6 7 13 3l93 -76q8 -8 4 -14zM355 0h-363q-21 0 -30.5 15.5t-9.5 59.5q0 89 40 89h254q40 0 52 8t12 36v30q0 30 -14.5 40.5t-51.5 10.5h-139q-10 0 -10 10v108q0 7 9 16l232 274q6 7 13 3l117 -99q8 -8 4 -14
l-119 -137q86 -8 124.5 -53.5t38.5 -137.5v-54q9 -41 62 -41h34q40 0 40 -83q0 -81 -40 -81q-45 0 -72.5 11.5t-49.5 45.5q-38 -57 -133 -57z" />
    <glyph glyph-name="uniFB9E" unicode="&#x6ba;" horiz-adv-x="637" arabic-form="isolated" 
d="M84 219q4 7 16 5l161 -39q13 -2 6 -14q-26 -80 -26 -128q0 -106 75 -106q72 0 72 98v309q0 10 10 10h179q10 0 10 -10v-320q0 -70 -23 -121.5t-63.5 -79t-86 -40t-99.5 -12.5t-100.5 13t-87 41.5t-64 80.5t-23.5 123q0 109 44 190z" />
    <glyph glyph-name="aNunGhunna.fina" unicode="&#x6ba;" horiz-adv-x="683" arabic-form="final" 
d="M84 219q4 7 16 5l161 -39q13 -2 6 -14q-26 -80 -26 -128q0 -106 75 -106q72 0 72 98v309q0 10 10 10h179q10 0 10 -10v-139q9 -41 62 -41h34q40 0 40 -83q0 -81 -40 -81q-63 0 -96 31v-7q0 -70 -23 -121.5t-63.5 -79t-86 -40t-99.5 -12.5t-100.5 13t-87 41.5t-64 80.5
t-23.5 123q0 109 44 190z" />
    <glyph glyph-name="aHehYeh.fina" unicode="&#x6c0;" horiz-adv-x="614" arabic-form="final" 
d="M285 196q63 0 63 51v39h-62q-32 0 -47 -10t-15 -36q0 -27 16 -35.5t45 -8.5zM245 450h103v43q0 10 10 10h179q10 0 10 -10v-276q0 -29 11.5 -41t36.5 -12h19q40 0 40 -82q0 -44 -9.5 -63t-30.5 -19h-149q-53 0 -78.5 14t-34.5 54q-50 -36 -116 -36q-89 0 -147.5 49.5
t-58.5 157.5q0 61 18.5 104.5t51 65.5t67.5 31.5t78 9.5zM165 664h35q-10 16 -10 44q0 44 31 72.5t86 28.5q67 0 104 -45q3 -4 -1 -8l-39 -46q-3 -4 -9 0q-23 23 -46 23q-12 0 -21.5 -7.5t-9.5 -23.5q0 -23 25 -38h97q6 0 6 -7v-62q0 -7 -6 -7h-242q-6 0 -6 7v62q0 7 6 7z
" />
    <glyph glyph-name="uniFBA6" unicode="&#x6c1;" horiz-adv-x="582" arabic-form="isolated" 
d="M291 286q-57 0 -57 -63q0 -38 14.5 -52t42.5 -14q29 0 43 13.5t14 52.5q0 36 -14 49.5t-43 13.5zM291 -7q-251 0 -251 221q0 236 251 236t251 -236q0 -221 -251 -221z" />
    <glyph glyph-name="aHehGoal.fina" unicode="&#x6c1;" horiz-adv-x="581" arabic-form="final" 
d="M508 424v-188q0 -39 10.5 -55.5t49.5 -16.5h13q22 0 31 -17t9 -64q0 -83 -40 -83h-128q-144 0 -144 141v123h-29q-28 0 -34.5 -15t-6.5 -69v-170q0 -10 -10 -10h-179q-10 0 -10 10v237q0 187 197 187h261q10 0 10 -10z" />
    <glyph glyph-name="aHehGoal.init" unicode="&#x6c1;" horiz-adv-x="322" arabic-form="initial" 
d="M193 -195q-26 -2 -42 -2q-136 0 -136 130q0 32 7 67h-22q-21 0 -30.5 7.5t-9.5 27.5q0 36 11 82.5t29 46.5h8q25 0 36.5 12t11.5 41v207q0 10 10 10h179q10 0 10 -10v-298q0 -61 -23 -91t-74 -35q-3 -14 -3 -27q0 -39 38 -39q10 0 10 -10v-109q0 -9 -10 -10z" />
    <glyph glyph-name="aHehGoal.medi" unicode="&#x6c1;" horiz-adv-x="532" arabic-form="medial" 
d="M-1 164h206q10 0 10 -10v-91q0 -61 11 -82t54 -21v54q0 75 41 112.5t107 37.5h104q40 0 40 -85q0 -44 -9.5 -61.5t-30.5 -17.5h-5q-33 0 -47.5 -17.5t-14.5 -61.5v-121q0 -10 -10 -10h-184q-118 0 -179.5 46.5t-61.5 126.5v37h-31q-21 0 -30.5 16.5t-9.5 59.5q0 88 40 88
z" />
    <glyph glyph-name="uniFBAA" unicode="&#x6be;" horiz-adv-x="817" arabic-form="isolated" 
d="M569 239q0 78 -81 98q21 -45 21 -101q0 -58 -19 -87q39 2 59 21.5t20 68.5zM336 323q-44 0 -44 -85t44 -85q21 0 32 18t11 67q0 85 -43 85zM553 0h-299q-23 0 -29.5 -6.5t-6.5 -27.5v-57q0 -10 -10 -10h-179q-10 0 -10 10v145q0 52 23 81t82 29h63q-12 27 -12 74
q0 38 12 79l-11 -3q-13 -3 -15 2l-30 121q-4 12 1 15q44 15 139.5 28.5t167.5 13.5q57 0 103.5 -6.5t91.5 -24t75.5 -46.5t49 -76t18.5 -110q0 -53 -9 -91t-32 -71.5t-69 -51t-114 -17.5z" />
    <glyph glyph-name="aHehDoachashmi.fina" unicode="&#x6be;" horiz-adv-x="830" arabic-form="final" 
d="M526 -75q47 0 47 42q0 23 -11.5 33.5t-43.5 10.5h-44v-38q0 -48 52 -48zM526 286q-52 0 -52 -63v-63h55q26 0 39.5 14t13.5 50q0 31 -15.5 46.5t-40.5 15.5zM124 164h156v54q0 68 23 116t61 72t77 34t82 10q47 0 88.5 -9.5t79.5 -30t60.5 -61t22.5 -95.5q0 -49 -18 -90
h74q40 0 40 -83q0 -46 -9.5 -63.5t-30.5 -17.5h-86q21 -40 21 -69q0 -156 -243 -156q-40 0 -72.5 4t-65.5 15t-55 29t-35.5 48.5t-13.5 70.5v58h-26q-23 0 -29.5 -6.5t-6.5 -27.5v-57q0 -10 -10 -10h-179q-10 0 -10 10v145q0 52 23 81t82 29z" />
    <glyph glyph-name="aHehDoachashmi.init" unicode="&#x6be;" horiz-adv-x="700" arabic-form="initial" 
d="M452 239q0 78 -81 98q21 -45 21 -101q0 -58 -19 -87q39 2 59 21.5t20 68.5zM219 323q-44 0 -44 -85t44 -85q21 0 32 18t11 67q0 85 -43 85zM-40 81q0 83 40 83h70q-12 27 -12 74q0 38 12 79l-11 -3q-13 -3 -15 2l-30 121q-4 12 1 15q44 15 139.5 28.5t167.5 13.5
q57 0 103.5 -6.5t91.5 -24t75.5 -46.5t49 -76t18.5 -110q0 -53 -9 -91t-32 -71.5t-69 -51t-114 -17.5h-436q-21 0 -30.5 17.5t-9.5 63.5z" />
    <glyph glyph-name="aHehDoachashmi.medi" unicode="&#x6be;" horiz-adv-x="609" arabic-form="medial" 
d="M305 -70q47 0 47 38q0 24 -12 36t-43 12h-44v-42q0 -24 12 -34t40 -10zM305 286q-52 0 -52 -55v-71h55q53 0 53 72q0 54 -56 54zM-40 79q0 85 40 85h59v62q0 54 16 95.5t40 65.5t58 38.5t64.5 19.5t64.5 5q48 0 89 -8t79.5 -27.5t60.5 -58.5t22 -94q0 -57 -18 -98h74
q40 0 40 -83q0 -46 -9.5 -63.5t-30.5 -17.5h-86q21 -40 21 -73q0 -38 -14 -66t-36.5 -44t-55.5 -26t-65 -13t-72 -3q-41 0 -73 3.5t-65 14t-54.5 28t-35.5 47.5t-14 70v62h-59q-40 0 -40 79z" />
    <glyph glyph-name="uniFBAE" unicode="&#x6d2;" horiz-adv-x="805" arabic-form="isolated" 
d="M383 341q-19 -26 -54.5 -59t-57.5 -56.5t-22 -37.5q0 -24 40 -24h487q10 0 10 -10v-144q0 -10 -10 -10h-502q-223 0 -223 150q0 29 11.5 61.5t23 55t44.5 63.5t48.5 58l61.5 68q7 7 15 1l127 -102q7 -7 1 -14z" />
    <glyph glyph-name="aYehBarri.fina" unicode="&#x6d2;" horiz-adv-x="364" arabic-form="final" 
d="M228 -24q0 -22 29 -22h314q10 0 10 -10v-144q0 -10 -10 -10h-361q-101 0 -144 46t-43 134q0 93 50.5 143.5t139.5 50.5h151q21 0 30.5 -19t9.5 -66q0 -45 -9 -62t-31 -17h-109q-16 0 -21.5 -6t-5.5 -18z" />
    <glyph glyph-name="uniFBB0" unicode="&#x6d3;" horiz-adv-x="819" arabic-form="isolated" 
d="M390 341q-19 -26 -54.5 -59t-57.5 -56.5t-22 -37.5q0 -24 40 -24h487q10 0 10 -10v-144q0 -10 -10 -10h-502q-223 0 -223 150q0 29 11.5 61.5t23 55t44.5 63.5t48.5 58l61.5 68q7 7 15 1l127 -102q7 -7 1 -14zM79 591h36q-11 20 -11 44q0 44 31 72.5t86 28.5
q67 0 104 -45q3 -4 -1 -8l-39 -46q-3 -5 -9 0q-23 23 -46 23q-12 0 -21.5 -7.5t-9.5 -23.5q0 -23 25 -38h97q6 0 6 -7v-62q0 -7 -6 -7h-242q-6 0 -6 7v62q0 7 6 7z" />
    <glyph glyph-name="aYehBarriHamzaabove.fina" unicode="&#x6d3;" horiz-adv-x="364" arabic-form="final" 
d="M52 298h36q-11 20 -11 44q0 44 31 72.5t86 28.5q67 0 104 -45q3 -4 -1 -8l-39 -46q-3 -4 -9 0q-23 23 -46 23q-12 0 -21.5 -7.5t-9.5 -23.5q0 -23 25 -38h97q6 0 6 -7v-62q0 -7 -6 -7h-242q-6 0 -6 7v62q0 7 6 7zM228 -24q0 -22 29 -22h314q10 0 10 -10v-144
q0 -10 -10 -10h-361q-101 0 -144 46t-43 134q0 93 50.5 143.5t139.5 50.5h151q21 0 30.5 -19t9.5 -66q0 -45 -9 -62t-31 -17h-109q-16 0 -21.5 -6t-5.5 -18z" />
    <glyph glyph-name="aAlifMaksura.init" unicode="&#x649;" horiz-adv-x="305" arabic-form="initial" 
d="M138 0h-138q-21 0 -30.5 7.5t-9.5 27.5q0 36 11 82.5t29 46.5h8q25 0 36.5 12t11.5 41v207q0 10 10 10h179q10 0 10 -10v-298q0 -66 -27 -96t-90 -30z" />
    <glyph glyph-name="aAlifMaksura.medi" unicode="&#x649;" horiz-adv-x="351" arabic-form="medial" 
d="M240 49q-25 -49 -102 -49h-138q-21 0 -30.5 7.5t-9.5 27.5q0 36 11 82.5t29 46.5h8q25 0 36.5 12t11.5 41v207q0 10 10 10h179q10 0 10 -10v-219q9 -41 62 -41h34q40 0 40 -83q0 -81 -40 -81q-38 0 -63.5 10.5t-47.5 38.5z" />
    <glyph glyph-name="uniFBFC" unicode="&#x6cc;" horiz-adv-x="844" arabic-form="isolated" 
d="M361 -44h132q84 0 84 33q0 15 -21 32t-50.5 35.5t-59 42.5t-50.5 62t-21 84q0 98 72.5 151.5t172.5 53.5q64 0 118 -18.5t83 -51.5q5 -6 -3 -14l-87 -104q-7 -4 -14 1q-30 23 -73 23q-25 0 -42 -11t-17 -34q0 -24 22.5 -46t54.5 -42.5t64.5 -44t55 -60t22.5 -81.5
q0 -87 -60 -132t-173 -45h-233q-308 0 -308 234q0 98 63 198q6 8 16 4l150 -72q8 -5 3 -13q-31 -55 -31 -99q0 -86 130 -86z" />
    <glyph glyph-name="aYehFarsi.fina" unicode="&#x6cc;" horiz-adv-x="826" arabic-form="final" 
d="M361 -44h115q58 0 76.5 6.5t18.5 22.5q0 18 -26 31t-136 54q-9 3 -6 12l43 138q3 10 12 7q20 -7 57 -22.5t55 -22t46 -12.5t55 -6h156q40 0 40 -82t-40 -82h-60q15 -24 15 -52q0 -158 -233 -158h-211q-308 0 -308 234q0 98 63 198q6 8 16 4l150 -72q8 -5 3 -13
q-31 -55 -31 -99q0 -86 130 -86z" />
    <glyph glyph-name="aYehFarsi.init" unicode="&#x6cc;" horiz-adv-x="362" arabic-form="initial" 
d="M185 0h-185q-21 0 -30.5 17.5t-9.5 61.5q0 85 40 85h55q25 0 36.5 12t11.5 41v207q0 10 10 10h179q10 0 10 -10v-298q0 -66 -27 -96t-90 -30zM332 -210h-133q-10 0 -10 10v124q0 10 10 10h133q10 0 10 -10v-124q0 -10 -10 -10zM151 -210h-133q-10 0 -10 10v124
q0 10 10 10h133q10 0 10 -10v-124q0 -10 -10 -10z" />
    <glyph glyph-name="aYehFarsi.medi" unicode="&#x6cc;" horiz-adv-x="398" arabic-form="medial" 
d="M357 -210h-133q-10 0 -10 10v124q0 10 10 10h133q10 0 10 -10v-124q0 -10 -10 -10zM176 -210h-133q-10 0 -10 10v124q0 10 10 10h133q10 0 10 -10v-124q0 -10 -10 -10zM287 49q-25 -49 -102 -49h-185q-21 0 -30.5 18.5t-9.5 65.5q0 80 40 80h55q25 0 36.5 12t11.5 41v207
q0 10 10 10h179q10 0 10 -10v-219q9 -41 62 -41h34q40 0 40 -83q0 -81 -40 -81q-38 0 -63.5 10.5t-47.5 38.5z" />
    <glyph glyph-name="aShadda_aDammatan" unicode="&#xfc5e;" horiz-adv-x="0" arabic-form="isolated" 
d="M-127 834v71q0 10 10 10h26q10 0 10 -10v-74q0 -40 31 -40t31 36v78q0 10 10 10h26q10 0 10 -10v-78q0 -36 32 -36q30 0 30 40v74q0 10 10 10h26q10 0 10 -10v-71q0 -87 -76 -87q-41 0 -59 22q-18 -22 -52 -22q-75 0 -75 87zM51 1084h30v13q0 24 -9.5 37t-24.5 13
q-16 0 -25 -10.5t-9 -24.5q0 -28 38 -28zM-131 1091h-15q-10 0 -10 10v23q0 10 10 10h12q36 0 57.5 -23t21.5 -69q0 -20 12 -26t41 -6q55 0 72 32h-24q-35 0 -56 19t-21 51q0 33 23 56t55 23q78 0 78 -94q0 -130 -127 -130q-48 0 -73 15t-25 60q0 49 -31 49z" />
    <glyph glyph-name="aShadda_aKasratan" unicode="&#xfc5f;" horiz-adv-x="0" arabic-form="isolated" 
d="M-128 1027v71q0 10 10 10h26q10 0 10 -10v-74q0 -40 31 -40t31 36v78q0 10 10 10h26q10 0 10 -10v-78q0 -36 32 -36q30 0 30 40v74q0 10 10 10h26q10 0 10 -10v-71q0 -87 -76 -87q-41 0 -59 22q-18 -22 -52 -22q-75 0 -75 87zM131 750h-254q-10 0 -10 10v27q0 10 10 10
h254q10 0 10 -10v-27q0 -10 -10 -10zM131 833h-254q-10 0 -10 10v27q0 10 10 10h254q10 0 10 -10v-27q0 -10 -10 -10z" />
    <glyph glyph-name="aShadda_aFatha" unicode="&#xfc60;" horiz-adv-x="0" arabic-form="isolated" 
d="M127 969h-254q-10 0 -10 10v27q0 10 10 10h254q10 0 10 -10v-27q0 -10 -10 -10zM-127 834v71q0 10 10 10h26q10 0 10 -10v-74q0 -40 31 -40t31 36v78q0 10 10 10h26q10 0 10 -10v-78q0 -36 32 -36q30 0 30 40v74q0 10 10 10h26q10 0 10 -10v-71q0 -87 -76 -87
q-41 0 -59 22q-18 -22 -52 -22q-75 0 -75 87z" />
    <glyph glyph-name="aShadda_aDamma" unicode="&#xfc61;" horiz-adv-x="0" arabic-form="isolated" 
d="M-75 1004h31q57 0 72 32h-24q-35 0 -55.5 19t-20.5 51q0 33 22.5 56t54.5 23q78 0 78 -94q0 -130 -127 -130h-31q-10 0 -10 10v23q0 10 10 10zM9 1078h30v13q0 50 -34 50q-16 0 -24.5 -10.5t-8.5 -24.5q0 -28 37 -28zM-127 834v71q0 10 10 10h26q10 0 10 -10v-74
q0 -40 31 -40t31 36v78q0 10 10 10h26q10 0 10 -10v-78q0 -36 32 -36q30 0 30 40v74q0 10 10 10h26q10 0 10 -10v-71q0 -87 -76 -87q-41 0 -59 22q-18 -22 -52 -22q-75 0 -75 87z" />
    <glyph glyph-name="aShadda_aKasra" unicode="&#xfc62;" horiz-adv-x="0" arabic-form="isolated" 
d="M131 750h-254q-10 0 -10 10v27q0 10 10 10h254q10 0 10 -10v-27q0 -10 -10 -10zM-128 943v71q0 10 10 10h26q10 0 10 -10v-74q0 -40 31 -40t31 36v78q0 10 10 10h26q10 0 10 -10v-78q0 -36 32 -36q30 0 30 40v74q0 10 10 10h26q10 0 10 -10v-71q0 -87 -76 -87
q-41 0 -59 22q-18 -22 -52 -22q-75 0 -75 87z" />
    <glyph glyph-name="aShadda_aAlifabove" unicode="&#xfc63;" horiz-adv-x="0" arabic-form="isolated" 
d="M-127 834v71q0 10 10 10h26q10 0 10 -10v-74q0 -40 31 -40t31 36v78q0 10 10 10h26q10 0 10 -10v-78q0 -36 32 -36q30 0 30 40v74q0 10 10 10h26q10 0 10 -10v-71q0 -87 -76 -87q-41 0 -59 22q-18 -22 -52 -22q-75 0 -75 87zM26 1092v-124q0 -10 -10 -10h-31
q-10 0 -10 10v124q0 10 10 10h31q10 0 10 -10z" />
    <glyph glyph-name="aAllah" unicode="&#xfdf2;" horiz-adv-x="1595" arabic-form="isolated" 
d="M1545 670v-660q0 -10 -10 -10h-179q-10 0 -10 10v660q0 10 10 10h179q10 0 10 -10zM285 196q63 0 63 51v39h-62q-32 0 -47 -10t-15 -36q0 -27 16 -35.5t45 -8.5zM853 49q-25 -49 -102 -49h-286q-53 0 -78.5 14t-34.5 54q-50 -36 -116 -36q-89 0 -147.5 49.5t-58.5 157.5
q0 61 18.5 104.5t51 65.5t67.5 31.5t78 9.5h103v43q0 10 10 10h179q10 0 10 -10v-276q0 -29 11.5 -41t36.5 -12h26q25 0 36.5 12t11.5 41v453q0 10 10 10h179q10 0 10 -10v-465q9 -41 62 -41h42q25 0 36.5 12t11.5 41v453q0 10 10 10h179q10 0 10 -10v-544q0 -66 -27 -96
t-90 -30h-146q-68 0 -103 49z" />
    <glyph glyph-name="aAllahlong" unicode="&#xfdfa;" horiz-adv-x="1057" arabic-form="isolated" 
d="M979 10q-6 32 -26 32q-16 0 -20 -25q5 -18 31 -18q13 0 15 11zM214 -39q0 19 -24 35q-20 14 -34 14t-14 -12t26 -27q27 -15 39 -15q7 0 7 5zM190 448l-1 39q-16 -9 -41 -17q-34 -16 -34 -25q0 -10 25 -10q29 0 51 13zM324 665q0 -32 -21 -32q-13 0 -21 8q-18 -15 -30 -15
q-21 0 -21 27q0 19 3 27l6 6q0 -37 17 -37q12 0 19 16l-2 23l9 14l4 -30q1 -16 15 -16q11 0 11 12q0 2 -3 25l7 10q7 -15 7 -38zM171 225l-2 38q-88 -34 -88 -52q0 -10 31 -10q34 0 59 24zM618 612l197 93l-6 -22l-195 -96zM632 -121q0 -16 -2 -30q-6 -13 -25 -13
q-10 0 -14 4q-15 -16 -30 -16q-6 0 -16.5 8.5t-12.5 8.5q-8 0 -37 -17q-29 -18 -70 -18q-44 0 -44 8q0 7 32 7t46 2q18 3 35 16q28 19 40 19q6 0 19 -8l13 -8q15 0 18 17q1 13 11 13q4 0 4 -6q0 -8 -1 -9q1 -4 11 -6q12 0 12 12q0 16 11 16zM989 420q0 7 -18 16q-17 9 -26 9
q-21 0 -60 -24q-37 -24 -47 -34q2 -1 20 -1q43 0 82 8q49 10 49 26zM553 74l49 -37l-26 -31l-48 35l-28 -36l-50 36l29 35l47 -35zM460 673l16 -226q-3 -66 -13 -73l-25 242zM979 664l-9 -25q-39 -14 -116 -51q-96 -46 -96 -61q0 -11 26 -25l-9 -24q-33 10 -33 40
q0 29 26 44q135 76 211 102zM1008 2q0 -50 -39 -108q-42 -64 -89 -64q-26 0 -59 16q-37 16 -37 23q0 4 5 4q9 0 27 -7q22 -8 37 -8q68 0 138 106l-7 22q-18 -26 -37 -26q-15 0 -25.5 13.5t-10.5 31.5q0 21 15 50q16 31 28 31t32 -24q22 -25 22 -60zM1017 437q0 -14 -16 -39
q-15 -24 -31 -31q-46 -21 -116 -21q-37 0 -48 2q-24 -47 -38 -47q-4 0 -4 6q0 16 22 47q-44 17 -48 26q-41 -26 -50 -26q7 -139 25 -176q19 -38 87 -39q-22 16 -22 44q0 32 32 76q24 32 61 32q27 0 53 -17q24 -17 24 -31q-25 9 -52 9q-35 0 -65 -14q-26 -12 -26 -27
q0 -14 25 -39q23 -24 44 -29q19 2 68 18q58 19 67 25l-17 -37q-101 -53 -191 -53q-97 0 -119 73q-30 -65 -57 -65q-26 0 -67 44q-65 -56 -197 -56q-37 0 -70 5q4 -33 9 -52q9 -36 23 -50q44 -44 176 -44q112 0 165 32q15 37 28 37q4 0 4 -8q0 -14 -12 -44q6 -13 27 -13
q27 0 49 12q21 66 33 66q4 0 4 -11q0 -22 -10 -43q27 -13 44 -13q8 0 8 4q0 1 -8 38l17 36q12 -36 12 -52q0 -67 -44 -67q-23 0 -48 19q-15 -26 -59 -26q-48 0 -48 26q-19 -13 -64 -24q-48 -11 -121 -11q-97 0 -143 28q-59 35 -60 126l-22 -32q-16 -24 -26 -26
q12 -21 12 -41q0 -26 -16 -42q-8 -8 -21 -8q-20 0 -61 23q-13 -30 -42 -47q-5 -3 -24 -5t-21 -2l-11 -4q-6 0 -6 5q0 4 24 15q32 12 39 19l34 26q-10 16 -10 40q0 22 18 41q18 21 34 21q2 -1 6 -2q16 -10 29 -10q18 0 36 23l23 42q-39 12 -55 27q-29 26 -41 85
q-29 -50 -79 -50q-18 0 -39 8q-16 6 -16 12q0 25 43 58q38 29 85 44l-2 17l20 33q8 -108 21 -141q13 -31 56 -45l-13 132l19 43l17 -180q52 -6 95 -6q104 0 177 40q14 38 19 38q4 0 4 -9q0 -13 -4 -25q38 -35 59 -35q26 0 42 43l-13 161q-73 0 -90 74q-8 -32 -14 -42
q-11 -25 -27 -30l3 -3q36 0 52.5 -8.5t16.5 -29.5q0 -30 -25 -46q-86 -59 -160 -59q-46 0 -74 23.5t-28 65.5q0 35 16 67q-27 7 -38 43q-18 -51 -57 -51q-47 0 -47 77l-27 -24q-7 -7 -39 -7q-49 0 -49 18q0 12 13 31q13 22 25 27l76 37v10l17 36l4 -120q1 -42 32 -42
q15 0 29.5 10.5t16.5 22.5l-16 114l18 39l28 -161q9 -21 33 -21q23 0 23 13q0 25 -16 74q-3 8 -20 65l13 33q40 -121 40 -157q0 -20 -10 -44q-12 -28 -25 -28q-5 0 -9 3q-7 -17 -7 -39q0 -75 91 -75q72 0 142 48q2 2 2 3q0 6 -38 12q-60 9 -61 10q-4 3 -4 8q0 9 17 32
q60 25 64 53q1 1 1 14q0 94 -20 231l17 56q23 -205 38 -256q18 -57 72 -66l-5 96l21 45l8 -140q28 11 60 36l30 -21q13 -9 39 -15q20 21 65 55q53 38 70 38q18 0 41 -14q26 -15 26 -33z" />
    <glyph glyph-name="uniFE80" unicode="&#x621;" horiz-adv-x="464" arabic-form="isolated" 
d="M28 131h50q-12 29 -12 60q0 78 52 124.5t141 46.5q56 0 101 -22t69 -53q6 -7 -1 -14l-67 -79q-5 -7 -14 0q-40 37 -74 37q-18 0 -32 -11t-14 -38q0 -31 24 -51h175q10 0 10 -11v-109q0 -11 -10 -11h-398q-10 0 -10 11v109q0 11 10 11z" />
    <glyph glyph-name="uniFE81" unicode="&#x622;" horiz-adv-x="299" arabic-form="isolated" 
d="M249 670v-660q0 -10 -10 -10h-179q-10 0 -10 10v660q0 10 10 10h179q10 0 10 -10zM-67 766q27 94 100 94q36 0 97 -28t85 -28q14 0 18 7t4 27q0 10 10 10h83q10 0 10 -10q0 -127 -101 -127q-45 0 -101 24.5t-69 24.5q-21 0 -32 -28q-3 -10 -13 -7l-84 28q-10 3 -7 13z
" />
    <glyph glyph-name="aAlifMadda.fina" unicode="&#x622;" horiz-adv-x="306" arabic-form="final" 
d="M-67 766q27 94 100 94q36 0 97 -28t85 -28q14 0 18 7t4 27q0 10 10 10h83q10 0 10 -10q0 -127 -101 -127q-45 0 -101 24.5t-69 24.5q-21 0 -32 -28q-3 -10 -13 -7l-84 28q-10 3 -7 13zM50 126v544q0 10 10 10h179q10 0 10 -10v-453q0 -29 11.5 -41t36.5 -12h9
q21 0 30.5 -19.5t9.5 -66.5q0 -46 -9 -62t-31 -16h-139q-63 0 -90 30t-27 96z" />
    <glyph glyph-name="uniFE83" unicode="&#x623;" horiz-adv-x="299" arabic-form="isolated" 
d="M249 670v-660q0 -10 -10 -10h-179q-10 0 -10 10v660q0 10 10 10h179q10 0 10 -10zM23 807h36q-11 20 -11 44q0 44 31 72.5t86 28.5q67 0 104 -45q3 -4 -1 -8l-39 -46q-3 -5 -9 0q-23 23 -46 23q-12 0 -21.5 -7.5t-9.5 -23.5q0 -23 25 -38h97q6 0 6 -7v-62q0 -7 -6 -7
h-242q-6 0 -6 7v62q0 7 6 7z" />
    <glyph glyph-name="aAlifHamza.fina" unicode="&#x623;" horiz-adv-x="306" arabic-form="final" 
d="M50 126v544q0 10 10 10h179q10 0 10 -10v-453q0 -29 11.5 -41t36.5 -12h9q21 0 30.5 -19.5t9.5 -66.5q0 -46 -9 -62t-31 -16h-139q-63 0 -90 30t-27 96zM24 807h36q-11 20 -11 44q0 44 31 72.5t86 28.5q67 0 104 -45q3 -4 -1 -8l-39 -46q-3 -5 -9 0q-23 23 -46 23
q-12 0 -21.5 -7.5t-9.5 -23.5q0 -23 25 -38h97q6 0 6 -7v-62q0 -7 -6 -7h-242q-6 0 -6 7v62q0 7 6 7z" />
    <glyph glyph-name="uniFE85" unicode="&#x624;" horiz-adv-x="577" arabic-form="isolated" 
d="M280 286q-56 0 -56 -63q0 -35 15.5 -47t40.5 -12h53v63q0 59 -53 59zM308 -210h-168q-10 0 -10 10v144q0 10 10 10h110q44 0 62.5 8t20.5 38h-84q-109 0 -162 50.5t-53 162.5q0 68 20.5 116.5t57 73.5t77 36t89.5 11q249 0 249 -230v-234q0 -97 -50.5 -146.5
t-168.5 -49.5zM160 615h35q-10 16 -10 44q0 44 31 72.5t86 28.5q67 0 104 -45q3 -4 -1 -8l-39 -46q-3 -5 -9 0q-23 23 -46 23q-12 0 -21.5 -7.5t-9.5 -23.5q0 -23 25 -38h97q6 0 6 -7v-62q0 -7 -6 -7h-242q-6 0 -6 7v62q0 7 6 7z" />
    <glyph glyph-name="aWawHamza.fina" unicode="&#x624;" horiz-adv-x="595" arabic-form="final" 
d="M280 286q-56 0 -56 -63q0 -35 15.5 -47t40.5 -12h53v63q0 59 -53 59zM308 -210h-168q-10 0 -10 10v144q0 10 10 10h110q44 0 62.5 8t20.5 38h-84q-109 0 -162 50.5t-53 162.5q0 68 20.5 116.5t57 73.5t77 36t89.5 11q249 0 249 -230v-56h68q40 0 40 -82q0 -48 -9 -65
t-31 -17h-68v-14q0 -97 -50.5 -146.5t-168.5 -49.5zM173 615h35q-10 16 -10 44q0 44 31 72.5t86 28.5q67 0 104 -45q3 -4 -1 -8l-39 -46q-3 -5 -9 0q-23 23 -46 23q-12 0 -21.5 -7.5t-9.5 -23.5q0 -23 25 -38h97q6 0 6 -7v-62q0 -7 -6 -7h-242q-6 0 -6 7v62q0 7 6 7z" />
    <glyph glyph-name="uniFE87" unicode="&#x625;" horiz-adv-x="299" arabic-form="isolated" 
d="M249 670v-660q0 -10 -10 -10h-179q-10 0 -10 10v660q0 10 10 10h179q10 0 10 -10zM18 -214h36q-11 20 -11 44q0 44 31 72.5t86 28.5q67 0 104 -45q3 -4 -1 -8l-39 -46q-3 -4 -9 0q-23 23 -46 23q-12 0 -21.5 -7.5t-9.5 -23.5q0 -23 25 -38h97q6 0 6 -7v-62q0 -7 -6 -7
h-242q-6 0 -6 7v62q0 7 6 7z" />
    <glyph glyph-name="aAlifHamzabelow.fina" unicode="&#x625;" horiz-adv-x="306" arabic-form="final" 
d="M50 126v544q0 10 10 10h179q10 0 10 -10v-453q0 -29 11.5 -41t36.5 -12h9q21 0 30.5 -19.5t9.5 -66.5q0 -46 -9 -62t-31 -16h-139q-63 0 -90 30t-27 96zM18 -214h36q-11 20 -11 44q0 44 31 72.5t86 28.5q67 0 104 -45q3 -4 -1 -8l-39 -46q-3 -4 -9 0q-23 23 -46 23
q-12 0 -21.5 -7.5t-9.5 -23.5q0 -23 25 -38h97q6 0 6 -7v-62q0 -7 -6 -7h-242q-6 0 -6 7v62q0 7 6 7z" />
    <glyph glyph-name="uniFE89" unicode="&#x626;" horiz-adv-x="844" arabic-form="isolated" 
d="M55 439h35q-10 16 -10 44q0 44 31 72.5t86 28.5q67 0 104 -45q3 -4 -1 -8l-39 -46q-3 -5 -9 0q-23 23 -46 23q-12 0 -21.5 -7.5t-9.5 -23.5q0 -23 25 -38h97q6 0 6 -7v-62q0 -7 -6 -7h-242q-6 0 -6 7v62q0 7 6 7zM361 -44h132q84 0 84 33q0 15 -21 32t-50.5 35.5
t-59 42.5t-50.5 62t-21 84q0 98 72.5 151.5t172.5 53.5q64 0 118 -18.5t83 -51.5q5 -6 -3 -14l-87 -104q-7 -4 -14 1q-30 23 -73 23q-25 0 -42 -11t-17 -34q0 -24 22.5 -46t54.5 -42.5t64.5 -44t55 -60t22.5 -81.5q0 -87 -60 -132t-173 -45h-233q-308 0 -308 234
q0 98 63 198q6 8 16 4l150 -72q8 -5 3 -13q-31 -55 -31 -99q0 -86 130 -86z" />
    <glyph glyph-name="aYehHamza.fina" unicode="&#x626;" horiz-adv-x="826" arabic-form="final" 
d="M55 439h35q-10 16 -10 44q0 44 31 72.5t86 28.5q67 0 104 -45q3 -4 -1 -8l-39 -46q-3 -5 -9 0q-23 23 -46 23q-12 0 -21.5 -7.5t-9.5 -23.5q0 -23 25 -38h97q6 0 6 -7v-62q0 -7 -6 -7h-242q-6 0 -6 7v62q0 7 6 7zM361 -44h115q58 0 76.5 6.5t18.5 22.5q0 18 -26 31
t-136 54q-9 3 -6 12l43 138q3 10 12 7q20 -7 57 -22.5t55 -22t46 -12.5t55 -6h156q40 0 40 -82t-40 -82h-60q15 -24 15 -52q0 -158 -233 -158h-211q-308 0 -308 234q0 98 63 198q6 8 16 4l150 -72q8 -5 3 -13q-31 -55 -31 -99q0 -86 130 -86z" />
    <glyph glyph-name="aYehHamza.init" unicode="&#x626;" horiz-adv-x="305" arabic-form="initial" 
d="M29 615h35q-10 16 -10 44q0 44 31 72.5t86 28.5q67 0 104 -45q3 -4 -1 -8l-39 -46q-3 -5 -9 0q-23 23 -46 23q-12 0 -21.5 -7.5t-9.5 -23.5q0 -23 25 -38h97q6 0 6 -7v-62q0 -7 -6 -7h-242q-6 0 -6 7v62q0 7 6 7zM138 0h-138q-21 0 -30.5 7.5t-9.5 27.5q0 36 11 82.5
t29 46.5h8q25 0 36.5 12t11.5 41v207q0 10 10 10h179q10 0 10 -10v-298q0 -66 -27 -96t-90 -30z" />
    <glyph glyph-name="aYehHamza.medi" unicode="&#x626;" horiz-adv-x="351" arabic-form="medial" 
d="M37 615h35q-10 16 -10 44q0 44 31 72.5t86 28.5q67 0 104 -45q3 -4 -1 -8l-39 -46q-3 -5 -9 0q-23 23 -46 23q-12 0 -21.5 -7.5t-9.5 -23.5q0 -23 25 -38h97q6 0 6 -7v-62q0 -7 -6 -7h-242q-6 0 -6 7v62q0 7 6 7zM240 49q-25 -49 -102 -49h-138q-21 0 -30.5 7.5
t-9.5 27.5q0 36 11 82.5t29 46.5h8q25 0 36.5 12t11.5 41v207q0 10 10 10h179q10 0 10 -10v-219q9 -41 62 -41h34q40 0 40 -83q0 -81 -40 -81q-38 0 -63.5 10.5t-47.5 38.5z" />
    <glyph glyph-name="uniFE8D" unicode="&#x627;" horiz-adv-x="299" arabic-form="isolated" 
d="M249 670v-660q0 -10 -10 -10h-179q-10 0 -10 10v660q0 10 10 10h179q10 0 10 -10z" />
    <glyph glyph-name="aAlif.fina" unicode="&#x627;" horiz-adv-x="306" arabic-form="final" 
d="M50 126v544q0 10 10 10h179q10 0 10 -10v-453q0 -29 11.5 -41t36.5 -12h9q21 0 30.5 -19.5t9.5 -66.5q0 -46 -9 -62t-31 -16h-139q-63 0 -90 30t-27 96z" />
    <glyph glyph-name="uniFE8F" unicode="&#x628;" horiz-adv-x="892" arabic-form="isolated" 
d="M297 164h297q27 0 38 11.5t11 41.5v207q0 10 10 10h179q10 0 10 -10v-298q0 -67 -27 -96.5t-92 -29.5h-556q-63 0 -90 30t-27 96v233q0 10 10 10h179q10 0 10 -10v-142q0 -29 11.5 -41t36.5 -12zM539 -210h-180q-10 0 -10 10v124q0 10 10 10h180q10 0 10 -10v-124
q0 -10 -10 -10z" />
    <glyph glyph-name="aBeh.fina" unicode="&#x628;" horiz-adv-x="938" arabic-form="final" 
d="M827 49q-25 -49 -104 -49h-556q-63 0 -90 30t-27 96v233q0 10 10 10h179q10 0 10 -10v-142q0 -29 11.5 -41t36.5 -12h297q27 0 38 11.5t11 41.5v207q0 10 10 10h179q10 0 10 -10v-219q9 -41 62 -41h34q40 0 40 -83q0 -81 -40 -81q-38 0 -63.5 10.5t-47.5 38.5zM539 -210
h-180q-10 0 -10 10v124q0 10 10 10h180q10 0 10 -10v-124q0 -10 -10 -10z" />
    <glyph glyph-name="aBeh.init" unicode="&#x628;" horiz-adv-x="305" arabic-form="initial" 
d="M243 -210h-180q-10 0 -10 10v124q0 10 10 10h180q10 0 10 -10v-124q0 -10 -10 -10zM138 0h-138q-21 0 -30.5 7.5t-9.5 27.5q0 36 11 82.5t29 46.5h8q25 0 36.5 12t11.5 41v207q0 10 10 10h179q10 0 10 -10v-298q0 -66 -27 -96t-90 -30z" />
    <glyph glyph-name="aBeh.medi" unicode="&#x628;" horiz-adv-x="351" arabic-form="medial" 
d="M243 -210h-180q-10 0 -10 10v124q0 10 10 10h180q10 0 10 -10v-124q0 -10 -10 -10zM240 49q-25 -49 -102 -49h-138q-21 0 -30.5 7.5t-9.5 27.5q0 36 11 82.5t29 46.5h8q25 0 36.5 12t11.5 41v207q0 10 10 10h179q10 0 10 -10v-219q9 -41 62 -41h34q40 0 40 -83
q0 -81 -40 -81q-38 0 -63.5 10.5t-47.5 38.5z" />
    <glyph glyph-name="uniFE93" unicode="&#x629;" horiz-adv-x="582" arabic-form="isolated" 
d="M291 286q-57 0 -57 -63q0 -38 14.5 -52t42.5 -14q29 0 43 13.5t14 52.5q0 36 -14 49.5t-43 13.5zM291 -7q-251 0 -251 221q0 236 251 236t251 -236q0 -221 -251 -221zM447 536h-133q-10 0 -10 10v124q0 10 10 10h133q10 0 10 -10v-124q0 -10 -10 -10zM266 536h-133
q-10 0 -10 10v124q0 10 10 10h133q10 0 10 -10v-124q0 -10 -10 -10z" />
    <glyph glyph-name="aTehMarbuta.fina" unicode="&#x629;" horiz-adv-x="614" arabic-form="final" 
d="M447 576h-133q-10 0 -10 10v124q0 10 10 10h133q10 0 10 -10v-124q0 -10 -10 -10zM266 576h-133q-10 0 -10 10v124q0 10 10 10h133q10 0 10 -10v-124q0 -10 -10 -10zM285 196q63 0 63 51v39h-62q-32 0 -47 -10t-15 -36q0 -27 16 -35.5t45 -8.5zM245 450h103v43
q0 10 10 10h179q10 0 10 -10v-276q0 -29 11.5 -41t36.5 -12h19q40 0 40 -82q0 -44 -9.5 -63t-30.5 -19h-149q-53 0 -78.5 14t-34.5 54q-50 -36 -116 -36q-89 0 -147.5 49.5t-58.5 157.5q0 61 18.5 104.5t51 65.5t67.5 31.5t78 9.5z" />
    <glyph glyph-name="uniFE95" unicode="&#x62a;" horiz-adv-x="892" arabic-form="isolated" 
d="M297 164h297q27 0 38 11.5t11 41.5v207q0 10 10 10h179q10 0 10 -10v-298q0 -67 -27 -96.5t-92 -29.5h-556q-63 0 -90 30t-27 96v233q0 10 10 10h179q10 0 10 -10v-142q0 -29 11.5 -41t36.5 -12zM598 478h-133q-10 0 -10 10v124q0 10 10 10h133q10 0 10 -10v-124
q0 -10 -10 -10zM417 478h-133q-10 0 -10 10v124q0 10 10 10h133q10 0 10 -10v-124q0 -10 -10 -10z" />
    <glyph glyph-name="aTeh.fina" unicode="&#x62a;" horiz-adv-x="938" arabic-form="final" 
d="M598 478h-133q-10 0 -10 10v124q0 10 10 10h133q10 0 10 -10v-124q0 -10 -10 -10zM417 478h-133q-10 0 -10 10v124q0 10 10 10h133q10 0 10 -10v-124q0 -10 -10 -10zM827 49q-25 -49 -104 -49h-556q-63 0 -90 30t-27 96v233q0 10 10 10h179q10 0 10 -10v-142
q0 -29 11.5 -41t36.5 -12h297q27 0 38 11.5t11 41.5v207q0 10 10 10h179q10 0 10 -10v-219q9 -41 62 -41h34q40 0 40 -83q0 -81 -40 -81q-38 0 -63.5 10.5t-47.5 38.5z" />
    <glyph glyph-name="aTeh.init" unicode="&#x62a;" horiz-adv-x="362" arabic-form="initial" 
d="M345 536h-133q-10 0 -10 10v124q0 10 10 10h133q10 0 10 -10v-124q0 -10 -10 -10zM164 536h-133q-10 0 -10 10v124q0 10 10 10h133q10 0 10 -10v-124q0 -10 -10 -10zM185 0h-185q-21 0 -30.5 17.5t-9.5 61.5q0 85 40 85h55q25 0 36.5 12t11.5 41v207q0 10 10 10h179
q10 0 10 -10v-298q0 -66 -27 -96t-90 -30z" />
    <glyph glyph-name="aTeh.medi" unicode="&#x62a;" horiz-adv-x="398" arabic-form="medial" 
d="M357 536h-133q-10 0 -10 10v124q0 10 10 10h133q10 0 10 -10v-124q0 -10 -10 -10zM176 536h-133q-10 0 -10 10v124q0 10 10 10h133q10 0 10 -10v-124q0 -10 -10 -10zM287 49q-25 -49 -102 -49h-185q-21 0 -30.5 18.5t-9.5 65.5q0 80 40 80h55q25 0 36.5 12t11.5 41v207
q0 10 10 10h179q10 0 10 -10v-219q9 -41 62 -41h34q40 0 40 -83q0 -81 -40 -81q-38 0 -63.5 10.5t-47.5 38.5z" />
    <glyph glyph-name="uniFE99" unicode="&#x62b;" horiz-adv-x="892" arabic-form="isolated" 
d="M297 164h297q27 0 38 11.5t11 41.5v207q0 10 10 10h179q10 0 10 -10v-298q0 -67 -27 -96.5t-92 -29.5h-556q-63 0 -90 30t-27 96v233q0 10 10 10h179q10 0 10 -10v-142q0 -29 11.5 -41t36.5 -12zM603 478h-133q-10 0 -10 10v124q0 10 10 10h133q10 0 10 -10v-124
q0 -10 -10 -10zM422 478h-133q-10 0 -10 10v124q0 10 10 10h133q10 0 10 -10v-124q0 -10 -10 -10zM520 651h-151q-10 0 -10 10v124q0 10 10 10h151q10 0 10 -10v-124q0 -10 -10 -10z" />
    <glyph glyph-name="aTheh.fina" unicode="&#x62b;" horiz-adv-x="938" arabic-form="final" 
d="M827 49q-25 -49 -104 -49h-556q-63 0 -90 30t-27 96v233q0 10 10 10h179q10 0 10 -10v-142q0 -29 11.5 -41t36.5 -12h297q27 0 38 11.5t11 41.5v207q0 10 10 10h179q10 0 10 -10v-219q9 -41 62 -41h34q40 0 40 -83q0 -81 -40 -81q-38 0 -63.5 10.5t-47.5 38.5zM603 478
h-133q-10 0 -10 10v124q0 10 10 10h133q10 0 10 -10v-124q0 -10 -10 -10zM422 478h-133q-10 0 -10 10v124q0 10 10 10h133q10 0 10 -10v-124q0 -10 -10 -10zM520 651h-151q-10 0 -10 10v124q0 10 10 10h151q10 0 10 -10v-124q0 -10 -10 -10z" />
    <glyph glyph-name="aTheh.init" unicode="&#x62b;" horiz-adv-x="362" arabic-form="initial" 
d="M185 0h-185q-21 0 -30.5 17.5t-9.5 61.5q0 85 40 85h55q25 0 36.5 12t11.5 41v207q0 10 10 10h179q10 0 10 -10v-298q0 -66 -27 -96t-90 -30zM345 536h-133q-10 0 -10 10v124q0 10 10 10h133q10 0 10 -10v-124q0 -10 -10 -10zM164 536h-133q-10 0 -10 10v124q0 10 10 10
h133q10 0 10 -10v-124q0 -10 -10 -10zM262 709h-151q-10 0 -10 10v124q0 10 10 10h151q10 0 10 -10v-124q0 -10 -10 -10z" />
    <glyph glyph-name="aTheh.medi" unicode="&#x62b;" horiz-adv-x="398" arabic-form="medial" 
d="M358 536h-133q-10 0 -10 10v124q0 10 10 10h133q10 0 10 -10v-124q0 -10 -10 -10zM177 536h-133q-10 0 -10 10v124q0 10 10 10h133q10 0 10 -10v-124q0 -10 -10 -10zM275 709h-151q-10 0 -10 10v124q0 10 10 10h151q10 0 10 -10v-124q0 -10 -10 -10zM287 49
q-25 -49 -102 -49h-185q-21 0 -30.5 18.5t-9.5 65.5q0 80 40 80h55q25 0 36.5 12t11.5 41v207q0 10 10 10h179q10 0 10 -10v-219q9 -41 62 -41h34q40 0 40 -83q0 -81 -40 -81q-38 0 -63.5 10.5t-47.5 38.5z" />
    <glyph glyph-name="uniFE9D" unicode="&#x62c;" horiz-adv-x="610" arabic-form="isolated" 
d="M487 -198h-125q-10 0 -10 10v124q0 10 10 10h125q10 0 10 -10v-124q0 -10 -10 -10zM376 0h-113q-24 0 -33 -4.5t-9 -18.5t8 -18.5t34 -4.5h47q10 0 10 -10v-144q0 -10 -10 -10h-75q-113 0 -164 41t-51 152q0 99 49.5 140t142.5 41h83q40 0 55.5 11.5t15.5 43.5
q0 26 -17 46.5t-52 20.5q-41 0 -92 -36q-9 -5 -14 -1l-75 106q-9 11 -2 16q48 39 94.5 59t109.5 20q124 0 188 -64.5t64 -179.5q0 -64 -13.5 -106t-41.5 -63t-60 -29t-79 -8z" />
    <glyph glyph-name="aJim.fina" unicode="&#x62c;" horiz-adv-x="665" arabic-form="final" 
d="M487 -198h-125q-10 0 -10 10v124q0 10 10 10h125q10 0 10 -10v-124q0 -10 -10 -10zM310 -210h-75q-113 0 -164 41t-51 152q0 99 49.5 140t142.5 41h83q40 0 55.5 11.5t15.5 43.5q0 26 -17 46.5t-52 20.5q-41 0 -92 -36q-9 -5 -14 -1l-75 106q-9 11 -2 16q48 39 94.5 59
t109.5 20q124 0 188 -64.5t64 -180.5q9 -41 62 -41h34q40 0 40 -83q0 -81 -40 -81q-47 0 -75.5 13.5t-51.5 50.5q-23 -37 -63 -50.5t-100 -13.5h-113q-24 0 -33 -4.5t-9 -18.5t8 -18.5t34 -4.5h47q10 0 10 -10v-144q0 -10 -10 -10z" />
    <glyph glyph-name="aJim.init" unicode="&#x62c;" horiz-adv-x="527" arabic-form="initial" 
d="M293 0h-293q-21 0 -30.5 17.5t-9.5 61.5q0 85 40 85h212q40 0 55.5 11.5t15.5 43.5q0 26 -17 46.5t-52 20.5q-41 0 -92 -36q-9 -5 -14 -1l-75 106q-9 11 -2 16q48 39 94.5 59t109.5 20q124 0 188 -64.5t64 -179.5q0 -64 -13.5 -106t-41.5 -63t-60 -29t-79 -8zM328 -208
h-180q-10 0 -10 10v124q0 10 10 10h180q10 0 10 -10v-124q0 -10 -10 -10z" />
    <glyph glyph-name="aJim.medi" unicode="&#x62c;" horiz-adv-x="583" arabic-form="medial" 
d="M293 0h-293q-21 0 -30.5 17.5t-9.5 61.5q0 85 40 85h212q40 0 55.5 11.5t15.5 43.5q0 26 -17 46.5t-52 20.5q-41 0 -92 -36q-9 -5 -14 -1l-75 106q-9 11 -2 16q48 39 94.5 59t109.5 20q124 0 188 -64.5t64 -179.5q9 -42 62 -42h34q40 0 40 -83q0 -81 -40 -81
q-47 0 -75.5 13.5t-51.5 50.5q-23 -37 -63 -50.5t-100 -13.5zM327 -208h-180q-10 0 -10 10v124q0 10 10 10h180q10 0 10 -10v-124q0 -10 -10 -10z" />
    <glyph glyph-name="uniFEA1" unicode="&#x62d;" horiz-adv-x="610" arabic-form="isolated" 
d="M376 0h-113q-24 0 -33 -4.5t-9 -18.5t8 -18.5t34 -4.5h79q10 0 10 -10v-144q0 -10 -10 -10h-107q-113 0 -164 41t-51 152q0 99 49.5 140t142.5 41h83q40 0 55.5 11.5t15.5 43.5q0 26 -17 46.5t-52 20.5q-41 0 -92 -36q-9 -5 -14 -1l-75 106q-9 11 -2 16q48 39 94.5 59
t109.5 20q124 0 188 -64.5t64 -179.5q0 -64 -13.5 -106t-41.5 -63t-60 -29t-79 -8z" />
    <glyph glyph-name="aHah.fina" unicode="&#x62d;" horiz-adv-x="665" arabic-form="final" 
d="M376 0h-113q-24 0 -33 -4.5t-9 -18.5t8 -18.5t34 -4.5h79q10 0 10 -10v-144q0 -10 -10 -10h-107q-113 0 -164 41t-51 152q0 99 49.5 140t142.5 41h83q40 0 55.5 11.5t15.5 43.5q0 26 -17 46.5t-52 20.5q-41 0 -92 -36q-9 -5 -14 -1l-75 106q-9 11 -2 16q48 39 94.5 59
t109.5 20q124 0 188 -64.5t64 -180.5q9 -41 62 -41h34q40 0 40 -83q0 -81 -40 -81q-47 0 -75.5 13.5t-51.5 50.5q-23 -37 -63 -50.5t-100 -13.5z" />
    <glyph glyph-name="aHah.init" unicode="&#x62d;" horiz-adv-x="527" arabic-form="initial" 
d="M293 0h-293q-21 0 -30.5 17.5t-9.5 61.5q0 85 40 85h212q40 0 55.5 11.5t15.5 43.5q0 26 -17 46.5t-52 20.5q-41 0 -92 -36q-9 -5 -14 -1l-75 106q-9 11 -2 16q48 39 94.5 59t109.5 20q124 0 188 -64.5t64 -179.5q0 -64 -13.5 -106t-41.5 -63t-60 -29t-79 -8z" />
    <glyph glyph-name="aHah.medi" unicode="&#x62d;" horiz-adv-x="583" arabic-form="medial" 
d="M293 0h-293q-21 0 -30.5 17.5t-9.5 61.5q0 85 40 85h212q40 0 55.5 11.5t15.5 43.5q0 26 -17 46.5t-52 20.5q-41 0 -92 -36q-9 -5 -14 -1l-75 106q-9 11 -2 16q48 39 94.5 59t109.5 20q124 0 188 -64.5t64 -179.5q9 -42 62 -42h34q40 0 40 -83q0 -81 -40 -81
q-47 0 -75.5 13.5t-51.5 50.5q-23 -37 -63 -50.5t-100 -13.5z" />
    <glyph glyph-name="uniFEA5" unicode="&#x62e;" horiz-adv-x="610" arabic-form="isolated" 
d="M376 0h-113q-24 0 -33 -4.5t-9 -18.5t8 -18.5t34 -4.5h79q10 0 10 -10v-144q0 -10 -10 -10h-107q-113 0 -164 41t-51 152q0 99 49.5 140t142.5 41h83q40 0 55.5 11.5t15.5 43.5q0 26 -17 46.5t-52 20.5q-41 0 -92 -36q-9 -5 -14 -1l-75 106q-9 11 -2 16q48 39 94.5 59
t109.5 20q124 0 188 -64.5t64 -179.5q0 -64 -13.5 -106t-41.5 -63t-60 -29t-79 -8zM417 536h-180q-10 0 -10 10v124q0 10 10 10h180q10 0 10 -10v-124q0 -10 -10 -10z" />
    <glyph glyph-name="aKhah.fina" unicode="&#x62e;" horiz-adv-x="665" arabic-form="final" 
d="M417 536h-180q-10 0 -10 10v124q0 10 10 10h180q10 0 10 -10v-124q0 -10 -10 -10zM376 0h-113q-24 0 -33 -4.5t-9 -18.5t8 -18.5t34 -4.5h79q10 0 10 -10v-144q0 -10 -10 -10h-107q-113 0 -164 41t-51 152q0 99 49.5 140t142.5 41h83q40 0 55.5 11.5t15.5 43.5
q0 26 -17 46.5t-52 20.5q-41 0 -92 -36q-9 -5 -14 -1l-75 106q-9 11 -2 16q48 39 94.5 59t109.5 20q124 0 188 -64.5t64 -180.5q9 -41 62 -41h34q40 0 40 -83q0 -81 -40 -81q-47 0 -75.5 13.5t-51.5 50.5q-23 -37 -63 -50.5t-100 -13.5z" />
    <glyph glyph-name="aKhah.init" unicode="&#x62e;" horiz-adv-x="527" arabic-form="initial" 
d="M323 536h-180q-10 0 -10 10v124q0 10 10 10h180q10 0 10 -10v-124q0 -10 -10 -10zM293 0h-293q-21 0 -30.5 17.5t-9.5 61.5q0 85 40 85h212q40 0 55.5 11.5t15.5 43.5q0 26 -17 46.5t-52 20.5q-41 0 -92 -36q-9 -5 -14 -1l-75 106q-9 11 -2 16q48 39 94.5 59t109.5 20
q124 0 188 -64.5t64 -179.5q0 -64 -13.5 -106t-41.5 -63t-60 -29t-79 -8z" />
    <glyph glyph-name="aKhah.medi" unicode="&#x62e;" horiz-adv-x="583" arabic-form="medial" 
d="M323 536h-180q-10 0 -10 10v124q0 10 10 10h180q10 0 10 -10v-124q0 -10 -10 -10zM293 0h-293q-21 0 -30.5 17.5t-9.5 61.5q0 85 40 85h212q40 0 55.5 11.5t15.5 43.5q0 26 -17 46.5t-52 20.5q-41 0 -92 -36q-9 -5 -14 -1l-75 106q-9 11 -2 16q48 39 94.5 59t109.5 20
q124 0 188 -64.5t64 -179.5q9 -42 62 -42h34q40 0 40 -83q0 -81 -40 -81q-47 0 -75.5 13.5t-51.5 50.5q-23 -37 -63 -50.5t-100 -13.5z" />
    <glyph glyph-name="uniFEA9" unicode="&#x62f;" horiz-adv-x="505" arabic-form="isolated" 
d="M460 268v-97q0 -92 -40 -131.5t-119 -39.5h-261q-10 0 -10 10v144q0 10 10 10h152q41 0 52.5 10t11.5 36v28q0 28 -15 38t-51 10h-113q-10 0 -10 10v144q0 10 10 10h200q94 0 138.5 -44t44.5 -138z" />
    <glyph glyph-name="aDal.fina" unicode="&#x62f;" horiz-adv-x="555" arabic-form="final" 
d="M460 268v-67q13 -37 61 -37h34q40 0 40 -83q0 -81 -40 -81q-44 0 -72 12t-50 44q-38 -56 -132 -56h-261q-10 0 -10 10v144q0 10 10 10h152q41 0 52.5 10t11.5 36v28q0 28 -15 38t-51 10h-113q-10 0 -10 10v144q0 10 10 10h200q94 0 138.5 -44t44.5 -138z" />
    <glyph glyph-name="uniFEAB" unicode="&#x630;" horiz-adv-x="505" arabic-form="isolated" 
d="M460 268v-97q0 -92 -40 -131.5t-119 -39.5h-261q-10 0 -10 10v144q0 10 10 10h152q41 0 52.5 10t11.5 36v28q0 28 -15 38t-51 10h-113q-10 0 -10 10v144q0 10 10 10h200q94 0 138.5 -44t44.5 -138zM309 536h-180q-10 0 -10 10v124q0 10 10 10h180q10 0 10 -10v-124
q0 -10 -10 -10z" />
    <glyph glyph-name="aDhal.fina" unicode="&#x630;" horiz-adv-x="555" arabic-form="final" 
d="M309 536h-180q-10 0 -10 10v124q0 10 10 10h180q10 0 10 -10v-124q0 -10 -10 -10zM460 268v-67q13 -37 61 -37h34q40 0 40 -83q0 -81 -40 -81q-44 0 -72 12t-50 44q-38 -56 -132 -56h-261q-10 0 -10 10v144q0 10 10 10h152q41 0 52.5 10t11.5 36v28q0 28 -15 38t-51 10
h-113q-10 0 -10 10v144q0 10 10 10h200q94 0 138.5 -44t44.5 -138z" />
    <glyph glyph-name="uniFEAD" unicode="&#x631;" horiz-adv-x="356" arabic-form="isolated" 
d="M80 -210h-65q-10 0 -10 10v144q0 10 10 10h20q41 0 56.5 20t15.5 65v385q0 10 10 10h179q10 0 10 -10v-398q0 -123 -55 -179.5t-171 -56.5z" />
    <glyph glyph-name="aReh.fina" unicode="&#x631;" horiz-adv-x="402" arabic-form="final" 
d="M80 -210h-65q-10 0 -10 10v144q0 10 10 10h20q41 0 56.5 20t15.5 65v385q0 10 10 10h179q10 0 10 -10v-219q9 -41 62 -41h34q40 0 40 -83q0 -81 -40 -81q-69 0 -96 36v-10q0 -123 -55 -179.5t-171 -56.5z" />
    <glyph glyph-name="uniFEAF" unicode="&#x632;" horiz-adv-x="356" arabic-form="isolated" 
d="M80 -210h-65q-10 0 -10 10v144q0 10 10 10h20q41 0 56.5 20t15.5 65v385q0 10 10 10h179q10 0 10 -10v-398q0 -123 -55 -179.5t-171 -56.5zM297 536h-180q-10 0 -10 10v124q0 10 10 10h180q10 0 10 -10v-124q0 -10 -10 -10z" />
    <glyph glyph-name="aZeh.fina" unicode="&#x632;" horiz-adv-x="402" arabic-form="final" 
d="M297 536h-180q-10 0 -10 10v124q0 10 10 10h180q10 0 10 -10v-124q0 -10 -10 -10zM80 -210h-65q-10 0 -10 10v144q0 10 10 10h20q41 0 56.5 20t15.5 65v385q0 10 10 10h179q10 0 10 -10v-219q9 -41 62 -41h34q40 0 40 -83q0 -81 -40 -81q-69 0 -96 36v-10
q0 -123 -55 -179.5t-171 -56.5z" />
    <glyph glyph-name="uniFEB1" unicode="&#x633;" horiz-adv-x="1170" arabic-form="isolated" 
d="M64 219q4 7 16 5l161 -39q13 -2 6 -14q-26 -80 -26 -128q0 -106 75 -106q72 0 72 98v330q0 10 10 10h179q10 0 10 -10v-157q0 -44 42 -44q22 0 29 11t7 42v148q0 10 10 10h179q10 0 10 -10v-155q0 -46 41 -46q22 0 29 11t7 42v207q0 10 10 10h179q10 0 10 -10v-298
q0 -66 -27 -96t-90 -30h-61q-77 0 -110 54q-22 -54 -105 -54h-61q-67 0 -99 39v-15q0 -70 -23 -121.5t-63.5 -79t-86 -40t-99.5 -12.5t-100.5 13t-87 41.5t-64 80.5t-23.5 123q0 109 44 190z" />
    <glyph glyph-name="aSin.fina" unicode="&#x633;" horiz-adv-x="1215" arabic-form="final" 
d="M1105 49q-25 -49 -102 -49h-61q-77 0 -110 54q-22 -54 -105 -54h-61q-67 0 -99 39v-15q0 -70 -23 -121.5t-63.5 -79t-86 -40t-99.5 -12.5t-100.5 13t-87 41.5t-64 80.5t-23.5 123q0 109 44 190q4 7 16 5l161 -39q13 -2 6 -14q-26 -80 -26 -128q0 -106 75 -106q72 0 72 98
v330q0 10 10 10h179q10 0 11 -10v-149q0 -52 41 -52q22 0 29 11t7 42v148q0 10 10 10h179q10 0 10 -10v-149q0 -52 41 -52q22 0 29 11t7 42v207q0 10 10 10h179q10 0 10 -10v-219q9 -41 62 -41h34q40 0 40 -83q0 -81 -40 -81q-38 0 -63.5 10.5t-47.5 38.5z" />
    <glyph glyph-name="aSin.init" unicode="&#x633;" horiz-adv-x="886" arabic-form="initial" 
d="M166 0h-166q-21 0 -30.5 17t-9.5 60q0 87 40 87h41q25 0 34 11.5t9 41.5v148q0 10 10 10h179q10 0 10 -10v-157q0 -44 42 -44q22 0 29 11t7 42v148q0 10 10 10h179q10 0 10 -10v-155q0 -46 41 -46q22 0 29 11t7 42v207q0 10 10 10h179q10 0 10 -10v-298q0 -66 -27 -96
t-90 -30h-61q-77 0 -110 54q-22 -54 -105 -54h-61q-79 0 -111 55q-22 -55 -105 -55z" />
    <glyph glyph-name="aSin.medi" unicode="&#x633;" horiz-adv-x="932" arabic-form="medial" 
d="M821 49q-25 -49 -102 -49h-61q-77 0 -110 54q-22 -54 -105 -54h-61q-79 0 -111 55q-22 -55 -105 -55h-166q-21 0 -30.5 17t-9.5 60q0 87 40 87h41q25 0 34 11.5t9 41.5v148q0 10 10 10h179q10 0 10 -10v-157q0 -44 42 -44q22 0 29 11t7 42v148q0 10 10 10h179
q10 0 10 -10v-155q0 -46 41 -46q22 0 29 11t7 42v207q0 10 10 10h179q10 0 10 -10v-219q9 -41 62 -41h34q40 0 40 -83q0 -81 -40 -81q-38 0 -63.5 10.5t-47.5 38.5z" />
    <glyph glyph-name="uniFEB5" unicode="&#x634;" horiz-adv-x="1170" arabic-form="isolated" 
d="M64 219q4 7 16 5l161 -39q13 -2 6 -14q-26 -80 -26 -128q0 -106 75 -106q72 0 72 98v330q0 10 10 10h179q10 0 10 -10v-157q0 -44 42 -44q22 0 29 11t7 42v148q0 10 10 10h179q10 0 10 -10v-155q0 -46 41 -46q22 0 29 11t7 42v207q0 10 10 10h179q10 0 10 -10v-298
q0 -66 -27 -96t-90 -30h-61q-77 0 -110 54q-22 -54 -105 -54h-61q-67 0 -99 39v-15q0 -70 -23 -121.5t-63.5 -79t-86 -40t-99.5 -12.5t-100.5 13t-87 41.5t-64 80.5t-23.5 123q0 109 44 190zM899 536h-133q-10 0 -10 10v124q0 10 10 10h133q10 0 10 -10v-124q0 -10 -10 -10z
M718 536h-133q-10 0 -10 10v124q0 10 10 10h133q10 0 10 -10v-124q0 -10 -10 -10zM816 709h-151q-10 0 -10 10v124q0 10 10 10h151q10 0 10 -10v-124q0 -10 -10 -10z" />
    <glyph glyph-name="aShin.fina" unicode="&#x634;" horiz-adv-x="1215" arabic-form="final" 
d="M1105 49q-25 -49 -102 -49h-61q-77 0 -110 54q-22 -54 -105 -54h-61q-67 0 -99 39v-15q0 -70 -23 -121.5t-63.5 -79t-86 -40t-99.5 -12.5t-100.5 13t-87 41.5t-64 80.5t-23.5 123q0 109 44 190q4 7 16 5l161 -39q13 -2 6 -14q-26 -80 -26 -128q0 -106 75 -106q72 0 72 98
v330q0 10 10 10h179q10 0 11 -10v-149q0 -52 41 -52q22 0 29 11t7 42v148q0 10 10 10h179q10 0 10 -10v-149q0 -52 41 -52q22 0 29 11t7 42v207q0 10 10 10h179q10 0 10 -10v-219q9 -41 62 -41h34q40 0 40 -83q0 -81 -40 -81q-38 0 -63.5 10.5t-47.5 38.5zM899 536h-133
q-10 0 -10 10v124q0 10 10 10h133q10 0 10 -10v-124q0 -10 -10 -10zM718 536h-133q-10 0 -10 10v124q0 10 10 10h133q10 0 10 -10v-124q0 -10 -10 -10zM816 709h-151q-10 0 -10 10v124q0 10 10 10h151q10 0 10 -10v-124q0 -10 -10 -10z" />
    <glyph glyph-name="aShin.init" unicode="&#x634;" horiz-adv-x="886" arabic-form="initial" 
d="M166 0h-166q-21 0 -30.5 17t-9.5 60q0 87 40 87h41q25 0 34 11.5t9 41.5v148q0 10 10 10h179q10 0 10 -10v-157q0 -44 42 -44q22 0 29 11t7 42v148q0 10 10 10h179q10 0 10 -10v-155q0 -46 41 -46q22 0 29 11t7 42v207q0 10 10 10h179q10 0 10 -10v-298q0 -66 -27 -96
t-90 -30h-61q-77 0 -110 54q-22 -54 -105 -54h-61q-79 0 -111 55q-22 -55 -105 -55zM610 536h-133q-10 0 -10 10v124q0 10 10 10h133q10 0 10 -10v-124q0 -10 -10 -10zM429 536h-133q-10 0 -10 10v124q0 10 10 10h133q10 0 10 -10v-124q0 -10 -10 -10zM527 709h-151
q-10 0 -10 10v124q0 10 10 10h151q10 0 10 -10v-124q0 -10 -10 -10z" />
    <glyph glyph-name="aShin.medi" unicode="&#x634;" horiz-adv-x="932" arabic-form="medial" 
d="M821 49q-25 -49 -102 -49h-61q-77 0 -110 54q-22 -54 -105 -54h-61q-79 0 -111 55q-22 -55 -105 -55h-166q-21 0 -30.5 17t-9.5 60q0 87 40 87h41q25 0 34 11.5t9 41.5v148q0 10 10 10h179q10 0 10 -10v-157q0 -44 42 -44q22 0 29 11t7 42v148q0 10 10 10h179
q10 0 10 -10v-155q0 -46 41 -46q22 0 29 11t7 42v207q0 10 10 10h179q10 0 10 -10v-219q9 -41 62 -41h34q40 0 40 -83q0 -81 -40 -81q-38 0 -63.5 10.5t-47.5 38.5zM610 536h-133q-10 0 -10 10v124q0 10 10 10h133q10 0 10 -10v-124q0 -10 -10 -10zM429 536h-133
q-10 0 -10 10v124q0 10 10 10h133q10 0 10 -10v-124q0 -10 -10 -10zM527 709h-151q-10 0 -10 10v124q0 10 10 10h151q10 0 10 -10v-124q0 -10 -10 -10z" />
    <glyph glyph-name="uniFEB9" unicode="&#x635;" horiz-adv-x="1059" arabic-form="isolated" 
d="M714 286q-72 0 -147 -29v-93h160q54 0 71 10.5t17 43.5q0 37 -21 52.5t-80 15.5zM64 219q4 7 16 5l161 -39q13 -2 6 -14q-26 -80 -26 -128q0 -106 75 -106q72 0 72 98v405q0 10 10 10h179q10 0 10 -10v-26q96 36 194 36q56 0 99 -10.5t80.5 -35.5t58 -75t20.5 -122
q0 -115 -47.5 -161t-168.5 -46h-185q-31 0 -52 9q-6 -128 -82 -183t-189 -55q-54 0 -100.5 13t-87 41.5t-64 80.5t-23.5 123q0 109 44 190z" />
    <glyph glyph-name="aSad.fina" unicode="&#x635;" horiz-adv-x="1115" arabic-form="final" 
d="M714 286q-72 0 -147 -29v-93h160q54 0 71 10.5t17 43.5q0 37 -21 52.5t-80 15.5zM987 65q-44 -65 -184 -65h-185q-31 0 -52 9q-6 -128 -82 -183t-189 -55q-54 0 -100.5 13t-87 41.5t-64 80.5t-23.5 123q0 109 44 190q4 7 16 5l161 -39q13 -2 6 -14q-26 -80 -26 -128
q0 -106 75 -106q72 0 72 98v405q0 10 10 10h179q10 0 10 -10v-26q96 36 194 36q56 0 99 -10.5t80.5 -36t58 -75.5t20.5 -123q9 -41 62 -41h34q40 0 40 -83q0 -81 -40 -81q-48 0 -76.5 13.5t-51.5 51.5z" />
    <glyph glyph-name="aSad.init" unicode="&#x635;" horiz-adv-x="741" arabic-form="initial" 
d="M396 286q-66 0 -146 -29v-93h159q54 0 71 10.5t17 43.5q0 37 -21 52.5t-80 15.5zM0 164h18q20 0 26.5 11t6.5 42v223q0 10 10 10h179q10 0 10 -10v-26q101 36 193 36q56 0 99 -10.5t80.5 -35.5t58 -75t20.5 -122q0 -115 -47.5 -161t-168.5 -46h-185q-56 0 -79 29
q-29 -29 -88 -29h-133q-21 0 -30.5 18.5t-9.5 66.5q0 49 8.5 64t31.5 15z" />
    <glyph glyph-name="aSad.medi" unicode="&#x635;" horiz-adv-x="797" arabic-form="medial" 
d="M396 286q-66 0 -146 -29v-93h159q54 0 71 10.5t17 43.5q0 37 -21 52.5t-80 15.5zM670 65q-43 -65 -185 -65h-185q-56 0 -79 29q-29 -29 -88 -29h-133q-21 0 -30.5 18.5t-9.5 66.5q0 49 8.5 64t31.5 15h18q20 0 26.5 11t6.5 42v223q0 10 10 10h179q10 0 10 -10v-26
q101 36 193 36q56 0 99 -10.5t80.5 -36t58 -75.5t20.5 -123q9 -41 62 -41h34q40 0 40 -83q0 -81 -40 -81q-47 0 -75.5 13.5t-51.5 51.5z" />
    <glyph glyph-name="uniFEBD" unicode="&#x636;" horiz-adv-x="1059" arabic-form="isolated" 
d="M714 286q-72 0 -147 -29v-93h160q54 0 71 10.5t17 43.5q0 37 -21 52.5t-80 15.5zM64 219q4 7 16 5l161 -39q13 -2 6 -14q-26 -80 -26 -128q0 -106 75 -106q72 0 72 98v405q0 10 10 10h179q10 0 10 -10v-26q96 36 194 36q56 0 99 -10.5t80.5 -35.5t58 -75t20.5 -122
q0 -115 -47.5 -161t-168.5 -46h-185q-31 0 -52 9q-6 -128 -82 -183t-189 -55q-54 0 -100.5 13t-87 41.5t-64 80.5t-23.5 123q0 109 44 190zM813 536h-180q-10 0 -10 10v124q0 10 10 10h180q10 0 10 -10v-124q0 -10 -10 -10z" />
    <glyph glyph-name="aDad.fina" unicode="&#x636;" horiz-adv-x="1115" arabic-form="final" 
d="M813 536h-180q-10 0 -10 10v124q0 10 10 10h180q10 0 10 -10v-124q0 -10 -10 -10zM714 286q-72 0 -147 -29v-93h160q54 0 71 10.5t17 43.5q0 37 -21 52.5t-80 15.5zM987 65q-44 -65 -184 -65h-185q-31 0 -52 9q-6 -128 -82 -183t-189 -55q-54 0 -100.5 13t-87 41.5
t-64 80.5t-23.5 123q0 109 44 190q4 7 16 5l161 -39q13 -2 6 -14q-26 -80 -26 -128q0 -106 75 -106q72 0 72 98v405q0 10 10 10h179q10 0 10 -10v-26q96 36 194 36q56 0 99 -10.5t80.5 -36t58 -75.5t20.5 -123q9 -41 62 -41h34q40 0 40 -83q0 -81 -40 -81q-48 0 -76.5 13.5
t-51.5 51.5z" />
    <glyph glyph-name="aDad.init" unicode="&#x636;" horiz-adv-x="741" arabic-form="initial" 
d="M499 536h-180q-10 0 -10 10v124q0 10 10 10h180q10 0 10 -10v-124q0 -10 -10 -10zM396 286q-66 0 -146 -29v-93h159q54 0 71 10.5t17 43.5q0 37 -21 52.5t-80 15.5zM0 164h18q20 0 26.5 11t6.5 42v223q0 10 10 10h179q10 0 10 -10v-26q101 36 193 36q56 0 99 -10.5
t80.5 -35.5t58 -75t20.5 -122q0 -115 -47.5 -161t-168.5 -46h-185q-56 0 -79 29q-29 -29 -88 -29h-133q-21 0 -30.5 18.5t-9.5 66.5q0 49 8.5 64t31.5 15z" />
    <glyph glyph-name="aDad.medi" unicode="&#x636;" horiz-adv-x="797" arabic-form="medial" 
d="M499 536h-180q-10 0 -10 10v124q0 10 10 10h180q10 0 10 -10v-124q0 -10 -10 -10zM396 286q-66 0 -146 -29v-93h159q54 0 71 10.5t17 43.5q0 37 -21 52.5t-80 15.5zM670 65q-43 -65 -185 -65h-185q-56 0 -79 29q-29 -29 -88 -29h-133q-21 0 -30.5 18.5t-9.5 66.5
q0 49 8.5 64t31.5 15h18q20 0 26.5 11t6.5 42v223q0 10 10 10h179q10 0 10 -10v-26q101 36 193 36q56 0 99 -10.5t80.5 -36t58 -75.5t20.5 -123q9 -41 62 -41h34q40 0 40 -83q0 -81 -40 -81q-47 0 -75.5 13.5t-51.5 51.5z" />
    <glyph glyph-name="uniFEC1" unicode="&#x637;" horiz-adv-x="781" arabic-form="isolated" 
d="M436 286q-66 0 -146 -29v-93h159q54 0 71 10.5t17 43.5q0 37 -21 52.5t-80 15.5zM20 164h38q20 0 26.5 11t6.5 42v453q0 10 10 10h179q10 0 10 -10v-256q101 36 193 36q56 0 99 -10.5t80.5 -35.5t58 -75t20.5 -122q0 -115 -47.5 -161t-168.5 -46h-185q-56 0 -79 29
q-29 -29 -88 -29h-153q-10 0 -10 10v144q0 10 10 10z" />
    <glyph glyph-name="aTah.fina" unicode="&#x637;" horiz-adv-x="837" arabic-form="final" 
d="M436 286q-66 0 -146 -29v-93h159q54 0 71 10.5t17 43.5q0 37 -21 52.5t-80 15.5zM710 65q-43 -65 -185 -65h-185q-56 0 -79 29q-29 -29 -88 -29h-153q-10 0 -10 10v144q0 10 10 10h38q20 0 26.5 11t6.5 42v453q0 10 10 10h179q10 0 10 -10v-256q101 36 193 36
q56 0 99 -10.5t80.5 -36t58 -75.5t20.5 -123q9 -41 62 -41h34q40 0 40 -83q0 -81 -40 -81q-47 0 -75.5 13.5t-51.5 51.5z" />
    <glyph glyph-name="aTah.init" unicode="&#x637;" horiz-adv-x="766" arabic-form="initial" 
d="M421 286q-66 0 -146 -29v-93h159q54 0 71 10.5t17 43.5q0 37 -21 52.5t-80 15.5zM0 164h43q20 0 26.5 11t6.5 42v453q0 10 10 10h179q10 0 10 -10v-256q101 36 193 36q56 0 99 -10.5t80.5 -35.5t58 -75t20.5 -122q0 -115 -47.5 -161t-168.5 -46h-185q-56 0 -79 29
q-29 -29 -88 -29h-158q-21 0 -30.5 18.5t-9.5 66.5q0 49 8.5 64t31.5 15z" />
    <glyph glyph-name="aTah.medi" unicode="&#x637;" horiz-adv-x="822" arabic-form="medial" 
d="M421 286q-66 0 -146 -29v-93h159q54 0 71 10.5t17 43.5q0 37 -21 52.5t-80 15.5zM695 65q-43 -65 -185 -65h-185q-56 0 -79 29q-29 -29 -88 -29h-158q-21 0 -30.5 18.5t-9.5 66.5q0 49 8.5 64t31.5 15h43q20 0 26.5 11t6.5 42v453q0 10 10 10h179q10 0 10 -10v-256
q101 36 193 36q56 0 99 -10.5t80.5 -36t58 -75.5t20.5 -123q9 -41 62 -41h34q40 0 40 -83q0 -81 -40 -81q-47 0 -75.5 13.5t-51.5 51.5z" />
    <glyph glyph-name="uniFEC5" unicode="&#x638;" horiz-adv-x="781" arabic-form="isolated" 
d="M436 286q-66 0 -146 -29v-93h159q54 0 71 10.5t17 43.5q0 37 -21 52.5t-80 15.5zM20 164h38q20 0 26.5 11t6.5 42v453q0 10 10 10h179q10 0 10 -10v-256q101 36 193 36q56 0 99 -10.5t80.5 -35.5t58 -75t20.5 -122q0 -115 -47.5 -161t-168.5 -46h-185q-56 0 -79 29
q-29 -29 -88 -29h-153q-10 0 -10 10v144q0 10 10 10zM588 536h-180q-10 0 -10 10v124q0 10 10 10h180q10 0 10 -10v-124q0 -10 -10 -10z" />
    <glyph glyph-name="aZah.fina" unicode="&#x638;" horiz-adv-x="837" arabic-form="final" 
d="M581 536h-180q-10 0 -10 10v124q0 10 10 10h180q10 0 10 -10v-124q0 -10 -10 -10zM436 286q-66 0 -146 -29v-93h159q54 0 71 10.5t17 43.5q0 37 -21 52.5t-80 15.5zM710 65q-43 -65 -185 -65h-185q-56 0 -79 29q-29 -29 -88 -29h-153q-10 0 -10 10v144q0 10 10 10h38
q20 0 26.5 11t6.5 42v453q0 10 10 10h179q10 0 10 -10v-256q101 36 193 36q56 0 99 -10.5t80.5 -36t58 -75.5t20.5 -123q9 -41 62 -41h34q40 0 40 -83q0 -81 -40 -81q-47 0 -75.5 13.5t-51.5 51.5z" />
    <glyph glyph-name="aZah.init" unicode="&#x638;" horiz-adv-x="766" arabic-form="initial" 
d="M573 536h-180q-10 0 -10 10v124q0 10 10 10h180q10 0 10 -10v-124q0 -10 -10 -10zM421 286q-66 0 -146 -29v-93h159q54 0 71 10.5t17 43.5q0 37 -21 52.5t-80 15.5zM0 164h43q20 0 26.5 11t6.5 42v453q0 10 10 10h179q10 0 10 -10v-256q101 36 193 36q56 0 99 -10.5
t80.5 -35.5t58 -75t20.5 -122q0 -115 -47.5 -161t-168.5 -46h-185q-56 0 -79 29q-29 -29 -88 -29h-158q-21 0 -30.5 18.5t-9.5 66.5q0 49 8.5 64t31.5 15z" />
    <glyph glyph-name="aZah.medi" unicode="&#x638;" horiz-adv-x="822" arabic-form="medial" 
d="M566 536h-180q-10 0 -10 10v124q0 10 10 10h180q10 0 10 -10v-124q0 -10 -10 -10zM421 286q-66 0 -146 -29v-93h159q54 0 71 10.5t17 43.5q0 37 -21 52.5t-80 15.5zM695 65q-43 -65 -185 -65h-185q-56 0 -79 29q-29 -29 -88 -29h-158q-21 0 -30.5 18.5t-9.5 66.5
q0 49 8.5 64t31.5 15h43q20 0 26.5 11t6.5 42v453q0 10 10 10h179q10 0 10 -10v-256q101 36 193 36q56 0 99 -10.5t80.5 -36t58 -75.5t20.5 -123q9 -41 62 -41h34q40 0 40 -83q0 -81 -40 -81q-47 0 -75.5 13.5t-51.5 51.5z" />
    <glyph glyph-name="uniFEC9" unicode="&#x639;" horiz-adv-x="564" arabic-form="isolated" 
d="M20 -30q0 128 89 172q-31 47 -31 109q0 94 62.5 146.5t164.5 52.5q142 0 220 -71q7 -7 -1 -16l-83 -114q-8 -8 -16 -1q-41 38 -84 38q-23 0 -41 -14t-18 -46q0 -34 28 -62h209q10 0 10 -10v-144q0 -10 -10 -10h-271q-13 0 -19 -4t-7 -8t-1 -12q0 -14 6.5 -18t26.5 -4h109
q10 0 10 -10v-144q0 -10 -10 -10h-128q-109 0 -162 43t-53 137z" />
    <glyph glyph-name="aAyn.fina" unicode="&#x639;" horiz-adv-x="596" arabic-form="final" 
d="M313 172q57 35 57 73q0 17 -13.5 29t-43.5 12q-41 0 -66 -11q38 -33 66 -103zM221 -17q0 -29 58 -29h84q10 0 10 -10v-144q0 -10 -10 -10h-128q-102 0 -158.5 43t-56.5 126q0 138 163 183q-29 42 -118 108q-14 9 -14 20v107q0 14 10 20q40 23 108 38t144 15
q132 0 196 -43.5t64 -111.5q0 -73 -78 -131h101q40 0 40 -82q0 -44 -9.5 -63t-30.5 -19h-167q-74 0 -121 31q-11 -4 -25 -8t-20.5 -6t-15 -5.5t-12.5 -5.5t-8 -5.5t-5 -7.5t-1 -10z" />
    <glyph glyph-name="aAyn.init" unicode="&#x639;" horiz-adv-x="524" arabic-form="initial" 
d="M0 164h47q-19 37 -19 87q0 94 62.5 146.5t164.5 52.5q142 0 220 -71q7 -7 -1 -16l-83 -114q-8 -8 -16 -1q-41 38 -84 38q-23 0 -41 -14t-18 -46q0 -34 28 -62h219q10 0 10 -10v-144q0 -10 -10 -10h-479q-21 0 -30.5 17.5t-9.5 61.5q0 85 40 85z" />
    <glyph glyph-name="aAyn.medi" unicode="&#x639;" horiz-adv-x="609" arabic-form="medial" 
d="M303 172q57 35 57 73q0 17 -13.5 29t-43.5 12q-41 0 -66 -11q38 -33 66 -103zM303 450q132 0 196 -43.5t64 -111.5q0 -73 -78 -131h124q40 0 40 -87q0 -42 -9.5 -59.5t-30.5 -17.5h-176q-80 0 -130 31q-57 -31 -136 -31h-167q-21 0 -30.5 16.5t-9.5 57.5q0 90 40 90h122
q16 0 35 3q-10 12 -23.5 24t-21 18t-30.5 22t-27 19q-14 9 -14 20v107q0 14 10 20q40 23 108 38t144 15z" />
    <glyph glyph-name="uniFECD" unicode="&#x63a;" horiz-adv-x="564" arabic-form="isolated" 
d="M20 -30q0 128 89 172q-31 47 -31 109q0 94 62.5 146.5t164.5 52.5q142 0 220 -71q7 -7 -1 -16l-83 -114q-8 -8 -16 -1q-41 38 -84 38q-23 0 -41 -14t-18 -46q0 -34 28 -62h209q10 0 10 -10v-144q0 -10 -10 -10h-271q-13 0 -19 -4t-7 -8t-1 -12q0 -14 6.5 -18t26.5 -4h109
q10 0 10 -10v-144q0 -10 -10 -10h-128q-109 0 -162 43t-53 137zM397 536h-180q-10 0 -10 10v124q0 10 10 10h180q10 0 10 -10v-124q0 -10 -10 -10z" />
    <glyph glyph-name="aGhayn.fina" unicode="&#x63a;" horiz-adv-x="596" arabic-form="final" 
d="M402 536h-180q-10 0 -10 10v124q0 10 10 10h180q10 0 10 -10v-124q0 -10 -10 -10zM313 172q57 35 57 73q0 17 -13.5 29t-43.5 12q-41 0 -66 -11q38 -33 66 -103zM221 -17q0 -29 58 -29h84q10 0 10 -10v-144q0 -10 -10 -10h-128q-102 0 -158.5 43t-56.5 126q0 138 163 183
q-29 42 -118 108q-14 9 -14 20v107q0 14 10 20q40 23 108 38t144 15q132 0 196 -43.5t64 -111.5q0 -73 -78 -131h101q40 0 40 -82q0 -44 -9.5 -63t-30.5 -19h-167q-74 0 -121 31q-11 -4 -25 -8t-20.5 -6t-15 -5.5t-12.5 -5.5t-8 -5.5t-5 -7.5t-1 -10z" />
    <glyph glyph-name="aGhayn.init" unicode="&#x63a;" horiz-adv-x="524" arabic-form="initial" 
d="M347 536h-180q-10 0 -10 10v124q0 10 10 10h180q10 0 10 -10v-124q0 -10 -10 -10zM0 164h47q-19 37 -19 87q0 94 62.5 146.5t164.5 52.5q142 0 220 -71q7 -7 -1 -16l-83 -114q-8 -8 -16 -1q-41 38 -84 38q-23 0 -41 -14t-18 -46q0 -34 28 -62h219q10 0 10 -10v-144
q0 -10 -10 -10h-479q-21 0 -30.5 17.5t-9.5 61.5q0 85 40 85z" />
    <glyph glyph-name="aGhayn.medi" unicode="&#x63a;" horiz-adv-x="609" arabic-form="medial" 
d="M393 536h-180q-10 0 -10 10v124q0 10 10 10h180q10 0 10 -10v-124q0 -10 -10 -10zM303 172q57 35 57 73q0 17 -13.5 29t-43.5 12q-41 0 -66 -11q38 -33 66 -103zM303 450q132 0 196 -43.5t64 -111.5q0 -73 -78 -131h124q40 0 40 -87q0 -42 -9.5 -59.5t-30.5 -17.5h-176
q-80 0 -130 31q-57 -31 -136 -31h-167q-21 0 -30.5 16.5t-9.5 57.5q0 90 40 90h122q16 0 35 3q-10 12 -23.5 24t-21 18t-30.5 22t-27 19q-14 9 -14 20v107q0 14 10 20q40 23 108 38t144 15z" />
    <glyph glyph-name="uniFED1" unicode="&#x641;" horiz-adv-x="1017" arabic-form="isolated" 
d="M726 286q-57 0 -57 -63q0 -38 14.5 -52t42.5 -14q29 0 43 13.5t14 52.5q0 36 -14 49.5t-43 13.5zM726 0h-559q-63 0 -90 30t-27 96v233q0 10 10 10h179q10 0 10 -10v-142q0 -29 11.5 -41t36.5 -12h182q-4 17 -4 50q0 236 251 236t251 -236q0 -214 -251 -214zM816 536
h-180q-10 0 -10 10v124q0 10 10 10h180q10 0 10 -10v-124q0 -10 -10 -10z" />
    <glyph glyph-name="aFeh.fina" unicode="&#x641;" horiz-adv-x="986" arabic-form="final" 
d="M693 330q-19 0 -35.5 -16t-16.5 -48q0 -22 8.5 -39.5t17 -25.5t26.5 -20q18 12 26.5 20t17 25.5t8.5 39.5q0 32 -16.5 48t-35.5 16zM693 450q108 0 177 -42t69 -125q0 -72 -66 -119h113q21 0 30.5 -19t9.5 -66q0 -79 -40 -79h-163q-90 0 -129 24q-44 -24 -137 -24h-390
q-63 0 -90 30t-27 96v243q0 10 10 10h179q10 0 10 -10v-152q0 -29 11.5 -41t36.5 -12h216q-66 47 -66 119q0 83 69 125t177 42zM782 536h-180q-10 0 -10 10v124q0 10 10 10h180q10 0 10 -10v-124q0 -10 -10 -10z" />
    <glyph glyph-name="aFeh.init" unicode="&#x641;" horiz-adv-x="579" arabic-form="initial" 
d="M379 536h-180q-10 0 -10 10v124q0 10 10 10h180q10 0 10 -10v-124q0 -10 -10 -10zM288 286q-57 0 -57 -63q0 -38 14.5 -52t42.5 -14q29 0 43 13.5t14 52.5q0 36 -14 49.5t-43 13.5zM288 0h-288q-22 0 -31 17.5t-9 64.5q0 82 40 82h41q-4 17 -4 50q0 236 251 236t251 -236
q0 -214 -251 -214z" />
    <glyph glyph-name="aFeh.medi" unicode="&#x641;" horiz-adv-x="602" arabic-form="medial" 
d="M305 330q-19 0 -35.5 -15.5t-16.5 -47.5q0 -23 8.5 -40.5t17 -25.5t26.5 -20q18 12 26.5 20t17 25.5t8.5 40.5q0 32 -16.5 47.5t-35.5 15.5zM305 450q108 0 177 -41.5t69 -124.5q0 -73 -66 -120h117q21 0 30.5 -19t9.5 -66q0 -79 -40 -79h-167q-90 0 -129 24
q-44 -24 -137 -24h-169q-21 0 -30.5 19.5t-9.5 64.5q0 80 40 80h125q-66 47 -66 120q0 83 69 124.5t177 41.5zM391 536h-180q-10 0 -10 10v124q0 10 10 10h180q10 0 10 -10v-124q0 -10 -10 -10z" />
    <glyph glyph-name="uniFED5" unicode="&#x642;" horiz-adv-x="892" arabic-form="isolated" 
d="M595 286q-56 0 -56 -64q0 -35 15 -46.5t41 -11.5h53v62q0 60 -53 60zM842 219v-263q0 -88 -57.5 -127t-175.5 -39h-271q-308 0 -308 234q0 98 63 198q6 8 16 4l150 -72q8 -5 3 -13q-31 -55 -31 -99q0 -86 130 -86h195q61 0 78 7.5t17 31.5v5h-87q-109 0 -162 50.5
t-53 162.5q0 68 20.5 116.5t57 73.5t77 36t89.5 11q249 0 249 -231zM772 536h-133q-10 0 -10 10v124q0 10 10 10h133q10 0 10 -10v-124q0 -10 -10 -10zM591 536h-133q-10 0 -10 10v124q0 10 10 10h133q10 0 10 -10v-124q0 -10 -10 -10z" />
    <glyph glyph-name="aQaf.fina" unicode="&#x642;" horiz-adv-x="908" arabic-form="final" 
d="M752 536h-133q-10 0 -10 10v124q0 10 10 10h133q10 0 10 -10v-124q0 -10 -10 -10zM571 536h-133q-10 0 -10 10v124q0 10 10 10h133q10 0 10 -10v-124q0 -10 -10 -10zM595 286q-56 0 -56 -64q0 -35 15 -46.5t41 -11.5h53v62q0 60 -53 60zM361 -44h195q61 0 78 7.5t17 31.5
v5h-87q-109 0 -162 50.5t-53 162.5q0 68 20.5 116.5t57 73.5t77 36t89.5 11q249 0 249 -231v-55h66q21 0 30.5 -19t9.5 -66q0 -79 -40 -79h-66v-44q0 -88 -57.5 -127t-175.5 -39h-271q-308 0 -308 234q0 98 63 198q6 8 16 4l150 -72q8 -5 3 -13q-31 -55 -31 -99
q0 -86 130 -86z" />
    <glyph glyph-name="aQaf.init" unicode="&#x642;" horiz-adv-x="579" arabic-form="initial" 
d="M443 536h-133q-10 0 -10 10v124q0 10 10 10h133q10 0 10 -10v-124q0 -10 -10 -10zM262 536h-133q-10 0 -10 10v124q0 10 10 10h133q10 0 10 -10v-124q0 -10 -10 -10zM288 286q-57 0 -57 -63q0 -38 14.5 -52t42.5 -14q29 0 43 13.5t14 52.5q0 36 -14 49.5t-43 13.5zM288 0
h-288q-22 0 -31 17.5t-9 64.5q0 82 40 82h41q-4 17 -4 50q0 236 251 236t251 -236q0 -214 -251 -214z" />
    <glyph glyph-name="aQaf.medi" unicode="&#x642;" horiz-adv-x="602" arabic-form="medial" 
d="M305 330q-19 0 -35.5 -15.5t-16.5 -47.5q0 -23 8.5 -40.5t17 -25.5t26.5 -20q18 12 26.5 20t17 25.5t8.5 40.5q0 32 -16.5 47.5t-35.5 15.5zM305 450q108 0 177 -41.5t69 -124.5q0 -73 -66 -120h117q21 0 30.5 -19t9.5 -66q0 -79 -40 -79h-167q-90 0 -129 24
q-44 -24 -137 -24h-169q-21 0 -30.5 19.5t-9.5 64.5q0 80 40 80h125q-66 47 -66 120q0 83 69 124.5t177 41.5zM467 536h-133q-10 0 -10 10v124q0 10 10 10h133q10 0 10 -10v-124q0 -10 -10 -10zM286 536h-133q-10 0 -10 10v124q0 10 10 10h133q10 0 10 -10v-124
q0 -10 -10 -10z" />
    <glyph glyph-name="uniFED9" unicode="&#x643;" horiz-adv-x="892" arabic-form="isolated" 
d="M297 164h297q27 0 38 11.5t11 41.5v452q0 10 10 10h179q10 0 10 -10v-543q0 -67 -27 -96.5t-92 -29.5h-556q-63 0 -90 30t-27 96v233q0 10 10 10h179q10 0 10 -10v-142q0 -29 11.5 -41t36.5 -12zM503 522l-42 -49h19q72 0 72 -71v-36q0 -37 -15.5 -52t-46.5 -15h-136
q-10 0 -10 10v44q0 10 10 10h93q17 0 21 4.5t4 17.5q0 14 -5.5 18.5t-20.5 4.5h-71q-14 0 -14 14v43q0 7 5 12l79 94q8 10 16 2l42 -34q7 -7 0 -17z" />
    <glyph glyph-name="aKaf.fina" unicode="&#x643;" horiz-adv-x="938" arabic-form="final" 
d="M503 522l-42 -49h19q72 0 72 -71v-36q0 -37 -15.5 -52t-46.5 -15h-136q-10 0 -10 10v44q0 10 10 10h93q17 0 21 4.5t4 17.5q0 14 -5.5 18.5t-20.5 4.5h-71q-14 0 -14 14v43q0 7 5 12l79 94q8 10 16 2l42 -34q7 -7 0 -17zM827 49q-25 -49 -104 -49h-556q-63 0 -90 30
t-27 96v233q0 10 10 10h179q10 0 10 -10v-142q0 -29 11.5 -41t36.5 -12h297q27 0 38 11.5t11 41.5v452q0 10 10 10h179q10 0 10 -10v-464q9 -41 62 -41h34q40 0 40 -83q0 -81 -40 -81q-38 0 -63.5 10.5t-47.5 38.5z" />
    <glyph glyph-name="aKaf.init" unicode="&#x643;" horiz-adv-x="498" arabic-form="initial" 
d="M409 587l-119 -137q86 -8 124.5 -53.5t38.5 -137.5v-88q0 -92 -40 -131.5t-119 -39.5h-294q-21 0 -30.5 19.5t-9.5 68.5q0 41 9.5 58.5t30.5 17.5h185q40 0 52 8t12 36v30q0 30 -14.5 40.5t-51.5 10.5h-139q-10 0 -10 10v108q0 7 9 16l232 274q6 7 13 3l117 -99
q8 -8 4 -14z" />
    <glyph glyph-name="aKaf.medi" unicode="&#x643;" horiz-adv-x="549" arabic-form="medial" 
d="M409 587l-119 -137q86 -8 124.5 -53.5t38.5 -137.5v-54q9 -41 62 -41h34q40 0 40 -83q0 -81 -40 -81q-45 0 -72.5 11.5t-49.5 45.5q-38 -57 -133 -57h-294q-21 0 -30.5 19.5t-9.5 68.5q0 41 9.5 58.5t30.5 17.5h185q40 0 52 8t12 36v30q0 30 -14.5 40.5t-51.5 10.5h-139
q-10 0 -10 10v108q0 7 9 16l232 274q6 7 13 3l117 -99q8 -8 4 -14z" />
    <glyph glyph-name="uniFEDD" unicode="&#x644;" horiz-adv-x="637" arabic-form="isolated" 
d="M84 219q4 7 16 5l161 -39q13 -2 6 -14q-26 -80 -26 -128q0 -106 75 -106q72 0 72 98v634q0 10 10 10h179q10 0 10 -10v-645q0 -70 -23 -121.5t-63.5 -79t-86 -40t-99.5 -12.5t-100.5 13t-87 41.5t-64 80.5t-23.5 123q0 109 44 190z" />
    <glyph glyph-name="aLam.fina" unicode="&#x644;" horiz-adv-x="683" arabic-form="final" 
d="M84 219q4 7 16 5l161 -39q13 -2 6 -14q-26 -80 -26 -128q0 -106 75 -106q72 0 72 98v634q0 10 10 10h179q10 0 10 -10v-464q9 -41 62 -41h34q40 0 40 -83q0 -81 -40 -81q-63 0 -96 31v-7q0 -70 -23 -121.5t-63.5 -79t-86 -40t-99.5 -12.5t-100.5 13t-87 41.5t-64 80.5
t-23.5 123q0 109 44 190z" />
    <glyph glyph-name="aLam.init" unicode="&#x644;" horiz-adv-x="305" arabic-form="initial" 
d="M138 0h-138q-21 0 -30.5 7.5t-9.5 27.5q0 36 11 82.5t29 46.5h8q25 0 36.5 12t11.5 41v453q0 10 10 10h179q10 0 10 -10v-544q0 -66 -27 -96t-90 -30z" />
    <glyph glyph-name="aLam.medi" unicode="&#x644;" horiz-adv-x="351" arabic-form="medial" 
d="M240 49q-25 -49 -102 -49h-138q-21 0 -30.5 7.5t-9.5 27.5q0 36 11 82.5t29 46.5h8q25 0 36.5 12t11.5 41v453q0 10 10 10h179q10 0 10 -10v-465q9 -41 62 -41h34q40 0 40 -83q0 -81 -40 -81q-38 0 -63.5 10.5t-47.5 38.5z" />
    <glyph glyph-name="uniFEE1" unicode="&#x645;" horiz-adv-x="666" arabic-form="isolated" 
d="M375 286q-57 0 -57 -63q0 -38 14.5 -52t42.5 -14q29 0 43 13.5t14 52.5q0 36 -14 49.5t-43 13.5zM375 -7q-86 0 -140 25q-16 -19 -16 -54v-163h-199v184q0 40 9.5 68t24 42.5t29 25.5t27 25.5t15.5 34.5q-1 11 -1 33q0 236 251 236t251 -236q0 -221 -251 -221z" />
    <glyph glyph-name="aMim.fina" unicode="&#x645;" horiz-adv-x="717" arabic-form="final" 
d="M375 286q-57 0 -57 -63q0 -38 14.5 -52t42.5 -14q29 0 43 13.5t14 52.5q0 36 -14 49.5t-43 13.5zM375 -7q-86 0 -140 25q-16 -19 -16 -54v-163h-199v184q0 40 9.5 68t24 42.5t29 25.5t27 25.5t15.5 34.5q-1 11 -1 33q0 236 251 236t251 -236v-9q9 -41 62 -41h29
q40 0 40 -83q0 -81 -40 -81q-89 0 -135 68q-62 -75 -207 -75z" />
    <glyph glyph-name="aMim.init" unicode="&#x645;" horiz-adv-x="611" arabic-form="initial" 
d="M320 286q-58 0 -58 -63q0 -38 15 -52t43 -14q29 0 43 13.5t14 52.5q0 36 -14 49.5t-43 13.5zM320 -7q-138 0 -199 66q-29 -59 -121 -59q-21 0 -30.5 17.5t-9.5 61.5q0 85 40 85h8q25 0 42.5 21t20.5 69q4 58 27.5 98.5t61 60.5t76.5 28.5t84 8.5q251 0 251 -236
q0 -221 -251 -221z" />
    <glyph glyph-name="aMim.medi" unicode="&#x645;" horiz-adv-x="662" arabic-form="medial" 
d="M320 286q-57 0 -57 -63q0 -38 14.5 -52t42.5 -14q29 0 43 13.5t14 52.5q0 36 -14 49.5t-43 13.5zM320 -7q-138 0 -199 66q-29 -59 -121 -59q-21 0 -30.5 17.5t-9.5 61.5q0 85 40 85h8q25 0 42.5 21t20.5 69q4 58 27.5 98.5t61 60.5t76.5 28.5t84 8.5q251 0 251 -236v-9
q9 -41 62 -41h29q40 0 40 -83q0 -81 -40 -81q-89 0 -135 68q-62 -75 -207 -75z" />
    <glyph glyph-name="uniFEE5" unicode="&#x646;" horiz-adv-x="637" arabic-form="isolated" 
d="M412 481h-180q-10 0 -10 10v124q0 10 10 10h180q10 0 10 -10v-124q0 -10 -10 -10zM84 219q4 7 16 5l161 -39q13 -2 6 -14q-26 -80 -26 -128q0 -106 75 -106q72 0 72 98v309q0 10 10 10h179q10 0 10 -10v-320q0 -70 -23 -121.5t-63.5 -79t-86 -40t-99.5 -12.5t-100.5 13
t-87 41.5t-64 80.5t-23.5 123q0 109 44 190z" />
    <glyph glyph-name="aNun.fina" unicode="&#x646;" horiz-adv-x="683" arabic-form="final" 
d="M412 481h-180q-10 0 -10 10v124q0 10 10 10h180q10 0 10 -10v-124q0 -10 -10 -10zM84 219q4 7 16 5l161 -39q13 -2 6 -14q-26 -80 -26 -128q0 -106 75 -106q72 0 72 98v309q0 10 10 10h179q10 0 10 -10v-139q9 -41 62 -41h34q40 0 40 -83q0 -81 -40 -81q-63 0 -96 31v-7
q0 -70 -23 -121.5t-63.5 -79t-86 -40t-99.5 -12.5t-100.5 13t-87 41.5t-64 80.5t-23.5 123q0 109 44 190z" />
    <glyph glyph-name="aNun.init" unicode="&#x646;" horiz-adv-x="305" arabic-form="initial" 
d="M246 536h-180q-10 0 -10 10v124q0 10 10 10h180q10 0 10 -10v-124q0 -10 -10 -10zM138 0h-138q-21 0 -30.5 7.5t-9.5 27.5q0 36 11 82.5t29 46.5h8q25 0 36.5 12t11.5 41v207q0 10 10 10h179q10 0 10 -10v-298q0 -66 -27 -96t-90 -30z" />
    <glyph glyph-name="aNun.medi" unicode="&#x646;" horiz-adv-x="351" arabic-form="medial" 
d="M247 536h-180q-10 0 -10 10v124q0 10 10 10h180q10 0 10 -10v-124q0 -10 -10 -10zM240 49q-25 -49 -102 -49h-138q-21 0 -30.5 7.5t-9.5 27.5q0 36 11 82.5t29 46.5h8q25 0 36.5 12t11.5 41v207q0 10 10 10h179q10 0 10 -10v-219q9 -41 62 -41h34q40 0 40 -83
q0 -81 -40 -81q-38 0 -63.5 10.5t-47.5 38.5z" />
    <glyph glyph-name="aHeh.isol" unicode="&#x647;" horiz-adv-x="817" arabic-form="isolated" 
d="M569 239q0 78 -81 98q21 -45 21 -101q0 -58 -19 -87q39 2 59 21.5t20 68.5zM336 323q-44 0 -44 -85t44 -85q21 0 32 18t11 67q0 85 -43 85zM553 0h-299q-23 0 -29.5 -6.5t-6.5 -27.5v-57q0 -10 -10 -10h-179q-10 0 -10 10v145q0 52 23 81t82 29h63q-12 27 -12 74
q0 38 12 79l-11 -3q-13 -3 -15 2l-30 121q-4 12 1 15q44 15 139.5 28.5t167.5 13.5q57 0 103.5 -6.5t91.5 -24t75.5 -46.5t49 -76t18.5 -110q0 -53 -9 -91t-32 -71.5t-69 -51t-114 -17.5z" />
    <glyph glyph-name="aHeh.fina" unicode="&#x647;" horiz-adv-x="614" arabic-form="final" 
d="M285 196q63 0 63 51v39h-62q-32 0 -47 -10t-15 -36q0 -27 16 -35.5t45 -8.5zM245 450h103v43q0 10 10 10h179q10 0 10 -10v-276q0 -29 11.5 -41t36.5 -12h19q40 0 40 -82q0 -44 -9.5 -63t-30.5 -19h-149q-53 0 -78.5 14t-34.5 54q-50 -36 -116 -36q-89 0 -147.5 49.5
t-58.5 157.5q0 61 18.5 104.5t51 65.5t67.5 31.5t78 9.5z" />
    <glyph glyph-name="aHeh.init" unicode="&#x647;" horiz-adv-x="700" arabic-form="initial" 
d="M452 239q0 78 -81 98q21 -45 21 -101q0 -58 -19 -87q39 2 59 21.5t20 68.5zM219 323q-44 0 -44 -85t44 -85q21 0 32 18t11 67q0 85 -43 85zM-40 81q0 83 40 83h70q-12 27 -12 74q0 38 12 79l-11 -3q-13 -3 -15 2l-30 121q-4 12 1 15q44 15 139.5 28.5t167.5 13.5
q57 0 103.5 -6.5t91.5 -24t75.5 -46.5t49 -76t18.5 -110q0 -53 -9 -91t-32 -71.5t-69 -51t-114 -17.5h-436q-21 0 -30.5 17.5t-9.5 63.5z" />
    <glyph glyph-name="aHeh.medi" unicode="&#x647;" horiz-adv-x="609" arabic-form="medial" 
d="M305 -70q47 0 47 38q0 24 -12 36t-43 12h-44v-42q0 -24 12 -34t40 -10zM305 286q-52 0 -52 -55v-71h55q53 0 53 72q0 54 -56 54zM-40 79q0 85 40 85h59v62q0 54 16 95.5t40 65.5t58 38.5t64.5 19.5t64.5 5q48 0 89 -8t79.5 -27.5t60.5 -58.5t22 -94q0 -57 -18 -98h74
q40 0 40 -83q0 -46 -9.5 -63.5t-30.5 -17.5h-86q21 -40 21 -73q0 -38 -14 -66t-36.5 -44t-55.5 -26t-65 -13t-72 -3q-41 0 -73 3.5t-65 14t-54.5 28t-35.5 47.5t-14 70v62h-59q-40 0 -40 79z" />
    <glyph glyph-name="uniFEED" unicode="&#x648;" horiz-adv-x="577" arabic-form="isolated" 
d="M280 286q-56 0 -56 -63q0 -35 15.5 -47t40.5 -12h53v63q0 59 -53 59zM308 -210h-168q-10 0 -10 10v144q0 10 10 10h110q44 0 62.5 8t20.5 38h-84q-109 0 -162 50.5t-53 162.5q0 68 20.5 116.5t57 73.5t77 36t89.5 11q249 0 249 -230v-234q0 -97 -50.5 -146.5
t-168.5 -49.5z" />
    <glyph glyph-name="aWaw.fina" unicode="&#x648;" horiz-adv-x="595" arabic-form="final" 
d="M280 286q-56 0 -56 -63q0 -35 15.5 -47t40.5 -12h53v63q0 59 -53 59zM308 -210h-168q-10 0 -10 10v144q0 10 10 10h110q44 0 62.5 8t20.5 38h-84q-109 0 -162 50.5t-53 162.5q0 68 20.5 116.5t57 73.5t77 36t89.5 11q249 0 249 -230v-56h68q40 0 40 -82q0 -48 -9 -65
t-31 -17h-68v-14q0 -97 -50.5 -146.5t-168.5 -49.5z" />
    <glyph glyph-name="uniFEEF" unicode="&#x649;" horiz-adv-x="844" arabic-form="isolated" 
d="M361 -44h132q84 0 84 33q0 15 -21 32t-50.5 35.5t-59 42.5t-50.5 62t-21 84q0 98 72.5 151.5t172.5 53.5q64 0 118 -18.5t83 -51.5q5 -6 -3 -14l-87 -104q-7 -4 -14 1q-30 23 -73 23q-25 0 -42 -11t-17 -34q0 -24 22.5 -46t54.5 -42.5t64.5 -44t55 -60t22.5 -81.5
q0 -87 -60 -132t-173 -45h-233q-308 0 -308 234q0 98 63 198q6 8 16 4l150 -72q8 -5 3 -13q-31 -55 -31 -99q0 -86 130 -86z" />
    <glyph glyph-name="aAlifMaksura.fina" unicode="&#x649;" horiz-adv-x="826" arabic-form="final" 
d="M361 -44h115q58 0 76.5 6.5t18.5 22.5q0 18 -26 31t-136 54q-9 3 -6 12l43 138q3 10 12 7q20 -7 57 -22.5t55 -22t46 -12.5t55 -6h156q40 0 40 -82t-40 -82h-60q15 -24 15 -52q0 -158 -233 -158h-211q-308 0 -308 234q0 98 63 198q6 8 16 4l150 -72q8 -5 3 -13
q-31 -55 -31 -99q0 -86 130 -86z" />
    <glyph glyph-name="uniFEF1" unicode="&#x64a;" horiz-adv-x="844" arabic-form="isolated" 
d="M361 31h132q84 0 84 33q0 15 -21 32t-50.5 35.5t-59 42.5t-50.5 62t-21 84q0 98 72.5 151.5t172.5 53.5q64 0 118 -18.5t83 -51.5q5 -6 -3 -14l-87 -104q-7 -4 -14 1q-30 23 -73 23q-25 0 -42 -11t-17 -34q0 -24 22.5 -46t54.5 -42.5t64.5 -44t55 -60t22.5 -81.5
q0 -87 -60 -132t-173 -45h-233q-308 0 -308 234q0 98 63 198q6 8 16 4l150 -72q8 -5 3 -13q-31 -55 -31 -99q0 -86 130 -86zM593 -322h-133q-10 0 -10 10v124q0 10 10 10h133q10 0 10 -10v-124q0 -10 -10 -10zM412 -322h-133q-10 0 -10 10v124q0 10 10 10h133q10 0 10 -10
v-124q0 -10 -10 -10z" />
    <glyph glyph-name="aYeh.fina" unicode="&#x64a;" horiz-adv-x="826" arabic-form="final" 
d="M583 -396h-133q-10 0 -10 10v124q0 10 10 10h133q10 0 10 -10v-124q0 -10 -10 -10zM402 -396h-133q-10 0 -10 10v124q0 10 10 10h133q10 0 10 -10v-124q0 -10 -10 -10zM361 -44h115q58 0 76.5 6.5t18.5 22.5q0 18 -26 31t-136 54q-9 3 -6 12l43 138q3 10 12 7
q20 -7 57 -22.5t55 -22t46 -12.5t55 -6h156q40 0 40 -82t-40 -82h-60q15 -24 15 -52q0 -158 -233 -158h-211q-308 0 -308 234q0 98 63 198q6 8 16 4l150 -72q8 -5 3 -13q-31 -55 -31 -99q0 -86 130 -86z" />
    <glyph glyph-name="aYeh.init" unicode="&#x64a;" horiz-adv-x="362" arabic-form="initial" 
d="M185 0h-185q-21 0 -30.5 17.5t-9.5 61.5q0 85 40 85h55q25 0 36.5 12t11.5 41v207q0 10 10 10h179q10 0 10 -10v-298q0 -66 -27 -96t-90 -30zM346 -210h-133q-10 0 -10 10v124q0 10 10 10h133q10 0 10 -10v-124q0 -10 -10 -10zM165 -210h-133q-10 0 -10 10v124
q0 10 10 10h133q10 0 10 -10v-124q0 -10 -10 -10z" />
    <glyph glyph-name="aYeh.medi" unicode="&#x64a;" horiz-adv-x="398" arabic-form="medial" 
d="M358 -210h-133q-10 0 -10 10v124q0 10 10 10h133q10 0 10 -10v-124q0 -10 -10 -10zM177 -210h-133q-10 0 -10 10v124q0 10 10 10h133q10 0 10 -10v-124q0 -10 -10 -10zM287 49q-25 -49 -102 -49h-185q-21 0 -30.5 18.5t-9.5 65.5q0 80 40 80h55q25 0 36.5 12t11.5 41v207
q0 10 10 10h179q10 0 10 -10v-219q9 -41 62 -41h34q40 0 40 -83q0 -81 -40 -81q-38 0 -63.5 10.5t-47.5 38.5z" />
    <glyph glyph-name="aLam.init_aAlifMadda.fina" unicode="&#xfef5;" horiz-adv-x="714" arabic-form="isolated" 
d="M40 648q27 94 100 94q36 0 97 -28t85 -28q14 0 18 7t4 27q0 10 10 10h83q10 0 10 -10q0 -127 -101 -127q-45 0 -101 24.5t-69 24.5q-21 0 -32 -28q-3 -10 -13 -7l-84 28q-10 3 -7 13zM351 529v-365h66q25 0 36.5 12t11.5 41v453q0 10 10 10h179q10 0 10 -10v-544
q0 -66 -27 -96t-90 -30h-517q-10 0 -10 10v144q0 10 10 10h122v365q0 10 10 10h179q10 0 10 -10z" />
    <glyph glyph-name="aLam.medi_aAlifMadda.fina" unicode="&#xfef6;" horiz-adv-x="761" arabic-form="final" 
d="M40 648q27 94 100 94q36 0 97 -28t85 -28q14 0 18 7t4 27q0 10 10 10h83q10 0 10 -10q0 -127 -101 -127q-45 0 -101 24.5t-69 24.5q-21 0 -32 -28q-3 -10 -13 -7l-84 28q-10 3 -7 13zM351 529v-365h66q25 0 36.5 12t11.5 41v453q0 10 10 10h179q10 0 10 -10v-465
q9 -41 62 -41h34q40 0 40 -83q0 -81 -40 -81q-38 0 -63.5 10.5t-47.5 38.5q-25 -49 -102 -49h-517q-10 0 -10 10v144q0 10 10 10h122v365q0 10 10 10h179q10 0 10 -10z" />
    <glyph glyph-name="aLam.init_aAlifHamza.fina" unicode="&#xfef7;" horiz-adv-x="714" arabic-form="isolated" 
d="M124 682h36q-11 20 -11 44q0 44 31 72.5t86 28.5q67 0 104 -45q3 -4 -1 -8l-39 -46q-3 -4 -9 0q-23 23 -46 23q-12 0 -21.5 -7.5t-9.5 -23.5q0 -23 25 -38h97q6 0 6 -7v-62q0 -7 -6 -7h-242q-6 0 -6 7v62q0 7 6 7zM351 529v-365h66q25 0 36.5 12t11.5 41v453q0 10 10 10
h179q10 0 10 -10v-544q0 -66 -27 -96t-90 -30h-517q-10 0 -10 10v144q0 10 10 10h122v365q0 10 10 10h179q10 0 10 -10z" />
    <glyph glyph-name="aLam.medi_aAlifHamza.fina" unicode="&#xfef8;" horiz-adv-x="761" arabic-form="final" 
d="M124 682h36q-11 20 -11 44q0 44 31 72.5t86 28.5q67 0 104 -45q3 -4 -1 -8l-39 -46q-3 -4 -9 0q-23 23 -46 23q-12 0 -21.5 -7.5t-9.5 -23.5q0 -23 25 -38h97q6 0 6 -7v-62q0 -7 -6 -7h-242q-6 0 -6 7v62q0 7 6 7zM351 529v-365h66q25 0 36.5 12t11.5 41v453q0 10 10 10
h179q10 0 10 -10v-465q9 -41 62 -41h34q40 0 40 -83q0 -81 -40 -81q-38 0 -63.5 10.5t-47.5 38.5q-25 -49 -102 -49h-517q-10 0 -10 10v144q0 10 10 10h122v365q0 10 10 10h179q10 0 10 -10z" />
    <glyph glyph-name="aLam.init_aAlifHamzabelow.fina" unicode="&#xfef9;" horiz-adv-x="714" arabic-form="isolated" 
d="M127 -214h36q-11 20 -11 44q0 44 31 72.5t86 28.5q67 0 104 -45q3 -4 -1 -8l-39 -46q-3 -4 -9 0q-23 23 -46 23q-12 0 -21.5 -7.5t-9.5 -23.5q0 -23 25 -38h97q6 0 6 -7v-62q0 -7 -6 -7h-242q-6 0 -6 7v62q0 7 6 7zM351 529v-365h66q25 0 36.5 12t11.5 41v453q0 10 10 10
h179q10 0 10 -10v-544q0 -66 -27 -96t-90 -30h-517q-10 0 -10 10v144q0 10 10 10h122v365q0 10 10 10h179q10 0 10 -10z" />
    <glyph glyph-name="aLam.medi_aAlifHamzabelow.fina" unicode="&#xfefa;" horiz-adv-x="761" arabic-form="final" 
d="M127 -214h36q-11 20 -11 44q0 44 31 72.5t86 28.5q67 0 104 -45q3 -4 -1 -8l-39 -46q-3 -4 -9 0q-23 23 -46 23q-12 0 -21.5 -7.5t-9.5 -23.5q0 -23 25 -38h97q6 0 6 -7v-62q0 -7 -6 -7h-242q-6 0 -6 7v62q0 7 6 7zM351 529v-365h66q25 0 36.5 12t11.5 41v453q0 10 10 10
h179q10 0 10 -10v-465q9 -41 62 -41h34q40 0 40 -83q0 -81 -40 -81q-38 0 -63.5 10.5t-47.5 38.5q-25 -49 -102 -49h-517q-10 0 -10 10v144q0 10 10 10h122v365q0 10 10 10h179q10 0 10 -10z" />
    <glyph glyph-name="aLam.init_aAlif.fina" unicode="&#xfefb;" horiz-adv-x="714" arabic-form="isolated" 
d="M351 529v-365h66q25 0 36.5 12t11.5 41v453q0 10 10 10h179q10 0 10 -10v-544q0 -66 -27 -96t-90 -30h-517q-10 0 -10 10v144q0 10 10 10h122v365q0 10 10 10h179q10 0 10 -10z" />
    <glyph glyph-name="aLam.medi_aAlif.fina" unicode="&#xfefc;" horiz-adv-x="761" arabic-form="final" 
d="M351 529v-365h66q25 0 36.5 12t11.5 41v453q0 10 10 10h179q10 0 10 -10v-465q9 -41 62 -41h34q40 0 40 -83q0 -81 -40 -81q-38 0 -63.5 10.5t-47.5 38.5q-25 -49 -102 -49h-517q-10 0 -10 10v144q0 10 10 10h122v365q0 10 10 10h179q10 0 10 -10z" />
    <glyph glyph-name=".notdef" horiz-adv-x="558" 
d="M220 123v84q0 10 10 10h97q10 0 10 -10v-84q0 -10 -10 -10h-97q-10 0 -10 10zM327 257h-97q-10 0 -10 10v23q0 31 22 54l31 32q32 33 32 51q0 29 -28 29q-27 0 -34 -28q-3 -10 -12 -9l-91 12q-10 0 -8 11q7 55 47.5 88t103.5 33q67 0 106.5 -35.5t39.5 -88.5
q0 -30 -11 -52.5t-38 -50.5l-31 -32q-12 -12 -12 -32v-5q0 -10 -10 -10zM90 588v-496q0 -6 6 -6h366q6 0 6 6v496q0 6 -6 6h-366q-6 0 -6 -6zM0 10v660q0 10 10 10h538q10 0 10 -10v-660q0 -10 -10 -10h-538q-10 0 -10 10z" />
    <glyph glyph-name=".null" horiz-adv-x="500" 
 />
    <glyph glyph-name=".null" horiz-adv-x="500" 
 />
    <glyph glyph-name="nonmarkingreturn" horiz-adv-x="333" 
 />
    <glyph glyph-name="CR" unicode="&#xd;" horiz-adv-x="0" 
 />
    <glyph glyph-name="space" unicode=" " horiz-adv-x="240" 
 />
    <glyph glyph-name="exclam" unicode="!" horiz-adv-x="320" 
d="M70 10v140q0 10 10 10h160q10 0 10 -10v-140q0 -10 -10 -10h-160q-10 0 -10 10zM226 222h-132q-10 0 -10 10l-24 438q0 10 10 10h180q10 0 10 -10l-24 -438q0 -10 -10 -10z" />
    <glyph glyph-name="quotedbl" unicode="&#x22;" horiz-adv-x="442" 
d="M181 436h-117q-10 0 -10 10v224q0 10 10 10h117q10 0 10 -10v-224q0 -10 -10 -10zM378 436h-117q-10 0 -10 10v224q0 10 10 10h117q10 0 10 -10v-224q0 -10 -10 -10z" />
    <glyph glyph-name="numbersign" unicode="#" horiz-adv-x="652" 
d="M280 306h80l10 74h-80zM73 10l20 151h-59q-10 0 -10 10v125q0 10 10 10h79l10 74h-63q-10 0 -10 10v125q0 10 10 10h83l20 145q1 10 11 10h147q10 0 9 -10l-20 -145h80l20 145q1 10 11 10h147q10 0 9 -10l-20 -145h61q10 0 10 -10v-125q0 -10 -10 -10h-81l-10 -74h65
q10 0 10 -10v-125q0 -10 -10 -10h-85l-20 -151q-1 -10 -11 -10h-147q-10 0 -9 10l21 151h-80l-21 -151q-1 -10 -11 -10h-147q-10 0 -9 10z" />
    <glyph glyph-name="dollar" unicode="$" 
d="M34 67q-10 7 -2 17l99 120q6 8 13 2q57 -46 116 -46q31 0 48.5 12.5t17.5 36.5q0 33 -49 39l-18 2q-101 11 -156 65.5t-55 144.5q0 84 46 144t129 80v81q0 10 10 10h106q10 0 10 -10v-77q82 -12 150 -56q10 -6 2 -17l-85 -120q-6 -8 -14 -3q-45 28 -91 28
q-28 0 -44.5 -11t-16.5 -31q0 -30 50 -37l24 -3q204 -26 204 -211q0 -88 -47 -149t-132 -81v-82q0 -10 -10 -10h-106q-10 0 -10 10v76q-113 13 -189 76z" />
    <glyph glyph-name="percent" unicode="%" horiz-adv-x="891" 
d="M657 98q4 -13 19 -13t19 13q3 8 3 73t-3 73q-4 13 -19 13t-19 -13q-3 -8 -3 -73t3 -73zM533 80q-12 33 -12 91t12 91q30 88 143 88t143 -88q12 -33 12 -91t-12 -91q-30 -88 -143 -88t-143 88zM215 423q15 0 19 13q3 8 3 73t-3 73q-4 13 -19 13t-19 -13q-3 -8 -3 -73
t3 -73q4 -13 19 -13zM215 330q-113 0 -143 88q-12 33 -12 91t12 91q30 88 143 88t143 -88q12 -33 12 -91t-12 -91q-30 -88 -143 -88zM177 -2l395 684q6 10 16 10h122q10 0 4 -10l-395 -684q-6 -10 -16 -10h-122q-10 0 -4 10z" />
    <glyph glyph-name="ampersand" unicode="&#x26;" horiz-adv-x="647" 
d="M214 192q0 -19 12 -32t33 -14q26 -1 58 22l-67 84q-36 -31 -36 -60zM288 468q37 32 37 57q0 18 -9 28.5t-24 10.5t-24 -11t-9 -28q0 -18 29 -57zM34 176q0 54 28 97.5t92 95.5q-67 80 -67 151q0 75 58 123.5t145 48.5q91 0 146.5 -48.5t55.5 -124.5q0 -45 -24.5 -82.5
t-84.5 -85.5l52 -63l66 71q7 7 14 1l96 -85q7 -6 1 -14l-79 -91l3 -3q13 -18 37 -18h15q10 0 10 -10v-129q0 -10 -10 -10h-62q-39 0 -63.5 10.5t-49.5 38.5q-78 -61 -174 -61q-98 0 -151.5 50t-53.5 138z" />
    <glyph glyph-name="quotesingle" unicode="'" horiz-adv-x="245" 
d="M181 436h-117q-10 0 -10 10v224q0 10 10 10h117q10 0 10 -10v-224q0 -10 -10 -10z" />
    <glyph glyph-name="parenleft" unicode="(" horiz-adv-x="351" 
d="M183 -74q-129 177 -129 402t129 402q6 10 13 10h124q11 0 7 -10q-86 -186 -86 -402t86 -402q4 -10 -7 -10h-124q-7 0 -13 10z" />
    <glyph glyph-name="parenright" unicode=")" horiz-adv-x="351" 
d="M24 -74q86 186 86 402t-86 402q-4 10 7 10h124q7 0 13 -10q129 -177 129 -402t-129 -402q-6 -10 -13 -10h-124q-11 0 -7 10z" />
    <glyph glyph-name="asterisk" unicode="*" horiz-adv-x="444" 
d="M263 332h-82q-10 0 -10 10l1 78l-67 -40q-8 -5 -13 3l-41 72q-5 8 3 13l68 38l-68 38q-9 5 -4 13l42 72q5 8 13 3l67 -40l-1 78q0 10 10 10h82q10 0 10 -10l-1 -78l67 40q8 5 13 -3l41 -72q5 -8 -3 -13l-69 -38l69 -38q9 -5 4 -13l-42 -72q-5 -8 -13 -3l-67 40l1 -78
q0 -10 -10 -10z" />
    <glyph glyph-name="plus" unicode="+" 
d="M195 194h-143q-10 0 -10 10v144q0 10 10 10h143q6 0 6 6v145q0 10 10 10h148q10 0 10 -10v-145q0 -6 6 -6h143q10 0 10 -10v-144q0 -10 -10 -10h-143q-6 0 -6 -6v-145q0 -10 -10 -10h-148q-10 0 -10 10v145q0 6 -6 6z" />
    <glyph glyph-name="comma" unicode="," horiz-adv-x="260" 
d="M44 -89v259q0 10 10 10h152q10 0 10 -10v-145q0 -11 -10 -20l-132 -99q-11 -8 -18 -8q-12 0 -12 13z" />
    <glyph glyph-name="hyphen" unicode="-" horiz-adv-x="408" 
d="M362 179h-316q-10 0 -10 10v152q0 10 10 10h316q10 0 10 -10v-152q0 -10 -10 -10z" />
    <glyph glyph-name="period" unicode="." horiz-adv-x="268" 
d="M44 10v160q0 10 10 10h160q10 0 10 -10v-160q0 -10 -10 -10h-160q-10 0 -10 10z" />
    <glyph glyph-name="slash" unicode="/" horiz-adv-x="459" 
d="M25 -2l206 684q3 10 13 10h183q10 0 7 -10l-206 -684q-3 -10 -13 -10h-183q-10 0 -7 10z" />
    <glyph glyph-name="zero" unicode="0" 
d="M245 175q9 -27 40 -27t40 27q6 26 6 165t-6 165q-9 27 -40 27t-40 -27q-6 -16 -6 -165q0 -152 6 -165zM54 141q-17 48 -17 199q0 97 3.5 134t13.5 65q53 153 231 153q90 0 149 -40t82 -113q10 -32 13.5 -67.5t3.5 -131.5q0 -143 -17 -199q-24 -73 -83 -113t-148 -40
q-177 0 -231 153z" />
    <glyph glyph-name="one" unicode="1" 
d="M218 10v460h-2l-121 -79q-13 -9 -13 6v173q0 8 7 14l130 90q9 6 19 6h170q10 0 10 -10v-660q0 -10 -10 -10h-180q-10 0 -10 10z" />
    <glyph glyph-name="two" unicode="2" 
d="M48 10v134q0 6 5 14l239 249q34 37 34 73q0 52 -46 52q-49 0 -54 -71q0 -11 -11 -9l-157 21q-9 1 -9 11q4 93 71.5 150.5t169.5 57.5q100 0 165 -57t65 -146q0 -97 -81 -180l-140 -143v-2h211q10 0 10 -10v-144q0 -10 -10 -10h-452q-10 0 -10 10z" />
    <glyph glyph-name="three" unicode="3" 
d="M45 169q-2 11 8 12l159 22q10 1 12 -9q12 -46 58 -46q25 0 39.5 15.5t14.5 44.5q0 30 -16.5 45.5t-46.5 15.5h-27q-10 0 -10 10v137q0 10 10 10h25q54 0 54 54q0 24 -13.5 38t-35.5 14q-38 0 -50 -46q-1 -9 -11 -8l-159 21q-9 1 -8 11q15 83 76.5 132.5t163.5 49.5
q107 0 169 -53.5t62 -134.5q0 -88 -77 -139v-2q88 -50 88 -163q0 -93 -67 -152.5t-174 -59.5q-104 0 -168.5 49t-75.5 132z" />
    <glyph glyph-name="four" unicode="4" 
d="M302 90h-262q-10 0 -10 10v158q0 3 2 11l167 403q3 8 15 8h192q12 0 7 -11l-172 -406v-3h61q6 0 6 6v90q0 10 10 10h168q10 0 10 -10v-90q0 -6 5 -6h33q10 0 10 -10v-150q0 -10 -10 -10h-32q-6 0 -6 -6v-74q0 -10 -10 -10h-168q-10 0 -10 10v74q0 6 -6 6z" />
    <glyph glyph-name="five" unicode="5" 
d="M55 162q0 10 9 11l157 21q10 1 13 -9q13 -37 50 -37q32 0 42 28q6 16 6 48t-6 48q-10 28 -42 28q-28 0 -40 -23q-4 -10 -14 -10h-154q-10 0 -10 10v393q0 10 10 10h415q10 0 10 -10v-144q0 -10 -10 -10h-255q-6 0 -6 -6v-92h2q35 40 108 40q134 0 172 -114
q14 -42 14 -121q0 -52 -15 -99q-45 -136 -225 -136q-103 0 -164 48.5t-67 125.5z" />
    <glyph glyph-name="six" unicode="6" 
d="M222 212q0 -28 17.5 -46t45.5 -18t45.5 18t17.5 46t-17.5 46t-45.5 18t-45.5 -18t-17.5 -46zM34 212q0 48 13.5 91.5t46.5 107.5l134 261q5 8 13 8h193q13 0 7 -11l-127 -244l1 -1q9 3 24 3q87 0 142 -60.5t55 -154.5q0 -99 -69.5 -161.5t-181.5 -62.5t-181.5 62.5
t-69.5 161.5z" />
    <glyph glyph-name="seven" unicode="7" 
d="M122 11l203 494v3h-88q-6 0 -6 -6v-55q0 -10 -10 -10h-165q-10 0 -10 10v223q0 10 10 10h464q10 0 10 -10v-161l-2 -10l-196 -489q-4 -10 -14 -10h-188q-13 0 -8 11z" />
    <glyph glyph-name="eight" unicode="8" 
d="M221 210q0 -27 18.5 -44.5t45.5 -17.5t45.5 17.5t18.5 44.5t-18.5 44.5t-45.5 17.5t-45.5 -17.5t-18.5 -44.5zM285 428q23 0 38 14.5t15 37.5t-15 37.5t-38 14.5t-38 -14.5t-15 -37.5t15 -37.5t38 -14.5zM33 202q0 95 74 149v2q-59 48 -59 132q0 87 64.5 147t172.5 60
t172.5 -60t64.5 -147q0 -84 -59 -132v-2q74 -54 74 -149q0 -98 -72 -156t-180 -58t-180 58t-72 156z" />
    <glyph glyph-name="nine" unicode="9" 
d="M285 404q28 0 45.5 18t17.5 46t-17.5 46t-45.5 18t-45.5 -18t-17.5 -46t17.5 -46t45.5 -18zM129 11l127 244l-1 1q-9 -3 -24 -3q-87 0 -142 60.5t-55 154.5q0 99 69.5 161.5t181.5 62.5t181.5 -62.5t69.5 -161.5q0 -48 -13.5 -91.5t-46.5 -107.5l-134 -261q-5 -8 -13 -8
h-193q-13 0 -7 11z" />
    <glyph glyph-name="colon" unicode=":" horiz-adv-x="288" 
d="M54 10v160q0 10 10 10h160q10 0 10 -10v-160q0 -10 -10 -10h-160q-10 0 -10 10zM224 310h-160q-10 0 -10 10v160q0 10 10 10h160q10 0 10 -10v-160q0 -10 -10 -10z" />
    <glyph glyph-name="semicolon" unicode=";" horiz-adv-x="288" 
d="M58 -89v259q0 10 10 10h152q10 0 10 -10v-145q0 -11 -10 -20l-132 -99q-11 -8 -18 -8q-12 0 -12 13zM224 310h-160q-10 0 -10 10v160q0 10 10 10h160q10 0 10 -10v-160q0 -10 -10 -10z" />
    <glyph glyph-name="less" unicode="&#x3c;" 
d="M518 36l-466 164q-10 3 -10 14v124q0 11 10 14l466 164q10 3 10 -7v-153q0 -9 -10 -13l-220 -66v-2l220 -66q10 -4 10 -13v-153q0 -10 -10 -7z" />
    <glyph glyph-name="equal" unicode="=" 
d="M518 78h-466q-10 0 -10 10v144q0 10 10 10h466q10 0 10 -10v-144q0 -10 -10 -10zM518 310h-466q-10 0 -10 10v144q0 10 10 10h466q10 0 10 -10v-144q0 -10 -10 -10z" />
    <glyph glyph-name="greater" unicode="&#x3e;" 
d="M42 43v153q0 9 10 13l220 66v2l-220 66q-10 4 -10 13v153q0 10 10 7l466 -164q10 -3 10 -14v-124q0 -11 -10 -14l-466 -164q-10 -3 -10 7z" />
    <glyph glyph-name="question" unicode="?" horiz-adv-x="494" 
d="M150 10v140q0 10 10 10h160q10 0 10 -10v-140q0 -10 -10 -10h-160q-10 0 -10 10zM319 222h-160q-10 0 -10 10v40q0 50 34 84l48 48q29 29 39.5 45.5t10.5 33.5q0 20 -12 32.5t-32 12.5q-43 0 -53 -49q-2 -11 -11 -9l-152 21q-9 1 -8 11q10 85 71 137.5t157 52.5
q102 0 166.5 -57.5t64.5 -138.5q0 -49 -19.5 -84.5t-64.5 -78.5l-37 -36q-22 -22 -22 -55v-10q0 -10 -10 -10z" />
    <glyph glyph-name="at" unicode="@" horiz-adv-x="956" 
d="M432 209q9 -27 39 -27t39 27q4 12 4 57t-4 57q-9 27 -39 27t-39 -27q-4 -12 -4 -57t4 -57zM38 259q0 197 121.5 315t319.5 118t319.5 -116.5t121.5 -308.5q0 -103 -61 -160t-148 -57q-53 0 -92 18.5t-57 49.5h-1q-19 -35 -50 -51.5t-89 -16.5q-110 0 -140 91
q-14 39 -14 125t14 125q30 91 125 91q79 0 106 -49h1v30q0 9 9 9h143q8 0 8 -9v-232q0 -49 44 -49q50 0 50 84q0 135 -77.5 214.5t-211.5 79.5t-211.5 -81t-77.5 -220q0 -132 78 -211.5t211 -79.5q102 0 189 53q9 6 14 -2l67 -87q6 -8 -2 -14q-107 -82 -268 -82
q-197 0 -319 116.5t-122 306.5z" />
    <glyph glyph-name="A" unicode="A" horiz-adv-x="708" 
d="M302 270h105l-50 181h-3zM6 10l236 660q3 10 13 10h204q10 0 13 -10l230 -660q3 -10 -7 -10h-203q-10 0 -13 10l-25 89h-200l-25 -89q-3 -10 -13 -10h-203q-10 0 -7 10z" />
    <glyph glyph-name="B" unicode="B" horiz-adv-x="618" 
d="M253 277v-121q0 -6 6 -6h44q37 0 54 16t17 51q0 66 -71 66h-44q-6 0 -6 -6zM259 413h33q38 0 55 13.5t17 45.5q0 33 -16.5 46t-55.5 13h-33q-6 0 -6 -6v-106q0 -6 6 -6zM44 10v660q0 10 10 10h291q113 0 170 -48.5t57 -132.5q0 -102 -86 -147v-2q43 -16 70.5 -58.5
t27.5 -98.5q0 -96 -65 -144.5t-174 -48.5h-291q-10 0 -10 10z" />
    <glyph glyph-name="C" unicode="C" horiz-adv-x="572" 
d="M51 156q-21 63 -21 184t21 184q54 168 252 168q196 0 253 -160q5 -9 -5 -14l-161 -69q-11 -5 -15 7q-12 27 -26.5 38.5t-40.5 11.5q-44 0 -58 -41q-8 -26 -8 -125t8 -125q14 -41 58 -41q26 0 40.5 11.5t26.5 38.5q4 12 15 7l161 -69q10 -5 5 -14q-57 -160 -253 -160
q-198 0 -252 168z" />
    <glyph glyph-name="D" unicode="D" horiz-adv-x="635" 
d="M254 488v-296q0 -6 6 -6h24q42 0 63 11t32 41q9 24 9 102q0 80 -9 102q-11 30 -32 41t-63 11h-24q-6 0 -6 -6zM44 10v660q0 10 10 10h273q200 0 252 -158q21 -64 21 -182t-21 -182q-52 -158 -252 -158h-273q-10 0 -10 10z" />
    <glyph glyph-name="E" unicode="E" horiz-adv-x="549" 
d="M44 10v660q0 10 10 10h455q10 0 10 -10v-154q0 -10 -10 -10h-251q-6 0 -6 -6v-66q0 -6 6 -6h201q10 0 10 -10v-150q0 -10 -10 -10h-201q-6 0 -6 -6v-72q0 -6 6 -6h251q10 0 10 -10v-154q0 -10 -10 -10h-455q-10 0 -10 10z" />
    <glyph glyph-name="F" unicode="F" horiz-adv-x="546" 
d="M44 10v660q0 10 10 10h455q10 0 10 -10v-154q0 -10 -10 -10h-251q-6 0 -6 -6v-76q0 -6 6 -6h201q10 0 10 -10v-150q0 -10 -10 -10h-201q-6 0 -6 -6v-232q0 -10 -10 -10h-188q-10 0 -10 10z" />
    <glyph glyph-name="G" unicode="G" horiz-adv-x="628" 
d="M51 157q-21 62 -21 183t21 183q27 83 97.5 126t165.5 43q185 0 252 -145q6 -12 -5 -17l-156 -66q-11 -5 -17 4q-15 21 -31 29.5t-42 8.5q-50 0 -65 -44q-8 -24 -8 -122q0 -96 9 -123q13 -43 71 -43q57 0 68 36q3 9 3 18q0 7 -6 7h-52q-10 0 -10 10v131q0 10 10 10h253
q10 0 10 -10v-47q0 -103 -19 -163q-29 -87 -98 -132.5t-167 -45.5q-95 0 -165.5 43t-97.5 126z" />
    <glyph glyph-name="H" unicode="H" horiz-adv-x="661" 
d="M44 10v660q0 10 10 10h190q10 0 10 -10v-225q0 -6 6 -6h141q6 0 6 6v225q0 10 10 10h190q10 0 10 -10v-660q0 -10 -10 -10h-190q-10 0 -10 10v237q0 6 -6 6h-141q-6 0 -6 -6v-237q0 -10 -10 -10h-190q-10 0 -10 10z" />
    <glyph glyph-name="I" unicode="I" horiz-adv-x="298" 
d="M44 10v660q0 10 10 10h190q10 0 10 -10v-660q0 -10 -10 -10h-190q-10 0 -10 10z" />
    <glyph glyph-name="J" unicode="J" horiz-adv-x="550" 
d="M15 86q-5 8 1 14l132 108q6 4 13 -1q30 -33 66 -33q70 0 70 80v416q0 10 10 10h190q10 0 10 -10v-393q0 -289 -274 -289q-71 0 -130 26.5t-88 71.5z" />
    <glyph glyph-name="K" unicode="K" horiz-adv-x="670" 
d="M44 10v660q0 10 10 10h190q10 0 10 -10v-228l158 228q7 10 18 10h212q14 0 7 -13l-200 -268l204 -388q2 -4 0.5 -7.5t-6.5 -3.5h-218q-13 0 -17 10l-105 218l-53 -75v-143q0 -10 -10 -10h-190q-10 0 -10 10z" />
    <glyph glyph-name="L" unicode="L" horiz-adv-x="559" 
d="M44 10v660q0 10 10 10h190q10 0 10 -10v-478q0 -6 6 -6h273q10 0 10 -10v-166q0 -10 -10 -10h-479q-10 0 -10 10z" />
    <glyph glyph-name="M" unicode="M" horiz-adv-x="782" 
d="M44 10v660q0 10 10 10h181q13 0 17 -10l140 -317h4l136 317q4 10 17 10h179q10 0 10 -10v-660q0 -10 -10 -10h-169q-10 0 -10 10v312h-5l-90 -216q-6 -13 -19 -13h-88q-11 0 -19 13l-90 216h-5v-312q0 -10 -10 -10h-169q-10 0 -10 10z" />
    <glyph glyph-name="N" unicode="N" horiz-adv-x="650" 
d="M44 10v660q0 10 10 10h179q13 0 17 -10l162 -335h5v335q0 10 10 10h169q10 0 10 -10v-660q0 -10 -10 -10h-179q-13 0 -17 10l-161 335h-6v-335q0 -10 -10 -10h-169q-10 0 -10 10z" />
    <glyph glyph-name="O" unicode="O" horiz-adv-x="628" 
d="M314 174q50 0 64 43q8 24 8 123q0 101 -8 123q-14 43 -64 43t-64 -43q-8 -22 -8 -123q0 -99 8 -123q14 -43 64 -43zM314 -12q-95 0 -165.5 43t-97.5 126q-21 62 -21 183t21 183q27 83 97.5 126t165.5 43t165.5 -43t97.5 -126q21 -62 21 -183t-21 -183q-27 -83 -97.5 -126
t-165.5 -43z" />
    <glyph glyph-name="P" unicode="P" horiz-adv-x="620" 
d="M259 384h65q70 0 70 61t-70 61h-65q-6 0 -6 -6v-110q0 -6 6 -6zM243 0h-189q-10 0 -10 10v660q0 10 10 10h281q135 0 202 -64t67 -171q0 -104 -68.5 -169.5t-200.5 -65.5h-76q-6 0 -6 -6v-194q0 -10 -10 -10z" />
    <glyph glyph-name="Q" unicode="Q" horiz-adv-x="636" 
d="M317 174q50 0 64 43q8 24 8 123q0 101 -8 123q-14 43 -64 43t-64 -43q-8 -22 -8 -123q0 -99 8 -123q14 -43 64 -43zM654 60l-129 -118q-7 -8 -15 0l-63 71q-59 -25 -130 -25q-95 0 -165.5 43t-97.5 126q-21 62 -21 183t21 183q27 83 97.5 126t165.5 43t165.5 -43
t97.5 -126q21 -62 21 -183q0 -118 -21 -182l75 -83q8 -8 -1 -15z" />
    <glyph glyph-name="R" unicode="R" horiz-adv-x="635" 
d="M259 390h63q68 0 68 58t-68 58h-63q-6 0 -6 -6v-104q0 -6 6 -6zM605 0h-209q-11 0 -15 10l-87 212h-35q-6 0 -6 -6v-206q0 -10 -10 -10h-189q-10 0 -10 10v660q0 10 10 10h284q127 0 194.5 -63t67.5 -166q0 -131 -102 -191l114 -249q2 -4 0 -7.5t-7 -3.5z" />
    <glyph glyph-name="S" unicode="S" horiz-adv-x="617" 
d="M306 -12q-86 0 -166 29t-120 71q-8 8 -1 18l106 125q6 8 13 1q74 -66 166 -66q78 0 78 44q0 15 -13 23t-51 13l-36 5q-120 17 -179.5 71t-59.5 154q0 97 72 156.5t193 59.5q154 0 257 -78q10 -6 2 -17l-90 -128q-6 -8 -14 -3q-74 49 -147 49q-58 0 -58 -37
q0 -15 14.5 -23.5t50.5 -13.5l36 -5q122 -17 180 -70.5t58 -155.5q0 -100 -76.5 -161t-214.5 -61z" />
    <glyph glyph-name="T" unicode="T" horiz-adv-x="576" 
d="M383 0h-190q-10 0 -10 10v478q0 6 -6 6h-161q-10 0 -10 10v166q0 10 10 10h544q10 0 10 -10v-166q0 -10 -10 -10h-161q-6 0 -6 -6v-478q0 -10 -10 -10z" />
    <glyph glyph-name="U" unicode="U" horiz-adv-x="650" 
d="M326 -12q-133 0 -208 72.5t-75 216.5v393q0 10 10 10h190q10 0 10 -10v-411q0 -85 72 -85t72 85v411q0 10 10 10h190q10 0 10 -10v-393q0 -144 -74 -216.5t-207 -72.5z" />
    <glyph glyph-name="V" unicode="V" horiz-adv-x="669" 
d="M430 0h-191q-11 0 -14 10l-218 658q-5 12 9 12h202q11 0 14 -10l104 -367h3l100 367q3 10 14 10h200q13 0 9 -12l-218 -658q-3 -10 -14 -10z" />
    <glyph glyph-name="W" unicode="W" horiz-adv-x="956" 
d="M741 0h-154q-11 0 -14 10l-94 329h-2l-94 -329q-3 -10 -14 -10h-154q-11 0 -14 10l-195 660q-3 10 7 10h206q12 0 13 -10l76 -360h2l94 360q3 10 14 10h121q11 0 14 -10l98 -360h2l73 360q1 10 13 10h204q10 0 7 -10l-195 -660q-3 -10 -14 -10z" />
    <glyph glyph-name="X" unicode="X" horiz-adv-x="642" 
d="M630 0h-202q-12 0 -18 10l-89 154h-3l-89 -154q-6 -10 -18 -10h-202q-12 0 -6 10l204 340l-192 320q-6 10 6 10h202q12 0 18 -10l77 -134h3l77 134q6 10 18 10h202q12 0 6 -10l-192 -320l204 -340q6 -10 -6 -10z" />
    <glyph glyph-name="Y" unicode="Y" horiz-adv-x="641" 
d="M416 0h-190q-10 0 -10 10v244l-211 415q-6 11 7 11h189q11 0 17 -10l104 -213h3l101 213q4 10 17 10h187q12 0 7 -11l-211 -415v-244q0 -10 -10 -10z" />
    <glyph glyph-name="Z" unicode="Z" horiz-adv-x="580" 
d="M540 0h-500q-10 0 -10 10v162q0 6 3 10l269 309v3h-251q-10 0 -10 10v166q0 10 10 10h489q10 0 10 -10v-162q0 -6 -3 -10l-270 -309v-3h263q10 0 10 -10v-166q0 -10 -10 -10z" />
    <glyph glyph-name="bracketleft" unicode="[" horiz-adv-x="331" 
d="M299 -84h-239q-10 0 -10 10v804q0 10 10 10h239q10 0 10 -10v-126q0 -10 -10 -10h-76q-6 0 -6 -6v-520q0 -6 6 -6h76q10 0 10 -10v-126q0 -10 -10 -10z" />
    <glyph glyph-name="backslash" unicode="\" horiz-adv-x="459" 
d="M427 -12h-183q-10 0 -13 10l-206 684q-3 10 7 10h183q10 0 13 -10l206 -684q3 -10 -7 -10z" />
    <glyph glyph-name="bracketright" unicode="]" horiz-adv-x="331" 
d="M271 -84h-239q-10 0 -10 10v126q0 10 10 10h76q6 0 6 6v520q0 6 -6 6h-76q-10 0 -10 10v126q0 10 10 10h239q10 0 10 -10v-804q0 -10 -10 -10z" />
    <glyph glyph-name="asciicircum" unicode="^" 
d="M524 232h-165q-10 0 -13 10l-60 196h-2l-60 -196q-3 -10 -13 -10h-165q-11 0 -7 10l162 428q4 10 14 10h140q10 0 14 -10l162 -428q4 -10 -7 -10z" />
    <glyph glyph-name="underscore" unicode="_" horiz-adv-x="584" 
d="M584 -190h-584v140h584v-140z" />
    <glyph glyph-name="grave" unicode="`" horiz-adv-x="530" 
d="M394 540h-143q-9 0 -16 10l-106 144q-3 3 -1.5 6.5t6.5 3.5h165q10 0 17 -10l83 -144q4 -10 -5 -10z" />
    <glyph glyph-name="a" unicode="a" horiz-adv-x="537" 
d="M253 124q57 0 57 35v26q0 6 -6 6h-47q-47 0 -47 -35q0 -32 43 -32zM488 0h-169q-10 0 -10 10v24h-1q-44 -46 -128 -46q-66 0 -111 38t-45 113q0 81 59.5 122.5t155.5 41.5h65q6 0 6 6v8q0 19 -17.5 26.5t-68.5 7.5q-64 0 -102 -25q-9 -4 -13 3l-60 108q-6 11 3 17
q73 48 200 48q135 0 190.5 -45.5t55.5 -144.5v-302q0 -10 -10 -10z" />
    <glyph glyph-name="b" unicode="b" horiz-adv-x="563" 
d="M290 148q33 0 42 28q6 19 6 69q0 49 -6 69q-9 28 -42 28t-42 -28q-6 -20 -6 -69t6 -69q9 -28 42 -28zM366 -12q-88 0 -123 58h-1v-36q0 -10 -10 -10h-180q-10 0 -10 10v660q0 10 10 10h180q10 0 10 -10v-226h1q35 58 123 58q120 0 157 -117q17 -52 17 -140t-17 -140
q-37 -117 -157 -117z" />
    <glyph glyph-name="c" unicode="c" horiz-adv-x="504" 
d="M264 -12q-86 0 -145 37t-83 111q-13 39 -13 109t13 109q24 74 83 111t145 37q83 0 142.5 -38t80.5 -97q3 -8 -5 -13l-141 -60q-13 -6 -17 4q-16 44 -52 44q-32 0 -42 -30q-5 -15 -5 -67t5 -67q10 -30 42 -30q36 0 52 44q4 10 17 4l141 -60q8 -5 5 -13q-21 -59 -80.5 -97
t-142.5 -38z" />
    <glyph glyph-name="d" unicode="d" horiz-adv-x="563" 
d="M273 148q33 0 42 28q6 19 6 69q0 49 -6 69q-9 28 -42 28t-42 -28q-6 -20 -6 -69t6 -69q9 -28 42 -28zM511 0h-180q-10 0 -10 10v36h-1q-35 -58 -123 -58q-120 0 -157 117q-17 52 -17 140t17 140q37 117 157 117q88 0 123 -58h1v226q0 10 10 10h180q10 0 10 -10v-660
q0 -10 -10 -10z" />
    <glyph glyph-name="e" unicode="e" horiz-adv-x="539" 
d="M221 303h100q6 0 6 6q0 15 -3 24q-10 34 -53 34t-53 -34q-3 -9 -3 -24q0 -6 6 -6zM281 -12q-95 0 -157 38.5t-86 109.5q-15 45 -15 109t15 109q23 72 82.5 110t147.5 38q185 0 233 -145q15 -47 15 -156q0 -10 -10 -10h-285q-6 0 -6 -6l2 -10q14 -42 87 -42q54 0 107 36
q8 5 14 -2l78 -86q7 -7 -2 -15q-87 -78 -220 -78z" />
    <glyph glyph-name="f" unicode="f" horiz-adv-x="364" 
d="M254 0h-178q-10 0 -10 10v334q0 6 -6 6h-26q-10 0 -10 10v120q0 10 10 10h26q6 0 6 6v4q0 99 43.5 139.5t148.5 40.5h78q10 0 10 -10v-124q0 -10 -10 -10h-28q-25 0 -34.5 -8t-9.5 -28v-4q0 -6 6 -6h64q10 0 10 -10v-120q0 -10 -10 -10h-64q-6 0 -6 -6v-334
q0 -10 -10 -10z" />
    <glyph glyph-name="g" unicode="g" horiz-adv-x="559" 
d="M270 192q33 0 43 31q5 15 5 44t-5 44q-10 31 -43 31t-43 -31q-5 -15 -5 -44t5 -44q10 -31 43 -31zM240 -192q-61 0 -118 23.5t-82 54.5q-6 8 1 15l98 102q7 7 15 1q44 -36 90 -36q39 0 56.5 21t17.5 69v32h-1q-35 -58 -123 -58q-120 0 -158 116q-16 47 -16 119t16 119
q38 116 158 116q88 0 123 -58h1v36q0 10 10 10h180q10 0 10 -10v-378q0 -160 -68.5 -227t-209.5 -67z" />
    <glyph glyph-name="h" unicode="h" horiz-adv-x="564" 
d="M514 0h-180q-10 0 -10 10v278q0 50 -41 50t-41 -50v-278q0 -10 -10 -10h-180q-10 0 -10 10v660q0 10 10 10h180q10 0 10 -10v-226h1q38 58 124 58q157 0 157 -183v-309q0 -10 -10 -10z" />
    <glyph glyph-name="i" unicode="i" horiz-adv-x="284" 
d="M232 0h-180q-10 0 -10 10v470q0 10 10 10h180q10 0 10 -10v-470q0 -10 -10 -10zM232 536h-180q-10 0 -10 10v124q0 10 10 10h180q10 0 10 -10v-124q0 -10 -10 -10z" />
    <glyph glyph-name="j" unicode="j" horiz-adv-x="284" 
d="M21 -180h-43q-10 0 -10 10v140q0 10 10 10h10q32 0 43 10t11 44v446q0 10 10 10h180q10 0 10 -10v-447q0 -112 -55 -162.5t-166 -50.5zM232 536h-180q-10 0 -10 10v124q0 10 10 10h180q10 0 10 -10v-124q0 -10 -10 -10z" />
    <glyph glyph-name="k" unicode="k" horiz-adv-x="551" 
d="M544 0h-191q-10 0 -14 10l-80 178l-19 -29v-149q0 -10 -10 -10h-178q-10 0 -10 10v660q0 10 10 10h178q10 0 10 -10v-313l85 123q7 10 19 10h181q5 0 6.5 -3.5t-1.5 -6.5l-136 -160l155 -310q6 -10 -5 -10z" />
    <glyph glyph-name="l" unicode="l" horiz-adv-x="329" 
d="M300 -6h-71q-103 0 -146 43t-43 147v486q0 10 10 10h180q10 0 10 -10v-462q0 -50 41 -50h19q10 0 10 -10v-144q0 -10 -10 -10z" />
    <glyph glyph-name="m" unicode="m" horiz-adv-x="846" 
d="M796 0h-180q-10 0 -10 10v278q0 50 -41 50t-41 -50v-278q0 -10 -10 -10h-180q-10 0 -10 10v278q0 50 -41 50t-41 -50v-278q0 -10 -10 -10h-180q-10 0 -10 10v470q0 10 10 10h180q10 0 10 -10v-36h1q38 58 124 58q90 0 127 -58h1q48 58 145 58q166 0 166 -183v-309
q0 -10 -10 -10z" />
    <glyph glyph-name="n" unicode="n" horiz-adv-x="564" 
d="M514 0h-180q-10 0 -10 10v278q0 50 -41 50t-41 -50v-278q0 -10 -10 -10h-180q-10 0 -10 10v470q0 10 10 10h180q10 0 10 -10v-36h1q38 58 124 58q157 0 157 -183v-309q0 -10 -10 -10z" />
    <glyph glyph-name="o" unicode="o" horiz-adv-x="546" 
d="M273 148q33 0 42 28q6 19 6 69q0 49 -6 69q-9 28 -42 28t-42 -28q-6 -20 -6 -69t6 -69q9 -28 42 -28zM273 -12q-87 0 -149.5 37t-85.5 109q-15 45 -15 111t15 111q23 72 85.5 109t149.5 37t149.5 -37t85.5 -109q15 -45 15 -111t-15 -111q-23 -72 -85.5 -109t-149.5 -37z
" />
    <glyph glyph-name="p" unicode="p" horiz-adv-x="563" 
d="M290 148q33 0 42 28q6 19 6 69q0 49 -6 69q-9 28 -42 28t-42 -28q-6 -20 -6 -69t6 -69q9 -28 42 -28zM232 -180h-180q-10 0 -10 10v650q0 10 10 10h180q10 0 10 -10v-36h1q35 58 123 58q120 0 157 -117q17 -52 17 -140t-17 -140q-37 -117 -157 -117q-88 0 -123 58h-1
v-216q0 -10 -10 -10z" />
    <glyph glyph-name="q" unicode="q" horiz-adv-x="563" 
d="M273 148q33 0 42 28q6 19 6 69q0 49 -6 69q-9 28 -42 28t-42 -28q-6 -20 -6 -69t6 -69q9 -28 42 -28zM511 -180h-180q-10 0 -10 10v216h-1q-35 -58 -123 -58q-120 0 -157 117q-17 52 -17 140t17 140q37 117 157 117q88 0 123 -58h1v36q0 10 10 10h180q10 0 10 -10v-650
q0 -10 -10 -10z" />
    <glyph glyph-name="r" unicode="r" horiz-adv-x="431" 
d="M232 0h-180q-10 0 -10 10v470q0 10 10 10h180q10 0 10 -10v-44h1q32 66 127 66q26 0 46 -5q9 -2 6 -13l-58 -185q-4 -5 -14 -1q-43 24 -71 17q-37 -9 -37 -64v-241q0 -10 -10 -10z" />
    <glyph glyph-name="s" unicode="s" horiz-adv-x="520" 
d="M257 -12q-153 0 -247 74q-7 7 -1 14l79 100q6 6 14 2q89 -50 168 -50q47 0 47 22q0 9 -9 12.5t-41 7.5l-56 6q-180 19 -180 161q0 76 59 120.5t166 44.5q142 0 226 -62q8 -6 1 -15l-70 -93q-6 -8 -15 -3q-64 37 -142 37q-40 0 -40 -19q0 -8 8 -11.5t35 -6.5l56 -6
q102 -11 145.5 -52.5t41.5 -109.5q-2 -80 -67 -126.5t-178 -46.5z" />
    <glyph glyph-name="t" unicode="t" horiz-adv-x="352" 
d="M322 -6h-61q-111 0 -157 47.5t-46 163.5v139q0 6 -6 6h-26q-10 0 -10 10v120q0 10 10 10h26q6 0 6 6v124q0 10 10 10h178q10 0 10 -10v-124q0 -6 6 -6h60q10 0 10 -10v-120q0 -10 -10 -10h-60q-6 0 -6 -6v-131q0 -32 9.5 -43.5t36.5 -11.5h20q10 0 10 -10v-144
q0 -10 -10 -10z" />
    <glyph glyph-name="u" unicode="u" horiz-adv-x="562" 
d="M510 0h-180q-10 0 -10 10v36h-1q-38 -58 -124 -58q-156 0 -156 183v309q0 10 10 10h180q10 0 10 -10v-278q0 -50 41 -50q40 0 40 50v278q0 10 10 10h180q10 0 10 -10v-470q0 -10 -10 -10z" />
    <glyph glyph-name="v" unicode="v" horiz-adv-x="559" 
d="M366 0h-173q-8 0 -12 10l-177 470q-4 10 8 10h186q12 0 15 -10l68 -229h2l64 229q3 10 15 10h185q12 0 8 -10l-177 -470q-4 -10 -12 -10z" />
    <glyph glyph-name="w" unicode="w" horiz-adv-x="784" 
d="M605 0h-135q-9 0 -12 10l-64 215h-2l-66 -215q-3 -10 -12 -10h-135q-9 0 -12 10l-161 469q-3 11 8 11h179q12 0 15 -10l52 -220h2l64 220q3 10 14 10h107q11 0 14 -10l65 -220h2l48 220q3 10 15 10h179q11 0 8 -11l-161 -469q-3 -10 -12 -10z" />
    <glyph glyph-name="x" unicode="x" horiz-adv-x="557" 
d="M544 0h-193q-10 0 -15 8l-58 97h-1l-58 -97q-5 -8 -15 -8h-192q-11 0 -5 10l164 244l-151 226q-6 10 6 10h193q10 0 15 -8l45 -77h1l46 77q5 8 15 8h190q12 0 6 -10l-151 -226l164 -244q6 -10 -6 -10z" />
    <glyph glyph-name="y" unicode="y" horiz-adv-x="559" 
d="M140 -180h-41q-10 0 -10 10v140q0 10 10 10h30q42 0 54 32l9 25l-188 443q-4 10 7 10h189q10 0 13 -10l70 -201h2l64 201q3 10 13 10h186q11 0 7 -10l-229 -551q-27 -63 -67 -86t-119 -23z" />
    <glyph glyph-name="z" unicode="z" horiz-adv-x="499" 
d="M459 0h-417q-10 0 -10 10v129q0 5 3 10l199 184v3h-181q-10 0 -10 10v134q0 10 10 10h406q10 0 10 -10v-134q0 -6 -3 -10l-198 -179v-3h191q10 0 10 -10v-134q0 -10 -10 -10z" />
    <glyph glyph-name="braceleft" unicode="{" horiz-adv-x="378" 
d="M344 -84h-84q-72 0 -106 32t-34 98v120q0 48 -17 69t-53 21q-10 0 -10 10v126q0 10 10 10q36 0 53 21t17 68v119q0 66 34 98t106 32h84q10 0 10 -10v-126q0 -10 -10 -10h-20q-42 0 -42 -46v-86q0 -57 -16.5 -86.5t-55.5 -45.5v-2q39 -16 55.5 -46t16.5 -87v-87
q0 -46 42 -46h20q10 0 10 -10v-126q0 -10 -10 -10z" />
    <glyph glyph-name="bar" unicode="|" horiz-adv-x="336" 
d="M246 -84h-156q-10 0 -10 10v804q0 10 10 10h156q10 0 10 -10v-804q0 -10 -10 -10z" />
    <glyph glyph-name="braceright" unicode="}" horiz-adv-x="378" 
d="M118 -84h-84q-10 0 -10 10v126q0 10 10 10h20q42 0 42 46v87q0 57 16.5 87t55.5 46v2q-39 16 -55.5 45.5t-16.5 86.5v86q0 46 -42 46h-20q-10 0 -10 10v126q0 10 10 10h84q72 0 106 -32t34 -98v-119q0 -47 17 -68t53 -21q10 0 10 -10v-126q0 -10 -10 -10q-36 0 -53 -21
t-17 -69v-120q0 -66 -34 -98t-106 -32z" />
    <glyph glyph-name="asciitilde" unicode="~" 
d="M376 172q-54 0 -100 31q-38 25 -62 25q-33 0 -58 -44q-4 -8 -14 -4l-98 63q-8 5 -4 14q23 53 64 86.5t90 33.5q54 0 100 -31q38 -25 62 -25q33 0 58 44q4 8 14 4l98 -63q8 -5 4 -14q-26 -54 -65.5 -87t-88.5 -33z" />
    <glyph glyph-name="uni00A0.001" unicode="&#xa0;" horiz-adv-x="240" 
 />
    <glyph glyph-name="exclamdown" unicode="&#xa1;" horiz-adv-x="320" 
d="M250 480v-140q0 -10 -10 -10h-160q-10 0 -10 10v140q0 10 10 10h160q10 0 10 -10zM94 268h132q10 0 10 -10l24 -438q0 -10 -10 -10h-180q-10 0 -10 10l24 438q0 10 10 10z" />
    <glyph glyph-name="cent" unicode="&#xa2;" 
d="M257 245q0 -49 6 -67q11 -30 45 -30q38 0 54 44q4 10 17 4l141 -60q8 -5 5 -13q-18 -49 -62 -83.5t-107 -45.5v-79q0 -10 -10 -10h-106q-10 0 -10 10v81q-124 26 -161 140q-14 42 -14 109t14 109q37 113 161 140v81q0 10 10 10h106q10 0 10 -10v-79q62 -12 106.5 -47
t62.5 -82q3 -8 -5 -13l-141 -60q-13 -6 -17 4q-16 44 -54 44q-34 0 -45 -30q-6 -18 -6 -67z" />
    <glyph glyph-name="sterling" unicode="&#xa3;" 
d="M512 0h-453q-10 0 -10 10v139q0 8 6 14q35 30 35 73v14q0 6 -6 6h-25q-10 0 -10 10v115q0 10 10 10h25q6 0 6 6v86q0 101 58.5 155t164.5 54q91 0 145.5 -45.5t63.5 -117.5q2 -11 -8 -12l-152 -30q-11 -2 -12 8q-4 21 -11.5 29t-21.5 8q-29 0 -29 -42v-93q0 -6 6 -6h129
q10 0 10 -10v-115q0 -10 -10 -10h-129q-6 0 -6 -6v-9q0 -53 -33 -76v-2h257q10 0 10 -10v-143q0 -10 -10 -10z" />
    <glyph glyph-name="currency" unicode="&#xa4;" 
d="M285 187q31 0 51.5 21t20.5 52t-20.5 52t-51.5 21t-51.5 -21t-20.5 -52t20.5 -52t51.5 -21zM544 105l-101 -102q-7 -7 -14 0l-63 62q-38 -16 -81 -16q-44 0 -82 16l-61 -61q-7 -7 -14 0l-101 102q-7 7 0 14l62 62q-15 36 -15 78t15 78l-63 63q-7 7 0 14l101 102q7 7 14 0
l62 -63q42 17 82 17q39 0 81 -17l63 63q7 7 14 0l101 -102q7 -7 0 -14l-63 -63q15 -40 15 -78t-15 -78l63 -63q7 -7 0 -14z" />
    <glyph glyph-name="yen" unicode="&#xa5;" 
d="M375 0h-180q-10 0 -10 10v108q0 6 -6 6h-106q-10 0 -10 10v63q0 10 10 10h106q6 0 6 6v23q0 6 -6 6h-106q-10 0 -10 10v63q0 10 10 10h81v2l-142 343q-4 10 7 10h189q12 0 16 -10l62 -213h3l60 213q4 10 16 10h186q11 0 7 -10l-142 -343v-2h81q10 0 10 -10v-63
q0 -10 -10 -10h-106q-6 0 -6 -6v-23q0 -6 6 -6h106q10 0 10 -10v-63q0 -10 -10 -10h-106q-6 0 -6 -6v-108q0 -10 -10 -10z" />
    <glyph glyph-name="brokenbar" unicode="&#xa6;" horiz-adv-x="336" 
d="M246 -84h-156q-10 0 -10 10v336q0 10 10 10h156q10 0 10 -10v-336q0 -10 -10 -10zM246 388h-156q-10 0 -10 10v332q0 10 10 10h156q10 0 10 -10v-332q0 -10 -10 -10z" />
    <glyph glyph-name="section" unicode="&#xa7;" horiz-adv-x="500" 
d="M250 196q23 0 36.5 15.5t13.5 40.5t-13.5 40.5t-36.5 15.5t-36.5 -15.5t-13.5 -40.5t13.5 -40.5t36.5 -15.5zM246 -196q-93 0 -148.5 45t-61.5 113q0 10 8 12l148 20q9 1 11 -8q4 -37 40 -37q38 0 38 33q0 21 -17.5 35.5t-67.5 29.5q-89 27 -129.5 74t-40.5 127
q0 85 77 144v2q-57 46 -57 129q0 72 57 122.5t150 50.5q91 0 146.5 -46.5t61.5 -114.5q2 -11 -8 -12l-145 -19q-10 -1 -11 8q-6 39 -40 39q-37 0 -37 -32q0 -37 84 -62q86 -26 128 -73t42 -128q0 -88 -77 -144v-2q58 -46 58 -133q0 -76 -56.5 -124.5t-152.5 -48.5z" />
    <glyph glyph-name="dieresis" unicode="&#xa8;" horiz-adv-x="530" 
d="M223 536h-126q-10 0 -10 10v124q0 10 10 10h126q10 0 10 -10v-124q0 -10 -10 -10zM433 536h-126q-10 0 -10 10v124q0 10 10 10h126q10 0 10 -10v-124q0 -10 -10 -10z" />
    <glyph glyph-name="copyright" unicode="&#xa9;" horiz-adv-x="774" 
d="M392 146q-65 0 -113.5 29.5t-66.5 85.5q-10 29 -10 80t10 80q18 56 66.5 85.5t113.5 29.5q64 0 111.5 -28.5t63.5 -71.5q4 -10 -6 -13l-109 -45q-8 -4 -13 5q-12 30 -41 30q-26 0 -34 -23q-4 -12 -4 -49t4 -49q8 -23 34 -23q29 0 41 30q5 9 13 5l109 -45q10 -3 6 -13
q-16 -43 -63.5 -71.5t-111.5 -28.5zM387 74q117 0 190.5 74t73.5 191q0 116 -73.5 190.5t-190.5 74.5t-190.5 -74.5t-73.5 -190.5q0 -117 73.5 -191t190.5 -74zM387 -14q-152 0 -252.5 100t-100.5 253t100.5 253t252.5 100t252.5 -100t100.5 -253t-100.5 -253t-252.5 -100z
" />
    <glyph glyph-name="ordfeminine" unicode="&#xaa;" horiz-adv-x="383" 
d="M178 464q40 0 40 23v11q0 6 -6 6h-34q-27 0 -27 -20t27 -20zM329 392h-101q-10 0 -10 10v14h-1q-24 -30 -79 -30q-43 0 -72.5 22.5t-29.5 66.5q0 45 35 70.5t98 25.5h43q6 0 6 6v4q0 22 -53 22q-41 0 -69 -19q-10 -6 -14 4l-33 56q-4 10 4 14q49 31 126 31
q83 0 121.5 -25.5t38.5 -84.5v-177q0 -10 -10 -10z" />
    <glyph glyph-name="guillemotleft" unicode="&#xab;" horiz-adv-x="612" 
d="M270 6l-255 251q-7 7 0 14l255 251q3 3 6.5 2t3.5 -6v-162q0 -8 -10 -18l-71 -70q-4 -4 0 -8l71 -70q10 -10 10 -18v-162q0 -5 -3.5 -6t-6.5 2zM550 6l-255 251q-7 7 0 14l255 251q3 3 6.5 2t3.5 -6v-162q0 -8 -10 -18l-71 -70q-4 -4 0 -8l71 -70q10 -10 10 -18v-162
q0 -5 -3.5 -6t-6.5 2z" />
    <glyph glyph-name="logicalnot" unicode="&#xac;" 
d="M518 66h-148q-10 0 -10 10v112q0 6 -6 6h-302q-10 0 -10 10v144q0 10 10 10h466q10 0 10 -10v-272q0 -10 -10 -10z" />
    <glyph glyph-name="uni00AD" unicode="&#xad;" horiz-adv-x="408" 
d="M362 179h-316q-10 0 -10 10v152q0 10 10 10h316q10 0 10 -10v-152q0 -10 -10 -10z" />
    <glyph glyph-name="registered" unicode="&#xae;" horiz-adv-x="431" 
d="M204 509h19q21 0 21 18t-21 18h-19q-4 0 -4 -4v-28q0 -4 4 -4zM193 388h-59q-7 0 -7 7v198q0 7 7 7h99q42 0 63.5 -19.5t21.5 -52.5q0 -44 -35 -62l33 -71q2 -2 0.5 -4.5t-5.5 -2.5h-64q-7 0 -10 7l-26 60h-7q-4 0 -4 -4v-56q0 -7 -7 -7zM216 343q64 0 105.5 42t41.5 108
t-41.5 107.5t-105.5 41.5q-65 0 -106.5 -41.5t-41.5 -107.5q0 -67 41.5 -108.5t106.5 -41.5zM216 301q-83 0 -139 55t-56 137t56 136.5t139 54.5q82 0 138 -55t56 -136q0 -82 -56 -137t-138 -55z" />
    <glyph glyph-name="macron" unicode="&#xaf;" horiz-adv-x="530" 
d="M427 548h-324q-10 0 -10 10v108q0 10 10 10h324q10 0 10 -10v-108q0 -10 -10 -10z" />
    <glyph glyph-name="degree" unicode="&#xb0;" horiz-adv-x="370" 
d="M185 483q21 0 34.5 13.5t13.5 35.5t-13.5 35.5t-34.5 13.5t-34.5 -13.5t-13.5 -35.5t13.5 -35.5t34.5 -13.5zM185 368q-70 0 -117.5 47t-47.5 117t47.5 117t117.5 47t117.5 -47t47.5 -117t-47.5 -117t-117.5 -47z" />
    <glyph glyph-name="plusminus" unicode="&#xb1;" 
d="M518 0h-466q-10 0 -10 10v144q0 10 10 10h466q10 0 10 -10v-144q0 -10 -10 -10zM359 200h-148q-10 0 -10 10v142q0 6 -6 6h-143q-10 0 -10 10v144q0 10 10 10h143q6 0 6 6v142q0 10 10 10h148q10 0 10 -10v-142q0 -6 6 -6h143q10 0 10 -10v-144q0 -10 -10 -10h-143
q-6 0 -6 -6v-142q0 -10 -10 -10z" />
    <glyph glyph-name="twosuperior" unicode="&#xb2;" horiz-adv-x="376" 
d="M336 430h-296q-10 0 -10 10v87q0 12 10 21l147 125q21 18 21 38q0 24 -24 24q-27 0 -28 -32q0 -12 -11 -10l-106 12q-9 1 -9 11q2 58 45.5 92.5t118.5 34.5q64 0 108 -33.5t44 -96.5t-60 -111l-70 -56v-1h120q10 0 10 -10v-95q0 -10 -10 -10z" />
    <glyph glyph-name="threesuperior" unicode="&#xb3;" horiz-adv-x="376" 
d="M189 423q-68 0 -110.5 29.5t-50.5 80.5q-1 10 8 11l105 13q9 1 14 -7q7 -19 29 -19q27 0 27 26q0 27 -35 27h-10q-10 0 -10 10v84q0 10 10 10h12q27 0 27 23q0 24 -24 24q-22 0 -26 -19q-3 -10 -12 -9l-107 14q-9 1 -8 11q9 50 50 80.5t110 30.5q73 0 114 -32t41 -82
q0 -51 -48 -80v-2q54 -28 54 -95q0 -58 -44 -93.5t-116 -35.5z" />
    <glyph glyph-name="acute" unicode="&#xb4;" horiz-adv-x="530" 
d="M279 540h-143q-9 0 -5 10l83 144q7 10 17 10h165q5 0 6.5 -3.5t-1.5 -6.5l-106 -144q-7 -10 -16 -10z" />
    <glyph glyph-name="micron" unicode="&#xb5;" horiz-adv-x="565" 
d="M513 0h-180q-10 0 -10 10v36h-1q-22 -34 -59 -45q-3 -2 -21 -4v-167q0 -10 -10 -10h-180q-10 0 -10 10v650q0 10 10 10h180q10 0 10 -10v-278q0 -50 41 -50q40 0 40 50v278q0 10 10 10h180q10 0 10 -10v-470q0 -10 -10 -10z" />
    <glyph glyph-name="paragraph" unicode="&#xb6;" horiz-adv-x="702" 
d="M636 -180h-134q-10 0 -10 10v719q0 6 -6 6h-68q-6 0 -6 -6v-719q0 -10 -10 -10h-134q-10 0 -10 10v360q-96 6 -159 72.5t-63 172.5q0 110 70.5 177.5t188.5 67.5h341q10 0 10 -10v-840q0 -10 -10 -10z" />
    <glyph glyph-name="periodcentered" unicode="&#xb7;" horiz-adv-x="268" 
d="M214 175h-160q-10 0 -10 10v160q0 10 10 10h160q10 0 10 -10v-160q0 -10 -10 -10z" />
    <glyph glyph-name="cedilla" unicode="&#xb8;" horiz-adv-x="530" 
d="M308 -172h-138q-10 0 -7 10l64 162q4 10 16 10h120q10 0 7 -10l-47 -162q-3 -10 -15 -10z" />
    <glyph glyph-name="onesuperior" unicode="&#xb9;" horiz-adv-x="376" 
d="M272 430h-123q-10 0 -10 10v256h-2l-67 -37q-10 -6 -10 6v112q0 11 9 15l63 38q9 6 17 6h123q10 0 10 -10v-386q0 -10 -10 -10z" />
    <glyph glyph-name="ordmasculine" unicode="&#xba;" horiz-adv-x="406" 
d="M203 479q24 0 31 21q3 5 3 36t-3 36q-7 21 -31 21t-31 -21q-3 -5 -3 -36t3 -36q7 -21 31 -21zM203 383q-125 0 -155 91q-8 26 -8 62t8 62q30 91 155 91t155 -91q8 -26 8 -62t-8 -62q-30 -91 -155 -91z" />
    <glyph glyph-name="guillemotright" unicode="&#xbb;" horiz-adv-x="612" 
d="M317 257l-255 -251q-3 -3 -6.5 -2t-3.5 6v162q0 8 10 18l71 70q4 4 0 8l-71 70q-10 10 -10 18v162q0 5 3.5 6t6.5 -2l255 -251q7 -7 0 -14zM597 257l-255 -251q-3 -3 -6.5 -2t-3.5 6v162q0 8 10 18l71 70q4 4 0 8l-71 70q-10 10 -10 18v162q0 5 3.5 6t6.5 -2l255 -251
q7 -7 0 -14z" />
    <glyph glyph-name="onequarter" unicode="&#xbc;" horiz-adv-x="948" 
d="M830 0h-109q-10 0 -10 10v32q0 6 -6 6h-169q-10 0 -10 10v102q0 8 5 20l97 216q4 10 15 10h127q11 0 7 -10l-104 -230v-3h32q6 0 6 6v42q0 10 10 10h109q10 0 10 -10v-42q0 -6 5 -6h13q10 0 10 -10v-95q0 -10 -10 -10h-12q-6 0 -6 -6v-32q0 -10 -10 -10zM292 274h-123
q-10 0 -10 10v256h-2l-67 -37q-10 -6 -10 6v112q0 11 9 15l63 38q9 6 17 6h123q10 0 10 -10v-386q0 -10 -10 -10zM316 -12h-122q-10 0 -4 10l395 684q6 10 16 10h122q10 0 4 -10l-395 -684q-6 -10 -16 -10z" />
    <glyph glyph-name="onehalf" unicode="&#xbd;" horiz-adv-x="966" 
d="M876 0h-296q-10 0 -10 10v87q0 12 10 21l147 125q21 18 21 38q0 24 -24 24q-27 0 -28 -32q0 -12 -11 -10l-106 12q-9 1 -9 11q2 58 45.5 92.5t118.5 34.5q64 0 108 -33.5t44 -96.5t-60 -111l-70 -56v-1h120q10 0 10 -10v-95q0 -10 -10 -10zM292 274h-123q-10 0 -10 10
v256h-2l-67 -37q-10 -6 -10 6v112q0 11 9 15l63 38q9 6 17 6h123q10 0 10 -10v-386q0 -10 -10 -10zM316 -12h-122q-10 0 -4 10l395 684q6 10 16 10h122q10 0 4 -10l-395 -684q-6 -10 -16 -10z" />
    <glyph glyph-name="threequarters" unicode="&#xbe;" horiz-adv-x="1003" 
d="M885 0h-109q-10 0 -10 10v32q0 6 -6 6h-169q-10 0 -10 10v102q0 8 5 20l97 216q4 10 15 10h127q11 0 7 -10l-104 -230v-3h32q6 0 6 6v42q0 10 10 10h109q10 0 10 -10v-42q0 -6 5 -6h13q10 0 10 -10v-95q0 -10 -10 -10h-12q-6 0 -6 -6v-32q0 -10 -10 -10zM242 267
q-68 0 -110.5 29.5t-50.5 80.5q-1 10 8 11l105 13q9 1 14 -7q7 -19 29 -19q27 0 27 26q0 27 -35 27h-10q-10 0 -10 10v84q0 10 10 10h12q27 0 27 23q0 24 -24 24q-22 0 -26 -19q-3 -10 -12 -9l-107 14q-9 1 -8 11q9 50 50 80.5t110 30.5q73 0 114 -32t41 -82q0 -51 -48 -80
v-2q54 -28 54 -95q0 -58 -44 -93.5t-116 -35.5zM372 -12h-122q-10 0 -4 10l395 684q6 10 16 10h122q10 0 4 -10l-395 -684q-6 -10 -16 -10z" />
    <glyph glyph-name="questiondown" unicode="&#xbf;" horiz-adv-x="494" 
d="M344 480v-140q0 -10 -10 -10h-160q-10 0 -10 10v140q0 10 10 10h160q10 0 10 -10zM175 268h160q10 0 10 -10v-40q0 -50 -34 -84l-48 -48q-29 -29 -39.5 -45.5t-10.5 -33.5q0 -20 12 -32.5t32 -12.5q43 0 53 49q2 11 11 9l152 -21q9 -1 8 -11q-10 -85 -71 -137.5
t-157 -52.5q-102 0 -166.5 57.5t-64.5 138.5q0 49 19.5 84.5t64.5 78.5l37 36q22 22 22 55v10q0 10 10 10z" />
    <glyph glyph-name="Agrave" unicode="&#xc0;" horiz-adv-x="708" 
d="M436 738h-141q-11 0 -21 10l-134 132q-3 4 -1.5 7t6.5 3h167q9 0 18 -10l110 -132q8 -10 -4 -10zM302 270h105l-50 181h-3zM6 10l236 660q3 10 13 10h204q10 0 13 -10l230 -660q3 -10 -7 -10h-203q-10 0 -13 10l-25 89h-200l-25 -89q-3 -10 -13 -10h-203q-10 0 -7 10z
" />
    <glyph glyph-name="Aacute" unicode="&#xc1;" horiz-adv-x="708" 
d="M419 738h-141q-12 0 -4 10l110 132q9 10 18 10h167q5 0 6.5 -3t-1.5 -7l-134 -132q-10 -10 -21 -10zM302 270h105l-50 181h-3zM6 10l236 660q3 10 13 10h204q10 0 13 -10l230 -660q3 -10 -7 -10h-203q-10 0 -13 10l-25 89h-200l-25 -89q-3 -10 -13 -10h-203q-10 0 -7 10z
" />
    <glyph glyph-name="Acircumflex" unicode="&#xc2;" horiz-adv-x="708" 
d="M536 734h-113q-14 0 -24 10l-44 44h-2l-44 -44q-10 -10 -24 -10h-113q-5 0 -6.5 3t1.5 7l114 144q7 10 19 10h108q12 0 19 -10l114 -144q3 -4 1.5 -7t-6.5 -3zM302 270h105l-50 181h-3zM6 10l236 660q3 10 13 10h204q10 0 13 -10l230 -660q3 -10 -7 -10h-203
q-10 0 -13 10l-25 89h-200l-25 -89q-3 -10 -13 -10h-203q-10 0 -7 10z" />
    <glyph glyph-name="Atilde" unicode="&#xc3;" horiz-adv-x="708" 
d="M429 730q-40 0 -94 26q-36 17 -61 17q-39 0 -81 -33q-11 -8 -11 4v92q0 14 10 24q41 39 86 39q40 0 94 -26q36 -17 61 -17q39 0 81 33q11 8 11 -4v-92q0 -14 -10 -24q-41 -39 -86 -39zM302 270h105l-50 181h-3zM6 10l236 660q3 10 13 10h204q10 0 13 -10l230 -660
q3 -10 -7 -10h-203q-10 0 -13 10l-25 89h-200l-25 -89q-3 -10 -13 -10h-203q-10 0 -7 10z" />
    <glyph glyph-name="Adieresis" unicode="&#xc4;" horiz-adv-x="708" 
d="M312 739h-126q-10 0 -10 10v124q0 10 10 10h126q10 0 10 -10v-124q0 -10 -10 -10zM522 739h-126q-10 0 -10 10v124q0 10 10 10h126q10 0 10 -10v-124q0 -10 -10 -10zM302 270h105l-50 181h-3zM6 10l236 660q3 10 13 10h204q10 0 13 -10l230 -660q3 -10 -7 -10h-203
q-10 0 -13 10l-25 89h-200l-25 -89q-3 -10 -13 -10h-203q-10 0 -7 10z" />
    <glyph glyph-name="Aring" unicode="&#xc5;" horiz-adv-x="708" 
d="M354 775q17 0 28.5 11.5t11.5 29.5t-11.5 29.5t-28.5 11.5t-28.5 -11.5t-11.5 -29.5t11.5 -29.5t28.5 -11.5zM354 694q-54 0 -89 34t-35 88t35 88t89 34t89 -34t35 -88t-35 -88t-89 -34zM302 270h105l-50 181h-3zM6 10l236 660q3 10 13 10h204q10 0 13 -10l230 -660
q3 -10 -7 -10h-203q-10 0 -13 10l-25 89h-200l-25 -89q-3 -10 -13 -10h-203q-10 0 -7 10z" />
    <glyph glyph-name="AE" unicode="&#xc6;" horiz-adv-x="935" 
d="M426 506l-94 -236h92q6 0 6 6v230h-4zM895 0h-455q-10 0 -10 10v83q0 6 -6 6h-161l-35 -89q-4 -10 -14 -10h-201q-10 0 -6 10l286 660q4 10 14 10h588q10 0 10 -10v-154q0 -10 -10 -10h-251q-6 0 -6 -6v-66q0 -6 6 -6h201q10 0 10 -10v-150q0 -10 -10 -10h-201
q-6 0 -6 -6v-72q0 -6 6 -6h251q10 0 10 -10v-154q0 -10 -10 -10z" />
    <glyph glyph-name="Ccedilla" unicode="&#xc7;" horiz-adv-x="572" 
d="M319 -172h-138q-10 0 -7 10l61 156q-140 26 -184 162q-21 67 -21 184q0 121 21 184q54 168 252 168q196 0 253 -160q5 -9 -5 -14l-161 -69q-11 -5 -15 7q-12 27 -26.5 38.5t-40.5 11.5q-44 0 -58 -41q-8 -26 -8 -125t8 -125q14 -41 58 -41q26 0 40.5 11.5t26.5 38.5
q4 12 15 7l161 -69q10 -5 5 -14q-45 -124 -176 -152l-46 -158q-3 -10 -15 -10z" />
    <glyph glyph-name="Egrave" unicode="&#xc8;" horiz-adv-x="549" 
d="M372 738h-141q-11 0 -21 10l-134 132q-3 4 -1.5 7t6.5 3h167q9 0 18 -10l110 -132q8 -10 -4 -10zM44 10v660q0 10 10 10h455q10 0 10 -10v-154q0 -10 -10 -10h-251q-6 0 -6 -6v-66q0 -6 6 -6h201q10 0 10 -10v-150q0 -10 -10 -10h-201q-6 0 -6 -6v-72q0 -6 6 -6h251
q10 0 10 -10v-154q0 -10 -10 -10h-455q-10 0 -10 10z" />
    <glyph glyph-name="Eacute" unicode="&#xc9;" horiz-adv-x="549" 
d="M313 738h-141q-12 0 -4 10l110 132q9 10 18 10h167q5 0 6.5 -3t-1.5 -7l-134 -132q-10 -10 -21 -10zM44 10v660q0 10 10 10h455q10 0 10 -10v-154q0 -10 -10 -10h-251q-6 0 -6 -6v-66q0 -6 6 -6h201q10 0 10 -10v-150q0 -10 -10 -10h-201q-6 0 -6 -6v-72q0 -6 6 -6h251
q10 0 10 -10v-154q0 -10 -10 -10h-455q-10 0 -10 10z" />
    <glyph glyph-name="Ecircumflex" unicode="&#xca;" horiz-adv-x="549" 
d="M465 734h-113q-14 0 -24 10l-44 44h-2l-44 -44q-10 -10 -24 -10h-113q-5 0 -6.5 3t1.5 7l114 144q7 10 19 10h108q12 0 19 -10l114 -144q3 -4 1.5 -7t-6.5 -3zM44 10v660q0 10 10 10h455q10 0 10 -10v-154q0 -10 -10 -10h-251q-6 0 -6 -6v-66q0 -6 6 -6h201q10 0 10 -10
v-150q0 -10 -10 -10h-201q-6 0 -6 -6v-72q0 -6 6 -6h251q10 0 10 -10v-154q0 -10 -10 -10h-455q-10 0 -10 10z" />
    <glyph glyph-name="Edieresis" unicode="&#xcb;" horiz-adv-x="549" 
d="M239 739h-126q-10 0 -10 10v124q0 10 10 10h126q10 0 10 -10v-124q0 -10 -10 -10zM449 739h-126q-10 0 -10 10v124q0 10 10 10h126q10 0 10 -10v-124q0 -10 -10 -10zM44 10v660q0 10 10 10h455q10 0 10 -10v-154q0 -10 -10 -10h-251q-6 0 -6 -6v-66q0 -6 6 -6h201
q10 0 10 -10v-150q0 -10 -10 -10h-201q-6 0 -6 -6v-72q0 -6 6 -6h251q10 0 10 -10v-154q0 -10 -10 -10h-455q-10 0 -10 10z" />
    <glyph glyph-name="Igrave" unicode="&#xcc;" horiz-adv-x="298" 
d="M233 738h-141q-11 0 -21 10l-134 132q-3 4 -1.5 7t6.5 3h167q9 0 18 -10l110 -132q8 -10 -4 -10zM44 10v660q0 10 10 10h190q10 0 10 -10v-660q0 -10 -10 -10h-190q-10 0 -10 10z" />
    <glyph glyph-name="Iacute" unicode="&#xcd;" horiz-adv-x="298" 
d="M208 738h-141q-12 0 -4 10l110 132q9 10 18 10h167q5 0 6.5 -3t-1.5 -7l-134 -132q-10 -10 -21 -10zM44 10v660q0 10 10 10h190q10 0 10 -10v-660q0 -10 -10 -10h-190q-10 0 -10 10z" />
    <glyph glyph-name="Icircumflex" unicode="&#xce;" horiz-adv-x="298" 
d="M331 734h-113q-14 0 -24 10l-44 44h-2l-44 -44q-10 -10 -24 -10h-113q-5 0 -6.5 3t1.5 7l114 144q7 10 19 10h108q12 0 19 -10l114 -144q3 -4 1.5 -7t-6.5 -3zM44 10v660q0 10 10 10h190q10 0 10 -10v-660q0 -10 -10 -10h-190q-10 0 -10 10z" />
    <glyph glyph-name="Idieresis" unicode="&#xcf;" horiz-adv-x="298" 
d="M107 739h-126q-10 0 -10 10v124q0 10 10 10h126q10 0 10 -10v-124q0 -10 -10 -10zM317 739h-126q-10 0 -10 10v124q0 10 10 10h126q10 0 10 -10v-124q0 -10 -10 -10zM44 10v660q0 10 10 10h190q10 0 10 -10v-660q0 -10 -10 -10h-190q-10 0 -10 10z" />
    <glyph glyph-name="Eth" unicode="&#xd0;" horiz-adv-x="635" 
d="M260 186h24q42 0 63 11t32 41q9 24 9 102q0 80 -9 102q-11 30 -32 41t-63 11h-24q-6 0 -6 -6v-70q0 -6 6 -6h54q10 0 10 -10v-117q0 -10 -10 -10h-54q-6 0 -6 -6v-77q0 -6 6 -6zM327 0h-273q-10 0 -10 10v259q0 6 -6 6h-26q-10 0 -10 10v117q0 10 10 10h26q6 0 6 6v252
q0 10 10 10h273q200 0 252 -158q21 -64 21 -182t-21 -182q-52 -158 -252 -158z" />
    <glyph glyph-name="Ntilde" unicode="&#xd1;" horiz-adv-x="650" 
d="M400 730q-40 0 -94 26q-36 17 -61 17q-39 0 -81 -33q-11 -8 -11 4v92q0 14 10 24q41 39 86 39q40 0 94 -26q36 -17 61 -17q39 0 81 33q11 8 11 -4v-92q0 -14 -10 -24q-41 -39 -86 -39zM44 10v660q0 10 10 10h179q13 0 17 -10l162 -335h5v335q0 10 10 10h169q10 0 10 -10
v-660q0 -10 -10 -10h-179q-13 0 -17 10l-161 335h-6v-335q0 -10 -10 -10h-169q-10 0 -10 10z" />
    <glyph glyph-name="Ograve" unicode="&#xd2;" horiz-adv-x="628" 
d="M397 738h-141q-11 0 -21 10l-134 132q-3 4 -1.5 7t6.5 3h167q9 0 18 -10l110 -132q8 -10 -4 -10zM314 174q50 0 64 43q8 24 8 123q0 101 -8 123q-14 43 -64 43t-64 -43q-8 -22 -8 -123q0 -99 8 -123q14 -43 64 -43zM314 -12q-95 0 -165.5 43t-97.5 126q-21 62 -21 183
t21 183q27 83 97.5 126t165.5 43t165.5 -43t97.5 -126q21 -62 21 -183t-21 -183q-27 -83 -97.5 -126t-165.5 -43z" />
    <glyph glyph-name="Oacute" unicode="&#xd3;" horiz-adv-x="628" 
d="M372 738h-141q-12 0 -4 10l110 132q9 10 18 10h167q5 0 6.5 -3t-1.5 -7l-134 -132q-10 -10 -21 -10zM314 174q50 0 64 43q8 24 8 123q0 101 -8 123q-14 43 -64 43t-64 -43q-8 -22 -8 -123q0 -99 8 -123q14 -43 64 -43zM314 -12q-95 0 -165.5 43t-97.5 126q-21 62 -21 183
t21 183q27 83 97.5 126t165.5 43t165.5 -43t97.5 -126q21 -62 21 -183t-21 -183q-27 -83 -97.5 -126t-165.5 -43z" />
    <glyph glyph-name="Ocircumflex" unicode="&#xd4;" horiz-adv-x="628" 
d="M496 734h-113q-14 0 -24 10l-44 44h-2l-44 -44q-10 -10 -24 -10h-113q-5 0 -6.5 3t1.5 7l114 144q7 10 19 10h108q12 0 19 -10l114 -144q3 -4 1.5 -7t-6.5 -3zM314 174q50 0 64 43q8 24 8 123q0 101 -8 123q-14 43 -64 43t-64 -43q-8 -22 -8 -123q0 -99 8 -123
q14 -43 64 -43zM314 -12q-95 0 -165.5 43t-97.5 126q-21 62 -21 183t21 183q27 83 97.5 126t165.5 43t165.5 -43t97.5 -126q21 -62 21 -183t-21 -183q-27 -83 -97.5 -126t-165.5 -43z" />
    <glyph glyph-name="Otilde" unicode="&#xd5;" horiz-adv-x="628" 
d="M390 730q-40 0 -94 26q-36 17 -61 17q-39 0 -81 -33q-11 -8 -11 4v92q0 14 10 24q41 39 86 39q40 0 94 -26q36 -17 61 -17q39 0 81 33q11 8 11 -4v-92q0 -14 -10 -24q-41 -39 -86 -39zM314 174q50 0 64 43q8 24 8 123q0 101 -8 123q-14 43 -64 43t-64 -43q-8 -22 -8 -123
q0 -99 8 -123q14 -43 64 -43zM314 -12q-95 0 -165.5 43t-97.5 126q-21 62 -21 183t21 183q27 83 97.5 126t165.5 43t165.5 -43t97.5 -126q21 -62 21 -183t-21 -183q-27 -83 -97.5 -126t-165.5 -43z" />
    <glyph glyph-name="Odieresis" unicode="&#xd6;" horiz-adv-x="628" 
d="M272 739h-126q-10 0 -10 10v124q0 10 10 10h126q10 0 10 -10v-124q0 -10 -10 -10zM482 739h-126q-10 0 -10 10v124q0 10 10 10h126q10 0 10 -10v-124q0 -10 -10 -10zM314 174q50 0 64 43q8 24 8 123q0 101 -8 123q-14 43 -64 43t-64 -43q-8 -22 -8 -123q0 -99 8 -123
q14 -43 64 -43zM314 -12q-95 0 -165.5 43t-97.5 126q-21 62 -21 183t21 183q27 83 97.5 126t165.5 43t165.5 -43t97.5 -126q21 -62 21 -183t-21 -183q-27 -83 -97.5 -126t-165.5 -43z" />
    <glyph glyph-name="multiply" unicode="&#xd7;" 
d="M517 141l-97 -97q-7 -7 -14 0l-118 117q-4 4 -8 0l-118 -117q-7 -7 -14 0l-96 96q-7 7 0 14l117 117q5 5 0 9l-117 117q-7 7 0 14l98 98q7 7 14 0l117 -118q5 -3 9 0l117 118q7 7 14 0l96 -96q8 -8 0 -14l-117 -118q-5 -5 0 -8l117 -118q7 -7 0 -14z" />
    <glyph glyph-name="Oslash" unicode="&#xd8;" horiz-adv-x="628" 
d="M314 174q50 0 64 43q8 24 8 123q0 101 -8 123q-14 43 -64 43t-64 -43q-8 -22 -8 -123q0 -99 8 -123q14 -43 64 -43zM314 -12q-80 0 -143 30l-25 -38q-6 -10 -17 -10h-124q-11 0 -5 10l79 118q-15 22 -28 59q-21 65 -21 183q0 121 21 183q27 83 97.5 126t165.5 43
q80 0 142 -30l26 38q7 10 17 10h124q11 0 5 -10l-79 -119q18 -28 28 -58q21 -62 21 -183t-21 -183q-27 -83 -97.5 -126t-165.5 -43z" />
    <glyph glyph-name="Ugrave" unicode="&#xd9;" horiz-adv-x="650" 
d="M407 738h-141q-11 0 -21 10l-134 132q-3 4 -1.5 7t6.5 3h167q9 0 18 -10l110 -132q8 -10 -4 -10zM326 -12q-133 0 -208 72.5t-75 216.5v393q0 10 10 10h190q10 0 10 -10v-411q0 -85 72 -85t72 85v411q0 10 10 10h190q10 0 10 -10v-393q0 -144 -74 -216.5t-207 -72.5z" />
    <glyph glyph-name="Uacute" unicode="&#xda;" horiz-adv-x="650" 
d="M388 738h-141q-12 0 -4 10l110 132q9 10 18 10h167q5 0 6.5 -3t-1.5 -7l-134 -132q-10 -10 -21 -10zM326 -12q-133 0 -208 72.5t-75 216.5v393q0 10 10 10h190q10 0 10 -10v-411q0 -85 72 -85t72 85v411q0 10 10 10h190q10 0 10 -10v-393q0 -144 -74 -216.5t-207 -72.5z
" />
    <glyph glyph-name="Ucircumflex" unicode="&#xdb;" horiz-adv-x="650" 
d="M507 734h-113q-14 0 -24 10l-44 44h-2l-44 -44q-10 -10 -24 -10h-113q-5 0 -6.5 3t1.5 7l114 144q7 10 19 10h108q12 0 19 -10l114 -144q3 -4 1.5 -7t-6.5 -3zM326 -12q-133 0 -208 72.5t-75 216.5v393q0 10 10 10h190q10 0 10 -10v-411q0 -85 72 -85t72 85v411
q0 10 10 10h190q10 0 10 -10v-393q0 -144 -74 -216.5t-207 -72.5z" />
    <glyph glyph-name="Udieresis" unicode="&#xdc;" horiz-adv-x="650" 
d="M283 739h-126q-10 0 -10 10v124q0 10 10 10h126q10 0 10 -10v-124q0 -10 -10 -10zM493 739h-126q-10 0 -10 10v124q0 10 10 10h126q10 0 10 -10v-124q0 -10 -10 -10zM326 -12q-133 0 -208 72.5t-75 216.5v393q0 10 10 10h190q10 0 10 -10v-411q0 -85 72 -85t72 85v411
q0 10 10 10h190q10 0 10 -10v-393q0 -144 -74 -216.5t-207 -72.5z" />
    <glyph glyph-name="Yacute" unicode="&#xdd;" horiz-adv-x="641" 
d="M385 738h-141q-12 0 -4 10l110 132q9 10 18 10h167q5 0 6.5 -3t-1.5 -7l-134 -132q-10 -10 -21 -10zM416 0h-190q-10 0 -10 10v244l-211 415q-6 11 7 11h189q11 0 17 -10l104 -213h3l101 213q4 10 17 10h187q12 0 7 -11l-211 -415v-244q0 -10 -10 -10z" />
    <glyph glyph-name="Thorn" unicode="&#xde;" horiz-adv-x="620" 
d="M259 287h65q70 0 70 61t-70 61h-65q-6 0 -6 -6v-110q0 -6 6 -6zM243 0h-189q-10 0 -10 10v660q0 10 10 10h189q10 0 10 -10v-81q0 -6 6 -6h76q135 0 202 -64t67 -171q0 -104 -68.5 -169.5t-200.5 -65.5h-76q-6 0 -6 -6v-97q0 -10 -10 -10z" />
    <glyph glyph-name="germandbls" unicode="&#xdf;" horiz-adv-x="598" 
d="M337 -6h-47q-10 0 -10 10v128q0 10 10 10h24q48 0 60 38q4 12 4 50t-4 50q-12 38 -60 38h-20q-10 0 -10 10v125q0 10 10 10h25q47 0 47 38q0 37 -59 37q-36 0 -52.5 -15t-16.5 -48v-465q0 -10 -10 -10h-176q-10 0 -10 10v465q0 108 63.5 162.5t201.5 54.5
q120 0 186.5 -48.5t66.5 -127.5q0 -82 -59 -122v-2q45 -22 63 -75q10 -27 10 -93q0 -83 -12 -119q-20 -59 -74.5 -85t-150.5 -26z" />
    <glyph glyph-name="agrave" unicode="&#xe0;" horiz-adv-x="537" 
d="M376 540h-143q-9 0 -16 10l-106 144q-3 3 -1.5 6.5t6.5 3.5h165q10 0 17 -10l83 -144q4 -10 -5 -10zM253 124q57 0 57 35v26q0 6 -6 6h-47q-47 0 -47 -35q0 -32 43 -32zM488 0h-169q-10 0 -10 10v24h-1q-44 -46 -128 -46q-66 0 -111 38t-45 113q0 81 59.5 122.5
t155.5 41.5h65q6 0 6 6v8q0 19 -17.5 26.5t-68.5 7.5q-64 0 -102 -25q-9 -4 -13 3l-60 108q-6 11 3 17q73 48 200 48q135 0 190.5 -45.5t55.5 -144.5v-302q0 -10 -10 -10z" />
    <glyph glyph-name="aacute" unicode="&#xe1;" horiz-adv-x="537" 
d="M336 540h-143q-9 0 -5 10l83 144q7 10 17 10h165q5 0 6.5 -3.5t-1.5 -6.5l-106 -144q-7 -10 -16 -10zM253 124q57 0 57 35v26q0 6 -6 6h-47q-47 0 -47 -35q0 -32 43 -32zM488 0h-169q-10 0 -10 10v24h-1q-44 -46 -128 -46q-66 0 -111 38t-45 113q0 81 59.5 122.5
t155.5 41.5h65q6 0 6 6v8q0 19 -17.5 26.5t-68.5 7.5q-64 0 -102 -25q-9 -4 -13 3l-60 108q-6 11 3 17q73 48 200 48q135 0 190.5 -45.5t55.5 -144.5v-302q0 -10 -10 -10z" />
    <glyph glyph-name="acircumflex" unicode="&#xe2;" horiz-adv-x="537" 
d="M450 538h-113q-14 0 -24 10l-44 44h-2l-44 -44q-10 -10 -24 -10h-113q-5 0 -6.5 3t1.5 7l114 144q7 10 19 10h108q12 0 19 -10l114 -144q3 -4 1.5 -7t-6.5 -3zM253 124q57 0 57 35v26q0 6 -6 6h-47q-47 0 -47 -35q0 -32 43 -32zM488 0h-169q-10 0 -10 10v24h-1
q-44 -46 -128 -46q-66 0 -111 38t-45 113q0 81 59.5 122.5t155.5 41.5h65q6 0 6 6v8q0 19 -17.5 26.5t-68.5 7.5q-64 0 -102 -25q-9 -4 -13 3l-60 108q-6 11 3 17q73 48 200 48q135 0 190.5 -45.5t55.5 -144.5v-302q0 -10 -10 -10z" />
    <glyph glyph-name="atilde" unicode="&#xe3;" horiz-adv-x="537" 
d="M344 536q-40 0 -94 26q-36 17 -61 17q-39 0 -81 -33q-11 -8 -11 4v92q0 14 10 24q41 39 86 39q40 0 94 -26q36 -17 61 -17q39 0 81 33q11 8 11 -4v-92q0 -14 -10 -24q-41 -39 -86 -39zM253 124q57 0 57 35v26q0 6 -6 6h-47q-47 0 -47 -35q0 -32 43 -32zM488 0h-169
q-10 0 -10 10v24h-1q-44 -46 -128 -46q-66 0 -111 38t-45 113q0 81 59.5 122.5t155.5 41.5h65q6 0 6 6v8q0 19 -17.5 26.5t-68.5 7.5q-64 0 -102 -25q-9 -4 -13 3l-60 108q-6 11 3 17q73 48 200 48q135 0 190.5 -45.5t55.5 -144.5v-302q0 -10 -10 -10z" />
    <glyph glyph-name="adieresis" unicode="&#xe4;" horiz-adv-x="537" 
d="M226 536h-126q-10 0 -10 10v124q0 10 10 10h126q10 0 10 -10v-124q0 -10 -10 -10zM436 536h-126q-10 0 -10 10v124q0 10 10 10h126q10 0 10 -10v-124q0 -10 -10 -10zM253 124q57 0 57 35v26q0 6 -6 6h-47q-47 0 -47 -35q0 -32 43 -32zM488 0h-169q-10 0 -10 10v24h-1
q-44 -46 -128 -46q-66 0 -111 38t-45 113q0 81 59.5 122.5t155.5 41.5h65q6 0 6 6v8q0 19 -17.5 26.5t-68.5 7.5q-64 0 -102 -25q-9 -4 -13 3l-60 108q-6 11 3 17q73 48 200 48q135 0 190.5 -45.5t55.5 -144.5v-302q0 -10 -10 -10z" />
    <glyph glyph-name="aring" unicode="&#xe5;" horiz-adv-x="537" 
d="M268 593q17 0 28.5 11.5t11.5 29.5t-11.5 29.5t-28.5 11.5t-28.5 -11.5t-11.5 -29.5t11.5 -29.5t28.5 -11.5zM268 512q-54 0 -89 34t-35 88t35 88t89 34t89 -34t35 -88t-35 -88t-89 -34zM253 124q57 0 57 35v26q0 6 -6 6h-47q-47 0 -47 -35q0 -32 43 -32zM488 0h-169
q-10 0 -10 10v24h-1q-44 -46 -128 -46q-66 0 -111 38t-45 113q0 81 59.5 122.5t155.5 41.5h65q6 0 6 6v8q0 19 -17.5 26.5t-68.5 7.5q-64 0 -102 -25q-9 -4 -13 3l-60 108q-6 11 3 17q73 48 200 48q135 0 190.5 -45.5t55.5 -144.5v-302q0 -10 -10 -10z" />
    <glyph glyph-name="ae" unicode="&#xe6;" horiz-adv-x="822" 
d="M253 124q57 0 57 35v26q0 6 -6 6h-47q-47 0 -47 -35q0 -32 43 -32zM504 303h100q6 0 6 6q0 15 -3 24q-10 34 -53 34t-53 -34q-3 -9 -3 -24q0 -6 6 -6zM564 -12q-49 0 -93.5 17.5t-70.5 46.5h-1q-58 -64 -186 -64q-189 0 -189 151q0 81 59.5 122.5t155.5 41.5h65q6 0 6 6
v8q0 19 -17.5 26.5t-68.5 7.5q-64 0 -102 -25q-9 -4 -13 3l-60 108q-6 11 3 17q73 48 200 48q93 0 166 -39h1q57 39 132 39q185 0 233 -145q15 -47 15 -156q0 -10 -10 -10h-285q-6 0 -6 -6l2 -10q14 -42 87 -42q55 0 107 36q8 5 14 -2l78 -86q7 -7 -2 -15q-87 -78 -220 -78z
" />
    <glyph glyph-name="ccedilla" unicode="&#xe7;" horiz-adv-x="504" 
d="M271 -172h-138q-10 0 -7 10l62 159q-117 27 -152 139q-13 39 -13 109t13 109q24 74 83 111t145 37q83 0 142.5 -38t80.5 -97q3 -8 -5 -13l-141 -60q-13 -6 -17 4q-16 44 -52 44q-32 0 -42 -30q-5 -15 -5 -67t5 -67q10 -30 42 -30q36 0 52 44q4 10 17 4l141 -60
q8 -5 5 -13q-16 -46 -56.5 -79.5t-99.5 -47.5l-45 -158q-3 -10 -15 -10z" />
    <glyph glyph-name="egrave" unicode="&#xe8;" horiz-adv-x="539" 
d="M354 540h-143q-9 0 -16 10l-106 144q-3 3 -1.5 6.5t6.5 3.5h165q10 0 17 -10l83 -144q4 -10 -5 -10zM221 303h100q6 0 6 6q0 15 -3 24q-10 34 -53 34t-53 -34q-3 -9 -3 -24q0 -6 6 -6zM281 -12q-95 0 -157 38.5t-86 109.5q-15 45 -15 109t15 109q23 72 82.5 110t147.5 38
q185 0 233 -145q15 -47 15 -156q0 -10 -10 -10h-285q-6 0 -6 -6l2 -10q14 -42 87 -42q54 0 107 36q8 5 14 -2l78 -86q7 -7 -2 -15q-87 -78 -220 -78z" />
    <glyph glyph-name="eacute" unicode="&#xe9;" horiz-adv-x="539" 
d="M333 540h-143q-9 0 -5 10l83 144q7 10 17 10h165q5 0 6.5 -3.5t-1.5 -6.5l-106 -144q-7 -10 -16 -10zM221 303h100q6 0 6 6q0 15 -3 24q-10 34 -53 34t-53 -34q-3 -9 -3 -24q0 -6 6 -6zM281 -12q-95 0 -157 38.5t-86 109.5q-15 45 -15 109t15 109q23 72 82.5 110
t147.5 38q185 0 233 -145q15 -47 15 -156q0 -10 -10 -10h-285q-6 0 -6 -6l2 -10q14 -42 87 -42q54 0 107 36q8 5 14 -2l78 -86q7 -7 -2 -15q-87 -78 -220 -78z" />
    <glyph glyph-name="ecircumflex" unicode="&#xea;" horiz-adv-x="539" 
d="M451 538h-113q-14 0 -24 10l-44 44h-2l-44 -44q-10 -10 -24 -10h-113q-5 0 -6.5 3t1.5 7l114 144q7 10 19 10h108q12 0 19 -10l114 -144q3 -4 1.5 -7t-6.5 -3zM221 303h100q6 0 6 6q0 15 -3 24q-10 34 -53 34t-53 -34q-3 -9 -3 -24q0 -6 6 -6zM281 -12q-95 0 -157 38.5
t-86 109.5q-15 45 -15 109t15 109q23 72 82.5 110t147.5 38q185 0 233 -145q15 -47 15 -156q0 -10 -10 -10h-285q-6 0 -6 -6l2 -10q14 -42 87 -42q54 0 107 36q8 5 14 -2l78 -86q7 -7 -2 -15q-87 -78 -220 -78z" />
    <glyph glyph-name="edieresis" unicode="&#xeb;" horiz-adv-x="539" 
d="M227 536h-126q-10 0 -10 10v124q0 10 10 10h126q10 0 10 -10v-124q0 -10 -10 -10zM437 536h-126q-10 0 -10 10v124q0 10 10 10h126q10 0 10 -10v-124q0 -10 -10 -10zM221 303h100q6 0 6 6q0 15 -3 24q-10 34 -53 34t-53 -34q-3 -9 -3 -24q0 -6 6 -6zM281 -12
q-95 0 -157 38.5t-86 109.5q-15 45 -15 109t15 109q23 72 82.5 110t147.5 38q185 0 233 -145q15 -47 15 -156q0 -10 -10 -10h-285q-6 0 -6 -6l2 -10q14 -42 87 -42q54 0 107 36q8 5 14 -2l78 -86q7 -7 -2 -15q-87 -78 -220 -78z" />
    <glyph glyph-name="igrave" unicode="&#xec;" horiz-adv-x="284" 
d="M216 540h-143q-9 0 -16 10l-106 144q-3 3 -1.5 6.5t6.5 3.5h165q10 0 17 -10l83 -144q4 -10 -5 -10zM232 0h-180q-10 0 -10 10v470q0 10 10 10h180q10 0 10 -10v-470q0 -10 -10 -10z" />
    <glyph glyph-name="iacute" unicode="&#xed;" horiz-adv-x="284" 
d="M211 540h-143q-9 0 -5 10l83 144q7 10 17 10h165q5 0 6.5 -3.5t-1.5 -6.5l-106 -144q-7 -10 -16 -10zM232 0h-180q-10 0 -10 10v470q0 10 10 10h180q10 0 10 -10v-470q0 -10 -10 -10z" />
    <glyph glyph-name="icircumflex" unicode="&#xee;" horiz-adv-x="284" 
d="M324 538h-113q-14 0 -24 10l-44 44h-2l-44 -44q-10 -10 -24 -10h-113q-5 0 -6.5 3t1.5 7l114 144q7 10 19 10h108q12 0 19 -10l114 -144q3 -4 1.5 -7t-6.5 -3zM232 0h-180q-10 0 -10 10v470q0 10 10 10h180q10 0 10 -10v-470q0 -10 -10 -10z" />
    <glyph glyph-name="idieresis" unicode="&#xef;" horiz-adv-x="284" 
d="M100 536h-126q-10 0 -10 10v124q0 10 10 10h126q10 0 10 -10v-124q0 -10 -10 -10zM310 536h-126q-10 0 -10 10v124q0 10 10 10h126q10 0 10 -10v-124q0 -10 -10 -10zM232 0h-180q-10 0 -10 10v470q0 10 10 10h180q10 0 10 -10v-470q0 -10 -10 -10z" />
    <glyph glyph-name="eth" unicode="&#xf0;" horiz-adv-x="546" 
d="M273 147q35 0 44 29q5 14 5 39q0 26 -5 40q-9 29 -44 29t-44 -29q-5 -14 -5 -40q0 -25 5 -39q9 -29 44 -29zM439 556l-54 -16q83 -116 110.5 -177.5t27.5 -136.5q0 -46 -13 -87q-23 -72 -84.5 -111.5t-152.5 -39.5q-94 0 -154 37.5t-82 102.5q-14 39 -14 87q0 55 13 92
q20 57 64.5 91t110.5 34q35 0 64 -17h2l-56 77l-99 -29q-9 -2 -12 7l-24 82q-3 9 7 12l62 18l-63 88q-8 10 4 10h174q14 0 21 -9l29 -40l89 26q10 1 13 -7l24 -81q1 -10 -7 -13z" />
    <glyph glyph-name="ntilde" unicode="&#xf1;" horiz-adv-x="564" 
d="M357 536q-40 0 -94 26q-36 17 -61 17q-39 0 -81 -33q-11 -8 -11 4v92q0 14 10 24q41 39 86 39q40 0 94 -26q36 -17 61 -17q39 0 81 33q11 8 11 -4v-92q0 -14 -10 -24q-41 -39 -86 -39zM514 0h-180q-10 0 -10 10v278q0 50 -41 50t-41 -50v-278q0 -10 -10 -10h-180
q-10 0 -10 10v470q0 10 10 10h180q10 0 10 -10v-36h1q38 58 124 58q157 0 157 -183v-309q0 -10 -10 -10z" />
    <glyph glyph-name="ograve" unicode="&#xf2;" horiz-adv-x="546" 
d="M353 540h-143q-9 0 -16 10l-106 144q-3 3 -1.5 6.5t6.5 3.5h165q10 0 17 -10l83 -144q4 -10 -5 -10zM273 148q33 0 42 28q6 19 6 69q0 49 -6 69q-9 28 -42 28t-42 -28q-6 -20 -6 -69t6 -69q9 -28 42 -28zM273 -12q-87 0 -149.5 37t-85.5 109q-15 45 -15 111t15 111
q23 72 85.5 109t149.5 37t149.5 -37t85.5 -109q15 -45 15 -111t-15 -111q-23 -72 -85.5 -109t-149.5 -37z" />
    <glyph glyph-name="oacute" unicode="&#xf3;" horiz-adv-x="546" 
d="M336 540h-143q-9 0 -5 10l83 144q7 10 17 10h165q5 0 6.5 -3.5t-1.5 -6.5l-106 -144q-7 -10 -16 -10zM273 148q33 0 42 28q6 19 6 69q0 49 -6 69q-9 28 -42 28t-42 -28q-6 -20 -6 -69t6 -69q9 -28 42 -28zM273 -12q-87 0 -149.5 37t-85.5 109q-15 45 -15 111t15 111
q23 72 85.5 109t149.5 37t149.5 -37t85.5 -109q15 -45 15 -111t-15 -111q-23 -72 -85.5 -109t-149.5 -37z" />
    <glyph glyph-name="ocircumflex" unicode="&#xf4;" horiz-adv-x="546" 
d="M455 538h-113q-14 0 -24 10l-44 44h-2l-44 -44q-10 -10 -24 -10h-113q-5 0 -6.5 3t1.5 7l114 144q7 10 19 10h108q12 0 19 -10l114 -144q3 -4 1.5 -7t-6.5 -3zM273 148q33 0 42 28q6 19 6 69q0 49 -6 69q-9 28 -42 28t-42 -28q-6 -20 -6 -69t6 -69q9 -28 42 -28zM273 -12
q-87 0 -149.5 37t-85.5 109q-15 45 -15 111t15 111q23 72 85.5 109t149.5 37t149.5 -37t85.5 -109q15 -45 15 -111t-15 -111q-23 -72 -85.5 -109t-149.5 -37z" />
    <glyph glyph-name="otilde" unicode="&#xf5;" horiz-adv-x="546" 
d="M348 536q-40 0 -94 26q-36 17 -61 17q-39 0 -81 -33q-11 -8 -11 4v92q0 14 10 24q41 39 86 39q40 0 94 -26q36 -17 61 -17q39 0 81 33q11 8 11 -4v-92q0 -14 -10 -24q-41 -39 -86 -39zM273 148q33 0 42 28q6 19 6 69q0 49 -6 69q-9 28 -42 28t-42 -28q-6 -20 -6 -69
t6 -69q9 -28 42 -28zM273 -12q-87 0 -149.5 37t-85.5 109q-15 45 -15 111t15 111q23 72 85.5 109t149.5 37t149.5 -37t85.5 -109q15 -45 15 -111t-15 -111q-23 -72 -85.5 -109t-149.5 -37z" />
    <glyph glyph-name="odieresis" unicode="&#xf6;" horiz-adv-x="546" 
d="M231 536h-126q-10 0 -10 10v124q0 10 10 10h126q10 0 10 -10v-124q0 -10 -10 -10zM441 536h-126q-10 0 -10 10v124q0 10 10 10h126q10 0 10 -10v-124q0 -10 -10 -10zM273 148q33 0 42 28q6 19 6 69q0 49 -6 69q-9 28 -42 28t-42 -28q-6 -20 -6 -69t6 -69q9 -28 42 -28z
M273 -12q-87 0 -149.5 37t-85.5 109q-15 45 -15 111t15 111q23 72 85.5 109t149.5 37t149.5 -37t85.5 -109q15 -45 15 -111t-15 -111q-23 -72 -85.5 -109t-149.5 -37z" />
    <glyph glyph-name="divide" unicode="&#xf7;" 
d="M285 -29q-40 0 -67.5 27.5t-27.5 67.5t27.5 67.5t67.5 27.5t67.5 -27.5t27.5 -67.5t-27.5 -67.5t-67.5 -27.5zM518 194h-466q-10 0 -10 10v144q0 10 10 10h466q10 0 10 -10v-144q0 -10 -10 -10zM285 391q-40 0 -67.5 27.5t-27.5 67.5t27.5 67.5t67.5 27.5t67.5 -27.5
t27.5 -67.5t-27.5 -67.5t-67.5 -27.5z" />
    <glyph glyph-name="oslash" unicode="&#xf8;" horiz-adv-x="546" 
d="M273 148q33 0 42 28q6 19 6 69q0 49 -6 69q-9 28 -42 28t-42 -28q-6 -20 -6 -69t6 -69q9 -28 42 -28zM113 -30h-106q-12 0 -4 10l69 90q-20 23 -34 64q-15 45 -15 111t15 111q23 72 85.5 109t149.5 37q70 0 118 -22l23 30q7 10 19 10h106q12 0 4 -10l-70 -90
q23 -27 35 -64q15 -49 15 -111q0 -66 -15 -111q-23 -72 -85.5 -109t-149.5 -37q-66 0 -119 21l-22 -29q-7 -10 -19 -10z" />
    <glyph glyph-name="ugrave" unicode="&#xf9;" horiz-adv-x="562" 
d="M361 540h-143q-9 0 -16 10l-106 144q-3 3 -1.5 6.5t6.5 3.5h165q10 0 17 -10l83 -144q4 -10 -5 -10zM510 0h-180q-10 0 -10 10v36h-1q-38 -58 -124 -58q-156 0 -156 183v309q0 10 10 10h180q10 0 10 -10v-278q0 -50 41 -50q40 0 40 50v278q0 10 10 10h180q10 0 10 -10
v-470q0 -10 -10 -10z" />
    <glyph glyph-name="uacute" unicode="&#xfa;" horiz-adv-x="562" 
d="M341 540h-143q-9 0 -5 10l83 144q7 10 17 10h165q5 0 6.5 -3.5t-1.5 -6.5l-106 -144q-7 -10 -16 -10zM510 0h-180q-10 0 -10 10v36h-1q-38 -58 -124 -58q-156 0 -156 183v309q0 10 10 10h180q10 0 10 -10v-278q0 -50 41 -50q40 0 40 50v278q0 10 10 10h180q10 0 10 -10
v-470q0 -10 -10 -10z" />
    <glyph glyph-name="ucircumflex" unicode="&#xfb;" horiz-adv-x="562" 
d="M463 538h-113q-14 0 -24 10l-44 44h-2l-44 -44q-10 -10 -24 -10h-113q-5 0 -6.5 3t1.5 7l114 144q7 10 19 10h108q12 0 19 -10l114 -144q3 -4 1.5 -7t-6.5 -3zM510 0h-180q-10 0 -10 10v36h-1q-38 -58 -124 -58q-156 0 -156 183v309q0 10 10 10h180q10 0 10 -10v-278
q0 -50 41 -50q40 0 40 50v278q0 10 10 10h180q10 0 10 -10v-470q0 -10 -10 -10z" />
    <glyph glyph-name="udieresis" unicode="&#xfc;" horiz-adv-x="562" 
d="M239 536h-126q-10 0 -10 10v124q0 10 10 10h126q10 0 10 -10v-124q0 -10 -10 -10zM449 536h-126q-10 0 -10 10v124q0 10 10 10h126q10 0 10 -10v-124q0 -10 -10 -10zM510 0h-180q-10 0 -10 10v36h-1q-38 -58 -124 -58q-156 0 -156 183v309q0 10 10 10h180q10 0 10 -10
v-278q0 -50 41 -50q40 0 40 50v278q0 10 10 10h180q10 0 10 -10v-470q0 -10 -10 -10z" />
    <glyph glyph-name="yacute" unicode="&#xfd;" horiz-adv-x="559" 
d="M345 540h-143q-9 0 -5 10l83 144q7 10 17 10h165q5 0 6.5 -3.5t-1.5 -6.5l-106 -144q-7 -10 -16 -10zM140 -180h-41q-10 0 -10 10v140q0 10 10 10h30q42 0 54 32l9 25l-188 443q-4 10 7 10h189q10 0 13 -10l70 -201h2l64 201q3 10 13 10h186q11 0 7 -10l-229 -551
q-27 -63 -67 -86t-119 -23z" />
    <glyph glyph-name="thorn" unicode="&#xfe;" horiz-adv-x="563" 
d="M290 148q33 0 42 28q6 19 6 69q0 49 -6 69q-9 28 -42 28t-42 -28q-6 -20 -6 -69t6 -69q9 -28 42 -28zM232 -180h-180q-10 0 -10 10v840q0 10 10 10h180q10 0 10 -10v-226h1q35 58 123 58q120 0 157 -117q17 -52 17 -140t-17 -140q-37 -117 -157 -117q-88 0 -123 58h-1
v-216q0 -10 -10 -10z" />
    <glyph glyph-name="ydieresis" unicode="&#xff;" horiz-adv-x="559" 
d="M237 536h-126q-10 0 -10 10v124q0 10 10 10h126q10 0 10 -10v-124q0 -10 -10 -10zM447 536h-126q-10 0 -10 10v124q0 10 10 10h126q10 0 10 -10v-124q0 -10 -10 -10zM140 -180h-41q-10 0 -10 10v140q0 10 10 10h30q42 0 54 32l9 25l-188 443q-4 10 7 10h189q10 0 13 -10
l70 -201h2l64 201q3 10 13 10h186q11 0 7 -10l-229 -551q-27 -63 -67 -86t-119 -23z" />
    <glyph glyph-name="dotlessi" unicode="&#x131;" horiz-adv-x="284" 
d="M232 0h-180q-10 0 -10 10v470q0 10 10 10h180q10 0 10 -10v-470q0 -10 -10 -10z" />
    <glyph glyph-name="Lslash" unicode="&#x141;" horiz-adv-x="559" 
d="M533 0h-479q-10 0 -10 10v218l-34 -17q-10 -4 -10 6v123q0 10 10 14l34 17v299q0 10 10 10h190q10 0 10 -10v-201l128 66q10 4 10 -6v-123q0 -10 -10 -14l-128 -66v-134q0 -6 6 -6h273q10 0 10 -10v-166q0 -10 -10 -10z" />
    <glyph glyph-name="lslash" unicode="&#x142;" horiz-adv-x="329" 
d="M300 353l-60 -31v-114q0 -50 41 -50h19q10 0 10 -10v-144q0 -10 -10 -10h-71q-103 0 -146 43t-43 147v43l-32 -16q-10 -4 -10 6v121q0 10 10 14l32 16v302q0 10 10 10h180q10 0 10 -10v-207l60 31q10 4 10 -6v-121q0 -10 -10 -14z" />
    <glyph glyph-name="OE" unicode="&#x152;" horiz-adv-x="891" 
d="M314 174q50 0 64 43q8 24 8 123q0 101 -8 123q-14 43 -64 43t-64 -43q-8 -22 -8 -123q0 -99 8 -123q14 -43 64 -43zM851 0h-455q-10 0 -10 10v15h-3q-33 -37 -109 -37q-169 0 -222 164q-22 69 -22 188t22 188q53 164 222 164q76 0 109 -37h3v15q0 10 10 10h455
q10 0 10 -10v-154q0 -10 -10 -10h-251q-6 0 -6 -6v-66q0 -6 6 -6h201q10 0 10 -10v-150q0 -10 -10 -10h-201q-6 0 -6 -6v-72q0 -6 6 -6h251q10 0 10 -10v-154q0 -10 -10 -10z" />
    <glyph glyph-name="oe" unicode="&#x153;" horiz-adv-x="837" 
d="M273 148q33 0 42 28q6 19 6 69q0 49 -6 69q-9 28 -42 28t-42 -28q-6 -20 -6 -69t6 -69q9 -28 42 -28zM519 303h100q6 0 6 6q0 15 -3 24q-10 34 -53 34t-53 -34q-3 -9 -3 -24q0 -6 6 -6zM579 -12q-94 0 -156 44h-1q-58 -44 -149 -44q-87 0 -149.5 37t-85.5 109
q-15 45 -15 111t15 111q23 72 85.5 109t149.5 37q88 0 149 -44h1q62 44 143 44q185 0 233 -145q15 -47 15 -156q0 -10 -10 -10h-285q-6 0 -6 -6l2 -10q14 -42 87 -42q54 0 107 36q8 5 14 -2l78 -86q7 -7 -2 -15q-87 -78 -220 -78z" />
    <glyph glyph-name="Scaron" unicode="&#x160;" horiz-adv-x="617" 
d="M362 726h-108q-12 0 -19 10l-114 144q-3 4 -1.5 7t6.5 3h113q14 0 24 -10l44 -44h2l44 44q10 10 24 10h113q5 0 6.5 -3t-1.5 -7l-114 -144q-7 -10 -19 -10zM306 -12q-86 0 -166 29t-120 71q-8 8 -1 18l106 125q6 8 13 1q74 -66 166 -66q78 0 78 44q0 15 -13 23t-51 13
l-36 5q-120 17 -179.5 71t-59.5 154q0 97 72 156.5t193 59.5q154 0 257 -78q10 -6 2 -17l-90 -128q-6 -8 -14 -3q-74 49 -147 49q-58 0 -58 -37q0 -15 14.5 -23.5t50.5 -13.5l36 -5q122 -17 180 -70.5t58 -155.5q0 -100 -76.5 -161t-214.5 -61z" />
    <glyph glyph-name="scaron" unicode="&#x161;" horiz-adv-x="520" 
d="M308 534h-108q-12 0 -19 10l-114 144q-3 4 -1.5 7t6.5 3h113q14 0 24 -10l44 -44h2l44 44q10 10 24 10h113q5 0 6.5 -3t-1.5 -7l-114 -144q-7 -10 -19 -10zM257 -12q-153 0 -247 74q-7 7 -1 14l79 100q6 6 14 2q89 -50 168 -50q47 0 47 22q0 9 -9 12.5t-41 7.5l-56 6
q-180 19 -180 161q0 76 59 120.5t166 44.5q142 0 226 -62q8 -6 1 -15l-70 -93q-6 -8 -15 -3q-64 37 -142 37q-40 0 -40 -19q0 -8 8 -11.5t35 -6.5l56 -6q102 -11 145.5 -52.5t41.5 -109.5q-2 -80 -67 -126.5t-178 -46.5z" />
    <glyph glyph-name="Ydieresis" unicode="&#x178;" horiz-adv-x="641" 
d="M278 739h-126q-10 0 -10 10v124q0 10 10 10h126q10 0 10 -10v-124q0 -10 -10 -10zM488 739h-126q-10 0 -10 10v124q0 10 10 10h126q10 0 10 -10v-124q0 -10 -10 -10zM416 0h-190q-10 0 -10 10v244l-211 415q-6 11 7 11h189q11 0 17 -10l104 -213h3l101 213q4 10 17 10
h187q12 0 7 -11l-211 -415v-244q0 -10 -10 -10z" />
    <glyph glyph-name="Zcaron" unicode="&#x17d;" horiz-adv-x="580" 
d="M346 726h-108q-12 0 -19 10l-114 144q-3 4 -1.5 7t6.5 3h113q14 0 24 -10l44 -44h2l44 44q10 10 24 10h113q5 0 6.5 -3t-1.5 -7l-114 -144q-7 -10 -19 -10zM540 0h-500q-10 0 -10 10v162q0 6 3 10l269 309v3h-251q-10 0 -10 10v166q0 10 10 10h489q10 0 10 -10v-162
q0 -6 -3 -10l-270 -309v-3h263q10 0 10 -10v-166q0 -10 -10 -10z" />
    <glyph glyph-name="zcaron" unicode="&#x17e;" horiz-adv-x="499" 
d="M308 534h-108q-12 0 -19 10l-114 144q-3 4 -1.5 7t6.5 3h113q14 0 24 -10l44 -44h2l44 44q10 10 24 10h113q5 0 6.5 -3t-1.5 -7l-114 -144q-7 -10 -19 -10zM459 0h-417q-10 0 -10 10v129q0 5 3 10l199 184v3h-181q-10 0 -10 10v134q0 10 10 10h406q10 0 10 -10v-134
q0 -6 -3 -10l-198 -179v-3h191q10 0 10 -10v-134q0 -10 -10 -10z" />
    <glyph glyph-name="florin" unicode="&#x192;" 
d="M468 289h-79l-43 -278q-17 -108 -69 -149.5t-155 -41.5h-41q-10 0 -10 10v142q0 10 10 10h23q23 0 34 10t15 33l41 264h-54q-10 0 -10 10v126q0 10 10 10h76l9 54q18 108 70 149.5t154 41.5h41q10 0 10 -10v-142q0 -10 -10 -10h-23q-23 0 -34 -10t-15 -33l-6 -40h56
q10 0 10 -10v-126q0 -10 -10 -10z" />
    <glyph glyph-name="circumflex" unicode="&#x2c6;" horiz-adv-x="530" 
d="M447 538h-113q-14 0 -24 10l-44 44h-2l-44 -44q-10 -10 -24 -10h-113q-5 0 -6.5 3t1.5 7l114 144q7 10 19 10h108q12 0 19 -10l114 -144q3 -4 1.5 -7t-6.5 -3z" />
    <glyph glyph-name="caron" unicode="&#x2c7;" horiz-adv-x="530" 
d="M319 534h-108q-12 0 -19 10l-114 144q-3 4 -1.5 7t6.5 3h113q14 0 24 -10l44 -44h2l44 44q10 10 24 10h113q5 0 6.5 -3t-1.5 -7l-114 -144q-7 -10 -19 -10z" />
    <glyph glyph-name="breve" unicode="&#x2d8;" horiz-adv-x="530" 
d="M265 529q-72 0 -121 44.5t-49 108.5q0 11 14 11h74q11 0 16 -11q19 -37 66 -37t66 37q5 11 16 11h74q14 0 14 -11q0 -64 -49 -108.5t-121 -44.5z" />
    <glyph glyph-name="dotaccent" unicode="&#x2d9;" horiz-adv-x="530" 
d="M347 536h-164q-10 0 -10 10v124q0 10 10 10h164q10 0 10 -10v-124q0 -10 -10 -10z" />
    <glyph glyph-name="ring" unicode="&#x2da;" horiz-adv-x="530" 
d="M265 593q17 0 28.5 11.5t11.5 29.5t-11.5 29.5t-28.5 11.5t-28.5 -11.5t-11.5 -29.5t11.5 -29.5t28.5 -11.5zM265 512q-54 0 -89 34t-35 88t35 88t89 34t89 -34t35 -88t-35 -88t-89 -34z" />
    <glyph glyph-name="ogonek" unicode="&#x2db;" horiz-adv-x="530" 
d="M265 -192q-55 0 -86.5 28.5t-31.5 72.5q0 55 46 91q13 10 24 10h154q3 0 4.5 -2t0 -4.5t-4.5 -3.5q-37 -15 -56.5 -26t-24.5 -17t-5 -13q0 -10 13 -10q10 0 24 9q8 5 13 -3l46 -83q5 -8 -4 -14q-52 -35 -112 -35z" />
    <glyph glyph-name="tilde" unicode="&#x2dc;" horiz-adv-x="530" 
d="M341 536q-40 0 -94 26q-36 17 -61 17q-39 0 -81 -33q-11 -8 -11 4v92q0 14 10 24q41 39 86 39q40 0 94 -26q36 -17 61 -17q39 0 81 33q11 8 11 -4v-92q0 -14 -10 -24q-41 -39 -86 -39z" />
    <glyph glyph-name="hungarumlaut" unicode="&#x2dd;" horiz-adv-x="530" 
d="M175 536h-117q-10 0 -6 10l72 144q4 10 16 10h135q12 0 6 -10l-88 -144q-6 -10 -18 -10zM374 536h-117q-10 0 -6 10l72 144q4 10 16 10h135q12 0 6 -10l-88 -144q-6 -10 -18 -10z" />
    <glyph glyph-name="pi" unicode="&#x3c0;" horiz-adv-x="604" 
d="M562 -6h-49q-96 0 -140.5 42.5t-44.5 143.5v133q0 6 -6 6h-46q-6 0 -6 -6v-303q0 -10 -10 -10h-180q-10 0 -10 10v303q0 6 -6 6h-38q-10 0 -10 10v151q0 10 10 10h542q10 0 10 -10v-151q0 -10 -10 -10h-38q-6 0 -6 -6v-114q0 -23 7 -32t25 -9h6q10 0 10 -10v-144
q0 -10 -10 -10z" />
    <glyph glyph-name="aComma" unicode="&#x60c;" horiz-adv-x="260" 
d="M216 269v-259q0 -10 -10 -10h-152q-10 0 -10 10v145q0 11 10 20l132 99q11 8 18 8q12 0 12 -13z" />
    <glyph glyph-name="aTahabove" unicode="&#x615;" horiz-adv-x="0" 
d="M12 605q-20 0 -43 -10v-29h50q18 0 18 20q0 19 -25 19zM-132 566h12q10 0 10 11v139q0 7 8 7h63q8 0 8 -7v-59q36 11 67 11q80 0 80 -81q0 -47 -12.5 -65.5t-41.5 -18.5h-194q-7 0 -7 7v49q0 7 7 7z" />
    <glyph glyph-name="aSemicolon" unicode="&#x61b;" horiz-adv-x="268" 
d="M220 503v-259q0 -10 -10 -10h-152q-10 0 -10 10v145q0 11 10 20l132 99q11 8 18 8q12 0 12 -13zM44 10v160q0 10 10 10h160q10 0 10 -10v-160q0 -10 -10 -10h-160q-10 0 -10 10z" />
    <glyph glyph-name="aQuestion" unicode="&#x61f;" horiz-adv-x="496" 
d="M334 150v-140q0 -10 -10 -10h-160q-10 0 -10 10v140q0 10 10 10h160q10 0 10 -10zM325 207h-160q-10 0 -10 10v10q0 33 -22 55l-37 36q-45 43 -64.5 78.5t-19.5 84.5q0 81 64.5 138.5t166.5 57.5q96 0 157 -52.5t71 -137.5q1 -10 -8 -11l-152 -21q-9 -2 -11 9
q-10 49 -53 49q-20 0 -32 -12.5t-12 -32.5q0 -17 10.5 -33.5t39.5 -45.5l48 -48q34 -34 34 -84v-40q0 -10 -10 -10z" />
    <glyph glyph-name="aHamza" unicode="&#x621;" horiz-adv-x="464" 
d="M28 131h50q-12 29 -12 60q0 78 52 124.5t141 46.5q56 0 101 -22t69 -53q6 -7 -1 -14l-67 -79q-5 -7 -14 0q-40 37 -74 37q-18 0 -32 -11t-14 -38q0 -31 24 -51h175q10 0 10 -11v-109q0 -11 -10 -11h-398q-10 0 -10 11v109q0 11 10 11z" />
    <glyph glyph-name="aAlifMadda" unicode="&#x622;" horiz-adv-x="299" 
d="M249 670v-660q0 -10 -10 -10h-179q-10 0 -10 10v660q0 10 10 10h179q10 0 10 -10zM-67 766q27 94 100 94q36 0 97 -28t85 -28q14 0 18 7t4 27q0 10 10 10h83q10 0 10 -10q0 -127 -101 -127q-45 0 -101 24.5t-69 24.5q-21 0 -32 -28q-3 -10 -13 -7l-84 28q-10 3 -7 13z
" />
    <glyph glyph-name="aAlifHamza" unicode="&#x623;" horiz-adv-x="299" 
d="M249 670v-660q0 -10 -10 -10h-179q-10 0 -10 10v660q0 10 10 10h179q10 0 10 -10zM23 807h36q-11 20 -11 44q0 44 31 72.5t86 28.5q67 0 104 -45q3 -4 -1 -8l-39 -46q-3 -5 -9 0q-23 23 -46 23q-12 0 -21.5 -7.5t-9.5 -23.5q0 -23 25 -38h97q6 0 6 -7v-62q0 -7 -6 -7
h-242q-6 0 -6 7v62q0 7 6 7z" />
    <glyph glyph-name="aWawHamza" unicode="&#x624;" horiz-adv-x="577" 
d="M280 286q-56 0 -56 -63q0 -35 15.5 -47t40.5 -12h53v63q0 59 -53 59zM308 -210h-168q-10 0 -10 10v144q0 10 10 10h110q44 0 62.5 8t20.5 38h-84q-109 0 -162 50.5t-53 162.5q0 68 20.5 116.5t57 73.5t77 36t89.5 11q249 0 249 -230v-234q0 -97 -50.5 -146.5
t-168.5 -49.5zM160 615h35q-10 16 -10 44q0 44 31 72.5t86 28.5q67 0 104 -45q3 -4 -1 -8l-39 -46q-3 -5 -9 0q-23 23 -46 23q-12 0 -21.5 -7.5t-9.5 -23.5q0 -23 25 -38h97q6 0 6 -7v-62q0 -7 -6 -7h-242q-6 0 -6 7v62q0 7 6 7z" />
    <glyph glyph-name="aAlifHamzabelow" unicode="&#x625;" horiz-adv-x="299" 
d="M249 670v-660q0 -10 -10 -10h-179q-10 0 -10 10v660q0 10 10 10h179q10 0 10 -10zM18 -214h36q-11 20 -11 44q0 44 31 72.5t86 28.5q67 0 104 -45q3 -4 -1 -8l-39 -46q-3 -4 -9 0q-23 23 -46 23q-12 0 -21.5 -7.5t-9.5 -23.5q0 -23 25 -38h97q6 0 6 -7v-62q0 -7 -6 -7
h-242q-6 0 -6 7v62q0 7 6 7z" />
    <glyph glyph-name="aYehHamza" unicode="&#x626;" horiz-adv-x="844" 
d="M55 439h35q-10 16 -10 44q0 44 31 72.5t86 28.5q67 0 104 -45q3 -4 -1 -8l-39 -46q-3 -5 -9 0q-23 23 -46 23q-12 0 -21.5 -7.5t-9.5 -23.5q0 -23 25 -38h97q6 0 6 -7v-62q0 -7 -6 -7h-242q-6 0 -6 7v62q0 7 6 7zM361 -44h132q84 0 84 33q0 15 -21 32t-50.5 35.5
t-59 42.5t-50.5 62t-21 84q0 98 72.5 151.5t172.5 53.5q64 0 118 -18.5t83 -51.5q5 -6 -3 -14l-87 -104q-7 -4 -14 1q-30 23 -73 23q-25 0 -42 -11t-17 -34q0 -24 22.5 -46t54.5 -42.5t64.5 -44t55 -60t22.5 -81.5q0 -87 -60 -132t-173 -45h-233q-308 0 -308 234
q0 98 63 198q6 8 16 4l150 -72q8 -5 3 -13q-31 -55 -31 -99q0 -86 130 -86z" />
    <glyph glyph-name="aAlif" unicode="&#x627;" horiz-adv-x="299" 
d="M249 670v-660q0 -10 -10 -10h-179q-10 0 -10 10v660q0 10 10 10h179q10 0 10 -10z" />
    <glyph glyph-name="aBeh" unicode="&#x628;" horiz-adv-x="892" 
d="M297 164h297q27 0 38 11.5t11 41.5v207q0 10 10 10h179q10 0 10 -10v-298q0 -67 -27 -96.5t-92 -29.5h-556q-63 0 -90 30t-27 96v233q0 10 10 10h179q10 0 10 -10v-142q0 -29 11.5 -41t36.5 -12zM539 -210h-180q-10 0 -10 10v124q0 10 10 10h180q10 0 10 -10v-124
q0 -10 -10 -10z" />
    <glyph glyph-name="aTehMarbuta" unicode="&#x629;" horiz-adv-x="582" 
d="M291 286q-57 0 -57 -63q0 -38 14.5 -52t42.5 -14q29 0 43 13.5t14 52.5q0 36 -14 49.5t-43 13.5zM291 -7q-251 0 -251 221q0 236 251 236t251 -236q0 -221 -251 -221zM447 536h-133q-10 0 -10 10v124q0 10 10 10h133q10 0 10 -10v-124q0 -10 -10 -10zM266 536h-133
q-10 0 -10 10v124q0 10 10 10h133q10 0 10 -10v-124q0 -10 -10 -10z" />
    <glyph glyph-name="aTeh" unicode="&#x62a;" horiz-adv-x="892" 
d="M297 164h297q27 0 38 11.5t11 41.5v207q0 10 10 10h179q10 0 10 -10v-298q0 -67 -27 -96.5t-92 -29.5h-556q-63 0 -90 30t-27 96v233q0 10 10 10h179q10 0 10 -10v-142q0 -29 11.5 -41t36.5 -12zM598 478h-133q-10 0 -10 10v124q0 10 10 10h133q10 0 10 -10v-124
q0 -10 -10 -10zM417 478h-133q-10 0 -10 10v124q0 10 10 10h133q10 0 10 -10v-124q0 -10 -10 -10z" />
    <glyph glyph-name="aTheh" unicode="&#x62b;" horiz-adv-x="892" 
d="M297 164h297q27 0 38 11.5t11 41.5v207q0 10 10 10h179q10 0 10 -10v-298q0 -67 -27 -96.5t-92 -29.5h-556q-63 0 -90 30t-27 96v233q0 10 10 10h179q10 0 10 -10v-142q0 -29 11.5 -41t36.5 -12zM603 478h-133q-10 0 -10 10v124q0 10 10 10h133q10 0 10 -10v-124
q0 -10 -10 -10zM422 478h-133q-10 0 -10 10v124q0 10 10 10h133q10 0 10 -10v-124q0 -10 -10 -10zM520 651h-151q-10 0 -10 10v124q0 10 10 10h151q10 0 10 -10v-124q0 -10 -10 -10z" />
    <glyph glyph-name="aJim" unicode="&#x62c;" horiz-adv-x="610" 
d="M487 -198h-125q-10 0 -10 10v124q0 10 10 10h125q10 0 10 -10v-124q0 -10 -10 -10zM376 0h-113q-24 0 -33 -4.5t-9 -18.5t8 -18.5t34 -4.5h47q10 0 10 -10v-144q0 -10 -10 -10h-75q-113 0 -164 41t-51 152q0 99 49.5 140t142.5 41h83q40 0 55.5 11.5t15.5 43.5
q0 26 -17 46.5t-52 20.5q-41 0 -92 -36q-9 -5 -14 -1l-75 106q-9 11 -2 16q48 39 94.5 59t109.5 20q124 0 188 -64.5t64 -179.5q0 -64 -13.5 -106t-41.5 -63t-60 -29t-79 -8z" />
    <glyph glyph-name="aHah" unicode="&#x62d;" horiz-adv-x="610" 
d="M376 0h-113q-24 0 -33 -4.5t-9 -18.5t8 -18.5t34 -4.5h79q10 0 10 -10v-144q0 -10 -10 -10h-107q-113 0 -164 41t-51 152q0 99 49.5 140t142.5 41h83q40 0 55.5 11.5t15.5 43.5q0 26 -17 46.5t-52 20.5q-41 0 -92 -36q-9 -5 -14 -1l-75 106q-9 11 -2 16q48 39 94.5 59
t109.5 20q124 0 188 -64.5t64 -179.5q0 -64 -13.5 -106t-41.5 -63t-60 -29t-79 -8z" />
    <glyph glyph-name="aKhah" unicode="&#x62e;" horiz-adv-x="610" 
d="M376 0h-113q-24 0 -33 -4.5t-9 -18.5t8 -18.5t34 -4.5h79q10 0 10 -10v-144q0 -10 -10 -10h-107q-113 0 -164 41t-51 152q0 99 49.5 140t142.5 41h83q40 0 55.5 11.5t15.5 43.5q0 26 -17 46.5t-52 20.5q-41 0 -92 -36q-9 -5 -14 -1l-75 106q-9 11 -2 16q48 39 94.5 59
t109.5 20q124 0 188 -64.5t64 -179.5q0 -64 -13.5 -106t-41.5 -63t-60 -29t-79 -8zM417 536h-180q-10 0 -10 10v124q0 10 10 10h180q10 0 10 -10v-124q0 -10 -10 -10z" />
    <glyph glyph-name="aDal" unicode="&#x62f;" horiz-adv-x="505" 
d="M460 268v-97q0 -92 -40 -131.5t-119 -39.5h-261q-10 0 -10 10v144q0 10 10 10h152q41 0 52.5 10t11.5 36v28q0 28 -15 38t-51 10h-113q-10 0 -10 10v144q0 10 10 10h200q94 0 138.5 -44t44.5 -138z" />
    <glyph glyph-name="aDhal" unicode="&#x630;" horiz-adv-x="505" 
d="M460 268v-97q0 -92 -40 -131.5t-119 -39.5h-261q-10 0 -10 10v144q0 10 10 10h152q41 0 52.5 10t11.5 36v28q0 28 -15 38t-51 10h-113q-10 0 -10 10v144q0 10 10 10h200q94 0 138.5 -44t44.5 -138zM309 536h-180q-10 0 -10 10v124q0 10 10 10h180q10 0 10 -10v-124
q0 -10 -10 -10z" />
    <glyph glyph-name="aReh" unicode="&#x631;" horiz-adv-x="356" 
d="M80 -210h-65q-10 0 -10 10v144q0 10 10 10h20q41 0 56.5 20t15.5 65v385q0 10 10 10h179q10 0 10 -10v-398q0 -123 -55 -179.5t-171 -56.5z" />
    <glyph glyph-name="aZeh" unicode="&#x632;" horiz-adv-x="356" 
d="M80 -210h-65q-10 0 -10 10v144q0 10 10 10h20q41 0 56.5 20t15.5 65v385q0 10 10 10h179q10 0 10 -10v-398q0 -123 -55 -179.5t-171 -56.5zM297 536h-180q-10 0 -10 10v124q0 10 10 10h180q10 0 10 -10v-124q0 -10 -10 -10z" />
    <glyph glyph-name="aSin" unicode="&#x633;" horiz-adv-x="1170" 
d="M64 219q4 7 16 5l161 -39q13 -2 6 -14q-26 -80 -26 -128q0 -106 75 -106q72 0 72 98v330q0 10 10 10h179q10 0 10 -10v-157q0 -44 42 -44q22 0 29 11t7 42v148q0 10 10 10h179q10 0 10 -10v-155q0 -46 41 -46q22 0 29 11t7 42v207q0 10 10 10h179q10 0 10 -10v-298
q0 -66 -27 -96t-90 -30h-61q-77 0 -110 54q-22 -54 -105 -54h-61q-67 0 -99 39v-15q0 -70 -23 -121.5t-63.5 -79t-86 -40t-99.5 -12.5t-100.5 13t-87 41.5t-64 80.5t-23.5 123q0 109 44 190z" />
    <glyph glyph-name="aShin" unicode="&#x634;" horiz-adv-x="1170" 
d="M64 219q4 7 16 5l161 -39q13 -2 6 -14q-26 -80 -26 -128q0 -106 75 -106q72 0 72 98v330q0 10 10 10h179q10 0 10 -10v-157q0 -44 42 -44q22 0 29 11t7 42v148q0 10 10 10h179q10 0 10 -10v-155q0 -46 41 -46q22 0 29 11t7 42v207q0 10 10 10h179q10 0 10 -10v-298
q0 -66 -27 -96t-90 -30h-61q-77 0 -110 54q-22 -54 -105 -54h-61q-67 0 -99 39v-15q0 -70 -23 -121.5t-63.5 -79t-86 -40t-99.5 -12.5t-100.5 13t-87 41.5t-64 80.5t-23.5 123q0 109 44 190zM899 536h-133q-10 0 -10 10v124q0 10 10 10h133q10 0 10 -10v-124q0 -10 -10 -10z
M718 536h-133q-10 0 -10 10v124q0 10 10 10h133q10 0 10 -10v-124q0 -10 -10 -10zM816 709h-151q-10 0 -10 10v124q0 10 10 10h151q10 0 10 -10v-124q0 -10 -10 -10z" />
    <glyph glyph-name="aSad" unicode="&#x635;" horiz-adv-x="1059" 
d="M714 286q-72 0 -147 -29v-93h160q54 0 71 10.5t17 43.5q0 37 -21 52.5t-80 15.5zM64 219q4 7 16 5l161 -39q13 -2 6 -14q-26 -80 -26 -128q0 -106 75 -106q72 0 72 98v405q0 10 10 10h179q10 0 10 -10v-26q96 36 194 36q56 0 99 -10.5t80.5 -35.5t58 -75t20.5 -122
q0 -115 -47.5 -161t-168.5 -46h-185q-31 0 -52 9q-6 -128 -82 -183t-189 -55q-54 0 -100.5 13t-87 41.5t-64 80.5t-23.5 123q0 109 44 190z" />
    <glyph glyph-name="aDad" unicode="&#x636;" horiz-adv-x="1059" 
d="M714 286q-72 0 -147 -29v-93h160q54 0 71 10.5t17 43.5q0 37 -21 52.5t-80 15.5zM64 219q4 7 16 5l161 -39q13 -2 6 -14q-26 -80 -26 -128q0 -106 75 -106q72 0 72 98v405q0 10 10 10h179q10 0 10 -10v-26q96 36 194 36q56 0 99 -10.5t80.5 -35.5t58 -75t20.5 -122
q0 -115 -47.5 -161t-168.5 -46h-185q-31 0 -52 9q-6 -128 -82 -183t-189 -55q-54 0 -100.5 13t-87 41.5t-64 80.5t-23.5 123q0 109 44 190zM813 536h-180q-10 0 -10 10v124q0 10 10 10h180q10 0 10 -10v-124q0 -10 -10 -10z" />
    <glyph glyph-name="aTah" unicode="&#x637;" horiz-adv-x="781" 
d="M436 286q-66 0 -146 -29v-93h159q54 0 71 10.5t17 43.5q0 37 -21 52.5t-80 15.5zM20 164h38q20 0 26.5 11t6.5 42v453q0 10 10 10h179q10 0 10 -10v-256q101 36 193 36q56 0 99 -10.5t80.5 -35.5t58 -75t20.5 -122q0 -115 -47.5 -161t-168.5 -46h-185q-56 0 -79 29
q-29 -29 -88 -29h-153q-10 0 -10 10v144q0 10 10 10z" />
    <glyph glyph-name="aZah" unicode="&#x638;" horiz-adv-x="781" 
d="M436 286q-66 0 -146 -29v-93h159q54 0 71 10.5t17 43.5q0 37 -21 52.5t-80 15.5zM20 164h38q20 0 26.5 11t6.5 42v453q0 10 10 10h179q10 0 10 -10v-256q101 36 193 36q56 0 99 -10.5t80.5 -35.5t58 -75t20.5 -122q0 -115 -47.5 -161t-168.5 -46h-185q-56 0 -79 29
q-29 -29 -88 -29h-153q-10 0 -10 10v144q0 10 10 10zM588 536h-180q-10 0 -10 10v124q0 10 10 10h180q10 0 10 -10v-124q0 -10 -10 -10z" />
    <glyph glyph-name="aAyn" unicode="&#x639;" horiz-adv-x="564" 
d="M20 -30q0 128 89 172q-31 47 -31 109q0 94 62.5 146.5t164.5 52.5q142 0 220 -71q7 -7 -1 -16l-83 -114q-8 -8 -16 -1q-41 38 -84 38q-23 0 -41 -14t-18 -46q0 -34 28 -62h209q10 0 10 -10v-144q0 -10 -10 -10h-271q-13 0 -19 -4t-7 -8t-1 -12q0 -14 6.5 -18t26.5 -4h109
q10 0 10 -10v-144q0 -10 -10 -10h-128q-109 0 -162 43t-53 137z" />
    <glyph glyph-name="aGhayn" unicode="&#x63a;" horiz-adv-x="564" 
d="M20 -30q0 128 89 172q-31 47 -31 109q0 94 62.5 146.5t164.5 52.5q142 0 220 -71q7 -7 -1 -16l-83 -114q-8 -8 -16 -1q-41 38 -84 38q-23 0 -41 -14t-18 -46q0 -34 28 -62h209q10 0 10 -10v-144q0 -10 -10 -10h-271q-13 0 -19 -4t-7 -8t-1 -12q0 -14 6.5 -18t26.5 -4h109
q10 0 10 -10v-144q0 -10 -10 -10h-128q-109 0 -162 43t-53 137zM397 536h-180q-10 0 -10 10v124q0 10 10 10h180q10 0 10 -10v-124q0 -10 -10 -10z" />
    <glyph glyph-name="aKashida" unicode="&#x640;" horiz-adv-x="149" 
d="M149 0h-148q-21 0 -30.5 15.5t-9.5 59.5q0 89 40 89h148q40 0 40 -86q0 -47 -9 -62.5t-31 -15.5z" />
    <glyph glyph-name="aFeh" unicode="&#x641;" horiz-adv-x="1017" 
d="M726 286q-57 0 -57 -63q0 -38 14.5 -52t42.5 -14q29 0 43 13.5t14 52.5q0 36 -14 49.5t-43 13.5zM726 0h-559q-63 0 -90 30t-27 96v233q0 10 10 10h179q10 0 10 -10v-142q0 -29 11.5 -41t36.5 -12h182q-4 17 -4 50q0 236 251 236t251 -236q0 -214 -251 -214zM816 536
h-180q-10 0 -10 10v124q0 10 10 10h180q10 0 10 -10v-124q0 -10 -10 -10z" />
    <glyph glyph-name="aQaf" unicode="&#x642;" horiz-adv-x="892" 
d="M595 286q-56 0 -56 -64q0 -35 15 -46.5t41 -11.5h53v62q0 60 -53 60zM842 219v-263q0 -88 -57.5 -127t-175.5 -39h-271q-308 0 -308 234q0 98 63 198q6 8 16 4l150 -72q8 -5 3 -13q-31 -55 -31 -99q0 -86 130 -86h195q61 0 78 7.5t17 31.5v5h-87q-109 0 -162 50.5
t-53 162.5q0 68 20.5 116.5t57 73.5t77 36t89.5 11q249 0 249 -231zM772 536h-133q-10 0 -10 10v124q0 10 10 10h133q10 0 10 -10v-124q0 -10 -10 -10zM591 536h-133q-10 0 -10 10v124q0 10 10 10h133q10 0 10 -10v-124q0 -10 -10 -10z" />
    <glyph glyph-name="aKaf" unicode="&#x643;" horiz-adv-x="892" 
d="M297 164h297q27 0 38 11.5t11 41.5v452q0 10 10 10h179q10 0 10 -10v-543q0 -67 -27 -96.5t-92 -29.5h-556q-63 0 -90 30t-27 96v233q0 10 10 10h179q10 0 10 -10v-142q0 -29 11.5 -41t36.5 -12zM503 522l-42 -49h19q72 0 72 -71v-36q0 -37 -15.5 -52t-46.5 -15h-136
q-10 0 -10 10v44q0 10 10 10h93q17 0 21 4.5t4 17.5q0 14 -5.5 18.5t-20.5 4.5h-71q-14 0 -14 14v43q0 7 5 12l79 94q8 10 16 2l42 -34q7 -7 0 -17z" />
    <glyph glyph-name="aLam" unicode="&#x644;" horiz-adv-x="637" 
d="M84 219q4 7 16 5l161 -39q13 -2 6 -14q-26 -80 -26 -128q0 -106 75 -106q72 0 72 98v634q0 10 10 10h179q10 0 10 -10v-645q0 -70 -23 -121.5t-63.5 -79t-86 -40t-99.5 -12.5t-100.5 13t-87 41.5t-64 80.5t-23.5 123q0 109 44 190z" />
    <glyph glyph-name="aMim" unicode="&#x645;" horiz-adv-x="666" 
d="M375 286q-57 0 -57 -63q0 -38 14.5 -52t42.5 -14q29 0 43 13.5t14 52.5q0 36 -14 49.5t-43 13.5zM375 -7q-86 0 -140 25q-16 -19 -16 -54v-163h-199v184q0 40 9.5 68t24 42.5t29 25.5t27 25.5t15.5 34.5q-1 11 -1 33q0 236 251 236t251 -236q0 -221 -251 -221z" />
    <glyph glyph-name="aNun" unicode="&#x646;" horiz-adv-x="637" 
d="M412 481h-180q-10 0 -10 10v124q0 10 10 10h180q10 0 10 -10v-124q0 -10 -10 -10zM84 219q4 7 16 5l161 -39q13 -2 6 -14q-26 -80 -26 -128q0 -106 75 -106q72 0 72 98v309q0 10 10 10h179q10 0 10 -10v-320q0 -70 -23 -121.5t-63.5 -79t-86 -40t-99.5 -12.5t-100.5 13
t-87 41.5t-64 80.5t-23.5 123q0 109 44 190z" />
    <glyph glyph-name="aHeh" unicode="&#x647;" horiz-adv-x="582" 
d="M291 286q-57 0 -57 -63q0 -38 14.5 -52t42.5 -14q29 0 43 13.5t14 52.5q0 36 -14 49.5t-43 13.5zM291 -7q-251 0 -251 221q0 236 251 236t251 -236q0 -221 -251 -221z" />
    <glyph glyph-name="aWaw" unicode="&#x648;" horiz-adv-x="577" 
d="M280 286q-56 0 -56 -63q0 -35 15.5 -47t40.5 -12h53v63q0 59 -53 59zM308 -210h-168q-10 0 -10 10v144q0 10 10 10h110q44 0 62.5 8t20.5 38h-84q-109 0 -162 50.5t-53 162.5q0 68 20.5 116.5t57 73.5t77 36t89.5 11q249 0 249 -230v-234q0 -97 -50.5 -146.5
t-168.5 -49.5z" />
    <glyph glyph-name="aAlifMaksura" unicode="&#x649;" horiz-adv-x="844" 
d="M361 -44h132q84 0 84 33q0 15 -21 32t-50.5 35.5t-59 42.5t-50.5 62t-21 84q0 98 72.5 151.5t172.5 53.5q64 0 118 -18.5t83 -51.5q5 -6 -3 -14l-87 -104q-7 -4 -14 1q-30 23 -73 23q-25 0 -42 -11t-17 -34q0 -24 22.5 -46t54.5 -42.5t64.5 -44t55 -60t22.5 -81.5
q0 -87 -60 -132t-173 -45h-233q-308 0 -308 234q0 98 63 198q6 8 16 4l150 -72q8 -5 3 -13q-31 -55 -31 -99q0 -86 130 -86z" />
    <glyph glyph-name="aYeh" unicode="&#x64a;" horiz-adv-x="844" 
d="M361 31h132q84 0 84 33q0 15 -21 32t-50.5 35.5t-59 42.5t-50.5 62t-21 84q0 98 72.5 151.5t172.5 53.5q64 0 118 -18.5t83 -51.5q5 -6 -3 -14l-87 -104q-7 -4 -14 1q-30 23 -73 23q-25 0 -42 -11t-17 -34q0 -24 22.5 -46t54.5 -42.5t64.5 -44t55 -60t22.5 -81.5
q0 -87 -60 -132t-173 -45h-233q-308 0 -308 234q0 98 63 198q6 8 16 4l150 -72q8 -5 3 -13q-31 -55 -31 -99q0 -86 130 -86zM593 -322h-133q-10 0 -10 10v124q0 10 10 10h133q10 0 10 -10v-124q0 -10 -10 -10zM412 -322h-133q-10 0 -10 10v124q0 10 10 10h133q10 0 10 -10
v-124q0 -10 -10 -10z" />
    <glyph glyph-name="aFathatan" unicode="&#x64b;" horiz-adv-x="0" 
d="M131 750h-254q-10 0 -10 10v27q0 10 10 10h254q10 0 10 -10v-27q0 -10 -10 -10zM131 833h-254q-10 0 -10 10v27q0 10 10 10h254q10 0 10 -10v-27q0 -10 -10 -10z" />
    <glyph glyph-name="aDammatan" unicode="&#x64c;" horiz-adv-x="0" 
d="M53 862h30v13q0 24 -9.5 37t-24.5 13q-16 0 -25 -10.5t-9 -24.5q0 -28 38 -28zM-129 869h-15q-10 0 -10 10v23q0 10 10 10h12q36 0 57.5 -23t21.5 -69q0 -20 12 -26t41 -6q55 0 72 32h-24q-35 0 -56 19t-21 51q0 33 23 56t55 23q78 0 78 -94q0 -130 -127 -130
q-48 0 -73 15t-25 60q0 49 -31 49z" />
    <glyph glyph-name="aKasratan" unicode="&#x64d;" horiz-adv-x="0" 
d="M131 -210h-254q-10 0 -10 10v27q0 10 10 10h254q10 0 10 -10v-27q0 -10 -10 -10zM131 -127h-254q-10 0 -10 10v27q0 10 10 10h254q10 0 10 -10v-27q0 -10 -10 -10z" />
    <glyph glyph-name="aFatha" unicode="&#x64e;" horiz-adv-x="0" 
d="M131 750h-254q-10 0 -10 10v27q0 10 10 10h254q10 0 10 -10v-27q0 -10 -10 -10z" />
    <glyph glyph-name="aDamma" unicode="&#x64f;" horiz-adv-x="0" 
d="M-79 785h31q57 0 72 32h-24q-35 0 -55.5 19t-20.5 51q0 33 22.5 56t54.5 23q78 0 78 -94q0 -130 -127 -130h-31q-10 0 -10 10v23q0 10 10 10zM5 859h30v13q0 50 -34 50q-16 0 -24.5 -10.5t-8.5 -24.5q0 -28 37 -28z" />
    <glyph glyph-name="aKasra" unicode="&#x650;" horiz-adv-x="0" 
d="M131 -138h-254q-10 0 -10 10v27q0 10 10 10h254q10 0 10 -10v-27q0 -10 -10 -10z" />
    <glyph glyph-name="aShadda" unicode="&#x651;" horiz-adv-x="0" 
d="M-128 834v71q0 10 10 10h26q10 0 10 -10v-74q0 -40 31 -40t31 36v78q0 10 10 10h26q10 0 10 -10v-78q0 -36 32 -36q30 0 30 40v74q0 10 10 10h26q10 0 10 -10v-71q0 -87 -76 -87q-41 0 -59 22q-18 -22 -52 -22q-75 0 -75 87z" />
    <glyph glyph-name="aSukun" unicode="&#x652;" horiz-adv-x="0" 
d="M-44 833q0 -20 12.5 -32t31.5 -12q18 0 31 13t13 31t-13 31t-31 13t-31 -13t-13 -31zM-86 832q0 36 24.5 61t60.5 25q35 0 60.5 -25.5t25.5 -60.5q0 -36 -25 -60.5t-61 -24.5t-60.5 23.5t-24.5 61.5z" />
    <glyph glyph-name="aMadda" unicode="&#x653;" horiz-adv-x="0" 
d="M-202 766q27 94 100 94q36 0 97 -28t85 -28q14 0 18 7t4 27q0 10 10 10h83q10 0 10 -10q0 -127 -101 -127q-45 0 -101 24.5t-69 24.5q-21 0 -32 -28q-3 -10 -13 -7l-84 28q-10 3 -7 13z" />
    <glyph glyph-name="aHamzaabove" unicode="&#x654;" horiz-adv-x="0" 
d="M-125 807h36q-11 20 -11 44q0 44 31 72.5t86 28.5q67 0 104 -45q3 -4 -1 -8l-39 -46q-3 -5 -9 0q-23 23 -46 23q-12 0 -21.5 -7.5t-9.5 -23.5q0 -23 25 -38h97q6 0 6 -7v-62q0 -7 -6 -7h-242q-6 0 -6 7v62q0 7 6 7z" />
    <glyph glyph-name="aHamzabelow" unicode="&#x655;" horiz-adv-x="0" 
d="M-125 -214h36q-11 20 -11 44q0 44 31 72.5t86 28.5q67 0 104 -45q3 -4 -1 -8l-39 -46q-3 -4 -9 0q-23 23 -46 23q-12 0 -21.5 -7.5t-9.5 -23.5q0 -23 25 -38h97q6 0 6 -7v-62q0 -7 -6 -7h-242q-6 0 -6 7v62q0 7 6 7z" />
    <glyph glyph-name="aAlifbelow" unicode="&#x656;" horiz-adv-x="0" 
d="M26 -113v-124q0 -10 -10 -10h-31q-10 0 -10 10v124q0 10 10 10h31q10 0 10 -10z" />
    <glyph glyph-name="aNasalnun" unicode="&#x658;" horiz-adv-x="0" 
d="M-92 845v48q0 10 10 10h26q10 0 10 -10v-56q0 -48 46 -48q25 0 35 12t10 37v55q0 10 10 10h26q10 0 10 -10v-48q0 -100 -91 -100q-92 0 -92 100z" />
    <glyph glyph-name="aZero" unicode="&#x660;" horiz-adv-x="615" 
d="M426 163l-73 -73q-26 -26 -45 -26q-18 0 -44 26l-72 74q-28 28 -28 44t28 44l72 72q28 28 44 28t38 -22l80 -78q26 -26 26 -46q0 -17 -26 -43z" />
    <glyph glyph-name="aOne" unicode="&#x661;" horiz-adv-x="615" 
d="M407 595v-585q0 -10 -10 -10h-179q-10 0 -10 10v585q0 10 10 10h179q10 0 10 -10z" />
    <glyph glyph-name="aTwo" unicode="&#x662;" horiz-adv-x="615" 
d="M105 10v468q0 127 120 127h307q10 0 10 -10v-144q0 -10 -10 -10h-167q-35 0 -48 -15.5t-13 -50.5v-365q0 -10 -10 -10h-179q-10 0 -10 10z" />
    <glyph glyph-name="aThree" unicode="&#x663;" horiz-adv-x="615" 
d="M209 595v-160h38v113q0 10 10 10h116q10 0 10 -10v-111q18 3 26 12.5t8 29.5v116q0 10 10 10h168q10 0 10 -10v-161q0 -86 -47.5 -123.5t-153.5 -37.5h-195v-263q0 -10 -10 -10h-179q-10 0 -10 10v585q0 10 10 10h179q10 0 10 -10z" />
    <glyph glyph-name="aFour" unicode="&#x664;" horiz-adv-x="615" 
d="M336 158h192q10 0 10 -10v-138q0 -10 -10 -10h-262q-84 0 -140 39t-56 115q0 108 92 156q-62 47 -62 129q0 80 51 123t137 43h200q10 0 10 -10v-138q0 -10 -10 -10h-131q-24 0 -33.5 -6.5t-9.5 -28.5q0 -21 8 -27t35 -6h130q10 0 10 -10v-138q0 -10 -10 -10h-152
q-55 0 -55 -34q0 -19 13.5 -24t42.5 -5z" />
    <glyph glyph-name="aFive" unicode="&#x665;" horiz-adv-x="615" 
d="M310 164q52 0 52 51v144q0 48 -12 67.5t-40 19.5q-29 0 -41 -18.5t-12 -68.5v-144q0 -51 53 -51zM308 0q-56 0 -96.5 8t-77.5 29t-56.5 63.5t-19.5 105.5v163q0 238 253 238q119 0 184.5 -55t65.5 -181v-160q0 -62 -19.5 -105t-55.5 -65t-79 -31.5t-99 -9.5z" />
    <glyph glyph-name="aSix" unicode="&#x666;" horiz-adv-x="615" 
d="M247 441h-151q-10 0 -10 10v144q0 10 10 10h291q120 0 120 -127v-468q0 -10 -10 -10h-179q-10 0 -10 10v365q0 35 -13 50.5t-48 15.5z" />
    <glyph glyph-name="aSeven" unicode="&#x667;" horiz-adv-x="615" 
d="M306 220l118 384q3 10 12 7l165 -42q11 -3 9 -11l-196 -537q-9 -26 -108 -26q-28 0 -65.5 6t-42.5 20l-194 538q-2 8 9 11l165 41q9 3 12 -7z" />
    <glyph glyph-name="aEight" unicode="&#x668;" horiz-adv-x="615" 
d="M308 388l-118 -384q-3 -10 -12 -7l-165 42q-11 3 -9 11l196 537q9 26 108 26q26 0 64.5 -7t43.5 -19l194 -538q2 -8 -9 -11l-165 -41q-9 -3 -12 7z" />
    <glyph glyph-name="aNine" unicode="&#x669;" horiz-adv-x="615" 
d="M289 362h40v46q0 33 -39 33t-39 -41q0 -38 38 -38zM329 197h-40q-52 0 -90 7.5t-73 28t-53 62t-18 104.5q0 54 16.5 93t40 60.5t58 34t63 15.5t62.5 3q233 0 233 -158v-437q0 -10 -10 -10h-179q-10 0 -10 10v187z" />
    <glyph glyph-name="aPercent" unicode="&#x66a;" horiz-adv-x="691" 
d="M72 -2l386 622q6 10 13 10h151q10 0 7 -10l-386 -622q-6 -10 -13 -10h-151q-5 0 -7 3t0 7zM648 80l-60 -61q-21 -22 -38 -22q-15 0 -37 22l-60 61q-23 25 -23 37q0 14 23 37l60 60q23 23 37 23t32 -18l66 -65q22 -22 22 -39q0 -12 -22 -35zM236 477l-60 -61
q-21 -22 -38 -22q-15 0 -37 22l-60 61q-23 25 -23 37q0 14 23 37l60 60q23 23 37 23t32 -18l66 -65q22 -22 22 -39q0 -12 -22 -35z" />
    <glyph glyph-name="aDecimal" unicode="&#x66b;" horiz-adv-x="255" 
d="M44 -89v259q0 10 10 10h152q10 0 10 -10v-145q0 -11 -10 -20l-132 -99q-11 -8 -18 -8q-12 0 -12 13z" />
    <glyph glyph-name="aThousands" unicode="&#x66c;" horiz-adv-x="230" 
d="M44 45v259q0 10 10 10h152q10 0 10 -10v-145q0 -11 -10 -20l-132 -99q-11 -8 -18 -8q-12 0 -12 13z" />
    <glyph glyph-name="aStar" unicode="&#x66d;" horiz-adv-x="343" 
d="M179 535l-65 -48q-8 -8 -14 -3l-14 9q-6 5 -3 14l31 73l-72 54q-8 8 -7 13l5 16q3 8 13 7l85 -11l23 91q3 10 10 10h17q7 0 10 -10l23 -91l85 11q10 1 13 -7l5 -16q1 -5 -7 -13l-72 -54l31 -73q3 -9 -3 -14l-14 -9q-6 -5 -14 3z" />
    <glyph glyph-name="aAlifabove" unicode="&#x670;" horiz-adv-x="0" 
d="M26 884v-124q0 -10 -10 -10h-31q-10 0 -10 10v124q0 10 10 10h31q10 0 10 -10z" />
    <glyph glyph-name="aAlifWasla" unicode="&#x671;" horiz-adv-x="299" 
d="M249 670v-660q0 -10 -10 -10h-179q-10 0 -10 10v660q0 10 10 10h179q10 0 10 -10zM173 861q-20 0 -43 -10v-29h50q18 0 18 20q0 19 -25 19zM29 822h12q10 0 10 11v85q0 7 8 7h63q8 0 8 -7v-5q35 11 67 11q80 0 80 -87q0 -44 -12.5 -61t-41.5 -17h-194q-7 0 -7 7v49
q0 7 7 7z" />
    <glyph glyph-name="aTteh" unicode="&#x679;" horiz-adv-x="892" 
d="M297 164h297q27 0 38 11.5t11 41.5v207q0 10 10 10h179q10 0 10 -10v-298q0 -67 -27 -96.5t-92 -29.5h-556q-63 0 -90 30t-27 96v233q0 10 10 10h179q10 0 10 -10v-142q0 -29 11.5 -41t36.5 -12zM469 540q-20 0 -43 -10v-29h50q18 0 18 20q0 19 -25 19zM325 501h12
q10 0 10 11v139q0 7 8 7h63q8 0 8 -7v-59q36 11 67 11q80 0 80 -81q0 -47 -12.5 -65.5t-41.5 -18.5h-194q-7 0 -7 7v49q0 7 7 7z" />
    <glyph glyph-name="aPeh" unicode="&#x67e;" horiz-adv-x="892" 
d="M297 164h297q27 0 38 11.5t11 41.5v207q0 10 10 10h179q10 0 10 -10v-298q0 -67 -27 -96.5t-92 -29.5h-556q-63 0 -90 30t-27 96v233q0 10 10 10h179q10 0 10 -10v-142q0 -29 11.5 -41t36.5 -12zM602 -210h-133q-10 0 -10 10v124q0 10 10 10h133q10 0 10 -10v-124
q0 -10 -10 -10zM421 -210h-133q-10 0 -10 10v124q0 10 10 10h133q10 0 10 -10v-124q0 -10 -10 -10zM523 -381h-151q-10 0 -10 10v124q0 10 10 10h151q10 0 10 -10v-124q0 -10 -10 -10z" />
    <glyph glyph-name="aTcheh" unicode="&#x686;" horiz-adv-x="610" 
d="M310 -210h-75q-113 0 -164 41t-51 152q0 99 49.5 140t142.5 41h83q40 0 55.5 11.5t15.5 43.5q0 26 -17 46.5t-52 20.5q-41 0 -92 -36q-9 -5 -14 -1l-75 106q-9 11 -2 16q48 39 94.5 59t109.5 20q124 0 188 -64.5t64 -179.5q0 -64 -13.5 -106t-41.5 -63t-60 -29t-79 -8
h-113q-24 0 -33 -4.5t-9 -18.5t8 -18.5t34 -4.5h47q10 0 10 -10v-144q0 -10 -10 -10zM547 -121h-80q-6 0 -6 6v74q0 6 6 6h80q6 0 6 -6v-74q0 -6 -6 -6zM438 -121h-79q-6 0 -6 6v74q0 6 6 6h79q6 0 6 -6v-74q0 -6 -6 -6zM500 -224h-91q-6 0 -6 6v75q0 6 6 6h91q6 0 6 -6v-75
q0 -6 -6 -6z" />
    <glyph glyph-name="aDdal" unicode="&#x688;" horiz-adv-x="505" 
d="M460 268v-97q0 -92 -40 -131.5t-119 -39.5h-261q-10 0 -10 10v144q0 10 10 10h152q41 0 52.5 10t11.5 36v28q0 28 -15 38t-51 10h-113q-10 0 -10 10v144q0 10 10 10h200q94 0 138.5 -44t44.5 -138zM266 605q-20 0 -43 -10v-29h50q18 0 18 20q0 19 -25 19zM122 566h12
q10 0 10 11v139q0 7 8 7h63q8 0 8 -7v-59q36 11 67 11q80 0 80 -81q0 -47 -12.5 -65.5t-41.5 -18.5h-194q-7 0 -7 7v49q0 7 7 7z" />
    <glyph glyph-name="aRreh" unicode="&#x691;" horiz-adv-x="356" 
d="M80 -210h-65q-10 0 -10 10v144q0 10 10 10h20q41 0 56.5 20t15.5 65v385q0 10 10 10h179q10 0 10 -10v-398q0 -123 -55 -179.5t-171 -56.5zM225 605q-20 0 -43 -10v-29h50q18 0 18 20q0 19 -25 19zM81 566h12q10 0 10 11v139q0 7 8 7h63q8 0 8 -7v-59q36 11 67 11
q80 0 80 -81q0 -47 -12.5 -65.5t-41.5 -18.5h-194q-7 0 -7 7v49q0 7 7 7z" />
    <glyph glyph-name="aJeh" unicode="&#x698;" horiz-adv-x="356" 
d="M80 -210h-65q-10 0 -10 10v144q0 10 10 10h20q41 0 56.5 20t15.5 65v385q0 10 10 10h179q10 0 10 -10v-398q0 -123 -55 -179.5t-171 -56.5zM357 536h-133q-10 0 -10 10v124q0 10 10 10h133q10 0 10 -10v-124q0 -10 -10 -10zM176 536h-133q-10 0 -10 10v124q0 10 10 10
h133q10 0 10 -10v-124q0 -10 -10 -10zM274 709h-151q-10 0 -10 10v124q0 10 10 10h151q10 0 10 -10v-124q0 -10 -10 -10z" />
    <glyph glyph-name="aVeh" unicode="&#x6a4;" horiz-adv-x="1017" 
d="M726 286q-57 0 -57 -63q0 -38 14.5 -52t42.5 -14q29 0 43 13.5t14 52.5q0 36 -14 49.5t-43 13.5zM726 0h-559q-63 0 -90 30t-27 96v233q0 10 10 10h179q10 0 10 -10v-142q0 -29 11.5 -41t36.5 -12h182q-4 17 -4 50q0 236 251 236t251 -236q0 -214 -251 -214zM877 536
h-133q-10 0 -10 10v124q0 10 10 10h133q10 0 10 -10v-124q0 -10 -10 -10zM696 536h-133q-10 0 -10 10v124q0 10 10 10h133q10 0 10 -10v-124q0 -10 -10 -10zM794 709h-151q-10 0 -10 10v124q0 10 10 10h151q10 0 10 -10v-124q0 -10 -10 -10z" />
    <glyph glyph-name="aKeheh" unicode="&#x6a9;" horiz-adv-x="918" 
d="M714 0h-547q-63 0 -90 30t-27 96v233q0 10 10 10h179q10 0 10 -10v-142q0 -29 11.5 -41t36.5 -12h308q40 0 52 8t12 36v30q0 30 -14.5 40.5t-51.5 10.5h-139q-10 0 -10 10v108q0 7 9 16l232 274q6 7 13 3l117 -99q8 -8 4 -14l-119 -137q86 -8 124.5 -53.5t38.5 -137.5
v-88q0 -92 -40 -131.5t-119 -39.5z" />
    <glyph glyph-name="aGaf" unicode="&#x6af;" horiz-adv-x="918" 
d="M714 0h-547q-63 0 -90 30t-27 96v233q0 10 10 10h179q10 0 10 -10v-142q0 -29 11.5 -41t36.5 -12h308q40 0 52 8t12 36v30q0 30 -14.5 40.5t-51.5 10.5h-139q-10 0 -10 10v108q0 7 9 16l232 274q6 7 13 3l117 -99q8 -8 4 -14l-119 -137q86 -8 124.5 -53.5t38.5 -137.5
v-88q0 -92 -40 -131.5t-119 -39.5zM663 729l-225 -264q-6 -7 -13 -3l-93 76q-8 5 -4 14l225 264q6 7 13 3l93 -76q8 -8 4 -14z" />
    <glyph glyph-name="aNunGhunna" unicode="&#x6ba;" horiz-adv-x="637" 
d="M84 219q4 7 16 5l161 -39q13 -2 6 -14q-26 -80 -26 -128q0 -106 75 -106q72 0 72 98v309q0 10 10 10h179q10 0 10 -10v-320q0 -70 -23 -121.5t-63.5 -79t-86 -40t-99.5 -12.5t-100.5 13t-87 41.5t-64 80.5t-23.5 123q0 109 44 190z" />
    <glyph glyph-name="aHehDoachashmi" unicode="&#x6be;" horiz-adv-x="817" 
d="M569 239q0 78 -81 98q21 -45 21 -101q0 -58 -19 -87q39 2 59 21.5t20 68.5zM336 323q-44 0 -44 -85t44 -85q21 0 32 18t11 67q0 85 -43 85zM553 0h-299q-23 0 -29.5 -6.5t-6.5 -27.5v-57q0 -10 -10 -10h-179q-10 0 -10 10v145q0 52 23 81t82 29h63q-12 27 -12 74
q0 38 12 79l-11 -3q-13 -3 -15 2l-30 121q-4 12 1 15q44 15 139.5 28.5t167.5 13.5q57 0 103.5 -6.5t91.5 -24t75.5 -46.5t49 -76t18.5 -110q0 -53 -9 -91t-32 -71.5t-69 -51t-114 -17.5z" />
    <glyph glyph-name="aHehYeh" unicode="&#x6c0;" horiz-adv-x="582" 
d="M291 286q-57 0 -57 -63q0 -38 14.5 -52t42.5 -14q29 0 43 13.5t14 52.5q0 36 -14 49.5t-43 13.5zM291 -7q-251 0 -251 221q0 236 251 236t251 -236q0 -221 -251 -221zM165 615h35q-10 16 -10 44q0 44 31 72.5t86 28.5q67 0 104 -45q3 -4 -1 -8l-39 -46q-3 -5 -9 0
q-23 23 -46 23q-12 0 -21.5 -7.5t-9.5 -23.5q0 -23 25 -38h97q6 0 6 -7v-62q0 -7 -6 -7h-242q-6 0 -6 7v62q0 7 6 7z" />
    <glyph glyph-name="aHehGoal" unicode="&#x6c1;" horiz-adv-x="582" 
d="M291 286q-57 0 -57 -63q0 -38 14.5 -52t42.5 -14q29 0 43 13.5t14 52.5q0 36 -14 49.5t-43 13.5zM291 -7q-251 0 -251 221q0 236 251 236t251 -236q0 -221 -251 -221z" />
    <glyph glyph-name="aHehGoalHamzaabove" unicode="&#x6c2;" horiz-adv-x="582" 
d="M291 286q-57 0 -57 -63q0 -38 14.5 -52t42.5 -14q29 0 43 13.5t14 52.5q0 36 -14 49.5t-43 13.5zM291 -7q-251 0 -251 221q0 236 251 236t251 -236q0 -221 -251 -221zM165 615h35q-10 16 -10 44q0 44 31 72.5t86 28.5q67 0 104 -45q3 -4 -1 -8l-39 -46q-3 -5 -9 0
q-23 23 -46 23q-12 0 -21.5 -7.5t-9.5 -23.5q0 -23 25 -38h97q6 0 6 -7v-62q0 -7 -6 -7h-242q-6 0 -6 7v62q0 7 6 7z" />
    <glyph glyph-name="aTehMarbutaGoal" unicode="&#x6c3;" horiz-adv-x="582" 
d="M291 286q-57 0 -57 -63q0 -38 14.5 -52t42.5 -14q29 0 43 13.5t14 52.5q0 36 -14 49.5t-43 13.5zM291 -7q-251 0 -251 221q0 236 251 236t251 -236q0 -221 -251 -221zM457 536h-133q-10 0 -10 10v124q0 10 10 10h133q10 0 10 -10v-124q0 -10 -10 -10zM276 536h-133
q-10 0 -10 10v124q0 10 10 10h133q10 0 10 -10v-124q0 -10 -10 -10z" />
    <glyph glyph-name="aYehFarsi" unicode="&#x6cc;" horiz-adv-x="844" 
d="M361 -44h132q84 0 84 33q0 15 -21 32t-50.5 35.5t-59 42.5t-50.5 62t-21 84q0 98 72.5 151.5t172.5 53.5q64 0 118 -18.5t83 -51.5q5 -6 -3 -14l-87 -104q-7 -4 -14 1q-30 23 -73 23q-25 0 -42 -11t-17 -34q0 -24 22.5 -46t54.5 -42.5t64.5 -44t55 -60t22.5 -81.5
q0 -87 -60 -132t-173 -45h-233q-308 0 -308 234q0 98 63 198q6 8 16 4l150 -72q8 -5 3 -13q-31 -55 -31 -99q0 -86 130 -86z" />
    <glyph glyph-name="aYehBarri" unicode="&#x6d2;" horiz-adv-x="805" 
d="M383 341q-19 -26 -54.5 -59t-57.5 -56.5t-22 -37.5q0 -24 40 -24h487q10 0 10 -10v-144q0 -10 -10 -10h-502q-223 0 -223 150q0 29 11.5 61.5t23 55t44.5 63.5t48.5 58l61.5 68q7 7 15 1l127 -102q7 -7 1 -14z" />
    <glyph glyph-name="aYehBarriHamzaabove" unicode="&#x6d3;" horiz-adv-x="819" 
d="M390 341q-19 -26 -54.5 -59t-57.5 -56.5t-22 -37.5q0 -24 40 -24h487q10 0 10 -10v-144q0 -10 -10 -10h-502q-223 0 -223 150q0 29 11.5 61.5t23 55t44.5 63.5t48.5 58l61.5 68q7 7 15 1l127 -102q7 -7 1 -14zM79 591h36q-11 20 -11 44q0 44 31 72.5t86 28.5
q67 0 104 -45q3 -4 -1 -8l-39 -46q-3 -5 -9 0q-23 23 -46 23q-12 0 -21.5 -7.5t-9.5 -23.5q0 -23 25 -38h97q6 0 6 -7v-62q0 -7 -6 -7h-242q-6 0 -6 7v62q0 7 6 7z" />
    <glyph glyph-name="aPeriodUrdu" unicode="&#x6d4;" horiz-adv-x="356" 
d="M233 164h64q10 0 10 -10v-144q0 -10 -10 -10h-92q-114 0 -180 62q-6 6 -1 14l70 120q5 8 13 3q54 -35 126 -35z" />
    <glyph glyph-name="aAe" unicode="&#x6d5;" horiz-adv-x="582" 
d="M291 286q-57 0 -57 -63q0 -38 14.5 -52t42.5 -14q29 0 43 13.5t14 52.5q0 36 -14 49.5t-43 13.5zM291 -7q-251 0 -251 221q0 236 251 236t251 -236q0 -221 -251 -221z" />
    <glyph glyph-name="aZeroFarsi" unicode="&#x6f0;" horiz-adv-x="615" 
d="M426 163l-73 -73q-26 -26 -45 -26q-18 0 -44 26l-72 74q-28 28 -28 44t28 44l72 72q28 28 44 28t38 -22l80 -78q26 -26 26 -46q0 -17 -26 -43z" />
    <glyph glyph-name="aOneFarsi" unicode="&#x6f1;" horiz-adv-x="615" 
d="M407 595v-585q0 -10 -10 -10h-179q-10 0 -10 10v585q0 10 10 10h179q10 0 10 -10z" />
    <glyph glyph-name="aTwoFarsi" unicode="&#x6f2;" horiz-adv-x="615" 
d="M105 10v468q0 127 120 127h307q10 0 10 -10v-144q0 -10 -10 -10h-167q-35 0 -48 -15.5t-13 -50.5v-365q0 -10 -10 -10h-179q-10 0 -10 10z" />
    <glyph glyph-name="aThreeFarsi" unicode="&#x6f3;" horiz-adv-x="615" 
d="M209 595v-160h38v113q0 10 10 10h116q10 0 10 -10v-111q18 3 26 12.5t8 29.5v116q0 10 10 10h168q10 0 10 -10v-161q0 -86 -47.5 -123.5t-153.5 -37.5h-195v-263q0 -10 -10 -10h-179q-10 0 -10 10v585q0 10 10 10h179q10 0 10 -10z" />
    <glyph glyph-name="aFourFarsi" unicode="&#x6f4;" horiz-adv-x="615" 
d="M353 606h30q10 0 10 -10v-67q0 -10 -10 -10q-20 0 -26 -7t-6 -25v-24q47 0 61 11t14 45v24q0 10 10 10h160q10 0 10 -10v-48q0 -86 -34.5 -129.5t-117.5 -43.5h-250v-312q0 -10 -10 -10h-179q-10 0 -10 10v585q0 10 10 10h179q10 0 10 -10v-132h38v35q0 57 25.5 82.5
t85.5 25.5z" />
    <glyph glyph-name="aFiveFarsi" unicode="&#x6f5;" horiz-adv-x="615" 
d="M56 181v188q0 238 253 238q119 0 184.5 -55t65.5 -181v-190q0 -88 -41.5 -135.5t-112.5 -47.5q-57 0 -95 33q-40 -32 -91 -32q-29 0 -55.5 8.5t-52 28t-40.5 57t-15 88.5zM360 215v144q0 87 -52 87q-53 0 -53 -87v-144q0 -51 25 -51q11 0 16.5 13t11.5 13q5 0 11 -13
t16 -13q25 0 25 51z" />
    <glyph glyph-name="aSixFarsi" unicode="&#x6f6;" horiz-adv-x="615" 
d="M357 163l-151 -196q-5 -8 -14 -3l-134 106q-9 8 -3 14l179 234q-63 45 -63 116q0 82 55 126.5t130 44.5h162q10 0 10 -10v-143q0 -10 -10 -10h-90q-32 0 -46 -10.5t-14 -37.5q0 -45 59 -45h90q10 0 10 -10v-143q0 -10 -10 -10h-86q-32 0 -46 -4t-28 -19z" />
    <glyph glyph-name="aSevenFarsi" unicode="&#x6f7;" horiz-adv-x="615" 
d="M306 220l118 384q3 10 12 7l165 -42q11 -3 9 -11l-196 -537q-9 -26 -108 -26q-28 0 -65.5 6t-42.5 20l-194 538q-2 8 9 11l165 41q9 3 12 -7z" />
    <glyph glyph-name="aEightFarsi" unicode="&#x6f8;" horiz-adv-x="615" 
d="M308 388l-118 -384q-3 -10 -12 -7l-165 42q-11 3 -9 11l196 537q9 26 108 26q26 0 64.5 -7t43.5 -19l194 -538q2 -8 -9 -11l-165 -41q-9 -3 -12 7z" />
    <glyph glyph-name="aNineFarsi" unicode="&#x6f9;" horiz-adv-x="615" 
d="M289 362h40v46q0 33 -39 33t-39 -41q0 -38 38 -38zM329 197h-40q-52 0 -90 7.5t-73 28t-53 62t-18 104.5q0 54 16.5 93t40 60.5t58 34t63 15.5t62.5 3q233 0 233 -158v-437q0 -10 -10 -10h-179q-10 0 -10 10v187z" />
    <glyph glyph-name="enspace" unicode="&#x2002;" horiz-adv-x="500" 
 />
    <glyph glyph-name="thinspace" unicode="&#x2009;" horiz-adv-x="100" 
 />
    <glyph glyph-name="hairspace" unicode="&#x200a;" horiz-adv-x="20" 
 />
    <glyph glyph-name="ZWNJ" unicode="&#x200c;" horiz-adv-x="33" 
d="M33 1321v-1319h-33v1319h33z" />
    <glyph glyph-name="ZWJ" unicode="&#x200d;" horiz-adv-x="33" 
d="M96 1245l-18 -18l-45 46v-1273h-33v1276l-49 -49l-17 18l63 63l-63 64l17 17l64 -63l63 63l18 -17l-63 -63v-1z" />
    <glyph glyph-name="LTR" unicode="&#x200e;" horiz-adv-x="32" 
d="M190 1308l-81 -81v61h-77v-1286h-32v1319h109v68z" />
    <glyph glyph-name="RTL" unicode="&#x200f;" horiz-adv-x="33" 
d="M-77 1321h110v-1319h-33v1286h-77v-61l-81 81l81 81v-68z" />
    <glyph glyph-name="uni2010" unicode="&#x2010;" horiz-adv-x="408" 
d="M362 179h-316q-10 0 -10 10v152q0 10 10 10h316q10 0 10 -10v-152q0 -10 -10 -10z" />
    <glyph glyph-name="endash" unicode="&#x2013;" 
d="M540 181h-510q-10 0 -10 10v148q0 10 10 10h510q10 0 10 -10v-148q0 -10 -10 -10z" />
    <glyph glyph-name="emdash" unicode="&#x2014;" horiz-adv-x="952" 
d="M922 181h-892q-10 0 -10 10v148q0 10 10 10h892q10 0 10 -10v-148q0 -10 -10 -10z" />
    <glyph glyph-name="quoteleft" unicode="&#x2018;" horiz-adv-x="248" 
d="M190 436h-132q-10 0 -10 10v128q0 16 10 22l112 78q11 8 18 8q12 0 12 -13v-223q0 -10 -10 -10z" />
    <glyph glyph-name="quoteright" unicode="&#x2019;" horiz-adv-x="248" 
d="M60 434q-12 0 -12 13v223q0 10 10 10h132q10 0 10 -10v-128q0 -16 -10 -22l-112 -78q-11 -8 -18 -8z" />
    <glyph glyph-name="quotesinglbase" unicode="&#x201a;" horiz-adv-x="248" 
d="M60 -89q-12 0 -12 13v223q0 10 10 10h132q10 0 10 -10v-128q0 -16 -10 -22l-112 -78q-11 -8 -18 -8z" />
    <glyph glyph-name="quotedblleft" unicode="&#x201c;" horiz-adv-x="460" 
d="M190 436h-132q-10 0 -10 10v128q0 16 10 22l112 78q11 8 18 8q12 0 12 -13v-223q0 -10 -10 -10zM402 436h-132q-10 0 -10 10v128q0 16 10 22l112 78q11 8 18 8q12 0 12 -13v-223q0 -10 -10 -10z" />
    <glyph glyph-name="quotedblright" unicode="&#x201d;" horiz-adv-x="460" 
d="M60 434q-12 0 -12 13v223q0 10 10 10h132q10 0 10 -10v-128q0 -16 -10 -22l-112 -78q-11 -8 -18 -8zM272 434q-12 0 -12 13v223q0 10 10 10h132q10 0 10 -10v-128q0 -16 -10 -22l-112 -78q-11 -8 -18 -8z" />
    <glyph glyph-name="quotedblbase" unicode="&#x201e;" horiz-adv-x="460" 
d="M60 -89q-12 0 -12 13v223q0 10 10 10h132q10 0 10 -10v-128q0 -16 -10 -22l-112 -78q-11 -8 -18 -8zM272 -89q-12 0 -12 13v223q0 10 10 10h132q10 0 10 -10v-128q0 -16 -10 -22l-112 -78q-11 -8 -18 -8z" />
    <glyph glyph-name="dagger" unicode="&#x2020;" horiz-adv-x="581" 
d="M381 -180h-181q-10 0 -10 10v465q0 6 -6 6h-144q-10 0 -10 10v161q0 10 10 10h144q6 0 6 6v182q0 10 10 10h181q10 0 10 -10v-182q0 -6 6 -6h144q10 0 10 -10v-161q0 -10 -10 -10h-144q-6 0 -6 -6v-465q0 -10 -10 -10z" />
    <glyph glyph-name="daggerdbl" unicode="&#x2021;" horiz-adv-x="581" 
d="M381 -180h-181q-10 0 -10 10v142q0 6 -6 6h-144q-10 0 -10 10v161q0 10 10 10h144q6 0 6 6v170q0 6 -6 6h-144q-10 0 -10 10v161q0 10 10 10h144q6 0 6 6v142q0 10 10 10h181q10 0 10 -10v-142q0 -6 6 -6h144q10 0 10 -10v-161q0 -10 -10 -10h-144q-6 0 -6 -6v-170
q0 -6 6 -6h144q10 0 10 -10v-161q0 -10 -10 -10h-144q-6 0 -6 -6v-142q0 -10 -10 -10z" />
    <glyph glyph-name="bullet" unicode="&#x2022;" horiz-adv-x="510" 
d="M255 134q-75 0 -125 50t-50 125t50 125t125 50t125 -50t50 -125t-50 -125t-125 -50z" />
    <glyph glyph-name="ellipsis" unicode="&#x2026;" horiz-adv-x="804" 
d="M214 0h-160q-10 0 -10 10v160q0 10 10 10h160q10 0 10 -10v-160q0 -10 -10 -10zM482 0h-160q-10 0 -10 10v160q0 10 10 10h160q10 0 10 -10v-160q0 -10 -10 -10zM750 0h-160q-10 0 -10 10v160q0 10 10 10h160q10 0 10 -10v-160q0 -10 -10 -10z" />
    <glyph glyph-name="LTRE" unicode="&#x202a;" horiz-adv-x="500" 
 />
    <glyph glyph-name="RTLE" unicode="&#x202b;" horiz-adv-x="500" 
 />
    <glyph glyph-name="POP" unicode="&#x202c;" horiz-adv-x="500" 
 />
    <glyph glyph-name="LTRO" unicode="&#x202d;" horiz-adv-x="500" 
 />
    <glyph glyph-name="RTLO" unicode="&#x202e;" horiz-adv-x="500" 
 />
    <glyph glyph-name="perthousand" unicode="&#x2030;" horiz-adv-x="1245" 
d="M676 85q15 0 19 13q3 8 3 73t-3 73q-4 13 -19 13t-19 -13q-3 -8 -3 -73t3 -73q4 -13 19 -13zM1030 85q15 0 19 13q3 8 3 73t-3 73q-4 13 -19 13t-19 -13q-3 -8 -3 -73t3 -73q4 -13 19 -13zM676 -8q-113 0 -143 88q-12 33 -12 91t12 91q30 88 143 88t143 -88
q12 -33 12 -91t-12 -91q-30 -88 -143 -88zM1030 -8q-113 0 -143 88q-12 33 -12 91t12 91q30 88 143 88t143 -88q12 -33 12 -91t-12 -91q-30 -88 -143 -88zM215 423q15 0 19 13q3 8 3 73t-3 73q-4 13 -19 13t-19 -13q-3 -8 -3 -73t3 -73q4 -13 19 -13zM215 330
q-113 0 -143 88q-12 33 -12 91t12 91q30 88 143 88t143 -88q12 -33 12 -91t-12 -91q-30 -88 -143 -88zM303 -12h-122q-10 0 -4 10l395 684q6 10 16 10h122q10 0 4 -10l-395 -684q-6 -10 -16 -10z" />
    <glyph glyph-name="guilsinglleft" unicode="&#x2039;" horiz-adv-x="332" 
d="M270 6l-255 251q-7 7 0 14l255 251q3 3 6.5 2t3.5 -6v-162q0 -8 -10 -18l-71 -70q-4 -4 0 -8l71 -70q10 -10 10 -18v-162q0 -5 -3.5 -6t-6.5 2z" />
    <glyph glyph-name="guilsinglright" unicode="&#x203a;" horiz-adv-x="332" 
d="M317 257l-255 -251q-3 -3 -6.5 -2t-3.5 6v162q0 8 10 18l71 70q4 4 0 8l-71 70q-10 10 -10 18v162q0 5 3.5 6t6.5 -2l255 -251q7 -7 0 -14z" />
    <glyph glyph-name="fraction" unicode="&#x2044;" horiz-adv-x="181" 
d="M-52 -12h-122q-10 0 -4 10l395 684q6 10 16 10h122q10 0 4 -10l-395 -684q-6 -10 -16 -10z" />
    <glyph glyph-name="Euro" unicode="&#x20ac;" horiz-adv-x="572" 
d="M323 -12q-180 0 -228 144q-14 44 -14 103q0 6 -6 6h-39q-10 0 -10 10v63q0 10 10 10h39q6 0 6 6v23q0 6 -6 6h-39q-10 0 -10 10v63q0 10 10 10h39q6 0 6 6q0 58 14 100q46 144 228 144q160 0 217 -126q5 -9 -5 -14l-139 -61q-14 -6 -19 5q-13 36 -49 36q-32 0 -41 -31
q-4 -11 -4 -53q0 -6 6 -6h132q10 0 10 -10l-10 -63q-1 -10 -10 -10h-122q-6 0 -6 -6v-23q0 -6 6 -6h112q10 0 10 -10l-10 -63q-1 -10 -10 -10h-102q-6 0 -6 -6q0 -45 4 -56q9 -31 41 -31q36 0 49 36q5 11 19 5l139 -61q10 -5 5 -14q-57 -126 -217 -126z" />
    <glyph glyph-name="liter" unicode="&#x2113;" horiz-adv-x="508" 
d="M374 599q0 42 -18 69t-46 27q-30 0 -49 -30t-19 -85v-247q132 143 132 266zM419 74l26 -37q-69 -52 -146 -52q-69 0 -107 35.5t-38 98.5v111l-74 -69l-26 38l99 87v272q0 81 45 133t112 52q60 0 94 -36.5t34 -99.5q0 -77 -48 -156t-148 -171v-143q0 -52 25 -74t62 -22
q43 0 90 33z" />
    <glyph glyph-name="trademark" unicode="&#x2122;" horiz-adv-x="836" 
d="M242 286h-102q-10 0 -10 10v269q0 6 -6 6h-88q-10 0 -10 10v89q0 10 10 10h310q10 0 10 -10v-89q0 -10 -10 -10h-88q-6 0 -6 -6v-269q0 -10 -10 -10zM780 286h-90q-10 0 -10 10v175h-3l-52 -122q-4 -10 -14 -10h-47q-10 0 -14 10l-52 122h-3v-175q0 -10 -10 -10h-90
q-10 0 -10 10v374q0 10 10 10h97q11 0 15 -10l80 -180h4l79 180q4 10 15 10h95q10 0 10 -10v-374q0 -10 -10 -10z" />
    <glyph glyph-name="ohm" unicode="&#x2126;" horiz-adv-x="638" 
d="M588 0h-234q-10 0 -10 10v136q0 10 9 16q27 18 33 47.5t6 130.5q0 102 -8 123q-16 43 -65 43t-65 -43q-8 -21 -8 -123t6 -131t33 -47q9 -6 9 -16v-136q0 -10 -10 -10h-234q-10 0 -10 10v144q0 10 10 10h38v1q-24 18 -39 64t-15 111q0 120 22 183q60 169 263 169t263 -169
q22 -63 22 -183q0 -65 -15 -111t-39 -64v-1h38q10 0 10 -10v-144q0 -10 -10 -10z" />
    <glyph glyph-name="estimated" unicode="&#x212e;" horiz-adv-x="566" 
d="M419 280v134q-62 57 -137 57q-80 0 -135 -57v-134h272zM282 -12q-107 0 -173.5 74t-66.5 184t66.5 183t173.5 73q108 0 175 -71.5t67 -184.5h-377v-169q56 -53 135 -53q117 0 179 111l33 -22q-43 -65 -92 -95t-120 -30z" />
    </font>
</defs>
</svg>
