<?xml version="1.0" encoding="utf-8"?>
<!-- Generator: Adobe Illustrator 22.0.1, SVG Export Plug-In . SVG Version: 6.00 Build 0)  -->
<svg version="1.1" id="Layer_1" xmlns="http://www.w3.org/2000/svg" xmlns:xlink="http://www.w3.org/1999/xlink" x="0px" y="0px"
	 viewBox="0 0 130 30" style="enable-background:new 0 0 130 30;" xml:space="preserve">
<style type="text/css">
	.st0{opacity:0.5;}
	.st1{opacity:0.7;enable-background:new    ;}
	.st2{opacity:0.3;enable-background:new    ;}
</style>
<g class="st0">
	<rect x="102.9" y="0.7" class="st1" width="12" height="12"/>
	<rect x="116.3" y="0.7" class="st2" width="12" height="12"/>
	<path d="M102.5,26.6c0,2.1-0.7,2.7-2.7,2.7h-6.4c-2,0-2.7-0.6-2.7-2.7v-5.1c0-2.1,0.7-2.7,2.7-2.7h6.4c2,0,2.7,0.6,2.7,2.7V26.6z
		 M93.5,19.7c-0.8,0-1,0.2-1,1.2v6.2c0,0.9,0.2,1.2,1,1.2h6.2c0.8,0,1-0.2,1-1.2v-6.2c0-0.9-0.2-1.2-1-1.2H93.5z"/>
	<path d="M106.1,27.1c0,0.9,0.2,1.2,1,1.2h5.7c1,0,1.6,0,2.3-0.2l-0.2,1.2H107c-2,0-2.7-0.6-2.7-2.7v-5.1c0-2.1,0.7-2.7,2.7-2.7h7.8
		l0.1,1.2c-0.6-0.2-1.2-0.2-2.3-0.2h-5.5c-0.8,0-1,0.2-1,1.2V27.1z"/>
	<path d="M127.5,18.7c-2,1.2-3.6,2.4-5.4,3.7l4,4.5c1.1,1.2,1.5,1.7,2.4,2.5h-2.7l-5.2-5.9l-2.3,1.6v2c0,1,0,1.6,0.2,2.3h-2.3
		c0.2-0.6,0.2-1.2,0.2-2.3v-9.9c0-1,0-1.6-0.2-2.3h2.1v8.9l5.5-3.9c0.5-0.4,1-0.7,1.4-1.1L127.5,18.7L127.5,18.7z"/>
	<path d="M15.6,12.8l0.2,1.7c-1-0.6-1.5-0.6-3.2-0.6H5.8c-1,0-1.2,0.6-1.2,1.7v11.2c0,1.1,0.2,1.7,1.2,1.7h6.8c1.9,0,2.1,0,3.4-0.6
		l-0.2,1.7H5.7c-3,0-4.1-0.6-4.1-3.2V16c0-2.6,1.1-3.2,4.1-3.2H15.6z"/>
	<path d="M29,26.6c0,2.1-0.7,2.7-2.7,2.7h-6.4c-2,0-2.7-0.6-2.7-2.7v-5.1c0-2.1,0.7-2.7,2.7-2.7h6.4c2,0,2.7,0.6,2.7,2.7V26.6z
		 M20,19.7c-0.8,0-1,0.2-1,1.2v6.2c0,0.9,0.2,1.2,1,1.2h6.2c0.8,0,1-0.2,1-1.2v-6.2c0-0.9-0.2-1.2-1-1.2H20z"/>
	<path d="M32.7,18.7v0.8l0,0c0.1-0.2,0.2-0.5,0.3-0.6c0.2-0.1,0.3-0.2,0.7-0.2h6c1.5,0,1.6,0.3,1.8,1l0,0c0.2-0.8,0.4-1,1.6-1h3.7
		c2.6,0,3.6,0.6,3.6,3.2V27c0,1,0,1.6,0.2,2.3h-2.3c0.2-0.6,0.2-1.2,0.2-2.3v-6.1c0-0.9-0.2-1.2-1-1.2h-5.1c-0.8,0-1,0.2-1,1.2V27
		c0,1,0,1.6,0.2,2.3h-2.3c0.2-0.6,0.2-1.2,0.2-2.3v-6.1c0-0.9-0.2-1.2-1-1.2h-5.1c-0.8,0-1,0.2-1,1.2V27c0,1,0,1.6,0.2,2.3h-2.3
		c0.2-0.6,0.2-1.2,0.2-2.3v-6c0-1,0-1.6-0.2-2.3H32.7z"/>
	<path d="M54.4,14.9v4.6l0,0c0.1-0.3,0.3-0.5,0.5-0.6c0.3-0.1,0.6-0.2,0.9-0.2h5.5c2,0,2.7,0.6,2.7,2.7v5.1c0,2.1-0.7,2.7-2.7,2.7
		h-5.6c-0.9,0-1.4-0.2-1.5-0.9l0,0l-0.1,0.9h-1.9c0.2-0.6,0.2-1.2,0.2-2.3V17c0-1,0-1.6-0.2-2.3h2.2V14.9z M54.4,27.1
		c0,0.9,0.2,1.2,1,1.2h5.9c0.8,0,1-0.2,1-1.2v-6.2c0-0.9-0.2-1.2-1-1.2h-5.9c-0.8,0-1,0.2-1,1.2V27.1z"/>
	<path d="M67.8,27c0,1,0,1.6,0.2,2.3h-2.3c0.2-0.6,0.2-1.2,0.2-2.3v-6c0-1,0-1.6-0.2-2.3h2.1C67.8,18.7,67.8,27,67.8,27z M65.9,15.9
		h1.9v1.5h-1.9V15.9z"/>
	<path d="M85.5,12.8H74.1c0.2,0.7,0.2,1.4,0.2,2.6v11.4c0,1.2-0.1,1.9-0.2,2.6h11.4c2.7,0,3.6-0.6,3.6-3.2V16
		C89.1,13.4,88.2,12.8,85.5,12.8 M87.2,26.6c0,1.1-0.9,1.7-1.8,1.7H77V13.9h8.3c0.9,0,1.8,0.4,1.8,1.5L87.2,26.6L87.2,26.6z"/>
</g>
</svg>
