<?xml version="1.0" encoding="utf-8"?>
<!-- Generator: Adobe Illustrator 22.0.1, SVG Export Plug-In . SVG Version: 6.00 Build 0)  -->
<svg version="1.1" id="Layer_1" xmlns="http://www.w3.org/2000/svg" xmlns:xlink="http://www.w3.org/1999/xlink" x="0px" y="0px"
	 viewBox="0 0 130 15" style="enable-background:new 0 0 130 15;" xml:space="preserve">
<style type="text/css">
	.st0{opacity:0.5;}
</style>
<g class="st0">
	<polygon points="29.4,10.3 29.3,10.3 26.8,1.2 24.8,1.2 22.3,10.3 22.3,10.3 20.4,1.2 17.8,1.2 20.9,14.5 23.3,14.5 25.8,5.8 
		25.8,5.8 28.3,14.5 30.8,14.5 33.9,1.2 31.3,1.2 	"/>
	<path d="M38.5,4.5c-1.4,0-2.4,0.5-3.2,1.4C34.4,6.8,34,8,34,9.5v0.4c0,1.4,0.4,2.6,1.3,3.5c0.9,0.9,2,1.4,3.4,1.4
		c0.8,0,1.5-0.1,2.2-0.3c0.7-0.2,1.2-0.5,1.6-0.8l-0.7-1.6c-0.5,0.3-0.9,0.4-1.3,0.6c-0.4,0.1-0.9,0.2-1.5,0.2
		c-0.7,0-1.2-0.2-1.6-0.6c-0.4-0.4-0.6-1-0.7-1.6l0-0.1h5.9V8.9c0-1.4-0.4-2.5-1.1-3.3C40.9,4.9,39.8,4.5,38.5,4.5 M40.1,8.6h-3.3
		l0,0C36.9,8,37,7.5,37.3,7.1c0.3-0.4,0.7-0.6,1.2-0.6c0.5,0,0.9,0.2,1.2,0.5c0.3,0.3,0.4,0.8,0.4,1.4V8.6z"/>
	<path d="M51.3,9.7c-0.6-0.5-1.5-0.8-2.7-1.1c-0.8-0.2-1.3-0.3-1.6-0.5c-0.3-0.2-0.4-0.4-0.4-0.7c0-0.3,0.1-0.6,0.4-0.8
		c0.2-0.2,0.6-0.3,1-0.3c0.5,0,0.9,0.1,1.1,0.4c0.3,0.3,0.4,0.6,0.4,1h2.6l0-0.1c0-0.9-0.3-1.6-1.1-2.2c-0.7-0.6-1.8-0.9-3-0.9
		c-1.2,0-2.2,0.3-2.9,0.9s-1.1,1.3-1.1,2.2c0,0.8,0.3,1.4,0.9,1.9c0.6,0.5,1.5,0.8,2.6,1.1c0.8,0.2,1.3,0.4,1.6,0.6
		c0.3,0.2,0.4,0.5,0.4,0.8c0,0.3-0.1,0.6-0.4,0.8c-0.3,0.2-0.6,0.3-1.1,0.3c-0.5,0-1-0.1-1.3-0.4c-0.3-0.2-0.5-0.6-0.5-1.2h-2.4
		l0,0.1c0,0.9,0.3,1.6,1.1,2.3c0.8,0.7,1.8,1,3.1,1c1.2,0,2.3-0.3,3-0.8c0.8-0.6,1.1-1.3,1.1-2.2C52.2,10.9,51.9,10.2,51.3,9.7"/>
	<path d="M58.6,12.6c-0.1,0-0.2,0-0.4,0c-0.3,0-0.5-0.1-0.6-0.2c-0.2-0.2-0.2-0.4-0.2-0.8v-5H59V4.6h-1.7V2.2h-2.7v2.4h-1.4v1.9h1.4
		v5c0,1.1,0.2,1.9,0.7,2.4c0.5,0.5,1.2,0.8,2.1,0.8c0.3,0,0.6,0,0.8-0.1c0.3,0,0.5-0.1,0.8-0.2l-0.2-1.9
		C58.8,12.6,58.7,12.6,58.6,12.6"/>
	<path d="M64.5,4.5c-1.4,0-2.4,0.5-3.2,1.4C60.5,6.8,60,8,60,9.5v0.4c0,1.4,0.4,2.6,1.3,3.5c0.9,0.9,2,1.4,3.4,1.4
		c0.8,0,1.5-0.1,2.2-0.3c0.7-0.2,1.2-0.5,1.6-0.8l-0.7-1.6c-0.5,0.3-0.9,0.4-1.3,0.6c-0.4,0.1-0.9,0.2-1.5,0.2
		c-0.7,0-1.2-0.2-1.6-0.6c-0.4-0.4-0.6-1-0.7-1.6l0-0.1h5.9V8.9c0-1.4-0.4-2.5-1.1-3.3C66.9,4.9,65.8,4.5,64.5,4.5 M66.1,8.6h-3.3
		l0,0c0.1-0.6,0.2-1.1,0.5-1.5c0.3-0.4,0.7-0.6,1.2-0.6c0.5,0,0.9,0.2,1.2,0.5c0.3,0.3,0.4,0.8,0.4,1.4V8.6z"/>
	<path d="M75.2,4.5c-0.5,0-0.9,0.1-1.3,0.4c-0.4,0.3-0.7,0.7-0.9,1.2L73,4.6h-2.5v9.9h2.7V7.9c0.1-0.3,0.3-0.5,0.6-0.7
		c0.3-0.2,0.6-0.2,1-0.2l1,0L76,4.6c-0.1,0-0.2-0.1-0.3-0.1C75.5,4.5,75.4,4.5,75.2,4.5"/>
	<path d="M82.6,4.5c-0.6,0-1.1,0.1-1.6,0.4c-0.5,0.3-0.9,0.7-1.2,1.2l-0.1-1.4h-2.5v9.9h2.7V7.3c0.2-0.3,0.4-0.5,0.7-0.6
		c0.3-0.1,0.6-0.2,0.9-0.2c0.5,0,0.9,0.1,1.2,0.4c0.3,0.3,0.4,0.7,0.4,1.4v6.2h2.7V8.4c0-1.3-0.3-2.3-0.8-3
		C84.4,4.8,83.6,4.5,82.6,4.5"/>
	<path d="M101,7.6c0.6-0.2,1.1-0.6,1.4-1.1c0.3-0.5,0.5-1,0.5-1.6c0-1.2-0.4-2.1-1.3-2.7c-0.9-0.6-2.1-0.9-3.7-0.9h-4.5v13.3h5.1
		c1.5,0,2.7-0.3,3.6-1c0.8-0.7,1.3-1.6,1.3-2.9c0-0.7-0.2-1.4-0.6-1.9C102.3,8.2,101.7,7.8,101,7.6 M96.1,3.3h1.8
		c0.8,0,1.3,0.1,1.7,0.4c0.4,0.3,0.6,0.7,0.6,1.4c0,0.6-0.2,1-0.6,1.3c-0.4,0.3-0.9,0.4-1.6,0.4h-1.9V3.3z M100.1,12
		c-0.4,0.3-0.9,0.5-1.6,0.5h-2.5V8.6h2.7c0.7,0,1.2,0.2,1.5,0.5c0.3,0.3,0.5,0.8,0.5,1.5C100.7,11.3,100.5,11.7,100.1,12"/>
	<path d="M111.1,11.9c-0.2,0.3-0.4,0.5-0.7,0.6c-0.3,0.1-0.7,0.2-1.1,0.2c-0.5,0-0.8-0.2-1.1-0.5c-0.2-0.3-0.4-0.8-0.4-1.6v-6h-2.7
		v6c0,1.4,0.3,2.4,0.9,3.1c0.6,0.7,1.4,1,2.4,1c0.6,0,1.1-0.1,1.6-0.4c0.5-0.3,0.9-0.7,1.2-1.2l0.2,1.4h2.3V4.6h-2.7V11.9z"/>
	<rect x="115.9" y="0.3" width="2.7" height="14.3"/>
	<polygon points="126.4,9.1 129.5,4.6 126.4,4.6 124.1,8.4 123.5,8.4 123.5,0.3 120.8,0.3 120.8,14.5 123.5,14.5 123.5,10.4 
		124.2,10.4 126.9,14.5 130,14.5 	"/>
	<path d="M7.9,8.7l2.8-0.9v3l-2.8,0.9v0l-2.8-0.9l-2.8,0.9v-3l2.7-0.9v0l0,0l0,0v0L7.9,8.7L7.9,8.7z M10.7,3.8v3L7.9,7.8v0L5.2,6.8
		L2.4,7.8v-3l2.7-0.9v0l0,0l0,0v0l2.7,0.9L10.7,3.8z M0,14.4h13.3V1.1H0V14.4z"/>
</g>
</svg>
