<?xml version="1.0" encoding="utf-8"?>
<!-- Generator: Adobe Illustrator 22.0.1, SVG Export Plug-In . SVG Version: 6.00 Build 0)  -->
<svg version="1.1" id="Layer_1" xmlns="http://www.w3.org/2000/svg" xmlns:xlink="http://www.w3.org/1999/xlink" x="0px" y="0px"
	 viewBox="0 0 130 40" style="enable-background:new 0 0 130 40;" xml:space="preserve">
<style type="text/css">
	.st0{fill:#FFFFFF;}
</style>
<g>
	<polygon class="st0" points="57.6,19.6 57.7,19.6 62.6,12.3 69.2,12.3 63.5,20.4 70.7,30.7 62.3,30.7 57.7,22.9 57.6,22.9 
		57.6,30.7 50.6,30.7 50.6,12.3 57.6,12.3 	"/>
	<path class="st0" d="M79,23.8c0,1.8,0.5,3.1,2.2,3.1c1.9,0,2.3-1.3,2.3-3.1V12.3h7v11c0,6.1-3.7,8-9.4,8c-5.2,0-9.2-2-9.2-7.7V12.3
		h7V23.8z"/>
	<polygon class="st0" points="94.4,12.3 101.5,12.3 101.5,26 110.1,26 110.1,30.7 94.4,30.7 	"/>
	<path class="st0" d="M118.3,26.1h1.8c2.6,0,3.1-1.7,3.1-4.7c0-3.2-0.6-4.8-3.2-4.8h-1.7V26.1z M112.2,12.3h8.6
		c5.3,0,9.2,1.8,9.2,9.2c0,6.9-4.3,9.1-9.5,9.1h-8.3V12.3z"/>
	<path class="st0" d="M46.5,17c-1.5-0.1-3.4-0.2-5.4-0.2c-2.2,0-3.1-0.1-3.4,0.9c-1.2,3.4,10-0.3,10,7.2c0,4.9-4.8,6-8.8,6
		c-2.7,0-5.1-0.1-7.7-0.3V26c2.4,0.2,4.5,0.2,6.6,0.2c1.7,0,3.1,0.2,3.2-1c0.3-3.5-10,0.4-10-7.2c0-4.8,4.7-5.9,9.2-5.9
		c2.1,0,4.1,0.1,6.3,0.3V17z"/>
	<path class="st0" d="M13.8,22.4c0.2,0,0.3-0.2,0.3-0.4v-2.6c0-0.2-0.1-0.3-0.3-0.2l-6,1.6c-0.2,0-0.3,0.2-0.3,0.4v2.6
		c0,0.2,0.1,0.3,0.3,0.2L13.8,22.4z"/>
	<path class="st0" d="M13.8,17.9c0.2,0,0.3-0.2,0.3-0.4V15c0-0.2-0.1-0.3-0.3-0.2l-6,1.6c-0.2,0-0.3,0.2-0.3,0.4v2.6
		c0,0.2,0.1,0.3,0.3,0.2L13.8,17.9z"/>
	<path class="st0" d="M10.8,7.8c0.6,0,1.1,0.5,1.1,1.1c0,0.6-0.5,1.1-1.1,1.1c-0.6,0-1.1-0.5-1.1-1.1C9.7,8.3,10.2,7.8,10.8,7.8
		 M12.6,13.9c0-0.6,0.1-1,0.2-1l4.9,0c0.2,0,0.3-0.1,0.3-0.3v-1.8c0-0.2-0.1-0.3-0.3-0.3h-4.3c0.3-0.4,0.4-1,0.4-1.5
		c0-1.6-1.3-2.9-2.9-2.9C9.2,6,7.9,7.3,7.9,8.9c0,0.5,0.2,1.1,0.4,1.5H4c-0.2,0-0.3,0.1-0.3,0.3v1.8c0,0.2,0.1,0.3,0.3,0.3l4.9,0
		c0.1,0,0.2,0.8,0.2,2L12.6,13.9z M9,24.9c-0.1,0.6-0.1,1.1-0.2,1.4c-0.3,2-2.4,1-4-1.8c-0.2-0.3-0.1-0.3,0.2-0.4
		c0.4-0.2,1.2-0.3,0.7-1c-1-1.6-2.1-4.2-2.9-6.5C2.6,16,2,16,1.7,16.5C-0.8,20.3,0,23.2,0.6,25c0.3,0.9,0.9,0.4,1.3,0.2
		c0.3-0.1,0.3-0.1,0.5,0.3c1.9,3.6,4.3,5.8,6.4,7.1c0.8,0.5,1.5,1.3,2.1,1.3v0c0,0,0,0,0,0c0,0,0,0,0,0v0c0.6,0,1.3-0.8,2.1-1.3
		c2.2-1.4,4.5-3.5,6.4-7.1c0.2-0.4,0.2-0.4,0.5-0.3c0.4,0.2,1,0.6,1.3-0.2c0.6-1.8,1.4-4.7-1.1-8.5c-0.3-0.5-0.9-0.5-1.1,0.1
		C18,18.9,17,21.4,16,23.1c-0.5,0.8,0.3,0.9,0.7,1c0.2,0.1,0.3,0.1,0.2,0.4c-1.6,2.8-3.7,3.8-4,1.8h0c-0.1-0.5-0.2-1.4-0.3-2.4
		L9,24.9z"/>
</g>
</svg>
