<?xml version="1.0" encoding="utf-8"?>
<!-- Generator: Adobe Illustrator 22.0.1, SVG Export Plug-In . SVG Version: 6.00 Build 0)  -->
<svg version="1.1" id="Layer_1" xmlns="http://www.w3.org/2000/svg" xmlns:xlink="http://www.w3.org/1999/xlink" x="0px" y="0px"
	 viewBox="0 0 130 30" style="enable-background:new 0 0 130 30;" xml:space="preserve">
<style type="text/css">
	.st0{opacity:0.5;}
</style>
<g class="st0">
	<path d="M50.4,6.8c0.1,2.4-0.1,5.3,0,7.6c2.7-0.2,5.9,0.7,8-1.2c0.9-0.9,1.2-2.4,0.9-3.7c-1.2-3.8-3.8-2.4-7.1-2.7L50.4,6.8
		 M56.8,3.1c2.8,0.2,5.6,1.8,6.6,4.5c0.9,2.4,0.9,5.5-0.8,7.5c-0.9,1.3-2.1,1.7-3.4,2.4l0.1,0.3l5.1,9.3v0.1l-4.9,0l-0.2-0.3
		l-4.7-8.5l-0.2-0.2l-4.2,0.1l-0.1,0.1l0,8.6c0,0,0,0.1,0,0.1l-4.3,0L45.9,27l0-5.1L46,3.2L56.8,3.1z"/>
	<path d="M71.3,23.2l0.9,0c3-0.1,6.4,0.4,8.2-2c1.8-2.8,1.9-7.1,0.7-10.3c-0.6-1.9-2.5-3.2-4.3-3.6C75,7,73.2,7.1,71.3,7.2
		L71.3,23.2 M66.8,20.9c0,0,0-1,0-1v-1.9l0-2.7l0-12.3l10.6,0.1C81,3.6,84.3,6,85.6,9.4c1.3,3.5,1.4,8.2-0.1,11.7
		c-1.3,3.3-4.6,5.8-8.2,5.9c-3.7,0.2-6.9-0.1-10.5,0.1L66.8,27L66.8,20.9z"/>
	<path d="M101.5,20.8c-0.9-0.6-1.9-1.5-2.8-2.2l-0.1,0.1l-2.5,2c0-1,0.1-2.1,0.2-3.2c-1.1-0.4-2.1-0.7-3.1-1.1
		c0.9-0.7,2-1.2,2.8-1.9l-1.5-2.9c0.8,0.2,2.3,0.5,3.2,0.9c0.6-1,1.1-1.8,1.6-2.9l0.2,0.4c0.4,1.1,0.8,1.7,1.2,2.5L104,12l-2,2.8
		c1,0.8,1.6,1.4,2.5,2.1c-1.2,0.2-2.1,0.4-3.3,0.6L101.5,20.8 M88.8,22.2h20V8.3h-20V22.2z"/>
	<path d="M115.5,3.2l0.1,0.1l9.8,15.7c0.3,0.7,0.5,1.4,0.9,2c-0.7-3.3-0.3-7-0.5-10.5l0-7.2c1.4,0,2.7,0,4.1,0l0,11l0.1,12.9
		l-0.2,0.1l-3.7-0.1l-1.7-2.6l-8.5-13.5c-0.3-0.6-0.4-1.2-0.8-1.6l0.5,2.8l0.1,15c-1.4,0-3,0-4.2,0L111.4,16l0-11.8
		c-0.1-0.3,0-0.7,0-1L115.5,3.2"/>
	<rect x="88.8" y="23.5" width="20" height="3.7"/>
	<rect x="88.8" y="3.3" width="20" height="3.7"/>
	<path d="M26,10.9c-1.2,3.5-0.8,8,1.7,10.7c1.4,1.4,3.5,2.2,5.6,1.7c2.6-0.5,4.6-2.7,5.3-5.2c0.9-3.9,0.1-8.4-3.1-10.7
		c-1.9-1.3-4.9-1.3-6.7-0.1C27.5,8.2,26.6,9.6,26,10.9 M26.8,3.7c3.3-1.9,8.1-1.8,11.2,0.3c4.2,2.5,5.9,7.6,5.4,12.7
		c-0.3,4.5-3,8.9-7.4,10.4c-4,1.4-8.7,0.6-11.6-2.4c-3.4-3.4-4.6-8.6-3.2-13.4C21.9,8.1,24,5.3,26.8,3.7z"/>
	<path d="M4.1,3l1.2,1.8l8.6,13.9c0.3,0.7,0.5,1.4,0.9,2c0-0.9-0.4-1.7-0.4-2.7L14.1,3l4.3,0l0,0.1l0,23.8l-3.8,0l-2.6-4.1l-6.9-11
		c-0.7-0.8-0.9-1.8-1.4-2.7C3.7,10,4,10.8,4,11.6l0,15.3L4.2,27C2.8,27,1.6,27,0,26.9l0-2.6L0,5.7L0,3L4.1,3"/>
</g>
</svg>
