<?xml version="1.0" encoding="utf-8"?>
<!-- Generator: Adobe Illustrator 22.0.1, SVG Export Plug-In . SVG Version: 6.00 Build 0)  -->
<svg version="1.1" id="Layer_1" xmlns="http://www.w3.org/2000/svg" xmlns:xlink="http://www.w3.org/1999/xlink" x="0px" y="0px"
	 viewBox="0 0 130 140" style="enable-background:new 0 0 130 140;" xml:space="preserve">
<style type="text/css">
	.st0{opacity:0.5;}
	.st1{fill-rule:evenodd;clip-rule:evenodd;fill:#020201;}
	.st2{fill:#020201;}
	.st3{opacity:0.4;}
</style>
<g class="st0">
	<path class="st1" d="M0,0.9v86.6h130V0.9H0z M100.9,27.1l-6.4,17.6c0,0-0.4,1.3-1.7,0.9c-1.2-0.4-16.7-6-16.7-6l-3.7,37.3
		c0,0-0.1,1-1.2,1c-1.2,0-6.2,0-6.2,0h0h0h0c0,0-4.9,0-6.2,0c-1.1,0-1.2-1-1.2-1l-3.7-37.3c0,0-15.5,5.6-16.7,6
		c-1.3,0.4-1.7-0.9-1.7-0.9l-6.4-17.6c0,0-0.4-0.9,0.6-1.3C30.9,25.3,65,10.6,65,10.6s34.1,14.7,35.4,15.2
		C101.4,26.2,100.9,27.1,100.9,27.1z"/>
	<g>
		<g>
			<path class="st2" d="M8.6,91.5v1.5h-3v8.5H3.7v-8.5h-3v-1.5H8.6z"/>
			<path class="st2" d="M18.4,101.6h-1.9v-4.4h-4.7v4.4H9.9v-10h1.9v4.3h4.7v-4.3h1.9V101.6z"/>
			<path class="st2" d="M30.2,96.6c0,0.7-0.1,1.4-0.4,2c-0.2,0.6-0.6,1.2-1,1.6c-0.4,0.5-1,0.8-1.6,1.1c-0.6,0.3-1.3,0.4-2.1,0.4
				c-0.8,0-1.4-0.1-2.1-0.4c-0.6-0.3-1.2-0.6-1.6-1.1c-0.4-0.5-0.8-1-1-1.6c-0.2-0.6-0.4-1.3-0.4-2c0-0.7,0.1-1.4,0.4-2
				c0.2-0.6,0.6-1.2,1-1.6c0.4-0.5,1-0.8,1.6-1.1c0.6-0.3,1.3-0.4,2.1-0.4c0.5,0,1,0.1,1.4,0.2c0.4,0.1,0.9,0.3,1.2,0.5
				c0.4,0.2,0.7,0.5,1,0.8c0.3,0.3,0.6,0.6,0.8,1c0.2,0.4,0.4,0.8,0.5,1.2C30.1,95.6,30.2,96.1,30.2,96.6z M28.2,96.6
				c0-0.5-0.1-1-0.2-1.5c-0.1-0.4-0.4-0.8-0.6-1.1c-0.3-0.3-0.6-0.5-1-0.7C26,93.1,25.6,93,25.1,93s-0.9,0.1-1.3,0.2
				c-0.4,0.2-0.7,0.4-1,0.7c-0.3,0.3-0.5,0.7-0.6,1.1c-0.1,0.4-0.2,0.9-0.2,1.5c0,0.5,0.1,1,0.2,1.5c0.1,0.4,0.4,0.8,0.6,1.1
				c0.3,0.3,0.6,0.5,1,0.7c0.4,0.2,0.8,0.2,1.3,0.2s0.9-0.1,1.3-0.2c0.4-0.2,0.7-0.4,1-0.7c0.3-0.3,0.5-0.7,0.6-1.1
				C28.2,97.6,28.2,97.1,28.2,96.6z"/>
			<path class="st2" d="M33.7,97.6v3.9h-1.9v-10h3.1c0.7,0,1.3,0.1,1.7,0.2c0.5,0.1,0.9,0.3,1.2,0.6c0.3,0.3,0.5,0.6,0.7,0.9
				s0.2,0.7,0.2,1.2c0,0.3,0,0.7-0.1,1c-0.1,0.3-0.2,0.6-0.4,0.8c-0.2,0.2-0.4,0.5-0.7,0.6c-0.3,0.2-0.6,0.3-0.9,0.4
				c0.2,0.1,0.4,0.3,0.6,0.6l2.5,3.7h-1.7c-0.3,0-0.5-0.1-0.7-0.4L35.1,98c-0.1-0.1-0.2-0.2-0.3-0.3c-0.1-0.1-0.2-0.1-0.4-0.1H33.7z
				 M33.7,96.3h1.2c0.4,0,0.7,0,0.9-0.1c0.3-0.1,0.5-0.2,0.6-0.4c0.2-0.2,0.3-0.3,0.4-0.6c0.1-0.2,0.1-0.4,0.1-0.7
				c0-0.5-0.2-0.9-0.5-1.2S35.5,93,34.8,93h-1.2V96.3z"/>
			<path class="st2" d="M47.4,99.2c0.1,0,0.2,0,0.3,0.1l0.7,0.8c-0.4,0.5-0.9,0.9-1.5,1.2c-0.6,0.3-1.3,0.4-2.1,0.4
				c-0.7,0-1.4-0.1-2-0.4c-0.6-0.3-1.1-0.6-1.5-1.1c-0.4-0.5-0.7-1-1-1.6C40.1,98,40,97.3,40,96.6c0-0.8,0.1-1.4,0.4-2.1
				c0.2-0.6,0.6-1.2,1-1.6c0.4-0.5,1-0.8,1.6-1.1c0.6-0.3,1.3-0.4,2-0.4c0.7,0,1.4,0.1,1.9,0.4c0.6,0.2,1,0.6,1.4,0.9l-0.6,0.9
				c0,0.1-0.1,0.1-0.1,0.1c-0.1,0-0.1,0.1-0.2,0.1c-0.1,0-0.1,0-0.2-0.1s-0.2-0.1-0.2-0.1c-0.1-0.1-0.2-0.1-0.3-0.2
				c-0.1-0.1-0.2-0.1-0.4-0.2c-0.2-0.1-0.3-0.1-0.5-0.1c-0.2,0-0.4-0.1-0.7-0.1c-0.4,0-0.9,0.1-1.2,0.2c-0.4,0.2-0.7,0.4-1,0.7
				c-0.3,0.3-0.5,0.7-0.6,1.1c-0.1,0.4-0.2,0.9-0.2,1.5c0,0.6,0.1,1.1,0.2,1.5s0.4,0.8,0.6,1.1c0.3,0.3,0.6,0.5,1,0.7
				c0.4,0.2,0.8,0.2,1.2,0.2c0.3,0,0.5,0,0.7,0c0.2,0,0.4-0.1,0.6-0.1c0.2-0.1,0.3-0.1,0.5-0.2c0.2-0.1,0.3-0.2,0.5-0.3
				c0,0,0.1-0.1,0.1-0.1C47.3,99.2,47.4,99.2,47.4,99.2z"/>
			<path class="st2" d="M59,96.6c0,0.7-0.1,1.4-0.4,2c-0.2,0.6-0.6,1.2-1,1.6c-0.4,0.5-1,0.8-1.6,1.1c-0.6,0.3-1.3,0.4-2.1,0.4
				c-0.8,0-1.4-0.1-2.1-0.4c-0.6-0.3-1.2-0.6-1.6-1.1c-0.4-0.5-0.8-1-1-1.6c-0.2-0.6-0.4-1.3-0.4-2c0-0.7,0.1-1.4,0.4-2
				c0.2-0.6,0.6-1.2,1-1.6c0.4-0.5,1-0.8,1.6-1.1c0.6-0.3,1.3-0.4,2.1-0.4c0.5,0,1,0.1,1.4,0.2c0.4,0.1,0.9,0.3,1.2,0.5
				c0.4,0.2,0.7,0.5,1,0.8c0.3,0.3,0.6,0.6,0.8,1c0.2,0.4,0.4,0.8,0.5,1.2C59,95.6,59,96.1,59,96.6z M57.1,96.6c0-0.5-0.1-1-0.2-1.5
				c-0.1-0.4-0.4-0.8-0.6-1.1c-0.3-0.3-0.6-0.5-1-0.7C54.9,93.1,54.5,93,54,93s-0.9,0.1-1.3,0.2c-0.4,0.2-0.7,0.4-1,0.7
				c-0.3,0.3-0.5,0.7-0.6,1.1c-0.1,0.4-0.2,0.9-0.2,1.5c0,0.5,0.1,1,0.2,1.5c0.1,0.4,0.4,0.8,0.6,1.1c0.3,0.3,0.6,0.5,1,0.7
				c0.4,0.2,0.8,0.2,1.3,0.2s0.9-0.1,1.3-0.2c0.4-0.2,0.7-0.4,1-0.7s0.5-0.7,0.6-1.1C57.1,97.6,57.1,97.1,57.1,96.6z"/>
			<path class="st2" d="M65.9,98v3.5H64v-10h3.3c0.7,0,1.2,0.1,1.7,0.2c0.5,0.2,0.9,0.4,1.2,0.7c0.3,0.3,0.6,0.6,0.7,1
				c0.2,0.4,0.2,0.8,0.2,1.3c0,0.5-0.1,0.9-0.2,1.3c-0.2,0.4-0.4,0.8-0.7,1s-0.7,0.5-1.2,0.7C68.5,98,68,98,67.3,98H65.9z
				 M65.9,96.6h1.4c0.3,0,0.6,0,0.9-0.1c0.3-0.1,0.5-0.2,0.6-0.4c0.2-0.2,0.3-0.4,0.4-0.6c0.1-0.2,0.1-0.5,0.1-0.8
				c0-0.3,0-0.5-0.1-0.7c-0.1-0.2-0.2-0.4-0.4-0.6c-0.2-0.2-0.4-0.3-0.6-0.3C67.9,93,67.6,93,67.3,93h-1.4V96.6z"/>
			<path class="st2" d="M74.5,97.6v3.9h-1.9v-10h3.1c0.7,0,1.3,0.1,1.7,0.2c0.5,0.1,0.9,0.3,1.2,0.6c0.3,0.3,0.5,0.6,0.7,0.9
				s0.2,0.7,0.2,1.2c0,0.3,0,0.7-0.1,1c-0.1,0.3-0.2,0.6-0.4,0.8c-0.2,0.2-0.4,0.5-0.7,0.6c-0.3,0.2-0.6,0.3-0.9,0.4
				c0.2,0.1,0.4,0.3,0.6,0.6l2.5,3.7h-1.7c-0.3,0-0.5-0.1-0.7-0.4L76,98c-0.1-0.1-0.2-0.2-0.3-0.3c-0.1-0.1-0.2-0.1-0.4-0.1H74.5z
				 M74.5,96.3h1.2c0.4,0,0.7,0,0.9-0.1c0.3-0.1,0.5-0.2,0.6-0.4c0.2-0.2,0.3-0.3,0.4-0.6c0.1-0.2,0.1-0.4,0.1-0.7
				c0-0.5-0.2-0.9-0.5-1.2S76.4,93,75.7,93h-1.2V96.3z"/>
			<path class="st2" d="M90.9,96.6c0,0.7-0.1,1.4-0.4,2c-0.2,0.6-0.6,1.2-1,1.6c-0.4,0.5-1,0.8-1.6,1.1c-0.6,0.3-1.3,0.4-2.1,0.4
				c-0.8,0-1.4-0.1-2.1-0.4c-0.6-0.3-1.2-0.6-1.6-1.1c-0.4-0.5-0.8-1-1-1.6c-0.2-0.6-0.4-1.3-0.4-2c0-0.7,0.1-1.4,0.4-2
				c0.2-0.6,0.6-1.2,1-1.6c0.4-0.5,1-0.8,1.6-1.1c0.6-0.3,1.3-0.4,2.1-0.4c0.5,0,1,0.1,1.4,0.2c0.4,0.1,0.9,0.3,1.2,0.5
				c0.4,0.2,0.7,0.5,1,0.8c0.3,0.3,0.6,0.6,0.8,1c0.2,0.4,0.4,0.8,0.5,1.2C90.9,95.6,90.9,96.1,90.9,96.6z M89,96.6
				c0-0.5-0.1-1-0.2-1.5c-0.1-0.4-0.4-0.8-0.6-1.1c-0.3-0.3-0.6-0.5-1-0.7c-0.4-0.2-0.8-0.2-1.3-0.2c-0.5,0-0.9,0.1-1.3,0.2
				c-0.4,0.2-0.7,0.4-1,0.7c-0.3,0.3-0.5,0.7-0.6,1.1c-0.1,0.4-0.2,0.9-0.2,1.5c0,0.5,0.1,1,0.2,1.5c0.1,0.4,0.4,0.8,0.6,1.1
				c0.3,0.3,0.6,0.5,1,0.7c0.4,0.2,0.8,0.2,1.3,0.2c0.5,0,0.9-0.1,1.3-0.2c0.4-0.2,0.7-0.4,1-0.7s0.5-0.7,0.6-1.1
				C88.9,97.6,89,97.1,89,96.6z"/>
			<path class="st2" d="M96,98c0,0.6-0.1,1.1-0.2,1.5c-0.1,0.5-0.3,0.8-0.6,1.2c-0.3,0.3-0.6,0.6-1,0.7c-0.4,0.2-0.9,0.3-1.4,0.3
				c-0.2,0-0.5,0-0.7,0c-0.2,0-0.5-0.1-0.8-0.1c0-0.2,0-0.4,0-0.6c0-0.2,0-0.4,0-0.6c0-0.1,0.1-0.2,0.1-0.2c0.1-0.1,0.2-0.1,0.3-0.1
				c0.1,0,0.2,0,0.3,0c0.1,0,0.3,0,0.5,0c0.3,0,0.5,0,0.7-0.1c0.2-0.1,0.4-0.2,0.5-0.4c0.1-0.2,0.2-0.4,0.3-0.6
				c0.1-0.3,0.1-0.6,0.1-1v-6.5H96V98z"/>
			<path class="st2" d="M104.4,91.5V93H100v2.8h3.5v1.4H100v2.8h4.4v1.5h-6.3v-10H104.4z"/>
			<path class="st2" d="M112.7,99.2c0.1,0,0.2,0,0.3,0.1l0.7,0.8c-0.4,0.5-0.9,0.9-1.5,1.2c-0.6,0.3-1.3,0.4-2.1,0.4
				c-0.7,0-1.4-0.1-2-0.4c-0.6-0.3-1.1-0.6-1.5-1.1c-0.4-0.5-0.7-1-1-1.6c-0.2-0.6-0.3-1.3-0.3-2.1c0-0.8,0.1-1.4,0.4-2.1
				c0.2-0.6,0.6-1.2,1-1.6c0.4-0.5,1-0.8,1.6-1.1c0.6-0.3,1.3-0.4,2-0.4c0.7,0,1.4,0.1,1.9,0.4c0.6,0.2,1,0.6,1.4,0.9l-0.6,0.9
				c0,0.1-0.1,0.1-0.1,0.1s-0.1,0.1-0.2,0.1c-0.1,0-0.1,0-0.2-0.1c-0.1,0-0.2-0.1-0.2-0.1c-0.1-0.1-0.2-0.1-0.3-0.2
				c-0.1-0.1-0.2-0.1-0.4-0.2c-0.2-0.1-0.3-0.1-0.5-0.1c-0.2,0-0.4-0.1-0.7-0.1c-0.4,0-0.9,0.1-1.2,0.2c-0.4,0.2-0.7,0.4-1,0.7
				c-0.3,0.3-0.5,0.7-0.6,1.1c-0.1,0.4-0.2,0.9-0.2,1.5c0,0.6,0.1,1.1,0.2,1.5c0.2,0.4,0.4,0.8,0.6,1.1c0.3,0.3,0.6,0.5,1,0.7
				c0.4,0.2,0.8,0.2,1.2,0.2c0.3,0,0.5,0,0.7,0c0.2,0,0.4-0.1,0.6-0.1c0.2-0.1,0.3-0.1,0.5-0.2c0.2-0.1,0.3-0.2,0.5-0.3
				c0,0,0.1-0.1,0.1-0.1C112.6,99.2,112.7,99.2,112.7,99.2z"/>
			<path class="st2" d="M122,91.5v1.5h-3v8.5h-1.9v-8.5h-3v-1.5H122z"/>
			<path class="st2" d="M128.6,93.4c-0.1,0.1-0.1,0.2-0.2,0.2c-0.1,0-0.1,0.1-0.2,0.1c-0.1,0-0.2,0-0.3-0.1
				c-0.1-0.1-0.2-0.2-0.4-0.2c-0.2-0.1-0.3-0.2-0.6-0.2s-0.5-0.1-0.7-0.1c-0.3,0-0.5,0-0.7,0.1c-0.2,0.1-0.4,0.1-0.5,0.3
				c-0.1,0.1-0.2,0.2-0.3,0.4c-0.1,0.2-0.1,0.3-0.1,0.5c0,0.2,0.1,0.4,0.2,0.6c0.1,0.2,0.3,0.3,0.5,0.4c0.2,0.1,0.5,0.2,0.7,0.3
				c0.3,0.1,0.6,0.2,0.9,0.3c0.3,0.1,0.6,0.2,0.9,0.3c0.3,0.1,0.5,0.3,0.7,0.5c0.2,0.2,0.4,0.4,0.5,0.7c0.1,0.3,0.2,0.6,0.2,1.1
				c0,0.5-0.1,0.9-0.2,1.3c-0.2,0.4-0.4,0.7-0.7,1c-0.3,0.3-0.7,0.5-1.1,0.7c-0.4,0.2-0.9,0.3-1.5,0.3c-0.3,0-0.6,0-0.9-0.1
				c-0.3-0.1-0.6-0.2-0.9-0.3c-0.3-0.1-0.6-0.3-0.8-0.4c-0.2-0.2-0.5-0.3-0.7-0.5l0.5-0.9c0-0.1,0.1-0.1,0.2-0.2
				c0.1,0,0.2-0.1,0.2-0.1c0.1,0,0.2,0,0.4,0.1c0.1,0.1,0.3,0.2,0.5,0.3c0.2,0.1,0.4,0.2,0.6,0.3c0.2,0.1,0.5,0.1,0.9,0.1
				c0.5,0,0.9-0.1,1.2-0.4c0.3-0.3,0.4-0.6,0.4-1.1c0-0.3-0.1-0.5-0.2-0.6c-0.1-0.2-0.3-0.3-0.5-0.4c-0.2-0.1-0.5-0.2-0.7-0.3
				c-0.3-0.1-0.6-0.2-0.8-0.3c-0.3-0.1-0.6-0.2-0.8-0.3c-0.3-0.1-0.5-0.3-0.7-0.5c-0.2-0.2-0.4-0.5-0.5-0.8
				c-0.1-0.3-0.2-0.7-0.2-1.2c0-0.4,0.1-0.7,0.2-1.1c0.1-0.3,0.4-0.7,0.6-0.9c0.3-0.3,0.6-0.5,1-0.6s0.9-0.2,1.4-0.2
				c0.6,0,1.1,0.1,1.6,0.3c0.5,0.2,0.9,0.4,1.3,0.8L128.6,93.4z"/>
		</g>
		<g>
			<path class="st2" d="M6.2,111.9H5.9c0,0-0.1,0-0.1,0c0,0,0-0.1-0.1-0.1L5,110H2l-0.7,1.8c0,0,0,0.1-0.1,0.1c0,0-0.1,0-0.1,0H0.8
				l2.5-6.1h0.4L6.2,111.9z M2.1,109.7h2.7l-1.2-3.1c0-0.1-0.1-0.2-0.1-0.4c0,0.1,0,0.1-0.1,0.2c0,0.1,0,0.1-0.1,0.2L2.1,109.7z"/>
			<path class="st2" d="M11.3,109.8c0,0.3,0,0.6-0.1,0.9c-0.1,0.3-0.2,0.5-0.4,0.7c-0.2,0.2-0.3,0.3-0.6,0.4
				c-0.2,0.1-0.5,0.1-0.8,0.1c-0.1,0-0.3,0-0.4,0c-0.1,0-0.3-0.1-0.4-0.1c0,0,0-0.1,0-0.1c0,0,0-0.1,0-0.1c0,0,0,0,0-0.1
				c0,0,0,0,0.1,0c0,0,0.1,0,0.1,0c0,0,0.1,0,0.1,0c0,0,0.1,0,0.2,0c0.1,0,0.1,0,0.2,0c0.2,0,0.4,0,0.6-0.1c0.2-0.1,0.3-0.2,0.4-0.3
				c0.1-0.1,0.2-0.3,0.3-0.5c0.1-0.2,0.1-0.5,0.1-0.8v-4.1h0.4V109.8z"/>
			<path class="st2" d="M12.5,105.8h0.3c0,0,0.1,0,0.1,0c0,0,0,0,0.1,0.1l2.1,5.1c0,0.1,0,0.1,0.1,0.2c0,0.1,0,0.1,0.1,0.2
				c0-0.1,0-0.1,0.1-0.2c0-0.1,0-0.1,0.1-0.2l2.1-5.1c0,0,0-0.1,0.1-0.1c0,0,0.1,0,0.1,0h0.3l-2.5,6.1H15L12.5,105.8z"/>
			<path class="st2" d="M20.5,105.8h0.4c0.1,0,0.1,0,0.2,0.1l1.5,5c0,0.1,0.1,0.2,0.1,0.4c0-0.1,0-0.1,0-0.2c0-0.1,0-0.1,0.1-0.2
				l1.7-5c0,0,0-0.1,0.1-0.1c0,0,0.1,0,0.1,0h0.1c0,0,0.1,0,0.1,0c0,0,0,0,0.1,0.1l1.7,5c0,0.1,0,0.1,0.1,0.2c0,0.1,0,0.1,0,0.2
				c0-0.1,0-0.1,0-0.2c0-0.1,0-0.1,0-0.2l1.5-5c0,0,0-0.1,0.1-0.1c0,0,0.1,0,0.1,0h0.3l-1.9,6.1h-0.4l-1.8-5.3c0-0.1,0-0.1-0.1-0.2
				c0,0.1,0,0.2-0.1,0.2l-1.8,5.3h-0.4L20.5,105.8z"/>
			<path class="st2" d="M30.7,111.9h-0.4v-6.1h0.4V111.9z"/>
			<path class="st2" d="M36.7,105.8v0.4h-2.1v5.7h-0.4v-5.7h-2.2v-0.4H36.7z"/>
			<path class="st2" d="M42.6,111.9h-0.4v-2.9h-3.8v2.9h-0.4v-6.1h0.4v2.9h3.8v-2.9h0.4V111.9z"/>
			<path class="st2" d="M49.4,111.6c0.3,0,0.6-0.1,0.8-0.2c0.2-0.1,0.4-0.2,0.6-0.4c0.2-0.2,0.3-0.4,0.4-0.6
				c0.1-0.2,0.1-0.5,0.1-0.8v-3.8h0.4v3.8c0,0.3-0.1,0.7-0.2,0.9c-0.1,0.3-0.3,0.5-0.5,0.8c-0.2,0.2-0.4,0.4-0.7,0.5
				c-0.3,0.1-0.6,0.2-1,0.2c-0.4,0-0.7-0.1-1-0.2c-0.3-0.1-0.5-0.3-0.7-0.5c-0.2-0.2-0.4-0.5-0.5-0.8c-0.1-0.3-0.2-0.6-0.2-0.9v-3.8
				h0.4v3.8c0,0.3,0,0.5,0.1,0.8c0.1,0.2,0.2,0.5,0.4,0.6c0.2,0.2,0.4,0.3,0.6,0.4C48.9,111.5,49.1,111.6,49.4,111.6z"/>
			<path class="st2" d="M54,105.8C54,105.8,54,105.8,54,105.8l4,5.4c0-0.1,0-0.2,0-0.3v-5.1h0.4v6.1h-0.2c0,0-0.1,0-0.1,0
				c0,0,0,0-0.1-0.1l-4-5.3c0,0.1,0,0.2,0,0.2v5.1h-0.4v-6.1L54,105.8C54,105.8,54,105.8,54,105.8z"/>
			<path class="st2" d="M60.9,111.9h-0.4v-6.1h0.4V111.9z"/>
			<path class="st2" d="M66.9,105.8v0.4h-2.1v5.7h-0.4v-5.7h-2.2v-0.4H66.9z"/>
			<path class="st2" d="M71.8,105.8v0.4h-3.2v2.5h2.7v0.4h-2.7v2.5h3.2l0,0.4h-3.7v-6.1H71.8z"/>
			<path class="st2" d="M78.5,108.8c0,0.5-0.1,0.9-0.2,1.3c-0.1,0.4-0.3,0.7-0.6,1c-0.3,0.3-0.6,0.5-0.9,0.6
				c-0.4,0.1-0.8,0.2-1.2,0.2h-2.2v-6.1h2.2c0.4,0,0.8,0.1,1.2,0.2c0.4,0.1,0.7,0.3,0.9,0.6c0.3,0.3,0.5,0.6,0.6,1
				C78.4,107.9,78.5,108.3,78.5,108.8z M78,108.8c0-0.4-0.1-0.8-0.2-1.1c-0.1-0.3-0.3-0.6-0.5-0.8c-0.2-0.2-0.5-0.4-0.8-0.5
				c-0.3-0.1-0.6-0.2-1-0.2h-1.8v5.4h1.8c0.4,0,0.7-0.1,1-0.2c0.3-0.1,0.6-0.3,0.8-0.5c0.2-0.2,0.4-0.5,0.5-0.8
				C78,109.6,78,109.2,78,108.8z"/>
			<path class="st2" d="M87.4,111.9h-0.4v-2.9h-3.8v2.9h-0.4v-6.1h0.4v2.9h3.8v-2.9h0.4V111.9z"/>
			<path class="st2" d="M93.1,105.8v0.4h-3.2v2.5h2.7v0.4h-2.7v2.5h3.2l0,0.4h-3.7v-6.1H93.1z"/>
			<path class="st2" d="M99.3,111.9h-0.3c0,0-0.1,0-0.1,0c0,0,0-0.1-0.1-0.1l-0.7-1.8h-3l-0.7,1.8c0,0,0,0.1-0.1,0.1
				c0,0-0.1,0-0.1,0h-0.3l2.5-6.1h0.4L99.3,111.9z M95.2,109.7h2.7l-1.2-3.1c0-0.1-0.1-0.2-0.1-0.4c0,0.1,0,0.1-0.1,0.2
				c0,0.1,0,0.1-0.1,0.2L95.2,109.7z"/>
			<path class="st2" d="M99.3,105.8h0.3c0,0,0.1,0,0.1,0c0,0,0,0,0.1,0.1l2.1,5.1c0,0.1,0,0.1,0.1,0.2c0,0.1,0,0.1,0.1,0.2
				c0-0.1,0-0.1,0.1-0.2c0-0.1,0-0.1,0.1-0.2l2.1-5.1c0,0,0-0.1,0.1-0.1c0,0,0.1,0,0.1,0h0.3l-2.5,6.1h-0.4L99.3,105.8z"/>
			<path class="st2" d="M107.8,109.4v2.5h-0.4v-2.5l-2.3-3.6h0.4c0,0,0.1,0,0.1,0c0,0,0,0,0.1,0.1l1.7,2.8c0,0.1,0.1,0.1,0.1,0.2
				c0,0.1,0.1,0.1,0.1,0.2c0-0.1,0-0.1,0.1-0.2c0-0.1,0.1-0.1,0.1-0.2l1.7-2.8c0,0,0-0.1,0.1-0.1c0,0,0.1,0,0.1,0h0.4L107.8,109.4z"
				/>
			<path class="st2" d="M114,111.5h2.9v0.4h-3.3v-6.1h0.4V111.5z"/>
			<path class="st2" d="M118.6,111.9h-0.4v-6.1h0.4V111.9z"/>
			<path class="st2" d="M124.3,105.8v0.4H121v2.6h2.8v0.4H121v2.8h-0.4v-6.1H124.3z"/>
			<path class="st2" d="M129.7,105.8v0.4h-2.1v5.7h-0.4v-5.7h-2.2v-0.4H129.7z"/>
		</g>
	</g>
	<g class="st3">
		<path class="st1" d="M65,139c-1.2,0-4-0.8-6.4-2.1c-1.7-0.9-4.5-2.8-4.5-5.1c0-1.3,0.5-4.7,5.1-7c0.2-0.1,0.4-0.1,0.5-0.1
			c0.2,0,0.4,0.1,0.4,0.2c0.1,0.2,0.1,0.5-0.1,0.7c-2.2,2.9-2,4.5-1.6,5.2c0.3,0.7,1,1,1.8,1c2.3,0,2.4-1.8,2.4-1.8v-5.6
			c0-1-0.8-1.1-1.1-1.2v-5h7.1v5c-0.3,0-1.1,0.2-1.1,1.2v5.6c0,0,0,1.8,2.4,1.8c0.8,0,1.4-0.4,1.8-1c0.3-0.7,0.6-2.3-1.6-5.2
			c-0.2-0.2-0.2-0.5-0.1-0.7c0.1-0.2,0.2-0.2,0.4-0.2c0.2,0,0.3,0,0.5,0.1c4.6,2.3,5.1,5.7,5.1,7c0,2.3-2.8,4.2-4.5,5.1
			C69,138.2,66.2,139,65,139 M65,131.7c-1,0-2.1,0.7-2.1,2.1c0,1.5,1.1,2.1,2.1,2.1c1,0,2.1-0.7,2.1-2.1
			C67.1,132.4,66,131.7,65,131.7L65,131.7z"/>
		<path class="st2" d="M68.5,118.5v4.8c-0.5,0.1-1.1,0.4-1.1,1.2v5.6c0,0,0,1.9,2.5,1.9c0.8,0,1.5-0.4,1.8-1.1
			c0.4-0.7,0.6-2.4-1.6-5.3c-0.1-0.2-0.2-0.4-0.1-0.6c0.1-0.1,0.2-0.2,0.4-0.2c0.1,0,0.3,0,0.5,0.1c1.9,0.9,3.3,2.2,4.2,3.7
			c0.8,1.4,0.9,2.6,0.9,3.3c0,0.9-0.4,1.8-1.3,2.7c-0.8,0.8-1.8,1.6-3.1,2.3c-2.4,1.3-5.2,2.1-6.4,2.1c-1.2,0-3.9-0.8-6.4-2.1
			c-1.3-0.7-2.4-1.5-3.1-2.3c-0.9-0.9-1.3-1.8-1.3-2.7c0-0.6,0.1-1.9,0.9-3.3c0.9-1.5,2.3-2.7,4.2-3.7c0.2-0.1,0.4-0.1,0.5-0.1
			c0.2,0,0.3,0.1,0.4,0.2c0.1,0.2,0,0.4-0.1,0.6c-2.3,3-2,4.6-1.6,5.3c0.3,0.7,1,1.1,1.8,1.1c2.4,0,2.5-1.8,2.5-1.9v-5.6
			c0-0.9-0.6-1.2-1.1-1.2v-4.8H65H68.5 M65,131.7L65,131.7c-1.1,0-2.2,0.8-2.2,2.2c0,0.6,0.2,1.1,0.6,1.5c0.4,0.5,1,0.7,1.7,0.7
			c0.8,0,1.5-0.4,1.9-1c0.4-0.7,0.4-1.7,0-2.4C66.5,132,65.8,131.7,65,131.7L65,131.7L65,131.7 M68.6,118.3H65h-3.6v5.2
			c0,0,1.1,0,1.1,1.1v5.6c0,0,0,1.7-2.3,1.7c-1.7,0-3.2-2-0.1-6.1c0.3-0.4,0.2-1.1-0.4-1.1c-0.2,0-0.3,0-0.6,0.1
			c-4.4,2.2-5.2,5.4-5.2,7.1c0,4.1,8.5,7.2,11,7.2c2.5,0,11-3.2,11-7.2c0-1.7-0.8-4.9-5.2-7.1c-0.2-0.1-0.4-0.1-0.6-0.1
			c-0.6,0-0.7,0.7-0.4,1.1c3.2,4.1,1.6,6.1-0.1,6.1c-2.3,0-2.3-1.7-2.3-1.7v-5.6c0-1.1,1.1-1.1,1.1-1.1V118.3z M65,131.8L65,131.8
			C65,131.8,65,131.8,65,131.8c2.7,0,2.7,4.1,0,4.1C62.3,135.9,62.3,131.8,65,131.8C65,131.8,65,131.8,65,131.8"/>
	</g>
</g>
</svg>
