<?xml version="1.0" encoding="utf-8"?>
<!-- Generator: Adobe Illustrator 22.0.1, SVG Export Plug-In . SVG Version: 6.00 Build 0)  -->
<svg version="1.1" id="Layer_1" xmlns="http://www.w3.org/2000/svg" xmlns:xlink="http://www.w3.org/1999/xlink" x="0px" y="0px"
	 viewBox="0 0 130 70" style="enable-background:new 0 0 130 70;" xml:space="preserve">
<style type="text/css">
	.st0{fill-rule:evenodd;clip-rule:evenodd;fill:#FFFFFF;}
</style>
<g>
	<g>
		<path class="st0" d="M56.4,5.6c0,0,0.4,2.5-1.4,2.9c-1.5,0.4-2.6,0-4,0.1c-1.4,0.1-1.9,0.8-3.8,0.7c-1.9-0.1-2.9-0.9-3.8-3.3
			c0.8,0.5,1.9,1.3,3.6,1.3s2.4-0.6,3.4-0.7c1.1-0.1,2.7,0,3.5,0C54.6,6.6,55.6,6.3,56.4,5.6"/>
		<path class="st0" d="M43.2,8.8c0,0,0.5,2.6,3.1,3.1c2.6,0.5,2.7-0.4,4.9-0.5c1.8-0.1,1.9,0.5,3.6,0.2c1.7-0.3,1.9-1.9,1.6-3.1
			c-0.2,0.3-0.6,0.8-1.6,0.9c-1.2,0.2-2.1,0-3.3,0c-1.2,0-2.7,0.8-4.7,0.7C44.7,10,43.2,8.8,43.2,8.8"/>
		<path class="st0" d="M78.5,39.3C78.5,39.3,78.5,39.3,78.5,39.3c1.3,3.8,2,8.7,0.8,13.4c-2.1,7.6-6.9,11.2-11.9,13
			c-5,1.8-12.5,1.5-17.4-2.7c-4.5-3.8-5.8-8.7-6.4-12.7c-0.6-3.9-2.4-5.1-3.5-5.8c-1.1-0.8-1.3-2.7-1.3-2.7s2.1-0.2,4,0.6
			c1.6,0.6,3.4,3.2,4,4.4c0.4-1.2,2.3-3.6,3.9-4.4c1.6-0.8,3.3-0.7,4.1-0.6c-0.2,2.1-1.4,2.8-2.3,3.3c-0.8,0.6-1.6,1.7-1.9,3
			c-0.9,4.3,2.2,10.5,9.3,10.8c6.4,0.3,10.2-5.3,10.1-9.6c-0.1-3.5,0-4.7,0-6.1c-2.4-0.5-3.1-1-4-2.6c-0.2-0.3-0.4-0.9-0.5-1.4
			l-2.2,0c0.1,0.7,0.3,1.4,0.6,2.1c1.2,2.9,3.9,3.4,3.9,3.4s0.2,1.9,0,5.1c-0.2,3.2-2.6,5.3-3.8,6c-2.4,1.5-5.4,1.1-7.3,0.2
			c-2-0.9-3.3-2.9-3.7-4.5c-0.3-0.9-1.1-3.4,0.7-4.8c2-1.5,2.5-2.3,3-3.3c0.3-0.7,0.6-3.1,0.7-4.2c-0.5,0.3-1.6,0.3-2.4,0.3
			c-0.8,0-2.6-0.2-4.7,0.6c-2.1,0.8-3.4,2.8-3.4,2.8s-1-1.5-2.9-2.6c-1.9-1.1-4.4-0.9-5.9-0.9c-1.6,0-1.9-0.3-1.9-0.3
			s0.4,2.8,0.6,3.6c0.2,0.8,0.9,2.5,2.3,3.3c1.2,0.7,1.6,1.5,2.1,2.8c0.4,1.2,0.4,2.5,1.6,6.5c1.1,3.9,4.4,9.2,9.9,11.6
			c5.3,2.3,12.6,2.4,18-0.3c7.7-3.9,10.4-10.5,11.1-15c0.7-4.3,0.2-8.4-1-12.5L78.5,39.3z M56.8,11.4c-0.1,0.1-1,1.1-2.1,1.2
			c-1.3,0.1-2.3-0.4-3.2-0.3c-1,0.1-2.8,0.6-3.9,0.7c-1.1,0.1-2.2-0.5-2.2-0.5s0.5,0.9,1.5,1.8c1,0.9,2.6,0.7,3.5,0.4
			s1.8-0.3,2.5-0.1c0.7,0.2,1.7,0.3,2.5,0c0.2,0.4,0.6,1.9,0.5,3.3c-0.3,3-0.6,3.9-0.2,6.2c0.2,1.3,0.9,2.7,1.6,4h2.4
			c-0.9-1.2-1.8-2.8-2-4.1c-0.5-2.2,0-4.9,0.2-6.5C58.1,15.9,56.9,11.8,56.8,11.4 M88.1,6.5c-0.3-0.2-2.2-1.5-2.8-2.1
			c-0.4-0.4-1.6-1.4-2.5-2.3c-0.8-0.9-1.5-1.2-2.3-0.6c-0.8,0.6-0.3,1.6-0.3,1.6s-0.5,0.5-0.9,0.8c-0.4-0.4-1.1-0.6-1.7-0.1
			c-0.6,0.4-0.6,1.3-0.3,1.7c-0.2,0.2-1,0.6-1,0.6s-0.5-0.8-1.5-0.3c-0.9,0.5-0.6,1.4-0.6,1.4s-1.2,0.7-3.4,1
			c-2.2,0.3-3.5,0.1-3.5,0.1s0.4-0.4,0.6-0.7c0.3-0.3,0.5-0.9-0.3-1.2c-0.8-0.4-3.7-1.3-4.2-1.5c-0.5-0.9-1.3-2.1-2-2.3
			c-1.1-0.4-3.4-0.4-4.5-0.3c-1.6,0.2-3.1,1.4-4,1.5c-0.7,0.1-0.8-0.1-2.6,0c-1.8,0.1-2.3,0.7-3.6,0.8c-1.3,0.1-3.5-1-4.3-1.5
			c0.9,2.7,3.3,3.4,4.6,3.4c1.5,0,2.6-0.7,3.5-0.7c0.6,0,0.8,0,1.8,0c1,0,1.9,0,2.8-0.3c0.8-0.4,1.1-0.9,2.4-1c0.4,0,2.7,0,3.1,0.1
			C61,4.7,61.5,5.4,62,6.4c1.4,0.3,3.1,1.1,3.4,1.3C65.6,8,64.9,8.5,64.4,9c0.7,0.7,1.6,2.3,2.1,3.8c0.4,1.2-0.4,1.5-1.1,1.8
			c-0.8,0.3-2.3,0.3-2.3,0.3s0,1.1,0.4,2.4c0.4,1.4,1.6,3.3,1.6,3.3s-1.3,0.3-2.1,0.7c-1.1,0.7-1.5,1.6-1.5,1.6s3.1-0.4,4.8-0.6
			c1.7-0.1,6.1-0.5,6.5-0.5c0.4,0,0.3-0.2,0.2-0.4c-0.5-2.4-3.6-7.6-4-8.1c0-1-0.6-2.2-0.9-2.7c0.4,0,1.3,0,2.2-0.1
			c1-0.1,1.9-0.3,2-0.3c0.2,0,0.5,1.8,0.6,2.4c0.1,0.6,0.8,3.2,2.6,6.1c1.3,2.1,2.7,5.2,2.8,5.6c0.1,0.4,0.3,0.6-3.9,1.6
			c0,0,0.2,0.4,0.4,1.1c0.1,0.4,0.3,0.9,0.3,0.9c1.3-0.3,3.7-1.1,4.8-1.5c1.2-0.5,1.4-0.8,1.2-1.5c-0.2-0.9-1-2.5-3-5.9
			c-2.3-4.1-2.6-4.8-2.6-5.4c0.1,0.1,0.5,0.2,1,0.1c0.5-0.1,0.7-0.6,0.7-1.1c0.3,0,1.5-0.3,1.5-0.3s0.7,0.6,1.7,0.4
			c1.1-0.3,1-1.3,1-1.3s1.3-0.5,1.7-0.8c0.1,0.2,0.9,0.6,1.9,0.2c0.9-0.4,0.6-1.4,0.6-1.4s0.8-0.6,1.1-0.9c0.4,0.3,1.1,0.5,1.7,0
			C89,7.8,88.7,6.9,88.1,6.5 M68.9,17.4c0.3,0.6,1.3,2.6,1.3,2.6s-1,0-1.6,0c-0.5,0-1,0.1-1,0.1s-0.7-0.8-1.3-1.8
			c-0.5-1-0.6-1.9-0.6-1.9c0.8,0,1.9-0.5,2.1-0.9C68,15.7,68.5,16.8,68.9,17.4 M74.8,10.9c-0.1-0.5-0.3-1-0.4-1.4c0,0,1-0.4,1.3-0.6
			c0.2,0.3,1.3,1.6,1.3,1.6S75.7,10.9,74.8,10.9 M79.5,9.8c-0.5-0.3-1.8-2-1.8-2s1.1-0.6,1.4-0.9c0.3,0.3,2.2,2.1,2.2,2.1
			S80,9.7,79.5,9.8 M83.3,7.9c-0.5-0.4-2.4-2.2-2.4-2.2s1.1-0.8,1.2-1.1c0.3,0.3,2.5,2.3,2.5,2.3S83.8,7.7,83.3,7.9"/>
	</g>
	<path class="st0" d="M6,37.9H3.5c0.4-0.6,0.4-1.6,0.4-2.5v-8.7H1.3c-0.4,0-0.9,0.1-1.3,0.4l0.4-1.4h9.5c-0.3,0.8-1.5,0.9-2.3,0.9
		H5.6v8.7C5.6,36.2,5.6,37.2,6,37.9 M17.2,31.6v4.3c0,0.7,0,1.5,0.3,2h-1.7v-5.2c0-1.2-0.2-2.5-1.7-2.5c-1.5,0-1.8,1.3-1.8,2.6v3.1
		c0,0.7,0,1.5,0.3,2h-2.1c0.3-0.5,0.3-1.3,0.3-2v-9c0-0.8,0-1.5-0.5-1.9l1.9-0.3v5.4c0,0.2,0,0.3,0.1,0.3c0.1,0,0.9-1.2,2.5-1.2
		C16.3,29.1,17.2,29.8,17.2,31.6 M24.6,32.4h-3.4c0,0.4-0.1,0.7-0.1,1.1c0,1.8,0.8,3.5,2.8,3.5c0.9,0,1.8-0.4,2.3-0.9v0.2
		c0,1-1.6,1.9-3,1.9c-2.5,0-3.7-2.2-3.7-4.5c0-2.5,1.4-4.5,4-4.5c1.8,0,2.9,1.2,2.9,2.4C26.4,32.4,25.7,32.4,24.6,32.4 M21.3,31.8h2
		c0.9,0,1.4,0,1.4-0.7c0-0.7-0.5-1.4-1.4-1.4C22,29.7,21.5,30.8,21.3,31.8 M31.5,37.5v-2c0.6,0.8,1.4,1.9,3.4,1.9
		c1.4,0,2.5-0.9,2.5-2.4c0-3.2-5.4-2.8-5.4-6.3c0-2.2,1.8-3.3,3.8-3.3c1,0,2,0.1,2.9,0.1v1.8c-0.9-0.9-1.4-1.1-2.6-1.1
		c-1.3,0-2.3,0.7-2.3,2.1c0,2.9,5.4,2.6,5.4,6.2c0,2.4-2.3,3.7-4.4,3.7C33.9,38.2,32.4,37.9,31.5,37.5 M45,29.4h2.2
		C47.1,29.6,47,29.7,47,30c0,0.5,0.3,1.4,0.4,1.9l0.9,3.5c0.1,0.3,0.1,0.7,0.3,0.7c0.2,0,0.2-0.4,0.4-0.9c0.4-1.3,0.9-3.4,0.9-4.8
		c0-0.4,0-0.7-0.1-1h1.7c-0.4,0.4-0.6,1-0.8,1.7L48.9,38h-1.2l-1.6-5.4c-0.1-0.3-0.2-0.7-0.3-0.7c-0.1,0-0.2,0.2-0.3,0.5L43.7,38
		h-1.2l-0.8-4.4c-0.3-1.7-0.7-3.4-1.2-4.2c0.4,0,1.2-0.1,1.4-0.1c0.4,0,0.4,0.3,0.5,0.9l0.9,5.2c0.1,0.4,0.1,0.8,0.2,0.8
		c0.1,0,0.2-0.3,0.3-0.6c0.7-1.9,1.4-4.1,1.4-5.2C45.2,30.1,45.1,29.6,45,29.4 M57.6,32.4h-3.4c0,0.4-0.1,0.7-0.1,1.1
		c0,1.8,0.8,3.5,2.8,3.5c0.3,0,1.8-0.4,2.3-0.9v0.2c0,1-1.6,1.9-3,1.9c-2.5,0-3.7-2.2-3.7-4.5c0-2.5,1.4-4.5,4-4.5
		c1.8,0,2.9,1.2,2.9,2.4C59.4,32.4,58.8,32.4,57.6,32.4 M54.3,31.8h2c0.9,0,1.4,0,1.4-0.7c0-0.7-0.5-1.4-1.4-1.4
		C55,29.7,54.5,30.8,54.3,31.8 M68.9,37.9l-1.7,0.2l-0.1-0.7c0-0.1,0-0.2-0.1-0.2c-0.1,0-0.8,1-2.6,1c-2.3,0-3.3-2.2-3.3-4.2
		c0-3,2-4.8,5-4.8c0.3,0,0.7,0,1,0.1v-2.4c0-0.8,0-1.5-0.4-1.9l1.8-0.3v11.2C68.6,36.5,68.6,37.4,68.9,37.9 M67.2,35.3v-4.1
		c0-0.9-0.2-1.4-1.2-1.4c-2.1,0-3.2,1.6-3.2,3.8c0,1.7,0.8,3.6,2.8,3.6C66.7,37.2,67.2,36.3,67.2,35.3 M71.4,29.4l1.8-0.3v6.7
		c0,0.7,0,1.5,0.3,2h-2.1c0.3-0.5,0.3-1.3,0.3-2v-5.1C71.8,30,71.8,29.7,71.4,29.4 M77.7,30.8c0,2.3,3.9,2,3.9,4.6
		c0,1.8-1.7,2.7-3.4,2.7c-0.8,0-1.4-0.2-2.1-0.4c-0.2-0.1-0.3-0.2-0.3-0.4c0-0.5,0.1-0.9,0.1-1.4c0.6,0.9,1.1,1.5,2.3,1.5
		c1.1,0,1.8-0.5,1.8-1.6c0-2.3-3.8-1.9-3.8-4.7c0-1.4,1.1-2,2.9-2c0.6,0,1.2,0.1,1.7,0.2c0.1,0,0.2,0.1,0.2,0.2l0,1.3
		c-0.7-0.9-1.1-1.1-2-1.1C78.4,29.7,77.7,30,77.7,30.8 M90.2,31.6v4.3c0,0.7,0,1.5,0.3,2h-1.7v-5.2c0-1.2-0.2-2.5-1.7-2.5
		c-1.5,0-1.8,1.3-1.8,2.6v3.1c0,0.7,0,1.5,0.3,2h-2.1c0.3-0.5,0.3-1.3,0.3-2v-9c0-0.8,0-1.5-0.5-1.9l1.9-0.3v5.4
		c0,0.2,0,0.3,0.1,0.3c0.1,0,0.9-1.2,2.5-1.2C89.3,29.1,90.2,29.8,90.2,31.6 M105.8,25.6l-0.1,2.4h-0.1c-0.5-0.8-1.1-1.7-3.1-1.7
		c-3,0-4.2,2.4-4.2,5.1c0,3,1.5,5.3,4.6,5.3c1.6,0,2.7-0.7,3.3-1.3v0.1c0,0.9-1.4,2.6-4.3,2.6c-3.5,0-5.6-2.7-5.6-6.2
		c0-3.9,2.3-6.5,6.1-6.5C103.7,25.5,104.5,25.6,105.8,25.6 M110.4,37.9h-2.1c0.3-0.5,0.3-1.3,0.3-2v-9c0-0.8,0-1.5-0.5-1.9l1.9-0.3
		v11.2C110.1,36.5,110.1,37.3,110.4,37.9 M118.2,34v-3.3c0-0.6,0-1-0.4-1.3l1.8-0.3V36c0,0.8,0,1.5,0.4,1.9l-1.8,0.1v-0.7
		c0-0.2,0-0.3-0.1-0.3c-0.1,0-0.9,1.2-2.5,1.2c-1.3,0-2.3-0.9-2.3-2.5v-5c0-0.6,0-1-0.4-1.3c0.5-0.1,1.3-0.2,1.5-0.2
		c0.2,0,0.3,0.2,0.3,0.4v5.1c0,1.2,0.2,2.5,1.7,2.5C118.1,37.1,118.2,35.2,118.2,34 M122.8,33.1v-6.3c0-0.8-0.1-1.5-0.6-1.9l2-0.3
		v5.9c0,0,0,0.1,0.1,0.1c0.2,0,1.1-1.5,2.7-1.5c2.3,0,3.1,2.4,3.1,4.4c0,2.5-1.2,4.7-4,4.7c-1.2,0-1.9-0.3-3.3-0.3L122.8,33.1z
		 M128.5,33.8c0-1.6-0.6-3.5-2.2-3.5c-1.3,0-2.1,1.1-2.1,2.9v1.5c0,1.5,0.2,2.8,1.9,2.8C128.1,37.5,128.5,35.4,128.5,33.8
		 M71.4,26.9l1.4-0.9l0.9,1.3l-1.4,0.9L71.4,26.9z"/>
</g>
</svg>
