<?xml version="1.0" encoding="utf-8"?>
<!-- Generator: Adobe Illustrator 22.0.1, SVG Export Plug-In . SVG Version: 6.00 Build 0)  -->
<svg version="1.1" id="Layer_1" xmlns="http://www.w3.org/2000/svg" xmlns:xlink="http://www.w3.org/1999/xlink" x="0px" y="0px"
	 viewBox="0 0 130 70" style="enable-background:new 0 0 130 70;" xml:space="preserve">
<style type="text/css">
	.st0{opacity:0.5;}
</style>
<g class="st0">
	<path d="M83.3,8.7c-0.1-0.1,16.9-6.5,39.1-6.3c0,0,2.7,2.9,3.6,6.3C125.9,8.7,106.1,7.3,83.3,8.7z"/>
	<path d="M85.7,14.1c0,0,31.5-1.8,42.1,0c0,0,2.2,1.5,2.2,9.8c0,20.2-24.2,33.8-33.4,43.8c7.1-17.8,22.6-27.2,22.6-44.4
		c0-3.7-0.5-5.2-0.5-5.2S100.7,15.3,85.7,14.1z"/>
	<g>
		<path d="M91,27.7l-0.6-2.4h11.9v1.2c0,0-6.1,5.9-7.4,16.3h-3c0,0,0.3-5.7,6.5-15.2L91,27.7z"/>
		<path d="M8.6,25.1C3.1,25.1,0,29,0,34c0,4.9,3.1,8.9,8.6,8.9c5.5,0,8.6-4,8.6-8.9C17.3,29,14.2,25.1,8.6,25.1z M8.6,40.7
			c-3.7,0-5.8-3-5.8-6.7c0-3.7,2.1-6.7,5.8-6.7c3.7,0,5.8,3,5.8,6.7C14.5,37.7,12.4,40.7,8.6,40.7z"/>
		<path d="M33.6,41.8l-0.8-2.2c0,0-1.3,1.1-4.4,1.1c-3.7,0-5.8-3-5.8-6.7c0-3.7,2.2-6.7,5.8-6.7s4.9,1.4,4.9,1.4V26
			c0,0-1-0.9-4.9-0.9c-5.5,0-8.6,4-8.6,8.9c0,4.9,3.1,8.9,8.6,8.9C32.1,42.8,33.6,41.8,33.6,41.8z"/>
		<polygon points="44.6,27.4 45.6,25.1 36.1,25.1 36.1,42.8 45.6,42.8 45.6,40.5 38.9,40.5 38.9,35 44.6,35 44.6,32.7 38.9,32.7 
			38.9,27.4 		"/>
		<path d="M57.5,25.1h-2l-6.8,17.8h3l1.6-4.5h6.6l1.6,4.5h3L57.5,25.1z M54.1,36l2.5-6.7L59,36H54.1z"/>
		<polygon points="66.8,42.8 66.8,25.3 69.5,25.3 79.3,38.2 79.3,25.3 82.1,25.3 82.1,42.9 79.5,42.9 69.4,29.5 69.4,42.8 		"/>
		<path d="M51.2,48.1c-0.3-0.2-0.6-0.3-1-0.3H49c-0.5,0-0.6,0.2-0.6,0.2v5.5h0.7l0-2.2h1.3c0.1,0,0.3,0,0.4-0.1
			c0.4-0.1,1.2-0.6,1.2-1.7C52,48.8,51.6,48.3,51.2,48.1z M50.7,50.5c-0.2,0.1-0.3,0.2-0.5,0.2h-1.1v-2.3h1.1c0.1,0,0.3,0,0.4,0.1
			c0.2,0.1,0.5,0.4,0.5,1C51.2,50.1,51,50.4,50.7,50.5z"/>
		<path d="M57.4,51.1c0.4-0.2,0.9-0.7,0.9-1.5c0-0.8-0.4-1.2-0.8-1.5c-0.3-0.2-0.6-0.3-1-0.3h-1.2c-0.5,0-0.6,0.2-0.6,0.2v5.5h0.7
			l0-2.2h1.3c0.7,0,0.9,2.2,0.9,2.2h0.8C58.2,53.4,58,51.3,57.4,51.1z M55.4,50.7v-2.3h1.1c0.1,0,0.3,0,0.4,0.1
			c0.2,0.1,0.5,0.4,0.5,1c0,0.5-0.2,0.8-0.4,1c-0.2,0.1-0.3,0.2-0.5,0.2H55.4z"/>
		<path d="M63.4,47.8c-1.7,0-2.5,1.3-2.5,2.9c0,1.6,0.8,2.9,2.5,2.9c1.7,0,2.5-1.3,2.5-2.9C65.9,49.1,65.2,47.8,63.4,47.8z M63.4,53
			c-1.3,0-1.7-1-1.7-2.3c0-1.3,0.6-2.3,1.7-2.3c1.2,0,1.7,1,1.7,2.3C65.2,52,64.7,53,63.4,53z"/>
		<path d="M69.9,47.8h0.9V52c0,0.9-0.7,1.5-1.5,1.5h-1v-0.6h0.9c0.4,0,0.8-0.4,0.8-0.8L69.9,47.8z"/>
		<polygon points="76.9,48.5 76.9,47.8 73.8,47.8 73.8,53.5 77.1,53.5 77.1,52.9 74.6,52.9 74.6,51 76.7,51 76.7,50.3 74.5,50.3 
			74.5,48.5 		"/>
		<path d="M83.7,53.4l0-0.6c0,0-0.4,0.2-1.4,0.2c-1.2,0-2-1.1-2-2.3c0-1.2,0.8-2.2,2-2.2c0.9,0,1.3,0.2,1.3,0.2l0.3-0.7
			c0,0-0.4-0.3-1.6-0.3c-1.8,0-2.8,1.3-2.8,2.9s1,2.9,2.8,2.9C83.5,53.6,83.7,53.4,83.7,53.4z"/>
		<polygon points="86.2,47.9 90.3,47.9 90.3,48.5 88.7,48.5 88.7,53.5 87.9,53.5 87.9,48.5 86.2,48.5 		"/>
		<path d="M95.5,48.8l0.3-0.5c0,0-0.6-0.4-1.4-0.4c-0.8,0-1.7,0.3-1.7,1.7c0,1,1.2,1.3,1.5,1.5c0.3,0.2,1,0.3,1,1.1s-0.8,1-1.2,1
			s-1.2-0.3-1.4-0.6l-0.2,0.8c0,0,0.7,0.4,1.7,0.4s1.9-0.5,1.9-1.7s-0.9-1.4-1.7-1.8c-0.8-0.4-0.9-0.5-0.9-1s0.3-0.8,1.1-0.8
			S95.5,48.8,95.5,48.8z"/>
	</g>
</g>
</svg>
