<?xml version="1.0" encoding="utf-8"?>
<!-- Generator: Adobe Illustrator 22.0.1, SVG Export Plug-In . SVG Version: 6.00 Build 0)  -->
<svg version="1.1" id="Layer_1" xmlns="http://www.w3.org/2000/svg" xmlns:xlink="http://www.w3.org/1999/xlink" x="0px" y="0px"
	 viewBox="0 0 130 130" style="enable-background:new 0 0 130 130;" xml:space="preserve">
<style type="text/css">
	.st0{opacity:0.5;}
	.st1{fill:#020A0A;}
</style>
<g class="st0">
	<g class="st0">
		<path class="st1" d="M65,83.5c-10.2,0-18.5-8.3-18.5-18.5S54.8,46.5,65,46.5v4.2c-7.9,0-14.2,6.4-14.2,14.2S57.1,79.2,65,79.2
			V83.5z"/>
		<path class="st1" d="M65,100.9c19.8,0,35.9-16.1,35.9-35.9S84.8,29.1,65,29.1v6c16.5,0,29.8,13.4,29.8,29.8S81.5,94.8,65,94.8
			V100.9z"/>
		<polygon class="st1" points="26.1,65 21.7,60.7 0,65 		"/>
		<polygon class="st1" points="103.9,65 108.3,69.3 130,65 		"/>
		<polygon class="st1" points="65,103.9 60.7,108.3 65,130 		"/>
		<polygon class="st1" points="65,26.1 69.3,21.7 65,0 		"/>
		<rect x="53.1" y="64.5" class="st1" width="23.7" height="1.1"/>
		
			<rect x="52.8" y="64.4" transform="matrix(0.7071 -0.7071 0.7071 0.7071 -26.8612 64.9738)" class="st1" width="24.4" height="1.1"/>
		
			<rect x="64.5" y="52.7" transform="matrix(0.7071 -0.7071 0.7071 0.7071 -26.8612 64.9738)" class="st1" width="1.1" height="24.4"/>
		<polygon class="st1" points="62.8,38.6 65,36.5 67.2,38.6 		"/>
		<g>
			<path class="st1" d="M64.6,40.3l1.2,1.5v-1.1c0-0.1,0-0.2-0.1-0.3c-0.1-0.1-0.2-0.1-0.3-0.1v-0.1h0.8v0.1c-0.1,0-0.2,0-0.2,0.1
				c0,0-0.1,0.1-0.1,0.1c0,0,0,0.1,0,0.2v2h-0.1l-1.7-2v1.6c0,0.1,0,0.2,0.1,0.3c0.1,0,0.1,0.1,0.2,0.1h0.1v0.1h-0.9v-0.1
				c0.1,0,0.2,0,0.3-0.1c0.1-0.1,0.1-0.1,0.1-0.3v-1.7L64,40.5c-0.1-0.1-0.1-0.1-0.1-0.1c0,0-0.1,0-0.2,0v-0.1H64.6z"/>
		</g>
		<polygon class="st1" points="44.8,47.9 44.8,44.8 47.9,44.8 		"/>
		<g>
			<path class="st1" d="M45.9,49.1l1.9,0.2l-0.7-0.7c-0.1-0.1-0.2-0.2-0.3-0.2c-0.1,0-0.2,0-0.3,0.1l0,0l0.6-0.6l0,0
				c-0.1,0.1-0.1,0.1-0.1,0.2c0,0,0,0.1,0,0.1c0,0,0.1,0.1,0.2,0.2l1.4,1.4l0,0L46,49.7l1.1,1.1c0.1,0.1,0.2,0.1,0.3,0.1
				c0.1,0,0.2,0,0.2-0.1l0,0l0,0L47,51.5l0,0c0.1-0.1,0.1-0.2,0.1-0.3c0-0.1,0-0.2-0.1-0.3l-1.2-1.2l-0.1,0c-0.1,0-0.1,0-0.2,0
				c0,0-0.1,0-0.1,0.1l0,0L45.9,49.1z"/>
			<path class="st1" d="M49.7,45.3L49.7,45.3c0,0.1,0,0.1,0,0.2c0,0,0,0.1,0,0.1c0,0,0,0.1,0.1,0.3l0.9,2l-0.1,0.1l-1.5-0.7l0.6,1.6
				l0,0l-2-0.8c-0.2-0.1-0.3-0.1-0.4-0.1s-0.1,0-0.2,0.1l0,0l0.8-0.8l0,0c-0.1,0.1-0.1,0.1-0.1,0.1c0,0,0,0.1,0,0.1
				c0,0,0.1,0.1,0.3,0.1l1.2,0.5L49,47.1L48.7,47c-0.1-0.1-0.2-0.1-0.3-0.1c-0.1,0-0.1,0-0.1,0c0,0-0.1,0-0.1,0.1l0,0l0.8-0.8l0,0
				c-0.1,0.1-0.1,0.1-0.1,0.1c0,0,0,0,0,0.1c0,0,0,0,0,0.1c0,0,0.1,0.1,0.2,0.1l1.1,0.5l-0.5-1c0-0.1-0.1-0.2-0.1-0.2
				c0,0,0-0.1-0.1-0.1c0,0-0.1,0-0.1,0c0,0-0.1,0-0.2,0.1l0,0L49.7,45.3z"/>
		</g>
		<polygon class="st1" points="38.6,67.2 36.5,65 38.6,62.8 		"/>
		<g>
			<path class="st1" d="M40.3,63.2L40.3,63.2c0.1,0,0.1,0.1,0.1,0.1c0,0,0.1,0.1,0.1,0.1c0,0,0.1,0,0.3,0.1l2,0.8v0.1l-1.6,0.6
				l1.6,0.7v0.1l-2,0.8c-0.2,0.1-0.3,0.1-0.4,0.2c0,0-0.1,0.1-0.1,0.2h-0.1v-1.1h0.1c0,0.1,0,0.1,0,0.2c0,0,0.1,0,0.1,0
				c0,0,0.1,0,0.3-0.1l1.2-0.5L41,65l-0.3,0.1c-0.1,0.1-0.2,0.1-0.3,0.1c0,0-0.1,0.1-0.1,0.1c0,0,0,0.1,0,0.2h-0.1v-1.2h0.1
				c0,0.1,0,0.1,0,0.2c0,0,0,0,0,0.1c0,0,0,0,0.1,0c0,0,0.1,0,0.3-0.1l1.2-0.4l-1-0.4c-0.1,0-0.2-0.1-0.2-0.1c0,0-0.1,0-0.1,0
				c0,0-0.1,0-0.1,0.1c0,0,0,0.1,0,0.2h-0.1V63.2z"/>
		</g>
		<polygon class="st1" points="47.9,85.2 44.8,85.2 44.8,82.1 		"/>
		<g>
			<path class="st1" d="M48.3,83.3l0.6-0.6l0.1,0.1c-0.1,0.2-0.2,0.3-0.2,0.5c0,0.2,0.1,0.3,0.2,0.4c0.1,0.1,0.2,0.1,0.3,0.1
				c0.1,0,0.2,0,0.2-0.1c0,0,0.1-0.1,0.1-0.1c0-0.1,0-0.1,0-0.2c0-0.1-0.1-0.2-0.1-0.4c-0.1-0.3-0.1-0.5-0.1-0.7
				c0-0.2,0.1-0.3,0.2-0.4c0.1-0.1,0.3-0.2,0.5-0.2c0.2,0,0.4,0.1,0.6,0.3c0.1,0.1,0.1,0.1,0.1,0.2c0,0.1,0.1,0.1,0.1,0.2
				c0,0.1,0,0.1,0.1,0.1c0,0,0.1,0,0.1,0c0,0,0.1,0,0.1,0l0,0l-0.7,0.7l0,0c0.1-0.2,0.2-0.4,0.2-0.6c0-0.2-0.1-0.4-0.2-0.5
				c-0.1-0.1-0.2-0.1-0.3-0.1c-0.1,0-0.2,0-0.3,0.1c0,0-0.1,0.1-0.1,0.2c0,0.1,0,0.1,0,0.2c0,0.1,0,0.2,0.1,0.4
				c0.1,0.2,0.1,0.4,0.1,0.5c0,0.1,0,0.2,0,0.3c0,0.1-0.1,0.2-0.2,0.3c-0.1,0.1-0.3,0.2-0.5,0.2c-0.2,0-0.4-0.1-0.5-0.2
				c-0.1-0.1-0.1-0.1-0.1-0.2c0,0-0.1-0.1-0.1-0.2c0-0.1-0.1-0.1-0.1-0.2c0,0,0,0-0.1,0C48.4,83.3,48.4,83.3,48.3,83.3L48.3,83.3z"
				/>
			<path class="st1" d="M45.5,80.5L45.5,80.5c0.1,0,0.1,0,0.2,0c0,0,0.1,0,0.1,0c0,0,0.1,0,0.3-0.1l2-0.9l0,0l-0.7,1.5l1.6-0.6l0,0
				l-0.8,2c-0.1,0.2-0.1,0.3-0.1,0.4c0,0.1,0,0.1,0.1,0.2l0,0l-0.8-0.8l0,0c0.1,0.1,0.1,0.1,0.1,0.1c0,0,0.1,0,0.1,0
				c0,0,0.1-0.1,0.1-0.3l0.5-1.2l-0.9,0.4l-0.1,0.3c-0.1,0.1-0.1,0.2-0.1,0.3c0,0.1,0,0.1,0,0.1c0,0,0,0.1,0.1,0.1l0,0l-0.8-0.8l0,0
				c0.1,0.1,0.1,0.1,0.1,0.1c0,0,0,0,0.1,0c0,0,0,0,0.1,0c0,0,0.1-0.1,0.1-0.2l0.5-1.1l-1,0.5c-0.1,0-0.2,0.1-0.2,0.1
				c0,0-0.1,0-0.1,0.1c0,0-0.1,0.1,0,0.1c0,0,0,0.1,0.1,0.2l0,0L45.5,80.5z"/>
		</g>
		<polygon class="st1" points="67.2,91.4 65,93.5 62.8,91.4 		"/>
		<g>
			<path class="st1" d="M64.3,89.8l0-0.8h0.1c0,0.2,0.1,0.4,0.3,0.5c0.1,0.1,0.3,0.2,0.4,0.2c0.1,0,0.2,0,0.3-0.1
				c0.1-0.1,0.1-0.1,0.1-0.2c0-0.1,0-0.1,0-0.1c0-0.1-0.1-0.1-0.2-0.2c-0.1,0-0.2-0.1-0.4-0.2c-0.3-0.1-0.5-0.3-0.6-0.4
				c-0.1-0.1-0.1-0.3-0.1-0.4c0-0.2,0.1-0.4,0.2-0.5c0.2-0.1,0.4-0.2,0.6-0.2c0.1,0,0.1,0,0.2,0c0.1,0,0.2,0,0.3,0.1
				c0.1,0,0.1,0,0.1,0c0,0,0.1,0,0.1,0c0,0,0.1-0.1,0.1-0.1h0.1v0.9h-0.1c-0.1-0.3-0.2-0.5-0.3-0.6c-0.2-0.1-0.3-0.2-0.5-0.2
				c-0.1,0-0.2,0-0.3,0.1c-0.1,0.1-0.1,0.2-0.1,0.3c0,0.1,0,0.1,0,0.2c0,0.1,0.1,0.1,0.1,0.2c0.1,0,0.2,0.1,0.3,0.2
				c0.2,0.1,0.4,0.2,0.5,0.3s0.2,0.2,0.2,0.3c0.1,0.1,0.1,0.2,0.1,0.3c0,0.2-0.1,0.4-0.2,0.5c-0.1,0.1-0.3,0.2-0.5,0.2
				c-0.1,0-0.2,0-0.2,0c-0.1,0-0.1,0-0.2-0.1c-0.1,0-0.1-0.1-0.2-0.1c0,0-0.1,0-0.1,0S64.4,89.7,64.3,89.8L64.3,89.8z"/>
		</g>
		<polygon class="st1" points="85.2,82.1 85.2,85.2 82.1,85.2 		"/>
		<g>
			<path class="st1" d="M82.9,82.1l-0.6-0.6l0.1-0.1c0.2,0.1,0.3,0.2,0.5,0.2c0.2,0,0.3-0.1,0.4-0.2c0.1-0.1,0.1-0.2,0.1-0.3
				c0-0.1,0-0.2-0.1-0.2c0,0-0.1-0.1-0.1-0.1c-0.1,0-0.1,0-0.2,0c-0.1,0-0.2,0.1-0.4,0.1c-0.3,0.1-0.5,0.1-0.7,0.1
				c-0.2,0-0.3-0.1-0.4-0.2c-0.1-0.1-0.2-0.3-0.2-0.5c0-0.2,0.1-0.4,0.3-0.6c0.1-0.1,0.1-0.1,0.2-0.1c0.1,0,0.1-0.1,0.2-0.1
				c0.1,0,0.1,0,0.1-0.1c0,0,0-0.1,0-0.1c0,0,0-0.1,0-0.1l0,0l0.7,0.7l0,0c-0.2-0.1-0.4-0.2-0.6-0.2c-0.2,0-0.4,0.1-0.5,0.2
				c-0.1,0.1-0.1,0.2-0.1,0.3c0,0.1,0,0.2,0.1,0.3c0,0,0.1,0.1,0.2,0.1c0.1,0,0.1,0,0.2,0c0.1,0,0.2,0,0.4-0.1
				c0.2-0.1,0.4-0.1,0.5-0.1c0.1,0,0.2,0,0.3,0c0.1,0,0.2,0.1,0.3,0.2c0.1,0.1,0.2,0.3,0.2,0.5c0,0.2-0.1,0.4-0.2,0.5
				c-0.1,0.1-0.1,0.1-0.2,0.1c0,0-0.1,0.1-0.2,0.1s-0.1,0.1-0.2,0.1c0,0,0,0,0,0.1C82.9,82,82.9,82,82.9,82.1L82.9,82.1z"/>
			<path class="st1" d="M81.8,82.9l-0.7-0.7l0,0c-0.1,0.1-0.2,0.2-0.1,0.3c0,0.1,0.1,0.3,0.2,0.4l0,0l-0.9-0.9l0,0
				c0.1,0.1,0.2,0.1,0.3,0.2c0.1,0,0.2,0,0.2,0c0.1,0,0.1-0.1,0.2-0.2l-0.5-0.5c-0.1-0.1-0.2-0.1-0.2-0.2c0,0-0.1,0-0.1,0
				c0,0-0.1,0-0.1,0.1L80,81.7c-0.2,0.2-0.3,0.3-0.3,0.5c0,0.2,0,0.4,0.1,0.6l0,0l-0.5-0.6l1.5-1.5l0,0l-0.1,0.1
				c-0.1,0-0.1,0.1-0.1,0.1c0,0,0,0.1,0,0.1c0,0,0.1,0.1,0.1,0.2l1.1,1.1c0.1,0.1,0.1,0.1,0.1,0.1c0,0,0.1,0,0.1,0
				c0.1,0,0.1,0,0.2-0.1l0.1-0.1l0,0l-1.4,1.4l-0.5-0.5l0,0c0.1,0.1,0.3,0.2,0.4,0.2c0.1,0,0.2,0,0.3-0.1c0.1,0,0.2-0.1,0.3-0.2
				L81.8,82.9z"/>
		</g>
		<polygon class="st1" points="91.4,62.8 93.5,65 91.4,67.2 		"/>
		<g>
			<path class="st1" d="M89.6,64.8h-1v0c0,0.2,0,0.3,0.1,0.3c0.1,0.1,0.2,0.1,0.4,0.1v0.1h-1.3v-0.1c0.1,0,0.3,0,0.3-0.1
				c0.1,0,0.1-0.1,0.2-0.2c0-0.1,0-0.2,0-0.3h-0.7c-0.1,0-0.2,0-0.2,0c0,0-0.1,0-0.1,0.1c0,0,0,0.1,0,0.2v0.1c0,0.2,0.1,0.4,0.2,0.5
				c0.1,0.1,0.3,0.2,0.5,0.3v0.1L87.3,66v-2.1h0.1v0.1c0,0.1,0,0.1,0,0.2c0,0,0,0.1,0.1,0.1c0,0,0.1,0,0.2,0h1.6c0.1,0,0.2,0,0.2,0
				c0,0,0.1,0,0.1-0.1c0,0,0.1-0.1,0.1-0.2v-0.1h0.1v2H89v-0.1c0.2,0,0.3-0.1,0.4-0.1c0.1-0.1,0.1-0.2,0.2-0.3c0-0.1,0-0.2,0-0.4
				V64.8z"/>
		</g>
		<polygon class="st1" points="82.1,44.8 85.2,44.8 85.2,47.9 		"/>
		<g>
			<path class="st1" d="M81.3,46.4l-0.2,1.9l0.7-0.7c0.1-0.1,0.2-0.2,0.2-0.3c0-0.1,0-0.2-0.1-0.3l0,0l0.6,0.6l0,0
				c-0.1-0.1-0.1-0.1-0.2-0.1c0,0-0.1,0-0.1,0c0,0-0.1,0.1-0.2,0.2l-1.4,1.4l0,0l0.3-2.6l-1.1,1.1c-0.1,0.1-0.1,0.2-0.1,0.3
				c0,0.1,0,0.1,0.1,0.2l0,0l0,0L79,47.5l0,0c0.1,0.1,0.2,0.1,0.3,0.1c0.1,0,0.2,0,0.3-0.1l1.2-1.2l0-0.1c0-0.1,0-0.1,0-0.2
				c0,0,0-0.1-0.1-0.1l0,0L81.3,46.4z"/>
			<path class="st1" d="M83.2,48.4l-0.7,0.7l0,0c0.1,0.1,0.2,0.2,0.3,0.1c0.1,0,0.3-0.1,0.4-0.2l0,0L82.4,50l0,0
				c0.1-0.1,0.1-0.2,0.2-0.3c0-0.1,0-0.2,0-0.2c0-0.1-0.1-0.1-0.2-0.2l-0.5,0.5c-0.1,0.1-0.1,0.2-0.2,0.2c0,0,0,0.1,0,0.1
				c0,0,0,0.1,0.1,0.1l0.1,0.1c0.2,0.2,0.3,0.3,0.5,0.3c0.2,0,0.4,0,0.6-0.1l0,0l-0.6,0.5l-1.5-1.5l0,0l0.1,0.1
				c0.1,0,0.1,0.1,0.1,0.1c0,0,0.1,0,0.1,0c0,0,0.1-0.1,0.2-0.1l1.1-1.1c0.1-0.1,0.1-0.1,0.1-0.2c0,0,0-0.1,0-0.1
				c0-0.1,0-0.1-0.1-0.2l-0.1-0.1l0,0l1.4,1.4l-0.5,0.5l0,0c0.1-0.1,0.2-0.3,0.2-0.4c0-0.1,0-0.2-0.1-0.3c0-0.1-0.1-0.2-0.2-0.3
				L83.2,48.4z"/>
		</g>
	</g>
	<g>
		<path class="st1" d="M29.9,38l0.3,0.2l-3.8,5.9l-0.3-0.2l0.2-0.4c0.2-0.3,0.3-0.6,0.3-0.9c0-0.2,0-0.4-0.2-0.6
			c-0.1-0.1-0.4-0.4-1-0.8l-7.4-4.8c-0.6-0.4-1-0.6-1.1-0.6c-0.2,0-0.4,0-0.6,0.1c-0.2,0.1-0.4,0.3-0.6,0.6L15.4,37l-0.3-0.2
			l3.8-5.9l0.3,0.2L19,31.5c-0.2,0.3-0.3,0.6-0.3,0.9c0,0.2,0,0.4,0.2,0.6c0.1,0.1,0.4,0.4,1,0.8l7.4,4.8c0.6,0.4,1,0.6,1.1,0.6
			c0.2,0,0.4,0,0.6-0.1c0.2-0.1,0.4-0.3,0.6-0.6L29.9,38z"/>
		<path class="st1" d="M33.6,28.2l-3-9.1l4.2-3.5l0.2,0.3l-0.3,0.3c-0.3,0.3-0.5,0.5-0.6,0.8c-0.1,0.2-0.1,0.4,0,0.6
			c0,0.2,0.3,0.5,0.7,1l5.7,6.7c0.4,0.5,0.8,0.8,0.9,0.9c0.2,0.1,0.4,0.1,0.6,0.1c0.3,0,0.5-0.2,0.8-0.4l0.3-0.3l0.2,0.3l-5.3,4.5
			l-0.2-0.3l0.3-0.3c0.3-0.3,0.5-0.5,0.6-0.8c0.1-0.2,0.1-0.4,0-0.6c0-0.2-0.3-0.5-0.7-1l-6.4-7.6l4,12.6l-0.2,0.2l-11.8-5.9
			l6.1,7.2c0.4,0.5,0.7,0.8,0.8,0.9c0.3,0.2,0.6,0.3,0.9,0.3c0.4,0,0.8-0.2,1.2-0.6l0.2,0.3l-3.5,3l-0.2-0.3l0.1-0.1
			c0.2-0.2,0.4-0.4,0.5-0.6c0.1-0.2,0.2-0.5,0.2-0.7c0-0.2-0.1-0.5-0.2-0.7c0-0.1-0.3-0.3-0.6-0.8L23.8,28c-0.4-0.5-0.7-0.8-0.9-0.9
			c-0.2-0.1-0.4-0.1-0.6,0c-0.3,0-0.5,0.2-0.8,0.4l-0.3,0.3l-0.2-0.3l4.2-3.6L33.6,28.2z"/>
		<path class="st1" d="M46.1,18.9l1.4,3.5c0.3,0.7,0.5,1.1,0.6,1.2c0.2,0.1,0.4,0.2,0.6,0.2c0.3,0,0.7-0.1,1.2-0.3l0.1,0.3l-6.3,2.5
			L43.6,26c0.6-0.2,0.9-0.4,1.1-0.6c0.2-0.2,0.3-0.4,0.3-0.6c0-0.2-0.1-0.6-0.4-1.3l-3.2-8.1c-0.3-0.7-0.5-1.1-0.6-1.2
			c-0.2-0.1-0.4-0.2-0.6-0.2c-0.2,0-0.7,0.1-1.2,0.3l-0.1-0.3l5.4-2.1c1.8-0.7,3.2-0.9,4.2-0.6c1,0.3,1.7,1,2.1,1.9
			c0.3,0.8,0.3,1.6,0.1,2.4c-0.3,0.8-0.8,1.4-1.6,2C48.5,17.9,47.5,18.3,46.1,18.9z M43.7,12.8l2.1,5.4c0.2-0.1,0.4-0.1,0.5-0.2
			c0.7-0.3,1.2-0.7,1.5-1.3c0.2-0.6,0.2-1.4-0.2-2.3c-0.4-0.9-0.8-1.5-1.4-1.8c-0.6-0.3-1.3-0.2-2.1,0.1L43.7,12.8z"/>
		<path class="st1" d="M58.2,9l0.5,5.4l0.3,0c0.8-0.1,1.4-0.4,1.8-1c0.3-0.6,0.5-1.4,0.5-2.4l0.4,0l0.7,7l-0.4,0
			c-0.2-0.8-0.4-1.4-0.7-1.8c-0.3-0.5-0.6-0.8-1-0.9c-0.4-0.1-0.8-0.2-1.5-0.1l0.4,3.8c0.1,0.7,0.1,1.2,0.2,1.3
			c0.1,0.2,0.2,0.3,0.4,0.4c0.2,0.1,0.5,0.1,0.8,0.1l0.8-0.1c1.2-0.1,2.2-0.5,2.9-1.2c0.7-0.7,1.1-1.6,1.4-2.8l0.4,0L65.8,21
			l-11.5,1.1l0-0.4l0.4,0c0.4,0,0.7-0.1,0.9-0.3c0.2-0.1,0.3-0.3,0.3-0.5c0.1-0.2,0.1-0.6,0-1.2l-0.9-8.8C55,10.3,55,9.9,55,9.8
			c-0.1-0.2-0.2-0.4-0.4-0.5c-0.3-0.2-0.6-0.2-1.1-0.2l-0.4,0l0-0.4l11.2-1.1l0.4,3.9l-0.4,0c-0.3-0.9-0.6-1.6-1-2
			c-0.4-0.4-0.9-0.6-1.6-0.8c-0.4-0.1-1.1-0.1-2.1,0L58.2,9z"/>
		<path class="st1" d="M72.9,15.8l-0.8,3.7c-0.1,0.7-0.2,1.2-0.1,1.4c0,0.2,0.2,0.4,0.4,0.5c0.2,0.2,0.6,0.3,1.2,0.4l-0.1,0.4
			l-6.7-1.4l0.1-0.4c0.6,0.1,1,0.2,1.3,0.1c0.2-0.1,0.4-0.2,0.5-0.3c0.1-0.2,0.3-0.6,0.4-1.3l1.7-8.5C71,9.6,71,9.2,71,9
			c0-0.2-0.2-0.4-0.4-0.5C70.4,8.3,70,8.1,69.4,8l0.1-0.4l6.1,1.2c1.6,0.3,2.7,0.7,3.4,1c0.7,0.4,1.2,0.9,1.6,1.6
			c0.3,0.7,0.4,1.4,0.3,2.2c-0.2,1-0.7,1.7-1.5,2.2c-0.5,0.3-1.2,0.5-2.1,0.5l2.3,5.1c0.3,0.7,0.5,1.1,0.7,1.3
			c0.2,0.3,0.5,0.4,0.9,0.5L81,23.7l-4.1-0.8l-3-6.8L72.9,15.8z M74.3,9.3l-1.2,5.8l0.6,0.1c0.9,0.2,1.6,0.2,2.1,0.2
			c0.5-0.1,0.9-0.3,1.2-0.7c0.3-0.4,0.6-0.9,0.7-1.6c0.2-1,0.1-1.8-0.2-2.4c-0.4-0.6-1.1-1-2.1-1.2L74.3,9.3z"/>
		<path class="st1" d="M86.8,26.6l-0.2,0.3l-6.3-3l0.2-0.3l0.4,0.2c0.4,0.2,0.7,0.2,0.9,0.2c0.2,0,0.4-0.1,0.6-0.3
			c0.1-0.1,0.3-0.5,0.6-1.1l3.7-8c0.3-0.6,0.4-1,0.4-1.2c0-0.2-0.1-0.4-0.2-0.6c-0.1-0.2-0.4-0.4-0.7-0.6l-0.4-0.2l0.2-0.3l6.3,3
			l-0.2,0.3l-0.4-0.2c-0.4-0.2-0.7-0.2-0.9-0.2c-0.2,0-0.4,0.1-0.6,0.3c-0.1,0.1-0.3,0.5-0.6,1.1l-3.7,8c-0.3,0.6-0.4,1-0.4,1.2
			c0,0.2,0.1,0.4,0.2,0.6c0.1,0.2,0.4,0.4,0.7,0.6L86.8,26.6z"/>
		<path class="st1" d="M95.6,28.7l-3.7-3l-1.3,0.7c-0.4,0.2-0.7,0.4-0.9,0.7c-0.2,0.3-0.3,0.6-0.2,0.9c0.1,0.2,0.4,0.5,0.9,1
			l-0.2,0.3l-3.5-2.8l0.2-0.3c0.4,0.2,0.9,0.3,1.3,0.3c0.4-0.1,1.2-0.3,2.2-0.9l10.4-5.3l0.1,0.1L97.9,32c-0.3,1.1-0.4,1.8-0.3,2.2
			c0,0.3,0.2,0.6,0.5,0.9l-0.2,0.3l-5.1-4.1L93,31l0.2,0.2c0.4,0.3,0.7,0.5,1,0.5c0.2,0,0.3-0.1,0.5-0.2c0.1-0.1,0.1-0.2,0.2-0.3
			c0-0.1,0.1-0.3,0.2-0.8L95.6,28.7z M95.8,27.9l1.3-4.8l-4.5,2.3L95.8,27.9z"/>
		<path class="st1" d="M108.4,42.9l-4.2,2.2l-6.7-9.9l0.3-0.2l0.2,0.4c0.2,0.3,0.4,0.5,0.7,0.7c0.2,0.1,0.4,0.1,0.6,0.1
			c0.2,0,0.5-0.2,1.1-0.6l7.3-4.9c0.6-0.4,0.9-0.7,1-0.8c0.1-0.2,0.1-0.4,0.1-0.6c0-0.3-0.1-0.5-0.3-0.9l-0.2-0.4l0.3-0.2l4,5.9
			l-0.3,0.2l-0.3-0.5c-0.2-0.3-0.4-0.5-0.7-0.7c-0.2-0.1-0.4-0.1-0.6-0.1c-0.2,0-0.5,0.2-1.1,0.6l-7.1,4.8c-0.6,0.4-0.9,0.7-1,0.8
			c-0.1,0.2-0.1,0.4-0.1,0.6c0,0.2,0.2,0.5,0.6,1l0.6,0.9c0.4,0.6,0.8,1,1.3,1.3c0.5,0.3,1,0.4,1.7,0.4c0.6,0,1.5-0.2,2.5-0.5
			L108.4,42.9z"/>
	</g>
	<g>
		<path class="st1" d="M33.4,91.7L30,94.6l-0.3-0.3c0.8-0.8,1.2-1.8,1.3-2.8c0.1-1-0.2-1.9-0.7-2.5c-0.4-0.5-0.9-0.8-1.4-0.9
			c-0.5-0.1-1,0-1.3,0.3c-0.2,0.2-0.4,0.4-0.5,0.7c-0.1,0.3-0.2,0.8-0.2,1.3c0,0.4,0.2,1.2,0.4,2.4c0.4,1.7,0.4,3,0.2,3.8
			c-0.2,0.8-0.7,1.5-1.3,2.1c-0.9,0.7-1.9,0.9-3.1,0.8c-1.2-0.2-2.2-0.8-3-1.9c-0.3-0.3-0.5-0.7-0.6-1c-0.2-0.3-0.3-0.8-0.5-1.4
			c-0.1-0.3-0.2-0.6-0.3-0.7c-0.1-0.1-0.3-0.2-0.5-0.3c-0.2-0.1-0.5-0.1-0.8,0l-0.2-0.3l4-3.1l0.2,0.3c-0.9,1.1-1.4,2.2-1.5,3.3
			c-0.1,1.1,0.2,2,0.8,2.8c0.5,0.6,1,0.9,1.6,1c0.6,0.1,1.1,0,1.5-0.4c0.2-0.2,0.4-0.5,0.6-0.8c0.1-0.3,0.2-0.7,0.2-1.1
			c0-0.4-0.1-1.1-0.3-2.1c-0.3-1.3-0.4-2.3-0.4-3s0.1-1.3,0.3-1.8c0.2-0.5,0.6-1,1.1-1.4c0.8-0.7,1.8-0.9,2.9-0.8
			c1.1,0.2,2,0.7,2.7,1.6c0.3,0.3,0.5,0.7,0.7,1.1c0.1,0.3,0.2,0.7,0.4,1.2c0.1,0.5,0.2,0.8,0.3,0.9c0.1,0.1,0.2,0.2,0.4,0.2
			s0.4-0.1,0.8-0.3L33.4,91.7z"/>
		<path class="st1" d="M32.8,102.6l-2.6,3.2c-0.4,0.5-0.7,0.9-0.7,1.1c0,0.2,0,0.4,0.1,0.6c0.1,0.2,0.3,0.5,0.6,0.7l0.3,0.3
			l-0.2,0.3l-5.5-4.4l0.2-0.3l0.3,0.3c0.3,0.2,0.6,0.4,0.9,0.4c0.2,0,0.4,0,0.6-0.1c0.2-0.1,0.4-0.4,0.9-0.9l5.5-6.9
			c0.4-0.5,0.7-0.9,0.7-1.1c0.1-0.2,0-0.4-0.1-0.6c-0.1-0.2-0.3-0.5-0.6-0.7l-0.3-0.3l0.2-0.3l5.5,4.4l-0.2,0.3L38,98.4
			c-0.3-0.2-0.6-0.4-0.9-0.4c-0.2,0-0.4,0-0.6,0.1c-0.2,0.1-0.4,0.4-0.9,0.9l-2.4,3l3.7,3l2.4-3c0.4-0.5,0.7-0.9,0.7-1.1
			c0.1-0.2,0-0.4-0.1-0.6c-0.1-0.2-0.3-0.5-0.6-0.7l-0.3-0.3l0.2-0.3l5.5,4.4l-0.2,0.3l-0.3-0.3c-0.3-0.2-0.6-0.4-0.9-0.4
			c-0.2,0-0.4,0-0.6,0.1c-0.2,0.1-0.4,0.4-0.9,0.9l-5.5,6.9c-0.4,0.5-0.7,0.9-0.7,1.1c-0.1,0.2,0,0.4,0.1,0.6
			c0.1,0.2,0.3,0.5,0.6,0.7l0.3,0.3l-0.2,0.3l-5.5-4.4l0.2-0.3l0.3,0.3c0.3,0.2,0.6,0.4,0.9,0.4c0.2,0,0.4,0,0.6-0.1
			c0.2-0.1,0.4-0.4,0.9-0.9l2.6-3.2L32.8,102.6z"/>
		<path class="st1" d="M46.1,118.7L46,119l-6.3-3l0.2-0.3l0.4,0.2c0.4,0.2,0.7,0.2,0.9,0.2c0.2,0,0.4-0.1,0.6-0.3
			c0.1-0.1,0.3-0.5,0.6-1.1l3.8-8c0.3-0.6,0.4-1,0.5-1.2c0-0.2-0.1-0.4-0.2-0.6c-0.1-0.2-0.4-0.4-0.7-0.6l-0.4-0.2l0.2-0.3l6.3,3
			l-0.2,0.3l-0.4-0.2c-0.4-0.2-0.7-0.2-0.9-0.2c-0.2,0-0.4,0.1-0.6,0.3c-0.1,0.1-0.3,0.5-0.6,1.1l-3.8,8c-0.3,0.6-0.4,1-0.4,1.2
			c0,0.2,0.1,0.4,0.2,0.6c0.1,0.2,0.4,0.4,0.7,0.6L46.1,118.7z"/>
		<path class="st1" d="M55.4,115.2l-0.7,3.6c-0.1,0.7-0.2,1.2-0.1,1.4c0.1,0.2,0.2,0.4,0.4,0.5c0.2,0.2,0.6,0.3,1.2,0.4l-0.1,0.4
			l-6.7-1.3l0.1-0.4c0.6,0.1,1,0.1,1.3,0.1c0.2-0.1,0.4-0.2,0.5-0.4c0.1-0.2,0.3-0.6,0.4-1.3l1.6-8.5c0.1-0.7,0.2-1.2,0.1-1.4
			c-0.1-0.2-0.2-0.4-0.4-0.5c-0.2-0.2-0.6-0.3-1.2-0.4l0.1-0.4l5.7,1.1c1.9,0.4,3.2,1,3.9,1.8c0.7,0.8,0.9,1.8,0.7,2.8
			c-0.2,0.9-0.6,1.5-1.2,2c-0.6,0.5-1.5,0.8-2.4,0.8C58,115.6,56.9,115.5,55.4,115.2z M56.7,108.8l-1.1,5.7c0.2,0.1,0.4,0.1,0.5,0.1
			c0.8,0.2,1.4,0,2-0.4c0.5-0.4,0.9-1.1,1.1-2.1c0.2-1,0.1-1.7-0.2-2.3c-0.3-0.5-0.9-0.9-1.8-1L56.7,108.8z"/>
		<path class="st1" d="M68.5,115.4l0.4,3.7c0.1,0.7,0.2,1.2,0.3,1.3c0.1,0.2,0.3,0.3,0.5,0.4c0.2,0.1,0.7,0.1,1.3,0l0,0.4l-6.8,0.7
			l0-0.4c0.6-0.1,1-0.2,1.2-0.3c0.2-0.1,0.3-0.3,0.4-0.5c0.1-0.2,0.1-0.6,0-1.4l-0.9-8.7c-0.1-0.7-0.2-1.2-0.3-1.3
			c-0.1-0.2-0.3-0.3-0.5-0.4c-0.2-0.1-0.7-0.1-1.3,0l0-0.4l5.8-0.6c1.9-0.2,3.3,0,4.2,0.6c0.9,0.6,1.4,1.4,1.5,2.4
			c0.1,0.9-0.1,1.6-0.6,2.3c-0.5,0.7-1.2,1.2-2.1,1.5C71.1,115,70,115.2,68.5,115.4z M67.8,108.9l0.6,5.8c0.2,0,0.4,0,0.5,0
			c0.8-0.1,1.4-0.4,1.8-0.9c0.4-0.5,0.5-1.3,0.4-2.3c-0.1-1-0.4-1.7-0.9-2.1s-1.1-0.6-2-0.5L67.8,108.9z"/>
		<path class="st1" d="M85,116.3l0.1,0.3l-6.4,2.8l-0.1-0.3L79,119c0.4-0.2,0.6-0.3,0.8-0.6c0.1-0.2,0.2-0.4,0.2-0.6
			c0-0.2-0.1-0.6-0.4-1.2l-3.5-8.1c-0.3-0.6-0.5-1-0.6-1.1c-0.1-0.1-0.3-0.2-0.6-0.2c-0.3,0-0.6,0-0.9,0.2l-0.4,0.2l-0.1-0.3
			l6.4-2.8l0.1,0.3l-0.4,0.2c-0.4,0.2-0.6,0.3-0.8,0.6c-0.1,0.2-0.2,0.4-0.2,0.6c0,0.2,0.1,0.6,0.4,1.2l3.5,8.1
			c0.3,0.6,0.5,1,0.6,1.1c0.1,0.1,0.3,0.2,0.6,0.2c0.3,0,0.6,0,0.9-0.2L85,116.3z"/>
		<path class="st1" d="M84.7,102.4l9.9,3.8l-3-5c-0.4-0.7-0.8-1.1-1.1-1.2c-0.5-0.2-1-0.1-1.7,0.3l-0.2-0.3l3.8-2.3l0.2,0.3
			c-0.5,0.4-0.7,0.6-0.8,0.8c-0.1,0.2-0.1,0.4-0.1,0.7c0,0.3,0.2,0.7,0.5,1.2l5.7,9.6l-0.3,0.2l-13.5-4.9l4.4,7.3
			c0.4,0.7,0.8,1,1.3,1.1c0.4,0.1,0.9,0,1.2-0.3l0.3-0.2l0.2,0.3l-4.1,2.4l-0.2-0.3c0.6-0.4,1-0.8,1.1-1.2c0.1-0.4,0-0.9-0.4-1.5
			l-4.8-8.1l-0.4-0.2c-0.4-0.2-0.8-0.2-1-0.2c-0.2,0-0.5,0.1-0.9,0.3l-0.2-0.3L84.7,102.4z"/>
		<path class="st1" d="M102.4,85.8l3.3,3.4l-0.3,0.3c-1.2-0.6-2.4-0.9-3.5-0.8c-1.1,0.1-2,0.5-2.8,1.3c-0.7,0.7-1.1,1.5-1.2,2.3
			c-0.1,0.9,0.1,1.8,0.6,2.7c0.5,0.9,1.1,1.8,1.8,2.5c0.9,0.9,1.8,1.6,2.7,2.1c0.9,0.5,1.7,0.7,2.5,0.5c0.8-0.1,1.5-0.5,2.2-1.2
			c0.2-0.2,0.4-0.5,0.6-0.8c0.2-0.3,0.4-0.6,0.5-0.9l-1.9-2c-0.4-0.4-0.6-0.6-0.8-0.7c-0.2-0.1-0.4-0.1-0.6,0
			c-0.3,0.1-0.5,0.2-0.7,0.4l-0.2,0.2l-0.3-0.3l4.7-4.5l0.3,0.3c-0.3,0.4-0.5,0.7-0.6,0.9c-0.1,0.2-0.1,0.4,0,0.7
			c0,0.1,0.2,0.4,0.6,0.7l1.9,2c-0.4,0.9-0.8,1.7-1.3,2.5c-0.5,0.8-1.2,1.5-1.9,2.2c-0.9,0.9-1.8,1.5-2.6,1.8
			c-0.8,0.3-1.7,0.5-2.6,0.6c-0.9,0-1.7-0.1-2.4-0.3c-1-0.3-1.8-0.9-2.6-1.7c-1.4-1.5-2.1-3.2-2-5.2c0.1-2,0.9-3.7,2.4-5.2
			c0.5-0.5,1-0.8,1.4-1.1c0.2-0.2,0.7-0.4,1.3-0.6c0.6-0.3,1-0.4,1.1-0.5c0.1-0.1,0.2-0.3,0.2-0.5c0-0.2-0.1-0.5-0.2-0.9L102.4,85.8
			z"/>
	</g>
</g>
</svg>
