<?xml version="1.0" encoding="utf-8"?>
<!-- Generator: Adobe Illustrator 22.0.1, SVG Export Plug-In . SVG Version: 6.00 Build 0)  -->
<svg version="1.1" id="Layer_1" xmlns="http://www.w3.org/2000/svg" xmlns:xlink="http://www.w3.org/1999/xlink" x="0px" y="0px"
	 viewBox="0 0 130 40" style="enable-background:new 0 0 130 40;" xml:space="preserve">
<style type="text/css">
	.st0{fill-rule:evenodd;clip-rule:evenodd;fill:#FFFFFF;}
	.st1{fill:#FFFFFF;}
</style>
<g>
	<path class="st0" d="M68.4,19.4c0.6,0,0.6,0,0.8,0.5l0.6,1.6c0.3,0.9,0.2,1-0.5,1.1l-0.4,0.1c-0.1,0.1-0.1,0.5,0.1,0.6
		c0.7,0,1.6-0.1,2.4-0.1c1,0,1.8,0,2.6,0.1c0.1-0.1,0.1-0.5,0-0.6l-0.3-0.1c-1-0.2-1.1-0.3-1.6-1.7l-2.9-8.4
		c-0.3-0.9-0.6-1.8-0.9-2.7c-0.1-0.1-0.2-0.2-0.3-0.2c0,0-0.7,0.8-1.4,1c0.1,0.3-0.1,0.8-0.8,2.6L63,20.3c0,0-0.3,0.8-0.5,1.3
		c-0.3,0.6-0.5,0.8-1.1,0.9l-0.6,0.1c-0.1,0.2-0.1,0.5,0,0.6c0.7,0,1.3-0.1,2-0.1c0.8,0,1.5,0,2.1,0.1c0.2-0.1,0.2-0.5,0-0.6
		l-0.6-0.1c-0.7-0.1-0.8-0.2-0.4-1.3l0.5-1.3c0.2-0.5,0.3-0.5,0.6-0.5H68.4z M65.3,18.4c-0.5,0-0.5-0.1-0.3-0.5l1.2-3.5
		c0.4-0.9,0.5-1.4,0.6-1.6h0c0.1,0.2,0.2,0.5,0.6,1.6l1.1,3.6c0.2,0.5,0.1,0.5-0.5,0.5H65.3z M92.7,20.2c0,2.1-0.2,2.2-1.1,2.3
		l-0.5,0.1c-0.1,0.1-0.1,0.5,0.1,0.6c0.9,0,1.8-0.1,2.5-0.1c0.7,0,1.7,0.1,2.9,0.1c1.8,0,3.6-0.2,5-1c2.5-1.3,3.6-3.6,3.6-5.8
		c0-3-1.7-5.1-4.1-6c-1.5-0.5-2.8-0.7-4.7-0.7c-2,0-3.6,0.1-5,0.2c-0.2,0.1-0.2,0.5,0,0.6l0.4,0c0.9,0.1,1,0.4,1,2.3V20.2z
		 M95.1,12.4c0-1,0-1.4,0.2-1.5c0.1-0.1,0.8-0.3,1.6-0.3c3.4,0,5.6,1.9,5.6,5.9c0,3.4-1.6,5.9-5.2,5.9c-2.1,0-2.3-1-2.3-3V12.4z"/>
	<path class="st0" d="M46,23.9c0.2,0.7,0.4,1.2,0.4,1.5c0,0.3-0.4,0.5-1,0.5l-0.8,0.1c-0.2,0.2-0.2,0.6,0,0.8c0.9,0,2-0.1,3.4-0.1
		c1.3,0,2.3,0.1,3.5,0.1c0.2-0.2,0.2-0.6,0-0.8L50.6,26c-1.2-0.1-1.6-0.6-2.5-3.1l-4-11.7c-0.4-1.3-0.9-2.6-1.3-3.9
		c-0.1-0.2-0.3-0.3-0.4-0.3C42.2,7.5,41.6,8,41,8.2c0.1,0.5-0.1,1-0.5,2.1l-0.9,2.4l-2,5.4c-1.2,3.3-2,5.1-2.6,6.5
		c-0.4,1.1-1.1,1.4-1.7,1.4l-1,0.1c-0.2,0.2-0.1,0.6,0.1,0.8c0.8,0,1.9-0.1,2.8-0.1c1.4,0.1,2.2,0.1,3,0.1c0.3-0.2,0.3-0.6,0.1-0.8
		L37.2,26c-0.7-0.1-0.9-0.2-0.9-0.6c0-0.3,0.2-1.1,0.6-2.4l1-3c0.2-0.6,0.4-0.7,1.1-0.7h4.4c0.9,0,1,0.1,1.2,0.7L46,23.9z
		 M40.8,12.4c0.3-0.9,0.6-1.6,0.7-1.7h0.1c0.2,0.4,0.4,1.1,0.7,1.8l1.6,4.7c0.3,0.8,0.2,0.9-0.7,0.9h-3.6c-0.8,0-0.8,0-0.6-0.7
		L40.8,12.4z"/>
	<path class="st0" d="M124.4,23.8c0.2,0.7,0.4,1.2,0.4,1.5c0,0.3-0.4,0.5-1,0.5l-0.8,0.1c-0.2,0.2-0.2,0.6,0.1,0.8
		c0.8,0,1.9-0.1,3.3-0.1c1.3,0,2.3,0.1,3.5,0.1c0.2-0.2,0.2-0.6,0-0.8l-0.8-0.1c-1.2-0.1-1.6-0.6-2.5-3.1l-4-11.7
		c-0.4-1.3-0.9-2.6-1.3-3.9C121.2,7.1,121,7,120.9,7c-0.3,0.4-0.8,0.9-1.5,1.1c0.1,0.5-0.1,1-0.5,2.1l-3,7.8c-1.2,3.3-2,5.1-2.6,6.5
		c-0.4,1.1-1.1,1.4-1.7,1.4l-1,0.1c-0.2,0.2-0.1,0.6,0.1,0.8c0.8,0,1.8-0.1,2.8-0.1c1.4,0.1,2.3,0.1,3,0.1c0.3-0.2,0.3-0.6,0.1-0.8
		l-0.9-0.1c-0.7,0-0.9-0.2-0.9-0.6c0-0.3,0.2-1.1,0.6-2.4l1-3c0.2-0.6,0.4-0.7,1.1-0.7h4.4c0.9,0,1,0.1,1.2,0.7L124.4,23.8z
		 M119.2,12.3c0.3-0.9,0.6-1.6,0.7-1.7h0.1c0.2,0.4,0.4,1.1,0.7,1.8l1.6,4.7c0.3,0.8,0.2,0.9-0.6,0.9H118c-0.8,0-0.8,0-0.6-0.7
		L119.2,12.3z"/>
	<rect x="53.5" y="26.2" class="st1" width="55.2" height="0.5"/>
	<path class="st0" d="M87.9,14.9c0-1.6,0-3.3,0.3-3.9c0.1-0.3,0.5-0.4,0.9-0.5l0.5-0.1c0.2-0.1,0.1-0.5,0-0.6
		c-0.7,0-1.3,0.1-2.1,0.1c-0.8,0-1.5,0-2.3-0.1c-0.2,0.1-0.2,0.4,0,0.6l0.4,0.1c0.5,0.1,0.8,0.2,1,0.5c0.3,0.6,0.4,2.5,0.4,3.9v3.9
		c0,0.3,0,0.4-0.1,0.5c-0.2-0.1-2.1-2.2-2.9-3.2l-2-2.2c-0.7-0.8-2.9-3.3-3.2-4.1c-0.5,0-1,0.1-1.4,0.1c-0.5,0-1.6,0-2.4-0.1
		c-0.2,0.1-0.2,0.5-0.1,0.6l0.3,0.1c0.3,0.1,0.8,0.2,1,0.4c0.7,0.6,0.7,0.9,0.7,2.5v4.8c0,1.6,0,3.3-0.2,4c-0.2,0.3-0.5,0.4-0.9,0.5
		l-0.4,0.1c-0.2,0.1-0.1,0.5,0,0.6c0.7,0,1.3-0.1,2.1-0.1c0.8,0,1.5,0,2.3,0.1c0.2-0.1,0.2-0.5,0.1-0.6l-0.4-0.1
		c-0.5-0.1-0.9-0.2-1-0.5c-0.3-0.6-0.4-2.5-0.4-4v-3.9c0-1,0-1.3,0.1-1.3c0.3,0.3,1,1.1,2.3,2.5l4.7,5.3c1.4,1.7,2,2.3,2.4,2.8
		c0.2,0,0.5-0.1,0.7-0.3c-0.1-0.5-0.1-2.9-0.1-3.5V14.9z"/>
	<path class="st0" d="M110.7,12.8c0-2.1,0.2-2.2,1.1-2.3l0.4-0.1c0.2-0.1,0.1-0.5,0-0.6c-0.9,0-1.8,0.1-2.7,0.1
		c-0.9,0-1.8,0-2.7-0.1c-0.2,0.1-0.2,0.4-0.1,0.6l0.4,0.1c1,0.1,1.1,0.2,1.1,2.3v7.5c0,2.1-0.2,2.2-1.1,2.3l-0.4,0.1
		c-0.1,0.1-0.1,0.5,0.1,0.6c0.9,0,1.8-0.1,2.7-0.1c0.9,0,1.8,0,2.7,0.1c0.2-0.1,0.2-0.5,0-0.6l-0.4-0.1c-1-0.1-1.1-0.2-1.1-2.3V12.8
		z"/>
	<path class="st0" d="M53.7,12.9c0-2.1,0.2-2.1,1.1-2.3l0.4-0.1c0.2-0.1,0.2-0.5,0-0.6c-0.9,0-1.8,0.1-2.7,0.1c-0.9,0-1.8,0-2.8-0.1
		c-0.2,0.1-0.2,0.5,0,0.6l0.5,0.1c0.9,0.1,1.1,0.2,1.1,2.3v7.4c0,2.1-0.2,2.1-1.1,2.3l-0.6,0.1c-0.2,0.1-0.1,0.5,0,0.6
		c0.8,0,1.8-0.1,2.9-0.1h2.1c2.3,0,4,0,4.8,0.1c0.2-0.6,0.7-2.1,0.9-2.9c-0.1-0.2-0.4-0.2-0.6-0.1c-0.9,2-1.2,2.2-3.4,2.2
		c-1.6,0-1.9-0.2-2.2-0.4c-0.3-0.4-0.3-1.1-0.3-2.1V12.9z"/>
	<path class="st1" d="M2.7,24.8h21.9c1-1.3,1.7-2.7,2.2-4.2H0.6C1,22.2,1.8,23.6,2.7,24.8 M24.7,8.2H2.7c-1,1.3-1.7,2.7-2.2,4.2
		h26.3C26.4,10.9,25.6,9.5,24.7,8.2 M27.3,14.4H0.1c-0.1,0.7-0.2,1.4-0.2,2.1c0,0.7,0.1,1.4,0.2,2.1h27.2c0.1-0.7,0.2-1.4,0.2-2.1
		C27.5,15.8,27.4,15.1,27.3,14.4 M13.7,2.8c-3.5,0-6.7,1.3-9.1,3.5h18.3C20.4,4.1,17.2,2.8,13.7,2.8 M13.7,30.3
		c3.5,0,6.7-1.3,9.1-3.5H4.6C7,29,10.2,30.3,13.7,30.3"/>
	<path class="st1" d="M70,35.8c0.1,0,0.1,0.2,0,0.3c-0.4,0-0.8,0-1.2,0c-0.5,0-0.9,0-1.3,0c-0.1,0-0.1-0.2,0-0.3l0.3,0
		c0.4-0.1,0.4-0.1,0.4-0.8v-3.9h0c-0.3,0.5-0.4,0.8-0.6,1.2l-0.8,1.7c-0.3,0.7-0.8,1.7-1,2.2c0,0-0.2,0-0.2,0
		c-0.2-0.5-0.6-1.4-0.8-1.9l-0.9-1.8c-0.2-0.4-0.4-1-0.6-1.3h0c0,0.5,0,1.2-0.1,1.6c0,0.6,0,1.4,0,2.2c0,0.6,0,0.8,0.4,0.8l0.3,0.1
		c0.1,0.1,0.1,0.2,0,0.3c-0.4,0-0.7,0-1,0c-0.3,0-0.7,0-1,0c-0.1,0-0.1-0.2,0-0.3l0.2,0c0.5-0.1,0.5-0.2,0.6-0.8
		c0.1-0.6,0.1-1.2,0.1-2.2c0-0.6,0.1-1.4,0.1-2c0-0.4-0.1-0.6-0.5-0.7L62,30c-0.1-0.1,0-0.2,0-0.3c0.3,0,0.5,0,0.9,0
		c0.3,0,0.7,0,1,0c0,0.6,0.3,1.1,0.5,1.6l1.1,2.2c0.1,0.2,0.3,0.6,0.5,0.9c0.2-0.3,0.3-0.5,0.5-1l0.9-1.8c0.3-0.6,0.6-1.2,0.8-1.8
		c0.3,0,0.6,0,0.8,0c0.4,0,0.7,0,1,0c0.1,0,0.1,0.2,0,0.3l-0.3,0c-0.4,0.1-0.5,0.2-0.5,0.7c0,1.4,0,2.8,0.1,4.2
		c0,0.6,0.1,0.7,0.4,0.7L70,35.8z"/>
	<path class="st1" d="M72.7,33.7c-0.3,0-0.2,0-0.3,0.3L72,35.1c-0.2,0.6-0.2,0.6,0.2,0.6l0.3,0c0.1,0.1,0.1,0.2,0,0.3
		c-0.3,0-0.6,0-1,0c-0.3,0-0.6,0-1,0c-0.1,0-0.1-0.2,0-0.3l0.3,0c0.3,0,0.4-0.1,0.5-0.4c0.1-0.2,0.3-0.6,0.5-1.2l1.3-3.4
		c0.1-0.3,0.2-0.5,0.2-0.7c0.3-0.1,0.7-0.5,0.7-0.5c0.1,0,0.1,0,0.2,0.1c0.2,0.4,0.3,0.9,0.4,1.3l1.4,4c0.2,0.6,0.3,0.7,0.8,0.8
		l0.1,0c0.1,0.1,0.1,0.2,0,0.3c-0.4,0-0.8,0-1.3,0c-0.4,0-0.8,0-1.2,0c-0.1,0-0.1-0.2,0-0.3l0.2,0c0.3,0,0.4-0.1,0.2-0.5L74.4,34
		c-0.1-0.3-0.1-0.3-0.4-0.3H72.7z M73.8,33.3c0.3,0,0.3,0,0.2-0.2l-0.4-1.1c-0.2-0.5-0.2-0.7-0.3-0.7h0c0,0.1-0.1,0.3-0.3,0.7
		L72.7,33c-0.1,0.3-0.1,0.3,0.2,0.3H73.8z"/>
	<path class="st1" d="M78.1,31.2c0-0.9,0-1-0.5-1.1l-0.2,0c-0.1-0.1-0.1-0.2,0-0.3c0.6-0.1,1.4-0.1,2.2-0.1c0.8,0,1.4,0.1,1.8,0.3
		c0.5,0.3,0.8,0.7,0.8,1.4c0,0.9-0.7,1.3-1.2,1.5c-0.1,0,0,0.1,0,0.2c0.8,1.3,1.3,2.1,1.7,2.5c0.3,0.2,0.5,0.3,0.7,0.3
		c0,0,0,0.1,0,0.2c-0.1,0-0.3,0.1-0.6,0.1c-0.9,0-1.4-0.4-2-1.2c-0.3-0.4-0.5-0.9-0.8-1.3c-0.2-0.3-0.3-0.3-0.6-0.3
		c-0.3,0-0.3,0-0.3,0.2v1.2c0,1,0.1,1,0.5,1.1l0.2,0c0.1,0.1,0.1,0.2,0,0.3c-0.4,0-0.9,0-1.3,0c-0.4,0-0.9,0-1.3,0
		c-0.1,0-0.1-0.2,0-0.3l0.2,0c0.5-0.1,0.5-0.1,0.5-1.1V31.2z M79.2,32.6c0,0.3,0,0.3,0.5,0.3c0.9,0,1.4-0.5,1.4-1.4
		c0-0.7-0.5-1.4-1.3-1.4c-0.5,0-0.5,0-0.5,0.5V32.6z"/>
	<path class="st1" d="M85.8,34.7c0,1,0.1,1,0.5,1.1l0.2,0c0.1,0.1,0.1,0.2,0,0.3c-0.4,0-0.9,0-1.3,0c-0.4,0-0.9,0-1.3,0
		c-0.1,0-0.1-0.2,0-0.3l0.2,0c0.5-0.1,0.5-0.1,0.5-1.1v-3.5c0-1-0.1-1-0.5-1.1l-0.2,0c-0.1-0.1-0.1-0.2,0-0.3c0.4,0,0.9,0,1.3,0
		c0.4,0,0.9,0,1.3,0c0.1,0,0.1,0.2,0,0.3l-0.2,0c-0.5,0.1-0.5,0.1-0.5,1.1V34.7z"/>
	<path class="st1" d="M93.6,34.4c0,0.3,0,1.4,0,1.7c-0.1,0.1-0.2,0.1-0.3,0.1c-0.2-0.2-0.4-0.5-1.1-1.3l-2.3-2.5
		c-0.6-0.7-0.9-1.1-1.1-1.2c0,0,0,0.1,0,0.6v1.8c0,0.7,0,1.6,0.2,1.9c0.1,0.1,0.3,0.2,0.5,0.2l0.2,0c0.1,0.1,0.1,0.2,0,0.3
		c-0.4,0-0.7,0-1.1,0c-0.4,0-0.7,0-1,0c-0.1,0-0.1-0.2,0-0.3l0.2,0c0.2,0,0.4-0.1,0.4-0.2c0.1-0.3,0.1-1.1,0.1-1.9v-2.2
		c0-0.7,0-0.9-0.3-1.2c-0.1-0.1-0.4-0.2-0.5-0.2l-0.1,0c-0.1-0.1-0.1-0.2,0-0.3c0.4,0,0.9,0,1.1,0c0.2,0,0.4,0,0.7,0
		c0.2,0.4,1.2,1.6,1.6,2l1,1c0.4,0.4,1.3,1.4,1.4,1.5c0,0,0-0.1,0-0.2v-1.8c0-0.7,0-1.6-0.2-1.9c-0.1-0.1-0.2-0.2-0.5-0.2l-0.2,0
		c-0.1-0.1-0.1-0.2,0-0.3c0.4,0,0.7,0,1.1,0c0.4,0,0.7,0,1,0c0.1,0,0.1,0.2,0,0.3l-0.2,0c-0.2,0-0.3,0.1-0.4,0.2
		c-0.1,0.3-0.1,1.1-0.1,1.9V34.4z"/>
	<path class="st1" d="M96.1,31.1c0-1-0.1-1-0.5-1.1l-0.2,0c-0.1-0.1-0.1-0.2,0-0.3c0.2,0,0.4,0,0.6,0c0.2,0,0.4,0,0.6,0h1.8
		c0.6,0,1.2,0,1.3,0c0,0.2,0.1,0.9,0.2,1.3c0,0.1-0.2,0.1-0.3,0c-0.2-0.5-0.3-0.8-0.6-0.9c-0.2-0.1-0.5-0.1-0.8-0.1h-0.6
		c-0.4,0-0.4,0-0.4,0.6v1.6c0,0.2,0,0.3,0.2,0.3h0.5c0.8,0,1,0,1.1-0.4l0.1-0.3c0.1-0.1,0.3-0.1,0.3,0c0,0.3,0,0.6,0,0.9
		c0,0.4,0,0.7,0,1c0,0.1-0.2,0.1-0.3,0L99,33.4C98.9,33,98.7,33,97.9,33h-0.5c-0.2,0-0.2,0-0.2,0.3v1.2c0,0.5,0,0.8,0.2,1
		c0.1,0.1,0.3,0.2,1.1,0.2c1.2,0,1.4-0.3,1.8-1c0.1-0.1,0.2,0,0.3,0.1c-0.1,0.4-0.3,1.1-0.4,1.4c-0.2,0-0.5,0-0.9,0
		c-0.4,0-0.9,0-1.5,0h-1.1c-0.4,0-1,0-1.4,0c-0.1,0-0.1-0.2,0-0.3l0.4,0c0.5,0,0.5-0.1,0.5-1.1V31.1z"/>
</g>
</svg>
