<?xml version="1.0" encoding="utf-8"?>
<!-- Generator: Adobe Illustrator 22.0.1, SVG Export Plug-In . SVG Version: 6.00 Build 0)  -->
<svg version="1.1" id="Layer_1" xmlns="http://www.w3.org/2000/svg" xmlns:xlink="http://www.w3.org/1999/xlink" x="0px" y="0px"
	 viewBox="0 0 130 93" style="enable-background:new 0 0 130 93;" xml:space="preserve">
<style type="text/css">
	.st0{opacity:0.5;}
	.st1{opacity:0.3;enable-background:new    ;}
	.st2{fill:#FFFFFF;}
	.st3{clip-path:url(#SVGID_2_);fill:#FFFFFF;}
	.st4{clip-path:url(#SVGID_4_);fill:#FFFFFF;}
	.st5{clip-path:url(#SVGID_6_);fill:#FFFFFF;}
	.st6{clip-path:url(#SVGID_8_);fill:#FFFFFF;}
</style>
<g class="st0">
	<path class="st1" d="M111.1,52.4c0,0,0-0.1,0-0.3c-0.6-3.5-1-7.9-0.9-10c0-1.4,0.7-9.5,0.9-10.8c0.3-1.6,0.9-8.4,0.9-14.7
		c0-3.3-0.6-10-1.4-12.3l-1.3-4l-0.7,0.2L105,2c0,0-1.7,0.7-4.2,0.9c-1.2,0.3-2.2,0.4-3.2,0.4c-1.6,0-2.7-0.1-3.8-0.3
		c-0.1,0-0.3,0-0.3-0.1c-0.1,0-0.3,0-0.4-0.1H93c-1.3-0.3-3-0.4-5.5-0.4c-2.6,0-5.8,0.1-8.7,0.6c-1.7,0.1-3,0.3-4.2,0.3
		c-1,0-1.6-0.1-2-0.1c-0.1,0-0.3,0-0.4,0c-0.7-0.1-1.4-0.4-2.3-0.7c-1.7-0.6-4-1.4-7.2-1.4c-0.1,0-0.1,0-0.3,0
		c-0.9,0-2.2,0.1-3.3,0.1c-0.7,0-1.4,0.1-1.9,0.1h-0.1c-0.7,0-1.9-0.1-3-0.4H54c-1.3-0.1-2.5-0.4-3.6-0.4c-1.4,0-2.7,0.1-3.9,0.4
		L45.6,1c-1.2,0.1-2.7,0.6-4.9,0.6c-0.4,0-0.9,0-1.3,0c-1.4,0-2.2-0.1-3.2-0.3H36c-0.9-0.1-3.2-0.4-6.1-0.4c-0.4,0-0.9,0-1.4,0
		C24.6,1,18.4,2.5,18.2,2.6l-3.9,1l0,0h-0.1l1.3,3.6c0.4,1.3,2.7,7.9,3.5,12.1l0.1,1c0.6,2.7,1.3,6.4,1.6,9.2
		c0.3,3.3,0.6,6.8,0.4,9.8v0.6c0,1.2-0.1,2.6-0.1,3.6c-0.1,2.9-0.6,5.9-0.7,7.9l-0.1,1.4c-0.4,2.9-1.2,9-1.6,11L17.3,70l5.9-2.3
		c0.1,0,3.2-1.2,4.6-1.7l0,0c1.2-0.4,3.5-1.2,6.5-1.3l0,0c1,0,1.9,0.1,2.9,0.3c1.2,0.1,2.5,0.4,3.9,0.4c0.6,0,1.3,0,1.9-0.1
		c0.7-0.1,1.4-0.3,2.3-0.4c1.9-0.4,4-0.9,6.1-0.9h0.1c1.4,0,2.5,0.1,3.3,0.3c0.7,0.1,1.6,0.1,2.6,0.1c0.7,0,1.6,0,2.5-0.1l0.6-0.1
		c1.2-0.1,2.3-0.3,3.2-0.3c1.3,0,2.5,0.3,3.6,0.9c1.9,1,4.2,1.4,6.8,1.4c1.7,0,3.6-0.1,5.6-0.6c1.3-0.3,3.9-0.4,6.6-0.4
		c0.7,0,1.6,0,2.3,0c1.4,0,3.2,0.3,4.8,0.6c2,0.3,4.2,0.7,6.2,0.7h0.3c2,0,7.9-0.3,9.7-0.9l2.3-0.7l0.1-2.5
		C112.2,57.7,111.4,53.7,111.1,52.4"/>
	<path class="st2" d="M14.9,3.8l1.2,3.3c0.4,1.3,2.7,7.9,3.5,12l0.1,1c0.6,2.6,1.3,6.4,1.6,9.1c0.3,3.2,0.6,6.6,0.4,9.7v0.6
		c0,1-0.1,2.5-0.1,3.5c-0.1,2.9-0.6,5.9-0.7,7.8l-0.1,1.4c-0.3,2.6-1.2,8.8-1.6,10.8L18,68.8l5.5-2c0.7-0.3,3.3-1.3,4.5-1.6l0,0
		c1.2-0.4,3.5-1.2,6.5-1.3l0,0c1,0,1.9,0.1,2.9,0.3c1.2,0.1,2.3,0.4,3.8,0.4c0.6,0,1.2,0,1.9-0.1s1.4-0.3,2.3-0.4
		c1.9-0.4,4-0.9,6.1-0.9h0.1c1.4,0,2.5,0.1,3.3,0.3c0.7,0.1,1.6,0.1,2.6,0.1c0.7,0,1.6,0,2.5-0.1l0.6-0.1c1.2-0.1,2.2-0.3,3.2-0.3
		c1.4,0,2.5,0.3,3.6,0.9c1.9,0.9,4,1.4,6.6,1.4c1.7,0,3.6-0.1,5.5-0.6c1.3-0.3,3.9-0.4,6.6-0.4c0.7,0,1.6,0,2.3,0
		c1.4,0,3.2,0.3,4.8,0.6c2,0.3,4,0.7,6.1,0.7h0.3c2,0,7.8-0.3,9.4-0.7l2.2-0.7l0.1-2.3c0.1-4.6-0.6-8.5-0.9-9.8c0,0,0-0.1,0-0.3
		c-0.6-3.5-0.9-7.9-0.9-9.8c0-1.4,0.7-9.4,0.9-10.7c0.3-1.6,0.9-8.2,0.9-14.6c0-3.3-0.6-9.8-1.3-12l-1.4-3.5l-3.4,1.2
		c0,0-1.7,0.7-4.3,1c-1.2,0.1-2.3,0.1-3.2,0.1c-2,0-3.5-0.3-4.8-0.6c-1.3-0.3-3-0.4-5.3-0.4c-2.6,0-5.8,0.1-8.7,0.6
		c-1.7,0.1-3.2,0.3-4.3,0.3c-1,0-1.6-0.1-2.2-0.1c-0.1,0-0.3,0-0.4,0c-0.7-0.1-1.6-0.4-2.5-0.7c-1.7-0.6-3.9-1.3-7.1-1.3
		c-0.1,0-0.1,0-0.3,0c-0.9,0-2.2,0.1-3.3,0.1c-0.9,0-1.6,0.1-2,0.1c-0.7,0-2-0.1-3.2-0.4h-0.1c-1.3-0.1-2.5-0.4-3.6-0.4
		c-1.3,0-2.6,0.1-3.8,0.4l-0.9,0.1c-1.2,0.3-2.9,0.6-5.1,0.6c-0.4,0-0.9,0-1.3,0c-1.4,0-2.2-0.1-3.2-0.3h-0.1
		c-0.9-0.1-3.2-0.4-6.1-0.4c-0.4,0-0.9,0-1.4,0c-3.9,0.1-10,1.6-10.3,1.7L14.9,3.8"/>
	<g>
		<path d="M2.9,89.4v0.3c0,1,0.3,1.6,1.3,1.6c0.6,0,1.3-0.4,1.3-1.3s-0.4-1.3-1.9-1.7c-1.9-0.6-2.6-1.4-2.6-3c0-2,1.2-3,3.2-3
			c1.9,0,3.2,0.7,3.2,2.7v0.3h-2c0-1-0.3-1.4-1.2-1.4S3,84.5,3,85.1s0.1,1,1,1.4l1.6,0.7c1.6,0.7,1.9,1.4,1.9,2.7
			c0,2.2-1.3,3.2-3.6,3.2s-3.2-1.2-3.2-3v-0.6L2.9,89.4L2.9,89.4z"/>
		<polygon points="8.1,82.3 10.1,82.3 11.3,89.8 11.3,89.8 12.4,82.3 14.4,82.3 15.6,89.8 15.7,89.8 16.8,82.3 18.8,82.3 16.9,92.5 
			14.6,92.5 13.4,85 13.4,85 12.3,92.5 10,92.5 		"/>
		<polygon points="25.6,82.3 25.6,84 21.8,84 21.8,86.3 25.3,86.3 25.3,88.1 21.8,88.1 21.8,90.8 25.7,90.8 25.7,92.5 19.8,92.5 
			19.8,82.3 		"/>
		<path d="M26.9,82.3h3.5c2.9,0,3.3,2,3.3,4.9c0,3.6-0.7,5.2-3.5,5.2H27V82.3H26.9z M29,90.9h0.9c1.4,0,1.7-0.9,1.7-3.6
			c0-2.3-0.1-3.5-1.7-3.5H29V90.9z"/>
		<rect x="35.1" y="82.3" width="2" height="10.3"/>
		<path d="M40.4,89.4v0.3c0,1,0.3,1.6,1.3,1.6c0.6,0,1.3-0.4,1.3-1.3s-0.4-1.3-1.9-1.7c-1.9-0.6-2.6-1.4-2.6-3c0-2,1.2-3,3.2-3
			c1.9,0,3.2,0.7,3.2,2.7v0.3h-2c0-1-0.3-1.4-1.2-1.4s-1.2,0.6-1.2,1.2s0.1,1,1,1.4l1.6,0.7c1.6,0.7,1.9,1.4,1.9,2.7
			c0,2.2-1.3,3.2-3.6,3.2s-3.2-1.2-3.2-3v-0.6L40.4,89.4L40.4,89.4z"/>
		<polygon points="46.4,82.3 48.4,82.3 48.4,86.2 50.8,86.2 50.8,82.3 52.9,82.3 52.9,92.5 50.8,92.5 50.8,87.9 48.4,87.9 
			48.4,92.5 46.4,92.5 		"/>
		<path d="M61.2,82.1c3,0,3.5,2.2,3.5,5.3c0,3-0.4,5.3-3.5,5.3c-3,0-3.5-2.2-3.5-5.3C57.8,84.3,58.2,82.1,61.2,82.1 M61.2,91.2
			c1.2,0,1.4-1,1.4-3.8s-0.1-3.8-1.4-3.8c-1.2,0-1.4,1-1.4,3.8C59.8,90.1,60.1,91.2,61.2,91.2"/>
		<path d="M65.9,82.3h3.8c1.7,0,2.7,0.9,2.7,2.6c0,1.3-0.6,2.3-1.7,2.5l0,0c1.4,0.1,1.6,1,1.6,3.2c0,1,0,1.6,0.4,1.9l0,0h-2.2
			c-0.1-0.3-0.3-0.7-0.3-1v-2c0-0.9-0.4-1.3-1.2-1.3h-1.2v4.3h-2L65.9,82.3L65.9,82.3z M67.9,86.8h0.9c1,0,1.6-0.4,1.6-1.6
			c0-1-0.4-1.4-1.4-1.4h-1L67.9,86.8L67.9,86.8z"/>
		<rect x="74" y="82.3" width="2" height="10.3"/>
		<polygon points="83.3,82.3 83.3,84 79.6,84 79.6,86.3 83.1,86.3 83.1,88.1 79.6,88.1 79.6,90.8 83.5,90.8 83.5,92.5 77.6,92.5 
			77.6,82.3 		"/>
		<polygon points="87,82.3 89.4,89.2 89.6,89.2 89.6,82.3 91.4,82.3 91.4,92.5 89,92.5 86.5,85.3 86.5,85.3 86.5,92.5 84.6,92.5 
			84.6,82.3 		"/>
		<polygon points="99.1,82.3 99.1,84 96.8,84 96.8,92.5 94.8,92.5 94.8,84 92.6,84 92.6,82.3 		"/>
		<polygon points="103.7,92.5 103.7,82.3 105.7,82.3 105.7,90.8 109.3,90.8 109.3,92.5 		"/>
		<rect x="110.5" y="82.3" width="2" height="10.3"/>
		<polygon points="116.6,82.3 119.2,89.2 119.2,89.2 119.2,82.3 121,82.3 121,92.5 118.7,92.5 116.1,85.3 116.1,85.3 116.1,92.5 
			114.3,92.5 114.3,82.3 		"/>
		<polygon points="128.3,82.3 128.3,84 124.5,84 124.5,86.3 128,86.3 128,88.1 124.5,88.1 124.5,90.8 128.4,90.8 128.4,92.5 
			122.5,92.5 122.5,82.3 		"/>
	</g>
	<path d="M20.2,66l0.6-2.6c0.4-2,1.2-7.8,1.6-10.8c0.1-0.6,0.1-1,0.1-1.4c0.3-1.9,0.6-5.1,0.7-7.9c0-1,0.1-2.5,0.1-3.6v-0.4
		c0.1-3-0.1-6.6-0.4-10c-0.3-2.9-1-6.6-1.6-9.2l-0.1-1c-0.9-4.2-3-10.8-3.6-12.1L17,5.3l1.7-0.4c0.3,0,6.2-1.4,9.8-1.6
		c0.4,0,0.9,0,1.3,0c2.7,0,4.9,0.3,5.8,0.4h0.1c1,0.1,1.9,0.3,3.5,0.3c0.4,0,0.9,0,1.4,0c2.3-0.1,4.2-0.4,5.3-0.7l0.9-0.1
		C48,3.1,49,2.8,50.1,2.8c0.9,0,2,0.1,3.3,0.4c1.3,0.1,2.7,0.4,3.6,0.3c0.4,0,1.3,0,2-0.1c1.2,0,2.3-0.1,3.2-0.1c0.1,0,0.1,0,0.3,0
		c2.7,0,4.8,0.7,6.5,1.3c1,0.3,1.9,0.6,2.7,0.7c0.1,0,0.3,0,0.4,0c0.6,0.1,1.3,0.1,2.5,0.1s2.6-0.1,4.5-0.3c2.7-0.3,5.9-0.6,8.5-0.6
		c2.2,0,3.8,0.1,4.9,0.4c1.3,0.3,2.9,0.6,5.1,0.6c1,0,2.2,0,3.5-0.1c2.9-0.3,4.8-1,4.8-1l1.4-0.6l0.6,1.4c0.6,1.9,1.3,7.8,1.3,11.4
		c0,6.2-0.6,12.7-0.9,14.3c-0.1,1.3-0.9,9.2-0.9,10.8c-0.1,2,0.3,6.5,0.9,10.3c0,0,0,0.1,0,0.3c0.3,1.3,1,5.1,0.9,9.5v1l-1,0.3
		c-1.4,0.4-6.4,0.7-9.1,0.7h-0.3c-1.9,0-3.9-0.3-5.8-0.7c-1.7-0.3-3.5-0.6-5.1-0.6c-0.7,0-1.6,0-2.3,0c-2.7,0-5.5,0.1-6.9,0.4
		c-1.7,0.5-3.3,0.6-4.9,0.6c-2.3,0-4.2-0.4-5.8-1.2c-1.4-0.7-2.9-1-4.5-1c-1.2,0-2.3,0.1-3.5,0.3l-0.6,0.1c-0.9,0.1-1.4,0.1-2.2,0.1
		c-0.9,0-1.6-0.1-2.3-0.1c-0.9-0.1-1.9-0.3-3.5-0.3h-0.1c-2.3,0-4.6,0.4-6.5,0.9c-0.9,0.1-1.6,0.3-2.2,0.4c-0.6,0-1,0.1-1.6,0.1
		c-1.3,0-2.3-0.1-3.5-0.4c-1-0.1-2-0.3-3.2-0.3l0,0c-3.5,0-5.9,0.9-7.1,1.3l0,0c-1.4,0.4-4.5,1.7-4.6,1.7L20.2,66"/>
	<g>
		<g>
			<g>
				<defs>
					<path id="SVGID_1_" d="M46.8,3l-0.9,0.1c-1.2,0.3-3,0.6-5.3,0.7c-0.4,0-1,0-1.4,0c-1.6,0-2.5-0.1-3.5-0.3h-0.1
						c-0.9-0.1-3-0.4-5.8-0.4c-0.4,0-0.9,0-1.3,0c-3.8,0.1-9.5,1.6-9.8,1.6L17,5.1l0.6,1.4c0.4,1.3,2.7,7.9,3.6,12.1l0.1,1
						c0.6,2.7,1.3,6.4,1.6,9.2c0.3,3.3,0.6,6.8,0.4,10v0.4c0,1.2-0.1,2.6-0.1,3.6c-0.1,2.9-0.6,5.9-0.7,7.9c0,0.4-0.1,0.9-0.1,1.4
						c-0.4,3.2-1.2,9-1.6,10.8l-0.6,2.7l2.5-0.9c0,0,3.2-1.2,4.6-1.7l0,0c1.2-0.4,3.8-1.3,7.1-1.3l0,0c1.2,0,2.2,0.1,3.2,0.3
						s2.2,0.4,3.5,0.4c0.6,0,1,0,1.6-0.1s1.3-0.3,2.2-0.4c1.9-0.4,4.2-0.9,6.5-0.9h0.1c1.6,0,2.6,0.1,3.5,0.3
						c0.7,0.1,1.4,0.1,2.3,0.1c0.7,0,1.3,0,2.2-0.1l0.6-0.1c1.2-0.1,2.3-0.3,3.5-0.3c1.6,0,3,0.3,4.5,1c1.6,0.7,3.5,1.2,5.8,1.2
						c1.6,0,3.3-0.1,5.1-0.6c1.4-0.3,4.2-0.4,6.9-0.4c0.7,0,1.6,0,2.3,0c1.6,0,3.3,0.3,5.1,0.6c1.9,0.3,3.9,0.6,5.8,0.7h0.3
						c2.6,0,7.7-0.3,9-0.7l1-0.3v-1c0.1-4.3-0.6-8.2-0.9-9.5c0-0.1,0-0.3,0-0.3c-0.7-3.8-1-8.2-0.9-10.3c0-1.6,0.7-9.5,0.9-10.8
						c0.1-1.6,0.9-8.1,0.9-14.3c0-3.5-0.6-9.5-1.3-11.4l-0.6-1.4L106.1,4c0,0-2,0.7-4.8,1c-1.2,0.1-2.3,0.1-3.5,0.1
						c-2.3,0-3.8-0.3-5.1-0.6c-1,0-2.6-0.1-4.8-0.1c-2.6,0-5.6,0.1-8.5,0.6c-1.9,0.3-3.3,0.3-4.5,0.3S73,5.2,72.4,5.2
						c-0.1,0-0.3,0-0.4,0c-0.9-0.1-1.9-0.4-2.7-0.7c-1.6-0.7-3.6-1.4-6.4-1.4c-0.1,0-0.1,0-0.3,0c-0.9,0-2,0.1-3.2,0.1
						c-0.9,0-1.6,0.1-2,0.1c-0.9,0.1-2.3-0.1-3.6-0.3c-1.2-0.1-2.3-0.4-3.3-0.4c-0.1,0-0.1,0-0.3,0C49,2.7,47.8,2.8,46.8,3"/>
				</defs>
				<clipPath id="SVGID_2_">
					<use xlink:href="#SVGID_1_"  style="overflow:visible;"/>
				</clipPath>
				<path class="st3" d="M79.7,8.5c-1.7,0.1-3.6,0.1-5.3-0.1c-3.6-0.6-6.9-2.3-9.4-2.7C63.1,5.4,59.2,6,56.9,6
					C45.6,9.8,37.5,20.4,37.5,32.9c0,12.1,7.7,22.5,18.5,26.4c1.3,0.1,3.2,0,4.2-0.1c1.4-0.1,4.9-0.6,7.4-0.1
					c1.4,0.3,2.7,0.9,3.9,1.3c12.7-2.7,22.2-14,22.2-27.4C93.7,22.5,88.1,13.4,79.7,8.5 M45.8,39.4c-1.3,0-3-0.3-4.2-0.7v-2.6h1.3
					c0.3,1.7,1.6,2.7,2.9,2.7c1,0,1.7-0.6,1.7-1.4c0-2.2-3.3-2-5.2-4c-0.4-0.4-0.7-1-0.7-1.9c0-1.7,1.7-3,4.2-3
					c1.2,0,2.7,0.4,3.8,0.9v2.3h-1.2c-0.3-1.4-1.3-2.5-2.7-2.5c-1,0-1.6,0.6-1.6,1.3c0,2.3,6.2,2,6.2,5.9
					C50.1,38.2,48.4,39.4,45.8,39.4 M65.7,45.7c-7.1,0-13-5.8-13-13c0-7.1,5.8-13,13-13c7.1,0,13,5.8,13,13
					C78.6,40,72.8,45.7,65.7,45.7 M80.7,39.2v-0.7c0.9,0,1.3-0.4,1.3-1.3v-6.6c0-0.7-0.3-1.2-1.3-1.2v-0.7h5.5v0.7
					c-1,0-1.4,0.4-1.4,1.3v5.9c0,1.3,0.4,1.9,1.6,1.9c1.3,0,2.3-0.6,3.5-1.9h1l-0.4,2.6H80.7"/>
			</g>
		</g>
		<g>
			<g>
				<defs>
					<path id="SVGID_3_" d="M46.8,3l-0.9,0.1c-1.2,0.3-3,0.6-5.3,0.7c-0.4,0-1,0-1.4,0c-1.6,0-2.5-0.1-3.5-0.3h-0.1
						c-0.9-0.1-3-0.4-5.8-0.4c-0.4,0-0.9,0-1.3,0c-3.8,0.1-9.5,1.6-9.8,1.6L17,5.1l0.6,1.4c0.4,1.3,2.7,7.9,3.6,12.1l0.1,1
						c0.6,2.7,1.3,6.4,1.6,9.2c0.3,3.3,0.6,6.8,0.4,10v0.4c0,1.2-0.1,2.6-0.1,3.6c-0.1,2.9-0.6,5.9-0.7,7.9c0,0.4-0.1,0.9-0.1,1.4
						c-0.4,3.2-1.2,9-1.6,10.8l-0.6,2.7l2.5-0.9c0,0,3.2-1.2,4.6-1.7l0,0c1.2-0.4,3.8-1.3,7.1-1.3l0,0c1.2,0,2.2,0.1,3.2,0.3
						s2.2,0.4,3.5,0.4c0.6,0,1,0,1.6-0.1s1.3-0.3,2.2-0.4c1.9-0.4,4.2-0.9,6.5-0.9h0.1c1.6,0,2.6,0.1,3.5,0.3
						c0.7,0.1,1.4,0.1,2.3,0.1c0.7,0,1.3,0,2.2-0.1l0.6-0.1c1.2-0.1,2.3-0.3,3.5-0.3c1.6,0,3,0.3,4.5,1c1.6,0.7,3.5,1.2,5.8,1.2
						c1.6,0,3.3-0.1,5.1-0.6c1.4-0.3,4.2-0.4,6.9-0.4c0.7,0,1.6,0,2.3,0c1.6,0,3.3,0.3,5.1,0.6c1.9,0.3,3.9,0.6,5.8,0.7h0.3
						c2.6,0,7.7-0.3,9-0.7l1-0.3v-1c0.1-4.3-0.6-8.2-0.9-9.5c0-0.1,0-0.3,0-0.3c-0.7-3.8-1-8.2-0.9-10.3c0-1.6,0.7-9.5,0.9-10.8
						c0.1-1.6,0.9-8.1,0.9-14.3c0-3.5-0.6-9.5-1.3-11.4l-0.6-1.4L106.1,4c0,0-2,0.7-4.8,1c-1.2,0.1-2.3,0.1-3.5,0.1
						c-2.3,0-3.8-0.3-5.1-0.6c-1,0-2.6-0.1-4.8-0.1c-2.6,0-5.6,0.1-8.5,0.6c-1.9,0.3-3.3,0.3-4.5,0.3S73,5.2,72.4,5.2
						c-0.1,0-0.3,0-0.4,0c-0.9-0.1-1.9-0.4-2.7-0.7c-1.6-0.7-3.6-1.4-6.4-1.4c-0.1,0-0.1,0-0.3,0c-0.9,0-2,0.1-3.2,0.1
						c-0.9,0-1.6,0.1-2,0.1c-0.9,0.1-2.3-0.1-3.6-0.3c-1.2-0.1-2.3-0.4-3.3-0.4c-0.1,0-0.1,0-0.3,0C49,2.7,47.8,2.8,46.8,3"/>
				</defs>
				<clipPath id="SVGID_4_">
					<use xlink:href="#SVGID_3_"  style="overflow:visible;"/>
				</clipPath>
				<path class="st4" d="M63.8,30.3c0.3-0.6,0.9-1.4,0.9-1.4s-0.3-0.1-0.6,0c-0.3,0.1-0.4,0.6-0.4,0.7c0,0-0.4-0.4-0.9-0.3
					c-0.3,0.1-0.6,0.4-0.4,0.7c0.1,0.1,0.1,0.1,0.1,0.1s0.1-0.3,0.4-0.3c0.3,0.1,0.4,0.3,0.4,0.6c0,0.1-0.3,0.9-0.9,0.7
					c0,0-0.6-0.1-0.7-0.6c-0.1-0.3-0.1-0.4-0.1-0.6c0.1,0,0.3-0.1,0.3-0.3c0-0.1-0.1-0.3-0.3-0.3c-0.1,0-0.3,0.1-0.3,0.3
					c0,0.1,0,0.1,0.1,0.3l0,0c0,0.1-0.1,0.7-0.6,0.9c-0.6,0-0.7-0.1-0.9-0.3c-0.1-0.1-0.1-0.7-0.1-0.9c0.1-0.1,0.3-0.3,0.4-0.1
					c0.1,0.1,0.3,0.3,0.3,0.3s0.6-0.3,0.4-0.6c-0.1-0.4-0.4-0.4-0.6-0.6c-0.1,0-0.3,0-0.3,0s0.1-0.6,0.1-0.9c0-0.1-0.4-0.7-0.4-0.7
					s-0.4,0.6-0.4,0.7c-0.1,0.4,0.1,0.9,0.1,0.9s-0.1,0-0.3,0c-0.1,0-0.4,0.1-0.6,0.6c-0.1,0.4,0.4,0.6,0.4,0.6s0.1-0.3,0.3-0.3
					c0.1-0.1,0.3,0,0.4,0.1c0.1,0.1,0,0.7-0.1,0.9c-0.1,0.1-0.3,0.4-0.9,0.3c-0.4,0-0.6-0.6-0.6-0.9l0,0c0.1,0,0.1-0.1,0.1-0.3
					c0-0.1-0.1-0.3-0.3-0.3c-0.1,0-0.3,0.1-0.3,0.3c0,0.1,0.1,0.3,0.3,0.3c0,0.1,0,0.3-0.1,0.6c-0.1,0.4-0.7,0.6-0.7,0.6
					c-0.6,0.1-0.9-0.6-0.9-0.7c0-0.1,0-0.4,0.4-0.6c0.3-0.1,0.4,0.3,0.4,0.3s0,0,0.1-0.1c0.1-0.3-0.1-0.6-0.4-0.7
					c-0.4-0.1-0.9,0.3-0.9,0.3c0-0.1-0.3-0.6-0.4-0.7c-0.1-0.1-0.6-0.1-0.6,0c0,0,0.6,0.9,0.9,1.4c0.3,0.4,0.7,2.2,1.2,3
					c0.7-0.6,2-0.6,3-0.6s2.3,0.1,3,0.6C63.1,32.3,63.6,30.6,63.8,30.3"/>
			</g>
		</g>
		<g>
			<g>
				<defs>
					<path id="SVGID_5_" d="M46.8,3l-0.9,0.1c-1.2,0.3-3,0.6-5.3,0.7c-0.4,0-1,0-1.4,0c-1.6,0-2.5-0.1-3.5-0.3h-0.1
						c-0.9-0.1-3-0.4-5.8-0.4c-0.4,0-0.9,0-1.3,0c-3.8,0.1-9.5,1.6-9.8,1.6L17,5.1l0.6,1.4c0.4,1.3,2.7,7.9,3.6,12.1l0.1,1
						c0.6,2.7,1.3,6.4,1.6,9.2c0.3,3.3,0.6,6.8,0.4,10v0.4c0,1.2-0.1,2.6-0.1,3.6c-0.1,2.9-0.6,5.9-0.7,7.9c0,0.4-0.1,0.9-0.1,1.4
						c-0.4,3.2-1.2,9-1.6,10.8l-0.6,2.7l2.5-0.9c0,0,3.2-1.2,4.6-1.7l0,0c1.2-0.4,3.8-1.3,7.1-1.3l0,0c1.2,0,2.2,0.1,3.2,0.3
						s2.2,0.4,3.5,0.4c0.6,0,1,0,1.6-0.1s1.3-0.3,2.2-0.4c1.9-0.4,4.2-0.9,6.5-0.9h0.1c1.6,0,2.6,0.1,3.5,0.3
						c0.7,0.1,1.4,0.1,2.3,0.1c0.7,0,1.3,0,2.2-0.1l0.6-0.1c1.2-0.1,2.3-0.3,3.5-0.3c1.6,0,3,0.3,4.5,1c1.6,0.7,3.5,1.2,5.8,1.2
						c1.6,0,3.3-0.1,5.1-0.6c1.4-0.3,4.2-0.4,6.9-0.4c0.7,0,1.6,0,2.3,0c1.6,0,3.3,0.3,5.1,0.6c1.9,0.3,3.9,0.6,5.8,0.7h0.3
						c2.6,0,7.7-0.3,9-0.7l1-0.3v-1c0.1-4.3-0.6-8.2-0.9-9.5c0-0.1,0-0.3,0-0.3c-0.7-3.8-1-8.2-0.9-10.3c0-1.6,0.7-9.5,0.9-10.8
						c0.1-1.6,0.9-8.1,0.9-14.3c0-3.5-0.6-9.5-1.3-11.4l-0.6-1.4L106.1,4c0,0-2,0.7-4.8,1c-1.2,0.1-2.3,0.1-3.5,0.1
						c-2.3,0-3.8-0.3-5.1-0.6c-1,0-2.6-0.1-4.8-0.1c-2.6,0-5.6,0.1-8.5,0.6c-1.9,0.3-3.3,0.3-4.5,0.3S73,5.2,72.4,5.2
						c-0.1,0-0.3,0-0.4,0c-0.9-0.1-1.9-0.4-2.7-0.7c-1.6-0.7-3.6-1.4-6.4-1.4c-0.1,0-0.1,0-0.3,0c-0.9,0-2,0.1-3.2,0.1
						c-0.9,0-1.6,0.1-2,0.1c-0.9,0.1-2.3-0.1-3.6-0.3c-1.2-0.1-2.3-0.4-3.3-0.4c-0.1,0-0.1,0-0.3,0C49,2.7,47.8,2.8,46.8,3"/>
				</defs>
				<clipPath id="SVGID_6_">
					<use xlink:href="#SVGID_5_"  style="overflow:visible;"/>
				</clipPath>
				<path class="st5" d="M74.4,29.3c-0.3,0.1-0.6,0.4-0.4,0.7c0.1,0.1,0.1,0.1,0.1,0.1s0.1-0.3,0.4-0.3c0.3,0.1,0.4,0.3,0.4,0.6
					c0,0.1-0.3,0.9-0.9,0.7c0,0-0.6-0.1-0.7-0.6c-0.1-0.3-0.1-0.4-0.1-0.6c0.1,0,0.3-0.1,0.3-0.3c0-0.1-0.1-0.3-0.3-0.3
					c-0.1,0-0.3,0.1-0.3,0.3c0,0.1,0,0.1,0.1,0.3l0,0c0,0.1-0.1,0.7-0.6,0.9c-0.6,0-0.7-0.1-0.9-0.3c-0.1-0.1-0.3-0.7-0.1-0.9
					c0.1-0.1,0.3-0.3,0.4-0.1c0.1,0.1,0.3,0.3,0.3,0.3s0.6-0.3,0.4-0.6c-0.1-0.4-0.4-0.4-0.6-0.6c-0.1,0-0.3,0-0.3,0
					s0.1-0.6,0.1-0.9c0-0.1-0.4-0.7-0.4-0.7s-0.4,0.6-0.4,0.7c-0.1,0.4,0.1,0.9,0.1,0.9s-0.1,0-0.3,0c-0.1,0-0.4,0.1-0.6,0.6
					c-0.1,0.4,0.4,0.6,0.4,0.6s0.1-0.3,0.3-0.3c0.1-0.1,0.3,0,0.4,0.1s0,0.7-0.1,0.9s-0.3,0.4-0.9,0.3c-0.4,0-0.6-0.6-0.6-0.9l0,0
					c0.1,0,0.1-0.1,0.1-0.3c0-0.1-0.1-0.3-0.3-0.3c-0.1,0-0.3,0.1-0.3,0.3c0,0.1,0.1,0.3,0.3,0.3c0,0.1,0,0.3-0.1,0.6
					c-0.1,0.4-0.7,0.6-0.7,0.6c-0.6,0.1-0.9-0.6-0.9-0.7c0-0.1,0-0.4,0.4-0.6c0.3-0.1,0.4,0.3,0.4,0.3s0,0,0.1-0.1
					c0.1-0.3-0.1-0.6-0.4-0.7c-0.4-0.1-0.9,0.3-0.9,0.3c0-0.1-0.3-0.6-0.4-0.7c-0.1-0.1-0.6-0.1-0.6,0c0,0,0.6,0.9,0.9,1.4
					c0.3,0.4,0.7,2.2,1.2,3c0.7-0.6,2-0.6,3-0.6s2.3,0.1,3,0.6c0.3-0.9,0.9-2.6,1.2-3c0.3-0.6,0.9-1.4,0.9-1.4s-0.3-0.1-0.6,0
					c-0.3,0.1-0.4,0.6-0.4,0.7C75.3,29.6,74.8,29.1,74.4,29.3"/>
			</g>
		</g>
		<g>
			<g>
				<defs>
					<path id="SVGID_7_" d="M46.8,3l-0.9,0.1c-1.2,0.3-3,0.6-5.3,0.7c-0.4,0-1,0-1.4,0c-1.6,0-2.5-0.1-3.5-0.3h-0.1
						c-0.9-0.1-3-0.4-5.8-0.4c-0.4,0-0.9,0-1.3,0c-3.8,0.1-9.5,1.6-9.8,1.6L17,5.1l0.6,1.4c0.4,1.3,2.7,7.9,3.6,12.1l0.1,1
						c0.6,2.7,1.3,6.4,1.6,9.2c0.3,3.3,0.6,6.8,0.4,10v0.4c0,1.2-0.1,2.6-0.1,3.6c-0.1,2.9-0.6,5.9-0.7,7.9c0,0.4-0.1,0.9-0.1,1.4
						c-0.4,3.2-1.2,9-1.6,10.8l-0.6,2.7l2.5-0.9c0,0,3.2-1.2,4.6-1.7l0,0c1.2-0.4,3.8-1.3,7.1-1.3l0,0c1.2,0,2.2,0.1,3.2,0.3
						s2.2,0.4,3.5,0.4c0.6,0,1,0,1.6-0.1s1.3-0.3,2.2-0.4c1.9-0.4,4.2-0.9,6.5-0.9h0.1c1.6,0,2.6,0.1,3.5,0.3
						c0.7,0.1,1.4,0.1,2.3,0.1c0.7,0,1.3,0,2.2-0.1l0.6-0.1c1.2-0.1,2.3-0.3,3.5-0.3c1.6,0,3,0.3,4.5,1c1.6,0.7,3.5,1.2,5.8,1.2
						c1.6,0,3.3-0.1,5.1-0.6c1.4-0.3,4.2-0.4,6.9-0.4c0.7,0,1.6,0,2.3,0c1.6,0,3.3,0.3,5.1,0.6c1.9,0.3,3.9,0.6,5.8,0.7h0.3
						c2.6,0,7.7-0.3,9-0.7l1-0.3v-1c0.1-4.3-0.6-8.2-0.9-9.5c0-0.1,0-0.3,0-0.3c-0.7-3.8-1-8.2-0.9-10.3c0-1.6,0.7-9.5,0.9-10.8
						c0.1-1.6,0.9-8.1,0.9-14.3c0-3.5-0.6-9.5-1.3-11.4l-0.6-1.4L106.1,4c0,0-2,0.7-4.8,1c-1.2,0.1-2.3,0.1-3.5,0.1
						c-2.3,0-3.8-0.3-5.1-0.6c-1,0-2.6-0.1-4.8-0.1c-2.6,0-5.6,0.1-8.5,0.6c-1.9,0.3-3.3,0.3-4.5,0.3S73,5.2,72.4,5.2
						c-0.1,0-0.3,0-0.4,0c-0.9-0.1-1.9-0.4-2.7-0.7c-1.6-0.7-3.6-1.4-6.4-1.4c-0.1,0-0.1,0-0.3,0c-0.9,0-2,0.1-3.2,0.1
						c-0.9,0-1.6,0.1-2,0.1c-0.9,0.1-2.3-0.1-3.6-0.3c-1.2-0.1-2.3-0.4-3.3-0.4c-0.1,0-0.1,0-0.3,0C49,2.7,47.8,2.8,46.8,3"/>
				</defs>
				<clipPath id="SVGID_8_">
					<use xlink:href="#SVGID_7_"  style="overflow:visible;"/>
				</clipPath>
				<path class="st6" d="M70.2,36.1c-0.3,0.1-0.4,0.6-0.4,0.7c0,0-0.4-0.4-0.9-0.3c-0.3,0.1-0.6,0.4-0.4,0.7
					c0.1,0.1,0.1,0.1,0.1,0.1S68.7,37,69,37c0.3,0.3,0.3,0.4,0.3,0.7c0,0.1-0.3,0.9-0.9,0.7c0,0-0.6-0.1-0.7-0.6
					c-0.1-0.3-0.1-0.4-0.1-0.6c0.1,0,0.3-0.1,0.3-0.3s-0.1-0.3-0.3-0.3c-0.1,0-0.3,0.1-0.3,0.3s0,0.1,0.1,0.3l0,0
					c0,0.1-0.1,0.7-0.6,0.9c-0.6,0-0.7-0.1-0.9-0.3c-0.1-0.1-0.1-0.7-0.1-0.9c0.1-0.1,0.3-0.3,0.4-0.1c0.1,0.1,0.3,0.3,0.3,0.3
					s0.6-0.3,0.4-0.6c-0.1-0.4-0.4-0.4-0.6-0.6c-0.1,0-0.3,0-0.3,0s0.1-0.6,0.1-0.9c0-0.1-0.4-0.7-0.4-0.7s-0.4,0.6-0.4,0.7
					c-0.1,0.4,0.1,0.9,0.1,0.9s-0.1,0-0.3,0s-0.4,0.1-0.6,0.6c-0.1,0.4,0.4,0.6,0.4,0.6s0.1-0.3,0.3-0.3c0.1-0.1,0.3,0,0.4,0.1
					s0,0.7-0.1,0.9c-0.1,0.1-0.3,0.4-0.9,0.3c-0.4,0-0.6-0.6-0.6-0.9l0,0c0.1,0,0.1-0.1,0.1-0.3s-0.1-0.3-0.3-0.3
					c-0.1,0-0.3,0.1-0.3,0.3s0.1,0.3,0.3,0.3c0,0.1,0,0.3-0.1,0.6c-0.1,0.4-0.7,0.6-0.7,0.6c-0.6,0.1-0.9-0.6-0.9-0.7
					c0-0.1,0-0.4,0.4-0.6c0.3-0.1,0.4,0.3,0.4,0.3s0,0,0.1-0.1c0.1-0.3-0.1-0.6-0.4-0.7c-0.4-0.1-0.9,0.3-0.9,0.3
					c0-0.1-0.3-0.6-0.4-0.7s-0.6-0.1-0.6,0c0,0,0.6,0.9,0.9,1.4c0.3,0.4,0.7,2.2,1.2,3c0.7-0.6,2-0.6,3-0.6s2.3,0.1,3,0.6
					c0.3-0.9,0.9-2.6,1.2-3c0.3-0.6,0.9-1.4,0.9-1.4C70.8,35.9,70.3,35.9,70.2,36.1"/>
			</g>
		</g>
	</g>
	<polyline points="0,75.9 130,75.9 130,76.4 0,76.4 	"/>
</g>
</svg>
