<?xml version="1.0" encoding="utf-8"?>
<!-- Generator: Adobe Illustrator 22.0.1, SVG Export Plug-In . SVG Version: 6.00 Build 0)  -->
<svg version="1.1" id="Layer_1" xmlns="http://www.w3.org/2000/svg" xmlns:xlink="http://www.w3.org/1999/xlink" x="0px" y="0px"
	 viewBox="0 0 130 70" style="enable-background:new 0 0 130 70;" xml:space="preserve">
<style type="text/css">
	.st0{fill:#FFFFFF;}
</style>
<g>
	<path class="st0" d="M106.1,41.1c0-5.9,3.8-10.4,9.9-10.4c6.1,0,10.5,4.5,10.5,10.4c0,5.9-4.4,10.4-10.5,10.4
		C109.9,51.5,106.1,46.9,106.1,41.1 M130,11.8h-3.7v20.5h-0.1c-2.4-3.5-6.7-5-10.2-5c-8.2,0-14,5.9-14,13.8s5.8,13.8,14,13.8
		c3.5,0,7.8-1.5,10.2-5h0.1v4.4h3.7V11.8z M87.4,54.2h3.7V39.4c0-3.5,2.5-8.4,8.1-8.4c1,0,1.7,0.1,2.1,0.3l0.7-3.6
		c-0.8-0.2-1.7-0.3-2.7-0.3c-4.6,0-7.3,2.7-8.4,5.5h-0.1V28h-3.6c0.1,3.8,0.2,5.8,0.2,8.2V54.2z M78.8,41.1V43c0,4.7-2.6,8.5-8,8.5
		c-3,0-6.2-1.3-6.2-4.8c0-5.3,8.5-5.5,12.2-5.5H78.8z M77,38.1c-6.3,0-16.3,0.6-16.3,9.1c0,5.1,4.4,7.7,9,7.7c4.2,0,7.1-1.5,9.2-4.9
		H79c0,1.4,0.1,3,0.3,4.3H83c-0.2-1.4-0.4-3.9-0.4-5.9V36.6c0-6.4-4.4-9.3-9.6-9.3c-4.9,0-8.7,1.3-11.1,3.8l2.2,2.6
		c2.2-2,4.9-3.1,8-3.1c4.5,0,6.7,2.2,6.7,6.8v0.7H77z M33.1,40.7c0-5.5,4.3-10.1,9.8-10.1c6.2,0,9.9,4.6,9.9,10.1
		c0.2,6.1-4.5,10.1-9.9,10.1C37.4,50.8,33.1,46.2,33.1,40.7 M29.7,62.4c3.4,3.6,7.4,5.3,12.6,5.3c11.8,0,14.1-8,14.1-13.7V28h-3.7
		v4.4h-0.1c-3-4.1-7-5-10.1-5c-7.7,0-13.3,5.9-13.3,13.6c0,7.7,6.1,13.3,13.7,13.3c3.8,0,7.5-1.4,9.8-4.9h0.1V54
		c0,5.7-2.7,10.3-10.2,10.3c-4.2,0-7.8-1.9-10-4.8L29.7,62.4z"/>
	<g>
		<path class="st0" d="M27.1,12c-1.4,0-2.5,0.6-3.3,1.7h-5.5c-0.8-1-2-1.7-3.3-1.7c-2.3,0-4.1,1.9-4.1,4.1s1.9,4.1,4.1,4.1
			c1.3,0,2.5-0.6,3.3-1.7h5.5c0.8,1,2,1.7,3.3,1.7c2.3,0,4.1-1.9,4.1-4.1S29.4,12,27.1,12z M26.1,17.9h-10c-1.2,0-2.2-0.8-2.2-1.8
			c0-1,1-1.8,2.2-1.8h10c1.2,0,2.2,0.8,2.2,1.8C28.2,17.1,27.3,17.9,26.1,17.9z"/>
		<path class="st0" d="M41.7,7.6c-2.5-5.9-13.7-6.9-25.1-2.2C5.3,10.1-2,18.7,0.5,24.7c2.5,5.9,13.7,6.9,25.1,2.2
			C37,22.2,44.2,13.5,41.7,7.6z M27.1,24c-2.4,0-4.6-1.1-6-2.8c-1.4,1.7-3.6,2.8-6,2.8c-4.4,0-7.9-3.5-7.9-7.9
			c0-4.4,3.5-7.9,7.9-7.9c2.4,0,4.6,1.1,6,2.8c1.4-1.7,3.6-2.8,6-2.8c4.4,0,7.9,3.5,7.9,7.9C35,20.5,31.5,24,27.1,24z"/>
	</g>
</g>
</svg>
