<?xml version="1.0" encoding="utf-8"?>
<!-- Generator: Adobe Illustrator 22.0.1, SVG Export Plug-In . SVG Version: 6.00 Build 0)  -->
<svg version="1.1" id="Layer_1" xmlns="http://www.w3.org/2000/svg" xmlns:xlink="http://www.w3.org/1999/xlink" x="0px" y="0px"
	 viewBox="0 0 130 23" style="enable-background:new 0 0 130 23;" xml:space="preserve">
<style type="text/css">
	.st0{opacity:0.5;}
</style>
<g class="st0">
	<polygon points="32.4,7.8 29.5,7.8 29.5,9.3 32.4,9.3 32.4,10.4 29.5,10.4 29.5,13.1 27.9,13.1 27.9,6.6 32.4,6.6 	"/>
	<polygon points="38.6,13.1 33.8,13.1 33.8,6.6 38.5,6.6 38.5,7.8 35.4,7.8 35.4,9.2 38.4,9.2 38.4,10.4 35.4,10.4 35.4,11.9 
		38.6,11.9 	"/>
	<polygon points="54.1,13.1 52.7,13.1 49.2,9 49.2,13.1 47.6,13.1 47.6,6.6 49,6.6 52.5,10.6 52.5,6.6 54.1,6.6 	"/>
	<path d="M58.6,8.2l-0.9,2.5h2L58.6,8.2z M62.3,13.1h-1.7l-0.5-1.3h-2.9l-0.5,1.3H55l2.6-6.5h1.9L62.3,13.1z"/>
	<polygon points="65.2,13.1 64.4,13.1 61.3,6.6 63,6.6 64.8,10.4 66.4,6.6 68.1,6.6 	"/>
	<polygon points="8.9,3.1 6.6,6.6 3.4,6.6 4.7,9.7 1.1,11.4 4.8,13.1 8.9,13.1 	"/>
	<rect x="9.7" y="13.1" width="2.5" height="6.7"/>
	<polygon points="16,6.7 16,4.2 9.7,4.2 9.7,12.3 16,12.3 16,9.7 12.2,9.7 12.2,6.7 	"/>
	<polygon points="32.4,7.8 29.5,7.8 29.5,9.3 32.4,9.3 32.4,10.4 29.5,10.4 29.5,13.1 27.9,13.1 27.9,6.6 32.4,6.6 	"/>
	<polygon points="34.2,19.9 32.1,19.9 32.1,16.5 34.1,16.5 34.1,17 32.7,17 32.7,17.8 33.6,17.8 33.6,18.3 32.7,18.3 32.7,19.4 
		34.2,19.4 	"/>
	<polygon points="37.6,19.9 35.6,19.9 35.6,16.5 36.2,16.5 36.2,19.4 37.6,19.4 	"/>
	<rect x="39" y="16.5" width="0.6" height="3.4"/>
	<polygon points="47.7,19.9 45.6,19.9 45.6,16.5 47.6,16.5 47.6,17 46.2,17 46.2,17.8 47.1,17.8 47.1,18.3 46.2,18.3 46.2,19.4 
		47.7,19.4 	"/>
	<rect x="53" y="16.5" width="0.6" height="3.4"/>
	<polygon points="76.4,19.9 75.8,19.9 75.8,18.3 74.2,18.3 74.2,19.9 73.6,19.9 73.6,16.5 74.2,16.5 74.2,17.8 75.8,17.8 75.8,16.5 
		76.4,16.5 	"/>
	<rect x="78.1" y="16.5" width="0.6" height="3.4"/>
	<polygon points="87.4,19.9 86.8,19.9 86.8,18.3 85.2,18.3 85.2,19.9 84.6,19.9 84.6,16.5 85.2,16.5 85.2,17.8 86.8,17.8 86.8,16.5 
		87.4,16.5 	"/>
	<polygon points="91.2,19.9 89.1,19.9 89.1,16.5 91.1,16.5 91.1,17 89.7,17 89.7,17.8 90.6,17.8 90.6,18.3 89.7,18.3 89.7,19.4 
		91.2,19.4 	"/>
	<polygon points="105.4,17 104.3,17 104.3,19.9 103.7,19.9 103.7,17 102.7,17 102.7,16.5 105.4,16.5 	"/>
	<path d="M41.7,11.9h1.1c1.6,0,2.1-1.1,2.1-2c0-1.1-0.6-2-2.1-2h-1L41.7,11.9L41.7,11.9z M42.9,6.6c2.4,0,3.6,1.5,3.6,3.2
		c0,1.9-1.2,3.2-3.7,3.2h-2.7V6.5h2.8V6.6z"/>
	<path d="M29.7,17.2C29.6,17,29.4,17,29.1,17h-0.5v2.3h0.7c0.2,0,0.4-0.1,0.5-0.2s0.2-0.3,0.2-0.9C29.9,17.6,29.8,17.4,29.7,17.2
		 M30.2,19.5c-0.2,0.2-0.5,0.3-0.9,0.3h-1.4v-3.3H29c0.5,0,0.8,0.1,1.1,0.4c0.2,0.2,0.4,0.5,0.4,1.4C30.5,19,30.3,19.3,30.2,19.5"/>
	<path d="M44.1,16.5L43,19.9h-0.8l-1.1-3.4h0.6l0.7,2.2c0,0.1,0.1,0.5,0.1,0.5h0.1c0,0,0.1-0.4,0.1-0.5l0.7-2.2H44.1z"/>
	<path d="M50.2,17h-0.5v1.1h0.5c0.3,0,0.5-0.2,0.5-0.6C50.7,17.2,50.6,17,50.2,17 M50.7,18.5c0.3,0.5,0.6,0.9,0.9,1.4h-0.7L50,18.6
		h-0.3v1.3h-0.6v-3.4h1.1c0.7,0,1.1,0.4,1.1,1.1c0,0.4-0.1,0.6-0.3,0.8C50.9,18.4,50.7,18.5,50.7,18.5"/>
	<path d="M58.2,19.9h-0.6l-1.4-2.1C56,17.6,56,17.4,56,17.4h-0.1c0,0,0,0.3,0,0.4v2h-0.6v-3.3h0.6l1.4,2.1c0.1,0.1,0.1,0.3,0.1,0.3
		h0.1c0,0,0-0.3,0-0.4v-2h0.6v3.4H58.2z"/>
	<path d="M62.5,19.5c-0.3,0.3-0.8,0.4-1.2,0.4s-0.8-0.1-1.1-0.3c-0.3-0.2-0.4-0.5-0.4-1.4c0-0.8,0.2-1.2,0.4-1.4
		c0.2-0.2,0.6-0.4,1.1-0.4c0.4,0,0.8,0.1,1.1,0.2l-0.1,0.5c-0.2-0.1-0.6-0.2-0.9-0.2c-0.6,0-0.9,0.2-0.9,1.2s0.3,1.2,0.9,1.2
		c0.2,0,0.5-0.1,0.6-0.1v-0.7h-0.7V18h1.3L62.5,19.5L62.5,19.5z"/>
	<path d="M68.5,18.6l-0.3-1c0-0.1-0.1-0.3-0.1-0.3H68c0,0,0,0.2-0.1,0.3l-0.3,1H68.5z M69.5,19.9h-0.6l-0.3-0.8h-1.2l-0.3,0.8h-0.6
		l1.1-3.4h0.7L69.5,19.9z"/>
	<path d="M83,19.5c-0.3,0.3-0.8,0.4-1.2,0.4c-0.4,0-0.8-0.1-1.1-0.3c-0.3-0.2-0.4-0.5-0.4-1.4c0-0.8,0.2-1.2,0.4-1.4
		c0.2-0.2,0.6-0.4,1.1-0.4c0.4,0,0.8,0.1,1.1,0.2l-0.1,0.5c-0.2-0.1-0.6-0.2-0.9-0.2c-0.6,0-0.9,0.2-0.9,1.2s0.3,1.2,0.9,1.2
		c0.2,0,0.5-0.1,0.6-0.1v-0.7h-0.7V18H83V19.5z"/>
	<path d="M93.8,17h-0.5v1.1h0.5c0.3,0,0.5-0.2,0.5-0.6C94.2,17.2,94.1,17,93.8,17 M94.2,18.5c0.3,0.5,0.6,0.9,0.9,1.4h-0.7l-0.9-1.3
		h-0.3v1.3h-0.6v-3.4h1.1c0.7,0,1.1,0.4,1.1,1.1c0,0.4-0.1,0.6-0.3,0.8C94.4,18.4,94.2,18.5,94.2,18.5"/>
	<path d="M100.3,19.9c-0.5,0-0.9-0.2-1.2-0.3l0.2-0.5c0.3,0.2,0.6,0.3,0.9,0.3c0.4,0,0.6-0.2,0.6-0.5s-0.1-0.4-0.5-0.5l-0.4-0.1
		c-0.5-0.1-0.8-0.3-0.8-0.9c0-0.5,0.4-1,1.2-1c0.4,0,0.8,0.2,1,0.3l-0.2,0.5c-0.1-0.1-0.4-0.2-0.7-0.2c-0.3,0-0.5,0.2-0.5,0.4
		c0,0.2,0.1,0.3,0.3,0.4l0.5,0.1c0.6,0.2,0.9,0.4,0.9,1C101.4,19.4,101.1,19.9,100.3,19.9"/>
	<path d="M108.2,18.6l-0.3-1c0-0.1-0.1-0.3-0.1-0.3h-0.1c0,0,0,0.2-0.1,0.3l-0.3,1H108.2z M109.2,19.9h-0.6l-0.3-0.8h-1.2l-0.3,0.8
		h-0.6l1.1-3.4h0.7L109.2,19.9z"/>
	<path d="M113.5,19.9h-0.6l-1.4-2.1c-0.1-0.1-0.2-0.3-0.2-0.3h-0.1c0,0,0,0.3,0,0.4v2h-0.6v-3.4h0.6l1.4,2.1
		c0.1,0.1,0.1,0.3,0.1,0.3h0.1c0,0,0-0.3,0-0.4v-2h0.6L113.5,19.9L113.5,19.9z"/>
	<path d="M117,17.2c-0.1-0.2-0.3-0.2-0.6-0.2h-0.5v2.3h0.7c0.2,0,0.4-0.1,0.5-0.2s0.2-0.3,0.2-0.9C117.2,17.6,117.1,17.4,117,17.2
		 M117.4,19.5c-0.2,0.2-0.5,0.3-0.9,0.3h-1.4v-3.3h1.1c0.5,0,0.8,0.1,1.1,0.4c0.2,0.2,0.4,0.5,0.4,1.4
		C117.8,19,117.6,19.3,117.4,19.5"/>
	<path d="M121,18.6l-0.3-1c0-0.1-0.1-0.3-0.1-0.3h-0.1c0,0,0,0.2-0.1,0.3l-0.3,1H121z M122.1,19.9h-0.6l-0.3-0.8H120l-0.3,0.8H119
		l1.1-3.4h0.7L122.1,19.9z"/>
	<path d="M124.6,17h-0.5v1.1h0.5c0.3,0,0.5-0.2,0.5-0.6C125.1,17.2,124.9,17,124.6,17 M125,18.5c0.3,0.5,0.6,0.9,0.9,1.4h-0.7
		l-0.9-1.3H124v1.3h-0.6v-3.4h1.1c0.7,0,1.1,0.4,1.1,1.1c0,0.4-0.1,0.6-0.3,0.8C125.3,18.4,125.1,18.5,125,18.5"/>
	<path d="M129.2,17.2c-0.1-0.2-0.3-0.2-0.6-0.2H128v2.3h0.7c0.2,0,0.4-0.1,0.5-0.2s0.2-0.3,0.2-0.9
		C129.4,17.6,129.3,17.4,129.2,17.2 M129.7,19.5c-0.2,0.2-0.5,0.3-0.9,0.3h-1.4v-3.3h1.1c0.5,0,0.8,0.1,1.1,0.4
		c0.2,0.2,0.4,0.5,0.4,1.4C130,19,129.8,19.3,129.7,19.5"/>
	<path d="M9.7,0.5c0.4,0,0.8-0.1,1.3-0.1c6.1,0,11,5,11,11.1s-5,11.1-11.1,11.1c-9.5,0-10.9-9-11-9.4H1c0.9,4.7,5,8.3,10,8.3
		c5.5,0,10-4.5,10-10s-4.5-10-10-10c-0.4,0-0.8,0-1.2,0.1L9.7,0.5z"/>
</g>
</svg>
