<?xml version="1.0" encoding="utf-8"?>
<!-- Generator: Adobe Illustrator 22.0.1, SVG Export Plug-In . SVG Version: 6.00 Build 0)  -->
<svg version="1.1" id="Layer_1" xmlns="http://www.w3.org/2000/svg" xmlns:xlink="http://www.w3.org/1999/xlink" x="0px" y="0px"
	 viewBox="0 0 130 70" style="enable-background:new 0 0 130 70;" xml:space="preserve">
<style type="text/css">
	.st0{fill:#FFFFFF;}
</style>
<g>
	<polygon class="st0" points="30.2,67 29.7,67 28.4,63.7 27.2,67 26.7,67 23.9,60 24.8,60 27,65.7 28.1,62.8 27,60 27.8,60 
		28.4,61.8 29.1,60 29.9,60 28.8,62.7 29.9,65.7 32,60 32.8,60 	"/>
	<polygon class="st0" points="34.9,66.9 34.9,60 38.8,60 38.8,60.7 35.8,60.7 35.8,63 38.3,63 38.3,63.7 35.8,63.7 35.8,66.1 
		38.9,66.1 38.9,66.9 	"/>
	<path class="st0" d="M46,66.8c-0.5,0.1-1.2,0.2-1.7,0.2c-2.1,0-3.7-1.6-3.7-3.6c0-2.1,1.6-3.6,3.7-3.6c0.5,0,1.1,0.1,1.4,0.2
		c0.3,0.1,0.5,0.2,0.8,0.4l-0.3,0.7c-0.2-0.1-0.3-0.1-0.4-0.2c-0.4-0.2-0.9-0.3-1.5-0.3c-1,0-1.6,0.3-2.1,0.9
		c-0.4,0.5-0.7,1.2-0.7,1.8c0,1.7,1.3,2.9,3,2.9c0.3,0,0.6,0,1.1-0.1v-2.3h0.9v2.8C46.3,66.7,46.1,66.7,46,66.8"/>
	<rect x="49.2" y="60" class="st0" width="0.9" height="6.9"/>
	<path class="st0" d="M55.1,60.9L54,64h2.3L55.1,60.9z M57.2,66.9l-0.7-2h-2.8l-0.7,2h-0.9l2.6-7.1h0.9l2.6,7.1H57.2z"/>
	<path class="st0" d="M64.9,66.9l-3.5-5.4c0-0.1-0.1-0.1-0.1-0.2c0-0.1-0.1-0.1-0.1-0.2c0-0.1-0.1-0.1-0.1-0.3v6h-0.9V60h1.1
		l3.4,5.3c0,0,0.1,0.1,0.1,0.2c0,0.1,0.1,0.1,0.1,0.3c0,0,0,0.1,0,0.1V60h0.9v7H64.9z"/>
	<polygon class="st0" points="77.7,66.9 77.7,63.7 73.6,63.7 73.6,66.9 72.7,66.9 72.7,60 73.6,60 73.6,63 77.7,63 77.7,60 78.5,60 
		78.5,66.9 	"/>
	<path class="st0" d="M85.6,66.5c-0.5,0.4-1.2,0.6-1.9,0.6c-0.7,0-1.4-0.2-1.9-0.6c-0.6-0.5-0.8-1-0.8-1.9V60h0.9v4.3
		c0,0.9,0.1,1.1,0.4,1.5c0.3,0.4,0.8,0.6,1.4,0.6c0.6,0,1.1-0.2,1.4-0.6c0.3-0.4,0.4-0.6,0.4-1.5V60h0.9v4.5
		C86.4,65.5,86.2,66,85.6,66.5"/>
	<polygon class="st0" points="89,66.9 89,60 89.8,60 89.8,66.2 92.9,66.2 92.9,66.9 	"/>
	<polygon class="st0" points="94.5,66.9 94.5,60 95.3,60 95.3,66.2 98.4,66.2 98.4,66.9 	"/>
	<path class="st0" d="M109.5,61.2c-0.5-0.4-1-0.5-1.7-0.5c-1.5,0-2.5,1.1-2.5,2.7c0,1.7,1.1,2.9,2.7,2.9c0.6,0,1-0.1,1.6-0.3
		l0.2,0.7c-0.4,0.2-0.6,0.3-0.9,0.3c-0.3,0.1-0.6,0.1-1,0.1c-2.1,0-3.6-1.5-3.6-3.6c0-2,1.5-3.6,3.5-3.6c0.4,0,0.9,0.1,1.3,0.2
		c0.3,0.1,0.5,0.2,0.8,0.4L109.5,61.2z"/>
	<polygon class="st0" points="112,66.9 112,60 112.8,60 112.8,66.2 115.9,66.2 115.9,66.9 	"/>
	<path class="st0" d="M48.1,33.5c0-0.1,0.1-0.1,0.2-0.1c0.7,0.2,6.8,2.1,9,3.1c1.9,0.9,0.2,3.2,2.5,3.4c2.2,0.2,4.2,0.2,6.2-0.3
		c1.2-0.4,1.4-3.2,1.4-3.2l5.3-1c-2.7-1.6-7.2-3.6-11.5-2.6c-2.9,0.7-2.9,2.5-2.8,3.2c0,0.1-0.1,0.1-0.2,0c-1.2-0.9-5.2-4.6-5-10.7
		c0.3-7.5,5.7-10.8,5.7-10.8L78,13c0.1,0,0.2,0,0.2,0.1c0,0.1,0,0.1-0.1,0.2c-1.7,1-6.5,4.2-7.6,10.6c-0.1,0.7-0.2,1.3-0.2,1.9
		l12.1-10l1.1,1.2c0,0-2.4,3.6-2.6,7.3c-0.2,4.5,1.2,7.3,1.8,8.2c0,0.1,0,0.1,0,0.2c0,0-0.1,0-0.1,0c-1.1-0.4-4.8-1.7-7.9-1.4
		c-1.4,0.1-2.3,0.5-3,0.8c0.6,1.2,1.2,2.2,1.8,3l8.3-1.5c0,0,0,0,0,0c0.1,0,0.1,0.1,0.1,0.1c0,0,0,0,0,0c-0.2,0.6-0.7,2.7-1.4,5.7
		c-0.4,1.7-1.7,0.7-2.4,2.3c-0.5,1.1,1.1,1.5,1.6,1.6c0.2,0.5,0.2,5.8,0.2,5.8H57.4c0,0-3.8-0.1-5.8-3c-2-2.8-0.3-5.9-3.3-7.6
		c-1.2-0.7-1.9-1.1-2.2-1.2c0,0,0-0.1-0.1-0.1c0,0,0-0.1,0-0.1l0.1-0.1L48.1,33.5L48.1,33.5z"/>
	<path class="st0" d="M122.3,66.5c-0.5,0.4-1.2,0.6-1.9,0.6c-0.7,0-1.4-0.2-1.9-0.6c-0.6-0.5-0.8-1-0.8-1.9V60h0.9v4.3
		c0,0.9,0.1,1.1,0.4,1.5c0.3,0.4,0.8,0.6,1.4,0.6c0.6,0,1.1-0.2,1.4-0.6c0.3-0.4,0.4-0.6,0.4-1.5V60h0.9v4.5
		C123,65.5,122.8,66,122.3,66.5"/>
	<path class="st0" d="M127.6,63.7h-1.2v2.4h1.2c0.6,0,0.9-0.1,1.1-0.3c0.2-0.2,0.4-0.6,0.4-0.9C129.1,64.2,128.6,63.7,127.6,63.7
		 M128.5,61c-0.2-0.2-0.4-0.3-0.9-0.3h-1.2V63h1.1c0.5,0,0.7-0.1,0.9-0.3c0.2-0.2,0.3-0.5,0.3-0.9C128.8,61.4,128.7,61.1,128.5,61
		 M128.1,66.9h-2.6V60h2.2c0.7,0,1,0.1,1.4,0.4c0.3,0.3,0.5,0.8,0.5,1.3c0,0.7-0.4,1.3-1.2,1.6c0.9,0.2,1.4,0.8,1.4,1.8
		C130,66.2,129.2,66.9,128.1,66.9"/>
	<path class="st0" d="M52.3,20.3c0,0,0,0.1,0,0.2c-0.5,0.8-1.8,3.5-1,6.9c0.6,2.4,1.7,3.9,2.3,4.6c0.1,0.1,0.1,0.2,0.1,0.2
		c0,0.1-0.1,0.1-0.3,0c-1.2-0.3-3.9-1-6.2-0.6c-3.6,0.7-2.6,3.1-2.1,3.9c0.1,0.1,0,0.2,0,0.1c-0.8-0.7-3.4-3.3-3.2-7.5
		c0.2-4.1,2.9-6.2,2.9-6.2l7.4-1.7C52.2,20.2,52.3,20.2,52.3,20.3"/>
	<path class="st0" d="M49.1,14.9c-0.4-0.4-1.6-1.3-2.9-0.8c-1.6,0.6-1.5,1.6-3.9,1.4c-2.6-0.3-3.5,1.3-3.8,2c-0.1,0-0.1,0-0.1,0
		c0.1-0.5,0.4-1.3,1.3-2.3c1.4-1.4,2.4,0.3,4.6-2.1c2-2.1,4.9-1,4.9-1v2.9c0,0.1,0,0.1-0.1,0.1C49.2,15,49.2,15,49.1,14.9"/>
	<path class="st0" d="M63.2,3.1l0.2,4.3c0,0.1,0,0.1-0.1,0.1c0,0-0.1,0-0.1-0.1c-0.5-0.7-1.7-2.3-3.7-1.5c-2.2,0.9-1.4,2.5-4.7,2
		c-3.4-0.5-4.9,1.2-5.4,2c0,0-0.1,0-0.1,0c0,0,0,0-0.1-0.1c0.1-0.7,0.7-2,2.5-3.3c2.2-1.7,3.2,0.8,6.3-2.6
		C59.7,2.2,63.2,3.1,63.2,3.1"/>
	<path class="st0" d="M61.4,9.3c0,0,1.4-0.6,3.4-0.6c1.9,0,3,0.3,3,0.3l-1.3,3.7l-3.7,0L61.4,9.3z"/>
	<path class="st0" d="M48.1,16.3c0,0,0.9-0.7,2.8-0.7c1.8,0,2.4,0.4,2.4,0.4l-1,3.1l-3.1,0L48.1,16.3z"/>
	<path class="st0" d="M20.5,60.9c-0.2-0.2-0.4-0.2-1-0.2h-1.1v2.5h1.1c0.9,0,1.4-0.5,1.4-1.4C20.8,61.4,20.7,61.1,20.5,60.9
		 M21.2,66.9l-1.9-3h-0.9v3h-0.9V60h2.1c0.8,0,1.2,0.1,1.6,0.5c0.3,0.3,0.5,0.8,0.5,1.4c0,0.5-0.2,1.1-0.6,1.4
		c-0.3,0.3-0.5,0.4-1,0.5l2,3.1H21.2z"/>
	<path class="st0" d="M11.6,60.6c-1.4,0-2.5,1.3-2.5,2.8c0,1.6,1.1,2.8,2.5,2.8c1.4,0,2.5-1.3,2.5-2.8C14.1,61.9,13,60.6,11.6,60.6
		 M11.6,67c-2,0-3.5-1.5-3.5-3.6c0-2.1,1.5-3.6,3.5-3.6c2,0,3.5,1.5,3.5,3.6C15,65.5,13.6,67,11.6,67"/>
	<path class="st0" d="M4.7,66.9l-3.5-5.4c0-0.1-0.1-0.1-0.1-0.2C1,61.2,1,61.2,1,61.1c0-0.1-0.1-0.1-0.1-0.3v6H0V60h1.1l3.4,5.3
		c0,0,0.1,0.1,0.1,0.2c0,0.1,0.1,0.1,0.1,0.3c0,0,0,0.1,0,0.1V60h0.9v7H4.7z"/>
</g>
</svg>
