<?xml version="1.0" standalone="no"?>
<!DOCTYPE svg PUBLIC "-//W3C//DTD SVG 1.1//EN" "http://www.w3.org/Graphics/SVG/1.1/DTD/svg11.dtd" >
<svg>
<metadata>
Created by FontForge 20090622 at Tue Jan 23 10:37:11 2018
 By deploy user
Copyright &#194;&#169; 2014 Monotype Imaging Inc.  All rights reserved.
</metadata>
<defs>
<font id="DINNextSlabPro-LightItalic" horiz-adv-x="510" >
  <font-face 
    font-family="DIN Next Slab Pro Light"
    font-weight="300"
    font-style="italic"
    font-stretch="normal"
    units-per-em="1000"
    panose-1="2 8 3 4 2 2 5 9 2 4"
    ascent="750"
    descent="-250"
    x-height="477"
    cap-height="680"
    bbox="-153.2 -213 947 913"
    underline-thickness="50"
    underline-position="-75"
    slope="-10"
    unicode-range="U+000D-U+FB02"
  />
<missing-glyph horiz-adv-x="470" 
d="M10 680h450q10 0 10 -10v-660q0 -10 -10 -10h-450q-10 0 -10 10v660q0 10 10 10zM425 643h-380q-6 0 -6 -6v-594q0 -6 6 -6h380q6 0 6 6v594q0 6 -6 6zM227 562q54 0 85 -29.5t31 -77.5q0 -28 -8.5 -48t-30.5 -48l-37 -48q-20 -25 -20 -55v-22q0 -10 -10 -10h-22
q-10 0 -10 10v24q0 39 23 68l37 47q36 44 36 80q0 32 -20 51t-55 19q-36 0 -59 -16q-5 -4 -5 -10v-45q0 -10 -10 -10h-20q-10 0 -10 10v64q0 10 10 17q39 29 95 29zM210 171h31q10 0 10 -10v-38q0 -10 -10 -10h-31q-10 0 -10 10v38q0 10 10 10z" />
    <glyph glyph-name="fi" unicode="fi" horiz-adv-x="584" 
d="M319 680h28q10 0 8 -10l-5 -26q-1 -10 -12 -10h-20q-50 0 -69 -17t-29 -74l-11 -60q-1 -6 4 -6h98q10 0 8 -10l-5 -26q-1 -10 -12 -10h-97q-5 0 -6 -6l-66 -373q-1 -6 5 -6h65q10 0 8 -10l-5 -26q-1 -10 -12 -10h-181q-10 0 -8 10l5 26q1 10 12 10h54q6 0 7 6l66 373
q1 6 -4 6h-51q-10 0 -8 10l5 26q2 10 12 10h49q6 0 7 6l10 55q15 83 47.5 112.5t102.5 29.5zM511 680h41q10 0 8 -10l-10 -53q-2 -10 -11 -10h-41q-10 0 -8 10l10 53q2 10 11 10zM410 477h101q10 0 8 -10l-73 -415q-2 -6 5 -6h55q10 0 8 -10l-5 -26q-1 -10 -12 -10h-171
q-10 0 -8 10l5 26q1 10 12 10h53q6 0 7 6l66 372q1 7 -5 7h-55q-10 0 -8 10l5 26q2 10 12 10z" />
    <glyph glyph-name="fl" unicode="fl" horiz-adv-x="565" 
d="M319 680h28q10 0 8 -10l-5 -26q-1 -10 -12 -10h-20q-50 0 -69 -17t-29 -74l-11 -60q-1 -6 4 -6h98q10 0 8 -10l-5 -26q-1 -10 -12 -10h-97q-5 0 -6 -6l-66 -373q-1 -6 5 -6h65q10 0 8 -10l-5 -26q-1 -10 -12 -10h-181q-10 0 -8 10l5 26q1 10 12 10h54q6 0 7 6l66 373
q1 6 -4 6h-51q-10 0 -8 10l5 26q2 10 12 10h49q6 0 7 6l10 55q15 83 47.5 112.5t102.5 29.5zM424 680h101q10 0 8 -10l-101 -552q-5 -25 -5 -37q0 -36 41 -36h16q10 0 8 -10l-4 -27q-1 -10 -12 -10h-22q-78 0 -78 70q0 19 5 44l94 515q1 7 -5 7h-55q-10 0 -8 10l5 26
q1 10 12 10z" />
    <glyph glyph-name="f_f" unicode="ff" horiz-adv-x="620" 
d="M319 680h28q10 0 8 -10l-5 -26q-1 -10 -12 -10h-20q-50 0 -69 -17t-29 -74l-11 -60q-1 -6 4 -6h98q10 0 8 -10l-5 -26q-1 -10 -12 -10h-97q-5 0 -6 -6l-66 -373q-1 -6 5 -6h65q10 0 8 -10l-5 -26q-1 -10 -12 -10h-181q-10 0 -8 10l5 26q1 10 12 10h54q6 0 7 6l66 373
q1 6 -4 6h-51q-10 0 -8 10l5 26q2 10 12 10h49q6 0 7 6l10 55q15 83 47.5 112.5t102.5 29.5zM629 680h28q10 0 8 -10l-5 -26q-1 -10 -12 -10h-20q-50 0 -69 -17t-29 -74l-11 -60q-1 -6 4 -6h98q10 0 8 -10l-5 -26q-1 -10 -12 -10h-97q-5 0 -6 -6l-66 -373q-1 -6 5 -6h65
q10 0 8 -10l-5 -26q-1 -10 -12 -10h-181q-10 0 -8 10l5 26q1 10 12 10h54q6 0 7 6l66 373q1 6 -4 6h-51q-10 0 -8 10l5 26q2 10 12 10h49q6 0 7 6l10 55q15 83 47.5 112.5t102.5 29.5z" />
    <glyph glyph-name="f_f_i" unicode="ffi" horiz-adv-x="894" 
d="M319 680h28q10 0 8 -10l-5 -26q-1 -10 -12 -10h-20q-50 0 -69 -17t-29 -74l-11 -60q-1 -6 4 -6h98q10 0 8 -10l-5 -26q-1 -10 -12 -10h-97q-5 0 -6 -6l-66 -373q-1 -6 5 -6h65q10 0 8 -10l-5 -26q-1 -10 -12 -10h-181q-10 0 -8 10l5 26q1 10 12 10h54q6 0 7 6l66 373
q1 6 -4 6h-51q-10 0 -8 10l5 26q2 10 12 10h49q6 0 7 6l10 55q15 83 47.5 112.5t102.5 29.5zM629 680h28q10 0 8 -10l-5 -26q-1 -10 -12 -10h-20q-50 0 -69 -17t-29 -74l-11 -60q-1 -6 4 -6h98q10 0 8 -10l-5 -26q-1 -10 -12 -10h-97q-5 0 -6 -6l-66 -373q-1 -6 5 -6h65
q10 0 8 -10l-5 -26q-1 -10 -12 -10h-181q-10 0 -8 10l5 26q1 10 12 10h54q6 0 7 6l66 373q1 6 -4 6h-51q-10 0 -8 10l5 26q2 10 12 10h49q6 0 7 6l10 55q15 83 47.5 112.5t102.5 29.5zM821 680h41q10 0 8 -10l-10 -53q-2 -10 -11 -10h-41q-10 0 -8 10l10 53q2 10 11 10z
M720 477h101q10 0 8 -10l-73 -415q-2 -6 5 -6h55q10 0 8 -10l-5 -26q-1 -10 -12 -10h-171q-10 0 -8 10l5 26q1 10 12 10h53q6 0 7 6l66 372q1 7 -5 7h-55q-10 0 -8 10l5 26q2 10 12 10z" />
    <glyph glyph-name="f_f_l" unicode="ffl" horiz-adv-x="875" 
d="M319 680h28q10 0 8 -10l-5 -26q-1 -10 -12 -10h-20q-50 0 -69 -17t-29 -74l-11 -60q-1 -6 4 -6h98q10 0 8 -10l-5 -26q-1 -10 -12 -10h-97q-5 0 -6 -6l-66 -373q-1 -6 5 -6h65q10 0 8 -10l-5 -26q-1 -10 -12 -10h-181q-10 0 -8 10l5 26q1 10 12 10h54q6 0 7 6l66 373
q1 6 -4 6h-51q-10 0 -8 10l5 26q2 10 12 10h49q6 0 7 6l10 55q15 83 47.5 112.5t102.5 29.5zM629 680h28q10 0 8 -10l-5 -26q-1 -10 -12 -10h-20q-50 0 -69 -17t-29 -74l-11 -60q-1 -6 4 -6h98q10 0 8 -10l-5 -26q-1 -10 -12 -10h-97q-5 0 -6 -6l-66 -373q-1 -6 5 -6h65
q10 0 8 -10l-5 -26q-1 -10 -12 -10h-181q-10 0 -8 10l5 26q1 10 12 10h54q6 0 7 6l66 373q1 6 -4 6h-51q-10 0 -8 10l5 26q2 10 12 10h49q6 0 7 6l10 55q15 83 47.5 112.5t102.5 29.5zM734 680h101q10 0 8 -10l-101 -552q-5 -25 -5 -37q0 -36 41 -36h16q10 0 8 -10l-4 -27
q-1 -10 -12 -10h-22q-78 0 -78 70q0 19 5 44l94 515q1 7 -5 7h-55q-10 0 -8 10l5 26q1 10 12 10z" />
    <glyph glyph-name=".notdef" horiz-adv-x="470" 
d="M10 680h450q10 0 10 -10v-660q0 -10 -10 -10h-450q-10 0 -10 10v660q0 10 10 10zM425 643h-380q-6 0 -6 -6v-594q0 -6 6 -6h380q6 0 6 6v594q0 6 -6 6zM227 562q54 0 85 -29.5t31 -77.5q0 -28 -8.5 -48t-30.5 -48l-37 -48q-20 -25 -20 -55v-22q0 -10 -10 -10h-22
q-10 0 -10 10v24q0 39 23 68l37 47q36 44 36 80q0 32 -20 51t-55 19q-36 0 -59 -16q-5 -4 -5 -10v-45q0 -10 -10 -10h-20q-10 0 -10 10v64q0 10 10 17q39 29 95 29zM210 171h31q10 0 10 -10v-38q0 -10 -10 -10h-31q-10 0 -10 10v38q0 10 10 10z" />
    <glyph glyph-name=".null" horiz-adv-x="0" 
 />
    <glyph glyph-name="nonmarkingreturn" horiz-adv-x="333" 
 />
    <glyph glyph-name="CR" unicode="&#xd;" horiz-adv-x="600" 
 />
    <glyph glyph-name="space" unicode=" " horiz-adv-x="236" 
 />
    <glyph glyph-name="exclam" unicode="!" horiz-adv-x="253" 
d="M190 680h37q10 0 8 -10l-94 -484q-2 -10 -11 -10h-21q-10 0 -8 10l78 484q2 10 11 10zM81 85h45q10 0 8 -10l-10 -65q-3 -10 -12 -10h-45q-11 0 -9 10l12 65q2 10 11 10z" />
    <glyph glyph-name="quotedbl" unicode="&#x22;" horiz-adv-x="301" 
d="M162 680h23q10 0 8 -10l-23 -137q-2 -10 -11 -10h-23q-10 0 -8 10l23 137q2 10 11 10zM277 680h23q10 0 8 -10l-24 -137q-2 -10 -11 -10h-23q-10 0 -8 10l24 137q2 10 11 10z" />
    <glyph glyph-name="numbersign" unicode="#" horiz-adv-x="496" 
d="M454 680h23q10 0 7 -10l-60 -194h84q10 0 8 -10l-4 -21q-2 -10 -11 -10h-89l-53 -173h87q11 0 9 -10l-4 -21q-2 -10 -12 -10h-93l-64 -211q-3 -10 -12 -10h-23q-10 0 -7 10l64 211h-145l-65 -211q-3 -10 -12 -10h-23q-10 0 -7 10l65 211h-80q-11 0 -9 10l4 21q2 10 12 10
h85l53 173h-83q-11 0 -9 10l4 21q2 10 12 10h89l60 194q3 10 12 10h22q11 0 8 -10l-60 -194h145l60 194q3 10 12 10zM225 435l-54 -173h146l53 173h-145z" />
    <glyph glyph-name="dollar" unicode="$" 
d="M344 751h17q10 0 7 -10l-9 -52q69 -5 124 -33q8 -4 6 -13l-16 -90q-2 -10 -11 -10h-28q-11 0 -9 10l11 61q1 5 -4 8q-33 15 -82 18l-48 -274q73 -10 109.5 -48.5t36.5 -98.5q0 -102 -58.5 -162t-152.5 -66l-9 -52q-2 -10 -12 -10h-16q-10 0 -8 10l9 52q-98 3 -157 41
q-7 5 -6 13l17 97q2 10 11 10h29q10 0 8 -10l-13 -68q-1 -6 3 -9q43 -24 116 -26l50 283q-70 10 -105.5 50.5t-35.5 101.5q0 96 57 153.5t149 62.5l9 51q2 10 11 10zM268 372l47 268q-65 -5 -105.5 -47.5t-40.5 -112.5q0 -91 99 -108zM293 316l-48 -276q68 7 110 51.5
t42 118.5q0 87 -104 106z" />
    <glyph glyph-name="percent" unicode="%" horiz-adv-x="739" 
d="M631 690h25q11 0 4 -10l-497 -680q-9 -10 -16 -10h-25q-11 0 -4 10l498 680q7 10 15 10zM274 688q43 0 68.5 -24.5t25.5 -68.5q0 -31 -13 -98t-26 -93q-36 -74 -113 -74q-42 0 -67.5 24.5t-25.5 68.5q0 31 12.5 98t25.5 93q36 74 113 74zM270 650q-46 0 -70 -46
q-13 -24 -25 -86t-12 -92q0 -27 15 -42.5t42 -15.5q47 0 71 46q12 24 24 86t12 92q0 27 -14.5 42.5t-42.5 15.5zM563 350q42 0 67.5 -24.5t25.5 -68.5q0 -31 -12.5 -98.5t-25.5 -93.5q-36 -73 -113 -73q-43 0 -68.5 24t-25.5 68q0 31 13 98.5t26 93.5q36 74 113 74zM558 311
q-47 0 -70 -45q-12 -24 -24 -86t-12 -92q0 -27 14.5 -42.5t42.5 -15.5q46 0 70 45q12 24 24 86.5t12 92.5q0 57 -57 57z" />
    <glyph glyph-name="ampersand" unicode="&#x26;" horiz-adv-x="591" 
d="M328 690q52 0 83.5 -31.5t31.5 -80.5t-33 -96t-124 -113l107 -194l101 108q8 8 16 8h48q10 0 8 -10l-5 -26q-1 -10 -12 -10h-25q-5 0 -11 -6l-98 -105l35 -63q14 -24 38 -24h24q10 0 8 -10l-4 -27q-1 -10 -11 -10h-25q-26 0 -40.5 8.5t-26.5 30.5l-32 58q-56 -57 -99 -82
t-95 -25q-64 0 -101.5 38.5t-37.5 101.5q0 66 41.5 123.5t135.5 127.5q-33 62 -46.5 94t-13.5 59q0 66 46.5 111t116.5 45zM320 644q-46 0 -76 -30t-30 -75q0 -37 50 -129q77 55 104 91t27 70t-20 53.5t-55 19.5zM358 138l-112 203q-77 -55 -113 -102.5t-36 -101.5
q0 -46 26 -72.5t72 -26.5q41 0 75.5 22t87.5 78z" />
    <glyph glyph-name="quotesingle" unicode="'" horiz-adv-x="186" 
d="M162 680h23q10 0 8 -10l-23 -137q-2 -10 -11 -10h-23q-10 0 -8 10l23 137q2 10 11 10z" />
    <glyph glyph-name="parenleft" unicode="(" horiz-adv-x="276" 
d="M292 740h19q12 0 5 -10q-179 -274 -179 -553q0 -134 37 -251q3 -10 -8 -10h-18q-10 0 -13 10q-47 125 -47 264q0 276 188 540q7 10 16 10z" />
    <glyph glyph-name="parenright" unicode=")" horiz-adv-x="276" 
d="M145 740h19q9 0 12 -10q47 -121 47 -264q0 -278 -188 -540q-7 -10 -15 -10h-20q-11 0 -4 10q178 273 178 553q0 137 -36 251q-3 10 7 10z" />
    <glyph glyph-name="asterisk" unicode="*" horiz-adv-x="339" 
d="M240 680h15q10 0 8 -10l-18 -98l90 50q10 6 14 -3l5 -15q3 -8 -7 -14l-90 -49l73 -48q8 -5 2 -14l-9 -13q-6 -8 -14 -2l-74 49l-17 -99q-2 -10 -12 -10h-15q-10 0 -8 10l17 97l-89 -49q-11 -6 -14 3l-5 15q-3 9 7 13l92 50l-73 49q-8 5 -2 13l9 13q5 8 13 2l73 -48l17 98
q2 10 12 10z" />
    <glyph glyph-name="plus" unicode="+" 
d="M251 477h28q10 0 10 -10v-161q0 -6 6 -6h158q10 0 10 -10v-27q0 -10 -10 -10h-158q-6 0 -6 -6v-161q0 -10 -10 -10h-28q-10 0 -10 10v161q0 6 -6 6h-158q-10 0 -10 10v27q0 10 10 10h158q6 0 6 6v161q0 10 10 10z" />
    <glyph glyph-name="comma" unicode="," horiz-adv-x="209" 
d="M63 85h40q10 0 8 -10l-12 -73q-2 -12 -8 -22l-49 -77q-5 -8 -11 -8q-10 0 -8 10l29 170q2 10 11 10z" />
    <glyph glyph-name="hyphen" unicode="-" horiz-adv-x="356" 
d="M69 290h244q10 0 8 -10l-4 -28q-1 -9 -12 -9h-244q-10 0 -8 10l5 28q2 9 11 9z" />
    <glyph glyph-name="period" unicode="." horiz-adv-x="209" 
d="M58 85h45q10 0 8 -10l-10 -65q-2 -10 -11 -10h-46q-10 0 -8 10l11 65q2 10 11 10z" />
    <glyph glyph-name="slash" unicode="/" horiz-adv-x="387" 
d="M372 690h28q10 0 5 -10l-333 -680q-4 -10 -14 -10h-28q-10 0 -5 10l333 680q4 10 14 10z" />
    <glyph glyph-name="zero" unicode="0" 
d="M336 690q70 0 110 -39t40 -107q0 -65 -30 -226t-53 -208q-57 -120 -187 -120q-70 0 -110 39t-40 107q0 65 30 226t53 208q57 120 187 120zM330 642q-91 0 -133 -86q-21 -43 -50.5 -199t-29.5 -214q0 -49 27 -77t78 -28q91 0 133 86q21 43 50 199t29 214q0 49 -26.5 77
t-77.5 28z" />
    <glyph glyph-name="one" unicode="1" 
d="M341 680h27q11 0 9 -10l-109 -617q-2 -6 4 -6h114q10 0 8 -10l-5 -27q-1 -10 -11 -10h-288q-10 0 -8 10l5 27q1 10 11 10h112q6 0 7 6l100 560h-1l-138 -89q-4 -3 -7.5 -1t-2.5 7l7 40q2 9 8 13l141 91q9 6 17 6z" />
    <glyph glyph-name="two" unicode="2" 
d="M318 690q71 0 112 -40.5t41 -105.5q0 -53 -23.5 -98.5t-74.5 -101.5l-270 -295v-2h239q6 0 7 6l12 70q2 10 11 10h31q10 0 8 -10l-20 -113q-2 -10 -11 -10h-341q-9 0 -9 9l4 25q1 8 8 15l296 328q44 49 63 85t19 75q0 49 -28.5 77t-80.5 28q-61 0 -108 -30q-6 -3 -7 -9
l-13 -77q-2 -10 -12 -10h-30q-10 0 -8 10l19 104q1 8 9 13q72 47 157 47z" />
    <glyph glyph-name="three" unicode="3" 
d="M316 690q75 0 116.5 -38t41.5 -106q0 -64 -32.5 -113t-87.5 -75v-2q34 -14 54.5 -48.5t20.5 -83.5q0 -102 -60.5 -168t-158.5 -66q-95 0 -157 45q-5 4 -4 14l17 99q2 10 11 10h30q10 0 8 -10l-13 -74q-1 -6 4 -9q49 -27 109 -27q71 0 116.5 50.5t45.5 126.5q0 52 -30 84
t-83 32h-30q-9 0 -7 10l4 29q1 9 10 9h30q64 0 108 46.5t44 111.5q0 51 -30 78t-84 27q-55 0 -104 -27q-5 -3 -7 -9l-13 -77q-2 -10 -11 -10h-30q-10 0 -8 10l18 104q1 8 9 13q68 44 153 44z" />
    <glyph glyph-name="four" unicode="4" 
d="M358 680h34q10 0 5 -9l-295 -484v-1h201q5 0 7 6l33 188q2 10 11 10h32q10 0 8 -10l-33 -188q-1 -6 5 -6h72q10 0 8 -10l-5 -29q-1 -9 -11 -9h-73q-5 0 -7 -6l-21 -122q-2 -10 -11 -10h-32q-10 0 -8 10l23 122q1 6 -5 6h-251q-9 0 -8 9l5 27q1 7 4 12l298 486q5 8 14 8z
" />
    <glyph glyph-name="five" unicode="5" 
d="M189 680h304q11 0 9 -10l-5 -28q-2 -10 -12 -10h-260q-5 0 -7 -6l-43 -241h1q44 61 130 61q65 0 100.5 -36t35.5 -106q0 -43 -12 -105t-32 -102q-52 -107 -185 -107q-94 0 -146 40q-5 4 -4 14l18 102q2 10 11 10h30q10 0 8 -10l-13 -77q-1 -6 3 -9q35 -22 99 -22
q94 0 134 80q16 32 27 85.5t11 88.5q0 106 -98 106q-44 0 -78.5 -24t-50.5 -60q-4 -10 -12 -10h-29q-9 0 -8 10l63 356q2 10 11 10z" />
    <glyph glyph-name="six" unicode="6" 
d="M361 680h34q12 0 5 -9l-200 -296l2 -1q32 24 88 24q70 0 111.5 -43t41.5 -115q0 -102 -63 -176t-164 -74q-74 0 -117.5 43t-43.5 119q0 90 71 195l221 326q6 7 14 7zM277 350q-73 0 -122 -57.5t-49 -134.5q0 -54 31 -87t84 -33q73 0 122 57.5t49 134.5q0 55 -31 87.5
t-84 32.5z" />
    <glyph glyph-name="seven" unicode="7" 
d="M174 680h329q11 0 9 -10l-5 -29q-2 -8 -6 -16l-343 -616q-5 -9 -15 -9h-33q-10 0 -4 11l345 619v2h-240q-5 0 -7 -6l-17 -95q-2 -10 -11 -10h-30q-9 0 -7 10l24 139q2 10 11 10z" />
    <glyph glyph-name="eight" unicode="8" 
d="M337 690q68 0 107.5 -40t39.5 -104q0 -61 -32 -111.5t-86 -75.5v-2q78 -40 78 -134q0 -97 -64.5 -165t-163.5 -68q-74 0 -118 43t-44 112q0 70 37 128t102 86v2q-63 34 -63 117q0 85 57 148.5t150 63.5zM330 642q-64 0 -107 -45.5t-43 -111.5q0 -46 28.5 -74.5
t75.5 -28.5q64 0 107 45.5t43 111.5q0 46 -28 74.5t-76 28.5zM275 334q-70 0 -120.5 -52.5t-50.5 -126.5q0 -52 32 -84.5t87 -32.5q70 0 120.5 52t50.5 127q0 52 -32 84.5t-87 32.5z" />
    <glyph glyph-name="nine" unicode="9" 
d="M335 690q74 0 117.5 -43t43.5 -119q0 -89 -71 -195l-221 -326q-6 -7 -14 -7h-35q-12 0 -5 9l200 296l-2 1q-30 -24 -87 -24q-70 0 -112 44.5t-42 116.5q0 100 63 173.5t165 73.5zM330 642q-74 0 -122.5 -57.5t-48.5 -133.5q0 -55 30.5 -88t84.5 -33q74 0 122.5 57.5
t48.5 133.5q0 55 -30.5 88t-84.5 33z" />
    <glyph glyph-name="colon" unicode=":" horiz-adv-x="209" 
d="M127 476h46q10 0 8 -10l-10 -64q-2 -10 -11 -10h-46q-10 0 -8 10l10 64q2 10 11 10zM58 85h45q10 0 8 -10l-10 -65q-2 -10 -11 -10h-46q-10 0 -8 10l11 65q2 10 11 10z" />
    <glyph glyph-name="semicolon" unicode=";" horiz-adv-x="209" 
d="M127 476h46q10 0 8 -10l-10 -64q-2 -10 -11 -10h-46q-10 0 -8 10l10 64q2 10 11 10zM61 85h40q10 0 8 -10l-12 -73q-1 -7 -8 -22l-49 -77q-5 -8 -12 -8q-9 0 -7 10l29 170q2 10 11 10z" />
    <glyph glyph-name="less" unicode="&#x3c;" 
d="M73 300l376 154q10 3 10 -6v-33q0 -9 -10 -13l-319 -125v-2l319 -125q10 -4 10 -13v-33q0 -9 -10 -6l-376 154q-10 4 -10 12v24q0 8 10 12z" />
    <glyph glyph-name="equal" unicode="=" 
d="M77 397h376q10 0 10 -10v-28q0 -10 -10 -10h-376q-10 0 -10 10v28q0 10 10 10zM77 203h376q10 0 10 -10v-28q0 -10 -10 -10h-376q-10 0 -10 10v28q0 10 10 10z" />
    <glyph glyph-name="greater" unicode="&#x3e;" 
d="M77 454l376 -154q10 -4 10 -12v-24q0 -8 -10 -12l-376 -154q-10 -3 -10 6v33q0 9 10 13l318 125v2l-318 125q-10 4 -10 13v33q0 9 10 6z" />
    <glyph glyph-name="question" unicode="?" horiz-adv-x="428" 
d="M294 690q71 0 108.5 -36.5t37.5 -98.5q0 -75 -88 -175l-64 -73q-26 -30 -34 -44.5t-14 -43.5l-7 -36q-2 -10 -11 -10h-31q-10 0 -8 10l7 40q11 56 49 99l65 73q49 54 67 86t18 67q0 45 -26 69.5t-75 24.5q-61 0 -104 -31q-5 -4 -6 -8l-13 -73q-2 -10 -11 -10h-30
q-10 0 -8 10l18 100q1 8 9 13q70 47 151 47zM170 84h46q10 0 8 -10l-11 -64q-2 -10 -11 -10h-45q-11 0 -9 10l11 64q2 10 11 10z" />
    <glyph glyph-name="at" unicode="@" horiz-adv-x="879" 
d="M501 659q146 0 236 -86t90 -230q0 -122 -48.5 -204.5t-142.5 -82.5q-39 0 -66.5 21.5t-33.5 58.5h-1q-49 -80 -146 -80q-54 1 -87 35t-33 95q0 105 38 182q48 99 151 99q83 0 107 -62h2l7 43q2 10 11 10h85q10 0 8 -10l-3 -22q-2 -10 -12 -10h-44q-5 0 -7 -6l-36 -207
q-3 -15 -3 -29q0 -37 19.5 -56t49.5 -19q48 0 81 38.5t46 90t13 108.5q0 132 -78 206.5t-211 74.5q-173 0 -282.5 -116.5t-109.5 -301.5q0 -131 78 -206.5t210 -75.5q109 0 209 49q9 5 12 -4l8 -24q3 -8 -6 -12q-100 -53 -230 -53q-147 0 -236.5 88t-89.5 234
q0 206 122.5 335t322.5 129zM464 425q-80 0 -116 -74q-15 -30 -24.5 -76.5t-9.5 -81.5q0 -94 85 -94q81 0 116 73q15 31 25 77t10 82q0 43 -22 68.5t-64 25.5z" />
    <glyph glyph-name="A" unicode="A" horiz-adv-x="575" 
d="M353 680h37q7 0 9 -10l103 -618q2 -6 7 -6h31q10 0 8 -10l-4 -26q-1 -10 -12 -10h-158q-10 0 -8 10l5 26q1 10 11 10h62q7 0 6 7l-25 154h-271l-81 -155q-3 -6 4 -6h61q10 0 8 -10l-5 -26q-1 -10 -11 -10h-163q-10 0 -8 10l5 26q1 10 11 10h32q6 0 9 6l324 618
q5 10 13 10zM359 600l-179 -343h237l-56 343h-2z" />
    <glyph glyph-name="B" unicode="B" horiz-adv-x="598" 
d="M131 680h279q79 0 121.5 -37.5t42.5 -105.5q0 -70 -35.5 -119t-97.5 -68v-2q34 -10 60.5 -42.5t26.5 -85.5q0 -103 -61 -161.5t-173 -58.5h-282q-10 0 -8 10l5 26q1 10 11 10h57q7 0 8 6l101 576q2 6 -5 6h-58q-10 0 -8 10l5 26q1 10 11 10zM404 630h-159q-5 0 -7 -6
l-44 -247q-2 -6 5 -6h158q75 0 120 44t45 111q0 49 -30.5 76.5t-87.5 27.5zM353 322h-163q-6 0 -7 -6l-46 -260q-1 -6 5 -6h163q80 0 125.5 45t45.5 117q0 51 -31 80.5t-92 29.5z" />
    <glyph glyph-name="C" unicode="C" horiz-adv-x="557" 
d="M375 690q61 0 108.5 -16t71.5 -37q7 -6 6 -15l-17 -101q-2 -10 -11 -10h-31q-10 0 -8 10l14 78q1 5 -3 8q-48 33 -131 33q-130 0 -189 -117q-25 -52 -46.5 -163.5t-21.5 -170.5q0 -149 163 -149q79 0 128 28q5 3 6 9l14 72q2 10 11 10h31q10 0 8 -10l-18 -101
q-1 -10 -10 -15q-71 -43 -176 -43q-210 0 -210 193q0 63 22.5 183t49.5 174q38 78 95.5 114t143.5 36z" />
    <glyph glyph-name="D" unicode="D" horiz-adv-x="622" 
d="M131 680h275q184 0 184 -178q0 -70 -23 -191.5t-52 -179.5q-35 -70 -89.5 -100.5t-138.5 -30.5h-275q-10 0 -8 10l5 26q1 10 11 10h57q7 0 8 6l101 576q2 6 -5 6h-58q-10 0 -8 10l5 26q1 10 11 10zM389 630h-144q-5 0 -7 -6l-100 -568q-2 -6 4 -6h144q131 0 184 106
q24 50 46 162t22 175q0 70 -36.5 103.5t-112.5 33.5z" />
    <glyph glyph-name="E" unicode="E" horiz-adv-x="561" 
d="M131 680h440q11 0 9 -10l-19 -111q-2 -10 -11 -10h-31q-10 0 -8 10l11 65q2 6 -5 6h-272q-5 0 -7 -6l-43 -247q-1 -7 6 -7h209q6 0 8 6l9 51q2 10 11 10h32q10 0 8 -10l-29 -165q-2 -10 -11 -10h-31q-11 0 -9 10l9 53q1 6 -5 6h-211q-5 0 -7 -6l-46 -259q-2 -6 5 -6h272
q5 0 7 6l12 67q2 10 11 10h31q10 0 8 -10l-20 -113q-1 -10 -12 -10h-440q-10 0 -8 10l5 26q1 10 11 10h57q7 0 8 6l101 576q2 6 -5 6h-58q-10 0 -8 10l5 26q1 10 11 10z" />
    <glyph glyph-name="F" unicode="F" horiz-adv-x="548" 
d="M131 680h441q10 0 8 -10l-19 -111q-2 -10 -11 -10h-31q-10 0 -8 10l11 65q2 6 -4 6h-273q-5 0 -7 -6l-45 -255q-1 -6 6 -6h210q7 0 8 6l9 51q2 10 11 10h32q10 0 8 -10l-29 -165q-2 -10 -11 -10h-31q-11 0 -9 10l9 52q2 6 -5 6h-212q-5 0 -7 -6l-45 -254q-1 -6 5 -6h69
q10 0 8 -10l-5 -27q-1 -10 -11 -10h-191q-10 0 -8 10l5 26q1 10 11 10h57q7 0 8 6l101 576q2 6 -5 6h-58q-10 0 -8 10l5 26q1 10 11 10z" />
    <glyph glyph-name="G" unicode="G" horiz-adv-x="595" 
d="M386 690q58 0 108.5 -17.5t78.5 -44.5q7 -7 5 -16l-17 -94q-2 -10 -11 -10h-31q-10 0 -8 10l13 74q1 6 -4 10q-50 38 -141 38q-135 0 -193 -118q-26 -52 -47 -163t-21 -170q0 -149 161 -149q96 0 149 34q8 5 10 15l36 201q2 6 -5 6h-144q-9 0 -7 10l5 29q1 9 11 9h192
q9 0 7 -10l-48 -270q-4 -18 -14 -25q-71 -49 -196 -49q-104 0 -157 49.5t-53 143.5q0 63 22.5 183t49.5 174q38 78 96.5 114t152.5 36z" />
    <glyph glyph-name="H" unicode="H" horiz-adv-x="665" 
d="M517 680h179q10 0 8 -10l-5 -26q-1 -10 -12 -10h-57q-6 0 -7 -6l-101 -575q-1 -7 5 -7h58q10 0 8 -10l-5 -26q-1 -10 -12 -10h-179q-10 0 -8 10l5 26q1 10 12 10h57q5 0 7 6l46 262q2 6 -5 6h-321q-6 0 -7 -6l-46 -262q-1 -6 5 -6h58q10 0 8 -10l-5 -26q-1 -10 -12 -10
h-179q-10 0 -8 10l5 26q1 10 11 10h57q7 0 8 6l101 576q2 6 -5 6h-58q-10 0 -8 10l5 26q1 10 11 10h180q10 0 8 -10l-5 -26q-1 -10 -12 -10h-56q-6 0 -8 -6l-44 -251q-1 -7 5 -7h321q6 0 7 6l44 252q1 6 -4 6h-59q-10 0 -8 10l5 26q1 10 12 10z" />
    <glyph glyph-name="I" unicode="I" horiz-adv-x="280" 
d="M131 680h180q10 0 8 -10l-5 -26q-1 -10 -12 -10h-56q-6 0 -8 -6l-101 -576q-1 -6 5 -6h58q10 0 8 -10l-5 -26q-1 -10 -12 -10h-179q-10 0 -8 10l5 26q1 10 11 10h57q7 0 8 6l101 576q2 6 -5 6h-58q-10 0 -8 10l5 26q1 10 11 10z" />
    <glyph glyph-name="J" unicode="J" horiz-adv-x="463" 
d="M335 680h179q10 0 8 -10l-5 -26q-1 -10 -11 -10h-57q-7 0 -8 -6l-75 -428q-19 -112 -75 -161t-146 -49q-85 0 -134 39q-7 6 -6 14l18 100q2 10 11 10h33q10 0 8 -10l-13 -71q-1 -6 4 -10q31 -21 84 -21q135 0 164 161l75 426q1 6 -5 6h-58q-10 0 -8 10l5 26q1 10 12 10z
" />
    <glyph glyph-name="K" unicode="K" horiz-adv-x="607" 
d="M474 680h179q10 0 8 -10l-5 -26q-1 -10 -11 -10h-52q-6 0 -12 -6l-215 -215l127 -361q2 -6 7 -6h66q10 0 8 -10l-5 -26q-1 -10 -11 -10h-94q-9 0 -12 10l-127 362l-160 -160l-28 -160q-1 -6 5 -6h58q10 0 8 -10l-5 -26q-1 -10 -12 -10h-179q-10 0 -8 10l5 26q1 10 11 10
h57q7 0 8 6l101 576q2 6 -5 6h-58q-10 0 -8 10l5 26q1 10 11 10h180q10 0 8 -10l-5 -26q-1 -10 -12 -10h-57q-5 0 -7 -6l-58 -335l333 334q2 2 1.5 4.5t-4.5 2.5h-45q-10 0 -8 10l5 26q1 10 12 10z" />
    <glyph glyph-name="L" unicode="L" horiz-adv-x="525" 
d="M132 680h179q10 0 8 -10l-5 -26q-1 -10 -12 -10h-55q-7 0 -8 -6l-101 -572q-2 -6 4 -6h273q7 0 8 6l12 67q2 10 11 10h31q10 0 8 -10l-20 -113q-1 -10 -12 -10h-441q-10 0 -8 10l5 26q1 10 12 10h56q7 0 8 6l101 576q2 6 -5 6h-58q-10 0 -8 10l5 26q1 10 12 10z" />
    <glyph glyph-name="M" unicode="M" horiz-adv-x="769" 
d="M692 680h108q10 0 8 -10l-5 -26q-1 -10 -12 -10h-56q-7 0 -8 -6l-101 -576q-2 -6 5 -6h58q10 0 8 -10l-5 -26q-1 -10 -11 -10h-178q-10 0 -8 10l5 26q1 10 11 10h58q5 0 7 6l89 499h-3l-270 -439q-6 -11 -18 -11h-19q-12 0 -15 11l-114 441h-3l-88 -501q-1 -6 5 -6h58
q10 0 8 -10l-5 -26q-1 -10 -11 -10h-178q-10 0 -8 10l5 26q1 10 11 10h57q7 0 8 6l101 576q2 6 -5 6h-58q-10 0 -8 10l5 26q1 10 11 10h103q9 0 12 -10l127 -495h3l301 495q6 10 15 10z" />
    <glyph glyph-name="N" unicode="N" horiz-adv-x="668" 
d="M521 680h178q10 0 8 -10l-5 -26q-1 -10 -12 -10h-57q-5 0 -7 -6l-109 -618q-2 -10 -11 -10h-31q-10 0 -14 10l-230 570h-3l-93 -528q-1 -6 5 -6h58q10 0 8 -10l-5 -26q-1 -10 -11 -10h-178q-10 0 -8 10l5 26q1 10 11 10h57q7 0 8 6l101 576q2 6 -5 6h-58q-10 0 -8 10
l5 26q1 10 11 10h104q10 0 14 -10l231 -568h3l93 526q2 6 -5 6h-58q-10 0 -8 10l5 26q1 10 11 10z" />
    <glyph glyph-name="O" unicode="O" horiz-adv-x="586" 
d="M374 690q88 0 137 -50.5t49 -142.5q0 -63 -22.5 -183t-49.5 -174q-74 -150 -237 -150q-88 0 -137 50.5t-49 142.5q0 63 22.5 183t49.5 174q74 150 237 150zM366 639q-123 0 -180 -116q-25 -52 -46.5 -163.5t-21.5 -170.5q0 -71 36 -109.5t105 -38.5q123 0 180 116
q25 52 46.5 163.5t21.5 170.5q0 71 -36.5 109.5t-104.5 38.5z" />
    <glyph glyph-name="P" unicode="P" horiz-adv-x="577" 
d="M131 680h284q82 0 126.5 -39.5t44.5 -109.5q0 -110 -65.5 -172t-171.5 -62h-163q-6 0 -7 -6l-42 -238q-1 -7 5 -7h68q10 0 8 -10l-5 -26q-1 -10 -12 -10h-189q-10 0 -8 10l5 26q1 10 11 10h57q7 0 8 6l101 576q2 6 -5 6h-58q-10 0 -8 10l5 26q1 10 11 10zM405 630h-160
q-5 0 -7 -6l-48 -271q-2 -6 5 -6h157q83 1 132.5 47.5t49.5 128.5q0 51 -33 79t-96 28z" />
    <glyph glyph-name="Q" unicode="Q" horiz-adv-x="587" 
d="M374 690q88 0 137 -50.5t49 -142.5q0 -63 -22.5 -183t-49.5 -174q-25 -49 -53 -78l43 -74q6 -10 -4 -16l-21 -14q-9 -7 -14 2l-41 70q-59 -40 -147 -40t-137 50.5t-49 142.5q0 63 22.5 183t49.5 174q74 150 237 150zM366 639q-123 0 -180 -116q-25 -52 -46.5 -163.5
t-21.5 -170.5q0 -71 36 -109.5t105 -38.5q65 0 113 34l-53 94q-5 9 3 14l24 16q8 5 13 -3l49 -87q17 20 31 48q25 52 46.5 163.5t21.5 170.5q0 71 -36.5 109.5t-104.5 38.5z" />
    <glyph glyph-name="R" unicode="R" horiz-adv-x="610" 
d="M131 680h284q81 0 125.5 -39.5t44.5 -108.5q0 -84 -45.5 -140.5t-126.5 -73.5l72 -266q1 -6 6 -6h60q10 0 8 -10l-5 -26q-1 -10 -11 -10h-90q-8 0 -11 9l-79 302h-174q-5 0 -7 -6l-45 -253q-1 -6 5 -6h58q10 0 8 -10l-5 -26q-1 -10 -12 -10h-179q-10 0 -8 10l5 26
q1 10 11 10h57q7 0 8 6l101 576q2 6 -5 6h-58q-10 0 -8 10l5 26q1 10 11 10zM406 630h-161q-5 0 -7 -6l-46 -257q-2 -6 5 -6h161q82 0 128 44.5t46 119.5q0 105 -126 105z" />
    <glyph glyph-name="S" unicode="S" horiz-adv-x="572" 
d="M357 690q106 0 180 -47q7 -4 6 -12l-17 -94q-2 -10 -10 -10h-31q-10 0 -8 10l11 64q1 6 -3 9q-55 30 -131 30q-78 0 -124 -44t-46 -110q0 -50 29 -76.5t103 -36.5l29 -4q83 -12 120.5 -49t37.5 -101q0 -105 -68.5 -167t-188.5 -62q-119 0 -196 56q-7 6 -6 13l19 102
q2 10 11 10h32q10 0 8 -10l-14 -74q-1 -6 3 -9q62 -38 154 -38q86 0 139 47t53 124q0 49 -28.5 74t-102.5 35l-29 4q-160 23 -160 155q0 94 62 152.5t166 58.5z" />
    <glyph glyph-name="T" unicode="T" horiz-adv-x="551" 
d="M113 680h484q11 0 9 -10l-19 -110q-2 -10 -10 -10h-32q-10 0 -8 10l11 65q1 6 -5 6h-164q-5 0 -6 -6l-101 -573q-2 -6 5 -6h62q10 0 8 -10l-5 -26q-1 -10 -12 -10h-187q-10 0 -8 10l5 26q1 10 12 10h61q5 0 7 6l100 573q2 6 -4 6h-164q-6 0 -7 -6l-11 -65q-2 -10 -11 -10
h-31q-10 0 -8 10l18 110q2 10 11 10z" />
    <glyph glyph-name="U" unicode="U" horiz-adv-x="634" 
d="M501 680h179q10 0 8 -10l-5 -26q-1 -10 -12 -10h-57q-6 0 -7 -6l-70 -397q-23 -129 -82.5 -185t-166.5 -56q-92 0 -142 46.5t-50 134.5q0 31 9 83l66 374q1 6 -5 6h-58q-10 0 -8 10l5 26q1 10 11 10h180q10 0 8 -10l-5 -26q-1 -10 -12 -10h-57q-6 0 -7 -6l-66 -379
q-8 -43 -8 -72q0 -137 143 -137q83 0 129.5 44.5t64.5 149.5l69 394q1 6 -5 6h-58q-10 0 -8 10l5 26q1 10 12 10z" />
    <glyph glyph-name="V" unicode="V" horiz-adv-x="575" 
d="M478 680h165q10 0 8 -10l-5 -26q-1 -10 -12 -10h-32q-5 0 -8 -6l-312 -618q-6 -10 -15 -10h-34q-9 0 -11 10l-96 617q-1 7 -7 7h-33q-10 0 -8 10l5 26q1 10 11 10h163q10 0 8 -10l-5 -26q-1 -10 -12 -10h-64q-6 0 -6 -7l84 -549h2l274 549q4 7 -3 7h-66q-10 0 -8 10l5 26
q1 10 12 10z" />
    <glyph glyph-name="W" unicode="W" horiz-adv-x="819" 
d="M721 680h165q10 0 8 -10l-5 -26q-1 -10 -12 -10h-32q-6 0 -8 -6l-255 -618q-4 -10 -14 -10h-30q-9 0 -10 10l-53 569h-2l-255 -569q-4 -10 -14 -10h-31q-10 0 -10 10l-36 617q0 7 -7 7h-33q-10 0 -8 10l5 26q1 10 12 10h163q10 0 8 -10l-5 -26q-1 -10 -12 -10h-66
q-6 0 -6 -7l29 -524h2l252 567q4 10 14 10h28q10 0 11 -10l53 -567h2l213 524q4 7 -3 7h-67q-10 0 -8 10l5 26q1 10 12 10z" />
    <glyph glyph-name="X" unicode="X" horiz-adv-x="557" 
d="M427 680h163q10 0 8 -10l-5 -26q-1 -10 -12 -10h-32q-5 0 -10 -6l-210 -272l128 -303q3 -7 8 -7h35q10 0 8 -10l-5 -26q-1 -10 -12 -10h-163q-10 0 -8 10l5 26q1 10 11 10h59q8 0 5 7l-109 260h-1l-202 -260q-5 -7 3 -7h55q10 0 8 -10l-5 -26q-1 -10 -11 -10h-164
q-10 0 -8 10l5 26q1 10 12 10h33q6 0 10 6l238 307l-115 268q-3 7 -8 7h-34q-10 0 -8 10l5 26q1 10 11 10h163q10 0 8 -10l-5 -26q-1 -10 -11 -10h-59q-7 0 -4 -7l95 -226h1l174 226q5 7 -3 7h-56q-10 0 -8 10l5 26q1 10 12 10z" />
    <glyph glyph-name="Y" unicode="Y" horiz-adv-x="532" 
d="M437 680h164q10 0 8 -10l-5 -26q-1 -10 -12 -10h-31q-7 0 -11 -6l-245 -349l-40 -226q-1 -6 5 -6h61q10 0 8 -10l-5 -27q-1 -10 -12 -10h-185q-10 0 -8 10l5 27q1 10 11 10h60q7 0 8 6l39 226l-120 348q-3 7 -9 7h-35q-10 0 -8 10l5 26q1 10 12 10h164q10 0 8 -10l-5 -26
q-1 -10 -12 -10h-62q-7 0 -5 -7l101 -289h2l205 289q5 7 -3 7h-62q-10 0 -8 10l5 26q1 10 12 10z" />
    <glyph glyph-name="Z" unicode="Z" horiz-adv-x="523" 
d="M150 680h394q11 0 9 -10l-5 -30q-1 -7 -7 -14l-461 -575v-1h310q6 0 7 6l13 69q2 10 11 10h30q10 0 8 -10l-20 -115q-1 -10 -11 -10h-411q-11 0 -9 10l6 31q1 6 7 15l460 573v1h-294q-5 0 -7 -6l-11 -65q-2 -10 -11 -10h-31q-10 0 -8 10l19 111q1 10 12 10z" />
    <glyph glyph-name="bracketleft" unicode="[" horiz-adv-x="272" 
d="M199 740h112q10 0 8 -10l-4 -25q-2 -10 -11 -10h-68q-6 0 -7 -6l-128 -722q-1 -6 5 -6h68q10 0 8 -10l-4 -25q-1 -10 -12 -10h-112q-10 0 -8 10l142 804q2 10 11 10z" />
    <glyph glyph-name="backslash" unicode="\" horiz-adv-x="387" 
d="M151 690h27q10 0 11 -10l92 -680q2 -10 -8 -10h-27q-10 0 -11 10l-92 680q0 10 8 10z" />
    <glyph glyph-name="bracketright" unicode="]" horiz-adv-x="272" 
d="M144 740h112q10 0 8 -10l-142 -804q-2 -10 -11 -10h-112q-11 0 -9 10l5 25q2 10 11 10h68q6 0 7 6l128 722q1 6 -5 6h-68q-10 0 -8 10l4 25q1 10 12 10z" />
    <glyph glyph-name="asciicircum" unicode="^" 
d="M255 680h20q9 0 14 -10l173 -377q5 -10 -7 -10h-27q-9 0 -13 10l-149 323h-2l-149 -323q-4 -10 -14 -10h-26q-12 0 -7 10l173 377q5 10 14 10z" />
    <glyph glyph-name="underscore" unicode="_" horiz-adv-x="441" 
d="M380 -122h-439l7 39h439z" />
    <glyph glyph-name="grave" unicode="`" horiz-adv-x="406" 
d="M256 700h31q9 0 13 -10l53 -122q5 -10 -7 -10h-20q-10 0 -15 10l-62 122q-2 4 0 7t7 3z" />
    <glyph glyph-name="a" unicode="a" horiz-adv-x="497" 
d="M273 487q74 0 108.5 -25t34.5 -81q0 -19 -5 -51l-50 -278q-1 -6 4 -6h54q10 0 8 -10l-5 -26q-1 -10 -11 -10h-98q-10 0 -8 10l9 50h-1q-44 -70 -152 -70q-61 0 -95.5 31.5t-34.5 85.5q0 80 51 121.5t148 41.5h114q6 0 7 6q15 70 15 95q0 38 -23 54t-79 16q-60 0 -97 -18
q-5 -2 -6 -8l-10 -56q-2 -10 -11 -10h-30q-11 0 -9 10l15 85q1 7 7 10q66 33 150 33zM337 227h-105q-151 0 -151 -114q0 -37 24.5 -57.5t72.5 -20.5q59 0 100.5 31t49.5 81l13 74q1 6 -4 6z" />
    <glyph glyph-name="b" unicode="b" horiz-adv-x="538" 
d="M136 680h101q10 0 8 -10l-46 -261h1q55 78 151 78q68 0 103.5 -41t35.5 -114q0 -55 -15.5 -124t-33.5 -106q-55 -112 -174 -112q-98 0 -127 81h-1l-11 -61q-2 -10 -10 -10h-102q-10 0 -8 10l5 26q1 10 12 10h53q6 0 7 6l102 576q1 6 -5 6h-55q-10 0 -8 10l5 26
q1 10 12 10zM335 439q-92 0 -138 -93q-12 -23 -25.5 -91t-13.5 -107q0 -50 27.5 -80t78.5 -30q90 0 132 87q19 37 31 96t12 103q0 115 -104 115z" />
    <glyph glyph-name="c" unicode="c" horiz-adv-x="465" 
d="M290 487q91 0 139 -44q5 -4 4 -13l-14 -83q-2 -10 -10 -10h-30q-10 0 -8 10l10 58q1 7 -3 10q-29 24 -93 24q-98 0 -143 -92q-17 -35 -29 -92.5t-12 -93.5q0 -124 122 -124q50 0 90 19q7 3 8 10l10 61q2 10 11 10h29q11 0 9 -10l-16 -89q-1 -9 -8 -13q-57 -35 -140 -35
q-82 0 -124 41.5t-42 120.5q0 44 13.5 110.5t33.5 106.5q57 118 193 118z" />
    <glyph glyph-name="d" unicode="d" horiz-adv-x="534" 
d="M390 680h101q10 0 8 -10l-108 -617q-1 -7 5 -7h55q10 0 8 -10l-5 -27q-2 -9 -12 -9h-102q-10 0 -8 10l10 57h-1q-53 -77 -151 -77q-67 0 -103 41t-36 114q0 55 15.5 124t33.5 106q55 112 174 112q98 0 127 -82h1l38 222q1 7 -5 7h-54q-10 0 -8 10l5 26q1 10 12 10z
M277 439q-89 0 -133 -88q-18 -36 -30 -95t-12 -103q0 -115 104 -115q92 0 138 92q12 23 25.5 91t13.5 107q0 51 -27.5 81t-78.5 30z" />
    <glyph glyph-name="e" unicode="e" horiz-adv-x="474" 
d="M285 487q67 0 107.5 -41t40.5 -116q0 -38 -10 -93q-2 -10 -12 -10h-299q-6 0 -7 -6q-6 -26 -6 -66q0 -117 113 -117q81 0 141 64q8 8 15 1l16 -18q7 -7 -1 -15q-71 -80 -178 -80q-75 0 -115 41.5t-40 117.5q0 127 44 215q59 123 191 123zM279 440q-95 0 -139 -90
q-16 -32 -24 -74q-2 -6 4 -6h252q6 0 7 6q6 27 6 51q0 113 -106 113z" />
    <glyph glyph-name="f" unicode="f" horiz-adv-x="310" 
d="M319 680h28q10 0 8 -10l-5 -26q-1 -10 -12 -10h-20q-50 0 -69 -17t-29 -74l-11 -60q-1 -6 4 -6h98q10 0 8 -10l-5 -26q-1 -10 -12 -10h-97q-5 0 -6 -6l-66 -373q-1 -6 5 -6h65q10 0 8 -10l-5 -26q-1 -10 -12 -10h-181q-10 0 -8 10l5 26q1 10 12 10h54q6 0 7 6l66 373
q1 6 -4 6h-51q-10 0 -8 10l5 26q2 10 12 10h49q6 0 7 6l10 55q15 83 47.5 112.5t102.5 29.5z" />
    <glyph glyph-name="g" unicode="g" horiz-adv-x="523" 
d="M271 487q49 0 80 -22.5t42 -58.5h1l10 61q2 10 11 10h102q10 0 8 -10l-5 -26q-1 -10 -11 -10h-56q-6 0 -7 -7l-72 -413q-19 -107 -71.5 -154t-139.5 -47q-98 0 -140 73q-5 8 3 15l22 17q8 7 15 -2q39 -55 106 -55q129 0 155 152l11 63h-1q-48 -76 -146 -76q-67 0 -102 40
t-35 110q0 49 13 115.5t35 110.5q54 114 172 114zM273 439q-86 0 -128 -86q-43 -88 -43 -197q0 -111 103 -111q85 0 128 85q16 32 29 96.5t13 101.5q0 50 -26 80.5t-76 30.5z" />
    <glyph glyph-name="h" unicode="h" horiz-adv-x="562" 
d="M136 680h101q10 0 8 -10l-46 -259h1q52 76 147 76q65 0 98.5 -34.5t33.5 -98.5q0 -26 -9 -74l-41 -228q-1 -6 5 -6h53q10 0 8 -10l-5 -26q-1 -10 -12 -10h-169q-10 0 -8 10l5 26q1 10 11 10h54q7 0 8 6l41 228q7 40 7 62q0 97 -98 97q-51 0 -94.5 -37.5t-54.5 -97.5
l-44 -252q-2 -6 5 -6h55q10 0 8 -10l-5 -26q-1 -10 -12 -10h-171q-10 0 -8 10l5 26q1 10 12 10h53q6 0 7 6l102 576q1 6 -5 6h-55q-10 0 -8 10l5 26q1 10 12 10z" />
    <glyph glyph-name="uni0069" unicode="i" horiz-adv-x="274" 
d="M201 680h41q10 0 8 -10l-10 -53q-2 -10 -11 -10h-41q-10 0 -8 10l10 53q2 10 11 10zM100 477h101q10 0 8 -10l-73 -415q-2 -6 5 -6h55q10 0 8 -10l-5 -26q-1 -10 -12 -10h-171q-10 0 -8 10l5 26q1 10 12 10h53q6 0 7 6l66 372q1 7 -5 7h-55q-10 0 -8 10l5 26q2 10 12 10z
" />
    <glyph glyph-name="j" unicode="j" horiz-adv-x="269" 
d="M198 680h42q9 0 7 -10l-10 -53q-2 -10 -12 -10h-40q-10 0 -8 10l10 53q2 10 11 10zM97 477h101q10 0 8 -10l-92 -523q-13 -72 -42.5 -98t-96.5 -26h-11q-10 0 -8 10l5 28q1 10 12 10h8q39 0 57 16t25 60l85 480q1 7 -5 7h-55q-10 0 -8 10l5 26q2 10 12 10z" />
    <glyph glyph-name="k" unicode="k" horiz-adv-x="524" 
d="M136 680h101q10 0 8 -10l-80 -451l247 248q10 10 18 10h75q10 0 8 -10l-5 -26q-1 -10 -11 -10h-52q-6 0 -11 -5l-125 -125l99 -250q2 -5 8 -5h54q10 0 8 -10l-5 -26q-1 -10 -12 -10h-76q-10 0 -14 10l-99 254l-120 -120l-16 -92q-2 -6 5 -6h55q10 0 8 -10l-5 -26
q-1 -10 -12 -10h-171q-10 0 -8 10l5 26q1 10 12 10h54q5 0 7 6l101 576q1 6 -5 6h-55q-10 0 -8 10l5 26q1 10 12 10z" />
    <glyph glyph-name="l" unicode="l" horiz-adv-x="255" 
d="M114 680h101q10 0 8 -10l-101 -552q-5 -25 -5 -37q0 -36 41 -36h16q10 0 8 -10l-4 -27q-1 -10 -12 -10h-22q-78 0 -78 70q0 19 5 44l94 515q1 7 -5 7h-55q-10 0 -8 10l5 26q1 10 12 10z" />
    <glyph glyph-name="m" unicode="m" horiz-adv-x="856" 
d="M639 487q133 0 133 -133q0 -25 -8 -71l-41 -231q-1 -6 4 -6h53q10 0 8 -10l-5 -26q-1 -10 -12 -10h-169q-10 0 -8 10l5 26q1 10 12 10h54q5 0 7 6l40 222q8 42 8 68q0 97 -97 97q-53 0 -95.5 -37t-53.5 -98l-44 -252q-2 -6 4 -6h55q10 0 8 -10l-5 -26q-1 -10 -12 -10
h-171q-10 0 -8 10l5 26q1 10 12 10h54q6 0 7 6l41 233q7 38 7 56q0 98 -98 98q-51 0 -94 -37.5t-54 -97.5l-45 -252q-2 -6 5 -6h55q10 0 8 -10l-5 -26q-1 -10 -12 -10h-171q-10 0 -8 10l5 26q1 10 12 10h53q6 0 7 6l66 372q1 7 -5 7h-55q-10 0 -8 10l5 26q2 10 12 10h101
q10 0 8 -10l-10 -56h1q52 76 147 76q106 0 125 -89h1q60 89 166 89z" />
    <glyph glyph-name="n" unicode="n" horiz-adv-x="562" 
d="M347 487q65 0 98.5 -34.5t33.5 -98.5q0 -24 -9 -74l-41 -228q-1 -6 5 -6h53q10 0 8 -10l-4 -26q-1 -10 -12 -10h-170q-10 0 -8 10l5 26q1 10 11 10h54q7 0 8 6l41 228q7 44 7 61q0 98 -98 98q-51 0 -94.5 -37.5t-54.5 -97.5l-44 -252q-2 -6 5 -6h55q10 0 8 -10l-5 -26
q-1 -10 -12 -10h-171q-10 0 -8 10l5 26q1 10 12 10h53q6 0 7 6l66 372q1 7 -5 7h-55q-10 0 -8 10l5 26q2 10 12 10h101q10 0 8 -10l-10 -56h1q52 76 147 76z" />
    <glyph glyph-name="o" unicode="o" horiz-adv-x="486" 
d="M288 487q74 0 113.5 -43t39.5 -118q0 -51 -14.5 -116t-32.5 -102q-56 -118 -191 -118q-74 0 -113.5 43t-39.5 118q0 51 14.5 116t32.5 102q56 118 191 118zM280 439q-93 0 -138 -91q-14 -28 -27.5 -87.5t-13.5 -99.5q0 -123 110 -123q93 0 138 91q14 28 27.5 87.5
t13.5 99.5q0 123 -110 123z" />
    <glyph glyph-name="p" unicode="p" horiz-adv-x="536" 
d="M349 487q68 0 103.5 -41t35.5 -114q0 -55 -15.5 -124t-33.5 -106q-55 -112 -174 -112q-98 0 -127 81h-1l-34 -198q-1 -7 5 -7h54q10 0 8 -10l-5 -26q-1 -10 -12 -10h-171q-10 0 -8 10l5 26q1 10 12 10h53q7 0 8 7l97 551q1 7 -5 7h-55q-10 0 -8 10l5 26q2 10 12 10h101
q10 0 8 -10l-10 -58h1q55 78 151 78zM333 439q-92 0 -138 -93q-12 -23 -25.5 -91t-13.5 -107q0 -50 27.5 -80t78.5 -30q91 0 133 87q18 36 30 95.5t12 103.5q0 115 -104 115z" />
    <glyph glyph-name="q" unicode="q" horiz-adv-x="534" 
d="M275 487q100 0 126 -80h1l11 60q2 10 11 10h102q10 0 8 -10l-5 -26q-1 -10 -11 -10h-55q-6 0 -7 -7l-97 -551q-1 -7 5 -7h54q10 0 8 -10l-5 -26q-1 -10 -12 -10h-171q-10 0 -8 10l5 26q1 10 12 10h54q6 0 7 7l34 192h-1q-54 -75 -151 -75q-68 0 -103.5 40.5t-35.5 114.5
q0 54 16 123t34 107q55 112 174 112zM278 439q-89 0 -133 -88q-18 -36 -30.5 -95.5t-12.5 -102.5q0 -115 105 -115q93 0 138 92q11 23 24.5 91t13.5 107q0 51 -26.5 81t-78.5 30z" />
    <glyph glyph-name="r" unicode="r" horiz-adv-x="394" 
d="M341 484q34 0 52 -6q9 -3 8 -10l-6 -34q-2 -9 -11 -6q-28 7 -56 7q-60 0 -100 -45.5t-53 -116.5l-39 -221q-2 -6 5 -6h60q10 0 8 -10l-5 -26q-1 -10 -11 -10h-177q-10 0 -8 10l5 26q1 10 12 10h52q7 0 8 6l66 372q1 7 -5 7h-55q-10 0 -8 10l5 26q2 10 11 10h102
q10 0 8 -10l-12 -70h1q21 39 58.5 63t84.5 24z" />
    <glyph glyph-name="s" unicode="s" horiz-adv-x="461" 
d="M268 487q84 0 141 -35q6 -4 5 -12l-15 -84q-2 -10 -10 -10h-30q-10 0 -8 10l10 59q1 5 -4 8q-41 18 -93 18q-57 0 -92 -28.5t-35 -73.5q0 -31 21 -47t70 -21l45 -5q115 -12 115 -107q0 -78 -54.5 -123.5t-146.5 -45.5q-91 0 -153 42q-6 4 -5 14l16 88q2 10 10 10h30
q11 0 9 -10l-11 -63q-1 -6 3 -9q46 -26 107 -26q66 0 105 31t39 82q0 32 -19.5 48.5t-67.5 21.5l-46 5q-118 14 -118 108q0 70 50 112.5t132 42.5z" />
    <glyph glyph-name="t" unicode="t" horiz-adv-x="295" 
d="M185 630h32q10 0 8 -10l-24 -137q-1 -6 4 -6h86q10 0 8 -10l-5 -26q-1 -10 -12 -10h-85q-5 0 -7 -6l-54 -286q-6 -30 -6 -46q0 -28 15 -38t49 -10h17q10 0 8 -10l-4 -27q-1 -10 -12 -10h-25q-51 0 -75 19.5t-24 63.5q0 22 4 45l57 299q2 6 -5 6h-49q-10 0 -8 10l5 26
q2 10 11 10h49q7 0 8 6l23 137q2 10 11 10z" />
    <glyph glyph-name="u" unicode="u" horiz-adv-x="536" 
d="M359 477h101q10 0 8 -10l-73 -415q-1 -6 5 -6h55q10 0 8 -10l-5 -26q-1 -10 -12 -10h-101q-10 0 -8 10l10 55h-1q-53 -75 -145 -75q-64 0 -97 33.5t-33 96.5q0 21 5 51l45 253q1 7 -5 7h-54q-10 0 -8 10l5 26q2 10 12 10h100q10 0 8 -10l-51 -283q-5 -30 -5 -51
q0 -95 96 -95q51 0 93.5 37t52.5 97l45 252q1 7 -5 7h-54q-10 0 -8 10l5 26q2 10 11 10z" />
    <glyph glyph-name="v" unicode="v" horiz-adv-x="448" 
d="M339 477h140q10 0 8 -10l-5 -26q-1 -10 -12 -10h-23q-6 0 -10 -7l-224 -414q-5 -10 -14 -10h-31q-8 0 -10 10l-76 415q-2 6 -7 6h-28q-10 0 -8 10l5 26q2 10 11 10h143q10 0 8 -10l-5 -26q-1 -10 -11 -10h-51q-8 0 -6 -8l62 -352h2l187 351q5 9 -3 9h-51q-10 0 -8 10
l5 26q2 10 12 10z" />
    <glyph glyph-name="w" unicode="w" horiz-adv-x="701" 
d="M587 477h141q10 0 8 -10l-5 -26q-1 -10 -12 -10h-24q-7 0 -11 -7l-202 -414q-4 -10 -13 -10h-29q-9 0 -10 10l-49 389h-2l-189 -389q-6 -10 -15 -10h-28q-9 0 -10 10l-55 415q-1 6 -7 6h-30q-10 0 -8 10l5 26q2 10 12 10h142q10 0 8 -10l-5 -26q-1 -10 -12 -10h-51
q-6 0 -5 -9l43 -344h2l185 389q5 10 13 10h31q9 0 11 -10l50 -390h1l165 345q4 9 -4 9h-50q-10 0 -8 10l5 26q2 10 12 10z" />
    <glyph glyph-name="x" unicode="x" horiz-adv-x="456" 
d="M390 477h76q10 0 8 -10l-5 -26q-1 -10 -11 -10h-48q-6 0 -10 -7l-136 -175l84 -197q3 -6 8 -6h51q10 0 8 -10l-5 -26q-2 -10 -12 -10h-73q-9 0 -13 8l-83 195h-1l-152 -195q-6 -8 -14 -8h-77q-10 0 -8 10l5 26q1 10 11 10h46q7 0 11 6l155 199l-71 174q-3 6 -9 6h-51
q-10 0 -8 10l5 26q2 10 12 10h74q8 0 12 -8l72 -173h1l133 173q7 8 15 8z" />
    <glyph glyph-name="y" unicode="y" horiz-adv-x="452" 
d="M343 477h140q10 0 8 -10l-5 -26q-1 -10 -12 -10h-26q-5 0 -9 -7l-256 -471q-43 -80 -75 -106.5t-79 -26.5h-20q-10 0 -8 10l5 28q1 10 12 10h16q30 0 52.5 21t52.5 76l25 48l-80 412q-2 6 -6 6h-30q-10 0 -8 10l5 26q2 10 12 10h142q10 0 8 -10l-5 -26q-1 -10 -12 -10
h-49q-7 0 -5 -8l64 -345h1l184 344q5 9 -4 9h-47q-10 0 -8 10l5 26q2 10 12 10z" />
    <glyph glyph-name="z" unicode="z" horiz-adv-x="460" 
d="M121 477h318q10 0 8 -10l-5 -28q-1 -6 -8 -14l-346 -378v-1h229q5 0 7 6l10 59q2 10 11 10h31q10 0 8 -10l-18 -101q-1 -10 -11 -10h-330q-10 0 -8 10l4 26q1 6 7 13l348 381v1h-218q-6 0 -7 -6l-9 -52q-2 -11 -11 -11h-30q-11 0 -9 10l17 95q1 10 12 10z" />
    <glyph glyph-name="braceleft" unicode="{" horiz-adv-x="304" 
d="M312 740h31q10 0 8 -10l-4 -24q-1 -10 -11 -10h-23q-49 0 -59 -60l-34 -192q-10 -56 -25 -79.5t-44 -34.5v-2q33 -17 33 -67q0 -22 -4 -46l-33 -184q-4 -24 -4 -37q0 -19 9 -26.5t29 -7.5h24q10 0 8 -10l-4 -24q-1 -10 -11 -10h-30q-74 0 -74 68q0 18 6 48l33 190
q3 20 3 33q0 48 -41 51q-9 2 -8 10l5 29q2 9 11 9q28 2 43.5 20t24.5 65l36 200q10 53 35 77t70 24z" />
    <glyph glyph-name="bar" unicode="|" horiz-adv-x="236" 
d="M125 740h25q10 0 10 -10v-804q0 -10 -10 -10h-25q-10 0 -10 10v804q0 10 10 10z" />
    <glyph glyph-name="braceright" unicode="}" horiz-adv-x="304" 
d="M144 740h30q74 0 74 -69q0 -16 -3 -34l-35 -198q-3 -19 -3 -33q0 -49 41 -52q10 0 8 -10l-4 -29q-2 -9 -12 -9q-27 -1 -43 -19t-25 -65l-37 -205q-10 -53 -35 -77t-70 -24h-31q-10 0 -8 10l4 24q1 10 11 10h23q49 0 60 60l34 196q10 56 25 79.5t44 35.5v1q-33 16 -33 66
q0 18 5 48l33 192q3 16 3 24q0 34 -39 34h-24q-10 0 -8 10l4 24q1 10 11 10z" />
    <glyph glyph-name="asciitilde" unicode="~" 
d="M170 333q44 0 97 -39q45 -31 75 -31q47 0 81 56q5 8 14 3l17 -11q8 -5 3 -14q-39 -79 -117 -79q-44 0 -97 39q-46 32 -75 32q-26 0 -44.5 -13t-37.5 -44q-5 -8 -13 -3l-18 12q-7 4 -3 14q40 78 118 78z" />
    <glyph glyph-name="uni00A0" unicode="&#xa0;" horiz-adv-x="236" 
 />
    <glyph glyph-name="exclamdown" unicode="&#xa1;" horiz-adv-x="253" 
d="M150 477h45q11 0 9 -10l-12 -65q-2 -10 -11 -10h-45q-10 0 -8 10l10 65q3 10 12 10zM132 301h21q10 0 8 -10l-78 -484q-2 -10 -11 -10h-37q-10 0 -8 10l94 484q2 10 11 10z" />
    <glyph glyph-name="cent" unicode="&#xa2;" 
d="M323 578h13q10 0 8 -10l-14 -81q83 -5 126 -44q5 -4 4 -13l-14 -83q-2 -10 -10 -10h-30q-10 0 -8 10l10 58q1 7 -3 10q-26 21 -84 24l-70 -402q49 0 89 19q7 3 8 10l10 61q2 10 11 10h29q11 0 9 -10l-16 -89q-1 -9 -8 -13q-57 -35 -140 -35l-15 -82q-2 -10 -11 -10h-13
q-10 0 -8 10l15 84q-66 7 -100 48.5t-34 111.5q0 44 13.5 110.5t33.5 106.5q53 110 173 117l15 82q2 10 11 10zM219 39l70 399q-81 -9 -120 -91q-17 -35 -29 -92.5t-12 -93.5q0 -108 91 -122z" />
    <glyph glyph-name="sterling" unicode="&#xa3;" 
d="M366 690q72 0 117 -39q7 -5 5 -13l-14 -82q-2 -10 -11 -10h-29q-11 0 -9 10l10 57q1 7 -3 10q-27 19 -69 19q-97 0 -118 -120l-29 -165q-2 -6 4 -6h131q10 0 8 -10l-3 -23q-2 -10 -12 -10h-131q-5 0 -7 -6l-25 -139q-14 -81 -53 -113v-2h237q5 0 7 6l11 63q2 10 11 10h31
q10 0 8 -10l-19 -107q-1 -10 -12 -10h-333q-10 0 -8 10l4 28q1 5 7 11q46 42 58 109l26 144q2 6 -5 6h-47q-10 0 -8 10l4 23q2 10 12 10h46q6 0 7 6l29 161q30 172 172 172z" />
    <glyph glyph-name="currency" unicode="&#xa4;" 
d="M500 540l16 -22q6 -6 -2 -13l-75 -66q19 -36 19 -78q0 -92 -59 -157l50 -63q5 -7 -2 -13l-20 -18q-7 -7 -13 0l-51 63q-54 -38 -120 -38q-65 0 -106 39l-74 -65q-7 -6 -13 0l-16 21q-5 7 2 14l74 65q-18 33 -18 78q0 93 60 158l-48 62q-7 7 1 13l20 19q8 7 13 0l50 -63
q55 37 119 37q63 0 105 -39l75 66q7 6 13 0zM303 469q-69 0 -117.5 -52t-48.5 -124q0 -51 30 -82.5t80 -31.5q69 0 118 52t49 124q0 51 -30.5 82.5t-80.5 31.5z" />
    <glyph glyph-name="yen" unicode="&#xa5;" 
d="M408 680h158q10 0 8 -10l-5 -26q-1 -10 -11 -10h-34q-4 0 -9 -6l-189 -295v-1h112q10 0 8 -10l-4 -22q-2 -10 -11 -10h-128q-5 0 -7 -6l-11 -63q-1 -6 4 -6h129q10 0 8 -10l-4 -22q-2 -10 -11 -10h-130q-5 0 -6 -6l-20 -115q-1 -6 4 -6h60q10 0 8 -10l-4 -26
q-1 -10 -12 -10h-180q-10 0 -8 10l4 26q1 10 12 10h59q6 0 7 5l20 115q1 7 -5 7h-127q-10 0 -8 10l4 22q2 10 11 10h128q6 0 7 6l11 63q2 6 -5 6h-127q-10 0 -8 10l4 22q2 10 11 10h113v1l-85 294q-1 7 -8 7h-34q-10 0 -8 10l4 26q1 10 12 10h157q10 0 8 -10l-5 -26
q-1 -10 -12 -10h-58q-7 0 -5 -7l79 -288h2l180 288q5 7 -3 7h-58q-10 0 -8 10l4 26q1 10 12 10z" />
    <glyph glyph-name="brokenbar" unicode="&#xa6;" horiz-adv-x="236" 
d="M125 740h25q10 0 10 -10v-332q0 -10 -10 -10h-25q-10 0 -10 10v332q0 10 10 10zM125 272h25q10 0 10 -10v-336q0 -10 -10 -10h-25q-10 0 -10 10v336q0 10 10 10z" />
    <glyph glyph-name="section" unicode="&#xa7;" horiz-adv-x="505" 
d="M337 692q74 0 120 -39q5 -5 4 -12l-14 -84q-2 -10 -11 -10h-27q-10 0 -8 10l10 61q1 6 -4 10q-25 19 -75 19q-54 0 -86 -34.5t-32 -88.5q0 -37 24.5 -59.5t82.5 -36.5q107 -25 107 -131q0 -73 -35.5 -130.5t-99.5 -77.5v-1q66 -26 66 -99q0 -80 -50.5 -130.5
t-132.5 -50.5q-83 0 -129 35q-6 5 -5 13l15 87q2 10 11 10h27q10 0 8 -10l-10 -61q-1 -7 3 -10q28 -19 86 -19q57 0 93 35t36 93q0 39 -25.5 61.5t-88.5 35.5q-108 23 -108 130q0 75 37 133.5t103 75.5v1q-64 29 -64 98q0 76 46 126t126 50zM282 384q-65 0 -104.5 -48
t-39.5 -119q0 -46 26.5 -71t71.5 -25q64 0 103.5 48t39.5 119q0 46 -26.5 71t-70.5 25z" />
    <glyph glyph-name="dieresis" unicode="&#xa8;" horiz-adv-x="404" 
d="M169 680h37q10 0 8 -10l-9 -53q-2 -10 -11 -10h-37q-10 0 -8 10l9 53q2 10 11 10zM361 680h37q10 0 8 -10l-9 -53q-2 -10 -11 -10h-37q-10 0 -8 10l9 53q2 10 11 10z" />
    <glyph glyph-name="copyright" unicode="&#xa9;" horiz-adv-x="831" 
d="M437 690q149 0 249.5 -100.5t100.5 -249.5t-100.5 -249.5t-249.5 -100.5t-249.5 100.5t-100.5 249.5t100.5 249.5t249.5 100.5zM437 650q-132 0 -220.5 -88.5t-88.5 -221.5t88.5 -221.5t220.5 -88.5t220 88.5t88 221.5t-88 221.5t-220 88.5zM444 536q70 0 116 -30
q7 -4 7 -11v-71q0 -10 -10 -10h-20q-10 0 -10 10v48q0 4 -4 7q-30 17 -78 17q-87 0 -112 -75q-8 -24 -8 -81t8 -81q25 -75 112 -75q48 0 78 13q4 3 4 7v50q0 10 10 10h20q10 0 10 -10v-72q0 -8 -7 -12q-50 -26 -116 -26q-118 0 -151 99q-11 39 -11 97q0 56 11 94
q16 49 56 75.5t95 26.5z" />
    <glyph glyph-name="ordfeminine" unicode="&#xaa;" horiz-adv-x="330" 
d="M244 687q95 0 95 -70q0 -13 -3 -30l-27 -151q-1 -6 5 -6h26q10 0 8 -9l-4 -19q-1 -10 -11 -10h-61q-11 0 -9 10l4 20h-1q-30 -36 -95 -36q-37 0 -60.5 19.5t-23.5 53.5q0 51 36 77t95 26h67q5 0 7 6q6 28 6 41q0 22 -14.5 31.5t-48.5 9.5q-32 0 -54 -10q-5 -2 -6 -7
l-4 -25q-2 -10 -11 -10h-22q-10 0 -8 10l8 48q1 7 7 10q44 21 99 21zM279 527h-64q-40 0 -63 -15.5t-23 -45.5q0 -20 15.5 -32t42.5 -12q34 0 59.5 17.5t30.5 41.5l7 40q2 6 -5 6z" />
    <glyph glyph-name="guillemotleft" unicode="&#xab;" horiz-adv-x="490" 
d="M58 271l193 173q3 3 6.5 1.5t2.5 -5.5l-6 -42q-3 -10 -10 -19l-130 -114q-5 -4 -2 -8l88 -114q6 -8 5 -19l-6 -37q0 -3 -2 -4.5t-4.5 -1t-4.5 2.5l-132 173q-6 8 2 14zM250 271l194 173q3 3 6.5 1.5t2.5 -5.5l-6 -42q-3 -10 -10 -19l-130 -114q-5 -4 -2 -8l88 -114
q7 -8 4 -19l-5 -37q0 -3 -2 -4.5t-4.5 -1t-4.5 2.5l-133 173q-5 8 2 14z" />
    <glyph glyph-name="logicalnot" unicode="&#xac;" 
d="M67 300h376q10 0 10 -10v-161q0 -10 -10 -10h-27q-10 0 -10 10v118q0 6 -6 6h-333q-10 0 -10 10v27q0 10 10 10z" />
    <glyph glyph-name="uni00AD" unicode="&#xad;" horiz-adv-x="358" 
d="M69 291h245q10 0 8 -10l-6 -31q-1 -8 -11 -8h-244q-10 0 -8 10l5 30q2 9 11 9z" />
    <glyph glyph-name="registered" unicode="&#xae;" horiz-adv-x="460" 
d="M275 685q82 0 137.5 -55t55.5 -137q0 -83 -55 -138t-138 -55q-82 0 -136.5 55t-54.5 138q0 82 54.5 137t136.5 55zM275 658q-70 0 -117 -47.5t-47 -117.5q0 -71 47 -118.5t117 -47.5q71 0 118 47.5t47 118.5t-47 118t-118 47zM196 601h102q32 0 50 -16.5t18 -43.5
q0 -47 -44 -58l27 -64q3 -5 7 -5h12q9 0 9 -9v-10q0 -8 -9 -8h-31q-7 0 -10 7l-35 86h-44q-5 0 -5 -5v-56q0 -5 5 -5h14q9 0 9 -9v-10q0 -8 -9 -8h-66q-9 0 -9 8v10q0 9 9 9h14q5 0 5 5v150q0 5 -5 5h-14q-9 0 -9 8v11q0 8 9 8zM299 575h-51q-5 0 -5 -5v-59q0 -5 5 -5h51
q39 0 39 35q0 34 -39 34z" />
    <glyph glyph-name="macron" unicode="&#xaf;" horiz-adv-x="404" 
d="M163 664h234q10 0 8 -10l-4 -22q-1 -10 -11 -10h-234q-10 0 -8 10l4 22q1 10 11 10z" />
    <glyph glyph-name="degree" unicode="&#xb0;" horiz-adv-x="450" 
d="M276 687q61 0 101.5 -40.5t40.5 -102.5t-40.5 -102.5t-101.5 -40.5q-62 0 -102.5 40.5t-40.5 102.5t40.5 102.5t102.5 40.5zM276 649q-45 0 -74.5 -30t-29.5 -75t29.5 -75t74.5 -30t74.5 30t29.5 75t-29.5 75t-74.5 30z" />
    <glyph glyph-name="plusminus" unicode="&#xb1;" 
d="M245 507h28q10 0 10 -10v-160q0 -6 6 -6h158q10 0 10 -10v-28q0 -10 -10 -10h-158q-6 0 -6 -6v-160q0 -10 -10 -10h-28q-10 0 -10 10v160q0 6 -6 6h-158q-10 0 -10 10v28q0 10 10 10h158q6 0 6 6v160q0 10 10 10zM71 48h376q10 0 10 -10v-28q0 -10 -10 -10h-376
q-10 0 -10 10v28q0 10 10 10z" />
    <glyph glyph-name="twosuperior" unicode="&#xb2;" horiz-adv-x="317" 
d="M262 843q50 0 76 -24.5t26 -64.5q0 -61 -61 -122l-162 -161v-1h171q10 0 8 -10l-4 -20q-1 -10 -11 -10h-218q-10 0 -8 10l4 20q1 6 8 14l182 183q49 49 49 90q0 56 -62 56q-36 0 -60 -15q-5 -3 -6 -8l-7 -43q-2 -10 -10 -10h-22q-11 0 -9 10l13 68q1 8 9 13q42 25 94 25z
" />
    <glyph glyph-name="threesuperior" unicode="&#xb3;" horiz-adv-x="317" 
d="M256 843q49 0 76.5 -23.5t27.5 -63.5q0 -77 -69 -112v-1q44 -23 44 -80q0 -64 -39.5 -102t-101.5 -38q-60 0 -96 29q-5 5 -4 14l12 70q2 10 11 10h21q11 0 9 -10l-9 -49q-1 -7 4 -10q26 -14 58 -14q39 0 65.5 26t26.5 69q0 28 -17.5 45t-48.5 17h-17q-9 0 -7 10l3 21
q2 10 12 10h13q36 0 61.5 25t25.5 62q0 26 -17.5 40.5t-48.5 14.5q-32 0 -56 -14q-4 -2 -6 -9l-7 -41q-2 -10 -10 -10h-22q-11 0 -9 10l12 66q1 7 9 12q43 26 94 26z" />
    <glyph glyph-name="acute" unicode="&#xb4;" horiz-adv-x="404" 
d="M310 700h34q4 0 5.5 -3t-1.5 -7l-106 -122q-10 -10 -18 -10h-22q-11 0 -3 10l92 122q8 10 19 10z" />
    <glyph glyph-name="mu" unicode="&#xb5;" horiz-adv-x="554" 
d="M446 477h31q11 0 9 -10l-73 -414q-1 -7 5 -7h54q10 0 8 -10l-4 -26q-1 -10 -12 -10h-102q-10 0 -8 10l11 56h-1q-51 -76 -143 -76q-78 0 -101 53h-2l-37 -213q-2 -10 -11 -10h-32q-10 0 -8 10l112 637q2 10 11 10h31q10 0 8 -10l-49 -282q-6 -31 -6 -53q0 -94 98 -94
q53 0 95.5 38t52.5 96l52 295q2 10 11 10z" />
    <glyph glyph-name="paragraph" unicode="&#xb6;" horiz-adv-x="573" 
d="M367 680h237q10 0 8 -10l-5 -26q-3 -10 -12 -10h-57q-6 0 -7 -6l-140 -798q-2 -10 -11 -10h-28q-10 0 -8 10l141 798q1 6 -5 6h-95q-5 0 -6 -6l-141 -798q-2 -10 -11 -10h-27q-10 0 -8 10l77 438q-73 4 -113.5 48t-40.5 114q0 107 71.5 178.5t180.5 71.5z" />
    <glyph glyph-name="periodcentered" unicode="&#xb7;" horiz-adv-x="209" 
d="M97 308h45q10 0 8 -10l-10 -65q-2 -10 -11 -10h-46q-10 0 -8 10l11 65q2 10 11 10z" />
    <glyph glyph-name="cedilla" unicode="&#xb8;" horiz-adv-x="404" 
d="M184 10h22q11 0 6 -10l-69 -137q-5 -10 -17 -10h-27q-11 0 -6 10l77 137q6 10 14 10z" />
    <glyph glyph-name="onesuperior" unicode="&#xb9;" horiz-adv-x="317" 
d="M271 836h23q10 0 8 -10l-62 -349q-2 -6 5 -6h66q10 0 8 -10l-4 -22q-1 -9 -10 -9h-187q-10 0 -8 10l4 21q2 10 10 10h66q7 0 8 6l54 304h-2l-77 -47q-5 -2 -8 0t-2 6l5 27q1 10 10 15l77 48q9 6 16 6z" />
    <glyph glyph-name="ordmasculine" unicode="&#xba;" horiz-adv-x="332" 
d="M247 687q47 0 74 -26.5t27 -78.5q0 -66 -26 -119q-36 -78 -127 -78q-47 0 -74 26.5t-27 78.5q0 66 26 119q36 78 127 78zM242 647q-54 0 -83 -53q-21 -40 -21 -97q0 -72 63 -72q53 0 82 53q21 41 21 97q0 72 -62 72z" />
    <glyph glyph-name="guillemotright" unicode="&#xbb;" horiz-adv-x="490" 
d="M123 444l133 -174q7 -7 -2 -14l-194 -172q-3 -3 -6.5 -1.5t-2.5 5.5l7 42q1 9 10 18l130 114q4 4 2 8l-89 115q-5 8 -4 18l6 37q1 4 4.5 5.5t5.5 -1.5zM316 444l133 -174q6 -8 -2 -14l-194 -172q-3 -3 -6.5 -1.5t-2.5 5.5l7 42q1 9 10 18l130 114q4 4 2 8l-89 115
q-7 8 -4 18l6 37q1 4 4.5 5.5t5.5 -1.5z" />
    <glyph glyph-name="onequarter" unicode="&#xbc;" horiz-adv-x="785" 
d="M680 690h25q11 0 4 -10l-497 -680q-9 -10 -16 -10h-25q-12 0 -4 10l497 680q7 10 16 10zM244 680h23q10 0 8 -10l-62 -349q-1 -6 5 -6h66q10 0 8 -10l-4 -22q-2 -9 -10 -9h-187q-10 0 -8 10l4 21q2 10 10 10h66q7 0 8 6l54 304h-2l-77 -47q-4 -2 -7.5 0t-2.5 6l5 27
q1 10 10 15l77 48q9 6 16 6zM674 406h26q4 0 5.5 -3t-1.5 -7l-178 -278v-1h116q6 0 7 6l18 100q2 10 11 10h22q10 0 8 -10l-17 -100q-1 -6 5 -6h35q9 0 7 -10l-3 -21q-1 -9 -10 -9h-37q-4 0 -6 -6l-11 -61q-2 -10 -12 -10h-22q-9 0 -7 10l10 61q2 6 -5 6h-155q-10 0 -8 10
l3 21q1 6 7 15l177 273q6 10 15 10z" />
    <glyph glyph-name="onehalf" unicode="&#xbd;" horiz-adv-x="835" 
d="M680 690h25q11 0 4 -10l-497 -680q-9 -10 -16 -10h-25q-12 0 -4 10l497 680q7 10 16 10zM244 680h23q10 0 8 -10l-62 -349q-1 -6 5 -6h66q10 0 8 -10l-4 -22q-2 -9 -10 -9h-187q-10 0 -8 10l4 21q2 10 10 10h66q7 0 8 6l54 304h-2l-77 -47q-4 -2 -7.5 0t-2.5 6l5 27
q1 10 10 15l77 48q9 6 16 6zM705 413q50 0 76 -24.5t26 -64.5q0 -61 -61 -122l-162 -161v-1h171q10 0 8 -10l-4 -20q-1 -10 -11 -10h-218q-10 0 -8 10l4 20q1 6 8 14l182 183q49 49 49 90q0 56 -62 56q-36 0 -60 -15q-5 -3 -6 -8l-7 -43q-2 -10 -10 -10h-22q-11 0 -9 10
l13 68q1 8 9 13q42 25 94 25z" />
    <glyph glyph-name="threequarters" unicode="&#xbe;" horiz-adv-x="785" 
d="M680 690h25q11 0 4 -10l-497 -680q-9 -10 -16 -10h-25q-12 0 -4 10l497 680q7 10 16 10zM229 687q49 0 76.5 -23.5t27.5 -63.5q0 -77 -69 -112v-1q44 -23 44 -80q0 -64 -39.5 -102t-101.5 -38q-60 0 -96 29q-5 5 -4 14l12 70q2 10 11 10h21q11 0 9 -10l-9 -49
q-1 -7 4 -10q26 -14 58 -14q39 0 65.5 26t26.5 69q0 28 -17.5 45t-48.5 17h-17q-9 0 -7 10l3 21q2 10 12 10h13q36 0 61.5 25t25.5 62q0 26 -17.5 40.5t-48.5 14.5q-32 0 -56 -14q-4 -2 -6 -9l-7 -41q-2 -10 -10 -10h-22q-11 0 -9 10l12 66q1 7 9 12q43 26 94 26zM674 406
h26q4 0 5.5 -3t-1.5 -7l-178 -278v-1h116q6 0 7 6l18 100q2 10 11 10h22q10 0 8 -10l-17 -100q-1 -6 5 -6h35q9 0 7 -10l-3 -21q-1 -9 -10 -9h-37q-4 0 -6 -6l-11 -61q-2 -10 -12 -10h-22q-9 0 -7 10l10 61q2 6 -5 6h-155q-10 0 -8 10l3 21q1 6 7 15l177 273q6 10 15 10z
" />
    <glyph glyph-name="questiondown" unicode="&#xbf;" horiz-adv-x="428" 
d="M247 477h45q11 0 9 -10l-11 -64q-2 -10 -11 -10h-46q-10 0 -8 10l11 64q2 10 11 10zM227 304h31q10 0 8 -10l-7 -40q-11 -56 -49 -99l-65 -73q-49 -54 -67 -86t-18 -67q0 -45 26 -69.5t75 -24.5q61 0 104 31q5 4 6 8l13 73q2 10 11 10h30q10 0 8 -10l-18 -100
q-1 -8 -9 -13q-70 -47 -151 -47q-71 0 -108.5 36.5t-37.5 98.5q0 75 88 175l64 73q26 30 34 44.5t14 43.5l7 36q2 10 11 10z" />
    <glyph glyph-name="Agrave" unicode="&#xc0;" horiz-adv-x="575" 
d="M283 888h33q10 0 17 -10l60 -104q3 -4 1.5 -7t-6.5 -3h-22q-9 0 -16 10l-72 104q-2 4 -0.5 7t5.5 3zM353 680h37q7 0 9 -10l103 -618q2 -6 7 -6h31q10 0 8 -10l-4 -26q-1 -10 -12 -10h-158q-10 0 -8 10l5 26q1 10 11 10h62q7 0 6 7l-25 154h-271l-81 -155q-3 -6 4 -6h61
q10 0 8 -10l-5 -26q-1 -10 -11 -10h-163q-10 0 -8 10l5 26q1 10 11 10h32q6 0 9 6l324 618q5 10 13 10zM359 600l-179 -343h237l-56 343h-2z" />
    <glyph glyph-name="Aacute" unicode="&#xc1;" horiz-adv-x="575" 
d="M481 888h36q5 0 6 -3t-3 -7l-107 -104q-10 -10 -19 -10h-24q-11 0 -2 11l94 103q10 10 19 10zM353 680h37q7 0 9 -10l103 -618q2 -6 7 -6h31q10 0 8 -10l-4 -26q-1 -10 -12 -10h-158q-10 0 -8 10l5 26q1 10 11 10h62q7 0 6 7l-25 154h-271l-81 -155q-3 -6 4 -6h61
q10 0 8 -10l-5 -26q-1 -10 -11 -10h-163q-10 0 -8 10l5 26q1 10 11 10h32q6 0 9 6l324 618q5 10 13 10zM359 600l-179 -343h237l-56 343h-2z" />
    <glyph glyph-name="Acircumflex" unicode="&#xc2;" horiz-adv-x="575" 
d="M399 896h20q9 0 13 -9l65 -122q6 -10 -4 -10h-19q-10 0 -16 9l-52 91h-2l-86 -91q-8 -9 -18 -9h-23q-4 0 -5 3t3 7l107 122q8 9 17 9zM353 680h37q7 0 9 -10l103 -618q2 -6 7 -6h31q10 0 8 -10l-4 -26q-1 -10 -12 -10h-158q-10 0 -8 10l5 26q1 10 11 10h62q7 0 6 7
l-25 154h-271l-81 -155q-3 -6 4 -6h61q10 0 8 -10l-5 -26q-1 -10 -11 -10h-163q-10 0 -8 10l5 26q1 10 11 10h32q6 0 9 6l324 618q5 10 13 10zM359 600l-179 -343h237l-56 343h-2z" />
    <glyph glyph-name="Atilde" unicode="&#xc3;" horiz-adv-x="575" 
d="M352 865q26 0 54 -21q25 -18 44 -18q27 0 62 33q3 3 6 2t2 -5l-5 -29q-1 -9 -10 -16q-29 -27 -64 -27q-27 0 -54 20q-23 18 -44 18q-28 0 -61 -33q-3 -3 -6 -1.5t-2 4.5l4 30q1 8 10 15q28 28 64 28zM353 680h37q7 0 9 -10l103 -618q2 -6 7 -6h31q10 0 8 -10l-4 -26
q-1 -10 -12 -10h-158q-10 0 -8 10l5 26q1 10 11 10h62q7 0 6 7l-25 154h-271l-81 -155q-3 -6 4 -6h61q10 0 8 -10l-5 -26q-1 -10 -11 -10h-163q-10 0 -8 10l5 26q1 10 11 10h32q6 0 9 6l324 618q5 10 13 10zM359 600l-179 -343h237l-56 343h-2z" />
    <glyph glyph-name="Adieresis" unicode="&#xc4;" horiz-adv-x="575" 
d="M289 861h37q10 0 8 -10l-9 -54q-2 -10 -11 -10h-37q-10 0 -8 10l9 54q2 10 11 10zM481 861h37q10 0 8 -10l-9 -54q-2 -10 -11 -10h-37q-10 0 -8 10l9 54q2 10 11 10zM353 680h37q7 0 9 -10l103 -618q2 -6 7 -6h31q10 0 8 -10l-4 -26q-1 -10 -12 -10h-158q-10 0 -8 10
l5 26q1 10 11 10h62q7 0 6 7l-25 154h-271l-81 -155q-3 -6 4 -6h61q10 0 8 -10l-5 -26q-1 -10 -11 -10h-163q-10 0 -8 10l5 26q1 10 11 10h32q6 0 9 6l324 618q5 10 13 10zM359 600l-179 -343h237l-56 343h-2z" />
    <glyph glyph-name="Aring" unicode="&#xc5;" horiz-adv-x="575" 
d="M412 913q31 0 51 -20t20 -51q0 -43 -28.5 -73t-72.5 -30q-31 0 -50.5 20t-19.5 51q0 43 28.5 73t71.5 30zM406 883q-26 0 -44.5 -20t-18.5 -48q0 -21 12 -33.5t33 -12.5q26 0 44.5 20t18.5 48q0 21 -12 33.5t-33 12.5zM353 680h37q7 0 9 -10l103 -618q2 -6 7 -6h31
q10 0 8 -10l-4 -26q-1 -10 -12 -10h-158q-10 0 -8 10l5 26q1 10 11 10h62q7 0 6 7l-25 154h-271l-81 -155q-3 -6 4 -6h61q10 0 8 -10l-5 -26q-1 -10 -11 -10h-163q-10 0 -8 10l5 26q1 10 11 10h32q6 0 9 6l324 618q5 10 13 10zM359 600l-179 -343h237l-56 343h-2z" />
    <glyph glyph-name="AE" unicode="&#xc6;" horiz-adv-x="911" 
d="M521 680h400q11 0 9 -10l-19 -111q-2 -10 -11 -10h-31q-10 0 -8 10l11 65q2 6 -5 6h-272q-5 0 -7 -6l-43 -247q-1 -7 6 -7h209q6 0 8 6l9 51q2 10 11 10h32q10 0 8 -10l-29 -165q-2 -10 -11 -10h-31q-11 0 -9 10l9 53q1 6 -5 6h-211q-5 0 -7 -6l-46 -259q-2 -6 5 -6h272
q5 0 7 6l12 67q2 10 11 10h31q10 0 8 -10l-20 -113q-1 -10 -12 -10h-366q-10 0 -8 10l30 172q2 6 -5 6h-261l-105 -136q-4 -6 4 -6h59q10 0 8 -10l-4 -26q-1 -10 -12 -10h-160q-10 0 -8 10l5 26q1 10 12 10h25q6 0 10 6l478 619q8 9 17 9zM534 628l-304 -391h231q5 0 7 6
l69 385h-3z" />
    <glyph glyph-name="Ccedilla" unicode="&#xc7;" horiz-adv-x="557" 
d="M375 690q61 0 108.5 -16t71.5 -37q7 -6 6 -15l-17 -101q-2 -10 -11 -10h-31q-10 0 -8 10l14 78q1 5 -3 8q-48 33 -131 33q-130 0 -189 -117q-25 -52 -46.5 -163.5t-21.5 -170.5q0 -149 163 -149q79 0 128 28q5 3 6 9l14 72q2 10 11 10h31q10 0 8 -10l-18 -101
q-1 -10 -10 -15q-71 -43 -184 -43l-64 -127q-5 -10 -17 -10h-27q-11 0 -6 10l73 130q-161 21 -161 190q0 63 22.5 183t49.5 174q38 78 95.5 114t143.5 36z" />
    <glyph glyph-name="Egrave" unicode="&#xc8;" horiz-adv-x="561" 
d="M298 888h33q10 0 17 -10l60 -104q3 -4 1.5 -7t-6.5 -3h-22q-9 0 -16 10l-72 104q-2 4 -0.5 7t5.5 3zM131 680h440q11 0 9 -10l-19 -111q-2 -10 -11 -10h-31q-10 0 -8 10l11 65q2 6 -5 6h-272q-5 0 -7 -6l-43 -247q-1 -7 6 -7h209q6 0 8 6l9 51q2 10 11 10h32q10 0 8 -10
l-29 -165q-2 -10 -11 -10h-31q-11 0 -9 10l9 53q1 6 -5 6h-211q-5 0 -7 -6l-46 -259q-2 -6 5 -6h272q5 0 7 6l12 67q2 10 11 10h31q10 0 8 -10l-20 -113q-1 -10 -12 -10h-440q-10 0 -8 10l5 26q1 10 11 10h57q7 0 8 6l101 576q2 6 -5 6h-58q-10 0 -8 10l5 26q1 10 11 10z
" />
    <glyph glyph-name="Eacute" unicode="&#xc9;" horiz-adv-x="561" 
d="M456 888h36q5 0 6 -3t-3 -7l-107 -104q-10 -10 -19 -10h-24q-11 0 -2 11l94 103q10 10 19 10zM131 680h440q11 0 9 -10l-19 -111q-2 -10 -11 -10h-31q-10 0 -8 10l11 65q2 6 -5 6h-272q-5 0 -7 -6l-43 -247q-1 -7 6 -7h209q6 0 8 6l9 51q2 10 11 10h32q10 0 8 -10
l-29 -165q-2 -10 -11 -10h-31q-11 0 -9 10l9 53q1 6 -5 6h-211q-5 0 -7 -6l-46 -259q-2 -6 5 -6h272q5 0 7 6l12 67q2 10 11 10h31q10 0 8 -10l-20 -113q-1 -10 -12 -10h-440q-10 0 -8 10l5 26q1 10 11 10h57q7 0 8 6l101 576q2 6 -5 6h-58q-10 0 -8 10l5 26q1 10 11 10z
" />
    <glyph glyph-name="Ecircumflex" unicode="&#xca;" horiz-adv-x="561" 
d="M394 896h20q8 0 13 -9l65 -122q6 -10 -4 -10h-19q-10 0 -16 9l-52 91h-2l-86 -91q-8 -9 -18 -9h-23q-4 0 -5 3t3 7l107 122q8 9 17 9zM131 680h440q11 0 9 -10l-19 -111q-2 -10 -11 -10h-31q-10 0 -8 10l11 65q2 6 -5 6h-272q-5 0 -7 -6l-43 -247q-1 -7 6 -7h209q6 0 8 6
l9 51q2 10 11 10h32q10 0 8 -10l-29 -165q-2 -10 -11 -10h-31q-11 0 -9 10l9 53q1 6 -5 6h-211q-5 0 -7 -6l-46 -259q-2 -6 5 -6h272q5 0 7 6l12 67q2 10 11 10h31q10 0 8 -10l-20 -113q-1 -10 -12 -10h-440q-10 0 -8 10l5 26q1 10 11 10h57q7 0 8 6l101 576q2 6 -5 6h-58
q-10 0 -8 10l5 26q1 10 11 10z" />
    <glyph glyph-name="Edieresis" unicode="&#xcb;" horiz-adv-x="561" 
d="M286 861h37q10 0 8 -10l-9 -54q-2 -10 -11 -10h-37q-10 0 -8 10l9 54q2 10 11 10zM478 861h37q10 0 8 -10l-9 -54q-2 -10 -11 -10h-37q-10 0 -8 10l9 54q2 10 11 10zM131 680h440q11 0 9 -10l-19 -111q-2 -10 -11 -10h-31q-10 0 -8 10l11 65q2 6 -5 6h-272q-5 0 -7 -6
l-43 -247q-1 -7 6 -7h209q6 0 8 6l9 51q2 10 11 10h32q10 0 8 -10l-29 -165q-2 -10 -11 -10h-31q-11 0 -9 10l9 53q1 6 -5 6h-211q-5 0 -7 -6l-46 -259q-2 -6 5 -6h272q5 0 7 6l12 67q2 10 11 10h31q10 0 8 -10l-20 -113q-1 -10 -12 -10h-440q-10 0 -8 10l5 26q1 10 11 10
h57q7 0 8 6l101 576q2 6 -5 6h-58q-10 0 -8 10l5 26q1 10 11 10z" />
    <glyph glyph-name="Igrave" unicode="&#xcc;" horiz-adv-x="280" 
d="M138 888h33q10 0 17 -10l60 -104q3 -4 1.5 -7t-6.5 -3h-22q-9 0 -16 10l-72 104q-2 4 -0.5 7t5.5 3zM131 680h180q10 0 8 -10l-5 -26q-1 -10 -12 -10h-56q-6 0 -8 -6l-101 -576q-1 -6 5 -6h58q10 0 8 -10l-5 -26q-1 -10 -12 -10h-179q-10 0 -8 10l5 26q1 10 11 10h57
q7 0 8 6l101 576q2 6 -5 6h-58q-10 0 -8 10l5 26q1 10 11 10z" />
    <glyph glyph-name="Iacute" unicode="&#xcd;" horiz-adv-x="280" 
d="M334 888h36q5 0 6 -3t-3 -7l-107 -104q-10 -10 -19 -10h-24q-11 0 -2 11l94 103q10 10 19 10zM131 680h180q10 0 8 -10l-5 -26q-1 -10 -12 -10h-56q-6 0 -8 -6l-101 -576q-1 -6 5 -6h58q10 0 8 -10l-5 -26q-1 -10 -12 -10h-179q-10 0 -8 10l5 26q1 10 11 10h57q7 0 8 6
l101 576q2 6 -5 6h-58q-10 0 -8 10l5 26q1 10 11 10z" />
    <glyph glyph-name="Icircumflex" unicode="&#xce;" horiz-adv-x="280" 
d="M250 896h20q8 0 13 -9l65 -122q6 -10 -4 -10h-19q-10 0 -16 9l-52 91h-2l-86 -91q-8 -9 -18 -9h-23q-4 0 -5 3t3 7l107 122q8 9 17 9zM131 680h180q10 0 8 -10l-5 -26q-1 -10 -12 -10h-56q-6 0 -8 -6l-101 -576q-1 -6 5 -6h58q10 0 8 -10l-5 -26q-1 -10 -12 -10h-179
q-10 0 -8 10l5 26q1 10 11 10h57q7 0 8 6l101 576q2 6 -5 6h-58q-10 0 -8 10l5 26q1 10 11 10z" />
    <glyph glyph-name="Idieresis" unicode="&#xcf;" horiz-adv-x="280" 
d="M143 861h37q10 0 8 -10l-9 -54q-2 -10 -11 -10h-37q-10 0 -8 10l9 54q2 10 11 10zM335 861h37q10 0 8 -10l-9 -54q-2 -10 -11 -10h-37q-10 0 -8 10l9 54q2 10 11 10zM131 680h180q10 0 8 -10l-5 -26q-1 -10 -12 -10h-56q-6 0 -8 -6l-101 -576q-1 -6 5 -6h58q10 0 8 -10
l-5 -26q-1 -10 -12 -10h-179q-10 0 -8 10l5 26q1 10 11 10h57q7 0 8 6l101 576q2 6 -5 6h-58q-10 0 -8 10l5 26q1 10 11 10z" />
    <glyph glyph-name="Eth" unicode="&#xd0;" horiz-adv-x="622" 
d="M131 680h275q184 0 184 -178q0 -70 -23 -191.5t-52 -179.5q-35 -70 -89.5 -100.5t-138.5 -30.5h-275q-10 0 -8 10l5 26q1 10 11 10h57q7 0 8 6l46 265q1 6 -4 6h-39q-10 0 -8 10l4 25q1 10 12 10h38q6 0 7 6l45 254q2 6 -5 6h-58q-10 0 -8 10l5 26q1 10 11 10zM389 630
h-144q-5 0 -7 -6l-44 -250q-2 -6 5 -6h125q10 0 8 -10l-4 -25q-2 -10 -12 -10h-125q-5 0 -7 -6l-46 -261q-2 -6 4 -6h144q131 0 184 106q24 50 46 162t22 175q0 70 -36.5 103.5t-112.5 33.5z" />
    <glyph glyph-name="Ntilde" unicode="&#xd1;" horiz-adv-x="668" 
d="M392 865q26 0 54 -21q25 -18 44 -18q27 0 62 33q3 3 6 2t2 -5l-5 -29q-1 -9 -10 -16q-29 -27 -64 -27q-27 0 -54 20q-23 18 -44 18q-28 0 -61 -33q-3 -3 -6 -1.5t-2 4.5l4 30q1 8 10 15q28 28 64 28zM521 680h178q10 0 8 -10l-5 -26q-1 -10 -12 -10h-57q-5 0 -7 -6
l-109 -618q-2 -10 -11 -10h-31q-10 0 -14 10l-230 570h-3l-93 -528q-1 -6 5 -6h58q10 0 8 -10l-5 -26q-1 -10 -11 -10h-178q-10 0 -8 10l5 26q1 10 11 10h57q7 0 8 6l101 576q2 6 -5 6h-58q-10 0 -8 10l5 26q1 10 11 10h104q10 0 14 -10l231 -568h3l93 526q2 6 -5 6h-58
q-10 0 -8 10l5 26q1 10 11 10z" />
    <glyph glyph-name="Ograve" unicode="&#xd2;" horiz-adv-x="586" 
d="M293 888h33q10 0 17 -10l60 -104q3 -4 1.5 -7t-6.5 -3h-22q-9 0 -16 10l-72 104q-2 4 -0.5 7t5.5 3zM374 690q88 0 137 -50.5t49 -142.5q0 -63 -22.5 -183t-49.5 -174q-74 -150 -237 -150q-88 0 -137 50.5t-49 142.5q0 63 22.5 183t49.5 174q74 150 237 150zM366 639
q-123 0 -180 -116q-25 -52 -46.5 -163.5t-21.5 -170.5q0 -71 36 -109.5t105 -38.5q123 0 180 116q25 52 46.5 163.5t21.5 170.5q0 71 -36.5 109.5t-104.5 38.5z" />
    <glyph glyph-name="Oacute" unicode="&#xd3;" horiz-adv-x="586" 
d="M488 888h36q5 0 6 -3t-3 -7l-107 -104q-10 -10 -19 -10h-24q-11 0 -2 11l94 103q10 10 19 10zM374 690q88 0 137 -50.5t49 -142.5q0 -63 -22.5 -183t-49.5 -174q-74 -150 -237 -150q-88 0 -137 50.5t-49 142.5q0 63 22.5 183t49.5 174q74 150 237 150zM366 639
q-123 0 -180 -116q-25 -52 -46.5 -163.5t-21.5 -170.5q0 -71 36 -109.5t105 -38.5q123 0 180 116q25 52 46.5 163.5t21.5 170.5q0 71 -36.5 109.5t-104.5 38.5z" />
    <glyph glyph-name="Ocircumflex" unicode="&#xd4;" horiz-adv-x="586" 
d="M403 896h20q9 0 13 -9l65 -122q6 -10 -4 -10h-19q-10 0 -16 9l-52 91h-2l-86 -91q-8 -9 -18 -9h-23q-4 0 -5 3t3 7l107 122q8 9 17 9zM374 690q88 0 137 -50.5t49 -142.5q0 -63 -22.5 -183t-49.5 -174q-74 -150 -237 -150q-88 0 -137 50.5t-49 142.5q0 63 22.5 183
t49.5 174q74 150 237 150zM366 639q-123 0 -180 -116q-25 -52 -46.5 -163.5t-21.5 -170.5q0 -71 36 -109.5t105 -38.5q123 0 180 116q25 52 46.5 163.5t21.5 170.5q0 71 -36.5 109.5t-104.5 38.5z" />
    <glyph glyph-name="Otilde" unicode="&#xd5;" horiz-adv-x="586" 
d="M355 865q26 0 54 -21q25 -18 44 -18q27 0 62 33q3 3 6 2t2 -5l-5 -29q-1 -9 -10 -16q-29 -27 -64 -27q-27 0 -54 20q-23 18 -44 18q-28 0 -61 -33q-3 -3 -6 -1.5t-2 4.5l4 30q1 8 10 15q28 28 64 28zM374 690q88 0 137 -50.5t49 -142.5q0 -63 -22.5 -183t-49.5 -174
q-74 -150 -237 -150q-88 0 -137 50.5t-49 142.5q0 63 22.5 183t49.5 174q74 150 237 150zM366 639q-123 0 -180 -116q-25 -52 -46.5 -163.5t-21.5 -170.5q0 -71 36 -109.5t105 -38.5q123 0 180 116q25 52 46.5 163.5t21.5 170.5q0 71 -36.5 109.5t-104.5 38.5z" />
    <glyph glyph-name="Odieresis" unicode="&#xd6;" horiz-adv-x="586" 
d="M291 861h37q10 0 8 -10l-9 -54q-2 -10 -11 -10h-37q-10 0 -8 10l9 54q2 10 11 10zM483 861h37q10 0 8 -10l-9 -54q-2 -10 -11 -10h-37q-10 0 -8 10l9 54q2 10 11 10zM374 690q88 0 137 -50.5t49 -142.5q0 -63 -22.5 -183t-49.5 -174q-74 -150 -237 -150q-88 0 -137 50.5
t-49 142.5q0 63 22.5 183t49.5 174q74 150 237 150zM366 639q-123 0 -180 -116q-25 -52 -46.5 -163.5t-21.5 -170.5q0 -71 36 -109.5t105 -38.5q123 0 180 116q25 52 46.5 163.5t21.5 170.5q0 71 -36.5 109.5t-104.5 38.5z" />
    <glyph glyph-name="multiply" unicode="&#xd7;" 
d="M416 441l17 -20q7 -7 0 -14l-128 -127q-4 -4 0 -8l128 -127q7 -7 0 -14l-17 -20q-7 -7 -14 0l-129 127q-4 4 -8 0l-128 -127q-7 -7 -14 0l-18 20q-7 7 0 14l129 127q4 4 0 8l-129 127q-7 7 0 14l18 20q7 7 14 0l128 -127q4 -4 8 0l129 127q7 7 14 0z" />
    <glyph glyph-name="Oslash" unicode="&#xd8;" horiz-adv-x="586" 
d="M569 710h22q11 0 4 -10l-64 -88q29 -46 29 -115q0 -63 -22.5 -183t-49.5 -174q-74 -150 -237 -150q-87 0 -135 48l-42 -58q-7 -10 -16 -10h-22q-10 0 -3 10l61 86q-29 46 -29 117q0 63 22.5 183t49.5 174q74 150 237 150q86 0 136 -50l43 60q7 10 16 10zM366 640
q-122 0 -180 -117q-26 -51 -47 -162.5t-21 -171.5q0 -44 13 -74l345 478q-38 47 -110 47zM495 562l-346 -478q36 -44 110 -44q122 0 180 117q26 52 47 163t21 171q0 41 -12 71z" />
    <glyph glyph-name="Ugrave" unicode="&#xd9;" horiz-adv-x="634" 
d="M324 888h33q10 0 17 -10l60 -104q3 -4 1.5 -7t-6.5 -3h-22q-9 0 -16 10l-72 104q-2 4 -0.5 7t5.5 3zM501 680h179q10 0 8 -10l-5 -26q-1 -10 -12 -10h-57q-6 0 -7 -6l-70 -397q-23 -129 -82.5 -185t-166.5 -56q-92 0 -142 46.5t-50 134.5q0 31 9 83l66 374q1 6 -5 6h-58
q-10 0 -8 10l5 26q1 10 11 10h180q10 0 8 -10l-5 -26q-1 -10 -12 -10h-57q-6 0 -7 -6l-66 -379q-8 -43 -8 -72q0 -137 143 -137q83 0 129.5 44.5t64.5 149.5l69 394q1 6 -5 6h-58q-10 0 -8 10l5 26q1 10 12 10z" />
    <glyph glyph-name="Uacute" unicode="&#xda;" horiz-adv-x="634" 
d="M495 888h36q5 0 6 -3t-3 -7l-107 -104q-10 -10 -19 -10h-24q-11 0 -2 11l94 103q10 10 19 10zM501 680h179q10 0 8 -10l-5 -26q-1 -10 -12 -10h-57q-6 0 -7 -6l-70 -397q-23 -129 -82.5 -185t-166.5 -56q-92 0 -142 46.5t-50 134.5q0 31 9 83l66 374q1 6 -5 6h-58
q-10 0 -8 10l5 26q1 10 11 10h180q10 0 8 -10l-5 -26q-1 -10 -12 -10h-57q-6 0 -7 -6l-66 -379q-8 -43 -8 -72q0 -137 143 -137q83 0 129.5 44.5t64.5 149.5l69 394q1 6 -5 6h-58q-10 0 -8 10l5 26q1 10 12 10z" />
    <glyph glyph-name="Ucircumflex" unicode="&#xdb;" horiz-adv-x="634" 
d="M431 896h20q9 0 13 -9l65 -122q6 -10 -4 -10h-19q-10 0 -16 9l-52 91h-2l-86 -91q-8 -9 -18 -9h-23q-4 0 -5 3t3 7l107 122q8 9 17 9zM501 680h179q10 0 8 -10l-5 -26q-1 -10 -12 -10h-57q-6 0 -7 -6l-70 -397q-23 -129 -82.5 -185t-166.5 -56q-92 0 -142 46.5t-50 134.5
q0 31 9 83l66 374q1 6 -5 6h-58q-10 0 -8 10l5 26q1 10 11 10h180q10 0 8 -10l-5 -26q-1 -10 -12 -10h-57q-6 0 -7 -6l-66 -379q-8 -43 -8 -72q0 -137 143 -137q83 0 129.5 44.5t64.5 149.5l69 394q1 6 -5 6h-58q-10 0 -8 10l5 26q1 10 12 10z" />
    <glyph glyph-name="Udieresis" unicode="&#xdc;" horiz-adv-x="634" 
d="M321 861h37q10 0 8 -10l-9 -54q-2 -10 -11 -10h-37q-10 0 -8 10l9 54q2 10 11 10zM513 861h37q10 0 8 -10l-9 -54q-2 -10 -11 -10h-37q-10 0 -8 10l9 54q2 10 11 10zM501 680h179q10 0 8 -10l-5 -26q-1 -10 -12 -10h-57q-6 0 -7 -6l-70 -397q-23 -129 -82.5 -185
t-166.5 -56q-92 0 -142 46.5t-50 134.5q0 31 9 83l66 374q1 6 -5 6h-58q-10 0 -8 10l5 26q1 10 11 10h180q10 0 8 -10l-5 -26q-1 -10 -12 -10h-57q-6 0 -7 -6l-66 -379q-8 -43 -8 -72q0 -137 143 -137q83 0 129.5 44.5t64.5 149.5l69 394q1 6 -5 6h-58q-10 0 -8 10l5 26
q1 10 12 10z" />
    <glyph glyph-name="Yacute" unicode="&#xdd;" horiz-adv-x="532" 
d="M455 888h36q5 0 6 -3t-3 -7l-107 -104q-10 -10 -19 -10h-24q-11 0 -2 11l94 103q10 10 19 10zM437 680h164q10 0 8 -10l-5 -26q-1 -10 -12 -10h-31q-7 0 -11 -6l-245 -349l-40 -226q-1 -6 5 -6h61q10 0 8 -10l-5 -27q-1 -10 -12 -10h-185q-10 0 -8 10l5 27q1 10 11 10h60
q7 0 8 6l39 226l-120 348q-3 7 -9 7h-35q-10 0 -8 10l5 26q1 10 12 10h164q10 0 8 -10l-5 -26q-1 -10 -12 -10h-62q-7 0 -5 -7l101 -289h2l205 289q5 7 -3 7h-62q-10 0 -8 10l5 26q1 10 12 10z" />
    <glyph glyph-name="Thorn" unicode="&#xde;" horiz-adv-x="575" 
d="M131 680h180q10 0 8 -10l-5 -26q-1 -10 -12 -10h-56q-6 0 -8 -6l-15 -87q-1 -7 4 -7h162q82 0 126.5 -39t44.5 -109q0 -109 -65.5 -170.5t-171.5 -61.5h-162q-5 0 -7 -6l-17 -95q-1 -7 5 -7h58q10 0 8 -10l-5 -26q-1 -10 -12 -10h-179q-10 0 -8 10l5 26q1 10 11 10h57
q7 0 8 6l101 576q2 6 -5 6h-58q-10 0 -8 10l5 26q1 10 11 10zM379 484h-160q-5 0 -7 -6l-47 -268q-1 -6 5 -6h156q83 0 132.5 46.5t49.5 127.5q0 106 -129 106z" />
    <glyph glyph-name="germandbls" unicode="&#xdf;" horiz-adv-x="543" 
d="M370 690q74 0 112 -30.5t38 -84.5q0 -52 -23.5 -92t-70.5 -56v-2q56 -24 56 -94q0 -41 -15.5 -124t-31.5 -116q-25 -50 -66.5 -71t-106.5 -21h-13q-10 0 -8 10l4 28q2 10 11 10h14q90 0 121 65q12 25 26 101.5t14 106.5q0 43 -24 62.5t-76 19.5h-11q-10 0 -8 10l5 28
q2 10 12 10h16q59 0 91.5 31t32.5 86q0 76 -106 76q-70 0 -107.5 -34t-50.5 -112l-78 -445q-1 -6 5 -6h53q10 0 8 -10l-5 -26q-1 -10 -12 -10h-169q-10 0 -8 10l5 26q1 10 12 10h53q5 0 7 6l78 445q17 97 68.5 145t147.5 48z" />
    <glyph glyph-name="agrave" unicode="&#xe0;" horiz-adv-x="497" 
d="M218 700h31q9 0 13 -10l53 -122q5 -10 -7 -10h-20q-10 0 -15 10l-62 122q-2 4 0 7t7 3zM273 487q74 0 108.5 -25t34.5 -81q0 -19 -5 -51l-50 -278q-1 -6 4 -6h54q10 0 8 -10l-5 -26q-1 -10 -11 -10h-98q-10 0 -8 10l9 50h-1q-44 -70 -152 -70q-61 0 -95.5 31.5
t-34.5 85.5q0 80 51 121.5t148 41.5h114q6 0 7 6q15 70 15 95q0 38 -23 54t-79 16q-60 0 -97 -18q-5 -2 -6 -8l-10 -56q-2 -10 -11 -10h-30q-11 0 -9 10l15 85q1 7 7 10q66 33 150 33zM337 227h-105q-151 0 -151 -114q0 -37 24.5 -57.5t72.5 -20.5q59 0 100.5 31t49.5 81
l13 74q1 6 -4 6z" />
    <glyph glyph-name="aacute" unicode="&#xe1;" horiz-adv-x="497" 
d="M378 700h34q4 0 5.5 -3t-1.5 -7l-106 -122q-10 -10 -18 -10h-22q-11 0 -3 10l92 122q8 10 19 10zM273 487q74 0 108.5 -25t34.5 -81q0 -19 -5 -51l-50 -278q-1 -6 4 -6h54q10 0 8 -10l-5 -26q-1 -10 -11 -10h-98q-10 0 -8 10l9 50h-1q-44 -70 -152 -70q-61 0 -95.5 31.5
t-34.5 85.5q0 80 51 121.5t148 41.5h114q6 0 7 6q15 70 15 95q0 38 -23 54t-79 16q-60 0 -97 -18q-5 -2 -6 -8l-10 -56q-2 -10 -11 -10h-30q-11 0 -9 10l15 85q1 7 7 10q66 33 150 33zM337 227h-105q-151 0 -151 -114q0 -37 24.5 -57.5t72.5 -20.5q59 0 100.5 31t49.5 81
l13 74q1 6 -4 6z" />
    <glyph glyph-name="acircumflex" unicode="&#xe2;" horiz-adv-x="497" 
d="M312 700h20q8 0 13 -9l65 -122q6 -10 -4 -10h-20q-9 0 -15 9l-52 91h-2l-86 -91q-9 -9 -19 -9h-22q-4 0 -5 3t3 7l107 122q8 9 17 9zM273 487q74 0 108.5 -25t34.5 -81q0 -19 -5 -51l-50 -278q-1 -6 4 -6h54q10 0 8 -10l-5 -26q-1 -10 -11 -10h-98q-10 0 -8 10l9 50h-1
q-44 -70 -152 -70q-61 0 -95.5 31.5t-34.5 85.5q0 80 51 121.5t148 41.5h114q6 0 7 6q15 70 15 95q0 38 -23 54t-79 16q-60 0 -97 -18q-5 -2 -6 -8l-10 -56q-2 -10 -11 -10h-30q-11 0 -9 10l15 85q1 7 7 10q66 33 150 33zM337 227h-105q-151 0 -151 -114q0 -37 24.5 -57.5
t72.5 -20.5q59 0 100.5 31t49.5 81l13 74q1 6 -4 6z" />
    <glyph glyph-name="atilde" unicode="&#xe3;" horiz-adv-x="497" 
d="M267 679q27 0 54 -20q23 -18 44 -18q28 0 61 33q3 3 6 1.5t2 -4.5l-4 -30q-3 -9 -10 -15q-30 -28 -64 -28q-26 0 -54 21q-27 18 -44 18q-27 0 -62 -33q-3 -3 -6 -2t-2 5l5 29q1 8 9 16q30 27 65 27zM273 487q74 0 108.5 -25t34.5 -81q0 -19 -5 -51l-50 -278q-1 -6 4 -6
h54q10 0 8 -10l-5 -26q-1 -10 -11 -10h-98q-10 0 -8 10l9 50h-1q-44 -70 -152 -70q-61 0 -95.5 31.5t-34.5 85.5q0 80 51 121.5t148 41.5h114q6 0 7 6q15 70 15 95q0 38 -23 54t-79 16q-60 0 -97 -18q-5 -2 -6 -8l-10 -56q-2 -10 -11 -10h-30q-11 0 -9 10l15 85q1 7 7 10
q66 33 150 33zM337 227h-105q-151 0 -151 -114q0 -37 24.5 -57.5t72.5 -20.5q59 0 100.5 31t49.5 81l13 74q1 6 -4 6z" />
    <glyph glyph-name="adieresis" unicode="&#xe4;" horiz-adv-x="497" 
d="M205 680h37q10 0 8 -10l-9 -53q-2 -10 -11 -10h-37q-10 0 -8 10l9 53q2 10 11 10zM397 680h37q10 0 8 -10l-9 -53q-2 -10 -11 -10h-37q-10 0 -8 10l9 53q2 10 11 10zM273 487q74 0 108.5 -25t34.5 -81q0 -19 -5 -51l-50 -278q-1 -6 4 -6h54q10 0 8 -10l-5 -26
q-1 -10 -11 -10h-98q-10 0 -8 10l9 50h-1q-44 -70 -152 -70q-61 0 -95.5 31.5t-34.5 85.5q0 80 51 121.5t148 41.5h114q6 0 7 6q15 70 15 95q0 38 -23 54t-79 16q-60 0 -97 -18q-5 -2 -6 -8l-10 -56q-2 -10 -11 -10h-30q-11 0 -9 10l15 85q1 7 7 10q66 33 150 33zM337 227
h-105q-151 0 -151 -114q0 -37 24.5 -57.5t72.5 -20.5q59 0 100.5 31t49.5 81l13 74q1 6 -4 6z" />
    <glyph glyph-name="aring" unicode="&#xe5;" horiz-adv-x="497" 
d="M325 716q31 0 50.5 -20t19.5 -51q0 -43 -28.5 -73t-72.5 -30q-31 0 -50.5 20t-19.5 51q0 43 28.5 73t72.5 30zM319 686q-26 0 -44.5 -20t-18.5 -48q0 -21 11.5 -33.5t32.5 -12.5q26 0 45 20t19 48q0 21 -12 33.5t-33 12.5zM273 487q74 0 108.5 -25t34.5 -81q0 -19 -5 -51
l-50 -278q-1 -6 4 -6h54q10 0 8 -10l-5 -26q-1 -10 -11 -10h-98q-10 0 -8 10l9 50h-1q-44 -70 -152 -70q-61 0 -95.5 31.5t-34.5 85.5q0 80 51 121.5t148 41.5h114q6 0 7 6q15 70 15 95q0 38 -23 54t-79 16q-60 0 -97 -18q-5 -2 -6 -8l-10 -56q-2 -10 -11 -10h-30
q-11 0 -9 10l15 85q1 7 7 10q66 33 150 33zM337 227h-105q-151 0 -151 -114q0 -37 24.5 -57.5t72.5 -20.5q59 0 100.5 31t49.5 81l13 74q1 6 -4 6z" />
    <glyph glyph-name="ae" unicode="&#xe6;" horiz-adv-x="762" 
d="M572 487q67 0 108 -41t41 -116q0 -38 -10 -93q-2 -10 -12 -10h-297q-6 0 -8 -6q-7 -30 -7 -66q0 -117 112 -117q83 0 142 64q8 8 15 1l16 -18q6 -8 -1 -15q-71 -80 -178 -80q-116 0 -144 93h-1q-55 -93 -184 -93q-63 0 -98 31t-35 86q0 80 51 121.5t148 41.5h118q6 0 7 6
q1 5 3.5 20t5 27.5t2.5 13.5q8 58 -12.5 81t-87.5 23q-56 0 -97 -18q-5 -2 -6 -7l-10 -57q-2 -10 -11 -10h-31q-10 0 -8 10l14 85q1 7 7 10q66 33 151 33q125 0 136 -83h1q58 83 160 83zM567 440q-46 0 -83 -24t-59 -68q-12 -23 -21 -72q-2 -6 5 -6h251q6 0 7 6q6 27 6 51
q0 113 -106 113zM341 227h-109q-151 0 -151 -114q0 -37 25 -57.5t73 -20.5q60 0 102.5 31t50.5 81l13 74q1 6 -4 6z" />
    <glyph glyph-name="ccedilla" unicode="&#xe7;" horiz-adv-x="465" 
d="M290 487q91 0 139 -44q5 -4 4 -13l-14 -83q-2 -10 -10 -10h-30q-10 0 -8 10l10 58q1 7 -3 10q-29 24 -93 24q-98 0 -143 -92q-17 -35 -29 -92.5t-12 -93.5q0 -124 122 -124q50 0 90 19q7 3 8 10l10 61q2 10 11 10h29q11 0 9 -10l-16 -89q-1 -9 -8 -13q-57 -35 -143 -35
l-64 -127q-5 -10 -17 -10h-27q-11 0 -6 10l73 131q-122 20 -122 158q0 44 13.5 110.5t33.5 106.5q57 118 193 118z" />
    <glyph glyph-name="egrave" unicode="&#xe8;" horiz-adv-x="474" 
d="M214 700h31q9 0 13 -10l53 -122q5 -10 -7 -10h-20q-10 0 -15 10l-62 122q-2 4 0 7t7 3zM285 487q67 0 107.5 -41t40.5 -116q0 -38 -10 -93q-2 -10 -12 -10h-299q-6 0 -7 -6q-6 -26 -6 -66q0 -117 113 -117q81 0 141 64q8 8 15 1l16 -18q7 -7 -1 -15q-71 -80 -178 -80
q-75 0 -115 41.5t-40 117.5q0 127 44 215q59 123 191 123zM279 440q-95 0 -139 -90q-16 -32 -24 -74q-2 -6 4 -6h252q6 0 7 6q6 27 6 51q0 113 -106 113z" />
    <glyph glyph-name="eacute" unicode="&#xe9;" horiz-adv-x="474" 
d="M382 700h34q4 0 5.5 -3t-1.5 -7l-106 -122q-10 -10 -18 -10h-22q-11 0 -3 10l92 122q8 10 19 10zM285 487q67 0 107.5 -41t40.5 -116q0 -38 -10 -93q-2 -10 -12 -10h-299q-6 0 -7 -6q-6 -26 -6 -66q0 -117 113 -117q81 0 141 64q8 8 15 1l16 -18q7 -7 -1 -15
q-71 -80 -178 -80q-75 0 -115 41.5t-40 117.5q0 127 44 215q59 123 191 123zM279 440q-95 0 -139 -90q-16 -32 -24 -74q-2 -6 4 -6h252q6 0 7 6q6 27 6 51q0 113 -106 113z" />
    <glyph glyph-name="ecircumflex" unicode="&#xea;" horiz-adv-x="474" 
d="M308 700h20q8 0 13 -9l65 -122q6 -10 -4 -10h-20q-9 0 -15 9l-52 91h-2l-86 -91q-9 -9 -19 -9h-22q-4 0 -5 3t3 7l107 122q8 9 17 9zM285 487q67 0 107.5 -41t40.5 -116q0 -38 -10 -93q-2 -10 -12 -10h-299q-6 0 -7 -6q-6 -26 -6 -66q0 -117 113 -117q81 0 141 64
q8 8 15 1l16 -18q7 -7 -1 -15q-71 -80 -178 -80q-75 0 -115 41.5t-40 117.5q0 127 44 215q59 123 191 123zM279 440q-95 0 -139 -90q-16 -32 -24 -74q-2 -6 4 -6h252q6 0 7 6q6 27 6 51q0 113 -106 113z" />
    <glyph glyph-name="edieresis" unicode="&#xeb;" horiz-adv-x="474" 
d="M203 680h37q10 0 8 -10l-9 -53q-2 -10 -11 -10h-37q-10 0 -8 10l9 53q2 10 11 10zM395 680h37q10 0 8 -10l-9 -53q-2 -10 -11 -10h-37q-10 0 -8 10l9 53q2 10 11 10zM285 487q67 0 107.5 -41t40.5 -116q0 -38 -10 -93q-2 -10 -12 -10h-299q-6 0 -7 -6q-6 -26 -6 -66
q0 -117 113 -117q81 0 141 64q8 8 15 1l16 -18q7 -7 -1 -15q-71 -80 -178 -80q-75 0 -115 41.5t-40 117.5q0 127 44 215q59 123 191 123zM279 440q-95 0 -139 -90q-16 -32 -24 -74q-2 -6 4 -6h252q6 0 7 6q6 27 6 51q0 113 -106 113z" />
    <glyph glyph-name="igrave" unicode="&#xec;" horiz-adv-x="274" 
d="M113 700h31q9 0 13 -10l53 -122q5 -10 -7 -10h-20q-10 0 -15 10l-62 122q-2 4 0 7t7 3zM100 477h101q10 0 8 -10l-73 -415q-2 -6 5 -6h55q10 0 8 -10l-5 -26q-1 -10 -12 -10h-171q-10 0 -8 10l5 26q1 10 12 10h53q6 0 7 6l66 372q1 7 -5 7h-55q-10 0 -8 10l5 26
q2 10 12 10z" />
    <glyph glyph-name="iacute" unicode="&#xed;" horiz-adv-x="274" 
d="M281 700h34q5 0 6 -3t-2 -7l-106 -122q-10 -10 -18 -10h-22q-11 0 -3 10l92 122q8 10 19 10zM100 477h101q10 0 8 -10l-73 -415q-2 -6 5 -6h55q10 0 8 -10l-5 -26q-1 -10 -12 -10h-171q-10 0 -8 10l5 26q1 10 12 10h53q6 0 7 6l66 372q1 7 -5 7h-55q-10 0 -8 10l5 26
q2 10 12 10z" />
    <glyph glyph-name="icircumflex" unicode="&#xee;" horiz-adv-x="274" 
d="M204 700h20q8 0 13 -9l65 -122q6 -10 -4 -10h-20q-9 0 -15 9l-52 91h-2l-86 -91q-9 -9 -19 -9h-22q-4 0 -5 3t3 7l107 122q8 9 17 9zM100 477h101q10 0 8 -10l-73 -415q-2 -6 5 -6h55q10 0 8 -10l-5 -26q-1 -10 -12 -10h-171q-10 0 -8 10l5 26q1 10 12 10h53q6 0 7 6
l66 372q1 7 -5 7h-55q-10 0 -8 10l5 26q2 10 12 10z" />
    <glyph glyph-name="idieresis" unicode="&#xef;" horiz-adv-x="274" 
d="M97 680h37q10 0 8 -10l-9 -53q-2 -10 -11 -10h-37q-10 0 -8 10l9 53q2 10 11 10zM289 680h37q10 0 8 -10l-9 -53q-2 -10 -11 -10h-37q-10 0 -8 10l9 53q2 10 11 10zM100 477h101q10 0 8 -10l-73 -415q-2 -6 5 -6h55q10 0 8 -10l-5 -26q-1 -10 -12 -10h-171q-10 0 -8 10
l5 26q1 10 12 10h53q6 0 7 6l66 372q1 7 -5 7h-55q-10 0 -8 10l5 26q2 10 12 10z" />
    <glyph glyph-name="eth" unicode="&#xf0;" horiz-adv-x="486" 
d="M234 680h35q9 0 16 -10l36 -62l97 28q10 3 12 -6l2 -21q0 -10 -9 -13l-81 -24l41 -69q58 -97 58 -184q0 -49 -13.5 -111t-31.5 -100q-58 -118 -191 -118q-76 0 -114.5 43t-38.5 120q0 50 13.5 108.5t31.5 96.5q56 118 179 118q47 0 80 -24h1l-62 106l-99 -29
q-11 -4 -11 6l-2 22q0 9 9 12l82 24l-45 77q-2 4 -0.5 7t5.5 3zM281 429q-93 0 -139 -91q-14 -30 -26.5 -83.5t-12.5 -94.5q0 -122 110 -122q94 0 138 91q14 28 26.5 82t12.5 96q0 122 -109 122z" />
    <glyph glyph-name="ntilde" unicode="&#xf1;" horiz-adv-x="562" 
d="M303 679q27 0 54 -20q23 -18 44 -18q28 0 61 33q3 3 6 1.5t2 -4.5l-4 -30q-3 -9 -10 -15q-30 -28 -64 -28q-26 0 -54 21q-27 18 -44 18q-27 0 -62 -33q-3 -3 -6 -2t-2 5l5 29q1 8 9 16q30 27 65 27zM347 487q65 0 98.5 -34.5t33.5 -98.5q0 -24 -9 -74l-41 -228
q-1 -6 5 -6h53q10 0 8 -10l-4 -26q-1 -10 -12 -10h-170q-10 0 -8 10l5 26q1 10 11 10h54q7 0 8 6l41 228q7 44 7 61q0 98 -98 98q-51 0 -94.5 -37.5t-54.5 -97.5l-44 -252q-2 -6 5 -6h55q10 0 8 -10l-5 -26q-1 -10 -12 -10h-171q-10 0 -8 10l5 26q1 10 12 10h53q6 0 7 6
l66 372q1 7 -5 7h-55q-10 0 -8 10l5 26q2 10 12 10h101q10 0 8 -10l-10 -56h1q52 76 147 76z" />
    <glyph glyph-name="ograve" unicode="&#xf2;" horiz-adv-x="486" 
d="M222 700h31q9 0 13 -10l53 -122q5 -10 -7 -10h-20q-10 0 -15 10l-62 122q-2 4 0 7t7 3zM288 487q74 0 113.5 -43t39.5 -118q0 -51 -14.5 -116t-32.5 -102q-56 -118 -191 -118q-74 0 -113.5 43t-39.5 118q0 51 14.5 116t32.5 102q56 118 191 118zM280 439q-93 0 -138 -91
q-14 -28 -27.5 -87.5t-13.5 -99.5q0 -123 110 -123q93 0 138 91q14 28 27.5 87.5t13.5 99.5q0 123 -110 123z" />
    <glyph glyph-name="oacute" unicode="&#xf3;" horiz-adv-x="486" 
d="M387 700h34q5 0 6 -3t-2 -7l-106 -122q-10 -10 -18 -10h-22q-11 0 -3 10l92 122q8 10 19 10zM288 487q74 0 113.5 -43t39.5 -118q0 -51 -14.5 -116t-32.5 -102q-56 -118 -191 -118q-74 0 -113.5 43t-39.5 118q0 51 14.5 116t32.5 102q56 118 191 118zM280 439
q-93 0 -138 -91q-14 -28 -27.5 -87.5t-13.5 -99.5q0 -123 110 -123q93 0 138 91q14 28 27.5 87.5t13.5 99.5q0 123 -110 123z" />
    <glyph glyph-name="ocircumflex" unicode="&#xf4;" horiz-adv-x="486" 
d="M318 700h20q8 0 13 -9l65 -122q6 -10 -4 -10h-20q-9 0 -15 9l-52 91h-2l-86 -91q-9 -9 -19 -9h-22q-4 0 -5 3t3 7l107 122q8 9 17 9zM288 487q74 0 113.5 -43t39.5 -118q0 -51 -14.5 -116t-32.5 -102q-56 -118 -191 -118q-74 0 -113.5 43t-39.5 118q0 51 14.5 116
t32.5 102q56 118 191 118zM280 439q-93 0 -138 -91q-14 -28 -27.5 -87.5t-13.5 -99.5q0 -123 110 -123q93 0 138 91q14 28 27.5 87.5t13.5 99.5q0 123 -110 123z" />
    <glyph glyph-name="otilde" unicode="&#xf5;" horiz-adv-x="486" 
d="M274 679q27 0 54 -20q23 -18 44 -18q28 0 61 33q3 3 6 1.5t2 -4.5l-4 -30q-3 -9 -10 -15q-30 -28 -64 -28q-26 0 -54 21q-27 18 -44 18q-27 0 -62 -33q-3 -3 -6 -2t-2 5l5 29q1 8 9 16q30 27 65 27zM288 487q74 0 113.5 -43t39.5 -118q0 -51 -14.5 -116t-32.5 -102
q-56 -118 -191 -118q-74 0 -113.5 43t-39.5 118q0 51 14.5 116t32.5 102q56 118 191 118zM280 439q-93 0 -138 -91q-14 -28 -27.5 -87.5t-13.5 -99.5q0 -123 110 -123q93 0 138 91q14 28 27.5 87.5t13.5 99.5q0 123 -110 123z" />
    <glyph glyph-name="odieresis" unicode="&#xf6;" horiz-adv-x="486" 
d="M210 680h37q10 0 8 -10l-9 -53q-2 -10 -11 -10h-37q-10 0 -8 10l9 53q2 10 11 10zM402 680h37q10 0 8 -10l-9 -53q-2 -10 -11 -10h-37q-10 0 -8 10l9 53q2 10 11 10zM288 487q74 0 113.5 -43t39.5 -118q0 -51 -14.5 -116t-32.5 -102q-56 -118 -191 -118q-74 0 -113.5 43
t-39.5 118q0 51 14.5 116t32.5 102q56 118 191 118zM280 439q-93 0 -138 -91q-14 -28 -27.5 -87.5t-13.5 -99.5q0 -123 110 -123q93 0 138 91q14 28 27.5 87.5t13.5 99.5q0 123 -110 123z" />
    <glyph glyph-name="divide" unicode="&#xf7;" 
d="M261 463q17 0 29 -12.5t12 -30.5t-12 -30.5t-29 -12.5q-18 0 -30 12.5t-12 30.5t12 30.5t30 12.5zM73 300h376q10 0 10 -10v-27q0 -10 -10 -10h-376q-10 0 -10 10v27q0 10 10 10zM261 174q17 0 29 -12.5t12 -30.5t-12 -30.5t-29 -12.5q-18 0 -30 12.5t-12 30.5t12 30.5
t30 12.5z" />
    <glyph glyph-name="oslash" unicode="&#xf8;" horiz-adv-x="486" 
d="M456 506h15q10 0 4 -10l-58 -71q25 -41 25 -99q0 -51 -14.5 -116t-32.5 -102q-56 -118 -191 -118q-70 0 -111 39l-40 -49q-7 -10 -17 -10h-15q-11 0 -3 10l57 71q-24 39 -24 99q0 51 14.5 116t32.5 103q58 118 191 118q71 0 110 -39l40 48q8 10 17 10zM281 439
q-93 0 -139 -92q-14 -29 -27 -88t-13 -99q0 -38 10 -64l253 311q-27 32 -84 32zM380 381l-253 -312q27 -32 85 -32q92 0 139 92q14 28 27 87.5t13 99.5q0 37 -11 65z" />
    <glyph glyph-name="ugrave" unicode="&#xf9;" horiz-adv-x="536" 
d="M234 700h31q9 0 13 -10l53 -122q5 -10 -7 -10h-20q-10 0 -15 10l-62 122q-2 4 0 7t7 3zM359 477h101q10 0 8 -10l-73 -415q-1 -6 5 -6h55q10 0 8 -10l-5 -26q-1 -10 -12 -10h-101q-10 0 -8 10l10 55h-1q-53 -75 -145 -75q-64 0 -97 33.5t-33 96.5q0 21 5 51l45 253
q1 7 -5 7h-54q-10 0 -8 10l5 26q2 10 12 10h100q10 0 8 -10l-51 -283q-5 -30 -5 -51q0 -95 96 -95q51 0 93.5 37t52.5 97l45 252q1 7 -5 7h-54q-10 0 -8 10l5 26q2 10 11 10z" />
    <glyph glyph-name="uacute" unicode="&#xfa;" horiz-adv-x="536" 
d="M382 700h34q4 0 5.5 -3t-1.5 -7l-106 -122q-10 -10 -18 -10h-22q-11 0 -3 10l92 122q8 10 19 10zM359 477h101q10 0 8 -10l-73 -415q-1 -6 5 -6h55q10 0 8 -10l-5 -26q-1 -10 -12 -10h-101q-10 0 -8 10l10 55h-1q-53 -75 -145 -75q-64 0 -97 33.5t-33 96.5q0 21 5 51
l45 253q1 7 -5 7h-54q-10 0 -8 10l5 26q2 10 12 10h100q10 0 8 -10l-51 -283q-5 -30 -5 -51q0 -95 96 -95q51 0 93.5 37t52.5 97l45 252q1 7 -5 7h-54q-10 0 -8 10l5 26q2 10 11 10z" />
    <glyph glyph-name="ucircumflex" unicode="&#xfb;" horiz-adv-x="536" 
d="M320 700h20q8 0 13 -9l65 -122q6 -10 -4 -10h-20q-9 0 -15 9l-52 91h-2l-86 -91q-9 -9 -19 -9h-22q-4 0 -5 3t3 7l107 122q8 9 17 9zM359 477h101q10 0 8 -10l-73 -415q-1 -6 5 -6h55q10 0 8 -10l-5 -26q-1 -10 -12 -10h-101q-10 0 -8 10l10 55h-1q-53 -75 -145 -75
q-64 0 -97 33.5t-33 96.5q0 21 5 51l45 253q1 7 -5 7h-54q-10 0 -8 10l5 26q2 10 12 10h100q10 0 8 -10l-51 -283q-5 -30 -5 -51q0 -95 96 -95q51 0 93.5 37t52.5 97l45 252q1 7 -5 7h-54q-10 0 -8 10l5 26q2 10 11 10z" />
    <glyph glyph-name="udieresis" unicode="&#xfc;" horiz-adv-x="536" 
d="M209 680h37q10 0 8 -10l-9 -53q-2 -10 -11 -10h-37q-10 0 -8 10l9 53q2 10 11 10zM401 680h37q10 0 8 -10l-9 -53q-2 -10 -11 -10h-37q-10 0 -8 10l9 53q2 10 11 10zM359 477h101q10 0 8 -10l-73 -415q-1 -6 5 -6h55q10 0 8 -10l-5 -26q-1 -10 -12 -10h-101q-10 0 -8 10
l10 55h-1q-53 -75 -145 -75q-64 0 -97 33.5t-33 96.5q0 21 5 51l45 253q1 7 -5 7h-54q-10 0 -8 10l5 26q2 10 12 10h100q10 0 8 -10l-51 -283q-5 -30 -5 -51q0 -95 96 -95q51 0 93.5 37t52.5 97l45 252q1 7 -5 7h-54q-10 0 -8 10l5 26q2 10 11 10z" />
    <glyph glyph-name="yacute" unicode="&#xfd;" horiz-adv-x="452" 
d="M364 700h34q4 0 5.5 -3t-1.5 -7l-106 -122q-10 -10 -18 -10h-22q-11 0 -3 10l92 122q8 10 19 10zM343 477h140q10 0 8 -10l-5 -26q-1 -10 -12 -10h-26q-5 0 -9 -7l-256 -471q-43 -80 -75 -106.5t-79 -26.5h-20q-10 0 -8 10l5 28q1 10 12 10h16q30 0 52.5 21t52.5 76
l25 48l-80 412q-2 6 -6 6h-30q-10 0 -8 10l5 26q2 10 12 10h142q10 0 8 -10l-5 -26q-1 -10 -12 -10h-49q-7 0 -5 -8l64 -345h1l184 344q5 9 -4 9h-47q-10 0 -8 10l5 26q2 10 12 10z" />
    <glyph glyph-name="thorn" unicode="&#xfe;" horiz-adv-x="536" 
d="M134 680h101q10 0 8 -10l-46 -261h1q55 78 151 78q68 0 103.5 -41t35.5 -114q0 -55 -15.5 -124t-33.5 -106q-55 -112 -174 -112q-98 0 -127 81h-1l-34 -198q-1 -7 5 -7h54q10 0 8 -10l-5 -26q-1 -10 -12 -10h-171q-10 0 -8 10l5 26q1 10 12 10h53q7 0 8 7l133 754
q1 7 -5 7h-55q-10 0 -8 10l5 26q2 10 12 10zM333 439q-92 0 -138 -93q-12 -23 -25.5 -91t-13.5 -107q0 -50 27.5 -80t78.5 -30q91 0 133 87q18 36 30 95.5t12 103.5q0 115 -104 115z" />
    <glyph glyph-name="ydieresis" unicode="&#xff;" horiz-adv-x="452" 
d="M191 680h37q10 0 8 -10l-9 -53q-2 -10 -11 -10h-37q-10 0 -8 10l9 53q2 10 11 10zM383 680h37q10 0 8 -10l-9 -53q-2 -10 -11 -10h-37q-10 0 -8 10l9 53q2 10 11 10zM343 477h140q10 0 8 -10l-5 -26q-1 -10 -12 -10h-26q-5 0 -9 -7l-256 -471q-43 -80 -75 -106.5
t-79 -26.5h-20q-10 0 -8 10l5 28q1 10 12 10h16q30 0 52.5 21t52.5 76l25 48l-80 412q-2 6 -6 6h-30q-10 0 -8 10l5 26q2 10 12 10h142q10 0 8 -10l-5 -26q-1 -10 -12 -10h-49q-7 0 -5 -8l64 -345h1l184 344q5 9 -4 9h-47q-10 0 -8 10l5 26q2 10 12 10z" />
    <glyph glyph-name="Amacron" unicode="&#x100;" horiz-adv-x="575" 
d="M284 845h233q10 0 8 -10l-3 -23q-2 -10 -11 -10h-234q-10 0 -8 10l4 23q1 10 11 10zM353 680h37q7 0 9 -10l103 -618q2 -6 7 -6h31q10 0 8 -10l-4 -26q-1 -10 -12 -10h-158q-10 0 -8 10l5 26q1 10 11 10h62q7 0 6 7l-25 154h-271l-81 -155q-3 -6 4 -6h61q10 0 8 -10
l-5 -26q-1 -10 -11 -10h-163q-10 0 -8 10l5 26q1 10 11 10h32q6 0 9 6l324 618q5 10 13 10zM359 600l-179 -343h237l-56 343h-2z" />
    <glyph glyph-name="amacron" unicode="&#x101;" horiz-adv-x="497" 
d="M199 664h234q10 0 8 -10l-4 -22q-1 -10 -11 -10h-234q-10 0 -8 10l4 22q1 10 11 10zM273 487q74 0 108.5 -25t34.5 -81q0 -19 -5 -51l-50 -278q-1 -6 4 -6h54q10 0 8 -10l-5 -26q-1 -10 -11 -10h-98q-10 0 -8 10l9 50h-1q-44 -70 -152 -70q-61 0 -95.5 31.5t-34.5 85.5
q0 80 51 121.5t148 41.5h114q6 0 7 6q15 70 15 95q0 38 -23 54t-79 16q-60 0 -97 -18q-5 -2 -6 -8l-10 -56q-2 -10 -11 -10h-30q-11 0 -9 10l15 85q1 7 7 10q66 33 150 33zM337 227h-105q-151 0 -151 -114q0 -37 24.5 -57.5t72.5 -20.5q59 0 100.5 31t49.5 81l13 74
q1 6 -4 6z" />
    <glyph glyph-name="Abreve" unicode="&#x102;" horiz-adv-x="575" 
d="M501 881h17q10 0 7 -10q-15 -46 -51.5 -74t-84.5 -28t-75 28t-26 74q0 10 10 10h16q9 0 11 -10q5 -62 70 -62q64 0 93 62q5 10 13 10zM353 680h37q7 0 9 -10l103 -618q2 -6 7 -6h31q10 0 8 -10l-4 -26q-1 -10 -12 -10h-158q-10 0 -8 10l5 26q1 10 11 10h62q7 0 6 7
l-25 154h-271l-81 -155q-3 -6 4 -6h61q10 0 8 -10l-5 -26q-1 -10 -11 -10h-163q-10 0 -8 10l5 26q1 10 11 10h32q6 0 9 6l324 618q5 10 13 10zM359 600l-179 -343h237l-56 343h-2z" />
    <glyph glyph-name="abreve" unicode="&#x103;" horiz-adv-x="497" 
d="M412 684h17q10 0 7 -10q-15 -46 -51.5 -74t-84.5 -28t-75 28t-26 74q0 10 10 10h16q9 0 11 -10q5 -62 70 -62q64 0 93 62q5 10 13 10zM273 487q74 0 108.5 -25t34.5 -81q0 -19 -5 -51l-50 -278q-1 -6 4 -6h54q10 0 8 -10l-5 -26q-1 -10 -11 -10h-98q-10 0 -8 10l9 50h-1
q-44 -70 -152 -70q-61 0 -95.5 31.5t-34.5 85.5q0 80 51 121.5t148 41.5h114q6 0 7 6q15 70 15 95q0 38 -23 54t-79 16q-60 0 -97 -18q-5 -2 -6 -8l-10 -56q-2 -10 -11 -10h-30q-11 0 -9 10l15 85q1 7 7 10q66 33 150 33zM337 227h-105q-151 0 -151 -114q0 -37 24.5 -57.5
t72.5 -20.5q59 0 100.5 31t49.5 81l13 74q1 6 -4 6z" />
    <glyph glyph-name="Aogonek" unicode="&#x104;" horiz-adv-x="575" 
d="M353 680h37q7 0 9 -10l103 -618q2 -6 7 -6h31q10 0 8 -10l-4 -26q-1 -10 -12 -10h-122q-57 -38 -78 -61t-21 -43q0 -23 24 -23q13 0 29 9q8 5 11 -2l7 -20q2 -6 -6 -13q-25 -17 -55 -17q-25 0 -40.5 14.5t-15.5 39.5q0 62 101 123l5 29q1 10 11 10h62q7 0 6 7l-25 154
h-271l-81 -155q-3 -6 4 -6h61q10 0 8 -10l-5 -26q-1 -10 -11 -10h-163q-10 0 -8 10l5 26q1 10 11 10h32q6 0 9 6l324 618q5 10 13 10zM359 600l-179 -343h237l-56 343h-2z" />
    <glyph glyph-name="aogonek" unicode="&#x105;" horiz-adv-x="497" 
d="M273 487q74 0 108.5 -25t34.5 -81q0 -19 -5 -51l-50 -278q-1 -6 4 -6h54q10 0 8 -10l-5 -26q-1 -10 -11 -10h-60q-57 -38 -78 -61t-21 -43q0 -23 24 -23q12 0 29 9q8 5 11 -2l7 -20q2 -6 -6 -13q-25 -17 -55 -17q-25 0 -40.5 14.5t-15.5 39.5q0 30 22 57.5t76 64.5l10 54
h-1q-44 -70 -152 -70q-61 0 -95.5 31.5t-34.5 85.5q0 80 51 121.5t148 41.5h114q6 0 7 6q15 70 15 95q0 38 -23 54t-79 16q-60 0 -97 -18q-5 -2 -6 -8l-10 -56q-2 -10 -11 -10h-30q-11 0 -9 10l15 85q1 7 7 10q66 33 150 33zM337 227h-105q-151 0 -151 -114
q0 -37 24.5 -57.5t72.5 -20.5q59 0 100.5 31t49.5 81l13 74q1 6 -4 6z" />
    <glyph glyph-name="Cacute" unicode="&#x106;" horiz-adv-x="557" 
d="M474 888h36q5 0 6 -3t-3 -7l-107 -104q-10 -10 -19 -10h-24q-11 0 -2 11l94 103q10 10 19 10zM375 690q61 0 108.5 -16t71.5 -37q7 -6 6 -15l-17 -101q-2 -10 -11 -10h-31q-10 0 -8 10l14 78q1 5 -3 8q-48 33 -131 33q-130 0 -189 -117q-25 -52 -46.5 -163.5
t-21.5 -170.5q0 -149 163 -149q79 0 128 28q5 3 6 9l14 72q2 10 11 10h31q10 0 8 -10l-18 -101q-1 -10 -10 -15q-71 -43 -176 -43q-210 0 -210 193q0 63 22.5 183t49.5 174q38 78 95.5 114t143.5 36z" />
    <glyph glyph-name="cacute" unicode="&#x107;" horiz-adv-x="465" 
d="M401 700h34q5 0 6 -3t-2 -7l-106 -122q-10 -10 -18 -10h-22q-11 0 -3 10l92 122q8 10 19 10zM290 487q91 0 139 -44q5 -4 4 -13l-14 -83q-2 -10 -10 -10h-30q-10 0 -8 10l10 58q1 7 -3 10q-29 24 -93 24q-98 0 -143 -92q-17 -35 -29 -92.5t-12 -93.5q0 -124 122 -124
q50 0 90 19q7 3 8 10l10 61q2 10 11 10h29q11 0 9 -10l-16 -89q-1 -9 -8 -13q-57 -35 -140 -35q-82 0 -124 41.5t-42 120.5q0 44 13.5 110.5t33.5 106.5q57 118 193 118z" />
    <glyph glyph-name="Ccircumflex" unicode="&#x108;" horiz-adv-x="557" 
d="M405 896h20q9 0 13 -9l65 -122q6 -10 -4 -10h-19q-10 0 -16 9l-52 91h-2l-86 -91q-8 -9 -18 -9h-23q-4 0 -5 3t3 7l107 122q8 9 17 9zM375 690q61 0 108.5 -16t71.5 -37q7 -6 6 -15l-17 -101q-2 -10 -11 -10h-31q-10 0 -8 10l14 78q1 5 -3 8q-48 33 -131 33
q-130 0 -189 -117q-25 -52 -46.5 -163.5t-21.5 -170.5q0 -149 163 -149q79 0 128 28q5 3 6 9l14 72q2 10 11 10h31q10 0 8 -10l-18 -101q-1 -10 -10 -15q-71 -43 -176 -43q-210 0 -210 193q0 63 22.5 183t49.5 174q38 78 95.5 114t143.5 36z" />
    <glyph glyph-name="ccircumflex" unicode="&#x109;" horiz-adv-x="465" 
d="M321 700h20q9 0 13 -9l65 -122q6 -10 -4 -10h-20q-9 0 -15 9l-52 91h-2l-86 -91q-9 -9 -19 -9h-22q-4 0 -5 3t3 7l107 122q8 9 17 9zM290 487q91 0 139 -44q5 -4 4 -13l-14 -83q-2 -10 -10 -10h-30q-10 0 -8 10l10 58q1 7 -3 10q-29 24 -93 24q-98 0 -143 -92
q-17 -35 -29 -92.5t-12 -93.5q0 -124 122 -124q50 0 90 19q7 3 8 10l10 61q2 10 11 10h29q11 0 9 -10l-16 -89q-1 -9 -8 -13q-57 -35 -140 -35q-82 0 -124 41.5t-42 120.5q0 44 13.5 110.5t33.5 106.5q57 118 193 118z" />
    <glyph glyph-name="Cdotaccent" unicode="&#x10a;" horiz-adv-x="557" 
d="M387 861h42q10 0 8 -10l-9 -54q-2 -10 -11 -10h-42q-10 0 -8 10l9 54q2 10 11 10zM375 690q61 0 108.5 -16t71.5 -37q7 -6 6 -15l-17 -101q-2 -10 -11 -10h-31q-10 0 -8 10l14 78q1 5 -3 8q-48 33 -131 33q-130 0 -189 -117q-25 -52 -46.5 -163.5t-21.5 -170.5
q0 -149 163 -149q79 0 128 28q5 3 6 9l14 72q2 10 11 10h31q10 0 8 -10l-18 -101q-1 -10 -10 -15q-71 -43 -176 -43q-210 0 -210 193q0 63 22.5 183t49.5 174q38 78 95.5 114t143.5 36z" />
    <glyph glyph-name="cdotaccent" unicode="&#x10b;" horiz-adv-x="465" 
d="M308 680h41q10 0 8 -10l-9 -53q-2 -10 -11 -10h-42q-10 0 -8 10l10 53q2 10 11 10zM290 487q91 0 139 -44q5 -4 4 -13l-14 -83q-2 -10 -10 -10h-30q-10 0 -8 10l10 58q1 7 -3 10q-29 24 -93 24q-98 0 -143 -92q-17 -35 -29 -92.5t-12 -93.5q0 -124 122 -124q50 0 90 19
q7 3 8 10l10 61q2 10 11 10h29q11 0 9 -10l-16 -89q-1 -9 -8 -13q-57 -35 -140 -35q-82 0 -124 41.5t-42 120.5q0 44 13.5 110.5t33.5 106.5q57 118 193 118z" />
    <glyph glyph-name="Ccaron" unicode="&#x10c;" horiz-adv-x="557" 
d="M499 895h22q5 0 6 -3t-3 -7l-107 -122q-8 -9 -17 -9h-20q-8 0 -13 9l-66 122q-2 4 -0.5 7t5.5 3h19q10 0 15 -9l53 -90h2l86 90q8 9 18 9zM375 690q61 0 108.5 -16t71.5 -37q7 -6 6 -15l-17 -101q-2 -10 -11 -10h-31q-10 0 -8 10l14 78q1 5 -3 8q-48 33 -131 33
q-130 0 -189 -117q-25 -52 -46.5 -163.5t-21.5 -170.5q0 -149 163 -149q79 0 128 28q5 3 6 9l14 72q2 10 11 10h31q10 0 8 -10l-18 -101q-1 -10 -10 -15q-71 -43 -176 -43q-210 0 -210 193q0 63 22.5 183t49.5 174q38 78 95.5 114t143.5 36z" />
    <glyph glyph-name="ccaron" unicode="&#x10d;" horiz-adv-x="465" 
d="M414 700h22q4 0 5 -3t-3 -7l-107 -122q-8 -9 -17 -9h-20q-9 0 -13 9l-65 122q-6 10 4 10h20q9 0 15 -10l52 -90h2l86 90q9 10 19 10zM290 487q91 0 139 -44q5 -4 4 -13l-14 -83q-2 -10 -10 -10h-30q-10 0 -8 10l10 58q1 7 -3 10q-29 24 -93 24q-98 0 -143 -92
q-17 -35 -29 -92.5t-12 -93.5q0 -124 122 -124q50 0 90 19q7 3 8 10l10 61q2 10 11 10h29q11 0 9 -10l-16 -89q-1 -9 -8 -13q-57 -35 -140 -35q-82 0 -124 41.5t-42 120.5q0 44 13.5 110.5t33.5 106.5q57 118 193 118z" />
    <glyph glyph-name="Dcaron" unicode="&#x10e;" horiz-adv-x="622" 
d="M502 895h22q5 0 6 -3t-3 -7l-107 -122q-8 -9 -17 -9h-20q-9 0 -13 9l-66 122q-2 4 -0.5 7t5.5 3h19q10 0 15 -9l53 -90h2l86 90q8 9 18 9zM131 680h275q184 0 184 -178q0 -70 -23 -191.5t-52 -179.5q-35 -70 -89.5 -100.5t-138.5 -30.5h-275q-10 0 -8 10l5 26q1 10 11 10
h57q7 0 8 6l101 576q2 6 -5 6h-58q-10 0 -8 10l5 26q1 10 11 10zM389 630h-144q-5 0 -7 -6l-100 -568q-2 -6 4 -6h144q131 0 184 106q24 50 46 162t22 175q0 70 -36.5 103.5t-112.5 33.5z" />
    <glyph glyph-name="dcaron" unicode="&#x10f;" horiz-adv-x="534" 
d="M390 680h101q10 0 8 -10l-108 -617q-1 -7 5 -7h55q10 0 8 -10l-5 -27q-2 -9 -12 -9h-102q-10 0 -8 10l10 57h-1q-53 -77 -151 -77q-67 0 -103 41t-36 114q0 55 15.5 124t33.5 106q55 112 174 112q98 0 127 -82h1l38 222q1 7 -5 7h-54q-10 0 -8 10l5 26q1 10 12 10z
M565 680h36q10 0 8 -10l-8 -46q-3 -14 -8 -21l-40 -57q-6 -8 -13 -8q-9 0 -7 10l21 122q2 10 11 10zM277 439q-89 0 -133 -88q-18 -36 -30 -95t-12 -103q0 -115 104 -115q92 0 138 92q12 23 25.5 91t13.5 107q0 51 -27.5 81t-78.5 30z" />
    <glyph glyph-name="Dcroat" unicode="&#x110;" horiz-adv-x="622" 
d="M131 680h275q184 0 184 -178q0 -70 -23 -191.5t-52 -179.5q-35 -70 -89.5 -100.5t-138.5 -30.5h-275q-10 0 -8 10l5 26q1 10 11 10h57q7 0 8 6l46 265q1 6 -4 6h-39q-10 0 -8 10l4 25q1 10 12 10h38q6 0 7 6l45 254q2 6 -5 6h-58q-10 0 -8 10l5 26q1 10 11 10zM389 630
h-144q-5 0 -7 -6l-44 -250q-2 -6 5 -6h125q10 0 8 -10l-4 -25q-2 -10 -12 -10h-125q-5 0 -7 -6l-46 -261q-2 -6 4 -6h144q131 0 184 106q24 50 46 162t22 175q0 70 -36.5 103.5t-112.5 33.5z" />
    <glyph glyph-name="dcroat" unicode="&#x111;" horiz-adv-x="534" 
d="M390 680h101q10 0 8 -10l-15 -84q-1 -6 5 -6h33q10 0 8 -10l-4 -24q-2 -9 -12 -9h-32q-6 0 -7 -6l-84 -478q-1 -7 5 -7h55q10 0 8 -10l-5 -27q-2 -9 -12 -9h-102q-10 0 -8 10l10 57h-1q-53 -77 -151 -77q-67 0 -103 41t-36 114q0 55 15.5 124t33.5 106q55 112 174 112
q98 0 127 -82h1l22 126q2 6 -5 6h-125q-9 0 -7 10l4 23q2 10 11 10h125q5 0 6 4l7 43q1 7 -5 7h-54q-10 0 -8 10l5 26q1 10 12 10zM277 439q-89 0 -133 -88q-18 -36 -30 -95t-12 -103q0 -115 104 -115q92 0 138 92q12 23 25.5 91t13.5 107q0 51 -27.5 81t-78.5 30z" />
    <glyph glyph-name="Emacron" unicode="&#x112;" horiz-adv-x="561" 
d="M279 845h233q10 0 8 -10l-3 -23q-2 -10 -11 -10h-234q-10 0 -8 10l4 23q1 10 11 10zM131 680h440q11 0 9 -10l-19 -111q-2 -10 -11 -10h-31q-10 0 -8 10l11 65q2 6 -5 6h-272q-5 0 -7 -6l-43 -247q-1 -7 6 -7h209q6 0 8 6l9 51q2 10 11 10h32q10 0 8 -10l-29 -165
q-2 -10 -11 -10h-31q-11 0 -9 10l9 53q1 6 -5 6h-211q-5 0 -7 -6l-46 -259q-2 -6 5 -6h272q5 0 7 6l12 67q2 10 11 10h31q10 0 8 -10l-20 -113q-1 -10 -12 -10h-440q-10 0 -8 10l5 26q1 10 11 10h57q7 0 8 6l101 576q2 6 -5 6h-58q-10 0 -8 10l5 26q1 10 11 10z" />
    <glyph glyph-name="emacron" unicode="&#x113;" horiz-adv-x="474" 
d="M197 664h234q10 0 8 -10l-4 -22q-1 -10 -11 -10h-234q-10 0 -8 10l4 22q1 10 11 10zM285 487q67 0 107.5 -41t40.5 -116q0 -38 -10 -93q-2 -10 -12 -10h-299q-6 0 -7 -6q-6 -26 -6 -66q0 -117 113 -117q81 0 141 64q8 8 15 1l16 -18q7 -7 -1 -15q-71 -80 -178 -80
q-75 0 -115 41.5t-40 117.5q0 127 44 215q59 123 191 123zM279 440q-95 0 -139 -90q-16 -32 -24 -74q-2 -6 4 -6h252q6 0 7 6q6 27 6 51q0 113 -106 113z" />
    <glyph glyph-name="Ebreve" unicode="&#x114;" horiz-adv-x="561" 
d="M492 881h17q10 0 7 -10q-15 -46 -51.5 -74t-84.5 -28t-75 28t-26 74q0 10 10 10h16q9 0 11 -10q5 -62 70 -62q64 0 93 62q5 10 13 10zM131 680h440q11 0 9 -10l-19 -111q-2 -10 -11 -10h-31q-10 0 -8 10l11 65q2 6 -5 6h-272q-5 0 -7 -6l-43 -247q-1 -7 6 -7h209q6 0 8 6
l9 51q2 10 11 10h32q10 0 8 -10l-29 -165q-2 -10 -11 -10h-31q-11 0 -9 10l9 53q1 6 -5 6h-211q-5 0 -7 -6l-46 -259q-2 -6 5 -6h272q5 0 7 6l12 67q2 10 11 10h31q10 0 8 -10l-20 -113q-1 -10 -12 -10h-440q-10 0 -8 10l5 26q1 10 11 10h57q7 0 8 6l101 576q2 6 -5 6h-58
q-10 0 -8 10l5 26q1 10 11 10z" />
    <glyph glyph-name="ebreve" unicode="&#x115;" horiz-adv-x="474" 
d="M411 684h17q10 0 7 -10q-15 -46 -51.5 -74t-84.5 -28t-75 28t-26 74q0 10 10 10h16q9 0 11 -10q5 -62 70 -62q64 0 93 62q5 10 13 10zM285 487q67 0 107.5 -41t40.5 -116q0 -38 -10 -93q-2 -10 -12 -10h-299q-6 0 -7 -6q-6 -26 -6 -66q0 -117 113 -117q81 0 141 64
q8 8 15 1l16 -18q7 -7 -1 -15q-71 -80 -178 -80q-75 0 -115 41.5t-40 117.5q0 127 44 215q59 123 191 123zM279 440q-95 0 -139 -90q-16 -32 -24 -74q-2 -6 4 -6h252q6 0 7 6q6 27 6 51q0 113 -106 113z" />
    <glyph glyph-name="Edotaccent" unicode="&#x116;" horiz-adv-x="561" 
d="M376 861h42q10 0 8 -10l-9 -54q-2 -10 -11 -10h-42q-10 0 -8 10l9 54q2 10 11 10zM131 680h440q11 0 9 -10l-19 -111q-2 -10 -11 -10h-31q-10 0 -8 10l11 65q2 6 -5 6h-272q-5 0 -7 -6l-43 -247q-1 -7 6 -7h209q6 0 8 6l9 51q2 10 11 10h32q10 0 8 -10l-29 -165
q-2 -10 -11 -10h-31q-11 0 -9 10l9 53q1 6 -5 6h-211q-5 0 -7 -6l-46 -259q-2 -6 5 -6h272q5 0 7 6l12 67q2 10 11 10h31q10 0 8 -10l-20 -113q-1 -10 -12 -10h-440q-10 0 -8 10l5 26q1 10 11 10h57q7 0 8 6l101 576q2 6 -5 6h-58q-10 0 -8 10l5 26q1 10 11 10z" />
    <glyph glyph-name="edotaccent" unicode="&#x117;" horiz-adv-x="474" 
d="M297 680h41q10 0 8 -10l-9 -53q-2 -10 -11 -10h-42q-10 0 -8 10l10 53q2 10 11 10zM285 487q67 0 107.5 -41t40.5 -116q0 -38 -10 -93q-2 -10 -12 -10h-299q-6 0 -7 -6q-6 -26 -6 -66q0 -117 113 -117q81 0 141 64q8 8 15 1l16 -18q7 -7 -1 -15q-71 -80 -178 -80
q-75 0 -115 41.5t-40 117.5q0 127 44 215q59 123 191 123zM279 440q-95 0 -139 -90q-16 -32 -24 -74q-2 -6 4 -6h252q6 0 7 6q6 27 6 51q0 113 -106 113z" />
    <glyph glyph-name="Eogonek" unicode="&#x118;" horiz-adv-x="561" 
d="M131 680h440q11 0 9 -10l-19 -111q-2 -10 -11 -10h-31q-10 0 -8 10l11 65q2 6 -5 6h-272q-5 0 -7 -6l-43 -247q-1 -7 6 -7h209q6 0 8 6l9 51q2 10 11 10h32q10 0 8 -10l-29 -165q-2 -10 -11 -10h-31q-11 0 -9 10l9 53q1 6 -5 6h-211q-5 0 -7 -6l-46 -259q-2 -6 5 -6h272
q5 0 7 6l12 67q2 10 11 10h31q10 0 8 -10l-20 -113q-1 -10 -12 -10h-10q-57 -38 -78 -61t-21 -43q0 -23 24 -23q13 0 29 9q8 5 11 -2l7 -20q2 -6 -6 -13q-25 -17 -55 -17q-25 0 -40.5 14.5t-15.5 39.5q0 30 20.5 56.5t68.5 59.5h-374q-10 0 -8 10l5 26q1 10 11 10h57
q7 0 8 6l101 576q2 6 -5 6h-58q-10 0 -8 10l5 26q1 10 11 10z" />
    <glyph glyph-name="eogonek" unicode="&#x119;" horiz-adv-x="474" 
d="M285 487q67 0 107.5 -41t40.5 -116q0 -38 -10 -93q-2 -10 -12 -10h-299q-6 0 -7 -6q-6 -26 -6 -66q0 -117 113 -117q81 0 141 64q8 8 15 1l16 -18q6 -8 -1 -15q-24 -26 -46 -40q-101 -92 -101 -134q0 -23 24 -23q12 0 29 9q8 5 11 -2l7 -20q2 -6 -6 -13q-25 -17 -55 -17
q-25 0 -40.5 14.5t-15.5 39.5q0 50 68 113q-22 -7 -53 -7q-75 0 -115 41.5t-40 117.5q0 127 44 215q59 123 191 123zM279 440q-95 0 -139 -90q-16 -32 -24 -74q-2 -6 4 -6h252q6 0 7 6q6 27 6 51q0 113 -106 113z" />
    <glyph glyph-name="Ecaron" unicode="&#x11a;" horiz-adv-x="561" 
d="M488 895h22q5 0 6 -3t-3 -7l-107 -122q-8 -9 -17 -9h-20q-9 0 -13 9l-66 122q-2 4 -0.5 7t5.5 3h19q10 0 15 -9l53 -90h2l86 90q8 9 18 9zM131 680h440q11 0 9 -10l-19 -111q-2 -10 -11 -10h-31q-10 0 -8 10l11 65q2 6 -5 6h-272q-5 0 -7 -6l-43 -247q-1 -7 6 -7h209
q6 0 8 6l9 51q2 10 11 10h32q10 0 8 -10l-29 -165q-2 -10 -11 -10h-31q-11 0 -9 10l9 53q1 6 -5 6h-211q-5 0 -7 -6l-46 -259q-2 -6 5 -6h272q5 0 7 6l12 67q2 10 11 10h31q10 0 8 -10l-20 -113q-1 -10 -12 -10h-440q-10 0 -8 10l5 26q1 10 11 10h57q7 0 8 6l101 576
q2 6 -5 6h-58q-10 0 -8 10l5 26q1 10 11 10z" />
    <glyph glyph-name="ecaron" unicode="&#x11b;" horiz-adv-x="474" 
d="M406 700h22q4 0 5 -3t-3 -7l-107 -122q-8 -9 -17 -9h-20q-9 0 -13 9l-65 122q-6 10 4 10h20q9 0 15 -10l52 -90h2l86 90q9 10 19 10zM285 487q67 0 107.5 -41t40.5 -116q0 -38 -10 -93q-2 -10 -12 -10h-299q-6 0 -7 -6q-6 -26 -6 -66q0 -117 113 -117q81 0 141 64
q8 8 15 1l16 -18q7 -7 -1 -15q-71 -80 -178 -80q-75 0 -115 41.5t-40 117.5q0 127 44 215q59 123 191 123zM279 440q-95 0 -139 -90q-16 -32 -24 -74q-2 -6 4 -6h252q6 0 7 6q6 27 6 51q0 113 -106 113z" />
    <glyph glyph-name="Gcircumflex" unicode="&#x11c;" horiz-adv-x="595" 
d="M415 896h20q9 0 13 -9l65 -122q6 -10 -4 -10h-19q-10 0 -16 9l-52 91h-2l-86 -91q-8 -9 -18 -9h-23q-4 0 -5 3t3 7l107 122q8 9 17 9zM386 690q58 0 108.5 -17.5t78.5 -44.5q7 -7 5 -16l-17 -94q-2 -10 -11 -10h-31q-10 0 -8 10l13 74q1 6 -4 10q-50 38 -141 38
q-135 0 -193 -118q-26 -52 -47 -163t-21 -170q0 -149 161 -149q96 0 149 34q8 5 10 15l36 201q2 6 -5 6h-144q-9 0 -7 10l5 29q1 9 11 9h192q9 0 7 -10l-48 -270q-4 -18 -14 -25q-71 -49 -196 -49q-104 0 -157 49.5t-53 143.5q0 63 22.5 183t49.5 174q38 78 96.5 114
t152.5 36z" />
    <glyph glyph-name="gcircumflex" unicode="&#x11d;" horiz-adv-x="523" 
d="M325 700h20q9 0 13 -9l65 -122q6 -10 -4 -10h-20q-9 0 -15 9l-52 91h-2l-86 -91q-9 -9 -19 -9h-22q-4 0 -5 3t3 7l107 122q8 9 17 9zM271 487q49 0 80 -22.5t42 -58.5h1l10 61q2 10 11 10h102q10 0 8 -10l-5 -26q-1 -10 -11 -10h-56q-6 0 -7 -7l-72 -413
q-19 -107 -71.5 -154t-139.5 -47q-98 0 -140 73q-5 8 3 15l22 17q8 7 15 -2q39 -55 106 -55q129 0 155 152l11 63h-1q-48 -76 -146 -76q-67 0 -102 40t-35 110q0 49 13 115.5t35 110.5q54 114 172 114zM273 439q-86 0 -128 -86q-43 -88 -43 -197q0 -111 103 -111
q85 0 128 85q16 32 29 96.5t13 101.5q0 50 -26 80.5t-76 30.5z" />
    <glyph glyph-name="Gbreve" unicode="&#x11e;" horiz-adv-x="595" 
d="M516 881h17q10 0 7 -10q-15 -46 -51.5 -74t-84.5 -28t-75 28t-26 74q0 10 10 10h16q9 0 11 -10q5 -62 70 -62q64 0 93 62q5 10 13 10zM386 690q58 0 108.5 -17.5t78.5 -44.5q7 -7 5 -16l-17 -94q-2 -10 -11 -10h-31q-10 0 -8 10l13 74q1 6 -4 10q-50 38 -141 38
q-135 0 -193 -118q-26 -52 -47 -163t-21 -170q0 -149 161 -149q96 0 149 34q8 5 10 15l36 201q2 6 -5 6h-144q-9 0 -7 10l5 29q1 9 11 9h192q9 0 7 -10l-48 -270q-4 -18 -14 -25q-71 -49 -196 -49q-104 0 -157 49.5t-53 143.5q0 63 22.5 183t49.5 174q38 78 96.5 114
t152.5 36z" />
    <glyph glyph-name="gbreve" unicode="&#x11f;" horiz-adv-x="523" 
d="M424 684h17q10 0 7 -10q-15 -46 -51.5 -74t-84.5 -28t-75 28t-26 74q0 10 10 10h16q9 0 11 -10q5 -62 70 -62q64 0 93 62q5 10 13 10zM271 487q49 0 80 -22.5t42 -58.5h1l10 61q2 10 11 10h102q10 0 8 -10l-5 -26q-1 -10 -11 -10h-56q-6 0 -7 -7l-72 -413
q-19 -107 -71.5 -154t-139.5 -47q-98 0 -140 73q-5 8 3 15l22 17q8 7 15 -2q39 -55 106 -55q129 0 155 152l11 63h-1q-48 -76 -146 -76q-67 0 -102 40t-35 110q0 49 13 115.5t35 110.5q54 114 172 114zM273 439q-86 0 -128 -86q-43 -88 -43 -197q0 -111 103 -111
q85 0 128 85q16 32 29 96.5t13 101.5q0 50 -26 80.5t-76 30.5z" />
    <glyph glyph-name="Gdotaccent" unicode="&#x120;" horiz-adv-x="595" 
d="M397 861h42q10 0 8 -10l-9 -54q-2 -10 -11 -10h-42q-10 0 -8 10l9 54q2 10 11 10zM386 690q58 0 108.5 -17.5t78.5 -44.5q7 -7 5 -16l-17 -94q-2 -10 -11 -10h-31q-10 0 -8 10l13 74q1 6 -4 10q-50 38 -141 38q-135 0 -193 -118q-26 -52 -47 -163t-21 -170
q0 -149 161 -149q96 0 149 34q8 5 10 15l36 201q2 6 -5 6h-144q-9 0 -7 10l5 29q1 9 11 9h192q9 0 7 -10l-48 -270q-4 -18 -14 -25q-71 -49 -196 -49q-104 0 -157 49.5t-53 143.5q0 63 22.5 183t49.5 174q38 78 96.5 114t152.5 36z" />
    <glyph glyph-name="gdotaccent" unicode="&#x121;" horiz-adv-x="523" 
d="M310 680h41q10 0 8 -10l-9 -53q-2 -10 -11 -10h-42q-10 0 -8 10l10 53q2 10 11 10zM271 487q49 0 80 -22.5t42 -58.5h1l10 61q2 10 11 10h102q10 0 8 -10l-5 -26q-1 -10 -11 -10h-56q-6 0 -7 -7l-72 -413q-19 -107 -71.5 -154t-139.5 -47q-98 0 -140 73q-5 8 3 15l22 17
q8 7 15 -2q39 -55 106 -55q129 0 155 152l11 63h-1q-48 -76 -146 -76q-67 0 -102 40t-35 110q0 49 13 115.5t35 110.5q54 114 172 114zM273 439q-86 0 -128 -86q-43 -88 -43 -197q0 -111 103 -111q85 0 128 85q16 32 29 96.5t13 101.5q0 50 -26 80.5t-76 30.5z" />
    <glyph glyph-name="Gcommaaccent" unicode="&#x122;" horiz-adv-x="595" 
d="M386 690q58 0 108.5 -17.5t78.5 -44.5q7 -7 5 -16l-17 -94q-2 -10 -11 -10h-31q-10 0 -8 10l13 74q1 6 -4 10q-50 38 -141 38q-135 0 -193 -118q-26 -52 -47 -163t-21 -170q0 -149 161 -149q96 0 149 34q8 5 10 15l36 201q2 6 -5 6h-144q-9 0 -7 10l5 29q1 9 11 9h192
q9 0 7 -10l-48 -270q-4 -18 -14 -25q-71 -49 -196 -49q-104 0 -157 49.5t-53 143.5q0 63 22.5 183t49.5 174q38 78 96.5 114t152.5 36zM227 -55h35q10 0 8 -10l-7 -45q-2 -9 -9 -22l-40 -56q-6 -8 -12 -8q-10 0 -8 10l21 121q2 10 12 10z" />
    <glyph glyph-name="gcommaaccent" unicode="&#x123;" horiz-adv-x="523" 
d="M352 713q8 0 7 -9l-21 -121q-2 -10 -11 -10h-36q-10 0 -8 10l8 45q3 13 8 21l41 56q5 8 12 8zM271 487q49 0 80 -22.5t42 -58.5h1l10 61q2 10 11 10h102q10 0 8 -10l-5 -26q-1 -10 -11 -10h-56q-6 0 -7 -7l-72 -413q-19 -107 -71.5 -154t-139.5 -47q-98 0 -140 73
q-5 8 3 15l22 17q8 7 15 -2q39 -55 106 -55q129 0 155 152l11 63h-1q-48 -76 -146 -76q-67 0 -102 40t-35 110q0 49 13 115.5t35 110.5q54 114 172 114zM273 439q-86 0 -128 -86q-43 -88 -43 -197q0 -111 103 -111q85 0 128 85q16 32 29 96.5t13 101.5q0 50 -26 80.5
t-76 30.5z" />
    <glyph glyph-name="Hcircumflex" unicode="&#x124;" horiz-adv-x="665" 
d="M438 896h20q8 0 13 -9l65 -122q6 -10 -4 -10h-19q-10 0 -16 9l-52 91h-2l-86 -91q-8 -9 -18 -9h-23q-4 0 -5 3t3 7l107 122q8 9 17 9zM517 680h179q10 0 8 -10l-5 -26q-1 -10 -12 -10h-57q-6 0 -7 -6l-101 -575q-1 -7 5 -7h58q10 0 8 -10l-5 -26q-1 -10 -12 -10h-179
q-10 0 -8 10l5 26q1 10 12 10h57q5 0 7 6l46 262q2 6 -5 6h-321q-6 0 -7 -6l-46 -262q-1 -6 5 -6h58q10 0 8 -10l-5 -26q-1 -10 -12 -10h-179q-10 0 -8 10l5 26q1 10 11 10h57q7 0 8 6l101 576q2 6 -5 6h-58q-10 0 -8 10l5 26q1 10 11 10h180q10 0 8 -10l-5 -26
q-1 -10 -12 -10h-56q-6 0 -8 -6l-44 -251q-1 -7 5 -7h321q6 0 7 6l44 252q1 6 -4 6h-59q-10 0 -8 10l5 26q1 10 12 10z" />
    <glyph glyph-name="uni0125" unicode="&#x125;" horiz-adv-x="562" 
d="M392 896h20q8 0 13 -9l65 -122q6 -10 -4 -10h-19q-10 0 -16 9l-52 91h-2l-86 -91q-8 -9 -18 -9h-23q-4 0 -5 3t3 7l107 122q8 9 17 9zM136 680h101q10 0 8 -10l-46 -259h1q52 76 147 76q65 0 98.5 -34.5t33.5 -98.5q0 -26 -9 -74l-41 -228q-1 -6 5 -6h53q10 0 8 -10
l-5 -26q-1 -10 -12 -10h-169q-10 0 -8 10l5 26q1 10 11 10h54q7 0 8 6l41 228q7 40 7 62q0 97 -98 97q-51 0 -94.5 -37.5t-54.5 -97.5l-44 -252q-2 -6 5 -6h55q10 0 8 -10l-5 -26q-1 -10 -12 -10h-171q-10 0 -8 10l5 26q1 10 12 10h53q6 0 7 6l102 576q1 6 -5 6h-55
q-10 0 -8 10l5 26q1 10 12 10z" />
    <glyph glyph-name="Hbar" unicode="&#x126;" horiz-adv-x="666" 
d="M517 680h179q10 0 8 -10l-5 -26q-1 -10 -12 -10h-57q-6 0 -7 -6l-16 -90q-1 -6 5 -6h38q10 0 8 -10l-3 -24q-2 -10 -12 -10h-39q-6 0 -7 -6l-75 -430q-2 -6 4 -6h59q10 0 8 -10l-5 -26q-1 -10 -12 -10h-179q-10 0 -8 10l5 26q1 10 12 10h57q5 0 7 6l46 262q2 6 -5 6h-321
q-6 0 -7 -6l-46 -262q-1 -6 5 -6h58q10 0 8 -10l-5 -26q-1 -10 -12 -10h-179q-10 0 -8 10l5 26q1 10 11 10h57q7 0 8 6l76 430q1 6 -5 6h-39q-10 0 -8 10l4 24q2 10 11 10h39q5 0 7 6l16 90q2 6 -5 6h-58q-10 0 -8 10l5 26q1 10 11 10h180q10 0 8 -10l-5 -26q-1 -10 -12 -10
h-56q-6 0 -8 -6l-16 -90q-2 -6 5 -6h322q5 0 7 6l15 90q1 6 -4 6h-59q-10 0 -8 10l5 26q1 10 12 10zM541 488h-322q-5 0 -7 -6l-18 -106q-2 -6 5 -6h321q6 0 7 6l19 106q2 6 -5 6z" />
    <glyph glyph-name="hbar" unicode="&#x127;" horiz-adv-x="562" 
d="M136 680h101q10 0 8 -10l-15 -84q-2 -6 5 -6h124q10 0 8 -10l-4 -24q-1 -9 -12 -9h-124q-6 0 -7 -7l-21 -119h1q52 76 147 76q65 0 98.5 -34.5t33.5 -98.5q0 -26 -9 -74l-41 -228q-1 -6 5 -6h53q10 0 8 -10l-5 -26q-1 -10 -12 -10h-169q-10 0 -8 10l5 26q1 10 11 10h54
q7 0 8 6l41 228q7 40 7 62q0 97 -98 97q-51 0 -94.5 -37.5t-54.5 -97.5l-44 -252q-2 -6 5 -6h55q10 0 8 -10l-5 -26q-1 -10 -12 -10h-171q-10 0 -8 10l5 26q1 10 12 10h54q5 0 7 6l84 479q2 6 -5 6h-32q-10 0 -8 10l4 23q1 10 12 10h32q5 0 7 6l7 42q1 6 -5 6h-55
q-10 0 -8 10l5 26q1 10 12 10z" />
    <glyph glyph-name="Itilde" unicode="&#x128;" horiz-adv-x="280" 
d="M208 865q26 0 54 -21q25 -18 44 -18q27 0 62 33q3 3 6 2t2 -5l-5 -29q-1 -9 -10 -16q-29 -27 -64 -27q-27 0 -54 20q-23 18 -44 18q-28 0 -61 -33q-3 -3 -6 -1.5t-2 4.5l4 30q1 8 10 15q28 28 64 28zM131 680h180q10 0 8 -10l-5 -26q-1 -10 -12 -10h-56q-6 0 -8 -6
l-101 -576q-1 -6 5 -6h58q10 0 8 -10l-5 -26q-1 -10 -12 -10h-179q-10 0 -8 10l5 26q1 10 11 10h57q7 0 8 6l101 576q2 6 -5 6h-58q-10 0 -8 10l5 26q1 10 11 10z" />
    <glyph glyph-name="itilde" unicode="&#x129;" horiz-adv-x="274" 
d="M149 679q27 0 54 -20q23 -18 44 -18q28 0 61 33q3 3 6 1.5t2 -4.5l-4 -30q-3 -9 -10 -15q-30 -28 -64 -28q-26 0 -54 21q-27 18 -44 18q-27 0 -62 -33q-3 -3 -6 -2t-2 5l5 29q1 8 9 16q30 27 65 27zM100 477h101q10 0 8 -10l-73 -415q-2 -6 5 -6h55q10 0 8 -10l-5 -26
q-1 -10 -12 -10h-171q-10 0 -8 10l5 26q1 10 12 10h53q6 0 7 6l66 372q1 7 -5 7h-55q-10 0 -8 10l5 26q2 10 12 10z" />
    <glyph glyph-name="Imacron" unicode="&#x12a;" horiz-adv-x="280" 
d="M140 845h233q10 0 8 -10l-3 -23q-2 -10 -11 -10h-234q-10 0 -8 10l4 23q1 10 11 10zM131 680h180q10 0 8 -10l-5 -26q-1 -10 -12 -10h-56q-6 0 -8 -6l-101 -576q-1 -6 5 -6h58q10 0 8 -10l-5 -26q-1 -10 -12 -10h-179q-10 0 -8 10l5 26q1 10 11 10h57q7 0 8 6l101 576
q2 6 -5 6h-58q-10 0 -8 10l5 26q1 10 11 10z" />
    <glyph glyph-name="imacron" unicode="&#x12b;" horiz-adv-x="274" 
d="M84 664h234q10 0 8 -10l-4 -22q-1 -10 -11 -10h-234q-10 0 -8 10l4 22q1 10 11 10zM100 477h101q10 0 8 -10l-73 -415q-2 -6 5 -6h55q10 0 8 -10l-5 -26q-1 -10 -12 -10h-171q-10 0 -8 10l5 26q1 10 12 10h53q6 0 7 6l66 372q1 7 -5 7h-55q-10 0 -8 10l5 26q2 10 12 10z
" />
    <glyph glyph-name="Ibreve" unicode="&#x12c;" horiz-adv-x="280" 
d="M357 881h17q10 0 7 -10q-15 -46 -51.5 -74t-84.5 -28t-75 28t-26 74q0 10 10 10h16q9 0 11 -10q5 -62 70 -62q64 0 93 62q5 10 13 10zM131 680h180q10 0 8 -10l-5 -26q-1 -10 -12 -10h-56q-6 0 -8 -6l-101 -576q-1 -6 5 -6h58q10 0 8 -10l-5 -26q-1 -10 -12 -10h-179
q-10 0 -8 10l5 26q1 10 11 10h57q7 0 8 6l101 576q2 6 -5 6h-58q-10 0 -8 10l5 26q1 10 11 10z" />
    <glyph glyph-name="ibreve" unicode="&#x12d;" horiz-adv-x="274" 
d="M304 684h17q10 0 7 -10q-15 -46 -51.5 -74t-84.5 -28t-75 28t-26 74q0 10 10 10h16q9 0 11 -10q5 -62 70 -62q64 0 93 62q5 10 13 10zM100 477h101q10 0 8 -10l-73 -415q-2 -6 5 -6h55q10 0 8 -10l-5 -26q-1 -10 -12 -10h-171q-10 0 -8 10l5 26q1 10 12 10h53q6 0 7 6
l66 372q1 7 -5 7h-55q-10 0 -8 10l5 26q2 10 12 10z" />
    <glyph glyph-name="Iogonek" unicode="&#x12e;" horiz-adv-x="280" 
d="M131 680h180q10 0 8 -10l-5 -26q-1 -10 -12 -10h-56q-6 0 -8 -6l-101 -576q-1 -6 5 -6h58q10 0 8 -10l-5 -26q-1 -10 -12 -10h-66q-79 -68 -79 -104q0 -23 24 -23q12 0 29 9q9 5 12 -3l6 -19q2 -6 -6 -13q-23 -17 -55 -17q-25 0 -40.5 14.5t-15.5 39.5q0 53 74 116h-62
q-10 0 -8 10l5 26q1 10 11 10h57q7 0 8 6l101 576q2 6 -5 6h-58q-10 0 -8 10l5 26q1 10 11 10z" />
    <glyph glyph-name="uni012F" unicode="&#x12f;" horiz-adv-x="274" 
d="M201 680h41q10 0 8 -10l-10 -53q-2 -10 -11 -10h-41q-10 0 -8 10l10 53q2 10 11 10zM100 477h101q10 0 8 -10l-73 -415q-2 -6 5 -6h55q10 0 8 -10l-5 -26q-1 -10 -12 -10h-62q-79 -68 -79 -104q0 -23 24 -23q12 0 29 9q9 5 12 -3l6 -19q3 -7 -6 -13q-25 -17 -55 -17
q-25 0 -40.5 14.5t-15.5 39.5q0 53 74 116h-58q-10 0 -8 10l5 26q1 10 12 10h53q6 0 7 6l66 372q1 7 -5 7h-55q-10 0 -8 10l5 26q2 10 12 10z" />
    <glyph glyph-name="Idotaccent" unicode="&#x130;" horiz-adv-x="280" 
d="M233 861h42q10 0 8 -10l-9 -54q-2 -10 -11 -10h-42q-10 0 -8 10l9 54q2 10 11 10zM131 680h180q10 0 8 -10l-5 -26q-1 -10 -12 -10h-56q-6 0 -8 -6l-101 -576q-1 -6 5 -6h58q10 0 8 -10l-5 -26q-1 -10 -12 -10h-179q-10 0 -8 10l5 26q1 10 11 10h57q7 0 8 6l101 576
q2 6 -5 6h-58q-10 0 -8 10l5 26q1 10 11 10z" />
    <glyph glyph-name="dotlessi" unicode="&#x131;" horiz-adv-x="274" 
d="M100 477h101q10 0 8 -10l-73 -415q-2 -6 5 -6h55q10 0 8 -10l-5 -26q-1 -10 -12 -10h-171q-10 0 -8 10l5 26q1 10 12 10h53q6 0 7 6l66 372q1 7 -5 7h-55q-10 0 -8 10l5 26q2 10 12 10z" />
    <glyph glyph-name="IJ" unicode="&#x132;" horiz-adv-x="743" 
d="M131 680h180q10 0 8 -10l-5 -26q-1 -10 -12 -10h-56q-6 0 -8 -6l-101 -576q-1 -6 5 -6h58q10 0 8 -10l-5 -26q-1 -10 -12 -10h-179q-10 0 -8 10l5 26q1 10 11 10h57q7 0 8 6l101 576q2 6 -5 6h-58q-10 0 -8 10l5 26q1 10 11 10zM615 680h179q10 0 8 -10l-5 -26
q-1 -10 -11 -10h-57q-7 0 -8 -6l-75 -428q-19 -112 -75 -161t-146 -49q-85 0 -134 39q-7 6 -6 14l18 100q2 10 11 10h33q10 0 8 -10l-13 -71q-1 -6 4 -10q31 -21 84 -21q135 0 164 161l75 426q1 6 -5 6h-58q-10 0 -8 10l5 26q1 10 12 10z" />
    <glyph glyph-name="ij" unicode="&#x133;" horiz-adv-x="543" 
d="M201 680h41q10 0 8 -10l-10 -53q-2 -10 -11 -10h-41q-10 0 -8 10l10 53q2 10 11 10zM472 680h42q9 0 7 -10l-10 -53q-2 -10 -12 -10h-40q-10 0 -8 10l10 53q2 10 11 10zM100 477h101q10 0 8 -10l-73 -415q-2 -6 5 -6h55q10 0 8 -10l-5 -26q-1 -10 -12 -10h-171
q-10 0 -8 10l5 26q1 10 12 10h53q6 0 7 6l66 372q1 7 -5 7h-55q-10 0 -8 10l5 26q2 10 12 10zM371 477h101q10 0 8 -10l-92 -523q-13 -72 -42.5 -98t-96.5 -26h-11q-10 0 -8 10l5 28q1 10 12 10h8q39 0 57 16t25 60l85 480q1 7 -5 7h-55q-10 0 -8 10l5 26q2 10 12 10z" />
    <glyph glyph-name="Jcircumflex" unicode="&#x134;" horiz-adv-x="463" 
d="M450 896h20q8 0 13 -9l65 -122q6 -10 -4 -10h-19q-10 0 -16 9l-52 91h-2l-86 -91q-8 -9 -18 -9h-23q-4 0 -5 3t3 7l107 122q8 9 17 9zM335 680h179q10 0 8 -10l-5 -26q-1 -10 -11 -10h-57q-7 0 -8 -6l-75 -428q-19 -112 -75 -161t-146 -49q-85 0 -134 39q-7 6 -6 14
l18 100q2 10 11 10h33q10 0 8 -10l-13 -71q-1 -6 4 -10q31 -21 84 -21q135 0 164 161l75 426q1 6 -5 6h-58q-10 0 -8 10l5 26q1 10 12 10z" />
    <glyph glyph-name="jcircumflex" unicode="&#x135;" horiz-adv-x="269" 
d="M198 700h20q8 0 13 -9l65 -122q6 -10 -4 -10h-20q-9 0 -15 9l-52 91h-2l-86 -91q-9 -9 -19 -9h-22q-4 0 -5 3t3 7l107 122q8 9 17 9zM97 477h101q10 0 8 -10l-92 -523q-13 -72 -42.5 -98t-96.5 -26h-11q-10 0 -8 10l5 28q1 10 12 10h8q39 0 57 16t25 60l85 480q1 7 -5 7
h-55q-10 0 -8 10l5 26q2 10 12 10z" />
    <glyph glyph-name="Kcommaaccent" unicode="&#x136;" horiz-adv-x="607" 
d="M474 680h179q10 0 8 -10l-5 -26q-1 -10 -11 -10h-52q-6 0 -12 -6l-215 -215l127 -361q2 -6 7 -6h66q10 0 8 -10l-5 -26q-1 -10 -11 -10h-94q-9 0 -12 10l-127 362l-160 -160l-28 -160q-1 -6 5 -6h58q10 0 8 -10l-5 -26q-1 -10 -12 -10h-179q-10 0 -8 10l5 26q1 10 11 10
h57q7 0 8 6l101 576q2 6 -5 6h-58q-10 0 -8 10l5 26q1 10 11 10h180q10 0 8 -10l-5 -26q-1 -10 -12 -10h-57q-5 0 -7 -6l-58 -335l333 334q2 2 1.5 4.5t-4.5 2.5h-45q-10 0 -8 10l5 26q1 10 12 10zM263 -55h35q10 0 8 -10l-7 -45q-2 -9 -9 -22l-40 -56q-6 -8 -12 -8
q-10 0 -8 10l21 121q2 10 12 10z" />
    <glyph glyph-name="kcommaaccent" unicode="&#x137;" horiz-adv-x="524" 
d="M136 680h101q10 0 8 -10l-80 -451l247 248q10 10 18 10h75q10 0 8 -10l-5 -26q-1 -10 -11 -10h-52q-6 0 -11 -5l-125 -125l99 -250q2 -5 8 -5h54q10 0 8 -10l-5 -26q-1 -10 -12 -10h-76q-10 0 -14 10l-99 254l-120 -120l-16 -92q-2 -6 5 -6h55q10 0 8 -10l-5 -26
q-1 -10 -12 -10h-171q-10 0 -8 10l5 26q1 10 12 10h54q5 0 7 6l101 576q1 6 -5 6h-55q-10 0 -8 10l5 26q1 10 12 10zM224 -55h35q10 0 8 -10l-7 -45q-2 -9 -9 -22l-40 -56q-6 -8 -12 -8q-10 0 -8 10l21 121q2 10 12 10z" />
    <glyph glyph-name="kgreenlandic" unicode="&#x138;" horiz-adv-x="524" 
d="M430 477h75q10 0 8 -10l-5 -27q-1 -10 -11 -10h-52q-6 0 -11 -5l-124 -124l98 -249q2 -5 8 -5h54q10 0 8 -10l-5 -27q-1 -10 -12 -10h-76q-10 0 -14 10l-98 254l-121 -120l-16 -92q-2 -6 5 -6h55q10 0 8 -10l-5 -26q-1 -10 -12 -10h-171q-10 0 -8 10l5 26q1 10 12 10h54
q5 0 7 6l65 373q1 6 -5 6h-55q-10 0 -8 10l5 26q1 10 12 10h101q10 0 8 -10l-44 -248l247 248q10 10 18 10z" />
    <glyph glyph-name="Lacute" unicode="&#x139;" horiz-adv-x="525" 
d="M336 888h36q5 0 6 -3t-3 -7l-107 -104q-10 -10 -19 -10h-24q-11 0 -2 11l94 103q10 10 19 10zM132 680h179q10 0 8 -10l-5 -26q-1 -10 -12 -10h-55q-7 0 -8 -6l-101 -572q-2 -6 4 -6h273q7 0 8 6l12 67q2 10 11 10h31q10 0 8 -10l-20 -113q-1 -10 -12 -10h-441
q-10 0 -8 10l5 26q1 10 12 10h56q7 0 8 6l101 576q2 6 -5 6h-58q-10 0 -8 10l5 26q1 10 12 10z" />
    <glyph glyph-name="lacute" unicode="&#x13a;" horiz-adv-x="255" 
d="M310 888h36q5 0 6 -3t-3 -7l-107 -104q-10 -10 -19 -10h-24q-11 0 -2 11l94 103q10 10 19 10zM114 680h101q10 0 8 -10l-101 -552q-5 -25 -5 -37q0 -36 41 -36h16q10 0 8 -10l-4 -27q-1 -10 -12 -10h-22q-78 0 -78 70q0 19 5 44l94 515q1 7 -5 7h-55q-10 0 -8 10l5 26
q1 10 12 10z" />
    <glyph glyph-name="Lcommaaccent" unicode="&#x13b;" horiz-adv-x="525" 
d="M132 680h179q10 0 8 -10l-5 -26q-1 -10 -12 -10h-55q-7 0 -8 -6l-101 -572q-2 -6 4 -6h273q7 0 8 6l12 67q2 10 11 10h31q10 0 8 -10l-20 -113q-1 -10 -12 -10h-441q-10 0 -8 10l5 26q1 10 12 10h56q7 0 8 6l101 576q2 6 -5 6h-58q-10 0 -8 10l5 26q1 10 12 10zM237 -55
h35q10 0 8 -10l-7 -45q-2 -9 -9 -22l-40 -56q-6 -8 -12 -8q-10 0 -8 10l21 121q2 10 12 10z" />
    <glyph glyph-name="lcommaaccent" unicode="&#x13c;" horiz-adv-x="255" 
d="M114 680h101q10 0 8 -10l-101 -552q-5 -25 -5 -37q0 -36 41 -36h16q10 0 8 -10l-4 -27q-1 -10 -12 -10h-22q-78 0 -78 70q0 19 5 44l94 515q1 7 -5 7h-55q-10 0 -8 10l5 26q1 10 12 10zM82 -55h35q10 0 8 -10l-7 -45q-2 -9 -9 -22l-40 -56q-6 -8 -12 -8q-10 0 -8 10
l21 121q2 10 12 10z" />
    <glyph glyph-name="Lcaron" unicode="&#x13d;" horiz-adv-x="525" 
d="M132 680h179q10 0 8 -10l-5 -26q-1 -10 -12 -10h-55q-7 0 -8 -6l-101 -572q-2 -6 4 -6h273q7 0 8 6l12 67q2 10 11 10h31q10 0 8 -10l-20 -113q-1 -10 -12 -10h-441q-10 0 -8 10l5 26q1 10 12 10h56q7 0 8 6l101 576q2 6 -5 6h-58q-10 0 -8 10l5 26q1 10 12 10zM368 680
h36q10 0 8 -10l-8 -46q-3 -14 -8 -21l-40 -57q-6 -8 -13 -8q-9 0 -7 10l21 122q2 10 11 10z" />
    <glyph glyph-name="lcaron" unicode="&#x13e;" horiz-adv-x="255" 
d="M114 680h101q10 0 8 -10l-101 -552q-5 -25 -5 -37q0 -36 41 -36h16q10 0 8 -10l-4 -27q-1 -10 -12 -10h-22q-78 0 -78 70q0 19 5 44l94 515q1 7 -5 7h-55q-10 0 -8 10l5 26q1 10 12 10zM289 680h36q10 0 8 -10l-8 -46q-3 -14 -8 -21l-40 -57q-6 -8 -13 -8q-9 0 -7 10
l21 122q2 10 11 10z" />
    <glyph glyph-name="Ldot" unicode="&#x13f;" horiz-adv-x="525" 
d="M132 680h179q10 0 8 -10l-5 -26q-1 -10 -12 -10h-55q-7 0 -8 -6l-101 -572q-2 -6 4 -6h273q7 0 8 6l12 67q2 10 11 10h31q10 0 8 -10l-20 -113q-1 -10 -12 -10h-441q-10 0 -8 10l5 26q1 10 12 10h56q7 0 8 6l101 576q2 6 -5 6h-58q-10 0 -8 10l5 26q1 10 12 10zM396 368
h45q10 0 8 -10l-10 -65q-2 -10 -11 -10h-46q-10 0 -8 10l11 65q2 10 11 10z" />
    <glyph glyph-name="ldot" unicode="&#x140;" horiz-adv-x="255" 
d="M114 680h101q10 0 8 -10l-101 -552q-5 -25 -5 -37q0 -36 41 -36h16q10 0 8 -10l-4 -27q-1 -10 -12 -10h-22q-78 0 -78 70q0 19 5 44l94 515q1 7 -5 7h-55q-10 0 -8 10l5 26q1 10 12 10zM257 372h45q10 0 8 -10l-10 -65q-2 -10 -11 -10h-46q-10 0 -8 10l11 65q2 10 11 10z
" />
    <glyph glyph-name="Lslash" unicode="&#x141;" horiz-adv-x="525" 
d="M132 680h179q10 0 8 -10l-5 -26q-1 -10 -12 -10h-55q-7 0 -8 -6l-45 -254l167 81q5 2 7.5 0t1.5 -6l-6 -32q-2 -9 -11 -14l-168 -82l-47 -265q-2 -6 4 -6h273q7 0 8 6l12 67q2 10 11 10h31q10 0 8 -10l-20 -113q-1 -10 -12 -10h-441q-10 0 -8 10l5 26q1 10 12 10h56
q7 0 8 6l42 241l-59 -29q-4 -2 -7 -0.5t-2 6.5l6 32q1 9 11 14l60 29l50 283q2 6 -5 6h-58q-10 0 -8 10l5 26q1 10 12 10z" />
    <glyph glyph-name="lslash" unicode="&#x142;" horiz-adv-x="255" 
d="M114 680h101q10 0 8 -10l-49 -268l59 29q5 2 8 0.5t2 -6.5l-4 -28q-2 -9 -12 -15l-62 -31l-43 -233q-5 -25 -5 -37q0 -36 41 -36h16q10 0 8 -10l-4 -27q-1 -10 -12 -10h-22q-78 0 -78 70q0 19 5 44l39 213l-41 -20q-5 -2 -8 -0.5t-2 6.5l4 28q1 10 13 15l43 21l46 252
q1 7 -5 7h-55q-10 0 -8 10l5 26q1 10 12 10z" />
    <glyph glyph-name="Nacute" unicode="&#x143;" horiz-adv-x="668" 
d="M504 888h36q5 0 6 -3t-3 -7l-107 -104q-10 -10 -19 -10h-24q-11 0 -2 11l94 103q10 10 19 10zM521 680h178q10 0 8 -10l-5 -26q-1 -10 -12 -10h-57q-5 0 -7 -6l-109 -618q-2 -10 -11 -10h-31q-10 0 -14 10l-230 570h-3l-93 -528q-1 -6 5 -6h58q10 0 8 -10l-5 -26
q-1 -10 -11 -10h-178q-10 0 -8 10l5 26q1 10 11 10h57q7 0 8 6l101 576q2 6 -5 6h-58q-10 0 -8 10l5 26q1 10 11 10h104q10 0 14 -10l231 -568h3l93 526q2 6 -5 6h-58q-10 0 -8 10l5 26q1 10 11 10z" />
    <glyph glyph-name="nacute" unicode="&#x144;" horiz-adv-x="562" 
d="M415 700h34q5 0 6 -3t-2 -7l-106 -122q-10 -10 -18 -10h-22q-11 0 -3 10l92 122q8 10 19 10zM347 487q65 0 98.5 -34.5t33.5 -98.5q0 -24 -9 -74l-41 -228q-1 -6 5 -6h53q10 0 8 -10l-4 -26q-1 -10 -12 -10h-170q-10 0 -8 10l5 26q1 10 11 10h54q7 0 8 6l41 228
q7 44 7 61q0 98 -98 98q-51 0 -94.5 -37.5t-54.5 -97.5l-44 -252q-2 -6 5 -6h55q10 0 8 -10l-5 -26q-1 -10 -12 -10h-171q-10 0 -8 10l5 26q1 10 12 10h53q6 0 7 6l66 372q1 7 -5 7h-55q-10 0 -8 10l5 26q2 10 12 10h101q10 0 8 -10l-10 -56h1q52 76 147 76z" />
    <glyph glyph-name="Ncommaaccent" unicode="&#x145;" horiz-adv-x="668" 
d="M521 680h178q10 0 8 -10l-5 -26q-1 -10 -12 -10h-57q-5 0 -7 -6l-109 -618q-2 -10 -11 -10h-31q-10 0 -14 10l-230 570h-3l-93 -528q-1 -6 5 -6h58q10 0 8 -10l-5 -26q-1 -10 -11 -10h-178q-10 0 -8 10l5 26q1 10 11 10h57q7 0 8 6l101 576q2 6 -5 6h-58q-10 0 -8 10
l5 26q1 10 11 10h104q10 0 14 -10l231 -568h3l93 526q2 6 -5 6h-58q-10 0 -8 10l5 26q1 10 11 10zM281 -55h35q10 0 8 -10l-7 -45q-2 -9 -9 -22l-40 -56q-6 -8 -12 -8q-10 0 -8 10l21 121q2 10 12 10z" />
    <glyph glyph-name="ncommaaccent" unicode="&#x146;" horiz-adv-x="562" 
d="M347 487q65 0 98.5 -34.5t33.5 -98.5q0 -24 -9 -74l-41 -228q-1 -6 5 -6h53q10 0 8 -10l-4 -26q-1 -10 -12 -10h-170q-10 0 -8 10l5 26q1 10 11 10h54q7 0 8 6l41 228q7 44 7 61q0 98 -98 98q-51 0 -94.5 -37.5t-54.5 -97.5l-44 -252q-2 -6 5 -6h55q10 0 8 -10l-5 -26
q-1 -10 -12 -10h-171q-10 0 -8 10l5 26q1 10 12 10h53q6 0 7 6l66 372q1 7 -5 7h-55q-10 0 -8 10l5 26q2 10 12 10h101q10 0 8 -10l-10 -56h1q52 76 147 76zM228 -55h35q10 0 8 -10l-7 -45q-2 -9 -9 -22l-40 -56q-6 -8 -12 -8q-10 0 -8 10l21 121q2 10 12 10z" />
    <glyph glyph-name="Ncaron" unicode="&#x147;" horiz-adv-x="668" 
d="M533 895h22q5 0 6 -3t-3 -7l-107 -122q-8 -9 -17 -9h-20q-8 0 -13 9l-66 122q-2 4 -0.5 7t5.5 3h19q10 0 15 -9l53 -90h2l86 90q8 9 18 9zM521 680h178q10 0 8 -10l-5 -26q-1 -10 -12 -10h-57q-5 0 -7 -6l-109 -618q-2 -10 -11 -10h-31q-10 0 -14 10l-230 570h-3
l-93 -528q-1 -6 5 -6h58q10 0 8 -10l-5 -26q-1 -10 -11 -10h-178q-10 0 -8 10l5 26q1 10 11 10h57q7 0 8 6l101 576q2 6 -5 6h-58q-10 0 -8 10l5 26q1 10 11 10h104q10 0 14 -10l231 -568h3l93 526q2 6 -5 6h-58q-10 0 -8 10l5 26q1 10 11 10z" />
    <glyph glyph-name="ncaron" unicode="&#x148;" horiz-adv-x="562" 
d="M448 700h22q4 0 5 -3t-3 -7l-107 -122q-8 -9 -17 -9h-20q-9 0 -13 9l-65 122q-6 10 4 10h20q9 0 15 -10l52 -90h2l86 90q9 10 19 10zM347 487q65 0 98.5 -34.5t33.5 -98.5q0 -24 -9 -74l-41 -228q-1 -6 5 -6h53q10 0 8 -10l-4 -26q-1 -10 -12 -10h-170q-10 0 -8 10l5 26
q1 10 11 10h54q7 0 8 6l41 228q7 44 7 61q0 98 -98 98q-51 0 -94.5 -37.5t-54.5 -97.5l-44 -252q-2 -6 5 -6h55q10 0 8 -10l-5 -26q-1 -10 -12 -10h-171q-10 0 -8 10l5 26q1 10 12 10h53q6 0 7 6l66 372q1 7 -5 7h-55q-10 0 -8 10l5 26q2 10 12 10h101q10 0 8 -10l-10 -56h1
q52 76 147 76z" />
    <glyph glyph-name="uni0149" unicode="&#x149;" horiz-adv-x="562" 
d="M113 680h36q10 0 8 -10l-8 -46q-3 -14 -8 -21l-40 -57q-6 -8 -13 -8q-9 0 -7 10l21 122q2 10 11 10zM347 487q65 0 98.5 -34.5t33.5 -98.5q0 -24 -9 -74l-41 -228q-1 -6 5 -6h53q10 0 8 -10l-4 -26q-1 -10 -12 -10h-170q-10 0 -8 10l5 26q1 10 11 10h54q7 0 8 6l41 228
q7 44 7 61q0 98 -98 98q-51 0 -94.5 -37.5t-54.5 -97.5l-44 -252q-2 -6 5 -6h55q10 0 8 -10l-5 -26q-1 -10 -12 -10h-171q-10 0 -8 10l5 26q1 10 12 10h53q6 0 7 6l66 372q1 7 -5 7h-55q-10 0 -8 10l5 26q2 10 12 10h101q10 0 8 -10l-10 -56h1q52 76 147 76z" />
    <glyph glyph-name="Eng" unicode="&#x14a;" horiz-adv-x="668" 
d="M521 680h178q10 0 8 -10l-5 -26q-1 -10 -12 -10h-57q-5 0 -7 -6l-117 -659q-13 -78 -53 -113.5t-112 -35.5h-12q-10 0 -8 10l5 30q1 10 12 10h11q45 0 70.5 22t35.5 73l7 35l-234 580h-3l-93 -528q-1 -6 5 -6h58q10 0 8 -10l-5 -26q-1 -10 -11 -10h-178q-10 0 -8 10l5 26
q1 10 11 10h57q7 0 8 6l101 576q2 6 -5 6h-58q-10 0 -8 10l5 26q1 10 11 10h104q10 0 14 -10l231 -568h3l93 526q2 6 -5 6h-58q-10 0 -8 10l5 26q1 10 11 10z" />
    <glyph glyph-name="eng" unicode="&#x14b;" horiz-adv-x="542" 
d="M347 487q65 0 98.5 -34t33.5 -98q0 -25 -8 -71l-61 -341q-12 -68 -43 -95.5t-95 -27.5h-11q-10 0 -8 10l5 28q1 10 12 10h8q39 0 56.5 15t25.5 59l58 329q9 47 9 70q0 98 -98 98q-51 0 -94.5 -37.5t-54.5 -97.5l-44 -252q-2 -6 5 -6h55q10 0 8 -10l-5 -26q-1 -10 -12 -10
h-171q-10 0 -8 10l5 26q1 10 12 10h53q6 0 7 6l66 372q1 7 -5 7h-55q-10 0 -8 10l5 26q2 10 12 10h101q10 0 8 -10l-10 -56h1q52 76 147 76z" />
    <glyph glyph-name="Omacron" unicode="&#x14c;" horiz-adv-x="586" 
d="M286 845h233q10 0 8 -10l-3 -23q-2 -10 -11 -10h-234q-10 0 -8 10l4 23q1 10 11 10zM374 690q88 0 137 -50.5t49 -142.5q0 -63 -22.5 -183t-49.5 -174q-74 -150 -237 -150q-88 0 -137 50.5t-49 142.5q0 63 22.5 183t49.5 174q74 150 237 150zM366 639q-123 0 -180 -116
q-25 -52 -46.5 -163.5t-21.5 -170.5q0 -71 36 -109.5t105 -38.5q123 0 180 116q25 52 46.5 163.5t21.5 170.5q0 71 -36.5 109.5t-104.5 38.5z" />
    <glyph glyph-name="omacron" unicode="&#x14d;" horiz-adv-x="486" 
d="M205 664h234q10 0 8 -10l-4 -22q-1 -10 -11 -10h-234q-10 0 -8 10l4 22q1 10 11 10zM288 487q74 0 113.5 -43t39.5 -118q0 -51 -14.5 -116t-32.5 -102q-56 -118 -191 -118q-74 0 -113.5 43t-39.5 118q0 51 14.5 116t32.5 102q56 118 191 118zM280 439q-93 0 -138 -91
q-14 -28 -27.5 -87.5t-13.5 -99.5q0 -123 110 -123q93 0 138 91q14 28 27.5 87.5t13.5 99.5q0 123 -110 123z" />
    <glyph glyph-name="Obreve" unicode="&#x14e;" horiz-adv-x="586" 
d="M503 881h17q10 0 7 -10q-15 -46 -51.5 -74t-84.5 -28t-75 28t-26 74q0 10 10 10h16q9 0 11 -10q5 -62 70 -62q64 0 93 62q5 10 13 10zM374 690q88 0 137 -50.5t49 -142.5q0 -63 -22.5 -183t-49.5 -174q-74 -150 -237 -150q-88 0 -137 50.5t-49 142.5q0 63 22.5 183
t49.5 174q74 150 237 150zM366 639q-123 0 -180 -116q-25 -52 -46.5 -163.5t-21.5 -170.5q0 -71 36 -109.5t105 -38.5q123 0 180 116q25 52 46.5 163.5t21.5 170.5q0 71 -36.5 109.5t-104.5 38.5z" />
    <glyph glyph-name="obreve" unicode="&#x14f;" horiz-adv-x="486" 
d="M427 684h17q10 0 7 -10q-15 -46 -51.5 -74t-84.5 -28t-75 28t-26 74q0 10 10 10h16q9 0 11 -10q5 -62 70 -62q64 0 93 62q5 10 13 10zM288 487q74 0 113.5 -43t39.5 -118q0 -51 -14.5 -116t-32.5 -102q-56 -118 -191 -118q-74 0 -113.5 43t-39.5 118q0 51 14.5 116
t32.5 102q56 118 191 118zM280 439q-93 0 -138 -91q-14 -28 -27.5 -87.5t-13.5 -99.5q0 -123 110 -123q93 0 138 91q14 28 27.5 87.5t13.5 99.5q0 123 -110 123z" />
    <glyph glyph-name="Ohungarumlaut" unicode="&#x150;" horiz-adv-x="586" 
d="M420 889h28q4 0 5.5 -3t-1.5 -7l-92 -105q-6 -9 -16 -9h-21q-4 0 -5.5 2.5t1.5 7.5l83 104q8 10 18 10zM538 889h27q5 0 6 -3t-2 -7l-91 -105q-6 -9 -16 -9h-21q-4 0 -5.5 2.5t1.5 7.5l83 104q8 10 18 10zM374 690q88 0 137 -50.5t49 -142.5q0 -63 -22.5 -183t-49.5 -174
q-74 -150 -237 -150q-88 0 -137 50.5t-49 142.5q0 63 22.5 183t49.5 174q74 150 237 150zM366 639q-123 0 -180 -116q-25 -52 -46.5 -163.5t-21.5 -170.5q0 -71 36 -109.5t105 -38.5q123 0 180 116q25 52 46.5 163.5t21.5 170.5q0 71 -36.5 109.5t-104.5 38.5z" />
    <glyph glyph-name="ohungarumlaut" unicode="&#x151;" horiz-adv-x="486" 
d="M333 700h28q5 0 6 -3t-2 -7l-94 -122q-6 -9 -16 -9h-21q-11 0 -4 10l86 121q6 10 17 10zM451 700h28q5 0 6 -3t-2 -7l-95 -122q-6 -9 -15 -9h-21q-11 0 -4 10l86 121q6 10 17 10zM288 487q74 0 113.5 -43t39.5 -118q0 -51 -14.5 -116t-32.5 -102q-56 -118 -191 -118
q-74 0 -113.5 43t-39.5 118q0 51 14.5 116t32.5 102q56 118 191 118zM280 439q-93 0 -138 -91q-14 -28 -27.5 -87.5t-13.5 -99.5q0 -123 110 -123q93 0 138 91q14 28 27.5 87.5t13.5 99.5q0 123 -110 123z" />
    <glyph glyph-name="OE" unicode="&#x152;" horiz-adv-x="915" 
d="M374 690q61 0 102 -27.5t55 -78.5h1l16 86q2 10 11 10h366q11 0 9 -10l-19 -111q-2 -10 -11 -10h-31q-10 0 -8 10l11 65q2 6 -5 6h-272q-5 0 -7 -6l-43 -247q-1 -7 6 -7h209q6 0 8 6l9 51q2 10 11 10h32q10 0 8 -10l-29 -165q-2 -10 -11 -10h-31q-11 0 -9 10l9 53
q1 6 -5 6h-211q-5 0 -7 -6l-46 -259q-2 -6 5 -6h272q5 0 7 6l12 67q2 10 11 10h31q10 0 8 -10l-20 -113q-1 -10 -11 -10h-367q-11 0 -9 10l15 82h-1q-64 -102 -194 -102q-88 0 -137 50.5t-49 142.5q0 63 22.5 183t49.5 174q73 150 237 150zM366 639q-123 0 -180 -116
q-25 -52 -46.5 -163.5t-21.5 -170.5q0 -71 36 -109.5t105 -38.5q123 0 180 116q25 52 46.5 163.5t21.5 170.5q0 71 -36.5 109.5t-104.5 38.5z" />
    <glyph glyph-name="oe" unicode="&#x153;" horiz-adv-x="798" 
d="M609 487q67 0 107.5 -41t40.5 -116q0 -38 -10 -93q-2 -10 -12 -10h-297q-6 0 -8 -6q-7 -36 -7 -66q0 -117 113 -117q81 0 141 64q8 8 15 1l16 -18q7 -7 -1 -15q-71 -80 -178 -80q-124 0 -144 108h-1q-59 -108 -181 -108q-75 0 -114 42.5t-39 117.5q0 51 14.5 116
t32.5 103q58 118 191 118q118 0 142 -108h1q28 54 75 81t103 27zM603 440q-95 0 -139 -90q-17 -38 -24 -74q-2 -6 4 -6h252q6 0 8 6q5 30 5 51q0 113 -106 113zM280 439q-92 0 -138 -92q-14 -28 -27.5 -87.5t-13.5 -99.5q0 -122 110 -122q93 0 138 91q14 28 27.5 87.5
t13.5 99.5q0 123 -110 123z" />
    <glyph glyph-name="Racute" unicode="&#x154;" horiz-adv-x="610" 
d="M458 888h36q5 0 6 -3t-3 -7l-107 -104q-10 -10 -19 -10h-24q-11 0 -2 11l94 103q10 10 19 10zM131 680h284q81 0 125.5 -39.5t44.5 -108.5q0 -84 -45.5 -140.5t-126.5 -73.5l72 -266q1 -6 6 -6h60q10 0 8 -10l-5 -26q-1 -10 -11 -10h-90q-8 0 -11 9l-79 302h-174
q-5 0 -7 -6l-45 -253q-1 -6 5 -6h58q10 0 8 -10l-5 -26q-1 -10 -12 -10h-179q-10 0 -8 10l5 26q1 10 11 10h57q7 0 8 6l101 576q2 6 -5 6h-58q-10 0 -8 10l5 26q1 10 11 10zM406 630h-161q-5 0 -7 -6l-46 -257q-2 -6 5 -6h161q82 0 128 44.5t46 119.5q0 105 -126 105z" />
    <glyph glyph-name="racute" unicode="&#x155;" horiz-adv-x="394" 
d="M356 700h34q4 0 5.5 -3t-1.5 -7l-106 -122q-10 -10 -18 -10h-22q-11 0 -3 10l92 122q8 10 19 10zM341 484q34 0 52 -6q9 -3 8 -10l-6 -34q-2 -9 -11 -6q-28 7 -56 7q-60 0 -100 -45.5t-53 -116.5l-39 -221q-2 -6 5 -6h60q10 0 8 -10l-5 -26q-1 -10 -11 -10h-177
q-10 0 -8 10l5 26q1 10 12 10h52q7 0 8 6l66 372q1 7 -5 7h-55q-10 0 -8 10l5 26q2 10 11 10h102q10 0 8 -10l-12 -70h1q21 39 58.5 63t84.5 24z" />
    <glyph glyph-name="Rcommaaccent" unicode="&#x156;" horiz-adv-x="610" 
d="M131 680h284q81 0 125.5 -39.5t44.5 -108.5q0 -84 -45.5 -140.5t-126.5 -73.5l72 -266q1 -6 6 -6h60q10 0 8 -10l-5 -26q-1 -10 -11 -10h-90q-8 0 -11 9l-79 302h-174q-5 0 -7 -6l-45 -253q-1 -6 5 -6h58q10 0 8 -10l-5 -26q-1 -10 -12 -10h-179q-10 0 -8 10l5 26
q1 10 11 10h57q7 0 8 6l101 576q2 6 -5 6h-58q-10 0 -8 10l5 26q1 10 11 10zM406 630h-161q-5 0 -7 -6l-46 -257q-2 -6 5 -6h161q82 0 128 44.5t46 119.5q0 105 -126 105zM252 -55h35q10 0 8 -10l-7 -45q-2 -9 -9 -22l-40 -56q-6 -8 -12 -8q-10 0 -8 10l21 121q2 10 12 10z
" />
    <glyph glyph-name="rcommaaccent" unicode="&#x157;" horiz-adv-x="394" 
d="M341 484q34 0 52 -6q9 -3 8 -10l-6 -34q-2 -9 -11 -6q-28 7 -56 7q-60 0 -100 -45.5t-53 -116.5l-39 -221q-2 -6 5 -6h60q10 0 8 -10l-5 -26q-1 -10 -11 -10h-177q-10 0 -8 10l5 26q1 10 12 10h52q7 0 8 6l66 372q1 7 -5 7h-55q-10 0 -8 10l5 26q2 10 11 10h102
q10 0 8 -10l-12 -70h1q21 39 58.5 63t84.5 24zM71 -55h35q10 0 8 -10l-7 -45q-2 -9 -9 -22l-40 -56q-6 -8 -12 -8q-10 0 -8 10l21 121q2 10 12 10z" />
    <glyph glyph-name="Rcaron" unicode="&#x158;" horiz-adv-x="610" 
d="M488 895h22q5 0 6 -3t-3 -7l-107 -122q-8 -9 -17 -9h-20q-9 0 -13 9l-66 122q-2 4 -0.5 7t5.5 3h19q10 0 15 -9l53 -90h2l86 90q8 9 18 9zM131 680h284q81 0 125.5 -39.5t44.5 -108.5q0 -84 -45.5 -140.5t-126.5 -73.5l72 -266q1 -6 6 -6h60q10 0 8 -10l-5 -26
q-1 -10 -11 -10h-90q-8 0 -11 9l-79 302h-174q-5 0 -7 -6l-45 -253q-1 -6 5 -6h58q10 0 8 -10l-5 -26q-1 -10 -12 -10h-179q-10 0 -8 10l5 26q1 10 11 10h57q7 0 8 6l101 576q2 6 -5 6h-58q-10 0 -8 10l5 26q1 10 11 10zM406 630h-161q-5 0 -7 -6l-46 -257q-2 -6 5 -6h161
q82 0 128 44.5t46 119.5q0 105 -126 105z" />
    <glyph glyph-name="rcaron" unicode="&#x159;" horiz-adv-x="394" 
d="M392 700h22q4 0 5 -3t-3 -7l-107 -122q-8 -9 -17 -9h-20q-9 0 -13 9l-65 122q-6 10 4 10h20q9 0 15 -10l52 -90h2l86 90q9 10 19 10zM341 484q34 0 52 -6q9 -3 8 -10l-6 -34q-2 -9 -11 -6q-28 7 -56 7q-60 0 -100 -45.5t-53 -116.5l-39 -221q-2 -6 5 -6h60q10 0 8 -10
l-5 -26q-1 -10 -11 -10h-177q-10 0 -8 10l5 26q1 10 12 10h52q7 0 8 6l66 372q1 7 -5 7h-55q-10 0 -8 10l5 26q2 10 11 10h102q10 0 8 -10l-12 -70h1q21 39 58.5 63t84.5 24z" />
    <glyph glyph-name="Sacute" unicode="&#x15a;" horiz-adv-x="572" 
d="M473 888h36q5 0 6 -3t-3 -7l-107 -104q-10 -10 -19 -10h-24q-11 0 -2 11l94 103q10 10 19 10zM357 690q106 0 180 -47q7 -4 6 -12l-17 -94q-2 -10 -10 -10h-31q-10 0 -8 10l11 64q1 6 -3 9q-55 30 -131 30q-78 0 -124 -44t-46 -110q0 -50 29 -76.5t103 -36.5l29 -4
q83 -12 120.5 -49t37.5 -101q0 -105 -68.5 -167t-188.5 -62q-119 0 -196 56q-7 6 -6 13l19 102q2 10 11 10h32q10 0 8 -10l-14 -74q-1 -6 3 -9q62 -38 154 -38q86 0 139 47t53 124q0 49 -28.5 74t-102.5 35l-29 4q-160 23 -160 155q0 94 62 152.5t166 58.5z" />
    <glyph glyph-name="sacute" unicode="&#x15b;" horiz-adv-x="461" 
d="M372 700h34q4 0 5.5 -3t-1.5 -7l-106 -122q-10 -10 -18 -10h-22q-11 0 -3 10l92 122q8 10 19 10zM268 487q84 0 141 -35q6 -4 5 -12l-15 -84q-2 -10 -10 -10h-30q-10 0 -8 10l10 59q1 5 -4 8q-41 18 -93 18q-57 0 -92 -28.5t-35 -73.5q0 -31 21 -47t70 -21l45 -5
q115 -12 115 -107q0 -78 -54.5 -123.5t-146.5 -45.5q-91 0 -153 42q-6 4 -5 14l16 88q2 10 10 10h30q11 0 9 -10l-11 -63q-1 -6 3 -9q46 -26 107 -26q66 0 105 31t39 82q0 32 -19.5 48.5t-67.5 21.5l-46 5q-118 14 -118 108q0 70 50 112.5t132 42.5z" />
    <glyph glyph-name="Scircumflex" unicode="&#x15c;" horiz-adv-x="572" 
d="M397 896h20q9 0 13 -9l65 -122q6 -10 -4 -10h-19q-10 0 -16 9l-52 91h-2l-86 -91q-8 -9 -18 -9h-23q-4 0 -5 3t3 7l107 122q8 9 17 9zM357 690q106 0 180 -47q7 -4 6 -12l-17 -94q-2 -10 -10 -10h-31q-10 0 -8 10l11 64q1 6 -3 9q-55 30 -131 30q-78 0 -124 -44t-46 -110
q0 -50 29 -76.5t103 -36.5l29 -4q83 -12 120.5 -49t37.5 -101q0 -105 -68.5 -167t-188.5 -62q-119 0 -196 56q-7 6 -6 13l19 102q2 10 11 10h32q10 0 8 -10l-14 -74q-1 -6 3 -9q62 -38 154 -38q86 0 139 47t53 124q0 49 -28.5 74t-102.5 35l-29 4q-160 23 -160 155
q0 94 62 152.5t166 58.5z" />
    <glyph glyph-name="scircumflex" unicode="&#x15d;" horiz-adv-x="461" 
d="M292 700h20q8 0 13 -9l65 -122q6 -10 -4 -10h-20q-9 0 -15 9l-52 91h-2l-86 -91q-9 -9 -19 -9h-22q-4 0 -5 3t3 7l107 122q8 9 17 9zM268 487q84 0 141 -35q6 -4 5 -12l-15 -84q-2 -10 -10 -10h-30q-10 0 -8 10l10 59q1 5 -4 8q-41 18 -93 18q-57 0 -92 -28.5t-35 -73.5
q0 -31 21 -47t70 -21l45 -5q115 -12 115 -107q0 -78 -54.5 -123.5t-146.5 -45.5q-91 0 -153 42q-6 4 -5 14l16 88q2 10 10 10h30q11 0 9 -10l-11 -63q-1 -6 3 -9q46 -26 107 -26q66 0 105 31t39 82q0 32 -19.5 48.5t-67.5 21.5l-46 5q-118 14 -118 108q0 70 50 112.5
t132 42.5z" />
    <glyph glyph-name="Scedilla" unicode="&#x15e;" horiz-adv-x="572" 
d="M357 690q106 0 180 -47q7 -4 6 -12l-17 -94q-2 -10 -10 -10h-31q-10 0 -8 10l11 64q1 6 -3 9q-55 30 -131 30q-78 0 -124 -44t-46 -110q0 -50 29 -76.5t103 -36.5l29 -4q83 -12 120.5 -49t37.5 -101q0 -99 -60.5 -160t-167.5 -68l-64 -128q-5 -10 -17 -10h-27
q-11 0 -6 10l71 127q-112 5 -182 56q-7 6 -6 13l19 102q2 10 11 10h32q10 0 8 -10l-14 -74q-1 -6 3 -9q62 -38 154 -38q86 0 139 47t53 124q0 49 -28.5 74t-102.5 35l-29 4q-160 23 -160 155q0 94 62 152.5t166 58.5z" />
    <glyph glyph-name="scedilla" unicode="&#x15f;" horiz-adv-x="461" 
d="M268 487q84 0 141 -35q6 -4 5 -12l-15 -84q-2 -10 -10 -10h-30q-10 0 -8 10l10 59q1 5 -4 8q-41 18 -93 18q-57 0 -92 -28.5t-35 -73.5q0 -31 21 -47t70 -21l45 -5q115 -12 115 -107q0 -71 -45.5 -115t-123.5 -52l-65 -129q-5 -10 -17 -10h-27q-11 0 -6 10l71 127
q-86 3 -141 42q-6 4 -5 14l16 88q2 10 10 10h30q11 0 9 -10l-11 -63q-1 -6 3 -9q46 -26 107 -26q66 0 105 31t39 82q0 32 -19.5 48.5t-67.5 21.5l-46 5q-118 14 -118 108q0 70 50 112.5t132 42.5z" />
    <glyph glyph-name="Scaron" unicode="&#x160;" horiz-adv-x="572" 
d="M482 895h22q5 0 6 -3t-3 -7l-107 -122q-8 -9 -17 -9h-20q-9 0 -13 9l-66 122q-2 4 -0.5 7t5.5 3h19q10 0 15 -9l53 -90h2l86 90q8 9 18 9zM357 690q106 0 180 -47q7 -4 6 -12l-17 -94q-2 -10 -10 -10h-31q-10 0 -8 10l11 64q1 6 -3 9q-55 30 -131 30q-78 0 -124 -44
t-46 -110q0 -50 29 -76.5t103 -36.5l29 -4q83 -12 120.5 -49t37.5 -101q0 -105 -68.5 -167t-188.5 -62q-119 0 -196 56q-7 6 -6 13l19 102q2 10 11 10h32q10 0 8 -10l-14 -74q-1 -6 3 -9q62 -38 154 -38q86 0 139 47t53 124q0 49 -28.5 74t-102.5 35l-29 4q-160 23 -160 155
q0 94 62 152.5t166 58.5z" />
    <glyph glyph-name="scaron" unicode="&#x161;" horiz-adv-x="461" 
d="M397 700h22q4 0 5 -3t-3 -7l-107 -122q-8 -9 -17 -9h-20q-9 0 -13 9l-65 122q-6 10 4 10h20q9 0 15 -10l52 -90h2l86 90q9 10 19 10zM268 487q84 0 141 -35q6 -4 5 -12l-15 -84q-2 -10 -10 -10h-30q-10 0 -8 10l10 59q1 5 -4 8q-41 18 -93 18q-57 0 -92 -28.5t-35 -73.5
q0 -31 21 -47t70 -21l45 -5q115 -12 115 -107q0 -78 -54.5 -123.5t-146.5 -45.5q-91 0 -153 42q-6 4 -5 14l16 88q2 10 10 10h30q11 0 9 -10l-11 -63q-1 -6 3 -9q46 -26 107 -26q66 0 105 31t39 82q0 32 -19.5 48.5t-67.5 21.5l-46 5q-118 14 -118 108q0 70 50 112.5
t132 42.5z" />
    <glyph glyph-name="uni0162" unicode="&#x162;" horiz-adv-x="551" 
d="M113 680h484q11 0 9 -10l-19 -110q-2 -10 -10 -10h-32q-10 0 -8 10l11 65q1 6 -5 6h-164q-5 0 -6 -6l-101 -573q-2 -6 5 -6h62q10 0 8 -10l-5 -26q-1 -10 -12 -10h-187q-10 0 -8 10l5 26q1 10 12 10h61q5 0 7 6l100 573q2 6 -4 6h-164q-6 0 -7 -6l-11 -65q-2 -10 -11 -10
h-31q-10 0 -8 10l18 110q2 10 11 10zM209 -55h35q10 0 8 -10l-7 -45q-2 -9 -9 -22l-40 -56q-6 -8 -12 -8q-10 0 -8 10l21 121q2 10 12 10z" />
    <glyph glyph-name="uni0163" unicode="&#x163;" horiz-adv-x="295" 
d="M185 630h32q10 0 8 -10l-24 -137q-1 -6 4 -6h86q10 0 8 -10l-5 -26q-1 -10 -12 -10h-85q-5 0 -7 -6l-54 -286q-6 -30 -6 -46q0 -28 15 -38t49 -10h17q10 0 8 -10l-4 -27q-1 -10 -12 -10h-25q-51 0 -75 19.5t-24 63.5q0 22 4 45l57 299q2 6 -5 6h-49q-10 0 -8 10l5 26
q2 10 11 10h49q7 0 8 6l23 137q2 10 11 10zM102 -55h35q10 0 8 -10l-7 -45q-2 -9 -9 -22l-40 -56q-6 -8 -12 -8q-10 0 -8 10l21 121q2 10 12 10z" />
    <glyph glyph-name="Tcaron" unicode="&#x164;" horiz-adv-x="551" 
d="M474 895h22q5 0 6 -3t-3 -7l-107 -122q-8 -9 -17 -9h-20q-9 0 -13 9l-66 122q-2 4 -0.5 7t5.5 3h19q10 0 15 -9l53 -90h2l86 90q8 9 18 9zM113 680h484q11 0 9 -10l-19 -110q-2 -10 -10 -10h-32q-10 0 -8 10l11 65q1 6 -5 6h-164q-5 0 -6 -6l-101 -573q-2 -6 5 -6h62
q10 0 8 -10l-5 -26q-1 -10 -12 -10h-187q-10 0 -8 10l5 26q1 10 12 10h61q5 0 7 6l100 573q2 6 -4 6h-164q-6 0 -7 -6l-11 -65q-2 -10 -11 -10h-31q-10 0 -8 10l18 110q2 10 11 10z" />
    <glyph glyph-name="tcaron" unicode="&#x165;" horiz-adv-x="295" 
d="M334 680h36q10 0 8 -10l-8 -46q-3 -14 -8 -21l-40 -57q-6 -8 -13 -8q-9 0 -7 10l21 122q2 10 11 10zM185 630h32q10 0 8 -10l-24 -137q-1 -6 4 -6h86q10 0 8 -10l-5 -26q-1 -10 -12 -10h-85q-5 0 -7 -6l-54 -286q-6 -30 -6 -46q0 -28 15 -38t49 -10h17q10 0 8 -10l-4 -27
q-1 -10 -12 -10h-25q-51 0 -75 19.5t-24 63.5q0 22 4 45l57 299q2 6 -5 6h-49q-10 0 -8 10l5 26q2 10 11 10h49q7 0 8 6l23 137q2 10 11 10z" />
    <glyph glyph-name="Tbar" unicode="&#x166;" horiz-adv-x="551" 
d="M113 680h485q10 0 8 -10l-19 -110q-2 -10 -10 -10h-32q-10 0 -8 10l11 65q1 6 -5 6h-164q-5 0 -6 -6l-35 -197q-2 -6 4 -6h103q9 0 7 -10l-4 -26q-1 -10 -12 -10h-101q-5 0 -7 -6l-56 -318q-2 -6 5 -6h62q10 0 8 -10l-5 -26q-1 -10 -12 -10h-187q-10 0 -8 10l5 26
q1 10 12 10h61q5 0 7 6l55 318q1 6 -5 6h-99q-10 0 -8 10l5 26q1 10 12 10h99q5 0 7 6l34 197q2 6 -4 6h-164q-6 0 -7 -6l-11 -65q-2 -10 -11 -10h-31q-10 0 -8 10l18 110q2 10 11 10z" />
    <glyph glyph-name="tbar" unicode="&#x167;" horiz-adv-x="295" 
d="M185 630h32q10 0 8 -10l-24 -137q-1 -6 4 -6h86q10 0 8 -10l-4 -26q-1 -10 -12 -10h-86q-5 0 -7 -6l-13 -73q-1 -6 5 -6h76q9 0 7 -10l-4 -22q-2 -10 -12 -10h-75q-6 0 -7 -6l-33 -168q-4 -19 -4 -36q0 -28 14.5 -38.5t49.5 -10.5h17q10 0 8 -10l-4 -27q-1 -10 -12 -10
h-25q-51 0 -75 20t-24 64q0 21 4 44l34 172q1 6 -5 6h-39q-10 0 -8 10l4 22q2 10 12 10h39q6 0 7 6l13 73q2 6 -5 6h-49q-10 0 -8 10l5 26q2 10 11 10h49q7 0 8 6l23 137q2 10 11 10z" />
    <glyph glyph-name="Utilde" unicode="&#x168;" horiz-adv-x="634" 
d="M384 865q26 0 54 -21q25 -18 44 -18q27 0 62 33q3 3 6 2t2 -5l-5 -29q-1 -9 -10 -16q-29 -27 -64 -27q-27 0 -54 20q-23 18 -44 18q-28 0 -61 -33q-3 -3 -6 -1.5t-2 4.5l4 30q1 8 10 15q28 28 64 28zM501 680h179q10 0 8 -10l-5 -26q-1 -10 -12 -10h-57q-6 0 -7 -6
l-70 -397q-23 -129 -82.5 -185t-166.5 -56q-92 0 -142 46.5t-50 134.5q0 31 9 83l66 374q1 6 -5 6h-58q-10 0 -8 10l5 26q1 10 11 10h180q10 0 8 -10l-5 -26q-1 -10 -12 -10h-57q-6 0 -7 -6l-66 -379q-8 -43 -8 -72q0 -137 143 -137q83 0 129.5 44.5t64.5 149.5l69 394
q1 6 -5 6h-58q-10 0 -8 10l5 26q1 10 12 10z" />
    <glyph glyph-name="utilde" unicode="&#x169;" horiz-adv-x="536" 
d="M272 679q27 0 54 -20q23 -18 44 -18q28 0 61 33q3 3 6 1.5t2 -4.5l-4 -30q-3 -9 -10 -15q-30 -28 -64 -28q-26 0 -54 21q-27 18 -44 18q-27 0 -62 -33q-3 -3 -6 -2t-2 5l5 29q1 8 9 16q30 27 65 27zM359 477h101q10 0 8 -10l-73 -415q-1 -6 5 -6h55q10 0 8 -10l-5 -26
q-1 -10 -12 -10h-101q-10 0 -8 10l10 55h-1q-53 -75 -145 -75q-64 0 -97 33.5t-33 96.5q0 21 5 51l45 253q1 7 -5 7h-54q-10 0 -8 10l5 26q2 10 12 10h100q10 0 8 -10l-51 -283q-5 -30 -5 -51q0 -95 96 -95q51 0 93.5 37t52.5 97l45 252q1 7 -5 7h-54q-10 0 -8 10l5 26
q2 10 11 10z" />
    <glyph glyph-name="Umacron" unicode="&#x16a;" horiz-adv-x="634" 
d="M315 845h233q10 0 8 -10l-3 -23q-2 -10 -11 -10h-234q-10 0 -8 10l4 23q1 10 11 10zM501 680h179q10 0 8 -10l-5 -26q-1 -10 -12 -10h-57q-6 0 -7 -6l-70 -397q-23 -129 -82.5 -185t-166.5 -56q-92 0 -142 46.5t-50 134.5q0 31 9 83l66 374q1 6 -5 6h-58q-10 0 -8 10
l5 26q1 10 11 10h180q10 0 8 -10l-5 -26q-1 -10 -12 -10h-57q-6 0 -7 -6l-66 -379q-8 -43 -8 -72q0 -137 143 -137q83 0 129.5 44.5t64.5 149.5l69 394q1 6 -5 6h-58q-10 0 -8 10l5 26q1 10 12 10z" />
    <glyph glyph-name="umacron" unicode="&#x16b;" horiz-adv-x="536" 
d="M202 664h234q10 0 8 -10l-4 -22q-1 -10 -11 -10h-234q-10 0 -8 10l4 22q1 10 11 10zM359 477h101q10 0 8 -10l-73 -415q-1 -6 5 -6h55q10 0 8 -10l-5 -26q-1 -10 -12 -10h-101q-10 0 -8 10l10 55h-1q-53 -75 -145 -75q-64 0 -97 33.5t-33 96.5q0 21 5 51l45 253q1 7 -5 7
h-54q-10 0 -8 10l5 26q2 10 12 10h100q10 0 8 -10l-51 -283q-5 -30 -5 -51q0 -95 96 -95q51 0 93.5 37t52.5 97l45 252q1 7 -5 7h-54q-10 0 -8 10l5 26q2 10 11 10z" />
    <glyph glyph-name="Ubreve" unicode="&#x16c;" horiz-adv-x="634" 
d="M532 881h17q10 0 7 -10q-15 -46 -51.5 -74t-84.5 -28t-75 28t-26 74q0 10 10 10h16q9 0 11 -10q5 -62 70 -62q64 0 93 62q5 10 13 10zM501 680h179q10 0 8 -10l-5 -26q-1 -10 -12 -10h-57q-6 0 -7 -6l-70 -397q-23 -129 -82.5 -185t-166.5 -56q-92 0 -142 46.5t-50 134.5
q0 31 9 83l66 374q1 6 -5 6h-58q-10 0 -8 10l5 26q1 10 11 10h180q10 0 8 -10l-5 -26q-1 -10 -12 -10h-57q-6 0 -7 -6l-66 -379q-8 -43 -8 -72q0 -137 143 -137q83 0 129.5 44.5t64.5 149.5l69 394q1 6 -5 6h-58q-10 0 -8 10l5 26q1 10 12 10z" />
    <glyph glyph-name="ubreve" unicode="&#x16d;" horiz-adv-x="536" 
d="M416 684h17q10 0 7 -10q-15 -46 -51.5 -74t-84.5 -28t-75 28t-26 74q0 10 10 10h16q9 0 11 -10q5 -62 70 -62q64 0 93 62q5 10 13 10zM359 477h101q10 0 8 -10l-73 -415q-1 -6 5 -6h55q10 0 8 -10l-5 -26q-1 -10 -12 -10h-101q-10 0 -8 10l10 55h-1q-53 -75 -145 -75
q-64 0 -97 33.5t-33 96.5q0 21 5 51l45 253q1 7 -5 7h-54q-10 0 -8 10l5 26q2 10 12 10h100q10 0 8 -10l-51 -283q-5 -30 -5 -51q0 -95 96 -95q51 0 93.5 37t52.5 97l45 252q1 7 -5 7h-54q-10 0 -8 10l5 26q2 10 11 10z" />
    <glyph glyph-name="Uring" unicode="&#x16e;" horiz-adv-x="634" 
d="M444 913q31 0 51 -20t20 -51q0 -43 -28.5 -73t-72.5 -30q-31 0 -50.5 20t-19.5 51q0 43 28.5 73t71.5 30zM438 883q-26 0 -44.5 -20t-18.5 -48q0 -21 12 -33.5t33 -12.5q26 0 44.5 20t18.5 48q0 21 -12 33.5t-33 12.5zM501 680h179q10 0 8 -10l-5 -26q-1 -10 -12 -10h-57
q-6 0 -7 -6l-70 -397q-23 -129 -82.5 -185t-166.5 -56q-92 0 -142 46.5t-50 134.5q0 31 9 83l66 374q1 6 -5 6h-58q-10 0 -8 10l5 26q1 10 11 10h180q10 0 8 -10l-5 -26q-1 -10 -12 -10h-57q-6 0 -7 -6l-66 -379q-8 -43 -8 -72q0 -137 143 -137q83 0 129.5 44.5t64.5 149.5
l69 394q1 6 -5 6h-58q-10 0 -8 10l5 26q1 10 12 10z" />
    <glyph glyph-name="uring" unicode="&#x16f;" horiz-adv-x="536" 
d="M334 716q31 0 50.5 -20t19.5 -51q0 -43 -28.5 -73t-72.5 -30q-31 0 -50.5 20t-19.5 51q0 43 28.5 73t72.5 30zM328 686q-26 0 -44.5 -20t-18.5 -48q0 -21 11.5 -33.5t32.5 -12.5q26 0 45 20t19 48q0 21 -12 33.5t-33 12.5zM359 477h101q10 0 8 -10l-73 -415q-1 -6 5 -6
h55q10 0 8 -10l-5 -26q-1 -10 -12 -10h-101q-10 0 -8 10l10 55h-1q-53 -75 -145 -75q-64 0 -97 33.5t-33 96.5q0 21 5 51l45 253q1 7 -5 7h-54q-10 0 -8 10l5 26q2 10 12 10h100q10 0 8 -10l-51 -283q-5 -30 -5 -51q0 -95 96 -95q51 0 93.5 37t52.5 97l45 252q1 7 -5 7h-54
q-10 0 -8 10l5 26q2 10 11 10z" />
    <glyph glyph-name="Uhungarumlaut" unicode="&#x170;" horiz-adv-x="634" 
d="M434 889h28q4 0 5.5 -3t-1.5 -7l-92 -105q-6 -9 -16 -9h-21q-4 0 -5.5 2.5t1.5 7.5l83 104q8 10 18 10zM552 889h27q5 0 6 -3t-2 -7l-91 -105q-6 -9 -16 -9h-21q-4 0 -5.5 2.5t1.5 7.5l83 104q8 10 18 10zM501 680h179q10 0 8 -10l-5 -26q-1 -10 -12 -10h-57q-6 0 -7 -6
l-70 -397q-23 -129 -82.5 -185t-166.5 -56q-92 0 -142 46.5t-50 134.5q0 31 9 83l66 374q1 6 -5 6h-58q-10 0 -8 10l5 26q1 10 11 10h180q10 0 8 -10l-5 -26q-1 -10 -12 -10h-57q-6 0 -7 -6l-66 -379q-8 -43 -8 -72q0 -137 143 -137q83 0 129.5 44.5t64.5 149.5l69 394
q1 6 -5 6h-58q-10 0 -8 10l5 26q1 10 12 10z" />
    <glyph glyph-name="uhungarumlaut" unicode="&#x171;" horiz-adv-x="536" 
d="M329 700h28q5 0 6 -3t-2 -7l-94 -122q-6 -9 -16 -9h-21q-11 0 -4 10l86 121q6 10 17 10zM447 700h28q5 0 6 -3t-2 -7l-95 -122q-6 -9 -15 -9h-21q-11 0 -4 10l86 121q6 10 17 10zM359 477h101q10 0 8 -10l-73 -415q-1 -6 5 -6h55q10 0 8 -10l-5 -26q-1 -10 -12 -10h-101
q-10 0 -8 10l10 55h-1q-53 -75 -145 -75q-64 0 -97 33.5t-33 96.5q0 21 5 51l45 253q1 7 -5 7h-54q-10 0 -8 10l5 26q2 10 12 10h100q10 0 8 -10l-51 -283q-5 -30 -5 -51q0 -95 96 -95q51 0 93.5 37t52.5 97l45 252q1 7 -5 7h-54q-10 0 -8 10l5 26q2 10 11 10z" />
    <glyph glyph-name="Uogonek" unicode="&#x172;" horiz-adv-x="634" 
d="M501 680h179q10 0 8 -10l-5 -26q-1 -10 -12 -10h-57q-6 0 -7 -6l-70 -397q-21 -122 -75 -178.5t-149 -61.5q-71 -60 -71 -95q0 -23 25 -23q13 0 29 9q8 5 11 -2l7 -20q2 -6 -6 -13q-25 -17 -55 -17q-25 0 -40.5 14.5t-15.5 39.5q0 28 14.5 52t48.5 55q-79 7 -121.5 52.5
t-42.5 127.5q0 31 9 83l66 374q1 6 -5 6h-58q-10 0 -8 10l5 26q1 10 11 10h180q10 0 8 -10l-5 -26q-1 -10 -12 -10h-57q-6 0 -7 -6l-66 -379q-8 -43 -8 -72q0 -137 143 -137q83 0 129.5 44.5t64.5 149.5l69 394q1 6 -5 6h-58q-10 0 -8 10l5 26q1 10 12 10z" />
    <glyph glyph-name="uogonek" unicode="&#x173;" horiz-adv-x="536" 
d="M359 477h101q10 0 8 -10l-73 -415q-1 -6 5 -6h55q10 0 8 -10l-5 -26q-1 -10 -12 -10h-64q-57 -38 -78 -61t-21 -43q0 -23 24 -23q13 0 29 9q8 5 11 -2l7 -20q2 -6 -6 -13q-25 -17 -55 -17q-25 0 -40.5 14.5t-15.5 39.5q0 31 23 59.5t76 63.5l11 58h-1q-53 -75 -145 -75
q-64 0 -97 33.5t-33 96.5q0 21 5 51l45 253q1 7 -5 7h-54q-10 0 -8 10l5 26q2 10 12 10h100q10 0 8 -10l-51 -283q-5 -30 -5 -51q0 -95 96 -95q51 0 93.5 37t52.5 97l45 252q1 7 -5 7h-54q-10 0 -8 10l5 26q2 10 11 10z" />
    <glyph glyph-name="Wcircumflex" unicode="&#x174;" horiz-adv-x="819" 
d="M523 896h20q9 0 13 -9l65 -122q6 -10 -4 -10h-19q-10 0 -16 9l-52 91h-2l-86 -91q-8 -9 -18 -9h-23q-4 0 -5 3t3 7l107 122q8 9 17 9zM721 680h165q10 0 8 -10l-5 -26q-1 -10 -12 -10h-32q-6 0 -8 -6l-255 -618q-4 -10 -14 -10h-30q-9 0 -10 10l-53 569h-2l-255 -569
q-4 -10 -14 -10h-31q-10 0 -10 10l-36 617q0 7 -7 7h-33q-10 0 -8 10l5 26q1 10 12 10h163q10 0 8 -10l-5 -26q-1 -10 -12 -10h-66q-6 0 -6 -7l29 -524h2l252 567q4 10 14 10h28q10 0 11 -10l53 -567h2l213 524q4 7 -3 7h-67q-10 0 -8 10l5 26q1 10 12 10z" />
    <glyph glyph-name="wcircumflex" unicode="&#x175;" horiz-adv-x="701" 
d="M427 700h20q9 0 13 -9l65 -122q6 -10 -4 -10h-20q-9 0 -15 9l-52 91h-2l-86 -91q-9 -9 -19 -9h-22q-4 0 -5 3t3 7l107 122q8 9 17 9zM587 477h141q10 0 8 -10l-5 -26q-1 -10 -12 -10h-24q-7 0 -11 -7l-202 -414q-4 -10 -13 -10h-29q-9 0 -10 10l-49 389h-2l-189 -389
q-6 -10 -15 -10h-28q-9 0 -10 10l-55 415q-1 6 -7 6h-30q-10 0 -8 10l5 26q2 10 12 10h142q10 0 8 -10l-5 -26q-1 -10 -12 -10h-51q-6 0 -5 -9l43 -344h2l185 389q5 10 13 10h31q9 0 11 -10l50 -390h1l165 345q4 9 -4 9h-50q-10 0 -8 10l5 26q2 10 12 10z" />
    <glyph glyph-name="Ycircumflex" unicode="&#x176;" horiz-adv-x="532" 
d="M376 896h20q8 0 13 -9l65 -122q6 -10 -4 -10h-19q-10 0 -16 9l-52 91h-2l-86 -91q-8 -9 -18 -9h-23q-4 0 -5 3t3 7l107 122q8 9 17 9zM437 680h164q10 0 8 -10l-5 -26q-1 -10 -12 -10h-31q-7 0 -11 -6l-245 -349l-40 -226q-1 -6 5 -6h61q10 0 8 -10l-5 -27
q-1 -10 -12 -10h-185q-10 0 -8 10l5 27q1 10 11 10h60q7 0 8 6l39 226l-120 348q-3 7 -9 7h-35q-10 0 -8 10l5 26q1 10 12 10h164q10 0 8 -10l-5 -26q-1 -10 -12 -10h-62q-7 0 -5 -7l101 -289h2l205 289q5 7 -3 7h-62q-10 0 -8 10l5 26q1 10 12 10z" />
    <glyph glyph-name="ycircumflex" unicode="&#x177;" horiz-adv-x="452" 
d="M301 700h20q9 0 13 -9l65 -122q6 -10 -4 -10h-20q-9 0 -15 9l-52 91h-2l-86 -91q-9 -9 -19 -9h-22q-4 0 -5 3t3 7l107 122q8 9 17 9zM343 477h140q10 0 8 -10l-5 -26q-1 -10 -12 -10h-26q-5 0 -9 -7l-256 -471q-43 -80 -75 -106.5t-79 -26.5h-20q-10 0 -8 10l5 28
q1 10 12 10h16q30 0 52.5 21t52.5 76l25 48l-80 412q-2 6 -6 6h-30q-10 0 -8 10l5 26q2 10 12 10h142q10 0 8 -10l-5 -26q-1 -10 -12 -10h-49q-7 0 -5 -8l64 -345h1l184 344q5 9 -4 9h-47q-10 0 -8 10l5 26q2 10 12 10z" />
    <glyph glyph-name="Ydieresis" unicode="&#x178;" horiz-adv-x="532" 
d="M265 861h37q10 0 8 -10l-9 -54q-2 -10 -11 -10h-37q-10 0 -8 10l9 54q2 10 11 10zM457 861h37q10 0 8 -10l-9 -54q-2 -10 -11 -10h-37q-10 0 -8 10l9 54q2 10 11 10zM437 680h164q10 0 8 -10l-5 -26q-1 -10 -12 -10h-31q-7 0 -11 -6l-245 -349l-40 -226q-1 -6 5 -6h61
q10 0 8 -10l-5 -27q-1 -10 -12 -10h-185q-10 0 -8 10l5 27q1 10 11 10h60q7 0 8 6l39 226l-120 348q-3 7 -9 7h-35q-10 0 -8 10l5 26q1 10 12 10h164q10 0 8 -10l-5 -26q-1 -10 -12 -10h-62q-7 0 -5 -7l101 -289h2l205 289q5 7 -3 7h-62q-10 0 -8 10l5 26q1 10 12 10z" />
    <glyph glyph-name="Zacute" unicode="&#x179;" horiz-adv-x="523" 
d="M438 888h36q5 0 6 -3t-3 -7l-107 -104q-10 -10 -19 -10h-24q-11 0 -2 11l94 103q10 10 19 10zM150 680h394q11 0 9 -10l-5 -30q-1 -7 -7 -14l-461 -575v-1h310q6 0 7 6l13 69q2 10 11 10h30q10 0 8 -10l-20 -115q-1 -10 -11 -10h-411q-11 0 -9 10l6 31q1 6 7 15l460 573
v1h-294q-5 0 -7 -6l-11 -65q-2 -10 -11 -10h-31q-10 0 -8 10l19 111q1 10 12 10z" />
    <glyph glyph-name="zacute" unicode="&#x17a;" horiz-adv-x="460" 
d="M368 700h34q4 0 5.5 -3t-1.5 -7l-106 -122q-10 -10 -18 -10h-22q-11 0 -3 10l92 122q8 10 19 10zM121 477h318q10 0 8 -10l-5 -28q-1 -6 -8 -14l-346 -378v-1h229q5 0 7 6l10 59q2 10 11 10h31q10 0 8 -10l-18 -101q-1 -10 -11 -10h-330q-10 0 -8 10l4 26q1 6 7 13
l348 381v1h-218q-6 0 -7 -6l-9 -52q-2 -11 -11 -11h-30q-11 0 -9 10l17 95q1 10 12 10z" />
    <glyph glyph-name="Zdotaccent" unicode="&#x17b;" horiz-adv-x="523" 
d="M353 861h42q10 0 8 -10l-9 -54q-2 -10 -11 -10h-42q-10 0 -8 10l9 54q2 10 11 10zM150 680h394q11 0 9 -10l-5 -30q-1 -7 -7 -14l-461 -575v-1h310q6 0 7 6l13 69q2 10 11 10h30q10 0 8 -10l-20 -115q-1 -10 -11 -10h-411q-11 0 -9 10l6 31q1 6 7 15l460 573v1h-294
q-5 0 -7 -6l-11 -65q-2 -10 -11 -10h-31q-10 0 -8 10l19 111q1 10 12 10z" />
    <glyph glyph-name="zdotaccent" unicode="&#x17c;" horiz-adv-x="460" 
d="M288 680h41q10 0 8 -10l-9 -53q-2 -10 -11 -10h-42q-10 0 -8 10l10 53q2 10 11 10zM121 477h318q10 0 8 -10l-5 -28q-1 -6 -8 -14l-346 -378v-1h229q5 0 7 6l10 59q2 10 11 10h31q10 0 8 -10l-18 -101q-1 -10 -11 -10h-330q-10 0 -8 10l4 26q1 6 7 13l348 381v1h-218
q-6 0 -7 -6l-9 -52q-2 -11 -11 -11h-30q-11 0 -9 10l17 95q1 10 12 10z" />
    <glyph glyph-name="Zcaron" unicode="&#x17d;" horiz-adv-x="523" 
d="M465 895h22q5 0 6 -3t-3 -7l-107 -122q-8 -9 -17 -9h-20q-8 0 -13 9l-66 122q-2 4 -0.5 7t5.5 3h19q10 0 15 -9l53 -90h2l86 90q8 9 18 9zM150 680h394q11 0 9 -10l-5 -30q-1 -7 -7 -14l-461 -575v-1h310q6 0 7 6l13 69q2 10 11 10h30q10 0 8 -10l-20 -115
q-1 -10 -11 -10h-411q-11 0 -9 10l6 31q1 6 7 15l460 573v1h-294q-5 0 -7 -6l-11 -65q-2 -10 -11 -10h-31q-10 0 -8 10l19 111q1 10 12 10z" />
    <glyph glyph-name="zcaron" unicode="&#x17e;" horiz-adv-x="460" 
d="M397 700h22q4 0 5 -3t-3 -7l-107 -122q-8 -9 -17 -9h-20q-9 0 -13 9l-65 122q-6 10 4 10h20q9 0 15 -10l52 -90h2l86 90q9 10 19 10zM121 477h318q10 0 8 -10l-5 -28q-1 -6 -8 -14l-346 -378v-1h229q5 0 7 6l10 59q2 10 11 10h31q10 0 8 -10l-18 -101q-1 -10 -11 -10
h-330q-10 0 -8 10l4 26q1 6 7 13l348 381v1h-218q-6 0 -7 -6l-9 -52q-2 -11 -11 -11h-30q-11 0 -9 10l17 95q1 10 12 10z" />
    <glyph glyph-name="florin" unicode="&#x192;" 
d="M485 680h21q11 0 9 -10l-5 -27q-1 -10 -12 -10h-19q-40 0 -64 -20.5t-41 -70.5l-48 -148h96q10 0 8 -10l-4 -24q-2 -10 -12 -10h-103l-126 -390q-25 -77 -61.5 -108.5t-100.5 -31.5h-21q-10 0 -8 10l4 27q1 10 12 10h19q40 0 64.5 20.5t40.5 70.5l127 392h-82
q-10 0 -8 10l4 24q2 10 12 10h88l48 146q25 77 62 108.5t100 31.5z" />
    <glyph glyph-name="Scommaaccent" unicode="&#x218;" horiz-adv-x="572" 
d="M357 690q106 0 180 -47q7 -4 6 -12l-17 -94q-2 -10 -10 -10h-31q-10 0 -8 10l11 64q1 6 -3 9q-55 30 -131 30q-78 0 -124 -44t-46 -110q0 -50 29 -76.5t103 -36.5l29 -4q83 -12 120.5 -49t37.5 -101q0 -105 -68.5 -167t-188.5 -62q-119 0 -196 56q-7 6 -6 13l19 102
q2 10 11 10h32q10 0 8 -10l-14 -74q-1 -6 3 -9q62 -38 154 -38q86 0 139 47t53 124q0 49 -28.5 74t-102.5 35l-29 4q-160 23 -160 155q0 94 62 152.5t166 58.5zM224 -55h35q10 0 8 -10l-7 -45q-2 -9 -9 -22l-40 -56q-6 -8 -12 -8q-10 0 -8 10l21 121q2 10 12 10z" />
    <glyph glyph-name="scommaaccent" unicode="&#x219;" horiz-adv-x="461" 
d="M268 487q84 0 141 -35q6 -4 5 -12l-15 -84q-2 -10 -10 -10h-30q-10 0 -8 10l10 59q1 5 -4 8q-41 18 -93 18q-57 0 -92 -28.5t-35 -73.5q0 -31 21 -47t70 -21l45 -5q115 -12 115 -107q0 -78 -54.5 -123.5t-146.5 -45.5q-91 0 -153 42q-6 4 -5 14l16 88q2 10 10 10h30
q11 0 9 -10l-11 -63q-1 -6 3 -9q46 -26 107 -26q66 0 105 31t39 82q0 32 -19.5 48.5t-67.5 21.5l-46 5q-118 14 -118 108q0 70 50 112.5t132 42.5zM157 -55h35q10 0 8 -10l-7 -45q-2 -9 -9 -22l-40 -56q-6 -8 -12 -8q-10 0 -8 10l21 121q2 10 12 10z" />
    <glyph glyph-name="uni021A" unicode="&#x21a;" horiz-adv-x="551" 
d="M113 680h484q11 0 9 -10l-19 -110q-2 -10 -10 -10h-32q-10 0 -8 10l11 65q1 6 -5 6h-164q-5 0 -6 -6l-101 -573q-2 -6 5 -6h62q10 0 8 -10l-5 -26q-1 -10 -12 -10h-187q-10 0 -8 10l5 26q1 10 12 10h61q5 0 7 6l100 573q2 6 -4 6h-164q-6 0 -7 -6l-11 -65q-2 -10 -11 -10
h-31q-10 0 -8 10l18 110q2 10 11 10zM209 -55h35q10 0 8 -10l-7 -45q-2 -9 -9 -22l-40 -56q-6 -8 -12 -8q-10 0 -8 10l21 121q2 10 12 10z" />
    <glyph glyph-name="uni021B" unicode="&#x21b;" horiz-adv-x="295" 
d="M185 630h32q10 0 8 -10l-24 -137q-1 -6 4 -6h86q10 0 8 -10l-5 -26q-1 -10 -12 -10h-85q-5 0 -7 -6l-54 -286q-6 -30 -6 -46q0 -28 15 -38t49 -10h17q10 0 8 -10l-4 -27q-1 -10 -12 -10h-25q-51 0 -75 19.5t-24 63.5q0 22 4 45l57 299q2 6 -5 6h-49q-10 0 -8 10l5 26
q2 10 11 10h49q7 0 8 6l23 137q2 10 11 10zM102 -55h35q10 0 8 -10l-7 -45q-2 -9 -9 -22l-40 -56q-6 -8 -12 -8q-10 0 -8 10l21 121q2 10 12 10z" />
    <glyph glyph-name="dotlessj" unicode="&#x237;" horiz-adv-x="269" 
d="M97 477h101q10 0 8 -10l-92 -523q-13 -72 -42.5 -98t-96.5 -26h-11q-10 0 -8 10l5 28q1 10 12 10h8q39 0 57 16t25 60l85 480q1 7 -5 7h-55q-10 0 -8 10l5 26q2 10 12 10z" />
    <glyph glyph-name="circumflex" unicode="&#x2c6;" horiz-adv-x="404" 
d="M274 700h20q8 0 13 -9l65 -122q6 -10 -4 -10h-20q-9 0 -15 9l-52 91h-2l-86 -91q-9 -9 -19 -9h-22q-4 0 -5 3t3 7l107 122q8 9 17 9z" />
    <glyph glyph-name="caron" unicode="&#x2c7;" horiz-adv-x="404" 
d="M369 700h22q4 0 5 -3t-3 -7l-107 -122q-8 -9 -17 -9h-20q-9 0 -13 9l-65 122q-6 10 4 10h20q9 0 15 -10l52 -90h2l86 90q9 10 19 10z" />
    <glyph glyph-name="uni02C9" unicode="&#x2c9;" horiz-adv-x="404" 
d="M195 845h233q10 0 8 -10l-3 -23q-2 -10 -11 -10h-234q-10 0 -8 10l4 23q1 10 11 10z" />
    <glyph glyph-name="breve" unicode="&#x2d8;" horiz-adv-x="404" 
d="M376 684h17q10 0 7 -10q-15 -46 -51.5 -74t-84.5 -28t-75 28t-26 74q0 10 10 10h16q9 0 11 -10q5 -62 70 -62q64 0 93 62q5 10 13 10z" />
    <glyph glyph-name="dotaccent" unicode="&#x2d9;" horiz-adv-x="404" 
d="M263 680h41q10 0 8 -10l-9 -53q-2 -10 -11 -10h-42q-10 0 -8 10l10 53q2 10 11 10z" />
    <glyph glyph-name="ring" unicode="&#x2da;" horiz-adv-x="404" 
d="M289 716q31 0 50.5 -20t19.5 -51q0 -43 -28.5 -73t-72.5 -30q-31 0 -50.5 20t-19.5 51q0 43 28.5 73t72.5 30zM283 686q-26 0 -44.5 -20t-18.5 -48q0 -21 11.5 -33.5t32.5 -12.5q26 0 45 20t19 48q0 21 -12 33.5t-33 12.5z" />
    <glyph glyph-name="ogonek" unicode="&#x2db;" horiz-adv-x="404" 
d="M190 10h30q4 0 5 -3.5t-3 -6.5q-57 -38 -78 -61t-21 -43q0 -23 24 -23q13 0 29 9q8 5 11 -2l7 -20q2 -6 -6 -13q-25 -17 -55 -17q-25 0 -40.5 14.5t-15.5 39.5q0 30 20.5 56.5t68.5 59.5q14 10 24 10z" />
    <glyph glyph-name="tilde" unicode="&#x2dc;" horiz-adv-x="404" 
d="M231 679q27 0 54 -20q23 -18 44 -18q28 0 61 33q3 3 6 1.5t2 -4.5l-4 -30q-3 -9 -10 -15q-30 -28 -64 -28q-26 0 -54 21q-27 18 -44 18q-27 0 -62 -33q-3 -3 -6 -2t-2 5l5 29q1 8 9 16q30 27 65 27z" />
    <glyph glyph-name="hungarumlaut" unicode="&#x2dd;" horiz-adv-x="404" 
d="M251 700h28q5 0 6 -3t-2 -7l-94 -122q-6 -9 -16 -9h-21q-11 0 -4 10l86 121q6 10 17 10zM369 700h28q5 0 6 -3t-2 -7l-95 -122q-6 -9 -15 -9h-21q-11 0 -4 10l86 121q6 10 17 10z" />
    <glyph glyph-name="uni0326" unicode="&#x326;" horiz-adv-x="0" 
d="M136 -55h35q10 0 8 -10l-7 -45q-2 -9 -9 -22l-40 -56q-6 -8 -12 -8q-10 0 -8 10l21 121q2 10 12 10z" />
    <glyph glyph-name="uni0394" unicode="&#x394;" horiz-adv-x="574" 
d="M498 0h-497q-10 0 -5 10l345 660q5 10 13 10h33q7 0 9 -10l110 -660q2 -10 -8 -10zM77 47h366q7 0 5 6l-89 541h-2l-283 -541q-3 -6 3 -6z" />
    <glyph glyph-name="uni03A9" unicode="&#x3a9;" horiz-adv-x="584" 
d="M375 690q89 0 138 -50.5t49 -143.5q0 -51 -18 -156q-24 -133 -59 -196.5t-99 -95.5v-2h88q10 0 8 -10l-5 -26q-2 -10 -11 -10h-165q-10 0 -8 10l5 28q1 8 11 11q81 29 119 90.5t63 200.5q17 90 17 149q0 73 -35.5 112t-105.5 39q-123 0 -180 -116q-30 -65 -52 -184
q-16 -90 -16 -137q0 -63 21.5 -97t74.5 -57q9 -4 8 -11l-5 -28q-2 -10 -11 -10h-165q-10 0 -8 10l5 26q2 10 11 10h90l1 2q-75 44 -75 151q0 46 17 141q24 136 54 198q72 152 238 152z" />
    <glyph glyph-name="uni03BC" unicode="&#x3bc;" horiz-adv-x="554" 
d="M446 477h31q11 0 9 -10l-73 -414q-1 -7 5 -7h54q10 0 8 -10l-4 -26q-1 -10 -12 -10h-102q-10 0 -8 10l11 56h-1q-51 -76 -143 -76q-78 0 -101 53h-2l-37 -213q-2 -10 -11 -10h-32q-10 0 -8 10l112 637q2 10 11 10h31q10 0 8 -10l-49 -282q-6 -31 -6 -53q0 -94 98 -94
q53 0 95.5 38t52.5 96l52 295q2 10 11 10z" />
    <glyph glyph-name="pi" unicode="&#x3c0;" horiz-adv-x="537" 
d="M108 477h411q10 0 8 -10l-5 -28q-1 -10 -11 -10h-36q-5 0 -7 -6l-61 -337q-3 -15 -3 -23q0 -21 20 -21h7q10 0 8 -10l-4 -28q-1 -10 -12 -10h-11q-60 0 -60 54q0 13 4 33l61 342q1 6 -4 6h-215q-6 0 -7 -6l-73 -413q-2 -10 -10 -10h-32q-11 0 -9 10l73 413q2 6 -4 6h-36
q-10 0 -8 10l4 28q2 10 12 10z" />
    <glyph glyph-name="Wgrave" unicode="&#x1e80;" horiz-adv-x="819" 
d="M402 888h33q10 0 17 -10l60 -104q3 -4 1.5 -7t-6.5 -3h-22q-9 0 -16 10l-72 104q-2 4 -0.5 7t5.5 3zM721 680h165q10 0 8 -10l-5 -26q-1 -10 -12 -10h-32q-6 0 -8 -6l-255 -618q-4 -10 -14 -10h-30q-9 0 -10 10l-53 569h-2l-255 -569q-4 -10 -14 -10h-31q-10 0 -10 10
l-36 617q0 7 -7 7h-33q-10 0 -8 10l5 26q1 10 12 10h163q10 0 8 -10l-5 -26q-1 -10 -12 -10h-66q-6 0 -6 -7l29 -524h2l252 567q4 10 14 10h28q10 0 11 -10l53 -567h2l213 524q4 7 -3 7h-67q-10 0 -8 10l5 26q1 10 12 10z" />
    <glyph glyph-name="wgrave" unicode="&#x1e81;" horiz-adv-x="701" 
d="M315 700h31q9 0 13 -10l53 -122q5 -10 -7 -10h-20q-10 0 -15 10l-62 122q-2 4 0 7t7 3zM587 477h141q10 0 8 -10l-5 -26q-1 -10 -12 -10h-24q-7 0 -11 -7l-202 -414q-4 -10 -13 -10h-29q-9 0 -10 10l-49 389h-2l-189 -389q-6 -10 -15 -10h-28q-9 0 -10 10l-55 415
q-1 6 -7 6h-30q-10 0 -8 10l5 26q2 10 12 10h142q10 0 8 -10l-5 -26q-1 -10 -12 -10h-51q-6 0 -5 -9l43 -344h2l185 389q5 10 13 10h31q9 0 11 -10l50 -390h1l165 345q4 9 -4 9h-50q-10 0 -8 10l5 26q2 10 12 10z" />
    <glyph glyph-name="Wacute" unicode="&#x1e82;" horiz-adv-x="819" 
d="M611 888h36q5 0 6 -3t-3 -7l-107 -104q-10 -10 -19 -10h-24q-11 0 -2 11l94 103q10 10 19 10zM721 680h165q10 0 8 -10l-5 -26q-1 -10 -12 -10h-32q-6 0 -8 -6l-255 -618q-4 -10 -14 -10h-30q-9 0 -10 10l-53 569h-2l-255 -569q-4 -10 -14 -10h-31q-10 0 -10 10l-36 617
q0 7 -7 7h-33q-10 0 -8 10l5 26q1 10 12 10h163q10 0 8 -10l-5 -26q-1 -10 -12 -10h-66q-6 0 -6 -7l29 -524h2l252 567q4 10 14 10h28q10 0 11 -10l53 -567h2l213 524q4 7 -3 7h-67q-10 0 -8 10l5 26q1 10 12 10z" />
    <glyph glyph-name="wacute" unicode="&#x1e83;" horiz-adv-x="701" 
d="M508 700h34q4 0 5.5 -3t-1.5 -7l-106 -122q-10 -10 -18 -10h-22q-11 0 -3 10l92 122q8 10 19 10zM587 477h141q10 0 8 -10l-5 -26q-1 -10 -12 -10h-24q-7 0 -11 -7l-202 -414q-4 -10 -13 -10h-29q-9 0 -10 10l-49 389h-2l-189 -389q-6 -10 -15 -10h-28q-9 0 -10 10
l-55 415q-1 6 -7 6h-30q-10 0 -8 10l5 26q2 10 12 10h142q10 0 8 -10l-5 -26q-1 -10 -12 -10h-51q-6 0 -5 -9l43 -344h2l185 389q5 10 13 10h31q9 0 11 -10l50 -390h1l165 345q4 9 -4 9h-50q-10 0 -8 10l5 26q2 10 12 10z" />
    <glyph glyph-name="Wdieresis" unicode="&#x1e84;" horiz-adv-x="819" 
d="M408 861h37q10 0 8 -10l-9 -54q-2 -10 -11 -10h-37q-10 0 -8 10l9 54q2 10 11 10zM600 861h37q10 0 8 -10l-9 -54q-2 -10 -11 -10h-37q-10 0 -8 10l9 54q2 10 11 10zM721 680h165q10 0 8 -10l-5 -26q-1 -10 -12 -10h-32q-6 0 -8 -6l-255 -618q-4 -10 -14 -10h-30
q-9 0 -10 10l-53 569h-2l-255 -569q-4 -10 -14 -10h-31q-10 0 -10 10l-36 617q0 7 -7 7h-33q-10 0 -8 10l5 26q1 10 12 10h163q10 0 8 -10l-5 -26q-1 -10 -12 -10h-66q-6 0 -6 -7l29 -524h2l252 567q4 10 14 10h28q10 0 11 -10l53 -567h2l213 524q4 7 -3 7h-67q-10 0 -8 10
l5 26q1 10 12 10z" />
    <glyph glyph-name="wdieresis" unicode="&#x1e85;" horiz-adv-x="701" 
d="M318 680h37q10 0 8 -10l-9 -53q-2 -10 -11 -10h-37q-10 0 -8 10l9 53q2 10 11 10zM510 680h37q10 0 8 -10l-9 -53q-2 -10 -11 -10h-37q-10 0 -8 10l9 53q2 10 11 10zM587 477h141q10 0 8 -10l-5 -26q-1 -10 -12 -10h-24q-7 0 -11 -7l-202 -414q-4 -10 -13 -10h-29
q-9 0 -10 10l-49 389h-2l-189 -389q-6 -10 -15 -10h-28q-9 0 -10 10l-55 415q-1 6 -7 6h-30q-10 0 -8 10l5 26q2 10 12 10h142q10 0 8 -10l-5 -26q-1 -10 -12 -10h-51q-6 0 -5 -9l43 -344h2l185 389q5 10 13 10h31q9 0 11 -10l50 -390h1l165 345q4 9 -4 9h-50q-10 0 -8 10
l5 26q2 10 12 10z" />
    <glyph glyph-name="uni1E9E" unicode="&#x1e9e;" horiz-adv-x="644" 
d="M420 690q104 0 179 -58q7 -6 6 -12l-5 -23q-1 -7 -8 -15l-145 -160q69 -6 108.5 -44t39.5 -107q0 -88 -35 -159q-57 -118 -193 -118q-68 0 -107 26q-7 5 -3 14l15 27q5 9 15 3q33 -19 86 -19q98 0 141 90q28 56 28 129q0 117 -146 117h-10q-10 0 -8 10l4 26q2 7 6 12
l157 174q-48 37 -127 37t-138 -49.5t-75 -137.5l-71 -401q-2 -6 5 -6h58q10 0 8 -10l-5 -26q-1 -10 -12 -10h-179q-10 0 -8 10l5 26q1 10 11 10h57q6 0 8 6l70 401q19 111 91 174t177 63z" />
    <glyph glyph-name="Ygrave" unicode="&#x1ef2;" horiz-adv-x="532" 
d="M261 888h33q10 0 17 -10l60 -104q3 -4 1.5 -7t-6.5 -3h-22q-9 0 -16 10l-72 104q-2 4 -0.5 7t5.5 3zM437 680h164q10 0 8 -10l-5 -26q-1 -10 -12 -10h-31q-7 0 -11 -6l-245 -349l-40 -226q-1 -6 5 -6h61q10 0 8 -10l-5 -27q-1 -10 -12 -10h-185q-10 0 -8 10l5 27
q1 10 11 10h60q7 0 8 6l39 226l-120 348q-3 7 -9 7h-35q-10 0 -8 10l5 26q1 10 12 10h164q10 0 8 -10l-5 -26q-1 -10 -12 -10h-62q-7 0 -5 -7l101 -289h2l205 289q5 7 -3 7h-62q-10 0 -8 10l5 26q1 10 12 10z" />
    <glyph glyph-name="ygrave" unicode="&#x1ef3;" horiz-adv-x="452" 
d="M198 700h31q9 0 13 -10l53 -122q5 -10 -7 -10h-20q-10 0 -15 10l-62 122q-2 4 0 7t7 3zM343 477h140q10 0 8 -10l-5 -26q-1 -10 -12 -10h-26q-5 0 -9 -7l-256 -471q-43 -80 -75 -106.5t-79 -26.5h-20q-10 0 -8 10l5 28q1 10 12 10h16q30 0 52.5 21t52.5 76l25 48l-80 412
q-2 6 -6 6h-30q-10 0 -8 10l5 26q2 10 12 10h142q10 0 8 -10l-5 -26q-1 -10 -12 -10h-49q-7 0 -5 -8l64 -345h1l184 344q5 9 -4 9h-47q-10 0 -8 10l5 26q2 10 12 10z" />
    <glyph glyph-name="endash" unicode="&#x2013;" horiz-adv-x="484" 
d="M49 289h410q10 0 8 -10l-4 -26q-1 -9 -11 -9h-411q-9 0 -7 10l4 27q1 8 11 8z" />
    <glyph glyph-name="emdash" unicode="&#x2014;" horiz-adv-x="796" 
d="M49 289h722q10 0 8 -10l-4 -26q-1 -9 -11 -9h-723q-9 0 -7 10l4 27q1 8 11 8z" />
    <glyph glyph-name="quoteleft" unicode="&#x2018;" horiz-adv-x="199" 
d="M199 681q9 0 7 -9l-24 -139q-2 -10 -11 -10h-36q-9 0 -7 10l12 68q3 14 8 22l39 50q4 8 12 8z" />
    <glyph glyph-name="quoteright" unicode="&#x2019;" horiz-adv-x="199" 
d="M162 680h37q9 0 7 -10l-12 -67q-3 -16 -8 -22l-39 -51q-6 -8 -12 -8q-9 0 -7 9l23 139q2 10 11 10z" />
    <glyph glyph-name="quotesinglbase" unicode="&#x201a;" horiz-adv-x="199" 
d="M55 75h37q9 0 7 -10l-12 -67q-3 -16 -8 -22l-39 -51q-6 -8 -12 -8q-8 0 -7 9l23 139q2 10 11 10z" />
    <glyph glyph-name="quotedblleft" unicode="&#x201c;" horiz-adv-x="330" 
d="M199 681q9 0 7 -9l-24 -139q-2 -10 -11 -10h-36q-9 0 -7 10l12 68q3 14 8 22l39 50q4 8 12 8zM330 681q8 0 7 -9l-24 -139q-2 -10 -11 -10h-36q-9 0 -7 10l12 68q3 14 8 22l39 50q4 8 12 8z" />
    <glyph glyph-name="quotedblright" unicode="&#x201d;" horiz-adv-x="330" 
d="M162 680h37q9 0 7 -10l-12 -67q-3 -16 -8 -22l-39 -51q-6 -8 -12 -8q-9 0 -7 9l23 139q2 10 11 10zM294 680h36q9 0 7 -10l-12 -67q-3 -16 -8 -22l-39 -51q-6 -8 -12 -8q-8 0 -7 9l24 139q2 10 11 10z" />
    <glyph glyph-name="quotedblbase" unicode="&#x201e;" horiz-adv-x="330" 
d="M55 75h37q9 0 7 -10l-12 -67q-3 -16 -8 -22l-39 -51q-6 -8 -12 -8q-8 0 -7 9l23 139q2 10 11 10zM187 75h36q9 0 7 -10l-12 -67q-3 -16 -8 -22l-39 -51q-5 -8 -12 -8q-9 0 -7 9l24 139q2 10 11 10z" />
    <glyph glyph-name="dagger" unicode="&#x2020;" horiz-adv-x="424" 
d="M279 680h29q11 0 9 -10l-43 -237q-2 -6 5 -6h130q10 0 8 -10l-4 -27q-1 -9 -11 -9h-130q-6 0 -7 -6l-96 -545q-3 -10 -12 -10h-29q-10 0 -8 10l96 545q2 6 -4 6h-131q-10 0 -8 10l4 27q1 9 12 9h129q6 0 8 6l42 237q1 10 11 10z" />
    <glyph glyph-name="daggerdbl" unicode="&#x2021;" horiz-adv-x="424" 
d="M274 680h29q11 0 9 -10l-38 -208q-2 -6 5 -6h130q10 0 8 -10l-4 -27q-1 -9 -11 -9h-130q-6 0 -7 -6l-55 -306q-2 -6 5 -6h130q10 0 8 -10l-4 -27q-1 -9 -11 -9h-130q-6 0 -7 -6l-37 -210q-3 -10 -12 -10h-29q-11 0 -8 10l37 210q2 6 -4 6h-131q-10 0 -8 10l4 27q1 9 11 9
h130q6 0 8 6l54 306q2 6 -4 6h-131q-10 0 -8 10l4 27q1 9 11 9h130q6 0 8 6l37 208q1 10 11 10z" />
    <glyph glyph-name="bullet" unicode="&#x2022;" horiz-adv-x="360" 
d="M198 424q49 0 81.5 -33t32.5 -83t-32.5 -83t-81.5 -33q-50 0 -82.5 33t-32.5 83t32.5 83t82.5 33z" />
    <glyph glyph-name="ellipsis" unicode="&#x2026;" horiz-adv-x="625" 
d="M43 85h46q10 0 8 -10l-10 -65q-2 -10 -11 -10h-46q-10 0 -8 10l10 65q2 10 11 10zM252 85h45q10 0 8 -10l-10 -65q-2 -10 -11 -10h-46q-10 0 -8 10l11 65q2 10 11 10zM460 85h45q11 0 9 -10l-11 -65q-2 -10 -11 -10h-45q-11 0 -9 10l11 65q2 10 11 10z" />
    <glyph glyph-name="perthousand" unicode="&#x2030;" horiz-adv-x="1021" 
d="M632 690h25q9 0 4 -10l-498 -680q-9 -10 -16 -10h-24q-12 0 -4 10l497 680q7 10 16 10zM275 688q42 0 67.5 -24.5t25.5 -68.5q0 -31 -12.5 -98t-25.5 -93q-36 -74 -114 -74q-42 0 -67.5 24.5t-25.5 68.5q0 31 13 98t26 93q36 74 113 74zM271 650q-47 0 -71 -46
q-13 -24 -24.5 -85.5t-11.5 -92.5q0 -27 14.5 -42.5t42.5 -15.5q46 0 70 46q13 24 25 86t12 92q0 27 -15 42.5t-42 15.5zM563 350q42 0 68 -24.5t26 -68.5q0 -31 -13 -98.5t-26 -93.5q-36 -73 -113 -73q-42 0 -68 24.5t-26 67.5q0 31 13 98.5t26 93.5q36 74 113 74zM854 350
q42 0 67.5 -24.5t25.5 -68.5q0 -31 -12.5 -98.5t-25.5 -93.5q-36 -73 -114 -73q-42 0 -67.5 24.5t-25.5 67.5q0 31 13 98.5t26 93.5q36 74 113 74zM559 312q-47 0 -71 -46q-13 -24 -24.5 -85.5t-11.5 -92.5q0 -58 57 -58q47 0 70 45q13 24 25 86.5t12 92.5q0 27 -15 42.5
t-42 15.5zM849 312q-46 0 -70 -46q-12 -24 -24 -86t-12 -92q0 -58 57 -58q47 0 70 45q12 24 24 86.5t12 92.5q0 27 -14.5 42.5t-42.5 15.5z" />
    <glyph glyph-name="guilsinglleft" unicode="&#x2039;" horiz-adv-x="297" 
d="M58 271l193 173q3 3 6.5 1.5t2.5 -5.5l-6 -42q-3 -10 -10 -19l-130 -114q-5 -4 -2 -8l88 -114q6 -8 5 -19l-6 -37q0 -3 -2 -4.5t-4.5 -1t-4.5 2.5l-132 173q-6 8 2 14z" />
    <glyph glyph-name="guilsinglright" unicode="&#x203a;" horiz-adv-x="297" 
d="M123 444l133 -174q7 -7 -2 -14l-194 -172q-3 -3 -6.5 -1.5t-2.5 5.5l7 42q1 9 10 18l130 114q4 4 2 8l-89 115q-5 8 -4 18l6 37q1 4 4.5 5.5t5.5 -1.5z" />
    <glyph glyph-name="fraction" unicode="&#x2044;" horiz-adv-x="201" 
d="M363 690h25q11 0 4 -10l-497 -680q-9 -10 -16 -10h-25q-12 0 -4 10l497 680q7 10 16 10z" />
    <glyph glyph-name="zero.superior" unicode="&#x2070;" horiz-adv-x="317" 
d="M267 843q46 0 72.5 -26t26.5 -72q0 -33 -17.5 -125t-30.5 -119q-36 -78 -124 -78q-46 0 -72 26t-26 72q0 34 17 126t30 118q36 78 124 78zM261 802q-53 0 -78 -50q-12 -24 -28 -110t-16 -116q0 -62 61 -62q54 0 79 51q12 24 27.5 109t15.5 116q0 62 -61 62z" />
    <glyph glyph-name="four.superior" unicode="&#x2074;" horiz-adv-x="317" 
d="M280 836h26q4 0 5.5 -3t-1.5 -7l-178 -278v-1h116q6 0 7 6l18 100q2 10 11 10h22q10 0 8 -10l-17 -100q-1 -6 5 -6h35q9 0 7 -10l-3 -21q-1 -9 -10 -9h-37q-4 0 -6 -6l-11 -61q-2 -10 -12 -10h-22q-9 0 -7 10l10 61q2 6 -5 6h-155q-10 0 -8 10l3 21q1 6 7 15l177 273
q6 10 15 10z" />
    <glyph glyph-name="five.superior" unicode="&#x2075;" horiz-adv-x="317" 
d="M175 836h194q10 0 8 -10l-4 -21q-1 -9 -10 -9h-157q-6 0 -7 -6l-23 -125h1q26 32 77 32q40 0 64.5 -22.5t24.5 -63.5q0 -23 -7.5 -61t-16.5 -57q-34 -70 -124 -70q-63 0 -93 25q-5 5 -4 14l13 71q2 10 10 10h22q10 0 8 -10l-8 -48q-1 -7 3 -10q18 -12 54 -12q57 0 81 47
q7 14 13 43.5t6 46.5q0 56 -59 56q-45 0 -71 -38q-5 -9 -13 -9h-21q-10 0 -8 10l36 207q2 10 11 10z" />
    <glyph glyph-name="six.superior" unicode="&#x2076;" horiz-adv-x="317" 
d="M283 836h28q5 0 6 -3t-2 -7l-119 -167l1 -1q19 12 47 12q44 0 70.5 -26t26.5 -69q0 -64 -41 -108t-106 -44q-47 0 -75 27t-28 72q0 53 46 120l132 185q6 9 14 9zM231 631q-41 0 -69 -30t-28 -73q0 -30 18 -47.5t49 -17.5q41 0 69 30t28 73q0 29 -18 47t-49 18z" />
    <glyph glyph-name="seven.superior" unicode="&#x2077;" horiz-adv-x="317" 
d="M166 836h210q10 0 8 -10l-4 -25q-2 -7 -6 -15l-205 -348q-5 -8 -13 -8h-25q-11 0 -4 11l208 354v1h-137q-6 0 -7 -6l-8 -42q-2 -10 -11 -10h-22q-10 0 -8 10l13 78q2 10 11 10z" />
    <glyph glyph-name="eight.superior" unicode="&#x2078;" horiz-adv-x="317" 
d="M267 843q44 0 70.5 -25.5t26.5 -65.5q0 -70 -67 -108v-1q19 -10 31 -31t12 -46q0 -61 -41.5 -102t-104.5 -41q-48 0 -76.5 26.5t-28.5 70.5q0 40 21 73t59 51v2q-36 22 -36 68q0 52 39 90.5t95 38.5zM261 803q-33 0 -59.5 -25t-26.5 -59q0 -25 17 -41t45 -16
q32 0 58.5 25t26.5 59q0 25 -17 41t-44 16zM229 623q-39 0 -68.5 -28t-29.5 -67q0 -29 19 -47t50 -18q39 0 68.5 28t29.5 67q0 29 -19 47t-50 18z" />
    <glyph glyph-name="nine.superior" unicode="&#x2079;" horiz-adv-x="317" 
d="M268 843q47 0 75 -27t28 -72q0 -53 -46 -120l-132 -185q-5 -9 -13 -9h-29q-5 0 -6 3t2 7l118 167l-1 1q-19 -12 -46 -12q-44 0 -70.5 26t-26.5 69q0 64 41 108t106 44zM261 803q-41 0 -69 -30t-28 -73q0 -30 18 -47.5t49 -17.5q41 0 69 30t28 73q0 30 -18 47.5t-49 17.5z
" />
    <glyph glyph-name="plussuperior" unicode="&#x207a;" horiz-adv-x="317" 
d="M211 746h21q9 0 9 -10v-89q0 -6 6 -6h87q10 0 10 -9v-21q0 -9 -10 -9h-87q-6 0 -6 -6v-89q0 -10 -9 -10h-21q-9 0 -9 10v89q0 6 -6 6h-87q-10 0 -10 9v21q0 9 10 9h87q6 0 6 6v89q0 10 9 10z" />
    <glyph glyph-name="uni207B" unicode="&#x207b;" horiz-adv-x="317" 
d="M109 641h225q10 0 10 -9v-21q0 -9 -10 -9h-225q-10 0 -10 9v21q0 9 10 9z" />
    <glyph glyph-name="equalsuperior" unicode="&#x207c;" horiz-adv-x="317" 
d="M109 691h225q10 0 10 -9v-20q0 -10 -10 -10h-225q-10 0 -10 10v20q0 9 10 9zM109 591h225q10 0 10 -9v-21q0 -9 -10 -9h-225q-10 0 -10 9v21q0 9 10 9z" />
    <glyph glyph-name="parenleftsuperior" unicode="&#x207d;" horiz-adv-x="185" 
d="M234 860h18q11 0 4 -10q-97 -139 -97 -300q0 -72 19 -134q3 -10 -7 -10h-17q-8 0 -12 10q-26 64 -26 139q0 162 103 295q7 10 15 10z" />
    <glyph glyph-name="parenrightsuperior" unicode="&#x207e;" horiz-adv-x="185" 
d="M145 860h17q9 0 12 -10q26 -64 26 -139q0 -162 -103 -295q-6 -10 -15 -10h-17q-12 0 -5 10q98 140 98 300q0 69 -20 134q-3 10 7 10z" />
    <glyph glyph-name="zero.inferior" unicode="&#x2080;" horiz-adv-x="317" 
d="M166 257q46 0 72.5 -26t26.5 -72q0 -33 -17.5 -125t-30.5 -119q-36 -78 -124 -78q-46 0 -72 26t-26 72q0 34 17 126t30 118q36 78 124 78zM160 216q-53 0 -78 -50q-12 -24 -28 -110t-16 -116q0 -62 61 -62q53 0 79 51q12 24 27.5 109t15.5 116q0 62 -61 62z" />
    <glyph glyph-name="one.inferior" unicode="&#x2081;" horiz-adv-x="317" 
d="M170 250h23q10 0 8 -10l-62 -349q-1 -6 5 -6h66q10 0 8 -10l-4 -22q-2 -9 -10 -9h-187q-10 0 -8 10l4 21q2 10 10 10h66q7 0 8 6l54 304h-2l-77 -47q-4 -2 -7.5 0t-2.5 6l5 27q1 10 10 15l77 48q9 6 16 6z" />
    <glyph glyph-name="two.inferior" unicode="&#x2082;" horiz-adv-x="317" 
d="M160 257q50 0 76 -24.5t26 -64.5q0 -61 -61 -122l-162 -161v-1h171q10 0 8 -10l-4 -20q-1 -10 -11 -10h-218q-10 0 -8 10l4 20q1 6 8 14l182 183q49 49 49 90q0 56 -62 56q-36 0 -60 -15q-5 -3 -6 -8l-7 -43q-2 -10 -10 -10h-22q-11 0 -9 10l13 68q1 8 9 13q42 25 94 25z
" />
    <glyph glyph-name="three.inferior" unicode="&#x2083;" horiz-adv-x="317" 
d="M155 257q49 0 76.5 -23.5t27.5 -63.5q0 -77 -69 -112v-1q44 -23 44 -80q0 -64 -39.5 -102t-101.5 -38q-60 0 -96 29q-5 5 -4 14l12 70q2 10 11 10h21q11 0 9 -10l-9 -49q-1 -7 4 -10q26 -14 58 -14q39 0 65.5 26t26.5 69q0 28 -17.5 45t-48.5 17h-17q-9 0 -7 10l3 21
q2 10 12 10h13q36 0 61.5 25t25.5 62q0 26 -17.5 40.5t-48.5 14.5q-32 0 -56 -14q-4 -2 -6 -9l-7 -41q-2 -10 -10 -10h-22q-11 0 -9 10l12 66q1 7 9 12q43 26 94 26z" />
    <glyph glyph-name="four.inferior" unicode="&#x2084;" horiz-adv-x="317" 
d="M179 250h26q4 0 5.5 -3t-1.5 -7l-178 -278v-1h116q5 0 7 6l18 100q2 10 11 10h22q10 0 8 -10l-17 -100q-2 -6 5 -6h35q9 0 7 -10l-3 -21q-2 -9 -10 -9h-37q-5 0 -6 -6l-11 -61q-2 -10 -12 -10h-22q-9 0 -7 10l10 61q1 6 -5 6h-155q-10 0 -8 10l3 21q1 6 7 15l177 273
q6 10 15 10z" />
    <glyph glyph-name="five.inferior" unicode="&#x2085;" horiz-adv-x="317" 
d="M73 250h194q10 0 8 -10l-4 -21q-1 -9 -10 -9h-157q-6 0 -7 -6l-23 -125h1q26 32 77 32q40 0 64.5 -22.5t24.5 -63.5q0 -23 -7.5 -61t-16.5 -57q-34 -70 -124 -70q-63 0 -93 25q-5 5 -4 14l13 71q2 10 10 10h22q10 0 8 -10l-8 -48q-1 -7 3 -10q18 -12 54 -12q57 0 81 47
q7 14 13 43.5t6 46.5q0 56 -59 56q-45 0 -71 -38q-5 -9 -13 -9h-21q-10 0 -8 10l36 207q2 10 11 10z" />
    <glyph glyph-name="six.inferior" unicode="&#x2086;" horiz-adv-x="317" 
d="M182 250h28q4 0 5.5 -3t-1.5 -7l-119 -167l1 -1q19 12 47 12q44 0 70.5 -26t26.5 -69q0 -64 -41 -108t-106 -44q-47 0 -75 27t-28 72q0 53 46 120l132 185q6 9 14 9zM130 45q-41 0 -69 -30t-28 -73q0 -30 18 -47.5t49 -17.5q41 0 69 30t28 73q0 29 -18 47t-49 18z" />
    <glyph glyph-name="seven.inferior" unicode="&#x2087;" horiz-adv-x="317" 
d="M64 250h210q10 0 8 -10l-4 -25q-2 -7 -6 -15l-205 -348q-5 -8 -13 -8h-25q-11 0 -4 11l208 354v1h-137q-6 0 -7 -6l-8 -42q-2 -10 -11 -10h-22q-10 0 -8 10l13 78q2 10 11 10z" />
    <glyph glyph-name="eight.inferior" unicode="&#x2088;" horiz-adv-x="317" 
d="M166 257q44 0 70.5 -25.5t26.5 -65.5q0 -70 -67 -108v-1q19 -10 31 -31t12 -46q0 -61 -41.5 -102t-104.5 -41q-48 0 -76.5 26.5t-28.5 70.5q0 40 21 73t59 51v2q-36 22 -36 68q0 52 39 90.5t95 38.5zM160 217q-33 0 -59.5 -25t-26.5 -59q0 -25 17 -41t45 -16
q32 0 58.5 25t26.5 59q0 25 -17 41t-44 16zM128 37q-39 0 -68.5 -28t-29.5 -67q0 -29 19 -47t50 -18q39 0 68.5 28t29.5 67q0 29 -19 47t-50 18z" />
    <glyph glyph-name="nine.inferior" unicode="&#x2089;" horiz-adv-x="317" 
d="M167 257q47 0 75 -27t28 -72q0 -53 -46 -120l-132 -185q-5 -9 -13 -9h-29q-4 0 -5.5 3t1.5 7l118 167l-1 1q-19 -12 -46 -12q-44 0 -70.5 26t-26.5 69q0 64 41 108t106 44zM160 217q-41 0 -69 -30t-28 -73q0 -30 18 -47.5t49 -17.5q41 0 69 30t28 73q0 30 -18 47.5
t-49 17.5z" />
    <glyph glyph-name="uni208A" unicode="&#x208a;" horiz-adv-x="317" 
d="M108 160h21q9 0 9 -10v-89q0 -6 6 -6h87q10 0 10 -9v-21q0 -9 -10 -9h-87q-6 0 -6 -6v-89q0 -10 -9 -10h-21q-9 0 -9 10v89q0 6 -6 6h-87q-10 0 -10 9v21q0 9 10 9h87q6 0 6 6v89q0 10 9 10z" />
    <glyph glyph-name="uni208B" unicode="&#x208b;" horiz-adv-x="317" 
d="M6 55h225q10 0 10 -9v-21q0 -9 -10 -9h-225q-10 0 -10 9v21q0 9 10 9z" />
    <glyph glyph-name="uni208C" unicode="&#x208c;" horiz-adv-x="317" 
d="M6 105h225q10 0 10 -9v-20q0 -10 -10 -10h-225q-10 0 -10 10v20q0 9 10 9zM6 5h225q10 0 10 -9v-21q0 -9 -10 -9h-225q-10 0 -10 9v21q0 9 10 9z" />
    <glyph glyph-name="uni208D" unicode="&#x208d;" horiz-adv-x="185" 
d="M131 274h18q11 0 4 -10q-97 -139 -97 -300q0 -72 19 -134q3 -10 -7 -10h-17q-8 0 -12 10q-26 64 -26 139q0 162 103 295q7 10 15 10z" />
    <glyph glyph-name="uni208E" unicode="&#x208e;" horiz-adv-x="185" 
d="M42 274h17q9 0 12 -10q26 -64 26 -139q0 -162 -103 -295q-6 -10 -15 -10h-17q-12 0 -5 10q98 140 98 300q0 69 -20 134q-3 10 7 10z" />
    <glyph glyph-name="Euro" unicode="&#x20ac;" 
d="M369 690q89 0 137 -43q5 -5 4 -12l-14 -82q-2 -10 -11 -10h-30q-10 0 -8 10l10 58q1 5 -3 8q-36 23 -90 23q-101 0 -145 -87q-21 -44 -35 -122q-2 -6 5 -6h197q5 0 6.5 -3.5t-0.5 -7.5l-10 -21q-5 -10 -15 -10h-186q-5 0 -7 -6l-12 -69q-2 -6 5 -6h178q5 0 6.5 -3
t-0.5 -7l-11 -22q-5 -10 -16 -10h-164q-6 0 -7 -6q-13 -83 -13 -103q0 -61 28 -88t87 -27q69 0 100 21q5 3 6 9l11 63q2 10 11 10h30q10 0 8 -10l-16 -90q-1 -7 -9 -14q-56 -37 -148 -37q-158 0 -158 157q0 38 14 109q2 6 -5 6h-46q-10 0 -8 10l4 22q2 10 12 10h44q5 0 7 6
l13 69q2 6 -4 6h-46q-10 0 -8 10l3 22q2 10 12 10h45q5 0 7 6q17 92 38 135q60 122 197 122z" />
    <glyph glyph-name="uni20B9" unicode="&#x20b9;" 
d="M164 680h354q10 0 8 -10l-4 -22q-2 -10 -12 -10h-137q34 -29 41 -75h83q10 0 8 -10l-4 -22q-2 -10 -12 -10h-73q-4 -98 -66.5 -153t-164.5 -55h-30l153 -262q4 -5 9 -5h56q10 0 8 -10l-5 -26q-1 -10 -11 -10h-79q-8 0 -14 9l-174 304q-4 7 -3 14l4 23q2 10 12 10h70
q83 0 131.5 41.5t51.5 119.5h-228q-10 0 -8 10l3 22q2 10 12 10h217q-20 75 -131 75h-73q-10 0 -8 10l4 22q2 10 12 10z" />
    <glyph glyph-name="uni20BA" unicode="&#x20ba;" 
d="M143 680h180q10 0 8 -10l-5 -26q-1 -10 -11 -10h-58q-6 0 -7 -6l-24 -136l210 96q4 2 7 0t2 -6l-5 -29q-1 -9 -12 -14l-211 -97l-15 -84l211 97q4 2 7 0.5t2 -6.5l-5 -29q-1 -9 -12 -14l-211 -97l-45 -254q-1 -6 5 -6q107 0 182 69t95 187q2 10 11 10h29q10 0 8 -10
q-25 -146 -115 -225.5t-232 -79.5h-108q-10 0 -8 10l4 26q2 10 12 10h57q5 0 7 6l40 231l-61 -28q-4 -2 -7 0t-2 6l5 29q1 9 13 14l61 28l15 84l-62 -28q-4 -2 -7 -0.5t-2 6.5l5 30q1 8 12 13l62 28l29 163q1 6 -5 6h-57q-10 0 -8 10l4 26q1 10 12 10z" />
    <glyph glyph-name="uni2113" unicode="&#x2113;" horiz-adv-x="353" 
d="M289 690q34 0 54.5 -24t20.5 -67q0 -149 -193 -316l-32 -183q-2 -14 -2 -21q0 -41 36 -41q29 0 64 33q9 7 13 -1l11 -20q5 -8 -2 -14q-46 -46 -98 -46q-75 0 -75 79q0 14 3 32l25 140l-34 -27q-8 -7 -13 1l-11 21q-5 8 3 14l66 53l38 213q16 90 46.5 132t79.5 42z
M284 646q-48 0 -70 -127l-31 -172q134 132 134 249q0 50 -33 50z" />
    <glyph glyph-name="published" unicode="&#x2117;" horiz-adv-x="831" 
d="M437 690q149 0 249.5 -100.5t100.5 -249.5t-100.5 -249.5t-249.5 -100.5t-249.5 100.5t-100.5 249.5t100.5 249.5t249.5 100.5zM437 650q-132 0 -220.5 -88.5t-88.5 -221.5t88.5 -221.5t220.5 -88.5t220 88.5t88 221.5t-88 221.5t-220 88.5zM310 532h170q63 0 96.5 -29.5
t33.5 -83.5q0 -53 -33.5 -83t-96.5 -30h-87q-6 0 -6 -6v-110q0 -6 6 -6h34q10 0 10 -9v-18q0 -9 -10 -9h-117q-9 0 -9 9v18q0 9 9 9h32q6 0 6 6v300q0 6 -6 6h-32q-9 0 -9 9v18q0 9 9 9zM479 495h-86q-6 0 -6 -6v-140q0 -6 6 -6h86q92 0 92 77q0 75 -92 75z" />
    <glyph glyph-name="trademark" unicode="&#x2122;" horiz-adv-x="894" 
d="M89 680h289q10 0 10 -10v-68q0 -10 -10 -10h-20q-10 0 -10 10v35q0 6 -6 6h-82q-6 0 -6 -6v-308q0 -6 6 -6h30q10 0 10 -10v-17q0 -10 -10 -10h-112q-10 0 -10 10v17q0 10 10 10h30q6 0 6 6v308q0 6 -6 6h-82q-6 0 -6 -6v-35q0 -10 -10 -10h-21q-10 0 -10 10v68
q0 10 10 10zM794 680h65q10 0 10 -10v-21q0 -10 -10 -10h-30q-6 0 -6 -6v-304q0 -6 6 -6h30q10 0 10 -10v-17q0 -10 -10 -10h-110q-10 0 -10 10v17q0 10 10 10h29q6 0 6 6v251h-2l-110 -230q-4 -8 -11 -8h-20q-7 0 -11 8l-110 231h-2v-252q0 -6 6 -6h29q10 0 10 -10v-17
q0 -10 -10 -10h-110q-10 0 -10 10v17q0 10 10 10h30q6 0 6 6v306q0 6 -6 6h-30q-10 0 -10 10v19q0 10 10 10h65q8 0 12 -9l131 -277h2l129 277q4 9 12 9z" />
    <glyph glyph-name="Omega" unicode="&#x2126;" horiz-adv-x="584" 
d="M375 690q89 0 138 -50.5t49 -143.5q0 -51 -18 -156q-24 -133 -59 -196.5t-99 -95.5v-2h88q10 0 8 -10l-5 -26q-2 -10 -11 -10h-165q-10 0 -8 10l5 28q1 8 11 11q81 29 119 90.5t63 200.5q17 90 17 149q0 73 -35.5 112t-105.5 39q-123 0 -180 -116q-30 -65 -52 -184
q-16 -90 -16 -137q0 -63 21.5 -97t74.5 -57q9 -4 8 -11l-5 -28q-2 -10 -11 -10h-165q-10 0 -8 10l5 26q2 10 11 10h90l1 2q-75 44 -75 151q0 46 17 141q24 136 54 198q72 152 238 152z" />
    <glyph glyph-name="estimated" unicode="&#x212e;" horiz-adv-x="830" 
d="M415 671q156 0 267 -99.5t111 -247.5h-608q-10 0 -10 -11v-197q47 -51 110 -78.5t130 -27.5q73 0 139 32.5t113 88.5h57q-56 -68 -138 -105t-171 -37q-100 0 -186 42.5t-139.5 121.5t-53.5 177q0 145 110.5 243t268.5 98zM415 650q-70 0 -133 -28.5t-107 -78.5v-185
q0 -11 10 -11h461q9 0 9 11v184q-44 51 -108 79.5t-132 28.5z" />
    <glyph glyph-name="partialdiff" unicode="&#x2202;" horiz-adv-x="509" 
d="M331 690q86 0 127.5 -61t41.5 -166q0 -74 -18.5 -160t-49.5 -151q-79 -162 -221 -162q-71 0 -110.5 45.5t-39.5 119.5q0 103 63.5 181t165.5 78q100 0 147 -90h1q14 75 14 131q0 88 -32 138t-97 50q-55 0 -121 -45q-7 -6 -11 3l-11 24q-3 7 5 14q71 51 146 51zM291 368
q-80 0 -130.5 -61.5t-50.5 -145.5q0 -57 30 -90t82 -33q72 0 124 62.5t80 172.5q-43 95 -135 95z" />
    <glyph glyph-name="Delta" unicode="&#x2206;" horiz-adv-x="574" 
d="M498 0h-497q-10 0 -5 10l345 660q5 10 13 10h33q7 0 9 -10l110 -660q2 -10 -8 -10zM77 47h366q7 0 5 6l-89 541h-2l-283 -541q-3 -6 3 -6z" />
    <glyph glyph-name="product" unicode="&#x220f;" horiz-adv-x="636" 
d="M52 740h559q10 0 10 -10v-26q0 -10 -10 -10h-59q-6 0 -6 -6v-858q0 -10 -10 -10h-32q-10 0 -10 10v857q0 6 -6 6h-313q-6 0 -6 -6v-857q0 -10 -10 -10h-32q-10 0 -10 10v858q0 6 -6 6h-59q-10 0 -10 10v26q0 10 10 10z" />
    <glyph glyph-name="summation" unicode="&#x2211;" horiz-adv-x="531" 
d="M89 740h406q10 0 10 -10v-117q0 -10 -10 -10h-29q-10 0 -10 10v71q0 6 -6 6h-312l191 -356q3 -8 0 -15l-198 -449h328q6 0 6 6v71q0 10 10 10h30q10 0 10 -10v-117q0 -10 -10 -10h-420q-10 0 -10 10v30q0 5 2 9l198 453l-193 365q-3 6 -3 11v32q0 10 10 10z" />
    <glyph glyph-name="minus" unicode="&#x2212;" 
d="M71 300h376q10 0 10 -10v-27q0 -10 -10 -10h-376q-10 0 -10 10v27q0 10 10 10z" />
    <glyph glyph-name="uni2215" unicode="&#x2215;" horiz-adv-x="201" 
d="M363 690h25q11 0 4 -10l-497 -680q-9 -10 -16 -10h-25q-12 0 -4 10l497 680q7 10 16 10z" />
    <glyph glyph-name="uni2219" unicode="&#x2219;" horiz-adv-x="209" 
d="M97 308h45q10 0 8 -10l-10 -65q-2 -10 -11 -10h-46q-10 0 -8 10l11 65q2 10 11 10z" />
    <glyph glyph-name="radical" unicode="&#x221a;" horiz-adv-x="600" 
d="M622 740h28q11 0 6 -10l-399 -900q-4 -10 -13 -10h-25q-8 0 -11 10l-88 302q-2 6 -8 3l-76 -35q-10 -4 -12 4l-7 24q-3 10 5 13l118 54q10 5 12 -4l84 -297h3l370 836q4 10 13 10z" />
    <glyph glyph-name="infinity" unicode="&#x221e;" horiz-adv-x="770" 
d="M570 403q68 0 110 -42.5t42 -113.5q0 -69 -42 -113t-109 -44q-48 0 -91.5 29t-94.5 92q-52 -63 -95 -92t-92 -29q-66 0 -108 43.5t-42 113.5t41.5 113t109.5 43q47 0 90 -29.5t95 -92.5q54 65 97 93.5t89 28.5zM200 362q-51 0 -80.5 -32t-29.5 -82t31 -83.5t79 -33.5
q37 0 72 26.5t85 89.5q-51 63 -85.5 89t-71.5 26zM569 362q-37 0 -71.5 -26t-85.5 -90q53 -66 86 -90.5t71 -24.5q50 0 80.5 35t30.5 82q0 50 -29.5 82t-81.5 32z" />
    <glyph glyph-name="integral" unicode="&#x222b;" horiz-adv-x="364" 
d="M366 741q14 0 30 -2q8 -2 7 -10l-4 -28q-2 -12 -11 -10q-18 2 -25 2q-72 0 -93 -116l-103 -580q-17 -94 -52 -134.5t-96 -42.5q-22 0 -30 2t-7 10l4 27q2 12 11 10q9 -1 25 -1q72 0 93 115l103 581q16 94 51.5 134.5t96.5 42.5z" />
    <glyph glyph-name="approxequal" unicode="&#x2248;" 
d="M178 429q42 0 97 -40q45 -31 75 -31q47 0 81 56q5 8 14 3l17 -11q9 -4 3 -14q-39 -79 -117 -79q-44 0 -97 39q-46 32 -75 32q-26 0 -44.5 -13t-37.5 -44q-5 -8 -13 -2l-18 11q-7 4 -3 14q40 79 118 79zM178 239q44 0 97 -39q46 -32 75 -32q47 0 81 57q5 9 14 2l17 -11
q9 -4 3 -14q-39 -79 -117 -79q-42 0 -97 40q-45 31 -75 31q-46 0 -82 -56q-5 -8 -13 -3l-18 11q-7 4 -3 14q40 79 118 79z" />
    <glyph glyph-name="notequal" unicode="&#x2260;" 
d="M373 507h25q11 0 5 -10l-57 -100h97q10 0 10 -10v-28q0 -10 -10 -10h-125l-83 -146h208q10 0 10 -10v-28q0 -10 -10 -10h-235l-57 -100q-4 -10 -14 -10h-25q-11 0 -5 10l57 100h-97q-10 0 -10 10v28q0 10 10 10h124l83 146h-207q-10 0 -10 10v28q0 10 10 10h235l57 100
q4 10 14 10z" />
    <glyph glyph-name="lessequal" unicode="&#x2264;" 
d="M73 331l376 154q10 3 10 -7v-32q0 -9 -10 -13l-319 -125v-2l319 -126q10 -4 10 -13v-32q0 -10 -10 -7l-376 154q-10 4 -10 13v23q0 9 10 13zM73 48h376q10 0 10 -10v-28q0 -10 -10 -10h-376q-10 0 -10 10v28q0 10 10 10z" />
    <glyph glyph-name="greaterequal" unicode="&#x2265;" 
d="M69 485l376 -154q10 -4 10 -13v-23q0 -9 -10 -13l-376 -154q-10 -3 -10 7v32q0 9 10 13l318 126v2l-318 125q-10 4 -10 13v32q0 10 10 7zM69 48h376q10 0 10 -10v-28q0 -10 -10 -10h-376q-10 0 -10 10v28q0 10 10 10z" />
    <glyph glyph-name="lozenge" unicode="&#x25ca;" horiz-adv-x="535" 
d="M340 710h27q8 0 11 -10l107 -364q1 -7 -3 -14l-235 -364q-7 -10 -14 -10h-28q-7 0 -9 10l-109 364q-1 7 3 14l236 364q7 10 14 10zM345 647l-210 -324l93 -313h2l208 324l-91 313h-2z" />
    <glyph glyph-name="uniF8FF" unicode="&#xf8ff;" horiz-adv-x="470" 
d="M10 680h450q10 0 10 -10v-660q0 -10 -10 -10h-450q-10 0 -10 10v660q0 10 10 10zM425 643h-380q-6 0 -6 -6v-594q0 -6 6 -6h380q6 0 6 6v594q0 6 -6 6zM227 562q54 0 85 -29.5t31 -77.5q0 -28 -8.5 -48t-30.5 -48l-37 -48q-20 -25 -20 -55v-22q0 -10 -10 -10h-22
q-10 0 -10 10v24q0 39 23 68l37 47q36 44 36 80q0 32 -20 51t-55 19q-36 0 -59 -16q-5 -4 -5 -10v-45q0 -10 -10 -10h-20q-10 0 -10 10v64q0 10 10 17q39 29 95 29zM210 171h31q10 0 10 -10v-38q0 -10 -10 -10h-31q-10 0 -10 10v38q0 10 10 10z" />
    <glyph glyph-name="Z.alt01" horiz-adv-x="523" 
d="M150 680h394q11 0 9 -10l-5 -30q-1 -7 -7 -14l-206 -257h104q10 0 8 -10l-4 -27q-2 -10 -11 -10h-135l-217 -271v-1h310q6 0 7 6l12 67q2 10 11 10h31q10 0 8 -10l-20 -113q-1 -10 -11 -10h-411q-11 0 -9 10l6 31q1 6 7 15l213 266h-90q-10 0 -8 10l5 27q2 10 11 10h120
l209 260v1h-294q-5 0 -7 -6l-11 -63q-2 -10 -11 -10h-31q-10 0 -8 10l19 109q1 10 12 10z" />
    <glyph glyph-name="Zacute.alt01" horiz-adv-x="523" 
d="M426 888h36q5 0 6 -3t-3 -7l-107 -104q-10 -10 -19 -10h-24q-11 0 -2 11l94 103q10 10 19 10zM150 680h394q11 0 9 -10l-5 -30q-1 -7 -7 -14l-206 -257h104q10 0 8 -10l-4 -27q-2 -10 -11 -10h-135l-217 -271v-1h310q6 0 7 6l12 67q2 10 11 10h31q10 0 8 -10l-20 -113
q-1 -10 -11 -10h-411q-11 0 -9 10l6 31q1 6 7 15l213 266h-90q-10 0 -8 10l5 27q2 10 11 10h120l209 260v1h-294q-5 0 -7 -6l-11 -63q-2 -10 -11 -10h-31q-10 0 -8 10l19 109q1 10 12 10z" />
    <glyph glyph-name="Zcaron.alt01" horiz-adv-x="523" 
d="M460 895h22q5 0 6 -3t-3 -7l-107 -122q-8 -9 -17 -9h-20q-9 0 -13 9l-66 122q-2 4 -0.5 7t5.5 3h19q10 0 15 -9l53 -90h2l86 90q8 9 18 9zM150 680h394q11 0 9 -10l-5 -30q-1 -7 -7 -14l-206 -257h104q10 0 8 -10l-4 -27q-2 -10 -11 -10h-135l-217 -271v-1h310q6 0 7 6
l12 67q2 10 11 10h31q10 0 8 -10l-20 -113q-1 -10 -11 -10h-411q-11 0 -9 10l6 31q1 6 7 15l213 266h-90q-10 0 -8 10l5 27q2 10 11 10h120l209 260v1h-294q-5 0 -7 -6l-11 -63q-2 -10 -11 -10h-31q-10 0 -8 10l19 109q1 10 12 10z" />
    <glyph glyph-name="Zdotaccent.alt01" horiz-adv-x="523" 
d="M348 861h42q10 0 8 -10l-9 -54q-2 -10 -11 -10h-42q-10 0 -8 10l9 54q2 10 11 10zM150 680h394q11 0 9 -10l-5 -30q-1 -7 -7 -14l-206 -257h104q10 0 8 -10l-4 -27q-2 -10 -11 -10h-135l-217 -271v-1h310q6 0 7 6l12 67q2 10 11 10h31q10 0 8 -10l-20 -113
q-1 -10 -11 -10h-411q-11 0 -9 10l6 31q1 6 7 15l213 266h-90q-10 0 -8 10l5 27q2 10 11 10h120l209 260v1h-294q-5 0 -7 -6l-11 -63q-2 -10 -11 -10h-31q-10 0 -8 10l19 109q1 10 12 10z" />
    <glyph glyph-name="a.alt01" horiz-adv-x="534" 
d="M275 487q97 0 126 -82h1l11 62q2 10 11 10h102q10 0 8 -10l-5 -26q-1 -10 -11 -10h-54q-7 0 -8 -7l-65 -371q-1 -7 5 -7h55q10 0 8 -10l-5 -26q-1 -10 -12 -10h-102q-10 0 -8 10l10 57h-1q-53 -77 -151 -77q-67 0 -103 41t-36 114q0 55 15.5 124t33.5 106q55 112 175 112
zM278 439q-91 0 -133 -87q-19 -37 -31 -96.5t-12 -103.5q0 -114 105 -114q90 0 137 92q12 23 25.5 91t13.5 107q0 51 -27 81t-78 30z" />
    <glyph glyph-name="aacute.alt01" horiz-adv-x="534" 
d="M382 700h34q4 0 5.5 -3t-1.5 -7l-106 -122q-10 -10 -18 -10h-22q-11 0 -3 10l92 122q8 10 19 10zM275 487q97 0 126 -82h1l11 62q2 10 11 10h102q10 0 8 -10l-5 -26q-1 -10 -11 -10h-54q-7 0 -8 -7l-65 -371q-1 -7 5 -7h55q10 0 8 -10l-5 -26q-1 -10 -12 -10h-102
q-10 0 -8 10l10 57h-1q-53 -77 -151 -77q-67 0 -103 41t-36 114q0 55 15.5 124t33.5 106q55 112 175 112zM278 439q-91 0 -133 -87q-19 -37 -31 -96.5t-12 -103.5q0 -114 105 -114q90 0 137 92q12 23 25.5 91t13.5 107q0 51 -27 81t-78 30z" />
    <glyph glyph-name="abreve.alt01" horiz-adv-x="534" 
d="M419 684h17q10 0 7 -10q-15 -46 -51.5 -74t-84.5 -28t-75 28t-26 74q0 10 10 10h16q9 0 11 -10q5 -62 70 -62q64 0 93 62q5 10 13 10zM275 487q97 0 126 -82h1l11 62q2 10 11 10h102q10 0 8 -10l-5 -26q-1 -10 -11 -10h-54q-7 0 -8 -7l-65 -371q-1 -7 5 -7h55q10 0 8 -10
l-5 -26q-1 -10 -12 -10h-102q-10 0 -8 10l10 57h-1q-53 -77 -151 -77q-67 0 -103 41t-36 114q0 55 15.5 124t33.5 106q55 112 175 112zM278 439q-91 0 -133 -87q-19 -37 -31 -96.5t-12 -103.5q0 -114 105 -114q90 0 137 92q12 23 25.5 91t13.5 107q0 51 -27 81t-78 30z" />
    <glyph glyph-name="acircumflex.alt01" horiz-adv-x="534" 
d="M319 700h20q9 0 13 -9l65 -122q6 -10 -4 -10h-20q-9 0 -15 9l-52 91h-2l-86 -91q-9 -9 -19 -9h-22q-4 0 -5 3t3 7l107 122q8 9 17 9zM275 487q97 0 126 -82h1l11 62q2 10 11 10h102q10 0 8 -10l-5 -26q-1 -10 -11 -10h-54q-7 0 -8 -7l-65 -371q-1 -7 5 -7h55q10 0 8 -10
l-5 -26q-1 -10 -12 -10h-102q-10 0 -8 10l10 57h-1q-53 -77 -151 -77q-67 0 -103 41t-36 114q0 55 15.5 124t33.5 106q55 112 175 112zM278 439q-91 0 -133 -87q-19 -37 -31 -96.5t-12 -103.5q0 -114 105 -114q90 0 137 92q12 23 25.5 91t13.5 107q0 51 -27 81t-78 30z" />
    <glyph glyph-name="adieresis.alt01" horiz-adv-x="534" 
d="M209 680h37q10 0 8 -10l-9 -53q-2 -10 -11 -10h-37q-10 0 -8 10l9 53q2 10 11 10zM401 680h37q10 0 8 -10l-9 -53q-2 -10 -11 -10h-37q-10 0 -8 10l9 53q2 10 11 10zM275 487q97 0 126 -82h1l11 62q2 10 11 10h102q10 0 8 -10l-5 -26q-1 -10 -11 -10h-54q-7 0 -8 -7
l-65 -371q-1 -7 5 -7h55q10 0 8 -10l-5 -26q-1 -10 -12 -10h-102q-10 0 -8 10l10 57h-1q-53 -77 -151 -77q-67 0 -103 41t-36 114q0 55 15.5 124t33.5 106q55 112 175 112zM278 439q-91 0 -133 -87q-19 -37 -31 -96.5t-12 -103.5q0 -114 105 -114q90 0 137 92q12 23 25.5 91
t13.5 107q0 51 -27 81t-78 30z" />
    <glyph glyph-name="agrave.alt01" horiz-adv-x="534" 
d="M212 700h31q9 0 13 -10l53 -122q5 -10 -7 -10h-20q-10 0 -15 10l-62 122q-2 4 0 7t7 3zM275 487q97 0 126 -82h1l11 62q2 10 11 10h102q10 0 8 -10l-5 -26q-1 -10 -11 -10h-54q-7 0 -8 -7l-65 -371q-1 -7 5 -7h55q10 0 8 -10l-5 -26q-1 -10 -12 -10h-102q-10 0 -8 10
l10 57h-1q-53 -77 -151 -77q-67 0 -103 41t-36 114q0 55 15.5 124t33.5 106q55 112 175 112zM278 439q-91 0 -133 -87q-19 -37 -31 -96.5t-12 -103.5q0 -114 105 -114q90 0 137 92q12 23 25.5 91t13.5 107q0 51 -27 81t-78 30z" />
    <glyph glyph-name="amacron.alt01" horiz-adv-x="534" 
d="M199 664h234q10 0 8 -10l-4 -22q-1 -10 -11 -10h-234q-10 0 -8 10l4 22q1 10 11 10zM275 487q97 0 126 -82h1l11 62q2 10 11 10h102q10 0 8 -10l-5 -26q-1 -10 -11 -10h-54q-7 0 -8 -7l-65 -371q-1 -7 5 -7h55q10 0 8 -10l-5 -26q-1 -10 -12 -10h-102q-10 0 -8 10l10 57
h-1q-53 -77 -151 -77q-67 0 -103 41t-36 114q0 55 15.5 124t33.5 106q55 112 175 112zM278 439q-91 0 -133 -87q-19 -37 -31 -96.5t-12 -103.5q0 -114 105 -114q90 0 137 92q12 23 25.5 91t13.5 107q0 51 -27 81t-78 30z" />
    <glyph glyph-name="aogonek.alt01" horiz-adv-x="534" 
d="M275 487q97 0 126 -82h1l11 62q2 10 11 10h102q10 0 8 -10l-5 -26q-1 -10 -11 -10h-54q-7 0 -8 -7l-65 -371q-1 -7 5 -7h55q10 0 8 -10l-5 -26q-1 -10 -12 -10h-63q-57 -38 -78 -61t-21 -43q0 -24 24 -24q11 0 29 10q8 5 11 -2l7 -20q2 -6 -6 -13q-25 -17 -55 -17
q-25 0 -40.5 14.5t-15.5 39.5q0 58 97 121l11 62h-1q-53 -77 -151 -77q-67 0 -103 41t-36 114q0 55 15.5 124t33.5 106q55 112 175 112zM278 439q-91 0 -133 -87q-19 -37 -31 -96.5t-12 -103.5q0 -114 105 -114q90 0 137 92q12 23 25.5 91t13.5 107q0 51 -27 81t-78 30z" />
    <glyph glyph-name="aring.alt01" horiz-adv-x="534" 
d="M326 716q31 0 50.5 -20t19.5 -51q0 -43 -28.5 -73t-72.5 -30q-31 0 -50.5 20t-19.5 51q0 43 28.5 73t72.5 30zM320 686q-26 0 -44.5 -20t-18.5 -48q0 -21 11.5 -33.5t32.5 -12.5q26 0 45 20t19 48q0 21 -12 33.5t-33 12.5zM275 487q97 0 126 -82h1l11 62q2 10 11 10h102
q10 0 8 -10l-5 -26q-1 -10 -11 -10h-54q-7 0 -8 -7l-65 -371q-1 -7 5 -7h55q10 0 8 -10l-5 -26q-1 -10 -12 -10h-102q-10 0 -8 10l10 57h-1q-53 -77 -151 -77q-67 0 -103 41t-36 114q0 55 15.5 124t33.5 106q55 112 175 112zM278 439q-91 0 -133 -87q-19 -37 -31 -96.5
t-12 -103.5q0 -114 105 -114q90 0 137 92q12 23 25.5 91t13.5 107q0 51 -27 81t-78 30z" />
    <glyph glyph-name="atilde.alt01" horiz-adv-x="534" 
d="M267 679q27 0 54 -20q23 -18 44 -18q28 0 61 33q3 3 6 1.5t2 -4.5l-4 -30q-3 -9 -10 -15q-30 -28 -64 -28q-26 0 -54 21q-27 18 -44 18q-27 0 -62 -33q-3 -3 -6 -2t-2 5l5 29q1 8 9 16q30 27 65 27zM275 487q97 0 126 -82h1l11 62q2 10 11 10h102q10 0 8 -10l-5 -26
q-1 -10 -11 -10h-54q-7 0 -8 -7l-65 -371q-1 -7 5 -7h55q10 0 8 -10l-5 -26q-1 -10 -12 -10h-102q-10 0 -8 10l10 57h-1q-53 -77 -151 -77q-67 0 -103 41t-36 114q0 55 15.5 124t33.5 106q55 112 175 112zM278 439q-91 0 -133 -87q-19 -37 -31 -96.5t-12 -103.5
q0 -114 105 -114q90 0 137 92q12 23 25.5 91t13.5 107q0 51 -27 81t-78 30z" />
    <glyph glyph-name="germandbls.alt01" horiz-adv-x="528" 
d="M298 680h28q10 0 8 -10l-4 -28q-2 -10 -11 -10h-23q-50 0 -69 -17t-29 -73l-10 -59q-2 -6 4 -6h295q10 0 8 -10l-4 -27q-2 -10 -7 -15l-154 -171v-2q51 -18 79.5 -59t28.5 -99q0 -117 -77 -196t-202 -79q-10 0 -8 10l4 28q2 10 12 10q94 0 156.5 62t62.5 159
q0 106 -106 129q-10 2 -8 11l4 29q1 5 9 15l140 156v2h-241q-4 0 -6 -6l-66 -372q-2 -6 5 -6h54q10 0 8 -10l-5 -26q-1 -10 -12 -10h-170q-10 0 -8 10l5 26q1 10 12 10h54q5 0 7 6l85 485q15 84 47.5 113.5t103.5 29.5z" />
    <glyph glyph-name="f_i" horiz-adv-x="584" 
d="M319 680h28q10 0 8 -10l-5 -26q-1 -10 -12 -10h-20q-50 0 -69 -17t-29 -74l-11 -60q-1 -6 4 -6h98q10 0 8 -10l-5 -26q-1 -10 -12 -10h-97q-5 0 -6 -6l-66 -373q-1 -6 5 -6h65q10 0 8 -10l-5 -26q-1 -10 -12 -10h-181q-10 0 -8 10l5 26q1 10 12 10h54q6 0 7 6l66 373
q1 6 -4 6h-51q-10 0 -8 10l5 26q2 10 12 10h49q6 0 7 6l10 55q15 83 47.5 112.5t102.5 29.5zM511 680h41q10 0 8 -10l-10 -53q-2 -10 -11 -10h-41q-10 0 -8 10l10 53q2 10 11 10zM410 477h101q10 0 8 -10l-73 -415q-2 -6 5 -6h55q10 0 8 -10l-5 -26q-1 -10 -12 -10h-171
q-10 0 -8 10l5 26q1 10 12 10h53q6 0 7 6l66 372q1 7 -5 7h-55q-10 0 -8 10l5 26q2 10 12 10z" />
    <glyph glyph-name="f_l" horiz-adv-x="565" 
d="M319 680h28q10 0 8 -10l-5 -26q-1 -10 -12 -10h-20q-50 0 -69 -17t-29 -74l-11 -60q-1 -6 4 -6h98q10 0 8 -10l-5 -26q-1 -10 -12 -10h-97q-5 0 -6 -6l-66 -373q-1 -6 5 -6h65q10 0 8 -10l-5 -26q-1 -10 -12 -10h-181q-10 0 -8 10l5 26q1 10 12 10h54q6 0 7 6l66 373
q1 6 -4 6h-51q-10 0 -8 10l5 26q2 10 12 10h49q6 0 7 6l10 55q15 83 47.5 112.5t102.5 29.5zM424 680h101q10 0 8 -10l-101 -552q-5 -25 -5 -37q0 -36 41 -36h16q10 0 8 -10l-4 -27q-1 -10 -12 -10h-22q-78 0 -78 70q0 19 5 44l94 515q1 7 -5 7h-55q-10 0 -8 10l5 26
q1 10 12 10z" />
    <glyph glyph-name="zero.alt01" 
d="M336 690q70 0 110 -39t40 -107q0 -65 -30 -226t-53 -208q-57 -120 -187 -120q-70 0 -110 39t-40 107q0 65 30 226t53 208q57 120 187 120zM330 642q-91 0 -133 -86q-21 -43 -50.5 -199t-29.5 -214q0 -17 2 -25l300 481q-27 43 -89 43zM432 563l-300 -481q25 -44 90 -44
q91 0 133 86q21 43 50 199t29 214q0 10 -2 26z" />
    <glyph glyph-name="six.alt01" 
d="M355 690q81 0 130 -34q6 -5 5 -13l-18 -100q-2 -10 -10 -10h-30q-10 0 -8 10l13 73q1 6 -5 10q-29 16 -83 16q-137 0 -166 -160l-20 -110h1q52 71 143 71q68 0 106 -37t38 -104q0 -41 -11.5 -101.5t-28.5 -96.5q-56 -114 -187 -114q-68 0 -107.5 36.5t-39.5 106.5
q0 31 9 84l46 263q36 210 223 210zM295 395q-93 0 -135 -85q-13 -25 -23 -80.5t-10 -89.5q0 -48 27 -75t78 -27q92 0 134 85q14 29 24 81.5t10 88.5q0 47 -27 74.5t-78 27.5z" />
    <glyph glyph-name="seven.alt01" 
d="M174 680h329q11 0 9 -10l-5 -29q-2 -8 -6 -16l-142 -254h68q10 0 8 -10l-5 -27q-2 -10 -12 -10h-85l-175 -315q-5 -9 -15 -9h-33q-10 0 -4 11l174 313h-105q-10 0 -8 10l4 28q1 9 12 9h123l145 259v2h-240q-5 0 -7 -6l-16 -89q-2 -10 -11 -10h-30q-9 0 -7 10l23 133
q2 10 11 10z" />
    <glyph glyph-name="nine.alt01" 
d="M332 690q68 0 107 -36.5t39 -106.5q0 -31 -9 -84l-46 -263q-36 -210 -224 -210q-79 0 -136 35q-6 4 -5 13l18 99q2 10 10 10h30q11 0 9 -10l-14 -72q-1 -7 5 -10q39 -17 89 -17q69 0 110.5 38.5t56.5 121.5l20 109h-1q-49 -70 -144 -70q-68 0 -105.5 37t-37.5 104
q0 41 11.5 101.5t28.5 96.5q56 114 188 114zM324 642q-93 0 -135 -85q-14 -29 -24 -81.5t-10 -88.5q0 -47 27 -74.5t78 -27.5q93 0 135 85q13 25 22.5 80t9.5 90q0 48 -26.5 75t-76.5 27z" />
    <glyph glyph-name="zero.alt02" horiz-adv-x="458" 
d="M329 690q70 0 110 -39t40 -107q0 -65 -30 -226t-53 -208q-57 -120 -187 -120q-70 0 -110 39t-40 107q0 65 30 226t53 208q57 120 187 120zM323 642q-91 0 -133 -86q-21 -43 -50.5 -199t-29.5 -214q0 -17 2 -25l300 481q-27 43 -89 43zM425 563l-300 -481q25 -44 90 -44
q91 0 133 86q21 43 50 199t29 214q0 10 -2 26z" />
    <glyph glyph-name="six.alt02" horiz-adv-x="436" 
d="M333 690q81 0 130 -34q6 -5 5 -13l-18 -100q-2 -10 -10 -10h-30q-10 0 -8 10l13 73q1 6 -5 10q-29 16 -83 16q-137 0 -166 -160l-20 -110h1q52 71 143 71q68 0 106 -37t38 -104q0 -41 -11.5 -101.5t-28.5 -96.5q-56 -114 -187 -114q-68 0 -107.5 36.5t-39.5 106.5
q0 31 9 84l46 263q36 210 223 210zM273 395q-93 0 -135 -85q-13 -25 -23 -80.5t-10 -89.5q0 -48 27 -75t78 -27q92 0 134 85q14 29 24 81.5t10 88.5q0 47 -27 74.5t-78 27.5z" />
    <glyph glyph-name="seven.alt02" horiz-adv-x="380" 
d="M152 680h329q11 0 9 -10l-5 -29q-2 -8 -6 -16l-142 -254h68q10 0 8 -10l-5 -27q-2 -10 -12 -10h-85l-175 -315q-5 -9 -15 -9h-33q-10 0 -4 11l174 313h-105q-10 0 -8 10l4 28q1 9 12 9h123l145 259v2h-240q-5 0 -7 -6l-16 -89q-2 -10 -11 -10h-30q-9 0 -7 10l23 133
q2 10 11 10z" />
    <glyph glyph-name="nine.alt02" horiz-adv-x="431" 
d="M309 690q68 0 107 -36.5t39 -106.5q0 -31 -9 -84l-46 -263q-36 -210 -224 -210q-79 0 -136 35q-6 4 -5 13l18 99q2 10 10 10h30q11 0 9 -10l-14 -72q-1 -7 5 -10q39 -17 89 -17q69 0 110.5 38.5t56.5 121.5l20 109h-1q-49 -70 -144 -70q-68 0 -105.5 37t-37.5 104
q0 41 11.5 101.5t28.5 96.5q56 114 188 114zM301 642q-93 0 -135 -85q-14 -29 -24 -81.5t-10 -88.5q0 -47 27 -74.5t78 -27.5q93 0 135 85q13 25 22.5 80t9.5 90q0 48 -26.5 75t-76.5 27z" />
    <glyph glyph-name="zero.lf" horiz-adv-x="458" 
d="M330 690q70 0 110 -39t40 -107q0 -65 -30 -226t-53 -208q-57 -120 -187 -120q-70 0 -110 39t-40 107q0 65 30 226t53 208q57 120 187 120zM324 642q-91 0 -133 -86q-21 -43 -50.5 -199t-29.5 -214q0 -49 27 -77t78 -28q91 0 133 86q21 43 50 199t29 214q0 49 -26.5 77
t-77.5 28z" />
    <glyph glyph-name="one.lf" horiz-adv-x="378" 
d="M241 680h27q11 0 9 -10l-109 -617q-2 -6 4 -6h114q10 0 8 -10l-5 -27q-1 -10 -11 -10h-288q-10 0 -8 10l5 27q1 10 11 10h112q6 0 7 6l100 560h-1l-138 -89q-4 -3 -7.5 -1t-2.5 7l7 40q2 9 8 13l141 91q9 6 17 6z" />
    <glyph glyph-name="two.lf" horiz-adv-x="386" 
d="M259 690q71 0 112 -40.5t41 -105.5q0 -53 -23.5 -98.5t-74.5 -101.5l-270 -295v-2h239q5 0 7 6l12 70q2 10 11 10h31q10 0 8 -10l-20 -113q-2 -10 -11 -10h-341q-9 0 -9 9l4 25q1 8 8 15l296 328q44 49 63 85t19 75q0 49 -28.5 77t-80.5 28q-61 0 -108 -30q-6 -3 -7 -9
l-13 -77q-2 -10 -12 -10h-30q-10 0 -8 10l19 104q1 8 9 13q72 47 157 47z" />
    <glyph glyph-name="three.lf" horiz-adv-x="421" 
d="M275 690q75 0 116.5 -38t41.5 -106q0 -64 -32.5 -113t-87.5 -75v-2q34 -14 54.5 -48.5t20.5 -83.5q0 -102 -60.5 -168t-158.5 -66q-95 0 -157 45q-5 4 -4 14l17 99q2 10 11 10h30q10 0 8 -10l-13 -74q-1 -6 4 -9q49 -27 109 -27q71 0 116.5 50.5t45.5 126.5q0 52 -30 84
t-83 32h-30q-9 0 -7 10l4 29q2 9 10 9h30q64 0 108 46.5t44 111.5q0 51 -30 78t-84 27q-55 0 -104 -27q-5 -3 -7 -9l-13 -77q-2 -10 -11 -10h-30q-10 0 -8 10l18 104q1 8 9 13q68 44 153 44z" />
    <glyph glyph-name="four.lf" horiz-adv-x="493" 
d="M340 680h34q10 0 5 -9l-295 -484v-1h201q5 0 7 6l33 188q2 10 11 10h32q10 0 8 -10l-33 -188q-1 -6 5 -6h72q10 0 8 -10l-5 -29q-1 -9 -11 -9h-73q-5 0 -7 -6l-21 -122q-2 -10 -11 -10h-32q-10 0 -8 10l23 122q1 6 -5 6h-251q-9 0 -8 9l5 27q1 7 4 12l298 486q5 8 14 8z
" />
    <glyph glyph-name="five.lf" horiz-adv-x="390" 
d="M142 680h304q11 0 9 -10l-5 -28q-2 -10 -12 -10h-260q-6 0 -7 -6l-43 -241h1q44 61 130 61q65 0 100.5 -36t35.5 -106q0 -43 -12 -105t-32 -102q-52 -107 -185 -107q-94 0 -146 40q-5 4 -4 14l18 102q2 10 11 10h30q10 0 8 -10l-13 -77q-1 -6 3 -9q35 -22 99 -22
q94 0 134 80q16 32 27 85.5t11 88.5q0 106 -98 106q-44 0 -78.5 -24t-50.5 -60q-4 -10 -12 -10h-29q-9 0 -8 10l63 356q2 10 11 10z" />
    <glyph glyph-name="six.lf" horiz-adv-x="477" 
d="M339 680h34q12 0 5 -9l-200 -296l2 -1q32 24 88 24q70 0 111.5 -43t41.5 -115q0 -102 -63 -176t-164 -74q-74 0 -117.5 43t-43.5 119q0 90 71 195l221 326q6 7 14 7zM255 350q-73 0 -122 -57.5t-49 -134.5q0 -54 31 -87t84 -33q73 0 122 57.5t49 134.5q0 55 -31 87.5
t-84 32.5z" />
    <glyph glyph-name="seven.lf" horiz-adv-x="386" 
d="M167 680h329q11 0 9 -10l-5 -29q-2 -8 -6 -16l-343 -616q-5 -9 -15 -9h-33q-10 0 -4 11l345 619v2h-240q-6 0 -7 -6l-17 -95q-2 -10 -11 -10h-30q-9 0 -7 10l24 139q2 10 11 10z" />
    <glyph glyph-name="eight.lf" horiz-adv-x="449" 
d="M318 690q68 0 107.5 -40t39.5 -104q0 -61 -32 -111.5t-86 -75.5v-2q78 -40 78 -134q0 -97 -64.5 -165t-163.5 -68q-74 0 -118 43t-44 112q0 70 37 128t102 86v2q-63 34 -63 117q0 85 57 148.5t150 63.5zM311 642q-64 0 -107 -45.5t-43 -111.5q0 -46 28.5 -74.5
t75.5 -28.5q64 0 107 45.5t43 111.5q0 46 -28 74.5t-76 28.5zM256 334q-70 0 -120.5 -52.5t-50.5 -126.5q0 -52 32 -84.5t87 -32.5q70 0 120.5 52t50.5 127q0 52 -32 84.5t-87 32.5z" />
    <glyph glyph-name="nine.lf" horiz-adv-x="478" 
d="M362 690q74 0 117.5 -43t43.5 -119q0 -89 -71 -195l-221 -326q-6 -7 -14 -7h-35q-12 0 -5 9l200 296l-2 1q-30 -24 -87 -24q-70 0 -112 44.5t-42 116.5q0 100 63 173.5t165 73.5zM357 642q-74 0 -122.5 -57.5t-48.5 -133.5q0 -55 30.5 -88t84.5 -33q74 0 122.5 57.5
t48.5 133.5q0 55 -30.5 88t-84.5 33z" />
    <glyph glyph-name="zero.osf" horiz-adv-x="551" 
d="M323 487q87 0 137.5 -55t50.5 -143q0 -124 -76 -211.5t-198 -87.5q-87 0 -137.5 54.5t-50.5 143.5q0 124 76 211.5t198 87.5zM316 438q-93 0 -155 -72.5t-62 -169.5q0 -71 38 -114t108 -43q93 0 154.5 72t61.5 169q0 71 -38 114.5t-107 43.5z" />
    <glyph glyph-name="one.osf" horiz-adv-x="390" 
d="M218 477h30q10 0 8 -10l-73 -414q-1 -6 4 -6h133q10 0 8 -10l-4 -27q-1 -10 -12 -10h-327q-10 0 -8 10l5 27q1 10 11 10h133q6 0 7 6l65 364h-2l-148 -63q-4 -2 -7 0t-2 7l5 33q2 9 10 13l147 65q9 5 17 5z" />
    <glyph glyph-name="two.osf" horiz-adv-x="434" 
d="M245 487q75 0 115.5 -37.5t40.5 -98.5q0 -64 -35 -112t-118 -96l-162 -94v-1h254q10 0 8 -10l-5 -28q-2 -10 -12 -10h-336q-9 0 -9 9l4 25q2 9 9 12l218 130q74 44 104 82.5t30 87.5q0 43 -28 68t-84 25q-61 0 -112 -32q-5 -3 -7 -10l-13 -74q-2 -10 -11 -10h-30
q-10 0 -8 10l18 104q2 8 9 13q68 47 160 47z" />
    <glyph glyph-name="three.osf" horiz-adv-x="392" 
d="M56 476h323q10 0 8 -9l-4 -27q-1 -7 -7 -14l-196 -218v-2q71 -2 109 -41t38 -106q0 -104 -62 -176.5t-166 -72.5q-85 0 -150 42q-8 5 -7 15l17 100q2 10 11 10h30q10 0 8 -10l-13 -75q-1 -7 3 -10q44 -25 106 -25q79 0 127 56t48 134q0 116 -131 116h-24q-10 0 -8 10
l4 27q2 8 9 15l189 212v2h-224q-6 0 -7 -6l-16 -86q-2 -10 -11 -10h-29q-10 0 -8 10l22 129q2 10 11 10z" />
    <glyph glyph-name="four.osf" horiz-adv-x="489" 
d="M266 476h33q11 0 6 -9l-262 -417v-2h199q6 0 7 6l33 184q2 10 11 10h31q10 0 8 -10l-32 -184q-2 -6 5 -6h72q10 0 8 -10l-4 -28q-2 -10 -10 -10h-74q-7 0 -8 -6l-29 -164q-2 -10 -12 -10h-30q-10 0 -8 10l29 164q1 6 -4 6h-249q-9 0 -7 10l4 27q1 6 4 10l265 421
q4 8 14 8z" />
    <glyph glyph-name="five.osf" horiz-adv-x="378" 
d="M80 477h304q11 0 9 -10l-5 -29q-2 -10 -12 -10h-260q-6 0 -7 -6l-42 -234h1q45 61 130 61q65 0 100.5 -36t35.5 -106q0 -113 -38 -190q-52 -107 -186 -107q-90 0 -146 38q-6 4 -5 14l18 104q2 10 11 10h30q10 0 8 -10l-13 -77q-1 -7 3 -10q36 -21 98 -21q96 0 137 80
q32 65 32 157q0 107 -97 107q-45 0 -79.5 -24.5t-50.5 -60.5q-5 -10 -12 -10h-28q-10 0 -8 10l61 350q2 10 11 10z" />
    <glyph glyph-name="six.osf" horiz-adv-x="476" 
d="M339 680h35q12 0 5 -9l-200 -296l2 -1q30 24 88 24q69 0 111 -43t42 -115q0 -102 -63 -176t-164 -74q-74 0 -117.5 43t-43.5 119q0 91 70 195l221 326q6 7 14 7zM255 350q-73 0 -121.5 -57.5t-48.5 -134.5q0 -54 30.5 -87t83.5 -33q74 0 122.5 57.5t48.5 134.5
q0 55 -31 87.5t-84 32.5z" />
    <glyph glyph-name="seven.osf" horiz-adv-x="394" 
d="M101 477h330q10 0 8 -10l-6 -33q-2 -10 -5 -13l-330 -592q-5 -9 -14 -9h-33q-11 0 -5 11l332 595v2h-239q-5 0 -7 -6l-17 -95q-2 -10 -12 -10h-29q-10 0 -8 10l24 140q2 10 11 10z" />
    </font>
</defs>
</svg>
