<?xml version="1.0" standalone="no"?>
<!DOCTYPE svg PUBLIC "-//W3C//DTD SVG 1.1//EN" "http://www.w3.org/Graphics/SVG/1.1/DTD/svg11.dtd" >
<svg>
<metadata>
Created by FontForge 20090622 at Tue Jan 23 10:38:54 2018
 By deploy user
Copyright &#194;&#169; 2014 Monotype Imaging Inc.  All rights reserved.
</metadata>
<defs>
<font id="DINNextSlabPro-Black" horiz-adv-x="570" >
  <font-face 
    font-family="DIN Next Slab Pro Black"
    font-weight="900"
    font-stretch="normal"
    units-per-em="1000"
    panose-1="2 8 10 4 2 2 5 2 2 4"
    ascent="750"
    descent="-250"
    x-height="490"
    cap-height="680"
    bbox="-180.25 -259 1185 938"
    underline-thickness="50"
    underline-position="-75"
    unicode-range="U+000D-U+FB02"
  />
<missing-glyph horiz-adv-x="558" 
d="M10 680h538q10 0 10 -10v-660q0 -10 -10 -10h-538q-10 0 -10 10v660q0 10 10 10zM462 594h-366q-6 0 -6 -6v-496q0 -6 6 -6h366q6 0 6 6v496q0 6 -6 6zM283 563q67 0 106.5 -35.5t39.5 -88.5q0 -30 -11 -52.5t-38 -50.5l-31 -32q-12 -13 -12 -32v-5q0 -10 -10 -10h-97
q-10 0 -10 10v23q0 31 22 54l31 32q32 33 32 54q0 28 -29 28q-14 0 -22 -5q-4 -3 -4 -8v-23q0 -10 -10 -10h-87q-10 0 -10 10v88q0 10 7 14q53 39 133 39zM230 217h97q10 0 10 -10v-84q0 -10 -10 -10h-97q-10 0 -10 10v84q0 10 10 10z" />
    <glyph glyph-name="fi" unicode="fi" horiz-adv-x="661" 
d="M249 680h78q10 0 10 -10v-127q0 -10 -10 -10h-28q-25 0 -34.5 -7t-9.5 -26v-4q0 -6 6 -6h64q10 0 10 -10v-138q0 -10 -10 -10h-64q-6 0 -6 -6v-162q0 -6 6 -6h49q10 0 10 -10v-138q0 -10 -10 -10h-286q-10 0 -10 10v138q0 10 10 10h28q6 0 6 6v162q0 6 -6 6h-28
q-10 0 -10 10v138q0 10 10 10h28q6 0 6 6v4q0 99 43.5 139.5t147.5 40.5zM416 680h177q10 0 10 -10v-124q0 -10 -10 -10h-177q-10 0 -10 10v124q0 10 10 10zM372 490h221q10 0 10 -10v-316q0 -6 6 -6h28q10 0 10 -10v-138q0 -10 -10 -10h-265q-10 0 -10 10v138q0 10 10 10
h28q6 0 6 6v162q0 6 -6 6h-28q-10 0 -10 10v138q0 10 10 10z" />
    <glyph glyph-name="fl" unicode="fl" horiz-adv-x="673" 
d="M249 680h78q10 0 10 -10v-127q0 -10 -10 -10h-28q-25 0 -34.5 -7t-9.5 -26v-4q0 -6 6 -6h64q10 0 10 -10v-138q0 -10 -10 -10h-64q-6 0 -6 -6v-162q0 -6 6 -6h49q10 0 10 -10v-138q0 -10 -10 -10h-286q-10 0 -10 10v138q0 10 10 10h28q6 0 6 6v162q0 6 -6 6h-28
q-10 0 -10 10v138q0 10 10 10h28q6 0 6 6v4q0 99 43.5 139.5t147.5 40.5zM358 680h221q10 0 10 -10v-462q0 -50 41 -50h19q10 0 10 -10v-140q0 -10 -10 -10h-68q-103 0 -146 42.5t-43 146.5v329q0 6 -6 6h-28q-10 0 -10 10v138q0 10 10 10z" />
    <glyph glyph-name="f_f" unicode="ff" horiz-adv-x="696" 
d="M249 680h78q10 0 10 -10v-127q0 -10 -10 -10h-28q-25 0 -34.5 -7t-9.5 -26v-4q0 -6 6 -6h64q10 0 10 -10v-138q0 -10 -10 -10h-64q-6 0 -6 -6v-162q0 -6 6 -6h49q10 0 10 -10v-138q0 -10 -10 -10h-286q-10 0 -10 10v138q0 10 10 10h28q6 0 6 6v162q0 6 -6 6h-28
q-10 0 -10 10v138q0 10 10 10h28q6 0 6 6v4q0 99 43.5 139.5t147.5 40.5zM597 680h78q10 0 10 -10v-127q0 -10 -10 -10h-28q-25 0 -34.5 -7t-9.5 -26v-4q0 -6 6 -6h64q10 0 10 -10v-138q0 -10 -10 -10h-64q-6 0 -6 -6v-162q0 -6 6 -6h49q10 0 10 -10v-138q0 -10 -10 -10
h-286q-10 0 -10 10v138q0 10 10 10h28q6 0 6 6v162q0 6 -6 6h-28q-10 0 -10 10v138q0 10 10 10h28q6 0 6 6v4q0 99 43.5 139.5t147.5 40.5z" />
    <glyph glyph-name="f_f_i" unicode="ffi" horiz-adv-x="1009" 
d="M249 680h78q10 0 10 -10v-127q0 -10 -10 -10h-28q-25 0 -34.5 -7t-9.5 -26v-4q0 -6 6 -6h64q10 0 10 -10v-138q0 -10 -10 -10h-64q-6 0 -6 -6v-162q0 -6 6 -6h49q10 0 10 -10v-138q0 -10 -10 -10h-286q-10 0 -10 10v138q0 10 10 10h28q6 0 6 6v162q0 6 -6 6h-28
q-10 0 -10 10v138q0 10 10 10h28q6 0 6 6v4q0 99 43.5 139.5t147.5 40.5zM597 680h78q10 0 10 -10v-127q0 -10 -10 -10h-28q-25 0 -34.5 -7t-9.5 -26v-4q0 -6 6 -6h64q10 0 10 -10v-138q0 -10 -10 -10h-64q-6 0 -6 -6v-162q0 -6 6 -6h49q10 0 10 -10v-138q0 -10 -10 -10
h-286q-10 0 -10 10v138q0 10 10 10h28q6 0 6 6v162q0 6 -6 6h-28q-10 0 -10 10v138q0 10 10 10h28q6 0 6 6v4q0 99 43.5 139.5t147.5 40.5zM764 680h177q10 0 10 -10v-124q0 -10 -10 -10h-177q-10 0 -10 10v124q0 10 10 10zM720 490h221q10 0 10 -10v-316q0 -6 6 -6h28
q10 0 10 -10v-138q0 -10 -10 -10h-265q-10 0 -10 10v138q0 10 10 10h28q6 0 6 6v162q0 6 -6 6h-28q-10 0 -10 10v138q0 10 10 10z" />
    <glyph glyph-name="f_f_l" unicode="ffl" horiz-adv-x="1021" 
d="M249 680h78q10 0 10 -10v-127q0 -10 -10 -10h-28q-25 0 -34.5 -7t-9.5 -26v-4q0 -6 6 -6h64q10 0 10 -10v-138q0 -10 -10 -10h-64q-6 0 -6 -6v-162q0 -6 6 -6h49q10 0 10 -10v-138q0 -10 -10 -10h-286q-10 0 -10 10v138q0 10 10 10h28q6 0 6 6v162q0 6 -6 6h-28
q-10 0 -10 10v138q0 10 10 10h28q6 0 6 6v4q0 99 43.5 139.5t147.5 40.5zM597 680h78q10 0 10 -10v-127q0 -10 -10 -10h-28q-25 0 -34.5 -7t-9.5 -26v-4q0 -6 6 -6h64q10 0 10 -10v-138q0 -10 -10 -10h-64q-6 0 -6 -6v-162q0 -6 6 -6h49q10 0 10 -10v-138q0 -10 -10 -10
h-286q-10 0 -10 10v138q0 10 10 10h28q6 0 6 6v162q0 6 -6 6h-28q-10 0 -10 10v138q0 10 10 10h28q6 0 6 6v4q0 99 43.5 139.5t147.5 40.5zM706 680h221q10 0 10 -10v-462q0 -50 41 -50h19q10 0 10 -10v-140q0 -10 -10 -10h-68q-103 0 -146 42.5t-43 146.5v329q0 6 -6 6h-28
q-10 0 -10 10v138q0 10 10 10z" />
    <glyph glyph-name=".notdef" horiz-adv-x="558" 
d="M10 680h538q10 0 10 -10v-660q0 -10 -10 -10h-538q-10 0 -10 10v660q0 10 10 10zM462 594h-366q-6 0 -6 -6v-496q0 -6 6 -6h366q6 0 6 6v496q0 6 -6 6zM283 563q67 0 106.5 -35.5t39.5 -88.5q0 -30 -11 -52.5t-38 -50.5l-31 -32q-12 -13 -12 -32v-5q0 -10 -10 -10h-97
q-10 0 -10 10v23q0 31 22 54l31 32q32 33 32 54q0 28 -29 28q-14 0 -22 -5q-4 -3 -4 -8v-23q0 -10 -10 -10h-87q-10 0 -10 10v88q0 10 7 14q53 39 133 39zM230 217h97q10 0 10 -10v-84q0 -10 -10 -10h-97q-10 0 -10 10v84q0 10 10 10z" />
    <glyph glyph-name=".null" horiz-adv-x="0" 
 />
    <glyph glyph-name="nonmarkingreturn" horiz-adv-x="333" 
 />
    <glyph glyph-name="CR" unicode="&#xd;" horiz-adv-x="240" 
 />
    <glyph glyph-name="space" unicode=" " horiz-adv-x="240" 
 />
    <glyph glyph-name="exclam" unicode="!" horiz-adv-x="320" 
d="M70 680h180q10 0 10 -10l-24 -438q0 -10 -10 -10h-132q-10 0 -10 10l-24 438q0 10 10 10zM80 160h160q10 0 10 -10v-140q0 -10 -10 -10h-160q-10 0 -10 10v140q0 10 10 10z" />
    <glyph glyph-name="quotedbl" unicode="&#x22;" horiz-adv-x="442" 
d="M64 680h117q10 0 10 -10v-224q0 -10 -10 -10h-117q-10 0 -10 10v224q0 10 10 10zM261 680h117q10 0 10 -10v-224q0 -10 -10 -10h-117q-10 0 -10 10v224q0 10 10 10z" />
    <glyph glyph-name="numbersign" unicode="#" horiz-adv-x="652" 
d="M421 680h147q11 0 9 -10l-20 -145h61q10 0 10 -10v-125q0 -10 -10 -10h-81l-10 -74h65q10 0 10 -10v-125q0 -10 -10 -10h-85l-20 -151q-2 -10 -11 -10h-147q-11 0 -9 10l21 151h-80l-21 -151q-2 -10 -11 -10h-147q-11 0 -9 10l20 151h-59q-10 0 -10 10v125q0 10 10 10h79
l10 74h-63q-10 0 -10 10v125q0 10 10 10h83l20 145q2 10 11 10h147q11 0 9 -10l-20 -145h80l20 145q2 10 11 10zM290 380l-10 -74h80l10 74h-80z" />
    <glyph glyph-name="dollar" unicode="$" 
d="M233 775h106q10 0 10 -10v-76q78 -7 138 -23q9 -3 9 -13v-163q0 -10 -10 -10h-148q-10 0 -10 10v24q0 7 -5 8q-10 2 -17 2q-24 0 -40 -12.5t-16 -30.5q0 -33 50 -40l24 -3q204 -25 204 -211q0 -87 -47.5 -148.5t-131.5 -81.5v-82q0 -10 -10 -10h-106q-10 0 -10 10v75
q-111 7 -156 27q-9 4 -9 13v171q0 10 10 10h164q10 0 10 -10v-35q0 -6 5 -7q4 -1 21 -1q28 0 43 13.5t15 37.5q0 33 -49 39l-18 2q-100 11 -155.5 66t-55.5 144q0 83 46.5 144t128.5 80v81q0 10 10 10z" />
    <glyph glyph-name="percent" unicode="%" horiz-adv-x="891" 
d="M588 692h122q10 0 4 -10l-395 -684q-6 -10 -16 -10h-122q-10 0 -4 10l395 684q6 10 16 10zM215 688q115 0 143 -88q12 -36 12 -91t-12 -91q-28 -88 -143 -88t-143 88q-12 36 -12 91t12 91q28 88 143 88zM215 595q-15 0 -19 -13q-3 -10 -3 -73t3 -73q4 -13 19 -13t19 13
q3 10 3 73t-3 73q-4 13 -19 13zM676 350q115 0 143 -88q12 -36 12 -91t-12 -91q-28 -88 -143 -88t-143 88q-12 36 -12 91t12 91q28 88 143 88zM676 257q-15 0 -19 -13q-3 -10 -3 -73t3 -73q4 -13 19 -13t19 13q3 10 3 73t-3 73q-4 13 -19 13z" />
    <glyph glyph-name="ampersand" unicode="&#x26;" horiz-adv-x="647" 
d="M290 692q91 0 146.5 -48t55.5 -125q0 -45 -24.5 -82.5t-84.5 -85.5l48 -58l48 57q8 8 16 8h93q10 0 10 -10v-122q0 -10 -10 -10h-19q-5 0 -11 -6l-29 -36q21 -25 44 -25h15q10 0 10 -10v-129q0 -10 -10 -10h-62q-68 0 -111 47q-74 -59 -176 -59q-97 0 -151 50.5
t-54 137.5q0 54 28 98t92 95q-67 84 -67 151q0 75 58 123.5t145 48.5zM292 564q-15 0 -24 -11t-9 -28q0 -19 29 -57q37 31 37 57q0 18 -9 28.5t-24 10.5zM318 167l-68 85q-36 -31 -36 -60q0 -19 13 -32.5t33 -13.5q32 0 58 21z" />
    <glyph glyph-name="quotesingle" unicode="'" horiz-adv-x="245" 
d="M64 680h117q10 0 10 -10v-224q0 -10 -10 -10h-117q-10 0 -10 10v224q0 10 10 10z" />
    <glyph glyph-name="parenleft" unicode="(" horiz-adv-x="351" 
d="M196 740h124q12 0 7 -10q-86 -188 -86 -402t86 -402q5 -10 -7 -10h-124q-6 0 -13 10q-129 178 -129 402t129 402q7 10 13 10z" />
    <glyph glyph-name="parenright" unicode=")" horiz-adv-x="351" 
d="M31 740h124q6 0 13 -10q129 -178 129 -402t-129 -402q-7 -10 -13 -10h-124q-12 0 -7 10q86 188 86 402t-86 402q-5 10 7 10z" />
    <glyph glyph-name="asterisk" unicode="*" horiz-adv-x="444" 
d="M181 680h82q10 0 10 -10l-1 -78l67 40q8 5 13 -3l41 -72q5 -8 -3 -13l-69 -38l69 -38q9 -5 4 -13l-42 -72q-5 -8 -13 -3l-67 40l1 -78q0 -10 -10 -10h-82q-10 0 -10 10l1 78l-67 -40q-8 -5 -13 3l-41 72q-5 8 3 13l68 38l-68 38q-9 5 -4 13l42 72q5 8 13 3l67 -40l-1 78
q0 10 10 10z" />
    <glyph glyph-name="plus" unicode="+" 
d="M211 519h148q10 0 10 -10v-145q0 -6 6 -6h143q10 0 10 -10v-144q0 -10 -10 -10h-143q-6 0 -6 -6v-145q0 -10 -10 -10h-148q-10 0 -10 10v145q0 6 -6 6h-143q-10 0 -10 10v144q0 10 10 10h143q6 0 6 6v145q0 10 10 10z" />
    <glyph glyph-name="comma" unicode="," horiz-adv-x="260" 
d="M54 180h152q10 0 10 -10v-145q0 -11 -10 -20l-132 -99q-11 -8 -18 -8q-12 0 -12 13v259q0 10 10 10z" />
    <glyph glyph-name="hyphen" unicode="-" horiz-adv-x="408" 
d="M46 351h316q10 0 10 -10v-152q0 -10 -10 -10h-316q-10 0 -10 10v152q0 10 10 10z" />
    <glyph glyph-name="period" unicode="." horiz-adv-x="268" 
d="M54 180h160q10 0 10 -10v-160q0 -10 -10 -10h-160q-10 0 -10 10v160q0 10 10 10z" />
    <glyph glyph-name="slash" unicode="/" horiz-adv-x="459" 
d="M244 692h183q10 0 7 -10l-206 -684q-3 -10 -13 -10h-183q-10 0 -7 10l206 684q3 10 13 10z" />
    <glyph glyph-name="zero" unicode="0" 
d="M285 692q88 0 147.5 -40t83.5 -113q17 -51 17 -199t-17 -199q-24 -73 -83.5 -113t-147.5 -40t-147.5 40t-83.5 113q-17 51 -17 199t17 199q24 73 83.5 113t147.5 40zM285 532q-31 0 -40 -27q-6 -18 -6 -165t6 -165q9 -27 40 -27t40 27q6 18 6 165t-6 165q-9 27 -40 27z
" />
    <glyph glyph-name="one" unicode="1" 
d="M214 680h171q10 0 10 -10v-506q0 -6 6 -6h123q10 0 10 -10v-138q0 -10 -10 -10h-458q-10 0 -10 10v138q0 10 10 10h123q6 0 6 6v306h-2l-124 -70q-3 -2 -6 -2.5t-5 2t-2 6.5v173q0 8 7 14l133 81q8 6 18 6z" />
    <glyph glyph-name="two" unicode="2" 
d="M283 692q108 0 171 -54t63 -149q0 -102 -86 -183l-158 -148v-2h79q6 0 6 6v32q0 10 10 10h146q10 0 10 -10v-184q0 -10 -10 -10h-459q-10 0 -10 10v134q0 8 5 14l239 249q35 36 35 75q0 52 -52 52q-22 0 -35 -6q-5 -2 -5 -9v-53q0 -10 -10 -10h-151q-10 0 -10 10v157
q0 9 7 14q86 55 215 55z" />
    <glyph glyph-name="three" unicode="3" 
d="M283 692q112 0 174 -51.5t62 -136.5q0 -88 -77 -139v-2q88 -49 88 -163q0 -96 -66 -154t-181 -58q-138 0 -215 51q-7 4 -7 14v155q0 10 10 10h151q10 0 10 -10v-46q0 -7 7 -10q14 -6 40 -6q57 0 57 62q0 30 -16.5 45.5t-46.5 15.5h-27q-10 0 -10 10v137q0 10 10 10h25
q26 0 40.5 14.5t14.5 39.5q0 54 -53 54q-20 0 -34 -6q-6 -3 -6 -9v-39q0 -10 -10 -10h-151q-10 0 -10 10v141q0 10 7 14q83 57 214 57z" />
    <glyph glyph-name="four" unicode="4" 
d="M214 680h192q12 0 7 -11l-172 -406v-3h61q6 0 6 6v90q0 10 10 10h168q10 0 10 -10v-90q0 -6 5 -6h33q10 0 10 -10v-150q0 -10 -10 -10h-32q-6 0 -6 -6v-74q0 -10 -10 -10h-168q-10 0 -10 10v74q0 6 -6 6h-262q-10 0 -10 10v158q0 7 2 11l167 403q3 8 15 8z" />
    <glyph glyph-name="five" unicode="5" 
d="M76 680h415q10 0 10 -10v-144q0 -10 -10 -10h-255q-6 0 -6 -6v-92h2q36 40 108 40q135 0 172 -114q14 -42 14 -121q0 -52 -15 -99q-43 -136 -235 -136q-125 0 -204 52q-6 5 -6 13v151q0 10 10 10h151q10 0 10 -10v-42q0 -7 6 -9q13 -5 33 -5q40 0 50 28q6 16 6 48t-6 49
q-9 27 -44 27q-30 0 -42 -23q-5 -10 -14 -10h-150q-10 0 -10 10v393q0 10 10 10z" />
    <glyph glyph-name="six" unicode="6" 
d="M241 680h193q12 0 7 -11l-127 -244l1 -1q9 3 24 3q87 0 142 -60.5t55 -154.5q0 -99 -69.5 -161.5t-181.5 -62.5t-181.5 62.5t-69.5 161.5q0 48 13.5 91.5t46.5 107.5l134 261q4 8 13 8zM285 276q-28 0 -45.5 -18t-17.5 -46t17.5 -46t45.5 -18t45.5 18t17.5 46t-17.5 46
t-45.5 18z" />
    <glyph glyph-name="seven" unicode="7" 
d="M56 680h464q10 0 10 -10v-161q0 -4 -2 -10l-196 -489q-4 -10 -14 -10h-188q-5 0 -7 3.5t-1 7.5l203 494v3h-88q-6 0 -6 -6v-55q0 -10 -10 -10h-165q-10 0 -10 10v223q0 10 10 10z" />
    <glyph glyph-name="eight" unicode="8" 
d="M285 692q108 0 172.5 -60t64.5 -147q0 -83 -59 -132v-2q74 -54 74 -149q0 -98 -72 -156t-180 -58t-180 58t-72 156q0 95 74 149v2q-59 49 -59 132q0 87 64.5 147t172.5 60zM285 532q-23 0 -38 -14.5t-15 -37.5t15 -37.5t38 -14.5t38 14.5t15 37.5t-15 37.5t-38 14.5z
M285 272q-27 0 -45.5 -17.5t-18.5 -44.5t18.5 -44.5t45.5 -17.5t45.5 17.5t18.5 44.5t-18.5 44.5t-45.5 17.5z" />
    <glyph glyph-name="nine" unicode="9" 
d="M285 692q112 0 181.5 -62.5t69.5 -161.5q0 -48 -13.5 -91.5t-46.5 -107.5l-134 -261q-4 -8 -13 -8h-193q-12 0 -7 11l127 244l-1 1q-9 -3 -24 -3q-87 0 -142 60.5t-55 154.5q0 99 69.5 161.5t181.5 62.5zM285 532q-28 0 -45.5 -18t-17.5 -46t17.5 -46t45.5 -18t45.5 18
t17.5 46t-17.5 46t-45.5 18z" />
    <glyph glyph-name="colon" unicode=":" horiz-adv-x="288" 
d="M64 490h160q10 0 10 -10v-160q0 -10 -10 -10h-160q-10 0 -10 10v160q0 10 10 10zM64 180h160q10 0 10 -10v-160q0 -10 -10 -10h-160q-10 0 -10 10v160q0 10 10 10z" />
    <glyph glyph-name="semicolon" unicode=";" horiz-adv-x="288" 
d="M64 490h160q10 0 10 -10v-160q0 -10 -10 -10h-160q-10 0 -10 10v160q0 10 10 10zM68 180h152q10 0 10 -10v-145q0 -11 -10 -20l-132 -99q-11 -8 -18 -8q-12 0 -12 13v259q0 10 10 10z" />
    <glyph glyph-name="less" unicode="&#x3c;" 
d="M52 352l466 164q10 3 10 -7v-153q0 -9 -10 -13l-220 -66v-2l220 -66q10 -4 10 -13v-153q0 -10 -10 -7l-466 164q-10 3 -10 14v124q0 11 10 14z" />
    <glyph glyph-name="equal" unicode="=" 
d="M52 474h466q10 0 10 -10v-144q0 -10 -10 -10h-466q-10 0 -10 10v144q0 10 10 10zM52 242h466q10 0 10 -10v-144q0 -10 -10 -10h-466q-10 0 -10 10v144q0 10 10 10z" />
    <glyph glyph-name="greater" unicode="&#x3e;" 
d="M52 516l466 -164q10 -3 10 -14v-124q0 -11 -10 -14l-466 -164q-10 -3 -10 7v153q0 9 10 13l220 66v2l-220 66q-10 4 -10 13v153q0 10 10 7z" />
    <glyph glyph-name="question" unicode="?" horiz-adv-x="494" 
d="M241 692q105 0 168 -53t63 -139q0 -51 -19.5 -87t-64.5 -80l-37 -36q-22 -22 -22 -55v-10q0 -10 -10 -10h-160q-10 0 -10 10v40q0 50 34 84l48 48q29 28 39.5 46t10.5 40q0 21 -12.5 33.5t-34.5 12.5q-23 0 -35 -6q-6 -4 -6 -10v-47q0 -10 -10 -10h-143q-10 0 -10 10v149
q0 10 7 14q94 56 204 56zM160 160h160q10 0 10 -10v-140q0 -10 -10 -10h-160q-10 0 -10 10v140q0 10 10 10z" />
    <glyph glyph-name="at" unicode="@" horiz-adv-x="956" 
d="M479 692q197 0 319 -109t122 -284q0 -123 -62.5 -186t-155.5 -63q-53 0 -92.5 18.5t-56.5 49.5h-1q-19 -35 -50 -51.5t-89 -16.5q-108 0 -137 91q-15 47 -15 125q0 82 14 125q29 91 123 91q78 0 106 -49h1v30q0 9 9 9h168q10 0 10 -10v-108q0 -10 -10 -10h-14q-6 0 -6 -6
v-107q0 -23 13 -36t33 -13q60 0 60 114q0 119 -78.5 191.5t-210.5 72.5q-133 0 -211 -81t-78 -220q0 -132 78 -211.5t211 -79.5q99 0 189 53q9 6 14 -2l67 -87q6 -8 -2 -14q-107 -82 -268 -82q-198 0 -319.5 116.5t-121.5 306.5q0 197 121.5 315t319.5 118zM462 350
q-30 0 -39 -27q-4 -12 -4 -57t4 -57q9 -27 39 -27t39 27q4 12 4 57t-4 57q-9 27 -39 27z" />
    <glyph glyph-name="A" unicode="A" horiz-adv-x="713" 
d="M233 680h252q10 0 13 -10l153 -506q1 -6 7 -6h31q10 0 10 -10v-138q0 -10 -10 -10h-261q-10 0 -10 10v138q0 10 10 10h15q5 0 4 6l-9 34h-163l-8 -33q-1 -7 6 -7h13q10 0 10 -10v-138q0 -10 -10 -10h-262q-10 0 -10 10v138q0 10 10 10h31q5 0 7 6l158 506q3 10 13 10z
M356 515l-40 -156h82l-39 156h-3z" />
    <glyph glyph-name="B" unicode="B" horiz-adv-x="618" 
d="M24 680h331q113 0 170 -48.5t57 -132.5q0 -102 -86 -147v-2q43 -16 70.5 -58.5t27.5 -98.5q0 -95 -65 -144t-174 -49h-331q-10 0 -10 10v138q0 10 10 10h31q6 0 6 6v352q0 6 -6 6h-31q-10 0 -10 10v138q0 10 10 10zM304 531h-31q-6 0 -6 -6v-106q0 -6 6 -6h31
q38 0 55 13.5t17 45.5q0 33 -16.5 46t-55.5 13zM315 283h-42q-6 0 -6 -6v-121q0 -6 6 -6h42q37 0 54 16t17 51q0 66 -71 66z" />
    <glyph glyph-name="C" unicode="C" horiz-adv-x="577" 
d="M311 692q132 0 225 -61q7 -4 7 -14v-164q0 -10 -10 -10h-157q-10 0 -10 10v35q0 9 -8 12q-18 8 -44 8q-53 0 -67 -44q-10 -32 -10 -124q0 -93 10 -125q14 -43 67 -43q32 0 46 8q6 3 6 11v38q0 10 10 10h157q10 0 10 -10v-167q0 -9 -7 -14q-84 -60 -227 -60
q-207 0 -259 155q-23 69 -23 195q0 125 21 188q54 166 263 166z" />
    <glyph glyph-name="D" unicode="D" horiz-adv-x="636" 
d="M24 680h312q200 0 252 -158q21 -64 21 -182t-21 -182q-52 -158 -252 -158h-312q-10 0 -10 10v138q0 10 10 10h31q6 0 6 6v352q0 6 -6 6h-31q-10 0 -10 10v138q0 10 10 10zM296 496h-22q-6 0 -6 -6v-300q0 -6 6 -6h22q42 0 64 11.5t31 40.5q9 27 9 104t-9 104
q-9 29 -31 40.5t-64 11.5z" />
    <glyph glyph-name="E" unicode="E" horiz-adv-x="551" 
d="M24 680h497q10 0 10 -10v-178q0 -10 -10 -10h-150q-10 0 -10 10v24q0 6 -6 6h-83q-6 0 -6 -6v-88q0 -6 6 -6h42q6 0 6 5v15q0 10 10 10h141q10 0 10 -10v-198q0 -10 -10 -10h-141q-10 0 -10 10v14q0 6 -6 6h-42q-6 0 -6 -6v-94q0 -6 6 -6h83q6 0 6 6v27q0 10 10 10h150
q10 0 10 -10v-181q0 -10 -10 -10h-497q-10 0 -10 10v138q0 10 10 10h31q6 0 6 6v352q0 6 -6 6h-31q-10 0 -10 10v138q0 10 10 10z" />
    <glyph glyph-name="F" unicode="F" horiz-adv-x="549" 
d="M24 680h497q10 0 10 -10v-189q0 -10 -10 -10h-150q-10 0 -10 10v31q0 6 -6 6h-83q-6 0 -6 -6v-96q0 -6 6 -6h42q6 0 6 6v14q0 10 10 10h141q10 0 10 -10v-198q0 -10 -10 -10h-141q-10 0 -10 10v14q0 6 -6 6h-42q-6 0 -6 -6v-82q0 -6 6 -6h39q10 0 10 -10v-138
q0 -10 -10 -10h-287q-10 0 -10 10v138q0 10 10 10h31q6 0 6 6v352q0 6 -6 6h-31q-10 0 -10 10v138q0 10 10 10z" />
    <glyph glyph-name="G" unicode="G" horiz-adv-x="618" 
d="M323 692q147 0 238 -63q7 -4 7 -14v-159q0 -10 -10 -10h-158q-10 0 -10 10v38q0 6 -7 9q-24 8 -56 8q-65 0 -80 -48q-9 -28 -9 -123q0 -97 9 -125q15 -46 79 -46q41 0 61 7q6 2 6 8v41q0 7 -7 7h-55q-10 0 -10 10v131q0 10 10 10h239q10 0 10 -10v-298q0 -12 -10 -19
q-92 -68 -247 -68q-220 0 -275 168q-20 63 -20 184q0 116 21 183q55 169 274 169z" />
    <glyph glyph-name="H" unicode="H" horiz-adv-x="687" 
d="M382 680h281q10 0 10 -10v-138q0 -10 -10 -10h-31q-6 0 -6 -6v-352q0 -6 6 -6h31q10 0 10 -10v-138q0 -10 -10 -10h-281q-10 0 -10 10v138q0 10 10 10h31q6 0 6 6v85q0 6 -6 6h-139q-6 0 -6 -6v-87q0 -4 6 -4h31q10 0 10 -10v-138q0 -10 -10 -10h-281q-10 0 -10 10v138
q0 10 10 10h31q6 0 6 6v352q0 6 -6 6h-31q-10 0 -10 10v138q0 10 10 10h281q10 0 10 -10v-138q0 -10 -10 -10h-31q-6 0 -6 -5v-74q0 -6 6 -6h139q6 0 6 6v73q0 6 -6 6h-31q-10 0 -10 10v138q0 10 10 10z" />
    <glyph glyph-name="I" unicode="I" horiz-adv-x="329" 
d="M24 680h281q10 0 10 -10v-138q0 -10 -10 -10h-31q-6 0 -6 -6v-352q0 -6 6 -6h31q10 0 10 -10v-138q0 -10 -10 -10h-281q-10 0 -10 10v138q0 10 10 10h31q6 0 6 6v352q0 6 -6 6h-31q-10 0 -10 10v138q0 10 10 10z" />
    <glyph glyph-name="J" unicode="J" horiz-adv-x="552" 
d="M249 680h280q10 0 10 -10v-138q0 -10 -10 -10h-27q-6 0 -6 -6v-244q0 -284 -271 -284q-130 0 -204 49q-7 5 -7 14v174q0 10 10 10h158q10 0 10 -10v-41q0 -5 5 -7q13 -5 32 -5q28 0 44 20.5t16 58.5v265q0 6 -6 6h-34q-10 0 -10 10v138q0 10 10 10z" />
    <glyph glyph-name="K" unicode="K" horiz-adv-x="683" 
d="M374 680h268q10 0 10 -10v-138q0 -10 -10 -10h-30q-5 0 -9 -4l-124 -124l114 -230q3 -6 11 -6h50q10 0 10 -10v-138q0 -10 -10 -10h-214q-9 0 -13 9l-107 225l-52 -52v-20q0 -4 6 -4h31q10 0 10 -10v-138q0 -10 -10 -10h-281q-10 0 -10 10v138q0 10 10 10h31q6 0 6 6v352
q0 6 -6 6h-31q-10 0 -10 10v138q0 10 10 10h281q10 0 10 -10v-138q0 -10 -10 -10h-31q-6 0 -6 -5v-112l115 110q3 5 -2 7h-7q-10 0 -10 10v138q0 10 10 10z" />
    <glyph glyph-name="L" unicode="L" horiz-adv-x="561" 
d="M24 680h281q10 0 10 -10v-138q0 -10 -10 -10h-31q-6 0 -6 -6v-343q0 -6 6 -6h89q6 0 6 6v45q0 10 10 10h158q10 0 10 -10v-208q0 -10 -10 -10h-513q-10 0 -10 10v138q0 10 10 10h31q6 0 6 6v352q0 6 -6 6h-31q-10 0 -10 10v138q0 10 10 10z" />
    <glyph glyph-name="M" unicode="M" horiz-adv-x="816" 
d="M567 680h225q10 0 10 -10v-138q0 -10 -10 -10h-31q-6 0 -6 -5v-353q0 -6 6 -6h31q10 0 10 -10v-138q0 -10 -10 -10h-256q-10 0 -10 10v138q0 10 10 10h25q6 0 6 6v161h-5l-91 -219q-6 -13 -19 -13h-88q-14 0 -19 13l-91 219h-5v-161q0 -6 6 -6h25q10 0 10 -10v-138
q0 -10 -10 -10h-256q-10 0 -10 10v138q0 10 10 10h31q6 0 6 6v352q0 6 -6 6h-31q-10 0 -10 10v138q0 10 10 10h227q13 0 17 -10l141 -317h4l137 317q4 10 17 10z" />
    <glyph glyph-name="N" unicode="N" horiz-adv-x="680" 
d="M394 680h262q10 0 10 -10v-138q0 -10 -10 -10h-31q-6 0 -6 -6v-506q0 -10 -10 -10h-178q-13 0 -17 10l-159 335h-6v-181q0 -6 6 -6h31q10 0 10 -10v-138q0 -10 -10 -10h-262q-10 0 -10 10v138q0 10 10 10h31q6 0 6 6v352q0 6 -6 6h-31q-10 0 -10 10v138q0 10 10 10h225
q13 0 17 -10l160 -335h5v181q0 6 -6 6h-31q-10 0 -10 10v138q0 10 10 10z" />
    <glyph glyph-name="O" unicode="O" horiz-adv-x="620" 
d="M310 692q95 0 165 -43t97 -126q21 -66 21 -183q0 -116 -21 -183q-27 -83 -97 -126t-165 -43t-165 43t-97 126q-21 67 -21 183t21 183q27 83 97 126t165 43zM310 506q-50 0 -64 -43q-8 -25 -8 -123t8 -123q14 -43 64 -43t64 43q8 25 8 123t-8 123q-14 43 -64 43z" />
    <glyph glyph-name="P" unicode="P" horiz-adv-x="620" 
d="M24 680h314q134 0 200.5 -61.5t66.5 -166.5q0 -102 -68 -165t-199 -63h-65q-6 0 -6 -6v-54q0 -6 6 -6h33q10 0 10 -10v-138q0 -10 -10 -10h-282q-10 0 -10 10v138q0 10 10 10h31q6 0 6 6v352q0 6 -6 6h-31q-10 0 -10 10v138q0 10 10 10zM328 513h-55q-6 0 -6 -6v-112
q0 -6 6 -6h55q34 0 51.5 17t17.5 46q0 61 -69 61z" />
    <glyph glyph-name="Q" unicode="Q" horiz-adv-x="642" 
d="M310 692q95 0 165 -43t97 -126q21 -66 21 -183q0 -116 -21 -181l76 -84q8 -8 -1 -15l-129 -118q-8 -8 -15 0l-63 71q-61 -25 -130 -25q-95 0 -165 43t-97 126q-21 67 -21 183t21 183q27 83 97 126t165 43zM310 506q-50 0 -64 -43q-8 -25 -8 -123t8 -123q14 -43 64 -43
t64 43q8 25 8 123t-8 123q-14 43 -64 43z" />
    <glyph glyph-name="R" unicode="R" horiz-adv-x="633" 
d="M24 680h325q128 0 194 -58.5t66 -157.5q0 -124 -104 -185l46 -115q3 -6 9 -6h49q10 0 10 -10v-138q0 -10 -10 -10h-202q-11 0 -15 10l-87 236h-32q-6 0 -6 -9v-73q0 -6 6 -6h27q10 0 10 -10v-138q0 -10 -10 -10h-276q-10 0 -10 10v138q0 10 10 10h31q6 0 6 6v352
q0 6 -6 6h-31q-10 0 -10 10v138q0 10 10 10zM334 516h-61q-6 0 -6 -6v-104q0 -6 6 -6h61q67 0 67 58t-67 58z" />
    <glyph glyph-name="S" unicode="S" horiz-adv-x="592" 
d="M294 692q128 0 237 -44q9 -4 9 -13v-156q0 -10 -10 -10h-152q-10 0 -10 10v31q0 6 -5 8q-26 10 -60 10q-68 0 -68 -41q0 -19 14.5 -29t50.5 -15l36 -5q122 -17 179 -70.5t57 -153.5q0 -104 -74.5 -165t-214.5 -61q-143 0 -245 41q-10 4 -10 14v170q0 10 10 10h162
q10 0 10 -10v-40q0 -7 6 -8q31 -8 65 -8q76 0 76 47q0 18 -13 29t-49 16l-36 5q-120 17 -179 71t-59 155q0 99 71 155.5t202 56.5z" />
    <glyph glyph-name="T" unicode="T" horiz-adv-x="659" 
d="M22 680h615q10 0 10 -10v-200q0 -10 -10 -10h-149q-10 0 -10 10v40q0 6 -6 6h-33q-6 0 -6 -6v-346q0 -6 6 -6h41q10 0 10 -10v-138q0 -10 -10 -10h-301q-10 0 -10 10v138q0 10 10 10h41q6 0 6 6v346q0 6 -6 6h-33q-6 0 -6 -6v-40q0 -10 -10 -10h-149q-10 0 -10 10v200
q0 10 10 10z" />
    <glyph glyph-name="U" unicode="U" horiz-adv-x="666" 
d="M366 680h278q10 0 10 -10v-138q0 -10 -10 -10h-27q-6 0 -6 -6v-239q0 -143 -72.5 -216t-204.5 -73q-133 0 -206 73t-73 216v239q0 6 -6 6h-27q-10 0 -10 10v138q0 10 10 10h278q10 0 10 -10v-138q0 -10 -10 -10h-32q-6 0 -6 -6v-257q0 -85 71 -85t71 85v257q0 6 -6 6h-32
q-10 0 -10 10v138q0 10 10 10z" />
    <glyph glyph-name="V" unicode="V" horiz-adv-x="687" 
d="M389 680h277q10 0 10 -10v-138q0 -10 -10 -10h-30q-5 0 -7 -5l-155 -507q-3 -10 -14 -10h-233q-11 0 -14 10l-155 507q-2 5 -7 5h-30q-10 0 -10 10v138q0 10 10 10h279q10 0 10 -10v-138q0 -10 -10 -10h-23q-6 0 -4 -6l72 -268h3l70 268q2 6 -5 6h-24q-10 0 -10 10v138
q0 10 10 10z" />
    <glyph glyph-name="W" unicode="W" horiz-adv-x="966" 
d="M670 680h276q10 0 10 -10v-138q0 -10 -10 -10h-30q-5 0 -7 -5l-149 -507q-3 -10 -14 -10h-154q-11 0 -14 10l-94 329h-2l-94 -329q-3 -10 -14 -10h-154q-11 0 -14 10l-149 507q-2 5 -7 5h-30q-10 0 -10 10v138q0 10 10 10h277q10 0 10 -10v-138q0 -10 -10 -10h-24
q-6 0 -4 -6l44 -206h2l94 360q3 10 14 10h121q11 0 14 -10l98 -360h2l42 206q2 6 -5 6h-25q-10 0 -10 10v138q0 10 10 10z" />
    <glyph glyph-name="X" unicode="X" horiz-adv-x="649" 
d="M350 680h269q10 0 10 -10v-138q0 -10 -10 -10h-36q-6 0 -9 -5l-118 -169l132 -185q4 -5 10 -5h29q10 0 10 -10v-138q0 -10 -10 -10h-274q-10 0 -10 10v134q0 10 10 10h20q7 0 3 6l-53 82h-1l-52 -82q-4 -6 3 -6h23q10 0 10 -10v-134q0 -10 -10 -10h-274q-10 0 -10 10v138
q0 10 10 10h31q6 0 10 5l128 181l-120 173q-3 5 -9 5h-34q-10 0 -10 10v138q0 10 10 10h273q10 0 10 -10v-134q0 -10 -10 -10h-20q-7 0 -3 -6l47 -71h1l46 70q5 7 -3 7h-19q-10 0 -10 10v134q0 10 10 10z" />
    <glyph glyph-name="Y" unicode="Y" horiz-adv-x="640" 
d="M347 680h269q10 0 10 -10v-138q0 -10 -10 -10h-31q-5 0 -8 -5l-155 -263v-90q0 -6 6 -6h42q10 0 10 -10v-138q0 -10 -10 -10h-301q-10 0 -10 10v138q0 10 10 10h42q6 0 6 6v90l-155 263q-3 5 -8 5h-30q-10 0 -10 10v138q0 10 10 10h274q10 0 10 -10v-134q0 -10 -10 -10
h-31q-7 0 -3 -6l57 -103h3l58 103q3 6 -4 6h-31q-10 0 -10 10v134q0 10 10 10z" />
    <glyph glyph-name="Z" unicode="Z" horiz-adv-x="562" 
d="M37 680h497q10 0 10 -10v-157q0 -5 -3 -10l-292 -336v-3h111q6 0 6 6v48q0 10 10 10h158q10 0 10 -10v-208q0 -10 -10 -10h-508q-10 0 -10 10v157q0 5 3 10l292 336v3h-104q-6 0 -6 -6v-40q0 -10 -10 -10h-154q-10 0 -10 10v200q0 10 10 10z" />
    <glyph glyph-name="bracketleft" unicode="[" horiz-adv-x="331" 
d="M60 740h239q10 0 10 -10v-126q0 -10 -10 -10h-76q-6 0 -6 -6v-520q0 -6 6 -6h76q10 0 10 -10v-126q0 -10 -10 -10h-239q-10 0 -10 10v804q0 10 10 10z" />
    <glyph glyph-name="backslash" unicode="\" horiz-adv-x="459" 
d="M32 692h183q10 0 13 -10l206 -684q3 -10 -7 -10h-183q-10 0 -13 10l-206 684q-3 10 7 10z" />
    <glyph glyph-name="bracketright" unicode="]" horiz-adv-x="331" 
d="M32 740h239q10 0 10 -10v-804q0 -10 -10 -10h-239q-10 0 -10 10v126q0 10 10 10h76q6 0 6 6v520q0 6 -6 6h-76q-10 0 -10 10v126q0 10 10 10z" />
    <glyph glyph-name="asciicircum" unicode="^" 
d="M215 680h140q9 0 14 -10l162 -428q3 -10 -7 -10h-165q-10 0 -13 10l-60 196h-2l-60 -196q-3 -10 -13 -10h-165q-10 0 -7 10l162 428q5 10 14 10z" />
    <glyph glyph-name="underscore" unicode="_" horiz-adv-x="584" 
d="M584 -190h-584v140h584v-140z" />
    <glyph glyph-name="grave" unicode="`" horiz-adv-x="531" 
d="M134 704h165q10 0 17 -10l83 -144q5 -10 -5 -10h-143q-9 0 -16 10l-106 144q-1 2 -1 4.5t1.5 4t4.5 1.5z" />
    <glyph glyph-name="a" unicode="a" horiz-adv-x="542" 
d="M249 502q132 0 185 -45t53 -145v-148q0 -6 6 -6h25q10 0 10 -10v-138q0 -10 -10 -10h-210q-10 0 -10 10v24h-1q-44 -46 -127 -46q-66 0 -111 38t-45 113q0 81 59.5 122.5t155.5 41.5h64q6 0 6 6v14q0 19 -10.5 29t-39.5 10q-13 0 -25 -3q-6 -1 -6 -7v-15q0 -10 -10 -10
h-150q-10 0 -10 10v119q0 11 9 14q90 32 192 32zM293 191h-46q-47 0 -47 -35q0 -32 43 -32q56 0 56 35v26q0 6 -6 6z" />
    <glyph glyph-name="b" unicode="b" horiz-adv-x="571" 
d="M24 680h221q10 0 10 -10v-226h1q34 56 122 56q118 0 155 -115q17 -52 17 -140t-17 -140q-37 -115 -155 -115q-88 0 -122 56h-1v-36q0 -10 -10 -10h-221q-10 0 -10 10v138q0 10 10 10h28q6 0 6 6v352q0 6 -6 6h-28q-10 0 -10 10v138q0 10 10 10zM303 342q-33 0 -42 -28
q-6 -20 -6 -69t6 -69q9 -28 42 -28t42 28q6 19 6 69q0 49 -6 69q-9 28 -42 28z" />
    <glyph glyph-name="c" unicode="c" horiz-adv-x="490" 
d="M260 502q117 0 197 -49q9 -6 9 -17v-128q0 -10 -10 -10h-139q-10 0 -10 10v25q0 5 -5 8q-10 5 -29 5q-38 0 -48 -30q-5 -15 -5 -71t5 -71q10 -30 48 -30q19 0 29 5q5 3 5 8v29q0 10 10 10h139q10 0 10 -10v-134q0 -11 -8 -16q-80 -48 -198 -48q-180 0 -227 145
q-13 39 -13 112q0 70 13 109q48 148 227 148z" />
    <glyph glyph-name="d" unicode="d" horiz-adv-x="571" 
d="M282 680h221q10 0 10 -10v-506q0 -6 6 -6h28q10 0 10 -10v-138q0 -10 -10 -10h-221q-10 0 -10 10v36h-1q-34 -56 -122 -56q-118 0 -155 115q-17 52 -17 140t17 140q37 115 155 115q88 0 122 -56h1v72q0 6 -6 6h-28q-10 0 -10 10v138q0 10 10 10zM268 342q-33 0 -42 -28
q-6 -20 -6 -69t6 -69q9 -28 42 -28t42 28q6 19 6 69q0 49 -6 69q-9 28 -42 28z" />
    <glyph glyph-name="e" unicode="e" horiz-adv-x="530" 
d="M264 502q184 0 231 -145q15 -47 15 -156q0 -10 -10 -10h-283q-6 0 -6 -6q0 -4 2 -10q14 -42 87 -42q55 0 107 36q8 5 14 -2l78 -86q7 -7 -2 -15q-89 -78 -220 -78q-95 0 -156.5 38.5t-85.5 109.5q-15 45 -15 109t15 109q23 71 82 109.5t147 38.5zM267 367q-42 0 -53 -34
q-3 -9 -3 -24q0 -6 6 -6h100q6 0 6 6q0 15 -3 24q-11 34 -53 34z" />
    <glyph glyph-name="f" unicode="f" horiz-adv-x="348" 
d="M249 680h78q10 0 10 -10v-127q0 -10 -10 -10h-28q-25 0 -34.5 -7t-9.5 -26v-4q0 -6 6 -6h64q10 0 10 -10v-138q0 -10 -10 -10h-64q-6 0 -6 -6v-162q0 -6 6 -6h49q10 0 10 -10v-138q0 -10 -10 -10h-286q-10 0 -10 10v138q0 10 10 10h28q6 0 6 6v162q0 6 -6 6h-28
q-10 0 -10 10v138q0 10 10 10h28q6 0 6 6v4q0 99 43.5 139.5t147.5 40.5z" />
    <glyph glyph-name="g" unicode="g" horiz-adv-x="573" 
d="M195 500q88 0 122 -56h1v36q0 10 10 10h221q10 0 10 -10v-138q0 -10 -10 -10h-28q-6 0 -6 -5v-225q0 -160 -67.5 -227t-207.5 -67q-61 0 -118.5 23.5t-81.5 54.5q-6 8 1 15l98 102q7 7 15 1q46 -36 90 -36q39 0 56.5 21t17.5 69v32h-1q-34 -56 -122 -56q-119 0 -156 114
q-16 51 -16 119t16 119q37 114 156 114zM270 342q-33 0 -43 -31q-5 -15 -5 -44t5 -44q10 -31 43 -31t43 31q5 15 5 44t-5 44q-10 31 -43 31z" />
    <glyph glyph-name="h" unicode="h" horiz-adv-x="595" 
d="M24 680h221q10 0 10 -10v-226h1q41 56 127 56q157 0 157 -183v-153q0 -6 6 -6h25q10 0 10 -10v-138q0 -10 -10 -10h-248q-10 0 -10 10v138q0 10 10 10h14q6 0 6 6v124q0 50 -44 50t-44 -50v-124q0 -6 6 -6h14q10 0 10 -10v-138q0 -10 -10 -10h-251q-10 0 -10 10v138
q0 10 10 10h28q6 0 6 6v352q0 6 -6 6h-28q-10 0 -10 10v138q0 10 10 10z" />
    <glyph glyph-name="uni0069" unicode="i" horiz-adv-x="313" 
d="M68 680h177q10 0 10 -10v-124q0 -10 -10 -10h-177q-10 0 -10 10v124q0 10 10 10zM24 490h221q10 0 10 -10v-316q0 -6 6 -6h28q10 0 10 -10v-138q0 -10 -10 -10h-265q-10 0 -10 10v138q0 10 10 10h28q6 0 6 6v162q0 6 -6 6h-28q-10 0 -10 10v138q0 10 10 10z" />
    <glyph glyph-name="j" unicode="j" horiz-adv-x="303" 
d="M68 680h177q10 0 10 -10v-124q0 -10 -10 -10h-177q-10 0 -10 10v124q0 10 10 10zM24 490h221q10 0 10 -10v-447q0 -112 -55.5 -162.5t-165.5 -50.5h-43q-10 0 -10 10v140q0 10 10 10h13q31 0 42.5 11t11.5 45v290q0 6 -6 6h-28q-10 0 -10 10v138q0 10 10 10z" />
    <glyph glyph-name="k" unicode="k" horiz-adv-x="556" 
d="M24 680h221q10 0 10 -10v-297l109 109q8 8 20 8h123q10 0 10 -10v-138q0 -10 -10 -10h-53q-5 0 -10 -4l-31 -28l70 -136q4 -6 10 -6h39q10 0 10 -10v-138q0 -10 -10 -10h-174q-10 0 -15 10l-75 160l-13 -11v-149q0 -10 -10 -10h-221q-10 0 -10 10v138q0 10 10 10h28
q6 0 6 6v352q0 6 -6 6h-28q-10 0 -10 10v138q0 10 10 10z" />
    <glyph glyph-name="l" unicode="l" horiz-adv-x="325" 
d="M10 680h221q10 0 10 -10v-462q0 -50 41 -50h19q10 0 10 -10v-140q0 -10 -10 -10h-68q-103 0 -146 42.5t-43 146.5v329q0 6 -6 6h-28q-10 0 -10 10v138q0 10 10 10z" />
    <glyph glyph-name="m" unicode="m" horiz-adv-x="880" 
d="M659 500q166 0 166 -183v-153q0 -6 6 -6h25q10 0 10 -10v-138q0 -10 -10 -10h-248q-10 0 -10 10v138q0 10 10 10h14q6 0 6 6v124q0 50 -44 50t-44 -50v-124q0 -6 6 -6h14q10 0 10 -10v-138q0 -10 -10 -10h-237q-10 0 -10 10v138q0 10 10 10h13q7 0 7 6v124q0 50 -44 50
t-44 -50v-124q0 -6 6 -6h14q10 0 10 -10v-138q0 -10 -10 -10h-251q-10 0 -10 10v138q0 10 10 10h28q6 0 6 6v162q0 6 -6 6h-28q-10 0 -10 10v138q0 10 10 10h221q10 0 10 -10v-36h1q38 56 127 56q91 0 129 -58h1q49 58 146 58z" />
    <glyph glyph-name="n" unicode="n" horiz-adv-x="595" 
d="M382 500q158 0 158 -183v-153q0 -6 6 -6h25q10 0 10 -10v-138q0 -10 -10 -10h-248q-10 0 -10 10v138q0 10 10 10h14q6 0 6 6v124q0 50 -44 50t-44 -50v-124q0 -6 6 -6h14q10 0 10 -10v-138q0 -10 -10 -10h-251q-10 0 -10 10v138q0 10 10 10h28q6 0 6 6v162q0 6 -6 6h-28
q-10 0 -10 10v138q0 10 10 10h221q10 0 10 -10v-36h1q40 56 126 56z" />
    <glyph glyph-name="o" unicode="o" horiz-adv-x="536" 
d="M268 502q87 0 148.5 -37t84.5 -109q15 -45 15 -111t-15 -111q-23 -72 -84.5 -109t-148.5 -37t-148.5 37t-84.5 109q-15 45 -15 111t15 111q23 72 84.5 109t148.5 37zM268 342q-33 0 -42 -28q-6 -20 -6 -69t6 -69q9 -28 42 -28t42 28q6 19 6 69q0 49 -6 69q-9 28 -42 28z
" />
    <glyph glyph-name="p" unicode="p" horiz-adv-x="571" 
d="M378 500q118 0 155 -115q17 -52 17 -140t-17 -140q-37 -115 -155 -115q-88 0 -122 56h-1v-62q0 -6 6 -6h28q10 0 10 -10v-138q0 -10 -10 -10h-265q-10 0 -10 10v138q0 10 10 10h28q6 0 6 6v342q0 6 -6 6h-28q-10 0 -10 10v138q0 10 10 10h221q10 0 10 -10v-36h1
q34 56 122 56zM303 342q-33 0 -42 -28q-6 -20 -6 -69t6 -69q9 -28 42 -28t42 28q6 19 6 69q0 49 -6 69q-9 28 -42 28z" />
    <glyph glyph-name="q" unicode="q" horiz-adv-x="571" 
d="M193 500q88 0 122 -56h1v36q0 10 10 10h221q10 0 10 -10v-138q0 -10 -10 -10h-28q-6 0 -6 -6v-342q0 -6 6 -6h28q10 0 10 -10v-138q0 -10 -10 -10h-265q-10 0 -10 10v138q0 10 10 10h28q6 0 6 6v62h-1q-34 -56 -122 -56q-118 0 -155 115q-17 52 -17 140t17 140
q37 115 155 115zM268 342q-33 0 -42 -28q-6 -20 -6 -69t6 -69q9 -28 42 -28t42 28q6 19 6 69q0 49 -6 69q-9 28 -42 28z" />
    <glyph glyph-name="r" unicode="r" horiz-adv-x="414" 
d="M356 493q20 0 34 -3q11 -3 11 -13v-175q0 -12 -15 -7q-35 10 -56 10q-34 0 -54.5 -20.5t-20.5 -58.5v-62q0 -6 6 -6h31q10 0 10 -10v-138q0 -10 -10 -10h-268q-10 0 -10 10v138q0 10 10 10h28q6 0 6 6v162q0 6 -6 6h-28q-10 0 -10 10v138q0 10 10 10h221q10 0 10 -10v-44
h1q29 57 100 57z" />
    <glyph glyph-name="s" unicode="s" horiz-adv-x="492" 
d="M242 502q117 0 199 -33q8 -3 8 -10v-113q0 -10 -10 -10h-146q-10 0 -10 10v14q0 6 -6 7q-13 4 -37 4q-43 0 -43 -23q0 -7 2 -10.5t11 -7.5t27 -6l55 -6q102 -11 143.5 -49t41.5 -105q0 -90 -66 -133t-176 -43q-115 0 -209 30q-7 3 -7 11v122q0 10 10 10h146q10 0 10 -10
v-18q0 -5 5 -6q18 -4 49 -4q55 0 55 26q0 12 -9.5 17.5t-39.5 8.5l-56 6q-88 9 -131 47t-43 110q0 80 58.5 122t168.5 42z" />
    <glyph glyph-name="t" unicode="t" horiz-adv-x="340" 
d="M63 630h177q10 0 10 -10v-124q0 -6 6 -6h60q10 0 10 -10v-138q0 -10 -10 -10h-60q-6 0 -6 -6v-113q0 -32 9.5 -43.5t36.5 -11.5h20q10 0 10 -10v-140q0 -10 -10 -10h-60q-111 0 -157 47t-46 163v118q0 6 -6 6h-26q-10 0 -10 10v138q0 10 10 10h26q6 0 6 6v124q0 10 10 10
z" />
    <glyph glyph-name="u" unicode="u" horiz-adv-x="589" 
d="M302 490h219q10 0 10 -10v-316q0 -6 6 -6h28q10 0 10 -10v-138q0 -10 -10 -10h-221q-10 0 -10 10v36h-1q-38 -56 -128 -56q-83 0 -118.5 46.5t-35.5 134.5v155q0 6 -6 6h-26q-10 0 -10 10v138q0 10 10 10h219q10 0 10 -10v-278q0 -50 43 -50t43 50v124q0 6 -6 6h-26
q-10 0 -10 10v138q0 10 10 10z" />
    <glyph glyph-name="v" unicode="v" horiz-adv-x="557" 
d="M304 490h231q10 0 10 -10v-138q0 -10 -10 -10h-34q-3 0 -4 -3l-112 -319q-3 -10 -12 -10h-189q-9 0 -12 10l-112 319q-2 3 -5 3h-33q-10 0 -10 10v138q0 10 10 10h234q10 0 10 -10v-138q0 -10 -10 -10h-10q-3 0 -2 -4l36 -123h2l34 123q1 4 -2 4h-10q-10 0 -10 10v138
q0 10 10 10z" />
    <glyph glyph-name="w" unicode="w" horiz-adv-x="802" 
d="M546 490h232q10 0 10 -10v-138q0 -10 -10 -10h-34q-2 0 -4 -3l-110 -319q-3 -10 -12 -10h-143q-9 0 -12 10l-60 219h-2l-62 -219q-3 -10 -12 -10h-143q-9 0 -12 10l-110 319q-2 3 -5 3h-33q-10 0 -10 10v138q0 10 10 10h235q10 0 10 -10v-138q0 -10 -10 -10h-18
q-3 0 -2 -4l26 -90h2l64 242q3 10 14 10h115q11 0 14 -10l65 -242h2l25 90q1 4 -2 4h-18q-10 0 -10 10v138q0 10 10 10z" />
    <glyph glyph-name="x" unicode="x" horiz-adv-x="526" 
d="M335 490h159q10 0 10 -10v-138q0 -10 -10 -10h-62q-4 0 -7 -4l-48 -68l67 -98q3 -4 8 -4h50q10 0 10 -10v-138q0 -10 -10 -10h-159q-10 0 -15 8l-66 101h-1l-68 -101q-5 -8 -15 -8h-154q-10 0 -10 10v138q0 10 10 10h55q5 0 8 4l64 91l-51 75q-3 4 -7 4h-60q-10 0 -10 10
v138q0 10 10 10h169q10 0 15 -8l50 -78h1l52 78q5 8 15 8z" />
    <glyph glyph-name="y" unicode="y" horiz-adv-x="557" 
d="M304 490h229q10 0 10 -10v-138q0 -10 -10 -10h-37q-2 0 -4 -3l-166 -400q-26 -63 -67 -86t-119 -23h-41q-10 0 -10 10v140q0 10 10 10h30q47 0 58 31l8 21l-130 297q-1 3 -5 3h-36q-10 0 -10 10v138q0 10 10 10h232q10 0 10 -10v-138q0 -10 -10 -10h-13q-3 0 -2 -4
l42 -97h2l35 97q1 4 -2 4h-14q-10 0 -10 10v138q0 10 10 10z" />
    <glyph glyph-name="z" unicode="z" horiz-adv-x="487" 
d="M35 490h419q10 0 10 -10v-124q0 -6 -3 -10l-215 -196v-3h57q6 0 6 6v15q0 10 10 10h138q10 0 10 -10v-158q0 -10 -10 -10h-427q-10 0 -10 10v125q0 5 3 10l216 205v3h-50q-6 0 -6 -6v-25q0 -10 -10 -10h-138q-10 0 -10 10v158q0 10 10 10z" />
    <glyph glyph-name="braceleft" unicode="{" horiz-adv-x="378" 
d="M260 740h84q10 0 10 -10v-126q0 -10 -10 -10h-20q-42 0 -42 -46v-86q0 -56 -16.5 -86t-55.5 -46v-2q39 -16 55.5 -46.5t16.5 -86.5v-87q0 -46 42 -46h20q10 0 10 -10v-126q0 -10 -10 -10h-84q-140 0 -140 130v120q0 90 -70 90q-10 0 -10 10v126q0 10 10 10q36 0 53 21.5
t17 67.5v119q0 130 140 130z" />
    <glyph glyph-name="bar" unicode="|" horiz-adv-x="336" 
d="M90 740h156q10 0 10 -10v-804q0 -10 -10 -10h-156q-10 0 -10 10v804q0 10 10 10z" />
    <glyph glyph-name="braceright" unicode="}" horiz-adv-x="378" 
d="M34 740h84q140 0 140 -130v-119q0 -46 17 -67.5t53 -21.5q10 0 10 -10v-126q0 -10 -10 -10q-70 0 -70 -90v-120q0 -130 -140 -130h-84q-10 0 -10 10v126q0 10 10 10h20q42 0 42 46v87q0 56 16.5 86.5t55.5 46.5v2q-39 16 -55.5 46t-16.5 86v86q0 46 -42 46h-20
q-10 0 -10 10v126q0 10 10 10z" />
    <glyph glyph-name="asciitilde" unicode="~" 
d="M194 377q52 0 100 -31q39 -25 62 -25q32 0 58 44q5 9 14 4l98 -63q8 -5 4 -14q-24 -53 -64.5 -86.5t-89.5 -33.5q-52 0 -100 31q-39 25 -62 25q-32 0 -58 -44q-5 -9 -14 -4l-98 63q-8 5 -4 14q24 53 64.5 86.5t89.5 33.5z" />
    <glyph glyph-name="uni00A0" unicode="&#xa0;" horiz-adv-x="240" 
 />
    <glyph glyph-name="exclamdown" unicode="&#xa1;" horiz-adv-x="320" 
d="M80 490h160q10 0 10 -10v-140q0 -10 -10 -10h-160q-10 0 -10 10v140q0 10 10 10zM94 268h132q10 0 10 -10l24 -438q0 -10 -10 -10h-180q-10 0 -10 10l24 438q0 10 10 10z" />
    <glyph glyph-name="cent" unicode="&#xa2;" 
d="M240 585h106q10 0 10 -10v-76q83 -11 140 -46q9 -6 9 -17v-128q0 -10 -10 -10h-139q-10 0 -10 10v25q0 5 -5 8q-10 5 -29 5q-38 0 -48 -30q-5 -15 -5 -71t5 -71q10 -30 48 -30q19 0 29 5q5 3 5 8v29q0 10 10 10h139q10 0 10 -10v-134q0 -11 -8 -16q-60 -36 -141 -45v-76
q0 -10 -10 -10h-106q-10 0 -10 10v79q-121 23 -158 139q-13 39 -13 112q0 70 13 109q37 115 158 141v80q0 10 10 10z" />
    <glyph glyph-name="sterling" unicode="&#xa3;" 
d="M320 692q58 0 109 -15.5t79 -38.5q7 -6 7 -14v-124q0 -10 -10 -10h-141q-10 0 -10 10v20q0 6 -5 8q-10 5 -25 5q-36 0 -36 -41v-71q0 -6 6 -6h129q10 0 10 -10v-115q0 -10 -10 -10h-129q-6 0 -6 -6v-33q0 -56 -33 -79v-2h100q6 0 6 6v31q0 10 10 10h145q10 0 10 -10v-187
q0 -10 -10 -10h-457q-10 0 -10 10v139q0 8 6 14q35 30 35 73v38q0 6 -6 6h-25q-10 0 -10 10v115q0 10 10 10h25q6 0 6 6v62q0 100 60 154.5t170 54.5z" />
    <glyph glyph-name="currency" unicode="&#xa4;" 
d="M443 517l101 -102q7 -7 0 -14l-63 -63q15 -40 15 -78t-15 -78l63 -63q7 -7 0 -14l-101 -102q-7 -7 -14 0l-63 62q-40 -16 -81 -16q-42 0 -82 16l-61 -61q-7 -7 -14 0l-101 102q-7 7 0 14l62 62q-15 36 -15 78t15 78l-63 63q-7 7 0 14l101 102q7 7 14 0l62 -63
q39 17 82 17q42 0 81 -17l63 63q7 7 14 0zM285 333q-31 0 -51.5 -21t-20.5 -52t20.5 -52t51.5 -21t51.5 21t20.5 52t-20.5 52t-51.5 21z" />
    <glyph glyph-name="yen" unicode="&#xa5;" 
d="M311 680h225q10 0 10 -10v-138q0 -10 -10 -10h-19q-5 0 -8 -4l-68 -119v-1h58q10 0 10 -10v-63q0 -10 -10 -10h-92q-7 0 -9 -5l-12 -23q-4 -7 4 -7h109q10 0 10 -10v-63q0 -10 -10 -10h-113q-6 0 -6 -6v-27q0 -6 6 -6h48q10 0 10 -10v-138q0 -10 -10 -10h-294
q-10 0 -10 10v138q0 10 10 10h48q6 0 6 6v27q0 6 -6 6h-113q-10 0 -10 10v63q0 10 10 10h108q7 0 4 7l-12 23q-3 5 -9 5h-91q-10 0 -10 10v63q0 10 10 10h57v1l-71 119q-3 4 -8 4h-19q-10 0 -10 10v138q0 10 10 10h232q10 0 10 -10v-136q0 -10 -10 -10h-20q-6 0 -4 -6
l46 -92h3l45 91q4 7 -4 7h-21q-10 0 -10 10v136q0 10 10 10z" />
    <glyph glyph-name="brokenbar" unicode="&#xa6;" horiz-adv-x="336" 
d="M90 740h156q10 0 10 -10v-332q0 -10 -10 -10h-156q-10 0 -10 10v332q0 10 10 10zM90 272h156q10 0 10 -10v-336q0 -10 -10 -10h-156q-10 0 -10 10v336q0 10 10 10z" />
    <glyph glyph-name="section" unicode="&#xa7;" horiz-adv-x="500" 
d="M253 696q113 0 183 -47q7 -4 7 -14v-123q0 -10 -10 -10h-127q-10 0 -10 10v27q0 5 -5 8q-12 6 -31 6q-40 0 -40 -34q0 -37 84 -62q85 -26 127.5 -73.5t42.5 -127.5q0 -87 -77 -144v-2q58 -47 58 -133q0 -76 -56.5 -124.5t-152.5 -48.5q-115 0 -190 41q-7 4 -7 14v132
q0 10 10 10h131q10 0 10 -10v-30q0 -5 5 -8q12 -6 36 -6q40 0 40 36q0 19 -17.5 34t-67.5 30q-88 26 -129 73.5t-41 127.5q0 85 77 144v2q-57 47 -57 129q0 74 55 123.5t152 49.5zM250 308q-23 0 -36.5 -15.5t-13.5 -40.5t13.5 -40.5t36.5 -15.5t36.5 15.5t13.5 40.5
t-13.5 40.5t-36.5 15.5z" />
    <glyph glyph-name="dieresis" unicode="&#xa8;" horiz-adv-x="531" 
d="M97 680h126q10 0 10 -10v-124q0 -10 -10 -10h-126q-10 0 -10 10v124q0 10 10 10zM307 680h126q10 0 10 -10v-124q0 -10 -10 -10h-126q-10 0 -10 10v124q0 10 10 10z" />
    <glyph glyph-name="copyright" unicode="&#xa9;" horiz-adv-x="774" 
d="M387 692q152 0 252.5 -100t100.5 -253t-100.5 -253t-252.5 -100t-252.5 100t-100.5 253t100.5 253t252.5 100zM387 604q-117 0 -190.5 -74.5t-73.5 -190.5t73.5 -190.5t190.5 -74.5t190.5 74.5t73.5 190.5t-73.5 190.5t-190.5 74.5zM386 536q93 0 156 -42q9 -6 9 -15v-93
q0 -10 -10 -10h-105q-10 0 -10 10v14q0 5 -6 8q-10 5 -26 5q-28 0 -36 -23q-4 -12 -4 -49t4 -49q8 -23 35 -23q19 0 27 4q6 3 6 8v19q0 10 10 10h105q10 0 10 -10v-98q0 -9 -9 -15q-66 -41 -156 -41q-63 0 -111 29t-66 85q-10 29 -10 81q0 51 10 80q18 56 66 85.5t111 29.5z
" />
    <glyph glyph-name="ordfeminine" unicode="&#xaa;" horiz-adv-x="383" 
d="M185 689q82 0 117 -25.5t35 -84.5v-86q0 -6 6 -6h6q10 0 10 -10v-75q0 -10 -10 -10h-122q-10 0 -10 10v14h-1q-24 -30 -78 -30q-44 0 -72.5 22t-28.5 67t35 70.5t97 25.5h42q6 0 6 6v9q0 22 -39 22q-7 0 -13 -1t-6 -7v-9q0 -10 -10 -10h-88q-10 0 -10 10v64q0 11 9 14
q53 20 125 20zM211 504h-33q-27 0 -27 -20t27 -20q39 0 39 23v11q0 6 -6 6z" />
    <glyph glyph-name="guillemotleft" unicode="&#xab;" horiz-adv-x="612" 
d="M15 271l255 251q3 3 6.5 1.5t3.5 -5.5v-162q0 -8 -10 -18l-71 -70q-4 -4 0 -8l71 -70q10 -10 10 -18v-162q0 -4 -3.5 -5.5t-6.5 1.5l-255 251q-7 7 0 14zM295 271l255 251q3 3 6.5 1.5t3.5 -5.5v-162q0 -8 -10 -18l-71 -70q-4 -4 0 -8l71 -70q10 -10 10 -18v-162
q0 -4 -3.5 -5.5t-6.5 1.5l-255 251q-7 7 0 14z" />
    <glyph glyph-name="logicalnot" unicode="&#xac;" 
d="M52 358h466q10 0 10 -10v-272q0 -10 -10 -10h-148q-10 0 -10 10v112q0 6 -6 6h-302q-10 0 -10 10v144q0 10 10 10z" />
    <glyph glyph-name="uni00AD" unicode="&#xad;" horiz-adv-x="408" 
d="M46 351h316q10 0 10 -10v-152q0 -10 -10 -10h-316q-10 0 -10 10v152q0 10 10 10z" />
    <glyph glyph-name="registered" unicode="&#xae;" horiz-adv-x="431" 
d="M216 684q83 0 138.5 -54.5t55.5 -136.5t-55.5 -137t-138.5 -55t-139 55t-56 137t56 136.5t139 54.5zM216 642q-65 0 -106.5 -41.5t-41.5 -107.5q0 -67 41.5 -108.5t106.5 -41.5t106 41.5t41 108.5q0 66 -41 107.5t-106 41.5zM129 600h102q41 0 63 -18t22 -49
q0 -38 -31 -56l13 -35q1 -4 6 -4h6q9 0 9 -9v-32q0 -9 -9 -9h-56q-7 0 -10 7l-25 71h-10q-4 0 -4 -4v-19q0 -5 5 -5h2q9 0 9 -9v-32q0 -9 -9 -9h-83q-9 0 -9 9v32q0 9 9 9h4q5 0 5 5v102q0 5 -5 5h-4q-9 0 -9 9v32q0 9 9 9zM227 548h-18q-4 0 -4 -4v-25q0 -4 4 -4h18
q21 0 21 17q0 16 -21 16z" />
    <glyph glyph-name="macron" unicode="&#xaf;" horiz-adv-x="531" 
d="M103 676h324q10 0 10 -10v-108q0 -10 -10 -10h-324q-10 0 -10 10v108q0 10 10 10z" />
    <glyph glyph-name="degree" unicode="&#xb0;" horiz-adv-x="370" 
d="M185 696q71 0 118 -47t47 -117t-47 -117t-118 -47t-118 47t-47 117t47 117t118 47zM185 581q-21 0 -34.5 -13.5t-13.5 -35.5t13.5 -35.5t34.5 -13.5t34.5 13.5t13.5 35.5t-13.5 35.5t-34.5 13.5z" />
    <glyph glyph-name="plusminus" unicode="&#xb1;" 
d="M211 680h148q10 0 10 -10v-142q0 -6 6 -6h143q10 0 10 -10v-144q0 -10 -10 -10h-143q-6 0 -6 -6v-142q0 -10 -10 -10h-148q-10 0 -10 10v142q0 6 -6 6h-143q-10 0 -10 10v144q0 10 10 10h143q6 0 6 6v142q0 10 10 10zM52 164h466q10 0 10 -10v-144q0 -10 -10 -10h-466
q-10 0 -10 10v144q0 10 10 10z" />
    <glyph glyph-name="twosuperior" unicode="&#xb2;" horiz-adv-x="376" 
d="M188 843q72 0 115 -32.5t43 -97.5q0 -62 -61 -111l-69 -56v-1h120q10 0 10 -10v-95q0 -10 -10 -10h-296q-10 0 -10 10v87q0 13 10 21l147 125q23 20 23 39q0 25 -27 25q-12 0 -20 -5q-4 -3 -4 -8v-23q0 -10 -10 -10h-101q-10 0 -10 10v89q0 10 7 14q63 39 143 39z" />
    <glyph glyph-name="threesuperior" unicode="&#xb3;" horiz-adv-x="376" 
d="M188 843q74 0 114.5 -30.5t40.5 -82.5q0 -51 -48 -81v-2q54 -26 54 -95q0 -60 -44 -94.5t-124 -34.5q-90 0 -141 32q-7 4 -7 14v85q0 10 10 10h99q11 0 11 -10v-16q0 -5 4 -6q7 -3 22 -3q32 0 32 28q0 27 -35 27h-10q-10 0 -10 10v84q0 10 10 10h12q27 0 27 25
q0 24 -27 24q-12 0 -20 -4q-5 -3 -5 -8v-15q0 -10 -10 -10h-100q-10 0 -10 10v81q0 10 7 14q65 38 148 38z" />
    <glyph glyph-name="acute" unicode="&#xb4;" horiz-adv-x="530" 
d="M231 704h165q4 0 5.5 -3.5t-0.5 -6.5l-106 -144q-7 -10 -16 -10h-143q-10 0 -5 10l83 144q7 10 17 10z" />
    <glyph glyph-name="mu" unicode="&#xb5;" horiz-adv-x="585" 
d="M339 490h177q10 0 10 -10v-316q0 -6 6 -6h29q10 0 10 -10v-138q0 -10 -10 -10h-222q-10 0 -10 10v36h-1q-28 -42 -83 -49v-167q0 -10 -10 -10h-177q-10 0 -10 10v650q0 10 10 10h177q10 0 10 -10v-278q0 -50 42 -50t42 50v278q0 10 10 10z" />
    <glyph glyph-name="paragraph" unicode="&#xb6;" horiz-adv-x="707" 
d="M295 680h388q10 0 10 -10v-138q0 -10 -10 -10h-31q-6 0 -6 -6v-686q0 -10 -10 -10h-134q-10 0 -10 10v686q0 6 -6 6h-68q-6 0 -6 -6v-686q0 -10 -10 -10h-134q-10 0 -10 10v360q-96 7 -159 73.5t-63 171.5q0 110 70.5 177.5t188.5 67.5z" />
    <glyph glyph-name="periodcentered" unicode="&#xb7;" horiz-adv-x="268" 
d="M54 355h160q10 0 10 -10v-160q0 -10 -10 -10h-160q-10 0 -10 10v160q0 10 10 10z" />
    <glyph glyph-name="cedilla" unicode="&#xb8;" horiz-adv-x="531" 
d="M243 10h120q10 0 7 -10l-47 -162q-3 -10 -15 -10h-138q-10 0 -7 10l64 162q4 10 16 10z" />
    <glyph glyph-name="onesuperior" unicode="&#xb9;" horiz-adv-x="376" 
d="M139 836h123q10 0 10 -10v-272q0 -6 6 -6h63q10 0 10 -10v-98q0 -10 -10 -10h-281q-10 0 -10 10v98q0 10 10 10h63q6 0 6 6v142h-2l-67 -37q-4 -2 -7 -0.5t-3 6.5v112q0 10 9 15l63 38q9 6 17 6z" />
    <glyph glyph-name="ordmasculine" unicode="&#xba;" horiz-adv-x="406" 
d="M203 689q61 0 101 -24t54 -67q8 -26 8 -62t-8 -62q-14 -43 -54 -67t-101 -24t-101 24t-54 67q-8 26 -8 62t8 62q14 43 54 67t101 24zM203 593q-24 0 -31 -21q-3 -8 -3 -36t3 -36q7 -21 31 -21t31 21q3 8 3 36t-3 36q-7 21 -31 21z" />
    <glyph glyph-name="guillemotright" unicode="&#xbb;" horiz-adv-x="612" 
d="M62 522l255 -251q7 -7 0 -14l-255 -251q-3 -3 -6.5 -1.5t-3.5 5.5v162q0 8 10 18l71 70q4 4 0 8l-71 70q-10 10 -10 18v162q0 4 3.5 5.5t6.5 -1.5zM342 522l255 -251q7 -7 0 -14l-255 -251q-3 -3 -6.5 -1.5t-3.5 5.5v162q0 8 10 18l71 70q4 4 0 8l-71 70q-10 10 -10 18
v162q0 4 3.5 5.5t6.5 -1.5z" />
    <glyph glyph-name="onequarter" unicode="&#xbc;" horiz-adv-x="903" 
d="M609 692h122q10 0 4 -10l-395 -684q-6 -10 -16 -10h-122q-10 0 -4 10l395 684q6 10 16 10zM139 680h123q10 0 10 -10v-272q0 -6 6 -6h63q10 0 10 -10v-98q0 -10 -10 -10h-281q-10 0 -10 10v98q0 10 10 10h63q6 0 6 6v142h-2l-67 -37q-4 -2 -7 -0.5t-3 6.5v112q0 10 9 15
l63 38q9 6 17 6zM664 406h127q11 0 7 -10l-104 -230v-3h32q6 0 6 6v42q0 10 10 10h109q10 0 10 -10v-42q0 -6 5 -6h13q10 0 10 -10v-95q0 -10 -10 -10h-12q-6 0 -6 -6v-32q0 -10 -10 -10h-109q-10 0 -10 10v32q0 6 -6 6h-169q-10 0 -10 10v102q0 8 5 20l97 216q4 10 15 10z
" />
    <glyph glyph-name="onehalf" unicode="&#xbd;" horiz-adv-x="933" 
d="M609 692h122q10 0 4 -10l-395 -684q-6 -10 -16 -10h-122q-10 0 -4 10l395 684q6 10 16 10zM139 680h123q10 0 10 -10v-272q0 -6 6 -6h63q10 0 10 -10v-98q0 -10 -10 -10h-281q-10 0 -10 10v98q0 10 10 10h63q6 0 6 6v142h-2l-67 -37q-4 -2 -7 -0.5t-3 6.5v112q0 10 9 15
l63 38q9 6 17 6zM745 413q72 0 115 -32.5t43 -97.5q0 -62 -61 -111l-69 -56v-1h120q10 0 10 -10v-95q0 -10 -10 -10h-296q-10 0 -10 10v87q0 14 10 21l147 125q23 20 23 39q0 25 -27 25q-12 0 -20 -5q-4 -3 -4 -8v-23q0 -10 -10 -10h-101q-10 0 -10 10v89q0 10 7 14
q63 39 143 39z" />
    <glyph glyph-name="threequarters" unicode="&#xbe;" horiz-adv-x="903" 
d="M609 692h122q10 0 4 -10l-395 -684q-6 -10 -16 -10h-122q-10 0 -4 10l395 684q6 10 16 10zM188 687q74 0 114.5 -30.5t40.5 -82.5q0 -51 -48 -81v-2q54 -26 54 -95q0 -60 -44 -94.5t-124 -34.5q-90 0 -141 32q-7 4 -7 14v85q0 10 10 10h99q11 0 11 -10v-16q0 -5 4 -6
q7 -3 22 -3q32 0 32 28q0 27 -35 27h-10q-10 0 -10 10v84q0 10 10 10h12q27 0 27 25q0 24 -27 24q-12 0 -20 -4q-5 -3 -5 -8v-15q0 -10 -10 -10h-100q-10 0 -10 10v81q0 10 7 14q65 38 148 38zM664 406h127q11 0 7 -10l-104 -230v-3h32q6 0 6 6v42q0 10 10 10h109
q10 0 10 -10v-42q0 -6 5 -6h13q10 0 10 -10v-95q0 -10 -10 -10h-12q-6 0 -6 -6v-32q0 -10 -10 -10h-109q-10 0 -10 10v32q0 6 -6 6h-169q-10 0 -10 10v102q0 8 5 20l97 216q4 10 15 10z" />
    <glyph glyph-name="questiondown" unicode="&#xbf;" horiz-adv-x="494" 
d="M174 490h160q10 0 10 -10v-140q0 -10 -10 -10h-160q-10 0 -10 10v140q0 10 10 10zM175 268h160q10 0 10 -10v-40q0 -50 -34 -84l-48 -48q-29 -28 -39.5 -46t-10.5 -40q0 -21 12.5 -33.5t34.5 -12.5q23 0 35 6q6 4 6 10v47q0 10 10 10h143q10 0 10 -10v-149q0 -10 -7 -14
q-94 -56 -204 -56q-105 0 -168 53t-63 139q0 51 19.5 87t64.5 80l37 36q22 22 22 55v10q0 10 10 10z" />
    <glyph glyph-name="Agrave" unicode="&#xc0;" horiz-adv-x="713" 
d="M166 890h167q10 0 18 -10l110 -132q3 -4 2 -7t-6 -3h-141q-11 0 -21 10l-134 132q-3 4 -1.5 7t6.5 3zM233 680h252q10 0 13 -10l153 -506q1 -6 7 -6h31q10 0 10 -10v-138q0 -10 -10 -10h-261q-10 0 -10 10v138q0 10 10 10h15q5 0 4 6l-9 34h-163l-8 -33q-1 -7 6 -7h13
q10 0 10 -10v-138q0 -10 -10 -10h-262q-10 0 -10 10v138q0 10 10 10h31q5 0 7 6l158 506q3 10 13 10zM356 515l-40 -156h82l-39 156h-3z" />
    <glyph glyph-name="Aacute" unicode="&#xc1;" horiz-adv-x="713" 
d="M383 890h167q5 0 6.5 -3t-1.5 -7l-134 -132q-10 -10 -21 -10h-141q-5 0 -6 3t2 7l110 132q8 10 18 10zM233 680h252q10 0 13 -10l153 -506q1 -6 7 -6h31q10 0 10 -10v-138q0 -10 -10 -10h-261q-10 0 -10 10v138q0 10 10 10h15q5 0 4 6l-9 34h-163l-8 -33q-1 -7 6 -7h13
q10 0 10 -10v-138q0 -10 -10 -10h-262q-10 0 -10 10v138q0 10 10 10h31q5 0 7 6l158 506q3 10 13 10zM356 515l-40 -156h82l-39 156h-3z" />
    <glyph glyph-name="Acircumflex" unicode="&#xc2;" horiz-adv-x="713" 
d="M303 898h108q12 0 19 -10l114 -144q3 -4 1.5 -7t-6.5 -3h-113q-14 0 -24 10l-44 44h-2l-44 -44q-10 -10 -24 -10h-113q-5 0 -6.5 3t1.5 7l114 144q7 10 19 10zM233 680h252q10 0 13 -10l153 -506q1 -6 7 -6h31q10 0 10 -10v-138q0 -10 -10 -10h-261q-10 0 -10 10v138
q0 10 10 10h15q5 0 4 6l-9 34h-163l-8 -33q-1 -7 6 -7h13q10 0 10 -10v-138q0 -10 -10 -10h-262q-10 0 -10 10v138q0 10 10 10h31q5 0 7 6l158 506q3 10 13 10zM356 515l-40 -156h82l-39 156h-3z" />
    <glyph glyph-name="Atilde" unicode="&#xc3;" horiz-adv-x="713" 
d="M282 899q44 0 94 -26q32 -17 61 -17q37 0 81 33q11 7 11 -4v-92q0 -14 -10 -24q-41 -39 -86 -39q-44 0 -94 26q-32 17 -61 17q-38 0 -81 -33q-11 -7 -11 4v92q0 14 10 24q41 39 86 39zM233 680h252q10 0 13 -10l153 -506q1 -6 7 -6h31q10 0 10 -10v-138q0 -10 -10 -10
h-261q-10 0 -10 10v138q0 10 10 10h15q5 0 4 6l-9 34h-163l-8 -33q-1 -7 6 -7h13q10 0 10 -10v-138q0 -10 -10 -10h-262q-10 0 -10 10v138q0 10 10 10h31q5 0 7 6l158 506q3 10 13 10zM356 515l-40 -156h82l-39 156h-3z" />
    <glyph glyph-name="Adieresis" unicode="&#xc4;" horiz-adv-x="713" 
d="M189 883h126q10 0 10 -10v-124q0 -10 -10 -10h-126q-10 0 -10 10v124q0 10 10 10zM399 883h126q10 0 10 -10v-124q0 -10 -10 -10h-126q-10 0 -10 10v124q0 10 10 10zM233 680h252q10 0 13 -10l153 -506q1 -6 7 -6h31q10 0 10 -10v-138q0 -10 -10 -10h-261q-10 0 -10 10
v138q0 10 10 10h15q5 0 4 6l-9 34h-163l-8 -33q-1 -7 6 -7h13q10 0 10 -10v-138q0 -10 -10 -10h-262q-10 0 -10 10v138q0 10 10 10h31q5 0 7 6l158 506q3 10 13 10zM356 515l-40 -156h82l-39 156h-3z" />
    <glyph glyph-name="Aring" unicode="&#xc5;" horiz-adv-x="713" 
d="M357 938q53 0 88.5 -34.5t35.5 -87.5t-35.5 -87.5t-88.5 -34.5t-88.5 34.5t-35.5 87.5t35.5 87.5t88.5 34.5zM357 857q-17 0 -28.5 -11.5t-11.5 -29.5t11.5 -29.5t28.5 -11.5t28.5 11.5t11.5 29.5t-11.5 29.5t-28.5 11.5zM233 680h252q10 0 13 -10l153 -506q1 -6 7 -6h31
q10 0 10 -10v-138q0 -10 -10 -10h-261q-10 0 -10 10v138q0 10 10 10h15q5 0 4 6l-9 34h-163l-8 -33q-1 -7 6 -7h13q10 0 10 -10v-138q0 -10 -10 -10h-262q-10 0 -10 10v138q0 10 10 10h31q5 0 7 6l158 506q3 10 13 10zM356 515l-40 -156h82l-39 156h-3z" />
    <glyph glyph-name="AE" unicode="&#xc6;" horiz-adv-x="915" 
d="M294 680h591q10 0 10 -10v-178q0 -10 -10 -10h-150q-10 0 -10 10v24q0 6 -6 6h-83q-6 0 -6 -6v-88q0 -6 6 -6h42q6 0 6 5v15q0 10 10 10h141q10 0 10 -10v-198q0 -10 -10 -10h-141q-10 0 -10 10v14q0 6 -6 6h-42q-6 0 -6 -6v-94q0 -6 6 -6h83q6 0 6 6v27q0 10 10 10h150
q10 0 10 -10v-181q0 -10 -10 -10h-450q-10 0 -10 10v171q0 6 -6 6h-143l-9 -22q-3 -7 5 -7h14q10 0 10 -10v-138q0 -10 -10 -10h-262q-10 0 -10 10v138q0 10 10 10h22q6 0 9 6l225 506q5 10 14 10zM417 522l-73 -174h75q6 0 6 6v168h-8z" />
    <glyph glyph-name="Ccedilla" unicode="&#xc7;" horiz-adv-x="577" 
d="M311 692q132 0 225 -61q7 -4 7 -14v-164q0 -10 -10 -10h-157q-10 0 -10 10v35q0 9 -8 12q-18 8 -44 8q-53 0 -67 -44q-10 -32 -10 -124q0 -93 10 -125q14 -43 67 -43q32 0 46 8q6 3 6 11v38q0 10 10 10h157q10 0 10 -10v-167q0 -9 -7 -14q-62 -44 -158 -56l-44 -154
q-2 -10 -15 -10h-138q-10 0 -7 10l61 156q-142 21 -185 149q-23 69 -23 195q0 125 21 188q54 166 263 166z" />
    <glyph glyph-name="Egrave" unicode="&#xc8;" horiz-adv-x="551" 
d="M93 890h167q10 0 18 -10l110 -132q3 -4 1.5 -7t-5.5 -3h-141q-11 0 -21 10l-134 132q-3 4 -1.5 7t6.5 3zM24 680h497q10 0 10 -10v-178q0 -10 -10 -10h-150q-10 0 -10 10v24q0 6 -6 6h-83q-6 0 -6 -6v-88q0 -6 6 -6h42q6 0 6 5v15q0 10 10 10h141q10 0 10 -10v-198
q0 -10 -10 -10h-141q-10 0 -10 10v14q0 6 -6 6h-42q-6 0 -6 -6v-94q0 -6 6 -6h83q6 0 6 6v27q0 10 10 10h150q10 0 10 -10v-181q0 -10 -10 -10h-497q-10 0 -10 10v138q0 10 10 10h31q6 0 6 6v352q0 6 -6 6h-31q-10 0 -10 10v138q0 10 10 10z" />
    <glyph glyph-name="Eacute" unicode="&#xc9;" horiz-adv-x="551" 
d="M298 890h167q5 0 6.5 -3t-1.5 -7l-134 -132q-10 -10 -21 -10h-141q-4 0 -5.5 3t1.5 7l110 132q8 10 18 10zM24 680h497q10 0 10 -10v-178q0 -10 -10 -10h-150q-10 0 -10 10v24q0 6 -6 6h-83q-6 0 -6 -6v-88q0 -6 6 -6h42q6 0 6 5v15q0 10 10 10h141q10 0 10 -10v-198
q0 -10 -10 -10h-141q-10 0 -10 10v14q0 6 -6 6h-42q-6 0 -6 -6v-94q0 -6 6 -6h83q6 0 6 6v27q0 10 10 10h150q10 0 10 -10v-181q0 -10 -10 -10h-497q-10 0 -10 10v138q0 10 10 10h31q6 0 6 6v352q0 6 -6 6h-31q-10 0 -10 10v138q0 10 10 10z" />
    <glyph glyph-name="Ecircumflex" unicode="&#xca;" horiz-adv-x="551" 
d="M231 898h108q12 0 19 -10l114 -144q3 -4 1.5 -7t-6.5 -3h-113q-14 0 -24 10l-44 44h-2l-44 -44q-10 -10 -24 -10h-113q-5 0 -6.5 3t1.5 7l114 144q7 10 19 10zM24 680h497q10 0 10 -10v-178q0 -10 -10 -10h-150q-10 0 -10 10v24q0 6 -6 6h-83q-6 0 -6 -6v-88q0 -6 6 -6
h42q6 0 6 5v15q0 10 10 10h141q10 0 10 -10v-198q0 -10 -10 -10h-141q-10 0 -10 10v14q0 6 -6 6h-42q-6 0 -6 -6v-94q0 -6 6 -6h83q6 0 6 6v27q0 10 10 10h150q10 0 10 -10v-181q0 -10 -10 -10h-497q-10 0 -10 10v138q0 10 10 10h31q6 0 6 6v352q0 6 -6 6h-31q-10 0 -10 10
v138q0 10 10 10z" />
    <glyph glyph-name="Edieresis" unicode="&#xcb;" horiz-adv-x="551" 
d="M118 883h126q10 0 10 -10v-124q0 -10 -10 -10h-126q-10 0 -10 10v124q0 10 10 10zM328 883h126q10 0 10 -10v-124q0 -10 -10 -10h-126q-10 0 -10 10v124q0 10 10 10zM24 680h497q10 0 10 -10v-178q0 -10 -10 -10h-150q-10 0 -10 10v24q0 6 -6 6h-83q-6 0 -6 -6v-88
q0 -6 6 -6h42q6 0 6 5v15q0 10 10 10h141q10 0 10 -10v-198q0 -10 -10 -10h-141q-10 0 -10 10v14q0 6 -6 6h-42q-6 0 -6 -6v-94q0 -6 6 -6h83q6 0 6 6v27q0 10 10 10h150q10 0 10 -10v-181q0 -10 -10 -10h-497q-10 0 -10 10v138q0 10 10 10h31q6 0 6 6v352q0 6 -6 6h-31
q-10 0 -10 10v138q0 10 10 10z" />
    <glyph glyph-name="Igrave" unicode="&#xcc;" horiz-adv-x="329" 
d="M-32 890h167q10 0 18 -10l110 -132q3 -4 2 -7t-6 -3h-141q-11 0 -21 10l-134 132q-3 4 -1.5 7t6.5 3zM24 680h281q10 0 10 -10v-138q0 -10 -10 -10h-31q-6 0 -6 -6v-352q0 -6 6 -6h31q10 0 10 -10v-138q0 -10 -10 -10h-281q-10 0 -10 10v138q0 10 10 10h31q6 0 6 6v352
q0 6 -6 6h-31q-10 0 -10 10v138q0 10 10 10z" />
    <glyph glyph-name="Iacute" unicode="&#xcd;" horiz-adv-x="329" 
d="M197 890h167q5 0 6.5 -3t-1.5 -7l-134 -132q-10 -10 -21 -10h-141q-5 0 -6 3t2 7l110 132q8 10 18 10zM24 680h281q10 0 10 -10v-138q0 -10 -10 -10h-31q-6 0 -6 -6v-352q0 -6 6 -6h31q10 0 10 -10v-138q0 -10 -10 -10h-281q-10 0 -10 10v138q0 10 10 10h31q6 0 6 6v352
q0 6 -6 6h-31q-10 0 -10 10v138q0 10 10 10z" />
    <glyph glyph-name="Icircumflex" unicode="&#xce;" horiz-adv-x="329" 
d="M110 898h108q12 0 19 -10l114 -144q3 -4 1.5 -7t-6.5 -3h-113q-14 0 -24 10l-44 44h-2l-44 -44q-10 -10 -24 -10h-113q-5 0 -6.5 3t1.5 7l114 144q7 10 19 10zM24 680h281q10 0 10 -10v-138q0 -10 -10 -10h-31q-6 0 -6 -6v-352q0 -6 6 -6h31q10 0 10 -10v-138
q0 -10 -10 -10h-281q-10 0 -10 10v138q0 10 10 10h31q6 0 6 6v352q0 6 -6 6h-31q-10 0 -10 10v138q0 10 10 10z" />
    <glyph glyph-name="Idieresis" unicode="&#xcf;" horiz-adv-x="329" 
d="M-4 883h126q10 0 10 -10v-124q0 -10 -10 -10h-126q-10 0 -10 10v124q0 10 10 10zM206 883h126q10 0 10 -10v-124q0 -10 -10 -10h-126q-10 0 -10 10v124q0 10 10 10zM24 680h281q10 0 10 -10v-138q0 -10 -10 -10h-31q-6 0 -6 -6v-352q0 -6 6 -6h31q10 0 10 -10v-138
q0 -10 -10 -10h-281q-10 0 -10 10v138q0 10 10 10h31q6 0 6 6v352q0 6 -6 6h-31q-10 0 -10 10v138q0 10 10 10z" />
    <glyph glyph-name="Eth" unicode="&#xd0;" horiz-adv-x="636" 
d="M24 680h312q200 0 252 -158q21 -64 21 -182t-21 -182q-52 -158 -252 -158h-312q-10 0 -10 10v138q0 10 10 10h31q6 0 6 6v105q0 6 -6 6h-26q-10 0 -10 10v117q0 10 10 10h26q6 0 6 6v98q0 6 -6 6h-31q-10 0 -10 10v138q0 10 10 10zM296 496h-22q-6 0 -6 -6v-72q0 -6 6 -6
h54q10 0 10 -10v-117q0 -10 -10 -10h-54q-6 0 -6 -6v-79q0 -6 6 -6h22q42 0 64 11.5t31 40.5q9 27 9 104t-9 104q-9 29 -31 40.5t-64 11.5z" />
    <glyph glyph-name="Ntilde" unicode="&#xd1;" horiz-adv-x="680" 
d="M264 899q44 0 94 -26q32 -17 61 -17q37 0 81 33q11 7 11 -4v-92q0 -14 -10 -24q-41 -39 -86 -39q-44 0 -94 26q-32 17 -61 17q-38 0 -81 -33q-11 -7 -11 4v92q0 14 10 24q41 39 86 39zM394 680h262q10 0 10 -10v-138q0 -10 -10 -10h-31q-6 0 -6 -6v-506q0 -10 -10 -10
h-178q-13 0 -17 10l-159 335h-6v-181q0 -6 6 -6h31q10 0 10 -10v-138q0 -10 -10 -10h-262q-10 0 -10 10v138q0 10 10 10h31q6 0 6 6v352q0 6 -6 6h-31q-10 0 -10 10v138q0 10 10 10h225q13 0 17 -10l160 -335h5v181q0 6 -6 6h-31q-10 0 -10 10v138q0 10 10 10z" />
    <glyph glyph-name="Ograve" unicode="&#xd2;" horiz-adv-x="620" 
d="M102 890h167q10 0 18 -10l110 -132q3 -4 2 -7t-6 -3h-141q-11 0 -21 10l-134 132q-3 4 -1.5 7t6.5 3zM310 692q95 0 165 -43t97 -126q21 -66 21 -183q0 -116 -21 -183q-27 -83 -97 -126t-165 -43t-165 43t-97 126q-21 67 -21 183t21 183q27 83 97 126t165 43zM310 506
q-50 0 -64 -43q-8 -25 -8 -123t8 -123q14 -43 64 -43t64 43q8 25 8 123t-8 123q-14 43 -64 43z" />
    <glyph glyph-name="Oacute" unicode="&#xd3;" horiz-adv-x="620" 
d="M351 890h167q5 0 6.5 -3t-1.5 -7l-134 -132q-10 -10 -21 -10h-141q-5 0 -6 3t2 7l110 132q8 10 18 10zM310 692q95 0 165 -43t97 -126q21 -66 21 -183q0 -116 -21 -183q-27 -83 -97 -126t-165 -43t-165 43t-97 126q-21 67 -21 183t21 183q27 83 97 126t165 43zM310 506
q-50 0 -64 -43q-8 -25 -8 -123t8 -123q14 -43 64 -43t64 43q8 25 8 123t-8 123q-14 43 -64 43z" />
    <glyph glyph-name="Ocircumflex" unicode="&#xd4;" horiz-adv-x="620" 
d="M256 898h108q12 0 19 -10l114 -144q3 -4 1.5 -7t-6.5 -3h-113q-14 0 -24 10l-44 44h-2l-44 -44q-10 -10 -24 -10h-113q-5 0 -6.5 3t1.5 7l114 144q7 10 19 10zM310 692q95 0 165 -43t97 -126q21 -66 21 -183q0 -116 -21 -183q-27 -83 -97 -126t-165 -43t-165 43t-97 126
q-21 67 -21 183t21 183q27 83 97 126t165 43zM310 506q-50 0 -64 -43q-8 -25 -8 -123t8 -123q14 -43 64 -43t64 43q8 25 8 123t-8 123q-14 43 -64 43z" />
    <glyph glyph-name="Otilde" unicode="&#xd5;" horiz-adv-x="620" 
d="M235 899q44 0 94 -26q32 -17 61 -17q38 0 81 33q11 7 11 -4v-92q0 -14 -10 -24q-41 -39 -86 -39q-44 0 -94 26q-32 17 -61 17q-38 0 -81 -33q-11 -7 -11 4v92q0 14 10 24q41 39 86 39zM310 692q95 0 165 -43t97 -126q21 -66 21 -183q0 -116 -21 -183q-27 -83 -97 -126
t-165 -43t-165 43t-97 126q-21 67 -21 183t21 183q27 83 97 126t165 43zM310 506q-50 0 -64 -43q-8 -25 -8 -123t8 -123q14 -43 64 -43t64 43q8 25 8 123t-8 123q-14 43 -64 43z" />
    <glyph glyph-name="Odieresis" unicode="&#xd6;" horiz-adv-x="620" 
d="M142 883h126q10 0 10 -10v-124q0 -10 -10 -10h-126q-10 0 -10 10v124q0 10 10 10zM352 883h126q10 0 10 -10v-124q0 -10 -10 -10h-126q-10 0 -10 10v124q0 10 10 10zM310 692q95 0 165 -43t97 -126q21 -66 21 -183q0 -116 -21 -183q-27 -83 -97 -126t-165 -43t-165 43
t-97 126q-21 67 -21 183t21 183q27 83 97 126t165 43zM310 506q-50 0 -64 -43q-8 -25 -8 -123t8 -123q14 -43 64 -43t64 43q8 25 8 123t-8 123q-14 43 -64 43z" />
    <glyph glyph-name="multiply" unicode="&#xd7;" 
d="M421 509l96 -96q8 -8 0 -14l-117 -118q-5 -5 0 -8l117 -118q9 -7 0 -14l-97 -97q-7 -9 -14 0l-118 117q-4 4 -8 0l-118 -117q-7 -9 -14 0l-96 96q-7 7 0 14l117 117q5 5 0 9l-117 117q-7 7 0 14l98 98q7 7 14 0l117 -118q5 -3 9 0l117 118q7 7 14 0z" />
    <glyph glyph-name="Oslash" unicode="&#xd8;" horiz-adv-x="620" 
d="M495 710h124q11 0 5 -10l-80 -119q17 -26 28 -58q21 -66 21 -183q0 -116 -21 -183q-27 -83 -97 -126t-165 -43q-81 0 -142 30l-26 -38q-6 -10 -17 -10h-124q-11 0 -5 10l79 118q-17 28 -27 59q-21 67 -21 183t21 183q27 83 97 126t165 43q81 0 142 -31l26 39q6 10 17 10z
M310 506q-50 0 -64 -43q-8 -25 -8 -123t8 -123q14 -43 64 -43t64 43q8 25 8 123t-8 123q-14 43 -64 43z" />
    <glyph glyph-name="Ugrave" unicode="&#xd9;" horiz-adv-x="666" 
d="M124 890h167q10 0 18 -10l110 -132q3 -4 2 -7t-6 -3h-141q-11 0 -21 10l-134 132q-3 4 -1.5 7t6.5 3zM366 680h278q10 0 10 -10v-138q0 -10 -10 -10h-27q-6 0 -6 -6v-239q0 -143 -72.5 -216t-204.5 -73q-133 0 -206 73t-73 216v239q0 6 -6 6h-27q-10 0 -10 10v138
q0 10 10 10h278q10 0 10 -10v-138q0 -10 -10 -10h-32q-6 0 -6 -6v-257q0 -85 71 -85t71 85v257q0 6 -6 6h-32q-10 0 -10 10v138q0 10 10 10z" />
    <glyph glyph-name="Uacute" unicode="&#xda;" horiz-adv-x="666" 
d="M379 890h167q5 0 6.5 -3t-1.5 -7l-134 -132q-10 -10 -21 -10h-141q-5 0 -6 3t2 7l110 132q8 10 18 10zM366 680h278q10 0 10 -10v-138q0 -10 -10 -10h-27q-6 0 -6 -6v-239q0 -143 -72.5 -216t-204.5 -73q-133 0 -206 73t-73 216v239q0 6 -6 6h-27q-10 0 -10 10v138
q0 10 10 10h278q10 0 10 -10v-138q0 -10 -10 -10h-32q-6 0 -6 -6v-257q0 -85 71 -85t71 85v257q0 6 -6 6h-32q-10 0 -10 10v138q0 10 10 10z" />
    <glyph glyph-name="Ucircumflex" unicode="&#xdb;" horiz-adv-x="666" 
d="M279 898h108q12 0 19 -10l114 -144q3 -4 1.5 -7t-6.5 -3h-113q-14 0 -24 10l-44 44h-2l-44 -44q-10 -10 -24 -10h-113q-5 0 -6.5 3t1.5 7l114 144q7 10 19 10zM366 680h278q10 0 10 -10v-138q0 -10 -10 -10h-27q-6 0 -6 -6v-239q0 -143 -72.5 -216t-204.5 -73
q-133 0 -206 73t-73 216v239q0 6 -6 6h-27q-10 0 -10 10v138q0 10 10 10h278q10 0 10 -10v-138q0 -10 -10 -10h-32q-6 0 -6 -6v-257q0 -85 71 -85t71 85v257q0 6 -6 6h-32q-10 0 -10 10v138q0 10 10 10z" />
    <glyph glyph-name="Udieresis" unicode="&#xdc;" horiz-adv-x="666" 
d="M165 883h126q10 0 10 -10v-124q0 -10 -10 -10h-126q-10 0 -10 10v124q0 10 10 10zM375 883h126q10 0 10 -10v-124q0 -10 -10 -10h-126q-10 0 -10 10v124q0 10 10 10zM366 680h278q10 0 10 -10v-138q0 -10 -10 -10h-27q-6 0 -6 -6v-239q0 -143 -72.5 -216t-204.5 -73
q-133 0 -206 73t-73 216v239q0 6 -6 6h-27q-10 0 -10 10v138q0 10 10 10h278q10 0 10 -10v-138q0 -10 -10 -10h-32q-6 0 -6 -6v-257q0 -85 71 -85t71 85v257q0 6 -6 6h-32q-10 0 -10 10v138q0 10 10 10z" />
    <glyph glyph-name="Yacute" unicode="&#xdd;" horiz-adv-x="640" 
d="M366 890h167q5 0 6.5 -3t-1.5 -7l-134 -132q-10 -10 -21 -10h-141q-4 0 -5.5 3t1.5 7l110 132q8 10 18 10zM347 680h269q10 0 10 -10v-138q0 -10 -10 -10h-31q-5 0 -8 -5l-155 -263v-90q0 -6 6 -6h42q10 0 10 -10v-138q0 -10 -10 -10h-301q-10 0 -10 10v138q0 10 10 10
h42q6 0 6 6v90l-155 263q-3 5 -8 5h-30q-10 0 -10 10v138q0 10 10 10h274q10 0 10 -10v-134q0 -10 -10 -10h-31q-7 0 -3 -6l57 -103h3l58 103q3 6 -4 6h-31q-10 0 -10 10v134q0 10 10 10z" />
    <glyph glyph-name="Thorn" unicode="&#xde;" horiz-adv-x="620" 
d="M24 680h233q10 0 10 -10v-87q0 -6 6 -6h65q133 0 200 -63t67 -165q0 -100 -68.5 -164t-198.5 -64h-65q-6 0 -6 -6v-105q0 -10 -10 -10h-233q-10 0 -10 10v138q0 10 10 10h31q6 0 6 6v352q0 6 -6 6h-31q-10 0 -10 10v138q0 10 10 10zM327 410h-54q-6 0 -6 -6v-112
q0 -6 6 -6h54q34 0 52 17t18 46q0 61 -70 61z" />
    <glyph glyph-name="germandbls" unicode="&#xdf;" horiz-adv-x="611" 
d="M324 692q120 0 186.5 -48.5t66.5 -127.5q0 -84 -59 -122v-2q46 -22 63 -75q10 -30 10 -93q0 -79 -12 -115q-20 -59 -74.5 -85t-150.5 -26h-47q-10 0 -10 10v130q0 10 10 10h24q48 0 60 38q4 12 4 44q0 38 -4 50q-12 38 -60 38h-20q-10 0 -10 10v125q0 10 10 10h25
q47 0 47 38q0 37 -59 37q-69 0 -69 -63v-465q0 -10 -10 -10h-221q-10 0 -10 10v138q0 10 10 10h29q6 0 6 6v311q0 109 63.5 163t201.5 54z" />
    <glyph glyph-name="agrave" unicode="&#xe0;" horiz-adv-x="542" 
d="M106 704h165q10 0 17 -10l83 -144q5 -10 -5 -10h-143q-9 0 -16 10l-106 144q-1 2 -1 4.5t1.5 4t4.5 1.5zM249 502q132 0 185 -45t53 -145v-148q0 -6 6 -6h25q10 0 10 -10v-138q0 -10 -10 -10h-210q-10 0 -10 10v24h-1q-44 -46 -127 -46q-66 0 -111 38t-45 113
q0 81 59.5 122.5t155.5 41.5h64q6 0 6 6v14q0 19 -10.5 29t-39.5 10q-13 0 -25 -3q-6 -1 -6 -7v-15q0 -10 -10 -10h-150q-10 0 -10 10v119q0 11 9 14q90 32 192 32zM293 191h-46q-47 0 -47 -35q0 -32 43 -32q56 0 56 35v26q0 6 -6 6z" />
    <glyph glyph-name="aacute" unicode="&#xe1;" horiz-adv-x="542" 
d="M278 704h165q4 0 5.5 -3.5t-0.5 -6.5l-106 -144q-8 -10 -16 -10h-143q-10 0 -5 10l83 144q7 10 17 10zM249 502q132 0 185 -45t53 -145v-148q0 -6 6 -6h25q10 0 10 -10v-138q0 -10 -10 -10h-210q-10 0 -10 10v24h-1q-44 -46 -127 -46q-66 0 -111 38t-45 113
q0 81 59.5 122.5t155.5 41.5h64q6 0 6 6v14q0 19 -10.5 29t-39.5 10q-13 0 -25 -3q-6 -1 -6 -7v-15q0 -10 -10 -10h-150q-10 0 -10 10v119q0 11 9 14q90 32 192 32zM293 191h-46q-47 0 -47 -35q0 -32 43 -32q56 0 56 35v26q0 6 -6 6z" />
    <glyph glyph-name="acircumflex" unicode="&#xe2;" horiz-adv-x="542" 
d="M209 702h108q12 0 19 -10l114 -144q3 -4 1.5 -7t-6.5 -3h-113q-14 0 -24 10l-44 44h-2l-44 -44q-10 -10 -24 -10h-113q-5 0 -6.5 3t1.5 7l114 144q7 10 19 10zM249 502q132 0 185 -45t53 -145v-148q0 -6 6 -6h25q10 0 10 -10v-138q0 -10 -10 -10h-210q-10 0 -10 10v24h-1
q-44 -46 -127 -46q-66 0 -111 38t-45 113q0 81 59.5 122.5t155.5 41.5h64q6 0 6 6v14q0 19 -10.5 29t-39.5 10q-13 0 -25 -3q-6 -1 -6 -7v-15q0 -10 -10 -10h-150q-10 0 -10 10v119q0 11 9 14q90 32 192 32zM293 191h-46q-47 0 -47 -35q0 -32 43 -32q56 0 56 35v26q0 6 -6 6
z" />
    <glyph glyph-name="atilde" unicode="&#xe3;" horiz-adv-x="542" 
d="M188 705q44 0 94 -26q32 -17 61 -17q38 0 81 33q11 7 11 -4v-92q0 -14 -10 -24q-41 -39 -86 -39q-44 0 -94 26q-32 17 -61 17q-38 0 -81 -33q-11 -7 -11 4v92q0 14 10 24q41 39 86 39zM249 502q132 0 185 -45t53 -145v-148q0 -6 6 -6h25q10 0 10 -10v-138q0 -10 -10 -10
h-210q-10 0 -10 10v24h-1q-44 -46 -127 -46q-66 0 -111 38t-45 113q0 81 59.5 122.5t155.5 41.5h64q6 0 6 6v14q0 19 -10.5 29t-39.5 10q-13 0 -25 -3q-6 -1 -6 -7v-15q0 -10 -10 -10h-150q-10 0 -10 10v119q0 11 9 14q90 32 192 32zM293 191h-46q-47 0 -47 -35
q0 -32 43 -32q56 0 56 35v26q0 6 -6 6z" />
    <glyph glyph-name="adieresis" unicode="&#xe4;" horiz-adv-x="542" 
d="M95 680h126q10 0 10 -10v-124q0 -10 -10 -10h-126q-10 0 -10 10v124q0 10 10 10zM305 680h126q10 0 10 -10v-124q0 -10 -10 -10h-126q-10 0 -10 10v124q0 10 10 10zM249 502q132 0 185 -45t53 -145v-148q0 -6 6 -6h25q10 0 10 -10v-138q0 -10 -10 -10h-210q-10 0 -10 10
v24h-1q-44 -46 -127 -46q-66 0 -111 38t-45 113q0 81 59.5 122.5t155.5 41.5h64q6 0 6 6v14q0 19 -10.5 29t-39.5 10q-13 0 -25 -3q-6 -1 -6 -7v-15q0 -10 -10 -10h-150q-10 0 -10 10v119q0 11 9 14q90 32 192 32zM293 191h-46q-47 0 -47 -35q0 -32 43 -32q56 0 56 35v26
q0 6 -6 6z" />
    <glyph glyph-name="aring" unicode="&#xe5;" horiz-adv-x="542" 
d="M263 756q53 0 88.5 -34.5t35.5 -87.5t-35.5 -87.5t-88.5 -34.5t-88.5 34.5t-35.5 87.5t35.5 87.5t88.5 34.5zM263 675q-17 0 -28.5 -11.5t-11.5 -29.5t11.5 -29.5t28.5 -11.5t28.5 11.5t11.5 29.5t-11.5 29.5t-28.5 11.5zM249 502q132 0 185 -45t53 -145v-148q0 -6 6 -6
h25q10 0 10 -10v-138q0 -10 -10 -10h-210q-10 0 -10 10v24h-1q-44 -46 -127 -46q-66 0 -111 38t-45 113q0 81 59.5 122.5t155.5 41.5h64q6 0 6 6v14q0 19 -10.5 29t-39.5 10q-13 0 -25 -3q-6 -1 -6 -7v-15q0 -10 -10 -10h-150q-10 0 -10 10v119q0 11 9 14q90 32 192 32z
M293 191h-46q-47 0 -47 -35q0 -32 43 -32q56 0 56 35v26q0 6 -6 6z" />
    <glyph glyph-name="ae" unicode="&#xe6;" horiz-adv-x="809" 
d="M541 502q186 0 233 -145q15 -47 15 -156q0 -10 -10 -10h-285q-6 0 -6 -6q0 -4 2 -10q14 -42 87 -42q55 0 107 36q8 5 14 -2l78 -86q7 -7 -2 -15q-89 -78 -220 -78q-49 0 -93.5 17.5t-70.5 46.5h-1q-58 -64 -187 -64q-188 0 -188 151q0 81 59.5 122.5t155.5 41.5h65
q6 0 6 6v14q0 19 -10.5 29t-39.5 10q-13 0 -25 -3q-6 -1 -6 -7v-15q0 -10 -10 -10h-150q-10 0 -10 10v119q0 10 10 14q77 32 188 32q103 0 161 -39h1q57 39 132 39zM544 367q-42 0 -53 -34q-3 -9 -3 -24q0 -6 6 -6h100q6 0 6 6q0 15 -3 24q-11 34 -53 34zM294 191h-47
q-47 0 -47 -35q0 -32 43 -32q57 0 57 35v26q0 6 -6 6z" />
    <glyph glyph-name="ccedilla" unicode="&#xe7;" horiz-adv-x="490" 
d="M260 502q117 0 197 -49q9 -6 9 -17v-128q0 -10 -10 -10h-139q-10 0 -10 10v25q0 5 -5 8q-10 5 -29 5q-38 0 -48 -30q-5 -15 -5 -71t5 -71q10 -30 48 -30q19 0 29 5q5 3 5 8v29q0 10 10 10h139q10 0 10 -10v-134q0 -11 -8 -16q-55 -33 -133 -44l-44 -154q-3 -10 -15 -10
h-138q-10 0 -7 10l62 158q-114 24 -150 137q-13 39 -13 112q0 70 13 109q48 148 227 148z" />
    <glyph glyph-name="egrave" unicode="&#xe8;" horiz-adv-x="530" 
d="M90 704h165q10 0 17 -10l83 -144q5 -10 -5 -10h-143q-8 0 -16 10l-106 144q-1 2 -1 4.5t1.5 4t4.5 1.5zM264 502q184 0 231 -145q15 -47 15 -156q0 -10 -10 -10h-283q-6 0 -6 -6q0 -4 2 -10q14 -42 87 -42q55 0 107 36q8 5 14 -2l78 -86q7 -7 -2 -15q-89 -78 -220 -78
q-95 0 -156.5 38.5t-85.5 109.5q-15 45 -15 109t15 109q23 71 82 109.5t147 38.5zM267 367q-42 0 -53 -34q-3 -9 -3 -24q0 -6 6 -6h100q6 0 6 6q0 15 -3 24q-11 34 -53 34z" />
    <glyph glyph-name="eacute" unicode="&#xe9;" horiz-adv-x="530" 
d="M281 704h165q4 0 5.5 -3.5t-0.5 -6.5l-106 -144q-7 -10 -16 -10h-143q-10 0 -5 10l83 144q7 10 17 10zM264 502q184 0 231 -145q15 -47 15 -156q0 -10 -10 -10h-283q-6 0 -6 -6q0 -4 2 -10q14 -42 87 -42q55 0 107 36q8 5 14 -2l78 -86q7 -7 -2 -15q-89 -78 -220 -78
q-95 0 -156.5 38.5t-85.5 109.5q-15 45 -15 109t15 109q23 71 82 109.5t147 38.5zM267 367q-42 0 -53 -34q-3 -9 -3 -24q0 -6 6 -6h100q6 0 6 6q0 15 -3 24q-11 34 -53 34z" />
    <glyph glyph-name="ecircumflex" unicode="&#xea;" horiz-adv-x="530" 
d="M211 702h108q12 0 19 -10l114 -144q3 -4 1.5 -7t-6.5 -3h-113q-14 0 -24 10l-44 44h-2l-44 -44q-10 -10 -24 -10h-113q-5 0 -6.5 3t1.5 7l114 144q7 10 19 10zM264 502q184 0 231 -145q15 -47 15 -156q0 -10 -10 -10h-283q-6 0 -6 -6q0 -4 2 -10q14 -42 87 -42
q55 0 107 36q8 5 14 -2l78 -86q7 -7 -2 -15q-89 -78 -220 -78q-95 0 -156.5 38.5t-85.5 109.5q-15 45 -15 109t15 109q23 71 82 109.5t147 38.5zM267 367q-42 0 -53 -34q-3 -9 -3 -24q0 -6 6 -6h100q6 0 6 6q0 15 -3 24q-11 34 -53 34z" />
    <glyph glyph-name="edieresis" unicode="&#xeb;" horiz-adv-x="530" 
d="M97 680h126q10 0 10 -10v-124q0 -10 -10 -10h-126q-10 0 -10 10v124q0 10 10 10zM307 680h126q10 0 10 -10v-124q0 -10 -10 -10h-126q-10 0 -10 10v124q0 10 10 10zM264 502q184 0 231 -145q15 -47 15 -156q0 -10 -10 -10h-283q-6 0 -6 -6q0 -4 2 -10q14 -42 87 -42
q55 0 107 36q8 5 14 -2l78 -86q7 -7 -2 -15q-89 -78 -220 -78q-95 0 -156.5 38.5t-85.5 109.5q-15 45 -15 109t15 109q23 71 82 109.5t147 38.5zM267 367q-42 0 -53 -34q-3 -9 -3 -24q0 -6 6 -6h100q6 0 6 6q0 15 -3 24q-11 34 -53 34z" />
    <glyph glyph-name="igrave" unicode="&#xec;" horiz-adv-x="313" 
d="M-31 704h165q10 0 17 -10l83 -144q5 -10 -5 -10h-143q-8 0 -16 10l-106 144q-1 2 -1 4.5t1.5 4t4.5 1.5zM24 490h221q10 0 10 -10v-316q0 -6 6 -6h28q10 0 10 -10v-138q0 -10 -10 -10h-265q-10 0 -10 10v138q0 10 10 10h28q6 0 6 6v162q0 6 -6 6h-28q-10 0 -10 10v138
q0 10 10 10z" />
    <glyph glyph-name="iacute" unicode="&#xed;" horiz-adv-x="313" 
d="M172 704h165q4 0 5.5 -3.5t-0.5 -6.5l-106 -144q-7 -10 -16 -10h-143q-10 0 -5 10l83 144q7 10 17 10zM24 490h221q10 0 10 -10v-316q0 -6 6 -6h28q10 0 10 -10v-138q0 -10 -10 -10h-265q-10 0 -10 10v138q0 10 10 10h28q6 0 6 6v162q0 6 -6 6h-28q-10 0 -10 10v138
q0 10 10 10z" />
    <glyph glyph-name="icircumflex" unicode="&#xee;" horiz-adv-x="313" 
d="M91 702h108q12 0 19 -10l114 -144q3 -4 1.5 -7t-6.5 -3h-113q-14 0 -24 10l-44 44h-2l-44 -44q-10 -10 -24 -10h-113q-5 0 -6.5 3t1.5 7l114 144q7 10 19 10zM24 490h221q10 0 10 -10v-316q0 -6 6 -6h28q10 0 10 -10v-138q0 -10 -10 -10h-265q-10 0 -10 10v138
q0 10 10 10h28q6 0 6 6v162q0 6 -6 6h-28q-10 0 -10 10v138q0 10 10 10z" />
    <glyph glyph-name="idieresis" unicode="&#xef;" horiz-adv-x="313" 
d="M-23 680h126q10 0 10 -10v-124q0 -10 -10 -10h-126q-10 0 -10 10v124q0 10 10 10zM187 680h126q10 0 10 -10v-124q0 -10 -10 -10h-126q-10 0 -10 10v124q0 10 10 10zM24 490h221q10 0 10 -10v-316q0 -6 6 -6h28q10 0 10 -10v-138q0 -10 -10 -10h-265q-10 0 -10 10v138
q0 10 10 10h28q6 0 6 6v162q0 6 -6 6h-28q-10 0 -10 10v138q0 10 10 10z" />
    <glyph glyph-name="eth" unicode="&#xf0;" horiz-adv-x="540" 
d="M93 680h174q13 0 21 -9l29 -40l89 26q10 2 13 -7l24 -81q2 -10 -7 -13l-54 -16q82 -111 110 -175t28 -139q0 -46 -13 -87q-23 -72 -85 -111.5t-152 -39.5q-93 0 -154 38t-82 102q-14 42 -14 87q0 53 13 92q19 57 64 91t111 34q30 0 64 -17h2l-56 77l-99 -29q-9 -2 -12 7
l-24 82q-3 9 7 12l62 18l-63 88q-3 4 -2 7t6 3zM270 284q-34 0 -44 -29q-5 -15 -5 -40q0 -24 5 -39q10 -29 44 -29t44 29q5 15 5 39q0 25 -5 40q-10 29 -44 29z" />
    <glyph glyph-name="ntilde" unicode="&#xf1;" horiz-adv-x="595" 
d="M222 705q44 0 94 -26q32 -17 61 -17q37 0 81 33q11 7 11 -4v-92q0 -14 -10 -24q-41 -39 -86 -39q-44 0 -94 26q-32 17 -61 17q-38 0 -81 -33q-11 -7 -11 4v92q0 14 10 24q41 39 86 39zM382 500q158 0 158 -183v-153q0 -6 6 -6h25q10 0 10 -10v-138q0 -10 -10 -10h-248
q-10 0 -10 10v138q0 10 10 10h14q6 0 6 6v124q0 50 -44 50t-44 -50v-124q0 -6 6 -6h14q10 0 10 -10v-138q0 -10 -10 -10h-251q-10 0 -10 10v138q0 10 10 10h28q6 0 6 6v162q0 6 -6 6h-28q-10 0 -10 10v138q0 10 10 10h221q10 0 10 -10v-36h1q40 56 126 56z" />
    <glyph glyph-name="ograve" unicode="&#xf2;" horiz-adv-x="536" 
d="M88 704h165q10 0 17 -10l83 -144q5 -10 -5 -10h-143q-9 0 -16 10l-106 144q-1 2 -1 4.5t1.5 4t4.5 1.5zM268 502q87 0 148.5 -37t84.5 -109q15 -45 15 -111t-15 -111q-23 -72 -84.5 -109t-148.5 -37t-148.5 37t-84.5 109q-15 45 -15 111t15 111q23 72 84.5 109t148.5 37z
M268 342q-33 0 -42 -28q-6 -20 -6 -69t6 -69q9 -28 42 -28t42 28q6 19 6 69q0 49 -6 69q-9 28 -42 28z" />
    <glyph glyph-name="oacute" unicode="&#xf3;" horiz-adv-x="536" 
d="M283 704h165q4 0 5.5 -3.5t-0.5 -6.5l-106 -144q-7 -10 -16 -10h-143q-10 0 -5 10l83 144q7 10 17 10zM268 502q87 0 148.5 -37t84.5 -109q15 -45 15 -111t-15 -111q-23 -72 -84.5 -109t-148.5 -37t-148.5 37t-84.5 109q-15 45 -15 111t15 111q23 72 84.5 109t148.5 37z
M268 342q-33 0 -42 -28q-6 -20 -6 -69t6 -69q9 -28 42 -28t42 28q6 19 6 69q0 49 -6 69q-9 28 -42 28z" />
    <glyph glyph-name="ocircumflex" unicode="&#xf4;" horiz-adv-x="536" 
d="M214 702h108q12 0 19 -10l114 -144q3 -4 1.5 -7t-6.5 -3h-113q-14 0 -24 10l-44 44h-2l-44 -44q-10 -10 -24 -10h-113q-5 0 -6.5 3t1.5 7l114 144q7 10 19 10zM268 502q87 0 148.5 -37t84.5 -109q15 -45 15 -111t-15 -111q-23 -72 -84.5 -109t-148.5 -37t-148.5 37
t-84.5 109q-15 45 -15 111t15 111q23 72 84.5 109t148.5 37zM268 342q-33 0 -42 -28q-6 -20 -6 -69t6 -69q9 -28 42 -28t42 28q6 19 6 69q0 49 -6 69q-9 28 -42 28z" />
    <glyph glyph-name="otilde" unicode="&#xf5;" horiz-adv-x="536" 
d="M192 705q44 0 94 -26q32 -17 61 -17q37 0 81 33q11 7 11 -4v-92q0 -14 -10 -24q-41 -39 -86 -39q-44 0 -94 26q-32 17 -61 17q-38 0 -81 -33q-11 -7 -11 4v92q0 14 10 24q41 39 86 39zM268 502q87 0 148.5 -37t84.5 -109q15 -45 15 -111t-15 -111q-23 -72 -84.5 -109
t-148.5 -37t-148.5 37t-84.5 109q-15 45 -15 111t15 111q23 72 84.5 109t148.5 37zM268 342q-33 0 -42 -28q-6 -20 -6 -69t6 -69q9 -28 42 -28t42 28q6 19 6 69q0 49 -6 69q-9 28 -42 28z" />
    <glyph glyph-name="odieresis" unicode="&#xf6;" horiz-adv-x="536" 
d="M100 680h126q10 0 10 -10v-124q0 -10 -10 -10h-126q-10 0 -10 10v124q0 10 10 10zM310 680h126q10 0 10 -10v-124q0 -10 -10 -10h-126q-10 0 -10 10v124q0 10 10 10zM268 502q87 0 148.5 -37t84.5 -109q15 -45 15 -111t-15 -111q-23 -72 -84.5 -109t-148.5 -37t-148.5 37
t-84.5 109q-15 45 -15 111t15 111q23 72 84.5 109t148.5 37zM268 342q-33 0 -42 -28q-6 -20 -6 -69t6 -69q9 -28 42 -28t42 28q6 19 6 69q0 49 -6 69q-9 28 -42 28z" />
    <glyph glyph-name="divide" unicode="&#xf7;" 
d="M285 581q40 0 67.5 -27.5t27.5 -67.5t-27.5 -67.5t-67.5 -27.5t-67.5 27.5t-27.5 67.5t27.5 67.5t67.5 27.5zM52 358h466q10 0 10 -10v-144q0 -10 -10 -10h-466q-10 0 -10 10v144q0 10 10 10zM285 161q40 0 67.5 -27.5t27.5 -67.5t-27.5 -67.5t-67.5 -27.5t-67.5 27.5
t-27.5 67.5t27.5 67.5t67.5 27.5z" />
    <glyph glyph-name="oslash" unicode="&#xf8;" horiz-adv-x="536" 
d="M428 520h106q4 0 5.5 -3t-1.5 -7l-70 -91q21 -27 33 -63q15 -45 15 -111t-15 -111q-23 -72 -84.5 -109t-148.5 -37q-67 0 -118 21l-23 -29q-7 -10 -19 -10h-106q-4 0 -5.5 3t1.5 7l70 91q-21 27 -33 63q-15 45 -15 111t15 111q23 72 84.5 109t148.5 37q67 0 118 -22
l23 30q7 10 19 10zM268 342q-33 0 -42 -28q-6 -20 -6 -69t6 -69q9 -28 42 -28t42 28q6 19 6 69q0 49 -6 69q-9 28 -42 28z" />
    <glyph glyph-name="ugrave" unicode="&#xf9;" horiz-adv-x="589" 
d="M113 704h165q10 0 17 -10l83 -144q5 -10 -5 -10h-143q-8 0 -16 10l-106 144q-1 2 -1 4.5t1.5 4t4.5 1.5zM302 490h219q10 0 10 -10v-316q0 -6 6 -6h28q10 0 10 -10v-138q0 -10 -10 -10h-221q-10 0 -10 10v36h-1q-38 -56 -128 -56q-83 0 -118.5 46.5t-35.5 134.5v155
q0 6 -6 6h-26q-10 0 -10 10v138q0 10 10 10h219q10 0 10 -10v-278q0 -50 43 -50t43 50v124q0 6 -6 6h-26q-10 0 -10 10v138q0 10 10 10z" />
    <glyph glyph-name="uacute" unicode="&#xfa;" horiz-adv-x="589" 
d="M294 704h165q4 0 5.5 -3.5t-0.5 -6.5l-106 -144q-8 -10 -16 -10h-143q-10 0 -5 10l83 144q7 10 17 10zM302 490h219q10 0 10 -10v-316q0 -6 6 -6h28q10 0 10 -10v-138q0 -10 -10 -10h-221q-10 0 -10 10v36h-1q-38 -56 -128 -56q-83 0 -118.5 46.5t-35.5 134.5v155
q0 6 -6 6h-26q-10 0 -10 10v138q0 10 10 10h219q10 0 10 -10v-278q0 -50 43 -50t43 50v124q0 6 -6 6h-26q-10 0 -10 10v138q0 10 10 10z" />
    <glyph glyph-name="ucircumflex" unicode="&#xfb;" horiz-adv-x="589" 
d="M228 702h108q12 0 19 -10l114 -144q3 -4 1.5 -7t-6.5 -3h-113q-14 0 -24 10l-44 44h-2l-44 -44q-10 -10 -24 -10h-113q-5 0 -6.5 3t1.5 7l114 144q7 10 19 10zM302 490h219q10 0 10 -10v-316q0 -6 6 -6h28q10 0 10 -10v-138q0 -10 -10 -10h-221q-10 0 -10 10v36h-1
q-38 -56 -128 -56q-83 0 -118.5 46.5t-35.5 134.5v155q0 6 -6 6h-26q-10 0 -10 10v138q0 10 10 10h219q10 0 10 -10v-278q0 -50 43 -50t43 50v124q0 6 -6 6h-26q-10 0 -10 10v138q0 10 10 10z" />
    <glyph glyph-name="udieresis" unicode="&#xfc;" horiz-adv-x="589" 
d="M114 680h126q10 0 10 -10v-124q0 -10 -10 -10h-126q-10 0 -10 10v124q0 10 10 10zM324 680h126q10 0 10 -10v-124q0 -10 -10 -10h-126q-10 0 -10 10v124q0 10 10 10zM302 490h219q10 0 10 -10v-316q0 -6 6 -6h28q10 0 10 -10v-138q0 -10 -10 -10h-221q-10 0 -10 10v36h-1
q-38 -56 -128 -56q-83 0 -118.5 46.5t-35.5 134.5v155q0 6 -6 6h-26q-10 0 -10 10v138q0 10 10 10h219q10 0 10 -10v-278q0 -50 43 -50t43 50v124q0 6 -6 6h-26q-10 0 -10 10v138q0 10 10 10z" />
    <glyph glyph-name="yacute" unicode="&#xfd;" horiz-adv-x="557" 
d="M297 704h165q4 0 5.5 -3.5t-0.5 -6.5l-106 -144q-7 -10 -16 -10h-143q-10 0 -5 10l83 144q7 10 17 10zM304 490h229q10 0 10 -10v-138q0 -10 -10 -10h-37q-2 0 -4 -3l-166 -400q-26 -63 -67 -86t-119 -23h-41q-10 0 -10 10v140q0 10 10 10h30q47 0 58 31l8 21l-130 297
q-1 3 -5 3h-36q-10 0 -10 10v138q0 10 10 10h232q10 0 10 -10v-138q0 -10 -10 -10h-13q-3 0 -2 -4l42 -97h2l35 97q1 4 -2 4h-14q-10 0 -10 10v138q0 10 10 10z" />
    <glyph glyph-name="thorn" unicode="&#xfe;" horiz-adv-x="571" 
d="M24 680h221q10 0 10 -10v-226h1q34 56 122 56q118 0 155 -115q17 -52 17 -140t-17 -140q-37 -115 -155 -115q-88 0 -122 56h-1v-62q0 -6 6 -6h28q10 0 10 -10v-138q0 -10 -10 -10h-265q-10 0 -10 10v138q0 10 10 10h28q6 0 6 6v532q0 6 -6 6h-28q-10 0 -10 10v138
q0 10 10 10zM303 342q-33 0 -42 -28q-6 -20 -6 -69t6 -69q9 -28 42 -28t42 28q6 19 6 69q0 49 -6 69q-9 28 -42 28z" />
    <glyph glyph-name="ydieresis" unicode="&#xff;" horiz-adv-x="557" 
d="M111 680h126q10 0 10 -10v-124q0 -10 -10 -10h-126q-10 0 -10 10v124q0 10 10 10zM321 680h126q10 0 10 -10v-124q0 -10 -10 -10h-126q-10 0 -10 10v124q0 10 10 10zM304 490h229q10 0 10 -10v-138q0 -10 -10 -10h-37q-2 0 -4 -3l-166 -400q-26 -63 -67 -86t-119 -23h-41
q-10 0 -10 10v140q0 10 10 10h30q47 0 58 31l8 21l-130 297q-1 3 -5 3h-36q-10 0 -10 10v138q0 10 10 10h232q10 0 10 -10v-138q0 -10 -10 -10h-13q-3 0 -2 -4l42 -97h2l35 97q1 4 -2 4h-14q-10 0 -10 10v138q0 10 10 10z" />
    <glyph glyph-name="Amacron" unicode="&#x100;" horiz-adv-x="713" 
d="M195 876h324q10 0 10 -10v-108q0 -10 -10 -10h-324q-10 0 -10 10v108q0 10 10 10zM233 680h252q10 0 13 -10l153 -506q1 -6 7 -6h31q10 0 10 -10v-138q0 -10 -10 -10h-261q-10 0 -10 10v138q0 10 10 10h15q5 0 4 6l-9 34h-163l-8 -33q-1 -7 6 -7h13q10 0 10 -10v-138
q0 -10 -10 -10h-262q-10 0 -10 10v138q0 10 10 10h31q5 0 7 6l158 506q3 10 13 10zM356 515l-40 -156h82l-39 156h-3z" />
    <glyph glyph-name="amacron" unicode="&#x101;" horiz-adv-x="542" 
d="M101 676h324q10 0 10 -10v-108q0 -10 -10 -10h-324q-10 0 -10 10v108q0 10 10 10zM249 502q132 0 185 -45t53 -145v-148q0 -6 6 -6h25q10 0 10 -10v-138q0 -10 -10 -10h-210q-10 0 -10 10v24h-1q-44 -46 -127 -46q-66 0 -111 38t-45 113q0 81 59.5 122.5t155.5 41.5h64
q6 0 6 6v14q0 19 -10.5 29t-39.5 10q-13 0 -25 -3q-6 -1 -6 -7v-15q0 -10 -10 -10h-150q-10 0 -10 10v119q0 11 9 14q90 32 192 32zM293 191h-46q-47 0 -47 -35q0 -32 43 -32q56 0 56 35v26q0 6 -6 6z" />
    <glyph glyph-name="Abreve" unicode="&#x102;" horiz-adv-x="713" 
d="M439 885h74q14 0 14 -11q0 -64 -49.5 -108.5t-120.5 -44.5t-120.5 44.5t-49.5 108.5q0 11 14 11h74q11 0 16 -11q19 -37 66 -37t66 37q5 11 16 11zM233 680h252q10 0 13 -10l153 -506q1 -6 7 -6h31q10 0 10 -10v-138q0 -10 -10 -10h-261q-10 0 -10 10v138q0 10 10 10h15
q5 0 4 6l-9 34h-163l-8 -33q-1 -7 6 -7h13q10 0 10 -10v-138q0 -10 -10 -10h-262q-10 0 -10 10v138q0 10 10 10h31q5 0 7 6l158 506q3 10 13 10zM356 515l-40 -156h82l-39 156h-3z" />
    <glyph glyph-name="abreve" unicode="&#x103;" horiz-adv-x="542" 
d="M345 693h74q14 0 14 -11q0 -64 -49.5 -108.5t-120.5 -44.5t-120.5 44.5t-49.5 108.5q0 11 14 11h74q11 0 16 -11q19 -37 66 -37t66 37q5 11 16 11zM249 502q132 0 185 -45t53 -145v-148q0 -6 6 -6h25q10 0 10 -10v-138q0 -10 -10 -10h-210q-10 0 -10 10v24h-1
q-44 -46 -127 -46q-66 0 -111 38t-45 113q0 81 59.5 122.5t155.5 41.5h64q6 0 6 6v14q0 19 -10.5 29t-39.5 10q-13 0 -25 -3q-6 -1 -6 -7v-15q0 -10 -10 -10h-150q-10 0 -10 10v119q0 11 9 14q90 32 192 32zM293 191h-46q-47 0 -47 -35q0 -32 43 -32q56 0 56 35v26q0 6 -6 6
z" />
    <glyph glyph-name="Aogonek" unicode="&#x104;" horiz-adv-x="713" 
d="M233 680h252q10 0 13 -10l153 -506q1 -6 7 -6h31q10 0 10 -10v-138q0 -10 -10 -10h-104q-86 -35 -86 -56q0 -10 13 -10q10 0 24 9q8 5 13 -3l46 -83q5 -8 -4 -14q-54 -35 -112 -35q-55 0 -86.5 28.5t-31.5 72.5q0 63 57 98v141q0 10 10 10h15q5 0 4 6l-9 34h-163l-8 -33
q-1 -7 6 -7h13q10 0 10 -10v-138q0 -10 -10 -10h-262q-10 0 -10 10v138q0 10 10 10h31q5 0 7 6l158 506q3 10 13 10zM356 515l-40 -156h82l-39 156h-3z" />
    <glyph glyph-name="aogonek" unicode="&#x105;" horiz-adv-x="542" 
d="M249 502q132 0 185 -45t53 -145v-148q0 -6 6 -6h25q10 0 10 -10v-138q0 -10 -10 -10h-46q-86 -35 -86 -56q0 -10 13 -10q11 0 24 9q8 5 13 -3l46 -83q5 -8 -4 -14q-54 -35 -112 -35q-55 0 -86.5 28.5t-31.5 72.5q0 56 50 99v26h-1q-44 -46 -127 -46q-66 0 -111 38
t-45 113q0 81 59.5 122.5t155.5 41.5h64q6 0 6 6v14q0 19 -10.5 29t-39.5 10q-13 0 -25 -3q-6 -1 -6 -7v-15q0 -10 -10 -10h-150q-10 0 -10 10v119q0 11 9 14q90 32 192 32zM293 191h-46q-47 0 -47 -35q0 -32 43 -32q56 0 56 35v26q0 6 -6 6z" />
    <glyph glyph-name="Cacute" unicode="&#x106;" horiz-adv-x="577" 
d="M331 890h167q5 0 6.5 -3t-1.5 -7l-134 -132q-10 -10 -21 -10h-141q-5 0 -6 3t2 7l110 132q8 10 18 10zM311 692q132 0 225 -61q7 -4 7 -14v-164q0 -10 -10 -10h-157q-10 0 -10 10v35q0 9 -8 12q-18 8 -44 8q-53 0 -67 -44q-10 -32 -10 -124q0 -93 10 -125q14 -43 67 -43
q32 0 46 8q6 3 6 11v38q0 10 10 10h157q10 0 10 -10v-167q0 -9 -7 -14q-84 -60 -227 -60q-207 0 -259 155q-23 69 -23 195q0 125 21 188q54 166 263 166z" />
    <glyph glyph-name="cacute" unicode="&#x107;" horiz-adv-x="490" 
d="M262 704h165q4 0 5.5 -3.5t-0.5 -6.5l-106 -144q-8 -10 -16 -10h-143q-10 0 -5 10l83 144q7 10 17 10zM260 502q117 0 197 -49q9 -6 9 -17v-128q0 -10 -10 -10h-139q-10 0 -10 10v25q0 5 -5 8q-10 5 -29 5q-38 0 -48 -30q-5 -15 -5 -71t5 -71q10 -30 48 -30q19 0 29 5
q5 3 5 8v29q0 10 10 10h139q10 0 10 -10v-134q0 -11 -8 -16q-80 -48 -198 -48q-180 0 -227 145q-13 39 -13 112q0 70 13 109q48 148 227 148z" />
    <glyph glyph-name="Ccircumflex" unicode="&#x108;" horiz-adv-x="577" 
d="M253 898h108q12 0 19 -10l114 -144q3 -4 1.5 -7t-6.5 -3h-113q-14 0 -24 10l-44 44h-2l-44 -44q-10 -10 -24 -10h-113q-5 0 -6.5 3t1.5 7l114 144q7 10 19 10zM311 692q132 0 225 -61q7 -4 7 -14v-164q0 -10 -10 -10h-157q-10 0 -10 10v35q0 9 -8 12q-18 8 -44 8
q-53 0 -67 -44q-10 -32 -10 -124q0 -93 10 -125q14 -43 67 -43q32 0 46 8q6 3 6 11v38q0 10 10 10h157q10 0 10 -10v-167q0 -9 -7 -14q-84 -60 -227 -60q-207 0 -259 155q-23 69 -23 195q0 125 21 188q54 166 263 166z" />
    <glyph glyph-name="ccircumflex" unicode="&#x109;" horiz-adv-x="490" 
d="M206 702h108q12 0 19 -10l114 -144q3 -4 1.5 -7t-6.5 -3h-113q-14 0 -24 10l-44 44h-2l-44 -44q-10 -10 -24 -10h-113q-5 0 -6.5 3t1.5 7l114 144q7 10 19 10zM260 502q117 0 197 -49q9 -6 9 -17v-128q0 -10 -10 -10h-139q-10 0 -10 10v25q0 5 -5 8q-10 5 -29 5
q-38 0 -48 -30q-5 -15 -5 -71t5 -71q10 -30 48 -30q19 0 29 5q5 3 5 8v29q0 10 10 10h139q10 0 10 -10v-134q0 -11 -8 -16q-80 -48 -198 -48q-180 0 -227 145q-13 39 -13 112q0 70 13 109q48 148 227 148z" />
    <glyph glyph-name="Cdotaccent" unicode="&#x10a;" horiz-adv-x="577" 
d="M223 883h164q10 0 10 -10v-124q0 -10 -10 -10h-164q-10 0 -10 10v124q0 10 10 10zM311 692q132 0 225 -61q7 -4 7 -14v-164q0 -10 -10 -10h-157q-10 0 -10 10v35q0 9 -8 12q-18 8 -44 8q-53 0 -67 -44q-10 -32 -10 -124q0 -93 10 -125q14 -43 67 -43q32 0 46 8q6 3 6 11
v38q0 10 10 10h157q10 0 10 -10v-167q0 -9 -7 -14q-84 -60 -227 -60q-207 0 -259 155q-23 69 -23 195q0 125 21 188q54 166 263 166z" />
    <glyph glyph-name="cdotaccent" unicode="&#x10b;" horiz-adv-x="490" 
d="M175 680h164q10 0 10 -10v-124q0 -10 -10 -10h-164q-10 0 -10 10v124q0 10 10 10zM260 502q117 0 197 -49q9 -6 9 -17v-128q0 -10 -10 -10h-139q-10 0 -10 10v25q0 5 -5 8q-10 5 -29 5q-38 0 -48 -30q-5 -15 -5 -71t5 -71q10 -30 48 -30q19 0 29 5q5 3 5 8v29q0 10 10 10
h139q10 0 10 -10v-134q0 -11 -8 -16q-80 -48 -198 -48q-180 0 -227 145q-13 39 -13 112q0 70 13 109q48 148 227 148z" />
    <glyph glyph-name="Ccaron" unicode="&#x10c;" horiz-adv-x="577" 
d="M373 890h113q5 0 6.5 -3t-1.5 -7l-114 -144q-7 -10 -19 -10h-108q-12 0 -19 10l-114 144q-3 4 -1.5 7t6.5 3h113q14 0 24 -10l44 -44h2l44 44q10 10 24 10zM311 692q132 0 225 -61q7 -4 7 -14v-164q0 -10 -10 -10h-157q-10 0 -10 10v35q0 9 -8 12q-18 8 -44 8
q-53 0 -67 -44q-10 -32 -10 -124q0 -93 10 -125q14 -43 67 -43q32 0 46 8q6 3 6 11v38q0 10 10 10h157q10 0 10 -10v-167q0 -9 -7 -14q-84 -60 -227 -60q-207 0 -259 155q-23 69 -23 195q0 125 21 188q54 166 263 166z" />
    <glyph glyph-name="ccaron" unicode="&#x10d;" horiz-adv-x="490" 
d="M326 698h113q5 0 6.5 -3t-1.5 -7l-114 -144q-7 -10 -19 -10h-108q-12 0 -19 10l-114 144q-3 4 -1.5 7t6.5 3h113q14 0 24 -10l44 -44h2l44 44q10 10 24 10zM260 502q117 0 197 -49q9 -6 9 -17v-128q0 -10 -10 -10h-139q-10 0 -10 10v25q0 5 -5 8q-10 5 -29 5
q-38 0 -48 -30q-5 -15 -5 -71t5 -71q10 -30 48 -30q19 0 29 5q5 3 5 8v29q0 10 10 10h139q10 0 10 -10v-134q0 -11 -8 -16q-80 -48 -198 -48q-180 0 -227 145q-13 39 -13 112q0 70 13 109q48 148 227 148z" />
    <glyph glyph-name="Dcaron" unicode="&#x10e;" horiz-adv-x="636" 
d="M378 890h113q5 0 6.5 -3t-1.5 -7l-114 -144q-7 -10 -19 -10h-108q-12 0 -19 10l-114 144q-3 4 -1.5 7t6.5 3h113q14 0 24 -10l44 -44h2l44 44q10 10 24 10zM24 680h312q200 0 252 -158q21 -64 21 -182t-21 -182q-52 -158 -252 -158h-312q-10 0 -10 10v138q0 10 10 10h31
q6 0 6 6v352q0 6 -6 6h-31q-10 0 -10 10v138q0 10 10 10zM296 496h-22q-6 0 -6 -6v-300q0 -6 6 -6h22q42 0 64 11.5t31 40.5q9 27 9 104t-9 104q-9 29 -31 40.5t-64 11.5z" />
    <glyph glyph-name="dcaron" unicode="&#x10f;" horiz-adv-x="571" 
d="M282 680h221q10 0 10 -10v-506q0 -6 6 -6h28q10 0 10 -10v-138q0 -10 -10 -10h-221q-10 0 -10 10v36h-1q-34 -56 -122 -56q-118 0 -155 115q-17 52 -17 140t17 140q37 115 155 115q88 0 122 -56h1v72q0 6 -6 6h-28q-10 0 -10 10v138q0 10 10 10zM551 680h124q10 0 10 -10
v-107q0 -13 -10 -22l-104 -78q-11 -8 -18 -8q-12 0 -12 13v202q0 10 10 10zM268 342q-33 0 -42 -28q-6 -20 -6 -69t6 -69q9 -28 42 -28t42 28q6 19 6 69q0 49 -6 69q-9 28 -42 28z" />
    <glyph glyph-name="Dcroat" unicode="&#x110;" horiz-adv-x="636" 
d="M24 680h312q200 0 252 -158q21 -64 21 -182t-21 -182q-52 -158 -252 -158h-312q-10 0 -10 10v138q0 10 10 10h31q6 0 6 6v105q0 6 -6 6h-26q-10 0 -10 10v117q0 10 10 10h26q6 0 6 6v98q0 6 -6 6h-31q-10 0 -10 10v138q0 10 10 10zM296 496h-22q-6 0 -6 -6v-72q0 -6 6 -6
h54q10 0 10 -10v-117q0 -10 -10 -10h-54q-6 0 -6 -6v-79q0 -6 6 -6h22q42 0 64 11.5t31 40.5q9 27 9 104t-9 104q-9 29 -31 40.5t-64 11.5z" />
    <glyph glyph-name="dcroat" unicode="&#x111;" horiz-adv-x="571" 
d="M326 680h177q10 0 10 -10v-18q0 -6 6 -6h17q10 0 10 -10v-91q0 -10 -10 -10h-17q-6 0 -6 -6v-365q0 -6 6 -6h28q10 0 10 -10v-138q0 -10 -10 -10h-221q-10 0 -10 10v36h-1q-34 -56 -122 -56q-118 0 -155 115q-17 52 -17 140t17 140q37 115 155 115q88 0 122 -56h1v85
q0 6 -6 6h-87q-10 0 -10 10v91q0 10 10 10h87q6 0 6 6v18q0 10 10 10zM268 342q-33 0 -42 -28q-6 -20 -6 -69t6 -69q9 -28 42 -28t42 28q6 19 6 69q0 49 -6 69q-9 28 -42 28z" />
    <glyph glyph-name="Emacron" unicode="&#x112;" horiz-adv-x="551" 
d="M124 876h324q10 0 10 -10v-108q0 -10 -10 -10h-324q-10 0 -10 10v108q0 10 10 10zM24 680h497q10 0 10 -10v-178q0 -10 -10 -10h-150q-10 0 -10 10v24q0 6 -6 6h-83q-6 0 -6 -6v-88q0 -6 6 -6h42q6 0 6 5v15q0 10 10 10h141q10 0 10 -10v-198q0 -10 -10 -10h-141
q-10 0 -10 10v14q0 6 -6 6h-42q-6 0 -6 -6v-94q0 -6 6 -6h83q6 0 6 6v27q0 10 10 10h150q10 0 10 -10v-181q0 -10 -10 -10h-497q-10 0 -10 10v138q0 10 10 10h31q6 0 6 6v352q0 6 -6 6h-31q-10 0 -10 10v138q0 10 10 10z" />
    <glyph glyph-name="emacron" unicode="&#x113;" horiz-adv-x="530" 
d="M103 676h324q10 0 10 -10v-108q0 -10 -10 -10h-324q-10 0 -10 10v108q0 10 10 10zM264 502q184 0 231 -145q15 -47 15 -156q0 -10 -10 -10h-283q-6 0 -6 -6q0 -4 2 -10q14 -42 87 -42q55 0 107 36q8 5 14 -2l78 -86q7 -7 -2 -15q-89 -78 -220 -78q-95 0 -156.5 38.5
t-85.5 109.5q-15 45 -15 109t15 109q23 71 82 109.5t147 38.5zM267 367q-42 0 -53 -34q-3 -9 -3 -24q0 -6 6 -6h100q6 0 6 6q0 15 -3 24q-11 34 -53 34z" />
    <glyph glyph-name="Ebreve" unicode="&#x114;" horiz-adv-x="551" 
d="M368 885h74q14 0 14 -11q0 -64 -49.5 -108.5t-120.5 -44.5t-120.5 44.5t-49.5 108.5q0 11 14 11h74q10 0 16 -11q19 -37 66 -37t66 37q6 11 16 11zM24 680h497q10 0 10 -10v-178q0 -10 -10 -10h-150q-10 0 -10 10v24q0 6 -6 6h-83q-6 0 -6 -6v-88q0 -6 6 -6h42q6 0 6 5
v15q0 10 10 10h141q10 0 10 -10v-198q0 -10 -10 -10h-141q-10 0 -10 10v14q0 6 -6 6h-42q-6 0 -6 -6v-94q0 -6 6 -6h83q6 0 6 6v27q0 10 10 10h150q10 0 10 -10v-181q0 -10 -10 -10h-497q-10 0 -10 10v138q0 10 10 10h31q6 0 6 6v352q0 6 -6 6h-31q-10 0 -10 10v138
q0 10 10 10z" />
    <glyph glyph-name="ebreve" unicode="&#x115;" horiz-adv-x="530" 
d="M347 693h74q14 0 14 -11q0 -64 -49.5 -108.5t-120.5 -44.5t-120.5 44.5t-49.5 108.5q0 11 14 11h74q11 0 16 -11q19 -37 66 -37t66 37q5 11 16 11zM264 502q184 0 231 -145q15 -47 15 -156q0 -10 -10 -10h-283q-6 0 -6 -6q0 -4 2 -10q14 -42 87 -42q55 0 107 36
q8 5 14 -2l78 -86q7 -7 -2 -15q-89 -78 -220 -78q-95 0 -156.5 38.5t-85.5 109.5q-15 45 -15 109t15 109q23 71 82 109.5t147 38.5zM267 367q-42 0 -53 -34q-3 -9 -3 -24q0 -6 6 -6h100q6 0 6 6q0 15 -3 24q-11 34 -53 34z" />
    <glyph glyph-name="Edotaccent" unicode="&#x116;" horiz-adv-x="551" 
d="M204 883h164q10 0 10 -10v-124q0 -10 -10 -10h-164q-10 0 -10 10v124q0 10 10 10zM24 680h497q10 0 10 -10v-178q0 -10 -10 -10h-150q-10 0 -10 10v24q0 6 -6 6h-83q-6 0 -6 -6v-88q0 -6 6 -6h42q6 0 6 5v15q0 10 10 10h141q10 0 10 -10v-198q0 -10 -10 -10h-141
q-10 0 -10 10v14q0 6 -6 6h-42q-6 0 -6 -6v-94q0 -6 6 -6h83q6 0 6 6v27q0 10 10 10h150q10 0 10 -10v-181q0 -10 -10 -10h-497q-10 0 -10 10v138q0 10 10 10h31q6 0 6 6v352q0 6 -6 6h-31q-10 0 -10 10v138q0 10 10 10z" />
    <glyph glyph-name="edotaccent" unicode="&#x117;" horiz-adv-x="530" 
d="M183 680h164q10 0 10 -10v-124q0 -10 -10 -10h-164q-10 0 -10 10v124q0 10 10 10zM264 502q184 0 231 -145q15 -47 15 -156q0 -10 -10 -10h-283q-6 0 -6 -6q0 -4 2 -10q14 -42 87 -42q55 0 107 36q8 5 14 -2l78 -86q7 -7 -2 -15q-89 -78 -220 -78q-95 0 -156.5 38.5
t-85.5 109.5q-15 45 -15 109t15 109q23 71 82 109.5t147 38.5zM267 367q-42 0 -53 -34q-3 -9 -3 -24q0 -6 6 -6h100q6 0 6 6q0 15 -3 24q-11 34 -53 34z" />
    <glyph glyph-name="Eogonek" unicode="&#x118;" horiz-adv-x="551" 
d="M24 680h497q10 0 10 -10v-178q0 -10 -10 -10h-150q-10 0 -10 10v24q0 6 -6 6h-83q-6 0 -6 -6v-88q0 -6 6 -6h42q6 0 6 5v15q0 10 10 10h141q10 0 10 -10v-198q0 -10 -10 -10h-141q-10 0 -10 10v14q0 6 -6 6h-42q-6 0 -6 -6v-94q0 -6 6 -6h83q6 0 6 6v27q0 10 10 10h150
q10 0 10 -10v-181q0 -10 -10 -10h-15q-86 -35 -86 -56q0 -10 13 -10q11 0 24 9q8 5 13 -3l46 -83q5 -8 -4 -14q-54 -35 -112 -35q-55 0 -86.5 28.5t-31.5 72.5q0 55 46 91h-304q-10 0 -10 10v138q0 10 10 10h31q6 0 6 6v352q0 6 -6 6h-31q-10 0 -10 10v138q0 10 10 10z" />
    <glyph glyph-name="eogonek" unicode="&#x119;" horiz-adv-x="530" 
d="M264 502q184 0 231 -145q15 -47 15 -156q0 -10 -10 -10h-283q-6 0 -6 -6q0 -4 2 -10q14 -42 87 -42q55 0 107 36q8 5 14 -2l78 -86q7 -7 -2 -15q-24 -20 -38 -28q-92 -71 -92 -93q0 -11 13 -11q10 0 24 9q8 5 13 -3l46 -83q5 -8 -4 -14q-54 -35 -112 -35
q-55 0 -86.5 28.5t-31.5 72.5q0 41 34 79q-81 2 -142.5 39t-85.5 109q-15 45 -15 109t15 109q23 71 82 109.5t147 38.5zM267 367q-42 0 -53 -34q-3 -9 -3 -24q0 -6 6 -6h100q6 0 6 6q0 15 -3 24q-11 34 -53 34z" />
    <glyph glyph-name="Ecaron" unicode="&#x11a;" horiz-adv-x="551" 
d="M354 890h113q5 0 6.5 -3t-1.5 -7l-114 -144q-7 -10 -19 -10h-108q-12 0 -19 10l-114 144q-3 4 -1.5 7t6.5 3h113q14 0 24 -10l44 -44h2l44 44q10 10 24 10zM24 680h497q10 0 10 -10v-178q0 -10 -10 -10h-150q-10 0 -10 10v24q0 6 -6 6h-83q-6 0 -6 -6v-88q0 -6 6 -6h42
q6 0 6 5v15q0 10 10 10h141q10 0 10 -10v-198q0 -10 -10 -10h-141q-10 0 -10 10v14q0 6 -6 6h-42q-6 0 -6 -6v-94q0 -6 6 -6h83q6 0 6 6v27q0 10 10 10h150q10 0 10 -10v-181q0 -10 -10 -10h-497q-10 0 -10 10v138q0 10 10 10h31q6 0 6 6v352q0 6 -6 6h-31q-10 0 -10 10v138
q0 10 10 10z" />
    <glyph glyph-name="ecaron" unicode="&#x11b;" horiz-adv-x="530" 
d="M336 698h113q5 0 6.5 -3t-1.5 -7l-114 -144q-7 -10 -19 -10h-108q-12 0 -19 10l-114 144q-3 4 -1.5 7t6.5 3h113q14 0 24 -10l44 -44h2l44 44q10 10 24 10zM264 502q184 0 231 -145q15 -47 15 -156q0 -10 -10 -10h-283q-6 0 -6 -6q0 -4 2 -10q14 -42 87 -42q55 0 107 36
q8 5 14 -2l78 -86q7 -7 -2 -15q-89 -78 -220 -78q-95 0 -156.5 38.5t-85.5 109.5q-15 45 -15 109t15 109q23 71 82 109.5t147 38.5zM267 367q-42 0 -53 -34q-3 -9 -3 -24q0 -6 6 -6h100q6 0 6 6q0 15 -3 24q-11 34 -53 34z" />
    <glyph glyph-name="Gcircumflex" unicode="&#x11c;" horiz-adv-x="618" 
d="M260 898h108q12 0 19 -10l114 -144q3 -4 1.5 -7t-6.5 -3h-113q-14 0 -24 10l-44 44h-2l-44 -44q-10 -10 -24 -10h-113q-5 0 -6.5 3t1.5 7l114 144q7 10 19 10zM323 692q147 0 238 -63q7 -4 7 -14v-159q0 -10 -10 -10h-158q-10 0 -10 10v38q0 6 -7 9q-24 8 -56 8
q-65 0 -80 -48q-9 -28 -9 -123q0 -97 9 -125q15 -46 79 -46q41 0 61 7q6 2 6 8v41q0 7 -7 7h-55q-10 0 -10 10v131q0 10 10 10h239q10 0 10 -10v-298q0 -12 -10 -19q-92 -68 -247 -68q-220 0 -275 168q-20 63 -20 184q0 116 21 183q55 169 274 169z" />
    <glyph glyph-name="gcircumflex" unicode="&#x11d;" horiz-adv-x="573" 
d="M225 702h108q12 0 19 -10l114 -144q3 -4 1.5 -7t-6.5 -3h-113q-14 0 -24 10l-44 44h-2l-44 -44q-10 -10 -24 -10h-113q-5 0 -6.5 3t1.5 7l114 144q7 10 19 10zM195 500q88 0 122 -56h1v36q0 10 10 10h221q10 0 10 -10v-138q0 -10 -10 -10h-28q-6 0 -6 -5v-225
q0 -160 -67.5 -227t-207.5 -67q-61 0 -118.5 23.5t-81.5 54.5q-6 8 1 15l98 102q7 7 15 1q46 -36 90 -36q39 0 56.5 21t17.5 69v32h-1q-34 -56 -122 -56q-119 0 -156 114q-16 51 -16 119t16 119q37 114 156 114zM270 342q-33 0 -43 -31q-5 -15 -5 -44t5 -44q10 -31 43 -31
t43 31q5 15 5 44t-5 44q-10 31 -43 31z" />
    <glyph glyph-name="Gbreve" unicode="&#x11e;" horiz-adv-x="618" 
d="M397 885h74q14 0 14 -11q0 -64 -49.5 -108.5t-120.5 -44.5t-120.5 44.5t-49.5 108.5q0 11 14 11h74q11 0 16 -11q19 -37 66 -37t66 37q5 11 16 11zM323 692q147 0 238 -63q7 -4 7 -14v-159q0 -10 -10 -10h-158q-10 0 -10 10v38q0 6 -7 9q-24 8 -56 8q-65 0 -80 -48
q-9 -28 -9 -123q0 -97 9 -125q15 -46 79 -46q41 0 61 7q6 2 6 8v41q0 7 -7 7h-55q-10 0 -10 10v131q0 10 10 10h239q10 0 10 -10v-298q0 -12 -10 -19q-92 -68 -247 -68q-220 0 -275 168q-20 63 -20 184q0 116 21 183q55 169 274 169z" />
    <glyph glyph-name="gbreve" unicode="&#x11f;" horiz-adv-x="573" 
d="M361 693h74q14 0 14 -11q0 -64 -49.5 -108.5t-120.5 -44.5t-120.5 44.5t-49.5 108.5q0 11 14 11h74q11 0 16 -11q19 -37 66 -37t66 37q5 11 16 11zM195 500q88 0 122 -56h1v36q0 10 10 10h221q10 0 10 -10v-138q0 -10 -10 -10h-28q-6 0 -6 -5v-225q0 -160 -67.5 -227
t-207.5 -67q-61 0 -118.5 23.5t-81.5 54.5q-6 8 1 15l98 102q7 7 15 1q46 -36 90 -36q39 0 56.5 21t17.5 69v32h-1q-34 -56 -122 -56q-119 0 -156 114q-16 51 -16 119t16 119q37 114 156 114zM270 342q-33 0 -43 -31q-5 -15 -5 -44t5 -44q10 -31 43 -31t43 31q5 15 5 44
t-5 44q-10 31 -43 31z" />
    <glyph glyph-name="Gdotaccent" unicode="&#x120;" horiz-adv-x="618" 
d="M233 883h164q10 0 10 -10v-124q0 -10 -10 -10h-164q-10 0 -10 10v124q0 10 10 10zM323 692q147 0 238 -63q7 -4 7 -14v-159q0 -10 -10 -10h-158q-10 0 -10 10v38q0 6 -7 9q-24 8 -56 8q-65 0 -80 -48q-9 -28 -9 -123q0 -97 9 -125q15 -46 79 -46q41 0 61 7q6 2 6 8v41
q0 7 -7 7h-55q-10 0 -10 10v131q0 10 10 10h239q10 0 10 -10v-298q0 -12 -10 -19q-92 -68 -247 -68q-220 0 -275 168q-20 63 -20 184q0 116 21 183q55 169 274 169z" />
    <glyph glyph-name="gdotaccent" unicode="&#x121;" horiz-adv-x="573" 
d="M197 680h164q10 0 10 -10v-124q0 -10 -10 -10h-164q-10 0 -10 10v124q0 10 10 10zM195 500q88 0 122 -56h1v36q0 10 10 10h221q10 0 10 -10v-138q0 -10 -10 -10h-28q-6 0 -6 -5v-225q0 -160 -67.5 -227t-207.5 -67q-61 0 -118.5 23.5t-81.5 54.5q-6 8 1 15l98 102
q7 7 15 1q46 -36 90 -36q39 0 56.5 21t17.5 69v32h-1q-34 -56 -122 -56q-119 0 -156 114q-16 51 -16 119t16 119q37 114 156 114zM270 342q-33 0 -43 -31q-5 -15 -5 -44t5 -44q10 -31 43 -31t43 31q5 15 5 44t-5 44q-10 31 -43 31z" />
    <glyph glyph-name="Gcommaaccent" unicode="&#x122;" horiz-adv-x="618" 
d="M323 692q147 0 238 -63q7 -4 7 -14v-159q0 -10 -10 -10h-158q-10 0 -10 10v38q0 6 -7 9q-24 8 -56 8q-65 0 -80 -48q-9 -28 -9 -123q0 -97 9 -125q15 -46 79 -46q41 0 61 7q6 2 6 8v41q0 7 -7 7h-55q-10 0 -10 10v131q0 10 10 10h239q10 0 10 -10v-298q0 -12 -10 -19
q-92 -68 -247 -68q-220 0 -275 168q-20 63 -20 184q0 116 21 183q55 169 274 169zM242 -41h142q10 0 10 -10v-100q0 -16 -10 -22l-122 -78q-13 -8 -18 -8q-12 0 -12 13v195q0 10 10 10z" />
    <glyph glyph-name="gcommaaccent" unicode="&#x123;" horiz-adv-x="573" 
d="M348 754q12 0 12 -13v-195q0 -10 -10 -10h-142q-10 0 -10 10v100q0 16 10 22l122 78q13 8 18 8zM195 500q88 0 122 -56h1v36q0 10 10 10h221q10 0 10 -10v-138q0 -10 -10 -10h-28q-6 0 -6 -5v-225q0 -160 -67.5 -227t-207.5 -67q-61 0 -118.5 23.5t-81.5 54.5q-6 8 1 15
l98 102q7 7 15 1q46 -36 90 -36q39 0 56.5 21t17.5 69v32h-1q-34 -56 -122 -56q-119 0 -156 114q-16 51 -16 119t16 119q37 114 156 114zM270 342q-33 0 -43 -31q-5 -15 -5 -44t5 -44q10 -31 43 -31t43 31q5 15 5 44t-5 44q-10 31 -43 31z" />
    <glyph glyph-name="Hcircumflex" unicode="&#x124;" horiz-adv-x="687" 
d="M289 898h108q12 0 19 -10l114 -144q3 -4 1.5 -7t-6.5 -3h-113q-14 0 -24 10l-44 44h-2l-44 -44q-10 -10 -24 -10h-113q-5 0 -6.5 3t1.5 7l114 144q7 10 19 10zM382 680h281q10 0 10 -10v-138q0 -10 -10 -10h-31q-6 0 -6 -6v-352q0 -6 6 -6h31q10 0 10 -10v-138
q0 -10 -10 -10h-281q-10 0 -10 10v138q0 10 10 10h31q6 0 6 6v85q0 6 -6 6h-139q-6 0 -6 -6v-87q0 -4 6 -4h31q10 0 10 -10v-138q0 -10 -10 -10h-281q-10 0 -10 10v138q0 10 10 10h31q6 0 6 6v352q0 6 -6 6h-31q-10 0 -10 10v138q0 10 10 10h281q10 0 10 -10v-138
q0 -10 -10 -10h-31q-6 0 -6 -5v-74q0 -6 6 -6h139q6 0 6 6v73q0 6 -6 6h-31q-10 0 -10 10v138q0 10 10 10z" />
    <glyph glyph-name="uni0125" unicode="&#x125;" horiz-adv-x="595" 
d="M250 898h108q12 0 19 -10l114 -144q3 -4 1.5 -7t-6.5 -3h-113q-14 0 -24 10l-44 44h-2l-44 -44q-10 -10 -24 -10h-113q-5 0 -6.5 3t1.5 7l114 144q7 10 19 10zM24 680h221q10 0 10 -10v-226h1q41 56 127 56q157 0 157 -183v-153q0 -6 6 -6h25q10 0 10 -10v-138
q0 -10 -10 -10h-248q-10 0 -10 10v138q0 10 10 10h14q6 0 6 6v124q0 50 -44 50t-44 -50v-124q0 -6 6 -6h14q10 0 10 -10v-138q0 -10 -10 -10h-251q-10 0 -10 10v138q0 10 10 10h28q6 0 6 6v352q0 6 -6 6h-28q-10 0 -10 10v138q0 10 10 10z" />
    <glyph glyph-name="Hbar" unicode="&#x126;" horiz-adv-x="687" 
d="M382 680h281q10 0 10 -10v-138q0 -10 -10 -10h-31q-6 0 -6 -6v-12q0 -6 6 -6h19q10 0 10 -10v-60q0 -10 -10 -10h-19q-6 0 -6 -6v-248q0 -6 6 -6h31q10 0 10 -10v-138q0 -10 -10 -10h-281q-10 0 -10 10v138q0 10 10 10h31q6 0 6 6v71q0 6 -6 6h-139q-6 0 -6 -6v-71
q0 -6 6 -6h31q10 0 10 -10v-138q0 -10 -10 -10h-281q-10 0 -10 10v138q0 10 10 10h31q6 0 6 6v248q0 6 -6 6h-26q-10 0 -10 10v60q0 10 10 10h26q6 0 6 6v12q0 6 -6 6h-31q-10 0 -10 10v138q0 10 10 10h281q10 0 10 -10v-138q0 -10 -10 -10h-31q-6 0 -6 -5v-13q0 -6 6 -6
h139q6 0 6 6v12q0 6 -6 6h-31q-10 0 -10 10v138q0 10 10 10zM413 418h-139q-6 0 -6 -5v-16q0 -6 6 -6h139q6 0 6 6v15q0 6 -6 6z" />
    <glyph glyph-name="hbar" unicode="&#x127;" horiz-adv-x="595" 
d="M68 680h177q10 0 10 -10v-18q0 -6 6 -6h87q10 0 10 -10v-91q0 -10 -10 -10h-87q-6 0 -6 -6v-85h1q41 56 127 56q157 0 157 -183v-153q0 -6 6 -6h25q10 0 10 -10v-138q0 -10 -10 -10h-248q-10 0 -10 10v138q0 10 10 10h14q6 0 6 6v124q0 50 -44 50t-44 -50v-124q0 -6 6 -6
h14q10 0 10 -10v-138q0 -10 -10 -10h-251q-10 0 -10 10v138q0 10 10 10h28q6 0 6 6v365q0 6 -6 6h-27q-10 0 -10 10v91q0 10 10 10h27q6 0 6 6v18q0 10 10 10z" />
    <glyph glyph-name="Itilde" unicode="&#x128;" horiz-adv-x="329" 
d="M89 899q44 0 94 -26q32 -17 61 -17q38 0 81 33q11 7 11 -4v-92q0 -14 -10 -24q-41 -39 -86 -39q-44 0 -94 26q-32 17 -61 17q-37 0 -81 -33q-11 -7 -11 4v92q0 14 10 24q41 39 86 39zM24 680h281q10 0 10 -10v-138q0 -10 -10 -10h-31q-6 0 -6 -6v-352q0 -6 6 -6h31
q10 0 10 -10v-138q0 -10 -10 -10h-281q-10 0 -10 10v138q0 10 10 10h31q6 0 6 6v352q0 6 -6 6h-31q-10 0 -10 10v138q0 10 10 10z" />
    <glyph glyph-name="itilde" unicode="&#x129;" horiz-adv-x="313" 
d="M70 705q44 0 94 -26q32 -17 61 -17q37 0 81 33q11 7 11 -4v-92q0 -14 -10 -24q-41 -39 -86 -39q-44 0 -94 26q-32 17 -61 17q-38 0 -81 -33q-11 -7 -11 4v92q0 14 10 24q41 39 86 39zM24 490h221q10 0 10 -10v-316q0 -6 6 -6h28q10 0 10 -10v-138q0 -10 -10 -10h-265
q-10 0 -10 10v138q0 10 10 10h28q6 0 6 6v162q0 6 -6 6h-28q-10 0 -10 10v138q0 10 10 10z" />
    <glyph glyph-name="Imacron" unicode="&#x12a;" horiz-adv-x="329" 
d="M2 876h324q10 0 10 -10v-108q0 -10 -10 -10h-324q-10 0 -10 10v108q0 10 10 10zM24 680h281q10 0 10 -10v-138q0 -10 -10 -10h-31q-6 0 -6 -6v-352q0 -6 6 -6h31q10 0 10 -10v-138q0 -10 -10 -10h-281q-10 0 -10 10v138q0 10 10 10h31q6 0 6 6v352q0 6 -6 6h-31
q-10 0 -10 10v138q0 10 10 10z" />
    <glyph glyph-name="imacron" unicode="&#x12b;" horiz-adv-x="313" 
d="M-16 676h324q10 0 10 -10v-108q0 -10 -10 -10h-324q-10 0 -10 10v108q0 10 10 10zM24 490h221q10 0 10 -10v-316q0 -6 6 -6h28q10 0 10 -10v-138q0 -10 -10 -10h-265q-10 0 -10 10v138q0 10 10 10h28q6 0 6 6v162q0 6 -6 6h-28q-10 0 -10 10v138q0 10 10 10z" />
    <glyph glyph-name="Ibreve" unicode="&#x12c;" horiz-adv-x="329" 
d="M246 885h74q14 0 14 -11q0 -64 -49.5 -108.5t-120.5 -44.5t-120.5 44.5t-49.5 108.5q0 11 14 11h74q10 0 16 -11q19 -37 66 -37t66 37q6 11 16 11zM24 680h281q10 0 10 -10v-138q0 -10 -10 -10h-31q-6 0 -6 -6v-352q0 -6 6 -6h31q10 0 10 -10v-138q0 -10 -10 -10h-281
q-10 0 -10 10v138q0 10 10 10h31q6 0 6 6v352q0 6 -6 6h-31q-10 0 -10 10v138q0 10 10 10z" />
    <glyph glyph-name="ibreve" unicode="&#x12d;" horiz-adv-x="313" 
d="M227 693h74q14 0 14 -11q0 -64 -49.5 -108.5t-120.5 -44.5t-120.5 44.5t-49.5 108.5q0 11 14 11h74q11 0 16 -11q19 -37 66 -37t66 37q5 11 16 11zM24 490h221q10 0 10 -10v-316q0 -6 6 -6h28q10 0 10 -10v-138q0 -10 -10 -10h-265q-10 0 -10 10v138q0 10 10 10h28
q6 0 6 6v162q0 6 -6 6h-28q-10 0 -10 10v138q0 10 10 10z" />
    <glyph glyph-name="Iogonek" unicode="&#x12e;" horiz-adv-x="329" 
d="M24 680h281q10 0 10 -10v-138q0 -10 -10 -10h-31q-6 0 -6 -6v-352q0 -6 6 -6h31q10 0 10 -10v-138q0 -10 -10 -10h-40q-86 -35 -86 -56q0 -10 13 -10q10 0 24 9q8 5 13 -3l46 -83q5 -8 -4 -14q-54 -35 -112 -35q-55 0 -86.5 28.5t-31.5 72.5q0 55 46 91h-63q-10 0 -10 10
v138q0 10 10 10h31q6 0 6 6v352q0 6 -6 6h-31q-10 0 -10 10v138q0 10 10 10z" />
    <glyph glyph-name="uni012F" unicode="&#x12f;" horiz-adv-x="313" 
d="M68 680h177q10 0 10 -10v-124q0 -10 -10 -10h-177q-10 0 -10 10v124q0 10 10 10zM24 490h221q10 0 10 -10v-316q0 -6 6 -6h28q10 0 10 -10v-138q0 -10 -10 -10h-36q-36 -16 -55.5 -27t-24 -17t-4.5 -12q0 -10 13 -10q11 0 24 9q8 5 13 -3l46 -83q5 -8 -4 -14
q-54 -35 -112 -35q-55 0 -86.5 28.5t-31.5 72.5q0 57 41 91h-48q-10 0 -10 10v138q0 10 10 10h28q6 0 6 6v162q0 6 -6 6h-28q-10 0 -10 10v138q0 10 10 10z" />
    <glyph glyph-name="Idotaccent" unicode="&#x130;" horiz-adv-x="329" 
d="M82 883h164q10 0 10 -10v-124q0 -10 -10 -10h-164q-10 0 -10 10v124q0 10 10 10zM24 680h281q10 0 10 -10v-138q0 -10 -10 -10h-31q-6 0 -6 -6v-352q0 -6 6 -6h31q10 0 10 -10v-138q0 -10 -10 -10h-281q-10 0 -10 10v138q0 10 10 10h31q6 0 6 6v352q0 6 -6 6h-31
q-10 0 -10 10v138q0 10 10 10z" />
    <glyph glyph-name="dotlessi" unicode="&#x131;" horiz-adv-x="313" 
d="M24 490h221q10 0 10 -10v-316q0 -6 6 -6h28q10 0 10 -10v-138q0 -10 -10 -10h-265q-10 0 -10 10v138q0 10 10 10h28q6 0 6 6v162q0 6 -6 6h-28q-10 0 -10 10v138q0 10 10 10z" />
    <glyph glyph-name="IJ" unicode="&#x132;" horiz-adv-x="881" 
d="M24 680h281q10 0 10 -10v-138q0 -10 -10 -10h-31q-6 0 -6 -6v-352q0 -6 6 -6h31q10 0 10 -10v-138q0 -10 -10 -10h-281q-10 0 -10 10v138q0 10 10 10h31q6 0 6 6v352q0 6 -6 6h-31q-10 0 -10 10v138q0 10 10 10zM578 680h280q10 0 10 -10v-138q0 -10 -10 -10h-27
q-6 0 -6 -6v-244q0 -284 -271 -284q-130 0 -204 49q-7 5 -7 14v174q0 10 10 10h158q10 0 10 -10v-41q0 -5 5 -7q13 -5 32 -5q28 0 44 20.5t16 58.5v265q0 6 -6 6h-34q-10 0 -10 10v138q0 10 10 10z" />
    <glyph glyph-name="ij" unicode="&#x133;" horiz-adv-x="616" 
d="M68 680h177q10 0 10 -10v-124q0 -10 -10 -10h-177q-10 0 -10 10v124q0 10 10 10zM381 680h177q10 0 10 -10v-124q0 -10 -10 -10h-177q-10 0 -10 10v124q0 10 10 10zM24 490h221q10 0 10 -10v-316q0 -6 6 -6h28q10 0 10 -10v-138q0 -10 -10 -10h-265q-10 0 -10 10v138
q0 10 10 10h28q6 0 6 6v162q0 6 -6 6h-28q-10 0 -10 10v138q0 10 10 10zM337 490h221q10 0 10 -10v-447q0 -112 -55.5 -162.5t-165.5 -50.5h-43q-10 0 -10 10v140q0 10 10 10h13q31 0 42.5 11t11.5 45v290q0 6 -6 6h-28q-10 0 -10 10v138q0 10 10 10z" />
    <glyph glyph-name="Jcircumflex" unicode="&#x134;" horiz-adv-x="552" 
d="M333 898h108q12 0 19 -10l114 -144q3 -4 1.5 -7t-6.5 -3h-113q-14 0 -24 10l-44 44h-2l-44 -44q-10 -10 -24 -10h-113q-5 0 -6.5 3t1.5 7l114 144q7 10 19 10zM249 680h280q10 0 10 -10v-138q0 -10 -10 -10h-27q-6 0 -6 -6v-244q0 -284 -271 -284q-130 0 -204 49
q-7 5 -7 14v174q0 10 10 10h158q10 0 10 -10v-41q0 -5 5 -7q13 -5 32 -5q28 0 44 20.5t16 58.5v265q0 6 -6 6h-34q-10 0 -10 10v138q0 10 10 10z" />
    <glyph glyph-name="jcircumflex" unicode="&#x135;" horiz-adv-x="303" 
d="M91 702h108q12 0 19 -10l114 -144q3 -4 1.5 -7t-6.5 -3h-113q-14 0 -24 10l-44 44h-2l-44 -44q-10 -10 -24 -10h-113q-5 0 -6.5 3t1.5 7l114 144q7 10 19 10zM24 490h221q10 0 10 -10v-447q0 -112 -55.5 -162.5t-165.5 -50.5h-43q-10 0 -10 10v138q0 10 10 10h13
q31 0 42.5 11t11.5 45v292q0 6 -6 6h-28q-10 0 -10 10v138q0 10 10 10z" />
    <glyph glyph-name="Kcommaaccent" unicode="&#x136;" horiz-adv-x="683" 
d="M374 680h268q10 0 10 -10v-138q0 -10 -10 -10h-30q-5 0 -9 -4l-124 -124l114 -230q3 -6 11 -6h50q10 0 10 -10v-138q0 -10 -10 -10h-214q-9 0 -13 9l-107 225l-52 -52v-20q0 -4 6 -4h31q10 0 10 -10v-138q0 -10 -10 -10h-281q-10 0 -10 10v138q0 10 10 10h31q6 0 6 6v352
q0 6 -6 6h-31q-10 0 -10 10v138q0 10 10 10h281q10 0 10 -10v-138q0 -10 -10 -10h-31q-6 0 -6 -5v-112l115 110q3 5 -2 7h-7q-10 0 -10 10v138q0 10 10 10zM281 -41h142q10 0 10 -10v-100q0 -16 -10 -22l-122 -78q-13 -8 -18 -8q-12 0 -12 13v195q0 10 10 10z" />
    <glyph glyph-name="kcommaaccent" unicode="&#x137;" horiz-adv-x="556" 
d="M24 680h221q10 0 10 -10v-297l109 109q8 8 20 8h123q10 0 10 -10v-138q0 -10 -10 -10h-53q-5 0 -10 -4l-31 -28l70 -136q4 -6 10 -6h39q10 0 10 -10v-138q0 -10 -10 -10h-174q-10 0 -15 10l-75 160l-13 -11v-149q0 -10 -10 -10h-221q-10 0 -10 10v138q0 10 10 10h28
q6 0 6 6v352q0 6 -6 6h-28q-10 0 -10 10v138q0 10 10 10zM221 -41h142q10 0 10 -10v-100q0 -16 -10 -22l-122 -78q-13 -8 -18 -8q-12 0 -12 13v195q0 10 10 10z" />
    <glyph glyph-name="kgreenlandic" unicode="&#x138;" horiz-adv-x="556" 
d="M384 490h123q10 0 10 -10v-138q0 -10 -10 -10h-53q-5 0 -10 -4l-31 -28l70 -136q4 -6 10 -6h39q10 0 10 -10v-138q0 -10 -10 -10h-174q-10 0 -15 10l-75 160l-13 -11v-149q0 -10 -10 -10h-221q-10 0 -10 10v138q0 10 10 10h28q6 0 6 6v162q0 6 -6 6h-28q-10 0 -10 10v138
q0 10 10 10h221q10 0 10 -10v-107l109 109q8 8 20 8z" />
    <glyph glyph-name="Lacute" unicode="&#x139;" horiz-adv-x="561" 
d="M210 890h167q5 0 6.5 -3t-1.5 -7l-134 -132q-10 -10 -21 -10h-141q-4 0 -5.5 3t1.5 7l110 132q8 10 18 10zM24 680h281q10 0 10 -10v-138q0 -10 -10 -10h-31q-6 0 -6 -6v-343q0 -6 6 -6h89q6 0 6 6v45q0 10 10 10h158q10 0 10 -10v-208q0 -10 -10 -10h-513q-10 0 -10 10
v138q0 10 10 10h31q6 0 6 6v352q0 6 -6 6h-31q-10 0 -10 10v138q0 10 10 10z" />
    <glyph glyph-name="lacute" unicode="&#x13a;" horiz-adv-x="325" 
d="M189 890h167q5 0 6.5 -3t-1.5 -7l-134 -132q-10 -10 -21 -10h-141q-5 0 -6 3t2 7l110 132q8 10 18 10zM10 680h221q10 0 10 -10v-462q0 -50 41 -50h19q10 0 10 -10v-140q0 -10 -10 -10h-68q-103 0 -146 42.5t-43 146.5v329q0 6 -6 6h-28q-10 0 -10 10v138q0 10 10 10z
" />
    <glyph glyph-name="Lcommaaccent" unicode="&#x13b;" horiz-adv-x="561" 
d="M24 680h281q10 0 10 -10v-138q0 -10 -10 -10h-31q-6 0 -6 -6v-343q0 -6 6 -6h89q6 0 6 6v45q0 10 10 10h158q10 0 10 -10v-208q0 -10 -10 -10h-513q-10 0 -10 10v138q0 10 10 10h31q6 0 6 6v352q0 6 -6 6h-31q-10 0 -10 10v138q0 10 10 10zM216 -41h142q10 0 10 -10v-100
q0 -16 -10 -22l-122 -78q-13 -8 -18 -8q-12 0 -12 13v195q0 10 10 10z" />
    <glyph glyph-name="lcommaaccent" unicode="&#x13c;" horiz-adv-x="325" 
d="M10 680h221q10 0 10 -10v-462q0 -50 41 -50h19q10 0 10 -10v-140q0 -10 -10 -10h-68q-103 0 -146 42.5t-43 146.5v329q0 6 -6 6h-28q-10 0 -10 10v138q0 10 10 10zM114 -41h142q10 0 10 -10v-100q0 -16 -10 -22l-122 -78q-13 -8 -18 -8q-12 0 -12 13v195q0 10 10 10z" />
    <glyph glyph-name="Lcaron" unicode="&#x13d;" horiz-adv-x="561" 
d="M24 680h281q10 0 10 -10v-138q0 -10 -10 -10h-31q-6 0 -6 -6v-343q0 -6 6 -6h89q6 0 6 6v45q0 10 10 10h158q10 0 10 -10v-208q0 -10 -10 -10h-513q-10 0 -10 10v138q0 10 10 10h31q6 0 6 6v352q0 6 -6 6h-31q-10 0 -10 10v138q0 10 10 10zM351 680h124q10 0 10 -10v-107
q0 -13 -10 -22l-104 -78q-11 -8 -18 -8q-12 0 -12 13v202q0 10 10 10z" />
    <glyph glyph-name="lcaron" unicode="&#x13e;" horiz-adv-x="325" 
d="M10 680h221q10 0 10 -10v-462q0 -50 41 -50h19q10 0 10 -10v-140q0 -10 -10 -10h-68q-103 0 -146 42.5t-43 146.5v329q0 6 -6 6h-28q-10 0 -10 10v138q0 10 10 10zM283 680h124q10 0 10 -10v-107q0 -13 -10 -22l-104 -78q-11 -8 -18 -8q-12 0 -12 13v202q0 10 10 10z" />
    <glyph glyph-name="Ldot" unicode="&#x13f;" horiz-adv-x="561" 
d="M24 680h281q10 0 10 -10v-138q0 -10 -10 -10h-31q-6 0 -6 -6v-343q0 -6 6 -6h89q6 0 6 6v45q0 10 10 10h158q10 0 10 -10v-208q0 -10 -10 -10h-513q-10 0 -10 10v138q0 10 10 10h31q6 0 6 6v352q0 6 -6 6h-31q-10 0 -10 10v138q0 10 10 10zM365 476h160q10 0 10 -10v-160
q0 -10 -10 -10h-160q-10 0 -10 10v160q0 10 10 10z" />
    <glyph glyph-name="ldot" unicode="&#x140;" horiz-adv-x="325" 
d="M10 680h221q10 0 10 -10v-462q0 -50 41 -50h19q10 0 10 -10v-140q0 -10 -10 -10h-68q-103 0 -146 42.5t-43 146.5v329q0 6 -6 6h-28q-10 0 -10 10v138q0 10 10 10zM290 435h160q10 0 10 -10v-160q0 -10 -10 -10h-160q-10 0 -10 10v160q0 10 10 10z" />
    <glyph glyph-name="Lslash" unicode="&#x141;" horiz-adv-x="561" 
d="M24 680h281q10 0 10 -10v-138q0 -10 -10 -10h-31q-6 0 -6 -6v-54l114 59q10 5 10 -6v-123q0 -9 -10 -14l-114 -59v-146q0 -6 6 -6h89q6 0 6 6v45q0 10 10 10h158q10 0 10 -10v-208q0 -10 -10 -10h-513q-10 0 -10 10v138q0 10 10 10h31q6 0 6 6v62l-51 -25q-10 -5 -10 6
v123q0 9 10 14l51 25v147q0 6 -6 6h-31q-10 0 -10 10v138q0 10 10 10z" />
    <glyph glyph-name="lslash" unicode="&#x142;" horiz-adv-x="325" 
d="M10 680h221q10 0 10 -10v-207l60 31q10 5 10 -6v-121q0 -9 -10 -14l-60 -31v-114q0 -50 41 -50h19q10 0 10 -10v-140q0 -10 -10 -10h-68q-103 0 -146 42.5t-43 146.5v41l-34 -17q-10 -5 -10 6v121q0 9 10 14l34 17v147q0 6 -6 6h-28q-10 0 -10 10v138q0 10 10 10z" />
    <glyph glyph-name="Nacute" unicode="&#x143;" horiz-adv-x="680" 
d="M348 890h167q5 0 6.5 -3t-1.5 -7l-134 -132q-10 -10 -21 -10h-141q-4 0 -5.5 3t1.5 7l110 132q8 10 18 10zM394 680h262q10 0 10 -10v-138q0 -10 -10 -10h-31q-6 0 -6 -6v-506q0 -10 -10 -10h-178q-13 0 -17 10l-159 335h-6v-181q0 -6 6 -6h31q10 0 10 -10v-138
q0 -10 -10 -10h-262q-10 0 -10 10v138q0 10 10 10h31q6 0 6 6v352q0 6 -6 6h-31q-10 0 -10 10v138q0 10 10 10h225q13 0 17 -10l160 -335h5v181q0 6 -6 6h-31q-10 0 -10 10v138q0 10 10 10z" />
    <glyph glyph-name="nacute" unicode="&#x144;" horiz-adv-x="595" 
d="M285 704h165q4 0 5.5 -3.5t-0.5 -6.5l-106 -144q-7 -10 -16 -10h-143q-10 0 -5 10l83 144q7 10 17 10zM382 500q158 0 158 -183v-153q0 -6 6 -6h25q10 0 10 -10v-138q0 -10 -10 -10h-248q-10 0 -10 10v138q0 10 10 10h14q6 0 6 6v124q0 50 -44 50t-44 -50v-124q0 -6 6 -6
h14q10 0 10 -10v-138q0 -10 -10 -10h-251q-10 0 -10 10v138q0 10 10 10h28q6 0 6 6v162q0 6 -6 6h-28q-10 0 -10 10v138q0 10 10 10h221q10 0 10 -10v-36h1q40 56 126 56z" />
    <glyph glyph-name="Ncommaaccent" unicode="&#x145;" horiz-adv-x="680" 
d="M394 680h262q10 0 10 -10v-138q0 -10 -10 -10h-31q-6 0 -6 -6v-506q0 -10 -10 -10h-178q-13 0 -17 10l-159 335h-6v-181q0 -6 6 -6h31q10 0 10 -10v-138q0 -10 -10 -10h-262q-10 0 -10 10v138q0 10 10 10h31q6 0 6 6v352q0 6 -6 6h-31q-10 0 -10 10v138q0 10 10 10h225
q13 0 17 -10l160 -335h5v181q0 6 -6 6h-31q-10 0 -10 10v138q0 10 10 10zM269 -41h142q10 0 10 -10v-100q0 -16 -10 -22l-122 -78q-13 -8 -18 -8q-12 0 -12 13v195q0 10 10 10z" />
    <glyph glyph-name="ncommaaccent" unicode="&#x146;" horiz-adv-x="595" 
d="M382 500q158 0 158 -183v-153q0 -6 6 -6h25q10 0 10 -10v-138q0 -10 -10 -10h-248q-10 0 -10 10v138q0 10 10 10h14q6 0 6 6v124q0 50 -44 50t-44 -50v-124q0 -6 6 -6h14q10 0 10 -10v-138q0 -10 -10 -10h-251q-10 0 -10 10v138q0 10 10 10h28q6 0 6 6v162q0 6 -6 6h-28
q-10 0 -10 10v138q0 10 10 10h221q10 0 10 -10v-36h1q40 56 126 56zM227 -41h142q10 0 10 -10v-100q0 -16 -10 -22l-122 -78q-13 -8 -18 -8q-12 0 -12 13v195q0 10 10 10z" />
    <glyph glyph-name="Ncaron" unicode="&#x147;" horiz-adv-x="680" 
d="M409 890h113q5 0 6.5 -3t-1.5 -7l-114 -144q-7 -10 -19 -10h-108q-12 0 -19 10l-114 144q-3 4 -1.5 7t6.5 3h113q14 0 24 -10l44 -44h2l44 44q10 10 24 10zM394 680h262q10 0 10 -10v-138q0 -10 -10 -10h-31q-6 0 -6 -6v-506q0 -10 -10 -10h-178q-13 0 -17 10l-159 335
h-6v-181q0 -6 6 -6h31q10 0 10 -10v-138q0 -10 -10 -10h-262q-10 0 -10 10v138q0 10 10 10h31q6 0 6 6v352q0 6 -6 6h-31q-10 0 -10 10v138q0 10 10 10h225q13 0 17 -10l160 -335h5v181q0 6 -6 6h-31q-10 0 -10 10v138q0 10 10 10z" />
    <glyph glyph-name="ncaron" unicode="&#x148;" horiz-adv-x="595" 
d="M367 698h113q5 0 6.5 -3t-1.5 -7l-114 -144q-7 -10 -19 -10h-108q-12 0 -19 10l-114 144q-3 4 -1.5 7t6.5 3h113q14 0 24 -10l44 -44h2l44 44q10 10 24 10zM382 500q158 0 158 -183v-153q0 -6 6 -6h25q10 0 10 -10v-138q0 -10 -10 -10h-248q-10 0 -10 10v138q0 10 10 10
h14q6 0 6 6v124q0 50 -44 50t-44 -50v-124q0 -6 6 -6h14q10 0 10 -10v-138q0 -10 -10 -10h-251q-10 0 -10 10v138q0 10 10 10h28q6 0 6 6v162q0 6 -6 6h-28q-10 0 -10 10v138q0 10 10 10h221q10 0 10 -10v-36h1q40 56 126 56z" />
    <glyph glyph-name="uni0149" unicode="&#x149;" horiz-adv-x="595" 
d="M-51 680h124q10 0 10 -10v-107q0 -13 -10 -22l-104 -78q-11 -8 -18 -8q-12 0 -12 13v202q0 10 10 10zM382 500q158 0 158 -183v-153q0 -6 6 -6h25q10 0 10 -10v-138q0 -10 -10 -10h-248q-10 0 -10 10v138q0 10 10 10h14q6 0 6 6v124q0 50 -44 50t-44 -50v-124q0 -6 6 -6
h14q10 0 10 -10v-138q0 -10 -10 -10h-251q-10 0 -10 10v138q0 10 10 10h28q6 0 6 6v162q0 6 -6 6h-28q-10 0 -10 10v138q0 10 10 10h221q10 0 10 -10v-36h1q40 56 126 56z" />
    <glyph glyph-name="Eng" unicode="&#x14a;" horiz-adv-x="680" 
d="M394 680h262q10 0 10 -10v-138q0 -10 -10 -10h-31q-6 0 -6 -6v-456q0 -240 -245 -240h-42q-10 0 -10 10v138q0 10 10 10h17q33 0 49 5.5t23 22.5l-166 339h-6v-181q0 -6 6 -6h31q10 0 10 -10v-138q0 -10 -10 -10h-262q-10 0 -10 10v138q0 10 10 10h31q6 0 6 6v352
q0 6 -6 6h-31q-10 0 -10 10v138q0 10 10 10h225q13 0 17 -10l160 -335h5v181q0 6 -6 6h-31q-10 0 -10 10v138q0 10 10 10z" />
    <glyph glyph-name="eng" unicode="&#x14b;" horiz-adv-x="568" 
d="M382 500q158 0 158 -183v-284q0 -113 -52 -163t-161 -50h-40q-10 0 -10 10v138q0 10 10 10h10q28 0 37 9.5t9 40.5v260q0 50 -44 50t-44 -50v-124q0 -6 6 -6h24q10 0 10 -10v-138q0 -10 -10 -10h-261q-10 0 -10 10v138q0 10 10 10h28q6 0 6 6v162q0 6 -6 6h-28
q-10 0 -10 10v138q0 10 10 10h221q10 0 10 -10v-36h1q40 56 126 56z" />
    <glyph glyph-name="Omacron" unicode="&#x14c;" horiz-adv-x="620" 
d="M148 876h324q10 0 10 -10v-108q0 -10 -10 -10h-324q-10 0 -10 10v108q0 10 10 10zM310 692q95 0 165 -43t97 -126q21 -66 21 -183q0 -116 -21 -183q-27 -83 -97 -126t-165 -43t-165 43t-97 126q-21 67 -21 183t21 183q27 83 97 126t165 43zM310 506q-50 0 -64 -43
q-8 -25 -8 -123t8 -123q14 -43 64 -43t64 43q8 25 8 123t-8 123q-14 43 -64 43z" />
    <glyph glyph-name="omacron" unicode="&#x14d;" horiz-adv-x="536" 
d="M106 676h324q10 0 10 -10v-108q0 -10 -10 -10h-324q-10 0 -10 10v108q0 10 10 10zM268 502q87 0 148.5 -37t84.5 -109q15 -45 15 -111t-15 -111q-23 -72 -84.5 -109t-148.5 -37t-148.5 37t-84.5 109q-15 45 -15 111t15 111q23 72 84.5 109t148.5 37zM268 342
q-33 0 -42 -28q-6 -20 -6 -69t6 -69q9 -28 42 -28t42 28q6 19 6 69q0 49 -6 69q-9 28 -42 28z" />
    <glyph glyph-name="Obreve" unicode="&#x14e;" horiz-adv-x="620" 
d="M392 885h74q14 0 14 -11q0 -64 -49.5 -108.5t-120.5 -44.5t-120.5 44.5t-49.5 108.5q0 11 14 11h74q10 0 16 -11q19 -37 66 -37t66 37q6 11 16 11zM310 692q95 0 165 -43t97 -126q21 -66 21 -183q0 -116 -21 -183q-27 -83 -97 -126t-165 -43t-165 43t-97 126
q-21 67 -21 183t21 183q27 83 97 126t165 43zM310 506q-50 0 -64 -43q-8 -25 -8 -123t8 -123q14 -43 64 -43t64 43q8 25 8 123t-8 123q-14 43 -64 43z" />
    <glyph glyph-name="obreve" unicode="&#x14f;" horiz-adv-x="536" 
d="M350 693h74q14 0 14 -11q0 -64 -49.5 -108.5t-120.5 -44.5t-120.5 44.5t-49.5 108.5q0 11 14 11h74q10 0 16 -11q19 -37 66 -37t66 37q6 11 16 11zM268 502q87 0 148.5 -37t84.5 -109q15 -45 15 -111t-15 -111q-23 -72 -84.5 -109t-148.5 -37t-148.5 37t-84.5 109
q-15 45 -15 111t15 111q23 72 84.5 109t148.5 37zM268 342q-33 0 -42 -28q-6 -20 -6 -69t6 -69q9 -28 42 -28t42 28q6 19 6 69q0 49 -6 69q-9 28 -42 28z" />
    <glyph glyph-name="Ohungarumlaut" unicode="&#x150;" horiz-adv-x="620" 
d="M243 884h135q4 0 5.5 -3.5t-0.5 -6.5l-96 -126q-7 -10 -19 -10h-117q-11 0 -5 10l80 126q6 10 17 10zM442 884h135q4 0 5.5 -3.5t-0.5 -6.5l-96 -126q-8 -10 -19 -10h-117q-11 0 -5 10l80 126q6 10 17 10zM310 692q95 0 165 -43t97 -126q21 -66 21 -183q0 -116 -21 -183
q-27 -83 -97 -126t-165 -43t-165 43t-97 126q-21 67 -21 183t21 183q27 83 97 126t165 43zM310 506q-50 0 -64 -43q-8 -25 -8 -123t8 -123q14 -43 64 -43t64 43q8 25 8 123t-8 123q-14 43 -64 43z" />
    <glyph glyph-name="ohungarumlaut" unicode="&#x151;" horiz-adv-x="536" 
d="M185 700h135q4 0 6 -3t0 -7l-88 -144q-6 -10 -18 -10h-117q-11 0 -6 10l72 144q5 10 16 10zM384 700h135q5 0 6.5 -3t-0.5 -7l-88 -144q-6 -10 -18 -10h-117q-11 0 -6 10l72 144q5 10 16 10zM268 502q87 0 148.5 -37t84.5 -109q15 -45 15 -111t-15 -111
q-23 -72 -84.5 -109t-148.5 -37t-148.5 37t-84.5 109q-15 45 -15 111t15 111q23 72 84.5 109t148.5 37zM268 342q-33 0 -42 -28q-6 -20 -6 -69t6 -69q9 -28 42 -28t42 28q6 19 6 69q0 49 -6 69q-9 28 -42 28z" />
    <glyph glyph-name="OE" unicode="&#x152;" horiz-adv-x="872" 
d="M270 692q74 0 109 -37h3v15q0 10 10 10h450q10 0 10 -10v-178q0 -10 -10 -10h-150q-10 0 -10 10v24q0 6 -6 6h-83q-6 0 -6 -6v-88q0 -6 6 -6h42q6 0 6 5v15q0 10 10 10h141q10 0 10 -10v-198q0 -10 -10 -10h-141q-10 0 -10 10v14q0 6 -6 6h-42q-6 0 -6 -6v-94q0 -6 6 -6
h83q6 0 6 6v27q0 10 10 10h150q10 0 10 -10v-181q0 -10 -10 -10h-450q-10 0 -10 10v15h-3q-35 -37 -109 -37q-168 0 -221 164q-22 69 -22 188t22 188q53 164 221 164zM310 506q-50 0 -64 -43q-8 -25 -8 -123t8 -123q14 -43 64 -43t64 43q8 25 8 123t-8 123q-14 43 -64 43z
" />
    <glyph glyph-name="oe" unicode="&#x153;" horiz-adv-x="827" 
d="M561 502q184 0 231 -145q15 -47 15 -156q0 -10 -10 -10h-283q-6 0 -6 -6q0 -4 2 -10q14 -42 87 -42q55 0 107 36q8 5 14 -2l78 -86q7 -7 -2 -15q-89 -78 -220 -78q-94 0 -156 44h-1q-60 -44 -149 -44q-87 0 -148.5 37t-84.5 109q-15 45 -15 111t15 111q23 72 84.5 109
t148.5 37t149 -44h1q60 44 143 44zM564 367q-42 0 -53 -34q-3 -9 -3 -24q0 -6 6 -6h100q6 0 6 6q0 15 -3 24q-11 34 -53 34zM268 342q-33 0 -42 -28q-6 -20 -6 -69t6 -69q9 -28 42 -28t42 28q6 19 6 69q0 49 -6 69q-9 28 -42 28z" />
    <glyph glyph-name="Racute" unicode="&#x154;" horiz-adv-x="633" 
d="M321 890h167q5 0 6.5 -3t-1.5 -7l-134 -132q-10 -10 -21 -10h-141q-5 0 -6 3t2 7l110 132q8 10 18 10zM24 680h325q128 0 194 -58.5t66 -157.5q0 -124 -104 -185l46 -115q3 -6 9 -6h49q10 0 10 -10v-138q0 -10 -10 -10h-202q-11 0 -15 10l-87 236h-32q-6 0 -6 -9v-73
q0 -6 6 -6h27q10 0 10 -10v-138q0 -10 -10 -10h-276q-10 0 -10 10v138q0 10 10 10h31q6 0 6 6v352q0 6 -6 6h-31q-10 0 -10 10v138q0 10 10 10zM334 516h-61q-6 0 -6 -6v-104q0 -6 6 -6h61q67 0 67 58t-67 58z" />
    <glyph glyph-name="racute" unicode="&#x155;" horiz-adv-x="414" 
d="M235 704h165q4 0 5.5 -3.5t-0.5 -6.5l-106 -144q-7 -10 -16 -10h-143q-10 0 -5 10l83 144q7 10 17 10zM356 493q20 0 34 -3q11 -3 11 -13v-175q0 -12 -15 -7q-35 10 -56 10q-34 0 -54.5 -20.5t-20.5 -58.5v-62q0 -6 6 -6h31q10 0 10 -10v-138q0 -10 -10 -10h-268
q-10 0 -10 10v138q0 10 10 10h28q6 0 6 6v162q0 6 -6 6h-28q-10 0 -10 10v138q0 10 10 10h221q10 0 10 -10v-44h1q29 57 100 57z" />
    <glyph glyph-name="Rcommaaccent" unicode="&#x156;" horiz-adv-x="633" 
d="M24 680h325q128 0 194 -58.5t66 -157.5q0 -124 -104 -185l46 -115q3 -6 9 -6h49q10 0 10 -10v-138q0 -10 -10 -10h-202q-11 0 -15 10l-87 236h-32q-6 0 -6 -9v-73q0 -6 6 -6h27q10 0 10 -10v-138q0 -10 -10 -10h-276q-10 0 -10 10v138q0 10 10 10h31q6 0 6 6v352
q0 6 -6 6h-31q-10 0 -10 10v138q0 10 10 10zM334 516h-61q-6 0 -6 -6v-104q0 -6 6 -6h61q67 0 67 58t-67 58zM253 -41h142q10 0 10 -10v-100q0 -16 -10 -22l-122 -78q-13 -8 -18 -8q-12 0 -12 13v195q0 10 10 10z" />
    <glyph glyph-name="rcommaaccent" unicode="&#x157;" horiz-adv-x="414" 
d="M356 493q20 0 34 -3q11 -3 11 -13v-175q0 -12 -15 -7q-35 10 -56 10q-34 0 -54.5 -20.5t-20.5 -58.5v-62q0 -6 6 -6h31q10 0 10 -10v-138q0 -10 -10 -10h-268q-10 0 -10 10v138q0 10 10 10h28q6 0 6 6v162q0 6 -6 6h-28q-10 0 -10 10v138q0 10 10 10h221q10 0 10 -10v-44
h1q29 57 100 57zM85 -41h142q10 0 10 -10v-100q0 -16 -10 -22l-122 -78q-13 -8 -18 -8q-12 0 -12 13v195q0 10 10 10z" />
    <glyph glyph-name="Rcaron" unicode="&#x158;" horiz-adv-x="633" 
d="M368 890h113q5 0 6.5 -3t-1.5 -7l-114 -144q-7 -10 -19 -10h-108q-12 0 -19 10l-114 144q-3 4 -1.5 7t6.5 3h113q14 0 24 -10l44 -44h2l44 44q10 10 24 10zM24 680h325q128 0 194 -58.5t66 -157.5q0 -124 -104 -185l46 -115q3 -6 9 -6h49q10 0 10 -10v-138q0 -10 -10 -10
h-202q-11 0 -15 10l-87 236h-32q-6 0 -6 -9v-73q0 -6 6 -6h27q10 0 10 -10v-138q0 -10 -10 -10h-276q-10 0 -10 10v138q0 10 10 10h31q6 0 6 6v352q0 6 -6 6h-31q-10 0 -10 10v138q0 10 10 10zM334 516h-61q-6 0 -6 -6v-104q0 -6 6 -6h61q67 0 67 58t-67 58z" />
    <glyph glyph-name="rcaron" unicode="&#x159;" horiz-adv-x="414" 
d="M308 698h113q5 0 6.5 -3t-1.5 -7l-114 -144q-7 -10 -19 -10h-108q-12 0 -19 10l-114 144q-3 4 -1.5 7t6.5 3h113q14 0 24 -10l44 -44h2l44 44q10 10 24 10zM356 493q20 0 34 -3q11 -3 11 -13v-175q0 -12 -15 -7q-35 10 -56 10q-34 0 -54.5 -20.5t-20.5 -58.5v-62
q0 -6 6 -6h31q10 0 10 -10v-138q0 -10 -10 -10h-268q-10 0 -10 10v138q0 10 10 10h28q6 0 6 6v162q0 6 -6 6h-28q-10 0 -10 10v138q0 10 10 10h221q10 0 10 -10v-44h1q29 57 100 57z" />
    <glyph glyph-name="Sacute" unicode="&#x15a;" horiz-adv-x="592" 
d="M320 890h167q5 0 6.5 -3t-1.5 -7l-134 -132q-10 -10 -21 -10h-141q-4 0 -5.5 3t1.5 7l110 132q8 10 18 10zM294 692q128 0 237 -44q9 -4 9 -13v-156q0 -10 -10 -10h-152q-10 0 -10 10v31q0 6 -5 8q-26 10 -60 10q-68 0 -68 -41q0 -19 14.5 -29t50.5 -15l36 -5
q122 -17 179 -70.5t57 -153.5q0 -104 -74.5 -165t-214.5 -61q-143 0 -245 41q-10 4 -10 14v170q0 10 10 10h162q10 0 10 -10v-40q0 -7 6 -8q31 -8 65 -8q76 0 76 47q0 18 -13 29t-49 16l-36 5q-120 17 -179 71t-59 155q0 99 71 155.5t202 56.5z" />
    <glyph glyph-name="sacute" unicode="&#x15b;" horiz-adv-x="492" 
d="M248 704h165q4 0 5.5 -3.5t-0.5 -6.5l-106 -144q-8 -10 -16 -10h-143q-10 0 -5 10l83 144q7 10 17 10zM242 502q117 0 199 -33q8 -3 8 -10v-113q0 -10 -10 -10h-146q-10 0 -10 10v14q0 6 -6 7q-13 4 -37 4q-43 0 -43 -23q0 -7 2 -10.5t11 -7.5t27 -6l55 -6
q102 -11 143.5 -49t41.5 -105q0 -90 -66 -133t-176 -43q-115 0 -209 30q-7 3 -7 11v122q0 10 10 10h146q10 0 10 -10v-18q0 -5 5 -6q18 -4 49 -4q55 0 55 26q0 12 -9.5 17.5t-39.5 8.5l-56 6q-88 9 -131 47t-43 110q0 80 58.5 122t168.5 42z" />
    <glyph glyph-name="Scircumflex" unicode="&#x15c;" horiz-adv-x="592" 
d="M237 898h108q12 0 19 -10l114 -144q3 -4 1.5 -7t-6.5 -3h-113q-14 0 -24 10l-44 44h-2l-44 -44q-10 -10 -24 -10h-113q-5 0 -6.5 3t1.5 7l114 144q7 10 19 10zM294 692q128 0 237 -44q9 -4 9 -13v-156q0 -10 -10 -10h-152q-10 0 -10 10v31q0 6 -5 8q-26 10 -60 10
q-68 0 -68 -41q0 -19 14.5 -29t50.5 -15l36 -5q122 -17 179 -70.5t57 -153.5q0 -104 -74.5 -165t-214.5 -61q-143 0 -245 41q-10 4 -10 14v170q0 10 10 10h162q10 0 10 -10v-40q0 -7 6 -8q31 -8 65 -8q76 0 76 47q0 18 -13 29t-49 16l-36 5q-120 17 -179 71t-59 155
q0 99 71 155.5t202 56.5z" />
    <glyph glyph-name="scircumflex" unicode="&#x15d;" horiz-adv-x="492" 
d="M190 702h108q12 0 19 -10l114 -144q3 -4 1.5 -7t-6.5 -3h-113q-14 0 -24 10l-44 44h-2l-44 -44q-10 -10 -24 -10h-113q-5 0 -6.5 3t1.5 7l114 144q7 10 19 10zM242 502q117 0 199 -33q8 -3 8 -10v-113q0 -10 -10 -10h-146q-10 0 -10 10v14q0 6 -6 7q-13 4 -37 4
q-43 0 -43 -23q0 -7 2 -10.5t11 -7.5t27 -6l55 -6q102 -11 143.5 -49t41.5 -105q0 -90 -66 -133t-176 -43q-115 0 -209 30q-7 3 -7 11v122q0 10 10 10h146q10 0 10 -10v-18q0 -5 5 -6q18 -4 49 -4q55 0 55 26q0 12 -9.5 17.5t-39.5 8.5l-56 6q-88 9 -131 47t-43 110
q0 80 58.5 122t168.5 42z" />
    <glyph glyph-name="Scedilla" unicode="&#x15e;" horiz-adv-x="592" 
d="M294 692q128 0 237 -44q9 -4 9 -13v-156q0 -10 -10 -10h-152q-10 0 -10 10v31q0 6 -5 8q-26 10 -60 10q-68 0 -68 -41q0 -19 14.5 -29t50.5 -15l36 -5q122 -17 179 -70.5t57 -153.5q0 -87 -52 -144.5t-151 -74.5l-45 -157q-2 -10 -15 -10h-138q-10 0 -7 10l60 152
q-108 7 -186 39q-10 4 -10 14v170q0 10 10 10h162q10 0 10 -10v-40q0 -7 6 -8q31 -8 65 -8q76 0 76 47q0 18 -13 29t-49 16l-36 5q-120 17 -179 71t-59 155q0 99 71 155.5t202 56.5z" />
    <glyph glyph-name="scedilla" unicode="&#x15f;" horiz-adv-x="492" 
d="M242 502q117 0 199 -33q8 -3 8 -10v-113q0 -10 -10 -10h-146q-10 0 -10 10v14q0 6 -6 7q-13 4 -37 4q-43 0 -43 -23q0 -7 2 -10.5t11 -7.5t27 -6l55 -6q102 -11 143.5 -49t41.5 -105q0 -138 -154 -168l-46 -158q-3 -10 -15 -10h-138q-10 0 -7 10l60 152q-79 4 -151 28
q-7 3 -7 11v122q0 10 10 10h146q10 0 10 -10v-18q0 -5 5 -6q18 -4 49 -4q55 0 55 26q0 12 -9.5 17.5t-39.5 8.5l-56 6q-88 9 -131 47t-43 110q0 80 58.5 122t168.5 42z" />
    <glyph glyph-name="Scaron" unicode="&#x160;" horiz-adv-x="592" 
d="M354 890h113q5 0 6.5 -3t-1.5 -7l-114 -144q-7 -10 -19 -10h-108q-12 0 -19 10l-114 144q-3 4 -1.5 7t6.5 3h113q14 0 24 -10l44 -44h2l44 44q10 10 24 10zM294 692q128 0 237 -44q9 -4 9 -13v-156q0 -10 -10 -10h-152q-10 0 -10 10v31q0 6 -5 8q-26 10 -60 10
q-68 0 -68 -41q0 -19 14.5 -29t50.5 -15l36 -5q122 -17 179 -70.5t57 -153.5q0 -104 -74.5 -165t-214.5 -61q-143 0 -245 41q-10 4 -10 14v170q0 10 10 10h162q10 0 10 -10v-40q0 -7 6 -8q31 -8 65 -8q76 0 76 47q0 18 -13 29t-49 16l-36 5q-120 17 -179 71t-59 155
q0 99 71 155.5t202 56.5z" />
    <glyph glyph-name="scaron" unicode="&#x161;" horiz-adv-x="492" 
d="M302 698h113q5 0 6.5 -3t-1.5 -7l-114 -144q-7 -10 -19 -10h-108q-12 0 -19 10l-114 144q-3 4 -1.5 7t6.5 3h113q14 0 24 -10l44 -44h2l44 44q10 10 24 10zM242 502q117 0 199 -33q8 -3 8 -10v-113q0 -10 -10 -10h-146q-10 0 -10 10v14q0 6 -6 7q-13 4 -37 4
q-43 0 -43 -23q0 -7 2 -10.5t11 -7.5t27 -6l55 -6q102 -11 143.5 -49t41.5 -105q0 -90 -66 -133t-176 -43q-115 0 -209 30q-7 3 -7 11v122q0 10 10 10h146q10 0 10 -10v-18q0 -5 5 -6q18 -4 49 -4q55 0 55 26q0 12 -9.5 17.5t-39.5 8.5l-56 6q-88 9 -131 47t-43 110
q0 80 58.5 122t168.5 42z" />
    <glyph glyph-name="uni0162" unicode="&#x162;" horiz-adv-x="659" 
d="M22 680h615q10 0 10 -10v-200q0 -10 -10 -10h-149q-10 0 -10 10v40q0 6 -6 6h-33q-6 0 -6 -6v-346q0 -6 6 -6h41q10 0 10 -10v-138q0 -10 -10 -10h-301q-10 0 -10 10v138q0 10 10 10h41q6 0 6 6v346q0 6 -6 6h-33q-6 0 -6 -6v-40q0 -10 -10 -10h-149q-10 0 -10 10v200
q0 10 10 10zM258 -41h142q10 0 10 -10v-100q0 -16 -10 -22l-122 -78q-13 -8 -18 -8q-12 0 -12 13v195q0 10 10 10z" />
    <glyph glyph-name="uni0163" unicode="&#x163;" horiz-adv-x="340" 
d="M63 630h177q10 0 10 -10v-124q0 -6 6 -6h60q10 0 10 -10v-138q0 -10 -10 -10h-60q-6 0 -6 -6v-113q0 -32 9.5 -43.5t36.5 -11.5h20q10 0 10 -10v-140q0 -10 -10 -10h-60q-111 0 -157 47t-46 163v118q0 6 -6 6h-26q-10 0 -10 10v138q0 10 10 10h26q6 0 6 6v124q0 10 10 10
zM133 -41h142q10 0 10 -10v-100q0 -16 -10 -22l-122 -78q-13 -8 -18 -8q-12 0 -12 13v195q0 10 10 10z" />
    <glyph glyph-name="Tcaron" unicode="&#x164;" horiz-adv-x="659" 
d="M398 890h113q5 0 6.5 -3t-1.5 -7l-114 -144q-7 -10 -19 -10h-108q-12 0 -19 10l-114 144q-3 4 -1.5 7t6.5 3h113q14 0 24 -10l44 -44h2l44 44q10 10 24 10zM22 680h615q10 0 10 -10v-200q0 -10 -10 -10h-149q-10 0 -10 10v40q0 6 -6 6h-33q-6 0 -6 -6v-346q0 -6 6 -6h41
q10 0 10 -10v-138q0 -10 -10 -10h-301q-10 0 -10 10v138q0 10 10 10h41q6 0 6 6v346q0 6 -6 6h-33q-6 0 -6 -6v-40q0 -10 -10 -10h-149q-10 0 -10 10v200q0 10 10 10z" />
    <glyph glyph-name="tcaron" unicode="&#x165;" horiz-adv-x="340" 
d="M366 680h124q10 0 10 -10v-107q0 -13 -10 -22l-104 -78q-11 -8 -18 -8q-12 0 -12 13v202q0 10 10 10zM63 630h177q10 0 10 -10v-124q0 -6 6 -6h60q10 0 10 -10v-138q0 -10 -10 -10h-60q-6 0 -6 -6v-113q0 -32 9.5 -43.5t36.5 -11.5h20q10 0 10 -10v-140q0 -10 -10 -10
h-60q-111 0 -157 47t-46 163v118q0 6 -6 6h-26q-10 0 -10 10v138q0 10 10 10h26q6 0 6 6v124q0 10 10 10z" />
    <glyph glyph-name="Tbar" unicode="&#x166;" horiz-adv-x="659" 
d="M22 680h615q10 0 10 -10v-200q0 -10 -10 -10h-149q-10 0 -10 10v40q0 6 -6 6h-33q-6 0 -6 -6v-97q0 -6 6 -6h64q10 0 10 -10v-116q0 -10 -10 -10h-64q-6 0 -6 -6v-101q0 -6 6 -6h41q10 0 10 -10v-138q0 -10 -10 -10h-301q-10 0 -10 10v138q0 10 10 10h41q6 0 6 6v101
q0 6 -6 6h-64q-10 0 -10 10v116q0 10 10 10h64q6 0 6 6v97q0 6 -6 6h-33q-6 0 -6 -6v-40q0 -10 -10 -10h-149q-10 0 -10 10v200q0 10 10 10z" />
    <glyph glyph-name="tbar" unicode="&#x167;" horiz-adv-x="340" 
d="M63 630h177q10 0 10 -10v-124q0 -6 6 -6h60q10 0 10 -10v-120q0 -10 -10 -10h-60q-6 0 -6 -6v-23q0 -6 6 -6h44q10 0 10 -10v-79q0 -10 -10 -10h-44q-6 0 -6 -6v-10q0 -42 46 -42h20q10 0 10 -10v-140q0 -10 -10 -10h-60q-110 0 -156.5 45.5t-46.5 156.5v10q0 6 -6 6h-18
q-10 0 -10 10v79q0 10 10 10h18q6 0 6 6v23q0 6 -6 6h-26q-10 0 -10 10v120q0 10 10 10h26q6 0 6 6v124q0 10 10 10z" />
    <glyph glyph-name="Utilde" unicode="&#x168;" horiz-adv-x="666" 
d="M258 899q44 0 94 -26q32 -17 61 -17q37 0 81 33q11 7 11 -4v-92q0 -14 -10 -24q-41 -39 -86 -39q-44 0 -94 26q-32 17 -61 17q-38 0 -81 -33q-11 -7 -11 4v92q0 14 10 24q41 39 86 39zM366 680h278q10 0 10 -10v-138q0 -10 -10 -10h-27q-6 0 -6 -6v-239
q0 -143 -72.5 -216t-204.5 -73q-133 0 -206 73t-73 216v239q0 6 -6 6h-27q-10 0 -10 10v138q0 10 10 10h278q10 0 10 -10v-138q0 -10 -10 -10h-32q-6 0 -6 -6v-257q0 -85 71 -85t71 85v257q0 6 -6 6h-32q-10 0 -10 10v138q0 10 10 10z" />
    <glyph glyph-name="utilde" unicode="&#x169;" horiz-adv-x="589" 
d="M206 705q44 0 94 -26q32 -17 61 -17q37 0 81 33q11 7 11 -4v-92q0 -14 -10 -24q-41 -39 -86 -39q-44 0 -94 26q-32 17 -61 17q-38 0 -81 -33q-11 -7 -11 4v92q0 14 10 24q41 39 86 39zM302 490h219q10 0 10 -10v-316q0 -6 6 -6h28q10 0 10 -10v-138q0 -10 -10 -10h-221
q-10 0 -10 10v36h-1q-38 -56 -128 -56q-83 0 -118.5 46.5t-35.5 134.5v155q0 6 -6 6h-26q-10 0 -10 10v138q0 10 10 10h219q10 0 10 -10v-278q0 -50 43 -50t43 50v124q0 6 -6 6h-26q-10 0 -10 10v138q0 10 10 10z" />
    <glyph glyph-name="Umacron" unicode="&#x16a;" horiz-adv-x="666" 
d="M171 876h324q10 0 10 -10v-108q0 -10 -10 -10h-324q-10 0 -10 10v108q0 10 10 10zM366 680h278q10 0 10 -10v-138q0 -10 -10 -10h-27q-6 0 -6 -6v-239q0 -143 -72.5 -216t-204.5 -73q-133 0 -206 73t-73 216v239q0 6 -6 6h-27q-10 0 -10 10v138q0 10 10 10h278
q10 0 10 -10v-138q0 -10 -10 -10h-32q-6 0 -6 -6v-257q0 -85 71 -85t71 85v257q0 6 -6 6h-32q-10 0 -10 10v138q0 10 10 10z" />
    <glyph glyph-name="umacron" unicode="&#x16b;" horiz-adv-x="589" 
d="M120 676h324q10 0 10 -10v-108q0 -10 -10 -10h-324q-10 0 -10 10v108q0 10 10 10zM302 490h219q10 0 10 -10v-316q0 -6 6 -6h28q10 0 10 -10v-138q0 -10 -10 -10h-221q-10 0 -10 10v36h-1q-38 -56 -128 -56q-83 0 -118.5 46.5t-35.5 134.5v155q0 6 -6 6h-26q-10 0 -10 10
v138q0 10 10 10h219q10 0 10 -10v-278q0 -50 43 -50t43 50v124q0 6 -6 6h-26q-10 0 -10 10v138q0 10 10 10z" />
    <glyph glyph-name="Ubreve" unicode="&#x16c;" horiz-adv-x="666" 
d="M415 885h74q14 0 14 -11q0 -64 -49.5 -108.5t-120.5 -44.5t-120.5 44.5t-49.5 108.5q0 11 14 11h74q11 0 16 -11q19 -37 66 -37t66 37q5 11 16 11zM366 680h278q10 0 10 -10v-138q0 -10 -10 -10h-27q-6 0 -6 -6v-239q0 -143 -72.5 -216t-204.5 -73q-133 0 -206 73
t-73 216v239q0 6 -6 6h-27q-10 0 -10 10v138q0 10 10 10h278q10 0 10 -10v-138q0 -10 -10 -10h-32q-6 0 -6 -6v-257q0 -85 71 -85t71 85v257q0 6 -6 6h-32q-10 0 -10 10v138q0 10 10 10z" />
    <glyph glyph-name="ubreve" unicode="&#x16d;" horiz-adv-x="589" 
d="M364 693h74q14 0 14 -11q0 -64 -49.5 -108.5t-120.5 -44.5t-120.5 44.5t-49.5 108.5q0 11 14 11h74q10 0 16 -11q19 -37 66 -37t66 37q6 11 16 11zM302 490h219q10 0 10 -10v-316q0 -6 6 -6h28q10 0 10 -10v-138q0 -10 -10 -10h-221q-10 0 -10 10v36h-1q-38 -56 -128 -56
q-83 0 -118.5 46.5t-35.5 134.5v155q0 6 -6 6h-26q-10 0 -10 10v138q0 10 10 10h219q10 0 10 -10v-278q0 -50 43 -50t43 50v124q0 6 -6 6h-26q-10 0 -10 10v138q0 10 10 10z" />
    <glyph glyph-name="Uring" unicode="&#x16e;" horiz-adv-x="666" 
d="M333 938q53 0 88.5 -34.5t35.5 -87.5t-35.5 -87.5t-88.5 -34.5t-88.5 34.5t-35.5 87.5t35.5 87.5t88.5 34.5zM333 857q-17 0 -28.5 -11.5t-11.5 -29.5t11.5 -29.5t28.5 -11.5t28.5 11.5t11.5 29.5t-11.5 29.5t-28.5 11.5zM366 680h278q10 0 10 -10v-138q0 -10 -10 -10
h-27q-6 0 -6 -6v-239q0 -143 -72.5 -216t-204.5 -73q-133 0 -206 73t-73 216v239q0 6 -6 6h-27q-10 0 -10 10v138q0 10 10 10h278q10 0 10 -10v-138q0 -10 -10 -10h-32q-6 0 -6 -6v-257q0 -85 71 -85t71 85v257q0 6 -6 6h-32q-10 0 -10 10v138q0 10 10 10z" />
    <glyph glyph-name="uring" unicode="&#x16f;" horiz-adv-x="589" 
d="M282 756q53 0 88.5 -34.5t35.5 -87.5t-35.5 -87.5t-88.5 -34.5t-88.5 34.5t-35.5 87.5t35.5 87.5t88.5 34.5zM282 675q-17 0 -28.5 -11.5t-11.5 -29.5t11.5 -29.5t28.5 -11.5t28.5 11.5t11.5 29.5t-11.5 29.5t-28.5 11.5zM302 490h219q10 0 10 -10v-316q0 -6 6 -6h28
q10 0 10 -10v-138q0 -10 -10 -10h-221q-10 0 -10 10v36h-1q-38 -56 -128 -56q-83 0 -118.5 46.5t-35.5 134.5v155q0 6 -6 6h-26q-10 0 -10 10v138q0 10 10 10h219q10 0 10 -10v-278q0 -50 43 -50t43 50v124q0 6 -6 6h-26q-10 0 -10 10v138q0 10 10 10z" />
    <glyph glyph-name="Uhungarumlaut" unicode="&#x170;" horiz-adv-x="666" 
d="M252 884h135q4 0 5.5 -3.5t-0.5 -6.5l-96 -126q-8 -10 -19 -10h-117q-11 0 -5 10l80 126q6 10 17 10zM451 884h135q4 0 5.5 -3.5t-0.5 -6.5l-96 -126q-7 -10 -19 -10h-117q-11 0 -5 10l80 126q6 10 17 10zM366 680h278q10 0 10 -10v-138q0 -10 -10 -10h-27q-6 0 -6 -6
v-239q0 -143 -72.5 -216t-204.5 -73q-133 0 -206 73t-73 216v239q0 6 -6 6h-27q-10 0 -10 10v138q0 10 10 10h278q10 0 10 -10v-138q0 -10 -10 -10h-32q-6 0 -6 -6v-257q0 -85 71 -85t71 85v257q0 6 -6 6h-32q-10 0 -10 10v138q0 10 10 10z" />
    <glyph glyph-name="uhungarumlaut" unicode="&#x171;" horiz-adv-x="589" 
d="M204 700h135q5 0 6.5 -3t-0.5 -7l-88 -144q-6 -10 -18 -10h-117q-11 0 -6 10l72 144q5 10 16 10zM403 700h135q4 0 6 -3t0 -7l-88 -144q-6 -10 -18 -10h-117q-11 0 -6 10l72 144q5 10 16 10zM302 490h219q10 0 10 -10v-316q0 -6 6 -6h28q10 0 10 -10v-138q0 -10 -10 -10
h-221q-10 0 -10 10v36h-1q-38 -56 -128 -56q-83 0 -118.5 46.5t-35.5 134.5v155q0 6 -6 6h-26q-10 0 -10 10v138q0 10 10 10h219q10 0 10 -10v-278q0 -50 43 -50t43 50v124q0 6 -6 6h-26q-10 0 -10 10v138q0 10 10 10z" />
    <glyph glyph-name="Uogonek" unicode="&#x172;" horiz-adv-x="666" 
d="M366 680h278q10 0 10 -10v-138q0 -10 -10 -10h-27q-6 0 -6 -6v-239q0 -235 -191 -280q-34 -22 -45 -33t-11 -20q0 -10 13 -10q11 0 24 9q8 5 13 -3l46 -83q5 -8 -4 -14q-54 -35 -112 -35q-55 0 -86.5 28.5t-31.5 72.5q0 50 38 85q-100 18 -154.5 89t-54.5 194v239
q0 6 -6 6h-27q-10 0 -10 10v138q0 10 10 10h278q10 0 10 -10v-138q0 -10 -10 -10h-32q-6 0 -6 -6v-257q0 -85 71 -85t71 85v257q0 6 -6 6h-32q-10 0 -10 10v138q0 10 10 10z" />
    <glyph glyph-name="uogonek" unicode="&#x173;" horiz-adv-x="589" 
d="M302 490h219q10 0 10 -10v-316q0 -6 6 -6h28q10 0 10 -10v-138q0 -10 -10 -10h-57q-86 -35 -86 -56q0 -10 13 -10q11 0 24 9q8 5 13 -3l46 -83q5 -8 -4 -14q-54 -35 -112 -35q-55 0 -86.5 28.5t-31.5 72.5q0 58 50 99v38h-1q-38 -56 -128 -56q-83 0 -118.5 46.5
t-35.5 134.5v155q0 6 -6 6h-26q-10 0 -10 10v138q0 10 10 10h219q10 0 10 -10v-278q0 -50 43 -50t43 50v124q0 6 -6 6h-26q-10 0 -10 10v138q0 10 10 10z" />
    <glyph glyph-name="Wcircumflex" unicode="&#x174;" horiz-adv-x="966" 
d="M429 898h108q12 0 19 -10l114 -144q3 -4 1.5 -7t-6.5 -3h-113q-14 0 -24 10l-44 44h-2l-44 -44q-10 -10 -24 -10h-113q-5 0 -6.5 3t1.5 7l114 144q7 10 19 10zM670 680h276q10 0 10 -10v-138q0 -10 -10 -10h-30q-5 0 -7 -5l-149 -507q-3 -10 -14 -10h-154q-11 0 -14 10
l-94 329h-2l-94 -329q-3 -10 -14 -10h-154q-11 0 -14 10l-149 507q-2 5 -7 5h-30q-10 0 -10 10v138q0 10 10 10h277q10 0 10 -10v-138q0 -10 -10 -10h-24q-6 0 -4 -6l44 -206h2l94 360q3 10 14 10h121q11 0 14 -10l98 -360h2l42 206q2 6 -5 6h-25q-10 0 -10 10v138
q0 10 10 10z" />
    <glyph glyph-name="wcircumflex" unicode="&#x175;" horiz-adv-x="802" 
d="M347 702h108q12 0 19 -10l114 -144q3 -4 1.5 -7t-6.5 -3h-113q-14 0 -24 10l-44 44h-2l-44 -44q-10 -10 -24 -10h-113q-5 0 -6.5 3t1.5 7l114 144q7 10 19 10zM546 490h232q10 0 10 -10v-138q0 -10 -10 -10h-34q-2 0 -4 -3l-110 -319q-3 -10 -12 -10h-143q-9 0 -12 10
l-60 219h-2l-62 -219q-3 -10 -12 -10h-143q-9 0 -12 10l-110 319q-2 3 -5 3h-33q-10 0 -10 10v138q0 10 10 10h235q10 0 10 -10v-138q0 -10 -10 -10h-18q-3 0 -2 -4l26 -90h2l64 242q3 10 14 10h115q11 0 14 -10l65 -242h2l25 90q1 4 -2 4h-18q-10 0 -10 10v138q0 10 10 10z
" />
    <glyph glyph-name="Ycircumflex" unicode="&#x176;" horiz-adv-x="640" 
d="M264 898h108q12 0 19 -10l114 -144q3 -4 1.5 -7t-6.5 -3h-113q-14 0 -24 10l-44 44h-2l-44 -44q-10 -10 -24 -10h-113q-5 0 -6.5 3t1.5 7l114 144q7 10 19 10zM347 680h269q10 0 10 -10v-138q0 -10 -10 -10h-31q-5 0 -8 -5l-155 -263v-90q0 -6 6 -6h42q10 0 10 -10v-138
q0 -10 -10 -10h-301q-10 0 -10 10v138q0 10 10 10h42q6 0 6 6v90l-155 263q-3 5 -8 5h-30q-10 0 -10 10v138q0 10 10 10h274q10 0 10 -10v-134q0 -10 -10 -10h-31q-7 0 -3 -6l57 -103h3l58 103q3 6 -4 6h-31q-10 0 -10 10v134q0 10 10 10z" />
    <glyph glyph-name="ycircumflex" unicode="&#x177;" horiz-adv-x="557" 
d="M225 702h108q12 0 19 -10l114 -144q3 -4 1.5 -7t-6.5 -3h-113q-14 0 -24 10l-44 44h-2l-44 -44q-10 -10 -24 -10h-113q-5 0 -6.5 3t1.5 7l114 144q7 10 19 10zM304 490h229q10 0 10 -10v-138q0 -10 -10 -10h-37q-2 0 -4 -3l-166 -400q-26 -63 -67 -86t-119 -23h-41
q-10 0 -10 10v140q0 10 10 10h30q47 0 58 31l8 21l-130 297q-1 3 -5 3h-36q-10 0 -10 10v138q0 10 10 10h232q10 0 10 -10v-138q0 -10 -10 -10h-13q-3 0 -2 -4l42 -97h2l35 97q1 4 -2 4h-14q-10 0 -10 10v138q0 10 10 10z" />
    <glyph glyph-name="Ydieresis" unicode="&#x178;" horiz-adv-x="640" 
d="M150 883h126q10 0 10 -10v-124q0 -10 -10 -10h-126q-10 0 -10 10v124q0 10 10 10zM360 883h126q10 0 10 -10v-124q0 -10 -10 -10h-126q-10 0 -10 10v124q0 10 10 10zM347 680h269q10 0 10 -10v-138q0 -10 -10 -10h-31q-5 0 -8 -5l-155 -263v-90q0 -6 6 -6h42q10 0 10 -10
v-138q0 -10 -10 -10h-301q-10 0 -10 10v138q0 10 10 10h42q6 0 6 6v90l-155 263q-3 5 -8 5h-30q-10 0 -10 10v138q0 10 10 10h274q10 0 10 -10v-134q0 -10 -10 -10h-31q-7 0 -3 -6l57 -103h3l58 103q3 6 -4 6h-31q-10 0 -10 10v134q0 10 10 10z" />
    <glyph glyph-name="Zacute" unicode="&#x179;" horiz-adv-x="562" 
d="M310 890h167q5 0 6.5 -3t-1.5 -7l-134 -132q-10 -10 -21 -10h-141q-4 0 -5.5 3t1.5 7l110 132q8 10 18 10zM37 680h497q10 0 10 -10v-157q0 -5 -3 -10l-292 -336v-3h111q6 0 6 6v48q0 10 10 10h158q10 0 10 -10v-208q0 -10 -10 -10h-508q-10 0 -10 10v157q0 5 3 10
l292 336v3h-104q-6 0 -6 -6v-40q0 -10 -10 -10h-154q-10 0 -10 10v200q0 10 10 10z" />
    <glyph glyph-name="zacute" unicode="&#x17a;" horiz-adv-x="487" 
d="M247 704h165q4 0 5.5 -3.5t-0.5 -6.5l-106 -144q-7 -10 -16 -10h-143q-10 0 -5 10l83 144q7 10 17 10zM35 490h419q10 0 10 -10v-124q0 -6 -3 -10l-215 -196v-3h57q6 0 6 6v15q0 10 10 10h138q10 0 10 -10v-158q0 -10 -10 -10h-427q-10 0 -10 10v125q0 5 3 10l216 205v3
h-50q-6 0 -6 -6v-25q0 -10 -10 -10h-138q-10 0 -10 10v158q0 10 10 10z" />
    <glyph glyph-name="Zdotaccent" unicode="&#x17b;" horiz-adv-x="562" 
d="M200 883h164q10 0 10 -10v-124q0 -10 -10 -10h-164q-10 0 -10 10v124q0 10 10 10zM37 680h497q10 0 10 -10v-157q0 -5 -3 -10l-292 -336v-3h111q6 0 6 6v48q0 10 10 10h158q10 0 10 -10v-208q0 -10 -10 -10h-508q-10 0 -10 10v157q0 5 3 10l292 336v3h-104q-6 0 -6 -6
v-40q0 -10 -10 -10h-154q-10 0 -10 10v200q0 10 10 10z" />
    <glyph glyph-name="zdotaccent" unicode="&#x17c;" horiz-adv-x="487" 
d="M162 680h164q10 0 10 -10v-124q0 -10 -10 -10h-164q-10 0 -10 10v124q0 10 10 10zM35 490h419q10 0 10 -10v-124q0 -6 -3 -10l-215 -196v-3h57q6 0 6 6v15q0 10 10 10h138q10 0 10 -10v-158q0 -10 -10 -10h-427q-10 0 -10 10v125q0 5 3 10l216 205v3h-50q-6 0 -6 -6v-25
q0 -10 -10 -10h-138q-10 0 -10 10v158q0 10 10 10z" />
    <glyph glyph-name="Zcaron" unicode="&#x17d;" horiz-adv-x="562" 
d="M351 890h113q5 0 6.5 -3t-1.5 -7l-114 -144q-7 -10 -19 -10h-108q-12 0 -19 10l-114 144q-3 4 -1.5 7t6.5 3h113q14 0 24 -10l44 -44h2l44 44q10 10 24 10zM37 680h497q10 0 10 -10v-157q0 -5 -3 -10l-292 -336v-3h111q6 0 6 6v48q0 10 10 10h158q10 0 10 -10v-208
q0 -10 -10 -10h-508q-10 0 -10 10v157q0 5 3 10l292 336v3h-104q-6 0 -6 -6v-40q0 -10 -10 -10h-154q-10 0 -10 10v200q0 10 10 10z" />
    <glyph glyph-name="zcaron" unicode="&#x17e;" horiz-adv-x="487" 
d="M312 698h113q5 0 6.5 -3t-1.5 -7l-114 -144q-7 -10 -19 -10h-108q-12 0 -19 10l-114 144q-3 4 -1.5 7t6.5 3h113q14 0 24 -10l44 -44h2l44 44q10 10 24 10zM35 490h419q10 0 10 -10v-124q0 -6 -3 -10l-215 -196v-3h57q6 0 6 6v15q0 10 10 10h138q10 0 10 -10v-158
q0 -10 -10 -10h-427q-10 0 -10 10v125q0 5 3 10l216 205v3h-50q-6 0 -6 -6v-25q0 -10 -10 -10h-138q-10 0 -10 10v158q0 10 10 10z" />
    <glyph glyph-name="florin" unicode="&#x192;" 
d="M449 680h41q10 0 10 -10v-142q0 -10 -10 -10h-23q-42 0 -49 -43l-6 -40h56q10 0 10 -10v-126q0 -10 -10 -10h-79l-43 -278q-17 -107 -69 -149t-155 -42h-41q-10 0 -10 10v142q0 10 10 10h23q42 0 49 43l41 264h-54q-10 0 -10 10v126q0 10 10 10h76l9 54q17 107 69 149
t155 42z" />
    <glyph glyph-name="Scommaaccent" unicode="&#x218;" horiz-adv-x="592" 
d="M294 692q128 0 237 -44q9 -4 9 -13v-156q0 -10 -10 -10h-152q-10 0 -10 10v31q0 6 -5 8q-26 10 -60 10q-68 0 -68 -41q0 -19 14.5 -29t50.5 -15l36 -5q122 -17 179 -70.5t57 -153.5q0 -104 -74.5 -165t-214.5 -61q-143 0 -245 41q-10 4 -10 14v170q0 10 10 10h162
q10 0 10 -10v-40q0 -7 6 -8q31 -8 65 -8q76 0 76 47q0 18 -13 29t-49 16l-36 5q-120 17 -179 71t-59 155q0 99 71 155.5t202 56.5zM215 -41h142q10 0 10 -10v-100q0 -16 -10 -22l-122 -78q-13 -8 -18 -8q-12 0 -12 13v195q0 10 10 10z" />
    <glyph glyph-name="scommaaccent" unicode="&#x219;" horiz-adv-x="492" 
d="M242 502q117 0 199 -33q8 -3 8 -10v-113q0 -10 -10 -10h-146q-10 0 -10 10v14q0 6 -6 7q-13 4 -37 4q-43 0 -43 -23q0 -7 2 -10.5t11 -7.5t27 -6l55 -6q102 -11 143.5 -49t41.5 -105q0 -90 -66 -133t-176 -43q-115 0 -209 30q-7 3 -7 11v122q0 10 10 10h146q10 0 10 -10
v-18q0 -5 5 -6q18 -4 49 -4q55 0 55 26q0 12 -9.5 17.5t-39.5 8.5l-56 6q-88 9 -131 47t-43 110q0 80 58.5 122t168.5 42zM181 -41h142q10 0 10 -10v-100q0 -16 -10 -22l-122 -78q-13 -8 -18 -8q-12 0 -12 13v195q0 10 10 10z" />
    <glyph glyph-name="uni021A" unicode="&#x21a;" horiz-adv-x="659" 
d="M22 680h615q10 0 10 -10v-200q0 -10 -10 -10h-149q-10 0 -10 10v40q0 6 -6 6h-33q-6 0 -6 -6v-346q0 -6 6 -6h41q10 0 10 -10v-138q0 -10 -10 -10h-301q-10 0 -10 10v138q0 10 10 10h41q6 0 6 6v346q0 6 -6 6h-33q-6 0 -6 -6v-40q0 -10 -10 -10h-149q-10 0 -10 10v200
q0 10 10 10zM258 -41h142q10 0 10 -10v-100q0 -16 -10 -22l-122 -78q-13 -8 -18 -8q-12 0 -12 13v195q0 10 10 10z" />
    <glyph glyph-name="uni021B" unicode="&#x21b;" horiz-adv-x="340" 
d="M63 630h177q10 0 10 -10v-124q0 -6 6 -6h60q10 0 10 -10v-138q0 -10 -10 -10h-60q-6 0 -6 -6v-113q0 -32 9.5 -43.5t36.5 -11.5h20q10 0 10 -10v-140q0 -10 -10 -10h-60q-111 0 -157 47t-46 163v118q0 6 -6 6h-26q-10 0 -10 10v138q0 10 10 10h26q6 0 6 6v124q0 10 10 10
zM133 -41h142q10 0 10 -10v-100q0 -16 -10 -22l-122 -78q-13 -8 -18 -8q-12 0 -12 13v195q0 10 10 10z" />
    <glyph glyph-name="dotlessj" unicode="&#x237;" horiz-adv-x="303" 
d="M24 490h221q10 0 10 -10v-447q0 -112 -55.5 -162.5t-165.5 -50.5h-43q-10 0 -10 10v138q0 10 10 10h13q31 0 42.5 11t11.5 45v292q0 6 -6 6h-28q-10 0 -10 10v138q0 10 10 10z" />
    <glyph glyph-name="circumflex" unicode="&#x2c6;" horiz-adv-x="530" 
d="M211 702h108q12 0 19 -10l114 -144q3 -4 1.5 -7t-6.5 -3h-113q-14 0 -24 10l-44 44h-2l-44 -44q-10 -10 -24 -10h-113q-5 0 -6.5 3t1.5 7l114 144q7 10 19 10z" />
    <glyph glyph-name="caron" unicode="&#x2c7;" horiz-adv-x="530" 
d="M334 698h113q5 0 6.5 -3t-1.5 -7l-114 -144q-7 -10 -19 -10h-108q-12 0 -19 10l-114 144q-3 4 -1.5 7t6.5 3h113q14 0 24 -10l44 -44h2l44 44q10 10 24 10z" />
    <glyph glyph-name="uni02C9" unicode="&#x2c9;" horiz-adv-x="531" 
d="M103 876h324q10 0 10 -10v-108q0 -10 -10 -10h-324q-10 0 -10 10v108q0 10 10 10z" />
    <glyph glyph-name="breve" unicode="&#x2d8;" horiz-adv-x="531" 
d="M347 693h74q14 0 14 -11q0 -64 -49.5 -108.5t-120.5 -44.5t-120.5 44.5t-49.5 108.5q0 11 14 11h74q11 0 16 -11q19 -37 66 -37t66 37q5 11 16 11z" />
    <glyph glyph-name="dotaccent" unicode="&#x2d9;" horiz-adv-x="530" 
d="M183 680h164q10 0 10 -10v-124q0 -10 -10 -10h-164q-10 0 -10 10v124q0 10 10 10z" />
    <glyph glyph-name="ring" unicode="&#x2da;" horiz-adv-x="531" 
d="M265 756q53 0 88.5 -34.5t35.5 -87.5t-35.5 -87.5t-88.5 -34.5t-88.5 34.5t-35.5 87.5t35.5 87.5t88.5 34.5zM265 675q-17 0 -28.5 -11.5t-11.5 -29.5t11.5 -29.5t28.5 -11.5t28.5 11.5t11.5 29.5t-11.5 29.5t-28.5 11.5z" />
    <glyph glyph-name="ogonek" unicode="&#x2db;" horiz-adv-x="530" 
d="M217 10h154q3 0 4 -2t0 -4.5t-4 -3.5q-86 -35 -86 -56q0 -10 13 -10q10 0 24 9q8 5 13 -3l46 -83q5 -8 -4 -14q-54 -35 -112 -35q-55 0 -86.5 28.5t-31.5 72.5q0 55 46 91q13 10 24 10z" />
    <glyph glyph-name="tilde" unicode="&#x2dc;" horiz-adv-x="530" 
d="M190 705q44 0 94 -26q32 -17 61 -17q38 0 81 33q11 7 11 -4v-92q0 -14 -10 -24q-41 -39 -86 -39q-44 0 -94 26q-32 17 -61 17q-38 0 -81 -33q-11 -7 -11 4v92q0 14 10 24q41 39 86 39z" />
    <glyph glyph-name="hungarumlaut" unicode="&#x2dd;" horiz-adv-x="530" 
d="M140 700h135q5 0 6.5 -3t-0.5 -7l-88 -144q-6 -10 -18 -10h-117q-11 0 -6 10l72 144q5 10 16 10zM339 700h135q4 0 6 -3t0 -7l-88 -144q-6 -10 -18 -10h-117q-11 0 -6 10l72 144q5 10 16 10z" />
    <glyph glyph-name="uni0326" unicode="&#x326;" horiz-adv-x="0" 
d="M194 -41h142q10 0 10 -10v-100q0 -16 -10 -22l-122 -78q-13 -8 -18 -8q-12 0 -12 13v195q0 10 10 10z" />
    <glyph glyph-name="uni0394" unicode="&#x394;" horiz-adv-x="708" 
d="M255 680h204q10 0 13 -10l230 -660q3 -10 -7 -10h-682q-10 0 -7 10l236 660q3 10 13 10zM354 451l-75 -263q-1 -6 5 -6h141q7 0 5 6l-73 263h-3z" />
    <glyph glyph-name="uni03A9" unicode="&#x3a9;" horiz-adv-x="638" 
d="M319 692q98 0 165.5 -43.5t97.5 -125.5q22 -60 22 -183q0 -65 -15 -114t-39 -67v-1h38q10 0 10 -10v-138q0 -10 -10 -10h-234q-10 0 -10 10v130q0 10 9 16q26 18 32.5 50.5t6.5 133.5t-8 123q-16 43 -65 43t-65 -43q-8 -22 -8 -123t6.5 -133.5t32.5 -50.5q9 -6 9 -16
v-130q0 -10 -10 -10h-234q-10 0 -10 10v138q0 10 10 10h38v1q-24 18 -39 67t-15 114q0 123 22 183q30 82 97.5 125.5t165.5 43.5z" />
    <glyph glyph-name="uni03BC" unicode="&#x3bc;" horiz-adv-x="585" 
d="M339 490h177q10 0 10 -10v-316q0 -6 6 -6h29q10 0 10 -10v-138q0 -10 -10 -10h-222q-10 0 -10 10v36h-1q-28 -42 -83 -49v-167q0 -10 -10 -10h-177q-10 0 -10 10v650q0 10 10 10h177q10 0 10 -10v-278q0 -50 42 -50t42 50v278q0 10 10 10z" />
    <glyph glyph-name="pi" unicode="&#x3c0;" horiz-adv-x="604" 
d="M26 490h542q10 0 10 -10v-151q0 -10 -10 -10h-38q-6 0 -6 -6v-114q0 -23 7 -32t25 -9h6q10 0 10 -10v-144q0 -10 -10 -10h-49q-96 0 -140.5 42.5t-44.5 143.5v133q0 6 -6 6h-46q-6 0 -6 -6v-303q0 -10 -10 -10h-180q-10 0 -10 10v303q0 6 -6 6h-38q-10 0 -10 10v151
q0 10 10 10z" />
    <glyph glyph-name="Wgrave" unicode="&#x1e80;" horiz-adv-x="966" 
d="M267 890h167q10 0 18 -10l110 -132q3 -4 1.5 -7t-5.5 -3h-141q-11 0 -21 10l-134 132q-3 4 -1.5 7t6.5 3zM670 680h276q10 0 10 -10v-138q0 -10 -10 -10h-30q-5 0 -7 -5l-149 -507q-3 -10 -14 -10h-154q-11 0 -14 10l-94 329h-2l-94 -329q-3 -10 -14 -10h-154
q-11 0 -14 10l-149 507q-2 5 -7 5h-30q-10 0 -10 10v138q0 10 10 10h277q10 0 10 -10v-138q0 -10 -10 -10h-24q-6 0 -4 -6l44 -206h2l94 360q3 10 14 10h121q11 0 14 -10l98 -360h2l42 206q2 6 -5 6h-25q-10 0 -10 10v138q0 10 10 10z" />
    <glyph glyph-name="wgrave" unicode="&#x1e81;" horiz-adv-x="802" 
d="M212 704h165q10 0 17 -10l83 -144q5 -10 -5 -10h-143q-9 0 -16 10l-106 144q-1 2 -1 4.5t1.5 4t4.5 1.5zM546 490h232q10 0 10 -10v-138q0 -10 -10 -10h-34q-2 0 -4 -3l-110 -319q-3 -10 -12 -10h-143q-9 0 -12 10l-60 219h-2l-62 -219q-3 -10 -12 -10h-143q-9 0 -12 10
l-110 319q-2 3 -5 3h-33q-10 0 -10 10v138q0 10 10 10h235q10 0 10 -10v-138q0 -10 -10 -10h-18q-3 0 -2 -4l26 -90h2l64 242q3 10 14 10h115q11 0 14 -10l65 -242h2l25 90q1 4 -2 4h-18q-10 0 -10 10v138q0 10 10 10z" />
    <glyph glyph-name="Wacute" unicode="&#x1e82;" horiz-adv-x="966" 
d="M541 890h167q5 0 6.5 -3t-1.5 -7l-134 -132q-10 -10 -21 -10h-141q-5 0 -6 3t2 7l110 132q8 10 18 10zM670 680h276q10 0 10 -10v-138q0 -10 -10 -10h-30q-5 0 -7 -5l-149 -507q-3 -10 -14 -10h-154q-11 0 -14 10l-94 329h-2l-94 -329q-3 -10 -14 -10h-154q-11 0 -14 10
l-149 507q-2 5 -7 5h-30q-10 0 -10 10v138q0 10 10 10h277q10 0 10 -10v-138q0 -10 -10 -10h-24q-6 0 -4 -6l44 -206h2l94 360q3 10 14 10h121q11 0 14 -10l98 -360h2l42 206q2 6 -5 6h-25q-10 0 -10 10v138q0 10 10 10z" />
    <glyph glyph-name="wacute" unicode="&#x1e83;" horiz-adv-x="802" 
d="M427 704h165q4 0 5.5 -3.5t-0.5 -6.5l-106 -144q-7 -10 -16 -10h-143q-10 0 -5 10l83 144q7 10 17 10zM546 490h232q10 0 10 -10v-138q0 -10 -10 -10h-34q-2 0 -4 -3l-110 -319q-3 -10 -12 -10h-143q-9 0 -12 10l-60 219h-2l-62 -219q-3 -10 -12 -10h-143q-9 0 -12 10
l-110 319q-2 3 -5 3h-33q-10 0 -10 10v138q0 10 10 10h235q10 0 10 -10v-138q0 -10 -10 -10h-18q-3 0 -2 -4l26 -90h2l64 242q3 10 14 10h115q11 0 14 -10l65 -242h2l25 90q1 4 -2 4h-18q-10 0 -10 10v138q0 10 10 10z" />
    <glyph glyph-name="Wdieresis" unicode="&#x1e84;" horiz-adv-x="966" 
d="M315 883h126q10 0 10 -10v-124q0 -10 -10 -10h-126q-10 0 -10 10v124q0 10 10 10zM525 883h126q10 0 10 -10v-124q0 -10 -10 -10h-126q-10 0 -10 10v124q0 10 10 10zM670 680h276q10 0 10 -10v-138q0 -10 -10 -10h-30q-5 0 -7 -5l-149 -507q-3 -10 -14 -10h-154
q-11 0 -14 10l-94 329h-2l-94 -329q-3 -10 -14 -10h-154q-11 0 -14 10l-149 507q-2 5 -7 5h-30q-10 0 -10 10v138q0 10 10 10h277q10 0 10 -10v-138q0 -10 -10 -10h-24q-6 0 -4 -6l44 -206h2l94 360q3 10 14 10h121q11 0 14 -10l98 -360h2l42 206q2 6 -5 6h-25q-10 0 -10 10
v138q0 10 10 10z" />
    <glyph glyph-name="wdieresis" unicode="&#x1e85;" horiz-adv-x="802" 
d="M233 680h126q10 0 10 -10v-124q0 -10 -10 -10h-126q-10 0 -10 10v124q0 10 10 10zM443 680h126q10 0 10 -10v-124q0 -10 -10 -10h-126q-10 0 -10 10v124q0 10 10 10zM546 490h232q10 0 10 -10v-138q0 -10 -10 -10h-34q-2 0 -4 -3l-110 -319q-3 -10 -12 -10h-143
q-9 0 -12 10l-60 219h-2l-62 -219q-3 -10 -12 -10h-143q-9 0 -12 10l-110 319q-2 3 -5 3h-33q-10 0 -10 10v138q0 10 10 10h235q10 0 10 -10v-138q0 -10 -10 -10h-18q-3 0 -2 -4l26 -90h2l64 242q3 10 14 10h115q11 0 14 -10l65 -242h2l25 90q1 4 -2 4h-18q-10 0 -10 10v138
q0 10 10 10z" />
    <glyph glyph-name="uni1E9E" unicode="&#x1e9e;" horiz-adv-x="665" 
d="M331 690q128 0 247 -39q11 -4 11 -13v-134q0 -8 -6 -18l-54 -85q115 -49 115 -181q0 -106 -60.5 -165t-181.5 -59q-44 0 -80 4q-10 2 -10 13v135q0 10 10 10h26q44 0 63 14.5t19 44.5q0 28 -19 42t-66 14h-13q-12 0 -12 9v123q0 9 6 19l55 84q-17 5 -54 5q-66 0 -66 -67
v-436q0 -10 -10 -10h-229q-10 0 -10 10v138q0 10 10 10h27q6 0 6 6v290q0 236 276 236z" />
    <glyph glyph-name="Ygrave" unicode="&#x1ef2;" horiz-adv-x="640" 
d="M115 890h167q10 0 18 -10l110 -132q3 -4 1.5 -7t-5.5 -3h-141q-11 0 -21 10l-134 132q-3 4 -1.5 7t6.5 3zM347 680h269q10 0 10 -10v-138q0 -10 -10 -10h-31q-5 0 -8 -5l-155 -263v-90q0 -6 6 -6h42q10 0 10 -10v-138q0 -10 -10 -10h-301q-10 0 -10 10v138q0 10 10 10h42
q6 0 6 6v90l-155 263q-3 5 -8 5h-30q-10 0 -10 10v138q0 10 10 10h274q10 0 10 -10v-134q0 -10 -10 -10h-31q-7 0 -3 -6l57 -103h3l58 103q3 6 -4 6h-31q-10 0 -10 10v134q0 10 10 10z" />
    <glyph glyph-name="ygrave" unicode="&#x1ef3;" horiz-adv-x="557" 
d="M99 704h165q10 0 17 -10l83 -144q5 -10 -5 -10h-143q-8 0 -16 10l-106 144q-1 2 -1 4.5t1.5 4t4.5 1.5zM304 490h229q10 0 10 -10v-138q0 -10 -10 -10h-37q-2 0 -4 -3l-166 -400q-26 -63 -67 -86t-119 -23h-41q-10 0 -10 10v140q0 10 10 10h30q47 0 58 31l8 21l-130 297
q-1 3 -5 3h-36q-10 0 -10 10v138q0 10 10 10h232q10 0 10 -10v-138q0 -10 -10 -10h-13q-3 0 -2 -4l42 -97h2l35 97q1 4 -2 4h-14q-10 0 -10 10v138q0 10 10 10z" />
    <glyph glyph-name="endash" unicode="&#x2013;" 
d="M30 349h510q10 0 10 -10v-148q0 -10 -10 -10h-510q-10 0 -10 10v148q0 10 10 10z" />
    <glyph glyph-name="emdash" unicode="&#x2014;" horiz-adv-x="952" 
d="M30 349h892q10 0 10 -10v-148q0 -10 -10 -10h-892q-10 0 -10 10v148q0 10 10 10z" />
    <glyph glyph-name="quoteleft" unicode="&#x2018;" horiz-adv-x="248" 
d="M188 682q12 0 12 -13v-223q0 -10 -10 -10h-132q-10 0 -10 10v128q0 16 10 22l112 78q11 8 18 8z" />
    <glyph glyph-name="quoteright" unicode="&#x2019;" horiz-adv-x="248" 
d="M58 680h132q10 0 10 -10v-128q0 -16 -10 -22l-112 -78q-11 -8 -18 -8q-12 0 -12 13v223q0 10 10 10z" />
    <glyph glyph-name="quotesinglbase" unicode="&#x201a;" horiz-adv-x="248" 
d="M58 157h132q10 0 10 -10v-128q0 -16 -10 -22l-112 -78q-11 -8 -18 -8q-12 0 -12 13v223q0 10 10 10z" />
    <glyph glyph-name="quotedblleft" unicode="&#x201c;" horiz-adv-x="460" 
d="M188 682q12 0 12 -13v-223q0 -10 -10 -10h-132q-10 0 -10 10v128q0 16 10 22l112 78q11 8 18 8zM400 682q12 0 12 -13v-223q0 -10 -10 -10h-132q-10 0 -10 10v128q0 16 10 22l112 78q11 8 18 8z" />
    <glyph glyph-name="quotedblright" unicode="&#x201d;" horiz-adv-x="460" 
d="M58 680h132q10 0 10 -10v-128q0 -16 -10 -22l-112 -78q-11 -8 -18 -8q-12 0 -12 13v223q0 10 10 10zM270 680h132q10 0 10 -10v-128q0 -16 -10 -22l-112 -78q-11 -8 -18 -8q-12 0 -12 13v223q0 10 10 10z" />
    <glyph glyph-name="quotedblbase" unicode="&#x201e;" horiz-adv-x="460" 
d="M58 157h132q10 0 10 -10v-128q0 -16 -10 -22l-112 -78q-11 -8 -18 -8q-12 0 -12 13v223q0 10 10 10zM270 157h132q10 0 10 -10v-128q0 -16 -10 -22l-112 -78q-11 -8 -18 -8q-12 0 -12 13v223q0 10 10 10z" />
    <glyph glyph-name="dagger" unicode="&#x2020;" horiz-adv-x="581" 
d="M200 680h181q10 0 10 -10v-182q0 -6 6 -6h144q10 0 10 -10v-161q0 -10 -10 -10h-144q-6 0 -6 -6v-465q0 -10 -10 -10h-181q-10 0 -10 10v465q0 6 -6 6h-144q-10 0 -10 10v161q0 10 10 10h144q6 0 6 6v182q0 10 10 10z" />
    <glyph glyph-name="daggerdbl" unicode="&#x2021;" horiz-adv-x="581" 
d="M200 680h181q10 0 10 -10v-142q0 -6 6 -6h144q10 0 10 -10v-161q0 -10 -10 -10h-144q-6 0 -6 -6v-170q0 -6 6 -6h144q10 0 10 -10v-161q0 -10 -10 -10h-144q-6 0 -6 -6v-142q0 -10 -10 -10h-181q-10 0 -10 10v142q0 6 -6 6h-144q-10 0 -10 10v161q0 10 10 10h144q6 0 6 6
v170q0 6 -6 6h-144q-10 0 -10 10v161q0 10 10 10h144q6 0 6 6v142q0 10 10 10z" />
    <glyph glyph-name="bullet" unicode="&#x2022;" horiz-adv-x="510" 
d="M255 484q75 0 125 -50t50 -125t-50 -125t-125 -50t-125 50t-50 125t50 125t125 50z" />
    <glyph glyph-name="ellipsis" unicode="&#x2026;" horiz-adv-x="804" 
d="M54 180h160q10 0 10 -10v-160q0 -10 -10 -10h-160q-10 0 -10 10v160q0 10 10 10zM322 180h160q10 0 10 -10v-160q0 -10 -10 -10h-160q-10 0 -10 10v160q0 10 10 10zM590 180h160q10 0 10 -10v-160q0 -10 -10 -10h-160q-10 0 -10 10v160q0 10 10 10z" />
    <glyph glyph-name="perthousand" unicode="&#x2030;" horiz-adv-x="1245" 
d="M588 692h122q10 0 4 -10l-395 -684q-6 -10 -16 -10h-122q-10 0 -4 10l395 684q6 10 16 10zM215 688q115 0 143 -88q12 -36 12 -91t-12 -91q-28 -88 -143 -88t-143 88q-12 36 -12 91t12 91q28 88 143 88zM215 595q-15 0 -19 -13q-3 -10 -3 -73t3 -73q4 -13 19 -13t19 13
q3 10 3 73t-3 73q-4 13 -19 13zM676 350q115 0 143 -88q12 -36 12 -91t-12 -91q-28 -88 -143 -88t-143 88q-12 36 -12 91t12 91q28 88 143 88zM1030 350q115 0 143 -88q12 -36 12 -91t-12 -91q-28 -88 -143 -88t-143 88q-12 36 -12 91t12 91q28 88 143 88zM676 257
q-15 0 -19 -13q-3 -10 -3 -73t3 -73q4 -13 19 -13t19 13q3 10 3 73t-3 73q-4 13 -19 13zM1030 257q-15 0 -19 -13q-3 -10 -3 -73t3 -73q4 -13 19 -13t19 13q3 10 3 73t-3 73q-4 13 -19 13z" />
    <glyph glyph-name="guilsinglleft" unicode="&#x2039;" horiz-adv-x="332" 
d="M15 271l255 251q3 3 6.5 1.5t3.5 -5.5v-162q0 -8 -10 -18l-71 -70q-4 -4 0 -8l71 -70q10 -10 10 -18v-162q0 -4 -3.5 -5.5t-6.5 1.5l-255 251q-7 7 0 14z" />
    <glyph glyph-name="guilsinglright" unicode="&#x203a;" horiz-adv-x="332" 
d="M62 522l255 -251q7 -7 0 -14l-255 -251q-3 -3 -6.5 -1.5t-3.5 5.5v162q0 8 10 18l71 70q4 4 0 8l-71 70q-10 10 -10 18v162q0 4 3.5 5.5t6.5 -1.5z" />
    <glyph glyph-name="fraction" unicode="&#x2044;" horiz-adv-x="181" 
d="M233 692h122q10 0 4 -10l-395 -684q-6 -10 -16 -10h-122q-10 0 -4 10l395 684q6 10 16 10z" />
    <glyph glyph-name="zero.superior" unicode="&#x2070;" horiz-adv-x="376" 
d="M188 843q61 0 101.5 -25.5t55.5 -73.5q11 -33 11 -111t-11 -111q-15 -48 -55.5 -73.5t-101.5 -25.5t-101.5 25.5t-55.5 73.5q-11 33 -11 111t11 111q15 48 55.5 73.5t101.5 25.5zM188 735q-16 0 -21 -14q-3 -9 -3 -88t3 -88q5 -14 21 -14t21 14q3 9 3 88t-3 88
q-5 14 -21 14z" />
    <glyph glyph-name="four.superior" unicode="&#x2074;" horiz-adv-x="376" 
d="M137 836h127q11 0 7 -10l-104 -230v-3h32q6 0 6 6v42q0 10 10 10h109q10 0 10 -10v-42q0 -6 5 -6h13q10 0 10 -10v-95q0 -10 -10 -10h-12q-6 0 -6 -6v-32q0 -10 -10 -10h-109q-10 0 -10 10v32q0 6 -6 6h-169q-10 0 -10 10v102q0 8 5 20l97 216q4 10 15 10z" />
    <glyph glyph-name="five.superior" unicode="&#x2075;" horiz-adv-x="376" 
d="M48 836h270q10 0 10 -10v-91q0 -11 -10 -11h-154q-6 0 -6 -7v-34h1q21 18 65 18q93 0 117 -73q8 -24 8 -57q0 -36 -7 -57q-30 -91 -163 -91q-89 0 -134 31q-7 4 -7 14v78q0 10 10 10h101q10 0 10 -10v-9q0 -3 3 -5q7 -3 19 -3q21 0 28 15q3 8 3 19t-3 19q-5 14 -24 14
q-13 0 -21 -8q-6 -6 -13 -6h-103q-10 0 -10 10v234q0 10 10 10z" />
    <glyph glyph-name="six.superior" unicode="&#x2076;" horiz-adv-x="376" 
d="M157 836h134q11 0 5 -10l-75 -131l1 -1h4q58 0 94 -35t36 -96q0 -63 -46.5 -101.5t-121.5 -38.5t-121.5 38.5t-46.5 101.5q0 55 41 124l81 139q5 10 15 10zM188 591q-15 0 -23.5 -9t-8.5 -22t8.5 -22t23.5 -9t23.5 9t8.5 22t-8.5 22t-23.5 9z" />
    <glyph glyph-name="seven.superior" unicode="&#x2077;" horiz-adv-x="376" 
d="M40 836h300q10 0 10 -10v-105q0 -10 -4 -18l-113 -263q-3 -10 -13 -10h-129q-11 0 -7 12l122 280v2h-44q-6 0 -6 -6v-32q0 -10 -10 -10h-106q-10 0 -10 10v140q0 10 10 10z" />
    <glyph glyph-name="eight.superior" unicode="&#x2078;" horiz-adv-x="376" 
d="M188 843q74 0 117 -37.5t43 -90.5q0 -42 -35 -75v-1q43 -35 43 -85q0 -61 -48 -96t-120 -35t-120 35t-48 96q0 50 43 85v1q-35 33 -35 75q0 53 43 90.5t117 37.5zM188 737q-12 0 -19.5 -7.5t-7.5 -18.5t7.5 -18.5t19.5 -7.5t19.5 7.5t7.5 18.5t-7.5 18.5t-19.5 7.5z
M188 591q-14 0 -23 -9t-9 -22t9 -22t23 -9t23 9t9 22t-9 22t-23 9z" />
    <glyph glyph-name="nine.superior" unicode="&#x2079;" horiz-adv-x="376" 
d="M188 843q75 0 121.5 -38.5t46.5 -101.5q0 -55 -41 -124l-81 -139q-5 -10 -15 -10h-134q-11 0 -5 10l75 131l-1 1h-4q-58 0 -94 35t-36 96q0 63 46.5 101.5t121.5 38.5zM188 737q-15 0 -23.5 -9t-8.5 -22t8.5 -22t23.5 -9t23.5 9t8.5 22t-8.5 22t-23.5 9z" />
    <glyph glyph-name="plussuperior" unicode="&#x207a;" horiz-adv-x="376" 
d="M142 770h92q10 0 10 -10v-78q0 -6 6 -6h76q10 0 10 -10v-90q0 -10 -10 -10h-76q-6 0 -6 -6v-78q0 -10 -10 -10h-92q-10 0 -10 10v78q0 6 -6 6h-76q-10 0 -10 10v90q0 10 10 10h76q6 0 6 6v78q0 10 10 10z" />
    <glyph glyph-name="uni207B" unicode="&#x207b;" horiz-adv-x="376" 
d="M50 676h276q10 0 10 -10v-90q0 -10 -10 -10h-276q-10 0 -10 10v90q0 10 10 10z" />
    <glyph glyph-name="equalsuperior" unicode="&#x207c;" horiz-adv-x="376" 
d="M50 749h276q10 0 10 -10v-90q0 -10 -10 -10h-276q-10 0 -10 10v90q0 10 10 10zM50 604h276q10 0 10 -10v-90q0 -10 -10 -10h-276q-10 0 -10 10v90q0 10 10 10z" />
    <glyph glyph-name="parenleftsuperior" unicode="&#x207d;" horiz-adv-x="256" 
d="M142 860h83q12 0 7 -10q-50 -115 -50 -217t50 -217q5 -10 -7 -10h-83q-7 0 -14 9q-74 98 -74 218t74 218q7 9 14 9z" />
    <glyph glyph-name="parenrightsuperior" unicode="&#x207e;" horiz-adv-x="256" 
d="M31 860h83q7 0 14 -9q74 -98 74 -218t-74 -218q-7 -9 -14 -9h-83q-12 0 -7 10q50 115 50 217t-50 217q-5 10 7 10z" />
    <glyph glyph-name="zero.inferior" unicode="&#x2080;" horiz-adv-x="376" 
d="M188 257q61 0 101.5 -25.5t55.5 -73.5q11 -33 11 -111t-11 -111q-15 -48 -55.5 -73.5t-101.5 -25.5t-101.5 25.5t-55.5 73.5q-11 33 -11 111t11 111q15 48 55.5 73.5t101.5 25.5zM188 149q-16 0 -21 -14q-3 -9 -3 -88t3 -88q5 -14 21 -14t21 14q3 9 3 88t-3 88
q-5 14 -21 14z" />
    <glyph glyph-name="one.inferior" unicode="&#x2081;" horiz-adv-x="376" 
d="M139 250h123q10 0 10 -10v-272q0 -6 6 -6h63q10 0 10 -10v-98q0 -10 -10 -10h-281q-10 0 -10 10v98q0 10 10 10h63q6 0 6 6v142h-2l-67 -37q-4 -2 -7 -0.5t-3 6.5v112q0 10 9 15l63 38q9 6 17 6z" />
    <glyph glyph-name="two.inferior" unicode="&#x2082;" horiz-adv-x="376" 
d="M188 257q72 0 115 -32.5t43 -97.5q0 -62 -61 -111l-69 -56v-1h120q10 0 10 -10v-95q0 -10 -10 -10h-296q-10 0 -10 10v87q0 13 10 21l147 125q23 20 23 39q0 25 -27 25q-12 0 -20 -5q-4 -3 -4 -8v-23q0 -10 -10 -10h-101q-10 0 -10 10v89q0 10 7 14q63 39 143 39z" />
    <glyph glyph-name="three.inferior" unicode="&#x2083;" horiz-adv-x="376" 
d="M188 257q74 0 114.5 -30.5t40.5 -82.5q0 -51 -48 -81v-2q54 -26 54 -95q0 -60 -44 -94.5t-124 -34.5q-90 0 -141 32q-7 4 -7 14v85q0 10 10 10h99q11 0 11 -10v-16q0 -5 4 -6q7 -3 22 -3q32 0 32 28q0 27 -35 27h-10q-10 0 -10 10v84q0 10 10 10h12q27 0 27 25
q0 24 -27 24q-12 0 -20 -4q-5 -3 -5 -8v-15q0 -10 -10 -10h-100q-10 0 -10 10v81q0 10 7 14q65 38 148 38z" />
    <glyph glyph-name="four.inferior" unicode="&#x2084;" horiz-adv-x="376" 
d="M137 250h127q11 0 7 -10l-104 -230v-3h32q6 0 6 6v42q0 10 10 10h109q10 0 10 -10v-42q0 -6 5 -6h13q10 0 10 -10v-95q0 -10 -10 -10h-12q-6 0 -6 -6v-32q0 -10 -10 -10h-109q-10 0 -10 10v32q0 6 -6 6h-169q-10 0 -10 10v102q0 8 5 20l97 216q4 10 15 10z" />
    <glyph glyph-name="five.inferior" unicode="&#x2085;" horiz-adv-x="376" 
d="M48 250h270q10 0 10 -10v-91q0 -11 -10 -11h-154q-6 0 -6 -7v-34h1q21 18 65 18q93 0 117 -73q8 -24 8 -57q0 -36 -7 -57q-30 -91 -163 -91q-89 0 -134 31q-7 4 -7 14v78q0 10 10 10h101q10 0 10 -10v-9q0 -3 3 -5q8 -3 19 -3q21 0 28 15q3 7 3 19q0 11 -3 19
q-5 14 -24 14q-13 0 -21 -8q-6 -6 -13 -6h-103q-10 0 -10 10v234q0 10 10 10z" />
    <glyph glyph-name="six.inferior" unicode="&#x2086;" horiz-adv-x="376" 
d="M157 250h134q11 0 5 -10l-75 -131l1 -1h4q58 0 94 -35t36 -96q0 -63 -46.5 -101.5t-121.5 -38.5t-121.5 38.5t-46.5 101.5q0 55 41 124l81 139q5 10 15 10zM188 5q-15 0 -23.5 -9t-8.5 -22t8.5 -22t23.5 -9t23.5 9t8.5 22t-8.5 22t-23.5 9z" />
    <glyph glyph-name="seven.inferior" unicode="&#x2087;" horiz-adv-x="376" 
d="M40 250h300q10 0 10 -10v-105q0 -10 -4 -18l-113 -263q-3 -10 -13 -10h-129q-11 0 -7 12l122 280v2h-44q-6 0 -6 -6v-32q0 -10 -10 -10h-106q-10 0 -10 10v140q0 10 10 10z" />
    <glyph glyph-name="eight.inferior" unicode="&#x2088;" horiz-adv-x="376" 
d="M188 257q74 0 117 -37.5t43 -90.5q0 -42 -35 -75v-1q43 -35 43 -85q0 -61 -48 -96t-120 -35t-120 35t-48 96q0 50 43 85v1q-35 33 -35 75q0 53 43 90.5t117 37.5zM188 151q-12 0 -19.5 -7.5t-7.5 -18.5t7.5 -18.5t19.5 -7.5t19.5 7.5t7.5 18.5t-7.5 18.5t-19.5 7.5z
M188 5q-14 0 -23 -9t-9 -22t9 -22t23 -9t23 9t9 22t-9 22t-23 9z" />
    <glyph glyph-name="nine.inferior" unicode="&#x2089;" horiz-adv-x="376" 
d="M188 257q75 0 121.5 -38.5t46.5 -101.5q0 -55 -41 -124l-81 -139q-5 -10 -15 -10h-134q-11 0 -5 10l75 131l-1 1h-4q-58 0 -94 35t-36 96q0 63 46.5 101.5t121.5 38.5zM188 151q-15 0 -23.5 -9t-8.5 -22t8.5 -22t23.5 -9t23.5 9t8.5 22t-8.5 22t-23.5 9z" />
    <glyph glyph-name="uni208A" unicode="&#x208a;" horiz-adv-x="376" 
d="M142 184h92q10 0 10 -10v-78q0 -6 6 -6h76q10 0 10 -10v-90q0 -10 -10 -10h-76q-6 0 -6 -6v-78q0 -10 -10 -10h-92q-10 0 -10 10v78q0 6 -6 6h-76q-10 0 -10 10v90q0 10 10 10h76q6 0 6 6v78q0 10 10 10z" />
    <glyph glyph-name="uni208B" unicode="&#x208b;" horiz-adv-x="376" 
d="M50 90h276q10 0 10 -10v-90q0 -10 -10 -10h-276q-10 0 -10 10v90q0 10 10 10z" />
    <glyph glyph-name="uni208C" unicode="&#x208c;" horiz-adv-x="376" 
d="M50 163h276q10 0 10 -10v-90q0 -10 -10 -10h-276q-10 0 -10 10v90q0 10 10 10zM50 18h276q10 0 10 -10v-90q0 -10 -10 -10h-276q-10 0 -10 10v90q0 10 10 10z" />
    <glyph glyph-name="uni208D" unicode="&#x208d;" horiz-adv-x="256" 
d="M142 274h83q12 0 7 -10q-50 -115 -50 -217t50 -217q5 -10 -7 -10h-83q-7 0 -14 9q-74 98 -74 218t74 218q7 9 14 9z" />
    <glyph glyph-name="uni208E" unicode="&#x208e;" horiz-adv-x="256" 
d="M31 274h83q7 0 14 -9q74 -98 74 -218t-74 -218q-7 -9 -14 -9h-83q-12 0 -7 10q50 115 50 217t-50 217q-5 10 7 10z" />
    <glyph glyph-name="Euro" unicode="&#x20ac;" 
d="M325 692q120 0 198 -53q7 -5 7 -14v-127q0 -10 -10 -10h-141q-10 0 -10 10v22q0 6 -5 8q-12 5 -33 5q-35 0 -45 -28q-4 -11 -4 -57q0 -6 6 -6h134q11 0 9 -10l-10 -63q-2 -10 -10 -10h-123q-6 0 -6 -6v-23q0 -6 6 -6h114q11 0 9 -10l-10 -63q-2 -10 -10 -10h-103
q-6 0 -6 -6q0 -45 5 -58q10 -30 47 -30q22 0 30 4q5 3 5 8v23q0 10 10 10h141q10 0 10 -10v-130q0 -8 -7 -14q-71 -50 -202 -50q-181 0 -226 139q-14 44 -14 108q0 6 -6 6h-39q-10 0 -10 10v63q0 10 10 10h39q6 0 6 6v23q0 6 -6 6h-39q-10 0 -10 10v63q0 10 10 10h39
q6 0 6 6q0 56 14 100q46 144 230 144z" />
    <glyph glyph-name="uni20B9" unicode="&#x20b9;" 
d="M76 680h429q10 0 10 -10v-63q0 -10 -10 -10h-113q9 -11 21 -35h92q10 0 10 -10v-63q0 -10 -10 -10h-77q-2 -147 -140 -198l110 -119q4 -4 10 -4h70q10 0 10 -10v-138q0 -10 -10 -10h-161q-11 0 -19 8l-227 245q-5 5 -5 17v126q0 10 10 10h18q110 0 124 73h-142
q-10 0 -10 10v63q0 10 10 10h128q-27 35 -110 35h-18q-10 0 -10 10v63q0 10 10 10z" />
    <glyph glyph-name="uni20BA" unicode="&#x20ba;" 
d="M83 680h187q10 0 10 -10v-99l128 55q10 5 10 -6v-71q0 -9 -10 -14l-128 -56v-38l128 55q10 5 10 -6v-71q0 -9 -10 -14l-128 -56v-170q0 -6 6 -6q36 0 66 45.5t32 114.5q0 10 10 10h152q10 0 10 -10q0 -151 -77 -242t-236 -91h-207q-10 0 -10 10v138q0 10 10 10h31
q6 0 6 6v96l-37 -16q-10 -5 -10 6v71q0 9 10 14l37 16v39l-37 -16q-10 -5 -10 6v71q0 9 10 14l37 16v189q0 10 10 10z" />
    <glyph glyph-name="uni2113" unicode="&#x2113;" horiz-adv-x="465" 
d="M280 692q69 0 111.5 -43t42.5 -118q0 -140 -170 -293v-71q0 -37 33 -37q18 0 48 19q8 5 14 -2l58 -84q6 -8 -2 -14q-72 -61 -153 -61q-73 0 -114 38.5t-46 112.5l-23 -18q-8 -6 -14 2l-57 83q-5 9 2 14l91 67v160q0 245 179 245zM287 570q-8 0 -12.5 -5.5t-7.5 -25
t-3 -55.5v-67q42 67 42 119q0 34 -19 34z" />
    <glyph glyph-name="published" unicode="&#x2117;" horiz-adv-x="774" 
d="M387 692q152 0 252.5 -100t100.5 -253t-100.5 -253t-252.5 -100t-252.5 100t-100.5 253t100.5 253t252.5 100zM387 604q-117 0 -190.5 -74.5t-73.5 -190.5t73.5 -190.5t190.5 -74.5t190.5 74.5t73.5 190.5t-73.5 190.5t-190.5 74.5zM249 531h189q75 0 112.5 -35t37.5 -92
q0 -56 -38.5 -92t-111.5 -36h-37q-6 0 -6 -6v-23q0 -6 6 -6h16q10 0 10 -10v-74q0 -10 -10 -10h-168q-10 0 -10 10v74q0 10 10 10h14q6 0 6 6v184q0 6 -6 6h-14q-10 0 -10 10v74q0 10 10 10zM425 433h-24q-6 0 -6 -6v-49q0 -6 6 -6h24q38 0 38 32q0 29 -38 29z" />
    <glyph glyph-name="trademark" unicode="&#x2122;" horiz-adv-x="881" 
d="M26 680h350q10 0 10 -10v-117q0 -10 -10 -10h-80q-10 0 -10 10v16q0 6 -6 6h-13q-6 0 -6 -6v-181q0 -6 6 -6h15q10 0 10 -10v-76q0 -10 -10 -10h-162q-10 0 -10 10v76q0 10 10 10h15q6 0 6 6v181q0 6 -6 6h-13q-6 0 -6 -6v-16q0 -10 -10 -10h-80q-10 0 -10 10v117
q0 10 10 10zM735 680h120q10 0 10 -10v-76q0 -10 -10 -10h-11q-6 0 -6 -6v-190q0 -6 6 -6h11q10 0 10 -10v-76q0 -10 -10 -10h-136q-10 0 -10 10v76q0 10 10 10h5q6 0 6 6v83h-3l-52 -122q-4 -10 -14 -10h-47q-10 0 -14 10l-52 122h-3v-83q0 -6 6 -6h5q10 0 10 -10v-76
q0 -10 -10 -10h-136q-10 0 -10 10v76q0 10 10 10h11q6 0 6 6v190q0 6 -6 6h-11q-10 0 -10 10v76q0 10 10 10h122q11 0 15 -10l80 -180h4l79 180q4 10 15 10z" />
    <glyph glyph-name="Omega" unicode="&#x2126;" horiz-adv-x="638" 
d="M319 692q98 0 165.5 -43.5t97.5 -125.5q22 -60 22 -183q0 -65 -15 -114t-39 -67v-1h38q10 0 10 -10v-138q0 -10 -10 -10h-234q-10 0 -10 10v130q0 10 9 16q26 18 32.5 50.5t6.5 133.5t-8 123q-16 43 -65 43t-65 -43q-8 -22 -8 -123t6.5 -133.5t32.5 -50.5q9 -6 9 -16
v-130q0 -10 -10 -10h-234q-10 0 -10 10v138q0 10 10 10h38v1q-24 18 -39 67t-15 114q0 123 22 183q30 82 97.5 125.5t165.5 43.5z" />
    <glyph glyph-name="estimated" unicode="&#x212e;" horiz-adv-x="830" 
d="M415 671q156 0 267 -99.5t111 -247.5h-608q-10 0 -10 -11v-197q47 -51 110 -78.5t130 -27.5q73 0 139 32.5t113 88.5h57q-56 -68 -138 -105t-171 -37q-100 0 -186 42.5t-139.5 121.5t-53.5 177q0 145 110.5 243t268.5 98zM415 650q-70 0 -133 -28.5t-107 -78.5v-185
q0 -11 10 -11h461q9 0 9 11v184q-44 51 -108 79.5t-132 28.5z" />
    <glyph glyph-name="partialdiff" unicode="&#x2202;" horiz-adv-x="555" 
d="M252 692q130 0 204 -89t74 -248q0 -171 -74 -269t-209 -98q-102 0 -162 60.5t-60 152.5q0 95 57.5 155.5t156.5 60.5q58 0 98 -26h2q-1 68 -29 102t-77 34q-45 0 -89 -36q-8 -7 -14 3l-71 105q-5 8 1 16q31 34 84 55.5t108 21.5zM264 261q-26 0 -40.5 -16.5t-14.5 -44.5
q0 -24 12.5 -38t36.5 -14q54 0 72 93q-38 20 -66 20z" />
    <glyph glyph-name="Delta" unicode="&#x2206;" horiz-adv-x="708" 
d="M255 680h204q10 0 13 -10l230 -660q3 -10 -7 -10h-682q-10 0 -7 10l236 660q3 10 13 10zM354 451l-75 -263q-1 -6 5 -6h141q7 0 5 6l-73 263h-3z" />
    <glyph glyph-name="product" unicode="&#x220f;" horiz-adv-x="674" 
d="M16 740h642q10 0 10 -10v-138q0 -10 -10 -10h-33q-6 0 -6 -6v-746q0 -10 -10 -10h-187q-10 0 -10 10v738q0 6 -6 6h-138q-6 0 -6 -6v-738q0 -10 -10 -10h-187q-10 0 -10 10v746q0 6 -6 6h-33q-10 0 -10 10v138q0 10 10 10z" />
    <glyph glyph-name="summation" unicode="&#x2211;" horiz-adv-x="568" 
d="M34 740h494q10 0 10 -10v-202q0 -10 -10 -10h-149q-10 0 -10 10v28q0 6 -6 6h-110l153 -229q3 -7 0 -14l-167 -321h134q6 0 6 6v30q0 10 10 10h149q10 0 10 -10v-204q0 -10 -10 -10h-508q-10 0 -10 10v162q0 5 2 9l164 313l-159 244q-3 6 -3 11v161q0 10 10 10z" />
    <glyph glyph-name="minus" unicode="&#x2212;" 
d="M52 358h466q10 0 10 -10v-144q0 -10 -10 -10h-466q-10 0 -10 10v144q0 10 10 10z" />
    <glyph glyph-name="uni2215" unicode="&#x2215;" horiz-adv-x="181" 
d="M233 692h122q10 0 4 -10l-395 -684q-6 -10 -16 -10h-122q-10 0 -4 10l395 684q6 10 16 10z" />
    <glyph glyph-name="uni2219" unicode="&#x2219;" horiz-adv-x="268" 
d="M54 355h160q10 0 10 -10v-160q0 -10 -10 -10h-160q-10 0 -10 10v160q0 10 10 10z" />
    <glyph glyph-name="radical" unicode="&#x221a;" horiz-adv-x="667" 
d="M495 740h163q11 0 8 -10l-248 -900q-2 -10 -15 -10h-138q-10 0 -14 10l-105 218q-3 6 -9 3l-60 -30q-9 -5 -13 4l-50 101q-5 10 4 13l197 95q10 5 14 -4l78 -165h3l173 665q3 10 12 10z" />
    <glyph glyph-name="infinity" unicode="&#x221e;" horiz-adv-x="729" 
d="M532 424q77 0 127 -49t50 -129q0 -78 -49.5 -127.5t-126.5 -49.5q-82 0 -169 82q-83 -82 -169 -82q-76 0 -125.5 49t-49.5 128t50 128.5t127 49.5q80 0 167 -84q46 45 85 64.5t83 19.5zM201 296q-23 0 -35 -13.5t-12 -34.5q0 -22 12.5 -36.5t34.5 -14.5q16 0 31.5 9.5
t44.5 39.5q-46 50 -76 50zM528 296q-16 0 -31.5 -9.5t-44.5 -40.5q46 -49 76 -49q23 0 35 14t12 37q0 21 -12.5 34.5t-34.5 13.5z" />
    <glyph glyph-name="integral" unicode="&#x222b;" horiz-adv-x="390" 
d="M300 740q38 0 58 -4q10 -2 10 -13v-135q0 -12 -10 -12q-1 0 -12 1.5t-17 1.5q-19 0 -26.5 -10.5t-7.5 -36.5v-502q0 -112 -49 -161t-156 -49q-38 0 -58 4q-10 2 -10 13v135q0 12 10 12q1 0 12 -1.5t17 -1.5q19 0 26.5 10.5t7.5 36.5v502q0 112 49 161t156 49z" />
    <glyph glyph-name="approxequal" unicode="&#x2248;" 
d="M194 493q52 0 100 -31q39 -25 62 -25q32 0 58 44q5 9 14 4l98 -63q8 -5 4 -14q-24 -53 -64.5 -86.5t-89.5 -33.5q-52 0 -100 31q-39 25 -62 25q-32 0 -58 -44q-5 -9 -14 -4l-98 63q-8 5 -4 14q24 53 64.5 86.5t89.5 33.5zM194 261q52 0 100 -31q39 -25 62 -25q32 0 58 44
q5 9 14 4l98 -63q8 -5 4 -14q-24 -53 -64.5 -86.5t-89.5 -33.5q-52 0 -100 31q-39 25 -62 25q-32 0 -58 -44q-5 -9 -14 -4l-98 63q-8 5 -4 14q24 53 64.5 86.5t89.5 33.5z" />
    <glyph glyph-name="notequal" unicode="&#x2260;" 
d="M387 576h97q4 0 6 -3t0 -7l-47 -92h75q10 0 10 -10v-144q0 -10 -10 -10h-157l-35 -68h192q10 0 10 -10v-144q0 -10 -10 -10h-275l-46 -92q-5 -10 -14 -10h-97q-4 0 -6 3t0 7l46 92h-74q-10 0 -10 10v144q0 10 10 10h157l35 68h-192q-10 0 -10 10v144q0 10 10 10h274
l47 92q5 10 14 10z" />
    <glyph glyph-name="lessequal" unicode="&#x2264;" 
d="M52 495l466 164q10 3 10 -7v-153q0 -9 -10 -13l-220 -66v-2l220 -66q10 -4 10 -13v-153q0 -10 -10 -7l-466 164q-10 3 -10 14v124q0 11 10 14zM52 164h466q10 0 10 -10v-144q0 -10 -10 -10h-466q-10 0 -10 10v144q0 10 10 10z" />
    <glyph glyph-name="greaterequal" unicode="&#x2265;" 
d="M52 659l466 -164q10 -3 10 -14v-124q0 -11 -10 -14l-466 -164q-10 -3 -10 7v153q0 9 10 13l220 66v2l-220 66q-10 4 -10 13v153q0 10 10 7zM52 164h466q10 0 10 -10v-144q0 -10 -10 -10h-466q-10 0 -10 10v144q0 10 10 10z" />
    <glyph glyph-name="lozenge" unicode="&#x25ca;" horiz-adv-x="556" 
d="M210 710h136q10 0 14 -10l174 -364q3 -7 0 -14l-174 -364q-4 -10 -14 -10h-136q-10 0 -14 10l-174 364q-3 7 0 14l174 364q4 10 14 10zM277 521l-80 -192l82 -192h2l78 192l-80 192h-2z" />
    <glyph glyph-name="uniF8FF" unicode="&#xf8ff;" horiz-adv-x="558" 
d="M10 680h538q10 0 10 -10v-660q0 -10 -10 -10h-538q-10 0 -10 10v660q0 10 10 10zM462 594h-366q-6 0 -6 -6v-496q0 -6 6 -6h366q6 0 6 6v496q0 6 -6 6zM283 563q67 0 106.5 -35.5t39.5 -88.5q0 -30 -11 -52.5t-38 -50.5l-31 -32q-12 -13 -12 -32v-5q0 -10 -10 -10h-97
q-10 0 -10 10v23q0 31 22 54l31 32q32 33 32 54q0 28 -29 28q-14 0 -22 -5q-4 -3 -4 -8v-23q0 -10 -10 -10h-87q-10 0 -10 10v88q0 10 7 14q53 39 133 39zM230 217h97q10 0 10 -10v-84q0 -10 -10 -10h-97q-10 0 -10 10v84q0 10 10 10z" />
    <glyph glyph-name="Z.alt01" horiz-adv-x="562" 
d="M37 680h497q10 0 10 -10v-151q0 -5 -3 -10l-82 -94h47q10 0 10 -10v-118q0 -10 -10 -10h-168l-99 -114v-3h121q6 0 6 6v38q0 10 10 10h158q10 0 10 -10v-194q0 -10 -10 -10h-508q-10 0 -10 10v151q0 5 3 10l92 106h-57q-10 0 -10 10v118q0 10 10 10h178l89 102v3h-114
q-6 0 -6 -6v-34q0 -10 -10 -10h-154q-10 0 -10 10v190q0 10 10 10z" />
    <glyph glyph-name="Zacute.alt01" horiz-adv-x="562" 
d="M310 890h167q5 0 6.5 -3t-1.5 -7l-134 -132q-10 -10 -21 -10h-141q-4 0 -5.5 3t1.5 7l110 132q8 10 18 10zM37 680h497q10 0 10 -10v-151q0 -5 -3 -10l-82 -94h47q10 0 10 -10v-118q0 -10 -10 -10h-168l-99 -114v-3h121q6 0 6 6v38q0 10 10 10h158q10 0 10 -10v-194
q0 -10 -10 -10h-508q-10 0 -10 10v151q0 5 3 10l92 106h-57q-10 0 -10 10v118q0 10 10 10h178l89 102v3h-114q-6 0 -6 -6v-34q0 -10 -10 -10h-154q-10 0 -10 10v190q0 10 10 10z" />
    <glyph glyph-name="Zcaron.alt01" horiz-adv-x="562" 
d="M351 890h113q5 0 6.5 -3t-1.5 -7l-114 -144q-7 -10 -19 -10h-108q-12 0 -19 10l-114 144q-3 4 -1.5 7t6.5 3h113q14 0 24 -10l44 -44h2l44 44q10 10 24 10zM37 680h497q10 0 10 -10v-151q0 -5 -3 -10l-82 -94h47q10 0 10 -10v-118q0 -10 -10 -10h-168l-99 -114v-3h121
q6 0 6 6v38q0 10 10 10h158q10 0 10 -10v-194q0 -10 -10 -10h-508q-10 0 -10 10v151q0 5 3 10l92 106h-57q-10 0 -10 10v118q0 10 10 10h178l89 102v3h-114q-6 0 -6 -6v-34q0 -10 -10 -10h-154q-10 0 -10 10v190q0 10 10 10z" />
    <glyph glyph-name="Zdotaccent.alt01" horiz-adv-x="562" 
d="M200 883h164q10 0 10 -10v-124q0 -10 -10 -10h-164q-10 0 -10 10v124q0 10 10 10zM37 680h497q10 0 10 -10v-151q0 -5 -3 -10l-82 -94h47q10 0 10 -10v-118q0 -10 -10 -10h-168l-99 -114v-3h121q6 0 6 6v38q0 10 10 10h158q10 0 10 -10v-194q0 -10 -10 -10h-508
q-10 0 -10 10v151q0 5 3 10l92 106h-57q-10 0 -10 10v118q0 10 10 10h178l89 102v3h-114q-6 0 -6 -6v-34q0 -10 -10 -10h-154q-10 0 -10 10v190q0 10 10 10z" />
    <glyph glyph-name="a.alt01" horiz-adv-x="571" 
d="M193 500q88 0 122 -56h1v36q0 10 10 10h221q10 0 10 -10v-138q0 -10 -10 -10h-28q-6 0 -6 -5v-163q0 -6 6 -6h28q10 0 10 -10v-138q0 -10 -10 -10h-221q-10 0 -10 10v36h-1q-34 -56 -122 -56q-118 0 -155 115q-17 52 -17 140t17 140q37 115 155 115zM268 342
q-33 0 -42 -28q-6 -20 -6 -69t6 -69q9 -28 42 -28t42 28q6 19 6 69q0 49 -6 69q-9 28 -42 28z" />
    <glyph glyph-name="aacute.alt01" horiz-adv-x="571" 
d="M296 704h165q4 0 5.5 -3.5t-0.5 -6.5l-106 -144q-8 -10 -16 -10h-143q-10 0 -5 10l83 144q7 10 17 10zM193 500q88 0 122 -56h1v36q0 10 10 10h221q10 0 10 -10v-138q0 -10 -10 -10h-28q-6 0 -6 -5v-163q0 -6 6 -6h28q10 0 10 -10v-138q0 -10 -10 -10h-221q-10 0 -10 10
v36h-1q-34 -56 -122 -56q-118 0 -155 115q-17 52 -17 140t17 140q37 115 155 115zM268 342q-33 0 -42 -28q-6 -20 -6 -69t6 -69q9 -28 42 -28t42 28q6 19 6 69q0 49 -6 69q-9 28 -42 28z" />
    <glyph glyph-name="abreve.alt01" horiz-adv-x="571" 
d="M365 693h74q14 0 14 -11q0 -64 -49.5 -108.5t-120.5 -44.5t-120.5 44.5t-49.5 108.5q0 11 14 11h74q11 0 16 -11q19 -37 66 -37t66 37q5 11 16 11zM193 500q88 0 122 -56h1v36q0 10 10 10h221q10 0 10 -10v-138q0 -10 -10 -10h-28q-6 0 -6 -5v-163q0 -6 6 -6h28
q10 0 10 -10v-138q0 -10 -10 -10h-221q-10 0 -10 10v36h-1q-34 -56 -122 -56q-118 0 -155 115q-17 52 -17 140t17 140q37 115 155 115zM268 342q-33 0 -42 -28q-6 -20 -6 -69t6 -69q9 -28 42 -28t42 28q6 19 6 69q0 49 -6 69q-9 28 -42 28z" />
    <glyph glyph-name="acircumflex.alt01" horiz-adv-x="571" 
d="M238 702h108q12 0 19 -10l114 -144q3 -4 1.5 -7t-6.5 -3h-113q-14 0 -24 10l-44 44h-2l-44 -44q-10 -10 -24 -10h-113q-5 0 -6.5 3t1.5 7l114 144q7 10 19 10zM193 500q88 0 122 -56h1v36q0 10 10 10h221q10 0 10 -10v-138q0 -10 -10 -10h-28q-6 0 -6 -5v-163q0 -6 6 -6
h28q10 0 10 -10v-138q0 -10 -10 -10h-221q-10 0 -10 10v36h-1q-34 -56 -122 -56q-118 0 -155 115q-17 52 -17 140t17 140q37 115 155 115zM268 342q-33 0 -42 -28q-6 -20 -6 -69t6 -69q9 -28 42 -28t42 28q6 19 6 69q0 49 -6 69q-9 28 -42 28z" />
    <glyph glyph-name="adieresis.alt01" horiz-adv-x="571" 
d="M124 680h126q10 0 10 -10v-124q0 -10 -10 -10h-126q-10 0 -10 10v124q0 10 10 10zM334 680h126q10 0 10 -10v-124q0 -10 -10 -10h-126q-10 0 -10 10v124q0 10 10 10zM193 500q88 0 122 -56h1v36q0 10 10 10h221q10 0 10 -10v-138q0 -10 -10 -10h-28q-6 0 -6 -5v-163
q0 -6 6 -6h28q10 0 10 -10v-138q0 -10 -10 -10h-221q-10 0 -10 10v36h-1q-34 -56 -122 -56q-118 0 -155 115q-17 52 -17 140t17 140q37 115 155 115zM268 342q-33 0 -42 -28q-6 -20 -6 -69t6 -69q9 -28 42 -28t42 28q6 19 6 69q0 49 -6 69q-9 28 -42 28z" />
    <glyph glyph-name="agrave.alt01" horiz-adv-x="571" 
d="M112 704h165q10 0 17 -10l83 -144q5 -10 -5 -10h-143q-9 0 -16 10l-106 144q-1 2 -1 4.5t1.5 4t4.5 1.5zM193 500q88 0 122 -56h1v36q0 10 10 10h221q10 0 10 -10v-138q0 -10 -10 -10h-28q-6 0 -6 -5v-163q0 -6 6 -6h28q10 0 10 -10v-138q0 -10 -10 -10h-221
q-10 0 -10 10v36h-1q-34 -56 -122 -56q-118 0 -155 115q-17 52 -17 140t17 140q37 115 155 115zM268 342q-33 0 -42 -28q-6 -20 -6 -69t6 -69q9 -28 42 -28t42 28q6 19 6 69q0 49 -6 69q-9 28 -42 28z" />
    <glyph glyph-name="amacron.alt01" horiz-adv-x="571" 
d="M137 676h324q10 0 10 -10v-108q0 -10 -10 -10h-324q-10 0 -10 10v108q0 10 10 10zM193 500q88 0 122 -56h1v36q0 10 10 10h221q10 0 10 -10v-138q0 -10 -10 -10h-28q-6 0 -6 -5v-163q0 -6 6 -6h28q10 0 10 -10v-138q0 -10 -10 -10h-221q-10 0 -10 10v36h-1
q-34 -56 -122 -56q-118 0 -155 115q-17 52 -17 140t17 140q37 115 155 115zM268 342q-33 0 -42 -28q-6 -20 -6 -69t6 -69q9 -28 42 -28t42 28q6 19 6 69q0 49 -6 69q-9 28 -42 28z" />
    <glyph glyph-name="aogonek.alt01" horiz-adv-x="571" 
d="M193 500q88 0 122 -56h1v36q0 10 10 10h221q10 0 10 -10v-138q0 -10 -10 -10h-28q-6 0 -6 -5v-163q0 -6 6 -6h28q10 0 10 -10v-138q0 -10 -10 -10h-57q-86 -35 -86 -56q0 -10 13 -10q11 0 24 9q8 5 13 -3l46 -83q5 -8 -4 -14q-54 -35 -112 -35q-55 0 -86.5 28.5
t-31.5 72.5q0 56 50 98v39h-1q-34 -56 -122 -56q-118 0 -155 115q-17 52 -17 140t17 140q37 115 155 115zM268 342q-33 0 -42 -28q-6 -20 -6 -69t6 -69q9 -28 42 -28t42 28q6 19 6 69q0 49 -6 69q-9 28 -42 28z" />
    <glyph glyph-name="aring.alt01" horiz-adv-x="571" 
d="M287 756q53 0 88.5 -34.5t35.5 -87.5t-35.5 -87.5t-88.5 -34.5t-88.5 34.5t-35.5 87.5t35.5 87.5t88.5 34.5zM287 675q-17 0 -28.5 -11.5t-11.5 -29.5t11.5 -29.5t28.5 -11.5t28.5 11.5t11.5 29.5t-11.5 29.5t-28.5 11.5zM193 500q88 0 122 -56h1v36q0 10 10 10h221
q10 0 10 -10v-138q0 -10 -10 -10h-28q-6 0 -6 -5v-163q0 -6 6 -6h28q10 0 10 -10v-138q0 -10 -10 -10h-221q-10 0 -10 10v36h-1q-34 -56 -122 -56q-118 0 -155 115q-17 52 -17 140t17 140q37 115 155 115zM268 342q-33 0 -42 -28q-6 -20 -6 -69t6 -69q9 -28 42 -28t42 28
q6 19 6 69q0 49 -6 69q-9 28 -42 28z" />
    <glyph glyph-name="atilde.alt01" horiz-adv-x="571" 
d="M211 705q44 0 94 -26q32 -17 61 -17q38 0 81 33q11 7 11 -4v-92q0 -14 -10 -24q-41 -39 -86 -39q-44 0 -94 26q-32 17 -61 17q-37 0 -81 -33q-11 -7 -11 4v92q0 14 10 24q41 39 86 39zM193 500q88 0 122 -56h1v36q0 10 10 10h221q10 0 10 -10v-138q0 -10 -10 -10h-28
q-6 0 -6 -5v-163q0 -6 6 -6h28q10 0 10 -10v-138q0 -10 -10 -10h-221q-10 0 -10 10v36h-1q-34 -56 -122 -56q-118 0 -155 115q-17 52 -17 140t17 140q37 115 155 115zM268 342q-33 0 -42 -28q-6 -20 -6 -69t6 -69q9 -28 42 -28t42 28q6 19 6 69q0 49 -6 69q-9 28 -42 28z
" />
    <glyph glyph-name="germandbls.alt01" horiz-adv-x="639" 
d="M251 680h78q10 0 10 -10v-124q0 -10 -10 -10h-28q-25 0 -34.5 -8.5t-9.5 -27.5v-4q0 -6 6 -6h330q10 0 10 -10v-120q0 -5 -6 -15l-76 -94v-4q96 -60 96 -182q0 -111 -78.5 -178t-225.5 -67q-10 0 -10 10v132q0 10 10 10q108 0 108 83q0 75 -88 84q-10 2 -10 10v119
q0 8 5 14l55 64v4h-120q-6 0 -6 -6v-180q0 -6 6 -6h19q10 0 10 -10v-138q0 -10 -10 -10h-258q-10 0 -10 10v138q0 10 10 10h29q6 0 6 6v336q0 99 43.5 139.5t148.5 40.5z" />
    <glyph glyph-name="f_i" horiz-adv-x="661" 
d="M249 680h78q10 0 10 -10v-127q0 -10 -10 -10h-28q-25 0 -34.5 -7t-9.5 -26v-4q0 -6 6 -6h64q10 0 10 -10v-138q0 -10 -10 -10h-64q-6 0 -6 -6v-162q0 -6 6 -6h49q10 0 10 -10v-138q0 -10 -10 -10h-286q-10 0 -10 10v138q0 10 10 10h28q6 0 6 6v162q0 6 -6 6h-28
q-10 0 -10 10v138q0 10 10 10h28q6 0 6 6v4q0 99 43.5 139.5t147.5 40.5zM416 680h177q10 0 10 -10v-124q0 -10 -10 -10h-177q-10 0 -10 10v124q0 10 10 10zM372 490h221q10 0 10 -10v-316q0 -6 6 -6h28q10 0 10 -10v-138q0 -10 -10 -10h-265q-10 0 -10 10v138q0 10 10 10
h28q6 0 6 6v162q0 6 -6 6h-28q-10 0 -10 10v138q0 10 10 10z" />
    <glyph glyph-name="f_l" horiz-adv-x="673" 
d="M249 680h78q10 0 10 -10v-127q0 -10 -10 -10h-28q-25 0 -34.5 -7t-9.5 -26v-4q0 -6 6 -6h64q10 0 10 -10v-138q0 -10 -10 -10h-64q-6 0 -6 -6v-162q0 -6 6 -6h49q10 0 10 -10v-138q0 -10 -10 -10h-286q-10 0 -10 10v138q0 10 10 10h28q6 0 6 6v162q0 6 -6 6h-28
q-10 0 -10 10v138q0 10 10 10h28q6 0 6 6v4q0 99 43.5 139.5t147.5 40.5zM358 680h221q10 0 10 -10v-462q0 -50 41 -50h19q10 0 10 -10v-140q0 -10 -10 -10h-68q-103 0 -146 42.5t-43 146.5v329q0 6 -6 6h-28q-10 0 -10 10v138q0 10 10 10z" />
    <glyph glyph-name="uni0163.sc" horiz-adv-x="600" 
 />
    <glyph glyph-name="uni021B.sc" horiz-adv-x="600" 
 />
    <glyph glyph-name="zero.alt01" 
d="M285 692q88 0 147.5 -40t83.5 -113q17 -51 17 -199t-17 -199q-24 -73 -83.5 -113t-147.5 -40t-147.5 40t-83.5 113q-17 51 -17 199t17 199q24 73 83.5 113t147.5 40zM285 533q-33 0 -42 -28q-6 -18 -6 -165v-34l93 184q-3 43 -45 43zM333 371l-93 -184q7 -40 45 -40
q33 0 42 28q6 18 6 165v31z" />
    <glyph glyph-name="six.alt01" 
d="M291 692q64 0 118 -14t82 -33q7 -4 7 -13v-136q0 -10 -10 -10h-149q-10 0 -10 10v24q0 9 -6 11q-9 3 -25 3q-33 0 -46.5 -19.5t-13.5 -65.5v-23h1q27 21 81 21q156 0 196 -124q12 -34 12 -105q0 -54 -11 -89q-22 -68 -81.5 -104.5t-149.5 -36.5t-149 36.5t-81 104.5
q-12 38 -12 89v211q0 69 19 123q23 66 83 103t145 37zM286 288q-35 0 -44 -30q-4 -14 -4 -40t4 -40q9 -30 44 -30t44 30q4 14 4 40t-4 40q-9 30 -44 30z" />
    <glyph glyph-name="seven.alt01" 
d="M50 680h464q10 0 10 -10v-161q0 -4 -2 -10l-53 -132h41q10 0 10 -10v-130q0 -10 -10 -10h-101l-83 -207q-4 -10 -14 -10h-188q-5 0 -7 3.5t-1 7.5l84 206h-90q-10 0 -10 10v130q0 10 10 10h152l57 138v3h-88q-6 0 -6 -6v-45q0 -10 -10 -10h-165q-10 0 -10 10v213
q0 10 10 10z" />
    <glyph glyph-name="nine.alt01" 
d="M284 692q90 0 149 -36.5t81 -104.5q12 -38 12 -89v-211q0 -66 -20 -123q-24 -69 -86.5 -104.5t-149.5 -35.5q-130 0 -199 48q-7 4 -7 13v135q0 10 10 10h152q10 0 10 -10v-24q0 -9 6 -11q9 -3 30 -3q33 0 46.5 19.5t13.5 65.5v23h-1q-27 -21 -81 -21q-156 0 -196 124
q-12 35 -12 105q0 54 11 89q22 68 81.5 104.5t149.5 36.5zM284 532q-35 0 -44 -30q-4 -14 -4 -40t4 -40q9 -30 44 -30t44 30q4 14 4 40t-4 40q-9 30 -44 30z" />
    <glyph glyph-name="zero.alt02" 
d="M285 692q88 0 147.5 -40t83.5 -113q17 -51 17 -199t-17 -199q-24 -73 -83.5 -113t-147.5 -40t-147.5 40t-83.5 113q-17 51 -17 199t17 199q24 73 83.5 113t147.5 40zM285 533q-33 0 -42 -28q-6 -18 -6 -165v-34l93 184q-3 43 -45 43zM333 371l-93 -184q7 -40 45 -40
q33 0 42 28q6 18 6 165v31z" />
    <glyph glyph-name="six.alt02" 
d="M284 692q64 0 118 -14t82 -33q7 -4 7 -13v-136q0 -10 -10 -10h-149q-10 0 -10 10v24q0 9 -6 11q-9 3 -25 3q-33 0 -46.5 -19.5t-13.5 -65.5v-23h1q27 21 81 21q156 0 196 -124q12 -34 12 -105q0 -54 -11 -89q-22 -68 -81.5 -104.5t-149.5 -36.5t-149 36.5t-81 104.5
q-12 38 -12 89v211q0 69 19 123q23 66 83 103t145 37zM279 288q-35 0 -44 -30q-4 -14 -4 -40t4 -40q9 -30 44 -30t44 30q4 14 4 40t-4 40q-9 30 -44 30z" />
    <glyph glyph-name="seven.alt02" 
d="M42 680h464q10 0 10 -10v-161q0 -4 -2 -10l-53 -132h41q10 0 10 -10v-130q0 -10 -10 -10h-101l-83 -207q-4 -10 -14 -10h-188q-5 0 -7 3.5t-1 7.5l84 206h-90q-10 0 -10 10v130q0 10 10 10h152l57 138v3h-88q-6 0 -6 -6v-45q0 -10 -10 -10h-165q-10 0 -10 10v213
q0 10 10 10z" />
    <glyph glyph-name="nine.alt02" 
d="M277 692q90 0 149 -36.5t81 -104.5q12 -38 12 -89v-211q0 -66 -20 -123q-24 -69 -86.5 -104.5t-149.5 -35.5q-130 0 -199 48q-7 4 -7 13v135q0 10 10 10h152q10 0 10 -10v-24q0 -9 6 -11q9 -3 30 -3q33 0 46.5 19.5t13.5 65.5v23h-1q-27 -21 -81 -21q-156 0 -196 124
q-12 35 -12 105q0 54 11 89q22 68 81.5 104.5t149.5 36.5zM277 532q-35 0 -44 -30q-4 -14 -4 -40t4 -40q9 -30 44 -30t44 30q4 14 4 40t-4 40q-9 30 -44 30z" />
    <glyph glyph-name="zero.lf" 
d="M285 692q88 0 147.5 -40t83.5 -113q17 -51 17 -199t-17 -199q-24 -73 -83.5 -113t-147.5 -40t-147.5 40t-83.5 113q-17 51 -17 199t17 199q24 73 83.5 113t147.5 40zM285 532q-31 0 -40 -27q-6 -18 -6 -165t6 -165q9 -27 40 -27t40 27q6 18 6 165t-6 165q-9 27 -40 27z
" />
    <glyph glyph-name="one.lf" horiz-adv-x="530" 
d="M196 680h171q10 0 10 -10v-506q0 -6 6 -6h123q10 0 10 -10v-138q0 -10 -10 -10h-458q-10 0 -10 10v138q0 10 10 10h123q6 0 6 6v306h-2l-124 -70q-3 -2 -6 -2.5t-5 2t-2 6.5v173q0 8 7 14l133 81q8 6 18 6z" />
    <glyph glyph-name="two.lf" horiz-adv-x="536" 
d="M267 692q108 0 171 -54t63 -149q0 -102 -86 -183l-158 -148v-2h79q6 0 6 6v32q0 10 10 10h146q10 0 10 -10v-184q0 -10 -10 -10h-459q-10 0 -10 10v134q0 8 5 14l239 249q35 36 35 75q0 52 -52 52q-22 0 -35 -6q-5 -2 -5 -9v-53q0 -10 -10 -10h-151q-10 0 -10 10v157
q0 9 7 14q86 55 215 55z" />
    <glyph glyph-name="three.lf" horiz-adv-x="548" 
d="M269 692q112 0 174 -51.5t62 -136.5q0 -88 -77 -139v-2q88 -49 88 -163q0 -96 -66 -154t-181 -58q-138 0 -215 51q-7 4 -7 14v155q0 10 10 10h151q10 0 10 -10v-46q0 -7 7 -10q14 -6 40 -6q57 0 57 62q0 30 -16.5 45.5t-46.5 15.5h-27q-10 0 -10 10v137q0 10 10 10h25
q26 0 40.5 14.5t14.5 39.5q0 54 -53 54q-20 0 -34 -6q-6 -3 -6 -9v-39q0 -10 -10 -10h-151q-10 0 -10 10v141q0 10 7 14q83 57 214 57z" />
    <glyph glyph-name="four.lf" horiz-adv-x="566" 
d="M212 680h192q12 0 7 -11l-172 -406v-3h61q6 0 6 6v90q0 10 10 10h168q10 0 10 -10v-90q0 -6 5 -6h33q10 0 10 -10v-150q0 -10 -10 -10h-32q-6 0 -6 -6v-74q0 -10 -10 -10h-168q-10 0 -10 10v74q0 6 -6 6h-262q-10 0 -10 10v158q0 7 2 11l167 403q3 8 15 8z" />
    <glyph glyph-name="five.lf" horiz-adv-x="547" 
d="M65 680h415q10 0 10 -10v-144q0 -10 -10 -10h-255q-6 0 -6 -6v-92h2q36 40 108 40q135 0 172 -114q14 -42 14 -121q0 -52 -15 -99q-43 -136 -235 -136q-125 0 -204 52q-6 5 -6 13v151q0 10 10 10h151q10 0 10 -10v-42q0 -7 6 -9q13 -5 33 -5q40 0 50 28q6 16 6 48t-6 49
q-9 27 -44 27q-30 0 -42 -23q-5 -10 -14 -10h-150q-10 0 -10 10v393q0 10 10 10z" />
    <glyph glyph-name="six.lf" horiz-adv-x="566" 
d="M239 680h193q12 0 7 -11l-127 -244l1 -1q9 3 24 3q87 0 142 -60.5t55 -154.5q0 -99 -69.5 -161.5t-181.5 -62.5t-181.5 62.5t-69.5 161.5q0 48 13.5 91.5t46.5 107.5l134 261q4 8 13 8zM283 276q-28 0 -45.5 -18t-17.5 -46t17.5 -46t45.5 -18t45.5 18t17.5 46t-17.5 46
t-45.5 18z" />
    <glyph glyph-name="seven.lf" horiz-adv-x="544" 
d="M42 680h464q10 0 10 -10v-161q0 -4 -2 -10l-196 -489q-4 -10 -14 -10h-188q-5 0 -7 3.5t-1 7.5l203 494v3h-88q-6 0 -6 -6v-55q0 -10 -10 -10h-165q-10 0 -10 10v223q0 10 10 10z" />
    <glyph glyph-name="eight.lf" horiz-adv-x="568" 
d="M284 692q108 0 172.5 -60t64.5 -147q0 -83 -59 -132v-2q74 -54 74 -149q0 -98 -72 -156t-180 -58t-180 58t-72 156q0 95 74 149v2q-59 49 -59 132q0 87 64.5 147t172.5 60zM284 532q-23 0 -38 -14.5t-15 -37.5t15 -37.5t38 -14.5t38 14.5t15 37.5t-15 37.5t-38 14.5z
M284 272q-27 0 -45.5 -17.5t-18.5 -44.5t18.5 -44.5t45.5 -17.5t45.5 17.5t18.5 44.5t-18.5 44.5t-45.5 17.5z" />
    <glyph glyph-name="nine.lf" horiz-adv-x="566" 
d="M283 692q112 0 181.5 -62.5t69.5 -161.5q0 -48 -13.5 -91.5t-46.5 -107.5l-134 -261q-4 -8 -13 -8h-193q-12 0 -7 11l127 244l-1 1q-9 -3 -24 -3q-87 0 -142 60.5t-55 154.5q0 99 69.5 161.5t181.5 62.5zM283 532q-28 0 -45.5 -18t-17.5 -46t17.5 -46t45.5 -18t45.5 18
t17.5 46t-17.5 46t-45.5 18z" />
    <glyph glyph-name="zero.osf" horiz-adv-x="582" 
d="M291 502q119 0 193.5 -72.5t74.5 -184.5t-74.5 -184.5t-193.5 -72.5t-193.5 72.5t-74.5 184.5t74.5 184.5t193.5 72.5zM291 326q-33 0 -52.5 -23t-19.5 -58t19.5 -58t52.5 -23t52.5 23t19.5 58t-19.5 58t-52.5 23z" />
    <glyph glyph-name="one.osf" horiz-adv-x="511" 
d="M192 490h171q10 0 10 -10v-316q0 -6 6 -6h108q10 0 10 -10v-138q0 -10 -10 -10h-433q-10 0 -10 10v138q0 10 10 10h113q6 0 6 6v142h-2l-114 -38q-13 -4 -13 7v152q0 11 10 15l116 44q11 4 22 4z" />
    <glyph glyph-name="two.osf" horiz-adv-x="532" 
d="M271 502q115 0 174 -45t59 -124q0 -56 -24 -89t-70 -57l-76 -39v-2h160q10 0 10 -10v-126q0 -10 -10 -10h-454q-10 0 -10 10v111q0 11 9 17l204 111q42 24 55 36.5t13 27.5q0 39 -53 39q-24 0 -40 -6q-6 -2 -6 -9v-44q0 -10 -10 -10h-150q-10 0 -10 10v146q0 10 7 14
q87 49 222 49z" />
    <glyph glyph-name="three.osf" horiz-adv-x="530" 
d="M34 490h446q10 0 10 -10v-139q0 -11 -7 -18l-108 -117v-2q132 -39 132 -186q0 -101 -68.5 -155.5t-184.5 -54.5q-131 0 -212 43q-7 4 -7 12v157q0 10 10 10h149q10 0 10 -10v-38q0 -8 5 -10q12 -6 43 -6q61 0 61 60q0 58 -76 58h-47q-10 0 -10 10v129q0 9 8 17l91 92v2
h-83q-6 0 -6 -6v-28q0 -10 -10 -10h-146q-10 0 -10 10v180q0 10 10 10z" />
    <glyph glyph-name="four.osf" horiz-adv-x="558" 
d="M183 490h191q12 0 7 -11l-150 -306v-3h61q6 0 6 6v90q0 10 10 10h172q10 0 10 -10v-90q0 -6 5 -6h33q10 0 10 -10v-150q0 -10 -10 -10h-32q-6 0 -6 -6v-164q0 -10 -10 -10h-172q-10 0 -10 10v164q0 6 -6 6h-262q-10 0 -10 10v157q0 8 3 14l145 301q4 8 15 8z" />
    <glyph glyph-name="five.osf" horiz-adv-x="538" 
d="M65 490h415q10 0 10 -10v-144q0 -10 -10 -10h-255q-6 0 -6 -6v-92h2q36 40 108 40q135 0 172 -114q14 -42 14 -111q0 -50 -15 -97q-46 -138 -233 -138q-124 0 -204 45q-8 5 -8 14v151q0 10 10 10h151q10 0 10 -10v-38q0 -7 6 -9q15 -5 34 -5q38 0 49 30q6 16 6 42
q0 28 -6 45q-9 27 -42 27q-28 0 -40 -23q-5 -10 -14 -10h-154q-10 0 -10 10v393q0 10 10 10z" />
    <glyph glyph-name="six.osf" horiz-adv-x="548" 
d="M230 680h193q13 0 7 -11l-127 -244l1 -1q9 3 24 3q87 0 142 -60.5t55 -154.5q0 -99 -69.5 -161.5t-181.5 -62.5t-181.5 62.5t-69.5 161.5q0 48 13.5 91.5t46.5 107.5l134 261q4 8 13 8zM274 276q-28 0 -45.5 -18t-17.5 -46t17.5 -46t45.5 -18t45.5 18t17.5 46t-17.5 46
t-45.5 18z" />
    <glyph glyph-name="seven.osf" horiz-adv-x="544" 
d="M40 490h464q10 0 10 -10v-161q0 -4 -2 -10l-192 -479q-3 -10 -13 -10h-190q-5 0 -7 3.5t0 7.5l199 484v3h-88q-6 0 -6 -6v-55q0 -10 -10 -10h-165q-10 0 -10 10v223q0 10 10 10z" />
    <glyph glyph-name="eight.osf" horiz-adv-x="554" 
d="M277 692q108 0 172.5 -60t64.5 -147q0 -83 -59 -132v-2q74 -54 74 -149q0 -98 -72 -156t-180 -58t-180 58t-72 156q0 95 74 149v2q-59 49 -59 132q0 87 64.5 147t172.5 60zM277 532q-23 0 -38 -14.5t-15 -37.5t15 -37.5t38 -14.5t38 14.5t15 37.5t-15 37.5t-38 14.5z
M277 272q-27 0 -45.5 -17.5t-18.5 -44.5t18.5 -44.5t45.5 -17.5t45.5 17.5t18.5 44.5t-18.5 44.5t-45.5 17.5z" />
    <glyph glyph-name="nine.osf" horiz-adv-x="548" 
d="M274 502q112 0 181.5 -62.5t69.5 -161.5q0 -48 -13.5 -91.5t-46.5 -107.5l-129 -251q-4 -8 -13 -8h-193q-12 0 -7 11l122 234l-1 1q-9 -3 -24 -3q-87 0 -142 60.5t-55 154.5q0 99 69.5 161.5t181.5 62.5zM274 342q-28 0 -45.5 -18t-17.5 -46t17.5 -46t45.5 -18t45.5 18
t17.5 46t-17.5 46t-45.5 18z" />
    <glyph glyph-name="zero.tosf" 
d="M285 502q119 0 193.5 -72.5t74.5 -184.5t-74.5 -184.5t-193.5 -72.5t-193.5 72.5t-74.5 184.5t74.5 184.5t193.5 72.5zM285 326q-33 0 -52.5 -23t-19.5 -58t19.5 -58t52.5 -23t52.5 23t19.5 58t-19.5 58t-52.5 23z" />
    <glyph glyph-name="one.tosf" 
d="M219 490h171q10 0 10 -10v-316q0 -6 6 -6h108q10 0 10 -10v-138q0 -10 -10 -10h-433q-10 0 -10 10v138q0 10 10 10h113q6 0 6 6v142h-2l-114 -38q-13 -4 -13 7v152q0 11 10 15l116 44q11 4 22 4z" />
    <glyph glyph-name="two.tosf" 
d="M289 502q115 0 174 -45t59 -124q0 -56 -24 -89t-70 -57l-76 -39v-2h160q10 0 10 -10v-126q0 -10 -10 -10h-454q-10 0 -10 10v111q0 11 9 17l204 111q42 24 55 36.5t13 27.5q0 39 -53 39q-24 0 -40 -6q-6 -2 -6 -9v-44q0 -10 -10 -10h-150q-10 0 -10 10v146q0 10 7 14
q87 49 222 49z" />
    <glyph glyph-name="three.tosf" 
d="M54 490h446q10 0 10 -10v-139q0 -11 -7 -18l-108 -117v-2q132 -39 132 -186q0 -101 -68.5 -155.5t-184.5 -54.5q-131 0 -212 43q-7 4 -7 12v157q0 10 10 10h149q10 0 10 -10v-38q0 -8 5 -10q12 -6 43 -6q61 0 61 60q0 58 -76 58h-47q-10 0 -10 10v129q0 9 8 17l91 92v2
h-83q-6 0 -6 -6v-28q0 -10 -10 -10h-146q-10 0 -10 10v180q0 10 10 10z" />
    <glyph glyph-name="four.tosf" 
d="M189 490h191q12 0 7 -11l-150 -306v-3h61q6 0 6 6v90q0 10 10 10h172q10 0 10 -10v-90q0 -6 5 -6h33q10 0 10 -10v-150q0 -10 -10 -10h-32q-6 0 -6 -6v-164q0 -10 -10 -10h-172q-10 0 -10 10v164q0 6 -6 6h-262q-10 0 -10 10v157q0 8 3 14l145 301q4 8 15 8z" />
    <glyph glyph-name="five.tosf" 
d="M74 490h415q10 0 10 -10v-144q0 -10 -10 -10h-255q-6 0 -6 -6v-92h2q36 40 108 40q135 0 172 -114q14 -42 14 -111q0 -50 -15 -97q-46 -138 -233 -138q-124 0 -204 45q-8 5 -8 14v151q0 10 10 10h151q10 0 10 -10v-38q0 -7 6 -9q15 -5 34 -5q39 0 49 30q6 16 6 42
q0 28 -6 45q-9 27 -42 27q-28 0 -40 -23q-5 -10 -14 -10h-154q-10 0 -10 10v393q0 10 10 10z" />
    <glyph glyph-name="six.tosf" 
d="M241 680h193q12 0 7 -11l-127 -244l1 -1q9 3 24 3q87 0 142 -60.5t55 -154.5q0 -99 -69.5 -161.5t-181.5 -62.5t-181.5 62.5t-69.5 161.5q0 48 13.5 91.5t46.5 107.5l134 261q4 8 13 8zM285 276q-28 0 -45.5 -18t-17.5 -46t17.5 -46t45.5 -18t45.5 18t17.5 46t-17.5 46
t-45.5 18z" />
    <glyph glyph-name="seven.tosf" 
d="M54 490h464q10 0 10 -10v-161q0 -4 -2 -10l-192 -479q-3 -10 -13 -10h-190q-5 0 -7 3.5t0 7.5l199 484v3h-88q-6 0 -6 -6v-55q0 -10 -10 -10h-165q-10 0 -10 10v223q0 10 10 10z" />
    <glyph glyph-name="eight.tosf" 
d="M285 692q108 0 172.5 -60t64.5 -147q0 -83 -59 -132v-2q74 -54 74 -149q0 -98 -72 -156t-180 -58t-180 58t-72 156q0 95 74 149v2q-59 49 -59 132q0 87 64.5 147t172.5 60zM285 532q-23 0 -38 -14.5t-15 -37.5t15 -37.5t38 -14.5t38 14.5t15 37.5t-15 37.5t-38 14.5z
M285 272q-27 0 -45.5 -17.5t-18.5 -44.5t18.5 -44.5t45.5 -17.5t45.5 17.5t18.5 44.5t-18.5 44.5t-45.5 17.5z" />
    <glyph glyph-name="nine.tosf" 
d="M285 502q112 0 181.5 -62.5t69.5 -161.5q0 -48 -13.5 -91.5t-46.5 -107.5l-129 -251q-4 -8 -13 -8h-193q-13 0 -7 11l122 234l-1 1q-9 -3 -24 -3q-87 0 -142 60.5t-55 154.5q0 99 69.5 161.5t181.5 62.5zM285 342q-28 0 -45.5 -18t-17.5 -46t17.5 -46t45.5 -18t45.5 18
t17.5 46t-17.5 46t-45.5 18z" />
    <glyph glyph-name="zero.denominator" horiz-adv-x="376" 
d="M188 413q61 0 101.5 -25.5t55.5 -73.5q11 -33 11 -111t-11 -111q-15 -48 -55.5 -73.5t-101.5 -25.5t-101.5 25.5t-55.5 73.5q-11 33 -11 111t11 111q15 48 55.5 73.5t101.5 25.5zM188 305q-16 0 -21 -14q-3 -9 -3 -88t3 -88q5 -14 21 -14t21 14q3 9 3 88t-3 88
q-5 14 -21 14z" />
    <glyph glyph-name="one.denominator" horiz-adv-x="376" 
d="M139 406h123q10 0 10 -10v-272q0 -6 6 -6h63q10 0 10 -10v-98q0 -10 -10 -10h-281q-10 0 -10 10v98q0 10 10 10h63q6 0 6 6v142h-2l-67 -37q-4 -2 -7 -0.5t-3 6.5v112q0 10 9 15l63 38q9 6 17 6z" />
    <glyph glyph-name="two.denominator" horiz-adv-x="376" 
d="M188 413q72 0 115 -32.5t43 -97.5q0 -62 -61 -111l-69 -56v-1h120q10 0 10 -10v-95q0 -10 -10 -10h-296q-10 0 -10 10v87q0 14 10 21l147 125q23 20 23 39q0 25 -27 25q-12 0 -20 -5q-4 -3 -4 -8v-23q0 -10 -10 -10h-101q-10 0 -10 10v89q0 10 7 14q63 39 143 39z" />
    <glyph glyph-name="three.denominator" horiz-adv-x="376" 
d="M188 413q74 0 114.5 -30.5t40.5 -82.5q0 -51 -48 -81v-2q54 -26 54 -95q0 -60 -44 -94.5t-124 -34.5q-90 0 -141 32q-7 4 -7 14v85q0 10 10 10h99q11 0 11 -10v-16q0 -5 4 -6q7 -3 22 -3q32 0 32 28q0 27 -35 27h-10q-10 0 -10 10v84q0 10 10 10h12q27 0 27 25
q0 24 -27 24q-12 0 -20 -4q-5 -3 -5 -8v-15q0 -10 -10 -10h-100q-10 0 -10 10v81q0 10 7 14q65 38 148 38z" />
    <glyph glyph-name="four.denominator" horiz-adv-x="376" 
d="M137 406h127q11 0 7 -10l-104 -230v-3h32q6 0 6 6v42q0 10 10 10h109q10 0 10 -10v-42q0 -6 5 -6h13q10 0 10 -10v-95q0 -10 -10 -10h-12q-6 0 -6 -6v-32q0 -10 -10 -10h-109q-10 0 -10 10v32q0 6 -6 6h-169q-10 0 -10 10v102q0 8 5 20l97 216q4 10 15 10z" />
    <glyph glyph-name="five.denominator" horiz-adv-x="376" 
d="M48 406h270q10 0 10 -10v-91q0 -11 -10 -11h-154q-6 0 -6 -7v-34h1q21 18 65 18q93 0 117 -73q8 -24 8 -57q0 -36 -7 -57q-30 -91 -163 -91q-89 0 -134 31q-7 4 -7 14v78q0 10 10 10h101q10 0 10 -10v-9q0 -3 3 -5q8 -3 19 -3q21 0 28 15q3 8 3 19t-3 19q-5 14 -24 14
q-13 0 -21 -8q-6 -6 -13 -6h-103q-10 0 -10 10v234q0 10 10 10z" />
    <glyph glyph-name="six.denominator" horiz-adv-x="376" 
d="M157 406h134q11 0 5 -10l-75 -131l1 -1h4q58 0 94 -35t36 -96q0 -63 -46.5 -101.5t-121.5 -38.5t-121.5 38.5t-46.5 101.5q0 55 41 124l81 139q5 10 15 10zM188 161q-15 0 -23.5 -9t-8.5 -22t8.5 -22t23.5 -9t23.5 9t8.5 22t-8.5 22t-23.5 9z" />
    <glyph glyph-name="seven.denominator" horiz-adv-x="376" 
d="M40 406h300q10 0 10 -10v-105q0 -10 -4 -18l-113 -263q-3 -10 -13 -10h-129q-11 0 -7 12l122 280v2h-44q-6 0 -6 -6v-32q0 -10 -10 -10h-106q-10 0 -10 10v140q0 10 10 10z" />
    <glyph glyph-name="eight.denominator" horiz-adv-x="376" 
d="M188 413q74 0 117 -37.5t43 -90.5q0 -42 -35 -75v-1q43 -35 43 -85q0 -61 -48 -96t-120 -35t-120 35t-48 96q0 50 43 85v1q-35 33 -35 75q0 53 43 90.5t117 37.5zM188 307q-12 0 -19.5 -7.5t-7.5 -18.5t7.5 -18.5t19.5 -7.5t19.5 7.5t7.5 18.5t-7.5 18.5t-19.5 7.5z
M188 161q-14 0 -23 -9t-9 -22t9 -22t23 -9t23 9t9 22t-9 22t-23 9z" />
    <glyph glyph-name="nine.denominator" horiz-adv-x="376" 
d="M188 413q75 0 121.5 -38.5t46.5 -101.5q0 -55 -41 -124l-81 -139q-5 -10 -15 -10h-134q-11 0 -5 10l75 131l-1 1h-4q-58 0 -94 35t-36 96q0 63 46.5 101.5t121.5 38.5zM188 307q-15 0 -23.5 -9t-8.5 -22t8.5 -22t23.5 -9t23.5 9t8.5 22t-8.5 22t-23.5 9z" />
    <glyph glyph-name="zero.numerator" horiz-adv-x="376" 
d="M188 687q61 0 101.5 -25.5t55.5 -73.5q11 -33 11 -111t-11 -111q-15 -48 -55.5 -73.5t-101.5 -25.5t-101.5 25.5t-55.5 73.5q-11 33 -11 111t11 111q15 48 55.5 73.5t101.5 25.5zM188 579q-16 0 -21 -14q-3 -9 -3 -88t3 -88q5 -14 21 -14t21 14q3 9 3 88t-3 88
q-5 14 -21 14z" />
    <glyph glyph-name="one.numerator" horiz-adv-x="376" 
d="M139 680h123q10 0 10 -10v-272q0 -6 6 -6h63q10 0 10 -10v-98q0 -10 -10 -10h-281q-10 0 -10 10v98q0 10 10 10h63q6 0 6 6v142h-2l-67 -37q-4 -2 -7 -0.5t-3 6.5v112q0 10 9 15l63 38q9 6 17 6z" />
    <glyph glyph-name="two.numerator" horiz-adv-x="376" 
d="M188 687q72 0 115 -32.5t43 -97.5q0 -62 -61 -111l-69 -56v-1h120q10 0 10 -10v-95q0 -10 -10 -10h-296q-10 0 -10 10v87q0 13 10 21l147 125q23 20 23 39q0 25 -27 25q-12 0 -20 -5q-4 -3 -4 -8v-23q0 -10 -10 -10h-101q-10 0 -10 10v89q0 10 7 14q63 39 143 39z" />
    <glyph glyph-name="three.numerator" horiz-adv-x="376" 
d="M188 687q74 0 114.5 -30.5t40.5 -82.5q0 -51 -48 -81v-2q54 -26 54 -95q0 -60 -44 -94.5t-124 -34.5q-90 0 -141 32q-7 4 -7 14v85q0 10 10 10h99q11 0 11 -10v-16q0 -5 4 -6q7 -3 22 -3q32 0 32 28q0 27 -35 27h-10q-10 0 -10 10v84q0 10 10 10h12q27 0 27 25
q0 24 -27 24q-12 0 -20 -4q-5 -3 -5 -8v-15q0 -10 -10 -10h-100q-10 0 -10 10v81q0 10 7 14q65 38 148 38z" />
    <glyph glyph-name="four.numerator" horiz-adv-x="376" 
d="M137 680h127q11 0 7 -10l-104 -230v-3h32q6 0 6 6v42q0 10 10 10h109q10 0 10 -10v-42q0 -6 5 -6h13q10 0 10 -10v-95q0 -10 -10 -10h-12q-6 0 -6 -6v-32q0 -10 -10 -10h-109q-10 0 -10 10v32q0 6 -6 6h-169q-10 0 -10 10v102q0 8 5 20l97 216q4 10 15 10z" />
    <glyph glyph-name="five.numerator" horiz-adv-x="376" 
d="M48 680h270q10 0 10 -10v-91q0 -11 -10 -11h-154q-6 0 -6 -7v-34h1q21 18 65 18q93 0 117 -73q8 -24 8 -57q0 -36 -7 -57q-30 -91 -163 -91q-89 0 -134 31q-7 4 -7 14v78q0 10 10 10h101q10 0 10 -10v-9q0 -3 3 -5q7 -3 19 -3q21 0 28 15q3 8 3 19q0 12 -3 19
q-5 14 -24 14q-13 0 -21 -8q-6 -6 -13 -6h-103q-10 0 -10 10v234q0 10 10 10z" />
    <glyph glyph-name="six.numerator" horiz-adv-x="376" 
d="M157 680h134q11 0 5 -10l-75 -131l1 -1h4q58 0 94 -35t36 -96q0 -63 -46.5 -101.5t-121.5 -38.5t-121.5 38.5t-46.5 101.5q0 55 41 124l81 139q5 10 15 10zM188 435q-15 0 -23.5 -9t-8.5 -22t8.5 -22t23.5 -9t23.5 9t8.5 22t-8.5 22t-23.5 9z" />
    <glyph glyph-name="seven.numerator" horiz-adv-x="376" 
d="M40 680h300q10 0 10 -10v-105q0 -10 -4 -18l-113 -263q-3 -10 -13 -10h-129q-11 0 -7 12l122 280v2h-44q-6 0 -6 -6v-32q0 -10 -10 -10h-106q-10 0 -10 10v140q0 10 10 10z" />
    <glyph glyph-name="eight.numerator" horiz-adv-x="376" 
d="M188 687q74 0 117 -37.5t43 -90.5q0 -42 -35 -75v-1q43 -35 43 -85q0 -61 -48 -96t-120 -35t-120 35t-48 96q0 50 43 85v1q-35 33 -35 75q0 53 43 90.5t117 37.5zM188 581q-12 0 -19.5 -7.5t-7.5 -18.5t7.5 -18.5t19.5 -7.5t19.5 7.5t7.5 18.5t-7.5 18.5t-19.5 7.5z
M188 435q-14 0 -23 -9t-9 -22t9 -22t23 -9t23 9t9 22t-9 22t-23 9z" />
    <glyph glyph-name="nine.numerator" horiz-adv-x="376" 
d="M188 687q75 0 121.5 -38.5t46.5 -101.5q0 -55 -41 -124l-81 -139q-5 -10 -15 -10h-134q-11 0 -5 10l75 131l-1 1h-4q-58 0 -94 35t-36 96q0 63 46.5 101.5t121.5 38.5zM188 581q-15 0 -23.5 -9t-8.5 -22t8.5 -22t23.5 -9t23.5 9t8.5 22t-8.5 22t-23.5 9z" />
    <glyph glyph-name="zero.lf.sc" horiz-adv-x="600" 
 />
    <glyph glyph-name="one.lf.sc" horiz-adv-x="600" 
 />
    <glyph glyph-name="two.lf.sc" horiz-adv-x="600" 
 />
    <glyph glyph-name="three.lf.sc" horiz-adv-x="600" 
 />
    <glyph glyph-name="four.lf.sc" horiz-adv-x="600" 
 />
    <glyph glyph-name="five.lf.sc" horiz-adv-x="600" 
 />
    <glyph glyph-name="six.lf.sc" horiz-adv-x="600" 
 />
    <glyph glyph-name="seven.lf.sc" horiz-adv-x="600" 
 />
    <glyph glyph-name="eight.lf.sc" horiz-adv-x="600" 
 />
    <glyph glyph-name="nine.lf.sc" horiz-adv-x="600" 
 />
    <glyph glyph-name="cent.lf" horiz-adv-x="520" 
d="M211 585h106q10 0 10 -10v-76q83 -11 140 -46q9 -6 9 -17v-128q0 -10 -10 -10h-139q-10 0 -10 10v25q0 5 -5 8q-10 5 -29 5q-38 0 -48 -30q-5 -15 -5 -71t5 -71q10 -30 48 -30q19 0 29 5q5 3 5 8v29q0 10 10 10h139q10 0 10 -10v-134q0 -11 -8 -16q-60 -36 -141 -45v-76
q0 -10 -10 -10h-106q-10 0 -10 10v79q-121 23 -158 139q-13 39 -13 112q0 70 13 109q37 115 158 141v80q0 10 10 10z" />
    <glyph glyph-name="dollar.lf" horiz-adv-x="564" 
d="M230 775h106q10 0 10 -10v-76q78 -7 138 -23q9 -3 9 -13v-163q0 -10 -10 -10h-148q-10 0 -10 10v24q0 7 -5 8q-10 2 -17 2q-24 0 -40 -12.5t-16 -30.5q0 -33 50 -40l24 -3q204 -25 204 -211q0 -87 -47.5 -148.5t-131.5 -81.5v-82q0 -10 -10 -10h-106q-10 0 -10 10v75
q-111 7 -156 27q-9 4 -9 13v171q0 10 10 10h164q10 0 10 -10v-35q0 -6 5 -7q4 -1 21 -1q28 0 43 13.5t15 37.5q0 33 -49 39l-18 2q-100 11 -155.5 66t-55.5 144q0 83 46.5 144t128.5 80v81q0 10 10 10z" />
    </font>
</defs>
</svg>
