<?xml version="1.0" standalone="no"?>
<!DOCTYPE svg PUBLIC "-//W3C//DTD SVG 1.1//EN" "http://www.w3.org/Graphics/SVG/1.1/DTD/svg11.dtd" >
<svg>
<metadata>
Created by FontForge 20090622 at Tue Jan 23 10:35:46 2018
 By deploy user
Copyright &#194;&#169; 2014 Monotype Imaging Inc.  All rights reserved.
</metadata>
<defs>
<font id="DINNextSlabPro-UltLightIt" horiz-adv-x="503" >
  <font-face 
    font-family="DIN Next Slab Pro UltraLight"
    font-weight="250"
    font-style="italic"
    font-stretch="normal"
    units-per-em="1000"
    panose-1="2 8 2 4 2 2 5 9 2 4"
    ascent="750"
    descent="-250"
    x-height="474"
    cap-height="680"
    bbox="-153.2 -216 936.333 910"
    underline-thickness="50"
    underline-position="-75"
    slope="-10"
    unicode-range="U+000D-U+FB02"
  />
<missing-glyph horiz-adv-x="464" 
d="M10 680h444q10 0 10 -10v-660q0 -10 -10 -10h-444q-10 0 -10 10v660q0 10 10 10zM428 652h-392q-6 0 -6 -6v-612q0 -6 6 -6h392q6 0 6 6v612q0 6 -6 6zM224 561q53 0 83 -29.5t30 -76.5q0 -31 -10 -53t-34 -51l-31 -37q-15 -19 -19 -30t-4 -32v-25q0 -10 -10 -10h-8
q-10 0 -10 10v25q0 43 24 72l31 37q27 32 35 50.5t8 43.5q0 37 -23 58.5t-62 21.5q-40 0 -69 -19q-5 -4 -5 -11v-50q0 -10 -10 -10h-8q-10 0 -10 10v60q0 9 10 17q39 29 92 29zM215 161h19q10 0 10 -10v-28q0 -10 -10 -10h-19q-10 0 -10 10v28q0 10 10 10z" />
    <glyph glyph-name="fi" unicode="fi" horiz-adv-x="575" 
d="M317 680h20q10 0 8 -10l-1 -5q-1 -10 -12 -10h-17q-56 0 -76.5 -19t-32.5 -84l-13 -72q-1 -6 5 -6h103q10 0 8 -10l-1 -5q-1 -10 -12 -10h-103q-5 0 -6 -6l-73 -412q-2 -6 5 -6h71q10 0 8 -10l-1 -5q-1 -10 -12 -10h-172q-10 0 -8 10l1 5q1 10 12 10h62q6 0 7 6l73 412
q2 6 -5 6h-56q-10 0 -8 10l1 5q1 10 12 10h56q6 0 7 6l11 65q14 83 42.5 109t96.5 26zM512 680h22q9 0 7 -10l-7 -38q-1 -10 -12 -10h-20q-10 0 -8 10l7 38q2 10 11 10zM407 474h83q10 0 8 -10l-76 -433q-2 -6 5 -6h61q10 0 8 -10l-1 -5q-1 -10 -12 -10h-160q-10 0 -8 10
l1 5q1 10 12 10h60q6 0 7 6l72 412q1 6 -5 6h-60q-10 0 -8 10l1 5q1 10 12 10z" />
    <glyph glyph-name="fl" unicode="fl" horiz-adv-x="554" 
d="M317 680h20q10 0 8 -10l-1 -5q-1 -10 -12 -10h-17q-56 0 -76.5 -19t-32.5 -84l-13 -72q-1 -6 5 -6h103q10 0 8 -10l-1 -5q-1 -10 -12 -10h-103q-5 0 -6 -6l-73 -412q-2 -6 5 -6h71q10 0 8 -10l-1 -5q-1 -10 -12 -10h-172q-10 0 -8 10l1 5q1 10 12 10h62q6 0 7 6l73 412
q2 6 -5 6h-56q-10 0 -8 10l1 5q1 10 12 10h56q6 0 7 6l11 65q14 83 42.5 109t96.5 26zM420 680h83q10 0 8 -10l-105 -575q-3 -19 -3 -32q0 -22 10 -31t33 -9h14q10 0 8 -10l-1 -5q-1 -10 -12 -10h-13q-66 0 -66 64q0 14 4 40l100 546q1 7 -5 7h-60q-10 0 -8 10l1 5
q1 10 12 10z" />
    <glyph glyph-name="f_f" unicode="ff" horiz-adv-x="612" 
d="M317 680h20q10 0 8 -10l-1 -5q-1 -10 -12 -10h-17q-56 0 -76.5 -19t-32.5 -84l-13 -72q-1 -6 5 -6h103q10 0 8 -10l-1 -5q-1 -10 -12 -10h-103q-5 0 -6 -6l-73 -412q-2 -6 5 -6h71q10 0 8 -10l-1 -5q-1 -10 -12 -10h-172q-10 0 -8 10l1 5q1 10 12 10h62q6 0 7 6l73 412
q2 6 -5 6h-56q-10 0 -8 10l1 5q1 10 12 10h56q6 0 7 6l11 65q14 83 42.5 109t96.5 26zM623 680h20q10 0 8 -10l-1 -5q-1 -10 -12 -10h-17q-56 0 -76.5 -19t-32.5 -84l-13 -72q-1 -6 5 -6h103q10 0 8 -10l-1 -5q-1 -10 -12 -10h-103q-5 0 -6 -6l-73 -412q-2 -6 5 -6h71
q10 0 8 -10l-1 -5q-1 -10 -12 -10h-172q-10 0 -8 10l1 5q1 10 12 10h62q6 0 7 6l73 412q2 6 -5 6h-56q-10 0 -8 10l1 5q1 10 12 10h56q6 0 7 6l11 65q14 83 42.5 109t96.5 26z" />
    <glyph glyph-name="f_f_i" unicode="ffi" horiz-adv-x="881" 
d="M317 680h20q10 0 8 -10l-1 -5q-1 -10 -12 -10h-17q-56 0 -76.5 -19t-32.5 -84l-13 -72q-1 -6 5 -6h103q10 0 8 -10l-1 -5q-1 -10 -12 -10h-103q-5 0 -6 -6l-73 -412q-2 -6 5 -6h71q10 0 8 -10l-1 -5q-1 -10 -12 -10h-172q-10 0 -8 10l1 5q1 10 12 10h62q6 0 7 6l73 412
q2 6 -5 6h-56q-10 0 -8 10l1 5q1 10 12 10h56q6 0 7 6l11 65q14 83 42.5 109t96.5 26zM623 680h20q10 0 8 -10l-1 -5q-1 -10 -12 -10h-17q-56 0 -76.5 -19t-32.5 -84l-13 -72q-1 -6 5 -6h103q10 0 8 -10l-1 -5q-1 -10 -12 -10h-103q-5 0 -6 -6l-73 -412q-2 -6 5 -6h71
q10 0 8 -10l-1 -5q-1 -10 -12 -10h-172q-10 0 -8 10l1 5q1 10 12 10h62q6 0 7 6l73 412q2 6 -5 6h-56q-10 0 -8 10l1 5q1 10 12 10h56q6 0 7 6l11 65q14 83 42.5 109t96.5 26zM818 680h22q9 0 7 -10l-7 -38q-1 -10 -12 -10h-20q-10 0 -8 10l7 38q2 10 11 10zM713 474h83
q10 0 8 -10l-76 -433q-2 -6 5 -6h61q10 0 8 -10l-1 -5q-1 -10 -12 -10h-160q-10 0 -8 10l1 5q1 10 12 10h60q6 0 7 6l72 412q1 6 -5 6h-60q-10 0 -8 10l1 5q1 10 12 10z" />
    <glyph glyph-name="f_f_l" unicode="ffl" horiz-adv-x="860" 
d="M317 680h20q10 0 8 -10l-1 -5q-1 -10 -12 -10h-17q-56 0 -76.5 -19t-32.5 -84l-13 -72q-1 -6 5 -6h103q10 0 8 -10l-1 -5q-1 -10 -12 -10h-103q-5 0 -6 -6l-73 -412q-2 -6 5 -6h71q10 0 8 -10l-1 -5q-1 -10 -12 -10h-172q-10 0 -8 10l1 5q1 10 12 10h62q6 0 7 6l73 412
q2 6 -5 6h-56q-10 0 -8 10l1 5q1 10 12 10h56q6 0 7 6l11 65q14 83 42.5 109t96.5 26zM623 680h20q10 0 8 -10l-1 -5q-1 -10 -12 -10h-17q-56 0 -76.5 -19t-32.5 -84l-13 -72q-1 -6 5 -6h103q10 0 8 -10l-1 -5q-1 -10 -12 -10h-103q-5 0 -6 -6l-73 -412q-2 -6 5 -6h71
q10 0 8 -10l-1 -5q-1 -10 -12 -10h-172q-10 0 -8 10l1 5q1 10 12 10h62q6 0 7 6l73 412q2 6 -5 6h-56q-10 0 -8 10l1 5q1 10 12 10h56q6 0 7 6l11 65q14 83 42.5 109t96.5 26zM726 680h83q10 0 8 -10l-105 -575q-3 -20 -3 -32q0 -22 10 -31t33 -9h14q10 0 8 -10l-1 -5
q-1 -10 -12 -10h-13q-66 0 -66 64q0 14 4 40l100 546q1 7 -5 7h-60q-10 0 -8 10l1 5q1 10 12 10z" />
    <glyph glyph-name=".notdef" horiz-adv-x="464" 
d="M10 680h444q10 0 10 -10v-660q0 -10 -10 -10h-444q-10 0 -10 10v660q0 10 10 10zM428 652h-392q-6 0 -6 -6v-612q0 -6 6 -6h392q6 0 6 6v612q0 6 -6 6zM224 561q53 0 83 -29.5t30 -76.5q0 -31 -10 -53t-34 -51l-31 -37q-15 -19 -19 -30t-4 -32v-25q0 -10 -10 -10h-8
q-10 0 -10 10v25q0 43 24 72l31 37q27 32 35 50.5t8 43.5q0 37 -23 58.5t-62 21.5q-40 0 -69 -19q-5 -4 -5 -11v-50q0 -10 -10 -10h-8q-10 0 -10 10v60q0 9 10 17q39 29 92 29zM215 161h19q10 0 10 -10v-28q0 -10 -10 -10h-19q-10 0 -10 10v28q0 10 10 10z" />
    <glyph glyph-name=".null" horiz-adv-x="0" 
 />
    <glyph glyph-name="nonmarkingreturn" horiz-adv-x="333" 
 />
    <glyph glyph-name="CR" unicode="&#xd;" horiz-adv-x="240" 
 />
    <glyph glyph-name="space" unicode=" " horiz-adv-x="240" 
 />
    <glyph glyph-name="exclam" unicode="!" horiz-adv-x="237" 
d="M195 680h10q10 0 8 -10l-89 -491q-2 -10 -11 -10h-6q-10 0 -8 10l85 491q2 10 11 10zM79 68h25q10 0 8 -10l-8 -48q-3 -10 -12 -10h-25q-10 0 -8 10l9 48q2 10 11 10z" />
    <glyph glyph-name="quotedbl" unicode="&#x22;" horiz-adv-x="287" 
d="M167 680h8q10 0 8 -10l-21 -122q-2 -10 -11 -10h-8q-10 0 -8 10l21 122q2 10 11 10zM272 680h8q10 0 8 -10l-21 -122q-2 -10 -11 -10h-8q-10 0 -8 10l21 122q2 10 11 10z" />
    <glyph glyph-name="numbersign" unicode="#" horiz-adv-x="497" 
d="M459 680h7q10 0 7 -10l-61 -197h91q10 0 8 -10l-1 -4q-2 -10 -12 -10h-93l-61 -199h97q10 0 8 -10l-1 -4q-2 -10 -12 -10h-99l-66 -216q-3 -10 -12 -10h-7q-10 0 -7 10l66 216h-160l-66 -216q-3 -10 -12 -10h-7q-10 0 -7 10l66 216h-86q-10 0 -8 10l1 4q2 10 12 10h89
l61 199h-92q-10 0 -8 10l1 4q2 10 12 10h94l61 197q3 10 12 10h7q10 0 7 -10l-61 -197h160l60 197q3 10 12 10zM220 449l-61 -199h159l61 199h-159z" />
    <glyph glyph-name="dollar" unicode="$" 
d="M347 751h6q10 0 8 -10l-9 -51q69 -5 124 -33q6 -4 5 -11l-14 -82q-2 -10 -11 -10h-7q-10 0 -8 10l12 69q1 4 -2 6q-53 22 -104 25l-54 -309q74 -9 110 -46.5t36 -96.5q0 -102 -57.5 -159.5t-152.5 -62.5l-9 -51q-2 -10 -12 -10h-6q-10 0 -8 10l9 51q-45 1 -89 13.5
t-70 30.5q-7 6 -6 13l17 90q2 10 11 10h7q10 0 8 -10l-15 -79q-1 -5 4 -9q52 -31 137 -33l56 317q-139 20 -139 147q0 96 56 151t147 59l9 51q2 10 11 10zM268 359l54 304q-77 -4 -124 -52t-47 -129q0 -108 117 -123zM288 329l-55 -313q78 5 128.5 54t50.5 139
q0 102 -124 120z" />
    <glyph glyph-name="percent" unicode="%" horiz-adv-x="732" 
d="M635 690h9q11 0 4 -10l-496 -680q-9 -10 -16 -10h-9q-12 0 -4 10l497 680q7 10 15 10zM278 688q41 0 64.5 -23.5t23.5 -66.5q0 -34 -13.5 -102t-26.5 -95q-34 -71 -106 -71q-41 0 -64.5 23.5t-23.5 66.5q0 34 13.5 102t26.5 95q34 71 106 71zM276 665q-52 0 -80 -53
q-14 -29 -26.5 -91.5t-12.5 -99.5q0 -68 65 -68q52 0 80 53q14 29 26.5 91.5t12.5 99.5q0 68 -65 68zM552 350q41 0 64.5 -23.5t23.5 -66.5q0 -34 -13.5 -102t-26.5 -95q-34 -71 -106 -71q-41 0 -64.5 23.5t-23.5 66.5q0 34 13.5 102t26.5 95q34 71 106 71zM550 327
q-52 0 -80 -53q-14 -29 -26.5 -91.5t-12.5 -99.5q0 -68 65 -68q52 0 80 53q14 29 26.5 91.5t12.5 99.5q0 68 -65 68z" />
    <glyph glyph-name="ampersand" unicode="&#x26;" horiz-adv-x="581" 
d="M318 690q48 0 78 -29.5t30 -76.5t-34 -93.5t-128 -115.5l122 -224l111 122q9 9 17 9h38q10 0 8 -10l-1 -5q-1 -10 -12 -10h-25q-5 0 -10 -5l-113 -125l42 -77q14 -25 38 -25h25q10 0 8 -10l-1 -5q-1 -10 -11 -10h-20q-41 0 -58 32l-41 76q-59 -63 -102.5 -90.5
t-96.5 -27.5q-61 0 -96.5 37.5t-35.5 98.5q0 70 44.5 128.5t137.5 127.5q-38 70 -51.5 102.5t-13.5 58.5q0 63 42.5 105t108.5 42zM313 665q-52 0 -85.5 -35t-33.5 -85q0 -38 59 -148q84 62 115 104t31 80q0 40 -22.5 62t-63.5 22zM368 132l-124 228q-82 -60 -124.5 -115
t-42.5 -116q0 -54 28 -84t80 -30q46 0 85 26t98 91z" />
    <glyph glyph-name="quotesingle" unicode="'" horiz-adv-x="182" 
d="M167 680h8q10 0 8 -10l-21 -122q-2 -10 -11 -10h-8q-10 0 -8 10l21 122q2 10 11 10z" />
    <glyph glyph-name="parenleft" unicode="(" horiz-adv-x="272" 
d="M296 740h7q12 0 5 -10q-181 -276 -181 -545q0 -136 39 -259q3 -10 -8 -10h-6q-9 0 -12 10q-40 125 -40 257q0 274 181 547q7 10 15 10z" />
    <glyph glyph-name="parenright" unicode=")" horiz-adv-x="272" 
d="M148 740h6q9 0 12 -10q40 -125 40 -257q0 -274 -181 -547q-7 -10 -15 -10h-7q-12 0 -5 10q181 276 181 545q0 136 -39 259q-3 10 8 10z" />
    <glyph glyph-name="asterisk" unicode="*" horiz-adv-x="343" 
d="M249 680h4q10 0 8 -10l-19 -105l97 52q11 6 14 -3l1 -4q3 -8 -7 -14l-96 -53l78 -52q8 -5 2 -13l-3 -4q-5 -7 -13 -2l-80 51l-18 -105q-2 -10 -12 -10h-4q-10 0 -8 10l18 103l-96 -51q-11 -6 -14 3l-1 4q-3 8 7 14l97 53l-77 53q-8 5 -2 13l3 4q5 7 13 2l77 -52l19 106
q2 10 12 10z" />
    <glyph glyph-name="plus" unicode="+" 
d="M253 468h7q10 0 10 -10v-163q0 -6 6 -6h161q10 0 10 -10v-5q0 -10 -10 -10h-161q-6 0 -6 -6v-163q0 -10 -10 -10h-7q-10 0 -10 10v163q0 6 -6 6h-161q-10 0 -10 10v5q0 10 10 10h161q6 0 6 6v163q0 10 10 10z" />
    <glyph glyph-name="comma" unicode="," horiz-adv-x="195" 
d="M63 68h20q10 0 8 -10l-10 -56q-2 -11 -7 -23l-31 -73q-3 -8 -10 -8q-9 0 -7 9l26 151q2 10 11 10z" />
    <glyph glyph-name="hyphen" unicode="-" horiz-adv-x="353" 
d="M68 279h236q10 0 8 -10l-1 -6q-1 -8 -11 -8h-236q-10 0 -8 10l1 6q1 8 11 8z" />
    <glyph glyph-name="period" unicode="." horiz-adv-x="195" 
d="M58 68h25q10 0 8 -10l-8 -48q-2 -10 -11 -10h-25q-10 0 -8 10l8 48q2 10 11 10z" />
    <glyph glyph-name="slash" unicode="/" horiz-adv-x="384" 
d="M379 690h8q10 0 5 -10l-332 -680q-4 -10 -15 -10h-8q-10 0 -5 10l332 680q4 10 15 10z" />
    <glyph glyph-name="zero" unicode="0" 
d="M335 690q66 0 103 -38.5t37 -103.5q0 -71 -30.5 -232t-53.5 -209q-56 -117 -179 -117q-66 0 -103 38.5t-37 103.5q0 71 30.5 232t53.5 209q56 117 179 117zM331 665q-101 0 -150 -101q-23 -48 -52.5 -206t-29.5 -222q0 -57 29.5 -89t87.5 -32q101 0 150 101
q23 48 52.5 206t29.5 222q0 57 -29.5 89t-87.5 32z" />
    <glyph glyph-name="one" unicode="1" 
d="M345 680h7q11 0 9 -10l-112 -639q-1 -6 4 -6h116q10 0 8 -10l-1 -5q-1 -10 -12 -10h-269q-10 0 -8 10l1 5q1 10 12 10h115q5 0 7 6l107 610h-2l-142 -95q-5 -3 -8 -1t-2 7l2 13q1 8 8 12l145 97q9 6 15 6z" />
    <glyph glyph-name="two" unicode="2" 
d="M313 690q68 0 107 -40t39 -104q0 -52 -24 -97t-77 -104l-283 -319v-1h271q6 0 7 6l12 73q2 10 11 10h8q10 0 8 -10l-16 -94q-2 -10 -11 -10h-324q-8 0 -8 9v2q0 6 7 13l303 343q47 53 68.5 94t21.5 83q0 55 -32.5 88t-90.5 33q-72 0 -126 -39q-5 -4 -6 -8l-14 -83
q-2 -10 -12 -10h-7q-10 0 -8 10l17 95q1 8 9 13q69 47 150 47z" />
    <glyph glyph-name="three" unicode="3" 
d="M311 690q73 0 113 -38.5t40 -104.5q0 -68 -35 -117t-93 -74v-2q37 -15 59 -51t22 -84q0 -99 -58 -164t-153 -65q-89 0 -152 44q-5 3 -3 13l17 95q2 10 11 10h8q10 0 8 -10l-15 -85q-1 -6 3 -9q56 -33 126 -33q79 0 130 57t51 142q0 58 -33 94t-91 36h-30q-9 0 -7 10l1 6
q2 9 10 9h30q69 0 118.5 51.5t49.5 123.5q0 57 -33.5 89t-96.5 32q-69 0 -120 -35q-5 -4 -6 -8l-14 -83q-2 -10 -12 -10h-7q-10 0 -8 10l17 95q1 8 9 13q63 43 144 43z" />
    <glyph glyph-name="four" unicode="4" 
d="M365 680h10q10 0 5 -9l-300 -492v-1h226q6 0 7 6l34 196q2 10 11 10h8q10 0 8 -10l-34 -196q-2 -6 5 -6h82q10 0 8 -10l-1 -6q-2 -9 -12 -9h-82q-6 0 -7 -6l-24 -137q-2 -10 -11 -10h-8q-10 0 -8 10l25 137q1 6 -5 6h-249q-9 0 -8 9l1 5q2 6 4 10l301 495q5 8 14 8z" />
    <glyph glyph-name="five" unicode="5" 
d="M192 680h286q11 0 9 -10l-1 -5q-2 -10 -12 -10h-264q-6 0 -7 -6l-48 -276h1q47 71 140 71q63 0 97 -35.5t34 -104.5q0 -43 -12 -105.5t-32 -103.5q-52 -105 -176 -105q-83 0 -138 39q-5 3 -3 13l17 98q2 10 11 10h8q10 0 8 -10l-15 -88q-1 -6 3 -9q38 -28 112 -28
q104 0 149 91q18 36 29.5 94t11.5 98q0 121 -107 121q-51 0 -90 -29t-57 -72q-5 -10 -12 -10h-7q-10 0 -8 10l62 352q2 10 11 10z" />
    <glyph glyph-name="six" unicode="6" 
d="M365 680h11q12 0 5 -9l-204 -306l2 -1q38 31 103 31q71 0 112 -43.5t41 -115.5q0 -97 -61 -171.5t-158 -74.5q-71 0 -112.5 43t-41.5 119q0 85 70 191l219 329q5 8 14 8zM279 370q-82 0 -136 -65.5t-54 -152.5q0 -62 34.5 -99.5t93.5 -37.5q82 0 136.5 65.5t54.5 152.5
q0 62 -34.5 99.5t-94.5 37.5z" />
    <glyph glyph-name="seven" unicode="7" 
d="M175 680h314q10 0 8 -10l-2 -11q-2 -7 -5 -12l-354 -638q-5 -9 -14 -9h-10q-10 0 -4 11l357 642v2h-271q-6 0 -7 -6l-18 -103q-2 -10 -12 -10h-7q-10 0 -8 10l22 124q2 10 11 10z" />
    <glyph glyph-name="eight" unicode="8" 
d="M335 690q63 0 101 -38t38 -100q0 -66 -34.5 -118.5t-92.5 -74.5v-2q40 -18 63 -53.5t23 -84.5q0 -96 -63 -162.5t-158 -66.5q-69 0 -111 42t-42 110q0 73 40 132.5t109 86.5v2q-70 34 -70 122q0 83 54.5 144t142.5 61zM331 665q-71 0 -119 -51.5t-48 -125.5
q0 -52 32 -84.5t85 -32.5q71 0 119 51.5t48 125.5q0 52 -32 84.5t-85 32.5zM275 346q-77 0 -133.5 -58.5t-56.5 -140.5q0 -59 35.5 -95.5t96.5 -36.5q78 0 134 58t56 141q0 59 -35.5 95.5t-96.5 36.5z" />
    <glyph glyph-name="nine" unicode="9" 
d="M330 690q71 0 112.5 -43t41.5 -119q0 -85 -70 -191l-219 -329q-5 -8 -14 -8h-11q-12 0 -5 9l204 306l-2 1q-38 -31 -103 -31q-71 0 -112 43.5t-41 115.5q0 97 61 171.5t158 74.5zM329 665q-82 0 -136.5 -65.5t-54.5 -152.5q0 -62 34.5 -99.5t94.5 -37.5q82 0 136 65.5
t54 152.5q0 62 -34.5 99.5t-93.5 37.5z" />
    <glyph glyph-name="colon" unicode=":" horiz-adv-x="195" 
d="M130 474h25q10 0 8 -10l-8 -48q-2 -10 -11 -10h-25q-10 0 -8 10l8 48q2 10 11 10zM58 68h25q10 0 8 -10l-8 -48q-2 -10 -11 -10h-25q-10 0 -8 10l8 48q2 10 11 10z" />
    <glyph glyph-name="semicolon" unicode=";" horiz-adv-x="195" 
d="M130 474h25q10 0 8 -10l-8 -48q-2 -10 -11 -10h-25q-10 0 -8 10l8 48q2 10 11 10zM61 68h20q10 0 8 -10l-10 -56q-2 -11 -7 -23l-31 -73q-3 -8 -10 -8q-9 0 -7 9l26 151q2 10 11 10z" />
    <glyph glyph-name="less" unicode="&#x3c;" 
d="M68 290l361 146q10 3 10 -7v-7q0 -9 -10 -13l-332 -132v-2l332 -132q10 -4 10 -13v-7q0 -10 -10 -7l-361 146q-10 4 -10 12v4q0 8 10 12z" />
    <glyph glyph-name="equal" unicode="=" 
d="M71 384h361q10 0 10 -10v-5q0 -10 -10 -10h-361q-10 0 -10 10v5q0 10 10 10zM71 193h361q10 0 10 -10v-5q0 -10 -10 -10h-361q-10 0 -10 10v5q0 10 10 10z" />
    <glyph glyph-name="greater" unicode="&#x3e;" 
d="M74 436l361 -146q10 -4 10 -12v-4q0 -8 -10 -12l-361 -146q-10 -3 -10 7v7q0 9 10 13l332 132v2l-332 132q-10 4 -10 13v7q0 10 10 7z" />
    <glyph glyph-name="question" unicode="?" horiz-adv-x="421" 
d="M280 690q68 0 103 -36t35 -97q0 -84 -96 -186l-53 -57q-29 -31 -38.5 -48.5t-16.5 -50.5l-8 -40q-2 -10 -11 -10h-8q-10 0 -8 10l8 40q12 61 52 104l53 56q56 59 78 98.5t22 81.5q0 53 -30 81.5t-85 28.5q-66 0 -120 -39q-5 -4 -6 -8l-14 -83q-2 -10 -12 -10h-7
q-10 0 -8 10l17 95q1 8 9 13q69 47 144 47zM165 68h25q10 0 8 -10l-8 -48q-2 -10 -11 -10h-25q-10 0 -8 10l8 48q2 10 11 10z" />
    <glyph glyph-name="at" unicode="@" horiz-adv-x="887" 
d="M503 659q145 0 234.5 -85.5t89.5 -232.5q0 -72 -17 -133.5t-60 -106t-107 -44.5q-37 0 -64.5 24t-32.5 63h-1q-50 -87 -151 -87q-54 1 -86 34t-32 93q0 101 38 180q49 101 151 101q87 0 112 -68h2l8 49q2 10 11 10h74q10 0 8 -10l-1 -5q-1 -9 -12 -9h-50q-6 0 -7 -7
l-39 -224q-3 -16 -3 -31q0 -43 22 -65.5t56 -22.5q42 0 73.5 25.5t48 66t24.5 82t8 81.5q0 141 -81.5 219t-220.5 78q-180 0 -295.5 -122t-115.5 -317q0 -138 82 -217.5t220 -79.5q109 0 211 51q8 4 11 -3l4 -8q3 -8 -6 -12q-101 -53 -225 -53q-147 0 -235.5 85.5
t-88.5 232.5q0 206 122 337t321 131zM469 440q-90 0 -129 -81q-37 -76 -37 -173q0 -104 94 -104q90 0 129 81q37 76 37 173q0 48 -23.5 76t-70.5 28z" />
    <glyph glyph-name="A" unicode="A" horiz-adv-x="567" 
d="M361 680h10q7 0 9 -10l109 -639q1 -6 7 -6h33q10 0 8 -10l-1 -5q-1 -10 -12 -10h-143q-10 0 -8 10l1 5q1 10 12 10h68q7 0 6 7l-30 180h-291l-95 -181q-3 -6 4 -6h68q10 0 8 -10l-1 -5q-1 -10 -12 -10h-145q-10 0 -8 10l1 5q1 10 12 10h32q7 0 10 6l336 639q5 10 12 10z
M358 630l-206 -392h273l-65 392h-2z" />
    <glyph glyph-name="B" unicode="B" horiz-adv-x="598" 
d="M134 680h273q76 0 117.5 -37t41.5 -104q0 -75 -39 -126t-104 -66v-2q37 -8 66.5 -41.5t29.5 -91.5q0 -98 -59 -155t-165 -57h-280q-10 0 -8 10l1 5q1 10 12 10h62q6 0 7 6l108 618q1 6 -5 6h-63q-10 0 -8 10l1 5q1 10 12 10zM407 654h-175q-6 0 -7 -6l-49 -282
q-2 -6 4 -6h175q85 0 134.5 49t49.5 126q0 57 -33.5 88t-98.5 31zM354 334h-178q-6 0 -7 -6l-52 -296q-1 -6 5 -6h178q91 0 141.5 50.5t50.5 132.5q0 58 -35 91.5t-103 33.5z" />
    <glyph glyph-name="C" unicode="C" horiz-adv-x="552" 
d="M373 690q110 0 172 -52q6 -5 5 -14l-16 -94q-2 -10 -11 -10h-8q-10 0 -8 10l15 84q1 5 -3 9q-48 41 -147 41q-143 0 -205 -129q-28 -58 -50 -171.5t-22 -180.5q0 -167 180 -167q88 0 142 33q5 4 6 10l14 75q2 10 11 10h8q10 0 8 -10l-15 -88q-1 -10 -10 -15
q-64 -41 -168 -41q-204 0 -204 188q0 70 22.5 188t50.5 176q37 77 93 112.5t140 35.5z" />
    <glyph glyph-name="D" unicode="D" horiz-adv-x="624" 
d="M134 680h267q183 0 183 -173q0 -69 -24 -193.5t-52 -182.5q-34 -70 -88 -100.5t-138 -30.5h-267q-10 0 -8 10l1 5q1 10 12 10h62q6 0 7 6l108 618q1 6 -5 6h-63q-10 0 -8 10l1 5q1 10 12 10zM396 654h-164q-6 0 -7 -6l-108 -616q-1 -6 4 -6h163q143 0 199 114
q27 56 50 175.5t23 188.5q0 77 -39 113.5t-121 36.5z" />
    <glyph glyph-name="E" unicode="E" horiz-adv-x="562" 
d="M134 680h431q10 0 8 -10l-16 -93q-2 -10 -11 -10h-8q-10 0 -8 10l12 71q2 6 -5 6h-305q-6 0 -7 -6l-49 -282q-1 -7 6 -7h248q6 0 7 6l10 58q2 10 11 10h8q10 0 8 -10l-27 -157q-2 -10 -11 -10h-8q-10 0 -8 10l10 61q2 6 -5 6h-249q-6 0 -7 -6l-52 -295q-1 -6 5 -6h305
q5 0 7 6l13 70q2 10 11 10h8q10 0 8 -10l-17 -92q-1 -10 -12 -10h-430q-10 0 -8 10l1 5q1 10 12 10h62q6 0 7 6l108 618q1 6 -5 6h-63q-10 0 -8 10l1 5q1 10 12 10z" />
    <glyph glyph-name="F" unicode="F" horiz-adv-x="546" 
d="M134 680h431q10 0 8 -10l-16 -93q-2 -10 -11 -10h-8q-10 0 -8 10l12 71q2 6 -5 6h-305q-6 0 -7 -6l-50 -289q-1 -7 6 -7h258q5 0 7 6l10 58q2 10 11 10h8q10 0 8 -10l-27 -157q-2 -10 -11 -10h-8q-10 0 -8 10l10 61q1 6 -5 6h-259q-5 0 -7 -6l-51 -289q-1 -6 5 -6h73
q10 0 8 -10l-1 -5q-1 -10 -12 -10h-175q-10 0 -8 10l1 5q1 10 12 10h62q6 0 7 6l108 618q1 6 -5 6h-63q-10 0 -8 10l1 5q1 10 12 10z" />
    <glyph glyph-name="G" unicode="G" horiz-adv-x="589" 
d="M383 690q115 0 179 -61q6 -6 4 -15l-16 -88q-2 -10 -11 -10h-8q-10 0 -8 10l14 81q1 6 -4 11q-55 46 -154 46q-79 0 -129 -31.5t-82 -96.5q-28 -58 -50 -172t-22 -181q0 -83 41.5 -125t132.5 -42q105 0 166 40q8 5 10 15l40 228q2 6 -5 6h-159q-9 0 -7 10l1 7q2 9 10 9
h183q9 0 7 -10l-45 -257q-3 -18 -13 -25q-70 -49 -192 -49q-99 0 -148.5 48.5t-49.5 139.5q0 70 22.5 188t50.5 176q37 77 93.5 112.5t148.5 35.5z" />
    <glyph glyph-name="H" unicode="H" horiz-adv-x="668" 
d="M529 680h165q10 0 8 -10l-1 -5q-1 -10 -12 -10h-62q-5 0 -7 -6l-108 -618q-2 -6 5 -6h63q10 0 8 -10l-1 -5q-1 -10 -12 -10h-165q-10 0 -8 10l1 5q1 10 12 10h62q5 0 7 6l51 296q1 6 -4 6h-355q-6 0 -7 -6l-52 -296q-1 -6 5 -6h63q10 0 8 -10l-1 -5q-1 -10 -12 -10h-165
q-10 0 -8 10l1 5q1 10 12 10h62q6 0 7 6l108 618q1 6 -5 6h-63q-10 0 -8 10l1 5q1 10 12 10h165q10 0 8 -10l-1 -5q-1 -10 -12 -10h-62q-6 0 -7 -6l-50 -284q-1 -6 5 -6h355q5 0 7 6l50 284q2 6 -5 6h-63q-10 0 -8 10l1 5q1 10 12 10z" />
    <glyph glyph-name="I" unicode="I" horiz-adv-x="273" 
d="M134 680h165q10 0 8 -10l-1 -5q-1 -10 -12 -10h-62q-6 0 -7 -6l-108 -618q-1 -6 5 -6h63q10 0 8 -10l-1 -5q-1 -10 -12 -10h-165q-10 0 -8 10l1 5q1 10 12 10h62q6 0 7 6l108 618q1 6 -5 6h-63q-10 0 -8 10l1 5q1 10 12 10z" />
    <glyph glyph-name="J" unicode="J" horiz-adv-x="454" 
d="M333 680h165q10 0 8 -10l-1 -5q-1 -10 -12 -10h-62q-6 0 -7 -6l-81 -461q-35 -198 -209 -198q-75 0 -122 38q-7 6 -6 13l16 90q2 10 11 10h8q10 0 8 -10l-14 -79q-1 -5 4 -9q37 -27 98 -27q148 0 179 175l80 458q2 6 -5 6h-63q-10 0 -8 10l1 5q1 10 12 10z" />
    <glyph glyph-name="K" unicode="K" horiz-adv-x="597" 
d="M489 680h165q10 0 8 -10l-1 -5q-1 -10 -12 -10h-56q-6 0 -12 -6l-233 -231l132 -387q2 -6 8 -6h73q10 0 8 -10l-1 -5q-1 -10 -12 -10h-86q-9 0 -12 10l-131 387l-177 -176l-33 -190q-1 -6 5 -6h63q10 0 8 -10l-1 -5q-1 -10 -12 -10h-165q-10 0 -8 10l1 5q1 10 12 10h62
q6 0 7 6l108 618q1 6 -5 6h-63q-10 0 -8 10l1 5q1 10 12 10h165q10 0 8 -10l-1 -5q-1 -10 -12 -10h-62q-6 0 -7 -6l-67 -383l383 382q2 2 1 4.5t-5 2.5h-53q-10 0 -8 10l1 5q1 10 12 10z" />
    <glyph glyph-name="L" unicode="L" horiz-adv-x="520" 
d="M134 680h165q10 0 8 -10l-1 -5q-1 -10 -12 -10h-62q-6 0 -7 -6l-108 -617q-1 -6 4 -6h307q6 0 7 6l13 70q2 10 11 10h8q10 0 8 -10l-17 -92q-1 -10 -12 -10h-431q-10 0 -8 10l1 5q1 10 12 10h62q6 0 7 6l108 618q1 6 -5 6h-63q-10 0 -8 10l1 5q1 10 12 10z" />
    <glyph glyph-name="M" unicode="M" horiz-adv-x="768" 
d="M704 680h90q10 0 8 -10l-1 -5q-1 -10 -12 -10h-62q-5 0 -7 -6l-108 -618q-2 -6 5 -6h63q10 0 8 -10l-1 -5q-1 -10 -12 -10h-165q-10 0 -8 10l1 5q1 10 12 10h62q5 0 7 6l101 575h-2l-300 -492q-6 -10 -17 -10h-4q-12 0 -15 11l-127 494h-2l-101 -578q-1 -6 5 -6h63
q10 0 8 -10l-1 -5q-1 -10 -12 -10h-165q-10 0 -8 10l1 5q1 10 12 10h62q6 0 7 6l108 618q1 6 -5 6h-63q-10 0 -8 10l1 5q1 10 12 10h87q8 0 11 -10l136 -528h2l320 528q6 10 14 10z" />
    <glyph glyph-name="N" unicode="N" horiz-adv-x="668" 
d="M529 680h165q10 0 8 -10l-1 -5q-1 -10 -12 -10h-62q-5 0 -7 -6l-112 -639q-2 -10 -11 -10h-7q-10 0 -14 10l-253 614h-2l-104 -593q-1 -6 5 -6h63q10 0 8 -10l-1 -5q-1 -10 -12 -10h-165q-10 0 -8 10l1 5q1 10 12 10h62q6 0 7 6l108 618q1 6 -5 6h-63q-10 0 -8 10l1 5
q1 10 12 10h86q9 0 13 -10l253 -611h2l104 590q2 6 -5 6h-63q-10 0 -8 10l1 5q1 10 12 10z" />
    <glyph glyph-name="O" unicode="O" horiz-adv-x="580" 
d="M369 690q85 0 132 -49.5t47 -138.5q0 -70 -22.5 -188t-50.5 -176q-72 -148 -228 -148q-85 0 -132 49.5t-47 138.5q0 70 22.5 188t50.5 176q72 148 228 148zM365 664q-135 0 -197 -128q-28 -58 -50 -172t-22 -181q0 -81 39.5 -124t115.5 -43q135 0 197 128q28 58 50 172
t22 181q0 81 -39.5 124t-115.5 43z" />
    <glyph glyph-name="P" unicode="P" horiz-adv-x="572" 
d="M134 680h277q80 0 123 -37t43 -104q0 -105 -63.5 -165t-166.5 -60h-175q-6 0 -7 -6l-48 -276q-1 -7 5 -7h73q10 0 8 -10l-1 -5q-1 -10 -12 -10h-175q-10 0 -8 10l1 5q1 10 12 10h62q6 0 7 6l108 618q1 6 -5 6h-63q-10 0 -8 10l1 5q1 10 12 10zM407 654h-175q-6 0 -7 -6
l-53 -302q-2 -6 5 -6h171q94 1 148 52.5t54 144.5q0 117 -143 117z" />
    <glyph glyph-name="Q" unicode="Q" horiz-adv-x="580" 
d="M369 690q85 0 132 -49.5t47 -138.5q0 -70 -22.5 -188t-50.5 -176q-26 -52 -58 -84l44 -79q5 -8 -5 -13l-4 -2q-9 -5 -13 2l-41 75q-60 -47 -151 -47q-85 0 -132 49.5t-47 138.5q0 70 22.5 188t50.5 176q72 148 228 148zM365 664q-135 0 -197 -128q-28 -58 -50 -172
t-22 -181q0 -81 39.5 -124t115.5 -43q80 0 134 45l-56 102q-3 9 5 13l4 2q9 5 13 -2l53 -97q24 26 44 65q28 58 50 172t22 181q0 81 -39.5 124t-115.5 43z" />
    <glyph glyph-name="R" unicode="R" horiz-adv-x="609" 
d="M134 680h275q80 0 122.5 -37t42.5 -106q0 -86 -45 -140.5t-128 -68.5l76 -297q1 -6 6 -6h67q10 0 8 -10l-1 -5q-1 -10 -12 -10h-82q-8 0 -11 9l-79 315h-198q-5 0 -7 -6l-51 -287q-1 -6 5 -6h63q10 0 8 -10l-1 -5q-1 -10 -12 -10h-165q-10 0 -8 10l1 5q1 10 12 10h62
q6 0 7 6l108 618q1 6 -5 6h-63q-10 0 -8 10l1 5q1 10 12 10zM404 654h-172q-6 0 -7 -6l-51 -292q-2 -6 5 -6h172q95 0 145.5 50t50.5 135q0 119 -143 119z" />
    <glyph glyph-name="S" unicode="S" horiz-adv-x="575" 
d="M358 690q103 0 171 -46q8 -5 7 -11l-15 -83q-2 -10 -11 -10h-8q-10 0 -8 10l12 68q1 6 -3 9q-61 37 -149 37q-86 0 -137 -49.5t-51 -124.5q0 -58 32 -87.5t114 -41.5l28 -4q83 -12 118 -47.5t35 -99.5q0 -100 -66 -160t-185 -60q-52 0 -103 16t-83 41q-7 6 -6 13l17 90
q2 10 11 10h8q10 0 8 -10l-15 -79q-1 -5 4 -9q70 -46 170 -46q96 0 154.5 52t58.5 141q0 56 -31.5 84t-112.5 40l-28 4q-156 23 -156 149q0 90 59 147t161 57z" />
    <glyph glyph-name="T" unicode="T" horiz-adv-x="545" 
d="M117 680h470q10 0 8 -10l-16 -93q-2 -10 -11 -10h-8q-10 0 -8 10l12 71q1 6 -5 6h-192q-5 0 -7 -6l-108 -617q-2 -6 5 -6h63q10 0 8 -10l-1 -5q-1 -10 -12 -10h-165q-10 0 -8 10l1 5q1 10 12 10h62q5 0 7 6l108 617q2 6 -4 6h-192q-6 0 -7 -6l-12 -71q-2 -10 -11 -10h-8
q-10 0 -8 10l16 93q2 10 11 10z" />
    <glyph glyph-name="U" unicode="U" horiz-adv-x="633" 
d="M510 680h165q10 0 8 -10l-1 -5q-1 -10 -12 -10h-62q-6 0 -7 -6l-73 -417q-22 -128 -79.5 -185t-163.5 -57q-89 0 -136.5 43.5t-47.5 129.5q0 25 7 69l73 417q1 6 -5 6h-63q-10 0 -8 10l1 5q1 10 12 10h165q10 0 8 -10l-1 -5q-1 -10 -12 -10h-62q-6 0 -7 -6l-73 -418
q-6 -36 -6 -66q0 -149 157 -149q92 0 142.5 49.5t70.5 165.5l73 418q1 6 -5 6h-63q-10 0 -8 10l1 5q1 10 12 10z" />
    <glyph glyph-name="V" unicode="V" horiz-adv-x="574" 
d="M492 680h148q10 0 8 -10l-1 -5q-1 -10 -12 -10h-35q-5 0 -8 -6l-326 -639q-6 -10 -13 -10h-9q-7 0 -9 10l-103 638q-1 7 -7 7h-36q-10 0 -8 10l1 5q1 10 12 10h149q10 0 8 -10l-1 -5q-1 -10 -12 -10h-74q-6 0 -5 -7l97 -601h1l304 601q3 7 -3 7h-71q-10 0 -8 10l1 5
q1 10 12 10z" />
    <glyph glyph-name="W" unicode="W" horiz-adv-x="807" 
d="M725 680h148q10 0 8 -10l-1 -5q-1 -10 -12 -10h-35q-6 0 -8 -6l-261 -639q-4 -10 -14 -10h-8q-9 0 -10 10l-58 610h-2l-274 -610q-4 -10 -14 -10h-8q-10 0 -10 10l-35 638q0 7 -7 7h-35q-10 0 -8 10l1 5q1 10 12 10h149q10 0 8 -10l-1 -5q-1 -10 -12 -10h-73q-6 0 -6 -7
l32 -588h2l271 610q4 10 14 10h8q10 0 11 -10l57 -610h2l238 588q4 7 -3 7h-71q-10 0 -8 10l1 5q1 10 12 10z" />
    <glyph glyph-name="X" unicode="X" horiz-adv-x="550" 
d="M428 680h148q10 0 8 -10l-1 -5q-1 -10 -12 -10h-32q-5 0 -10 -6l-223 -291l135 -326q3 -7 8 -7h34q10 0 8 -10l-1 -5q-1 -10 -12 -10h-149q-10 0 -8 10l1 5q1 10 12 10h71q8 0 5 7l-123 299h-1l-230 -299q-5 -7 3 -7h68q10 0 8 -10l-1 -5q-1 -10 -12 -10h-148
q-10 0 -8 10l1 5q1 10 12 10h33q6 0 10 6l253 328l-121 289q-3 7 -8 7h-34q-10 0 -8 10l1 5q1 10 12 10h149q10 0 8 -10l-1 -5q-1 -10 -12 -10h-72q-7 0 -4 -7l109 -262h1l200 262q5 7 -3 7h-69q-10 0 -8 10l1 5q1 10 12 10z" />
    <glyph glyph-name="Y" unicode="Y" horiz-adv-x="525" 
d="M446 680h148q10 0 8 -10l-1 -5q-1 -10 -12 -10h-34q-5 0 -9 -6l-258 -370l-43 -248q-1 -6 5 -6h63q10 0 8 -10l-1 -5q-1 -10 -12 -10h-165q-10 0 -8 10l1 5q1 10 12 10h62q6 0 7 6l43 249l-127 368q-3 7 -8 7h-36q-10 0 -8 10l1 5q1 10 12 10h150q10 0 8 -10l-1 -5
q-1 -10 -12 -10h-71q-8 0 -5 -8l115 -333h2l234 334q5 7 -3 7h-70q-10 0 -8 10l1 5q1 10 12 10z" />
    <glyph glyph-name="Z" unicode="Z" horiz-adv-x="518" 
d="M151 680h384q10 0 8 -10l-1 -7q-1 -7 -7 -14l-486 -622v-1h352q5 0 7 6l13 73q2 10 11 10h8q10 0 8 -10l-17 -95q-1 -10 -12 -10h-402q-10 0 -8 10l1 7q1 7 8 15l486 621v1h-335q-5 0 -7 -6l-12 -70q-2 -10 -11 -10h-8q-10 0 -8 10l16 92q1 10 12 10z" />
    <glyph glyph-name="bracketleft" unicode="[" horiz-adv-x="282" 
d="M223 740h92q10 0 8 -10l-1 -6q-2 -10 -11 -10h-69q-6 0 -7 -6l-134 -760q-1 -6 5 -6h69q10 0 8 -10l-1 -6q-1 -10 -12 -10h-92q-10 0 -8 10l142 804q2 10 11 10z" />
    <glyph glyph-name="backslash" unicode="\" horiz-adv-x="384" 
d="M161 690h7q9 0 11 -10l92 -680q2 -10 -8 -10h-7q-9 0 -11 10l-92 680q-2 10 8 10z" />
    <glyph glyph-name="bracketright" unicode="]" horiz-adv-x="282" 
d="M148 740h92q10 0 8 -10l-142 -804q-2 -10 -11 -10h-92q-10 0 -8 10l1 6q2 10 11 10h69q6 0 7 6l134 760q1 6 -5 6h-69q-10 0 -8 10l1 6q1 10 12 10z" />
    <glyph glyph-name="asciicircum" unicode="^" 
d="M267 680h5q9 0 14 -10l172 -367q5 -10 -7 -10h-5q-9 0 -13 10l-163 346h-2l-162 -346q-4 -10 -13 -10h-5q-12 0 -7 10l172 367q5 10 14 10z" />
    <glyph glyph-name="underscore" unicode="_" horiz-adv-x="425" 
d="M366 -115h-425l5 26h425z" />
    <glyph glyph-name="grave" unicode="`" horiz-adv-x="403" 
d="M276 700h9q9 0 13 -10l54 -120q5 -10 -7 -10h-2q-9 0 -15 10l-59 120q-2 4 0 7t7 3z" />
    <glyph glyph-name="a" unicode="a" horiz-adv-x="491" 
d="M269 484q69 0 100.5 -23.5t31.5 -76.5q0 -20 -5 -52l-54 -301q-2 -6 5 -6h59q10 0 8 -10l-1 -5q-1 -10 -12 -10h-82q-10 0 -8 10l10 56h-1q-19 -34 -60 -55t-97 -21q-62 0 -96 30.5t-34 82.5q0 78 49.5 118.5t144.5 40.5h123q6 0 7 6q17 87 17 115q0 42 -24.5 59
t-84.5 17q-66 0 -114 -24q-5 -2 -6 -7l-11 -61q-2 -10 -11 -10h-8q-10 0 -8 10l13 76q1 7 6 9q66 32 143 32zM346 237h-118q-168 0 -168 -132q0 -42 28 -66t82 -24q62 0 108.5 36t55.5 90l16 90q2 6 -4 6z" />
    <glyph glyph-name="b" unicode="b" horiz-adv-x="533" 
d="M135 680h83q10 0 8 -10l-48 -273h1q56 87 159 87q68 0 103 -40t35 -113q0 -58 -16 -126t-33 -102q-54 -113 -173 -113q-52 0 -85 25.5t-46 66.5h-1l-12 -72q-2 -10 -11 -10h-84q-10 0 -8 10l1 5q1 10 12 10h60q6 0 7 6l108 618q1 6 -5 6h-60q-10 0 -8 10l1 5q1 10 12 10z
M333 459q-102 0 -154 -106q-11 -22 -26 -97.5t-15 -117.5q0 -55 31 -89t87 -34q100 0 147 98q21 41 33.5 104t12.5 113q0 129 -116 129z" />
    <glyph glyph-name="c" unicode="c" horiz-adv-x="466" 
d="M288 484q89 0 132 -43q5 -5 4 -12l-13 -77q-2 -10 -11 -10h-8q-10 0 -8 10l11 67q1 6 -2 9q-33 31 -109 31q-110 0 -160 -104q-18 -37 -30.5 -98t-12.5 -102q0 -140 137 -140q59 0 105 26q6 4 7 9l12 68q2 10 11 10h8q10 0 8 -10l-14 -79q-1 -10 -9 -14q-56 -35 -132 -35
q-79 0 -119.5 40.5t-40.5 118.5q0 46 14.5 114t33.5 106q57 115 186 115z" />
    <glyph glyph-name="d" unicode="d" horiz-adv-x="528" 
d="M394 680h83q10 0 8 -10l-112 -638q-1 -7 5 -7h61q10 0 8 -10l-1 -6q-1 -9 -12 -9h-84q-10 0 -8 10l12 67h-1q-56 -87 -159 -87q-68 0 -103 40t-35 113q0 58 16 126t33 102q54 113 173 113q52 0 85 -25.5t46 -66.5h1l44 256q1 7 -5 7h-60q-10 0 -8 10l1 5q1 10 12 10z
M276 459q-100 0 -147 -98q-21 -41 -33.5 -104t-12.5 -113q0 -129 116 -129q102 0 154 106q11 22 26 97.5t15 117.5q0 55 -31 89t-87 34z" />
    <glyph glyph-name="e" unicode="e" horiz-adv-x="467" 
d="M281 484q64 0 102 -39t38 -112q0 -35 -9 -86q-2 -10 -12 -10h-304q-6 0 -8 -6q-7 -36 -7 -89q0 -60 30 -93.5t91 -33.5q86 0 150 71q8 8 14 3l6 -5q6 -6 -1 -14q-68 -80 -171 -80q-71 0 -108.5 39.5t-37.5 112.5q0 128 46 223q28 58 75 88.5t106 30.5zM279 459
q-105 0 -155 -104q-18 -38 -28 -87q-2 -6 5 -6h281q6 0 7 6q6 33 6 61q0 130 -116 130z" />
    <glyph glyph-name="f" unicode="f" horiz-adv-x="306" 
d="M317 680h20q10 0 8 -10l-1 -5q-1 -10 -12 -10h-17q-56 0 -76.5 -19t-32.5 -84l-13 -72q-1 -6 5 -6h103q10 0 8 -10l-1 -5q-1 -10 -12 -10h-103q-5 0 -6 -6l-73 -412q-2 -6 5 -6h71q10 0 8 -10l-1 -5q-1 -10 -12 -10h-172q-10 0 -8 10l1 5q1 10 12 10h62q6 0 7 6l73 412
q2 6 -5 6h-56q-10 0 -8 10l1 5q1 10 12 10h56q6 0 7 6l11 65q14 83 42.5 109t96.5 26z" />
    <glyph glyph-name="g" unicode="g" horiz-adv-x="520" 
d="M274 484q51 0 83 -26t43 -66h1l12 72q2 10 11 10h85q10 0 8 -10l-1 -5q-1 -10 -12 -10h-61q-6 0 -7 -7l-78 -440q-19 -103 -68.5 -147.5t-128.5 -44.5q-93 0 -132 72q-6 10 4 14l7 3q8 3 13 -5q38 -59 112 -59q139 0 167 169l12 70h-1q-50 -84 -153 -84q-66 0 -101 39
t-35 108q0 52 13.5 120t36.5 114q55 113 170 113zM272 459q-97 0 -144 -98q-47 -102 -47 -223q0 -57 28 -90t86 -33q97 0 144 95q17 34 31.5 110t14.5 116q0 54 -29.5 88.5t-83.5 34.5z" />
    <glyph glyph-name="h" unicode="h" horiz-adv-x="560" 
d="M137 680h83q10 0 8 -10l-47 -270h1q54 84 153 84q132 0 132 -129q0 -29 -5 -54l-49 -270q-1 -6 5 -6h59q10 0 8 -10l-1 -5q-1 -10 -12 -10h-158q-10 0 -8 10l1 5q1 10 12 10h60q5 0 7 6l48 263q6 32 6 57q0 56 -27 82t-83 26t-104.5 -41t-60.5 -107l-49 -280q-2 -6 5 -6
h61q10 0 8 -10l-1 -5q-1 -10 -12 -10h-160q-10 0 -8 10l1 5q1 10 12 10h60q6 0 7 6l108 618q1 6 -5 6h-60q-10 0 -8 10l1 5q1 10 12 10z" />
    <glyph glyph-name="uni0069" unicode="i" horiz-adv-x="269" 
d="M206 680h22q9 0 7 -10l-7 -38q-1 -10 -12 -10h-20q-10 0 -8 10l7 38q2 10 11 10zM101 474h83q10 0 8 -10l-76 -433q-2 -6 5 -6h61q10 0 8 -10l-1 -5q-1 -10 -12 -10h-160q-10 0 -8 10l1 5q1 10 12 10h60q6 0 7 6l72 412q1 6 -5 6h-60q-10 0 -8 10l1 5q1 10 12 10z" />
    <glyph glyph-name="j" unicode="j" horiz-adv-x="269" 
d="M204 680h22q9 0 7 -10l-7 -38q-1 -10 -12 -10h-20q-10 0 -8 10l7 38q2 10 11 10zM99 474h83q10 0 8 -10l-93 -535q-11 -64 -37 -86.5t-84 -22.5h-4q-10 0 -8 10l1 5q1 10 12 10h3q44 0 62.5 17t27.5 67l89 513q1 7 -5 7h-60q-10 0 -8 10l1 5q1 10 12 10z" />
    <glyph glyph-name="k" unicode="k" horiz-adv-x="522" 
d="M137 680h83q10 0 8 -10l-86 -487l275 282q9 9 17 9h72q10 0 8 -10l-1 -5q-1 -10 -12 -10h-59q-5 0 -10 -5l-139 -142l105 -272q2 -5 8 -5h60q10 0 8 -10l-1 -5q-1 -10 -12 -10h-71q-9 0 -13 10l-104 272l-138 -141l-19 -110q-2 -6 5 -6h61q10 0 8 -10l-1 -5
q-1 -10 -12 -10h-160q-10 0 -8 10l1 5q1 10 12 10h60q6 0 7 6l108 618q1 6 -5 6h-60q-10 0 -8 10l1 5q1 10 12 10z" />
    <glyph glyph-name="l" unicode="l" horiz-adv-x="248" 
d="M114 680h83q10 0 8 -10l-105 -575q-3 -19 -3 -32q0 -22 10 -31t33 -9h14q10 0 8 -10l-1 -5q-1 -10 -12 -10h-13q-66 0 -66 64q0 14 4 40l100 546q1 7 -5 7h-60q-10 0 -8 10l1 5q1 10 12 10z" />
    <glyph glyph-name="m" unicode="m" horiz-adv-x="858" 
d="M633 484q132 0 132 -130q0 -21 -5 -53l-49 -270q-1 -6 5 -6h59q10 0 8 -10l-1 -5q-1 -10 -12 -10h-158q-10 0 -8 10l1 5q1 10 12 10h60q5 0 7 6l48 263q6 32 6 56q0 56 -27 82.5t-83 26.5q-57 0 -105 -40.5t-60 -108.5l-49 -279q-2 -6 5 -6h61q10 0 8 -10l-1 -5
q-1 -10 -12 -10h-160q-10 0 -8 10l1 5q1 10 12 10h60q6 0 7 6l46 263q6 32 6 57q0 56 -26.5 82t-82.5 26t-104.5 -41t-60.5 -107l-49 -280q-2 -6 5 -6h61q10 0 8 -10l-1 -5q-1 -10 -12 -10h-160q-10 0 -8 10l1 5q1 10 12 10h60q6 0 7 6l72 412q1 6 -5 6h-60q-10 0 -8 10l1 5
q1 10 12 10h83q10 0 8 -10l-11 -64h1q54 84 153 84q115 0 129 -100h1q24 45 68 72.5t100 27.5z" />
    <glyph glyph-name="n" unicode="n" horiz-adv-x="560" 
d="M335 484q132 0 132 -129q0 -29 -5 -54l-49 -270q-1 -6 5 -6h59q10 0 8 -10l-1 -5q-1 -10 -12 -10h-158q-10 0 -8 10l1 5q1 10 12 10h60q5 0 7 6l48 263q6 32 6 56q0 56 -27 82.5t-83 26.5t-104.5 -41t-60.5 -107l-49 -280q-2 -6 5 -6h61q10 0 8 -10l-1 -5q-1 -10 -12 -10
h-160q-10 0 -8 10l1 5q1 10 12 10h60q6 0 7 6l72 412q1 6 -5 6h-60q-10 0 -8 10l1 5q1 10 12 10h83q10 0 8 -10l-11 -64h1q54 84 153 84z" />
    <glyph glyph-name="o" unicode="o" horiz-adv-x="481" 
d="M283 484q73 0 109.5 -41t36.5 -116q0 -53 -15.5 -119.5t-32.5 -102.5q-55 -115 -181 -115q-73 0 -109.5 41t-36.5 116q0 53 15.5 119.5t32.5 102.5q55 115 181 115zM279 459q-104 0 -155 -104q-14 -29 -28.5 -92t-14.5 -109q0 -139 123 -139q104 0 155 104q14 29 28.5 92
t14.5 109q0 139 -123 139z" />
    <glyph glyph-name="p" unicode="p" horiz-adv-x="533" 
d="M338 484q68 0 103 -40t35 -113q0 -58 -16 -126t-33 -102q-54 -113 -173 -113q-52 0 -85 25.5t-46 66.5h-1l-40 -230q-1 -7 5 -7h61q10 0 8 -10l-1 -5q-1 -10 -12 -10h-160q-10 0 -8 10l1 5q1 10 12 10h60q6 0 7 7l104 591q1 6 -5 6h-60q-10 0 -8 10l1 5q1 10 12 10h83
q10 0 8 -10l-12 -67h1q56 87 159 87zM333 459q-102 0 -154 -106q-11 -22 -26 -97.5t-15 -117.5q0 -55 31 -89t87 -34q100 0 147 98q21 41 33.5 104t12.5 113q0 129 -116 129z" />
    <glyph glyph-name="q" unicode="q" horiz-adv-x="528" 
d="M279 484q105 0 130 -90h1l12 70q2 10 11 10h85q10 0 8 -10l-1 -5q-1 -10 -12 -10h-61q-6 0 -7 -7l-104 -590q-1 -7 5 -7h61q10 0 8 -10l-1 -5q-1 -10 -12 -10h-160q-10 0 -8 10l1 5q1 10 12 10h60q6 0 7 7l39 222h-1q-55 -84 -158 -84q-68 0 -103 39.5t-35 113.5
q0 57 16.5 125t33.5 103q54 113 173 113zM276 459q-99 0 -146 -98q-21 -42 -34 -105t-13 -112q0 -129 116 -129q102 0 154 106q11 22 26 97.5t15 117.5q0 55 -30.5 89t-87.5 34z" />
    <glyph glyph-name="r" unicode="r" horiz-adv-x="387" 
d="M327 482q36 0 57 -7q9 -3 8 -10l-2 -10q-1 -8 -11 -5q-26 7 -56 7q-66 0 -108.5 -52.5t-55.5 -128.5l-43 -245q-2 -6 5 -6h65q10 0 8 -10l-1 -5q-1 -10 -12 -10h-164q-10 0 -8 10l1 5q1 10 12 10h60q6 0 7 6l72 412q1 6 -5 6h-60q-10 0 -8 10l1 5q1 10 12 10h83
q10 0 8 -10l-14 -80h1q21 43 59 70.5t89 27.5z" />
    <glyph glyph-name="s" unicode="s" horiz-adv-x="455" 
d="M264 484q71 0 130 -32q7 -3 5 -11l-14 -80q-2 -10 -11 -10h-8q-10 0 -8 10l12 67q1 5 -4 8q-48 23 -105 23q-64 0 -104 -34t-40 -87q0 -36 23.5 -55t78.5 -25l44 -5q109 -12 109 -101q0 -73 -52.5 -117.5t-138.5 -44.5q-87 0 -147 43q-5 3 -3 13l14 80q2 10 11 10h8
q10 0 8 -10l-12 -70q-1 -6 3 -9q51 -32 120 -32q73 0 117.5 36.5t44.5 97.5q0 36 -22 55t-75 25l-44 5q-114 14 -114 103q0 64 47 105.5t127 41.5z" />
    <glyph glyph-name="t" unicode="t" horiz-adv-x="289" 
d="M194 630h8q10 0 8 -10l-24 -140q-2 -6 5 -6h95q10 0 8 -10l-1 -5q-1 -10 -12 -10h-95q-6 0 -7 -6l-61 -319q-5 -30 -5 -45q0 -32 17 -44t57 -12h16q10 0 8 -10l-1 -5q-1 -10 -12 -10h-16q-50 0 -73 18t-23 61q0 22 4 43l62 323q2 6 -5 6h-56q-10 0 -8 10l1 5q1 10 12 10
h56q6 0 7 6l24 140q2 10 11 10z" />
    <glyph glyph-name="u" unicode="u" horiz-adv-x="534" 
d="M364 474h83q10 0 8 -10l-76 -433q-1 -6 5 -6h61q10 0 8 -10l-1 -5q-1 -10 -12 -10h-84q-10 0 -8 10l11 64h-1q-54 -84 -151 -84q-129 0 -129 127q0 31 5 56l49 270q2 6 -5 6h-60q-10 0 -8 10l1 5q1 10 12 10h83q10 0 8 -10l-52 -284q-6 -33 -6 -60q0 -54 26.5 -79.5
t80.5 -25.5t102.5 41t60.5 107l49 280q2 6 -5 6h-60q-10 0 -8 10l1 5q1 10 12 10z" />
    <glyph glyph-name="v" unicode="v" horiz-adv-x="441" 
d="M345 474h125q10 0 8 -10l-1 -5q-1 -10 -12 -10h-26q-5 0 -9 -7l-234 -432q-5 -10 -12 -10h-10q-6 0 -8 10l-80 433q-2 6 -6 6h-30q-10 0 -8 10l1 5q1 10 12 10h128q10 0 8 -10l-1 -5q-1 -10 -12 -10h-59q-7 0 -5 -7l72 -398h1l211 396q5 9 -4 9h-54q-10 0 -8 10l1 5
q1 10 12 10z" />
    <glyph glyph-name="w" unicode="w" horiz-adv-x="699" 
d="M596 474h125q10 0 8 -10l-1 -5q-1 -10 -12 -10h-28q-6 0 -9 -7l-210 -432q-5 -10 -13 -10h-6q-9 0 -10 10l-58 419h-1l-207 -419q-6 -10 -14 -10h-6q-9 0 -10 10l-57 433q-1 6 -7 6h-30q-10 0 -8 10l1 5q1 10 12 10h128q10 0 8 -10l-1 -5q-1 -10 -12 -10h-59q-7 0 -5 -8
l51 -392h1l204 415q4 10 13 10h7q10 0 11 -10l59 -415h1l188 391q5 9 -4 9h-54q-10 0 -8 10l1 5q1 10 12 10z" />
    <glyph glyph-name="x" unicode="x" horiz-adv-x="441" 
d="M392 474h63q10 0 8 -10l-1 -5q-1 -10 -12 -10h-47q-5 0 -11 -7l-149 -194l92 -217q3 -6 8 -6h50q10 0 8 -10l-1 -5q-1 -10 -12 -10h-62q-8 0 -11 7l-91 217h-1l-167 -217q-6 -7 -14 -7h-63q-10 0 -8 10l1 5q1 10 12 10h45q6 0 12 7l169 218l-78 193q-3 6 -8 6h-50
q-10 0 -8 10l1 5q1 10 12 10h61q8 0 11 -7l79 -192h1l147 192q6 7 14 7z" />
    <glyph glyph-name="y" unicode="y" horiz-adv-x="441" 
d="M348 474h124q10 0 8 -10l-1 -5q-1 -10 -12 -10h-28q-5 0 -9 -7l-268 -497q-42 -77 -71 -101t-72 -24h-15q-10 0 -8 10l1 5q1 10 12 10h16q32 0 55.5 22t58.5 87l29 54l-82 435q-2 6 -6 6h-31q-10 0 -8 10l1 5q1 10 12 10h128q10 0 8 -10l-1 -5q-1 -10 -12 -10h-58
q-7 0 -5 -7l73 -396h1l211 394q5 9 -4 9h-52q-10 0 -8 10l1 5q1 10 12 10z" />
    <glyph glyph-name="z" unicode="z" horiz-adv-x="452" 
d="M122 474h305q10 0 8 -10l-1 -6q-1 -6 -9 -15l-368 -417v-1h268q5 0 7 6l11 64q2 10 11 10h8q10 0 8 -10l-15 -85q-1 -10 -12 -10h-317q-10 0 -8 10l1 6q1 7 8 15l368 417v1h-255q-6 0 -7 -6l-10 -57q-2 -10 -11 -10h-8q-10 0 -8 10l14 78q1 10 12 10z" />
    <glyph glyph-name="braceleft" unicode="{" horiz-adv-x="293" 
d="M304 740h22q10 0 8 -10l-1 -5q-1 -10 -12 -10h-20q-53 0 -64 -68l-36 -207q-10 -56 -23 -78.5t-38 -32.5v-2q27 -17 27 -63q0 -16 -5 -46l-37 -211q-3 -16 -3 -29q0 -20 9.5 -28.5t31.5 -8.5h22q10 0 8 -10l-1 -5q-1 -10 -12 -10h-20q-34 0 -49.5 14t-15.5 46q0 10 4 36
l38 218q4 24 4 36q0 47 -37 51q-9 2 -8 10l1 7q1 9 11 9q25 2 40 19.5t24 67.5l39 218q9 50 30.5 71t62.5 21z" />
    <glyph glyph-name="bar" unicode="|" horiz-adv-x="241" 
d="M134 740h7q10 0 10 -10v-804q0 -10 -10 -10h-7q-10 0 -10 10v804q0 10 10 10z" />
    <glyph glyph-name="braceright" unicode="}" horiz-adv-x="293" 
d="M149 740h20q34 0 49.5 -14t15.5 -46q0 -10 -4 -36l-37 -212q-4 -28 -4 -38q0 -47 37 -51q9 -2 8 -10l-1 -7q-1 -9 -11 -9q-25 -2 -40 -19.5t-24 -67.5l-40 -222q-9 -50 -30.5 -71t-62.5 -21h-22q-10 0 -8 10l1 5q1 10 12 10h20q53 0 64 68l37 211q10 56 23 78.5t38 32.5
v2q-27 16 -27 63q0 16 5 46l36 207q3 17 3 29q0 20 -9.5 28.5t-31.5 8.5h-22q-10 0 -8 10l1 5q1 10 12 10z" />
    <glyph glyph-name="asciitilde" unicode="~" 
d="M170 325q42 0 95 -41q46 -34 78 -34q49 0 86 59q5 8 13 3l4 -2q8 -5 3 -14q-38 -70 -108 -70q-42 0 -95 41q-46 34 -78 34q-49 0 -86 -59q-5 -8 -13 -3l-4 2q-8 5 -3 14q38 70 108 70z" />
    <glyph glyph-name="uni00A0" unicode="&#xa0;" horiz-adv-x="240" 
 />
    <glyph glyph-name="exclamdown" unicode="&#xa1;" horiz-adv-x="237" 
d="M152 474h25q10 0 8 -10l-9 -48q-2 -10 -11 -10h-25q-10 0 -8 10l8 48q3 10 12 10zM131 305h6q10 0 8 -10l-85 -491q-2 -10 -11 -10h-10q-10 0 -8 10l89 491q2 10 11 10z" />
    <glyph glyph-name="cent" unicode="&#xa2;" 
d="M318 577h6q10 0 8 -10l-15 -83q80 -3 125 -48q5 -5 4 -12l-13 -76q-2 -10 -11 -10h-8q-10 0 -8 10l11 67q1 6 -2 9q-34 32 -102 35l-78 -444h6q59 0 105 26q6 4 7 9l12 68q2 10 11 10h8q10 0 8 -10l-14 -79q-1 -10 -9 -14q-56 -35 -132 -35h-7l-14 -83q-2 -10 -11 -10h-6
q-10 0 -8 10l15 85q-129 14 -129 157q0 46 14.5 114t33.5 106q53 107 167 114l15 84q2 10 11 10zM210 17l78 441q-96 -9 -141 -103q-18 -37 -30.5 -98t-12.5 -102q0 -124 106 -138z" />
    <glyph glyph-name="sterling" unicode="&#xa3;" 
d="M367 690q65 0 107 -38q5 -5 4 -12l-13 -77q-2 -10 -11 -10h-8q-10 0 -8 10l11 67q1 6 -2 9q-32 26 -81 26q-111 0 -135 -141l-31 -179q-2 -6 4 -6h138q10 0 8 -10l-1 -5q-2 -10 -12 -10h-138q-5 0 -6 -6l-29 -165q-14 -85 -58 -117v-1h271q5 0 7 6l12 69q2 10 11 10h8
q10 0 8 -10l-16 -90q-1 -10 -12 -10h-318q-10 0 -8 10l1 6q1 4 9 12q46 44 59 116l29 164q1 6 -5 6h-48q-10 0 -8 10l1 5q2 10 12 10h48q6 0 7 6l31 178q29 167 162 167z" />
    <glyph glyph-name="currency" unicode="&#xa4;" 
d="M501 532l5 -6q6 -6 -2 -13l-79 -69q23 -35 23 -83q0 -96 -66 -160l54 -67q6 -7 -1 -13l-5 -4q-8 -7 -13 0l-55 66q-54 -41 -122 -41t-108 43l-78 -68q-7 -6 -13 0l-5 6q-6 6 2 13l79 68q-23 37 -23 84q0 97 66 161l-52 66q-6 7 1 13l5 4q8 7 13 0l54 -65q54 40 121 40
t107 -43l79 68q7 6 13 0zM301 482q-75 0 -128 -56t-53 -135q0 -55 33.5 -89.5t87.5 -34.5q75 0 128 56t53 135q0 55 -33.5 89.5t-87.5 34.5z" />
    <glyph glyph-name="yen" unicode="&#xa5;" 
d="M413 680h148q10 0 8 -10l-1 -5q-1 -10 -12 -10h-37q-5 0 -9 -6l-212 -339v-1h124q10 0 8 -10l-1 -5q-2 -10 -12 -10h-132q-5 0 -7 -6l-12 -74q-2 -6 4 -6h133q10 0 8 -10l-1 -5q-2 -10 -12 -10h-133q-5 0 -6 -6l-24 -136q-1 -6 5 -6h61q10 0 8 -10l-1 -5q-1 -10 -12 -10
h-160q-10 0 -8 10l1 5q1 10 12 10h61q6 0 7 5l24 136q1 7 -5 7h-131q-10 0 -8 10l1 5q2 10 12 10h131q5 0 7 6l12 74q2 6 -5 6h-131q-10 0 -8 10l1 5q2 10 12 10h124v1l-94 338q-1 7 -8 7h-39q-10 0 -8 10l1 5q1 10 12 10h149q10 0 8 -10l-1 -5q-1 -10 -12 -10h-67
q-8 0 -5 -8l90 -331h2l205 332q5 7 -3 7h-67q-10 0 -8 10l1 5q1 10 12 10z" />
    <glyph glyph-name="brokenbar" unicode="&#xa6;" horiz-adv-x="241" 
d="M134 740h7q10 0 10 -10v-332q0 -10 -10 -10h-7q-10 0 -10 10v332q0 10 10 10zM134 272h7q10 0 10 -10v-336q0 -10 -10 -10h-7q-10 0 -10 10v336q0 10 10 10z" />
    <glyph glyph-name="section" unicode="&#xa7;" horiz-adv-x="487" 
d="M329 692q70 0 111 -38q5 -5 4 -12l-13 -77q-2 -10 -11 -10h-8q-10 0 -8 10l11 67q1 6 -2 9q-32 26 -89 26q-60 0 -96 -39t-36 -100q0 -40 26 -65t87 -39q104 -22 104 -126q0 -78 -37 -136.5t-104 -74.5v-1q73 -25 73 -103q0 -77 -48.5 -126t-127.5 -49t-124 36
q-5 5 -4 12l13 79q2 10 11 10h8q10 0 8 -10l-11 -67q-1 -6 2 -9q32 -26 102 -26q64 0 104 40t40 106q0 44 -26.5 67.5t-94.5 36.5q-104 20 -104 125q0 81 39 140t108 72v1q-34 13 -52.5 40t-18.5 62q0 73 43 121t121 48zM274 400q-72 0 -115 -54t-43 -134q0 -50 29.5 -78
t78.5 -28q72 0 115 54t43 134q0 50 -29.5 78t-78.5 28z" />
    <glyph glyph-name="dieresis" unicode="&#xa8;" horiz-adv-x="402" 
d="M174 680h22q10 0 8 -10l-7 -38q-2 -10 -11 -10h-22q-10 0 -8 10l7 38q2 10 11 10zM367 680h22q10 0 8 -10l-7 -38q-2 -10 -11 -10h-22q-10 0 -8 10l7 38q2 10 11 10z" />
    <glyph glyph-name="copyright" unicode="&#xa9;" horiz-adv-x="833" 
d="M437 690q149 0 249.5 -100.5t100.5 -249.5t-100.5 -249.5t-249.5 -100.5t-249.5 100.5t-100.5 249.5t100.5 249.5t249.5 100.5zM437 665q-139 0 -231.5 -92.5t-92.5 -232.5t92.5 -232.5t231.5 -92.5q138 0 230.5 92.5t92.5 232.5t-92.5 232.5t-230.5 92.5zM443 536
q68 0 114 -30q7 -4 7 -11v-68q0 -10 -10 -10h-5q-10 0 -10 10v56q0 4 -4 7q-37 22 -92 22q-45 0 -77.5 -21.5t-45.5 -61.5q-10 -30 -10 -89t10 -89q13 -40 45.5 -61.5t77.5 -21.5q55 0 92 17q4 3 4 7v58q0 10 10 10h5q10 0 10 -10v-70q0 -7 -7 -11q-48 -25 -114 -25
q-54 0 -93 24.5t-54 72.5q-11 35 -11 99q0 62 11 97q15 48 54.5 73.5t92.5 25.5z" />
    <glyph glyph-name="ordfeminine" unicode="&#xaa;" horiz-adv-x="328" 
d="M242 687q87 0 87 -69q0 -14 -3 -30l-29 -167q-1 -6 5 -6h30q10 0 8 -8l-1 -5q-1 -10 -12 -10h-49q-10 0 -8 10l4 23h-1q-30 -39 -99 -39q-38 0 -61 19.5t-23 52.5q0 50 35 75t93 25h73q5 0 7 6q7 36 7 52q0 25 -15.5 36.5t-53.5 11.5q-32 0 -67 -15q-5 -2 -6 -7l-5 -30
q-2 -10 -11 -10h-5q-10 0 -8 10l8 44q1 7 6 9q46 22 94 22zM287 535h-71q-47 0 -74 -19t-27 -55q0 -24 18 -38t49 -14q37 0 66.5 20.5t34.5 45.5l9 54q2 6 -5 6z" />
    <glyph glyph-name="guillemotleft" unicode="&#xab;" horiz-adv-x="477" 
d="M63 271l178 158q3 3 6.5 1.5t2.5 -5.5l-2 -15q-1 -9 -9 -17l-142 -127q-4 -4 -2 -8l96 -127q5 -7 4 -17l-2 -13q0 -3 -2 -4.5t-4.5 -1t-3.5 2.5l-122 159q-6 8 2 14zM245 271l178 158q3 3 6.5 1.5t2.5 -5.5l-2 -15q-1 -9 -9 -17l-142 -127q-4 -4 -2 -8l96 -127
q5 -7 4 -17l-2 -13q0 -3 -2 -4.5t-4.5 -1t-3.5 2.5l-122 159q-6 8 2 14z" />
    <glyph glyph-name="logicalnot" unicode="&#xac;" 
d="M71 289h361q10 0 10 -10v-138q0 -10 -10 -10h-7q-10 0 -10 10v117q0 6 -6 6h-338q-10 0 -10 10v5q0 10 10 10z" />
    <glyph glyph-name="uni00AD" unicode="&#xad;" horiz-adv-x="353" 
d="M68 279h236q10 0 8 -10l-1 -6q-1 -8 -11 -8h-236q-10 0 -8 10l1 6q1 8 11 8z" />
    <glyph glyph-name="registered" unicode="&#xae;" horiz-adv-x="465" 
d="M272 685q83 0 138 -54.5t55 -137.5t-55 -138t-138 -55t-137.5 55t-54.5 138t55 137.5t137 54.5zM272 663q-73 0 -121 -48.5t-48 -121.5q0 -74 48 -122.5t121 -48.5t121.5 49t48.5 122t-48.5 121.5t-121.5 48.5zM192 602h105q30 0 47 -16.5t17 -42.5q0 -22 -12 -38
t-33 -20l31 -73q3 -5 7 -5h13q9 0 9 -9v-3q0 -9 -9 -9h-28q-7 0 -10 7l-38 90h-51q-5 0 -5 -5v-66q0 -5 5 -5h16q9 0 9 -9v-3q0 -9 -9 -9h-64q-9 0 -9 9v3q0 9 9 9h16q5 0 5 5v164q0 5 -5 5h-16q-9 0 -9 9v3q0 9 9 9zM297 581h-57q-5 0 -5 -5v-67q0 -5 5 -5h57q42 0 42 39
q0 38 -42 38z" />
    <glyph glyph-name="macron" unicode="&#xaf;" horiz-adv-x="402" 
d="M165 662h225q10 0 8 -10l-1 -5q-1 -10 -11 -10h-225q-10 0 -8 10l1 5q1 10 11 10z" />
    <glyph glyph-name="degree" unicode="&#xb0;" horiz-adv-x="419" 
d="M263 685q61 0 100.5 -40t39.5 -101q0 -60 -39.5 -100t-100.5 -40t-101 40t-40 100q0 61 40 101t101 40zM263 660q-49 0 -81.5 -33t-32.5 -83q0 -49 32.5 -82t81.5 -33t81 32.5t32 82.5t-32 83t-81 33z" />
    <glyph glyph-name="plusminus" unicode="&#xb1;" 
d="M248 468h7q10 0 10 -10v-163q0 -6 6 -6h161q10 0 10 -10v-5q0 -10 -10 -10h-161q-6 0 -6 -6v-163q0 -10 -10 -10h-7q-10 0 -10 10v163q0 6 -6 6h-161q-10 0 -10 10v5q0 10 10 10h161q6 0 6 6v163q0 10 10 10zM71 25h361q10 0 10 -10v-5q0 -10 -10 -10h-361q-10 0 -10 10
v5q0 10 10 10z" />
    <glyph glyph-name="twosuperior" unicode="&#xb2;" horiz-adv-x="310" 
d="M259 842q47 0 71.5 -23.5t24.5 -61.5q0 -60 -60 -122l-178 -180v-1h184q10 0 8 -10l-1 -4q-3 -10 -11 -10h-210q-10 0 -8 10l1 4q1 6 8 14l189 193q53 55 53 102q0 65 -72 65q-42 0 -72 -19q-4 -2 -5 -8l-8 -48q-2 -10 -10 -10h-6q-10 0 -8 10l11 61q1 8 9 13
q39 25 90 25z" />
    <glyph glyph-name="threesuperior" unicode="&#xb3;" horiz-adv-x="310" 
d="M253 842q45 0 71 -22.5t26 -61.5q0 -79 -73 -115v-1q47 -21 47 -84q0 -61 -37.5 -97.5t-96.5 -36.5q-56 0 -91 29q-4 4 -3 13l12 68q2 10 11 10h5q10 0 8 -10l-10 -57q-1 -7 3 -10q26 -19 69 -19q44 0 74.5 29.5t30.5 79.5q0 32 -20 52.5t-54 20.5h-16q-9 0 -7 10l1 5
q1 9 11 9h13q39 0 68.5 29.5t29.5 71.5q0 29 -20 46t-55 17q-39 0 -69 -19q-4 -2 -5 -8l-8 -48q-2 -10 -10 -10h-6q-10 0 -8 10l11 61q1 8 9 13q39 25 89 25z" />
    <glyph glyph-name="acute" unicode="&#xb4;" horiz-adv-x="401" 
d="M319 700h11q4 0 5.5 -3t-1.5 -7l-102 -120q-9 -10 -18 -10h-4q-11 0 -3 10l94 120q8 10 18 10z" />
    <glyph glyph-name="mu" unicode="&#xb5;" horiz-adv-x="519" 
d="M448 474h8q10 0 8 -10l-76 -432q-1 -7 5 -7h61q10 0 8 -10l-1 -5q-1 -10 -12 -10h-84q-10 0 -8 10l11 64h-1q-54 -84 -155 -84q-90 0 -117 66h-1l-40 -226q-2 -10 -11 -10h-8q-10 0 -8 10l112 634q2 10 11 10h7q10 0 8 -10l-52 -300q-4 -21 -4 -45q0 -104 109 -104
q58 0 106.5 42.5t59.5 105.5l53 301q2 10 11 10z" />
    <glyph glyph-name="paragraph" unicode="&#xb6;" horiz-adv-x="531" 
d="M344 680h213q10 0 8 -10l-1 -5q-2 -10 -12 -10h-62q-6 0 -7 -6l-144 -819q-2 -10 -11 -10h-8q-10 0 -8 10l144 819q2 6 -5 6h-105q-4 0 -6 -6l-144 -819q-2 -10 -11 -10h-8q-10 0 -8 10l78 442q-73 4 -113 47.5t-40 112.5q0 107 70.5 177.5t179.5 70.5z" />
    <glyph glyph-name="periodcentered" unicode="&#xb7;" horiz-adv-x="195" 
d="M98 300h25q10 0 8 -10l-8 -48q-2 -10 -11 -10h-25q-10 0 -8 10l8 48q2 10 11 10z" />
    <glyph glyph-name="cedilla" unicode="&#xb8;" horiz-adv-x="402" 
d="M189 10h5q11 0 6 -10l-68 -134q-5 -10 -17 -10h-8q-11 0 -6 10l74 134q6 10 14 10z" />
    <glyph glyph-name="onesuperior" unicode="&#xb9;" horiz-adv-x="310" 
d="M276 836h5q11 0 9 -10l-65 -366q-1 -6 5 -6h70q10 0 8 -10l-1 -5q-1 -9 -10 -9h-178q-10 0 -8 10l1 5q2 9 10 9h71q5 0 7 6l60 342h-1l-83 -51q-3 -1 -5 -1t-3 1.5t-1 4.5l1 8q1 9 9 14l83 52q9 6 16 6z" />
    <glyph glyph-name="ordmasculine" unicode="&#xba;" horiz-adv-x="328" 
d="M243 687q44 0 69 -26.5t25 -77.5q0 -67 -27 -122q-37 -76 -118 -76q-44 0 -69 26.5t-25 77.5q0 67 27 122q37 76 118 76zM241 664q-61 0 -94 -62q-24 -46 -24 -111q0 -83 72 -83q60 0 93 62q24 46 24 111q0 83 -71 83z" />
    <glyph glyph-name="guillemotright" unicode="&#xbb;" horiz-adv-x="477" 
d="M124 429l122 -159q6 -8 -2 -14l-178 -158q-3 -3 -6.5 -1.5t-2.5 5.5l2 15q1 9 9 17l142 127q4 4 2 8l-96 127q-5 7 -4 17l2 13q0 3 2 4.5t4.5 1t3.5 -2.5zM306 429l122 -159q6 -8 -2 -14l-178 -158q-3 -3 -6.5 -1.5t-2.5 5.5l2 15q1 9 9 17l142 127q4 4 2 8l-96 127
q-5 7 -4 17l2 13q0 3 2 4.5t4.5 1t3.5 -2.5z" />
    <glyph glyph-name="onequarter" unicode="&#xbc;" horiz-adv-x="767" 
d="M672 690h9q11 0 4 -10l-496 -680q-9 -10 -16 -10h-9q-12 0 -4 10l497 680q7 10 15 10zM248 680h5q11 0 9 -10l-65 -366q-1 -6 5 -6h70q10 0 8 -10l-1 -5q-1 -9 -10 -9h-178q-10 0 -8 10l1 5q2 9 10 9h71q5 0 7 6l60 342h-1l-83 -51q-3 -1 -5 -1t-3 1.5t-1 4.5l1 8
q1 9 9 14l83 52q9 6 16 6zM666 406h11q4 0 5.5 -3t-1.5 -7l-185 -286v-1h134q6 0 7 6l19 108q2 10 11 10h7q9 0 7 -10l-18 -108q-1 -6 5 -6h42q10 0 8 -10l-1 -5q-1 -9 -10 -9h-44q-5 0 -7 -6l-12 -69q-2 -10 -11 -10h-7q-9 0 -7 10l12 69q1 6 -5 6h-155q-10 0 -8 10l1 5
q1 5 7 14l182 282q6 10 13 10z" />
    <glyph glyph-name="onehalf" unicode="&#xbd;" horiz-adv-x="807" 
d="M672 690h9q11 0 4 -10l-496 -680q-9 -10 -16 -10h-9q-12 0 -4 10l497 680q7 10 15 10zM248 680h5q11 0 9 -10l-65 -366q-1 -6 5 -6h70q10 0 8 -10l-1 -5q-1 -9 -10 -9h-178q-10 0 -8 10l1 5q2 9 10 9h71q5 0 7 6l60 342h-1l-83 -51q-3 -1 -5 -1t-3 1.5t-1 4.5l1 8
q1 9 9 14l83 52q9 6 16 6zM681 412q47 0 71.5 -23.5t24.5 -61.5q0 -60 -60 -122l-178 -180v-1h184q10 0 8 -10l-1 -4q-3 -10 -11 -10h-210q-10 0 -8 10l1 4q1 6 8 14l189 193q53 55 53 102q0 65 -72 65q-42 0 -72 -19q-4 -2 -5 -8l-8 -48q-2 -10 -10 -10h-6q-10 0 -8 10
l11 61q1 8 9 13q39 25 90 25z" />
    <glyph glyph-name="threequarters" unicode="&#xbe;" horiz-adv-x="767" 
d="M672 690h9q11 0 4 -10l-496 -680q-9 -10 -16 -10h-9q-12 0 -4 10l497 680q7 10 15 10zM226 686q45 0 71 -22.5t26 -61.5q0 -79 -73 -115v-1q47 -21 47 -84q0 -61 -37.5 -97.5t-96.5 -36.5q-56 0 -91 29q-4 4 -3 13l12 68q2 10 11 10h5q10 0 8 -10l-10 -57q-1 -7 3 -10
q26 -19 69 -19q44 0 74.5 29.5t30.5 79.5q0 32 -20 52.5t-54 20.5h-16q-9 0 -7 10l1 5q2 9 11 9h13q39 0 68.5 29.5t29.5 71.5q0 29 -20 46t-55 17q-39 0 -69 -19q-4 -2 -5 -8l-8 -48q-2 -10 -10 -10h-6q-10 0 -8 10l11 61q1 8 9 13q39 25 89 25zM666 406h11q4 0 5.5 -3
t-1.5 -7l-185 -286v-1h134q6 0 7 6l19 108q2 10 11 10h7q9 0 7 -10l-18 -108q-1 -6 5 -6h42q10 0 8 -10l-1 -5q-1 -9 -10 -9h-44q-5 0 -7 -6l-12 -69q-2 -10 -11 -10h-7q-9 0 -7 10l12 69q1 6 -5 6h-155q-10 0 -8 10l1 5q1 5 7 14l182 282q6 10 13 10z" />
    <glyph glyph-name="questiondown" unicode="&#xbf;" horiz-adv-x="421" 
d="M249 474h25q10 0 8 -10l-8 -48q-2 -10 -11 -10h-25q-10 0 -8 10l8 48q2 10 11 10zM233 309h8q10 0 8 -10l-8 -40q-12 -61 -52 -104l-53 -56q-56 -59 -78 -98.5t-22 -81.5q0 -53 30 -81.5t85 -28.5q66 0 120 39q5 4 6 8l14 83q2 10 12 10h7q10 0 8 -10l-17 -95
q-1 -8 -9 -13q-69 -47 -144 -47q-68 0 -103 36t-35 97q0 84 96 186l53 57q29 31 38.5 48.5t16.5 50.5l8 40q2 10 11 10z" />
    <glyph glyph-name="Agrave" unicode="&#xc0;" horiz-adv-x="567" 
d="M295 888h10q9 0 15 -10l58 -102q7 -10 -5 -10h-3q-9 0 -16 10l-64 102q-2 4 -0.5 7t5.5 3zM361 680h10q7 0 9 -10l109 -639q1 -6 7 -6h33q10 0 8 -10l-1 -5q-1 -10 -12 -10h-143q-10 0 -8 10l1 5q1 10 12 10h68q7 0 6 7l-30 180h-291l-95 -181q-3 -6 4 -6h68q10 0 8 -10
l-1 -5q-1 -10 -12 -10h-145q-10 0 -8 10l1 5q1 10 12 10h32q7 0 10 6l336 639q5 10 12 10zM358 630l-206 -392h273l-65 392h-2z" />
    <glyph glyph-name="Aacute" unicode="&#xc1;" horiz-adv-x="567" 
d="M486 888h11q5 0 6 -3t-3 -7l-99 -102q-10 -10 -19 -10h-5q-12 0 -1 11l91 101q9 10 19 10zM361 680h10q7 0 9 -10l109 -639q1 -6 7 -6h33q10 0 8 -10l-1 -5q-1 -10 -12 -10h-143q-10 0 -8 10l1 5q1 10 12 10h68q7 0 6 7l-30 180h-291l-95 -181q-3 -6 4 -6h68q10 0 8 -10
l-1 -5q-1 -10 -12 -10h-145q-10 0 -8 10l1 5q1 10 12 10h32q7 0 10 6l336 639q5 10 12 10zM358 630l-206 -392h273l-65 392h-2z" />
    <glyph glyph-name="Acircumflex" unicode="&#xc2;" horiz-adv-x="567" 
d="M404 895h5q7 0 12 -9l62 -120q6 -10 -4 -10h-4q-9 0 -14 9l-56 104h-2l-94 -104q-8 -9 -17 -9h-5q-4 0 -5 3t3 7l103 120q8 9 16 9zM361 680h10q7 0 9 -10l109 -639q1 -6 7 -6h33q10 0 8 -10l-1 -5q-1 -10 -12 -10h-143q-10 0 -8 10l1 5q1 10 12 10h68q7 0 6 7l-30 180
h-291l-95 -181q-3 -6 4 -6h68q10 0 8 -10l-1 -5q-1 -10 -12 -10h-145q-10 0 -8 10l1 5q1 10 12 10h32q7 0 10 6l336 639q5 10 12 10zM358 630l-206 -392h273l-65 392h-2z" />
    <glyph glyph-name="Atilde" unicode="&#xc3;" horiz-adv-x="567" 
d="M352 858q25 0 51 -21q23 -18 41 -18q24 0 58 34q3 3 6 2t2 -5l-2 -14q-2 -8 -9 -14q-28 -26 -60 -26q-25 0 -51 21q-23 18 -41 18q-24 0 -58 -34q-3 -3 -6 -2t-2 5l2 14q2 8 9 14q28 26 60 26zM361 680h10q7 0 9 -10l109 -639q1 -6 7 -6h33q10 0 8 -10l-1 -5
q-1 -10 -12 -10h-143q-10 0 -8 10l1 5q1 10 12 10h68q7 0 6 7l-30 180h-291l-95 -181q-3 -6 4 -6h68q10 0 8 -10l-1 -5q-1 -10 -12 -10h-145q-10 0 -8 10l1 5q1 10 12 10h32q7 0 10 6l336 639q5 10 12 10zM358 630l-206 -392h273l-65 392h-2z" />
    <glyph glyph-name="Adieresis" unicode="&#xc4;" horiz-adv-x="567" 
d="M292 854h22q10 0 8 -10l-7 -38q-2 -10 -11 -10h-22q-10 0 -8 10l7 38q2 10 11 10zM485 854h22q10 0 8 -10l-7 -38q-2 -10 -11 -10h-22q-10 0 -8 10l7 38q2 10 11 10zM361 680h10q7 0 9 -10l109 -639q1 -6 7 -6h33q10 0 8 -10l-1 -5q-1 -10 -12 -10h-143q-10 0 -8 10l1 5
q1 10 12 10h68q7 0 6 7l-30 180h-291l-95 -181q-3 -6 4 -6h68q10 0 8 -10l-1 -5q-1 -10 -12 -10h-145q-10 0 -8 10l1 5q1 10 12 10h32q7 0 10 6l336 639q5 10 12 10zM358 630l-206 -392h273l-65 392h-2z" />
    <glyph glyph-name="Aring" unicode="&#xc5;" horiz-adv-x="567" 
d="M410 910q29 0 47.5 -19t18.5 -48q0 -40 -27 -67.5t-68 -27.5q-29 0 -47.5 19t-18.5 48q0 40 27 67.5t68 27.5zM405 888q-27 0 -46.5 -20.5t-19.5 -49.5q0 -21 12.5 -34.5t34.5 -13.5q27 0 46.5 20.5t19.5 49.5q0 21 -12.5 34.5t-34.5 13.5zM361 680h10q7 0 9 -10
l109 -639q1 -6 7 -6h33q10 0 8 -10l-1 -5q-1 -10 -12 -10h-143q-10 0 -8 10l1 5q1 10 12 10h68q7 0 6 7l-30 180h-291l-95 -181q-3 -6 4 -6h68q10 0 8 -10l-1 -5q-1 -10 -12 -10h-145q-10 0 -8 10l1 5q1 10 12 10h32q7 0 10 6l336 639q5 10 12 10zM358 630l-206 -392h273
l-65 392h-2z" />
    <glyph glyph-name="AE" unicode="&#xc6;" horiz-adv-x="925" 
d="M558 680h370q10 0 8 -10l-16 -93q-2 -10 -11 -10h-8q-10 0 -8 10l12 71q1 6 -5 6h-305q-5 0 -7 -6l-49 -282q-1 -7 6 -7h248q5 0 7 6l10 58q2 10 11 10h8q10 0 8 -10l-27 -157q-2 -10 -11 -10h-8q-10 0 -8 10l10 61q1 6 -5 6h-249q-5 0 -7 -6l-52 -295q-2 -6 5 -6h305
q6 0 7 6l13 70q2 10 11 10h8q10 0 8 -10l-17 -92q-1 -10 -12 -10h-352q-10 0 -8 10l32 181q2 6 -5 6h-286l-134 -166q-2 -2 -0.5 -4t4.5 -2h68q10 0 8 -10l-1 -5q-1 -10 -12 -10h-141q-10 0 -8 10l1 5q1 10 12 10h24q4 0 10 6l521 640q7 9 17 9zM558 651l-348 -428h269
q5 0 7 6l75 422h-3z" />
    <glyph glyph-name="Ccedilla" unicode="&#xc7;" horiz-adv-x="552" 
d="M373 690q110 0 172 -52q6 -5 5 -14l-16 -94q-2 -10 -11 -10h-8q-10 0 -8 10l15 84q1 5 -3 9q-48 41 -147 41q-143 0 -205 -129q-28 -58 -50 -171.5t-22 -180.5q0 -167 180 -167q88 0 142 33q5 4 6 10l14 75q2 10 11 10h8q10 0 8 -10l-15 -88q-1 -10 -10 -15
q-64 -41 -168 -41h-16l-63 -124q-5 -10 -17 -10h-8q-11 0 -6 10l69 126q-163 18 -163 186q0 70 22.5 188t50.5 176q37 77 93 112.5t140 35.5z" />
    <glyph glyph-name="Egrave" unicode="&#xc8;" horiz-adv-x="562" 
d="M317 888h10q9 0 15 -10l58 -102q7 -10 -5 -10h-3q-9 0 -16 10l-64 102q-2 4 -0.5 7t5.5 3zM134 680h431q10 0 8 -10l-16 -93q-2 -10 -11 -10h-8q-10 0 -8 10l12 71q2 6 -5 6h-305q-6 0 -7 -6l-49 -282q-1 -7 6 -7h248q6 0 7 6l10 58q2 10 11 10h8q10 0 8 -10l-27 -157
q-2 -10 -11 -10h-8q-10 0 -8 10l10 61q2 6 -5 6h-249q-6 0 -7 -6l-52 -295q-1 -6 5 -6h305q5 0 7 6l13 70q2 10 11 10h8q10 0 8 -10l-17 -92q-1 -10 -12 -10h-430q-10 0 -8 10l1 5q1 10 12 10h62q6 0 7 6l108 618q1 6 -5 6h-63q-10 0 -8 10l1 5q1 10 12 10z" />
    <glyph glyph-name="Eacute" unicode="&#xc9;" horiz-adv-x="562" 
d="M466 888h11q5 0 6 -3t-3 -7l-99 -102q-10 -10 -19 -10h-5q-12 0 -1 11l91 101q9 10 19 10zM134 680h431q10 0 8 -10l-16 -93q-2 -10 -11 -10h-8q-10 0 -8 10l12 71q2 6 -5 6h-305q-6 0 -7 -6l-49 -282q-1 -7 6 -7h248q6 0 7 6l10 58q2 10 11 10h8q10 0 8 -10l-27 -157
q-2 -10 -11 -10h-8q-10 0 -8 10l10 61q2 6 -5 6h-249q-6 0 -7 -6l-52 -295q-1 -6 5 -6h305q5 0 7 6l13 70q2 10 11 10h8q10 0 8 -10l-17 -92q-1 -10 -12 -10h-430q-10 0 -8 10l1 5q1 10 12 10h62q6 0 7 6l108 618q1 6 -5 6h-63q-10 0 -8 10l1 5q1 10 12 10z" />
    <glyph glyph-name="Ecircumflex" unicode="&#xca;" horiz-adv-x="562" 
d="M402 895h5q7 0 12 -9l62 -120q6 -10 -4 -10h-4q-9 0 -14 9l-56 104h-2l-94 -104q-8 -9 -17 -9h-5q-4 0 -5 3t3 7l103 120q8 9 16 9zM134 680h431q10 0 8 -10l-16 -93q-2 -10 -11 -10h-8q-10 0 -8 10l12 71q2 6 -5 6h-305q-6 0 -7 -6l-49 -282q-1 -7 6 -7h248q6 0 7 6
l10 58q2 10 11 10h8q10 0 8 -10l-27 -157q-2 -10 -11 -10h-8q-10 0 -8 10l10 61q2 6 -5 6h-249q-6 0 -7 -6l-52 -295q-1 -6 5 -6h305q5 0 7 6l13 70q2 10 11 10h8q10 0 8 -10l-17 -92q-1 -10 -12 -10h-430q-10 0 -8 10l1 5q1 10 12 10h62q6 0 7 6l108 618q1 6 -5 6h-63
q-10 0 -8 10l1 5q1 10 12 10z" />
    <glyph glyph-name="Edieresis" unicode="&#xcb;" horiz-adv-x="562" 
d="M293 854h22q10 0 8 -10l-7 -38q-2 -10 -11 -10h-22q-10 0 -8 10l7 38q2 10 11 10zM486 854h22q10 0 8 -10l-7 -38q-2 -10 -11 -10h-22q-10 0 -8 10l7 38q2 10 11 10zM134 680h431q10 0 8 -10l-16 -93q-2 -10 -11 -10h-8q-10 0 -8 10l12 71q2 6 -5 6h-305q-6 0 -7 -6
l-49 -282q-1 -7 6 -7h248q6 0 7 6l10 58q2 10 11 10h8q10 0 8 -10l-27 -157q-2 -10 -11 -10h-8q-10 0 -8 10l10 61q2 6 -5 6h-249q-6 0 -7 -6l-52 -295q-1 -6 5 -6h305q5 0 7 6l13 70q2 10 11 10h8q10 0 8 -10l-17 -92q-1 -10 -12 -10h-430q-10 0 -8 10l1 5q1 10 12 10h62
q6 0 7 6l108 618q1 6 -5 6h-63q-10 0 -8 10l1 5q1 10 12 10z" />
    <glyph glyph-name="Igrave" unicode="&#xcc;" horiz-adv-x="273" 
d="M152 888h10q9 0 15 -10l58 -102q7 -10 -5 -10h-3q-9 0 -16 10l-64 102q-2 4 -0.5 7t5.5 3zM134 680h165q10 0 8 -10l-1 -5q-1 -10 -12 -10h-62q-6 0 -7 -6l-108 -618q-1 -6 5 -6h63q10 0 8 -10l-1 -5q-1 -10 -12 -10h-165q-10 0 -8 10l1 5q1 10 12 10h62q6 0 7 6l108 618
q1 6 -5 6h-63q-10 0 -8 10l1 5q1 10 12 10z" />
    <glyph glyph-name="Iacute" unicode="&#xcd;" horiz-adv-x="273" 
d="M336 888h11q5 0 6 -3t-3 -7l-99 -102q-10 -10 -19 -10h-5q-12 0 -1 11l91 101q9 10 19 10zM134 680h165q10 0 8 -10l-1 -5q-1 -10 -12 -10h-62q-6 0 -7 -6l-108 -618q-1 -6 5 -6h63q10 0 8 -10l-1 -5q-1 -10 -12 -10h-165q-10 0 -8 10l1 5q1 10 12 10h62q6 0 7 6l108 618
q1 6 -5 6h-63q-10 0 -8 10l1 5q1 10 12 10z" />
    <glyph glyph-name="Icircumflex" unicode="&#xce;" horiz-adv-x="273" 
d="M252 895h5q7 0 12 -9l62 -120q6 -10 -4 -10h-4q-9 0 -14 9l-56 104h-2l-94 -104q-8 -9 -17 -9h-5q-4 0 -5 3t3 7l103 120q8 9 16 9zM134 680h165q10 0 8 -10l-1 -5q-1 -10 -12 -10h-62q-6 0 -7 -6l-108 -618q-1 -6 5 -6h63q10 0 8 -10l-1 -5q-1 -10 -12 -10h-165
q-10 0 -8 10l1 5q1 10 12 10h62q6 0 7 6l108 618q1 6 -5 6h-63q-10 0 -8 10l1 5q1 10 12 10z" />
    <glyph glyph-name="Idieresis" unicode="&#xcf;" horiz-adv-x="273" 
d="M147 854h22q10 0 8 -10l-7 -38q-2 -10 -11 -10h-22q-10 0 -8 10l7 38q2 10 11 10zM340 854h22q10 0 8 -10l-7 -38q-2 -10 -11 -10h-22q-10 0 -8 10l7 38q2 10 11 10zM134 680h165q10 0 8 -10l-1 -5q-1 -10 -12 -10h-62q-6 0 -7 -6l-108 -618q-1 -6 5 -6h63q10 0 8 -10
l-1 -5q-1 -10 -12 -10h-165q-10 0 -8 10l1 5q1 10 12 10h62q6 0 7 6l108 618q1 6 -5 6h-63q-10 0 -8 10l1 5q1 10 12 10z" />
    <glyph glyph-name="Eth" unicode="&#xd0;" horiz-adv-x="624" 
d="M134 680h267q183 0 183 -173q0 -69 -24 -193.5t-52 -182.5q-34 -70 -88 -100.5t-138 -30.5h-267q-10 0 -8 10l1 5q1 10 12 10h62q6 0 7 6l52 297q1 6 -5 6h-44q-10 0 -8 10l1 5q1 10 12 10h43q6 0 7 6l50 284q1 6 -5 6h-63q-10 0 -8 10l1 5q1 10 12 10zM396 654h-164
q-6 0 -7 -6l-50 -283q-1 -6 5 -6h139q10 0 8 -10l-1 -5q-1 -10 -12 -10h-138q-6 0 -7 -6l-52 -296q-1 -6 4 -6h163q143 0 199 114q27 56 50 175.5t23 188.5q0 77 -39 113.5t-121 36.5z" />
    <glyph glyph-name="Ntilde" unicode="&#xd1;" horiz-adv-x="668" 
d="M393 858q25 0 51 -21q23 -18 41 -18q24 0 58 34q3 3 6 2t2 -5l-2 -14q-2 -8 -9 -14q-28 -26 -60 -26q-25 0 -51 21q-23 18 -41 18q-24 0 -58 -34q-3 -3 -6 -2t-2 5l2 14q2 8 9 14q28 26 60 26zM529 680h165q10 0 8 -10l-1 -5q-1 -10 -12 -10h-62q-5 0 -7 -6l-112 -639
q-2 -10 -11 -10h-7q-10 0 -14 10l-253 614h-2l-104 -593q-1 -6 5 -6h63q10 0 8 -10l-1 -5q-1 -10 -12 -10h-165q-10 0 -8 10l1 5q1 10 12 10h62q6 0 7 6l108 618q1 6 -5 6h-63q-10 0 -8 10l1 5q1 10 12 10h86q9 0 13 -10l253 -611h2l104 590q2 6 -5 6h-63q-10 0 -8 10l1 5
q1 10 12 10z" />
    <glyph glyph-name="Ograve" unicode="&#xd2;" horiz-adv-x="580" 
d="M305 888h10q9 0 15 -10l58 -102q7 -10 -5 -10h-3q-9 0 -16 10l-64 102q-2 4 -0.5 7t5.5 3zM369 690q85 0 132 -49.5t47 -138.5q0 -70 -22.5 -188t-50.5 -176q-72 -148 -228 -148q-85 0 -132 49.5t-47 138.5q0 70 22.5 188t50.5 176q72 148 228 148zM365 664
q-135 0 -197 -128q-28 -58 -50 -172t-22 -181q0 -81 39.5 -124t115.5 -43q135 0 197 128q28 58 50 172t22 181q0 81 -39.5 124t-115.5 43z" />
    <glyph glyph-name="Oacute" unicode="&#xd3;" horiz-adv-x="580" 
d="M496 888h11q5 0 6 -3t-3 -7l-99 -102q-10 -10 -19 -10h-5q-12 0 -1 11l91 101q9 10 19 10zM369 690q85 0 132 -49.5t47 -138.5q0 -70 -22.5 -188t-50.5 -176q-72 -148 -228 -148q-85 0 -132 49.5t-47 138.5q0 70 22.5 188t50.5 176q72 148 228 148zM365 664
q-135 0 -197 -128q-28 -58 -50 -172t-22 -181q0 -81 39.5 -124t115.5 -43q135 0 197 128q28 58 50 172t22 181q0 81 -39.5 124t-115.5 43z" />
    <glyph glyph-name="Ocircumflex" unicode="&#xd4;" horiz-adv-x="580" 
d="M409 906h5q8 0 12 -9l62 -120q6 -10 -4 -10h-4q-9 0 -14 9l-56 104h-2l-94 -104q-8 -9 -17 -9h-5q-4 0 -5 3t3 7l103 120q8 9 16 9zM369 690q85 0 132 -49.5t47 -138.5q0 -70 -22.5 -188t-50.5 -176q-72 -148 -228 -148q-85 0 -132 49.5t-47 138.5q0 70 22.5 188
t50.5 176q72 148 228 148zM365 664q-135 0 -197 -128q-28 -58 -50 -172t-22 -181q0 -81 39.5 -124t115.5 -43q135 0 197 128q28 58 50 172t22 181q0 81 -39.5 124t-115.5 43z" />
    <glyph glyph-name="Otilde" unicode="&#xd5;" horiz-adv-x="580" 
d="M355 858q25 0 51 -21q23 -18 41 -18q24 0 58 34q3 3 6 2t2 -5l-2 -14q-2 -8 -9 -14q-28 -26 -60 -26q-25 0 -51 21q-23 18 -41 18q-24 0 -58 -34q-3 -3 -6 -2t-2 5l2 14q2 8 9 14q28 26 60 26zM369 690q85 0 132 -49.5t47 -138.5q0 -70 -22.5 -188t-50.5 -176
q-72 -148 -228 -148q-85 0 -132 49.5t-47 138.5q0 70 22.5 188t50.5 176q72 148 228 148zM365 664q-135 0 -197 -128q-28 -58 -50 -172t-22 -181q0 -81 39.5 -124t115.5 -43q135 0 197 128q28 58 50 172t22 181q0 81 -39.5 124t-115.5 43z" />
    <glyph glyph-name="Odieresis" unicode="&#xd6;" horiz-adv-x="580" 
d="M295 854h22q10 0 8 -10l-7 -38q-2 -10 -11 -10h-22q-10 0 -8 10l7 38q2 10 11 10zM488 854h22q10 0 8 -10l-7 -38q-2 -10 -11 -10h-22q-10 0 -8 10l7 38q2 10 11 10zM369 690q85 0 132 -49.5t47 -138.5q0 -70 -22.5 -188t-50.5 -176q-72 -148 -228 -148q-85 0 -132 49.5
t-47 138.5q0 70 22.5 188t50.5 176q72 148 228 148zM365 664q-135 0 -197 -128q-28 -58 -50 -172t-22 -181q0 -81 39.5 -124t115.5 -43q135 0 197 128q28 58 50 172t22 181q0 81 -39.5 124t-115.5 43z" />
    <glyph glyph-name="multiply" unicode="&#xd7;" 
d="M411 430l4 -4q7 -7 0 -14l-133 -132q-4 -4 0 -8l133 -132q7 -7 0 -14l-4 -4q-7 -7 -14 0l-133 132q-4 4 -8 0l-132 -132q-7 -7 -14 0l-4 4q-7 7 0 14l133 132q4 4 0 8l-133 132q-7 7 0 14l4 4q7 7 14 0l132 -132q4 -4 8 0l133 132q7 7 14 0z" />
    <glyph glyph-name="Oslash" unicode="&#xd8;" horiz-adv-x="580" 
d="M567 710h8q11 0 4 -10l-60 -83q29 -46 29 -115q0 -70 -22.5 -188t-50.5 -176q-72 -148 -228 -148q-90 0 -136 54l-45 -64q-7 -10 -16 -10h-8q-11 0 -4 10l59 81q-29 44 -29 117q0 70 22.5 188t50.5 176q72 148 228 148q90 0 136 -54l46 64q7 10 16 10zM365 664
q-135 0 -197 -128q-28 -58 -50 -172t-22 -181q0 -58 19 -96l373 524q-41 53 -123 53zM500 591l-372 -523q40 -52 123 -52q135 0 197 128q28 58 50 172t22 181q0 56 -20 94z" />
    <glyph glyph-name="Ugrave" unicode="&#xd9;" horiz-adv-x="633" 
d="M345 888h10q9 0 15 -10l58 -102q7 -10 -5 -10h-3q-9 0 -16 10l-64 102q-2 4 -0.5 7t5.5 3zM510 680h165q10 0 8 -10l-1 -5q-1 -10 -12 -10h-62q-6 0 -7 -6l-73 -417q-22 -128 -79.5 -185t-163.5 -57q-89 0 -136.5 43.5t-47.5 129.5q0 25 7 69l73 417q1 6 -5 6h-63
q-10 0 -8 10l1 5q1 10 12 10h165q10 0 8 -10l-1 -5q-1 -10 -12 -10h-62q-6 0 -7 -6l-73 -418q-6 -36 -6 -66q0 -149 157 -149q92 0 142.5 49.5t70.5 165.5l73 418q1 6 -5 6h-63q-10 0 -8 10l1 5q1 10 12 10z" />
    <glyph glyph-name="Uacute" unicode="&#xda;" horiz-adv-x="633" 
d="M497 888h11q5 0 6 -3t-3 -7l-99 -102q-10 -10 -19 -10h-5q-12 0 -1 11l91 101q9 10 19 10zM510 680h165q10 0 8 -10l-1 -5q-1 -10 -12 -10h-62q-6 0 -7 -6l-73 -417q-22 -128 -79.5 -185t-163.5 -57q-89 0 -136.5 43.5t-47.5 129.5q0 25 7 69l73 417q1 6 -5 6h-63
q-10 0 -8 10l1 5q1 10 12 10h165q10 0 8 -10l-1 -5q-1 -10 -12 -10h-62q-6 0 -7 -6l-73 -418q-6 -36 -6 -66q0 -149 157 -149q92 0 142.5 49.5t70.5 165.5l73 418q1 6 -5 6h-63q-10 0 -8 10l1 5q1 10 12 10z" />
    <glyph glyph-name="Ucircumflex" unicode="&#xdb;" horiz-adv-x="633" 
d="M437 895h5q8 0 12 -9l62 -120q6 -10 -4 -10h-4q-9 0 -14 9l-56 104h-2l-94 -104q-8 -9 -17 -9h-5q-4 0 -5 3t3 7l103 120q8 9 16 9zM510 680h165q10 0 8 -10l-1 -5q-1 -10 -12 -10h-62q-6 0 -7 -6l-73 -417q-22 -128 -79.5 -185t-163.5 -57q-89 0 -136.5 43.5
t-47.5 129.5q0 25 7 69l73 417q1 6 -5 6h-63q-10 0 -8 10l1 5q1 10 12 10h165q10 0 8 -10l-1 -5q-1 -10 -12 -10h-62q-6 0 -7 -6l-73 -418q-6 -36 -6 -66q0 -149 157 -149q92 0 142.5 49.5t70.5 165.5l73 418q1 6 -5 6h-63q-10 0 -8 10l1 5q1 10 12 10z" />
    <glyph glyph-name="Udieresis" unicode="&#xdc;" horiz-adv-x="633" 
d="M326 854h22q10 0 8 -10l-7 -38q-2 -10 -11 -10h-22q-10 0 -8 10l7 38q2 10 11 10zM519 854h22q10 0 8 -10l-7 -38q-2 -10 -11 -10h-22q-10 0 -8 10l7 38q2 10 11 10zM510 680h165q10 0 8 -10l-1 -5q-1 -10 -12 -10h-62q-6 0 -7 -6l-73 -417q-22 -128 -79.5 -185
t-163.5 -57q-89 0 -136.5 43.5t-47.5 129.5q0 25 7 69l73 417q1 6 -5 6h-63q-10 0 -8 10l1 5q1 10 12 10h165q10 0 8 -10l-1 -5q-1 -10 -12 -10h-62q-6 0 -7 -6l-73 -418q-6 -36 -6 -66q0 -149 157 -149q92 0 142.5 49.5t70.5 165.5l73 418q1 6 -5 6h-63q-10 0 -8 10l1 5
q1 10 12 10z" />
    <glyph glyph-name="Yacute" unicode="&#xdd;" horiz-adv-x="525" 
d="M461 888h11q5 0 6 -3t-3 -7l-99 -102q-10 -10 -19 -10h-5q-12 0 -1 11l91 101q9 10 19 10zM446 680h148q10 0 8 -10l-1 -5q-1 -10 -12 -10h-34q-5 0 -9 -6l-258 -370l-43 -248q-1 -6 5 -6h63q10 0 8 -10l-1 -5q-1 -10 -12 -10h-165q-10 0 -8 10l1 5q1 10 12 10h62
q6 0 7 6l43 249l-127 368q-3 7 -8 7h-36q-10 0 -8 10l1 5q1 10 12 10h150q10 0 8 -10l-1 -5q-1 -10 -12 -10h-71q-8 0 -5 -8l115 -333h2l234 334q5 7 -3 7h-70q-10 0 -8 10l1 5q1 10 12 10z" />
    <glyph glyph-name="Thorn" unicode="&#xde;" horiz-adv-x="573" 
d="M134 680h165q10 0 8 -10l-1 -5q-1 -10 -12 -10h-62q-6 0 -7 -6l-20 -116q-1 -7 5 -7h174q80 0 123 -37t43 -104q0 -105 -63.5 -165t-166.5 -60h-175q-5 0 -7 -6l-21 -122q-1 -7 5 -7h73q10 0 8 -10l-1 -5q-1 -10 -12 -10h-175q-10 0 -8 10l1 5q1 10 12 10h62q6 0 7 6
l108 618q1 6 -5 6h-63q-10 0 -8 10l1 5q1 10 12 10zM380 500h-175q-5 0 -7 -6l-53 -302q-1 -6 5 -6h171q94 1 148 52.5t54 144.5q0 117 -143 117z" />
    <glyph glyph-name="germandbls" unicode="&#xdf;" horiz-adv-x="544" 
d="M376 690q69 0 104.5 -29t35.5 -81t-25.5 -94t-75.5 -55v-2q62 -23 62 -98q0 -39 -15.5 -124t-30.5 -115q-25 -51 -66 -72t-103 -21h-8q-10 0 -8 10l1 5q2 10 11 10h9q103 0 141 78q13 27 28 109t15 116q0 48 -27 69.5t-85 21.5h-11q-10 0 -8 10l1 5q2 10 12 10h15
q68 0 105 36t37 99q0 87 -118 87q-78 0 -119 -39t-57 -128l-82 -467q-2 -6 5 -6h61q10 0 8 -10l-1 -5q-1 -10 -12 -10h-160q-10 0 -8 10l1 5q1 10 12 10h60q6 0 7 6l82 469q17 97 65.5 143.5t141.5 46.5z" />
    <glyph glyph-name="agrave" unicode="&#xe0;" horiz-adv-x="491" 
d="M224 700h9q9 0 13 -10l54 -120q5 -10 -7 -10h-2q-9 0 -15 10l-59 120q-2 4 0 7t7 3zM269 484q69 0 100.5 -23.5t31.5 -76.5q0 -20 -5 -52l-54 -301q-2 -6 5 -6h59q10 0 8 -10l-1 -5q-1 -10 -12 -10h-82q-10 0 -8 10l10 56h-1q-19 -34 -60 -55t-97 -21q-62 0 -96 30.5
t-34 82.5q0 78 49.5 118.5t144.5 40.5h123q6 0 7 6q17 87 17 115q0 42 -24.5 59t-84.5 17q-66 0 -114 -24q-5 -2 -6 -7l-11 -61q-2 -10 -11 -10h-8q-10 0 -8 10l13 76q1 7 6 9q66 32 143 32zM346 237h-118q-168 0 -168 -132q0 -42 28 -66t82 -24q62 0 108.5 36t55.5 90
l16 90q2 6 -4 6z" />
    <glyph glyph-name="aacute" unicode="&#xe1;" horiz-adv-x="491" 
d="M383 700h11q4 0 5.5 -3t-1.5 -7l-102 -120q-9 -10 -18 -10h-4q-11 0 -3 10l94 120q8 10 18 10zM269 484q69 0 100.5 -23.5t31.5 -76.5q0 -20 -5 -52l-54 -301q-2 -6 5 -6h59q10 0 8 -10l-1 -5q-1 -10 -12 -10h-82q-10 0 -8 10l10 56h-1q-19 -34 -60 -55t-97 -21
q-62 0 -96 30.5t-34 82.5q0 78 49.5 118.5t144.5 40.5h123q6 0 7 6q17 87 17 115q0 42 -24.5 59t-84.5 17q-66 0 -114 -24q-5 -2 -6 -7l-11 -61q-2 -10 -11 -10h-8q-10 0 -8 10l13 76q1 7 6 9q66 32 143 32zM346 237h-118q-168 0 -168 -132q0 -42 28 -66t82 -24
q62 0 108.5 36t55.5 90l16 90q2 6 -4 6z" />
    <glyph glyph-name="acircumflex" unicode="&#xe2;" horiz-adv-x="491" 
d="M317 700h5q8 0 12 -9l62 -120q6 -10 -4 -10h-4q-9 0 -14 9l-56 104h-2l-94 -104q-8 -9 -17 -9h-5q-4 0 -5 3t3 7l103 120q8 9 16 9zM269 484q69 0 100.5 -23.5t31.5 -76.5q0 -20 -5 -52l-54 -301q-2 -6 5 -6h59q10 0 8 -10l-1 -5q-1 -10 -12 -10h-82q-10 0 -8 10l10 56
h-1q-19 -34 -60 -55t-97 -21q-62 0 -96 30.5t-34 82.5q0 78 49.5 118.5t144.5 40.5h123q6 0 7 6q17 87 17 115q0 42 -24.5 59t-84.5 17q-66 0 -114 -24q-5 -2 -6 -7l-11 -61q-2 -10 -11 -10h-8q-10 0 -8 10l13 76q1 7 6 9q66 32 143 32zM346 237h-118q-168 0 -168 -132
q0 -42 28 -66t82 -24q62 0 108.5 36t55.5 90l16 90q2 6 -4 6z" />
    <glyph glyph-name="atilde" unicode="&#xe3;" horiz-adv-x="491" 
d="M267 677q25 0 51 -21q23 -18 41 -18q24 0 58 34q3 3 6 2t2 -5l-2 -14q-2 -8 -9 -14q-28 -26 -60 -26q-25 0 -51 21q-23 18 -41 18q-24 0 -58 -34q-3 -3 -6 -2t-2 5l2 14q2 8 9 14q28 26 60 26zM269 484q69 0 100.5 -23.5t31.5 -76.5q0 -20 -5 -52l-54 -301q-2 -6 5 -6h59
q10 0 8 -10l-1 -5q-1 -10 -12 -10h-82q-10 0 -8 10l10 56h-1q-19 -34 -60 -55t-97 -21q-62 0 -96 30.5t-34 82.5q0 78 49.5 118.5t144.5 40.5h123q6 0 7 6q17 87 17 115q0 42 -24.5 59t-84.5 17q-66 0 -114 -24q-5 -2 -6 -7l-11 -61q-2 -10 -11 -10h-8q-10 0 -8 10l13 76
q1 7 6 9q66 32 143 32zM346 237h-118q-168 0 -168 -132q0 -42 28 -66t82 -24q62 0 108.5 36t55.5 90l16 90q2 6 -4 6z" />
    <glyph glyph-name="adieresis" unicode="&#xe4;" horiz-adv-x="491" 
d="M210 680h22q10 0 8 -10l-7 -38q-2 -10 -11 -10h-22q-10 0 -8 10l7 38q2 10 11 10zM403 680h22q10 0 8 -10l-7 -38q-2 -10 -11 -10h-22q-10 0 -8 10l7 38q2 10 11 10zM269 484q69 0 100.5 -23.5t31.5 -76.5q0 -20 -5 -52l-54 -301q-2 -6 5 -6h59q10 0 8 -10l-1 -5
q-1 -10 -12 -10h-82q-10 0 -8 10l10 56h-1q-19 -34 -60 -55t-97 -21q-62 0 -96 30.5t-34 82.5q0 78 49.5 118.5t144.5 40.5h123q6 0 7 6q17 87 17 115q0 42 -24.5 59t-84.5 17q-66 0 -114 -24q-5 -2 -6 -7l-11 -61q-2 -10 -11 -10h-8q-10 0 -8 10l13 76q1 7 6 9
q66 32 143 32zM346 237h-118q-168 0 -168 -132q0 -42 28 -66t82 -24q62 0 108.5 36t55.5 90l16 90q2 6 -4 6z" />
    <glyph glyph-name="aring" unicode="&#xe5;" horiz-adv-x="491" 
d="M322 710q29 0 47.5 -19t18.5 -48q0 -40 -27 -67.5t-68 -27.5q-29 0 -47.5 19t-18.5 48q0 40 27 67.5t68 27.5zM317 688q-27 0 -46.5 -20.5t-19.5 -49.5q0 -21 12.5 -34.5t34.5 -13.5q27 0 46.5 20.5t19.5 49.5q0 21 -12.5 34.5t-34.5 13.5zM269 484q69 0 100.5 -23.5
t31.5 -76.5q0 -20 -5 -52l-54 -301q-2 -6 5 -6h59q10 0 8 -10l-1 -5q-1 -10 -12 -10h-82q-10 0 -8 10l10 56h-1q-19 -34 -60 -55t-97 -21q-62 0 -96 30.5t-34 82.5q0 78 49.5 118.5t144.5 40.5h123q6 0 7 6q17 87 17 115q0 42 -24.5 59t-84.5 17q-66 0 -114 -24q-5 -2 -6 -7
l-11 -61q-2 -10 -11 -10h-8q-10 0 -8 10l13 76q1 7 6 9q66 32 143 32zM346 237h-118q-168 0 -168 -132q0 -42 28 -66t82 -24q62 0 108.5 36t55.5 90l16 90q2 6 -4 6z" />
    <glyph glyph-name="ae" unicode="&#xe6;" horiz-adv-x="758" 
d="M572 484q64 0 102 -39t38 -112q0 -35 -9 -86q-2 -10 -12 -10h-302q-7 0 -8 -6q-9 -46 -9 -89q0 -60 30 -93.5t91 -33.5q86 0 150 71q8 8 14 3l6 -5q7 -6 -1 -14q-68 -80 -171 -80q-117 0 -141 102h-1q-54 -102 -186 -102q-62 0 -96 30.5t-34 82.5q0 78 49.5 118.5
t144.5 40.5h126q5 0 7 6l12 64q12 72 -8.5 99.5t-95.5 27.5q-63 0 -115 -24q-5 -2 -6 -7l-11 -61q-2 -10 -11 -10h-8q-10 0 -8 10l13 76q1 7 6 9q66 32 144 32q76 0 103.5 -26t27.5 -71h1q60 97 168 97zM570 459q-51 0 -92 -28t-66 -79q-14 -29 -25 -84q-1 -6 5 -6h281
q5 0 7 6q6 33 6 61q0 130 -116 130zM350 237h-122q-168 0 -168 -132q0 -42 28 -66t82 -24q64 0 111.5 36t56.5 90l16 90q2 6 -4 6z" />
    <glyph glyph-name="ccedilla" unicode="&#xe7;" horiz-adv-x="466" 
d="M288 484q89 0 132 -43q5 -5 4 -12l-13 -77q-2 -10 -11 -10h-8q-10 0 -8 10l11 67q1 6 -2 9q-33 31 -109 31q-110 0 -160 -104q-18 -37 -30.5 -98t-12.5 -102q0 -140 137 -140q59 0 105 26q6 4 7 9l12 68q2 10 11 10h8q10 0 8 -10l-14 -79q-1 -10 -9 -14q-56 -35 -132 -35
h-14l-63 -124q-5 -10 -17 -10h-8q-11 0 -6 10l70 127q-122 17 -122 156q0 46 14.5 114t33.5 106q57 115 186 115z" />
    <glyph glyph-name="egrave" unicode="&#xe8;" horiz-adv-x="467" 
d="M223 700h9q9 0 13 -10l54 -120q5 -10 -7 -10h-2q-9 0 -15 10l-59 120q-2 4 0 7t7 3zM281 484q64 0 102 -39t38 -112q0 -35 -9 -86q-2 -10 -12 -10h-304q-6 0 -8 -6q-7 -36 -7 -89q0 -60 30 -93.5t91 -33.5q86 0 150 71q8 8 14 3l6 -5q6 -6 -1 -14q-68 -80 -171 -80
q-71 0 -108.5 39.5t-37.5 112.5q0 128 46 223q28 58 75 88.5t106 30.5zM279 459q-105 0 -155 -104q-18 -38 -28 -87q-2 -6 5 -6h281q6 0 7 6q6 33 6 61q0 130 -116 130z" />
    <glyph glyph-name="eacute" unicode="&#xe9;" horiz-adv-x="467" 
d="M392 700h11q5 0 6 -3t-2 -7l-102 -120q-9 -10 -18 -10h-4q-11 0 -3 10l94 120q8 10 18 10zM281 484q64 0 102 -39t38 -112q0 -35 -9 -86q-2 -10 -12 -10h-304q-6 0 -8 -6q-7 -36 -7 -89q0 -60 30 -93.5t91 -33.5q86 0 150 71q8 8 14 3l6 -5q6 -6 -1 -14q-68 -80 -171 -80
q-71 0 -108.5 39.5t-37.5 112.5q0 128 46 223q28 58 75 88.5t106 30.5zM279 459q-105 0 -155 -104q-18 -38 -28 -87q-2 -6 5 -6h281q6 0 7 6q6 33 6 61q0 130 -116 130z" />
    <glyph glyph-name="ecircumflex" unicode="&#xea;" horiz-adv-x="467" 
d="M318 700h5q7 0 12 -9l62 -120q6 -10 -4 -10h-4q-9 0 -14 9l-56 104h-2l-94 -104q-8 -9 -17 -9h-5q-4 0 -5 3t3 7l103 120q8 9 16 9zM281 484q64 0 102 -39t38 -112q0 -35 -9 -86q-2 -10 -12 -10h-304q-6 0 -8 -6q-7 -36 -7 -89q0 -60 30 -93.5t91 -33.5q86 0 150 71
q8 8 14 3l6 -5q6 -6 -1 -14q-68 -80 -171 -80q-71 0 -108.5 39.5t-37.5 112.5q0 128 46 223q28 58 75 88.5t106 30.5zM279 459q-105 0 -155 -104q-18 -38 -28 -87q-2 -6 5 -6h281q6 0 7 6q6 33 6 61q0 130 -116 130z" />
    <glyph glyph-name="edieresis" unicode="&#xeb;" horiz-adv-x="467" 
d="M210 680h22q10 0 8 -10l-7 -38q-2 -10 -11 -10h-22q-10 0 -8 10l7 38q2 10 11 10zM403 680h22q10 0 8 -10l-7 -38q-2 -10 -11 -10h-22q-10 0 -8 10l7 38q2 10 11 10zM281 484q64 0 102 -39t38 -112q0 -35 -9 -86q-2 -10 -12 -10h-304q-6 0 -8 -6q-7 -36 -7 -89
q0 -60 30 -93.5t91 -33.5q86 0 150 71q8 8 14 3l6 -5q6 -6 -1 -14q-68 -80 -171 -80q-71 0 -108.5 39.5t-37.5 112.5q0 128 46 223q28 58 75 88.5t106 30.5zM279 459q-105 0 -155 -104q-18 -38 -28 -87q-2 -6 5 -6h281q6 0 7 6q6 33 6 61q0 130 -116 130z" />
    <glyph glyph-name="igrave" unicode="&#xec;" horiz-adv-x="269" 
d="M121 700h9q9 0 13 -10l54 -120q5 -10 -7 -10h-2q-9 0 -15 10l-59 120q-2 4 0 7t7 3zM101 474h83q10 0 8 -10l-76 -433q-2 -6 5 -6h61q10 0 8 -10l-1 -5q-1 -10 -12 -10h-160q-10 0 -8 10l1 5q1 10 12 10h60q6 0 7 6l72 412q1 6 -5 6h-60q-10 0 -8 10l1 5q1 10 12 10z" />
    <glyph glyph-name="iacute" unicode="&#xed;" horiz-adv-x="269" 
d="M284 700h11q5 0 6 -3t-2 -7l-102 -120q-9 -10 -18 -10h-4q-11 0 -3 10l94 120q8 10 18 10zM101 474h83q10 0 8 -10l-76 -433q-2 -6 5 -6h61q10 0 8 -10l-1 -5q-1 -10 -12 -10h-160q-10 0 -8 10l1 5q1 10 12 10h60q6 0 7 6l72 412q1 6 -5 6h-60q-10 0 -8 10l1 5
q1 10 12 10z" />
    <glyph glyph-name="icircumflex" unicode="&#xee;" horiz-adv-x="269" 
d="M205 700h5q8 0 12 -9l62 -120q6 -10 -4 -10h-4q-9 0 -14 9l-56 104h-2l-94 -104q-8 -9 -17 -9h-5q-4 0 -5 3t3 7l103 120q8 9 16 9zM101 474h83q10 0 8 -10l-76 -433q-2 -6 5 -6h61q10 0 8 -10l-1 -5q-1 -10 -12 -10h-160q-10 0 -8 10l1 5q1 10 12 10h60q6 0 7 6l72 412
q1 6 -5 6h-60q-10 0 -8 10l1 5q1 10 12 10z" />
    <glyph glyph-name="idieresis" unicode="&#xef;" horiz-adv-x="269" 
d="M95 680h22q10 0 8 -10l-7 -38q-2 -10 -11 -10h-22q-10 0 -8 10l7 38q2 10 11 10zM288 680h22q10 0 8 -10l-7 -38q-2 -10 -11 -10h-22q-10 0 -8 10l7 38q2 10 11 10zM101 474h83q10 0 8 -10l-76 -433q-2 -6 5 -6h61q10 0 8 -10l-1 -5q-1 -10 -12 -10h-160q-10 0 -8 10l1 5
q1 10 12 10h60q6 0 7 6l72 412q1 6 -5 6h-60q-10 0 -8 10l1 5q1 10 12 10z" />
    <glyph glyph-name="eth" unicode="&#xf0;" horiz-adv-x="480" 
d="M241 680h10q9 0 16 -10l43 -72l96 29q12 3 12 -6v-6q0 -9 -9 -12l-86 -26l54 -89q53 -88 53 -165q0 -50 -15.5 -116t-32.5 -102q-55 -115 -181 -115q-73 0 -109.5 41t-36.5 116q0 53 15.5 119.5t32.5 102.5q55 115 179 115q52 0 84 -27h1l-70 113l-98 -29q-12 -3 -12 6v6
q0 9 9 12l88 26l-48 79q-6 10 5 10zM280 459q-104 0 -155 -104q-14 -29 -28.5 -92t-14.5 -109q0 -139 123 -139q104 0 155 104q14 29 28.5 92t14.5 109q0 139 -123 139z" />
    <glyph glyph-name="ntilde" unicode="&#xf1;" horiz-adv-x="560" 
d="M306 677q25 0 51 -21q23 -18 41 -18q24 0 58 34q3 3 6 2t2 -5l-2 -14q-2 -8 -9 -14q-28 -26 -60 -26q-25 0 -51 21q-23 18 -41 18q-24 0 -58 -34q-3 -3 -6 -2t-2 5l2 14q2 8 9 14q28 26 60 26zM335 484q132 0 132 -129q0 -29 -5 -54l-49 -270q-1 -6 5 -6h59q10 0 8 -10
l-1 -5q-1 -10 -12 -10h-158q-10 0 -8 10l1 5q1 10 12 10h60q5 0 7 6l48 263q6 32 6 56q0 56 -27 82.5t-83 26.5t-104.5 -41t-60.5 -107l-49 -280q-2 -6 5 -6h61q10 0 8 -10l-1 -5q-1 -10 -12 -10h-160q-10 0 -8 10l1 5q1 10 12 10h60q6 0 7 6l72 412q1 6 -5 6h-60
q-10 0 -8 10l1 5q1 10 12 10h83q10 0 8 -10l-11 -64h1q54 84 153 84z" />
    <glyph glyph-name="ograve" unicode="&#xf2;" horiz-adv-x="481" 
d="M234 700h9q9 0 13 -10l54 -120q5 -10 -7 -10h-2q-9 0 -15 10l-59 120q-2 4 0 7t7 3zM283 484q73 0 109.5 -41t36.5 -116q0 -53 -15.5 -119.5t-32.5 -102.5q-55 -115 -181 -115q-73 0 -109.5 41t-36.5 116q0 53 15.5 119.5t32.5 102.5q55 115 181 115zM279 459
q-104 0 -155 -104q-14 -29 -28.5 -92t-14.5 -109q0 -139 123 -139q104 0 155 104q14 29 28.5 92t14.5 109q0 139 -123 139z" />
    <glyph glyph-name="oacute" unicode="&#xf3;" horiz-adv-x="481" 
d="M394 700h11q5 0 6 -3t-2 -7l-102 -120q-9 -10 -18 -10h-4q-11 0 -3 10l94 120q8 10 18 10zM283 484q73 0 109.5 -41t36.5 -116q0 -53 -15.5 -119.5t-32.5 -102.5q-55 -115 -181 -115q-73 0 -109.5 41t-36.5 116q0 53 15.5 119.5t32.5 102.5q55 115 181 115zM279 459
q-104 0 -155 -104q-14 -29 -28.5 -92t-14.5 -109q0 -139 123 -139q104 0 155 104q14 29 28.5 92t14.5 109q0 139 -123 139z" />
    <glyph glyph-name="ocircumflex" unicode="&#xf4;" horiz-adv-x="481" 
d="M326 700h5q7 0 12 -9l62 -120q6 -10 -4 -10h-4q-9 0 -14 9l-56 104h-2l-94 -104q-8 -9 -17 -9h-5q-4 0 -5 3t3 7l103 120q8 9 16 9zM283 484q73 0 109.5 -41t36.5 -116q0 -53 -15.5 -119.5t-32.5 -102.5q-55 -115 -181 -115q-73 0 -109.5 41t-36.5 116q0 53 15.5 119.5
t32.5 102.5q55 115 181 115zM279 459q-104 0 -155 -104q-14 -29 -28.5 -92t-14.5 -109q0 -139 123 -139q104 0 155 104q14 29 28.5 92t14.5 109q0 139 -123 139z" />
    <glyph glyph-name="otilde" unicode="&#xf5;" horiz-adv-x="481" 
d="M275 677q25 0 51 -21q23 -18 41 -18q24 0 58 34q3 3 6 2t2 -5l-2 -14q-2 -8 -9 -14q-28 -26 -60 -26q-25 0 -51 21q-23 18 -41 18q-24 0 -58 -34q-3 -3 -6 -2t-2 5l2 14q2 8 9 14q28 26 60 26zM283 484q73 0 109.5 -41t36.5 -116q0 -53 -15.5 -119.5t-32.5 -102.5
q-55 -115 -181 -115q-73 0 -109.5 41t-36.5 116q0 53 15.5 119.5t32.5 102.5q55 115 181 115zM279 459q-104 0 -155 -104q-14 -29 -28.5 -92t-14.5 -109q0 -139 123 -139q104 0 155 104q14 29 28.5 92t14.5 109q0 139 -123 139z" />
    <glyph glyph-name="odieresis" unicode="&#xf6;" horiz-adv-x="481" 
d="M218 680h22q10 0 8 -10l-7 -38q-2 -10 -11 -10h-22q-10 0 -8 10l7 38q2 10 11 10zM411 680h22q10 0 8 -10l-7 -38q-2 -10 -11 -10h-22q-10 0 -8 10l7 38q2 10 11 10zM283 484q73 0 109.5 -41t36.5 -116q0 -53 -15.5 -119.5t-32.5 -102.5q-55 -115 -181 -115
q-73 0 -109.5 41t-36.5 116q0 53 15.5 119.5t32.5 102.5q55 115 181 115zM279 459q-104 0 -155 -104q-14 -29 -28.5 -92t-14.5 -109q0 -139 123 -139q104 0 155 104q14 29 28.5 92t14.5 109q0 139 -123 139z" />
    <glyph glyph-name="divide" unicode="&#xf7;" 
d="M251 438q13 0 22.5 -9t9.5 -23t-9.5 -23t-22.5 -9t-22.5 9t-9.5 23t9.5 23t22.5 9zM71 289h361q10 0 10 -10v-5q0 -10 -10 -10h-361q-10 0 -10 10v5q0 10 10 10zM251 177q13 0 22.5 -9.5t9.5 -22.5t-9.5 -22.5t-22.5 -9.5t-22.5 9.5t-9.5 22.5t9.5 22.5t22.5 9.5z" />
    <glyph glyph-name="oslash" unicode="&#xf8;" horiz-adv-x="481" 
d="M450 504h8q10 0 4 -10l-56 -70q23 -38 23 -97q0 -53 -15.5 -119.5t-32.5 -102.5q-55 -115 -181 -115q-73 0 -110 42l-43 -52q-7 -10 -16 -10h-8q-11 0 -3 10l57 69q-23 37 -23 98q0 53 15.5 119.5t32.5 102.5q55 115 181 115q72 0 109 -42l42 52q8 10 16 10zM279 459
q-104 0 -155 -104q-14 -29 -28.5 -92t-14.5 -109q0 -49 14 -80l279 347q-30 38 -95 38zM387 401l-279 -348q30 -38 96 -38q104 0 155 104q14 29 28.5 92t14.5 109q0 48 -15 81z" />
    <glyph glyph-name="ugrave" unicode="&#xf9;" horiz-adv-x="534" 
d="M244 700h9q9 0 13 -10l54 -120q5 -10 -7 -10h-2q-9 0 -15 10l-59 120q-2 4 0 7t7 3zM364 474h83q10 0 8 -10l-76 -433q-1 -6 5 -6h61q10 0 8 -10l-1 -5q-1 -10 -12 -10h-84q-10 0 -8 10l11 64h-1q-54 -84 -151 -84q-129 0 -129 127q0 31 5 56l49 270q2 6 -5 6h-60
q-10 0 -8 10l1 5q1 10 12 10h83q10 0 8 -10l-52 -284q-6 -33 -6 -60q0 -54 26.5 -79.5t80.5 -25.5t102.5 41t60.5 107l49 280q2 6 -5 6h-60q-10 0 -8 10l1 5q1 10 12 10z" />
    <glyph glyph-name="uacute" unicode="&#xfa;" horiz-adv-x="534" 
d="M388 700h11q5 0 6 -3t-2 -7l-102 -120q-9 -10 -18 -10h-4q-11 0 -3 10l94 120q8 10 18 10zM364 474h83q10 0 8 -10l-76 -433q-1 -6 5 -6h61q10 0 8 -10l-1 -5q-1 -10 -12 -10h-84q-10 0 -8 10l11 64h-1q-54 -84 -151 -84q-129 0 -129 127q0 31 5 56l49 270q2 6 -5 6h-60
q-10 0 -8 10l1 5q1 10 12 10h83q10 0 8 -10l-52 -284q-6 -33 -6 -60q0 -54 26.5 -79.5t80.5 -25.5t102.5 41t60.5 107l49 280q2 6 -5 6h-60q-10 0 -8 10l1 5q1 10 12 10z" />
    <glyph glyph-name="ucircumflex" unicode="&#xfb;" horiz-adv-x="534" 
d="M322 700h5q7 0 12 -9l62 -120q6 -10 -4 -10h-4q-9 0 -14 9l-56 104h-2l-94 -104q-8 -9 -17 -9h-5q-4 0 -5 3t3 7l103 120q8 9 16 9zM364 474h83q10 0 8 -10l-76 -433q-1 -6 5 -6h61q10 0 8 -10l-1 -5q-1 -10 -12 -10h-84q-10 0 -8 10l11 64h-1q-54 -84 -151 -84
q-129 0 -129 127q0 31 5 56l49 270q2 6 -5 6h-60q-10 0 -8 10l1 5q1 10 12 10h83q10 0 8 -10l-52 -284q-6 -33 -6 -60q0 -54 26.5 -79.5t80.5 -25.5t102.5 41t60.5 107l49 280q2 6 -5 6h-60q-10 0 -8 10l1 5q1 10 12 10z" />
    <glyph glyph-name="udieresis" unicode="&#xfc;" horiz-adv-x="534" 
d="M212 680h22q10 0 8 -10l-7 -38q-2 -10 -11 -10h-22q-10 0 -8 10l7 38q2 10 11 10zM405 680h22q10 0 8 -10l-7 -38q-2 -10 -11 -10h-22q-10 0 -8 10l7 38q2 10 11 10zM364 474h83q10 0 8 -10l-76 -433q-1 -6 5 -6h61q10 0 8 -10l-1 -5q-1 -10 -12 -10h-84q-10 0 -8 10
l11 64h-1q-54 -84 -151 -84q-129 0 -129 127q0 31 5 56l49 270q2 6 -5 6h-60q-10 0 -8 10l1 5q1 10 12 10h83q10 0 8 -10l-52 -284q-6 -33 -6 -60q0 -54 26.5 -79.5t80.5 -25.5t102.5 41t60.5 107l49 280q2 6 -5 6h-60q-10 0 -8 10l1 5q1 10 12 10z" />
    <glyph glyph-name="yacute" unicode="&#xfd;" horiz-adv-x="441" 
d="M369 700h11q4 0 5.5 -3t-1.5 -7l-102 -120q-9 -10 -18 -10h-4q-11 0 -3 10l94 120q8 10 18 10zM348 474h124q10 0 8 -10l-1 -5q-1 -10 -12 -10h-28q-5 0 -9 -7l-268 -497q-42 -77 -71 -101t-72 -24h-15q-10 0 -8 10l1 5q1 10 12 10h16q32 0 55.5 22t58.5 87l29 54
l-82 435q-2 6 -6 6h-31q-10 0 -8 10l1 5q1 10 12 10h128q10 0 8 -10l-1 -5q-1 -10 -12 -10h-58q-7 0 -5 -7l73 -396h1l211 394q5 9 -4 9h-52q-10 0 -8 10l1 5q1 10 12 10z" />
    <glyph glyph-name="thorn" unicode="&#xfe;" horiz-adv-x="533" 
d="M135 680h83q10 0 8 -10l-48 -273h1q56 87 159 87q68 0 103 -40t35 -113q0 -58 -16 -126t-33 -102q-54 -113 -173 -113q-52 0 -85 25.5t-46 66.5h-1l-40 -230q-1 -7 5 -7h61q10 0 8 -10l-1 -5q-1 -10 -12 -10h-160q-10 0 -8 10l1 5q1 10 12 10h60q6 0 7 7l140 797
q1 6 -5 6h-60q-10 0 -8 10l1 5q1 10 12 10zM333 459q-102 0 -154 -106q-11 -22 -26 -97.5t-15 -117.5q0 -55 31 -89t87 -34q100 0 147 98q21 41 33.5 104t12.5 113q0 129 -116 129z" />
    <glyph glyph-name="ydieresis" unicode="&#xff;" horiz-adv-x="441" 
d="M195 680h22q10 0 8 -10l-7 -38q-2 -10 -11 -10h-22q-10 0 -8 10l7 38q2 10 11 10zM388 680h22q10 0 8 -10l-7 -38q-2 -10 -11 -10h-22q-10 0 -8 10l7 38q2 10 11 10zM348 474h124q10 0 8 -10l-1 -5q-1 -10 -12 -10h-28q-5 0 -9 -7l-268 -497q-42 -77 -71 -101t-72 -24
h-15q-10 0 -8 10l1 5q1 10 12 10h16q32 0 55.5 22t58.5 87l29 54l-82 435q-2 6 -6 6h-31q-10 0 -8 10l1 5q1 10 12 10h128q10 0 8 -10l-1 -5q-1 -10 -12 -10h-58q-7 0 -5 -7l73 -396h1l211 394q5 9 -4 9h-52q-10 0 -8 10l1 5q1 10 12 10z" />
    <glyph glyph-name="Amacron" unicode="&#x100;" horiz-adv-x="567" 
d="M284 837h225q10 0 8 -10l-1 -5q-1 -10 -11 -10h-225q-10 0 -8 10l1 5q1 10 11 10zM361 680h10q7 0 9 -10l109 -639q1 -6 7 -6h33q10 0 8 -10l-1 -5q-1 -10 -12 -10h-143q-10 0 -8 10l1 5q1 10 12 10h68q7 0 6 7l-30 180h-291l-95 -181q-3 -6 4 -6h68q10 0 8 -10l-1 -5
q-1 -10 -12 -10h-145q-10 0 -8 10l1 5q1 10 12 10h32q7 0 10 6l336 639q5 10 12 10zM358 630l-206 -392h273l-65 392h-2z" />
    <glyph glyph-name="amacron" unicode="&#x101;" horiz-adv-x="491" 
d="M201 662h225q10 0 8 -10l-1 -5q-1 -10 -11 -10h-225q-10 0 -8 10l1 5q1 10 11 10zM269 484q69 0 100.5 -23.5t31.5 -76.5q0 -20 -5 -52l-54 -301q-2 -6 5 -6h59q10 0 8 -10l-1 -5q-1 -10 -12 -10h-82q-10 0 -8 10l10 56h-1q-19 -34 -60 -55t-97 -21q-62 0 -96 30.5
t-34 82.5q0 78 49.5 118.5t144.5 40.5h123q6 0 7 6q17 87 17 115q0 42 -24.5 59t-84.5 17q-66 0 -114 -24q-5 -2 -6 -7l-11 -61q-2 -10 -11 -10h-8q-10 0 -8 10l13 76q1 7 6 9q66 32 143 32zM346 237h-118q-168 0 -168 -132q0 -42 28 -66t82 -24q62 0 108.5 36t55.5 90
l16 90q2 6 -4 6z" />
    <glyph glyph-name="Abreve" unicode="&#x102;" horiz-adv-x="567" 
d="M501 879h5q10 0 7 -10q-15 -43 -48.5 -68t-76.5 -25t-68 25t-27 68q0 10 10 10h4q10 0 10 -10q5 -69 74 -69q32 0 57.5 18.5t39.5 50.5q5 10 13 10zM361 680h10q7 0 9 -10l109 -639q1 -6 7 -6h33q10 0 8 -10l-1 -5q-1 -10 -12 -10h-143q-10 0 -8 10l1 5q1 10 12 10h68
q7 0 6 7l-30 180h-291l-95 -181q-3 -6 4 -6h68q10 0 8 -10l-1 -5q-1 -10 -12 -10h-145q-10 0 -8 10l1 5q1 10 12 10h32q7 0 10 6l336 639q5 10 12 10zM358 630l-206 -392h273l-65 392h-2z" />
    <glyph glyph-name="abreve" unicode="&#x103;" horiz-adv-x="491" 
d="M414 683h5q10 0 7 -10q-15 -43 -48.5 -68t-76.5 -25t-68 25t-27 68q0 10 10 10h4q10 0 10 -10q5 -69 74 -69q32 0 57.5 18.5t39.5 50.5q5 10 13 10zM269 484q69 0 100.5 -23.5t31.5 -76.5q0 -20 -5 -52l-54 -301q-2 -6 5 -6h59q10 0 8 -10l-1 -5q-1 -10 -12 -10h-82
q-10 0 -8 10l10 56h-1q-19 -34 -60 -55t-97 -21q-62 0 -96 30.5t-34 82.5q0 78 49.5 118.5t144.5 40.5h123q6 0 7 6q17 87 17 115q0 42 -24.5 59t-84.5 17q-66 0 -114 -24q-5 -2 -6 -7l-11 -61q-2 -10 -11 -10h-8q-10 0 -8 10l13 76q1 7 6 9q66 32 143 32zM346 237h-118
q-168 0 -168 -132q0 -42 28 -66t82 -24q62 0 108.5 36t55.5 90l16 90q2 6 -4 6z" />
    <glyph glyph-name="Aogonek" unicode="&#x104;" horiz-adv-x="567" 
d="M361 680h10q7 0 9 -10l109 -639q1 -6 7 -6h33q10 0 8 -10l-1 -5q-1 -10 -12 -10h-128q-59 -43 -79.5 -67t-20.5 -44q0 -25 26 -25q14 0 31 11q7 5 11 -2l3 -6q2 -6 -6 -13q-19 -15 -45 -15q-21 0 -34 12.5t-13 33.5q0 31 25 58t79 64l1 8q1 10 12 10h68q7 0 6 7l-30 180
h-291l-95 -181q-3 -6 4 -6h68q10 0 8 -10l-1 -5q-1 -10 -12 -10h-145q-10 0 -8 10l1 5q1 10 12 10h32q7 0 10 6l336 639q5 10 12 10zM358 630l-206 -392h273l-65 392h-2z" />
    <glyph glyph-name="aogonek" unicode="&#x105;" horiz-adv-x="491" 
d="M269 484q69 0 100.5 -23.5t31.5 -76.5q0 -20 -5 -52l-54 -301q-2 -6 5 -6h59q10 0 8 -10l-1 -5q-1 -10 -12 -10h-65q-59 -43 -79.5 -67t-20.5 -44q0 -25 26 -25q14 0 31 11q7 5 11 -2l3 -6q2 -6 -6 -13q-19 -15 -45 -15q-21 0 -34 12.5t-13 33.5q0 23 16 45.5t34.5 38
t50.5 37.5l11 60h-1q-19 -34 -60 -55t-97 -21q-62 0 -96 30.5t-34 82.5q0 78 49.5 118.5t144.5 40.5h123q6 0 7 6q17 87 17 115q0 42 -24.5 59t-84.5 17q-66 0 -114 -24q-5 -2 -6 -7l-11 -61q-2 -10 -11 -10h-8q-10 0 -8 10l13 76q1 7 6 9q66 32 143 32zM346 237h-118
q-168 0 -168 -132q0 -42 28 -66t82 -24q62 0 108.5 36t55.5 90l16 90q2 6 -4 6z" />
    <glyph glyph-name="Cacute" unicode="&#x106;" horiz-adv-x="552" 
d="M483 888h11q5 0 6 -3t-3 -7l-99 -102q-10 -10 -19 -10h-5q-12 0 -1 11l91 101q9 10 19 10zM373 690q110 0 172 -52q6 -5 5 -14l-16 -94q-2 -10 -11 -10h-8q-10 0 -8 10l15 84q1 5 -3 9q-48 41 -147 41q-143 0 -205 -129q-28 -58 -50 -171.5t-22 -180.5q0 -167 180 -167
q88 0 142 33q5 4 6 10l14 75q2 10 11 10h8q10 0 8 -10l-15 -88q-1 -10 -10 -15q-64 -41 -168 -41q-204 0 -204 188q0 70 22.5 188t50.5 176q37 77 93 112.5t140 35.5z" />
    <glyph glyph-name="cacute" unicode="&#x107;" horiz-adv-x="466" 
d="M416 700h11q5 0 6 -3t-2 -7l-102 -120q-9 -10 -18 -10h-4q-11 0 -3 10l94 120q8 10 18 10zM288 484q89 0 132 -43q5 -5 4 -12l-13 -77q-2 -10 -11 -10h-8q-10 0 -8 10l11 67q1 6 -2 9q-33 31 -109 31q-110 0 -160 -104q-18 -37 -30.5 -98t-12.5 -102q0 -140 137 -140
q59 0 105 26q6 4 7 9l12 68q2 10 11 10h8q10 0 8 -10l-14 -79q-1 -10 -9 -14q-56 -35 -132 -35q-79 0 -119.5 40.5t-40.5 118.5q0 46 14.5 114t33.5 106q57 115 186 115z" />
    <glyph glyph-name="Ccircumflex" unicode="&#x108;" horiz-adv-x="552" 
d="M410 895h5q7 0 12 -9l62 -120q6 -10 -4 -10h-4q-9 0 -14 9l-56 104h-2l-94 -104q-8 -9 -17 -9h-5q-4 0 -5 3t3 7l103 120q8 9 16 9zM373 690q110 0 172 -52q6 -5 5 -14l-16 -94q-2 -10 -11 -10h-8q-10 0 -8 10l15 84q1 5 -3 9q-48 41 -147 41q-143 0 -205 -129
q-28 -58 -50 -171.5t-22 -180.5q0 -167 180 -167q88 0 142 33q5 4 6 10l14 75q2 10 11 10h8q10 0 8 -10l-15 -88q-1 -10 -10 -15q-64 -41 -168 -41q-204 0 -204 188q0 70 22.5 188t50.5 176q37 77 93 112.5t140 35.5z" />
    <glyph glyph-name="ccircumflex" unicode="&#x109;" horiz-adv-x="466" 
d="M329 700h5q8 0 12 -9l62 -120q6 -10 -4 -10h-4q-9 0 -14 9l-56 104h-2l-94 -104q-8 -9 -17 -9h-5q-4 0 -5 3t3 7l103 120q8 9 16 9zM288 484q89 0 132 -43q5 -5 4 -12l-13 -77q-2 -10 -11 -10h-8q-10 0 -8 10l11 67q1 6 -2 9q-33 31 -109 31q-110 0 -160 -104
q-18 -37 -30.5 -98t-12.5 -102q0 -140 137 -140q59 0 105 26q6 4 7 9l12 68q2 10 11 10h8q10 0 8 -10l-14 -79q-1 -10 -9 -14q-56 -35 -132 -35q-79 0 -119.5 40.5t-40.5 118.5q0 46 14.5 114t33.5 106q57 115 186 115z" />
    <glyph glyph-name="Cdotaccent" unicode="&#x10a;" horiz-adv-x="552" 
d="M397 854h22q10 0 8 -10l-7 -38q-2 -10 -11 -10h-22q-10 0 -8 10l7 38q2 10 11 10zM373 690q110 0 172 -52q6 -5 5 -14l-16 -94q-2 -10 -11 -10h-8q-10 0 -8 10l15 84q1 5 -3 9q-48 41 -147 41q-143 0 -205 -129q-28 -58 -50 -171.5t-22 -180.5q0 -167 180 -167
q88 0 142 33q5 4 6 10l14 75q2 10 11 10h8q10 0 8 -10l-15 -88q-1 -10 -10 -15q-64 -41 -168 -41q-204 0 -204 188q0 70 22.5 188t50.5 176q37 77 93 112.5t140 35.5z" />
    <glyph glyph-name="cdotaccent" unicode="&#x10b;" horiz-adv-x="466" 
d="M319 680h22q10 0 8 -10l-7 -38q-2 -10 -11 -10h-22q-10 0 -8 10l7 38q2 10 11 10zM288 484q89 0 132 -43q5 -5 4 -12l-13 -77q-2 -10 -11 -10h-8q-10 0 -8 10l11 67q1 6 -2 9q-33 31 -109 31q-110 0 -160 -104q-18 -37 -30.5 -98t-12.5 -102q0 -140 137 -140q59 0 105 26
q6 4 7 9l12 68q2 10 11 10h8q10 0 8 -10l-14 -79q-1 -10 -9 -14q-56 -35 -132 -35q-79 0 -119.5 40.5t-40.5 118.5q0 46 14.5 114t33.5 106q57 115 186 115z" />
    <glyph glyph-name="Ccaron" unicode="&#x10c;" horiz-adv-x="552" 
d="M503 895h5q4 0 5 -3t-3 -7l-103 -120q-8 -9 -16 -9h-5q-8 0 -12 9l-62 120q-6 10 4 10h4q9 0 14 -9l56 -104h2l94 104q8 9 17 9zM373 690q110 0 172 -52q6 -5 5 -14l-16 -94q-2 -10 -11 -10h-8q-10 0 -8 10l15 84q1 5 -3 9q-48 41 -147 41q-143 0 -205 -129
q-28 -58 -50 -171.5t-22 -180.5q0 -167 180 -167q88 0 142 33q5 4 6 10l14 75q2 10 11 10h8q10 0 8 -10l-15 -88q-1 -10 -10 -15q-64 -41 -168 -41q-204 0 -204 188q0 70 22.5 188t50.5 176q37 77 93 112.5t140 35.5z" />
    <glyph glyph-name="ccaron" unicode="&#x10d;" horiz-adv-x="466" 
d="M421 700h5q4 0 5 -3t-3 -7l-103 -120q-8 -9 -16 -9h-5q-8 0 -12 9l-62 120q-6 10 4 10h4q9 0 14 -9l56 -104h2l94 104q8 9 17 9zM288 484q89 0 132 -43q5 -5 4 -12l-13 -77q-2 -10 -11 -10h-8q-10 0 -8 10l11 67q1 6 -2 9q-33 31 -109 31q-110 0 -160 -104
q-18 -37 -30.5 -98t-12.5 -102q0 -140 137 -140q59 0 105 26q6 4 7 9l12 68q2 10 11 10h8q10 0 8 -10l-14 -79q-1 -10 -9 -14q-56 -35 -132 -35q-79 0 -119.5 40.5t-40.5 118.5q0 46 14.5 114t33.5 106q57 115 186 115z" />
    <glyph glyph-name="Dcaron" unicode="&#x10e;" horiz-adv-x="624" 
d="M508 895h5q4 0 5 -3t-3 -7l-103 -120q-8 -9 -16 -9h-5q-7 0 -12 9l-62 120q-6 10 4 10h4q9 0 14 -9l56 -104h2l94 104q8 9 17 9zM134 680h267q183 0 183 -173q0 -69 -24 -193.5t-52 -182.5q-34 -70 -88 -100.5t-138 -30.5h-267q-10 0 -8 10l1 5q1 10 12 10h62q6 0 7 6
l108 618q1 6 -5 6h-63q-10 0 -8 10l1 5q1 10 12 10zM396 654h-164q-6 0 -7 -6l-108 -616q-1 -6 4 -6h163q143 0 199 114q27 56 50 175.5t23 188.5q0 77 -39 113.5t-121 36.5z" />
    <glyph glyph-name="dcaron" unicode="&#x10f;" horiz-adv-x="528" 
d="M394 680h83q10 0 8 -10l-112 -638q-1 -7 5 -7h61q10 0 8 -10l-1 -6q-1 -9 -12 -9h-84q-10 0 -8 10l12 67h-1q-56 -87 -159 -87q-68 0 -103 40t-35 113q0 58 16 126t33 102q54 113 173 113q52 0 85 -25.5t46 -66.5h1l44 256q1 7 -5 7h-60q-10 0 -8 10l1 5q1 10 12 10z
M563 680h10q10 0 8 -10l-12 -64q-2 -11 -7 -22l-11 -21q-5 -9 -11 -9q-8 0 -7 9l19 107q2 10 11 10zM276 459q-100 0 -147 -98q-21 -41 -33.5 -104t-12.5 -113q0 -129 116 -129q102 0 154 106q11 22 26 97.5t15 117.5q0 55 -31 89t-87 34z" />
    <glyph glyph-name="Dcroat" unicode="&#x110;" horiz-adv-x="624" 
d="M134 680h267q183 0 183 -173q0 -69 -24 -193.5t-52 -182.5q-34 -70 -88 -100.5t-138 -30.5h-267q-10 0 -8 10l1 5q1 10 12 10h62q6 0 7 6l52 297q1 6 -5 6h-44q-10 0 -8 10l1 5q1 10 12 10h43q6 0 7 6l50 284q1 6 -5 6h-63q-10 0 -8 10l1 5q1 10 12 10zM396 654h-164
q-6 0 -7 -6l-50 -283q-1 -6 5 -6h139q10 0 8 -10l-1 -5q-1 -10 -12 -10h-138q-6 0 -7 -6l-52 -296q-1 -6 4 -6h163q143 0 199 114q27 56 50 175.5t23 188.5q0 77 -39 113.5t-121 36.5z" />
    <glyph glyph-name="dcroat" unicode="&#x111;" horiz-adv-x="528" 
d="M394 680h83q10 0 8 -10l-15 -85q-2 -6 5 -6h35q10 0 8 -10l-1 -5q-1 -9 -12 -9h-34q-5 0 -7 -6l-91 -517q-1 -7 5 -7h61q10 0 8 -10l-1 -6q-1 -9 -12 -9h-84q-10 0 -8 10l12 67h-1q-56 -87 -159 -87q-68 0 -103 40t-35 113q0 58 16 126t33 102q54 113 173 113
q52 0 85 -25.5t46 -66.5h1l27 157q1 6 -5 6h-134q-10 0 -8 10l1 5q1 9 12 9h133q6 0 7 6l11 63q1 7 -5 7h-60q-10 0 -8 10l1 5q1 10 12 10zM276 459q-100 0 -147 -98q-21 -41 -33.5 -104t-12.5 -113q0 -129 116 -129q102 0 154 106q11 22 26 97.5t15 117.5q0 55 -31 89
t-87 34z" />
    <glyph glyph-name="Emacron" unicode="&#x112;" horiz-adv-x="562" 
d="M285 837h225q10 0 8 -10l-1 -5q-1 -10 -11 -10h-225q-10 0 -8 10l1 5q1 10 11 10zM134 680h431q10 0 8 -10l-16 -93q-2 -10 -11 -10h-8q-10 0 -8 10l12 71q2 6 -5 6h-305q-6 0 -7 -6l-49 -282q-1 -7 6 -7h248q6 0 7 6l10 58q2 10 11 10h8q10 0 8 -10l-27 -157
q-2 -10 -11 -10h-8q-10 0 -8 10l10 61q2 6 -5 6h-249q-6 0 -7 -6l-52 -295q-1 -6 5 -6h305q5 0 7 6l13 70q2 10 11 10h8q10 0 8 -10l-17 -92q-1 -10 -12 -10h-430q-10 0 -8 10l1 5q1 10 12 10h62q6 0 7 6l108 618q1 6 -5 6h-63q-10 0 -8 10l1 5q1 10 12 10z" />
    <glyph glyph-name="emacron" unicode="&#x113;" horiz-adv-x="467" 
d="M201 662h225q10 0 8 -10l-1 -5q-1 -10 -11 -10h-225q-10 0 -8 10l1 5q1 10 11 10zM281 484q64 0 102 -39t38 -112q0 -35 -9 -86q-2 -10 -12 -10h-304q-6 0 -8 -6q-7 -36 -7 -89q0 -60 30 -93.5t91 -33.5q86 0 150 71q8 8 14 3l6 -5q6 -6 -1 -14q-68 -80 -171 -80
q-71 0 -108.5 39.5t-37.5 112.5q0 128 46 223q28 58 75 88.5t106 30.5zM279 459q-105 0 -155 -104q-18 -38 -28 -87q-2 -6 5 -6h281q6 0 7 6q6 33 6 61q0 130 -116 130z" />
    <glyph glyph-name="Ebreve" unicode="&#x114;" horiz-adv-x="562" 
d="M501 879h5q10 0 7 -10q-15 -43 -48.5 -68t-76.5 -25t-68 25t-27 68q0 10 10 10h4q10 0 10 -10q5 -69 74 -69q32 0 57.5 18.5t39.5 50.5q5 10 13 10zM134 680h431q10 0 8 -10l-16 -93q-2 -10 -11 -10h-8q-10 0 -8 10l12 71q2 6 -5 6h-305q-6 0 -7 -6l-49 -282q-1 -7 6 -7
h248q6 0 7 6l10 58q2 10 11 10h8q10 0 8 -10l-27 -157q-2 -10 -11 -10h-8q-10 0 -8 10l10 61q2 6 -5 6h-249q-6 0 -7 -6l-52 -295q-1 -6 5 -6h305q5 0 7 6l13 70q2 10 11 10h8q10 0 8 -10l-17 -92q-1 -10 -12 -10h-430q-10 0 -8 10l1 5q1 10 12 10h62q6 0 7 6l108 618
q1 6 -5 6h-63q-10 0 -8 10l1 5q1 10 12 10z" />
    <glyph glyph-name="ebreve" unicode="&#x115;" horiz-adv-x="467" 
d="M414 683h5q10 0 7 -10q-15 -43 -48.5 -68t-76.5 -25t-68 25t-27 68q0 10 10 10h4q10 0 10 -10q5 -69 74 -69q32 0 57.5 18.5t39.5 50.5q5 10 13 10zM281 484q64 0 102 -39t38 -112q0 -35 -9 -86q-2 -10 -12 -10h-304q-6 0 -8 -6q-7 -36 -7 -89q0 -60 30 -93.5t91 -33.5
q86 0 150 71q8 8 14 3l6 -5q6 -6 -1 -14q-68 -80 -171 -80q-71 0 -108.5 39.5t-37.5 112.5q0 128 46 223q28 58 75 88.5t106 30.5zM279 459q-105 0 -155 -104q-18 -38 -28 -87q-2 -6 5 -6h281q6 0 7 6q6 33 6 61q0 130 -116 130z" />
    <glyph glyph-name="Edotaccent" unicode="&#x116;" horiz-adv-x="562" 
d="M389 854h22q10 0 8 -10l-7 -38q-2 -10 -11 -10h-22q-10 0 -8 10l7 38q2 10 11 10zM134 680h431q10 0 8 -10l-16 -93q-2 -10 -11 -10h-8q-10 0 -8 10l12 71q2 6 -5 6h-305q-6 0 -7 -6l-49 -282q-1 -7 6 -7h248q6 0 7 6l10 58q2 10 11 10h8q10 0 8 -10l-27 -157
q-2 -10 -11 -10h-8q-10 0 -8 10l10 61q2 6 -5 6h-249q-6 0 -7 -6l-52 -295q-1 -6 5 -6h305q5 0 7 6l13 70q2 10 11 10h8q10 0 8 -10l-17 -92q-1 -10 -12 -10h-430q-10 0 -8 10l1 5q1 10 12 10h62q6 0 7 6l108 618q1 6 -5 6h-63q-10 0 -8 10l1 5q1 10 12 10z" />
    <glyph glyph-name="edotaccent" unicode="&#x117;" horiz-adv-x="467" 
d="M306 680h22q10 0 8 -10l-7 -38q-2 -10 -11 -10h-22q-10 0 -8 10l7 38q2 10 11 10zM281 484q64 0 102 -39t38 -112q0 -35 -9 -86q-2 -10 -12 -10h-304q-6 0 -8 -6q-7 -36 -7 -89q0 -60 30 -93.5t91 -33.5q86 0 150 71q8 8 14 3l6 -5q6 -6 -1 -14q-68 -80 -171 -80
q-71 0 -108.5 39.5t-37.5 112.5q0 128 46 223q28 58 75 88.5t106 30.5zM279 459q-105 0 -155 -104q-18 -38 -28 -87q-2 -6 5 -6h281q6 0 7 6q6 33 6 61q0 130 -116 130z" />
    <glyph glyph-name="Eogonek" unicode="&#x118;" horiz-adv-x="562" 
d="M134 680h431q10 0 8 -10l-16 -93q-2 -10 -11 -10h-8q-10 0 -8 10l12 71q2 6 -5 6h-305q-6 0 -7 -6l-49 -282q-1 -7 6 -7h248q6 0 7 6l10 58q2 10 11 10h8q10 0 8 -10l-27 -157q-2 -10 -11 -10h-8q-10 0 -8 10l10 61q2 6 -5 6h-249q-6 0 -7 -6l-52 -295q-1 -6 5 -6h305
q5 0 7 6l13 70q2 10 11 10h8q10 0 8 -10l-17 -92q-1 -10 -12 -10h-7q-59 -43 -79.5 -67t-20.5 -44q0 -25 26 -25q14 0 31 11q7 5 11 -2l3 -6q2 -6 -6 -13q-19 -15 -45 -15q-21 0 -34 12.5t-13 33.5q0 27 20 52.5t72 62.5h-388q-10 0 -8 10l1 5q1 10 12 10h62q6 0 7 6
l108 618q1 6 -5 6h-63q-10 0 -8 10l1 5q1 10 12 10z" />
    <glyph glyph-name="eogonek" unicode="&#x119;" horiz-adv-x="467" 
d="M281 484q64 0 102 -39t38 -112q0 -35 -9 -86q-2 -10 -12 -10h-304q-6 0 -8 -6q-7 -36 -7 -89q0 -60 30 -93.5t91 -33.5q86 0 150 71q8 8 14 3l6 -5q6 -6 -1 -14q-22 -24 -45 -41q-102 -95 -102 -140q0 -25 26 -25q14 0 31 11q7 5 11 -2l3 -6q2 -6 -6 -13q-19 -15 -45 -15
q-21 0 -34 12.5t-13 33.5q0 49 73 116q-33 -11 -70 -11q-71 0 -108.5 39.5t-37.5 112.5q0 128 46 223q28 58 75 88.5t106 30.5zM279 459q-105 0 -155 -104q-18 -38 -28 -87q-2 -6 5 -6h281q6 0 7 6q6 33 6 61q0 130 -116 130z" />
    <glyph glyph-name="Ecaron" unicode="&#x11a;" horiz-adv-x="562" 
d="M495 895h5q4 0 5 -3t-3 -7l-103 -120q-8 -9 -16 -9h-5q-8 0 -12 9l-62 120q-6 10 4 10h4q9 0 14 -9l56 -104h2l94 104q8 9 17 9zM134 680h431q10 0 8 -10l-16 -93q-2 -10 -11 -10h-8q-10 0 -8 10l12 71q2 6 -5 6h-305q-6 0 -7 -6l-49 -282q-1 -7 6 -7h248q6 0 7 6l10 58
q2 10 11 10h8q10 0 8 -10l-27 -157q-2 -10 -11 -10h-8q-10 0 -8 10l10 61q2 6 -5 6h-249q-6 0 -7 -6l-52 -295q-1 -6 5 -6h305q5 0 7 6l13 70q2 10 11 10h8q10 0 8 -10l-17 -92q-1 -10 -12 -10h-430q-10 0 -8 10l1 5q1 10 12 10h62q6 0 7 6l108 618q1 6 -5 6h-63
q-10 0 -8 10l1 5q1 10 12 10z" />
    <glyph glyph-name="ecaron" unicode="&#x11b;" horiz-adv-x="467" 
d="M411 700h5q4 0 5 -3t-3 -7l-103 -120q-8 -9 -16 -9h-5q-8 0 -12 9l-62 120q-6 10 4 10h4q9 0 14 -9l56 -104h2l94 104q8 9 17 9zM281 484q64 0 102 -39t38 -112q0 -35 -9 -86q-2 -10 -12 -10h-304q-6 0 -8 -6q-7 -36 -7 -89q0 -60 30 -93.5t91 -33.5q86 0 150 71
q8 8 14 3l6 -5q6 -6 -1 -14q-68 -80 -171 -80q-71 0 -108.5 39.5t-37.5 112.5q0 128 46 223q28 58 75 88.5t106 30.5zM279 459q-105 0 -155 -104q-18 -38 -28 -87q-2 -6 5 -6h281q6 0 7 6q6 33 6 61q0 130 -116 130z" />
    <glyph glyph-name="Gcircumflex" unicode="&#x11c;" horiz-adv-x="589" 
d="M421 895h5q8 0 12 -9l62 -120q6 -10 -4 -10h-4q-9 0 -14 9l-56 104h-2l-94 -104q-8 -9 -17 -9h-5q-4 0 -5 3t3 7l103 120q8 9 16 9zM383 690q115 0 179 -61q6 -6 4 -15l-16 -88q-2 -10 -11 -10h-8q-10 0 -8 10l14 81q1 6 -4 11q-55 46 -154 46q-79 0 -129 -31.5
t-82 -96.5q-28 -58 -50 -172t-22 -181q0 -83 41.5 -125t132.5 -42q105 0 166 40q8 5 10 15l40 228q2 6 -5 6h-159q-9 0 -7 10l1 7q2 9 10 9h183q9 0 7 -10l-45 -257q-3 -18 -13 -25q-70 -49 -192 -49q-99 0 -148.5 48.5t-49.5 139.5q0 70 22.5 188t50.5 176
q37 77 93.5 112.5t148.5 35.5z" />
    <glyph glyph-name="gcircumflex" unicode="&#x11d;" horiz-adv-x="520" 
d="M330 700h5q7 0 12 -9l62 -120q6 -10 -4 -10h-4q-9 0 -14 9l-56 104h-2l-94 -104q-8 -9 -17 -9h-5q-4 0 -5 3t3 7l103 120q8 9 16 9zM274 484q51 0 83 -26t43 -66h1l12 72q2 10 11 10h85q10 0 8 -10l-1 -5q-1 -10 -12 -10h-61q-6 0 -7 -7l-78 -440q-19 -103 -68.5 -147.5
t-128.5 -44.5q-93 0 -132 72q-6 10 4 14l7 3q8 3 13 -5q38 -59 112 -59q139 0 167 169l12 70h-1q-50 -84 -153 -84q-66 0 -101 39t-35 108q0 52 13.5 120t36.5 114q55 113 170 113zM272 459q-97 0 -144 -98q-47 -102 -47 -223q0 -57 28 -90t86 -33q97 0 144 95
q17 34 31.5 110t14.5 116q0 54 -29.5 88.5t-83.5 34.5z" />
    <glyph glyph-name="Gbreve" unicode="&#x11e;" horiz-adv-x="589" 
d="M518 879h5q10 0 7 -10q-15 -43 -48.5 -68t-76.5 -25t-68 25t-27 68q0 10 10 10h4q10 0 10 -10q5 -69 74 -69q32 0 57.5 18.5t39.5 50.5q5 10 13 10zM383 690q115 0 179 -61q6 -6 4 -15l-16 -88q-2 -10 -11 -10h-8q-10 0 -8 10l14 81q1 6 -4 11q-55 46 -154 46
q-79 0 -129 -31.5t-82 -96.5q-28 -58 -50 -172t-22 -181q0 -83 41.5 -125t132.5 -42q105 0 166 40q8 5 10 15l40 228q2 6 -5 6h-159q-9 0 -7 10l1 7q2 9 10 9h183q9 0 7 -10l-45 -257q-3 -18 -13 -25q-70 -49 -192 -49q-99 0 -148.5 48.5t-49.5 139.5q0 70 22.5 188
t50.5 176q37 77 93.5 112.5t148.5 35.5z" />
    <glyph glyph-name="gbreve" unicode="&#x11f;" horiz-adv-x="520" 
d="M426 683h5q10 0 7 -10q-15 -43 -48.5 -68t-76.5 -25t-68 25t-27 68q0 10 10 10h4q10 0 10 -10q5 -69 74 -69q32 0 57.5 18.5t39.5 50.5q5 10 13 10zM274 484q51 0 83 -26t43 -66h1l12 72q2 10 11 10h85q10 0 8 -10l-1 -5q-1 -10 -12 -10h-61q-6 0 -7 -7l-78 -440
q-19 -103 -68.5 -147.5t-128.5 -44.5q-93 0 -132 72q-6 10 4 14l7 3q8 3 13 -5q38 -59 112 -59q139 0 167 169l12 70h-1q-50 -84 -153 -84q-66 0 -101 39t-35 108q0 52 13.5 120t36.5 114q55 113 170 113zM272 459q-97 0 -144 -98q-47 -102 -47 -223q0 -57 28 -90t86 -33
q97 0 144 95q17 34 31.5 110t14.5 116q0 54 -29.5 88.5t-83.5 34.5z" />
    <glyph glyph-name="Gdotaccent" unicode="&#x120;" horiz-adv-x="589" 
d="M405 854h22q10 0 8 -10l-7 -38q-2 -10 -11 -10h-22q-10 0 -8 10l7 38q2 10 11 10zM383 690q115 0 179 -61q6 -6 4 -15l-16 -88q-2 -10 -11 -10h-8q-10 0 -8 10l14 81q1 6 -4 11q-55 46 -154 46q-79 0 -129 -31.5t-82 -96.5q-28 -58 -50 -172t-22 -181q0 -83 41.5 -125
t132.5 -42q105 0 166 40q8 5 10 15l40 228q2 6 -5 6h-159q-9 0 -7 10l1 7q2 9 10 9h183q9 0 7 -10l-45 -257q-3 -18 -13 -25q-70 -49 -192 -49q-99 0 -148.5 48.5t-49.5 139.5q0 70 22.5 188t50.5 176q37 77 93.5 112.5t148.5 35.5z" />
    <glyph glyph-name="gdotaccent" unicode="&#x121;" horiz-adv-x="520" 
d="M318 680h22q10 0 8 -10l-7 -38q-2 -10 -11 -10h-22q-10 0 -8 10l7 38q2 10 11 10zM274 484q51 0 83 -26t43 -66h1l12 72q2 10 11 10h85q10 0 8 -10l-1 -5q-1 -10 -12 -10h-61q-6 0 -7 -7l-78 -440q-19 -103 -68.5 -147.5t-128.5 -44.5q-93 0 -132 72q-6 10 4 14l7 3
q8 3 13 -5q38 -59 112 -59q139 0 167 169l12 70h-1q-50 -84 -153 -84q-66 0 -101 39t-35 108q0 52 13.5 120t36.5 114q55 113 170 113zM272 459q-97 0 -144 -98q-47 -102 -47 -223q0 -57 28 -90t86 -33q97 0 144 95q17 34 31.5 110t14.5 116q0 54 -29.5 88.5t-83.5 34.5z
" />
    <glyph glyph-name="Gcommaaccent" unicode="&#x122;" horiz-adv-x="589" 
d="M383 690q115 0 179 -61q6 -6 4 -15l-16 -88q-2 -10 -11 -10h-8q-10 0 -8 10l14 81q1 6 -4 11q-55 46 -154 46q-79 0 -129 -31.5t-82 -96.5q-28 -58 -50 -172t-22 -181q0 -83 41.5 -125t132.5 -42q105 0 166 40q8 5 10 15l40 228q2 6 -5 6h-159q-9 0 -7 10l1 7q2 9 10 9
h183q9 0 7 -10l-45 -257q-3 -18 -13 -25q-70 -49 -192 -49q-99 0 -148.5 48.5t-49.5 139.5q0 70 22.5 188t50.5 176q37 77 93.5 112.5t148.5 35.5zM242 -56h10q10 0 8 -10l-12 -64q-2 -11 -7 -22l-11 -21q-4 -9 -11 -9q-9 0 -7 9l19 107q2 10 11 10z" />
    <glyph glyph-name="gcommaaccent" unicode="&#x123;" horiz-adv-x="520" 
d="M339 700q9 0 7 -9l-19 -107q-2 -10 -11 -10h-10q-10 0 -8 10l12 64q2 11 7 22l11 21q4 9 11 9zM274 484q51 0 83 -26t43 -66h1l12 72q2 10 11 10h85q10 0 8 -10l-1 -5q-1 -10 -12 -10h-61q-6 0 -7 -7l-78 -440q-19 -103 -68.5 -147.5t-128.5 -44.5q-93 0 -132 72
q-6 10 4 14l7 3q8 3 13 -5q38 -59 112 -59q139 0 167 169l12 70h-1q-50 -84 -153 -84q-66 0 -101 39t-35 108q0 52 13.5 120t36.5 114q55 113 170 113zM272 459q-97 0 -144 -98q-47 -102 -47 -223q0 -57 28 -90t86 -33q97 0 144 95q17 34 31.5 110t14.5 116q0 54 -29.5 88.5
t-83.5 34.5z" />
    <glyph glyph-name="Hcircumflex" unicode="&#x124;" horiz-adv-x="668" 
d="M443 895h5q8 0 12 -9l62 -120q6 -10 -4 -10h-4q-9 0 -14 9l-56 104h-2l-94 -104q-8 -9 -17 -9h-5q-4 0 -5 3t3 7l103 120q8 9 16 9zM529 680h165q10 0 8 -10l-1 -5q-1 -10 -12 -10h-62q-5 0 -7 -6l-108 -618q-2 -6 5 -6h63q10 0 8 -10l-1 -5q-1 -10 -12 -10h-165
q-10 0 -8 10l1 5q1 10 12 10h62q5 0 7 6l51 296q1 6 -4 6h-355q-6 0 -7 -6l-52 -296q-1 -6 5 -6h63q10 0 8 -10l-1 -5q-1 -10 -12 -10h-165q-10 0 -8 10l1 5q1 10 12 10h62q6 0 7 6l108 618q1 6 -5 6h-63q-10 0 -8 10l1 5q1 10 12 10h165q10 0 8 -10l-1 -5q-1 -10 -12 -10
h-62q-6 0 -7 -6l-50 -284q-1 -6 5 -6h355q5 0 7 6l50 284q2 6 -5 6h-63q-10 0 -8 10l1 5q1 10 12 10z" />
    <glyph glyph-name="uni0125" unicode="&#x125;" horiz-adv-x="560" 
d="M395 895h5q8 0 12 -9l62 -120q6 -10 -4 -10h-4q-9 0 -14 9l-56 104h-2l-94 -104q-8 -9 -17 -9h-5q-4 0 -5 3t3 7l103 120q8 9 16 9zM137 680h83q10 0 8 -10l-47 -270h1q54 84 153 84q132 0 132 -129q0 -29 -5 -54l-49 -270q-1 -6 5 -6h59q10 0 8 -10l-1 -5
q-1 -10 -12 -10h-158q-10 0 -8 10l1 5q1 10 12 10h60q5 0 7 6l48 263q6 32 6 57q0 56 -27 82t-83 26t-104.5 -41t-60.5 -107l-49 -280q-2 -6 5 -6h61q10 0 8 -10l-1 -5q-1 -10 -12 -10h-160q-10 0 -8 10l1 5q1 10 12 10h60q6 0 7 6l108 618q1 6 -5 6h-60q-10 0 -8 10l1 5
q1 10 12 10z" />
    <glyph glyph-name="Hbar" unicode="&#x126;" horiz-adv-x="668" 
d="M529 680h165q10 0 8 -10l-1 -5q-1 -10 -12 -10h-62q-5 0 -7 -6l-20 -114q-2 -6 5 -6h40q10 0 8 -10l-1 -5q-2 -10 -11 -10h-41q-6 0 -7 -6l-81 -467q-2 -6 5 -6h63q10 0 8 -10l-1 -5q-1 -10 -12 -10h-165q-10 0 -8 10l1 5q1 10 12 10h62q5 0 7 6l51 296q1 6 -4 6h-355
q-6 0 -7 -6l-52 -296q-1 -6 5 -6h63q10 0 8 -10l-1 -5q-1 -10 -12 -10h-165q-10 0 -8 10l1 5q1 10 12 10h62q6 0 7 6l82 467q1 6 -5 6h-41q-10 0 -8 10l1 5q2 10 12 10h40q6 0 7 6l20 114q1 6 -5 6h-63q-10 0 -8 10l1 5q1 10 12 10h165q10 0 8 -10l-1 -5q-1 -10 -12 -10h-62
q-6 0 -7 -6l-20 -114q-1 -6 5 -6h355q5 0 7 6l20 114q2 6 -5 6h-63q-10 0 -8 10l1 5q1 10 12 10zM560 504h-355q-5 0 -7 -6l-23 -133q-1 -6 5 -6h355q5 0 7 6l23 133q1 6 -5 6z" />
    <glyph glyph-name="hbar" unicode="&#x127;" horiz-adv-x="560" 
d="M137 680h83q10 0 8 -10l-15 -85q-1 -6 5 -6h131q10 0 8 -10l-1 -5q-2 -9 -12 -9h-130q-6 0 -7 -6l-26 -149h1q54 84 153 84q132 0 132 -129q0 -29 -5 -54l-49 -270q-1 -6 5 -6h59q10 0 8 -10l-1 -5q-1 -10 -12 -10h-158q-10 0 -8 10l1 5q1 10 12 10h60q5 0 7 6l48 263
q6 32 6 57q0 56 -27 82t-83 26t-104.5 -41t-60.5 -107l-49 -280q-2 -6 5 -6h61q10 0 8 -10l-1 -5q-1 -10 -12 -10h-160q-10 0 -8 10l1 5q1 10 12 10h60q6 0 7 6l91 518q2 6 -5 6h-35q-10 0 -8 10l1 5q1 9 12 9h34q5 0 7 6l11 64q1 6 -5 6h-60q-10 0 -8 10l1 5q1 10 12 10z
" />
    <glyph glyph-name="Itilde" unicode="&#x128;" horiz-adv-x="273" 
d="M206 858q25 0 51 -21q23 -18 41 -18q24 0 58 34q3 3 6 2t2 -5l-2 -14q-2 -8 -9 -14q-28 -26 -60 -26q-25 0 -51 21q-23 18 -41 18q-24 0 -58 -34q-3 -3 -6 -2t-2 5l2 14q2 8 9 14q28 26 60 26zM134 680h165q10 0 8 -10l-1 -5q-1 -10 -12 -10h-62q-6 0 -7 -6l-108 -618
q-1 -6 5 -6h63q10 0 8 -10l-1 -5q-1 -10 -12 -10h-165q-10 0 -8 10l1 5q1 10 12 10h62q6 0 7 6l108 618q1 6 -5 6h-63q-10 0 -8 10l1 5q1 10 12 10z" />
    <glyph glyph-name="itilde" unicode="&#x129;" horiz-adv-x="269" 
d="M142 677q25 0 51 -21q23 -18 41 -18q24 0 58 34q3 3 6 2t2 -5l-2 -14q-2 -8 -9 -14q-28 -26 -60 -26q-25 0 -51 21q-23 18 -41 18q-24 0 -58 -34q-3 -3 -6 -2t-2 5l2 14q2 8 9 14q28 26 60 26zM101 474h83q10 0 8 -10l-76 -433q-2 -6 5 -6h61q10 0 8 -10l-1 -5
q-1 -10 -12 -10h-160q-10 0 -8 10l1 5q1 10 12 10h60q6 0 7 6l72 412q1 6 -5 6h-60q-10 0 -8 10l1 5q1 10 12 10z" />
    <glyph glyph-name="Imacron" unicode="&#x12a;" horiz-adv-x="273" 
d="M140 837h225q10 0 8 -10l-1 -5q-1 -10 -11 -10h-225q-10 0 -8 10l1 5q1 10 11 10zM134 680h165q10 0 8 -10l-1 -5q-1 -10 -12 -10h-62q-6 0 -7 -6l-108 -618q-1 -6 5 -6h63q10 0 8 -10l-1 -5q-1 -10 -12 -10h-165q-10 0 -8 10l1 5q1 10 12 10h62q6 0 7 6l108 618
q1 6 -5 6h-63q-10 0 -8 10l1 5q1 10 12 10z" />
    <glyph glyph-name="imacron" unicode="&#x12b;" horiz-adv-x="269" 
d="M76 662h225q10 0 8 -10l-1 -5q-1 -10 -11 -10h-225q-10 0 -8 10l1 5q1 10 11 10zM101 474h83q10 0 8 -10l-76 -433q-2 -6 5 -6h61q10 0 8 -10l-1 -5q-1 -10 -12 -10h-160q-10 0 -8 10l1 5q1 10 12 10h60q6 0 7 6l72 412q1 6 -5 6h-60q-10 0 -8 10l1 5q1 10 12 10z" />
    <glyph glyph-name="Ibreve" unicode="&#x12c;" horiz-adv-x="273" 
d="M357 879h5q10 0 7 -10q-15 -43 -48.5 -68t-76.5 -25t-68 25t-27 68q0 10 10 10h4q10 0 10 -10q5 -69 74 -69q32 0 57.5 18.5t39.5 50.5q5 10 13 10zM134 680h165q10 0 8 -10l-1 -5q-1 -10 -12 -10h-62q-6 0 -7 -6l-108 -618q-1 -6 5 -6h63q10 0 8 -10l-1 -5
q-1 -10 -12 -10h-165q-10 0 -8 10l1 5q1 10 12 10h62q6 0 7 6l108 618q1 6 -5 6h-63q-10 0 -8 10l1 5q1 10 12 10z" />
    <glyph glyph-name="ibreve" unicode="&#x12d;" horiz-adv-x="269" 
d="M302 683h5q10 0 7 -10q-15 -43 -48.5 -68t-76.5 -25t-68 25t-27 68q0 10 10 10h4q10 0 10 -10q5 -69 74 -69q32 0 57.5 18.5t39.5 50.5q5 10 13 10zM101 474h83q10 0 8 -10l-76 -433q-2 -6 5 -6h61q10 0 8 -10l-1 -5q-1 -10 -12 -10h-160q-10 0 -8 10l1 5q1 10 12 10h60
q6 0 7 6l72 412q1 6 -5 6h-60q-10 0 -8 10l1 5q1 10 12 10z" />
    <glyph glyph-name="Iogonek" unicode="&#x12e;" horiz-adv-x="273" 
d="M134 680h165q10 0 8 -10l-1 -5q-1 -10 -12 -10h-62q-6 0 -7 -6l-108 -618q-1 -6 5 -6h63q10 0 8 -10l-1 -5q-1 -10 -12 -10h-71q-78 -77 -78 -111q0 -25 26 -25q14 0 31 11q7 5 11 -2l3 -6q2 -6 -6 -13q-19 -15 -45 -15q-21 0 -34 13t-13 33q0 46 76 115h-65q-10 0 -8 10
l1 5q1 10 12 10h62q6 0 7 6l108 618q1 6 -5 6h-63q-10 0 -8 10l1 5q1 10 12 10z" />
    <glyph glyph-name="uni012F" unicode="&#x12f;" horiz-adv-x="269" 
d="M206 680h22q9 0 7 -10l-7 -38q-1 -10 -12 -10h-20q-10 0 -8 10l7 38q2 10 11 10zM101 474h83q10 0 8 -10l-76 -433q-2 -6 5 -6h61q10 0 8 -10l-1 -5q-1 -10 -12 -10h-68q-79 -79 -79 -111q0 -25 26 -25q14 0 31 11q7 5 11 -2l3 -6q2 -6 -6 -13q-19 -15 -45 -15
q-21 0 -34 12.5t-13 33.5q0 42 76 115h-62q-10 0 -8 10l1 5q1 10 12 10h60q6 0 7 6l72 412q1 6 -5 6h-60q-10 0 -8 10l1 5q1 10 12 10z" />
    <glyph glyph-name="Idotaccent" unicode="&#x130;" horiz-adv-x="273" 
d="M238 854h22q10 0 8 -10l-7 -38q-2 -10 -11 -10h-22q-10 0 -8 10l7 38q2 10 11 10zM134 680h165q10 0 8 -10l-1 -5q-1 -10 -12 -10h-62q-6 0 -7 -6l-108 -618q-1 -6 5 -6h63q10 0 8 -10l-1 -5q-1 -10 -12 -10h-165q-10 0 -8 10l1 5q1 10 12 10h62q6 0 7 6l108 618
q1 6 -5 6h-63q-10 0 -8 10l1 5q1 10 12 10z" />
    <glyph glyph-name="dotlessi" unicode="&#x131;" horiz-adv-x="269" 
d="M101 474h83q10 0 8 -10l-76 -433q-2 -6 5 -6h61q10 0 8 -10l-1 -5q-1 -10 -12 -10h-160q-10 0 -8 10l1 5q1 10 12 10h60q6 0 7 6l72 412q1 6 -5 6h-60q-10 0 -8 10l1 5q1 10 12 10z" />
    <glyph glyph-name="IJ" unicode="&#x132;" horiz-adv-x="727" 
d="M134 680h165q10 0 8 -10l-1 -5q-1 -10 -12 -10h-62q-6 0 -7 -6l-108 -618q-1 -6 5 -6h63q10 0 8 -10l-1 -5q-1 -10 -12 -10h-165q-10 0 -8 10l1 5q1 10 12 10h62q6 0 7 6l108 618q1 6 -5 6h-63q-10 0 -8 10l1 5q1 10 12 10zM606 680h165q10 0 8 -10l-1 -5q-1 -10 -12 -10
h-62q-6 0 -7 -6l-81 -461q-35 -198 -209 -198q-75 0 -122 38q-7 6 -6 13l16 90q2 10 11 10h8q10 0 8 -10l-14 -79q-1 -5 4 -9q37 -27 98 -27q148 0 179 175l80 458q1 6 -5 6h-63q-10 0 -8 10l1 5q1 10 12 10z" />
    <glyph glyph-name="ij" unicode="&#x133;" horiz-adv-x="538" 
d="M206 680h22q9 0 7 -10l-7 -38q-1 -10 -12 -10h-20q-10 0 -8 10l7 38q2 10 11 10zM473 680h22q9 0 7 -10l-7 -38q-1 -10 -12 -10h-20q-10 0 -8 10l7 38q2 10 11 10zM101 474h83q10 0 8 -10l-76 -433q-2 -6 5 -6h61q10 0 8 -10l-1 -5q-1 -10 -12 -10h-160q-10 0 -8 10l1 5
q1 10 12 10h60q6 0 7 6l72 412q1 6 -5 6h-60q-10 0 -8 10l1 5q1 10 12 10zM368 474h83q10 0 8 -10l-93 -535q-11 -64 -37 -86.5t-84 -22.5h-4q-10 0 -8 10l1 5q1 10 12 10h3q44 0 62.5 17t27.5 67l89 513q1 7 -5 7h-60q-10 0 -8 10l1 5q1 10 12 10z" />
    <glyph glyph-name="Jcircumflex" unicode="&#x134;" horiz-adv-x="454" 
d="M448 895h5q7 0 12 -9l62 -120q6 -10 -4 -10h-4q-9 0 -14 9l-56 104h-2l-94 -104q-8 -9 -17 -9h-5q-4 0 -5 3t3 7l103 120q8 9 16 9zM333 680h165q10 0 8 -10l-1 -5q-1 -10 -12 -10h-62q-6 0 -7 -6l-81 -461q-35 -198 -209 -198q-75 0 -122 38q-7 6 -6 13l16 90
q2 10 11 10h8q10 0 8 -10l-14 -79q-1 -5 4 -9q37 -27 98 -27q148 0 179 175l80 458q2 6 -5 6h-63q-10 0 -8 10l1 5q1 10 12 10z" />
    <glyph glyph-name="jcircumflex" unicode="&#x135;" horiz-adv-x="269" 
d="M203 700h5q8 0 12 -9l62 -120q6 -10 -4 -10h-4q-9 0 -14 9l-56 104h-2l-94 -104q-8 -9 -17 -9h-5q-4 0 -5 3t3 7l103 120q8 9 16 9zM99 474h83q10 0 8 -10l-94 -535q-11 -64 -37 -86.5t-84 -22.5h-4q-10 0 -8 10l1 5q1 10 12 10h3q44 0 62.5 17t27.5 67l90 513q1 7 -5 7
h-60q-10 0 -8 10l1 5q1 10 12 10z" />
    <glyph glyph-name="Kcommaaccent" unicode="&#x136;" horiz-adv-x="597" 
d="M489 680h165q10 0 8 -10l-1 -5q-1 -10 -12 -10h-56q-6 0 -12 -6l-233 -231l132 -387q2 -6 8 -6h73q10 0 8 -10l-1 -5q-1 -10 -12 -10h-86q-9 0 -12 10l-131 387l-177 -176l-33 -190q-1 -6 5 -6h63q10 0 8 -10l-1 -5q-1 -10 -12 -10h-165q-10 0 -8 10l1 5q1 10 12 10h62
q6 0 7 6l108 618q1 6 -5 6h-63q-10 0 -8 10l1 5q1 10 12 10h165q10 0 8 -10l-1 -5q-1 -10 -12 -10h-62q-6 0 -7 -6l-67 -383l383 382q2 2 1 4.5t-5 2.5h-53q-10 0 -8 10l1 5q1 10 12 10zM278 -56h10q10 0 8 -10l-12 -64q-2 -11 -7 -22l-11 -21q-4 -9 -11 -9q-9 0 -7 9
l19 107q2 10 11 10z" />
    <glyph glyph-name="kcommaaccent" unicode="&#x137;" horiz-adv-x="522" 
d="M137 680h83q10 0 8 -10l-86 -487l275 282q9 9 17 9h72q10 0 8 -10l-1 -5q-1 -10 -12 -10h-59q-5 0 -10 -5l-139 -142l105 -272q2 -5 8 -5h60q10 0 8 -10l-1 -5q-1 -10 -12 -10h-71q-9 0 -13 10l-104 272l-138 -141l-19 -110q-2 -6 5 -6h61q10 0 8 -10l-1 -5
q-1 -10 -12 -10h-160q-10 0 -8 10l1 5q1 10 12 10h60q6 0 7 6l108 618q1 6 -5 6h-60q-10 0 -8 10l1 5q1 10 12 10zM237 -56h10q10 0 8 -10l-12 -64q-2 -11 -7 -22l-11 -21q-5 -9 -11 -9q-8 0 -7 9l19 107q2 10 11 10z" />
    <glyph glyph-name="kgreenlandic" unicode="&#x138;" horiz-adv-x="522" 
d="M434 474h72q10 0 8 -10l-1 -5q-1 -10 -12 -10h-59q-5 0 -10 -5l-139 -142l105 -272q2 -5 8 -5h60q10 0 8 -10l-1 -5q-1 -10 -12 -10h-71q-9 0 -13 10l-104 272l-138 -141l-19 -110q-2 -6 5 -6h61q10 0 8 -10l-1 -5q-1 -10 -12 -10h-160q-10 0 -8 10l1 5q1 10 12 10h60
q6 0 7 6l72 412q1 6 -5 6h-60q-10 0 -8 10l1 5q1 10 12 10h83q10 0 8 -10l-50 -281l275 282q9 9 17 9z" />
    <glyph glyph-name="Lacute" unicode="&#x139;" horiz-adv-x="520" 
d="M338 888h11q5 0 6 -3t-3 -7l-99 -102q-10 -10 -19 -10h-5q-12 0 -1 11l91 101q9 10 19 10zM134 680h165q10 0 8 -10l-1 -5q-1 -10 -12 -10h-62q-6 0 -7 -6l-108 -617q-1 -6 4 -6h307q6 0 7 6l13 70q2 10 11 10h8q10 0 8 -10l-17 -92q-1 -10 -12 -10h-431q-10 0 -8 10l1 5
q1 10 12 10h62q6 0 7 6l108 618q1 6 -5 6h-63q-10 0 -8 10l1 5q1 10 12 10z" />
    <glyph glyph-name="lacute" unicode="&#x13a;" horiz-adv-x="248" 
d="M310 888h11q5 0 6 -3t-3 -7l-99 -102q-10 -10 -19 -10h-5q-12 0 -1 11l91 101q9 10 19 10zM114 680h83q10 0 8 -10l-105 -575q-3 -19 -3 -32q0 -22 10 -31t33 -9h14q10 0 8 -10l-1 -5q-1 -10 -12 -10h-13q-66 0 -66 64q0 14 4 40l100 546q1 7 -5 7h-60q-10 0 -8 10l1 5
q1 10 12 10z" />
    <glyph glyph-name="Lcommaaccent" unicode="&#x13b;" horiz-adv-x="520" 
d="M134 680h165q10 0 8 -10l-1 -5q-1 -10 -12 -10h-62q-6 0 -7 -6l-108 -617q-1 -6 4 -6h307q6 0 7 6l13 70q2 10 11 10h8q10 0 8 -10l-17 -92q-1 -10 -12 -10h-431q-10 0 -8 10l1 5q1 10 12 10h62q6 0 7 6l108 618q1 6 -5 6h-63q-10 0 -8 10l1 5q1 10 12 10zM255 -56h10
q10 0 8 -10l-12 -64q-2 -11 -7 -22l-11 -21q-5 -9 -11 -9q-8 0 -7 9l19 107q2 10 11 10z" />
    <glyph glyph-name="lcommaaccent" unicode="&#x13c;" horiz-adv-x="248" 
d="M114 680h83q10 0 8 -10l-105 -575q-3 -19 -3 -32q0 -22 10 -31t33 -9h14q10 0 8 -10l-1 -5q-1 -10 -12 -10h-13q-66 0 -66 64q0 14 4 40l100 546q1 7 -5 7h-60q-10 0 -8 10l1 5q1 10 12 10zM94 -56h10q10 0 8 -10l-12 -64q-2 -11 -7 -22l-11 -21q-4 -9 -11 -9q-9 0 -7 9
l19 107q2 10 11 10z" />
    <glyph glyph-name="Lcaron" unicode="&#x13d;" horiz-adv-x="520" 
d="M134 680h165q10 0 8 -10l-1 -5q-1 -10 -12 -10h-62q-6 0 -7 -6l-108 -617q-1 -6 4 -6h307q6 0 7 6l13 70q2 10 11 10h8q10 0 8 -10l-17 -92q-1 -10 -12 -10h-431q-10 0 -8 10l1 5q1 10 12 10h62q6 0 7 6l108 618q1 6 -5 6h-63q-10 0 -8 10l1 5q1 10 12 10zM362 680h10
q10 0 8 -10l-12 -64q-2 -11 -7 -22l-11 -21q-4 -9 -11 -9q-9 0 -7 9l19 107q2 10 11 10z" />
    <glyph glyph-name="lcaron" unicode="&#x13e;" horiz-adv-x="248" 
d="M114 680h83q10 0 8 -10l-105 -575q-3 -19 -3 -32q0 -22 10 -31t33 -9h14q10 0 8 -10l-1 -5q-1 -10 -12 -10h-13q-66 0 -66 64q0 14 4 40l100 546q1 7 -5 7h-60q-10 0 -8 10l1 5q1 10 12 10zM283 680h10q10 0 8 -10l-12 -64q-2 -11 -7 -22l-11 -21q-5 -9 -11 -9q-8 0 -7 9
l19 107q2 10 11 10z" />
    <glyph glyph-name="Ldot" unicode="&#x13f;" horiz-adv-x="520" 
d="M134 680h165q10 0 8 -10l-1 -5q-1 -10 -12 -10h-62q-6 0 -7 -6l-108 -617q-1 -6 4 -6h307q6 0 7 6l13 70q2 10 11 10h8q10 0 8 -10l-17 -92q-1 -10 -12 -10h-431q-10 0 -8 10l1 5q1 10 12 10h62q6 0 7 6l108 618q1 6 -5 6h-63q-10 0 -8 10l1 5q1 10 12 10zM394 360h25
q10 0 8 -10l-8 -48q-2 -10 -11 -10h-25q-10 0 -8 10l8 48q2 10 11 10z" />
    <glyph glyph-name="ldot" unicode="&#x140;" horiz-adv-x="248" 
d="M114 680h83q10 0 8 -10l-105 -575q-3 -19 -3 -32q0 -22 10 -31t33 -9h14q10 0 8 -10l-1 -5q-1 -10 -12 -10h-13q-66 0 -66 64q0 14 4 40l100 546q1 7 -5 7h-60q-10 0 -8 10l1 5q1 10 12 10zM246 360h25q10 0 8 -10l-8 -48q-2 -10 -11 -10h-25q-10 0 -8 10l8 48
q2 10 11 10z" />
    <glyph glyph-name="Lslash" unicode="&#x141;" horiz-adv-x="520" 
d="M134 680h165q10 0 8 -10l-1 -5q-1 -10 -12 -10h-62q-6 0 -7 -6l-52 -296l179 87q4 2 7 0.5t2 -6.5l-2 -10q-1 -8 -11 -13l-180 -88l-51 -291q-1 -6 4 -6h307q6 0 7 6l13 70q2 10 11 10h8q10 0 8 -10l-17 -92q-1 -10 -12 -10h-431q-10 0 -8 10l1 5q1 10 12 10h62q6 0 7 6
l48 277l-62 -30q-4 -2 -7 -0.5t-2 6.5l2 10q1 8 11 13l63 31l55 311q1 6 -5 6h-63q-10 0 -8 10l1 5q1 10 12 10z" />
    <glyph glyph-name="lslash" unicode="&#x142;" horiz-adv-x="248" 
d="M114 680h83q10 0 8 -10l-52 -282l58 28q5 2 8 0.5t2 -6.5l-1 -8q-1 -9 -12 -14l-60 -29l-48 -264q-3 -19 -3 -32q0 -22 10 -31t33 -9h14q10 0 8 -10l-1 -5q-1 -10 -12 -10h-13q-66 0 -66 64q0 14 4 40l44 243l-43 -21q-5 -2 -8 -0.5t-2 6.5l1 8q1 9 12 14l46 22l50 274
q1 7 -5 7h-60q-10 0 -8 10l1 5q1 10 12 10z" />
    <glyph glyph-name="Nacute" unicode="&#x143;" horiz-adv-x="668" 
d="M512 888h11q5 0 6 -3t-3 -7l-99 -102q-10 -10 -19 -10h-5q-12 0 -1 11l91 101q9 10 19 10zM529 680h165q10 0 8 -10l-1 -5q-1 -10 -12 -10h-62q-5 0 -7 -6l-112 -639q-2 -10 -11 -10h-7q-10 0 -14 10l-253 614h-2l-104 -593q-1 -6 5 -6h63q10 0 8 -10l-1 -5
q-1 -10 -12 -10h-165q-10 0 -8 10l1 5q1 10 12 10h62q6 0 7 6l108 618q1 6 -5 6h-63q-10 0 -8 10l1 5q1 10 12 10h86q9 0 13 -10l253 -611h2l104 590q2 6 -5 6h-63q-10 0 -8 10l1 5q1 10 12 10z" />
    <glyph glyph-name="nacute" unicode="&#x144;" horiz-adv-x="560" 
d="M423 700h11q4 0 5.5 -3t-1.5 -7l-102 -120q-9 -10 -18 -10h-4q-11 0 -3 10l94 120q8 10 18 10zM335 484q132 0 132 -129q0 -29 -5 -54l-49 -270q-1 -6 5 -6h59q10 0 8 -10l-1 -5q-1 -10 -12 -10h-158q-10 0 -8 10l1 5q1 10 12 10h60q5 0 7 6l48 263q6 32 6 56
q0 56 -27 82.5t-83 26.5t-104.5 -41t-60.5 -107l-49 -280q-2 -6 5 -6h61q10 0 8 -10l-1 -5q-1 -10 -12 -10h-160q-10 0 -8 10l1 5q1 10 12 10h60q6 0 7 6l72 412q1 6 -5 6h-60q-10 0 -8 10l1 5q1 10 12 10h83q10 0 8 -10l-11 -64h1q54 84 153 84z" />
    <glyph glyph-name="Ncommaaccent" unicode="&#x145;" horiz-adv-x="668" 
d="M529 680h165q10 0 8 -10l-1 -5q-1 -10 -12 -10h-62q-5 0 -7 -6l-112 -639q-2 -10 -11 -10h-7q-10 0 -14 10l-253 614h-2l-104 -593q-1 -6 5 -6h63q10 0 8 -10l-1 -5q-1 -10 -12 -10h-165q-10 0 -8 10l1 5q1 10 12 10h62q6 0 7 6l108 618q1 6 -5 6h-63q-10 0 -8 10l1 5
q1 10 12 10h86q9 0 13 -10l253 -611h2l104 590q2 6 -5 6h-63q-10 0 -8 10l1 5q1 10 12 10zM297 -56h10q10 0 8 -10l-12 -64q-2 -11 -7 -22l-11 -21q-5 -9 -11 -9q-8 0 -7 9l19 107q2 10 11 10z" />
    <glyph glyph-name="ncommaaccent" unicode="&#x146;" horiz-adv-x="560" 
d="M335 484q132 0 132 -129q0 -29 -5 -54l-49 -270q-1 -6 5 -6h59q10 0 8 -10l-1 -5q-1 -10 -12 -10h-158q-10 0 -8 10l1 5q1 10 12 10h60q5 0 7 6l48 263q6 32 6 56q0 56 -27 82.5t-83 26.5t-104.5 -41t-60.5 -107l-49 -280q-2 -6 5 -6h61q10 0 8 -10l-1 -5q-1 -10 -12 -10
h-160q-10 0 -8 10l1 5q1 10 12 10h60q6 0 7 6l72 412q1 6 -5 6h-60q-10 0 -8 10l1 5q1 10 12 10h83q10 0 8 -10l-11 -64h1q54 84 153 84zM242 -56h10q10 0 8 -10l-12 -64q-2 -11 -7 -22l-11 -21q-4 -9 -11 -9q-9 0 -7 9l19 107q2 10 11 10z" />
    <glyph glyph-name="Ncaron" unicode="&#x147;" horiz-adv-x="668" 
d="M538 895h5q4 0 5 -3t-3 -7l-103 -120q-8 -9 -16 -9h-5q-7 0 -12 9l-62 120q-6 10 4 10h4q9 0 14 -9l56 -104h2l94 104q8 9 17 9zM529 680h165q10 0 8 -10l-1 -5q-1 -10 -12 -10h-62q-5 0 -7 -6l-112 -639q-2 -10 -11 -10h-7q-10 0 -14 10l-253 614h-2l-104 -593
q-1 -6 5 -6h63q10 0 8 -10l-1 -5q-1 -10 -12 -10h-165q-10 0 -8 10l1 5q1 10 12 10h62q6 0 7 6l108 618q1 6 -5 6h-63q-10 0 -8 10l1 5q1 10 12 10h86q9 0 13 -10l253 -611h2l104 590q2 6 -5 6h-63q-10 0 -8 10l1 5q1 10 12 10z" />
    <glyph glyph-name="ncaron" unicode="&#x148;" horiz-adv-x="560" 
d="M455 700h5q4 0 5 -3t-3 -7l-103 -120q-8 -9 -16 -9h-5q-8 0 -12 9l-62 120q-6 10 4 10h4q9 0 14 -9l56 -104h2l94 104q8 9 17 9zM335 484q132 0 132 -129q0 -29 -5 -54l-49 -270q-1 -6 5 -6h59q10 0 8 -10l-1 -5q-1 -10 -12 -10h-158q-10 0 -8 10l1 5q1 10 12 10h60
q5 0 7 6l48 263q6 32 6 56q0 56 -27 82.5t-83 26.5t-104.5 -41t-60.5 -107l-49 -280q-2 -6 5 -6h61q10 0 8 -10l-1 -5q-1 -10 -12 -10h-160q-10 0 -8 10l1 5q1 10 12 10h60q6 0 7 6l72 412q1 6 -5 6h-60q-10 0 -8 10l1 5q1 10 12 10h83q10 0 8 -10l-11 -64h1q54 84 153 84z
" />
    <glyph glyph-name="uni0149" unicode="&#x149;" horiz-adv-x="560" 
d="M126 680h10q10 0 8 -10l-12 -64q-2 -11 -7 -22l-11 -21q-4 -9 -11 -9q-9 0 -7 9l19 107q2 10 11 10zM335 484q132 0 132 -129q0 -29 -5 -54l-49 -270q-1 -6 5 -6h59q10 0 8 -10l-1 -5q-1 -10 -12 -10h-158q-10 0 -8 10l1 5q1 10 12 10h60q5 0 7 6l48 263q6 32 6 56
q0 56 -27 82.5t-83 26.5t-104.5 -41t-60.5 -107l-49 -280q-2 -6 5 -6h61q10 0 8 -10l-1 -5q-1 -10 -12 -10h-160q-10 0 -8 10l1 5q1 10 12 10h60q6 0 7 6l72 412q1 6 -5 6h-60q-10 0 -8 10l1 5q1 10 12 10h83q10 0 8 -10l-11 -64h1q54 84 153 84z" />
    <glyph glyph-name="Eng" unicode="&#x14a;" horiz-adv-x="668" 
d="M529 680h165q10 0 8 -10l-1 -5q-1 -10 -12 -10h-62q-5 0 -7 -6l-122 -695q-13 -71 -48 -102.5t-100 -31.5h-6q-10 0 -8 10l1 6q1 10 12 10h7q50 0 77 24t38 83l9 48l-257 623h-2l-104 -593q-1 -6 5 -6h63q10 0 8 -10l-1 -5q-1 -10 -12 -10h-165q-10 0 -8 10l1 5
q1 10 12 10h62q6 0 7 6l108 618q1 6 -5 6h-63q-10 0 -8 10l1 5q1 10 12 10h86q9 0 13 -10l253 -611h2l104 590q2 6 -5 6h-63q-10 0 -8 10l1 5q1 10 12 10z" />
    <glyph glyph-name="eng" unicode="&#x14b;" horiz-adv-x="538" 
d="M335 484q132 0 132 -129q0 -29 -5 -54l-67 -374q-11 -62 -36.5 -84.5t-83.5 -22.5h-3q-10 0 -8 10l1 5q1 10 12 10h3q43 0 61.5 16t27.5 66l65 367q6 32 6 56q0 56 -27 82.5t-83 26.5t-104.5 -41t-60.5 -107l-49 -280q-2 -6 5 -6h61q10 0 8 -10l-1 -5q-1 -10 -12 -10
h-160q-10 0 -8 10l1 5q1 10 12 10h60q6 0 7 6l72 412q1 6 -5 6h-60q-10 0 -8 10l1 5q1 10 12 10h83q10 0 8 -10l-11 -64h1q54 84 153 84z" />
    <glyph glyph-name="Omacron" unicode="&#x14c;" horiz-adv-x="580" 
d="M287 837h225q10 0 8 -10l-1 -5q-1 -10 -11 -10h-225q-10 0 -8 10l1 5q1 10 11 10zM369 690q85 0 132 -49.5t47 -138.5q0 -70 -22.5 -188t-50.5 -176q-72 -148 -228 -148q-85 0 -132 49.5t-47 138.5q0 70 22.5 188t50.5 176q72 148 228 148zM365 664q-135 0 -197 -128
q-28 -58 -50 -172t-22 -181q0 -81 39.5 -124t115.5 -43q135 0 197 128q28 58 50 172t22 181q0 81 -39.5 124t-115.5 43z" />
    <glyph glyph-name="omacron" unicode="&#x14d;" horiz-adv-x="481" 
d="M209 662h225q10 0 8 -10l-1 -5q-1 -10 -11 -10h-225q-10 0 -8 10l1 5q1 10 11 10zM283 484q73 0 109.5 -41t36.5 -116q0 -53 -15.5 -119.5t-32.5 -102.5q-55 -115 -181 -115q-73 0 -109.5 41t-36.5 116q0 53 15.5 119.5t32.5 102.5q55 115 181 115zM279 459
q-104 0 -155 -104q-14 -29 -28.5 -92t-14.5 -109q0 -139 123 -139q104 0 155 104q14 29 28.5 92t14.5 109q0 139 -123 139z" />
    <glyph glyph-name="Obreve" unicode="&#x14e;" horiz-adv-x="580" 
d="M504 879h5q10 0 7 -10q-15 -43 -48.5 -68t-76.5 -25t-68 25t-27 68q0 10 10 10h4q10 0 10 -10q5 -69 74 -69q32 0 57.5 18.5t39.5 50.5q5 10 13 10zM369 690q85 0 132 -49.5t47 -138.5q0 -70 -22.5 -188t-50.5 -176q-72 -148 -228 -148q-85 0 -132 49.5t-47 138.5
q0 70 22.5 188t50.5 176q72 148 228 148zM365 664q-135 0 -197 -128q-28 -58 -50 -172t-22 -181q0 -81 39.5 -124t115.5 -43q135 0 197 128q28 58 50 172t22 181q0 81 -39.5 124t-115.5 43z" />
    <glyph glyph-name="obreve" unicode="&#x14f;" horiz-adv-x="481" 
d="M432 683h5q10 0 7 -10q-15 -43 -48.5 -68t-76.5 -25t-68 25t-27 68q0 10 10 10h4q10 0 10 -10q5 -69 74 -69q32 0 57.5 18.5t39.5 50.5q5 10 13 10zM283 484q73 0 109.5 -41t36.5 -116q0 -53 -15.5 -119.5t-32.5 -102.5q-55 -115 -181 -115q-73 0 -109.5 41t-36.5 116
q0 53 15.5 119.5t32.5 102.5q55 115 181 115zM279 459q-104 0 -155 -104q-14 -29 -28.5 -92t-14.5 -109q0 -139 123 -139q104 0 155 104q14 29 28.5 92t14.5 109q0 139 -123 139z" />
    <glyph glyph-name="Ohungarumlaut" unicode="&#x150;" horiz-adv-x="580" 
d="M433 888h9q4 0 5.5 -3t-1.5 -7l-90 -104q-7 -8 -14 -8h-6q-4 0 -5.5 3t1.5 7l83 102q9 10 18 10zM537 888h9q4 0 5.5 -3t-1.5 -7l-90 -104q-7 -8 -14 -8h-6q-4 0 -5.5 3t1.5 7l83 102q9 10 18 10zM369 690q85 0 132 -49.5t47 -138.5q0 -70 -22.5 -188t-50.5 -176
q-72 -148 -228 -148q-85 0 -132 49.5t-47 138.5q0 70 22.5 188t50.5 176q72 148 228 148zM365 664q-135 0 -197 -128q-28 -58 -50 -172t-22 -181q0 -81 39.5 -124t115.5 -43q135 0 197 128q28 58 50 172t22 181q0 81 -39.5 124t-115.5 43z" />
    <glyph glyph-name="ohungarumlaut" unicode="&#x151;" horiz-adv-x="481" 
d="M350 700h9q5 0 6 -3t-2 -7l-93 -121q-7 -8 -14 -8h-5q-11 0 -4 10l86 119q7 10 17 10zM454 700h9q5 0 6 -3t-2 -7l-93 -121q-7 -8 -14 -8h-5q-11 0 -4 10l86 119q7 10 17 10zM283 484q73 0 109.5 -41t36.5 -116q0 -53 -15.5 -119.5t-32.5 -102.5q-55 -115 -181 -115
q-73 0 -109.5 41t-36.5 116q0 53 15.5 119.5t32.5 102.5q55 115 181 115zM279 459q-104 0 -155 -104q-14 -29 -28.5 -92t-14.5 -109q0 -139 123 -139q104 0 155 104q14 29 28.5 92t14.5 109q0 139 -123 139z" />
    <glyph glyph-name="OE" unicode="&#x152;" horiz-adv-x="922" 
d="M369 690q70 0 114.5 -34t56.5 -99h1l20 113q2 10 11 10h353q10 0 8 -10l-16 -93q-2 -10 -11 -10h-8q-10 0 -8 10l12 71q2 6 -5 6h-305q-6 0 -7 -6l-49 -282q-1 -7 6 -7h248q6 0 7 6l10 58q2 10 11 10h8q10 0 8 -10l-27 -157q-2 -10 -11 -10h-8q-10 0 -8 10l10 61
q2 6 -5 6h-249q-6 0 -7 -6l-52 -295q-1 -6 5 -6h305q5 0 7 6l13 70q2 10 11 10h8q10 0 8 -10l-17 -92q-1 -10 -12 -10h-352q-10 0 -8 10l19 108h-1q-70 -128 -216 -128q-85 0 -132 49.5t-47 138.5q0 70 22.5 188t50.5 176q72 148 228 148zM365 664q-135 0 -197 -128
q-28 -58 -50 -172t-22 -181q0 -81 39.5 -124t115.5 -43q135 0 197 128q28 58 50 172t22 181q0 81 -39.5 124t-115.5 43z" />
    <glyph glyph-name="oe" unicode="&#x153;" horiz-adv-x="798" 
d="M612 484q64 0 102 -39t38 -112q0 -35 -9 -86q-2 -10 -12 -10h-302q-7 0 -8 -6q-9 -46 -9 -89q0 -60 30 -93.5t91 -33.5q86 0 150 71q8 8 14 3l6 -5q7 -6 -1 -14q-68 -80 -171 -80q-131 0 -143 128h-1q-55 -128 -187 -128q-73 0 -109.5 41t-36.5 116q0 53 15.5 119.5
t32.5 102.5q55 115 181 115q128 0 144 -128h1q27 64 75.5 96t108.5 32zM279 459q-104 0 -155 -104q-14 -29 -28.5 -92t-14.5 -109q0 -139 123 -139q104 0 155 104q14 29 28.5 92t14.5 109q0 139 -123 139zM610 459q-104 0 -154 -104q-20 -42 -29 -87q-1 -6 5 -6h281q5 0 7 6
q6 33 6 61q0 130 -116 130z" />
    <glyph glyph-name="Racute" unicode="&#x154;" horiz-adv-x="609" 
d="M461 888h11q5 0 6 -3t-3 -7l-99 -102q-10 -10 -19 -10h-5q-12 0 -1 11l91 101q9 10 19 10zM134 680h275q80 0 122.5 -37t42.5 -106q0 -86 -45 -140.5t-128 -68.5l76 -297q1 -6 6 -6h67q10 0 8 -10l-1 -5q-1 -10 -12 -10h-82q-8 0 -11 9l-79 315h-198q-5 0 -7 -6l-51 -287
q-1 -6 5 -6h63q10 0 8 -10l-1 -5q-1 -10 -12 -10h-165q-10 0 -8 10l1 5q1 10 12 10h62q6 0 7 6l108 618q1 6 -5 6h-63q-10 0 -8 10l1 5q1 10 12 10zM404 654h-172q-6 0 -7 -6l-51 -292q-2 -6 5 -6h172q95 0 145.5 50t50.5 135q0 119 -143 119z" />
    <glyph glyph-name="racute" unicode="&#x155;" horiz-adv-x="387" 
d="M359 700h11q4 0 5.5 -3t-1.5 -7l-102 -120q-9 -10 -18 -10h-4q-11 0 -3 10l94 120q8 10 18 10zM327 482q36 0 57 -7q9 -3 8 -10l-2 -10q-1 -8 -11 -5q-26 7 -56 7q-66 0 -108.5 -52.5t-55.5 -128.5l-43 -245q-2 -6 5 -6h65q10 0 8 -10l-1 -5q-1 -10 -12 -10h-164
q-10 0 -8 10l1 5q1 10 12 10h60q6 0 7 6l72 412q1 6 -5 6h-60q-10 0 -8 10l1 5q1 10 12 10h83q10 0 8 -10l-14 -80h1q21 43 59 70.5t89 27.5z" />
    <glyph glyph-name="Rcommaaccent" unicode="&#x156;" horiz-adv-x="609" 
d="M134 680h275q80 0 122.5 -37t42.5 -106q0 -86 -45 -140.5t-128 -68.5l76 -297q1 -6 6 -6h67q10 0 8 -10l-1 -5q-1 -10 -12 -10h-82q-8 0 -11 9l-79 315h-198q-5 0 -7 -6l-51 -287q-1 -6 5 -6h63q10 0 8 -10l-1 -5q-1 -10 -12 -10h-165q-10 0 -8 10l1 5q1 10 12 10h62
q6 0 7 6l108 618q1 6 -5 6h-63q-10 0 -8 10l1 5q1 10 12 10zM404 654h-172q-6 0 -7 -6l-51 -292q-2 -6 5 -6h172q95 0 145.5 50t50.5 135q0 119 -143 119zM266 -56h10q10 0 8 -10l-12 -64q-2 -11 -7 -22l-11 -21q-4 -9 -11 -9q-9 0 -7 9l19 107q2 10 11 10z" />
    <glyph glyph-name="rcommaaccent" unicode="&#x157;" horiz-adv-x="387" 
d="M327 482q36 0 57 -7q9 -3 8 -10l-2 -10q-1 -8 -11 -5q-26 7 -56 7q-66 0 -108.5 -52.5t-55.5 -128.5l-43 -245q-2 -6 5 -6h65q10 0 8 -10l-1 -5q-1 -10 -12 -10h-164q-10 0 -8 10l1 5q1 10 12 10h60q6 0 7 6l72 412q1 6 -5 6h-60q-10 0 -8 10l1 5q1 10 12 10h83
q10 0 8 -10l-14 -80h1q21 43 59 70.5t89 27.5zM82 -56h10q10 0 8 -10l-12 -64q-2 -11 -7 -22l-11 -21q-4 -9 -11 -9q-9 0 -7 9l19 107q2 10 11 10z" />
    <glyph glyph-name="Rcaron" unicode="&#x158;" horiz-adv-x="609" 
d="M494 895h5q4 0 5 -3t-3 -7l-103 -120q-8 -9 -16 -9h-5q-7 0 -12 9l-62 120q-6 10 4 10h4q9 0 14 -9l56 -104h2l94 104q8 9 17 9zM134 680h275q80 0 122.5 -37t42.5 -106q0 -86 -45 -140.5t-128 -68.5l76 -297q1 -6 6 -6h67q10 0 8 -10l-1 -5q-1 -10 -12 -10h-82
q-8 0 -11 9l-79 315h-198q-5 0 -7 -6l-51 -287q-1 -6 5 -6h63q10 0 8 -10l-1 -5q-1 -10 -12 -10h-165q-10 0 -8 10l1 5q1 10 12 10h62q6 0 7 6l108 618q1 6 -5 6h-63q-10 0 -8 10l1 5q1 10 12 10zM404 654h-172q-6 0 -7 -6l-51 -292q-2 -6 5 -6h172q95 0 145.5 50t50.5 135
q0 119 -143 119z" />
    <glyph glyph-name="rcaron" unicode="&#x159;" horiz-adv-x="387" 
d="M395 700h5q4 0 5 -3t-3 -7l-103 -120q-8 -9 -16 -9h-5q-8 0 -12 9l-62 120q-6 10 4 10h4q9 0 14 -9l56 -104h2l94 104q8 9 17 9zM327 482q36 0 57 -7q9 -3 8 -10l-2 -10q-1 -8 -11 -5q-26 7 -56 7q-66 0 -108.5 -52.5t-55.5 -128.5l-43 -245q-2 -6 5 -6h65q10 0 8 -10
l-1 -5q-1 -10 -12 -10h-164q-10 0 -8 10l1 5q1 10 12 10h60q6 0 7 6l72 412q1 6 -5 6h-60q-10 0 -8 10l1 5q1 10 12 10h83q10 0 8 -10l-14 -80h1q21 43 59 70.5t89 27.5z" />
    <glyph glyph-name="Sacute" unicode="&#x15a;" horiz-adv-x="575" 
d="M484 888h11q5 0 6 -3t-3 -7l-99 -102q-10 -10 -19 -10h-5q-12 0 -1 11l91 101q9 10 19 10zM358 690q103 0 171 -46q8 -5 7 -11l-15 -83q-2 -10 -11 -10h-8q-10 0 -8 10l12 68q1 6 -3 9q-61 37 -149 37q-86 0 -137 -49.5t-51 -124.5q0 -58 32 -87.5t114 -41.5l28 -4
q83 -12 118 -47.5t35 -99.5q0 -100 -66 -160t-185 -60q-52 0 -103 16t-83 41q-7 6 -6 13l17 90q2 10 11 10h8q10 0 8 -10l-15 -79q-1 -5 4 -9q70 -46 170 -46q96 0 154.5 52t58.5 141q0 56 -31.5 84t-112.5 40l-28 4q-156 23 -156 149q0 90 59 147t161 57z" />
    <glyph glyph-name="sacute" unicode="&#x15b;" horiz-adv-x="455" 
d="M383 700h11q4 0 5.5 -3t-1.5 -7l-102 -120q-9 -10 -18 -10h-4q-11 0 -3 10l94 120q8 10 18 10zM264 484q71 0 130 -32q7 -3 5 -11l-14 -80q-2 -10 -11 -10h-8q-10 0 -8 10l12 67q1 5 -4 8q-48 23 -105 23q-64 0 -104 -34t-40 -87q0 -36 23.5 -55t78.5 -25l44 -5
q109 -12 109 -101q0 -73 -52.5 -117.5t-138.5 -44.5q-87 0 -147 43q-5 3 -3 13l14 80q2 10 11 10h8q10 0 8 -10l-12 -70q-1 -6 3 -9q51 -32 120 -32q73 0 117.5 36.5t44.5 97.5q0 36 -22 55t-75 25l-44 5q-114 14 -114 103q0 64 47 105.5t127 41.5z" />
    <glyph glyph-name="Scircumflex" unicode="&#x15c;" horiz-adv-x="575" 
d="M408 895h5q7 0 12 -9l62 -120q6 -10 -4 -10h-4q-9 0 -14 9l-56 104h-2l-94 -104q-8 -9 -17 -9h-5q-4 0 -5 3t3 7l103 120q8 9 16 9zM358 690q103 0 171 -46q8 -5 7 -11l-15 -83q-2 -10 -11 -10h-8q-10 0 -8 10l12 68q1 6 -3 9q-61 37 -149 37q-86 0 -137 -49.5
t-51 -124.5q0 -58 32 -87.5t114 -41.5l28 -4q83 -12 118 -47.5t35 -99.5q0 -100 -66 -160t-185 -60q-52 0 -103 16t-83 41q-7 6 -6 13l17 90q2 10 11 10h8q10 0 8 -10l-15 -79q-1 -5 4 -9q70 -46 170 -46q96 0 154.5 52t58.5 141q0 56 -31.5 84t-112.5 40l-28 4
q-156 23 -156 149q0 90 59 147t161 57z" />
    <glyph glyph-name="scircumflex" unicode="&#x15d;" horiz-adv-x="455" 
d="M296 700h5q7 0 12 -9l62 -120q6 -10 -4 -10h-4q-9 0 -14 9l-56 104h-2l-94 -104q-8 -9 -17 -9h-5q-4 0 -5 3t3 7l103 120q8 9 16 9zM264 484q71 0 130 -32q7 -3 5 -11l-14 -80q-2 -10 -11 -10h-8q-10 0 -8 10l12 67q1 5 -4 8q-48 23 -105 23q-64 0 -104 -34t-40 -87
q0 -36 23.5 -55t78.5 -25l44 -5q109 -12 109 -101q0 -73 -52.5 -117.5t-138.5 -44.5q-87 0 -147 43q-5 3 -3 13l14 80q2 10 11 10h8q10 0 8 -10l-12 -70q-1 -6 3 -9q51 -32 120 -32q73 0 117.5 36.5t44.5 97.5q0 36 -22 55t-75 25l-44 5q-114 14 -114 103q0 64 47 105.5
t127 41.5z" />
    <glyph glyph-name="Scedilla" unicode="&#x15e;" horiz-adv-x="575" 
d="M358 690q103 0 171 -46q8 -5 7 -11l-15 -83q-2 -10 -11 -10h-8q-10 0 -8 10l12 68q1 6 -3 9q-61 37 -149 37q-86 0 -137 -49.5t-51 -124.5q0 -58 32 -87.5t114 -41.5l28 -4q83 -12 118 -47.5t35 -99.5q0 -95 -59 -154t-168 -65l-63 -125q-5 -10 -17 -10h-8q-11 0 -6 10
l68 124q-52 1 -103 17t-81 40q-7 6 -6 13l17 90q2 10 11 10h8q10 0 8 -10l-15 -79q-1 -5 4 -9q70 -46 170 -46q96 0 154.5 52t58.5 141q0 56 -31.5 84t-112.5 40l-28 4q-156 23 -156 149q0 90 59 147t161 57z" />
    <glyph glyph-name="scedilla" unicode="&#x15f;" horiz-adv-x="455" 
d="M264 484q71 0 130 -32q7 -3 5 -11l-14 -80q-2 -10 -11 -10h-8q-10 0 -8 10l12 67q1 5 -4 8q-48 23 -105 23q-64 0 -104 -34t-40 -87q0 -36 23.5 -55t78.5 -25l44 -5q109 -12 109 -101q0 -69 -46 -112t-124 -49l-63 -125q-5 -10 -17 -10h-8q-11 0 -6 10l68 124
q-86 2 -142 43q-5 3 -3 13l14 80q2 10 11 10h8q10 0 8 -10l-12 -70q-1 -6 3 -9q51 -32 120 -32q73 0 117.5 36.5t44.5 97.5q0 36 -22 55t-75 25l-44 5q-114 14 -114 103q0 64 47 105.5t127 41.5z" />
    <glyph glyph-name="Scaron" unicode="&#x160;" horiz-adv-x="575" 
d="M491 895h5q4 0 5 -3t-3 -7l-103 -120q-8 -9 -16 -9h-5q-8 0 -12 9l-62 120q-6 10 4 10h4q9 0 14 -9l56 -104h2l94 104q8 9 17 9zM358 690q103 0 171 -46q8 -5 7 -11l-15 -83q-2 -10 -11 -10h-8q-10 0 -8 10l12 68q1 6 -3 9q-61 37 -149 37q-86 0 -137 -49.5t-51 -124.5
q0 -58 32 -87.5t114 -41.5l28 -4q83 -12 118 -47.5t35 -99.5q0 -100 -66 -160t-185 -60q-52 0 -103 16t-83 41q-7 6 -6 13l17 90q2 10 11 10h8q10 0 8 -10l-15 -79q-1 -5 4 -9q70 -46 170 -46q96 0 154.5 52t58.5 141q0 56 -31.5 84t-112.5 40l-28 4q-156 23 -156 149
q0 90 59 147t161 57z" />
    <glyph glyph-name="scaron" unicode="&#x161;" horiz-adv-x="455" 
d="M399 700h5q4 0 5 -3t-3 -7l-103 -120q-8 -9 -16 -9h-5q-8 0 -12 9l-62 120q-6 10 4 10h4q9 0 14 -9l56 -104h2l94 104q8 9 17 9zM264 484q71 0 130 -32q7 -3 5 -11l-14 -80q-2 -10 -11 -10h-8q-10 0 -8 10l12 67q1 5 -4 8q-48 23 -105 23q-64 0 -104 -34t-40 -87
q0 -36 23.5 -55t78.5 -25l44 -5q109 -12 109 -101q0 -73 -52.5 -117.5t-138.5 -44.5q-87 0 -147 43q-5 3 -3 13l14 80q2 10 11 10h8q10 0 8 -10l-12 -70q-1 -6 3 -9q51 -32 120 -32q73 0 117.5 36.5t44.5 97.5q0 36 -22 55t-75 25l-44 5q-114 14 -114 103q0 64 47 105.5
t127 41.5z" />
    <glyph glyph-name="uni0162" unicode="&#x162;" horiz-adv-x="545" 
d="M117 680h470q10 0 8 -10l-16 -93q-2 -10 -11 -10h-8q-10 0 -8 10l12 71q1 6 -5 6h-192q-5 0 -7 -6l-108 -617q-2 -6 5 -6h63q10 0 8 -10l-1 -5q-1 -10 -12 -10h-165q-10 0 -8 10l1 5q1 10 12 10h62q5 0 7 6l108 617q2 6 -4 6h-192q-6 0 -7 -6l-12 -71q-2 -10 -11 -10h-8
q-10 0 -8 10l16 93q2 10 11 10zM219 -56h10q10 0 8 -10l-12 -64q-2 -11 -7 -22l-11 -21q-5 -9 -11 -9q-8 0 -7 9l19 107q2 10 11 10z" />
    <glyph glyph-name="uni0163" unicode="&#x163;" horiz-adv-x="289" 
d="M194 630h8q10 0 8 -10l-24 -140q-2 -6 5 -6h95q10 0 8 -10l-1 -5q-1 -10 -12 -10h-95q-6 0 -7 -6l-61 -319q-5 -30 -5 -45q0 -32 17 -44t57 -12h16q10 0 8 -10l-1 -5q-1 -10 -12 -10h-16q-50 0 -73 18t-23 61q0 22 4 43l62 323q2 6 -5 6h-56q-10 0 -8 10l1 5q1 10 12 10
h56q6 0 7 6l24 140q2 10 11 10zM116 -56h10q10 0 8 -10l-12 -64q-2 -11 -7 -22l-11 -21q-4 -9 -11 -9q-9 0 -7 9l19 107q2 10 11 10z" />
    <glyph glyph-name="Tcaron" unicode="&#x164;" horiz-adv-x="545" 
d="M478 895h5q4 0 5 -3t-3 -7l-103 -120q-8 -9 -16 -9h-5q-7 0 -12 9l-62 120q-6 10 4 10h4q9 0 14 -9l56 -104h2l94 104q8 9 17 9zM117 680h470q10 0 8 -10l-16 -93q-2 -10 -11 -10h-8q-10 0 -8 10l12 71q1 6 -5 6h-192q-5 0 -7 -6l-108 -617q-2 -6 5 -6h63q10 0 8 -10
l-1 -5q-1 -10 -12 -10h-165q-10 0 -8 10l1 5q1 10 12 10h62q5 0 7 6l108 617q2 6 -4 6h-192q-6 0 -7 -6l-12 -71q-2 -10 -11 -10h-8q-10 0 -8 10l16 93q2 10 11 10z" />
    <glyph glyph-name="tcaron" unicode="&#x165;" horiz-adv-x="289" 
d="M334 680h10q10 0 8 -10l-12 -64q-2 -11 -7 -22l-11 -21q-4 -9 -11 -9q-9 0 -7 9l19 107q2 10 11 10zM194 630h8q10 0 8 -10l-24 -140q-2 -6 5 -6h95q10 0 8 -10l-1 -5q-1 -10 -12 -10h-95q-6 0 -7 -6l-61 -319q-5 -30 -5 -45q0 -32 17 -44t57 -12h16q10 0 8 -10l-1 -5
q-1 -10 -12 -10h-16q-50 0 -73 18t-23 61q0 22 4 43l62 323q2 6 -5 6h-56q-10 0 -8 10l1 5q1 10 12 10h56q6 0 7 6l24 140q2 10 11 10z" />
    <glyph glyph-name="Tbar" unicode="&#x166;" horiz-adv-x="545" 
d="M117 680h470q10 0 8 -10l-16 -93q-2 -10 -11 -10h-8q-10 0 -8 10l12 71q1 6 -5 6h-192q-5 0 -7 -6l-37 -211q-1 -6 4 -6h105q10 0 8 -10l-1 -5q-1 -10 -12 -10h-103q-6 0 -7 -6l-65 -369q-2 -6 5 -6h63q10 0 8 -10l-1 -5q-1 -10 -12 -10h-165q-10 0 -8 10l1 5q1 10 12 10
h62q5 0 7 6l65 369q1 6 -5 6h-102q-10 0 -8 10l1 5q1 10 12 10h101q6 0 7 6l37 211q2 6 -4 6h-192q-6 0 -7 -6l-12 -71q-2 -10 -11 -10h-8q-10 0 -8 10l16 93q2 10 11 10z" />
    <glyph glyph-name="tbar" unicode="&#x167;" horiz-adv-x="289" 
d="M194 630h8q10 0 8 -10l-24 -140q-2 -6 5 -6h95q10 0 8 -10l-1 -5q-1 -10 -12 -10h-95q-6 0 -7 -6l-15 -80q-2 -6 5 -6h84q10 0 8 -10l-1 -5q-2 -9 -12 -9h-84q-6 0 -7 -6l-39 -203q-5 -30 -5 -45q0 -32 17 -44t57 -12h16q10 0 8 -10l-1 -5q-1 -10 -12 -10h-16
q-50 0 -73.5 17.5t-23.5 59.5q0 17 5 45l40 207q2 6 -5 6h-45q-10 0 -8 10l1 5q1 9 12 9h45q6 0 7 6l15 80q2 6 -5 6h-56q-10 0 -8 10l1 5q1 10 12 10h56q6 0 7 6l24 140q2 10 11 10z" />
    <glyph glyph-name="Utilde" unicode="&#x168;" horiz-adv-x="633" 
d="M385 858q25 0 51 -21q23 -18 41 -18q24 0 58 34q3 3 6 2t2 -5l-2 -14q-2 -8 -9 -14q-28 -26 -60 -26q-25 0 -51 21q-23 18 -41 18q-24 0 -58 -34q-3 -3 -6 -2t-2 5l2 14q2 8 9 14q28 26 60 26zM510 680h165q10 0 8 -10l-1 -5q-1 -10 -12 -10h-62q-6 0 -7 -6l-73 -417
q-22 -128 -79.5 -185t-163.5 -57q-89 0 -136.5 43.5t-47.5 129.5q0 25 7 69l73 417q1 6 -5 6h-63q-10 0 -8 10l1 5q1 10 12 10h165q10 0 8 -10l-1 -5q-1 -10 -12 -10h-62q-6 0 -7 -6l-73 -418q-6 -36 -6 -66q0 -149 157 -149q92 0 142.5 49.5t70.5 165.5l73 418q1 6 -5 6
h-63q-10 0 -8 10l1 5q1 10 12 10z" />
    <glyph glyph-name="utilde" unicode="&#x169;" horiz-adv-x="534" 
d="M267 677q25 0 51 -21q23 -18 41 -18q24 0 58 34q3 3 6 2t2 -5l-2 -14q-2 -8 -9 -14q-28 -26 -60 -26q-25 0 -51 21q-23 18 -41 18q-24 0 -58 -34q-3 -3 -6 -2t-2 5l2 14q2 8 9 14q28 26 60 26zM364 474h83q10 0 8 -10l-76 -433q-1 -6 5 -6h61q10 0 8 -10l-1 -5
q-1 -10 -12 -10h-84q-10 0 -8 10l11 64h-1q-54 -84 -151 -84q-129 0 -129 127q0 31 5 56l49 270q2 6 -5 6h-60q-10 0 -8 10l1 5q1 10 12 10h83q10 0 8 -10l-52 -284q-6 -33 -6 -60q0 -54 26.5 -79.5t80.5 -25.5t102.5 41t60.5 107l49 280q2 6 -5 6h-60q-10 0 -8 10l1 5
q1 10 12 10z" />
    <glyph glyph-name="Umacron" unicode="&#x16a;" horiz-adv-x="633" 
d="M317 837h225q10 0 8 -10l-1 -5q-1 -10 -11 -10h-225q-10 0 -8 10l1 5q1 10 11 10zM510 680h165q10 0 8 -10l-1 -5q-1 -10 -12 -10h-62q-6 0 -7 -6l-73 -417q-22 -128 -79.5 -185t-163.5 -57q-89 0 -136.5 43.5t-47.5 129.5q0 25 7 69l73 417q1 6 -5 6h-63q-10 0 -8 10
l1 5q1 10 12 10h165q10 0 8 -10l-1 -5q-1 -10 -12 -10h-62q-6 0 -7 -6l-73 -418q-6 -36 -6 -66q0 -149 157 -149q92 0 142.5 49.5t70.5 165.5l73 418q1 6 -5 6h-63q-10 0 -8 10l1 5q1 10 12 10z" />
    <glyph glyph-name="umacron" unicode="&#x16b;" horiz-adv-x="534" 
d="M201 662h225q10 0 8 -10l-1 -5q-1 -10 -11 -10h-225q-10 0 -8 10l1 5q1 10 11 10zM364 474h83q10 0 8 -10l-76 -433q-1 -6 5 -6h61q10 0 8 -10l-1 -5q-1 -10 -12 -10h-84q-10 0 -8 10l11 64h-1q-54 -84 -151 -84q-129 0 -129 127q0 31 5 56l49 270q2 6 -5 6h-60
q-10 0 -8 10l1 5q1 10 12 10h83q10 0 8 -10l-52 -284q-6 -33 -6 -60q0 -54 26.5 -79.5t80.5 -25.5t102.5 41t60.5 107l49 280q2 6 -5 6h-60q-10 0 -8 10l1 5q1 10 12 10z" />
    <glyph glyph-name="Ubreve" unicode="&#x16c;" horiz-adv-x="633" 
d="M534 879h5q10 0 7 -10q-15 -43 -48.5 -68t-76.5 -25t-68 25t-27 68q0 10 10 10h4q10 0 10 -10q5 -69 74 -69q32 0 57.5 18.5t39.5 50.5q5 10 13 10zM510 680h165q10 0 8 -10l-1 -5q-1 -10 -12 -10h-62q-6 0 -7 -6l-73 -417q-22 -128 -79.5 -185t-163.5 -57
q-89 0 -136.5 43.5t-47.5 129.5q0 25 7 69l73 417q1 6 -5 6h-63q-10 0 -8 10l1 5q1 10 12 10h165q10 0 8 -10l-1 -5q-1 -10 -12 -10h-62q-6 0 -7 -6l-73 -418q-6 -36 -6 -66q0 -149 157 -149q92 0 142.5 49.5t70.5 165.5l73 418q1 6 -5 6h-63q-10 0 -8 10l1 5q1 10 12 10z
" />
    <glyph glyph-name="ubreve" unicode="&#x16d;" horiz-adv-x="534" 
d="M414 683h5q10 0 7 -10q-15 -43 -48.5 -68t-76.5 -25t-68 25t-27 68q0 10 10 10h4q10 0 10 -10q5 -69 74 -69q32 0 57.5 18.5t39.5 50.5q5 10 13 10zM364 474h83q10 0 8 -10l-76 -433q-1 -6 5 -6h61q10 0 8 -10l-1 -5q-1 -10 -12 -10h-84q-10 0 -8 10l11 64h-1
q-54 -84 -151 -84q-129 0 -129 127q0 31 5 56l49 270q2 6 -5 6h-60q-10 0 -8 10l1 5q1 10 12 10h83q10 0 8 -10l-52 -284q-6 -33 -6 -60q0 -54 26.5 -79.5t80.5 -25.5t102.5 41t60.5 107l49 280q2 6 -5 6h-60q-10 0 -8 10l1 5q1 10 12 10z" />
    <glyph glyph-name="Uring" unicode="&#x16e;" horiz-adv-x="633" 
d="M443 910q29 0 47.5 -19t18.5 -48q0 -40 -27 -67.5t-68 -27.5q-29 0 -47.5 19t-18.5 48q0 40 27 67.5t68 27.5zM438 888q-27 0 -46.5 -20.5t-19.5 -49.5q0 -21 12.5 -34.5t34.5 -13.5q27 0 46.5 20.5t19.5 49.5q0 21 -12.5 34.5t-34.5 13.5zM510 680h165q10 0 8 -10l-1 -5
q-1 -10 -12 -10h-62q-6 0 -7 -6l-73 -417q-22 -128 -79.5 -185t-163.5 -57q-89 0 -136.5 43.5t-47.5 129.5q0 25 7 69l73 417q1 6 -5 6h-63q-10 0 -8 10l1 5q1 10 12 10h165q10 0 8 -10l-1 -5q-1 -10 -12 -10h-62q-6 0 -7 -6l-73 -418q-6 -36 -6 -66q0 -149 157 -149
q92 0 142.5 49.5t70.5 165.5l73 418q1 6 -5 6h-63q-10 0 -8 10l1 5q1 10 12 10z" />
    <glyph glyph-name="uring" unicode="&#x16f;" horiz-adv-x="534" 
d="M328 710q29 0 47.5 -19t18.5 -48q0 -40 -27 -67.5t-68 -27.5q-29 0 -47.5 19t-18.5 48q0 40 27 67.5t68 27.5zM323 688q-27 0 -46.5 -20.5t-19.5 -49.5q0 -21 12.5 -34.5t34.5 -13.5q27 0 46.5 20.5t19.5 49.5q0 21 -12.5 34.5t-34.5 13.5zM364 474h83q10 0 8 -10
l-76 -433q-1 -6 5 -6h61q10 0 8 -10l-1 -5q-1 -10 -12 -10h-84q-10 0 -8 10l11 64h-1q-54 -84 -151 -84q-129 0 -129 127q0 31 5 56l49 270q2 6 -5 6h-60q-10 0 -8 10l1 5q1 10 12 10h83q10 0 8 -10l-52 -284q-6 -33 -6 -60q0 -54 26.5 -79.5t80.5 -25.5t102.5 41t60.5 107
l49 280q2 6 -5 6h-60q-10 0 -8 10l1 5q1 10 12 10z" />
    <glyph glyph-name="Uhungarumlaut" unicode="&#x170;" horiz-adv-x="633" 
d="M448 888h9q5 0 6 -3t-2 -7l-90 -104q-7 -8 -14 -8h-6q-4 0 -5.5 3t1.5 7l83 102q9 10 18 10zM552 888h9q5 0 6 -3t-2 -7l-90 -104q-7 -8 -14 -8h-6q-4 0 -5.5 3t1.5 7l83 102q9 10 18 10zM510 680h165q10 0 8 -10l-1 -5q-1 -10 -12 -10h-62q-6 0 -7 -6l-73 -417
q-22 -128 -79.5 -185t-163.5 -57q-89 0 -136.5 43.5t-47.5 129.5q0 25 7 69l73 417q1 6 -5 6h-63q-10 0 -8 10l1 5q1 10 12 10h165q10 0 8 -10l-1 -5q-1 -10 -12 -10h-62q-6 0 -7 -6l-73 -418q-6 -36 -6 -66q0 -149 157 -149q92 0 142.5 49.5t70.5 165.5l73 418q1 6 -5 6
h-63q-10 0 -8 10l1 5q1 10 12 10z" />
    <glyph glyph-name="uhungarumlaut" unicode="&#x171;" horiz-adv-x="534" 
d="M340 700h9q5 0 6 -3t-2 -7l-93 -121q-7 -8 -14 -8h-5q-11 0 -4 10l86 119q7 10 17 10zM444 700h9q5 0 6 -3t-2 -7l-93 -121q-7 -8 -14 -8h-5q-11 0 -4 10l86 119q7 10 17 10zM364 474h83q10 0 8 -10l-76 -433q-1 -6 5 -6h61q10 0 8 -10l-1 -5q-1 -10 -12 -10h-84
q-10 0 -8 10l11 64h-1q-54 -84 -151 -84q-129 0 -129 127q0 31 5 56l49 270q2 6 -5 6h-60q-10 0 -8 10l1 5q1 10 12 10h83q10 0 8 -10l-52 -284q-6 -33 -6 -60q0 -54 26.5 -79.5t80.5 -25.5t102.5 41t60.5 107l49 280q2 6 -5 6h-60q-10 0 -8 10l1 5q1 10 12 10z" />
    <glyph glyph-name="Uogonek" unicode="&#x172;" horiz-adv-x="633" 
d="M510 680h165q10 0 8 -10l-1 -5q-1 -10 -12 -10h-62q-6 0 -7 -6l-73 -417q-22 -124 -76 -181t-153 -61q-39 -39 -53.5 -60.5t-14.5 -40.5q0 -25 26 -25q14 0 31 11q7 5 11 -2l3 -6q2 -6 -6 -13q-19 -15 -45 -15q-21 0 -34 12.5t-13 33.5q0 25 14 47.5t50 58.5
q-167 8 -167 172q0 25 7 69l73 417q1 6 -5 6h-63q-10 0 -8 10l1 5q1 10 12 10h165q10 0 8 -10l-1 -5q-1 -10 -12 -10h-62q-6 0 -7 -6l-73 -418q-6 -36 -6 -66q0 -149 157 -149q92 0 142.5 49.5t70.5 165.5l73 418q1 6 -5 6h-63q-10 0 -8 10l1 5q1 10 12 10z" />
    <glyph glyph-name="uogonek" unicode="&#x173;" horiz-adv-x="534" 
d="M364 474h83q10 0 8 -10l-76 -433q-1 -6 5 -6h61q10 0 8 -10l-1 -5q-1 -10 -12 -10h-69q-59 -43 -79.5 -67t-20.5 -44q0 -25 26 -25q14 0 31 11q7 5 11 -2l3 -6q2 -6 -6 -13q-19 -15 -45 -15q-21 0 -34 12.5t-13 33.5q0 24 18 48t34 37t52 38l11 66h-1q-54 -84 -151 -84
q-129 0 -129 127q0 31 5 56l49 270q2 6 -5 6h-60q-10 0 -8 10l1 5q1 10 12 10h83q10 0 8 -10l-52 -284q-6 -33 -6 -60q0 -54 26.5 -79.5t80.5 -25.5t102.5 41t60.5 107l49 280q2 6 -5 6h-60q-10 0 -8 10l1 5q1 10 12 10z" />
    <glyph glyph-name="Wcircumflex" unicode="&#x174;" horiz-adv-x="807" 
d="M527 895h5q8 0 12 -9l62 -120q6 -10 -4 -10h-4q-9 0 -14 9l-56 104h-2l-94 -104q-8 -9 -17 -9h-5q-4 0 -5 3t3 7l103 120q8 9 16 9zM725 680h148q10 0 8 -10l-1 -5q-1 -10 -12 -10h-35q-6 0 -8 -6l-261 -639q-4 -10 -14 -10h-8q-9 0 -10 10l-58 610h-2l-274 -610
q-4 -10 -14 -10h-8q-10 0 -10 10l-35 638q0 7 -7 7h-35q-10 0 -8 10l1 5q1 10 12 10h149q10 0 8 -10l-1 -5q-1 -10 -12 -10h-73q-6 0 -6 -7l32 -588h2l271 610q4 10 14 10h8q10 0 11 -10l57 -610h2l238 588q4 7 -3 7h-71q-10 0 -8 10l1 5q1 10 12 10z" />
    <glyph glyph-name="wcircumflex" unicode="&#x175;" horiz-adv-x="699" 
d="M434 700h5q7 0 12 -9l62 -120q6 -10 -4 -10h-4q-9 0 -14 9l-56 104h-2l-94 -104q-8 -9 -17 -9h-5q-4 0 -5 3t3 7l103 120q8 9 16 9zM596 474h125q10 0 8 -10l-1 -5q-1 -10 -12 -10h-28q-6 0 -9 -7l-210 -432q-5 -10 -13 -10h-6q-9 0 -10 10l-58 419h-1l-207 -419
q-6 -10 -14 -10h-6q-9 0 -10 10l-57 433q-1 6 -7 6h-30q-10 0 -8 10l1 5q1 10 12 10h128q10 0 8 -10l-1 -5q-1 -10 -12 -10h-59q-7 0 -5 -8l51 -392h1l204 415q4 10 13 10h7q10 0 11 -10l59 -415h1l188 391q5 9 -4 9h-54q-10 0 -8 10l1 5q1 10 12 10z" />
    <glyph glyph-name="Ycircumflex" unicode="&#x176;" horiz-adv-x="525" 
d="M383 895h5q8 0 12 -9l62 -120q6 -10 -4 -10h-4q-9 0 -14 9l-56 104h-2l-94 -104q-8 -9 -17 -9h-5q-4 0 -5 3t3 7l103 120q8 9 16 9zM446 680h148q10 0 8 -10l-1 -5q-1 -10 -12 -10h-34q-5 0 -9 -6l-258 -370l-43 -248q-1 -6 5 -6h63q10 0 8 -10l-1 -5q-1 -10 -12 -10
h-165q-10 0 -8 10l1 5q1 10 12 10h62q6 0 7 6l43 249l-127 368q-3 7 -8 7h-36q-10 0 -8 10l1 5q1 10 12 10h150q10 0 8 -10l-1 -5q-1 -10 -12 -10h-71q-8 0 -5 -8l115 -333h2l234 334q5 7 -3 7h-70q-10 0 -8 10l1 5q1 10 12 10z" />
    <glyph glyph-name="ycircumflex" unicode="&#x177;" horiz-adv-x="441" 
d="M303 700h5q8 0 12 -9l62 -120q6 -10 -4 -10h-4q-9 0 -14 9l-56 104h-2l-94 -104q-8 -9 -17 -9h-5q-4 0 -5 3t3 7l103 120q8 9 16 9zM348 474h124q10 0 8 -10l-1 -5q-1 -10 -12 -10h-28q-5 0 -9 -7l-268 -497q-42 -77 -71 -101t-72 -24h-15q-10 0 -8 10l1 5q1 10 12 10h16
q32 0 55.5 22t58.5 87l29 54l-82 435q-2 6 -6 6h-31q-10 0 -8 10l1 5q1 10 12 10h128q10 0 8 -10l-1 -5q-1 -10 -12 -10h-58q-7 0 -5 -7l73 -396h1l211 394q5 9 -4 9h-52q-10 0 -8 10l1 5q1 10 12 10z" />
    <glyph glyph-name="Ydieresis" unicode="&#x178;" horiz-adv-x="525" 
d="M271 854h22q10 0 8 -10l-7 -38q-2 -10 -11 -10h-22q-10 0 -8 10l7 38q2 10 11 10zM464 854h22q10 0 8 -10l-7 -38q-2 -10 -11 -10h-22q-10 0 -8 10l7 38q2 10 11 10zM446 680h148q10 0 8 -10l-1 -5q-1 -10 -12 -10h-34q-5 0 -9 -6l-258 -370l-43 -248q-1 -6 5 -6h63
q10 0 8 -10l-1 -5q-1 -10 -12 -10h-165q-10 0 -8 10l1 5q1 10 12 10h62q6 0 7 6l43 249l-127 368q-3 7 -8 7h-36q-10 0 -8 10l1 5q1 10 12 10h150q10 0 8 -10l-1 -5q-1 -10 -12 -10h-71q-8 0 -5 -8l115 -333h2l234 334q5 7 -3 7h-70q-10 0 -8 10l1 5q1 10 12 10z" />
    <glyph glyph-name="Zacute" unicode="&#x179;" horiz-adv-x="518" 
d="M445 888h11q5 0 6 -3t-3 -7l-99 -102q-10 -10 -19 -10h-5q-12 0 -1 11l91 101q9 10 19 10zM151 680h384q10 0 8 -10l-1 -7q-1 -7 -7 -14l-486 -622v-1h352q5 0 7 6l13 73q2 10 11 10h8q10 0 8 -10l-17 -95q-1 -10 -12 -10h-402q-10 0 -8 10l1 7q1 7 8 15l486 621v1h-335
q-5 0 -7 -6l-12 -70q-2 -10 -11 -10h-8q-10 0 -8 10l16 92q1 10 12 10z" />
    <glyph glyph-name="zacute" unicode="&#x17a;" horiz-adv-x="452" 
d="M374 700h11q5 0 6 -3t-2 -7l-102 -120q-9 -10 -18 -10h-4q-11 0 -3 10l94 120q8 10 18 10zM122 474h305q10 0 8 -10l-1 -6q-1 -6 -9 -15l-368 -417v-1h268q5 0 7 6l11 64q2 10 11 10h8q10 0 8 -10l-15 -85q-1 -10 -12 -10h-317q-10 0 -8 10l1 6q1 7 8 15l368 417v1h-255
q-6 0 -7 -6l-10 -57q-2 -10 -11 -10h-8q-10 0 -8 10l14 78q1 10 12 10z" />
    <glyph glyph-name="Zdotaccent" unicode="&#x17b;" horiz-adv-x="518" 
d="M365 854h22q10 0 8 -10l-7 -38q-2 -10 -11 -10h-22q-10 0 -8 10l7 38q2 10 11 10zM151 680h384q10 0 8 -10l-1 -7q-1 -7 -7 -14l-486 -622v-1h352q5 0 7 6l13 73q2 10 11 10h8q10 0 8 -10l-17 -95q-1 -10 -12 -10h-402q-10 0 -8 10l1 7q1 7 8 15l486 621v1h-335
q-5 0 -7 -6l-12 -70q-2 -10 -11 -10h-8q-10 0 -8 10l16 92q1 10 12 10z" />
    <glyph glyph-name="zdotaccent" unicode="&#x17c;" horiz-adv-x="452" 
d="M295 680h22q10 0 8 -10l-7 -38q-2 -10 -11 -10h-22q-10 0 -8 10l7 38q2 10 11 10zM122 474h305q10 0 8 -10l-1 -6q-1 -6 -9 -15l-368 -417v-1h268q5 0 7 6l11 64q2 10 11 10h8q10 0 8 -10l-15 -85q-1 -10 -12 -10h-317q-10 0 -8 10l1 6q1 7 8 15l368 417v1h-255
q-6 0 -7 -6l-10 -57q-2 -10 -11 -10h-8q-10 0 -8 10l14 78q1 10 12 10z" />
    <glyph glyph-name="Zcaron" unicode="&#x17d;" horiz-adv-x="518" 
d="M472 895h5q4 0 5 -3t-3 -7l-103 -120q-8 -9 -16 -9h-5q-7 0 -12 9l-62 120q-6 10 4 10h4q9 0 14 -9l56 -104h2l94 104q8 9 17 9zM151 680h384q10 0 8 -10l-1 -7q-1 -7 -7 -14l-486 -622v-1h352q5 0 7 6l13 73q2 10 11 10h8q10 0 8 -10l-17 -95q-1 -10 -12 -10h-402
q-10 0 -8 10l1 7q1 7 8 15l486 621v1h-335q-5 0 -7 -6l-12 -70q-2 -10 -11 -10h-8q-10 0 -8 10l16 92q1 10 12 10z" />
    <glyph glyph-name="zcaron" unicode="&#x17e;" horiz-adv-x="452" 
d="M400 700h5q4 0 5 -3t-3 -7l-103 -120q-8 -9 -16 -9h-5q-7 0 -12 9l-62 120q-6 10 4 10h4q9 0 14 -9l56 -104h2l94 104q8 9 17 9zM122 474h305q10 0 8 -10l-1 -6q-1 -6 -9 -15l-368 -417v-1h268q5 0 7 6l11 64q2 10 11 10h8q10 0 8 -10l-15 -85q-1 -10 -12 -10h-317
q-10 0 -8 10l1 6q1 7 8 15l368 417v1h-255q-6 0 -7 -6l-10 -57q-2 -10 -11 -10h-8q-10 0 -8 10l14 78q1 10 12 10z" />
    <glyph glyph-name="florin" unicode="&#x192;" 
d="M483 680h18q10 0 8 -10l-1 -5q-1 -10 -12 -10h-19q-43 0 -69.5 -23t-45.5 -80l-54 -165h102q10 0 8 -10l-1 -5q-2 -10 -12 -10h-105l-133 -410q-24 -75 -57.5 -103.5t-92.5 -28.5h-18q-10 0 -8 10l1 5q1 10 12 10h19q43 0 69.5 23t45.5 80l134 414h-90q-10 0 -8 10l1 5
q2 10 12 10h93l53 161q24 75 57.5 103.5t92.5 28.5z" />
    <glyph glyph-name="Scommaaccent" unicode="&#x218;" horiz-adv-x="575" 
d="M358 690q103 0 171 -46q8 -5 7 -11l-15 -83q-2 -10 -11 -10h-8q-10 0 -8 10l12 68q1 6 -3 9q-61 37 -149 37q-86 0 -137 -49.5t-51 -124.5q0 -58 32 -87.5t114 -41.5l28 -4q83 -12 118 -47.5t35 -99.5q0 -100 -66 -160t-185 -60q-52 0 -103 16t-83 41q-7 6 -6 13l17 90
q2 10 11 10h8q10 0 8 -10l-15 -79q-1 -5 4 -9q70 -46 170 -46q96 0 154.5 52t58.5 141q0 56 -31.5 84t-112.5 40l-28 4q-156 23 -156 149q0 90 59 147t161 57zM239 -56h10q10 0 8 -10l-12 -64q-2 -11 -7 -22l-11 -21q-5 -9 -11 -9q-8 0 -7 9l19 107q2 10 11 10z" />
    <glyph glyph-name="scommaaccent" unicode="&#x219;" horiz-adv-x="455" 
d="M264 484q71 0 130 -32q7 -3 5 -11l-14 -80q-2 -10 -11 -10h-8q-10 0 -8 10l12 67q1 5 -4 8q-48 23 -105 23q-64 0 -104 -34t-40 -87q0 -36 23.5 -55t78.5 -25l44 -5q109 -12 109 -101q0 -73 -52.5 -117.5t-138.5 -44.5q-87 0 -147 43q-5 3 -3 13l14 80q2 10 11 10h8
q10 0 8 -10l-12 -70q-1 -6 3 -9q51 -32 120 -32q73 0 117.5 36.5t44.5 97.5q0 36 -22 55t-75 25l-44 5q-114 14 -114 103q0 64 47 105.5t127 41.5zM170 -56h10q10 0 8 -10l-12 -64q-2 -11 -7 -22l-11 -21q-4 -9 -11 -9q-9 0 -7 9l19 107q2 10 11 10z" />
    <glyph glyph-name="uni021A" unicode="&#x21a;" horiz-adv-x="545" 
d="M117 680h470q10 0 8 -10l-16 -93q-2 -10 -11 -10h-8q-10 0 -8 10l12 71q1 6 -5 6h-192q-5 0 -7 -6l-108 -617q-2 -6 5 -6h63q10 0 8 -10l-1 -5q-1 -10 -12 -10h-165q-10 0 -8 10l1 5q1 10 12 10h62q5 0 7 6l108 617q2 6 -4 6h-192q-6 0 -7 -6l-12 -71q-2 -10 -11 -10h-8
q-10 0 -8 10l16 93q2 10 11 10zM219 -56h10q10 0 8 -10l-12 -64q-2 -11 -7 -22l-11 -21q-5 -9 -11 -9q-8 0 -7 9l19 107q2 10 11 10z" />
    <glyph glyph-name="uni021B" unicode="&#x21b;" horiz-adv-x="289" 
d="M194 630h8q10 0 8 -10l-24 -140q-2 -6 5 -6h95q10 0 8 -10l-1 -5q-1 -10 -12 -10h-95q-6 0 -7 -6l-61 -319q-5 -30 -5 -45q0 -32 17 -44t57 -12h16q10 0 8 -10l-1 -5q-1 -10 -12 -10h-16q-50 0 -73 18t-23 61q0 22 4 43l62 323q2 6 -5 6h-56q-10 0 -8 10l1 5q1 10 12 10
h56q6 0 7 6l24 140q2 10 11 10zM116 -56h10q10 0 8 -10l-12 -64q-2 -11 -7 -22l-11 -21q-4 -9 -11 -9q-9 0 -7 9l19 107q2 10 11 10z" />
    <glyph glyph-name="dotlessj" unicode="&#x237;" horiz-adv-x="269" 
d="M99 474h83q10 0 8 -10l-94 -535q-11 -64 -37 -86.5t-84 -22.5h-4q-10 0 -8 10l1 5q1 10 12 10h3q44 0 62.5 17t27.5 67l90 513q1 7 -5 7h-60q-10 0 -8 10l1 5q1 10 12 10z" />
    <glyph glyph-name="circumflex" unicode="&#x2c6;" horiz-adv-x="401" 
d="M279 700h5q8 0 12 -9l62 -120q6 -10 -4 -10h-4q-9 0 -14 9l-56 104h-2l-94 -104q-8 -9 -17 -9h-5q-4 0 -5 3t3 7l103 120q8 9 16 9z" />
    <glyph glyph-name="caron" unicode="&#x2c7;" horiz-adv-x="401" 
d="M372 700h5q4 0 5 -3t-3 -7l-103 -120q-8 -9 -16 -9h-5q-7 0 -12 9l-62 120q-6 10 4 10h4q9 0 14 -9l56 -104h2l94 104q8 9 17 9z" />
    <glyph glyph-name="uni02C9" unicode="&#x2c9;" horiz-adv-x="402" 
d="M196 837h225q10 0 8 -10l-1 -5q-1 -10 -11 -10h-225q-10 0 -8 10l1 5q1 10 11 10z" />
    <glyph glyph-name="breve" unicode="&#x2d8;" horiz-adv-x="402" 
d="M377 683h5q10 0 7 -10q-15 -43 -48.5 -68t-76.5 -25t-68 25t-27 68q0 10 10 10h4q10 0 10 -10q5 -69 74 -69q32 0 57.5 18.5t39.5 50.5q5 10 13 10z" />
    <glyph glyph-name="dotaccent" unicode="&#x2d9;" horiz-adv-x="401" 
d="M270 680h22q10 0 8 -10l-7 -38q-2 -10 -11 -10h-22q-10 0 -8 10l7 38q2 10 11 10z" />
    <glyph glyph-name="ring" unicode="&#x2da;" horiz-adv-x="402" 
d="M286 710q29 0 47.5 -19t18.5 -48q0 -40 -27 -67.5t-68 -27.5q-29 0 -47.5 19t-18.5 48q0 40 27 67.5t68 27.5zM281 688q-27 0 -46.5 -20.5t-19.5 -49.5q0 -21 12.5 -34.5t34.5 -13.5q27 0 46.5 20.5t19.5 49.5q0 21 -12.5 34.5t-34.5 13.5z" />
    <glyph glyph-name="ogonek" unicode="&#x2db;" horiz-adv-x="401" 
d="M202 10h10q4 0 5 -3.5t-3 -6.5q-59 -43 -79.5 -67t-20.5 -44q0 -25 26 -25q14 0 31 11q7 5 11 -2l3 -6q2 -6 -6 -13q-19 -15 -45 -15q-21 0 -34 12.5t-13 33.5q0 27 20 52.5t72 62.5q14 10 23 10z" />
    <glyph glyph-name="tilde" unicode="&#x2dc;" horiz-adv-x="401" 
d="M231 677q25 0 51 -21q23 -18 41 -18q24 0 58 34q3 3 6 2t2 -5l-2 -14q-2 -8 -9 -14q-28 -26 -60 -26q-25 0 -51 21q-23 18 -41 18q-24 0 -58 -34q-3 -3 -6 -2t-2 5l2 14q2 8 9 14q28 26 60 26z" />
    <glyph glyph-name="hungarumlaut" unicode="&#x2dd;" horiz-adv-x="401" 
d="M264 700h9q5 0 6 -3t-2 -7l-93 -121q-7 -8 -14 -8h-5q-11 0 -4 10l86 119q7 10 17 10zM368 700h9q5 0 6 -3t-2 -7l-93 -121q-7 -8 -14 -8h-5q-11 0 -4 10l86 119q7 10 17 10z" />
    <glyph glyph-name="uni0326" unicode="&#x326;" horiz-adv-x="0" 
d="M152 -56h10q10 0 8 -10l-12 -64q-2 -11 -7 -22l-11 -21q-4 -9 -11 -9q-9 0 -7 9l19 107q2 10 11 10z" />
    <glyph glyph-name="uni0394" unicode="&#x394;" horiz-adv-x="567" 
d="M361 680h10q7 0 9 -10l112 -660q2 -10 -8 -10h-476q-11 0 -6 10l347 660q5 10 12 10zM358 631l-313 -599q-3 -6 4 -6h405q8 0 6 6l-100 599h-2z" />
    <glyph glyph-name="uni03A9" unicode="&#x3a9;" horiz-adv-x="580" 
d="M369 690q85 0 132 -49.5t47 -138.5q0 -59 -18 -162q-26 -147 -64 -213t-111 -100v-2h97q10 0 8 -10l-1 -5q-2 -10 -10 -10h-154q-10 0 -8 10l1 9q1 7 11 10q96 36 135.5 97.5t67.5 213.5q18 100 18 157q0 81 -39.5 124t-115.5 43q-135 0 -197 -128q-32 -69 -55 -196
q-17 -94 -17 -147q0 -68 25 -104t86 -60q9 -3 8 -10l-2 -9q-2 -10 -11 -10h-153q-10 0 -8 10l1 5q2 10 10 10h101l1 2q-44 23 -65 60.5t-21 99.5q0 53 18 153q24 139 55 202q72 148 228 148z" />
    <glyph glyph-name="uni03BC" unicode="&#x3bc;" horiz-adv-x="519" 
d="M448 474h8q10 0 8 -10l-76 -432q-1 -7 5 -7h61q10 0 8 -10l-1 -5q-1 -10 -12 -10h-84q-10 0 -8 10l11 64h-1q-54 -84 -155 -84q-90 0 -117 66h-1l-40 -226q-2 -10 -11 -10h-8q-10 0 -8 10l112 634q2 10 11 10h7q10 0 8 -10l-52 -300q-4 -21 -4 -45q0 -104 109 -104
q58 0 106.5 42.5t59.5 105.5l53 301q2 10 11 10z" />
    <glyph glyph-name="pi" unicode="&#x3c0;" horiz-adv-x="524" 
d="M113 474h387q10 0 8 -10l-1 -5q-1 -10 -12 -10h-33q-6 0 -7 -6l-68 -383q-3 -15 -3 -22q0 -19 18 -19h8q10 0 8 -10l-1 -5q-1 -10 -12 -10h-6q-42 0 -42 37q0 11 3 28l68 384q2 6 -5 6h-244q-5 0 -7 -6l-76 -433q-2 -10 -10 -10h-8q-11 0 -9 10l76 433q1 6 -4 6h-33
q-10 0 -8 10l1 5q1 10 12 10z" />
    <glyph glyph-name="Wgrave" unicode="&#x1e80;" horiz-adv-x="807" 
d="M414 888h10q9 0 15 -10l58 -102q7 -10 -5 -10h-3q-9 0 -16 10l-64 102q-2 4 -0.5 7t5.5 3zM725 680h148q10 0 8 -10l-1 -5q-1 -10 -12 -10h-35q-6 0 -8 -6l-261 -639q-4 -10 -14 -10h-8q-9 0 -10 10l-58 610h-2l-274 -610q-4 -10 -14 -10h-8q-10 0 -10 10l-35 638
q0 7 -7 7h-35q-10 0 -8 10l1 5q1 10 12 10h149q10 0 8 -10l-1 -5q-1 -10 -12 -10h-73q-6 0 -6 -7l32 -588h2l271 610q4 10 14 10h8q10 0 11 -10l57 -610h2l238 588q4 7 -3 7h-71q-10 0 -8 10l1 5q1 10 12 10z" />
    <glyph glyph-name="wgrave" unicode="&#x1e81;" horiz-adv-x="699" 
d="M328 700h9q9 0 13 -10l54 -120q5 -10 -7 -10h-2q-9 0 -15 10l-59 120q-2 4 0 7t7 3zM596 474h125q10 0 8 -10l-1 -5q-1 -10 -12 -10h-28q-6 0 -9 -7l-210 -432q-5 -10 -13 -10h-6q-9 0 -10 10l-58 419h-1l-207 -419q-6 -10 -14 -10h-6q-9 0 -10 10l-57 433q-1 6 -7 6h-30
q-10 0 -8 10l1 5q1 10 12 10h128q10 0 8 -10l-1 -5q-1 -10 -12 -10h-59q-7 0 -5 -8l51 -392h1l204 415q4 10 13 10h7q10 0 11 -10l59 -415h1l188 391q5 9 -4 9h-54q-10 0 -8 10l1 5q1 10 12 10z" />
    <glyph glyph-name="Wacute" unicode="&#x1e82;" horiz-adv-x="807" 
d="M615 888h11q5 0 6 -3t-3 -7l-99 -102q-10 -10 -19 -10h-5q-12 0 -1 11l91 101q9 10 19 10zM725 680h148q10 0 8 -10l-1 -5q-1 -10 -12 -10h-35q-6 0 -8 -6l-261 -639q-4 -10 -14 -10h-8q-9 0 -10 10l-58 610h-2l-274 -610q-4 -10 -14 -10h-8q-10 0 -10 10l-35 638
q0 7 -7 7h-35q-10 0 -8 10l1 5q1 10 12 10h149q10 0 8 -10l-1 -5q-1 -10 -12 -10h-73q-6 0 -6 -7l32 -588h2l271 610q4 10 14 10h8q10 0 11 -10l57 -610h2l238 588q4 7 -3 7h-71q-10 0 -8 10l1 5q1 10 12 10z" />
    <glyph glyph-name="wacute" unicode="&#x1e83;" horiz-adv-x="699" 
d="M520 700h11q5 0 6 -3t-2 -7l-102 -120q-9 -10 -18 -10h-4q-11 0 -3 10l94 120q8 10 18 10zM596 474h125q10 0 8 -10l-1 -5q-1 -10 -12 -10h-28q-6 0 -9 -7l-210 -432q-5 -10 -13 -10h-6q-9 0 -10 10l-58 419h-1l-207 -419q-6 -10 -14 -10h-6q-9 0 -10 10l-57 433
q-1 6 -7 6h-30q-10 0 -8 10l1 5q1 10 12 10h128q10 0 8 -10l-1 -5q-1 -10 -12 -10h-59q-7 0 -5 -8l51 -392h1l204 415q4 10 13 10h7q10 0 11 -10l59 -415h1l188 391q5 9 -4 9h-54q-10 0 -8 10l1 5q1 10 12 10z" />
    <glyph glyph-name="Wdieresis" unicode="&#x1e84;" horiz-adv-x="807" 
d="M405 854h22q10 0 8 -10l-7 -38q-2 -10 -11 -10h-22q-10 0 -8 10l7 38q2 10 11 10zM598 854h22q10 0 8 -10l-7 -38q-2 -10 -11 -10h-22q-10 0 -8 10l7 38q2 10 11 10zM725 680h148q10 0 8 -10l-1 -5q-1 -10 -12 -10h-35q-6 0 -8 -6l-261 -639q-4 -10 -14 -10h-8
q-9 0 -10 10l-58 610h-2l-274 -610q-4 -10 -14 -10h-8q-10 0 -10 10l-35 638q0 7 -7 7h-35q-10 0 -8 10l1 5q1 10 12 10h149q10 0 8 -10l-1 -5q-1 -10 -12 -10h-73q-6 0 -6 -7l32 -588h2l271 610q4 10 14 10h8q10 0 11 -10l57 -610h2l238 588q4 7 -3 7h-71q-10 0 -8 10l1 5
q1 10 12 10z" />
    <glyph glyph-name="wdieresis" unicode="&#x1e85;" horiz-adv-x="699" 
d="M326 680h22q10 0 8 -10l-7 -38q-2 -10 -11 -10h-22q-10 0 -8 10l7 38q2 10 11 10zM519 680h22q10 0 8 -10l-7 -38q-2 -10 -11 -10h-22q-10 0 -8 10l7 38q2 10 11 10zM596 474h125q10 0 8 -10l-1 -5q-1 -10 -12 -10h-28q-6 0 -9 -7l-210 -432q-5 -10 -13 -10h-6
q-9 0 -10 10l-58 419h-1l-207 -419q-6 -10 -14 -10h-6q-9 0 -10 10l-57 433q-1 6 -7 6h-30q-10 0 -8 10l1 5q1 10 12 10h128q10 0 8 -10l-1 -5q-1 -10 -12 -10h-59q-7 0 -5 -8l51 -392h1l204 415q4 10 13 10h7q10 0 11 -10l59 -415h1l188 391q5 9 -4 9h-54q-10 0 -8 10l1 5
q1 10 12 10z" />
    <glyph glyph-name="uni1E9E" unicode="&#x1e9e;" horiz-adv-x="649" 
d="M428 690q91 0 165 -53q6 -5 5 -12l-1 -5q-1 -6 -8 -13l-163 -182q74 -2 117.5 -41t43.5 -111q0 -92 -37 -169q-54 -110 -180 -110q-78 0 -119 33q-8 6 0 14l4 4q7 7 16 0q36 -26 101 -26q106 0 155 101q14 29 23 74t9 76q0 132 -161 133h-3q-10 0 -8 10l1 5q1 6 6 11
l173 191q-49 44 -141 44q-87 0 -151.5 -55.5t-82.5 -154.5l-75 -423q-1 -6 5 -6h63q10 0 8 -10l-1 -5q-1 -10 -12 -10h-165q-10 0 -8 10l1 5q1 10 12 10h62q6 0 7 6l74 423q19 109 90.5 172.5t174.5 63.5z" />
    <glyph glyph-name="Ygrave" unicode="&#x1ef2;" horiz-adv-x="525" 
d="M275 888h10q9 0 15 -10l58 -102q7 -10 -5 -10h-3q-9 0 -16 10l-64 102q-2 4 -0.5 7t5.5 3zM446 680h148q10 0 8 -10l-1 -5q-1 -10 -12 -10h-34q-5 0 -9 -6l-258 -370l-43 -248q-1 -6 5 -6h63q10 0 8 -10l-1 -5q-1 -10 -12 -10h-165q-10 0 -8 10l1 5q1 10 12 10h62
q6 0 7 6l43 249l-127 368q-3 7 -8 7h-36q-10 0 -8 10l1 5q1 10 12 10h150q10 0 8 -10l-1 -5q-1 -10 -12 -10h-71q-8 0 -5 -8l115 -333h2l234 334q5 7 -3 7h-70q-10 0 -8 10l1 5q1 10 12 10z" />
    <glyph glyph-name="ygrave" unicode="&#x1ef3;" horiz-adv-x="441" 
d="M204 700h9q9 0 13 -10l54 -120q5 -10 -7 -10h-2q-9 0 -15 10l-59 120q-2 4 0 7t7 3zM348 474h124q10 0 8 -10l-1 -5q-1 -10 -12 -10h-28q-5 0 -9 -7l-268 -497q-42 -77 -71 -101t-72 -24h-15q-10 0 -8 10l1 5q1 10 12 10h16q32 0 55.5 22t58.5 87l29 54l-82 435
q-2 6 -6 6h-31q-10 0 -8 10l1 5q1 10 12 10h128q10 0 8 -10l-1 -5q-1 -10 -12 -10h-58q-7 0 -5 -7l73 -396h1l211 394q5 9 -4 9h-52q-10 0 -8 10l1 5q1 10 12 10z" />
    <glyph glyph-name="endash" unicode="&#x2013;" horiz-adv-x="477" 
d="M49 279h398q10 0 8 -10l-1 -6q-1 -8 -11 -8h-398q-10 0 -8 10l1 6q1 8 11 8z" />
    <glyph glyph-name="emdash" unicode="&#x2014;" horiz-adv-x="780" 
d="M49 279h701q10 0 8 -10l-1 -6q-1 -8 -11 -8h-701q-10 0 -8 10l1 6q1 8 11 8z" />
    <glyph glyph-name="quoteleft" unicode="&#x2018;" horiz-adv-x="192" 
d="M186 681q8 0 7 -9l-21 -123q-2 -10 -11 -10h-19q-9 0 -7 10l10 55q3 15 7 23l23 45q5 9 11 9z" />
    <glyph glyph-name="quoteright" unicode="&#x2019;" horiz-adv-x="192" 
d="M167 680h19q9 0 7 -10l-10 -55q-3 -15 -7 -23l-23 -45q-5 -9 -11 -9q-8 0 -7 9l21 123q2 10 11 10z" />
    <glyph glyph-name="quotesinglbase" unicode="&#x201a;" horiz-adv-x="192" 
d="M58 62h19q9 0 7 -10l-10 -55q-3 -15 -7 -23l-23 -45q-4 -9 -11 -9q-9 0 -7 9l21 123q2 10 11 10z" />
    <glyph glyph-name="quotedblleft" unicode="&#x201c;" horiz-adv-x="309" 
d="M186 681q8 0 7 -9l-21 -123q-2 -10 -11 -10h-19q-9 0 -7 10l10 55q3 15 7 23l23 45q5 9 11 9zM303 681q9 0 7 -9l-21 -123q-2 -10 -11 -10h-19q-9 0 -7 10l10 55q3 15 7 23l23 45q4 9 11 9z" />
    <glyph glyph-name="quotedblright" unicode="&#x201d;" horiz-adv-x="309" 
d="M167 680h19q9 0 7 -10l-10 -55q-3 -15 -7 -23l-23 -45q-5 -9 -11 -9q-8 0 -7 9l21 123q2 10 11 10zM284 680h19q9 0 7 -10l-10 -55q-3 -15 -7 -23l-23 -45q-4 -9 -11 -9q-9 0 -7 9l21 123q2 10 11 10z" />
    <glyph glyph-name="quotedblbase" unicode="&#x201e;" horiz-adv-x="309" 
d="M58 62h19q9 0 7 -10l-10 -55q-3 -15 -7 -23l-23 -45q-4 -9 -11 -9q-9 0 -7 9l21 123q2 10 11 10zM175 62h19q9 0 7 -10l-10 -55q-3 -15 -7 -23l-23 -45q-5 -9 -11 -9q-8 0 -7 9l21 123q2 10 11 10z" />
    <glyph glyph-name="dagger" unicode="&#x2020;" horiz-adv-x="390" 
d="M277 680h7q10 0 8 -10l-44 -248q-2 -6 5 -6h127q10 0 8 -10l-1 -6q-1 -8 -11 -8h-127q-5 0 -7 -6l-98 -556q-1 -10 -11 -10h-7q-10 0 -8 10l98 556q2 6 -4 6h-128q-10 0 -8 10l1 6q1 8 11 8h127q5 0 7 6l44 248q1 10 11 10z" />
    <glyph glyph-name="daggerdbl" unicode="&#x2021;" horiz-adv-x="390" 
d="M272 680h7q10 0 8 -10l-39 -219q-2 -6 5 -6h127q10 0 8 -10l-1 -6q-1 -8 -11 -8h-127q-5 0 -7 -6l-58 -327q-2 -6 5 -6h127q10 0 8 -10l-1 -6q-1 -8 -11 -8h-127q-5 0 -7 -6l-39 -222q-3 -10 -11 -10h-7q-11 0 -8 10l39 222q2 6 -4 6h-128q-10 0 -8 10l1 6q1 8 11 8h127
q5 0 7 6l58 327q2 6 -4 6h-128q-10 0 -8 10l1 6q1 8 11 8h127q5 0 7 6l39 219q1 10 11 10z" />
    <glyph glyph-name="bullet" unicode="&#x2022;" horiz-adv-x="342" 
d="M188 412q44 0 74 -30t30 -74t-30 -74t-74 -30t-74 30t-30 74t30 74t74 30z" />
    <glyph glyph-name="ellipsis" unicode="&#x2026;" horiz-adv-x="585" 
d="M58 68h25q10 0 8 -10l-8 -48q-2 -10 -11 -10h-25q-10 0 -8 10l8 48q2 10 11 10zM253 68h25q10 0 8 -10l-8 -48q-2 -10 -11 -10h-25q-10 0 -8 10l8 48q2 10 11 10zM448 68h25q10 0 8 -10l-8 -48q-2 -10 -11 -10h-25q-10 0 -8 10l8 48q2 10 11 10z" />
    <glyph glyph-name="perthousand" unicode="&#x2030;" horiz-adv-x="1008" 
d="M635 690h9q11 0 4 -10l-496 -680q-9 -10 -16 -10h-9q-12 0 -4 10l497 680q7 10 15 10zM278 688q41 0 64.5 -23.5t23.5 -66.5q0 -34 -13.5 -102t-26.5 -95q-34 -71 -106 -71q-41 0 -64.5 23.5t-23.5 66.5q0 34 13.5 102t26.5 95q34 71 106 71zM276 665q-52 0 -80 -53
q-14 -29 -26.5 -91.5t-12.5 -99.5q0 -68 65 -68q52 0 80 53q14 29 26.5 91.5t12.5 99.5q0 68 -65 68zM552 350q41 0 64.5 -23.5t23.5 -66.5q0 -34 -13.5 -102t-26.5 -95q-34 -71 -106 -71q-41 0 -64.5 23.5t-23.5 66.5q0 34 13.5 102t26.5 95q34 71 106 71zM839 350
q41 0 64.5 -23.5t23.5 -66.5q0 -34 -13.5 -102t-26.5 -95q-34 -71 -106 -71q-41 0 -64.5 23.5t-23.5 66.5q0 34 13.5 102t26.5 95q34 71 106 71zM550 327q-52 0 -80 -53q-14 -29 -26.5 -91.5t-12.5 -99.5q0 -68 65 -68q52 0 80 53q14 29 26.5 91.5t12.5 99.5q0 68 -65 68z
M837 327q-52 0 -80 -53q-14 -29 -26.5 -91.5t-12.5 -99.5q0 -68 65 -68q52 0 80 53q14 29 26.5 91.5t12.5 99.5q0 68 -65 68z" />
    <glyph glyph-name="guilsinglleft" unicode="&#x2039;" horiz-adv-x="295" 
d="M63 271l178 158q3 3 6.5 1.5t2.5 -5.5l-2 -15q-1 -9 -9 -17l-142 -127q-4 -4 -2 -8l96 -127q5 -7 4 -17l-2 -13q0 -3 -2 -4.5t-4.5 -1t-3.5 2.5l-122 159q-6 8 2 14z" />
    <glyph glyph-name="guilsinglright" unicode="&#x203a;" horiz-adv-x="295" 
d="M124 429l122 -159q6 -8 -2 -14l-178 -158q-3 -3 -6.5 -1.5t-2.5 5.5l2 15q1 9 9 17l142 127q4 4 2 8l-96 127q-5 7 -4 17l2 13q0 3 2 4.5t4.5 1t3.5 -2.5z" />
    <glyph glyph-name="fraction" unicode="&#x2044;" horiz-adv-x="187" 
d="M362 690h9q11 0 4 -10l-496 -680q-9 -10 -16 -10h-9q-12 0 -4 10l497 680q7 10 15 10z" />
    <glyph glyph-name="zero.superior" unicode="&#x2070;" horiz-adv-x="310" 
d="M263 842q43 0 68 -24.5t25 -67.5q0 -32 -18 -129t-30 -123q-36 -74 -117 -74q-43 0 -68 24.5t-25 67.5q0 32 18 129t30 123q36 74 117 74zM260 818q-61 0 -91 -60q-13 -26 -29 -115t-16 -120q0 -75 70 -75q61 0 91 60q13 26 29 115t16 120q0 75 -70 75z" />
    <glyph glyph-name="four.superior" unicode="&#x2074;" horiz-adv-x="310" 
d="M284 836h11q4 0 5.5 -3t-1.5 -7l-185 -286v-1h134q6 0 7 6l19 108q2 10 11 10h7q9 0 7 -10l-18 -108q-1 -6 5 -6h42q10 0 8 -10l-1 -5q-1 -9 -10 -9h-44q-5 0 -7 -6l-12 -69q-2 -10 -11 -10h-7q-9 0 -7 10l12 69q1 6 -5 6h-155q-10 0 -8 10l1 5q1 5 7 14l182 282
q6 10 13 10z" />
    <glyph glyph-name="five.superior" unicode="&#x2075;" horiz-adv-x="310" 
d="M180 836h181q10 0 8 -10l-1 -5q-2 -9 -10 -9h-160q-6 0 -7 -6l-27 -148h1q26 39 84 39q39 0 62.5 -22t23.5 -61q0 -24 -8 -64.5t-17 -59.5q-32 -66 -118 -66q-59 0 -87 25q-4 4 -3 13l12 69q2 10 11 10h5q10 0 8 -10l-10 -58q-1 -7 3 -10q22 -15 65 -15q65 0 92 54
q8 16 15 52t7 55q0 64 -68 64q-56 0 -83 -49q-5 -10 -13 -10h-5q-10 0 -8 10l36 202q2 10 11 10z" />
    <glyph glyph-name="six.superior" unicode="&#x2076;" horiz-adv-x="310" 
d="M284 836h11q5 0 6 -3t-2 -7l-124 -175l1 -1q22 17 58 17q43 0 69.5 -26t26.5 -69q0 -63 -39 -105.5t-101 -42.5q-45 0 -71 26t-26 70q0 55 43 116l136 192q5 8 12 8zM229 643q-47 0 -79 -34.5t-32 -85.5q0 -35 20.5 -55t55.5 -20q47 0 79 34.5t32 85.5q0 35 -20.5 55
t-55.5 20z" />
    <glyph glyph-name="seven.superior" unicode="&#x2077;" horiz-adv-x="310" 
d="M170 836h197q10 0 8 -10l-1 -8q-1 -7 -6 -15l-214 -365q-5 -8 -13 -8h-9q-11 0 -4 11l218 370v1h-159q-5 0 -7 -6l-8 -41q-2 -10 -10 -10h-6q-10 0 -8 10l11 61q2 10 11 10z" />
    <glyph glyph-name="eight.superior" unicode="&#x2078;" horiz-adv-x="310" 
d="M263 842q40 0 66 -24t26 -62q0 -35 -20.5 -66t-53.5 -46v-2q21 -8 35 -29.5t14 -49.5q0 -60 -39.5 -99.5t-100.5 -39.5q-45 0 -72.5 25.5t-27.5 68.5q0 42 22.5 76.5t64.5 49.5v2q-41 20 -41 73q0 50 37 86.5t90 36.5zM259 818q-37 0 -67.5 -28.5t-30.5 -68.5
q0 -29 20 -47.5t51 -18.5q37 0 67.5 28.5t30.5 68.5q0 29 -20 47.5t-51 18.5zM226 631q-44 0 -77.5 -31.5t-33.5 -77.5q0 -34 21 -54t58 -20q44 0 77.5 31.5t33.5 77.5q0 34 -21 54t-58 20z" />
    <glyph glyph-name="nine.superior" unicode="&#x2079;" horiz-adv-x="310" 
d="M264 842q45 0 71 -26t26 -70q0 -55 -43 -116l-136 -192q-5 -8 -12 -8h-11q-5 0 -6 3t2 7l124 175l-1 1q-22 -17 -58 -17q-43 0 -69.5 26t-26.5 69q0 63 39 105.5t101 42.5zM260 818q-47 0 -79 -34.5t-32 -85.5q0 -35 20.5 -55t55.5 -20q47 0 79 34.5t32 85.5
q0 35 -20.5 55t-55.5 20z" />
    <glyph glyph-name="plussuperior" unicode="&#x207a;" horiz-adv-x="310" 
d="M215 741h6q9 0 9 -10v-92q0 -6 6 -6h91q10 0 10 -9v-5q0 -9 -10 -9h-91q-6 0 -6 -6v-92q0 -10 -9 -10h-6q-9 0 -9 10v92q0 6 -6 6h-91q-10 0 -10 9v5q0 9 10 9h91q6 0 6 6v92q0 10 9 10z" />
    <glyph glyph-name="uni207B" unicode="&#x207b;" horiz-adv-x="310" 
d="M109 633h218q10 0 10 -9v-5q0 -9 -10 -9h-218q-10 0 -10 9v5q0 9 10 9z" />
    <glyph glyph-name="equalsuperior" unicode="&#x207c;" horiz-adv-x="310" 
d="M109 678h218q10 0 10 -9v-5q0 -9 -10 -9h-218q-10 0 -10 9v5q0 9 10 9zM109 588h218q10 0 10 -9v-5q0 -9 -10 -9h-218q-10 0 -10 9v5q0 9 10 9z" />
    <glyph glyph-name="parenleftsuperior" unicode="&#x207d;" horiz-adv-x="168" 
d="M226 860h6q11 0 4 -10q-98 -136 -98 -302q0 -74 20 -132q3 -10 -7 -10h-5q-9 0 -12 10q-22 64 -22 133q0 161 99 301q7 10 15 10z" />
    <glyph glyph-name="parenrightsuperior" unicode="&#x207e;" horiz-adv-x="168" 
d="M143 860h5q9 0 12 -10q22 -64 22 -133q0 -161 -99 -301q-7 -10 -15 -10h-6q-11 0 -4 10q98 136 98 302q0 74 -20 132q-3 10 7 10z" />
    <glyph glyph-name="zero.inferior" unicode="&#x2080;" horiz-adv-x="310" 
d="M161 256q43 0 68 -24.5t25 -67.5q0 -32 -18 -129t-30 -123q-36 -74 -117 -74q-43 0 -68 24.5t-25 67.5q0 32 18 129t30 123q36 74 117 74zM158 232q-61 0 -91 -60q-13 -26 -29 -115t-16 -120q0 -75 70 -75q61 0 91 60q13 26 29 115t16 120q0 75 -70 75z" />
    <glyph glyph-name="one.inferior" unicode="&#x2081;" horiz-adv-x="310" 
d="M174 250h5q11 0 9 -10l-65 -366q-1 -6 5 -6h70q10 0 8 -10l-1 -5q-1 -9 -10 -9h-178q-10 0 -8 10l1 5q2 9 10 9h71q5 0 7 6l60 342h-1l-83 -51q-3 -1 -5 -1t-3 1.5t-1 4.5l1 8q1 9 9 14l83 52q9 6 16 6z" />
    <glyph glyph-name="two.inferior" unicode="&#x2082;" horiz-adv-x="310" 
d="M157 256q47 0 71.5 -23.5t24.5 -61.5q0 -60 -60 -122l-178 -180v-1h184q10 0 8 -10l-1 -4q-3 -10 -11 -10h-210q-10 0 -8 10l1 4q1 6 8 14l189 193q53 55 53 102q0 65 -72 65q-42 0 -72 -19q-4 -2 -5 -8l-8 -48q-2 -10 -10 -10h-6q-10 0 -8 10l11 61q1 8 9 13
q39 25 90 25z" />
    <glyph glyph-name="three.inferior" unicode="&#x2083;" horiz-adv-x="310" 
d="M151 256q45 0 71 -22.5t26 -61.5q0 -79 -73 -115v-1q47 -21 47 -84q0 -61 -37.5 -97.5t-96.5 -36.5q-56 0 -91 29q-4 4 -3 13l12 68q2 10 11 10h5q10 0 8 -10l-10 -57q-1 -7 3 -10q26 -19 69 -19q44 0 74.5 29.5t30.5 79.5q0 32 -20 52.5t-54 20.5h-16q-9 0 -7 10l1 5
q1 9 11 9h13q39 0 68.5 29.5t29.5 71.5q0 29 -20 46t-55 17q-39 0 -69 -19q-4 -2 -5 -8l-8 -48q-2 -10 -10 -10h-6q-10 0 -8 10l11 61q1 8 9 13q39 25 89 25z" />
    <glyph glyph-name="four.inferior" unicode="&#x2084;" horiz-adv-x="310" 
d="M182 250h11q4 0 5.5 -3t-1.5 -7l-185 -286v-1h134q6 0 7 6l19 108q2 10 11 10h7q9 0 7 -10l-18 -108q-1 -6 5 -6h42q10 0 8 -10l-1 -5q-1 -9 -10 -9h-44q-5 0 -7 -6l-12 -69q-2 -10 -11 -10h-7q-9 0 -7 10l12 69q1 6 -5 6h-155q-10 0 -8 10l1 5q1 5 7 14l182 282
q6 10 13 10z" />
    <glyph glyph-name="five.inferior" unicode="&#x2085;" horiz-adv-x="310" 
d="M78 250h181q10 0 8 -10l-1 -5q-2 -9 -10 -9h-160q-6 0 -7 -6l-27 -148h1q26 39 84 39q39 0 62.5 -22t23.5 -61q0 -24 -8 -64.5t-17 -59.5q-32 -66 -118 -66q-59 0 -87 25q-4 4 -3 13l12 69q2 10 11 10h5q10 0 8 -10l-10 -58q-1 -7 3 -10q23 -15 65 -15q65 0 92 54
q8 16 15 52t7 55q0 64 -68 64q-56 0 -83 -49q-5 -10 -13 -10h-5q-10 0 -8 10l36 202q2 10 11 10z" />
    <glyph glyph-name="six.inferior" unicode="&#x2086;" horiz-adv-x="310" 
d="M182 250h11q5 0 6 -3t-2 -7l-124 -175l1 -1q22 17 58 17q43 0 69.5 -26t26.5 -69q0 -63 -39 -105.5t-101 -42.5q-45 0 -71 26t-26 70q0 55 43 116l136 192q5 8 12 8zM127 57q-47 0 -79 -34.5t-32 -85.5q0 -35 20.5 -55t55.5 -20q47 0 79 34.5t32 85.5q0 35 -20.5 55
t-55.5 20z" />
    <glyph glyph-name="seven.inferior" unicode="&#x2087;" horiz-adv-x="310" 
d="M68 250h197q10 0 8 -10l-1 -8q-1 -7 -6 -15l-214 -365q-5 -8 -13 -8h-9q-11 0 -4 11l218 370v1h-159q-5 0 -7 -6l-8 -41q-2 -10 -10 -10h-6q-10 0 -8 10l11 61q2 10 11 10z" />
    <glyph glyph-name="eight.inferior" unicode="&#x2088;" horiz-adv-x="310" 
d="M161 256q40 0 66 -24t26 -62q0 -35 -20.5 -66t-53.5 -46v-2q21 -8 35 -29.5t14 -49.5q0 -60 -39.5 -99.5t-100.5 -39.5q-45 0 -72.5 25.5t-27.5 68.5q0 42 22.5 76.5t64.5 49.5v2q-41 20 -41 73q0 50 37 86.5t90 36.5zM157 232q-37 0 -67.5 -28.5t-30.5 -68.5
q0 -29 20 -47.5t51 -18.5q37 0 67.5 28.5t30.5 68.5q0 29 -20 47.5t-51 18.5zM124 45q-44 0 -77.5 -31.5t-33.5 -77.5q0 -34 21 -54t58 -20q44 0 77.5 31.5t33.5 77.5q0 34 -21 54t-58 20z" />
    <glyph glyph-name="nine.inferior" unicode="&#x2089;" horiz-adv-x="310" 
d="M162 256q45 0 71 -26t26 -70q0 -55 -43 -116l-136 -192q-5 -8 -12 -8h-11q-5 0 -6 3t2 7l124 175l-1 1q-22 -17 -58 -17q-43 0 -69.5 26t-26.5 69q0 63 39 105.5t101 42.5zM158 232q-47 0 -79 -34.5t-32 -85.5q0 -35 20.5 -55t55.5 -20q47 0 79 34.5t32 85.5
q0 35 -20.5 55t-55.5 20z" />
    <glyph glyph-name="uni208A" unicode="&#x208a;" horiz-adv-x="310" 
d="M112 155h6q9 0 9 -10v-92q0 -6 6 -6h91q10 0 10 -9v-5q0 -9 -10 -9h-91q-6 0 -6 -6v-92q0 -10 -9 -10h-6q-9 0 -9 10v92q0 6 -6 6h-91q-10 0 -10 9v5q0 9 10 9h91q6 0 6 6v92q0 10 9 10z" />
    <glyph glyph-name="uni208B" unicode="&#x208b;" horiz-adv-x="310" 
d="M6 47h218q10 0 10 -9v-5q0 -9 -10 -9h-218q-10 0 -10 9v5q0 9 10 9z" />
    <glyph glyph-name="uni208C" unicode="&#x208c;" horiz-adv-x="310" 
d="M6 92h218q10 0 10 -9v-5q0 -9 -10 -9h-218q-10 0 -10 9v5q0 9 10 9zM6 2h218q10 0 10 -9v-5q0 -9 -10 -9h-218q-10 0 -10 9v5q0 9 10 9z" />
    <glyph glyph-name="uni208D" unicode="&#x208d;" horiz-adv-x="168" 
d="M123 274h6q11 0 4 -10q-98 -136 -98 -302q0 -74 20 -132q3 -10 -7 -10h-5q-9 0 -12 10q-22 64 -22 133q0 161 99 301q7 10 15 10z" />
    <glyph glyph-name="uni208E" unicode="&#x208e;" horiz-adv-x="168" 
d="M40 274h5q9 0 12 -10q22 -64 22 -133q0 -161 -99 -301q-7 -10 -15 -10h-6q-11 0 -4 10q98 136 98 302q0 74 -20 132q-3 10 7 10z" />
    <glyph glyph-name="Euro" unicode="&#x20ac;" 
d="M377 690q37 0 72.5 -12.5t54.5 -29.5q4 -4 3 -12l-13 -76q-2 -10 -11 -10h-8q-10 0 -8 10l11 67q1 6 -2 9q-34 29 -103 29q-110 0 -157 -95q-25 -51 -41 -148q-1 -6 5 -6h207q10 0 8 -10l-1 -5q-2 -10 -12 -10h-207q-5 0 -7 -6l-14 -83q-2 -6 5 -6h177q10 0 8 -10l-1 -5
q-2 -10 -12 -10h-177q-6 0 -7 -6q-15 -95 -15 -121q0 -69 30.5 -99t96.5 -30q68 0 111 24q6 3 7 10l12 67q2 10 11 10h8q10 0 8 -10l-14 -79q-1 -8 -9 -14q-52 -33 -138 -33q-148 0 -148 148q0 41 15 127q2 6 -5 6h-49q-10 0 -8 10l1 5q2 10 12 10h48q5 0 7 6l15 83
q2 6 -4 6h-50q-10 0 -8 10l1 5q2 10 12 10h48q6 0 7 5q22 114 42 155q55 114 186 114z" />
    <glyph glyph-name="uni20B9" unicode="&#x20b9;" 
d="M165 680h348q10 0 8 -10l-1 -5q-2 -10 -12 -10h-165q51 -29 60 -86h91q10 0 8 -10l-1 -5q-2 -10 -12 -10h-83v-4q0 -105 -62 -160.5t-163 -55.5h-49l174 -294q4 -5 9 -5h60q10 0 8 -10l-1 -5q-1 -10 -12 -10h-71q-7 0 -13 9l-184 314q-4 7 -3 12l1 5q2 10 12 10h69
q92 0 145 48t53 139v7h-238q-10 0 -8 10l1 5q2 10 12 10h230q-20 86 -149 86h-67q-10 0 -8 10l1 5q2 10 12 10z" />
    <glyph glyph-name="uni20BA" unicode="&#x20ba;" 
d="M147 680h165q10 0 8 -10l-1 -5q-1 -10 -12 -10h-62q-6 0 -7 -6l-29 -167l223 104q4 2 7 0.5t2 -6.5l-2 -11q-1 -8 -12 -13l-224 -104l-17 -101l224 105q4 2 7 0.5t2 -6.5l-2 -11q-1 -8 -12 -13l-224 -105l-51 -289q-2 -6 4 -6q118 0 200 73.5t104 200.5q2 10 11 10h8
q10 0 8 -10q-24 -141 -114.5 -220.5t-223.5 -79.5h-99q-10 0 -8 10l1 5q2 10 12 10h62q5 0 7 6l48 276l-63 -29q-4 -2 -7 -0.5t-2 6.5l2 11q1 8 12 13l63 29l18 101l-64 -30q-4 -2 -7 -0.5t-2 6.5l2 11q1 8 12 13l64 30l32 181q2 6 -5 6h-63q-10 0 -8 10l1 5q1 10 12 10z
" />
    <glyph glyph-name="uni2113" unicode="&#x2113;" horiz-adv-x="324" 
d="M268 690q28 0 44.5 -22t16.5 -61q0 -141 -179 -306l-39 -223q-2 -12 -2 -21q0 -42 37 -42q31 0 66 35q7 7 13 0l3 -3q7 -7 0 -14q-41 -43 -85 -43q-61 0 -61 64q0 12 2 26l34 194l-35 -30q-8 -7 -13 1l-4 5q-5 8 3 14l55 47l39 218q15 88 40.5 124.5t64.5 36.5zM265 665
q-51 0 -75 -139l-33 -185q69 69 106.5 131.5t37.5 136.5q0 56 -36 56z" />
    <glyph glyph-name="published" unicode="&#x2117;" horiz-adv-x="833" 
d="M437 690q149 0 249.5 -100.5t100.5 -249.5t-100.5 -249.5t-249.5 -100.5t-249.5 100.5t-100.5 249.5t100.5 249.5t249.5 100.5zM437 665q-139 0 -231.5 -92.5t-92.5 -232.5t92.5 -232.5t231.5 -92.5q138 0 230.5 92.5t92.5 232.5t-92.5 232.5t-230.5 92.5zM310 532h169
q129 0 129 -109q0 -52 -32.5 -81t-96.5 -29h-98q-5 0 -5 -5v-133q0 -5 5 -5h39q9 0 9 -9v-4q0 -9 -9 -9h-110q-9 0 -9 9v4q0 9 9 9h36q5 0 5 5v330q0 5 -5 5h-36q-9 0 -9 9v4q0 9 9 9zM479 509h-98q-5 0 -5 -5v-163q0 -5 5 -5h98q104 0 104 88q0 85 -104 85z" />
    <glyph glyph-name="trademark" unicode="&#x2122;" horiz-adv-x="911" 
d="M87 680h283q10 0 10 -10v-60q0 -10 -10 -10h-5q-10 0 -10 10v41q0 6 -6 6h-102q-6 0 -6 -6v-336q0 -6 6 -6h35q10 0 10 -10v-3q0 -10 -10 -10h-107q-10 0 -10 10v3q0 10 10 10h35q6 0 6 6v336q0 6 -6 6h-102q-6 0 -6 -6v-41q0 -10 -10 -10h-5q-10 0 -10 10v60q0 10 10 10
zM796 680h58q10 0 10 -10v-5q0 -10 -10 -10h-35q-6 0 -6 -6v-334q0 -6 6 -6h35q10 0 10 -10v-3q0 -10 -10 -10h-107q-10 0 -10 10v3q0 10 10 10h35q6 0 6 6v304h-2l-127 -270q-4 -8 -11 -8h-8q-7 0 -11 8l-127 270h-2v-304q0 -6 6 -6h35q10 0 10 -10v-3q0 -10 -10 -10h-107
q-10 0 -10 10v3q0 10 10 10h35q6 0 6 6v336q0 6 -6 6h-35q-10 0 -10 10v3q0 10 10 10h58q8 0 12 -8l140 -299h2l138 299q4 8 12 8z" />
    <glyph glyph-name="Omega" unicode="&#x2126;" horiz-adv-x="580" 
d="M369 690q85 0 132 -49.5t47 -138.5q0 -59 -18 -162q-26 -147 -64 -213t-111 -100v-2h97q10 0 8 -10l-1 -5q-2 -10 -10 -10h-154q-10 0 -8 10l1 9q1 7 11 10q96 36 135.5 97.5t67.5 213.5q18 100 18 157q0 81 -39.5 124t-115.5 43q-135 0 -197 -128q-32 -69 -55 -196
q-17 -94 -17 -147q0 -68 25 -104t86 -60q9 -3 8 -10l-2 -9q-2 -10 -11 -10h-153q-10 0 -8 10l1 5q2 10 10 10h101l1 2q-44 23 -65 60.5t-21 99.5q0 53 18 153q24 139 55 202q72 148 228 148z" />
    <glyph glyph-name="estimated" unicode="&#x212e;" horiz-adv-x="830" 
d="M415 671q156 0 267 -99.5t111 -247.5h-608q-10 0 -10 -11v-197q47 -51 110 -78.5t130 -27.5q73 0 139 32.5t113 88.5h57q-56 -68 -138 -105t-171 -37q-100 0 -186 42.5t-139.5 121.5t-53.5 177q0 145 110.5 243t268.5 98zM415 650q-70 0 -133 -28.5t-107 -78.5v-185
q0 -11 10 -11h461q9 0 9 11v184q-44 51 -108 79.5t-132 28.5z" />
    <glyph glyph-name="partialdiff" unicode="&#x2202;" horiz-adv-x="515" 
d="M317 690q85 0 123.5 -63t38.5 -166q0 -76 -18.5 -163t-49.5 -150q-77 -158 -213 -158q-68 0 -106 45t-38 118q0 103 62.5 180.5t162.5 77.5q107 0 156 -105h1q17 87 17 154q0 96 -34.5 150.5t-105.5 54.5q-59 0 -125 -48q-7 -6 -11 3l-3 7q-3 8 6 14q68 49 137 49z
M280 386q-87 0 -143 -69t-56 -163q0 -64 33 -101.5t91 -37.5q79 0 136 68.5t85 184.5q-44 118 -146 118z" />
    <glyph glyph-name="Delta" unicode="&#x2206;" horiz-adv-x="567" 
d="M361 680h10q7 0 9 -10l112 -660q2 -10 -8 -10h-476q-11 0 -6 10l347 660q5 10 12 10zM358 631l-313 -599q-3 -6 4 -6h405q8 0 6 6l-100 599h-2z" />
    <glyph glyph-name="product" unicode="&#x220f;" horiz-adv-x="623" 
d="M54 740h553q10 0 10 -10v-4q0 -10 -10 -10h-64q-6 0 -6 -6v-880q0 -10 -10 -10h-7q-10 0 -10 10v880q0 6 -6 6h-347q-6 0 -6 -6v-880q0 -10 -10 -10h-7q-10 0 -10 10v880q0 6 -6 6h-64q-10 0 -10 10v4q0 10 10 10z" />
    <glyph glyph-name="summation" unicode="&#x2211;" horiz-adv-x="528" 
d="M106 740h393q10 0 10 -10v-98q0 -10 -10 -10h-6q-10 0 -10 10v77q0 6 -6 6h-350l197 -382q3 -7 0 -14l-202 -474h364q6 0 6 6v77q0 10 10 10h7q10 0 10 -10v-98q0 -10 -10 -10h-407q-10 0 -10 10v4q0 5 2 9l203 481l-198 388q-3 6 -3 11v7q0 10 10 10z" />
    <glyph glyph-name="minus" unicode="&#x2212;" 
d="M76 289h361q10 0 10 -10v-5q0 -10 -10 -10h-361q-10 0 -10 10v5q0 10 10 10z" />
    <glyph glyph-name="uni2215" unicode="&#x2215;" horiz-adv-x="187" 
d="M362 690h9q11 0 4 -10l-496 -680q-9 -10 -16 -10h-9q-12 0 -4 10l497 680q7 10 15 10z" />
    <glyph glyph-name="uni2219" unicode="&#x2219;" horiz-adv-x="195" 
d="M98 300h25q10 0 8 -10l-8 -48q-2 -10 -11 -10h-25q-10 0 -8 10l8 48q2 10 11 10z" />
    <glyph glyph-name="radical" unicode="&#x221a;" horiz-adv-x="583" 
d="M625 740h9q11 0 6 -10l-400 -900q-4 -10 -13 -10h-6q-8 0 -11 10l-92 319q-2 6 -8 3l-83 -38q-9 -5 -11 4l-2 7q-3 10 5 13l106 48q10 5 12 -4l90 -316h2l383 864q4 10 13 10z" />
    <glyph glyph-name="infinity" unicode="&#x221e;" horiz-adv-x="770" 
d="M573 401q67 0 107.5 -41.5t40.5 -111.5q0 -68 -41 -111.5t-107 -43.5q-48 0 -91.5 31.5t-96.5 99.5q-53 -68 -95.5 -99.5t-91.5 -31.5q-64 0 -105.5 43t-41.5 112t40.5 111t106.5 42q48 0 90.5 -31.5t96.5 -99.5q54 69 98 100t90 31zM198 376q-56 0 -88 -36t-32 -92
q0 -55 35 -92.5t85 -37.5q41 0 79 29.5t91 99.5q-54 71 -91.5 100t-78.5 29zM573 376q-42 0 -78.5 -29t-91.5 -100q57 -74 92.5 -101.5t77.5 -27.5q54 0 87.5 38.5t33.5 91.5q0 56 -32 92t-89 36z" />
    <glyph glyph-name="integral" unicode="&#x222b;" horiz-adv-x="341" 
d="M352 741q17 0 23 -1q8 -2 7 -10l-1 -5q-2 -12 -11 -10q-9 1 -22 1q-77 0 -100 -128l-107 -606q-15 -86 -46.5 -123t-86.5 -39q-17 0 -23 1q-8 2 -7 10l1 5q2 12 11 10q9 -1 22 -1q77 0 100 128l107 606q15 86 46.5 123t86.5 39z" />
    <glyph glyph-name="approxequal" unicode="&#x2248;" 
d="M170 419q42 0 95 -41q46 -34 78 -34q49 0 86 59q5 8 13 3l4 -2q8 -5 3 -14q-38 -70 -108 -70q-42 0 -95 41q-46 34 -78 34q-49 0 -86 -59q-5 -8 -13 -3l-4 2q-8 5 -3 14q38 70 108 70zM170 232q42 0 95 -41q46 -34 78 -34q49 0 86 59q5 8 13 3l4 -2q8 -5 3 -14
q-38 -70 -108 -70q-42 0 -95 41q-46 34 -78 34q-49 0 -86 -59q-5 -8 -13 -3l-4 2q-8 5 -3 14q38 70 108 70z" />
    <glyph glyph-name="notequal" unicode="&#x2260;" 
d="M390 495h8q4 0 5.5 -3.5t-0.5 -7.5l-62 -100h101q10 0 10 -10v-5q0 -10 -10 -10h-116l-102 -166h218q10 0 10 -10v-5q0 -10 -10 -10h-233l-62 -101q-6 -10 -14 -10h-8q-4 0 -5.5 3.5t0.5 7.5l61 100h-100q-10 0 -10 10v5q0 10 10 10h116l102 166h-218q-10 0 -10 10v5
q0 10 10 10h233l62 101q6 10 14 10z" />
    <glyph glyph-name="lessequal" unicode="&#x2264;" 
d="M77 290l361 146q10 3 10 -7v-7q0 -9 -10 -13l-332 -132v-2l332 -132q10 -4 10 -13v-7q0 -10 -10 -7l-361 146q-10 4 -10 12v4q0 8 10 12zM77 25h361q10 0 10 -10v-5q0 -10 -10 -10h-361q-10 0 -10 10v5q0 10 10 10z" />
    <glyph glyph-name="greaterequal" unicode="&#x2265;" 
d="M77 436l361 -146q10 -4 10 -12v-4q0 -8 -10 -12l-361 -146q-10 -3 -10 7v7q0 9 10 13l332 132v2l-332 132q-10 4 -10 13v7q0 10 10 7zM77 25h361q10 0 10 -10v-5q0 -10 -10 -10h-361q-10 0 -10 10v5q0 10 10 10z" />
    <glyph glyph-name="lozenge" unicode="&#x25ca;" horiz-adv-x="493" 
d="M328 710h7q6 0 9 -10l109 -364q1 -7 -3 -14l-237 -364q-7 -10 -13 -10h-7q-6 0 -9 10l-110 364q-1 7 3 14l238 364q7 10 13 10zM324 662l-219 -337l98 -331h2l218 338l-97 330h-2z" />
    <glyph glyph-name="uniF8FF" unicode="&#xf8ff;" horiz-adv-x="464" 
d="M10 680h444q10 0 10 -10v-660q0 -10 -10 -10h-444q-10 0 -10 10v660q0 10 10 10zM428 652h-392q-6 0 -6 -6v-612q0 -6 6 -6h392q6 0 6 6v612q0 6 -6 6zM224 561q53 0 83 -29.5t30 -76.5q0 -31 -10 -53t-34 -51l-31 -37q-15 -19 -19 -30t-4 -32v-25q0 -10 -10 -10h-8
q-10 0 -10 10v25q0 43 24 72l31 37q27 32 35 50.5t8 43.5q0 37 -23 58.5t-62 21.5q-40 0 -69 -19q-5 -4 -5 -11v-50q0 -10 -10 -10h-8q-10 0 -10 10v60q0 9 10 17q39 29 92 29zM215 161h19q10 0 10 -10v-28q0 -10 -10 -10h-19q-10 0 -10 10v28q0 10 10 10z" />
    <glyph glyph-name="Z.alt01" horiz-adv-x="518" 
d="M151 680h384q10 0 8 -10l-1 -7q-1 -7 -7 -14l-227 -290h117q10 0 8 -10l-1 -6q-2 -10 -11 -10h-133l-239 -306v-1h352q5 0 7 6l13 73q2 10 11 10h8q10 0 8 -10l-17 -95q-1 -10 -12 -10h-402q-10 0 -8 10l1 7q1 7 8 15l235 301h-104q-10 0 -8 10l1 6q2 10 11 10h121
l230 294v1h-335q-5 0 -7 -6l-12 -70q-2 -10 -11 -10h-8q-10 0 -8 10l16 92q1 10 12 10z" />
    <glyph glyph-name="Zacute.alt01" horiz-adv-x="518" 
d="M431 888h11q5 0 6 -3t-3 -7l-99 -102q-10 -10 -19 -10h-5q-12 0 -1 11l91 101q9 10 19 10zM151 680h384q10 0 8 -10l-1 -7q-1 -7 -7 -14l-227 -290h117q10 0 8 -10l-1 -6q-2 -10 -11 -10h-133l-239 -306v-1h352q5 0 7 6l13 73q2 10 11 10h8q10 0 8 -10l-17 -95
q-1 -10 -12 -10h-402q-10 0 -8 10l1 7q1 7 8 15l235 301h-104q-10 0 -8 10l1 6q2 10 11 10h121l230 294v1h-335q-5 0 -7 -6l-12 -70q-2 -10 -11 -10h-8q-10 0 -8 10l16 92q1 10 12 10z" />
    <glyph glyph-name="Zcaron.alt01" horiz-adv-x="518" 
d="M468 895h5q4 0 5 -3t-3 -7l-103 -120q-8 -9 -16 -9h-5q-7 0 -12 9l-62 120q-6 10 4 10h4q9 0 14 -9l56 -104h2l94 104q8 9 17 9zM151 680h384q10 0 8 -10l-1 -7q-1 -7 -7 -14l-227 -290h117q10 0 8 -10l-1 -6q-2 -10 -11 -10h-133l-239 -306v-1h352q5 0 7 6l13 73
q2 10 11 10h8q10 0 8 -10l-17 -95q-1 -10 -12 -10h-402q-10 0 -8 10l1 7q1 7 8 15l235 301h-104q-10 0 -8 10l1 6q2 10 11 10h121l230 294v1h-335q-5 0 -7 -6l-12 -70q-2 -10 -11 -10h-8q-10 0 -8 10l16 92q1 10 12 10z" />
    <glyph glyph-name="Zdotaccent.alt01" horiz-adv-x="518" 
d="M361 854h22q10 0 8 -10l-7 -38q-2 -10 -11 -10h-22q-10 0 -8 10l7 38q2 10 11 10zM151 680h384q10 0 8 -10l-1 -7q-1 -7 -7 -14l-227 -290h117q10 0 8 -10l-1 -6q-2 -10 -11 -10h-133l-239 -306v-1h352q5 0 7 6l13 73q2 10 11 10h8q10 0 8 -10l-17 -95q-1 -10 -12 -10
h-402q-10 0 -8 10l1 7q1 7 8 15l235 301h-104q-10 0 -8 10l1 6q2 10 11 10h121l230 294v1h-335q-5 0 -7 -6l-12 -70q-2 -10 -11 -10h-8q-10 0 -8 10l16 92q1 10 12 10z" />
    <glyph glyph-name="a.alt01" horiz-adv-x="528" 
d="M278 484q52 0 85 -25.5t46 -66.5h1l12 72q2 10 11 10h85q10 0 8 -10l-1 -5q-1 -10 -12 -10h-61q-6 0 -7 -7l-72 -410q-1 -7 5 -7h61q10 0 8 -10l-1 -5q-1 -10 -12 -10h-84q-10 0 -8 10l12 67h-1q-56 -87 -159 -87q-68 0 -103 40t-35 113q0 58 16 126t33 102
q54 113 173 113zM276 459q-100 0 -147 -98q-21 -41 -33.5 -104t-12.5 -113q0 -129 116 -129q102 0 154 106q11 22 26 97.5t15 117.5q0 55 -31 89t-87 34z" />
    <glyph glyph-name="aacute.alt01" horiz-adv-x="528" 
d="M393 700h11q4 0 5.5 -3t-1.5 -7l-102 -120q-9 -10 -18 -10h-4q-11 0 -3 10l94 120q8 10 18 10zM278 484q52 0 85 -25.5t46 -66.5h1l12 72q2 10 11 10h85q10 0 8 -10l-1 -5q-1 -10 -12 -10h-61q-6 0 -7 -7l-72 -410q-1 -7 5 -7h61q10 0 8 -10l-1 -5q-1 -10 -12 -10h-84
q-10 0 -8 10l12 67h-1q-56 -87 -159 -87q-68 0 -103 40t-35 113q0 58 16 126t33 102q54 113 173 113zM276 459q-100 0 -147 -98q-21 -41 -33.5 -104t-12.5 -113q0 -129 116 -129q102 0 154 106q11 22 26 97.5t15 117.5q0 55 -31 89t-87 34z" />
    <glyph glyph-name="abreve.alt01" horiz-adv-x="528" 
d="M419 683h5q10 0 7 -10q-15 -43 -48.5 -68t-76.5 -25t-68 25t-27 68q0 10 10 10h4q10 0 10 -10q5 -69 74 -69q32 0 57.5 18.5t39.5 50.5q5 10 13 10zM278 484q52 0 85 -25.5t46 -66.5h1l12 72q2 10 11 10h85q10 0 8 -10l-1 -5q-1 -10 -12 -10h-61q-6 0 -7 -7l-72 -410
q-1 -7 5 -7h61q10 0 8 -10l-1 -5q-1 -10 -12 -10h-84q-10 0 -8 10l12 67h-1q-56 -87 -159 -87q-68 0 -103 40t-35 113q0 58 16 126t33 102q54 113 173 113zM276 459q-100 0 -147 -98q-21 -41 -33.5 -104t-12.5 -113q0 -129 116 -129q102 0 154 106q11 22 26 97.5t15 117.5
q0 55 -31 89t-87 34z" />
    <glyph glyph-name="acircumflex.alt01" horiz-adv-x="528" 
d="M322 700h5q7 0 12 -9l62 -120q6 -10 -4 -10h-4q-9 0 -14 9l-56 104h-2l-94 -104q-8 -9 -17 -9h-5q-4 0 -5 3t3 7l103 120q8 9 16 9zM278 484q52 0 85 -25.5t46 -66.5h1l12 72q2 10 11 10h85q10 0 8 -10l-1 -5q-1 -10 -12 -10h-61q-6 0 -7 -7l-72 -410q-1 -7 5 -7h61
q10 0 8 -10l-1 -5q-1 -10 -12 -10h-84q-10 0 -8 10l12 67h-1q-56 -87 -159 -87q-68 0 -103 40t-35 113q0 58 16 126t33 102q54 113 173 113zM276 459q-100 0 -147 -98q-21 -41 -33.5 -104t-12.5 -113q0 -129 116 -129q102 0 154 106q11 22 26 97.5t15 117.5q0 55 -31 89
t-87 34z" />
    <glyph glyph-name="adieresis.alt01" horiz-adv-x="528" 
d="M209 680h22q10 0 8 -10l-7 -38q-2 -10 -11 -10h-22q-10 0 -8 10l7 38q2 10 11 10zM402 680h22q10 0 8 -10l-7 -38q-2 -10 -11 -10h-22q-10 0 -8 10l7 38q2 10 11 10zM278 484q52 0 85 -25.5t46 -66.5h1l12 72q2 10 11 10h85q10 0 8 -10l-1 -5q-1 -10 -12 -10h-61
q-6 0 -7 -7l-72 -410q-1 -7 5 -7h61q10 0 8 -10l-1 -5q-1 -10 -12 -10h-84q-10 0 -8 10l12 67h-1q-56 -87 -159 -87q-68 0 -103 40t-35 113q0 58 16 126t33 102q54 113 173 113zM276 459q-100 0 -147 -98q-21 -41 -33.5 -104t-12.5 -113q0 -129 116 -129q102 0 154 106
q11 22 26 97.5t15 117.5q0 55 -31 89t-87 34z" />
    <glyph glyph-name="agrave.alt01" horiz-adv-x="528" 
d="M219 700h9q9 0 13 -10l54 -120q5 -10 -7 -10h-2q-9 0 -15 10l-59 120q-2 4 0 7t7 3zM278 484q52 0 85 -25.5t46 -66.5h1l12 72q2 10 11 10h85q10 0 8 -10l-1 -5q-1 -10 -12 -10h-61q-6 0 -7 -7l-72 -410q-1 -7 5 -7h61q10 0 8 -10l-1 -5q-1 -10 -12 -10h-84q-10 0 -8 10
l12 67h-1q-56 -87 -159 -87q-68 0 -103 40t-35 113q0 58 16 126t33 102q54 113 173 113zM276 459q-100 0 -147 -98q-21 -41 -33.5 -104t-12.5 -113q0 -129 116 -129q102 0 154 106q11 22 26 97.5t15 117.5q0 55 -31 89t-87 34z" />
    <glyph glyph-name="amacron.alt01" horiz-adv-x="528" 
d="M195 662h225q10 0 8 -10l-1 -5q-1 -10 -11 -10h-225q-10 0 -8 10l1 5q1 10 11 10zM278 484q52 0 85 -25.5t46 -66.5h1l12 72q2 10 11 10h85q10 0 8 -10l-1 -5q-1 -10 -12 -10h-61q-6 0 -7 -7l-72 -410q-1 -7 5 -7h61q10 0 8 -10l-1 -5q-1 -10 -12 -10h-84q-10 0 -8 10
l12 67h-1q-56 -87 -159 -87q-68 0 -103 40t-35 113q0 58 16 126t33 102q54 113 173 113zM276 459q-100 0 -147 -98q-21 -41 -33.5 -104t-12.5 -113q0 -129 116 -129q102 0 154 106q11 22 26 97.5t15 117.5q0 55 -31 89t-87 34z" />
    <glyph glyph-name="aogonek.alt01" horiz-adv-x="528" 
d="M278 484q52 0 85 -25.5t46 -66.5h1l12 72q2 10 11 10h85q10 0 8 -10l-1 -5q-1 -10 -12 -10h-61q-6 0 -7 -7l-72 -410q-1 -7 5 -7h61q10 0 8 -10l-1 -5q-1 -10 -12 -10h-69q-59 -43 -79.5 -67t-20.5 -44q0 -25 26 -25q14 0 31 11q7 5 11 -2l3 -6q2 -6 -6 -13
q-19 -15 -45 -15q-21 0 -34 12.5t-13 33.5q0 32 26 60t77 61l13 71h-1q-56 -87 -159 -87q-68 0 -103 40t-35 113q0 58 16 126t33 102q54 113 173 113zM276 459q-100 0 -147 -98q-21 -41 -33.5 -104t-12.5 -113q0 -129 116 -129q102 0 154 106q11 22 26 97.5t15 117.5
q0 55 -31 89t-87 34z" />
    <glyph glyph-name="aring.alt01" horiz-adv-x="528" 
d="M322 710q29 0 47.5 -19t18.5 -48q0 -40 -27 -67.5t-68 -27.5q-29 0 -47.5 19t-18.5 48q0 40 27 67.5t68 27.5zM317 688q-27 0 -46.5 -20.5t-19.5 -49.5q0 -21 12.5 -34.5t34.5 -13.5q27 0 46.5 20.5t19.5 49.5q0 21 -12.5 34.5t-34.5 13.5zM278 484q52 0 85 -25.5
t46 -66.5h1l12 72q2 10 11 10h85q10 0 8 -10l-1 -5q-1 -10 -12 -10h-61q-6 0 -7 -7l-72 -410q-1 -7 5 -7h61q10 0 8 -10l-1 -5q-1 -10 -12 -10h-84q-10 0 -8 10l12 67h-1q-56 -87 -159 -87q-68 0 -103 40t-35 113q0 58 16 126t33 102q54 113 173 113zM276 459
q-100 0 -147 -98q-21 -41 -33.5 -104t-12.5 -113q0 -129 116 -129q102 0 154 106q11 22 26 97.5t15 117.5q0 55 -31 89t-87 34z" />
    <glyph glyph-name="atilde.alt01" horiz-adv-x="528" 
d="M264 677q25 0 51 -21q23 -18 41 -18q24 0 58 34q3 3 6 2t2 -5l-2 -14q-2 -8 -9 -14q-28 -26 -60 -26q-25 0 -51 21q-23 18 -41 18q-24 0 -58 -34q-3 -3 -6 -2t-2 5l2 14q2 8 9 14q28 26 60 26zM278 484q52 0 85 -25.5t46 -66.5h1l12 72q2 10 11 10h85q10 0 8 -10l-1 -5
q-1 -10 -12 -10h-61q-6 0 -7 -7l-72 -410q-1 -7 5 -7h61q10 0 8 -10l-1 -5q-1 -10 -12 -10h-84q-10 0 -8 10l12 67h-1q-56 -87 -159 -87q-68 0 -103 40t-35 113q0 58 16 126t33 102q54 113 173 113zM276 459q-100 0 -147 -98q-21 -41 -33.5 -104t-12.5 -113q0 -129 116 -129
q102 0 154 106q11 22 26 97.5t15 117.5q0 55 -31 89t-87 34z" />
    <glyph glyph-name="germandbls.alt01" horiz-adv-x="517" 
d="M292 680h20q10 0 8 -10l-1 -5q-2 -10 -11 -10h-18q-56 0 -76.5 -19t-32.5 -84l-13 -72q-2 -6 5 -6h299q10 0 8 -10l-1 -6q-1 -8 -7 -15l-169 -188v-2q116 -37 116 -161q0 -112 -72.5 -192t-190.5 -80q-10 0 -8 10l1 5q2 10 11 10q99 0 165.5 70t66.5 175q0 119 -114 143
q-11 2 -9 11l1 6q1 5 9 15l162 182v2h-273q-4 0 -6 -6l-72 -412q-2 -6 5 -6h61q10 0 8 -10l-1 -5q-1 -10 -12 -10h-160q-10 0 -8 10l1 5q1 10 12 10h60q6 0 7 6l90 514q15 84 43 109.5t96 25.5z" />
    <glyph glyph-name="f_i" horiz-adv-x="575" 
d="M317 680h20q10 0 8 -10l-1 -5q-1 -10 -12 -10h-17q-56 0 -76.5 -19t-32.5 -84l-13 -72q-1 -6 5 -6h103q10 0 8 -10l-1 -5q-1 -10 -12 -10h-103q-5 0 -6 -6l-73 -412q-2 -6 5 -6h71q10 0 8 -10l-1 -5q-1 -10 -12 -10h-172q-10 0 -8 10l1 5q1 10 12 10h62q6 0 7 6l73 412
q2 6 -5 6h-56q-10 0 -8 10l1 5q1 10 12 10h56q6 0 7 6l11 65q14 83 42.5 109t96.5 26zM512 680h22q9 0 7 -10l-7 -38q-1 -10 -12 -10h-20q-10 0 -8 10l7 38q2 10 11 10zM407 474h83q10 0 8 -10l-76 -433q-2 -6 5 -6h61q10 0 8 -10l-1 -5q-1 -10 -12 -10h-160q-10 0 -8 10
l1 5q1 10 12 10h60q6 0 7 6l72 412q1 6 -5 6h-60q-10 0 -8 10l1 5q1 10 12 10z" />
    <glyph glyph-name="f_l" horiz-adv-x="554" 
d="M317 680h20q10 0 8 -10l-1 -5q-1 -10 -12 -10h-17q-56 0 -76.5 -19t-32.5 -84l-13 -72q-1 -6 5 -6h103q10 0 8 -10l-1 -5q-1 -10 -12 -10h-103q-5 0 -6 -6l-73 -412q-2 -6 5 -6h71q10 0 8 -10l-1 -5q-1 -10 -12 -10h-172q-10 0 -8 10l1 5q1 10 12 10h62q6 0 7 6l73 412
q2 6 -5 6h-56q-10 0 -8 10l1 5q1 10 12 10h56q6 0 7 6l11 65q14 83 42.5 109t96.5 26zM420 680h83q10 0 8 -10l-105 -575q-3 -19 -3 -32q0 -22 10 -31t33 -9h14q10 0 8 -10l-1 -5q-1 -10 -12 -10h-13q-66 0 -66 64q0 14 4 40l100 546q1 7 -5 7h-60q-10 0 -8 10l1 5
q1 10 12 10z" />
    <glyph glyph-name="zero.alt01" 
d="M335 690q66 0 103 -38.5t37 -103.5q0 -71 -30.5 -232t-53.5 -209q-56 -117 -179 -117q-66 0 -103 38.5t-37 103.5q0 71 30.5 232t53.5 209q56 117 179 117zM331 665q-101 0 -150 -101q-23 -48 -52.5 -206t-29.5 -222q0 -19 3 -35l333 506q-27 58 -104 58zM445 579
l-334 -507q27 -57 105 -57q101 0 150 101q23 48 52.5 206t29.5 222q0 18 -3 35z" />
    <glyph glyph-name="six.alt01" 
d="M352 690q71 0 120 -29q6 -4 5 -11l-17 -96q-2 -10 -11 -10h-8q-10 0 -8 10l15 83q1 6 -4 9q-38 19 -95 19q-154 0 -184 -182l-21 -123h1q55 84 155 84q67 0 103.5 -37.5t36.5 -103.5q0 -41 -11.5 -101.5t-29.5 -98.5q-55 -113 -178 -113q-64 0 -101 35.5t-37 101.5
q0 33 10 92l46 263q19 107 71.5 157.5t141.5 50.5zM297 419q-49 0 -89 -26t-63 -71q-14 -27 -25 -89.5t-11 -100.5q0 -55 30.5 -86t86.5 -31q102 0 150 98q16 32 27 90t11 99q0 53 -30 85t-87 32z" />
    <glyph glyph-name="seven.alt01" 
d="M170 680h314q10 0 8 -10l-2 -11q-2 -7 -5 -12l-152 -274h73q10 0 8 -10l-1 -6q-1 -9 -12 -9h-82l-188 -339q-5 -9 -14 -9h-10q-10 0 -4 11l187 337h-113q-10 0 -8 10l1 6q2 9 12 9h122l156 280v2h-271q-5 0 -7 -6l-18 -103q-2 -10 -12 -10h-7q-10 0 -8 10l22 124
q2 10 11 10z" />
    <glyph glyph-name="nine.alt01" 
d="M329 690q64 0 101 -35.5t37 -101.5q0 -33 -10 -92l-46 -263q-19 -107 -72 -157.5t-143 -50.5q-72 0 -127 29q-6 3 -4 12l17 95q2 10 11 10h8q10 0 8 -10l-15 -83q-1 -6 4 -9q38 -19 101 -19q156 0 186 182l21 123h-1q-55 -84 -155 -84q-67 0 -103.5 37.5t-36.5 103.5
q0 41 11.5 101.5t29.5 98.5q55 113 178 113zM324 665q-102 0 -150 -98q-16 -32 -27 -90t-11 -99q0 -53 30 -85t87 -32q49 0 89 26t63 71q14 27 25 89.5t11 100.5q0 55 -30.5 86t-86.5 31z" />
    <glyph glyph-name="zero.alt02" horiz-adv-x="451" 
d="M327 690q66 0 103 -38.5t37 -103.5q0 -71 -30.5 -232t-53.5 -209q-56 -117 -179 -117q-66 0 -103 38.5t-37 103.5q0 71 30.5 232t53.5 209q56 117 179 117zM323 665q-101 0 -150 -101q-23 -48 -52.5 -206t-29.5 -222q0 -19 3 -35l333 506q-27 58 -104 58zM437 579
l-334 -507q27 -57 105 -57q101 0 150 101q23 48 52.5 206t29.5 222q0 18 -3 35z" />
    <glyph glyph-name="six.alt02" horiz-adv-x="432" 
d="M328 690q71 0 120 -29q6 -4 5 -11l-17 -96q-2 -10 -11 -10h-8q-10 0 -8 10l15 83q1 6 -4 9q-38 19 -95 19q-154 0 -184 -182l-21 -123h1q55 84 155 84q67 0 103.5 -37.5t36.5 -103.5q0 -41 -11.5 -101.5t-29.5 -98.5q-55 -113 -178 -113q-64 0 -101 35.5t-37 101.5
q0 33 10 92l46 263q19 107 71.5 157.5t141.5 50.5zM273 419q-49 0 -89 -26t-63 -71q-14 -27 -25 -89.5t-11 -100.5q0 -55 30.5 -86t86.5 -31q102 0 150 98q16 32 27 90t11 99q0 53 -30 85t-87 32z" />
    <glyph glyph-name="seven.alt02" horiz-adv-x="370" 
d="M157 680h314q10 0 8 -10l-2 -11q-2 -7 -5 -12l-152 -274h73q10 0 8 -10l-1 -6q-2 -9 -12 -9h-82l-188 -339q-5 -9 -14 -9h-10q-10 0 -4 11l187 337h-113q-10 0 -8 10l1 6q1 9 12 9h122l156 280v2h-271q-6 0 -7 -6l-18 -103q-2 -10 -12 -10h-7q-10 0 -8 10l22 124
q2 10 11 10z" />
    <glyph glyph-name="nine.alt02" horiz-adv-x="424" 
d="M307 690q64 0 101 -35.5t37 -101.5q0 -33 -10 -92l-46 -263q-19 -107 -72 -157.5t-143 -50.5q-72 0 -127 29q-6 3 -4 12l17 95q2 10 11 10h8q10 0 8 -10l-15 -83q-1 -6 4 -9q38 -19 101 -19q156 0 186 182l21 123h-1q-55 -84 -155 -84q-67 0 -103.5 37.5t-36.5 103.5
q0 41 11.5 101.5t29.5 98.5q55 113 178 113zM302 665q-102 0 -150 -98q-16 -32 -27 -90t-11 -99q0 -53 30 -85t87 -32q49 0 89 26t63 71q14 27 25 89.5t11 100.5q0 55 -30.5 86t-86.5 31z" />
    <glyph glyph-name="zero.lf" horiz-adv-x="451" 
d="M327 690q66 0 103 -38.5t37 -103.5q0 -71 -30.5 -232t-53.5 -209q-56 -117 -179 -117q-66 0 -103 38.5t-37 103.5q0 71 30.5 232t53.5 209q56 117 179 117zM323 665q-101 0 -150 -101q-23 -48 -52.5 -206t-29.5 -222q0 -57 29.5 -89t87.5 -32q101 0 150 101
q23 48 52.5 206t29.5 222q0 57 -29.5 89t-87.5 32z" />
    <glyph glyph-name="one.lf" horiz-adv-x="365" 
d="M239 680h7q11 0 9 -10l-112 -639q-1 -6 4 -6h116q10 0 8 -10l-1 -5q-1 -10 -12 -10h-269q-10 0 -8 10l1 5q1 10 12 10h115q5 0 7 6l107 610h-2l-142 -95q-5 -3 -8 -1t-2 7l2 13q1 8 8 12l145 97q9 6 15 6z" />
    <glyph glyph-name="two.lf" horiz-adv-x="374" 
d="M254 690q68 0 107 -40t39 -104q0 -52 -24 -97t-77 -104l-283 -319v-1h271q5 0 7 6l12 73q2 10 11 10h8q10 0 8 -10l-16 -94q-2 -10 -11 -10h-324q-8 0 -8 9v2q0 6 7 13l303 343q47 53 68.5 94t21.5 83q0 55 -32.5 88t-90.5 33q-72 0 -126 -39q-5 -4 -6 -8l-14 -83
q-2 -10 -12 -10h-7q-10 0 -8 10l17 95q1 8 9 13q69 47 150 47z" />
    <glyph glyph-name="three.lf" horiz-adv-x="409" 
d="M267 690q73 0 113 -38.5t40 -104.5q0 -68 -35 -117t-93 -74v-2q37 -15 59 -51t22 -84q0 -99 -58 -164t-153 -65q-89 0 -152 44q-5 3 -3 13l17 95q2 10 11 10h8q10 0 8 -10l-15 -85q-1 -6 3 -9q56 -33 126 -33q79 0 130 57t51 142q0 58 -33 94t-91 36h-30q-9 0 -7 10l1 6
q2 9 10 9h30q69 0 118.5 51.5t49.5 123.5q0 57 -33.5 89t-96.5 32q-69 0 -120 -35q-5 -4 -6 -8l-14 -83q-2 -10 -12 -10h-7q-10 0 -8 10l17 95q1 8 9 13q63 43 144 43z" />
    <glyph glyph-name="four.lf" horiz-adv-x="482" 
d="M341 680h10q10 0 5 -9l-300 -492v-1h226q6 0 7 6l34 196q2 10 11 10h8q10 0 8 -10l-34 -196q-2 -6 5 -6h82q10 0 8 -10l-1 -6q-2 -9 -12 -9h-82q-6 0 -7 -6l-24 -137q-2 -10 -11 -10h-8q-10 0 -8 10l25 137q1 6 -5 6h-249q-9 0 -8 9l1 5q2 6 4 10l301 495q5 8 14 8z" />
    <glyph glyph-name="five.lf" horiz-adv-x="379" 
d="M143 680h286q11 0 9 -10l-1 -5q-2 -10 -12 -10h-264q-5 0 -7 -6l-48 -276h1q47 71 140 71q63 0 97 -35.5t34 -104.5q0 -43 -12 -105.5t-32 -103.5q-52 -105 -176 -105q-83 0 -138 39q-5 3 -3 13l17 98q2 10 11 10h8q10 0 8 -10l-15 -88q-1 -6 3 -9q38 -28 112 -28
q104 0 149 91q18 36 29.5 94t11.5 98q0 121 -107 121q-51 0 -90 -29t-57 -72q-5 -10 -12 -10h-7q-10 0 -8 10l62 352q2 10 11 10z" />
    <glyph glyph-name="six.lf" horiz-adv-x="463" 
d="M333 680h11q12 0 5 -9l-204 -306l2 -1q38 31 103 31q71 0 112 -43.5t41 -115.5q0 -97 -61 -171.5t-158 -74.5q-71 0 -112.5 43t-41.5 119q0 85 70 191l219 329q5 8 14 8zM247 370q-82 0 -136 -65.5t-54 -152.5q0 -62 34.5 -99.5t93.5 -37.5q82 0 136.5 65.5t54.5 152.5
q0 62 -34.5 99.5t-94.5 37.5z" />
    <glyph glyph-name="seven.lf" horiz-adv-x="373" 
d="M170 680h314q10 0 8 -10l-2 -11q-2 -7 -5 -12l-354 -638q-5 -9 -14 -9h-10q-10 0 -4 11l357 642v2h-271q-5 0 -7 -6l-18 -103q-2 -10 -12 -10h-7q-10 0 -8 10l22 124q2 10 11 10z" />
    <glyph glyph-name="eight.lf" horiz-adv-x="436" 
d="M310 690q63 0 101 -38t38 -100q0 -66 -34.5 -118.5t-92.5 -74.5v-2q40 -18 63 -53.5t23 -84.5q0 -96 -63 -162.5t-158 -66.5q-69 0 -111 42t-42 110q0 73 40 132.5t109 86.5v2q-70 34 -70 122q0 83 54.5 144t142.5 61zM306 665q-71 0 -119 -51.5t-48 -125.5
q0 -52 32 -84.5t85 -32.5q71 0 119 51.5t48 125.5q0 52 -32 84.5t-85 32.5zM250 346q-77 0 -133.5 -58.5t-56.5 -140.5q0 -59 35.5 -95.5t96.5 -36.5q78 0 134 58t56 141q0 59 -35.5 95.5t-96.5 36.5z" />
    <glyph glyph-name="nine.lf" horiz-adv-x="464" 
d="M352 690q71 0 112.5 -43t41.5 -119q0 -85 -70 -191l-219 -329q-5 -8 -14 -8h-11q-12 0 -5 9l204 306l-2 1q-38 -31 -103 -31q-71 0 -112 43.5t-41 115.5q0 97 61 171.5t158 74.5zM351 665q-82 0 -136.5 -65.5t-54.5 -152.5q0 -62 34.5 -99.5t94.5 -37.5q82 0 136 65.5
t54 152.5q0 62 -34.5 99.5t-93.5 37.5z" />
    <glyph glyph-name="zero.osf" horiz-adv-x="551" 
d="M323 484q85 0 134.5 -54.5t49.5 -141.5q0 -121 -75.5 -209.5t-195.5 -88.5q-85 0 -134.5 54.5t-49.5 141.5q0 121 75.5 209.5t195.5 88.5zM319 459q-102 0 -171 -80.5t-69 -188.5q0 -78 42.5 -126.5t118.5 -48.5q102 0 171 80.5t69 188.5q0 78 -42.5 126.5t-118.5 48.5z
" />
    <glyph glyph-name="one.osf" horiz-adv-x="367" 
d="M212 474h8q10 0 8 -10l-76 -433q-2 -6 4 -6h136q10 0 8 -10l-1 -5q-1 -10 -12 -10h-309q-10 0 -8 10l1 5q1 10 12 10h135q6 0 7 6l72 410h-2l-151 -68q-4 -2 -7 0t-2 7l1 9q2 9 10 13l151 68q8 4 15 4z" />
    <glyph glyph-name="two.osf" horiz-adv-x="424" 
d="M238 484q72 0 110.5 -36.5t38.5 -95.5q0 -63 -36.5 -113.5t-125.5 -103.5l-182 -109v-1h278q10 0 8 -10l-1 -5q-2 -10 -12 -10h-320q-9 0 -9 9v2q0 7 8 12l218 133q82 50 115 94.5t33 100.5q0 50 -31 79t-94 29q-75 0 -129 -39q-5 -3 -6 -9l-14 -85q-2 -10 -12 -10h-7
q-10 0 -8 10l17 97q2 8 9 14q63 47 152 47z" />
    <glyph glyph-name="three.osf" horiz-adv-x="382" 
d="M54 474h312q10 0 8 -9l-1 -6q-1 -6 -7 -13l-209 -240v-2q76 1 116 -38t40 -110q0 -99 -60.5 -172.5t-161.5 -73.5q-86 0 -148 43q-5 3 -3 13l17 95q2 10 11 10h8q10 0 8 -10l-15 -85q-1 -6 3 -9q54 -32 122 -32q86 0 139.5 64.5t53.5 151.5q0 130 -138 130h-22
q-10 0 -8 10l1 5q2 6 9 15l205 236v2h-261q-5 0 -7 -6l-18 -103q-2 -10 -12 -10h-7q-10 0 -8 10l22 124q2 10 11 10z" />
    <glyph glyph-name="four.osf" horiz-adv-x="480" 
d="M268 474h10q10 0 5 -9l-272 -438v-2h226q5 0 7 6l34 196q2 10 11 10h8q10 0 8 -10l-34 -196q-1 -6 5 -6h82q10 0 8 -10l-1 -5q-2 -10 -10 -10h-83q-6 0 -8 -6l-29 -164q-2 -10 -12 -10h-7q-10 0 -8 10l29 164q1 6 -4 6h-251q-10 0 -8 10l1 5q1 5 4 9l275 442q5 8 14 8z
" />
    <glyph glyph-name="five.osf" horiz-adv-x="370" 
d="M81 474h286q11 0 9 -10l-1 -5q-2 -10 -12 -10h-264q-5 0 -7 -6l-48 -272h1q47 75 141 75q63 0 97 -35.5t34 -104.5q0 -116 -37 -191q-52 -105 -180 -105q-89 0 -138 37q-5 3 -3 13l17 99q2 10 11 10h8q10 0 8 -10l-15 -89q-1 -6 3 -9q37 -26 111 -26q109 0 154 91
q34 69 34 174q0 121 -107 121q-51 0 -90 -29t-57 -72q-5 -10 -12 -10h-7q-10 0 -8 10l61 344q2 10 11 10z" />
    <glyph glyph-name="six.osf" horiz-adv-x="462" 
d="M333 680h11q12 0 5 -9l-204 -306l2 -1q38 31 103 31q71 0 112 -43.5t41 -115.5q0 -97 -61 -171.5t-158 -74.5q-71 0 -112.5 43t-41.5 119q0 85 70 191l219 329q5 8 14 8zM247 370q-82 0 -136 -65.5t-54 -152.5q0 -62 34.5 -99.5t93.5 -37.5q82 0 136.5 65.5t54.5 152.5
q0 62 -34.5 99.5t-94.5 37.5z" />
    <glyph glyph-name="seven.osf" horiz-adv-x="375" 
d="M98 474h314q10 0 8 -10l-2 -11q-2 -7 -5 -12l-340 -612q-5 -9 -14 -9h-10q-10 0 -4 11l343 616v2h-271q-5 0 -7 -6l-18 -103q-2 -10 -12 -10h-7q-10 0 -8 10l22 124q2 10 11 10z" />
    <glyph glyph-name="eight.osf" horiz-adv-x="433" 
d="M306 690q63 0 101 -38t38 -100q0 -66 -34.5 -118.5t-92.5 -74.5v-2q40 -18 63 -53.5t23 -84.5q0 -96 -63 -162.5t-158 -66.5q-69 0 -111 42t-42 110q0 73 40 132.5t109 86.5v2q-70 34 -70 122q0 83 54.5 144t142.5 61zM302 665q-71 0 -119 -51.5t-48 -125.5
q0 -52 32 -84.5t85 -32.5q71 0 119 51.5t48 125.5q0 52 -32 84.5t-85 32.5zM246 346q-77 0 -133.5 -58.5t-56.5 -140.5q0 -59 35.5 -95.5t96.5 -36.5q78 0 134 58t56 141q0 59 -35.5 95.5t-96.5 36.5z" />
    <glyph glyph-name="nine.osf" horiz-adv-x="462" 
d="M279 484q71 0 112.5 -43t41.5 -119q0 -85 -70 -191l-202 -303q-5 -8 -14 -8h-11q-12 0 -5 9l187 280l-2 1q-38 -31 -103 -31q-71 0 -112 43.5t-41 115.5q0 97 61 171.5t158 74.5zM278 459q-82 0 -136.5 -65.5t-54.5 -152.5q0 -62 34.5 -99.5t94.5 -37.5q82 0 136 65.5
t54 152.5q0 62 -34.5 99.5t-93.5 37.5z" />
    </font>
</defs>
</svg>
