<?xml version="1.0" standalone="no"?>
<!DOCTYPE svg PUBLIC "-//W3C//DTD SVG 1.1//EN" "http://www.w3.org/Graphics/SVG/1.1/DTD/svg11.dtd" >
<svg>
<metadata>
Created by FontForge 20090622 at Tue Jan 23 10:37:43 2018
 By deploy user
Copyright &#194;&#169; 2014 Monotype Imaging Inc.  All rights reserved.
</metadata>
<defs>
<font id="DINNextSlabPro-Heavy" horiz-adv-x="562" >
  <font-face 
    font-family="DIN Next Slab Pro Heavy"
    font-weight="800"
    font-stretch="normal"
    units-per-em="1000"
    panose-1="2 8 9 4 2 2 5 2 2 4"
    ascent="750"
    descent="-250"
    x-height="487"
    cap-height="680"
    bbox="-174.118 -248 1126 931"
    underline-thickness="50"
    underline-position="-75"
    unicode-range="U+000D-U+FB02"
  />
<missing-glyph horiz-adv-x="530" 
d="M10 680h510q10 0 10 -10v-660q0 -10 -10 -10h-510q-10 0 -10 10v660q0 10 10 10zM445 605h-360q-6 0 -6 -6v-518q0 -6 6 -6h360q6 0 6 6v518q0 6 -6 6zM263 563q64 0 101 -33t37 -85q0 -29 -8.5 -48t-31.5 -47l-39 -46q-12 -15 -12 -35v-10q0 -10 -10 -10h-81
q-10 0 -10 10v24q0 31 20 54l39 46q28 35 28 54q0 35 -38 35q-15 0 -27 -6q-4 -3 -4 -8v-27q0 -10 -10 -10h-73q-10 0 -10 10v82q0 9 8 14q55 36 121 36zM218 208h83q10 0 10 -10v-75q0 -10 -10 -10h-83q-10 0 -10 10v75q0 10 10 10z" />
    <glyph glyph-name="fi" unicode="fi" horiz-adv-x="650" 
d="M251 680h65q10 0 10 -10v-110q0 -10 -10 -10h-29q-30 0 -40 -8.5t-10 -33.5v-15q0 -6 6 -6h72q10 0 10 -10v-116q0 -10 -10 -10h-72q-6 0 -6 -6v-203q0 -6 6 -6h51q10 0 10 -10v-116q0 -10 -10 -10h-262q-10 0 -10 10v116q0 10 10 10h33q6 0 6 6v203q0 6 -6 6h-29
q-10 0 -10 10v116q0 10 10 10h29q6 0 6 6v14q0 93 42 133t138 40zM424 680h146q10 0 10 -10v-110q0 -10 -10 -10h-146q-10 0 -10 10v110q0 10 10 10zM375 487h195q10 0 10 -10v-335q0 -6 6 -6h34q10 0 10 -10v-116q0 -10 -10 -10h-245q-10 0 -10 10v116q0 10 10 10h33
q6 0 6 6v203q0 6 -6 6h-33q-10 0 -10 10v116q0 10 10 10z" />
    <glyph glyph-name="fl" unicode="fl" horiz-adv-x="656" 
d="M251 680h65q10 0 10 -10v-110q0 -10 -10 -10h-29q-30 0 -40 -8.5t-10 -33.5v-15q0 -6 6 -6h72q10 0 10 -10v-116q0 -10 -10 -10h-72q-6 0 -6 -6v-203q0 -6 6 -6h51q10 0 10 -10v-116q0 -10 -10 -10h-262q-10 0 -10 10v116q0 10 10 10h33q6 0 6 6v203q0 6 -6 6h-29
q-10 0 -10 10v116q0 10 10 10h29q6 0 6 6v14q0 93 42 133t138 40zM361 680h195q10 0 10 -10v-486q0 -48 42 -48h20q10 0 10 -10v-118q0 -10 -10 -10h-59q-91 0 -130 39.5t-39 131.5v369q0 6 -6 6h-33q-10 0 -10 10v116q0 10 10 10z" />
    <glyph glyph-name="f_f" unicode="ff" horiz-adv-x="686" 
d="M251 680h65q10 0 10 -10v-110q0 -10 -10 -10h-29q-30 0 -40 -8.5t-10 -33.5v-15q0 -6 6 -6h72q10 0 10 -10v-116q0 -10 -10 -10h-72q-6 0 -6 -6v-203q0 -6 6 -6h51q10 0 10 -10v-116q0 -10 -10 -10h-262q-10 0 -10 10v116q0 10 10 10h33q6 0 6 6v203q0 6 -6 6h-29
q-10 0 -10 10v116q0 10 10 10h29q6 0 6 6v14q0 93 42 133t138 40zM594 680h65q10 0 10 -10v-110q0 -10 -10 -10h-29q-30 0 -40 -8.5t-10 -33.5v-15q0 -6 6 -6h72q10 0 10 -10v-116q0 -10 -10 -10h-72q-6 0 -6 -6v-203q0 -6 6 -6h51q10 0 10 -10v-116q0 -10 -10 -10h-262
q-10 0 -10 10v116q0 10 10 10h33q6 0 6 6v203q0 6 -6 6h-29q-10 0 -10 10v116q0 10 10 10h29q6 0 6 6v14q0 93 42 133t138 40z" />
    <glyph glyph-name="f_f_i" unicode="ffi" horiz-adv-x="993" 
d="M251 680h65q10 0 10 -10v-110q0 -10 -10 -10h-29q-30 0 -40 -8.5t-10 -33.5v-15q0 -6 6 -6h72q10 0 10 -10v-116q0 -10 -10 -10h-72q-6 0 -6 -6v-203q0 -6 6 -6h51q10 0 10 -10v-116q0 -10 -10 -10h-262q-10 0 -10 10v116q0 10 10 10h33q6 0 6 6v203q0 6 -6 6h-29
q-10 0 -10 10v116q0 10 10 10h29q6 0 6 6v14q0 93 42 133t138 40zM594 680h65q10 0 10 -10v-110q0 -10 -10 -10h-29q-30 0 -40 -8.5t-10 -33.5v-15q0 -6 6 -6h72q10 0 10 -10v-116q0 -10 -10 -10h-72q-6 0 -6 -6v-203q0 -6 6 -6h51q10 0 10 -10v-116q0 -10 -10 -10h-262
q-10 0 -10 10v116q0 10 10 10h33q6 0 6 6v203q0 6 -6 6h-29q-10 0 -10 10v116q0 10 10 10h29q6 0 6 6v14q0 93 42 133t138 40zM767 680h146q10 0 10 -10v-110q0 -10 -10 -10h-146q-10 0 -10 10v110q0 10 10 10zM718 487h195q10 0 10 -10v-335q0 -6 6 -6h34q10 0 10 -10v-116
q0 -10 -10 -10h-245q-10 0 -10 10v116q0 10 10 10h33q6 0 6 6v203q0 6 -6 6h-33q-10 0 -10 10v116q0 10 10 10z" />
    <glyph glyph-name="f_f_l" unicode="ffl" horiz-adv-x="999" 
d="M251 680h65q10 0 10 -10v-110q0 -10 -10 -10h-29q-30 0 -40 -8.5t-10 -33.5v-15q0 -6 6 -6h72q10 0 10 -10v-116q0 -10 -10 -10h-72q-6 0 -6 -6v-203q0 -6 6 -6h51q10 0 10 -10v-116q0 -10 -10 -10h-262q-10 0 -10 10v116q0 10 10 10h33q6 0 6 6v203q0 6 -6 6h-29
q-10 0 -10 10v116q0 10 10 10h29q6 0 6 6v14q0 93 42 133t138 40zM594 680h65q10 0 10 -10v-110q0 -10 -10 -10h-29q-30 0 -40 -8.5t-10 -33.5v-15q0 -6 6 -6h72q10 0 10 -10v-116q0 -10 -10 -10h-72q-6 0 -6 -6v-203q0 -6 6 -6h51q10 0 10 -10v-116q0 -10 -10 -10h-262
q-10 0 -10 10v116q0 10 10 10h33q6 0 6 6v203q0 6 -6 6h-29q-10 0 -10 10v116q0 10 10 10h29q6 0 6 6v14q0 93 42 133t138 40zM704 680h195q10 0 10 -10v-486q0 -48 42 -48h20q10 0 10 -10v-118q0 -10 -10 -10h-59q-91 0 -130 39.5t-39 131.5v369q0 6 -6 6h-33q-10 0 -10 10
v116q0 10 10 10z" />
    <glyph glyph-name=".notdef" horiz-adv-x="530" 
d="M10 680h510q10 0 10 -10v-660q0 -10 -10 -10h-510q-10 0 -10 10v660q0 10 10 10zM445 605h-360q-6 0 -6 -6v-518q0 -6 6 -6h360q6 0 6 6v518q0 6 -6 6zM263 563q64 0 101 -33t37 -85q0 -29 -8.5 -48t-31.5 -47l-39 -46q-12 -15 -12 -35v-10q0 -10 -10 -10h-81
q-10 0 -10 10v24q0 31 20 54l39 46q28 35 28 54q0 35 -38 35q-15 0 -27 -6q-4 -3 -4 -8v-27q0 -10 -10 -10h-73q-10 0 -10 10v82q0 9 8 14q55 36 121 36zM218 208h83q10 0 10 -10v-75q0 -10 -10 -10h-83q-10 0 -10 10v75q0 10 10 10z" />
    <glyph glyph-name=".null" horiz-adv-x="0" 
 />
    <glyph glyph-name="nonmarkingreturn" horiz-adv-x="333" 
 />
    <glyph glyph-name="CR" unicode="&#xd;" horiz-adv-x="600" 
 />
    <glyph glyph-name="space" unicode=" " horiz-adv-x="238" 
 />
    <glyph glyph-name="exclam" unicode="!" horiz-adv-x="317" 
d="M82 680h153q10 0 10 -10l-24 -450q0 -10 -10 -10h-105q-10 0 -10 10l-24 450q0 10 10 10zM90 146h138q10 0 10 -10v-126q0 -10 -10 -10h-138q-10 0 -10 10v126q0 10 10 10z" />
    <glyph glyph-name="quotedbl" unicode="&#x22;" horiz-adv-x="406" 
d="M66 680h97q10 0 10 -10v-205q0 -10 -10 -10h-97q-10 0 -10 10v205q0 10 10 10zM243 680h97q10 0 10 -10v-205q0 -10 -10 -10h-97q-10 0 -10 10v205q0 10 10 10z" />
    <glyph glyph-name="numbersign" unicode="#" horiz-adv-x="599" 
d="M401 680h116q11 0 9 -10l-22 -161h63q10 0 10 -10v-100q0 -10 -10 -10h-80l-12 -89h66q10 0 10 -10v-100q0 -10 -10 -10h-82l-23 -170q-2 -10 -11 -10h-116q-11 0 -9 10l23 170h-93l-23 -170q-2 -10 -11 -10h-116q-11 0 -9 10l23 170h-62q-10 0 -10 10v100q0 10 10 10h79
l12 89h-65q-10 0 -10 10v100q0 10 10 10h81l22 161q2 10 11 10h116q11 0 9 -10l-22 -161h93l22 161q2 10 11 10zM258 389l-12 -89h94l12 89h-94z" />
    <glyph glyph-name="dollar" unicode="$" 
d="M245 766h83q10 0 10 -10v-67q83 -6 143 -30q8 -4 8 -13v-146q0 -10 -10 -10h-123q-10 0 -10 10v34q0 6 -6 8q-17 6 -42 6q-33 0 -52.5 -17t-19.5 -45q0 -25 15.5 -40.5t55.5 -20.5l24 -3q99 -13 148 -65.5t49 -139.5q0 -86 -48 -145.5t-132 -76.5v-71q0 -10 -10 -10h-83
q-10 0 -10 10v65q-102 8 -163 36q-9 4 -9 13v158q0 10 10 10h136q10 0 10 -10v-49q0 -5 5 -7q18 -7 47 -7q38 0 58.5 18.5t20.5 52.5q0 25 -16 39.5t-54 20.5l-20 3q-202 31 -202 203q0 83 48 141.5t129 74.5v70q0 10 10 10z" />
    <glyph glyph-name="percent" unicode="%" horiz-adv-x="850" 
d="M578 692h101q11 0 5 -10l-395 -684q-6 -10 -16 -10h-102q-10 0 -4 10l395 684q6 10 16 10zM206 688q51 0 86 -22.5t49 -62.5q11 -30 11 -94t-11 -94q-14 -40 -49 -62.5t-86 -22.5t-86.5 22.5t-49.5 62.5q-10 32 -10 94t10 94q14 40 49.5 62.5t86.5 22.5zM206 603
q-22 0 -28 -19q-3 -10 -3 -75t3 -75q6 -19 28 -19q20 0 28 19q3 10 3 75t-3 75q-8 19 -28 19zM644 350q51 0 86.5 -22.5t48.5 -62.5q11 -35 11 -94t-11 -94q-13 -40 -48.5 -62.5t-86.5 -22.5q-107 0 -136 85q-10 32 -10 94t10 94q29 85 136 85zM644 264q-22 0 -28 -18
q-3 -12 -3 -75q0 -65 3 -75q6 -19 28 -19q21 0 27 19q4 9 4 75q0 64 -4 75q-6 18 -27 18z" />
    <glyph glyph-name="ampersand" unicode="&#x26;" horiz-adv-x="648" 
d="M288 692q85 0 137 -47t52 -119q0 -45 -25 -83t-87 -87l68 -85l51 63q6 8 16 8h85q10 0 10 -10v-106q0 -10 -10 -10h-24q-7 0 -11 -6l-33 -43l15 -18q15 -19 37 -19h16q10 0 10 -10v-110q0 -10 -10 -10h-52q-38 0 -62.5 12t-50.5 44q-76 -68 -177 -68q-94 0 -146 50.5
t-52 135.5q0 55 28.5 101t94.5 98q-40 50 -55 83.5t-15 68.5q0 72 54.5 119.5t135.5 47.5zM290 576q-20 0 -32 -13t-12 -33q0 -24 37 -72q50 41 50 72q0 20 -12 33t-31 13zM338 160l-88 110q-53 -43 -53 -83q0 -27 17 -45t45 -18q40 0 79 36z" />
    <glyph glyph-name="quotesingle" unicode="'" horiz-adv-x="229" 
d="M66 680h97q10 0 10 -10v-205q0 -10 -10 -10h-97q-10 0 -10 10v205q0 10 10 10z" />
    <glyph glyph-name="parenleft" unicode="(" horiz-adv-x="329" 
d="M196 740h96q12 0 7 -10q-89 -187 -89 -402q0 -216 89 -402q5 -10 -7 -10h-96q-7 0 -15 10q-129 179 -129 402q0 224 129 402q8 10 15 10z" />
    <glyph glyph-name="parenright" unicode=")" horiz-adv-x="329" 
d="M37 740h96q7 0 15 -10q129 -178 129 -402q0 -223 -129 -402q-8 -10 -15 -10h-96q-12 0 -7 10q89 186 89 402q0 215 -89 402q-5 10 7 10z" />
    <glyph glyph-name="asterisk" unicode="*" horiz-adv-x="402" 
d="M167 680h68q10 0 10 -10l-2 -79l69 41q8 5 13 -4l34 -59q5 -8 -4 -13l-69 -39l69 -38q9 -5 4 -13l-34 -59q-5 -9 -13 -4l-69 41l2 -79q0 -10 -10 -10h-68q-10 0 -10 10l1 78l-67 -40q-9 -5 -14 4l-34 59q-5 8 4 13l69 38l-69 39q-9 5 -4 13l34 59q5 9 14 4l67 -41l-1 79
q0 10 10 10z" />
    <glyph glyph-name="plus" unicode="+" 
d="M219 510h124q10 0 10 -10v-148q0 -6 6 -6h146q10 0 10 -10v-120q0 -10 -10 -10h-146q-6 0 -6 -6v-148q0 -10 -10 -10h-124q-10 0 -10 10v148q0 6 -6 6h-146q-10 0 -10 10v120q0 10 10 10h146q6 0 6 6v148q0 10 10 10z" />
    <glyph glyph-name="comma" unicode="," horiz-adv-x="255" 
d="M62 158h131q10 0 10 -10v-131q0 -13 -9 -21l-114 -94q-10 -7 -16 -7q-12 0 -12 11v242q0 10 10 10z" />
    <glyph glyph-name="hyphen" unicode="-" horiz-adv-x="399" 
d="M49 338h301q10 0 10 -10v-125q0 -10 -10 -10h-301q-10 0 -10 10v125q0 10 10 10z" />
    <glyph glyph-name="period" unicode="." horiz-adv-x="263" 
d="M62 158h139q10 0 10 -10v-138q0 -10 -10 -10h-139q-10 0 -10 10v138q0 10 10 10z" />
    <glyph glyph-name="slash" unicode="/" horiz-adv-x="446" 
d="M261 692h143q10 0 7 -10l-212 -684q-3 -10 -13 -10h-143q-10 0 -7 10l212 684q3 10 13 10z" />
    <glyph glyph-name="zero" unicode="0" 
d="M281 692q83 0 138.5 -38t78.5 -108q16 -48 16 -206t-16 -206q-23 -70 -78.5 -108t-138.5 -38t-138.5 38t-78.5 108q-16 48 -16 206t16 206q23 70 78.5 108t138.5 38zM281 554q-42 0 -56 -37q-7 -22 -7 -177t7 -177q14 -37 56 -37q44 0 56 37q7 22 7 177t-7 177
q-12 37 -56 37z" />
    <glyph glyph-name="one" unicode="1" 
d="M231 680h139q10 0 10 -10v-528q0 -6 6 -6h118q10 0 10 -10v-116q0 -10 -10 -10h-415q-10 0 -10 10v116q0 10 10 10h118q6 0 6 6v356h-2l-120 -71q-3 -2 -5.5 -2.5t-4.5 2t-2 6.5v147q0 8 7 14l127 80q7 6 18 6z" />
    <glyph glyph-name="two" unicode="2" 
d="M278 692q103 0 162.5 -53.5t59.5 -144.5q0 -94 -79 -175l-174 -182v-2h111q6 0 6 6v42q0 10 10 10h124q10 0 10 -10v-173q0 -10 -10 -10h-435q-10 0 -10 10v112q0 8 5 14l239 267q38 42 38 86q0 32 -17.5 49t-49.5 17q-28 0 -48 -9q-5 -2 -5 -9v-59q0 -10 -10 -10h-127
q-10 0 -10 10v145q0 9 7 14q81 55 203 55z" />
    <glyph glyph-name="three" unicode="3" 
d="M277 692q105 0 164 -51.5t59 -136.5q0 -90 -77 -140v-2q89 -48 89 -164q0 -96 -63.5 -153t-172.5 -57q-126 0 -202 51q-7 4 -7 14v143q0 10 10 10h127q10 0 10 -10v-52q0 -6 6 -9q20 -10 54 -10q36 0 54.5 21t18.5 58q0 36 -22 56.5t-59 20.5h-27q-10 0 -10 10v116
q0 10 10 10h25q33 0 52 18.5t19 51.5q0 68 -67 68q-28 0 -48 -10q-5 -3 -5 -9v-47q0 -10 -10 -10h-127q-10 0 -10 10v132q0 9 7 15q79 56 202 56z" />
    <glyph glyph-name="four" unicode="4" 
d="M237 680h157q12 0 7 -10l-189 -429v-2h96q6 0 6 6v120q0 10 10 10h140q10 0 10 -10v-120q0 -6 5 -6h39q10 0 10 -10v-124q0 -10 -10 -10h-38q-6 0 -6 -6v-79q0 -10 -10 -10h-140q-10 0 -10 10v79q0 6 -6 6h-264q-10 0 -10 10v128q0 7 2 11l187 428q3 8 14 8z" />
    <glyph glyph-name="five" unicode="5" 
d="M85 680h396q10 0 10 -10v-120q0 -10 -10 -10h-258q-6 0 -6 -6v-114h2q37 35 105 35q137 0 173 -113q15 -47 15 -120q0 -56 -15 -101q-43 -133 -224 -133q-120 0 -193 50q-7 5 -7 14v141q0 10 10 10h127q10 0 10 -10v-50q0 -7 6 -9q20 -8 48 -8q52 0 66 39q7 18 7 58
q0 35 -7 58q-13 38 -59 38q-41 0 -57 -32q-5 -10 -13 -10h-126q-10 0 -10 10v383q0 10 10 10z" />
    <glyph glyph-name="six" unicode="6" 
d="M261 680h158q11 0 6 -11l-136 -254l1 -1q15 5 34 5q85 0 140.5 -58.5t55.5 -151.5q0 -100 -66.5 -160.5t-172.5 -60.5q-105 0 -171.5 60.5t-66.5 158.5q0 83 54 184l151 282q4 7 13 7zM281 287q-34 0 -55.5 -22.5t-21.5 -57.5t21.5 -58t55.5 -23q35 0 56.5 22.5
t21.5 58.5q0 35 -21.5 57.5t-56.5 22.5z" />
    <glyph glyph-name="seven" unicode="7" 
d="M68 680h433q10 0 10 -10v-132q0 -4 -2 -10l-207 -518q-4 -10 -14 -10h-153q-5 0 -7 3.5t-1 7.5l210 521v3h-117q-6 0 -6 -6v-64q0 -10 -10 -10h-136q-10 0 -10 10v205q0 10 10 10z" />
    <glyph glyph-name="eight" unicode="8" 
d="M281 692q103 0 164 -59t61 -144q0 -87 -63 -134v-2q78 -53 78 -154q0 -96 -68 -153.5t-172 -57.5t-172 57.5t-68 153.5q0 99 78 154v2q-63 49 -63 134t61 144t164 59zM281 554q-29 0 -48 -19.5t-19 -47.5t19 -47.5t48 -19.5t48 19.5t19 47.5t-19 47.5t-48 19.5zM281 285
q-34 0 -56.5 -22.5t-22.5 -56.5q0 -35 22 -57.5t57 -22.5t57 22.5t22 57.5q0 34 -22 56.5t-57 22.5z" />
    <glyph glyph-name="nine" unicode="9" 
d="M281 692q106 0 172 -60.5t66 -158.5q0 -80 -55 -184l-150 -282q-4 -7 -12 -7h-158q-12 0 -7 11l136 254l-2 1q-13 -5 -33 -5q-85 0 -140.5 58.5t-55.5 151.5q0 100 67 160.5t172 60.5zM281 554q-35 0 -56.5 -22.5t-21.5 -57.5t21.5 -58t56.5 -23t56 23t21 58q0 36 -21 58
t-56 22z" />
    <glyph glyph-name="colon" unicode=":" horiz-adv-x="278" 
d="M70 487h138q10 0 10 -10v-138q0 -10 -10 -10h-138q-10 0 -10 10v138q0 10 10 10zM70 158h138q10 0 10 -10v-138q0 -10 -10 -10h-138q-10 0 -10 10v138q0 10 10 10z" />
    <glyph glyph-name="semicolon" unicode=";" horiz-adv-x="278" 
d="M70 487h138q10 0 10 -10v-138q0 -10 -10 -10h-138q-10 0 -10 10v138q0 10 10 10zM74 158h131q10 0 10 -10v-131q0 -12 -9 -20l-115 -95q-8 -7 -16 -7q-11 0 -11 11v242q0 10 10 10z" />
    <glyph glyph-name="less" unicode="&#x3c;" 
d="M58 341l448 167q10 3 10 -6v-129q0 -9 -10 -13l-243 -83v-2l243 -83q10 -4 10 -13v-129q0 -9 -10 -6l-448 167q-10 3 -10 14v102q0 11 10 14z" />
    <glyph glyph-name="equal" unicode="=" 
d="M57 456h448q10 0 10 -10v-120q0 -10 -10 -10h-448q-10 0 -10 10v120q0 10 10 10zM57 236h448q10 0 10 -10v-120q0 -10 -10 -10h-448q-10 0 -10 10v120q0 10 10 10z" />
    <glyph glyph-name="greater" unicode="&#x3e;" 
d="M57 508l448 -167q10 -3 10 -14v-102q0 -11 -10 -14l-448 -167q-10 -3 -10 6v129q0 9 10 13l244 83v2l-244 83q-10 4 -10 13v129q0 9 10 6z" />
    <glyph glyph-name="question" unicode="?" horiz-adv-x="483" 
d="M238 692q98 0 156.5 -51.5t58.5 -134.5q0 -43 -15 -73t-50 -71l-56 -67q-21 -26 -21 -58v-17q0 -10 -10 -10h-136q-10 0 -10 10v41q0 50 31 84l64 75q24 29 32 45t8 37q0 25 -15.5 39.5t-43.5 14.5q-30 0 -45 -9q-6 -2 -6 -9v-53q0 -10 -10 -10h-122q-10 0 -10 10v137
q0 10 7 14q88 56 193 56zM165 146h138q10 0 10 -10v-126q0 -10 -10 -10h-138q-10 0 -10 10v126q0 10 10 10z" />
    <glyph glyph-name="at" unicode="@" horiz-adv-x="931" 
d="M465 680q189 0 306 -108t117 -278q0 -119 -56 -180.5t-142 -61.5q-105 0 -140 66h-1q-37 -66 -137 -66q-110 0 -139 94q-14 47 -14 119q0 79 14 120q31 94 128 94q78 0 107 -50h1v30q0 9 9 9h150q10 0 10 -10v-91q0 -10 -10 -10h-20q-6 0 -6 -6v-129q0 -28 14.5 -42.5
t37.5 -14.5q65 0 65 127q0 122 -79.5 198t-214.5 76t-214.5 -82.5t-79.5 -221.5q0 -134 79.5 -215.5t214.5 -81.5q104 0 197 49q9 6 15 -3l51 -74q6 -8 -2 -13q-106 -73 -261 -73q-189 0 -306.5 113.5t-117.5 297.5q0 188 117 303t307 115zM451 365q-40 0 -54 -38
q-5 -18 -5 -62q0 -42 5 -62q13 -37 54 -37t53 37q5 15 5 62q0 48 -5 62q-12 38 -53 38z" />
    <glyph glyph-name="A" unicode="A" horiz-adv-x="691" 
d="M249 680h198q10 0 13 -10l169 -528q1 -6 7 -6h31q10 0 10 -10v-116q0 -10 -10 -10h-240q-10 0 -10 10v116q0 10 10 10h25q6 0 4 6l-16 54h-189l-15 -53q-1 -7 6 -7h23q10 0 10 -10v-116q0 -10 -10 -10h-241q-10 0 -10 10v116q0 10 10 10h32q6 0 7 6l173 528q3 10 13 10z
M345 521l-53 -185h108l-52 185h-3z" />
    <glyph glyph-name="B" unicode="B" horiz-adv-x="617" 
d="M32 680h322q110 0 165.5 -48.5t55.5 -132.5q0 -102 -83 -146v-2q40 -15 67.5 -57t27.5 -98q0 -97 -63 -146.5t-174 -49.5h-318q-10 0 -10 10v116q0 10 10 10h37q6 0 6 6v396q0 6 -6 6h-37q-10 0 -10 10v116q0 10 10 10zM321 547h-67q-6 0 -6 -6v-128q0 -6 6 -6h67
q81 0 81 70t-81 70zM330 286h-76q-6 0 -6 -6v-141q0 -6 6 -6h76q83 0 83 77q0 76 -83 76z" />
    <glyph glyph-name="C" unicode="C" horiz-adv-x="576" 
d="M311 692q131 0 218 -58q7 -4 7 -14v-153q0 -10 -10 -10h-132q-10 0 -10 10v47q0 8 -7 10q-26 12 -60 12q-74 0 -93 -61q-11 -31 -11 -135q0 -103 10 -136q21 -60 94 -60q37 0 61 11q6 3 6 10v50q0 10 10 10h132q10 0 10 -10v-156q0 -9 -7 -14q-87 -57 -219 -57
q-202 0 -254 157q-20 61 -20 194q0 129 19 187q54 166 256 166z" />
    <glyph glyph-name="D" unicode="D" horiz-adv-x="639" 
d="M32 680h308q190 0 242 -155q20 -63 20 -185t-20 -185q-52 -155 -242 -155h-308q-10 0 -10 10v116q0 10 10 10h37q6 0 6 6v396q0 6 -6 6h-37q-10 0 -10 10v116q0 10 10 10zM304 524h-49q-6 0 -6 -6v-356q0 -6 6 -6h49q48 0 74 14.5t38 49.5q10 29 10 120t-10 120
q-12 35 -38 49.5t-74 14.5z" />
    <glyph glyph-name="E" unicode="E" horiz-adv-x="564" 
d="M32 680h492q10 0 10 -10v-170q0 -10 -10 -10h-127q-10 0 -10 10v36q0 6 -6 6h-127q-6 0 -6 -6v-117q0 -6 6 -6h77q6 0 6 6v22q0 10 10 10h120q10 0 10 -10v-195q0 -10 -10 -10h-120q-10 0 -10 10v22q0 6 -6 6h-77q-6 0 -6 -6v-124q0 -6 6 -6h127q6 0 6 6v39q0 10 10 10
h127q10 0 10 -10v-173q0 -10 -10 -10h-492q-10 0 -10 10v116q0 10 10 10h37q6 0 6 6v396q0 6 -6 6h-37q-10 0 -10 10v116q0 10 10 10z" />
    <glyph glyph-name="F" unicode="F" horiz-adv-x="560" 
d="M32 680h492q10 0 10 -10v-178q0 -10 -10 -10h-127q-10 0 -10 10v41q0 6 -6 6h-127q-6 0 -6 -6v-124q0 -6 6 -6h77q6 0 6 6v22q0 10 10 10h120q10 0 10 -10v-195q0 -10 -10 -10h-120q-10 0 -10 10v22q0 6 -6 6h-77q-6 0 -6 -6v-116q0 -6 6 -6h48q10 0 10 -10v-116
q0 -10 -10 -10h-270q-10 0 -10 10v116q0 10 10 10h37q6 0 6 6v396q0 6 -6 6h-37q-10 0 -10 10v116q0 10 10 10z" />
    <glyph glyph-name="G" unicode="G" horiz-adv-x="619" 
d="M326 692q140 0 227 -64q7 -6 7 -14v-145q0 -10 -10 -10h-132q-10 0 -10 10v45q0 6 -6 9q-28 15 -75 15q-82 0 -102 -64q-12 -34 -12 -135q0 -103 11 -135q20 -62 101 -62q53 0 79 13q7 4 7 11v75q0 6 -6 6h-75q-10 0 -10 10v113q0 10 10 10h232q10 0 10 -10v-294
q0 -13 -11 -21q-90 -67 -239 -67q-214 0 -267 165q-19 62 -19 186q0 121 20 185q56 168 270 168z" />
    <glyph glyph-name="H" unicode="H" horiz-adv-x="689" 
d="M397 680h260q10 0 10 -10v-116q0 -10 -10 -10h-37q-6 0 -6 -6v-396q0 -6 6 -6h37q10 0 10 -10v-116q0 -10 -10 -10h-260q-10 0 -10 10v116q0 10 10 10h37q6 0 6 6v120q0 6 -6 6h-179q-6 0 -6 -6v-120q0 -6 6 -6h37q10 0 10 -10v-116q0 -10 -10 -10h-260q-10 0 -10 10v116
q0 10 10 10h37q6 0 6 6v396q0 6 -6 6h-37q-10 0 -10 10v116q0 10 10 10h260q10 0 10 -10v-116q0 -10 -10 -10h-37q-6 0 -6 -6v-110q0 -6 6 -6h179q6 0 6 6v110q0 6 -6 6h-37q-10 0 -10 10v116q0 10 10 10z" />
    <glyph glyph-name="I" unicode="I" horiz-adv-x="324" 
d="M32 680h260q10 0 10 -10v-116q0 -10 -10 -10h-37q-6 0 -6 -6v-396q0 -6 6 -6h37q10 0 10 -10v-116q0 -10 -10 -10h-260q-10 0 -10 10v116q0 10 10 10h37q6 0 6 6v396q0 6 -6 6h-37q-10 0 -10 10v116q0 10 10 10z" />
    <glyph glyph-name="J" unicode="J" horiz-adv-x="544" 
d="M254 680h260q10 0 10 -10v-116q0 -10 -10 -10h-34q-6 0 -6 -6v-282q0 -133 -66.5 -200.5t-191.5 -67.5q-119 0 -190 46q-7 5 -7 14v163q0 10 10 10h133q10 0 10 -10v-52q0 -5 5 -7q18 -8 43 -8q80 0 80 99v295q0 6 -6 6h-40q-10 0 -10 10v116q0 10 10 10z" />
    <glyph glyph-name="K" unicode="K" horiz-adv-x="679" 
d="M382 680h246q10 0 10 -10v-116q0 -10 -10 -10h-34q-5 0 -9 -4l-135 -141l134 -257q3 -6 11 -6h50q10 0 10 -10v-116q0 -10 -10 -10h-180q-9 0 -14 9l-129 255l-73 -77v-45q0 -6 6 -6h37q10 0 10 -10v-116q0 -10 -10 -10h-260q-10 0 -10 10v116q0 10 10 10h37q6 0 6 6v396
q0 6 -6 6h-37q-10 0 -10 10v116q0 10 10 10h260q10 0 10 -10v-116q0 -10 -10 -10h-37q-6 0 -6 -5v-155l149 154q3 4 -2 6h-14q-10 0 -10 10v116q0 10 10 10z" />
    <glyph glyph-name="L" unicode="L" horiz-adv-x="559" 
d="M32 680h260q10 0 10 -10v-116q0 -10 -10 -10h-37q-6 0 -6 -6v-387q0 -6 6 -6h125q6 0 6 6v50q0 10 10 10h133q10 0 10 -10v-191q0 -10 -10 -10h-497q-10 0 -10 10v116q0 10 10 10h37q6 0 6 6v396q0 6 -6 6h-37q-10 0 -10 10v116q0 10 10 10z" />
    <glyph glyph-name="M" unicode="M" horiz-adv-x="812" 
d="M583 680h197q10 0 10 -10v-116q0 -10 -10 -10h-37q-6 0 -6 -5v-397q0 -6 6 -6h37q10 0 10 -10v-116q0 -10 -10 -10h-240q-10 0 -10 10v116q0 10 10 10h33q6 0 6 6v220h-5l-111 -256q-5 -13 -19 -13h-77q-14 0 -19 13l-110 256h-5v-220q0 -6 6 -6h31q10 0 10 -10v-116
q0 -10 -10 -10h-238q-10 0 -10 10v116q0 10 10 10h37q6 0 6 6v396q0 6 -6 6h-37q-10 0 -10 10v116q0 10 10 10h199q13 0 17 -10l158 -356h4l156 356q5 10 17 10z" />
    <glyph glyph-name="N" unicode="N" horiz-adv-x="688" 
d="M412 680h244q10 0 10 -10v-116q0 -10 -10 -10h-37q-6 0 -6 -6v-528q0 -10 -10 -10h-146q-11 0 -17 10l-202 384h-5v-252q0 -6 6 -6h37q10 0 10 -10v-116q0 -10 -10 -10h-244q-10 0 -10 10v116q0 10 10 10h37q6 0 6 6v396q0 6 -6 6h-37q-10 0 -10 10v116q0 10 10 10h199
q13 0 17 -10l202 -384h5v252q0 6 -6 6h-37q-10 0 -10 10v116q0 10 10 10z" />
    <glyph glyph-name="O" unicode="O" horiz-adv-x="622" 
d="M311 692q92 0 160 -43t94 -124q20 -61 20 -185t-20 -185q-26 -81 -94 -124t-160 -43t-160 43t-94 124q-20 65 -20 185t20 185q26 81 94 124t160 43zM311 535q-68 0 -87 -60q-10 -29 -10 -135t10 -135q19 -60 87 -60t87 60q10 29 10 135t-10 135q-19 60 -87 60z" />
    <glyph glyph-name="P" unicode="P" horiz-adv-x="619" 
d="M32 680h314q121 0 185.5 -60.5t64.5 -161.5q0 -99 -65.5 -160.5t-184.5 -61.5h-91q-6 0 -6 -6v-88q0 -6 6 -6h43q10 0 10 -10v-116q0 -10 -10 -10h-266q-10 0 -10 10v116q0 10 10 10h37q6 0 6 6v396q0 6 -6 6h-37q-10 0 -10 10v116q0 10 10 10zM337 535h-82q-6 0 -6 -6
v-143q0 -6 6 -6h82q41 0 63 21t22 57t-22 56.5t-63 20.5z" />
    <glyph glyph-name="Q" unicode="Q" horiz-adv-x="637" 
d="M311 692q92 0 160 -43t94 -124q20 -61 20 -185q0 -130 -26 -202l74 -77q7 -7 0 -15l-105 -99q-7 -8 -15 0l-66 70q-61 -29 -136 -29q-92 0 -160 43t-94 124q-20 65 -20 185t20 185q26 81 94 124t160 43zM311 535q-68 0 -87 -60q-10 -29 -10 -135t10 -135q19 -60 87 -60
t87 60q10 29 10 135t-10 135q-19 60 -87 60z" />
    <glyph glyph-name="R" unicode="R" horiz-adv-x="634" 
d="M32 680h323q118 0 181 -56.5t63 -153.5q0 -128 -114 -185l62 -143q3 -6 9 -6h47q10 0 10 -10v-116q0 -10 -10 -10h-173q-11 0 -15 10l-102 250h-58q-6 0 -6 -8v-110q0 -6 6 -6h34q10 0 10 -10v-116q0 -10 -10 -10h-257q-10 0 -10 10v116q0 10 10 10h37q6 0 6 6v396
q0 6 -6 6h-37q-10 0 -10 10v116q0 10 10 10zM344 538h-89q-6 0 -6 -6v-131q0 -6 6 -6h89q38 0 59 19.5t21 52.5t-21 52t-59 19z" />
    <glyph glyph-name="S" unicode="S" horiz-adv-x="590" 
d="M297 692q122 0 223 -46q8 -3 8 -12v-148q0 -10 -10 -10h-128q-10 0 -10 10v42q0 6 -6 8q-30 13 -74 13q-84 0 -84 -58q0 -26 19 -41t67 -22l36 -5q113 -15 168.5 -67.5t55.5 -147.5q0 -101 -71 -160.5t-205 -59.5q-142 0 -236 46q-9 4 -9 13v158q0 10 10 10h136
q10 0 10 -10v-50q0 -7 6 -8q37 -13 84 -13q95 0 95 66q0 25 -18.5 41t-65.5 22l-36 5q-113 16 -169.5 68t-56.5 148q0 98 68 153t193 55z" />
    <glyph glyph-name="T" unicode="T" horiz-adv-x="632" 
d="M23 680h586q10 0 10 -10v-185q0 -10 -10 -10h-126q-10 0 -10 10v47q0 6 -6 6h-58q-6 0 -6 -6v-390q0 -6 6 -6h45q10 0 10 -10v-116q0 -10 -10 -10h-276q-10 0 -10 10v116q0 10 10 10h45q6 0 6 6v390q0 6 -6 6h-58q-6 0 -6 -6v-47q0 -10 -10 -10h-126q-10 0 -10 10v185
q0 10 10 10z" />
    <glyph glyph-name="U" unicode="U" horiz-adv-x="664" 
d="M382 680h257q10 0 10 -10v-116q0 -10 -10 -10h-34q-6 0 -6 -6v-275q0 -133 -71.5 -204t-194.5 -71q-124 0 -196 71t-72 204v275q0 6 -6 6h-34q-10 0 -10 10v116q0 10 10 10h257q10 0 10 -10v-116q0 -10 -10 -10h-37q-6 0 -6 -6v-286q0 -51 24.5 -79t68.5 -28t68.5 28
t24.5 79v286q0 6 -6 6h-37q-10 0 -10 10v116q0 10 10 10z" />
    <glyph glyph-name="V" unicode="V" horiz-adv-x="665" 
d="M393 680h251q10 0 10 -10v-116q0 -10 -10 -10h-30q-4 0 -6 -5l-169 -529q-3 -10 -14 -10h-186q-10 0 -13 10l-169 529q-2 5 -7 5h-29q-10 0 -10 10v116q0 10 10 10h253q10 0 10 -10v-116q0 -10 -10 -10h-32q-7 0 -5 -7l97 -322h3l95 323q2 6 -5 6h-34q-10 0 -10 10v116
q0 10 10 10z" />
    <glyph glyph-name="W" unicode="W" horiz-adv-x="940" 
d="M670 680h249q10 0 10 -10v-116q0 -10 -10 -10h-30q-4 0 -6 -5l-148 -529q-3 -10 -13 -10h-129q-11 0 -14 10l-108 381h-2l-108 -381q-3 -10 -14 -10h-128q-11 0 -14 10l-148 529q-2 5 -7 5h-29q-10 0 -10 10v116q0 10 10 10h249q10 0 10 -10v-116q0 -10 -10 -10h-32
q-7 0 -5 -7l62 -265h2l107 398q3 10 14 10h106q10 0 13 -10l111 -396h2l60 264q2 6 -5 6h-35q-10 0 -10 10v116q0 10 10 10z" />
    <glyph glyph-name="X" unicode="X" horiz-adv-x="638" 
d="M357 680h245q10 0 10 -10v-116q0 -10 -10 -10h-34q-5 0 -8 -5l-130 -190l144 -208q4 -5 10 -5h31q10 0 10 -10v-116q0 -10 -10 -10h-250q-10 0 -10 10v114q0 10 10 10h24q7 0 3 6l-74 114h-1l-73 -113q-4 -7 4 -7h26q10 0 10 -10v-114q0 -10 -10 -10h-251q-10 0 -10 10
v116q0 10 10 10h31q7 0 11 5l141 206l-131 192q-3 5 -9 5h-32q-10 0 -10 10v116q0 10 10 10h249q10 0 10 -10v-114q0 -10 -10 -10h-24q-7 0 -4 -7l65 -98h1l64 98q5 7 -3 7h-25q-10 0 -10 10v114q0 10 10 10z" />
    <glyph glyph-name="Y" unicode="Y" horiz-adv-x="616" 
d="M348 680h245q10 0 10 -10v-116q0 -10 -10 -10h-30q-5 0 -8 -5l-161 -276v-121q0 -6 6 -6h45q10 0 10 -10v-116q0 -10 -10 -10h-275q-10 0 -10 10v116q0 10 10 10h45q6 0 6 6v121l-161 276q-3 5 -9 5h-28q-10 0 -10 10v116q0 10 10 10h248q10 0 10 -10v-114q0 -10 -10 -10
h-33q-8 0 -4 -7l75 -134h3l76 135q3 6 -5 6h-35q-10 0 -10 10v114q0 10 10 10z" />
    <glyph glyph-name="Z" unicode="Z" horiz-adv-x="550" 
d="M43 680h473q10 0 10 -10v-131q0 -5 -3 -10l-305 -384v-3h150q6 0 6 6v53q0 10 10 10h132q10 0 10 -10v-191q0 -10 -10 -10h-484q-10 0 -10 10v131q0 5 3 10l305 384v3h-141q-6 0 -6 -6v-47q0 -10 -10 -10h-130q-10 0 -10 10v185q0 10 10 10z" />
    <glyph glyph-name="bracketleft" unicode="[" horiz-adv-x="312" 
d="M64 740h213q10 0 10 -10v-104q0 -10 -10 -10h-73q-6 0 -6 -6v-564q0 -6 6 -6h73q10 0 10 -10v-104q0 -10 -10 -10h-213q-10 0 -10 10v804q0 10 10 10z" />
    <glyph glyph-name="backslash" unicode="\" horiz-adv-x="446" 
d="M43 692h143q10 0 13 -10l212 -684q3 -10 -7 -10h-143q-10 0 -13 10l-212 684q-3 10 7 10z" />
    <glyph glyph-name="bracketright" unicode="]" horiz-adv-x="312" 
d="M35 740h213q10 0 10 -10v-804q0 -10 -10 -10h-213q-10 0 -10 10v104q0 10 10 10h73q6 0 6 6v564q0 6 -6 6h-73q-10 0 -10 10v104q0 10 10 10z" />
    <glyph glyph-name="asciicircum" unicode="^" 
d="M226 680h111q9 0 14 -10l166 -417q5 -10 -6 -10h-135q-10 0 -14 10l-80 224h-2l-80 -224q-3 -10 -13 -10h-135q-10 0 -7 10l167 417q5 10 14 10z" />
    <glyph glyph-name="underscore" unicode="_" horiz-adv-x="550" 
d="M550 -169h-550v111h550v-111z" />
    <glyph glyph-name="grave" unicode="`" horiz-adv-x="489" 
d="M128 702h139q11 0 17 -10l80 -136q5 -10 -5 -10h-116q-9 0 -17 10l-103 136q-3 4 -1.5 7t6.5 3z" />
    <glyph glyph-name="a" unicode="a" horiz-adv-x="537" 
d="M246 499q123 0 173.5 -43t50.5 -139v-175q0 -6 6 -6h31q10 0 10 -10v-116q0 -10 -10 -10h-185q-10 0 -10 10v28h-1q-43 -50 -130 -50q-67 0 -112 38t-45 112q0 80 56 120t150 40h76q6 0 6 6v16q0 28 -14.5 42t-53.5 14q-21 0 -35 -4q-6 -2 -6 -7v-25q0 -10 -10 -10h-127
q-10 0 -10 10v112q0 10 9 14q84 33 181 33zM306 196h-58q-67 0 -67 -45q0 -43 57 -43q74 0 74 52v30q0 6 -6 6z" />
    <glyph glyph-name="b" unicode="b" horiz-adv-x="568" 
d="M32 680h195q10 0 10 -10v-229h1q36 56 124 56q122 0 160 -115q17 -55 17 -138q0 -84 -17 -139q-38 -115 -160 -115q-88 0 -124 56h-1v-36q0 -10 -10 -10h-195q-10 0 -10 10v116q0 10 10 10h33q6 0 6 6v396q0 6 -6 6h-33q-10 0 -10 10v116q0 10 10 10zM304 361
q-46 0 -59 -41q-8 -21 -8 -76q0 -56 8 -77q13 -41 59 -41t59 41q8 26 8 77q0 50 -8 76q-13 41 -59 41z" />
    <glyph glyph-name="c" unicode="c" horiz-adv-x="490" 
d="M261 499q110 0 186 -45q9 -6 9 -16v-121q0 -10 -10 -10h-119q-10 0 -10 10v32q0 5 -5 7q-14 7 -41 7q-53 0 -67 -42q-7 -20 -7 -77q0 -58 7 -78q14 -42 67 -42q25 0 41 6q5 2 5 8v35q0 10 10 10h119q10 0 10 -10v-126q0 -10 -8 -15q-79 -44 -187 -44q-170 0 -218 139
q-14 39 -14 117q0 74 14 113q49 142 218 142z" />
    <glyph glyph-name="d" unicode="d" horiz-adv-x="568" 
d="M292 680h195q10 0 10 -10v-528q0 -6 6 -6h33q10 0 10 -10v-116q0 -10 -10 -10h-195q-10 0 -10 10v36h-1q-35 -56 -125 -56q-123 0 -159 115q-17 51 -17 139q0 87 17 138q36 115 159 115q90 0 125 -56h1v97q0 6 -6 6h-33q-10 0 -10 10v116q0 10 10 10zM264 361
q-47 0 -60 -41q-7 -22 -7 -76q0 -55 7 -77q13 -41 60 -41t60 41q7 22 7 77q0 54 -7 76q-13 41 -60 41z" />
    <glyph glyph-name="e" unicode="e" horiz-adv-x="525" 
d="M261 499q173 0 219 -141q16 -48 16 -152q0 -10 -11 -10h-288q-6 0 -6 -6q0 -11 3 -20q17 -53 96 -53q58 0 109 40q7 6 14 -1l70 -73q7 -8 0 -15q-83 -80 -211 -80q-89 0 -147 37.5t-80 105.5q-16 46 -16 113q0 65 15 112q23 68 79 105.5t138 37.5zM264 378q-55 0 -69 -44
q-4 -16 -4 -30q0 -6 6 -6h132q6 0 6 6q0 18 -4 30q-15 44 -67 44z" />
    <glyph glyph-name="f" unicode="f" horiz-adv-x="343" 
d="M251 680h65q10 0 10 -10v-110q0 -10 -10 -10h-29q-30 0 -40 -8.5t-10 -33.5v-15q0 -6 6 -6h72q10 0 10 -10v-116q0 -10 -10 -10h-72q-6 0 -6 -6v-203q0 -6 6 -6h51q10 0 10 -10v-116q0 -10 -10 -10h-262q-10 0 -10 10v116q0 10 10 10h33q6 0 6 6v203q0 6 -6 6h-29
q-10 0 -10 10v116q0 10 10 10h29q6 0 6 6v14q0 93 42 133t138 40z" />
    <glyph glyph-name="g" unicode="g" horiz-adv-x="567" 
d="M206 497q89 0 123 -56h1v36q0 10 10 10h195q10 0 10 -10v-116q0 -10 -10 -10h-33q-6 0 -6 -5v-270q0 -140 -64 -204t-193 -64q-57 0 -111 22t-80 54q-6 7 1 15l84 86q7 7 15 1q46 -40 96 -40q45 0 65.5 24t20.5 75v37h-1q-34 -57 -123 -57q-121 0 -159 116
q-16 49 -16 121q0 71 16 120q38 115 159 115zM264 361q-44 0 -58 -42q-7 -20 -7 -57q0 -38 7 -58q14 -42 58 -42q46 0 59 42q7 20 7 58q0 37 -7 57q-13 42 -59 42z" />
    <glyph glyph-name="h" unicode="h" horiz-adv-x="591" 
d="M32 680h195q10 0 10 -10v-229h1q40 56 126 56q80 0 120.5 -48.5t40.5 -132.5v-174q0 -6 6 -6h31q10 0 10 -10v-116q0 -10 -10 -10h-233q-10 0 -10 10v116q0 10 10 10h24q6 0 6 6v146q0 33 -16 51.5t-45 18.5t-45 -18.5t-16 -51.5v-146q0 -6 6 -6h24q10 0 10 -10v-116
q0 -10 -10 -10h-235q-10 0 -10 10v116q0 10 10 10h33q6 0 6 6v396q0 6 -6 6h-33q-10 0 -10 10v116q0 10 10 10z" />
    <glyph glyph-name="uni0069" unicode="i" horiz-adv-x="307" 
d="M81 680h146q10 0 10 -10v-110q0 -10 -10 -10h-146q-10 0 -10 10v110q0 10 10 10zM32 487h195q10 0 10 -10v-335q0 -6 6 -6h34q10 0 10 -10v-116q0 -10 -10 -10h-245q-10 0 -10 10v116q0 10 10 10h33q6 0 6 6v203q0 6 -6 6h-33q-10 0 -10 10v116q0 10 10 10z" />
    <glyph glyph-name="j" unicode="j" horiz-adv-x="294" 
d="M81 680h146q10 0 10 -10v-110q0 -10 -10 -10h-146q-10 0 -10 10v110q0 10 10 10zM32 487h195q10 0 10 -10v-464q0 -100 -50 -146.5t-149 -46.5h-38q-10 0 -10 10v117q0 10 10 10h16q31 0 43 12t12 45v331q0 6 -6 6h-33q-10 0 -10 10v116q0 10 10 10z" />
    <glyph glyph-name="k" unicode="k" horiz-adv-x="551" 
d="M32 680h195q10 0 10 -10v-329l129 137q8 9 19 9h117q10 0 10 -10v-116q0 -10 -10 -10h-58q-6 0 -11 -5l-45 -44l87 -160q4 -6 10 -6h43q10 0 10 -10v-116q0 -10 -10 -10h-151q-11 0 -16 10l-90 176l-34 -33v-143q0 -10 -10 -10h-195q-10 0 -10 10v116q0 10 10 10h33
q6 0 6 6v396q0 6 -6 6h-33q-10 0 -10 10v116q0 10 10 10z" />
    <glyph glyph-name="l" unicode="l" horiz-adv-x="313" 
d="M18 680h195q10 0 10 -10v-486q0 -48 42 -48h20q10 0 10 -10v-118q0 -10 -10 -10h-59q-91 0 -130 39.5t-39 131.5v369q0 6 -6 6h-33q-10 0 -10 10v116q0 10 10 10z" />
    <glyph glyph-name="m" unicode="m" horiz-adv-x="879" 
d="M643 497q84 0 127 -48t43 -133v-174q0 -6 6 -6h31q10 0 10 -10v-116q0 -10 -10 -10h-233q-10 0 -10 10v116q0 10 10 10h24q6 0 6 6v146q0 33 -16 51.5t-46 18.5q-28 0 -44 -18.5t-16 -51.5v-146q0 -6 6 -6h24q10 0 10 -10v-116q0 -10 -10 -10h-226q-10 0 -10 10v116
q0 10 10 10h24q6 0 6 6v146q0 33 -15.5 51.5t-45.5 18.5q-29 0 -45 -18.5t-16 -51.5v-146q0 -6 6 -6h24q10 0 10 -10v-116q0 -10 -10 -10h-235q-10 0 -10 10v116q0 10 10 10h33q6 0 6 6v203q0 6 -6 6h-33q-10 0 -10 10v116q0 10 10 10h195q10 0 10 -10v-36h1q37 56 126 56
q90 0 130 -60h1q53 60 148 60z" />
    <glyph glyph-name="n" unicode="n" horiz-adv-x="591" 
d="M363 497q81 0 121.5 -48.5t40.5 -132.5v-174q0 -6 6 -6h31q10 0 10 -10v-116q0 -10 -10 -10h-233q-10 0 -10 10v116q0 10 10 10h24q6 0 6 6v146q0 33 -15.5 51.5t-45.5 18.5q-29 0 -45 -18.5t-16 -51.5v-146q0 -6 6 -6h24q10 0 10 -10v-116q0 -10 -10 -10h-235
q-10 0 -10 10v116q0 10 10 10h33q6 0 6 6v203q0 6 -6 6h-33q-10 0 -10 10v116q0 10 10 10h195q10 0 10 -10v-36h1q38 56 125 56z" />
    <glyph glyph-name="o" unicode="o" horiz-adv-x="528" 
d="M264 499q82 0 140 -36t80 -105q15 -49 15 -115q0 -65 -15 -114q-22 -69 -80 -105t-140 -36t-140 36t-80 105q-15 49 -15 114q0 66 15 115q22 69 80 105t140 36zM264 361q-47 0 -60 -41q-7 -21 -7 -77q0 -55 7 -76q13 -41 60 -41t60 41q7 21 7 76q0 56 -7 77
q-13 41 -60 41z" />
    <glyph glyph-name="p" unicode="p" horiz-adv-x="568" 
d="M362 497q122 0 160 -115q17 -55 17 -138q0 -84 -17 -139q-38 -115 -160 -115q-88 0 -124 56h-1v-84q0 -6 6 -6h33q10 0 10 -10v-116q0 -10 -10 -10h-244q-10 0 -10 10v116q0 10 10 10h33q6 0 6 6v383q0 6 -6 6h-33q-10 0 -10 10v116q0 10 10 10h195q10 0 10 -10v-36h1
q36 56 124 56zM304 361q-46 0 -59 -41q-8 -21 -8 -76q0 -56 8 -77q13 -41 59 -41t59 41q8 26 8 77q0 50 -8 76q-13 41 -59 41z" />
    <glyph glyph-name="q" unicode="q" horiz-adv-x="568" 
d="M206 497q89 0 124 -56h1v36q0 10 10 10h195q10 0 10 -10v-116q0 -10 -10 -10h-33q-6 0 -6 -6v-383q0 -6 6 -6h33q10 0 10 -10v-116q0 -10 -10 -10h-244q-10 0 -10 10v116q0 10 10 10h33q6 0 6 6v84h-1q-35 -56 -124 -56q-124 0 -160 115q-17 51 -17 139q0 87 17 138
q36 115 160 115zM264 361q-47 0 -60 -41q-7 -22 -7 -76q0 -55 7 -77q13 -41 60 -41t60 41q7 22 7 77q0 54 -7 76q-13 41 -60 41z" />
    <glyph glyph-name="r" unicode="r" horiz-adv-x="414" 
d="M346 492q21 0 39 -4q10 -3 10 -12v-143q0 -12 -14 -8q-31 9 -57 9q-41 0 -64 -24t-23 -71v-97q0 -6 6 -6h37q10 0 10 -10v-116q0 -10 -10 -10h-248q-10 0 -10 10v116q0 10 10 10h33q6 0 6 6v203q0 6 -6 6h-33q-10 0 -10 10v116q0 10 10 10h195q10 0 10 -10v-46h1
q33 61 108 61z" />
    <glyph glyph-name="s" unicode="s" horiz-adv-x="487" 
d="M238 499q109 0 188 -34q8 -3 8 -11v-108q0 -10 -10 -10h-122q-10 0 -10 10v22q0 5 -6 7q-16 7 -49 7q-57 0 -57 -33q0 -14 10.5 -22t44.5 -11l54 -6q94 -10 134 -48t40 -104q0 -84 -61.5 -127t-167.5 -43q-116 0 -199 33q-7 3 -7 12v117q0 10 10 10h124q10 0 10 -10v-28
q0 -5 5 -6q30 -8 62 -8q67 0 67 37q0 17 -12.5 24.5t-48.5 11.5l-55 6q-165 18 -165 153q0 76 55 117.5t158 41.5z" />
    <glyph glyph-name="t" unicode="t" horiz-adv-x="333" 
d="M73 630h146q10 0 10 -10v-127q0 -6 6 -6h61q10 0 10 -10v-116q0 -10 -10 -10h-61q-6 0 -6 -6v-158q0 -29 9.5 -40t35.5 -11h22q10 0 10 -10v-118q0 -10 -10 -10h-55q-96 0 -137 42.5t-41 141.5v163q0 6 -6 6h-28q-10 0 -10 10v116q0 10 10 10h28q6 0 6 6v127q0 10 10 10z
" />
    <glyph glyph-name="u" unicode="u" horiz-adv-x="584" 
d="M308 487h195q10 0 10 -10v-335q0 -6 6 -6h33q10 0 10 -10v-116q0 -10 -10 -10h-195q-10 0 -10 10v36h-1q-40 -56 -126 -56q-158 0 -158 180v175q0 6 -6 6h-33q-10 0 -10 10v116q0 10 10 10h195q10 0 10 -10v-278q0 -70 59 -70q28 0 44 18.5t16 51.5v146q0 6 -6 6h-33
q-10 0 -10 10v116q0 10 10 10z" />
    <glyph glyph-name="v" unicode="v" horiz-adv-x="542" 
d="M305 487h214q10 0 10 -10v-116q0 -10 -10 -10h-32q-4 0 -5 -4l-121 -337q-3 -10 -13 -10h-154q-9 0 -12 10l-122 337q-1 4 -6 4h-31q-10 0 -10 10v116q0 10 10 10h218q10 0 10 -10v-116q0 -10 -10 -10h-18q-5 0 -3 -5l53 -166h2l52 166q2 5 -3 5h-19q-10 0 -10 10v116
q0 10 10 10z" />
    <glyph glyph-name="w" unicode="w" horiz-adv-x="788" 
d="M551 487h214q10 0 10 -10v-116q0 -10 -10 -10h-31q-5 0 -6 -4l-115 -337q-3 -10 -12 -10h-121q-9 0 -12 10l-73 252h-2l-74 -252q-3 -10 -12 -10h-120q-9 0 -12 10l-116 337q-1 4 -5 4h-31q-10 0 -10 10v116q0 10 10 10h217q10 0 10 -10v-116q0 -10 -10 -10h-25
q-5 0 -3 -5l42 -139h2l75 270q3 10 14 10h99q11 0 14 -10l78 -270h2l40 139q2 5 -3 5h-24q-10 0 -10 10v116q0 10 10 10z" />
    <glyph glyph-name="x" unicode="x" horiz-adv-x="518" 
d="M341 487h137q10 0 10 -10v-116q0 -10 -10 -10h-54q-5 0 -9 -5l-61 -90l78 -116q3 -4 9 -4h46q10 0 10 -10v-116q0 -10 -10 -10h-136q-10 0 -16 9l-77 117h-1l-78 -117q-6 -9 -16 -9h-132q-10 0 -10 10v116q0 10 10 10h49q5 0 9 5l76 111l-64 95q-3 4 -8 4h-53
q-10 0 -10 10v116q0 10 10 10h143q10 0 16 -9l62 -96h1l63 96q6 9 16 9z" />
    <glyph glyph-name="y" unicode="y" horiz-adv-x="534" 
d="M303 487h211q10 0 10 -10v-116q0 -10 -10 -10h-33q-4 0 -5 -4l-164 -403q-29 -71 -67.5 -97.5t-109.5 -26.5h-37q-10 0 -10 10v118q0 10 10 10h26q25 0 39.5 9t23.5 32l10 28l-137 320q-1 4 -6 4h-33q-10 0 -10 10v116q0 10 10 10h216q10 0 10 -10v-116q0 -10 -10 -10
h-20q-5 0 -3 -5l58 -145h2l53 145q2 5 -3 5h-21q-10 0 -10 10v116q0 10 10 10z" />
    <glyph glyph-name="z" unicode="z" horiz-adv-x="487" 
d="M46 487h399q10 0 10 -10v-107q0 -7 -4 -11l-229 -229v-2h92q6 0 6 6v26q0 10 10 10h118q10 0 10 -10v-150q0 -10 -10 -10h-409q-10 0 -10 10v106q0 7 4 11l230 236v3h-82q-6 0 -6 -6v-33q0 -10 -10 -10h-119q-10 0 -10 10v150q0 10 10 10z" />
    <glyph glyph-name="braceleft" unicode="{" horiz-adv-x="367" 
d="M256 740h74q10 0 10 -10v-104q0 -10 -10 -10h-24q-42 0 -42 -44v-113q0 -56 -16.5 -85t-55.5 -44v-1q39 -15 55.5 -44t16.5 -85v-116q0 -44 42 -44h24q10 0 10 -10v-104q0 -10 -10 -10h-74q-133 0 -133 126v138q0 85 -69 85q-10 0 -10 10v109q0 10 10 10q36 0 52.5 20
t16.5 64v136q0 126 133 126z" />
    <glyph glyph-name="bar" unicode="|" horiz-adv-x="337" 
d="M106 740h125q10 0 10 -10v-804q0 -10 -10 -10h-125q-10 0 -10 10v804q0 10 10 10z" />
    <glyph glyph-name="braceright" unicode="}" horiz-adv-x="367" 
d="M37 740h74q133 0 133 -126v-136q0 -44 16.5 -64t52.5 -20q10 0 10 -10v-109q0 -10 -10 -10q-69 0 -69 -85v-138q0 -126 -133 -126h-74q-10 0 -10 10v104q0 10 10 10h24q42 0 42 44v116q0 56 16.5 85t55.5 44v1q-39 15 -55.5 44t-16.5 85v113q0 44 -42 44h-24
q-10 0 -10 10v104q0 10 10 10z" />
    <glyph glyph-name="asciitilde" unicode="~" 
d="M192 368q51 0 102 -33q41 -25 64 -25q35 0 62 46q5 9 14 4l82 -52q8 -5 3 -14q-22 -49 -61.5 -80t-87.5 -31q-49 0 -102 32q-39 25 -63 25q-36 0 -63 -46q-6 -10 -14 -3l-81 51q-7 4 -4 14q23 50 62.5 81t86.5 31z" />
    <glyph glyph-name="uni00A0" unicode="&#xa0;" horiz-adv-x="238" 
 />
    <glyph glyph-name="exclamdown" unicode="&#xa1;" horiz-adv-x="317" 
d="M89 487h138q10 0 10 -10v-126q0 -10 -10 -10h-138q-10 0 -10 10v126q0 10 10 10zM106 277h105q10 0 10 -10l24 -450q0 -10 -10 -10h-153q-10 0 -10 10l24 450q0 10 10 10z" />
    <glyph glyph-name="cent" unicode="&#xa2;" 
d="M252 584h79q10 0 10 -10v-78q85 -8 138 -42q9 -6 9 -16v-121q0 -10 -10 -10h-119q-10 0 -10 10v32q0 5 -5 7q-14 7 -41 7q-53 0 -67 -42q-7 -20 -7 -77q0 -58 7 -78q14 -42 67 -42q25 0 41 6q5 2 5 8v35q0 10 10 10h119q10 0 10 -10v-126q0 -10 -8 -15q-60 -34 -139 -41
v-77q0 -10 -10 -10h-79q-10 0 -10 10v78q-128 18 -167 136q-14 44 -14 116q0 73 14 112q39 117 167 139v79q0 10 10 10z" />
    <glyph glyph-name="sterling" unicode="&#xa3;" 
d="M316 692q103 0 172 -50q8 -5 8 -15v-115q0 -10 -10 -10h-121q-10 0 -10 10v29q0 5 -5 8q-14 6 -32 6q-46 0 -46 -53v-97q0 -6 6 -6h125q10 0 10 -10v-96q0 -10 -10 -10h-125q-6 0 -6 -6v-47q0 -63 -30 -90v-2h124q6 0 6 6v42q0 10 10 10h122q10 0 10 -10v-176
q0 -10 -10 -10h-429q-10 0 -10 10v117q0 7 6 13q34 31 34 80v57q0 6 -6 6h-34q-10 0 -10 10v96q0 10 10 10h34q6 0 6 6v85q0 97 54.5 149.5t156.5 52.5z" />
    <glyph glyph-name="currency" unicode="&#xa4;" 
d="M447 532l84 -84q7 -7 0 -14l-62 -62q20 -42 20 -88t-19 -89l61 -60q8 -8 0 -14l-83 -85q-8 -6 -14 0l-61 61q-42 -21 -92 -21q-51 0 -91 21l-60 -60q-7 -7 -14 0l-84 85q-6 6 0 14l60 59q-19 39 -19 89q0 46 19 89l-60 61q-8 6 0 14l83 84q8 6 14 0l61 -61q44 21 91 21
t91 -21l61 61q7 7 14 0zM281 373q-37 0 -61.5 -25.5t-24.5 -63.5t24.5 -63.5t61.5 -25.5t62 25.5t25 63.5t-25 63.5t-62 25.5z" />
    <glyph glyph-name="yen" unicode="&#xa5;" 
d="M313 680h211q10 0 10 -10v-116q0 -10 -10 -10h-24q-5 0 -8 -4l-78 -148v-2h69q10 0 10 -10v-61q0 -10 -10 -10h-103q-7 0 -8 -5l-8 -29q-2 -7 5 -7h114q10 0 10 -10v-61q0 -10 -10 -10h-117q-6 0 -6 -6v-39q0 -6 6 -6h50q10 0 10 -10v-116q0 -10 -10 -10h-269
q-10 0 -10 10v116q0 10 10 10h50q6 0 6 6v39q0 6 -6 6h-117q-10 0 -10 10v61q0 10 10 10h114q6 0 4 7l-7 29q-1 5 -8 5h-103q-10 0 -10 10v61q0 10 10 10h68v2l-80 148q-3 4 -8 4h-23q-10 0 -10 10v116q0 10 10 10h216q10 0 10 -10v-115q0 -10 -10 -10h-24q-9 0 -5 -7
l58 -125h3l58 124q3 8 -5 8h-25q-10 0 -10 10v115q0 10 10 10z" />
    <glyph glyph-name="brokenbar" unicode="&#xa6;" horiz-adv-x="337" 
d="M106 740h125q10 0 10 -10v-332q0 -10 -10 -10h-125q-10 0 -10 10v332q0 10 10 10zM106 272h125q10 0 10 -10v-336q0 -10 -10 -10h-125q-10 0 -10 10v336q0 10 10 10z" />
    <glyph glyph-name="section" unicode="&#xa7;" horiz-adv-x="531" 
d="M269 694q105 0 171 -44q8 -5 8 -14v-118q0 -10 -10 -10h-109q-10 0 -10 10v36q0 6 -5 8q-18 9 -40 9q-25 0 -38.5 -13t-13.5 -34q0 -25 21.5 -42t73.5 -32q163 -46 163 -195q0 -48 -23.5 -87t-59.5 -62v-2q63 -42 63 -131q0 -73 -54.5 -120t-147.5 -47q-106 0 -177 38
q-7 4 -7 14v126q0 10 10 10h111q10 0 10 -10v-39q0 -5 5 -8q21 -8 46 -8q26 0 40.5 13t14.5 35q0 26 -20.5 44t-76.5 33q-163 44 -163 195q0 95 83 149v2q-61 44 -61 127q0 72 51.5 119.5t144.5 47.5zM266 323q-31 0 -48.5 -19.5t-17.5 -51.5t17.5 -51.5t48.5 -19.5
q30 0 47.5 19.5t17.5 51.5t-17.5 51.5t-47.5 19.5z" />
    <glyph glyph-name="dieresis" unicode="&#xa8;" horiz-adv-x="489" 
d="M88 680h108q10 0 10 -10v-110q0 -10 -10 -10h-108q-10 0 -10 10v110q0 10 10 10zM293 680h108q10 0 10 -10v-110q0 -10 -10 -10h-108q-10 0 -10 10v110q0 10 10 10z" />
    <glyph glyph-name="copyright" unicode="&#xa9;" horiz-adv-x="794" 
d="M397 692q151 0 251.5 -101t100.5 -252t-100.5 -251.5t-251.5 -100.5t-251.5 100.5t-100.5 251.5q0 152 100.5 252.5t251.5 100.5zM397 608q-117 0 -191.5 -76t-74.5 -193t74.5 -192.5t191.5 -75.5q116 0 191 76t75 192q0 117 -75 193t-191 76zM400 536q85 0 143 -37
q9 -6 9 -15v-87q0 -10 -10 -10h-88q-10 0 -10 10v19q0 5 -6 8q-14 6 -33 6q-41 0 -52 -34q-5 -17 -5 -55t5 -56q11 -34 53 -34q20 0 32 5q6 3 6 8v23q0 10 10 10h88q10 0 10 -10v-91q0 -9 -9 -14q-60 -37 -144 -37q-132 0 -171 111q-10 27 -10 85q0 54 10 83
q18 55 63.5 83.5t108.5 28.5z" />
    <glyph glyph-name="ordfeminine" unicode="&#xaa;" horiz-adv-x="367" 
d="M177 689q79 0 112.5 -25.5t33.5 -82.5v-97q0 -6 6 -6h10q10 0 10 -10v-66q0 -10 -10 -10h-112q-10 0 -10 10v14h-2q-25 -30 -80 -30q-43 0 -71.5 22.5t-28.5 65.5q0 46 33.5 71.5t95.5 25.5h46q6 0 6 6v8q0 26 -44 26q-12 0 -17 -1q-6 -2 -6 -7v-11q0 -10 -10 -10h-80
q-10 0 -10 10v63q0 9 9 13q48 21 119 21zM210 506h-38q-35 0 -35 -23q0 -22 32 -22q47 0 47 29v10q0 6 -6 6z" />
    <glyph glyph-name="guillemotleft" unicode="&#xab;" horiz-adv-x="586" 
d="M22 271l236 234q3 3 6.5 1.5t3.5 -5.5v-138q0 -10 -10 -19l-76 -76q-4 -4 0 -8l76 -76q10 -9 10 -19v-138q0 -4 -3.5 -5.5t-6.5 1.5l-236 234q-7 7 0 14zM282 271l237 234q3 3 6.5 1.5t3.5 -5.5v-138q0 -9 -10 -19l-77 -76q-4 -4 0 -8l77 -76q10 -10 10 -19v-138
q0 -4 -3.5 -5.5t-6.5 1.5l-237 234q-7 7 0 14z" />
    <glyph glyph-name="logicalnot" unicode="&#xac;" 
d="M57 346h448q10 0 10 -10v-250q0 -10 -10 -10h-123q-10 0 -10 10v114q0 6 -6 6h-309q-10 0 -10 10v120q0 10 10 10z" />
    <glyph glyph-name="uni00AD" unicode="&#xad;" horiz-adv-x="400" 
d="M49 338h301q10 0 10 -10v-125q0 -10 -10 -10h-301q-10 0 -10 10v125q0 10 10 10z" />
    <glyph glyph-name="registered" unicode="&#xae;" horiz-adv-x="437" 
d="M219 684q82 0 137.5 -55t55.5 -136q0 -82 -55.5 -137t-137.5 -55q-83 0 -138.5 55t-55.5 137q0 81 56 136t138 55zM219 643q-65 0 -107 -42t-42 -108q0 -67 42 -109t107 -42q64 0 106 42.5t42 108.5t-42 108t-106 42zM135 600h99q39 0 61 -17.5t22 -48.5q0 -38 -34 -57
l14 -38q1 -4 6 -4h8q8 0 8 -9v-29q0 -9 -8 -9h-50q-7 0 -10 7l-27 74h-15q-5 0 -5 -5v-24q0 -5 5 -5h5q8 0 8 -9v-29q0 -9 -8 -9h-79q-9 0 -9 9v29q0 9 9 9h5q5 0 5 5v109q0 5 -5 5h-5q-9 0 -9 8v29q0 9 9 9zM233 552h-24q-5 0 -5 -5v-28q0 -5 5 -5h24q25 0 25 20
q0 18 -25 18z" />
    <glyph glyph-name="macron" unicode="&#xaf;" horiz-adv-x="489" 
d="M94 673h301q10 0 10 -10v-91q0 -10 -10 -10h-301q-10 0 -10 10v91q0 10 10 10z" />
    <glyph glyph-name="degree" unicode="&#xb0;" horiz-adv-x="407" 
d="M203 694q68 0 113.5 -45.5t45.5 -112.5t-45.5 -112.5t-113.5 -45.5q-67 0 -112.5 45t-45.5 113t45.5 113t112.5 45zM203 598q-26 0 -42.5 -17.5t-16.5 -44.5t16.5 -44t42.5 -17t43 17t17 44t-17 44.5t-43 17.5z" />
    <glyph glyph-name="plusminus" unicode="&#xb1;" 
d="M219 649h124q10 0 10 -10v-147q0 -6 6 -6h146q10 0 10 -10v-119q0 -10 -10 -10h-146q-6 0 -6 -6v-147q0 -10 -10 -10h-124q-10 0 -10 10v147q0 6 -6 6h-146q-10 0 -10 10v119q0 10 10 10h146q6 0 6 6v147q0 10 10 10zM57 140h448q10 0 10 -10v-120q0 -10 -10 -10h-448
q-10 0 -10 10v120q0 10 10 10z" />
    <glyph glyph-name="twosuperior" unicode="&#xb2;" horiz-adv-x="366" 
d="M183 843q70 0 109.5 -32.5t39.5 -93.5q0 -55 -55 -107l-84 -78v-1h129q10 0 10 -10v-81q0 -10 -10 -10h-278q-10 0 -10 10v76q0 10 9 19l146 137q24 22 24 44q0 32 -34 32q-15 0 -27 -6q-4 -3 -4 -8v-28q0 -10 -10 -10h-87q-10 0 -10 10v86q0 10 8 15q61 36 134 36z" />
    <glyph glyph-name="threesuperior" unicode="&#xb3;" horiz-adv-x="366" 
d="M183 843q69 0 107.5 -30.5t38.5 -83.5q0 -51 -46 -82v-2q53 -24 53 -93q0 -61 -41.5 -95t-117.5 -34q-81 0 -132 31q-7 6 -7 15v81q0 10 10 10h85q11 0 11 -10v-20q0 -4 4 -7q9 -5 28 -5q40 0 40 36q0 35 -43 35h-13q-10 0 -10 10v74q0 10 10 10h13q36 0 36 33
q0 32 -34 32q-14 0 -26 -5q-5 -3 -5 -9v-20q0 -10 -10 -10h-86q-10 0 -10 10v79q0 10 7 14q59 36 138 36z" />
    <glyph glyph-name="acute" unicode="&#xb4;" horiz-adv-x="489" 
d="M222 702h139q5 0 6.5 -3t-1.5 -7l-103 -136q-7 -10 -17 -10h-116q-10 0 -5 10l80 136q6 10 17 10z" />
    <glyph glyph-name="mu" unicode="&#xb5;" horiz-adv-x="583" 
d="M355 487h146q10 0 10 -10v-335q0 -6 6 -6h34q10 0 10 -10v-116q0 -10 -10 -10h-196q-10 0 -10 10v37h-1q-12 -20 -34.5 -35.5t-46.5 -15.5q-20 0 -36 7h-1v-173q0 -10 -10 -10h-146q-10 0 -10 10v647q0 10 10 10h146q10 0 10 -10v-278q0 -70 60 -70q59 0 59 70v278
q0 10 10 10z" />
    <glyph glyph-name="paragraph" unicode="&#xb6;" horiz-adv-x="685" 
d="M296 680h357q10 0 10 -10v-116q0 -10 -10 -10h-37q-6 0 -6 -6v-708q0 -10 -10 -10h-114q-10 0 -10 10v708q0 6 -6 6h-68q-6 0 -6 -6v-708q0 -10 -10 -10h-113q-10 0 -10 10v386q-94 6 -153.5 69.5t-59.5 161.5q0 103 66.5 168t179.5 65z" />
    <glyph glyph-name="periodcentered" unicode="&#xb7;" horiz-adv-x="263" 
d="M62 344h139q10 0 10 -10v-138q0 -10 -10 -10h-139q-10 0 -10 10v138q0 10 10 10z" />
    <glyph glyph-name="cedilla" unicode="&#xb8;" horiz-adv-x="489" 
d="M230 10h101q10 0 7 -10l-46 -156q-3 -10 -16 -10h-115q-10 0 -7 10l62 156q4 10 14 10z" />
    <glyph glyph-name="onesuperior" unicode="&#xb9;" horiz-adv-x="366" 
d="M150 836h101q10 0 10 -10v-287q0 -6 6 -6h61q10 0 10 -10v-83q0 -10 -10 -10h-256q-10 0 -10 10v83q0 10 10 10h61q6 0 6 6v171h-2l-66 -38q-4 -2 -7 0t-3 7v96q0 10 9 15l63 40q9 6 17 6z" />
    <glyph glyph-name="ordmasculine" unicode="&#xba;" horiz-adv-x="387" 
d="M194 689q119 0 148 -90q8 -26 8 -63t-8 -63q-29 -90 -148 -90q-120 0 -149 90q-8 26 -8 63t8 63q29 90 149 90zM194 599q-30 0 -38 -26q-3 -11 -3 -37t3 -37q8 -26 38 -26q29 0 37 26q3 11 3 37t-3 37q-8 26 -37 26z" />
    <glyph glyph-name="guillemotright" unicode="&#xbb;" horiz-adv-x="586" 
d="M67 505l236 -234q7 -7 0 -14l-236 -234q-3 -3 -6.5 -1.5t-3.5 5.5v138q0 9 10 19l77 76q4 4 0 8l-77 76q-10 10 -10 19v138q0 4 3.5 5.5t6.5 -1.5zM328 505l236 -234q7 -7 0 -14l-236 -234q-3 -3 -6.5 -1.5t-3.5 5.5v138q0 10 10 19l76 76q4 4 0 8l-76 76q-10 9 -10 19
v138q0 4 3.5 5.5t6.5 -1.5z" />
    <glyph glyph-name="onequarter" unicode="&#xbc;" horiz-adv-x="865" 
d="M605 692h101q11 0 5 -10l-395 -684q-6 -10 -16 -10h-101q-11 0 -5 10l395 684q6 10 16 10zM150 680h101q10 0 10 -10v-287q0 -6 6 -6h61q10 0 10 -10v-83q0 -10 -10 -10h-256q-10 0 -10 10v83q0 10 10 10h61q6 0 6 6v171h-2l-66 -38q-4 -2 -7 0t-3 7v96q0 10 9 15l63 40
q9 6 17 6zM646 406h107q11 0 7 -10l-111 -241v-2h47q6 0 6 6v57q0 10 10 10h93q10 0 10 -10v-57q0 -6 5 -6h14q10 0 10 -10v-81q0 -10 -10 -10h-13q-6 0 -6 -6v-36q0 -10 -10 -10h-93q-10 0 -10 10v36q0 6 -6 6h-166q-10 0 -10 10v85q0 10 4 18l107 231q4 10 15 10z" />
    <glyph glyph-name="onehalf" unicode="&#xbd;" horiz-adv-x="905" 
d="M605 692h101q11 0 5 -10l-395 -684q-6 -10 -16 -10h-101q-11 0 -5 10l395 684q6 10 16 10zM150 680h101q10 0 10 -10v-287q0 -6 6 -6h61q10 0 10 -10v-83q0 -10 -10 -10h-256q-10 0 -10 10v83q0 10 10 10h61q6 0 6 6v171h-2l-66 -38q-4 -2 -7 0t-3 7v96q0 10 9 15l63 40
q9 6 17 6zM722 413q70 0 109.5 -32.5t39.5 -93.5q0 -55 -55 -107l-84 -78v-1h129q10 0 10 -10v-81q0 -10 -10 -10h-278q-10 0 -10 10v76q0 10 9 19l146 137q24 22 24 44q0 32 -34 32q-15 0 -27 -6q-4 -3 -4 -8v-28q0 -10 -10 -10h-87q-10 0 -10 10v86q0 10 8 15
q61 36 134 36z" />
    <glyph glyph-name="threequarters" unicode="&#xbe;" horiz-adv-x="865" 
d="M605 692h101q11 0 5 -10l-395 -684q-6 -10 -16 -10h-101q-11 0 -5 10l395 684q6 10 16 10zM183 687q69 0 107.5 -30.5t38.5 -83.5q0 -51 -46 -82v-2q53 -24 53 -93q0 -61 -41.5 -95t-117.5 -34q-81 0 -132 31q-7 6 -7 15v81q0 10 10 10h85q11 0 11 -10v-20q0 -4 4 -7
q9 -5 28 -5q40 0 40 36q0 35 -43 35h-13q-10 0 -10 10v74q0 10 10 10h13q36 0 36 33q0 32 -34 32q-14 0 -26 -5q-5 -3 -5 -9v-20q0 -10 -10 -10h-86q-10 0 -10 10v79q0 10 7 14q59 36 138 36zM646 406h107q11 0 7 -10l-111 -241v-2h47q6 0 6 6v57q0 10 10 10h93q10 0 10 -10
v-57q0 -6 5 -6h14q10 0 10 -10v-81q0 -10 -10 -10h-13q-6 0 -6 -6v-36q0 -10 -10 -10h-93q-10 0 -10 10v36q0 6 -6 6h-166q-10 0 -10 10v85q0 10 4 18l107 231q4 10 15 10z" />
    <glyph glyph-name="questiondown" unicode="&#xbf;" horiz-adv-x="483" 
d="M180 487h138q10 0 10 -10v-126q0 -10 -10 -10h-138q-10 0 -10 10v126q0 10 10 10zM182 277h136q10 0 10 -10v-41q0 -50 -31 -84l-64 -75q-24 -29 -32 -45t-8 -37q0 -25 15.5 -39.5t43.5 -14.5q30 0 45 9q6 2 6 9v53q0 10 10 10h122q10 0 10 -10v-137q0 -10 -7 -14
q-88 -56 -193 -56q-98 0 -156.5 51.5t-58.5 134.5q0 43 15 73t50 71l56 67q21 26 21 58v17q0 10 10 10z" />
    <glyph glyph-name="Agrave" unicode="&#xc0;" horiz-adv-x="691" 
d="M165 889h142q10 0 18 -10l102 -122q3 -4 2 -7t-6 -3h-115q-11 0 -20 9l-128 123q-3 4 -1.5 7t6.5 3zM249 680h198q10 0 13 -10l169 -528q1 -6 7 -6h31q10 0 10 -10v-116q0 -10 -10 -10h-240q-10 0 -10 10v116q0 10 10 10h25q6 0 4 6l-16 54h-189l-15 -53q-1 -7 6 -7h23
q10 0 10 -10v-116q0 -10 -10 -10h-241q-10 0 -10 10v116q0 10 10 10h32q6 0 7 6l173 528q3 10 13 10zM345 521l-53 -185h108l-52 185h-3z" />
    <glyph glyph-name="Aacute" unicode="&#xc1;" horiz-adv-x="691" 
d="M386 889h142q5 0 6.5 -3t-1.5 -7l-128 -123q-9 -9 -20 -9h-115q-4 0 -5.5 3t1.5 7l102 122q8 10 18 10zM249 680h198q10 0 13 -10l169 -528q1 -6 7 -6h31q10 0 10 -10v-116q0 -10 -10 -10h-240q-10 0 -10 10v116q0 10 10 10h25q6 0 4 6l-16 54h-189l-15 -53q-1 -7 6 -7
h23q10 0 10 -10v-116q0 -10 -10 -10h-241q-10 0 -10 10v116q0 10 10 10h32q6 0 7 6l173 528q3 10 13 10zM345 521l-53 -185h108l-52 185h-3z" />
    <glyph glyph-name="Acircumflex" unicode="&#xc2;" horiz-adv-x="691" 
d="M300 898h90q12 0 19 -10l108 -137q3 -4 1.5 -7t-6.5 -3h-95q-13 0 -23 10l-48 50h-2l-49 -50q-10 -10 -23 -10h-95q-5 0 -6 3t2 7l108 137q7 10 19 10zM249 680h198q10 0 13 -10l169 -528q1 -6 7 -6h31q10 0 10 -10v-116q0 -10 -10 -10h-240q-10 0 -10 10v116q0 10 10 10
h25q6 0 4 6l-16 54h-189l-15 -53q-1 -7 6 -7h23q10 0 10 -10v-116q0 -10 -10 -10h-241q-10 0 -10 10v116q0 10 10 10h32q6 0 7 6l173 528q3 10 13 10zM345 521l-53 -185h108l-52 185h-3z" />
    <glyph glyph-name="Atilde" unicode="&#xc3;" horiz-adv-x="691" 
d="M276 892q36 0 84 -24q38 -17 60 -17q33 0 75 32q11 7 11 -3v-81q0 -13 -10 -22q-37 -37 -81 -37q-37 0 -83 23q-36 18 -60 18q-33 0 -76 -33q-4 -3 -7 -1.5t-3 5.5v81q0 12 9 22q37 37 81 37zM249 680h198q10 0 13 -10l169 -528q1 -6 7 -6h31q10 0 10 -10v-116
q0 -10 -10 -10h-240q-10 0 -10 10v116q0 10 10 10h25q6 0 4 6l-16 54h-189l-15 -53q-1 -7 6 -7h23q10 0 10 -10v-116q0 -10 -10 -10h-241q-10 0 -10 10v116q0 10 10 10h32q6 0 7 6l173 528q3 10 13 10zM345 521l-53 -185h108l-52 185h-3z" />
    <glyph glyph-name="Adieresis" unicode="&#xc4;" horiz-adv-x="691" 
d="M189 880h107q10 0 10 -10v-110q0 -10 -10 -10h-107q-10 0 -10 10v110q0 10 10 10zM395 880h107q10 0 10 -10v-110q0 -10 -10 -10h-107q-10 0 -10 10v110q0 10 10 10zM249 680h198q10 0 13 -10l169 -528q1 -6 7 -6h31q10 0 10 -10v-116q0 -10 -10 -10h-240q-10 0 -10 10
v116q0 10 10 10h25q6 0 4 6l-16 54h-189l-15 -53q-1 -7 6 -7h23q10 0 10 -10v-116q0 -10 -10 -10h-241q-10 0 -10 10v116q0 10 10 10h32q6 0 7 6l173 528q3 10 13 10zM345 521l-53 -185h108l-52 185h-3z" />
    <glyph glyph-name="Aring" unicode="&#xc5;" horiz-adv-x="691" 
d="M345 931q50 0 82.5 -32t32.5 -81t-32.5 -81.5t-82.5 -32.5q-49 0 -81.5 32.5t-32.5 81.5t32.5 81t81.5 32zM345 862q-18 0 -30.5 -12.5t-12.5 -31.5t12.5 -32t30.5 -13q19 0 31.5 13t12.5 32t-12.5 31.5t-31.5 12.5zM249 680h198q10 0 13 -10l169 -528q1 -6 7 -6h31
q10 0 10 -10v-116q0 -10 -10 -10h-240q-10 0 -10 10v116q0 10 10 10h25q6 0 4 6l-16 54h-189l-15 -53q-1 -7 6 -7h23q10 0 10 -10v-116q0 -10 -10 -10h-241q-10 0 -10 10v116q0 10 10 10h32q6 0 7 6l173 528q3 10 13 10zM345 521l-53 -185h108l-52 185h-3z" />
    <glyph glyph-name="AE" unicode="&#xc6;" horiz-adv-x="916" 
d="M320 680h556q10 0 10 -10v-170q0 -10 -10 -10h-127q-10 0 -10 10v36q0 6 -6 6h-127q-6 0 -6 -6v-117q0 -6 6 -6h77q6 0 6 6v22q0 10 10 10h120q10 0 10 -10v-195q0 -10 -10 -10h-120q-10 0 -10 10v22q0 6 -6 6h-77q-6 0 -6 -6v-124q0 -6 6 -6h127q6 0 6 6v39q0 10 10 10
h127q10 0 10 -10v-173q0 -10 -10 -10h-439q-10 0 -10 10v165q0 6 -6 6h-166l-17 -38q-3 -7 5 -7h20q10 0 10 -10v-116q0 -10 -10 -10h-240q-10 0 -10 10v116q0 10 10 10h24q6 0 9 6l250 528q5 10 14 10zM421 542l-102 -221h102q6 0 6 6v215h-6z" />
    <glyph glyph-name="Ccedilla" unicode="&#xc7;" horiz-adv-x="576" 
d="M311 692q131 0 218 -58q7 -4 7 -14v-153q0 -10 -10 -10h-132q-10 0 -10 10v47q0 8 -7 10q-26 12 -60 12q-74 0 -93 -61q-11 -31 -11 -135q0 -103 10 -136q21 -60 94 -60q37 0 61 11q6 3 6 10v50q0 10 10 10h132q10 0 10 -10v-156q0 -9 -7 -14q-68 -45 -165 -54l-43 -147
q-3 -10 -16 -10h-115q-10 0 -7 10l59 149q-144 23 -186 152q-20 61 -20 194q0 129 19 187q54 166 256 166z" />
    <glyph glyph-name="Egrave" unicode="&#xc8;" horiz-adv-x="564" 
d="M117 889h142q10 0 18 -10l102 -122q3 -4 2 -7t-6 -3h-115q-11 0 -20 9l-128 123q-3 4 -1.5 7t6.5 3zM32 680h492q10 0 10 -10v-170q0 -10 -10 -10h-127q-10 0 -10 10v36q0 6 -6 6h-127q-6 0 -6 -6v-117q0 -6 6 -6h77q6 0 6 6v22q0 10 10 10h120q10 0 10 -10v-195
q0 -10 -10 -10h-120q-10 0 -10 10v22q0 6 -6 6h-77q-6 0 -6 -6v-124q0 -6 6 -6h127q6 0 6 6v39q0 10 10 10h127q10 0 10 -10v-173q0 -10 -10 -10h-492q-10 0 -10 10v116q0 10 10 10h37q6 0 6 6v396q0 6 -6 6h-37q-10 0 -10 10v116q0 10 10 10z" />
    <glyph glyph-name="Eacute" unicode="&#xc9;" horiz-adv-x="564" 
d="M313 889h142q5 0 6.5 -3t-1.5 -7l-128 -123q-9 -9 -20 -9h-115q-5 0 -6 3t2 7l102 122q8 10 18 10zM32 680h492q10 0 10 -10v-170q0 -10 -10 -10h-127q-10 0 -10 10v36q0 6 -6 6h-127q-6 0 -6 -6v-117q0 -6 6 -6h77q6 0 6 6v22q0 10 10 10h120q10 0 10 -10v-195
q0 -10 -10 -10h-120q-10 0 -10 10v22q0 6 -6 6h-77q-6 0 -6 -6v-124q0 -6 6 -6h127q6 0 6 6v39q0 10 10 10h127q10 0 10 -10v-173q0 -10 -10 -10h-492q-10 0 -10 10v116q0 10 10 10h37q6 0 6 6v396q0 6 -6 6h-37q-10 0 -10 10v116q0 10 10 10z" />
    <glyph glyph-name="Ecircumflex" unicode="&#xca;" horiz-adv-x="564" 
d="M247 898h90q12 0 19 -10l108 -137q3 -4 1.5 -7t-6.5 -3h-95q-13 0 -23 10l-48 50h-2l-49 -50q-10 -10 -23 -10h-95q-4 0 -5.5 3t1.5 7l108 137q7 10 19 10zM32 680h492q10 0 10 -10v-170q0 -10 -10 -10h-127q-10 0 -10 10v36q0 6 -6 6h-127q-6 0 -6 -6v-117q0 -6 6 -6h77
q6 0 6 6v22q0 10 10 10h120q10 0 10 -10v-195q0 -10 -10 -10h-120q-10 0 -10 10v22q0 6 -6 6h-77q-6 0 -6 -6v-124q0 -6 6 -6h127q6 0 6 6v39q0 10 10 10h127q10 0 10 -10v-173q0 -10 -10 -10h-492q-10 0 -10 10v116q0 10 10 10h37q6 0 6 6v396q0 6 -6 6h-37q-10 0 -10 10
v116q0 10 10 10z" />
    <glyph glyph-name="Edieresis" unicode="&#xcb;" horiz-adv-x="564" 
d="M134 880h107q10 0 10 -10v-110q0 -10 -10 -10h-107q-10 0 -10 10v110q0 10 10 10zM340 880h107q10 0 10 -10v-110q0 -10 -10 -10h-107q-10 0 -10 10v110q0 10 10 10zM32 680h492q10 0 10 -10v-170q0 -10 -10 -10h-127q-10 0 -10 10v36q0 6 -6 6h-127q-6 0 -6 -6v-117
q0 -6 6 -6h77q6 0 6 6v22q0 10 10 10h120q10 0 10 -10v-195q0 -10 -10 -10h-120q-10 0 -10 10v22q0 6 -6 6h-77q-6 0 -6 -6v-124q0 -6 6 -6h127q6 0 6 6v39q0 10 10 10h127q10 0 10 -10v-173q0 -10 -10 -10h-492q-10 0 -10 10v116q0 10 10 10h37q6 0 6 6v396q0 6 -6 6h-37
q-10 0 -10 10v116q0 10 10 10z" />
    <glyph glyph-name="Igrave" unicode="&#xcc;" horiz-adv-x="324" 
d="M-23 889h142q10 0 18 -10l102 -122q3 -4 2 -7t-6 -3h-115q-11 0 -20 9l-128 123q-3 4 -1.5 7t6.5 3zM32 680h260q10 0 10 -10v-116q0 -10 -10 -10h-37q-6 0 -6 -6v-396q0 -6 6 -6h37q10 0 10 -10v-116q0 -10 -10 -10h-260q-10 0 -10 10v116q0 10 10 10h37q6 0 6 6v396
q0 6 -6 6h-37q-10 0 -10 10v116q0 10 10 10z" />
    <glyph glyph-name="Iacute" unicode="&#xcd;" horiz-adv-x="324" 
d="M208 889h142q5 0 6.5 -3t-1.5 -7l-128 -123q-9 -9 -20 -9h-115q-4 0 -5.5 3t1.5 7l102 122q8 10 18 10zM32 680h260q10 0 10 -10v-116q0 -10 -10 -10h-37q-6 0 -6 -6v-396q0 -6 6 -6h37q10 0 10 -10v-116q0 -10 -10 -10h-260q-10 0 -10 10v116q0 10 10 10h37q6 0 6 6v396
q0 6 -6 6h-37q-10 0 -10 10v116q0 10 10 10z" />
    <glyph glyph-name="Icircumflex" unicode="&#xce;" horiz-adv-x="324" 
d="M117 898h90q12 0 19 -10l108 -137q3 -4 1.5 -7t-6.5 -3h-95q-13 0 -23 10l-48 50h-2l-49 -50q-10 -10 -23 -10h-95q-4 0 -5.5 3t1.5 7l108 137q7 10 19 10zM32 680h260q10 0 10 -10v-116q0 -10 -10 -10h-37q-6 0 -6 -6v-396q0 -6 6 -6h37q10 0 10 -10v-116q0 -10 -10 -10
h-260q-10 0 -10 10v116q0 10 10 10h37q6 0 6 6v396q0 6 -6 6h-37q-10 0 -10 10v116q0 10 10 10z" />
    <glyph glyph-name="Idieresis" unicode="&#xcf;" horiz-adv-x="324" 
d="M5 880h107q10 0 10 -10v-110q0 -10 -10 -10h-107q-10 0 -10 10v110q0 10 10 10zM211 880h107q10 0 10 -10v-110q0 -10 -10 -10h-107q-10 0 -10 10v110q0 10 10 10zM32 680h260q10 0 10 -10v-116q0 -10 -10 -10h-37q-6 0 -6 -6v-396q0 -6 6 -6h37q10 0 10 -10v-116
q0 -10 -10 -10h-260q-10 0 -10 10v116q0 10 10 10h37q6 0 6 6v396q0 6 -6 6h-37q-10 0 -10 10v116q0 10 10 10z" />
    <glyph glyph-name="Eth" unicode="&#xd0;" horiz-adv-x="639" 
d="M32 680h308q190 0 242 -155q20 -63 20 -185t-20 -185q-52 -155 -242 -155h-308q-10 0 -10 10v116q0 10 10 10h37q6 0 6 6v135q0 5 -6 5h-26q-10 0 -10 10v102q0 10 10 10h26q6 0 6 6v128q0 6 -6 6h-37q-10 0 -10 10v116q0 10 10 10zM304 525h-49q-6 0 -6 -6v-109
q0 -6 6 -6h70q10 0 10 -10v-102q0 -10 -10 -10h-70q-6 0 -6 -5v-116q0 -6 6 -6h49q47 0 73.5 15t38.5 50q10 29 10 120t-10 120q-12 35 -38.5 50t-73.5 15z" />
    <glyph glyph-name="Ntilde" unicode="&#xd1;" horiz-adv-x="688" 
d="M272 892q36 0 84 -24q38 -17 60 -17q33 0 75 32q11 7 11 -3v-81q0 -13 -10 -22q-37 -37 -81 -37q-37 0 -83 23q-36 18 -60 18q-33 0 -76 -33q-4 -3 -7 -1.5t-3 5.5v81q0 12 9 22q37 37 81 37zM412 680h244q10 0 10 -10v-116q0 -10 -10 -10h-37q-6 0 -6 -6v-528
q0 -10 -10 -10h-146q-11 0 -17 10l-202 384h-5v-252q0 -6 6 -6h37q10 0 10 -10v-116q0 -10 -10 -10h-244q-10 0 -10 10v116q0 10 10 10h37q6 0 6 6v396q0 6 -6 6h-37q-10 0 -10 10v116q0 10 10 10h199q13 0 17 -10l202 -384h5v252q0 6 -6 6h-37q-10 0 -10 10v116q0 10 10 10
z" />
    <glyph glyph-name="Ograve" unicode="&#xd2;" horiz-adv-x="622" 
d="M123 889h142q10 0 18 -10l102 -122q3 -4 2 -7t-6 -3h-115q-11 0 -20 9l-128 123q-3 4 -1.5 7t6.5 3zM311 692q92 0 160 -43t94 -124q20 -61 20 -185t-20 -185q-26 -81 -94 -124t-160 -43t-160 43t-94 124q-20 65 -20 185t20 185q26 81 94 124t160 43zM311 535
q-68 0 -87 -60q-10 -29 -10 -135t10 -135q19 -60 87 -60t87 60q10 29 10 135t-10 135q-19 60 -87 60z" />
    <glyph glyph-name="Oacute" unicode="&#xd3;" horiz-adv-x="622" 
d="M354 889h142q5 0 6.5 -3t-1.5 -7l-128 -123q-9 -9 -20 -9h-115q-4 0 -5.5 3t1.5 7l102 122q8 10 18 10zM311 692q92 0 160 -43t94 -124q20 -61 20 -185t-20 -185q-26 -81 -94 -124t-160 -43t-160 43t-94 124q-20 65 -20 185t20 185q26 81 94 124t160 43zM311 535
q-68 0 -87 -60q-10 -29 -10 -135t10 -135q19 -60 87 -60t87 60q10 29 10 135t-10 135q-19 60 -87 60z" />
    <glyph glyph-name="Ocircumflex" unicode="&#xd4;" horiz-adv-x="622" 
d="M264 898h90q12 0 19 -10l108 -137q3 -4 1.5 -7t-6.5 -3h-95q-13 0 -23 10l-48 50h-2l-49 -50q-10 -10 -23 -10h-95q-5 0 -6 3t2 7l108 137q7 10 19 10zM311 692q92 0 160 -43t94 -124q20 -61 20 -185t-20 -185q-26 -81 -94 -124t-160 -43t-160 43t-94 124q-20 65 -20 185
t20 185q26 81 94 124t160 43zM311 535q-68 0 -87 -60q-10 -29 -10 -135t10 -135q19 -60 87 -60t87 60q10 29 10 135t-10 135q-19 60 -87 60z" />
    <glyph glyph-name="Otilde" unicode="&#xd5;" horiz-adv-x="622" 
d="M239 892q36 0 84 -24q38 -17 60 -17q33 0 75 32q11 7 11 -3v-81q0 -13 -10 -22q-37 -37 -81 -37q-37 0 -83 23q-36 18 -60 18q-33 0 -76 -33q-4 -3 -7 -1.5t-3 5.5v81q0 12 9 22q37 37 81 37zM311 692q92 0 160 -43t94 -124q20 -61 20 -185t-20 -185q-26 -81 -94 -124
t-160 -43t-160 43t-94 124q-20 65 -20 185t20 185q26 81 94 124t160 43zM311 535q-68 0 -87 -60q-10 -29 -10 -135t10 -135q19 -60 87 -60t87 60q10 29 10 135t-10 135q-19 60 -87 60z" />
    <glyph glyph-name="Odieresis" unicode="&#xd6;" horiz-adv-x="622" 
d="M152 880h107q10 0 10 -10v-110q0 -10 -10 -10h-107q-10 0 -10 10v110q0 10 10 10zM358 880h107q10 0 10 -10v-110q0 -10 -10 -10h-107q-10 0 -10 10v110q0 10 10 10zM311 692q92 0 160 -43t94 -124q20 -61 20 -185t-20 -185q-26 -81 -94 -124t-160 -43t-160 43t-94 124
q-20 65 -20 185t20 185q26 81 94 124t160 43zM311 535q-68 0 -87 -60q-10 -29 -10 -135t10 -135q19 -60 87 -60t87 60q10 29 10 135t-10 135q-19 60 -87 60z" />
    <glyph glyph-name="multiply" unicode="&#xd7;" 
d="M417 493l80 -81q9 -7 0 -14l-116 -117q-5 -5 0 -8l116 -118q9 -7 0 -14l-81 -81q-7 -9 -14 0l-117 117q-4 4 -8 0l-118 -117q-7 -9 -14 0l-80 80q-7 7 0 14l116 117q5 5 0 9l-116 117q-7 7 0 14l81 82q7 7 14 0l117 -118q5 -3 9 0l117 118q7 7 14 0z" />
    <glyph glyph-name="Oslash" unicode="&#xd8;" horiz-adv-x="622" 
d="M495 710h103q11 0 5 -10l-71 -110q21 -28 33 -65q20 -61 20 -185t-20 -185q-26 -81 -94 -124t-160 -43q-80 0 -142 32l-26 -40q-7 -10 -17 -10h-102q-11 0 -5 10l70 109q-20 30 -32 66q-20 65 -20 185t20 185q26 81 94 124t160 43q81 0 142 -33l26 41q6 10 16 10z
M311 535q-68 0 -87 -60q-10 -29 -10 -135t10 -135q19 -60 87 -60t87 60q10 29 10 135t-10 135q-19 60 -87 60z" />
    <glyph glyph-name="Ugrave" unicode="&#xd9;" horiz-adv-x="664" 
d="M143 889h142q10 0 18 -10l102 -122q3 -4 2 -7t-6 -3h-115q-11 0 -20 9l-128 123q-3 4 -1.5 7t6.5 3zM382 680h257q10 0 10 -10v-116q0 -10 -10 -10h-34q-6 0 -6 -6v-275q0 -133 -71.5 -204t-194.5 -71q-124 0 -196 71t-72 204v275q0 6 -6 6h-34q-10 0 -10 10v116
q0 10 10 10h257q10 0 10 -10v-116q0 -10 -10 -10h-37q-6 0 -6 -6v-286q0 -51 24.5 -79t68.5 -28t68.5 28t24.5 79v286q0 6 -6 6h-37q-10 0 -10 10v116q0 10 10 10z" />
    <glyph glyph-name="Uacute" unicode="&#xda;" horiz-adv-x="664" 
d="M379 889h142q5 0 6.5 -3t-1.5 -7l-128 -123q-9 -9 -20 -9h-115q-5 0 -6 3t2 7l102 122q8 10 18 10zM382 680h257q10 0 10 -10v-116q0 -10 -10 -10h-34q-6 0 -6 -6v-275q0 -133 -71.5 -204t-194.5 -71q-124 0 -196 71t-72 204v275q0 6 -6 6h-34q-10 0 -10 10v116
q0 10 10 10h257q10 0 10 -10v-116q0 -10 -10 -10h-37q-6 0 -6 -6v-286q0 -51 24.5 -79t68.5 -28t68.5 28t24.5 79v286q0 6 -6 6h-37q-10 0 -10 10v116q0 10 10 10z" />
    <glyph glyph-name="Ucircumflex" unicode="&#xdb;" horiz-adv-x="664" 
d="M286 898h90q12 0 19 -10l108 -137q3 -4 1.5 -7t-6.5 -3h-95q-13 0 -23 10l-48 50h-2l-49 -50q-10 -10 -23 -10h-95q-5 0 -6 3t2 7l108 137q7 10 19 10zM382 680h257q10 0 10 -10v-116q0 -10 -10 -10h-34q-6 0 -6 -6v-275q0 -133 -71.5 -204t-194.5 -71q-124 0 -196 71
t-72 204v275q0 6 -6 6h-34q-10 0 -10 10v116q0 10 10 10h257q10 0 10 -10v-116q0 -10 -10 -10h-37q-6 0 -6 -6v-286q0 -51 24.5 -79t68.5 -28t68.5 28t24.5 79v286q0 6 -6 6h-37q-10 0 -10 10v116q0 10 10 10z" />
    <glyph glyph-name="Udieresis" unicode="&#xdc;" horiz-adv-x="664" 
d="M174 880h107q10 0 10 -10v-110q0 -10 -10 -10h-107q-10 0 -10 10v110q0 10 10 10zM380 880h107q10 0 10 -10v-110q0 -10 -10 -10h-107q-10 0 -10 10v110q0 10 10 10zM382 680h257q10 0 10 -10v-116q0 -10 -10 -10h-34q-6 0 -6 -6v-275q0 -133 -71.5 -204t-194.5 -71
q-124 0 -196 71t-72 204v275q0 6 -6 6h-34q-10 0 -10 10v116q0 10 10 10h257q10 0 10 -10v-116q0 -10 -10 -10h-37q-6 0 -6 -6v-286q0 -51 24.5 -79t68.5 -28t68.5 28t24.5 79v286q0 6 -6 6h-37q-10 0 -10 10v116q0 10 10 10z" />
    <glyph glyph-name="Yacute" unicode="&#xdd;" horiz-adv-x="616" 
d="M358 889h142q5 0 6.5 -3t-1.5 -7l-128 -123q-9 -9 -20 -9h-115q-4 0 -5.5 3t1.5 7l102 122q8 10 18 10zM348 680h245q10 0 10 -10v-116q0 -10 -10 -10h-30q-5 0 -8 -5l-161 -276v-121q0 -6 6 -6h45q10 0 10 -10v-116q0 -10 -10 -10h-275q-10 0 -10 10v116q0 10 10 10h45
q6 0 6 6v121l-161 276q-3 5 -9 5h-28q-10 0 -10 10v116q0 10 10 10h248q10 0 10 -10v-114q0 -10 -10 -10h-33q-8 0 -4 -7l75 -134h3l76 135q3 6 -5 6h-35q-10 0 -10 10v114q0 10 10 10z" />
    <glyph glyph-name="Thorn" unicode="&#xde;" horiz-adv-x="618" 
d="M32 680h207q10 0 10 -10v-96q0 -6 6 -6h93q120 0 184 -60.5t64 -159.5q0 -97 -65 -158.5t-183 -61.5h-93q-6 0 -6 -6v-112q0 -10 -10 -10h-207q-10 0 -10 10v116q0 10 10 10h37q6 0 6 6v396q0 6 -6 6h-37q-10 0 -10 10v116q0 10 10 10zM338 424h-83q-6 0 -6 -6v-140
q0 -6 6 -6h83q41 0 62.5 20t21.5 56t-21.5 56t-62.5 20z" />
    <glyph glyph-name="germandbls" unicode="&#xdf;" horiz-adv-x="587" 
d="M308 692q112 0 173 -46t61 -126q0 -78 -57 -116v-2q43 -21 59 -71q10 -31 10 -107q0 -82 -12 -120q-19 -56 -68.5 -80.5t-135.5 -24.5h-40q-10 0 -10 10v112q0 10 10 10h24q49 0 62 39q5 15 5 58q0 48 -5 66q-14 41 -67 41h-17q-10 0 -10 10v108q0 10 10 10h24
q54 0 54 48q0 47 -69 47q-42 0 -61 -18.5t-19 -57.5v-472q0 -10 -10 -10h-195q-10 0 -10 10v116q0 10 10 10h33q6 0 6 6v338q0 212 245 212z" />
    <glyph glyph-name="agrave" unicode="&#xe0;" horiz-adv-x="537" 
d="M117 702h139q11 0 17 -10l80 -136q5 -10 -5 -10h-116q-9 0 -17 10l-103 136q-3 4 -1.5 7t6.5 3zM246 499q123 0 173.5 -43t50.5 -139v-175q0 -6 6 -6h31q10 0 10 -10v-116q0 -10 -10 -10h-185q-10 0 -10 10v28h-1q-43 -50 -130 -50q-67 0 -112 38t-45 112q0 80 56 120
t150 40h76q6 0 6 6v16q0 28 -14.5 42t-53.5 14q-21 0 -35 -4q-6 -2 -6 -7v-25q0 -10 -10 -10h-127q-10 0 -10 10v112q0 10 9 14q84 33 181 33zM306 196h-58q-67 0 -67 -45q0 -43 57 -43q74 0 74 52v30q0 6 -6 6z" />
    <glyph glyph-name="aacute" unicode="&#xe1;" horiz-adv-x="537" 
d="M280 702h139q5 0 6.5 -3t-1.5 -7l-103 -136q-7 -10 -17 -10h-116q-10 0 -5 10l80 136q6 10 17 10zM246 499q123 0 173.5 -43t50.5 -139v-175q0 -6 6 -6h31q10 0 10 -10v-116q0 -10 -10 -10h-185q-10 0 -10 10v28h-1q-43 -50 -130 -50q-67 0 -112 38t-45 112q0 80 56 120
t150 40h76q6 0 6 6v16q0 28 -14.5 42t-53.5 14q-21 0 -35 -4q-6 -2 -6 -7v-25q0 -10 -10 -10h-127q-10 0 -10 10v112q0 10 9 14q84 33 181 33zM306 196h-58q-67 0 -67 -45q0 -43 57 -43q74 0 74 52v30q0 6 -6 6z" />
    <glyph glyph-name="acircumflex" unicode="&#xe2;" horiz-adv-x="537" 
d="M211 701h91q11 0 18 -10l109 -137q3 -4 1.5 -7t-6.5 -3h-95q-13 0 -23 10l-49 50h-2l-48 -50q-10 -10 -23 -10h-95q-5 0 -6.5 3t1.5 7l109 137q7 10 18 10zM246 499q123 0 173.5 -43t50.5 -139v-175q0 -6 6 -6h31q10 0 10 -10v-116q0 -10 -10 -10h-185q-10 0 -10 10v28
h-1q-43 -50 -130 -50q-67 0 -112 38t-45 112q0 80 56 120t150 40h76q6 0 6 6v16q0 28 -14.5 42t-53.5 14q-21 0 -35 -4q-6 -2 -6 -7v-25q0 -10 -10 -10h-127q-10 0 -10 10v112q0 10 9 14q84 33 181 33zM306 196h-58q-67 0 -67 -45q0 -43 57 -43q74 0 74 52v30q0 6 -6 6z" />
    <glyph glyph-name="atilde" unicode="&#xe3;" horiz-adv-x="537" 
d="M187 697q38 0 84 -23q36 -18 60 -18q34 0 75 33q11 7 11 -4v-81q0 -13 -10 -22q-37 -37 -81 -37q-37 0 -83 23q-36 18 -60 18q-32 0 -76 -32q-4 -3 -7 -2t-3 5v81q0 13 9 22q37 37 81 37zM246 499q123 0 173.5 -43t50.5 -139v-175q0 -6 6 -6h31q10 0 10 -10v-116
q0 -10 -10 -10h-185q-10 0 -10 10v28h-1q-43 -50 -130 -50q-67 0 -112 38t-45 112q0 80 56 120t150 40h76q6 0 6 6v16q0 28 -14.5 42t-53.5 14q-21 0 -35 -4q-6 -2 -6 -7v-25q0 -10 -10 -10h-127q-10 0 -10 10v112q0 10 9 14q84 33 181 33zM306 196h-58q-67 0 -67 -45
q0 -43 57 -43q74 0 74 52v30q0 6 -6 6z" />
    <glyph glyph-name="adieresis" unicode="&#xe4;" horiz-adv-x="537" 
d="M100 680h108q10 0 10 -10v-110q0 -10 -10 -10h-108q-10 0 -10 10v110q0 10 10 10zM305 680h108q10 0 10 -10v-110q0 -10 -10 -10h-108q-10 0 -10 10v110q0 10 10 10zM246 499q123 0 173.5 -43t50.5 -139v-175q0 -6 6 -6h31q10 0 10 -10v-116q0 -10 -10 -10h-185
q-10 0 -10 10v28h-1q-43 -50 -130 -50q-67 0 -112 38t-45 112q0 80 56 120t150 40h76q6 0 6 6v16q0 28 -14.5 42t-53.5 14q-21 0 -35 -4q-6 -2 -6 -7v-25q0 -10 -10 -10h-127q-10 0 -10 10v112q0 10 9 14q84 33 181 33zM306 196h-58q-67 0 -67 -45q0 -43 57 -43q74 0 74 52
v30q0 6 -6 6z" />
    <glyph glyph-name="aring" unicode="&#xe5;" horiz-adv-x="537" 
d="M258 746q50 0 82.5 -32.5t32.5 -81.5t-32.5 -81.5t-82.5 -32.5q-49 0 -81.5 32.5t-32.5 81.5t32.5 81.5t81.5 32.5zM258 677q-18 0 -30.5 -13t-12.5 -32t12.5 -32t30.5 -13q19 0 31.5 13t12.5 32t-12.5 32t-31.5 13zM246 499q123 0 173.5 -43t50.5 -139v-175q0 -6 6 -6
h31q10 0 10 -10v-116q0 -10 -10 -10h-185q-10 0 -10 10v28h-1q-43 -50 -130 -50q-67 0 -112 38t-45 112q0 80 56 120t150 40h76q6 0 6 6v16q0 28 -14.5 42t-53.5 14q-21 0 -35 -4q-6 -2 -6 -7v-25q0 -10 -10 -10h-127q-10 0 -10 10v112q0 10 9 14q84 33 181 33zM306 196h-58
q-67 0 -67 -45q0 -43 57 -43q74 0 74 52v30q0 6 -6 6z" />
    <glyph glyph-name="ae" unicode="&#xe6;" horiz-adv-x="806" 
d="M542 499q173 0 219 -141q16 -48 16 -152q0 -10 -10 -10h-289q-6 0 -6 -6q0 -11 3 -20q19 -53 95 -53q60 0 110 40q7 6 14 -1l71 -74q7 -6 -1 -14q-83 -80 -212 -80q-51 0 -95 18.5t-70 50.5h-1q-53 -69 -184 -69q-85 0 -131.5 38t-46.5 112q0 79 56 119.5t150 40.5h78
q6 0 6 6v16q0 28 -15 42t-54 14q-21 0 -35 -4q-6 -2 -6 -7v-25q0 -10 -10 -10h-127q-10 0 -10 10v112q0 10 9 14q75 33 178 33q110 0 162 -43h2q54 43 134 43zM544 378q-52 0 -68 -44q-4 -11 -4 -30q0 -6 6 -6h132q6 0 6 6q0 19 -4 30q-14 44 -68 44zM308 196h-60
q-67 0 -67 -46q0 -42 57 -42q76 0 76 52v30q0 6 -6 6z" />
    <glyph glyph-name="ccedilla" unicode="&#xe7;" horiz-adv-x="490" 
d="M261 499q110 0 186 -45q9 -6 9 -16v-121q0 -10 -10 -10h-119q-10 0 -10 10v32q0 5 -5 7q-14 7 -41 7q-53 0 -67 -42q-7 -20 -7 -77q0 -58 7 -78q14 -42 67 -42q25 0 41 6q5 2 5 8v35q0 10 10 10h119q10 0 10 -10v-126q0 -10 -8 -15q-58 -34 -136 -41l-43 -147
q-3 -10 -16 -10h-115q-10 0 -7 10l60 151q-110 24 -148 132q-14 39 -14 117q0 74 14 113q49 142 218 142z" />
    <glyph glyph-name="egrave" unicode="&#xe8;" horiz-adv-x="525" 
d="M105 702h139q11 0 17 -10l80 -136q5 -10 -5 -10h-116q-9 0 -17 10l-103 136q-3 4 -1.5 7t6.5 3zM261 499q173 0 219 -141q16 -48 16 -152q0 -10 -11 -10h-288q-6 0 -6 -6q0 -11 3 -20q17 -53 96 -53q58 0 109 40q7 6 14 -1l70 -73q7 -8 0 -15q-83 -80 -211 -80
q-89 0 -147 37.5t-80 105.5q-16 46 -16 113q0 65 15 112q23 68 79 105.5t138 37.5zM264 378q-55 0 -69 -44q-4 -16 -4 -30q0 -6 6 -6h132q6 0 6 6q0 18 -4 30q-15 44 -67 44z" />
    <glyph glyph-name="eacute" unicode="&#xe9;" horiz-adv-x="525" 
d="M284 702h139q5 0 6.5 -3t-1.5 -7l-103 -136q-7 -10 -17 -10h-116q-10 0 -5 10l80 136q6 10 17 10zM261 499q173 0 219 -141q16 -48 16 -152q0 -10 -11 -10h-288q-6 0 -6 -6q0 -11 3 -20q17 -53 96 -53q58 0 109 40q7 6 14 -1l70 -73q7 -8 0 -15q-83 -80 -211 -80
q-89 0 -147 37.5t-80 105.5q-16 46 -16 113q0 65 15 112q23 68 79 105.5t138 37.5zM264 378q-55 0 -69 -44q-4 -16 -4 -30q0 -6 6 -6h132q6 0 6 6q0 18 -4 30q-15 44 -67 44z" />
    <glyph glyph-name="ecircumflex" unicode="&#xea;" horiz-adv-x="525" 
d="M215 701h91q11 0 18 -10l109 -137q3 -4 1.5 -7t-6.5 -3h-95q-13 0 -23 10l-49 50h-2l-48 -50q-10 -10 -23 -10h-95q-5 0 -6.5 3t1.5 7l109 137q7 10 18 10zM261 499q173 0 219 -141q16 -48 16 -152q0 -10 -11 -10h-288q-6 0 -6 -6q0 -11 3 -20q17 -53 96 -53q58 0 109 40
q7 6 14 -1l70 -73q7 -8 0 -15q-83 -80 -211 -80q-89 0 -147 37.5t-80 105.5q-16 46 -16 113q0 65 15 112q23 68 79 105.5t138 37.5zM264 378q-55 0 -69 -44q-4 -16 -4 -30q0 -6 6 -6h132q6 0 6 6q0 18 -4 30q-15 44 -67 44z" />
    <glyph glyph-name="edieresis" unicode="&#xeb;" horiz-adv-x="525" 
d="M104 680h108q10 0 10 -10v-110q0 -10 -10 -10h-108q-10 0 -10 10v110q0 10 10 10zM309 680h108q10 0 10 -10v-110q0 -10 -10 -10h-108q-10 0 -10 10v110q0 10 10 10zM261 499q173 0 219 -141q16 -48 16 -152q0 -10 -11 -10h-288q-6 0 -6 -6q0 -11 3 -20q17 -53 96 -53
q58 0 109 40q7 6 14 -1l70 -73q7 -8 0 -15q-83 -80 -211 -80q-89 0 -147 37.5t-80 105.5q-16 46 -16 113q0 65 15 112q23 68 79 105.5t138 37.5zM264 378q-55 0 -69 -44q-4 -16 -4 -30q0 -6 6 -6h132q6 0 6 6q0 18 -4 30q-15 44 -67 44z" />
    <glyph glyph-name="igrave" unicode="&#xec;" horiz-adv-x="307" 
d="M-16 702h139q11 0 17 -10l80 -136q5 -10 -5 -10h-116q-9 0 -17 10l-103 136q-3 4 -1.5 7t6.5 3zM32 487h195q10 0 10 -10v-335q0 -6 6 -6h34q10 0 10 -10v-116q0 -10 -10 -10h-245q-10 0 -10 10v116q0 10 10 10h33q6 0 6 6v203q0 6 -6 6h-33q-10 0 -10 10v116q0 10 10 10
z" />
    <glyph glyph-name="iacute" unicode="&#xed;" horiz-adv-x="307" 
d="M182 702h139q5 0 6.5 -3t-1.5 -7l-103 -136q-7 -10 -17 -10h-116q-10 0 -5 10l80 136q6 10 17 10zM32 487h195q10 0 10 -10v-335q0 -6 6 -6h34q10 0 10 -10v-116q0 -10 -10 -10h-245q-10 0 -10 10v116q0 10 10 10h33q6 0 6 6v203q0 6 -6 6h-33q-10 0 -10 10v116
q0 10 10 10z" />
    <glyph glyph-name="icircumflex" unicode="&#xee;" horiz-adv-x="307" 
d="M101 701h91q11 0 18 -10l109 -137q3 -4 1.5 -7t-6.5 -3h-95q-13 0 -23 10l-49 50h-2l-48 -50q-10 -10 -23 -10h-95q-5 0 -6.5 3t1.5 7l109 137q7 10 18 10zM32 487h195q10 0 10 -10v-335q0 -6 6 -6h34q10 0 10 -10v-116q0 -10 -10 -10h-245q-10 0 -10 10v116q0 10 10 10
h33q6 0 6 6v203q0 6 -6 6h-33q-10 0 -10 10v116q0 10 10 10z" />
    <glyph glyph-name="idieresis" unicode="&#xef;" horiz-adv-x="307" 
d="M-10 680h108q10 0 10 -10v-110q0 -10 -10 -10h-108q-10 0 -10 10v110q0 10 10 10zM195 680h108q10 0 10 -10v-110q0 -10 -10 -10h-108q-10 0 -10 10v110q0 10 10 10zM32 487h195q10 0 10 -10v-335q0 -6 6 -6h34q10 0 10 -10v-116q0 -10 -10 -10h-245q-10 0 -10 10v116
q0 10 10 10h33q6 0 6 6v203q0 6 -6 6h-33q-10 0 -10 10v116q0 10 10 10z" />
    <glyph glyph-name="eth" unicode="&#xf0;" horiz-adv-x="532" 
d="M108 680h147q13 0 20 -9l30 -41l90 27q10 2 13 -7l21 -73q2 -10 -7 -13l-57 -17l9 -11q73 -99 101 -165t28 -140q0 -58 -14 -98q-22 -68 -80.5 -106.5t-142.5 -38.5q-86 0 -143.5 37t-78.5 101q-15 43 -15 93q0 56 14 97q18 58 63 92t109 34q34 0 64 -17h2l-58 81
l-96 -29q-10 -2 -13 7l-21 73q-3 9 7 12l63 18l-59 83q-3 4 -1.5 7t5.5 3zM266 313q-47 0 -61 -42q-7 -18 -7 -52q0 -32 7 -52q14 -41 61 -41t61 41q7 20 7 52q0 34 -7 52q-14 42 -61 42z" />
    <glyph glyph-name="ntilde" unicode="&#xf1;" horiz-adv-x="591" 
d="M224 697q38 0 84 -23q36 -18 60 -18q34 0 75 33q11 7 11 -4v-81q0 -13 -10 -22q-37 -37 -81 -37q-37 0 -83 23q-36 18 -60 18q-32 0 -76 -32q-4 -3 -7 -2t-3 5v81q0 13 9 22q37 37 81 37zM363 497q81 0 121.5 -48.5t40.5 -132.5v-174q0 -6 6 -6h31q10 0 10 -10v-116
q0 -10 -10 -10h-233q-10 0 -10 10v116q0 10 10 10h24q6 0 6 6v146q0 33 -15.5 51.5t-45.5 18.5q-29 0 -45 -18.5t-16 -51.5v-146q0 -6 6 -6h24q10 0 10 -10v-116q0 -10 -10 -10h-235q-10 0 -10 10v116q0 10 10 10h33q6 0 6 6v203q0 6 -6 6h-33q-10 0 -10 10v116q0 10 10 10
h195q10 0 10 -10v-36h1q38 56 125 56z" />
    <glyph glyph-name="ograve" unicode="&#xf2;" horiz-adv-x="528" 
d="M101 702h139q11 0 17 -10l80 -136q5 -10 -5 -10h-116q-10 0 -17 10l-103 136q-3 4 -1.5 7t6.5 3zM264 499q82 0 140 -36t80 -105q15 -49 15 -115q0 -65 -15 -114q-22 -69 -80 -105t-140 -36t-140 36t-80 105q-15 49 -15 114q0 66 15 115q22 69 80 105t140 36zM264 361
q-47 0 -60 -41q-7 -21 -7 -77q0 -55 7 -76q13 -41 60 -41t60 41q7 21 7 76q0 56 -7 77q-13 41 -60 41z" />
    <glyph glyph-name="oacute" unicode="&#xf3;" horiz-adv-x="528" 
d="M287 702h139q5 0 6.5 -3t-1.5 -7l-103 -136q-8 -10 -17 -10h-116q-10 0 -5 10l80 136q6 10 17 10zM264 499q82 0 140 -36t80 -105q15 -49 15 -115q0 -65 -15 -114q-22 -69 -80 -105t-140 -36t-140 36t-80 105q-15 49 -15 114q0 66 15 115q22 69 80 105t140 36zM264 361
q-47 0 -60 -41q-7 -21 -7 -77q0 -55 7 -76q13 -41 60 -41t60 41q7 21 7 76q0 56 -7 77q-13 41 -60 41z" />
    <glyph glyph-name="ocircumflex" unicode="&#xf4;" horiz-adv-x="528" 
d="M218 701h91q11 0 18 -10l109 -137q3 -4 1.5 -7t-6.5 -3h-95q-13 0 -23 10l-49 50h-2l-48 -50q-10 -10 -23 -10h-95q-5 0 -6.5 3t1.5 7l109 137q7 10 18 10zM264 499q82 0 140 -36t80 -105q15 -49 15 -115q0 -65 -15 -114q-22 -69 -80 -105t-140 -36t-140 36t-80 105
q-15 49 -15 114q0 66 15 115q22 69 80 105t140 36zM264 361q-47 0 -60 -41q-7 -21 -7 -77q0 -55 7 -76q13 -41 60 -41t60 41q7 21 7 76q0 56 -7 77q-13 41 -60 41z" />
    <glyph glyph-name="otilde" unicode="&#xf5;" horiz-adv-x="528" 
d="M193 697q38 0 84 -23q36 -18 60 -18q34 0 75 33q11 7 11 -4v-81q0 -13 -10 -22q-37 -37 -81 -37q-37 0 -83 23q-36 18 -60 18q-32 0 -76 -32q-4 -3 -7 -2t-3 5v81q0 13 9 22q37 37 81 37zM264 499q82 0 140 -36t80 -105q15 -49 15 -115q0 -65 -15 -114q-22 -69 -80 -105
t-140 -36t-140 36t-80 105q-15 49 -15 114q0 66 15 115q22 69 80 105t140 36zM264 361q-47 0 -60 -41q-7 -21 -7 -77q0 -55 7 -76q13 -41 60 -41t60 41q7 21 7 76q0 56 -7 77q-13 41 -60 41z" />
    <glyph glyph-name="odieresis" unicode="&#xf6;" horiz-adv-x="528" 
d="M107 680h108q10 0 10 -10v-110q0 -10 -10 -10h-108q-10 0 -10 10v110q0 10 10 10zM312 680h108q10 0 10 -10v-110q0 -10 -10 -10h-108q-10 0 -10 10v110q0 10 10 10zM264 499q82 0 140 -36t80 -105q15 -49 15 -115q0 -65 -15 -114q-22 -69 -80 -105t-140 -36t-140 36
t-80 105q-15 49 -15 114q0 66 15 115q22 69 80 105t140 36zM264 361q-47 0 -60 -41q-7 -21 -7 -77q0 -55 7 -76q13 -41 60 -41t60 41q7 21 7 76q0 56 -7 77q-13 41 -60 41z" />
    <glyph glyph-name="divide" unicode="&#xf7;" 
d="M281 558q36 0 60.5 -24.5t24.5 -60.5q0 -35 -24.5 -59.5t-60.5 -24.5q-35 0 -60 24.5t-25 59.5q0 36 25 60.5t60 24.5zM57 346h448q10 0 10 -10v-120q0 -10 -10 -10h-448q-10 0 -10 10v120q0 10 10 10zM281 163q36 0 60.5 -24.5t24.5 -59.5q0 -36 -24.5 -60.5
t-60.5 -24.5q-35 0 -60 24.5t-25 60.5q0 35 25 59.5t60 24.5z" />
    <glyph glyph-name="oslash" unicode="&#xf8;" horiz-adv-x="528" 
d="M425 517h81q11 0 5 -10l-63 -83q25 -32 36 -66q15 -49 15 -115q0 -65 -15 -114q-22 -69 -80 -105t-140 -36q-67 0 -118 24l-24 -32q-7 -10 -19 -10h-82q-5 0 -6 3t2 7l63 82q-24 29 -36 67q-15 49 -15 114q0 66 15 115q22 69 80 105t140 36q64 0 117 -25l25 33
q7 10 19 10zM264 361q-47 0 -60 -41q-7 -21 -7 -77q0 -55 7 -76q13 -41 60 -41t60 41q7 21 7 76q0 56 -7 77q-13 41 -60 41z" />
    <glyph glyph-name="ugrave" unicode="&#xf9;" horiz-adv-x="584" 
d="M127 702h139q11 0 17 -10l80 -136q5 -10 -5 -10h-116q-10 0 -17 10l-103 136q-3 4 -1.5 7t6.5 3zM308 487h195q10 0 10 -10v-335q0 -6 6 -6h33q10 0 10 -10v-116q0 -10 -10 -10h-195q-10 0 -10 10v36h-1q-40 -56 -126 -56q-158 0 -158 180v175q0 6 -6 6h-33q-10 0 -10 10
v116q0 10 10 10h195q10 0 10 -10v-278q0 -70 59 -70q28 0 44 18.5t16 51.5v146q0 6 -6 6h-33q-10 0 -10 10v116q0 10 10 10z" />
    <glyph glyph-name="uacute" unicode="&#xfa;" horiz-adv-x="584" 
d="M304 702h139q5 0 6.5 -3t-1.5 -7l-103 -136q-7 -10 -17 -10h-116q-10 0 -5 10l80 136q6 10 17 10zM308 487h195q10 0 10 -10v-335q0 -6 6 -6h33q10 0 10 -10v-116q0 -10 -10 -10h-195q-10 0 -10 10v36h-1q-40 -56 -126 -56q-158 0 -158 180v175q0 6 -6 6h-33
q-10 0 -10 10v116q0 10 10 10h195q10 0 10 -10v-278q0 -70 59 -70q28 0 44 18.5t16 51.5v146q0 6 -6 6h-33q-10 0 -10 10v116q0 10 10 10z" />
    <glyph glyph-name="ucircumflex" unicode="&#xfb;" horiz-adv-x="584" 
d="M236 701h91q11 0 18 -10l109 -137q3 -4 1.5 -7t-6.5 -3h-95q-13 0 -23 10l-49 50h-2l-48 -50q-10 -10 -23 -10h-95q-5 0 -6.5 3t1.5 7l109 137q7 10 18 10zM308 487h195q10 0 10 -10v-335q0 -6 6 -6h33q10 0 10 -10v-116q0 -10 -10 -10h-195q-10 0 -10 10v36h-1
q-40 -56 -126 -56q-158 0 -158 180v175q0 6 -6 6h-33q-10 0 -10 10v116q0 10 10 10h195q10 0 10 -10v-278q0 -70 59 -70q28 0 44 18.5t16 51.5v146q0 6 -6 6h-33q-10 0 -10 10v116q0 10 10 10z" />
    <glyph glyph-name="udieresis" unicode="&#xfc;" horiz-adv-x="584" 
d="M124 680h108q10 0 10 -10v-110q0 -10 -10 -10h-108q-10 0 -10 10v110q0 10 10 10zM329 680h108q10 0 10 -10v-110q0 -10 -10 -10h-108q-10 0 -10 10v110q0 10 10 10zM308 487h195q10 0 10 -10v-335q0 -6 6 -6h33q10 0 10 -10v-116q0 -10 -10 -10h-195q-10 0 -10 10v36h-1
q-40 -56 -126 -56q-158 0 -158 180v175q0 6 -6 6h-33q-10 0 -10 10v116q0 10 10 10h195q10 0 10 -10v-278q0 -70 59 -70q28 0 44 18.5t16 51.5v146q0 6 -6 6h-33q-10 0 -10 10v116q0 10 10 10z" />
    <glyph glyph-name="yacute" unicode="&#xfd;" horiz-adv-x="534" 
d="M295 702h139q5 0 6.5 -3t-1.5 -7l-103 -136q-8 -10 -17 -10h-116q-10 0 -5 10l80 136q6 10 17 10zM303 487h211q10 0 10 -10v-116q0 -10 -10 -10h-33q-4 0 -5 -4l-164 -403q-29 -71 -67.5 -97.5t-109.5 -26.5h-37q-10 0 -10 10v118q0 10 10 10h26q25 0 39.5 9t23.5 32
l10 28l-137 320q-1 4 -6 4h-33q-10 0 -10 10v116q0 10 10 10h216q10 0 10 -10v-116q0 -10 -10 -10h-20q-5 0 -3 -5l58 -145h2l53 145q2 5 -3 5h-21q-10 0 -10 10v116q0 10 10 10z" />
    <glyph glyph-name="thorn" unicode="&#xfe;" horiz-adv-x="568" 
d="M32 680h195q10 0 10 -10v-229h1q36 56 124 56q122 0 160 -115q17 -55 17 -138q0 -84 -17 -139q-38 -115 -160 -115q-88 0 -124 56h-1v-84q0 -6 6 -6h33q10 0 10 -10v-116q0 -10 -10 -10h-244q-10 0 -10 10v116q0 10 10 10h33q6 0 6 6v576q0 6 -6 6h-33q-10 0 -10 10v116
q0 10 10 10zM304 361q-45 0 -59 -41q-8 -23 -8 -76q0 -56 8 -77q15 -41 59 -41q46 0 59 41q8 26 8 77q0 50 -8 76q-13 41 -59 41z" />
    <glyph glyph-name="ydieresis" unicode="&#xff;" horiz-adv-x="534" 
d="M111 680h108q10 0 10 -10v-110q0 -10 -10 -10h-108q-10 0 -10 10v110q0 10 10 10zM316 680h108q10 0 10 -10v-110q0 -10 -10 -10h-108q-10 0 -10 10v110q0 10 10 10zM303 487h211q10 0 10 -10v-116q0 -10 -10 -10h-33q-4 0 -5 -4l-164 -403q-29 -71 -67.5 -97.5
t-109.5 -26.5h-37q-10 0 -10 10v118q0 10 10 10h26q25 0 39.5 9t23.5 32l10 28l-137 320q-1 4 -6 4h-33q-10 0 -10 10v116q0 10 10 10h216q10 0 10 -10v-116q0 -10 -10 -10h-20q-5 0 -3 -5l58 -145h2l53 145q2 5 -3 5h-21q-10 0 -10 10v116q0 10 10 10z" />
    <glyph glyph-name="Amacron" unicode="&#x100;" horiz-adv-x="691" 
d="M195 871h301q10 0 10 -10v-90q0 -10 -10 -10h-301q-10 0 -10 10v90q0 10 10 10zM249 680h198q10 0 13 -10l169 -528q1 -6 7 -6h31q10 0 10 -10v-116q0 -10 -10 -10h-240q-10 0 -10 10v116q0 10 10 10h25q6 0 4 6l-16 54h-189l-15 -53q-1 -7 6 -7h23q10 0 10 -10v-116
q0 -10 -10 -10h-241q-10 0 -10 10v116q0 10 10 10h32q6 0 7 6l173 528q3 10 13 10zM345 521l-53 -185h108l-52 185h-3z" />
    <glyph glyph-name="amacron" unicode="&#x101;" horiz-adv-x="537" 
d="M106 673h301q10 0 10 -10v-91q0 -10 -10 -10h-301q-10 0 -10 10v91q0 10 10 10zM246 499q123 0 173.5 -43t50.5 -139v-175q0 -6 6 -6h31q10 0 10 -10v-116q0 -10 -10 -10h-185q-10 0 -10 10v28h-1q-43 -50 -130 -50q-67 0 -112 38t-45 112q0 80 56 120t150 40h76q6 0 6 6
v16q0 28 -14.5 42t-53.5 14q-21 0 -35 -4q-6 -2 -6 -7v-25q0 -10 -10 -10h-127q-10 0 -10 10v112q0 10 9 14q84 33 181 33zM306 196h-58q-67 0 -67 -45q0 -43 57 -43q74 0 74 52v30q0 6 -6 6z" />
    <glyph glyph-name="Abreve" unicode="&#x102;" horiz-adv-x="691" 
d="M429 885h65q12 0 12 -10q-2 -60 -47 -100.5t-114 -40.5q-68 0 -113 40.5t-47 100.5q0 10 12 10h65q10 0 14 -10q18 -40 69 -40q52 0 70 40q4 10 14 10zM249 680h198q10 0 13 -10l169 -528q1 -6 7 -6h31q10 0 10 -10v-116q0 -10 -10 -10h-240q-10 0 -10 10v116q0 10 10 10
h25q6 0 4 6l-16 54h-189l-15 -53q-1 -7 6 -7h23q10 0 10 -10v-116q0 -10 -10 -10h-241q-10 0 -10 10v116q0 10 10 10h32q6 0 7 6l173 528q3 10 13 10zM345 521l-53 -185h108l-52 185h-3z" />
    <glyph glyph-name="abreve" unicode="&#x103;" horiz-adv-x="537" 
d="M340 690h65q12 0 12 -11q-2 -60 -47.5 -100.5t-113.5 -40.5t-113 40.5t-47 100.5q0 11 12 11h65q10 0 14 -11q18 -40 69 -40q52 0 70 40q4 11 14 11zM246 499q123 0 173.5 -43t50.5 -139v-175q0 -6 6 -6h31q10 0 10 -10v-116q0 -10 -10 -10h-185q-10 0 -10 10v28h-1
q-43 -50 -130 -50q-67 0 -112 38t-45 112q0 80 56 120t150 40h76q6 0 6 6v16q0 28 -14.5 42t-53.5 14q-21 0 -35 -4q-6 -2 -6 -7v-25q0 -10 -10 -10h-127q-10 0 -10 10v112q0 10 9 14q84 33 181 33zM306 196h-58q-67 0 -67 -45q0 -43 57 -43q74 0 74 52v30q0 6 -6 6z" />
    <glyph glyph-name="Aogonek" unicode="&#x104;" horiz-adv-x="691" 
d="M249 680h198q10 0 13 -10l169 -528q1 -6 7 -6h31q10 0 10 -10v-116q0 -10 -10 -10h-111q-85 -39 -85 -66q0 -16 17 -16q10 0 24 8q9 4 13 -3l38 -71q5 -8 -4 -13q-45 -31 -99 -31q-51 0 -80.5 26.5t-29.5 70.5q0 67 67 103v118q0 10 10 10h25q6 0 4 6l-16 54h-189
l-15 -53q-1 -7 6 -7h23q10 0 10 -10v-116q0 -10 -10 -10h-241q-10 0 -10 10v116q0 10 10 10h32q6 0 7 6l173 528q3 10 13 10zM345 521l-53 -185h108l-52 185h-3z" />
    <glyph glyph-name="aogonek" unicode="&#x105;" horiz-adv-x="537" 
d="M246 499q123 0 173.5 -43t50.5 -139v-175q0 -6 6 -6h31q10 0 10 -10v-116q0 -10 -10 -10h-49q-86 -39 -86 -66q0 -16 18 -16q10 0 24 9q9 4 13 -3l38 -71q5 -8 -4 -14q-44 -30 -99 -30q-51 0 -80.5 26.5t-29.5 69.5q0 61 60 103v30h-1q-43 -50 -130 -50q-67 0 -112 38
t-45 112q0 80 56 120t150 40h76q6 0 6 6v16q0 28 -14.5 42t-53.5 14q-21 0 -35 -4q-6 -2 -6 -7v-25q0 -10 -10 -10h-127q-10 0 -10 10v112q0 10 9 14q84 33 181 33zM306 196h-58q-67 0 -67 -45q0 -43 57 -43q74 0 74 52v30q0 6 -6 6z" />
    <glyph glyph-name="Cacute" unicode="&#x106;" horiz-adv-x="576" 
d="M340 889h142q5 0 6.5 -3t-1.5 -7l-128 -123q-9 -9 -20 -9h-115q-4 0 -5.5 3t1.5 7l102 122q8 10 18 10zM311 692q131 0 218 -58q7 -4 7 -14v-153q0 -10 -10 -10h-132q-10 0 -10 10v47q0 8 -7 10q-26 12 -60 12q-74 0 -93 -61q-11 -31 -11 -135q0 -103 10 -136
q21 -60 94 -60q37 0 61 11q6 3 6 10v50q0 10 10 10h132q10 0 10 -10v-156q0 -9 -7 -14q-87 -57 -219 -57q-202 0 -254 157q-20 61 -20 194q0 129 19 187q54 166 256 166z" />
    <glyph glyph-name="cacute" unicode="&#x107;" horiz-adv-x="490" 
d="M269 702h139q5 0 6.5 -3t-1.5 -7l-103 -136q-8 -10 -17 -10h-116q-10 0 -5 10l80 136q6 10 17 10zM261 499q110 0 186 -45q9 -6 9 -16v-121q0 -10 -10 -10h-119q-10 0 -10 10v32q0 5 -5 7q-14 7 -41 7q-53 0 -67 -42q-7 -20 -7 -77q0 -58 7 -78q14 -42 67 -42q25 0 41 6
q5 2 5 8v35q0 10 10 10h119q10 0 10 -10v-126q0 -10 -8 -15q-79 -44 -187 -44q-170 0 -218 139q-14 39 -14 117q0 74 14 113q49 142 218 142z" />
    <glyph glyph-name="Ccircumflex" unicode="&#x108;" horiz-adv-x="576" 
d="M263 898h90q12 0 19 -10l108 -137q3 -4 1.5 -7t-6.5 -3h-95q-13 0 -23 10l-48 50h-2l-49 -50q-10 -10 -23 -10h-95q-4 0 -5.5 3t1.5 7l108 137q7 10 19 10zM311 692q131 0 218 -58q7 -4 7 -14v-153q0 -10 -10 -10h-132q-10 0 -10 10v47q0 8 -7 10q-26 12 -60 12
q-74 0 -93 -61q-11 -31 -11 -135q0 -103 10 -136q21 -60 94 -60q37 0 61 11q6 3 6 10v50q0 10 10 10h132q10 0 10 -10v-156q0 -9 -7 -14q-87 -57 -219 -57q-202 0 -254 157q-20 61 -20 194q0 129 19 187q54 166 256 166z" />
    <glyph glyph-name="ccircumflex" unicode="&#x109;" horiz-adv-x="490" 
d="M213 701h91q11 0 18 -10l109 -137q3 -4 1.5 -7t-6.5 -3h-95q-13 0 -23 10l-49 50h-2l-48 -50q-10 -10 -23 -10h-95q-5 0 -6.5 3t1.5 7l109 137q7 10 18 10zM261 499q110 0 186 -45q9 -6 9 -16v-121q0 -10 -10 -10h-119q-10 0 -10 10v32q0 5 -5 7q-14 7 -41 7
q-53 0 -67 -42q-7 -20 -7 -77q0 -58 7 -78q14 -42 67 -42q25 0 41 6q5 2 5 8v35q0 10 10 10h119q10 0 10 -10v-126q0 -10 -8 -15q-79 -44 -187 -44q-170 0 -218 139q-14 39 -14 117q0 74 14 113q49 142 218 142z" />
    <glyph glyph-name="Cdotaccent" unicode="&#x10a;" horiz-adv-x="576" 
d="M237 880h138q10 0 10 -10v-110q0 -10 -10 -10h-138q-10 0 -10 10v110q0 10 10 10zM311 692q131 0 218 -58q7 -4 7 -14v-153q0 -10 -10 -10h-132q-10 0 -10 10v47q0 8 -7 10q-26 12 -60 12q-74 0 -93 -61q-11 -31 -11 -135q0 -103 10 -136q21 -60 94 -60q37 0 61 11
q6 3 6 10v50q0 10 10 10h132q10 0 10 -10v-156q0 -9 -7 -14q-87 -57 -219 -57q-202 0 -254 157q-20 61 -20 194q0 129 19 187q54 166 256 166z" />
    <glyph glyph-name="cdotaccent" unicode="&#x10b;" horiz-adv-x="490" 
d="M187 680h138q10 0 10 -10v-110q0 -10 -10 -10h-138q-10 0 -10 10v110q0 10 10 10zM261 499q110 0 186 -45q9 -6 9 -16v-121q0 -10 -10 -10h-119q-10 0 -10 10v32q0 5 -5 7q-14 7 -41 7q-53 0 -67 -42q-7 -20 -7 -77q0 -58 7 -78q14 -42 67 -42q25 0 41 6q5 2 5 8v35
q0 10 10 10h119q10 0 10 -10v-126q0 -10 -8 -15q-79 -44 -187 -44q-170 0 -218 139q-14 39 -14 117q0 74 14 113q49 142 218 142z" />
    <glyph glyph-name="Ccaron" unicode="&#x10c;" horiz-adv-x="576" 
d="M378 892h95q5 0 6.5 -3t-1.5 -7l-108 -136q-7 -10 -19 -10h-90q-12 0 -19 10l-108 136q-3 4 -1.5 7t5.5 3h95q13 0 23 -10l49 -49h2l48 49q10 10 23 10zM311 692q131 0 218 -58q7 -4 7 -14v-153q0 -10 -10 -10h-132q-10 0 -10 10v47q0 8 -7 10q-26 12 -60 12
q-74 0 -93 -61q-11 -31 -11 -135q0 -103 10 -136q21 -60 94 -60q37 0 61 11q6 3 6 10v50q0 10 10 10h132q10 0 10 -10v-156q0 -9 -7 -14q-87 -57 -219 -57q-202 0 -254 157q-20 61 -20 194q0 129 19 187q54 166 256 166z" />
    <glyph glyph-name="ccaron" unicode="&#x10d;" horiz-adv-x="490" 
d="M329 698h95q5 0 6.5 -3t-1.5 -7l-109 -137q-7 -10 -18 -10h-91q-11 0 -18 10l-109 137q-3 4 -1.5 7t6.5 3h95q13 0 23 -10l48 -49h2l49 49q10 10 23 10zM261 499q110 0 186 -45q9 -6 9 -16v-121q0 -10 -10 -10h-119q-10 0 -10 10v32q0 5 -5 7q-14 7 -41 7q-53 0 -67 -42
q-7 -20 -7 -77q0 -58 7 -78q14 -42 67 -42q25 0 41 6q5 2 5 8v35q0 10 10 10h119q10 0 10 -10v-126q0 -10 -8 -15q-79 -44 -187 -44q-170 0 -218 139q-14 39 -14 117q0 74 14 113q49 142 218 142z" />
    <glyph glyph-name="Dcaron" unicode="&#x10e;" horiz-adv-x="639" 
d="M382 892h95q5 0 6.5 -3t-1.5 -7l-108 -136q-7 -10 -19 -10h-90q-12 0 -19 10l-108 136q-3 4 -1.5 7t5.5 3h95q13 0 23 -10l49 -49h2l48 49q10 10 23 10zM32 680h308q190 0 242 -155q20 -63 20 -185t-20 -185q-52 -155 -242 -155h-308q-10 0 -10 10v116q0 10 10 10h37
q6 0 6 6v396q0 6 -6 6h-37q-10 0 -10 10v116q0 10 10 10zM304 524h-49q-6 0 -6 -6v-356q0 -6 6 -6h49q48 0 74 14.5t38 49.5q10 29 10 120t-10 120q-12 35 -38 49.5t-74 14.5z" />
    <glyph glyph-name="dcaron" unicode="&#x10f;" horiz-adv-x="568" 
d="M292 680h195q10 0 10 -10v-528q0 -6 6 -6h33q10 0 10 -10v-116q0 -10 -10 -10h-195q-10 0 -10 10v36h-1q-35 -56 -125 -56q-123 0 -159 115q-17 51 -17 139q0 87 17 138q36 115 159 115q90 0 125 -56h1v97q0 6 -6 6h-33q-10 0 -10 10v116q0 10 10 10zM538 680h109
q10 0 10 -10v-94q0 -13 -9 -21l-92 -75q-9 -8 -17 -8q-11 0 -11 13v185q0 10 10 10zM264 361q-47 0 -60 -41q-7 -22 -7 -76q0 -55 7 -77q13 -41 60 -41t60 41q7 22 7 77q0 54 -7 76q-13 41 -60 41z" />
    <glyph glyph-name="Dcroat" unicode="&#x110;" horiz-adv-x="639" 
d="M32 680h308q190 0 242 -155q20 -63 20 -185t-20 -185q-52 -155 -242 -155h-308q-10 0 -10 10v116q0 10 10 10h37q6 0 6 6v135q0 5 -6 5h-26q-10 0 -10 10v102q0 10 10 10h26q6 0 6 6v128q0 6 -6 6h-37q-10 0 -10 10v116q0 10 10 10zM304 525h-49q-6 0 -6 -6v-109
q0 -6 6 -6h70q10 0 10 -10v-102q0 -10 -10 -10h-70q-6 0 -6 -5v-116q0 -6 6 -6h49q47 0 73.5 15t38.5 50q10 29 10 120t-10 120q-12 35 -38.5 50t-73.5 15z" />
    <glyph glyph-name="dcroat" unicode="&#x111;" horiz-adv-x="568" 
d="M341 680h146q10 0 10 -10v-22q0 -6 6 -6h28q10 0 10 -10v-83q0 -10 -10 -10h-28q-6 0 -6 -6v-391q0 -6 6 -6h33q10 0 10 -10v-116q0 -10 -10 -10h-195q-10 0 -10 10v36h-1q-35 -56 -125 -56q-123 0 -159 115q-17 51 -17 139q0 87 17 138q36 115 159 115q90 0 125 -56h1
v92q0 6 -6 6h-95q-10 0 -10 10v83q0 10 10 10h95q6 0 6 6v22q0 10 10 10zM264 361q-47 0 -60 -41q-7 -22 -7 -76q0 -55 7 -77q13 -41 60 -41t60 41q7 22 7 77q0 54 -7 76q-13 41 -60 41z" />
    <glyph glyph-name="Emacron" unicode="&#x112;" horiz-adv-x="564" 
d="M140 871h301q10 0 10 -10v-90q0 -10 -10 -10h-301q-10 0 -10 10v90q0 10 10 10zM32 680h492q10 0 10 -10v-170q0 -10 -10 -10h-127q-10 0 -10 10v36q0 6 -6 6h-127q-6 0 -6 -6v-117q0 -6 6 -6h77q6 0 6 6v22q0 10 10 10h120q10 0 10 -10v-195q0 -10 -10 -10h-120
q-10 0 -10 10v22q0 6 -6 6h-77q-6 0 -6 -6v-124q0 -6 6 -6h127q6 0 6 6v39q0 10 10 10h127q10 0 10 -10v-173q0 -10 -10 -10h-492q-10 0 -10 10v116q0 10 10 10h37q6 0 6 6v396q0 6 -6 6h-37q-10 0 -10 10v116q0 10 10 10z" />
    <glyph glyph-name="emacron" unicode="&#x113;" horiz-adv-x="525" 
d="M110 673h301q10 0 10 -10v-91q0 -10 -10 -10h-301q-10 0 -10 10v91q0 10 10 10zM261 499q173 0 219 -141q16 -48 16 -152q0 -10 -11 -10h-288q-6 0 -6 -6q0 -11 3 -20q17 -53 96 -53q58 0 109 40q7 6 14 -1l70 -73q7 -8 0 -15q-83 -80 -211 -80q-89 0 -147 37.5
t-80 105.5q-16 46 -16 113q0 65 15 112q23 68 79 105.5t138 37.5zM264 378q-55 0 -69 -44q-4 -16 -4 -30q0 -6 6 -6h132q6 0 6 6q0 18 -4 30q-15 44 -67 44z" />
    <glyph glyph-name="Ebreve" unicode="&#x114;" horiz-adv-x="564" 
d="M374 885h65q12 0 12 -10q-2 -60 -47 -100.5t-114 -40.5q-68 0 -113 40.5t-47 100.5q0 10 12 10h65q10 0 14 -10q18 -40 69 -40q52 0 70 40q4 10 14 10zM32 680h492q10 0 10 -10v-170q0 -10 -10 -10h-127q-10 0 -10 10v36q0 6 -6 6h-127q-6 0 -6 -6v-117q0 -6 6 -6h77
q6 0 6 6v22q0 10 10 10h120q10 0 10 -10v-195q0 -10 -10 -10h-120q-10 0 -10 10v22q0 6 -6 6h-77q-6 0 -6 -6v-124q0 -6 6 -6h127q6 0 6 6v39q0 10 10 10h127q10 0 10 -10v-173q0 -10 -10 -10h-492q-10 0 -10 10v116q0 10 10 10h37q6 0 6 6v396q0 6 -6 6h-37q-10 0 -10 10
v116q0 10 10 10z" />
    <glyph glyph-name="ebreve" unicode="&#x115;" horiz-adv-x="525" 
d="M344 690h65q12 0 12 -11q-2 -60 -47.5 -100.5t-113.5 -40.5t-113 40.5t-47 100.5q0 11 12 11h65q10 0 14 -11q18 -40 69 -40q52 0 70 40q4 11 14 11zM261 499q173 0 219 -141q16 -48 16 -152q0 -10 -11 -10h-288q-6 0 -6 -6q0 -11 3 -20q17 -53 96 -53q58 0 109 40
q7 6 14 -1l70 -73q7 -8 0 -15q-83 -80 -211 -80q-89 0 -147 37.5t-80 105.5q-16 46 -16 113q0 65 15 112q23 68 79 105.5t138 37.5zM264 378q-55 0 -69 -44q-4 -16 -4 -30q0 -6 6 -6h132q6 0 6 6q0 18 -4 30q-15 44 -67 44z" />
    <glyph glyph-name="Edotaccent" unicode="&#x116;" horiz-adv-x="564" 
d="M222 880h138q10 0 10 -10v-110q0 -10 -10 -10h-138q-10 0 -10 10v110q0 10 10 10zM32 680h492q10 0 10 -10v-170q0 -10 -10 -10h-127q-10 0 -10 10v36q0 6 -6 6h-127q-6 0 -6 -6v-117q0 -6 6 -6h77q6 0 6 6v22q0 10 10 10h120q10 0 10 -10v-195q0 -10 -10 -10h-120
q-10 0 -10 10v22q0 6 -6 6h-77q-6 0 -6 -6v-124q0 -6 6 -6h127q6 0 6 6v39q0 10 10 10h127q10 0 10 -10v-173q0 -10 -10 -10h-492q-10 0 -10 10v116q0 10 10 10h37q6 0 6 6v396q0 6 -6 6h-37q-10 0 -10 10v116q0 10 10 10z" />
    <glyph glyph-name="edotaccent" unicode="&#x117;" horiz-adv-x="525" 
d="M191 680h138q10 0 10 -10v-110q0 -10 -10 -10h-138q-10 0 -10 10v110q0 10 10 10zM261 499q173 0 219 -141q16 -48 16 -152q0 -10 -11 -10h-288q-6 0 -6 -6q0 -11 3 -20q17 -53 96 -53q58 0 109 40q7 6 14 -1l70 -73q7 -8 0 -15q-83 -80 -211 -80q-89 0 -147 37.5
t-80 105.5q-16 46 -16 113q0 65 15 112q23 68 79 105.5t138 37.5zM264 378q-55 0 -69 -44q-4 -16 -4 -30q0 -6 6 -6h132q6 0 6 6q0 18 -4 30q-15 44 -67 44z" />
    <glyph glyph-name="Eogonek" unicode="&#x118;" horiz-adv-x="564" 
d="M32 680h492q10 0 10 -10v-170q0 -10 -10 -10h-127q-10 0 -10 10v36q0 6 -6 6h-127q-6 0 -6 -6v-117q0 -6 6 -6h77q6 0 6 6v22q0 10 10 10h120q10 0 10 -10v-195q0 -10 -10 -10h-120q-10 0 -10 10v22q0 6 -6 6h-77q-6 0 -6 -6v-124q0 -6 6 -6h127q6 0 6 6v39q0 10 10 10
h127q10 0 10 -10v-173q0 -10 -10 -10h-14q-85 -39 -85 -66q0 -16 17 -16q10 0 24 8q9 4 13 -3l38 -71q5 -8 -4 -13q-45 -31 -99 -31q-51 0 -80.5 26.5t-29.5 70.5q0 56 53 95h-325q-10 0 -10 10v116q0 10 10 10h37q6 0 6 6v396q0 6 -6 6h-37q-10 0 -10 10v116q0 10 10 10z
" />
    <glyph glyph-name="eogonek" unicode="&#x119;" horiz-adv-x="527" 
d="M262 499q86 0 142.5 -36.5t77.5 -104.5q16 -48 16 -152q0 -10 -11 -10h-289q-6 0 -6 -6q0 -8 4 -20q17 -53 94 -53q61 0 109 39q8 7 15 0l71 -74q6 -8 -1 -14q-21 -21 -41 -33q-88 -72 -88 -101q0 -16 17 -16q9 0 25 8q8 5 13 -3l38 -71q5 -8 -4 -13q-46 -31 -100 -31
q-51 0 -80.5 26.5t-29.5 70.5q0 42 36 83h-9q-84 2 -139.5 39.5t-76.5 103.5q-16 46 -16 112t15 113q23 68 79.5 105.5t138.5 37.5zM264 378q-54 0 -68 -44q-4 -16 -4 -30q0 -6 6 -6h133q6 0 6 6q0 14 -4 30q-14 44 -69 44z" />
    <glyph glyph-name="Ecaron" unicode="&#x11a;" horiz-adv-x="564" 
d="M363 892h95q5 0 6.5 -3t-1.5 -7l-108 -136q-7 -10 -19 -10h-90q-12 0 -19 10l-108 136q-3 4 -2 7t6 3h95q13 0 23 -10l49 -49h2l48 49q10 10 23 10zM32 680h492q10 0 10 -10v-170q0 -10 -10 -10h-127q-10 0 -10 10v36q0 6 -6 6h-127q-6 0 -6 -6v-117q0 -6 6 -6h77
q6 0 6 6v22q0 10 10 10h120q10 0 10 -10v-195q0 -10 -10 -10h-120q-10 0 -10 10v22q0 6 -6 6h-77q-6 0 -6 -6v-124q0 -6 6 -6h127q6 0 6 6v39q0 10 10 10h127q10 0 10 -10v-173q0 -10 -10 -10h-492q-10 0 -10 10v116q0 10 10 10h37q6 0 6 6v396q0 6 -6 6h-37q-10 0 -10 10
v116q0 10 10 10z" />
    <glyph glyph-name="ecaron" unicode="&#x11b;" horiz-adv-x="525" 
d="M335 698h95q5 0 6.5 -3t-1.5 -7l-109 -137q-7 -10 -18 -10h-91q-11 0 -18 10l-109 137q-3 4 -1.5 7t6.5 3h95q13 0 23 -10l48 -49h2l49 49q10 10 23 10zM261 499q173 0 219 -141q16 -48 16 -152q0 -10 -11 -10h-288q-6 0 -6 -6q0 -11 3 -20q17 -53 96 -53q58 0 109 40
q7 6 14 -1l70 -73q7 -8 0 -15q-83 -80 -211 -80q-89 0 -147 37.5t-80 105.5q-16 46 -16 113q0 65 15 112q23 68 79 105.5t138 37.5zM264 378q-55 0 -69 -44q-4 -16 -4 -30q0 -6 6 -6h132q6 0 6 6q0 18 -4 30q-15 44 -67 44z" />
    <glyph glyph-name="Gcircumflex" unicode="&#x11c;" horiz-adv-x="619" 
d="M269 898h90q12 0 19 -10l108 -137q3 -4 1.5 -7t-6.5 -3h-95q-13 0 -23 10l-48 50h-2l-49 -50q-10 -10 -23 -10h-95q-4 0 -5.5 3t1.5 7l108 137q7 10 19 10zM326 692q140 0 227 -64q7 -6 7 -14v-145q0 -10 -10 -10h-132q-10 0 -10 10v45q0 6 -6 9q-28 15 -75 15
q-82 0 -102 -64q-12 -34 -12 -135q0 -103 11 -135q20 -62 101 -62q53 0 79 13q7 4 7 11v75q0 6 -6 6h-75q-10 0 -10 10v113q0 10 10 10h232q10 0 10 -10v-294q0 -13 -11 -21q-90 -67 -239 -67q-214 0 -267 165q-19 62 -19 186q0 121 20 185q56 168 270 168z" />
    <glyph glyph-name="gcircumflex" unicode="&#x11d;" horiz-adv-x="567" 
d="M224 701h91q11 0 18 -10l109 -137q3 -4 1.5 -7t-6.5 -3h-95q-13 0 -23 10l-49 50h-2l-48 -50q-10 -10 -23 -10h-95q-5 0 -6.5 3t1.5 7l109 137q7 10 18 10zM206 497q89 0 123 -56h1v36q0 10 10 10h195q10 0 10 -10v-116q0 -10 -10 -10h-33q-6 0 -6 -5v-270
q0 -140 -64 -204t-193 -64q-57 0 -111 22t-80 54q-6 7 1 15l84 86q7 7 15 1q46 -40 96 -40q45 0 65.5 24t20.5 75v37h-1q-34 -57 -123 -57q-121 0 -159 116q-16 49 -16 121q0 71 16 120q38 115 159 115zM264 361q-44 0 -58 -42q-7 -20 -7 -57q0 -38 7 -58q14 -42 58 -42
q46 0 59 42q7 20 7 58q0 37 -7 57q-13 42 -59 42z" />
    <glyph glyph-name="Gbreve" unicode="&#x11e;" horiz-adv-x="619" 
d="M398 885h65q12 0 12 -10q-2 -60 -47 -100.5t-114 -40.5q-68 0 -113 40.5t-47 100.5q0 10 12 10h65q10 0 14 -10q18 -40 69 -40q52 0 70 40q4 10 14 10zM326 692q140 0 227 -64q7 -6 7 -14v-145q0 -10 -10 -10h-132q-10 0 -10 10v45q0 6 -6 9q-28 15 -75 15
q-82 0 -102 -64q-12 -34 -12 -135q0 -103 11 -135q20 -62 101 -62q53 0 79 13q7 4 7 11v75q0 6 -6 6h-75q-10 0 -10 10v113q0 10 10 10h232q10 0 10 -10v-294q0 -13 -11 -21q-90 -67 -239 -67q-214 0 -267 165q-19 62 -19 186q0 121 20 185q56 168 270 168z" />
    <glyph glyph-name="gbreve" unicode="&#x11f;" horiz-adv-x="567" 
d="M353 690h65q12 0 12 -11q-2 -60 -47.5 -100.5t-113.5 -40.5t-113 40.5t-47 100.5q0 11 12 11h65q10 0 14 -11q18 -40 69 -40q52 0 70 40q4 11 14 11zM206 497q89 0 123 -56h1v36q0 10 10 10h195q10 0 10 -10v-116q0 -10 -10 -10h-33q-6 0 -6 -5v-270q0 -140 -64 -204
t-193 -64q-57 0 -111 22t-80 54q-6 7 1 15l84 86q7 7 15 1q46 -40 96 -40q45 0 65.5 24t20.5 75v37h-1q-34 -57 -123 -57q-121 0 -159 116q-16 49 -16 121q0 71 16 120q38 115 159 115zM264 361q-44 0 -58 -42q-7 -20 -7 -57q0 -38 7 -58q14 -42 58 -42q46 0 59 42
q7 20 7 58q0 37 -7 57q-13 42 -59 42z" />
    <glyph glyph-name="Gdotaccent" unicode="&#x120;" horiz-adv-x="619" 
d="M245 880h138q10 0 10 -10v-110q0 -10 -10 -10h-138q-10 0 -10 10v110q0 10 10 10zM326 692q140 0 227 -64q7 -6 7 -14v-145q0 -10 -10 -10h-132q-10 0 -10 10v45q0 6 -6 9q-28 15 -75 15q-82 0 -102 -64q-12 -34 -12 -135q0 -103 11 -135q20 -62 101 -62q53 0 79 13
q7 4 7 11v75q0 6 -6 6h-75q-10 0 -10 10v113q0 10 10 10h232q10 0 10 -10v-294q0 -13 -11 -21q-90 -67 -239 -67q-214 0 -267 165q-19 62 -19 186q0 121 20 185q56 168 270 168z" />
    <glyph glyph-name="gdotaccent" unicode="&#x121;" horiz-adv-x="567" 
d="M200 680h138q10 0 10 -10v-110q0 -10 -10 -10h-138q-10 0 -10 10v110q0 10 10 10zM206 497q89 0 123 -56h1v36q0 10 10 10h195q10 0 10 -10v-116q0 -10 -10 -10h-33q-6 0 -6 -5v-270q0 -140 -64 -204t-193 -64q-57 0 -111 22t-80 54q-6 7 1 15l84 86q7 7 15 1
q46 -40 96 -40q45 0 65.5 24t20.5 75v37h-1q-34 -57 -123 -57q-121 0 -159 116q-16 49 -16 121q0 71 16 120q38 115 159 115zM264 361q-44 0 -58 -42q-7 -20 -7 -57q0 -38 7 -58q14 -42 58 -42q46 0 59 42q7 20 7 58q0 37 -7 57q-13 42 -59 42z" />
    <glyph glyph-name="Gcommaaccent" unicode="&#x122;" horiz-adv-x="619" 
d="M326 692q140 0 227 -64q7 -6 7 -14v-145q0 -10 -10 -10h-132q-10 0 -10 10v45q0 6 -6 9q-28 15 -75 15q-82 0 -102 -64q-12 -34 -12 -135q0 -103 11 -135q20 -62 101 -62q53 0 79 13q7 4 7 11v75q0 6 -6 6h-75q-10 0 -10 10v113q0 10 10 10h232q10 0 10 -10v-294
q0 -13 -11 -21q-90 -67 -239 -67q-214 0 -267 165q-19 62 -19 186q0 121 20 185q56 168 270 168zM254 -46h120q10 0 10 -10v-89q0 -14 -9 -20l-103 -75q-11 -8 -17 -8q-11 0 -11 13v179q0 10 10 10z" />
    <glyph glyph-name="gcommaaccent" unicode="&#x123;" horiz-adv-x="567" 
d="M329 751q11 0 11 -12v-179q0 -10 -10 -10h-120q-10 0 -10 10v88q0 15 8 21l104 75q10 7 17 7zM206 497q89 0 123 -56h1v36q0 10 10 10h195q10 0 10 -10v-116q0 -10 -10 -10h-33q-6 0 -6 -5v-270q0 -140 -64 -204t-193 -64q-57 0 -111 22t-80 54q-6 7 1 15l84 86q7 7 15 1
q46 -40 96 -40q45 0 65.5 24t20.5 75v37h-1q-34 -57 -123 -57q-121 0 -159 116q-16 49 -16 121q0 71 16 120q38 115 159 115zM264 361q-44 0 -58 -42q-7 -20 -7 -57q0 -38 7 -58q14 -42 58 -42q46 0 59 42q7 20 7 58q0 37 -7 57q-13 42 -59 42z" />
    <glyph glyph-name="Hcircumflex" unicode="&#x124;" horiz-adv-x="689" 
d="M298 898h90q12 0 19 -10l108 -137q3 -4 1.5 -7t-6.5 -3h-95q-13 0 -23 10l-48 50h-2l-49 -50q-10 -10 -23 -10h-95q-5 0 -6 3t2 7l108 137q7 10 19 10zM397 680h260q10 0 10 -10v-116q0 -10 -10 -10h-37q-6 0 -6 -6v-396q0 -6 6 -6h37q10 0 10 -10v-116q0 -10 -10 -10
h-260q-10 0 -10 10v116q0 10 10 10h37q6 0 6 6v120q0 6 -6 6h-179q-6 0 -6 -6v-120q0 -6 6 -6h37q10 0 10 -10v-116q0 -10 -10 -10h-260q-10 0 -10 10v116q0 10 10 10h37q6 0 6 6v396q0 6 -6 6h-37q-10 0 -10 10v116q0 10 10 10h260q10 0 10 -10v-116q0 -10 -10 -10h-37
q-6 0 -6 -6v-110q0 -6 6 -6h179q6 0 6 6v110q0 6 -6 6h-37q-10 0 -10 10v116q0 10 10 10z" />
    <glyph glyph-name="uni0125" unicode="&#x125;" horiz-adv-x="591" 
d="M256 898h90q12 0 19 -10l108 -137q3 -4 1.5 -7t-6.5 -3h-95q-13 0 -23 10l-48 50h-2l-49 -50q-10 -10 -23 -10h-95q-5 0 -6 3t2 7l108 137q7 10 19 10zM32 680h195q10 0 10 -10v-229h1q40 56 126 56q80 0 120.5 -48.5t40.5 -132.5v-174q0 -6 6 -6h31q10 0 10 -10v-116
q0 -10 -10 -10h-233q-10 0 -10 10v116q0 10 10 10h24q6 0 6 6v146q0 33 -16 51.5t-45 18.5t-45 -18.5t-16 -51.5v-146q0 -6 6 -6h24q10 0 10 -10v-116q0 -10 -10 -10h-235q-10 0 -10 10v116q0 10 10 10h33q6 0 6 6v396q0 6 -6 6h-33q-10 0 -10 10v116q0 10 10 10z" />
    <glyph glyph-name="Hbar" unicode="&#x126;" horiz-adv-x="689" 
d="M397 680h260q10 0 10 -10v-116q0 -10 -10 -10h-37q-6 0 -6 -6v-22q0 -6 6 -6h25q10 0 10 -10v-62q0 -10 -10 -10h-25q-6 0 -6 -6v-280q0 -6 6 -6h37q10 0 10 -10v-116q0 -10 -10 -10h-260q-10 0 -10 10v116q0 10 10 10h37q6 0 6 6v109q0 6 -6 6h-179q-6 0 -6 -6v-109
q0 -6 6 -6h37q10 0 10 -10v-116q0 -10 -10 -10h-260q-10 0 -10 10v116q0 10 10 10h37q6 0 6 6v280q0 6 -6 6h-29q-10 0 -10 10v62q0 10 10 10h29q6 0 6 6v22q0 6 -6 6h-37q-10 0 -10 10v116q0 10 10 10h260q10 0 10 -10v-116q0 -10 -10 -10h-37q-6 0 -6 -5v-23q0 -6 6 -6
h179q6 0 6 6v22q0 6 -6 6h-37q-10 0 -10 10v116q0 10 10 10zM434 428h-179q-6 0 -6 -5v-27q0 -6 6 -6h179q6 0 6 6v26q0 6 -6 6z" />
    <glyph glyph-name="hbar" unicode="&#x127;" horiz-adv-x="591" 
d="M81 680h146q10 0 10 -10v-22q0 -6 6 -6h95q10 0 10 -10v-83q0 -10 -10 -10h-95q-6 0 -6 -6v-92h1q40 56 126 56q80 0 120.5 -48.5t40.5 -132.5v-174q0 -6 6 -6h31q10 0 10 -10v-116q0 -10 -10 -10h-233q-10 0 -10 10v116q0 10 10 10h24q6 0 6 6v146q0 33 -16 51.5
t-45 18.5t-45 -18.5t-16 -51.5v-146q0 -6 6 -6h24q10 0 10 -10v-116q0 -10 -10 -10h-235q-10 0 -10 10v116q0 10 10 10h33q6 0 6 6v391q0 6 -6 6h-28q-10 0 -10 10v83q0 10 10 10h28q6 0 6 6v22q0 10 10 10z" />
    <glyph glyph-name="Itilde" unicode="&#x128;" horiz-adv-x="324" 
d="M92 892q36 0 84 -24q38 -17 60 -17q33 0 75 32q11 7 11 -3v-81q0 -13 -10 -22q-37 -37 -81 -37q-37 0 -83 23q-36 18 -60 18q-33 0 -76 -33q-4 -3 -7 -1.5t-3 5.5v81q0 12 9 22q37 37 81 37zM32 680h260q10 0 10 -10v-116q0 -10 -10 -10h-37q-6 0 -6 -6v-396q0 -6 6 -6
h37q10 0 10 -10v-116q0 -10 -10 -10h-260q-10 0 -10 10v116q0 10 10 10h37q6 0 6 6v396q0 6 -6 6h-37q-10 0 -10 10v116q0 10 10 10z" />
    <glyph glyph-name="itilde" unicode="&#x129;" horiz-adv-x="307" 
d="M77 697q38 0 84 -23q36 -18 60 -18q34 0 75 33q11 7 11 -4v-81q0 -13 -10 -22q-37 -37 -81 -37q-37 0 -83 23q-36 18 -60 18q-32 0 -76 -32q-4 -3 -7 -2t-3 5v81q0 13 9 22q37 37 81 37zM32 487h195q10 0 10 -10v-335q0 -6 6 -6h34q10 0 10 -10v-116q0 -10 -10 -10h-245
q-10 0 -10 10v116q0 10 10 10h33q6 0 6 6v203q0 6 -6 6h-33q-10 0 -10 10v116q0 10 10 10z" />
    <glyph glyph-name="Imacron" unicode="&#x12a;" horiz-adv-x="324" 
d="M11 871h301q10 0 10 -10v-90q0 -10 -10 -10h-301q-10 0 -10 10v90q0 10 10 10zM32 680h260q10 0 10 -10v-116q0 -10 -10 -10h-37q-6 0 -6 -6v-396q0 -6 6 -6h37q10 0 10 -10v-116q0 -10 -10 -10h-260q-10 0 -10 10v116q0 10 10 10h37q6 0 6 6v396q0 6 -6 6h-37
q-10 0 -10 10v116q0 10 10 10z" />
    <glyph glyph-name="imacron" unicode="&#x12b;" horiz-adv-x="307" 
d="M-3 673h301q10 0 10 -10v-91q0 -10 -10 -10h-301q-10 0 -10 10v91q0 10 10 10zM32 487h195q10 0 10 -10v-335q0 -6 6 -6h34q10 0 10 -10v-116q0 -10 -10 -10h-245q-10 0 -10 10v116q0 10 10 10h33q6 0 6 6v203q0 6 -6 6h-33q-10 0 -10 10v116q0 10 10 10z" />
    <glyph glyph-name="Ibreve" unicode="&#x12c;" horiz-adv-x="324" 
d="M245 885h65q12 0 12 -10q-2 -60 -47 -100.5t-114 -40.5q-68 0 -113 40.5t-47 100.5q0 10 12 10h65q10 0 14 -10q18 -40 69 -40q52 0 70 40q4 10 14 10zM32 680h260q10 0 10 -10v-116q0 -10 -10 -10h-37q-6 0 -6 -6v-396q0 -6 6 -6h37q10 0 10 -10v-116q0 -10 -10 -10
h-260q-10 0 -10 10v116q0 10 10 10h37q6 0 6 6v396q0 6 -6 6h-37q-10 0 -10 10v116q0 10 10 10z" />
    <glyph glyph-name="ibreve" unicode="&#x12d;" horiz-adv-x="307" 
d="M230 690h65q12 0 12 -11q-2 -60 -47.5 -100.5t-113.5 -40.5t-113 40.5t-47 100.5q0 11 12 11h65q10 0 14 -11q18 -40 69 -40q52 0 70 40q4 11 14 11zM32 487h195q10 0 10 -10v-335q0 -6 6 -6h34q10 0 10 -10v-116q0 -10 -10 -10h-245q-10 0 -10 10v116q0 10 10 10h33
q6 0 6 6v203q0 6 -6 6h-33q-10 0 -10 10v116q0 10 10 10z" />
    <glyph glyph-name="Iogonek" unicode="&#x12e;" horiz-adv-x="324" 
d="M32 680h260q10 0 10 -10v-116q0 -10 -10 -10h-37q-6 0 -6 -6v-396q0 -6 6 -6h37q10 0 10 -10v-116q0 -10 -10 -10h-45q-47 -24 -63.5 -38.5t-16.5 -27.5q0 -16 17 -16q13 0 25 8q8 5 13 -3l38 -70q5 -8 -4 -14q-46 -31 -100 -31q-50 0 -80 27t-30 70q0 51 51 95h-65
q-10 0 -10 10v116q0 10 10 10h37q6 0 6 6v396q0 6 -6 6h-37q-10 0 -10 10v116q0 10 10 10z" />
    <glyph glyph-name="uni012F" unicode="&#x12f;" horiz-adv-x="307" 
d="M81 680h146q10 0 10 -10v-110q0 -10 -10 -10h-146q-10 0 -10 10v110q0 10 10 10zM32 487h195q10 0 10 -10v-335q0 -6 6 -6h34q10 0 10 -10v-116q0 -10 -10 -10h-42q-46 -25 -62 -39.5t-16 -26.5q0 -16 16 -16q13 0 25 8q8 5 13 -3l38 -71q4 -7 -4 -13q-46 -31 -99 -31
q-50 0 -80 27t-30 70q0 56 47 95h-51q-10 0 -10 10v116q0 10 10 10h33q6 0 6 6v203q0 6 -6 6h-33q-10 0 -10 10v116q0 10 10 10z" />
    <glyph glyph-name="Idotaccent" unicode="&#x130;" horiz-adv-x="324" 
d="M92 880h138q10 0 10 -10v-110q0 -10 -10 -10h-138q-10 0 -10 10v110q0 10 10 10zM32 680h260q10 0 10 -10v-116q0 -10 -10 -10h-37q-6 0 -6 -6v-396q0 -6 6 -6h37q10 0 10 -10v-116q0 -10 -10 -10h-260q-10 0 -10 10v116q0 10 10 10h37q6 0 6 6v396q0 6 -6 6h-37
q-10 0 -10 10v116q0 10 10 10z" />
    <glyph glyph-name="dotlessi" unicode="&#x131;" horiz-adv-x="307" 
d="M32 487h195q10 0 10 -10v-335q0 -6 6 -6h34q10 0 10 -10v-116q0 -10 -10 -10h-245q-10 0 -10 10v116q0 10 10 10h33q6 0 6 6v203q0 6 -6 6h-33q-10 0 -10 10v116q0 10 10 10z" />
    <glyph glyph-name="IJ" unicode="&#x132;" horiz-adv-x="868" 
d="M32 680h260q10 0 10 -10v-116q0 -10 -10 -10h-37q-6 0 -6 -6v-396q0 -6 6 -6h37q10 0 10 -10v-116q0 -10 -10 -10h-260q-10 0 -10 10v116q0 10 10 10h37q6 0 6 6v396q0 6 -6 6h-37q-10 0 -10 10v116q0 10 10 10zM578 680h260q10 0 10 -10v-116q0 -10 -10 -10h-34
q-6 0 -6 -6v-282q0 -133 -66.5 -200.5t-191.5 -67.5q-119 0 -190 46q-7 5 -7 14v163q0 10 10 10h133q10 0 10 -10v-52q0 -5 5 -7q18 -8 43 -8q80 0 80 99v295q0 6 -6 6h-40q-10 0 -10 10v116q0 10 10 10z" />
    <glyph glyph-name="ij" unicode="&#x133;" horiz-adv-x="601" 
d="M81 680h146q10 0 10 -10v-110q0 -10 -10 -10h-146q-10 0 -10 10v110q0 10 10 10zM388 680h146q10 0 10 -10v-110q0 -10 -10 -10h-146q-10 0 -10 10v110q0 10 10 10zM32 487h195q10 0 10 -10v-335q0 -6 6 -6h34q10 0 10 -10v-116q0 -10 -10 -10h-245q-10 0 -10 10v116
q0 10 10 10h33q6 0 6 6v203q0 6 -6 6h-33q-10 0 -10 10v116q0 10 10 10zM339 487h195q10 0 10 -10v-464q0 -100 -50 -146.5t-149 -46.5h-38q-10 0 -10 10v117q0 10 10 10h16q31 0 43 12t12 45v331q0 6 -6 6h-33q-10 0 -10 10v116q0 10 10 10z" />
    <glyph glyph-name="Jcircumflex" unicode="&#x134;" horiz-adv-x="544" 
d="M336 898h90q12 0 19 -10l108 -137q3 -4 1.5 -7t-6.5 -3h-95q-13 0 -23 10l-48 50h-2l-49 -50q-10 -10 -23 -10h-95q-5 0 -6 3t2 7l108 137q7 10 19 10zM254 680h260q10 0 10 -10v-116q0 -10 -10 -10h-34q-6 0 -6 -6v-282q0 -133 -66.5 -200.5t-191.5 -67.5
q-119 0 -190 46q-7 5 -7 14v163q0 10 10 10h133q10 0 10 -10v-52q0 -5 5 -7q18 -8 43 -8q80 0 80 99v295q0 6 -6 6h-40q-10 0 -10 10v116q0 10 10 10z" />
    <glyph glyph-name="jcircumflex" unicode="&#x135;" horiz-adv-x="294" 
d="M99 701h91q11 0 18 -10l109 -137q3 -4 1.5 -7t-6.5 -3h-95q-13 0 -23 10l-49 50h-2l-48 -50q-10 -10 -23 -10h-95q-5 0 -6.5 3t1.5 7l109 137q7 10 18 10zM32 487h195q10 0 10 -10v-464q0 -100 -50 -146.5t-149 -46.5h-38q-10 0 -10 10v117q0 10 10 10h16q31 0 43 12
t12 45v331q0 6 -6 6h-33q-10 0 -10 10v116q0 10 10 10z" />
    <glyph glyph-name="Kcommaaccent" unicode="&#x136;" horiz-adv-x="679" 
d="M382 680h246q10 0 10 -10v-116q0 -10 -10 -10h-34q-5 0 -9 -4l-135 -141l134 -257q3 -6 11 -6h50q10 0 10 -10v-116q0 -10 -10 -10h-180q-9 0 -14 9l-129 255l-73 -77v-45q0 -6 6 -6h37q10 0 10 -10v-116q0 -10 -10 -10h-260q-10 0 -10 10v116q0 10 10 10h37q6 0 6 6v396
q0 6 -6 6h-37q-10 0 -10 10v116q0 10 10 10h260q10 0 10 -10v-116q0 -10 -10 -10h-37q-6 0 -6 -5v-155l149 154q3 4 -2 6h-14q-10 0 -10 10v116q0 10 10 10zM288 -46h120q10 0 10 -10v-89q0 -14 -9 -20l-103 -75q-11 -8 -17 -8q-11 0 -11 13v179q0 10 10 10z" />
    <glyph glyph-name="kcommaaccent" unicode="&#x137;" horiz-adv-x="551" 
d="M32 680h195q10 0 10 -10v-329l129 137q8 9 19 9h117q10 0 10 -10v-116q0 -10 -10 -10h-58q-6 0 -11 -5l-45 -44l87 -160q4 -6 10 -6h43q10 0 10 -10v-116q0 -10 -10 -10h-151q-11 0 -16 10l-90 176l-34 -33v-143q0 -10 -10 -10h-195q-10 0 -10 10v116q0 10 10 10h33
q6 0 6 6v396q0 6 -6 6h-33q-10 0 -10 10v116q0 10 10 10zM230 -46h120q10 0 10 -10v-89q0 -14 -9 -20l-103 -75q-11 -8 -17 -8q-11 0 -11 13v179q0 10 10 10z" />
    <glyph glyph-name="kgreenlandic" unicode="&#x138;" horiz-adv-x="551" 
d="M385 487h117q10 0 10 -10v-116q0 -10 -10 -10h-58q-6 0 -11 -5l-45 -44l87 -160q4 -6 10 -6h43q10 0 10 -10v-116q0 -10 -10 -10h-151q-11 0 -16 10l-90 176l-34 -33v-143q0 -10 -10 -10h-195q-10 0 -10 10v116q0 10 10 10h33q6 0 6 6v203q0 6 -6 6h-33q-10 0 -10 10v116
q0 10 10 10h195q10 0 10 -10v-136l129 137q8 9 19 9z" />
    <glyph glyph-name="Lacute" unicode="&#x139;" horiz-adv-x="559" 
d="M218 889h142q5 0 6.5 -3t-1.5 -7l-128 -123q-9 -9 -20 -9h-115q-4 0 -5.5 3t1.5 7l102 122q8 10 18 10zM32 680h260q10 0 10 -10v-116q0 -10 -10 -10h-37q-6 0 -6 -6v-387q0 -6 6 -6h125q6 0 6 6v50q0 10 10 10h133q10 0 10 -10v-191q0 -10 -10 -10h-497q-10 0 -10 10
v116q0 10 10 10h37q6 0 6 6v396q0 6 -6 6h-37q-10 0 -10 10v116q0 10 10 10z" />
    <glyph glyph-name="lacute" unicode="&#x13a;" horiz-adv-x="313" 
d="M195 889h142q5 0 6.5 -3t-1.5 -7l-128 -123q-9 -9 -20 -9h-115q-5 0 -6 3t2 7l102 122q8 10 18 10zM18 680h195q10 0 10 -10v-486q0 -48 42 -48h20q10 0 10 -10v-118q0 -10 -10 -10h-59q-91 0 -130 39.5t-39 131.5v369q0 6 -6 6h-33q-10 0 -10 10v116q0 10 10 10z" />
    <glyph glyph-name="Lcommaaccent" unicode="&#x13b;" horiz-adv-x="559" 
d="M32 680h260q10 0 10 -10v-116q0 -10 -10 -10h-37q-6 0 -6 -6v-387q0 -6 6 -6h125q6 0 6 6v50q0 10 10 10h133q10 0 10 -10v-191q0 -10 -10 -10h-497q-10 0 -10 10v116q0 10 10 10h37q6 0 6 6v396q0 6 -6 6h-37q-10 0 -10 10v116q0 10 10 10zM230 -46h120q10 0 10 -10v-89
q0 -14 -9 -20l-103 -75q-11 -8 -17 -8q-11 0 -11 13v179q0 10 10 10z" />
    <glyph glyph-name="lcommaaccent" unicode="&#x13c;" horiz-adv-x="313" 
d="M18 680h195q10 0 10 -10v-486q0 -48 42 -48h20q10 0 10 -10v-118q0 -10 -10 -10h-59q-91 0 -130 39.5t-39 131.5v369q0 6 -6 6h-33q-10 0 -10 10v116q0 10 10 10zM122 -46h120q10 0 10 -10v-89q0 -14 -9 -20l-103 -75q-11 -8 -17 -8q-11 0 -11 13v179q0 10 10 10z" />
    <glyph glyph-name="Lcaron" unicode="&#x13d;" horiz-adv-x="559" 
d="M32 680h260q10 0 10 -10v-116q0 -10 -10 -10h-37q-6 0 -6 -6v-387q0 -6 6 -6h125q6 0 6 6v50q0 10 10 10h133q10 0 10 -10v-191q0 -10 -10 -10h-497q-10 0 -10 10v116q0 10 10 10h37q6 0 6 6v396q0 6 -6 6h-37q-10 0 -10 10v116q0 10 10 10zM343 680h109q10 0 10 -10v-94
q0 -13 -9 -21l-92 -75q-9 -8 -17 -8q-11 0 -11 13v185q0 10 10 10z" />
    <glyph glyph-name="lcaron" unicode="&#x13e;" horiz-adv-x="313" 
d="M18 680h195q10 0 10 -10v-486q0 -48 42 -48h20q10 0 10 -10v-118q0 -10 -10 -10h-59q-91 0 -130 39.5t-39 131.5v369q0 6 -6 6h-33q-10 0 -10 10v116q0 10 10 10zM266 680h109q10 0 10 -10v-94q0 -13 -9 -21l-92 -75q-9 -8 -17 -8q-11 0 -11 13v185q0 10 10 10z" />
    <glyph glyph-name="Ldot" unicode="&#x13f;" horiz-adv-x="559" 
d="M32 680h260q10 0 10 -10v-116q0 -10 -10 -10h-37q-6 0 -6 -6v-387q0 -6 6 -6h125q6 0 6 6v50q0 10 10 10h133q10 0 10 -10v-191q0 -10 -10 -10h-497q-10 0 -10 10v116q0 10 10 10h37q6 0 6 6v396q0 6 -6 6h-37q-10 0 -10 10v116q0 10 10 10zM372 443h139q10 0 10 -10
v-138q0 -10 -10 -10h-139q-10 0 -10 10v138q0 10 10 10z" />
    <glyph glyph-name="ldot" unicode="&#x140;" horiz-adv-x="313" 
d="M18 680h195q10 0 10 -10v-486q0 -48 42 -48h20q10 0 10 -10v-118q0 -10 -10 -10h-59q-91 0 -130 39.5t-39 131.5v369q0 6 -6 6h-33q-10 0 -10 10v116q0 10 10 10zM285 422h139q10 0 10 -10v-138q0 -10 -10 -10h-139q-10 0 -10 10v138q0 10 10 10z" />
    <glyph glyph-name="Lslash" unicode="&#x141;" horiz-adv-x="559" 
d="M32 680h260q10 0 10 -10v-116q0 -10 -10 -10h-37q-6 0 -6 -6v-89l130 67q10 5 10 -6v-107q0 -9 -10 -14l-130 -67v-171q0 -6 6 -6h125q6 0 6 6v50q0 10 10 10h133q10 0 10 -10v-191q0 -10 -10 -10h-497q-10 0 -10 10v116q0 10 10 10h37q6 0 6 6v99l-40 -20q-10 -5 -10 6
v107q0 9 10 14l40 20v170q0 6 -6 6h-37q-10 0 -10 10v116q0 10 10 10z" />
    <glyph glyph-name="lslash" unicode="&#x142;" horiz-adv-x="318" 
d="M21 680h195q10 0 10 -10v-219l62 32q10 5 10 -6v-105q0 -9 -10 -14l-62 -32v-142q0 -48 42 -48h20q10 0 10 -10v-118q0 -10 -10 -10h-59q-91 0 -130 39.5t-39 131.5v78l-33 -17q-10 -5 -10 6v105q0 9 10 14l33 16v167q0 6 -6 6h-33q-10 0 -10 10v116q0 10 10 10z" />
    <glyph glyph-name="Nacute" unicode="&#x143;" horiz-adv-x="688" 
d="M363 889h142q5 0 6.5 -3t-1.5 -7l-128 -123q-9 -9 -20 -9h-115q-5 0 -6 3t2 7l102 122q8 10 18 10zM412 680h244q10 0 10 -10v-116q0 -10 -10 -10h-37q-6 0 -6 -6v-528q0 -10 -10 -10h-146q-11 0 -17 10l-202 384h-5v-252q0 -6 6 -6h37q10 0 10 -10v-116q0 -10 -10 -10
h-244q-10 0 -10 10v116q0 10 10 10h37q6 0 6 6v396q0 6 -6 6h-37q-10 0 -10 10v116q0 10 10 10h199q13 0 17 -10l202 -384h5v252q0 6 -6 6h-37q-10 0 -10 10v116q0 10 10 10z" />
    <glyph glyph-name="nacute" unicode="&#x144;" horiz-adv-x="591" 
d="M296 702h139q5 0 6.5 -3t-1.5 -7l-103 -136q-7 -10 -17 -10h-116q-10 0 -5 10l80 136q6 10 17 10zM363 497q81 0 121.5 -48.5t40.5 -132.5v-174q0 -6 6 -6h31q10 0 10 -10v-116q0 -10 -10 -10h-233q-10 0 -10 10v116q0 10 10 10h24q6 0 6 6v146q0 33 -15.5 51.5
t-45.5 18.5q-29 0 -45 -18.5t-16 -51.5v-146q0 -6 6 -6h24q10 0 10 -10v-116q0 -10 -10 -10h-235q-10 0 -10 10v116q0 10 10 10h33q6 0 6 6v203q0 6 -6 6h-33q-10 0 -10 10v116q0 10 10 10h195q10 0 10 -10v-36h1q38 56 125 56z" />
    <glyph glyph-name="Ncommaaccent" unicode="&#x145;" horiz-adv-x="688" 
d="M412 680h244q10 0 10 -10v-116q0 -10 -10 -10h-37q-6 0 -6 -6v-528q0 -10 -10 -10h-146q-11 0 -17 10l-202 384h-5v-252q0 -6 6 -6h37q10 0 10 -10v-116q0 -10 -10 -10h-244q-10 0 -10 10v116q0 10 10 10h37q6 0 6 6v396q0 6 -6 6h-37q-10 0 -10 10v116q0 10 10 10h199
q13 0 17 -10l202 -384h5v252q0 6 -6 6h-37q-10 0 -10 10v116q0 10 10 10zM283 -46h120q10 0 10 -10v-89q0 -14 -9 -20l-103 -75q-11 -8 -17 -8q-11 0 -11 13v179q0 10 10 10z" />
    <glyph glyph-name="ncommaaccent" unicode="&#x146;" horiz-adv-x="591" 
d="M363 497q81 0 121.5 -48.5t40.5 -132.5v-174q0 -6 6 -6h31q10 0 10 -10v-116q0 -10 -10 -10h-233q-10 0 -10 10v116q0 10 10 10h24q6 0 6 6v146q0 33 -15.5 51.5t-45.5 18.5q-29 0 -45 -18.5t-16 -51.5v-146q0 -6 6 -6h24q10 0 10 -10v-116q0 -10 -10 -10h-235
q-10 0 -10 10v116q0 10 10 10h33q6 0 6 6v203q0 6 -6 6h-33q-10 0 -10 10v116q0 10 10 10h195q10 0 10 -10v-36h1q38 56 125 56zM235 -46h120q10 0 10 -10v-89q0 -14 -9 -20l-103 -75q-11 -8 -17 -8q-11 0 -11 13v179q0 10 10 10z" />
    <glyph glyph-name="Ncaron" unicode="&#x147;" horiz-adv-x="688" 
d="M413 892h95q5 0 6.5 -3t-1.5 -7l-108 -136q-7 -10 -19 -10h-90q-12 0 -19 10l-108 136q-3 4 -2 7t6 3h95q13 0 23 -10l49 -49h2l48 49q10 10 23 10zM412 680h244q10 0 10 -10v-116q0 -10 -10 -10h-37q-6 0 -6 -6v-528q0 -10 -10 -10h-146q-11 0 -17 10l-202 384h-5v-252
q0 -6 6 -6h37q10 0 10 -10v-116q0 -10 -10 -10h-244q-10 0 -10 10v116q0 10 10 10h37q6 0 6 6v396q0 6 -6 6h-37q-10 0 -10 10v116q0 10 10 10h199q13 0 17 -10l202 -384h5v252q0 6 -6 6h-37q-10 0 -10 10v116q0 10 10 10z" />
    <glyph glyph-name="ncaron" unicode="&#x148;" horiz-adv-x="591" 
d="M367 698h95q5 0 6.5 -3t-1.5 -7l-109 -137q-7 -10 -18 -10h-91q-11 0 -18 10l-109 137q-3 4 -1.5 7t6.5 3h95q13 0 23 -10l48 -49h2l49 49q10 10 23 10zM363 497q81 0 121.5 -48.5t40.5 -132.5v-174q0 -6 6 -6h31q10 0 10 -10v-116q0 -10 -10 -10h-233q-10 0 -10 10v116
q0 10 10 10h24q6 0 6 6v146q0 33 -15.5 51.5t-45.5 18.5q-29 0 -45 -18.5t-16 -51.5v-146q0 -6 6 -6h24q10 0 10 -10v-116q0 -10 -10 -10h-235q-10 0 -10 10v116q0 10 10 10h33q6 0 6 6v203q0 6 -6 6h-33q-10 0 -10 10v116q0 10 10 10h195q10 0 10 -10v-36h1q38 56 125 56z
" />
    <glyph glyph-name="uni0149" unicode="&#x149;" horiz-adv-x="591" 
d="M-31 680h109q10 0 10 -10v-94q0 -13 -9 -21l-92 -75q-9 -8 -17 -8q-11 0 -11 13v185q0 10 10 10zM363 497q81 0 121.5 -48.5t40.5 -132.5v-174q0 -6 6 -6h31q10 0 10 -10v-116q0 -10 -10 -10h-233q-10 0 -10 10v116q0 10 10 10h24q6 0 6 6v146q0 33 -15.5 51.5
t-45.5 18.5q-29 0 -45 -18.5t-16 -51.5v-146q0 -6 6 -6h24q10 0 10 -10v-116q0 -10 -10 -10h-235q-10 0 -10 10v116q0 10 10 10h33q6 0 6 6v203q0 6 -6 6h-33q-10 0 -10 10v116q0 10 10 10h195q10 0 10 -10v-36h1q38 56 125 56z" />
    <glyph glyph-name="Eng" unicode="&#x14a;" horiz-adv-x="688" 
d="M412 680h244q10 0 10 -10v-116q0 -10 -10 -10h-37q-6 0 -6 -6v-499q0 -219 -222 -219h-37q-10 0 -10 10v118q0 10 10 10h21q69 0 73 45l-210 391h-5v-252q0 -6 6 -6h37q10 0 10 -10v-116q0 -10 -10 -10h-244q-10 0 -10 10v116q0 10 10 10h37q6 0 6 6v396q0 6 -6 6h-37
q-10 0 -10 10v116q0 10 10 10h199q13 0 17 -10l202 -382h5v250q0 6 -6 6h-37q-10 0 -10 10v116q0 10 10 10z" />
    <glyph glyph-name="eng" unicode="&#x14b;" horiz-adv-x="569" 
d="M364 497q81 0 121 -48.5t40 -132.5v-303q0 -101 -48 -147t-147 -46h-35q-10 0 -10 10v117q0 10 10 10h14q29 0 39.5 10.5t10.5 42.5v278q0 33 -15.5 51.5t-44.5 18.5t-45.5 -18.5t-16.5 -51.5v-146q0 -6 6 -6h31q10 0 10 -10v-116q0 -10 -10 -10h-242q-10 0 -10 10v116
q0 10 10 10h33q6 0 6 6v203q0 6 -6 6h-33q-10 0 -10 10v116q0 10 10 10h195q10 0 10 -10v-36h1q38 56 126 56z" />
    <glyph glyph-name="Omacron" unicode="&#x14c;" horiz-adv-x="622" 
d="M159 871h301q10 0 10 -10v-90q0 -10 -10 -10h-301q-10 0 -10 10v90q0 10 10 10zM311 692q92 0 160 -43t94 -124q20 -61 20 -185t-20 -185q-26 -81 -94 -124t-160 -43t-160 43t-94 124q-20 65 -20 185t20 185q26 81 94 124t160 43zM311 535q-68 0 -87 -60
q-10 -29 -10 -135t10 -135q19 -60 87 -60t87 60q10 29 10 135t-10 135q-19 60 -87 60z" />
    <glyph glyph-name="omacron" unicode="&#x14d;" horiz-adv-x="528" 
d="M113 673h301q10 0 10 -10v-91q0 -10 -10 -10h-301q-10 0 -10 10v91q0 10 10 10zM264 499q82 0 140 -36t80 -105q15 -49 15 -115q0 -65 -15 -114q-22 -69 -80 -105t-140 -36t-140 36t-80 105q-15 49 -15 114q0 66 15 115q22 69 80 105t140 36zM264 361q-47 0 -60 -41
q-7 -21 -7 -77q0 -55 7 -76q13 -41 60 -41t60 41q7 21 7 76q0 56 -7 77q-13 41 -60 41z" />
    <glyph glyph-name="Obreve" unicode="&#x14e;" horiz-adv-x="622" 
d="M393 885h65q12 0 12 -10q-2 -60 -47 -100.5t-114 -40.5q-68 0 -113 40.5t-47 100.5q0 10 12 10h65q10 0 14 -10q18 -40 69 -40q52 0 70 40q4 10 14 10zM311 692q92 0 160 -43t94 -124q20 -61 20 -185t-20 -185q-26 -81 -94 -124t-160 -43t-160 43t-94 124q-20 65 -20 185
t20 185q26 81 94 124t160 43zM311 535q-68 0 -87 -60q-10 -29 -10 -135t10 -135q19 -60 87 -60t87 60q10 29 10 135t-10 135q-19 60 -87 60z" />
    <glyph glyph-name="obreve" unicode="&#x14f;" horiz-adv-x="528" 
d="M347 690h65q12 0 12 -11q-2 -60 -47.5 -100.5t-113.5 -40.5t-113 40.5t-47 100.5q0 11 12 11h65q10 0 14 -11q18 -40 69 -40q52 0 70 40q4 11 14 11zM264 499q82 0 140 -36t80 -105q15 -49 15 -115q0 -65 -15 -114q-22 -69 -80 -105t-140 -36t-140 36t-80 105
q-15 49 -15 114q0 66 15 115q22 69 80 105t140 36zM264 361q-47 0 -60 -41q-7 -21 -7 -77q0 -55 7 -76q13 -41 60 -41t60 41q7 21 7 76q0 56 -7 77q-13 41 -60 41z" />
    <glyph glyph-name="Ohungarumlaut" unicode="&#x150;" horiz-adv-x="622" 
d="M249 886h114q11 0 5 -10l-89 -118q-7 -10 -19 -10h-98q-11 0 -5 10l75 118q6 10 17 10zM433 886h114q11 0 5 -10l-89 -118q-6 -10 -19 -10h-97q-11 0 -5 10l74 118q6 10 17 10zM311 692q92 0 160 -43t94 -124q20 -61 20 -185t-20 -185q-26 -81 -94 -124t-160 -43t-160 43
t-94 124q-20 65 -20 185t20 185q26 81 94 124t160 43zM311 535q-68 0 -87 -60q-10 -29 -10 -135t10 -135q19 -60 87 -60t87 60q10 29 10 135t-10 135q-19 60 -87 60z" />
    <glyph glyph-name="ohungarumlaut" unicode="&#x151;" horiz-adv-x="528" 
d="M196 700h114q4 0 6 -3t0 -7l-84 -137q-7 -10 -18 -10h-98q-11 0 -6 10l70 137q5 10 16 10zM380 700h114q4 0 6 -3t0 -7l-84 -137q-6 -10 -17 -10h-98q-11 0 -6 10l69 137q5 10 16 10zM264 499q82 0 140 -36t80 -105q15 -49 15 -115q0 -65 -15 -114q-22 -69 -80 -105
t-140 -36t-140 36t-80 105q-15 49 -15 114q0 66 15 115q22 69 80 105t140 36zM264 361q-47 0 -60 -41q-7 -21 -7 -77q0 -55 7 -76q13 -41 60 -41t60 41q7 21 7 76q0 56 -7 77q-13 41 -60 41z" />
    <glyph glyph-name="OE" unicode="&#x152;" horiz-adv-x="897" 
d="M286 692q79 0 120 -41h2v19q0 10 10 10h439q10 0 10 -10v-170q0 -10 -10 -10h-127q-10 0 -10 10v36q0 6 -6 6h-127q-6 0 -6 -6v-117q0 -6 6 -6h77q6 0 6 6v22q0 10 10 10h120q10 0 10 -10v-195q0 -10 -10 -10h-120q-10 0 -10 10v22q0 6 -6 6h-77q-6 0 -6 -6v-124
q0 -6 6 -6h127q6 0 6 6v39q0 10 10 10h127q10 0 10 -10v-173q0 -10 -10 -10h-439q-10 0 -10 10v19h-2q-41 -41 -120 -41q-176 0 -229 164q-20 63 -20 188t20 188q53 164 229 164zM311 535q-66 0 -87 -60q-10 -29 -10 -135t10 -135q21 -60 87 -60t87 60q10 29 10 135t-10 135
q-21 60 -87 60z" />
    <glyph glyph-name="oe" unicode="&#x153;" horiz-adv-x="827" 
d="M564 499q172 0 218 -141q16 -53 16 -152q0 -10 -10 -10h-289q-6 0 -6 -6q0 -11 3 -20q19 -53 96 -53q58 0 109 40q8 5 14 -1l71 -74q6 -6 -1 -14q-83 -80 -211 -80q-96 0 -157 52h-1q-59 -52 -152 -52q-82 0 -140 36.5t-80 105.5q-15 48 -15 114q0 65 15 113
q22 69 80 105.5t140 36.5q91 0 151 -51h2q54 51 147 51zM566 378q-55 0 -69 -44q-4 -11 -4 -30q0 -6 6 -6h132q6 0 6 6q0 19 -4 30q-16 44 -67 44zM264 361q-47 0 -60 -41q-7 -21 -7 -77q0 -55 7 -76q13 -41 60 -41t60 41q7 21 7 76q0 56 -7 77q-13 41 -60 41z" />
    <glyph glyph-name="Racute" unicode="&#x154;" horiz-adv-x="634" 
d="M331 889h142q5 0 6.5 -3t-1.5 -7l-128 -123q-9 -9 -20 -9h-115q-5 0 -6 3t2 7l102 122q8 10 18 10zM32 680h323q118 0 181 -56.5t63 -153.5q0 -128 -114 -185l62 -143q3 -6 9 -6h47q10 0 10 -10v-116q0 -10 -10 -10h-173q-11 0 -15 10l-102 250h-58q-6 0 -6 -8v-110
q0 -6 6 -6h34q10 0 10 -10v-116q0 -10 -10 -10h-257q-10 0 -10 10v116q0 10 10 10h37q6 0 6 6v396q0 6 -6 6h-37q-10 0 -10 10v116q0 10 10 10zM344 538h-89q-6 0 -6 -6v-131q0 -6 6 -6h89q38 0 59 19.5t21 52.5t-21 52t-59 19z" />
    <glyph glyph-name="racute" unicode="&#x155;" horiz-adv-x="414" 
d="M244 702h139q5 0 6.5 -3t-1.5 -7l-103 -136q-7 -10 -17 -10h-116q-10 0 -5 10l80 136q6 10 17 10zM346 492q21 0 39 -4q10 -3 10 -12v-143q0 -12 -14 -8q-31 9 -57 9q-41 0 -64 -24t-23 -71v-97q0 -6 6 -6h37q10 0 10 -10v-116q0 -10 -10 -10h-248q-10 0 -10 10v116
q0 10 10 10h33q6 0 6 6v203q0 6 -6 6h-33q-10 0 -10 10v116q0 10 10 10h195q10 0 10 -10v-46h1q33 61 108 61z" />
    <glyph glyph-name="Rcommaaccent" unicode="&#x156;" horiz-adv-x="634" 
d="M32 680h323q118 0 181 -56.5t63 -153.5q0 -128 -114 -185l62 -143q3 -6 9 -6h47q10 0 10 -10v-116q0 -10 -10 -10h-173q-11 0 -15 10l-102 250h-58q-6 0 -6 -8v-110q0 -6 6 -6h34q10 0 10 -10v-116q0 -10 -10 -10h-257q-10 0 -10 10v116q0 10 10 10h37q6 0 6 6v396
q0 6 -6 6h-37q-10 0 -10 10v116q0 10 10 10zM344 538h-89q-6 0 -6 -6v-131q0 -6 6 -6h89q38 0 59 19.5t21 52.5t-21 52t-59 19zM265 -46h120q10 0 10 -10v-89q0 -14 -9 -20l-103 -75q-11 -8 -17 -8q-11 0 -11 13v179q0 10 10 10z" />
    <glyph glyph-name="rcommaaccent" unicode="&#x157;" horiz-adv-x="414" 
d="M346 492q21 0 39 -4q10 -3 10 -12v-143q0 -12 -14 -8q-31 9 -57 9q-41 0 -64 -24t-23 -71v-97q0 -6 6 -6h37q10 0 10 -10v-116q0 -10 -10 -10h-248q-10 0 -10 10v116q0 10 10 10h33q6 0 6 6v203q0 6 -6 6h-33q-10 0 -10 10v116q0 10 10 10h195q10 0 10 -10v-46h1
q33 61 108 61zM94 -46h120q10 0 10 -10v-89q0 -14 -9 -20l-103 -75q-11 -8 -17 -8q-11 0 -11 13v179q0 10 10 10z" />
    <glyph glyph-name="Rcaron" unicode="&#x158;" horiz-adv-x="634" 
d="M372 892h95q5 0 6.5 -3t-1.5 -7l-108 -136q-7 -10 -19 -10h-90q-12 0 -19 10l-108 136q-3 4 -1.5 7t5.5 3h95q13 0 23 -10l49 -49h2l48 49q10 10 23 10zM32 680h323q118 0 181 -56.5t63 -153.5q0 -128 -114 -185l62 -143q3 -6 9 -6h47q10 0 10 -10v-116q0 -10 -10 -10
h-173q-11 0 -15 10l-102 250h-58q-6 0 -6 -8v-110q0 -6 6 -6h34q10 0 10 -10v-116q0 -10 -10 -10h-257q-10 0 -10 10v116q0 10 10 10h37q6 0 6 6v396q0 6 -6 6h-37q-10 0 -10 10v116q0 10 10 10zM344 538h-89q-6 0 -6 -6v-131q0 -6 6 -6h89q38 0 59 19.5t21 52.5t-21 52
t-59 19z" />
    <glyph glyph-name="rcaron" unicode="&#x159;" horiz-adv-x="414" 
d="M313 698h95q5 0 6.5 -3t-1.5 -7l-109 -137q-7 -10 -18 -10h-91q-11 0 -18 10l-109 137q-3 4 -1.5 7t6.5 3h95q13 0 23 -10l48 -49h2l49 49q10 10 23 10zM346 492q21 0 39 -4q10 -3 10 -12v-143q0 -12 -14 -8q-31 9 -57 9q-41 0 -64 -24t-23 -71v-97q0 -6 6 -6h37
q10 0 10 -10v-116q0 -10 -10 -10h-248q-10 0 -10 10v116q0 10 10 10h33q6 0 6 6v203q0 6 -6 6h-33q-10 0 -10 10v116q0 10 10 10h195q10 0 10 -10v-46h1q33 61 108 61z" />
    <glyph glyph-name="Sacute" unicode="&#x15a;" horiz-adv-x="590" 
d="M329 889h142q5 0 6.5 -3t-1.5 -7l-128 -123q-9 -9 -20 -9h-115q-5 0 -6 3t2 7l102 122q8 10 18 10zM297 692q122 0 223 -46q8 -3 8 -12v-148q0 -10 -10 -10h-128q-10 0 -10 10v42q0 6 -6 8q-30 13 -74 13q-84 0 -84 -58q0 -26 19 -41t67 -22l36 -5q113 -15 168.5 -67.5
t55.5 -147.5q0 -101 -71 -160.5t-205 -59.5q-142 0 -236 46q-9 4 -9 13v158q0 10 10 10h136q10 0 10 -10v-50q0 -7 6 -8q37 -13 84 -13q95 0 95 66q0 25 -18.5 41t-65.5 22l-36 5q-113 16 -169.5 68t-56.5 148q0 98 68 153t193 55z" />
    <glyph glyph-name="sacute" unicode="&#x15b;" horiz-adv-x="487" 
d="M253 702h139q5 0 6.5 -3t-1.5 -7l-103 -136q-8 -10 -17 -10h-116q-10 0 -5 10l80 136q6 10 17 10zM238 499q109 0 188 -34q8 -3 8 -11v-108q0 -10 -10 -10h-122q-10 0 -10 10v22q0 5 -6 7q-16 7 -49 7q-57 0 -57 -33q0 -14 10.5 -22t44.5 -11l54 -6q94 -10 134 -48
t40 -104q0 -84 -61.5 -127t-167.5 -43q-116 0 -199 33q-7 3 -7 12v117q0 10 10 10h124q10 0 10 -10v-28q0 -5 5 -6q30 -8 62 -8q67 0 67 37q0 17 -12.5 24.5t-48.5 11.5l-55 6q-165 18 -165 153q0 76 55 117.5t158 41.5z" />
    <glyph glyph-name="Scircumflex" unicode="&#x15c;" horiz-adv-x="590" 
d="M247 898h90q12 0 19 -10l108 -137q3 -4 1.5 -7t-6.5 -3h-95q-13 0 -23 10l-48 50h-2l-49 -50q-10 -10 -23 -10h-95q-4 0 -5.5 3t1.5 7l108 137q7 10 19 10zM297 692q122 0 223 -46q8 -3 8 -12v-148q0 -10 -10 -10h-128q-10 0 -10 10v42q0 6 -6 8q-30 13 -74 13
q-84 0 -84 -58q0 -26 19 -41t67 -22l36 -5q113 -15 168.5 -67.5t55.5 -147.5q0 -101 -71 -160.5t-205 -59.5q-142 0 -236 46q-9 4 -9 13v158q0 10 10 10h136q10 0 10 -10v-50q0 -7 6 -8q37 -13 84 -13q95 0 95 66q0 25 -18.5 41t-65.5 22l-36 5q-113 16 -169.5 68t-56.5 148
q0 98 68 153t193 55z" />
    <glyph glyph-name="scircumflex" unicode="&#x15d;" horiz-adv-x="487" 
d="M194 701h91q11 0 18 -10l109 -137q3 -4 1.5 -7t-6.5 -3h-95q-13 0 -23 10l-49 50h-2l-48 -50q-10 -10 -23 -10h-95q-5 0 -6.5 3t1.5 7l109 137q7 10 18 10zM238 499q109 0 188 -34q8 -3 8 -11v-108q0 -10 -10 -10h-122q-10 0 -10 10v22q0 5 -6 7q-16 7 -49 7
q-57 0 -57 -33q0 -14 10.5 -22t44.5 -11l54 -6q94 -10 134 -48t40 -104q0 -84 -61.5 -127t-167.5 -43q-116 0 -199 33q-7 3 -7 12v117q0 10 10 10h124q10 0 10 -10v-28q0 -5 5 -6q30 -8 62 -8q67 0 67 37q0 17 -12.5 24.5t-48.5 11.5l-55 6q-165 18 -165 153q0 76 55 117.5
t158 41.5z" />
    <glyph glyph-name="Scedilla" unicode="&#x15e;" horiz-adv-x="590" 
d="M297 692q122 0 223 -46q8 -3 8 -12v-148q0 -10 -10 -10h-128q-10 0 -10 10v42q0 6 -6 8q-30 13 -74 13q-84 0 -84 -58q0 -26 19 -41t67 -22l36 -5q113 -15 168.5 -67.5t55.5 -147.5q0 -86 -52 -142.5t-152 -71.5l-44 -150q-3 -10 -16 -10h-115q-10 0 -7 10l58 146
q-115 9 -184 44q-9 4 -9 13v158q0 10 10 10h136q10 0 10 -10v-50q0 -7 6 -8q37 -13 84 -13q95 0 95 66q0 25 -18.5 41t-65.5 22l-36 5q-113 16 -169.5 68t-56.5 148q0 98 68 153t193 55z" />
    <glyph glyph-name="scedilla" unicode="&#x15f;" horiz-adv-x="487" 
d="M238 499q109 0 188 -34q8 -3 8 -11v-108q0 -10 -10 -10h-122q-10 0 -10 10v22q0 5 -6 7q-16 7 -49 7q-57 0 -57 -33q0 -14 10.5 -22t44.5 -11l54 -6q94 -10 134 -48t40 -104q0 -69 -41.5 -110.5t-115.5 -53.5l-44 -150q-3 -10 -16 -10h-115q-10 0 -7 10l58 146
q-82 5 -147 31q-7 3 -7 12v117q0 10 10 10h124q10 0 10 -10v-28q0 -5 5 -6q30 -8 62 -8q67 0 67 37q0 17 -12.5 24.5t-48.5 11.5l-55 6q-165 18 -165 153q0 76 55 117.5t158 41.5z" />
    <glyph glyph-name="Scaron" unicode="&#x160;" horiz-adv-x="590" 
d="M360 892h95q5 0 6.5 -3t-1.5 -7l-108 -136q-7 -10 -19 -10h-90q-12 0 -19 10l-108 136q-3 4 -1.5 7t5.5 3h95q13 0 23 -10l49 -49h2l48 49q10 10 23 10zM297 692q122 0 223 -46q8 -3 8 -12v-148q0 -10 -10 -10h-128q-10 0 -10 10v42q0 6 -6 8q-30 13 -74 13
q-84 0 -84 -58q0 -26 19 -41t67 -22l36 -5q113 -15 168.5 -67.5t55.5 -147.5q0 -101 -71 -160.5t-205 -59.5q-142 0 -236 46q-9 4 -9 13v158q0 10 10 10h136q10 0 10 -10v-50q0 -7 6 -8q37 -13 84 -13q95 0 95 66q0 25 -18.5 41t-65.5 22l-36 5q-113 16 -169.5 68t-56.5 148
q0 98 68 153t193 55z" />
    <glyph glyph-name="scaron" unicode="&#x161;" horiz-adv-x="487" 
d="M304 698h95q5 0 6.5 -3t-1.5 -7l-109 -137q-7 -10 -18 -10h-91q-11 0 -18 10l-109 137q-3 4 -1.5 7t6.5 3h95q13 0 23 -10l48 -49h2l49 49q10 10 23 10zM238 499q109 0 188 -34q8 -3 8 -11v-108q0 -10 -10 -10h-122q-10 0 -10 10v22q0 5 -6 7q-16 7 -49 7q-57 0 -57 -33
q0 -14 10.5 -22t44.5 -11l54 -6q94 -10 134 -48t40 -104q0 -84 -61.5 -127t-167.5 -43q-116 0 -199 33q-7 3 -7 12v117q0 10 10 10h124q10 0 10 -10v-28q0 -5 5 -6q30 -8 62 -8q67 0 67 37q0 17 -12.5 24.5t-48.5 11.5l-55 6q-165 18 -165 153q0 76 55 117.5t158 41.5z" />
    <glyph glyph-name="uni0162" unicode="&#x162;" horiz-adv-x="632" 
d="M23 680h586q10 0 10 -10v-185q0 -10 -10 -10h-126q-10 0 -10 10v47q0 6 -6 6h-58q-6 0 -6 -6v-390q0 -6 6 -6h45q10 0 10 -10v-116q0 -10 -10 -10h-276q-10 0 -10 10v116q0 10 10 10h45q6 0 6 6v390q0 6 -6 6h-58q-6 0 -6 -6v-47q0 -10 -10 -10h-126q-10 0 -10 10v185
q0 10 10 10zM255 -46h120q10 0 10 -10v-89q0 -14 -9 -20l-103 -75q-11 -8 -17 -8q-11 0 -11 13v179q0 10 10 10z" />
    <glyph glyph-name="uni0163" unicode="&#x163;" horiz-adv-x="333" 
d="M73 630h146q10 0 10 -10v-127q0 -6 6 -6h61q10 0 10 -10v-116q0 -10 -10 -10h-61q-6 0 -6 -6v-158q0 -29 9.5 -40t35.5 -11h22q10 0 10 -10v-118q0 -10 -10 -10h-55q-96 0 -137 42.5t-41 141.5v163q0 6 -6 6h-28q-10 0 -10 10v116q0 10 10 10h28q6 0 6 6v127q0 10 10 10z
M135 -46h120q10 0 10 -10v-89q0 -14 -9 -20l-103 -75q-11 -8 -17 -8q-11 0 -11 13v179q0 10 10 10z" />
    <glyph glyph-name="Tcaron" unicode="&#x164;" horiz-adv-x="632" 
d="M387 892h95q5 0 6.5 -3t-1.5 -7l-108 -136q-7 -10 -19 -10h-90q-12 0 -19 10l-108 136q-3 4 -2 7t6 3h95q13 0 23 -10l49 -49h2l48 49q10 10 23 10zM23 680h586q10 0 10 -10v-185q0 -10 -10 -10h-126q-10 0 -10 10v47q0 6 -6 6h-58q-6 0 -6 -6v-390q0 -6 6 -6h45
q10 0 10 -10v-116q0 -10 -10 -10h-276q-10 0 -10 10v116q0 10 10 10h45q6 0 6 6v390q0 6 -6 6h-58q-6 0 -6 -6v-47q0 -10 -10 -10h-126q-10 0 -10 10v185q0 10 10 10z" />
    <glyph glyph-name="tcaron" unicode="&#x165;" horiz-adv-x="333" 
d="M325 680h109q10 0 10 -10v-94q0 -13 -9 -21l-92 -75q-9 -8 -17 -8q-11 0 -11 13v185q0 10 10 10zM73 630h146q10 0 10 -10v-127q0 -6 6 -6h61q10 0 10 -10v-116q0 -10 -10 -10h-61q-6 0 -6 -6v-158q0 -29 9.5 -40t35.5 -11h22q10 0 10 -10v-118q0 -10 -10 -10h-55
q-96 0 -137 42.5t-41 141.5v163q0 6 -6 6h-28q-10 0 -10 10v116q0 10 10 10h28q6 0 6 6v127q0 10 10 10z" />
    <glyph glyph-name="Tbar" unicode="&#x166;" horiz-adv-x="632" 
d="M23 680h586q10 0 10 -10v-185q0 -10 -10 -10h-126q-10 0 -10 10v47q0 6 -6 6h-58q-6 0 -6 -6v-120q0 -6 6 -6h78q10 0 10 -10v-104q0 -10 -10 -10h-78q-6 0 -6 -6v-134q0 -6 6 -6h45q10 0 10 -10v-116q0 -10 -10 -10h-276q-10 0 -10 10v116q0 10 10 10h45q6 0 6 6v134
q0 6 -6 6h-78q-10 0 -10 10v104q0 10 10 10h78q6 0 6 6v120q0 6 -6 6h-58q-6 0 -6 -6v-47q0 -10 -10 -10h-126q-10 0 -10 10v185q0 10 10 10z" />
    <glyph glyph-name="tbar" unicode="&#x167;" horiz-adv-x="333" 
d="M73 630h146q10 0 10 -10v-127q0 -6 6 -6h61q10 0 10 -10v-116q0 -10 -10 -10h-61q-6 0 -6 -6v-33q0 -6 6 -6h47q10 0 10 -10v-72q0 -10 -10 -10h-47q-6 0 -6 -6v-21q0 -30 10 -40.5t35 -10.5h22q10 0 10 -10v-118q0 -10 -10 -10h-55q-96 0 -137 42t-41 142v26q0 6 -6 6
h-20q-10 0 -10 10v72q0 10 10 10h20q6 0 6 6v33q0 6 -6 6h-28q-10 0 -10 10v116q0 10 10 10h28q6 0 6 6v127q0 10 10 10z" />
    <glyph glyph-name="Utilde" unicode="&#x168;" horiz-adv-x="664" 
d="M261 892q36 0 84 -24q38 -17 60 -17q33 0 75 32q11 7 11 -3v-81q0 -13 -10 -22q-37 -37 -81 -37q-37 0 -83 23q-36 18 -60 18q-33 0 -76 -33q-4 -3 -7 -1.5t-3 5.5v81q0 12 9 22q37 37 81 37zM382 680h257q10 0 10 -10v-116q0 -10 -10 -10h-34q-6 0 -6 -6v-275
q0 -133 -71.5 -204t-194.5 -71q-124 0 -196 71t-72 204v275q0 6 -6 6h-34q-10 0 -10 10v116q0 10 10 10h257q10 0 10 -10v-116q0 -10 -10 -10h-37q-6 0 -6 -6v-286q0 -51 24.5 -79t68.5 -28t68.5 28t24.5 79v286q0 6 -6 6h-37q-10 0 -10 10v116q0 10 10 10z" />
    <glyph glyph-name="utilde" unicode="&#x169;" horiz-adv-x="584" 
d="M211 697q38 0 84 -23q36 -18 60 -18q34 0 75 33q11 7 11 -4v-81q0 -13 -10 -22q-37 -37 -81 -37q-37 0 -83 23q-36 18 -60 18q-32 0 -76 -32q-4 -3 -7 -2t-3 5v81q0 13 9 22q37 37 81 37zM308 487h195q10 0 10 -10v-335q0 -6 6 -6h33q10 0 10 -10v-116q0 -10 -10 -10
h-195q-10 0 -10 10v36h-1q-40 -56 -126 -56q-158 0 -158 180v175q0 6 -6 6h-33q-10 0 -10 10v116q0 10 10 10h195q10 0 10 -10v-278q0 -70 59 -70q28 0 44 18.5t16 51.5v146q0 6 -6 6h-33q-10 0 -10 10v116q0 10 10 10z" />
    <glyph glyph-name="Umacron" unicode="&#x16a;" horiz-adv-x="664" 
d="M181 871h301q10 0 10 -10v-90q0 -10 -10 -10h-301q-10 0 -10 10v90q0 10 10 10zM382 680h257q10 0 10 -10v-116q0 -10 -10 -10h-34q-6 0 -6 -6v-275q0 -133 -71.5 -204t-194.5 -71q-124 0 -196 71t-72 204v275q0 6 -6 6h-34q-10 0 -10 10v116q0 10 10 10h257q10 0 10 -10
v-116q0 -10 -10 -10h-37q-6 0 -6 -6v-286q0 -51 24.5 -79t68.5 -28t68.5 28t24.5 79v286q0 6 -6 6h-37q-10 0 -10 10v116q0 10 10 10z" />
    <glyph glyph-name="umacron" unicode="&#x16b;" horiz-adv-x="584" 
d="M131 673h301q10 0 10 -10v-91q0 -10 -10 -10h-301q-10 0 -10 10v91q0 10 10 10zM308 487h195q10 0 10 -10v-335q0 -6 6 -6h33q10 0 10 -10v-116q0 -10 -10 -10h-195q-10 0 -10 10v36h-1q-40 -56 -126 -56q-158 0 -158 180v175q0 6 -6 6h-33q-10 0 -10 10v116q0 10 10 10
h195q10 0 10 -10v-278q0 -70 59 -70q28 0 44 18.5t16 51.5v146q0 6 -6 6h-33q-10 0 -10 10v116q0 10 10 10z" />
    <glyph glyph-name="Ubreve" unicode="&#x16c;" horiz-adv-x="664" 
d="M414 885h65q12 0 12 -10q-2 -60 -47 -100.5t-114 -40.5q-68 0 -113 40.5t-47 100.5q0 10 12 10h65q10 0 14 -10q18 -40 69 -40q52 0 70 40q4 10 14 10zM382 680h257q10 0 10 -10v-116q0 -10 -10 -10h-34q-6 0 -6 -6v-275q0 -133 -71.5 -204t-194.5 -71q-124 0 -196 71
t-72 204v275q0 6 -6 6h-34q-10 0 -10 10v116q0 10 10 10h257q10 0 10 -10v-116q0 -10 -10 -10h-37q-6 0 -6 -6v-286q0 -51 24.5 -79t68.5 -28t68.5 28t24.5 79v286q0 6 -6 6h-37q-10 0 -10 10v116q0 10 10 10z" />
    <glyph glyph-name="ubreve" unicode="&#x16d;" horiz-adv-x="584" 
d="M365 690h65q12 0 12 -11q-2 -60 -47.5 -100.5t-113.5 -40.5t-113 40.5t-47 100.5q0 11 12 11h65q10 0 14 -11q18 -40 69 -40q52 0 70 40q4 11 14 11zM308 487h195q10 0 10 -10v-335q0 -6 6 -6h33q10 0 10 -10v-116q0 -10 -10 -10h-195q-10 0 -10 10v36h-1
q-40 -56 -126 -56q-158 0 -158 180v175q0 6 -6 6h-33q-10 0 -10 10v116q0 10 10 10h195q10 0 10 -10v-278q0 -70 59 -70q28 0 44 18.5t16 51.5v146q0 6 -6 6h-33q-10 0 -10 10v116q0 10 10 10z" />
    <glyph glyph-name="Uring" unicode="&#x16e;" horiz-adv-x="664" 
d="M330 931q50 0 82.5 -32t32.5 -81t-32.5 -81.5t-82.5 -32.5q-49 0 -81.5 32.5t-32.5 81.5t32.5 81t81.5 32zM330 862q-18 0 -30.5 -12.5t-12.5 -31.5t12.5 -32t30.5 -13q19 0 31.5 13t12.5 32t-12.5 31.5t-31.5 12.5zM382 680h257q10 0 10 -10v-116q0 -10 -10 -10h-34
q-6 0 -6 -6v-275q0 -133 -71.5 -204t-194.5 -71q-124 0 -196 71t-72 204v275q0 6 -6 6h-34q-10 0 -10 10v116q0 10 10 10h257q10 0 10 -10v-116q0 -10 -10 -10h-37q-6 0 -6 -6v-286q0 -51 24.5 -79t68.5 -28t68.5 28t24.5 79v286q0 6 -6 6h-37q-10 0 -10 10v116q0 10 10 10z
" />
    <glyph glyph-name="uring" unicode="&#x16f;" horiz-adv-x="584" 
d="M281 746q50 0 82.5 -32.5t32.5 -81.5t-32.5 -81.5t-82.5 -32.5q-49 0 -81.5 32.5t-32.5 81.5t32.5 81.5t81.5 32.5zM281 677q-18 0 -30.5 -13t-12.5 -32t12.5 -32t30.5 -13q19 0 31.5 13t12.5 32t-12.5 32t-31.5 13zM308 487h195q10 0 10 -10v-335q0 -6 6 -6h33
q10 0 10 -10v-116q0 -10 -10 -10h-195q-10 0 -10 10v36h-1q-40 -56 -126 -56q-158 0 -158 180v175q0 6 -6 6h-33q-10 0 -10 10v116q0 10 10 10h195q10 0 10 -10v-278q0 -70 59 -70q28 0 44 18.5t16 51.5v146q0 6 -6 6h-33q-10 0 -10 10v116q0 10 10 10z" />
    <glyph glyph-name="Uhungarumlaut" unicode="&#x170;" horiz-adv-x="664" 
d="M264 886h114q11 0 5 -10l-89 -118q-8 -10 -19 -10h-98q-11 0 -5 10l75 118q6 10 17 10zM448 886h114q11 0 5 -10l-89 -118q-6 -10 -19 -10h-97q-11 0 -5 10l74 118q6 10 17 10zM382 680h257q10 0 10 -10v-116q0 -10 -10 -10h-34q-6 0 -6 -6v-275q0 -133 -71.5 -204
t-194.5 -71q-124 0 -196 71t-72 204v275q0 6 -6 6h-34q-10 0 -10 10v116q0 10 10 10h257q10 0 10 -10v-116q0 -10 -10 -10h-37q-6 0 -6 -6v-286q0 -51 24.5 -79t68.5 -28t68.5 28t24.5 79v286q0 6 -6 6h-37q-10 0 -10 10v116q0 10 10 10z" />
    <glyph glyph-name="uhungarumlaut" unicode="&#x171;" horiz-adv-x="584" 
d="M217 700h114q4 0 6 -3t0 -7l-84 -137q-7 -10 -18 -10h-98q-11 0 -6 10l70 137q5 10 16 10zM401 700h114q5 0 6.5 -3t-0.5 -7l-84 -137q-6 -10 -17 -10h-98q-11 0 -6 10l69 137q5 10 16 10zM308 487h195q10 0 10 -10v-335q0 -6 6 -6h33q10 0 10 -10v-116q0 -10 -10 -10
h-195q-10 0 -10 10v36h-1q-40 -56 -126 -56q-158 0 -158 180v175q0 6 -6 6h-33q-10 0 -10 10v116q0 10 10 10h195q10 0 10 -10v-278q0 -70 59 -70q28 0 44 18.5t16 51.5v146q0 6 -6 6h-33q-10 0 -10 10v116q0 10 10 10z" />
    <glyph glyph-name="Uogonek" unicode="&#x172;" horiz-adv-x="664" 
d="M382 680h257q10 0 10 -10v-116q0 -10 -10 -10h-34q-6 0 -6 -6v-275q0 -111 -50 -179t-140 -88q-55 -39 -55 -62q0 -16 17 -16q10 0 25 9q8 5 13 -3l37 -71q5 -8 -4 -14q-44 -30 -99 -30q-51 0 -80.5 26.5t-29.5 69.5q0 46 40 88q-98 15 -153 84.5t-55 185.5v275q0 6 -6 6
h-34q-10 0 -10 10v116q0 10 10 10h257q10 0 10 -10v-116q0 -10 -10 -10h-37q-6 0 -6 -6v-286q0 -51 24.5 -79t68.5 -28t68.5 28t24.5 79v286q0 6 -6 6h-37q-10 0 -10 10v116q0 10 10 10z" />
    <glyph glyph-name="uogonek" unicode="&#x173;" horiz-adv-x="584" 
d="M308 487h195q10 0 10 -10v-335q0 -6 6 -6h33q10 0 10 -10v-116q0 -10 -10 -10h-58q-50 -23 -67.5 -38t-17.5 -28q0 -16 17 -16q10 0 25 9q8 5 13 -3l37 -71q5 -8 -4 -14q-44 -30 -99 -30q-51 0 -80.5 26.5t-29.5 69.5q0 62 59 102v39h-1q-40 -56 -126 -56
q-158 0 -158 180v175q0 6 -6 6h-33q-10 0 -10 10v116q0 10 10 10h195q10 0 10 -10v-278q0 -70 59 -70q28 0 44 18.5t16 51.5v146q0 6 -6 6h-33q-10 0 -10 10v116q0 10 10 10z" />
    <glyph glyph-name="Wcircumflex" unicode="&#x174;" horiz-adv-x="940" 
d="M424 898h90q12 0 19 -10l108 -137q3 -4 1.5 -7t-6.5 -3h-95q-13 0 -23 10l-48 50h-2l-49 -50q-10 -10 -23 -10h-95q-5 0 -6 3t2 7l108 137q7 10 19 10zM670 680h249q10 0 10 -10v-116q0 -10 -10 -10h-30q-4 0 -6 -5l-148 -529q-3 -10 -13 -10h-129q-11 0 -14 10l-108 381
h-2l-108 -381q-3 -10 -14 -10h-128q-11 0 -14 10l-148 529q-2 5 -7 5h-29q-10 0 -10 10v116q0 10 10 10h249q10 0 10 -10v-116q0 -10 -10 -10h-32q-7 0 -5 -7l62 -265h2l107 398q3 10 14 10h106q10 0 13 -10l111 -396h2l60 264q2 6 -5 6h-35q-10 0 -10 10v116q0 10 10 10z
" />
    <glyph glyph-name="wcircumflex" unicode="&#x175;" horiz-adv-x="788" 
d="M347 701h91q11 0 18 -10l109 -137q3 -4 1.5 -7t-6.5 -3h-95q-13 0 -23 10l-49 50h-2l-48 -50q-10 -10 -23 -10h-95q-5 0 -6.5 3t1.5 7l109 137q7 10 18 10zM551 487h214q10 0 10 -10v-116q0 -10 -10 -10h-31q-5 0 -6 -4l-115 -337q-3 -10 -12 -10h-121q-9 0 -12 10
l-73 252h-2l-74 -252q-3 -10 -12 -10h-120q-9 0 -12 10l-116 337q-1 4 -5 4h-31q-10 0 -10 10v116q0 10 10 10h217q10 0 10 -10v-116q0 -10 -10 -10h-25q-5 0 -3 -5l42 -139h2l75 270q3 10 14 10h99q11 0 14 -10l78 -270h2l40 139q2 5 -3 5h-24q-10 0 -10 10v116q0 10 10 10
z" />
    <glyph glyph-name="Ycircumflex" unicode="&#x176;" horiz-adv-x="616" 
d="M260 898h90q12 0 19 -10l108 -137q3 -4 1.5 -7t-6.5 -3h-95q-13 0 -23 10l-48 50h-2l-49 -50q-10 -10 -23 -10h-95q-5 0 -6 3t2 7l108 137q7 10 19 10zM348 680h245q10 0 10 -10v-116q0 -10 -10 -10h-30q-5 0 -8 -5l-161 -276v-121q0 -6 6 -6h45q10 0 10 -10v-116
q0 -10 -10 -10h-275q-10 0 -10 10v116q0 10 10 10h45q6 0 6 6v121l-161 276q-3 5 -9 5h-28q-10 0 -10 10v116q0 10 10 10h248q10 0 10 -10v-114q0 -10 -10 -10h-33q-8 0 -4 -7l75 -134h3l76 135q3 6 -5 6h-35q-10 0 -10 10v114q0 10 10 10z" />
    <glyph glyph-name="ycircumflex" unicode="&#x177;" horiz-adv-x="534" 
d="M222 701h91q11 0 18 -10l109 -137q3 -4 1.5 -7t-6.5 -3h-95q-13 0 -23 10l-49 50h-2l-48 -50q-10 -10 -23 -10h-95q-5 0 -6.5 3t1.5 7l109 137q7 10 18 10zM303 487h211q10 0 10 -10v-116q0 -10 -10 -10h-33q-4 0 -5 -4l-164 -403q-29 -71 -67.5 -97.5t-109.5 -26.5h-37
q-10 0 -10 10v118q0 10 10 10h26q25 0 39.5 9t23.5 32l10 28l-137 320q-1 4 -6 4h-33q-10 0 -10 10v116q0 10 10 10h216q10 0 10 -10v-116q0 -10 -10 -10h-20q-5 0 -3 -5l58 -145h2l53 145q2 5 -3 5h-21q-10 0 -10 10v116q0 10 10 10z" />
    <glyph glyph-name="Ydieresis" unicode="&#x178;" horiz-adv-x="616" 
d="M149 880h107q10 0 10 -10v-110q0 -10 -10 -10h-107q-10 0 -10 10v110q0 10 10 10zM355 880h107q10 0 10 -10v-110q0 -10 -10 -10h-107q-10 0 -10 10v110q0 10 10 10zM348 680h245q10 0 10 -10v-116q0 -10 -10 -10h-30q-5 0 -8 -5l-161 -276v-121q0 -6 6 -6h45
q10 0 10 -10v-116q0 -10 -10 -10h-275q-10 0 -10 10v116q0 10 10 10h45q6 0 6 6v121l-161 276q-3 5 -9 5h-28q-10 0 -10 10v116q0 10 10 10h248q10 0 10 -10v-114q0 -10 -10 -10h-33q-8 0 -4 -7l75 -134h3l76 135q3 6 -5 6h-35q-10 0 -10 10v114q0 10 10 10z" />
    <glyph glyph-name="Zacute" unicode="&#x179;" horiz-adv-x="550" 
d="M309 889h142q5 0 6.5 -3t-1.5 -7l-128 -123q-9 -9 -20 -9h-115q-5 0 -6 3t2 7l102 122q8 10 18 10zM43 680h473q10 0 10 -10v-131q0 -5 -3 -10l-305 -384v-3h150q6 0 6 6v53q0 10 10 10h132q10 0 10 -10v-191q0 -10 -10 -10h-484q-10 0 -10 10v131q0 5 3 10l305 384v3
h-141q-6 0 -6 -6v-47q0 -10 -10 -10h-130q-10 0 -10 10v185q0 10 10 10z" />
    <glyph glyph-name="zacute" unicode="&#x17a;" horiz-adv-x="487" 
d="M258 702h139q5 0 6.5 -3t-1.5 -7l-103 -136q-7 -10 -17 -10h-116q-10 0 -5 10l80 136q6 10 17 10zM46 487h399q10 0 10 -10v-107q0 -7 -4 -11l-229 -229v-2h92q6 0 6 6v26q0 10 10 10h118q10 0 10 -10v-150q0 -10 -10 -10h-409q-10 0 -10 10v106q0 7 4 11l230 236v3h-82
q-6 0 -6 -6v-33q0 -10 -10 -10h-119q-10 0 -10 10v150q0 10 10 10z" />
    <glyph glyph-name="Zdotaccent" unicode="&#x17b;" horiz-adv-x="550" 
d="M204 880h138q10 0 10 -10v-110q0 -10 -10 -10h-138q-10 0 -10 10v110q0 10 10 10zM43 680h473q10 0 10 -10v-131q0 -5 -3 -10l-305 -384v-3h150q6 0 6 6v53q0 10 10 10h132q10 0 10 -10v-191q0 -10 -10 -10h-484q-10 0 -10 10v131q0 5 3 10l305 384v3h-141q-6 0 -6 -6
v-47q0 -10 -10 -10h-130q-10 0 -10 10v185q0 10 10 10z" />
    <glyph glyph-name="zdotaccent" unicode="&#x17c;" horiz-adv-x="487" 
d="M175 680h138q10 0 10 -10v-110q0 -10 -10 -10h-138q-10 0 -10 10v110q0 10 10 10zM46 487h399q10 0 10 -10v-107q0 -7 -4 -11l-229 -229v-2h92q6 0 6 6v26q0 10 10 10h118q10 0 10 -10v-150q0 -10 -10 -10h-409q-10 0 -10 10v106q0 7 4 11l230 236v3h-82q-6 0 -6 -6v-33
q0 -10 -10 -10h-119q-10 0 -10 10v150q0 10 10 10z" />
    <glyph glyph-name="Zcaron" unicode="&#x17d;" horiz-adv-x="550" 
d="M346 892h95q5 0 6.5 -3t-1.5 -7l-108 -136q-7 -10 -19 -10h-90q-12 0 -19 10l-108 136q-3 4 -1.5 7t5.5 3h95q13 0 23 -10l49 -49h2l48 49q10 10 23 10zM43 680h473q10 0 10 -10v-131q0 -5 -3 -10l-305 -384v-3h150q6 0 6 6v53q0 10 10 10h132q10 0 10 -10v-191
q0 -10 -10 -10h-484q-10 0 -10 10v131q0 5 3 10l305 384v3h-141q-6 0 -6 -6v-47q0 -10 -10 -10h-130q-10 0 -10 10v185q0 10 10 10z" />
    <glyph glyph-name="zcaron" unicode="&#x17e;" horiz-adv-x="487" 
d="M316 698h95q5 0 6.5 -3t-1.5 -7l-109 -137q-7 -10 -18 -10h-91q-11 0 -18 10l-109 137q-3 4 -1.5 7t6.5 3h95q13 0 23 -10l48 -49h2l49 49q10 10 23 10zM46 487h399q10 0 10 -10v-107q0 -7 -4 -11l-229 -229v-2h92q6 0 6 6v26q0 10 10 10h118q10 0 10 -10v-150
q0 -10 -10 -10h-409q-10 0 -10 10v106q0 7 4 11l230 236v3h-82q-6 0 -6 -6v-33q0 -10 -10 -10h-119q-10 0 -10 10v150q0 10 10 10z" />
    <glyph glyph-name="florin" unicode="&#x192;" 
d="M441 680h37q10 0 10 -10v-118q0 -10 -10 -10h-21q-26 0 -39.5 -11.5t-17.5 -38.5l-11 -67h68q10 0 10 -10v-103q0 -10 -10 -10h-87l-47 -302q-15 -100 -62.5 -140t-141.5 -40h-36q-10 0 -10 10v118q0 10 10 10h20q28 0 41.5 11t17.5 39l45 294h-58q-10 0 -10 10v103
q0 10 10 10h77l12 76q15 98 62.5 138.5t140.5 40.5z" />
    <glyph glyph-name="Scommaaccent" unicode="&#x218;" horiz-adv-x="590" 
d="M297 692q122 0 223 -46q8 -3 8 -12v-148q0 -10 -10 -10h-128q-10 0 -10 10v42q0 6 -6 8q-30 13 -74 13q-84 0 -84 -58q0 -26 19 -41t67 -22l36 -5q113 -15 168.5 -67.5t55.5 -147.5q0 -101 -71 -160.5t-205 -59.5q-142 0 -236 46q-9 4 -9 13v158q0 10 10 10h136
q10 0 10 -10v-50q0 -7 6 -8q37 -13 84 -13q95 0 95 66q0 25 -18.5 41t-65.5 22l-36 5q-113 16 -169.5 68t-56.5 148q0 98 68 153t193 55zM228 -46h120q10 0 10 -10v-89q0 -14 -9 -20l-103 -75q-11 -8 -17 -8q-11 0 -11 13v179q0 10 10 10z" />
    <glyph glyph-name="scommaaccent" unicode="&#x219;" horiz-adv-x="487" 
d="M238 499q109 0 188 -34q8 -3 8 -11v-108q0 -10 -10 -10h-122q-10 0 -10 10v22q0 5 -6 7q-16 7 -49 7q-57 0 -57 -33q0 -14 10.5 -22t44.5 -11l54 -6q94 -10 134 -48t40 -104q0 -84 -61.5 -127t-167.5 -43q-116 0 -199 33q-7 3 -7 12v117q0 10 10 10h124q10 0 10 -10v-28
q0 -5 5 -6q30 -8 62 -8q67 0 67 37q0 17 -12.5 24.5t-48.5 11.5l-55 6q-165 18 -165 153q0 76 55 117.5t158 41.5zM184 -46h120q10 0 10 -10v-89q0 -14 -9 -20l-103 -75q-11 -8 -17 -8q-11 0 -11 13v179q0 10 10 10z" />
    <glyph glyph-name="uni021A" unicode="&#x21a;" horiz-adv-x="632" 
d="M23 680h586q10 0 10 -10v-185q0 -10 -10 -10h-126q-10 0 -10 10v47q0 6 -6 6h-58q-6 0 -6 -6v-390q0 -6 6 -6h45q10 0 10 -10v-116q0 -10 -10 -10h-276q-10 0 -10 10v116q0 10 10 10h45q6 0 6 6v390q0 6 -6 6h-58q-6 0 -6 -6v-47q0 -10 -10 -10h-126q-10 0 -10 10v185
q0 10 10 10zM255 -46h120q10 0 10 -10v-89q0 -14 -9 -20l-103 -75q-11 -8 -17 -8q-11 0 -11 13v179q0 10 10 10z" />
    <glyph glyph-name="uni021B" unicode="&#x21b;" horiz-adv-x="333" 
d="M73 630h146q10 0 10 -10v-127q0 -6 6 -6h61q10 0 10 -10v-116q0 -10 -10 -10h-61q-6 0 -6 -6v-158q0 -29 9.5 -40t35.5 -11h22q10 0 10 -10v-118q0 -10 -10 -10h-55q-96 0 -137 42.5t-41 141.5v163q0 6 -6 6h-28q-10 0 -10 10v116q0 10 10 10h28q6 0 6 6v127q0 10 10 10z
M135 -46h120q10 0 10 -10v-89q0 -14 -9 -20l-103 -75q-11 -8 -17 -8q-11 0 -11 13v179q0 10 10 10z" />
    <glyph glyph-name="dotlessj" unicode="&#x237;" horiz-adv-x="294" 
d="M32 487h195q10 0 10 -10v-464q0 -100 -50 -146.5t-149 -46.5h-38q-10 0 -10 10v117q0 10 10 10h16q31 0 43 12t12 45v331q0 6 -6 6h-33q-10 0 -10 10v116q0 10 10 10z" />
    <glyph glyph-name="circumflex" unicode="&#x2c6;" horiz-adv-x="489" 
d="M199 701h91q11 0 18 -10l109 -137q3 -4 1.5 -7t-6.5 -3h-95q-13 0 -23 10l-49 50h-2l-48 -50q-10 -10 -23 -10h-95q-5 0 -6.5 3t1.5 7l109 137q7 10 18 10z" />
    <glyph glyph-name="caron" unicode="&#x2c7;" horiz-adv-x="489" 
d="M317 698h95q5 0 6.5 -3t-1.5 -7l-109 -137q-7 -10 -18 -10h-91q-11 0 -18 10l-109 137q-3 4 -1.5 7t6.5 3h95q13 0 23 -10l48 -49h2l49 49q10 10 23 10z" />
    <glyph glyph-name="uni02C9" unicode="&#x2c9;" horiz-adv-x="489" 
d="M94 871h301q10 0 10 -10v-90q0 -10 -10 -10h-301q-10 0 -10 10v90q0 10 10 10z" />
    <glyph glyph-name="breve" unicode="&#x2d8;" horiz-adv-x="489" 
d="M328 690h65q12 0 12 -11q-2 -60 -47.5 -100.5t-113.5 -40.5t-113 40.5t-47 100.5q0 11 12 11h65q10 0 14 -11q18 -40 69 -40q52 0 70 40q4 11 14 11z" />
    <glyph glyph-name="dotaccent" unicode="&#x2d9;" horiz-adv-x="489" 
d="M175 680h138q10 0 10 -10v-110q0 -10 -10 -10h-138q-10 0 -10 10v110q0 10 10 10z" />
    <glyph glyph-name="ring" unicode="&#x2da;" horiz-adv-x="489" 
d="M244 746q50 0 82.5 -32.5t32.5 -81.5t-32.5 -81.5t-82.5 -32.5q-49 0 -81.5 32.5t-32.5 81.5t32.5 81.5t81.5 32.5zM244 677q-18 0 -30.5 -13t-12.5 -32t12.5 -32t30.5 -13q19 0 31.5 13t12.5 32t-12.5 32t-31.5 13z" />
    <glyph glyph-name="ogonek" unicode="&#x2db;" horiz-adv-x="489" 
d="M208 10h127q5 0 5 -4t-4 -6q-85 -39 -85 -66q0 -16 17 -16q10 0 24 8q9 4 13 -3l38 -71q5 -8 -4 -13q-45 -31 -99 -31q-51 0 -80.5 26.5t-29.5 70.5q0 56 53 95q14 10 25 10z" />
    <glyph glyph-name="tilde" unicode="&#x2dc;" horiz-adv-x="489" 
d="M174 697q38 0 84 -23q36 -18 60 -18q34 0 75 33q11 7 11 -4v-81q0 -13 -10 -22q-37 -37 -81 -37q-37 0 -83 23q-36 18 -60 18q-32 0 -76 -32q-4 -3 -7 -2t-3 5v81q0 13 9 22q37 37 81 37z" />
    <glyph glyph-name="hungarumlaut" unicode="&#x2dd;" horiz-adv-x="489" 
d="M138 700h114q4 0 6 -3t0 -7l-84 -137q-7 -10 -18 -10h-98q-11 0 -6 10l70 137q5 10 16 10zM322 700h114q4 0 6 -3t0 -7l-84 -137q-6 -10 -17 -10h-98q-11 0 -6 10l69 137q5 10 16 10z" />
    <glyph glyph-name="uni0326" unicode="&#x326;" horiz-adv-x="0" 
d="M185 -46h120q10 0 10 -10v-89q0 -14 -9 -20l-103 -75q-11 -8 -17 -8q-11 0 -11 13v179q0 10 10 10z" />
    <glyph glyph-name="uni0394" unicode="&#x394;" horiz-adv-x="674" 
d="M258 680h163q10 0 13 -10l230 -660q3 -10 -8 -10h-638q-11 0 -8 10l235 660q3 10 13 10zM337 473l-100 -318q-1 -6 5 -6h190q6 0 5 6l-97 318h-3z" />
    <glyph glyph-name="uni03A9" unicode="&#x3a9;" horiz-adv-x="639" 
d="M319 692q95 0 162 -43t95 -126q21 -59 21 -184q0 -155 -63 -202v-1h50q10 0 10 -10v-116q0 -10 -10 -10h-223q-10 0 -10 10v111q0 9 10 15q34 16 45.5 57.5t11.5 145.5q0 109 -10 136q-20 60 -89 60q-68 0 -88 -60q-10 -27 -10 -136q0 -104 11.5 -145.5t45.5 -57.5
q10 -6 10 -15v-111q0 -10 -10 -10h-223q-10 0 -10 10v116q0 10 10 10h49v1q-62 46 -62 202q0 125 21 184q29 83 95 126t161 43z" />
    <glyph glyph-name="uni03BC" unicode="&#x3bc;" horiz-adv-x="583" 
d="M355 487h146q10 0 10 -10v-335q0 -6 6 -6h34q10 0 10 -10v-116q0 -10 -10 -10h-196q-10 0 -10 10v37h-1q-12 -20 -34.5 -35.5t-46.5 -15.5q-20 0 -36 7h-1v-173q0 -10 -10 -10h-146q-10 0 -10 10v647q0 10 10 10h146q10 0 10 -10v-278q0 -70 60 -70q59 0 59 70v278
q0 10 10 10z" />
    <glyph glyph-name="pi" unicode="&#x3c0;" horiz-adv-x="601" 
d="M35 487h524q10 0 10 -10v-124q0 -10 -10 -10h-42q-6 0 -6 -6v-162q0 -23 7.5 -32t25.5 -9h5q10 0 10 -10v-120q0 -10 -10 -10h-39q-86 0 -125 39.5t-39 128.5v175q0 6 -6 6h-84q-6 0 -6 -6v-327q0 -10 -10 -10h-148q-10 0 -10 10v327q0 6 -6 6h-41q-10 0 -10 10v124
q0 10 10 10z" />
    <glyph glyph-name="Wgrave" unicode="&#x1e80;" horiz-adv-x="940" 
d="M270 889h142q10 0 18 -10l102 -122q3 -4 1.5 -7t-5.5 -3h-115q-11 0 -20 9l-128 123q-3 4 -1.5 7t6.5 3zM670 680h249q10 0 10 -10v-116q0 -10 -10 -10h-30q-4 0 -6 -5l-148 -529q-3 -10 -13 -10h-129q-11 0 -14 10l-108 381h-2l-108 -381q-3 -10 -14 -10h-128
q-11 0 -14 10l-148 529q-2 5 -7 5h-29q-10 0 -10 10v116q0 10 10 10h249q10 0 10 -10v-116q0 -10 -10 -10h-32q-7 0 -5 -7l62 -265h2l107 398q3 10 14 10h106q10 0 13 -10l111 -396h2l60 264q2 6 -5 6h-35q-10 0 -10 10v116q0 10 10 10z" />
    <glyph glyph-name="wgrave" unicode="&#x1e81;" horiz-adv-x="788" 
d="M220 702h139q11 0 17 -10l80 -136q5 -10 -5 -10h-116q-9 0 -17 10l-103 136q-3 4 -1.5 7t6.5 3zM551 487h214q10 0 10 -10v-116q0 -10 -10 -10h-31q-5 0 -6 -4l-115 -337q-3 -10 -12 -10h-121q-9 0 -12 10l-73 252h-2l-74 -252q-3 -10 -12 -10h-120q-9 0 -12 10l-116 337
q-1 4 -5 4h-31q-10 0 -10 10v116q0 10 10 10h217q10 0 10 -10v-116q0 -10 -10 -10h-25q-5 0 -3 -5l42 -139h2l75 270q3 10 14 10h99q11 0 14 -10l78 -270h2l40 139q2 5 -3 5h-24q-10 0 -10 10v116q0 10 10 10z" />
    <glyph glyph-name="Wacute" unicode="&#x1e82;" horiz-adv-x="940" 
d="M532 889h142q5 0 6.5 -3t-1.5 -7l-128 -123q-9 -9 -20 -9h-115q-4 0 -5.5 3t1.5 7l102 122q8 10 18 10zM670 680h249q10 0 10 -10v-116q0 -10 -10 -10h-30q-4 0 -6 -5l-148 -529q-3 -10 -13 -10h-129q-11 0 -14 10l-108 381h-2l-108 -381q-3 -10 -14 -10h-128
q-11 0 -14 10l-148 529q-2 5 -7 5h-29q-10 0 -10 10v116q0 10 10 10h249q10 0 10 -10v-116q0 -10 -10 -10h-32q-7 0 -5 -7l62 -265h2l107 398q3 10 14 10h106q10 0 13 -10l111 -396h2l60 264q2 6 -5 6h-35q-10 0 -10 10v116q0 10 10 10z" />
    <glyph glyph-name="wacute" unicode="&#x1e83;" horiz-adv-x="788" 
d="M429 702h139q5 0 6.5 -3t-1.5 -7l-103 -136q-8 -10 -17 -10h-116q-10 0 -5 10l80 136q6 10 17 10zM551 487h214q10 0 10 -10v-116q0 -10 -10 -10h-31q-5 0 -6 -4l-115 -337q-3 -10 -12 -10h-121q-9 0 -12 10l-73 252h-2l-74 -252q-3 -10 -12 -10h-120q-9 0 -12 10
l-116 337q-1 4 -5 4h-31q-10 0 -10 10v116q0 10 10 10h217q10 0 10 -10v-116q0 -10 -10 -10h-25q-5 0 -3 -5l42 -139h2l75 270q3 10 14 10h99q11 0 14 -10l78 -270h2l40 139q2 5 -3 5h-24q-10 0 -10 10v116q0 10 10 10z" />
    <glyph glyph-name="Wdieresis" unicode="&#x1e84;" horiz-adv-x="940" 
d="M312 880h107q10 0 10 -10v-110q0 -10 -10 -10h-107q-10 0 -10 10v110q0 10 10 10zM518 880h107q10 0 10 -10v-110q0 -10 -10 -10h-107q-10 0 -10 10v110q0 10 10 10zM670 680h249q10 0 10 -10v-116q0 -10 -10 -10h-30q-4 0 -6 -5l-148 -529q-3 -10 -13 -10h-129
q-11 0 -14 10l-108 381h-2l-108 -381q-3 -10 -14 -10h-128q-11 0 -14 10l-148 529q-2 5 -7 5h-29q-10 0 -10 10v116q0 10 10 10h249q10 0 10 -10v-116q0 -10 -10 -10h-32q-7 0 -5 -7l62 -265h2l107 398q3 10 14 10h106q10 0 13 -10l111 -396h2l60 264q2 6 -5 6h-35
q-10 0 -10 10v116q0 10 10 10z" />
    <glyph glyph-name="wdieresis" unicode="&#x1e85;" horiz-adv-x="788" 
d="M236 680h108q10 0 10 -10v-110q0 -10 -10 -10h-108q-10 0 -10 10v110q0 10 10 10zM441 680h108q10 0 10 -10v-110q0 -10 -10 -10h-108q-10 0 -10 10v110q0 10 10 10zM551 487h214q10 0 10 -10v-116q0 -10 -10 -10h-31q-5 0 -6 -4l-115 -337q-3 -10 -12 -10h-121
q-9 0 -12 10l-73 252h-2l-74 -252q-3 -10 -12 -10h-120q-9 0 -12 10l-116 337q-1 4 -5 4h-31q-10 0 -10 10v116q0 10 10 10h217q10 0 10 -10v-116q0 -10 -10 -10h-25q-5 0 -3 -5l42 -139h2l75 270q3 10 14 10h99q11 0 14 -10l78 -270h2l40 139q2 5 -3 5h-24q-10 0 -10 10
v116q0 10 10 10z" />
    <glyph glyph-name="uni1E9E" unicode="&#x1e9e;" horiz-adv-x="656" 
d="M337 690q118 0 233 -46q10 -4 10 -14v-110q0 -10 -6 -18l-65 -94q64 -22 95 -67.5t31 -122.5q0 -107 -58 -164.5t-173 -57.5q-50 0 -82 6q-10 2 -10 12l6 114q0 10 11 10q26 -2 39 -2q90 0 90 81q0 40 -23.5 58t-77.5 18h-18q-12 0 -12 10v105q0 8 6 18l71 101
q-27 12 -72 12q-89 0 -89 -91v-438q0 -10 -10 -10h-205q-10 0 -10 10v116q0 10 10 10h35q6 0 6 6v311q0 112 66 174.5t202 62.5z" />
    <glyph glyph-name="Ygrave" unicode="&#x1ef2;" horiz-adv-x="616" 
d="M119 889h142q10 0 18 -10l102 -122q3 -4 2 -7t-6 -3h-115q-11 0 -20 9l-128 123q-3 4 -1.5 7t6.5 3zM348 680h245q10 0 10 -10v-116q0 -10 -10 -10h-30q-5 0 -8 -5l-161 -276v-121q0 -6 6 -6h45q10 0 10 -10v-116q0 -10 -10 -10h-275q-10 0 -10 10v116q0 10 10 10h45
q6 0 6 6v121l-161 276q-3 5 -9 5h-28q-10 0 -10 10v116q0 10 10 10h248q10 0 10 -10v-114q0 -10 -10 -10h-33q-8 0 -4 -7l75 -134h3l76 135q3 6 -5 6h-35q-10 0 -10 10v114q0 10 10 10z" />
    <glyph glyph-name="ygrave" unicode="&#x1ef3;" horiz-adv-x="534" 
d="M107 702h139q11 0 17 -10l80 -136q5 -10 -5 -10h-116q-10 0 -17 10l-103 136q-3 4 -1.5 7t6.5 3zM303 487h211q10 0 10 -10v-116q0 -10 -10 -10h-33q-4 0 -5 -4l-164 -403q-29 -71 -67.5 -97.5t-109.5 -26.5h-37q-10 0 -10 10v118q0 10 10 10h26q25 0 39.5 9t23.5 32
l10 28l-137 320q-1 4 -6 4h-33q-10 0 -10 10v116q0 10 10 10h216q10 0 10 -10v-116q0 -10 -10 -10h-20q-5 0 -3 -5l58 -145h2l53 145q2 5 -3 5h-21q-10 0 -10 10v116q0 10 10 10z" />
    <glyph glyph-name="endash" unicode="&#x2013;" horiz-adv-x="551" 
d="M30 335h491q10 0 10 -10v-120q0 -10 -10 -10h-491q-10 0 -10 10v120q0 10 10 10z" />
    <glyph glyph-name="emdash" unicode="&#x2014;" horiz-adv-x="921" 
d="M30 335h861q10 0 10 -10v-120q0 -10 -10 -10h-861q-10 0 -10 10v120q0 10 10 10z" />
    <glyph glyph-name="quoteleft" unicode="&#x2018;" horiz-adv-x="239" 
d="M175 682q11 0 11 -12v-205q0 -10 -10 -10h-113q-10 0 -10 10v116q0 15 9 21l96 72q9 8 17 8z" />
    <glyph glyph-name="quoteright" unicode="&#x2019;" horiz-adv-x="239" 
d="M63 680h113q10 0 10 -10v-115q0 -16 -9 -22l-96 -72q-9 -8 -17 -8q-11 0 -11 12v205q0 10 10 10z" />
    <glyph glyph-name="quotesinglbase" unicode="&#x201a;" horiz-adv-x="239" 
d="M63 137h113q10 0 10 -10v-115q0 -14 -9 -22l-96 -72q-10 -7 -17 -7q-11 0 -11 11v205q0 10 10 10z" />
    <glyph glyph-name="quotedblleft" unicode="&#x201c;" horiz-adv-x="437" 
d="M175 682q11 0 11 -12v-205q0 -10 -10 -10h-113q-10 0 -10 10v116q0 15 9 21l96 72q9 8 17 8zM373 682q11 0 11 -12v-205q0 -10 -10 -10h-113q-10 0 -10 10v116q0 15 9 21l96 72q9 8 17 8z" />
    <glyph glyph-name="quotedblright" unicode="&#x201d;" horiz-adv-x="437" 
d="M63 680h113q10 0 10 -10v-115q0 -16 -9 -22l-96 -72q-9 -8 -17 -8q-11 0 -11 12v205q0 10 10 10zM261 680h113q10 0 10 -10v-115q0 -16 -9 -22l-96 -72q-9 -8 -17 -8q-11 0 -11 12v205q0 10 10 10z" />
    <glyph glyph-name="quotedblbase" unicode="&#x201e;" horiz-adv-x="437" 
d="M63 137h113q10 0 10 -10v-115q0 -14 -9 -22l-96 -72q-10 -7 -17 -7q-11 0 -11 11v205q0 10 10 10zM261 137h113q10 0 10 -10v-115q0 -14 -9 -22l-96 -72q-10 -7 -17 -7q-11 0 -11 11v205q0 10 10 10z" />
    <glyph glyph-name="dagger" unicode="&#x2020;" horiz-adv-x="566" 
d="M210 680h146q10 0 10 -10v-193q0 -6 6 -6h144q10 0 10 -10v-129q0 -10 -10 -10h-144q-6 0 -6 -6v-486q0 -10 -10 -10h-146q-10 0 -10 10v486q0 6 -6 6h-144q-10 0 -10 10v129q0 10 10 10h144q6 0 6 6v193q0 10 10 10z" />
    <glyph glyph-name="daggerdbl" unicode="&#x2021;" horiz-adv-x="566" 
d="M210 680h146q10 0 10 -10v-157q0 -6 6 -6h144q10 0 10 -10v-129q0 -10 -10 -10h-144q-6 0 -6 -6v-204q0 -6 6 -6h144q10 0 10 -10v-129q0 -10 -10 -10h-144q-6 0 -6 -6v-157q0 -10 -10 -10h-146q-10 0 -10 10v157q0 6 -6 6h-144q-10 0 -10 10v129q0 10 10 10h144q6 0 6 6
v204q0 6 -6 6h-144q-10 0 -10 10v129q0 10 10 10h144q6 0 6 6v157q0 10 10 10z" />
    <glyph glyph-name="bullet" unicode="&#x2022;" horiz-adv-x="491" 
d="M246 470q70 0 115.5 -45.5t45.5 -115.5t-45.5 -116t-115.5 -46t-116 45.5t-46 116.5q0 70 46 115.5t116 45.5z" />
    <glyph glyph-name="ellipsis" unicode="&#x2026;" horiz-adv-x="789" 
d="M62 158h139q10 0 10 -10v-138q0 -10 -10 -10h-139q-10 0 -10 10v138q0 10 10 10zM325 158h139q10 0 10 -10v-138q0 -10 -10 -10h-139q-10 0 -10 10v138q0 10 10 10zM588 158h139q10 0 10 -10v-138q0 -10 -10 -10h-139q-10 0 -10 10v138q0 10 10 10z" />
    <glyph glyph-name="perthousand" unicode="&#x2030;" horiz-adv-x="1186" 
d="M578 692h101q11 0 5 -10l-395 -684q-6 -10 -16 -10h-102q-10 0 -4 10l395 684q6 10 16 10zM206 688q51 0 86 -22.5t49 -62.5q11 -30 11 -94t-11 -94q-14 -40 -49 -62.5t-86 -22.5t-86 22.5t-49 62.5q-11 30 -11 94t11 94q14 40 49 62.5t86 22.5zM206 603q-22 0 -28 -19
q-3 -10 -3 -75t3 -75q6 -19 28 -19t28 19q3 10 3 75t-3 75q-6 19 -28 19zM644 350q51 0 86 -22.5t49 -62.5q11 -30 11 -94t-11 -94q-14 -40 -49 -62.5t-86 -22.5t-86 22.5t-49 62.5q-11 30 -11 94t11 94q14 40 49 62.5t86 22.5zM980 350q52 0 87.5 -22.5t48.5 -62.5
q10 -32 10 -94t-10 -94q-13 -40 -48.5 -62.5t-87.5 -22.5q-51 0 -86.5 22.5t-48.5 62.5q-10 32 -10 94t10 94q13 40 48.5 62.5t86.5 22.5zM644 264q-22 0 -28 -18q-3 -12 -3 -75q0 -65 3 -75q6 -19 28 -19t28 19q3 11 3 75q0 63 -3 75q-6 18 -28 18zM980 264q-21 0 -27 -18
q-4 -11 -4 -75q0 -66 4 -75q6 -19 27 -19q22 0 28 19q4 9 4 75q0 64 -4 75q-6 18 -28 18z" />
    <glyph glyph-name="guilsinglleft" unicode="&#x2039;" horiz-adv-x="325" 
d="M22 271l236 234q3 3 6.5 1.5t3.5 -5.5v-138q0 -10 -10 -19l-76 -76q-4 -4 0 -8l76 -76q10 -9 10 -19v-138q0 -4 -3.5 -5.5t-6.5 1.5l-236 234q-7 7 0 14z" />
    <glyph glyph-name="guilsinglright" unicode="&#x203a;" horiz-adv-x="325" 
d="M67 505l236 -234q7 -7 0 -14l-236 -234q-3 -3 -6.5 -1.5t-3.5 5.5v138q0 9 10 19l77 76q4 4 0 8l-77 76q-10 10 -10 19v138q0 4 3.5 5.5t6.5 -1.5z" />
    <glyph glyph-name="fraction" unicode="&#x2044;" horiz-adv-x="173" 
d="M239 692h101q11 0 5 -10l-395 -684q-6 -10 -16 -10h-101q-11 0 -5 10l395 684q6 10 16 10z" />
    <glyph glyph-name="zero.superior" unicode="&#x2070;" horiz-adv-x="366" 
d="M183 843q117 0 148 -94q10 -30 10 -116t-10 -116q-31 -94 -148 -94t-148 94q-10 30 -10 116t10 116q31 94 148 94zM183 747q-24 0 -30 -21q-3 -10 -3 -93t3 -93q6 -21 30 -21t30 21q3 10 3 93t-3 93q-6 21 -30 21z" />
    <glyph glyph-name="four.superior" unicode="&#x2074;" horiz-adv-x="366" 
d="M147 836h107q11 0 7 -10l-111 -241v-2h47q6 0 6 6v57q0 10 10 10h93q10 0 10 -10v-57q0 -6 5 -6h14q10 0 10 -10v-81q0 -10 -10 -10h-13q-6 0 -6 -6v-36q0 -10 -10 -10h-93q-10 0 -10 10v36q0 6 -6 6h-166q-10 0 -10 10v85q0 10 4 18l107 231q4 10 15 10z" />
    <glyph glyph-name="five.superior" unicode="&#x2075;" horiz-adv-x="366" 
d="M51 836h258q10 0 10 -10v-79q0 -10 -10 -10h-155q-6 0 -6 -7v-47h1q23 16 62 16q91 0 115 -72q8 -21 8 -60q0 -36 -7 -57q-29 -87 -152 -87q-83 0 -126 28q-8 5 -8 14v78q0 10 10 10h87q10 0 10 -10v-14q0 -5 5 -8q7 -3 24 -3q28 0 35 21q3 11 3 23q0 14 -3 23
q-6 19 -31 19q-17 0 -27 -10q-6 -6 -13 -6h-90q-10 0 -10 10v228q0 10 10 10z" />
    <glyph glyph-name="six.superior" unicode="&#x2076;" horiz-adv-x="366" 
d="M165 836h112q11 0 5 -10l-77 -137l1 -1q5 1 9 1q56 0 91.5 -35.5t35.5 -94.5q0 -61 -44 -98.5t-115 -37.5q-70 0 -114.5 37.5t-44.5 98.5q0 51 38 116l87 151q7 10 16 10zM183 595q-18 0 -29 -10.5t-11 -27.5t11 -28t29 -11t29 11t11 28t-11 27.5t-29 10.5z" />
    <glyph glyph-name="seven.superior" unicode="&#x2077;" horiz-adv-x="366" 
d="M44 836h282q10 0 10 -10v-88q0 -8 -3 -15l-121 -283q-3 -10 -13 -10h-108q-9 0 -6 12l126 293v2h-60q-6 0 -6 -6v-36q0 -10 -10 -10h-91q-10 0 -10 10v131q0 10 10 10z" />
    <glyph glyph-name="eight.superior" unicode="&#x2078;" horiz-adv-x="366" 
d="M183 843q70 0 110.5 -36.5t40.5 -88.5q0 -42 -36 -76v-1q44 -35 44 -89q0 -59 -45 -94t-114 -35t-114 35t-45 94q0 54 44 89v1q-36 34 -36 76q0 52 40.5 88.5t110.5 36.5zM183 748q-15 0 -24.5 -9.5t-9.5 -23.5t9.5 -23.5t24.5 -9.5t24.5 9.5t9.5 23.5t-9.5 23.5
t-24.5 9.5zM183 596q-17 0 -29 -11.5t-12 -27.5t12 -27.5t29 -11.5t29 11.5t12 27.5t-12 27.5t-29 11.5z" />
    <glyph glyph-name="nine.superior" unicode="&#x2079;" horiz-adv-x="366" 
d="M183 843q70 0 114.5 -37.5t44.5 -98.5q0 -51 -38 -116l-87 -151q-7 -10 -16 -10h-112q-11 0 -5 10l78 137l-1 1q-5 -1 -10 -1q-56 0 -91.5 35.5t-35.5 94.5q0 61 44 98.5t115 37.5zM183 748q-18 0 -29 -11t-11 -28t11 -27.5t29 -10.5t29 10.5t11 27.5t-11 28t-29 11z" />
    <glyph glyph-name="plussuperior" unicode="&#x207a;" horiz-adv-x="366" 
d="M143 765h80q10 0 10 -10v-79q0 -6 6 -6h77q10 0 10 -10v-78q0 -10 -10 -10h-77q-6 0 -6 -6v-79q0 -10 -10 -10h-80q-10 0 -10 10v79q0 6 -6 6h-77q-10 0 -10 10v78q0 10 10 10h77q6 0 6 6v79q0 10 10 10z" />
    <glyph glyph-name="uni207B" unicode="&#x207b;" horiz-adv-x="366" 
d="M50 670h266q10 0 10 -10v-78q0 -10 -10 -10h-266q-10 0 -10 10v78q0 10 10 10z" />
    <glyph glyph-name="equalsuperior" unicode="&#x207c;" horiz-adv-x="366" 
d="M50 740h266q10 0 10 -10v-78q0 -10 -10 -10h-266q-10 0 -10 10v78q0 10 10 10zM50 601h266q10 0 10 -10v-77q0 -10 -10 -10h-266q-10 0 -10 10v77q0 10 10 10z" />
    <glyph glyph-name="parenleftsuperior" unicode="&#x207d;" horiz-adv-x="251" 
d="M143 860h72q12 0 7 -10q-50 -115 -50 -217t50 -217q5 -10 -7 -10h-72q-7 0 -14 9q-71 97 -71 218t71 218q7 9 14 9z" />
    <glyph glyph-name="parenrightsuperior" unicode="&#x207e;" horiz-adv-x="251" 
d="M36 860h72q7 0 14 -9q71 -97 71 -218t-71 -218q-7 -9 -14 -9h-72q-12 0 -7 10q50 115 50 217t-50 217q-5 10 7 10z" />
    <glyph glyph-name="zero.inferior" unicode="&#x2080;" horiz-adv-x="366" 
d="M183 257q117 0 148 -94q10 -30 10 -116t-10 -116q-31 -94 -148 -94t-148 94q-10 30 -10 116t10 116q31 94 148 94zM183 161q-24 0 -30 -21q-3 -10 -3 -93t3 -93q6 -21 30 -21t30 21q3 11 3 93q0 83 -3 93q-6 21 -30 21z" />
    <glyph glyph-name="one.inferior" unicode="&#x2081;" horiz-adv-x="366" 
d="M150 250h101q10 0 10 -10v-287q0 -6 6 -6h61q10 0 10 -10v-83q0 -10 -10 -10h-256q-10 0 -10 10v83q0 10 10 10h61q6 0 6 6v171h-2l-66 -38q-4 -2 -7 0t-3 7v96q0 10 9 15l63 40q9 6 17 6z" />
    <glyph glyph-name="two.inferior" unicode="&#x2082;" horiz-adv-x="366" 
d="M183 257q70 0 109.5 -32.5t39.5 -93.5q0 -55 -55 -107l-84 -78v-1h129q10 0 10 -10v-81q0 -10 -10 -10h-278q-10 0 -10 10v76q0 10 9 19l146 137q24 22 24 44q0 32 -34 32q-15 0 -27 -6q-4 -3 -4 -8v-28q0 -10 -10 -10h-87q-10 0 -10 10v86q0 10 8 15q61 36 134 36z" />
    <glyph glyph-name="three.inferior" unicode="&#x2083;" horiz-adv-x="366" 
d="M183 257q69 0 107.5 -30.5t38.5 -83.5q0 -51 -46 -82v-2q53 -24 53 -93q0 -61 -41.5 -95t-117.5 -34q-81 0 -132 31q-7 6 -7 15v81q0 10 10 10h85q11 0 11 -10v-20q0 -4 4 -7q9 -5 28 -5q40 0 40 36q0 35 -43 35h-13q-10 0 -10 10v74q0 10 10 10h13q36 0 36 33
q0 32 -34 32q-14 0 -26 -5q-5 -3 -5 -9v-20q0 -10 -10 -10h-86q-10 0 -10 10v79q0 10 7 14q59 36 138 36z" />
    <glyph glyph-name="four.inferior" unicode="&#x2084;" horiz-adv-x="366" 
d="M147 250h107q11 0 7 -10l-111 -241v-2h47q6 0 6 6v57q0 10 10 10h93q10 0 10 -10v-57q0 -6 5 -6h14q10 0 10 -10v-81q0 -10 -10 -10h-13q-6 0 -6 -6v-36q0 -10 -10 -10h-93q-10 0 -10 10v36q0 6 -6 6h-166q-10 0 -10 10v85q0 10 4 18l107 231q4 10 15 10z" />
    <glyph glyph-name="five.inferior" unicode="&#x2085;" horiz-adv-x="366" 
d="M51 250h258q10 0 10 -10v-79q0 -10 -10 -10h-155q-6 0 -6 -7v-47h1q23 16 62 16q91 0 115 -72q8 -21 8 -60q0 -36 -7 -57q-29 -87 -152 -87q-83 0 -126 28q-8 5 -8 14v78q0 10 10 10h87q10 0 10 -10v-14q0 -5 5 -8q7 -3 24 -3q28 0 35 21q3 10 3 23q0 14 -3 23
q-6 19 -31 19q-17 0 -27 -10q-6 -6 -13 -6h-90q-10 0 -10 10v228q0 10 10 10z" />
    <glyph glyph-name="six.inferior" unicode="&#x2086;" horiz-adv-x="366" 
d="M165 250h112q11 0 5 -10l-77 -137l1 -1q5 1 9 1q56 0 91.5 -35.5t35.5 -94.5q0 -61 -44 -98.5t-115 -37.5q-70 0 -114.5 37.5t-44.5 98.5q0 51 38 116l87 151q7 10 16 10zM183 9q-18 0 -29 -10.5t-11 -27.5t11 -28t29 -11t29 11t11 28t-11 27.5t-29 10.5z" />
    <glyph glyph-name="seven.inferior" unicode="&#x2087;" horiz-adv-x="366" 
d="M44 250h282q10 0 10 -10v-88q0 -8 -3 -15l-121 -283q-3 -10 -13 -10h-108q-9 0 -6 12l126 293v2h-60q-6 0 -6 -6v-36q0 -10 -10 -10h-91q-10 0 -10 10v131q0 10 10 10z" />
    <glyph glyph-name="eight.inferior" unicode="&#x2088;" horiz-adv-x="366" 
d="M183 257q70 0 110.5 -36.5t40.5 -88.5q0 -42 -36 -76v-1q44 -35 44 -89q0 -59 -45 -94t-114 -35t-114 35t-45 94q0 54 44 89v1q-36 34 -36 76q0 52 40.5 88.5t110.5 36.5zM183 162q-15 0 -24.5 -9.5t-9.5 -23.5t9.5 -23.5t24.5 -9.5t24.5 9.5t9.5 23.5t-9.5 23.5
t-24.5 9.5zM183 10q-17 0 -29 -11.5t-12 -27.5t12 -27.5t29 -11.5t29 11.5t12 27.5t-12 27.5t-29 11.5z" />
    <glyph glyph-name="nine.inferior" unicode="&#x2089;" horiz-adv-x="366" 
d="M183 257q70 0 114.5 -37.5t44.5 -98.5q0 -51 -38 -116l-87 -151q-7 -10 -16 -10h-112q-11 0 -5 10l78 137l-1 1q-5 -1 -10 -1q-56 0 -91.5 35.5t-35.5 94.5q0 61 44 98.5t115 37.5zM183 162q-18 0 -29 -11t-11 -28t11 -27.5t29 -10.5t29 10.5t11 27.5t-11 28t-29 11z" />
    <glyph glyph-name="uni208A" unicode="&#x208a;" horiz-adv-x="366" 
d="M143 179h80q10 0 10 -10v-79q0 -6 6 -6h77q10 0 10 -10v-78q0 -10 -10 -10h-77q-6 0 -6 -6v-79q0 -10 -10 -10h-80q-10 0 -10 10v79q0 6 -6 6h-77q-10 0 -10 10v78q0 10 10 10h77q6 0 6 6v79q0 10 10 10z" />
    <glyph glyph-name="uni208B" unicode="&#x208b;" horiz-adv-x="366" 
d="M50 84h266q10 0 10 -10v-78q0 -10 -10 -10h-266q-10 0 -10 10v78q0 10 10 10z" />
    <glyph glyph-name="uni208C" unicode="&#x208c;" horiz-adv-x="366" 
d="M50 154h266q10 0 10 -10v-78q0 -10 -10 -10h-266q-10 0 -10 10v78q0 10 10 10zM50 15h266q10 0 10 -10v-77q0 -10 -10 -10h-266q-10 0 -10 10v77q0 10 10 10z" />
    <glyph glyph-name="uni208D" unicode="&#x208d;" horiz-adv-x="251" 
d="M143 274h72q12 0 7 -10q-50 -115 -50 -217t50 -217q5 -10 -7 -10h-72q-7 0 -14 9q-71 97 -71 218t71 218q7 9 14 9z" />
    <glyph glyph-name="uni208E" unicode="&#x208e;" horiz-adv-x="251" 
d="M36 274h72q7 0 14 -9q71 -97 71 -218t-71 -218q-7 -9 -14 -9h-72q-12 0 -7 10q50 115 50 217t-50 217q-5 10 7 10z" />
    <glyph glyph-name="Euro" unicode="&#x20ac;" 
d="M325 692q118 0 190 -52q8 -5 8 -14v-117q0 -10 -10 -10h-120q-10 0 -10 10v29q0 6 -6 8q-16 8 -46 8q-52 0 -67 -43q-6 -17 -6 -62q0 -6 6 -6h152q11 0 9 -10l-10 -61q-2 -10 -10 -10h-141q-6 0 -6 -6v-29q0 -6 6 -6h132q11 0 9 -10l-10 -61q-2 -10 -10 -10h-121
q-6 0 -6 -6q0 -46 7 -65q15 -43 67 -43q32 0 45 6q6 2 6 9v30q0 10 10 10h120q10 0 10 -10v-120q0 -9 -8 -14q-68 -49 -193 -49q-174 0 -219 141q-14 42 -14 105q0 6 -6 6h-38q-10 0 -10 10v61q0 10 10 10h38q6 0 6 6v29q0 6 -6 6h-38q-10 0 -10 10v61q0 10 10 10h38
q6 0 6 6q0 55 14 99q46 144 222 144z" />
    <glyph glyph-name="uni20B9" unicode="&#x20b9;" 
d="M81 680h417q10 0 10 -10v-61q0 -10 -10 -10h-114q16 -23 22 -41h92q10 0 10 -10v-61q0 -10 -10 -10h-79q-2 -80 -45.5 -129t-109.5 -64l122 -144q4 -4 9 -4h67q10 0 10 -10v-116q0 -10 -10 -10h-146q-14 0 -22 9l-217 255q-6 6 -6 16v108q0 10 10 10h43q106 0 120 79
h-163q-10 0 -10 10v61q0 10 10 10h150q-27 41 -107 41h-43q-10 0 -10 10v61q0 10 10 10z" />
    <glyph glyph-name="uni20BA" unicode="&#x20ba;" 
d="M101 680h152q10 0 10 -10v-119l140 63q10 5 10 -6v-70q0 -9 -10 -14l-140 -64v-44l140 63q10 5 10 -6v-69q0 -9 -10 -14l-140 -63v-174q0 -6 6 -6q54 0 89.5 49.5t36.5 129.5q0 10 10 10h126q10 0 10 -10q0 -153 -76.5 -239.5t-237.5 -86.5h-179q-10 0 -10 10v116
q0 10 10 10h37q6 0 6 6v107l-44 -19q-4 -2 -7 0t-3 6v70q0 8 10 14l44 19v45l-44 -19q-4 -2 -7 -0.5t-3 6.5v69q0 10 10 14l44 19v197q0 10 10 10z" />
    <glyph glyph-name="uni2113" unicode="&#x2113;" horiz-adv-x="474" 
d="M292 692q67 0 107.5 -41.5t40.5 -114.5q0 -144 -173 -296v-80q0 -45 37 -45q21 0 52 21q8 6 14 -2l50 -73q6 -8 -2 -14q-64 -59 -145 -59q-73 0 -111.5 41.5t-39.5 121.5l-27 -20q-8 -5 -14 2l-50 73q-5 9 2 14l89 66v176q0 109 42.5 169.5t127.5 60.5zM297 582
q-16 0 -23 -18.5t-7 -72.5v-93q57 70 57 140q0 44 -27 44z" />
    <glyph glyph-name="published" unicode="&#x2117;" horiz-adv-x="794" 
d="M397 692q151 0 251.5 -101t100.5 -252t-100.5 -251.5t-251.5 -100.5t-251.5 100.5t-100.5 251.5q0 152 100.5 252.5t251.5 100.5zM397 608q-117 0 -191.5 -76t-74.5 -193t74.5 -192.5t191.5 -75.5q116 0 191 76t75 192q0 117 -75 193t-191 76zM261 531h185
q70 0 107.5 -34t37.5 -90q0 -57 -38 -91.5t-107 -34.5h-47q-6 0 -6 -6v-37q0 -6 6 -6h19q10 0 10 -10v-65q0 -10 -10 -10h-157q-10 0 -10 10v65q0 10 10 10h18q6 0 6 6v203q0 6 -6 6h-18q-10 0 -10 10v64q0 10 10 10zM436 445h-37q-6 0 -6 -6v-66q0 -6 6 -6h37q47 0 47 40
q0 38 -47 38z" />
    <glyph glyph-name="trademark" unicode="&#x2122;" horiz-adv-x="886" 
d="M36 680h335q10 0 10 -10v-106q0 -10 -10 -10h-73q-10 0 -10 10v18q0 6 -6 6h-20q-6 0 -6 -6v-204q0 -6 6 -6h16q10 0 10 -10v-66q0 -10 -10 -10h-149q-10 0 -10 10v66q0 10 10 10h16q6 0 6 6v204q0 6 -6 6h-20q-6 0 -6 -6v-18q0 -10 -10 -10h-73q-10 0 -10 10v106
q0 10 10 10zM741 680h107q10 0 10 -10v-69q0 -10 -10 -10h-14q-6 0 -6 -6v-207q0 -6 6 -6h14q10 0 10 -10v-66q0 -10 -10 -10h-131q-10 0 -10 10v66q0 10 10 10h9q6 0 6 6v104h-3l-58 -132q-5 -10 -13 -10h-47q-8 0 -13 10l-58 132h-3v-104q0 -6 6 -6h9q10 0 10 -10v-66
q0 -10 -10 -10h-131q-10 0 -10 10v66q0 10 10 10h14q6 0 6 6v207q0 6 -6 6h-14q-10 0 -10 10v69q0 10 10 10h109q10 0 14 -10l90 -199h4l88 199q4 10 15 10z" />
    <glyph glyph-name="Omega" unicode="&#x2126;" horiz-adv-x="639" 
d="M319 692q95 0 162 -43t95 -126q21 -59 21 -184q0 -155 -63 -202v-1h50q10 0 10 -10v-116q0 -10 -10 -10h-223q-10 0 -10 10v111q0 9 10 15q34 16 45.5 57.5t11.5 145.5q0 109 -10 136q-20 60 -89 60q-68 0 -88 -60q-10 -27 -10 -136q0 -104 11.5 -145.5t45.5 -57.5
q10 -6 10 -15v-111q0 -10 -10 -10h-223q-10 0 -10 10v116q0 10 10 10h49v1q-62 46 -62 202q0 125 21 184q29 83 95 126t161 43z" />
    <glyph glyph-name="estimated" unicode="&#x212e;" horiz-adv-x="830" 
d="M415 671q156 0 267 -99.5t111 -247.5h-608q-10 0 -10 -11v-197q47 -51 110 -78.5t130 -27.5q73 0 139 32.5t113 88.5h57q-56 -68 -138 -105t-171 -37q-100 0 -186 42.5t-139.5 121.5t-53.5 177q0 145 110.5 243t268.5 98zM415 650q-70 0 -133 -28.5t-107 -78.5v-185
q0 -11 10 -11h461q9 0 9 11v184q-44 51 -108 79.5t-132 28.5z" />
    <glyph glyph-name="partialdiff" unicode="&#x2202;" horiz-adv-x="552" 
d="M254 692q124 0 194.5 -87.5t70.5 -247.5q0 -167 -69.5 -268t-200.5 -101q-98 0 -157 59.5t-59 151.5q0 95 58 157t154 62q68 0 113 -36h2q-2 80 -32.5 125t-86.5 45q-47 0 -96 -37q-7 -6 -14 3l-60 89q-5 8 2 15q31 30 80.5 50t100.5 20zM267 286q-36 0 -57 -22.5
t-21 -63.5q0 -33 18.5 -53.5t51.5 -20.5q75 0 94 131q-44 29 -86 29z" />
    <glyph glyph-name="Delta" unicode="&#x2206;" horiz-adv-x="674" 
d="M258 680h163q10 0 13 -10l230 -660q3 -10 -8 -10h-638q-11 0 -8 10l235 660q3 10 13 10zM337 473l-100 -318q-1 -6 5 -6h190q6 0 5 6l-97 318h-3z" />
    <glyph glyph-name="product" unicode="&#x220f;" horiz-adv-x="671" 
d="M24 740h623q10 0 10 -10v-116q0 -10 -10 -10h-39q-6 0 -6 -6v-768q0 -10 -10 -10h-154q-10 0 -10 10v762q0 6 -6 6h-173q-6 0 -6 -6v-762q0 -10 -10 -10h-154q-10 0 -10 10v768q0 6 -6 6h-39q-10 0 -10 10v116q0 10 10 10z" />
    <glyph glyph-name="summation" unicode="&#x2211;" horiz-adv-x="557" 
d="M38 740h475q10 0 10 -10v-187q0 -10 -10 -10h-125q-10 0 -10 10v40q0 6 -6 6h-150l161 -256q3 -7 0 -14l-175 -348h174q6 0 6 6v41q0 10 10 10h125q10 0 10 -10v-188q0 -10 -10 -10h-489q-10 0 -10 10v133q0 5 2 9l173 343l-168 270q-3 6 -3 11v134q0 10 10 10z" />
    <glyph glyph-name="minus" unicode="&#x2212;" 
d="M57 346h448q10 0 10 -10v-120q0 -10 -10 -10h-448q-10 0 -10 10v120q0 10 10 10z" />
    <glyph glyph-name="uni2215" unicode="&#x2215;" horiz-adv-x="173" 
d="M239 692h101q11 0 5 -10l-395 -684q-6 -10 -16 -10h-101q-11 0 -5 10l395 684q6 10 16 10z" />
    <glyph glyph-name="uni2219" unicode="&#x2219;" horiz-adv-x="263" 
d="M62 344h139q10 0 10 -10v-138q0 -10 -10 -10h-139q-10 0 -10 10v138q0 10 10 10z" />
    <glyph glyph-name="radical" unicode="&#x221a;" horiz-adv-x="658" 
d="M509 740h133q11 0 8 -10l-249 -900q-3 -10 -14 -10h-115q-9 0 -13 10l-115 235q-3 6 -9 3l-58 -29q-9 -5 -13 4l-43 86q-5 9 4 13l176 86q10 5 14 -4l94 -198h3l185 704q3 10 12 10z" />
    <glyph glyph-name="infinity" unicode="&#x221e;" horiz-adv-x="742" 
d="M544 418q74 0 122.5 -47.5t48.5 -124.5q0 -75 -48 -123t-122 -48q-87 0 -174 87q-88 -87 -175 -87q-73 0 -121 47.5t-48 123.5t48.5 124t122.5 48q83 0 173 -90q48 48 88 69t85 21zM202 309q-29 0 -45 -17t-16 -44q0 -28 16.5 -46t44.5 -18q35 0 94 62q-57 63 -94 63z
M540 309q-37 0 -94 -63q32 -35 52.5 -48.5t41.5 -13.5q28 0 44 18.5t16 45.5t-16 44t-44 17z" />
    <glyph glyph-name="integral" unicode="&#x222b;" horiz-adv-x="411" 
d="M310 740q35 0 55 -4q10 -2 10 -11v-115q0 -11 -10 -11q-15 3 -30 3q-24 0 -34.5 -14t-10.5 -48v-510q0 -112 -45.5 -161t-143.5 -49q-35 0 -55 4q-10 2 -10 11v115q0 11 10 11q15 -3 31 -3q24 0 34.5 14t10.5 48v510q0 112 45 161t143 49z" />
    <glyph glyph-name="approxequal" unicode="&#x2248;" 
d="M192 477q51 0 102 -33q41 -25 64 -25q34 0 62 46q5 9 14 4l82 -52q8 -5 3 -14q-22 -49 -61.5 -80t-87.5 -31q-49 0 -102 32q-39 25 -63 25q-36 0 -63 -46q-6 -10 -14 -3l-81 51q-7 4 -4 14q23 50 62.5 81t86.5 31zM192 258q49 0 102 -32q41 -25 64 -25q35 0 62 46
q6 10 14 3l82 -51q8 -5 3 -14q-22 -50 -62 -81t-87 -31q-51 0 -102 33q-39 25 -63 25q-36 0 -63 -46q-5 -9 -14 -4l-81 52q-7 4 -4 14q23 50 62.5 80.5t86.5 30.5z" />
    <glyph glyph-name="notequal" unicode="&#x2260;" 
d="M378 561h88q4 0 6 -3t0 -7l-48 -95h81q10 0 10 -10v-120q0 -10 -10 -10h-150l-40 -80h190q10 0 10 -10v-120q0 -10 -10 -10h-259l-47 -95q-5 -10 -15 -10h-88q-11 0 -5 10l47 95h-81q-10 0 -10 10v120q0 10 10 10h150l40 80h-190q-10 0 -10 10v120q0 10 10 10h259l48 95
q5 10 14 10z" />
    <glyph glyph-name="lessequal" unicode="&#x2264;" 
d="M57 468l448 167q10 3 10 -6v-129q0 -9 -10 -13l-243 -83v-2l243 -83q10 -4 10 -13v-129q0 -9 -10 -6l-448 167q-10 3 -10 14v102q0 11 10 14zM57 140h448q10 0 10 -10v-120q0 -10 -10 -10h-448q-10 0 -10 10v120q0 10 10 10z" />
    <glyph glyph-name="greaterequal" unicode="&#x2265;" 
d="M57 635l448 -167q10 -3 10 -14v-102q0 -11 -10 -14l-448 -167q-10 -3 -10 6v129q0 9 10 13l244 83v2l-244 83q-10 4 -10 13v129q0 9 10 6zM57 140h448q10 0 10 -10v-120q0 -10 -10 -10h-448q-10 0 -10 10v120q0 10 10 10z" />
    <glyph glyph-name="lozenge" unicode="&#x25ca;" horiz-adv-x="557" 
d="M221 710h116q10 0 14 -10l174 -364q3 -7 0 -14l-174 -364q-4 -10 -14 -10h-116q-11 0 -15 10l-174 364q-3 7 0 14l174 364q4 10 15 10zM277 553l-96 -224l99 -224h2l94 224l-97 224h-2z" />
    <glyph glyph-name="uniF8FF" unicode="&#xf8ff;" horiz-adv-x="530" 
d="M10 680h510q10 0 10 -10v-660q0 -10 -10 -10h-510q-10 0 -10 10v660q0 10 10 10zM445 605h-360q-6 0 -6 -6v-518q0 -6 6 -6h360q6 0 6 6v518q0 6 -6 6zM263 563q64 0 101 -33t37 -85q0 -29 -8.5 -48t-31.5 -47l-39 -46q-12 -15 -12 -35v-10q0 -10 -10 -10h-81
q-10 0 -10 10v24q0 31 20 54l39 46q28 35 28 54q0 35 -38 35q-15 0 -27 -6q-4 -3 -4 -8v-27q0 -10 -10 -10h-73q-10 0 -10 10v82q0 9 8 14q55 36 121 36zM218 208h83q10 0 10 -10v-75q0 -10 -10 -10h-83q-10 0 -10 10v75q0 10 10 10z" />
    <glyph glyph-name="Z.alt01" horiz-adv-x="550" 
d="M43 680h473q10 0 10 -10v-127q0 -5 -3 -10l-101 -127h60q10 0 10 -10v-102q0 -10 -10 -10h-158l-113 -142v-2h157q6 0 6 6v43q0 10 10 10h132q10 0 10 -10v-179q0 -10 -10 -10h-484q-10 0 -10 10v127q0 5 3 10l109 137h-62q-10 0 -10 10v102q0 10 10 10h160l105 132v2
h-148q-6 0 -6 -6v-39q0 -10 -10 -10h-130q-10 0 -10 10v175q0 10 10 10z" />
    <glyph glyph-name="Zacute.alt01" horiz-adv-x="550" 
d="M310 889h142q5 0 6.5 -3t-1.5 -7l-128 -123q-9 -9 -20 -9h-115q-4 0 -5.5 3t1.5 7l102 122q8 10 18 10zM43 680h473q10 0 10 -10v-127q0 -5 -3 -10l-101 -127h60q10 0 10 -10v-102q0 -10 -10 -10h-158l-113 -142v-2h157q6 0 6 6v43q0 10 10 10h132q10 0 10 -10v-179
q0 -10 -10 -10h-484q-10 0 -10 10v127q0 5 3 10l109 137h-62q-10 0 -10 10v102q0 10 10 10h160l105 132v2h-148q-6 0 -6 -6v-39q0 -10 -10 -10h-130q-10 0 -10 10v175q0 10 10 10z" />
    <glyph glyph-name="Zcaron.alt01" horiz-adv-x="550" 
d="M347 892h95q5 0 6.5 -3t-1.5 -7l-108 -136q-7 -10 -19 -10h-90q-12 0 -19 10l-108 136q-3 4 -2 7t6 3h95q13 0 23 -10l49 -49h2l48 49q10 10 23 10zM43 680h473q10 0 10 -10v-127q0 -5 -3 -10l-101 -127h60q10 0 10 -10v-102q0 -10 -10 -10h-158l-113 -142v-2h157
q6 0 6 6v43q0 10 10 10h132q10 0 10 -10v-179q0 -10 -10 -10h-484q-10 0 -10 10v127q0 5 3 10l109 137h-62q-10 0 -10 10v102q0 10 10 10h160l105 132v2h-148q-6 0 -6 -6v-39q0 -10 -10 -10h-130q-10 0 -10 10v175q0 10 10 10z" />
    <glyph glyph-name="Zdotaccent.alt01" horiz-adv-x="550" 
d="M205 880h138q10 0 10 -10v-110q0 -10 -10 -10h-138q-10 0 -10 10v110q0 10 10 10zM43 680h473q10 0 10 -10v-127q0 -5 -3 -10l-101 -127h60q10 0 10 -10v-102q0 -10 -10 -10h-158l-113 -142v-2h157q6 0 6 6v43q0 10 10 10h132q10 0 10 -10v-179q0 -10 -10 -10h-484
q-10 0 -10 10v127q0 5 3 10l109 137h-62q-10 0 -10 10v102q0 10 10 10h160l105 132v2h-148q-6 0 -6 -6v-39q0 -10 -10 -10h-130q-10 0 -10 10v175q0 10 10 10z" />
    <glyph glyph-name="a.alt01" horiz-adv-x="568" 
d="M206 497q89 0 124 -56h1v36q0 10 10 10h195q10 0 10 -10v-116q0 -10 -10 -10h-33q-6 0 -6 -5v-204q0 -6 6 -6h33q10 0 10 -10v-116q0 -10 -10 -10h-195q-10 0 -10 10v36h-1q-35 -56 -125 -56q-123 0 -159 115q-17 51 -17 139q0 87 17 138q36 115 160 115zM264 361
q-47 0 -60 -41q-7 -22 -7 -76q0 -55 7 -77q13 -41 60 -41t60 41q7 22 7 77q0 54 -7 76q-13 41 -60 41z" />
    <glyph glyph-name="aacute.alt01" horiz-adv-x="568" 
d="M292 702h139q5 0 6.5 -3t-1.5 -7l-103 -136q-7 -10 -17 -10h-116q-10 0 -5 10l80 136q6 10 17 10zM206 497q89 0 124 -56h1v36q0 10 10 10h195q10 0 10 -10v-116q0 -10 -10 -10h-33q-6 0 -6 -5v-204q0 -6 6 -6h33q10 0 10 -10v-116q0 -10 -10 -10h-195q-10 0 -10 10v36
h-1q-35 -56 -125 -56q-123 0 -159 115q-17 51 -17 139q0 87 17 138q36 115 160 115zM264 361q-47 0 -60 -41q-7 -22 -7 -76q0 -55 7 -77q13 -41 60 -41t60 41q7 22 7 77q0 54 -7 76q-13 41 -60 41z" />
    <glyph glyph-name="abreve.alt01" horiz-adv-x="568" 
d="M362 690h65q12 0 12 -11q-2 -60 -47.5 -100.5t-113.5 -40.5t-113 40.5t-47 100.5q0 11 12 11h65q10 0 14 -11q18 -40 69 -40q52 0 70 40q4 11 14 11zM206 497q89 0 124 -56h1v36q0 10 10 10h195q10 0 10 -10v-116q0 -10 -10 -10h-33q-6 0 -6 -5v-204q0 -6 6 -6h33
q10 0 10 -10v-116q0 -10 -10 -10h-195q-10 0 -10 10v36h-1q-35 -56 -125 -56q-123 0 -159 115q-17 51 -17 139q0 87 17 138q36 115 160 115zM264 361q-47 0 -60 -41q-7 -22 -7 -76q0 -55 7 -77q13 -41 60 -41t60 41q7 22 7 77q0 54 -7 76q-13 41 -60 41z" />
    <glyph glyph-name="acircumflex.alt01" horiz-adv-x="568" 
d="M239 701h91q11 0 18 -10l109 -137q3 -4 1.5 -7t-6.5 -3h-95q-13 0 -23 10l-49 50h-2l-48 -50q-10 -10 -23 -10h-95q-5 0 -6.5 3t1.5 7l109 137q7 10 18 10zM206 497q89 0 124 -56h1v36q0 10 10 10h195q10 0 10 -10v-116q0 -10 -10 -10h-33q-6 0 -6 -5v-204q0 -6 6 -6h33
q10 0 10 -10v-116q0 -10 -10 -10h-195q-10 0 -10 10v36h-1q-35 -56 -125 -56q-123 0 -159 115q-17 51 -17 139q0 87 17 138q36 115 160 115zM264 361q-47 0 -60 -41q-7 -22 -7 -76q0 -55 7 -77q13 -41 60 -41t60 41q7 22 7 77q0 54 -7 76q-13 41 -60 41z" />
    <glyph glyph-name="adieresis.alt01" horiz-adv-x="568" 
d="M128 680h108q10 0 10 -10v-110q0 -10 -10 -10h-108q-10 0 -10 10v110q0 10 10 10zM333 680h108q10 0 10 -10v-110q0 -10 -10 -10h-108q-10 0 -10 10v110q0 10 10 10zM206 497q89 0 124 -56h1v36q0 10 10 10h195q10 0 10 -10v-116q0 -10 -10 -10h-33q-6 0 -6 -5v-204
q0 -6 6 -6h33q10 0 10 -10v-116q0 -10 -10 -10h-195q-10 0 -10 10v36h-1q-35 -56 -125 -56q-123 0 -159 115q-17 51 -17 139q0 87 17 138q36 115 160 115zM264 361q-47 0 -60 -41q-7 -22 -7 -76q0 -55 7 -77q13 -41 60 -41t60 41q7 22 7 77q0 54 -7 76q-13 41 -60 41z" />
    <glyph glyph-name="agrave.alt01" horiz-adv-x="568" 
d="M116 702h139q11 0 17 -10l80 -136q5 -10 -5 -10h-116q-9 0 -17 10l-103 136q-3 4 -1.5 7t6.5 3zM206 497q89 0 124 -56h1v36q0 10 10 10h195q10 0 10 -10v-116q0 -10 -10 -10h-33q-6 0 -6 -5v-204q0 -6 6 -6h33q10 0 10 -10v-116q0 -10 -10 -10h-195q-10 0 -10 10v36h-1
q-35 -56 -125 -56q-123 0 -159 115q-17 51 -17 139q0 87 17 138q36 115 160 115zM264 361q-47 0 -60 -41q-7 -22 -7 -76q0 -55 7 -77q13 -41 60 -41t60 41q7 22 7 77q0 54 -7 76q-13 41 -60 41z" />
    <glyph glyph-name="amacron.alt01" horiz-adv-x="568" 
d="M139 673h301q10 0 10 -10v-91q0 -10 -10 -10h-301q-10 0 -10 10v91q0 10 10 10zM206 497q89 0 124 -56h1v36q0 10 10 10h195q10 0 10 -10v-116q0 -10 -10 -10h-33q-6 0 -6 -5v-204q0 -6 6 -6h33q10 0 10 -10v-116q0 -10 -10 -10h-195q-10 0 -10 10v36h-1
q-35 -56 -125 -56q-123 0 -159 115q-17 51 -17 139q0 87 17 138q36 115 160 115zM264 361q-47 0 -60 -41q-7 -22 -7 -76q0 -55 7 -77q13 -41 60 -41t60 41q7 22 7 77q0 54 -7 76q-13 41 -60 41z" />
    <glyph glyph-name="aogonek.alt01" horiz-adv-x="568" 
d="M206 497q89 0 124 -56h1v36q0 10 10 10h195q10 0 10 -10v-116q0 -10 -10 -10h-33q-6 0 -6 -5v-204q0 -6 6 -6h33q10 0 10 -10v-116q0 -10 -10 -10h-59q-86 -39 -86 -66q0 -16 18 -16q11 0 24 9q9 4 13 -3l38 -71q5 -8 -4 -14q-44 -30 -99 -30q-51 0 -80.5 26.5
t-29.5 69.5q0 61 60 103v38h-1q-35 -56 -125 -56q-123 0 -159 115q-17 51 -17 139q0 87 17 138q36 115 160 115zM264 361q-47 0 -60 -41q-7 -22 -7 -76q0 -55 7 -77q13 -41 60 -41t60 41q7 22 7 77q0 54 -7 76q-13 41 -60 41z" />
    <glyph glyph-name="aring.alt01" horiz-adv-x="568" 
d="M281 746q50 0 82.5 -32.5t32.5 -81.5t-32.5 -81.5t-82.5 -32.5q-49 0 -81.5 32.5t-32.5 81.5t32.5 81.5t81.5 32.5zM281 677q-18 0 -30.5 -13t-12.5 -32t12.5 -32t30.5 -13q19 0 31.5 13t12.5 32t-12.5 32t-31.5 13zM206 497q89 0 124 -56h1v36q0 10 10 10h195
q10 0 10 -10v-116q0 -10 -10 -10h-33q-6 0 -6 -5v-204q0 -6 6 -6h33q10 0 10 -10v-116q0 -10 -10 -10h-195q-10 0 -10 10v36h-1q-35 -56 -125 -56q-123 0 -159 115q-17 51 -17 139q0 87 17 138q36 115 160 115zM264 361q-47 0 -60 -41q-7 -22 -7 -76q0 -55 7 -77
q13 -41 60 -41t60 41q7 22 7 77q0 54 -7 76q-13 41 -60 41z" />
    <glyph glyph-name="atilde.alt01" horiz-adv-x="568" 
d="M212 697q38 0 84 -23q36 -18 60 -18q34 0 75 33q11 7 11 -4v-81q0 -13 -10 -22q-37 -37 -81 -37q-37 0 -83 23q-36 18 -60 18q-32 0 -76 -32q-4 -3 -7 -2t-3 5v81q0 13 9 22q37 37 81 37zM206 497q89 0 124 -56h1v36q0 10 10 10h195q10 0 10 -10v-116q0 -10 -10 -10h-33
q-6 0 -6 -5v-204q0 -6 6 -6h33q10 0 10 -10v-116q0 -10 -10 -10h-195q-10 0 -10 10v36h-1q-35 -56 -125 -56q-123 0 -159 115q-17 51 -17 139q0 87 17 138q36 115 160 115zM264 361q-47 0 -60 -41q-7 -22 -7 -76q0 -55 7 -77q13 -41 60 -41t60 41q7 22 7 77q0 54 -7 76
q-13 41 -60 41z" />
    <glyph glyph-name="germandbls.alt01" horiz-adv-x="612" 
d="M244 680h67q10 0 10 -10v-108q0 -10 -10 -10h-30q-30 0 -40.5 -9.5t-10.5 -34.5v-15q0 -6 5 -6h321q10 0 10 -10v-105q0 -7 -5 -13l-83 -105v-3q105 -59 105 -189q0 -110 -78 -176.5t-218 -66.5q-10 0 -10 10v113q0 10 10 10q130 2 130 103q0 85 -96 99q-10 2 -10 10v104
q0 7 5 13l63 79v3h-144q-5 0 -5 -6v-215q0 -6 6 -6h28q10 0 10 -10v-116q0 -10 -10 -10h-239q-10 0 -10 10v116q0 10 10 10h33q6 0 6 6v365q0 93 42.5 133t137.5 40z" />
    <glyph glyph-name="f_i" horiz-adv-x="650" 
d="M251 680h65q10 0 10 -10v-110q0 -10 -10 -10h-29q-30 0 -40 -8.5t-10 -33.5v-15q0 -6 6 -6h72q10 0 10 -10v-116q0 -10 -10 -10h-72q-6 0 -6 -6v-203q0 -6 6 -6h51q10 0 10 -10v-116q0 -10 -10 -10h-262q-10 0 -10 10v116q0 10 10 10h33q6 0 6 6v203q0 6 -6 6h-29
q-10 0 -10 10v116q0 10 10 10h29q6 0 6 6v14q0 93 42 133t138 40zM424 680h146q10 0 10 -10v-110q0 -10 -10 -10h-146q-10 0 -10 10v110q0 10 10 10zM375 487h195q10 0 10 -10v-335q0 -6 6 -6h34q10 0 10 -10v-116q0 -10 -10 -10h-245q-10 0 -10 10v116q0 10 10 10h33
q6 0 6 6v203q0 6 -6 6h-33q-10 0 -10 10v116q0 10 10 10z" />
    <glyph glyph-name="f_l" horiz-adv-x="656" 
d="M251 680h65q10 0 10 -10v-110q0 -10 -10 -10h-29q-30 0 -40 -8.5t-10 -33.5v-15q0 -6 6 -6h72q10 0 10 -10v-116q0 -10 -10 -10h-72q-6 0 -6 -6v-203q0 -6 6 -6h51q10 0 10 -10v-116q0 -10 -10 -10h-262q-10 0 -10 10v116q0 10 10 10h33q6 0 6 6v203q0 6 -6 6h-29
q-10 0 -10 10v116q0 10 10 10h29q6 0 6 6v14q0 93 42 133t138 40zM361 680h195q10 0 10 -10v-486q0 -48 42 -48h20q10 0 10 -10v-118q0 -10 -10 -10h-59q-91 0 -130 39.5t-39 131.5v369q0 6 -6 6h-33q-10 0 -10 10v116q0 10 10 10z" />
    <glyph glyph-name="uni0163.sc" horiz-adv-x="600" 
 />
    <glyph glyph-name="uni021B.sc" horiz-adv-x="600" 
 />
    <glyph glyph-name="zero.alt01" 
d="M281 692q84 0 139.5 -38t78.5 -108q15 -45 15 -206t-15 -206q-23 -70 -78.5 -108t-139.5 -38q-83 0 -138.5 38t-78.5 108q-16 48 -16 206t16 206q23 70 78.5 108t138.5 38zM281 555q-45 0 -57 -38q-7 -22 -7 -177v-72l117 259q-15 28 -53 28zM346 417l-119 -263
q15 -29 54 -29q45 0 57 38q8 21 8 177v77z" />
    <glyph glyph-name="six.alt01" 
d="M286 692q121 0 188 -44q8 -5 8 -15v-131q0 -10 -10 -10h-126q-10 0 -10 10v37q0 8 -6 10q-13 6 -39 6q-39 0 -57 -23t-18 -73v-45h1q12 12 38.5 21t54.5 9q149 0 189 -120q12 -34 12 -107q0 -57 -11 -92q-22 -66 -78 -101.5t-140 -35.5t-140 35.5t-78 101.5
q-12 38 -12 92v228q0 110 60 178.5t174 68.5zM281 307q-46 0 -59 -41q-6 -20 -6 -49q0 -30 6 -50q13 -41 59 -41q47 0 60 41q5 17 5 50q0 32 -5 49q-13 41 -60 41z" />
    <glyph glyph-name="seven.alt01" 
d="M68 680h433q10 0 10 -10v-131q0 -5 -2 -13l-64 -159h45q10 0 10 -10v-110q0 -10 -10 -10h-97l-91 -227q-4 -10 -13 -10h-155q-11 0 -7 11l91 226h-92q-10 0 -10 10v110q0 10 10 10h144l67 165v3h-117q-6 0 -6 -6v-52q0 -10 -10 -10h-136q-10 0 -10 10v193q0 10 10 10z
" />
    <glyph glyph-name="nine.alt01" 
d="M280 692q85 0 141 -35.5t77 -101.5q12 -38 12 -92v-229q0 -111 -60.5 -178.5t-181.5 -67.5q-120 0 -189 44q-7 4 -7 14v132q0 10 10 10h128q10 0 10 -10v-37q0 -7 5 -10q15 -6 44 -6q41 0 59 22.5t18 72.5v46h-1q-30 -30 -92 -30q-150 0 -190 119q-12 35 -12 108
q0 59 12 92q23 66 78.5 101.5t138.5 35.5zM281 554q-47 0 -60 -41q-5 -17 -5 -50q0 -32 5 -49q13 -41 60 -41q46 0 59 41q6 20 6 49q0 30 -6 50q-13 41 -59 41z" />
    <glyph glyph-name="zero.alt02" 
d="M281 692q84 0 139.5 -38t78.5 -108q15 -45 15 -206t-15 -206q-23 -70 -78.5 -108t-139.5 -38q-83 0 -138.5 38t-78.5 108q-16 48 -16 206t16 206q23 70 78.5 108t138.5 38zM281 555q-45 0 -57 -38q-7 -22 -7 -177v-72l117 259q-15 28 -53 28zM346 417l-119 -263
q15 -29 54 -29q45 0 57 38q8 21 8 177v77z" />
    <glyph glyph-name="six.alt02" 
d="M282 692q121 0 188 -44q8 -5 8 -15v-131q0 -10 -10 -10h-126q-10 0 -10 10v37q0 8 -6 10q-13 6 -39 6q-39 0 -57 -23t-18 -73v-45h1q12 12 38.5 21t54.5 9q149 0 189 -120q12 -34 12 -107q0 -57 -11 -92q-22 -66 -78 -101.5t-140 -35.5t-140 35.5t-78 101.5
q-12 38 -12 92v228q0 110 60 178.5t174 68.5zM277 307q-46 0 -59 -41q-6 -20 -6 -49q0 -30 6 -50q13 -41 59 -41q47 0 60 41q5 17 5 50q0 32 -5 49q-13 41 -60 41z" />
    <glyph glyph-name="seven.alt02" 
d="M52 680h433q10 0 10 -10v-131q0 -5 -2 -13l-64 -159h45q10 0 10 -10v-110q0 -10 -10 -10h-97l-91 -227q-4 -10 -13 -10h-155q-11 0 -7 11l91 226h-92q-10 0 -10 10v110q0 10 10 10h144l67 165v3h-117q-6 0 -6 -6v-52q0 -10 -10 -10h-136q-10 0 -10 10v193q0 10 10 10z
" />
    <glyph glyph-name="nine.alt02" 
d="M273 692q85 0 141 -35.5t77 -101.5q12 -38 12 -92v-229q0 -111 -60.5 -178.5t-181.5 -67.5q-120 0 -189 44q-7 4 -7 14v132q0 10 10 10h128q10 0 10 -10v-37q0 -7 5 -10q15 -6 44 -6q41 0 59 22.5t18 72.5v46h-1q-30 -30 -92 -30q-150 0 -190 119q-12 35 -12 108
q0 59 12 92q23 66 78.5 101.5t138.5 35.5zM274 554q-47 0 -60 -41q-5 -17 -5 -50q0 -32 5 -49q13 -41 60 -41q46 0 59 41q6 20 6 49q0 30 -6 50q-13 41 -59 41z" />
    <glyph glyph-name="zero.lf" 
d="M281 692q83 0 138.5 -38t78.5 -108q16 -48 16 -206t-16 -206q-23 -70 -78.5 -108t-138.5 -38t-138.5 38t-78.5 108q-16 48 -16 206t16 206q23 70 78.5 108t138.5 38zM281 554q-42 0 -56 -37q-7 -22 -7 -177t7 -177q14 -37 56 -37q44 0 56 37q7 22 7 177t-7 177
q-12 37 -56 37z" />
    <glyph glyph-name="one.lf" horiz-adv-x="499" 
d="M197 680h139q10 0 10 -10v-528q0 -6 6 -6h118q10 0 10 -10v-116q0 -10 -10 -10h-415q-10 0 -10 10v116q0 10 10 10h118q6 0 6 6v356h-2l-120 -71q-3 -2 -5.5 -2.5t-4.5 2t-2 6.5v147q0 8 7 14l127 80q7 6 18 6z" />
    <glyph glyph-name="two.lf" horiz-adv-x="524" 
d="M260 692q103 0 162.5 -53.5t59.5 -144.5q0 -94 -79 -175l-174 -182v-2h111q6 0 6 6v42q0 10 10 10h124q10 0 10 -10v-173q0 -10 -10 -10h-435q-10 0 -10 10v112q0 8 5 14l239 267q38 42 38 86q0 32 -17.5 49t-49.5 17q-28 0 -48 -9q-5 -2 -5 -9v-59q0 -10 -10 -10h-127
q-10 0 -10 10v145q0 9 7 14q81 55 203 55z" />
    <glyph glyph-name="three.lf" horiz-adv-x="538" 
d="M264 692q105 0 164 -51.5t59 -136.5q0 -90 -77 -140v-2q89 -48 89 -164q0 -96 -63.5 -153t-172.5 -57q-126 0 -202 51q-7 4 -7 14v143q0 10 10 10h127q10 0 10 -10v-52q0 -6 6 -9q20 -10 54 -10q36 0 54.5 21t18.5 58q0 36 -22 56.5t-59 20.5h-27q-10 0 -10 10v116
q0 10 10 10h25q33 0 52 18.5t19 51.5q0 68 -67 68q-28 0 -48 -10q-5 -3 -5 -9v-47q0 -10 -10 -10h-127q-10 0 -10 10v132q0 9 7 15q79 56 202 56z" />
    <glyph glyph-name="four.lf" horiz-adv-x="559" 
d="M237 680h157q12 0 7 -10l-189 -429v-2h96q6 0 6 6v120q0 10 10 10h140q10 0 10 -10v-120q0 -6 5 -6h39q10 0 10 -10v-124q0 -10 -10 -10h-38q-6 0 -6 -6v-79q0 -10 -10 -10h-140q-10 0 -10 10v79q0 6 -6 6h-264q-10 0 -10 10v128q0 7 2 11l187 428q3 8 14 8z" />
    <glyph glyph-name="five.lf" horiz-adv-x="544" 
d="M77 680h396q10 0 10 -10v-120q0 -10 -10 -10h-258q-6 0 -6 -6v-114h2q37 35 105 35q137 0 173 -113q15 -47 15 -120q0 -56 -15 -101q-43 -133 -224 -133q-120 0 -193 50q-7 5 -7 14v141q0 10 10 10h127q10 0 10 -10v-50q0 -7 6 -9q20 -8 48 -8q52 0 66 39q7 18 7 58
q0 35 -7 58q-13 38 -59 38q-41 0 -57 -32q-5 -10 -13 -10h-126q-10 0 -10 10v383q0 10 10 10z" />
    <glyph glyph-name="six.lf" horiz-adv-x="556" 
d="M258 680h158q12 0 6 -11l-136 -254l1 -1q15 5 34 5q85 0 140.5 -58.5t55.5 -151.5q0 -100 -66.5 -160.5t-172.5 -60.5q-105 0 -171.5 60.5t-66.5 158.5q0 83 54 184l151 282q4 7 13 7zM278 287q-34 0 -55.5 -22.5t-21.5 -57.5t21.5 -58t55.5 -23q35 0 56.5 22.5
t21.5 58.5q0 35 -21.5 57.5t-56.5 22.5z" />
    <glyph glyph-name="seven.lf" horiz-adv-x="528" 
d="M53 680h433q10 0 10 -10v-132q0 -4 -2 -10l-207 -518q-4 -10 -14 -10h-153q-5 0 -7 3.5t-1 7.5l210 521v3h-117q-6 0 -6 -6v-64q0 -10 -10 -10h-136q-10 0 -10 10v205q0 10 10 10z" />
    <glyph glyph-name="eight.lf" horiz-adv-x="560" 
d="M280 692q103 0 164 -59t61 -144q0 -87 -63 -134v-2q78 -53 78 -154q0 -96 -68 -153.5t-172 -57.5t-172 57.5t-68 153.5q0 99 78 154v2q-63 49 -63 134t61 144t164 59zM280 554q-29 0 -48 -19.5t-19 -47.5t19 -47.5t48 -19.5t48 19.5t19 47.5t-19 47.5t-48 19.5zM280 285
q-34 0 -56.5 -22.5t-22.5 -56.5q0 -35 22 -57.5t57 -22.5t57 22.5t22 57.5q0 34 -22 56.5t-57 22.5z" />
    <glyph glyph-name="nine.lf" horiz-adv-x="556" 
d="M278 692q106 0 172 -60.5t66 -158.5q0 -80 -55 -184l-150 -282q-4 -7 -12 -7h-158q-13 0 -7 11l136 254l-2 1q-12 -5 -33 -5q-85 0 -140.5 58.5t-55.5 151.5q0 100 67 160.5t172 60.5zM278 554q-35 0 -56.5 -22.5t-21.5 -57.5t21.5 -58t56.5 -23t56 23t21 58q0 36 -21 58
t-56 22z" />
    <glyph glyph-name="zero.osf" horiz-adv-x="588" 
d="M294 499q116 0 189 -72.5t73 -182.5q0 -111 -73 -183.5t-189 -72.5q-115 0 -188.5 73t-73.5 183t73.5 182.5t188.5 72.5zM294 348q-43 0 -69.5 -30t-26.5 -74q0 -45 26.5 -75t69.5 -30q44 0 70 30t26 75q0 44 -26 74t-70 30z" />
    <glyph glyph-name="one.osf" horiz-adv-x="499" 
d="M200 487h141q10 0 10 -10v-335q0 -6 6 -6h112q10 0 10 -10v-116q0 -10 -10 -10h-407q-10 0 -10 10v116q0 10 10 10h115q6 0 6 6v184h-2l-117 -42q-12 -4 -12 7v129q0 11 9 15l120 48q9 4 19 4z" />
    <glyph glyph-name="two.osf" horiz-adv-x="526" 
d="M264 499q108 0 166 -46t58 -126q0 -53 -24.5 -87.5t-73.5 -61.5l-86 -47v-2h174q10 0 10 -10v-109q0 -10 -10 -10h-430q-10 0 -10 10v98q0 11 8 16l205 115q44 25 59 41t15 37q0 51 -69 51q-32 0 -54 -9q-6 -2 -6 -9v-52q0 -10 -10 -10h-127q-10 0 -10 10v137q0 10 8 15
q81 49 207 49z" />
    <glyph glyph-name="three.osf" horiz-adv-x="521" 
d="M41 487h422q10 0 10 -10v-116q0 -9 -6 -16l-118 -135v-2q142 -36 142 -190q0 -100 -65.5 -155t-178.5 -55q-122 0 -198 42q-7 6 -7 13v147q0 10 10 10h126q10 0 10 -10v-47q0 -7 5 -10q16 -8 54 -8q80 0 80 78q0 75 -97 75h-41q-10 0 -10 10v110q0 8 6 16l104 116v2h-108
q-6 0 -6 -6v-36q0 -10 -10 -10h-124q-10 0 -10 10v167q0 10 10 10z" />
    <glyph glyph-name="four.osf" horiz-adv-x="546" 
d="M204 487h155q5 0 7 -3t0 -7l-160 -331v-2h90q6 0 6 6v116q0 10 10 10h143q10 0 10 -10v-116q0 -6 5 -6h39q10 0 10 -10v-124q0 -10 -10 -10h-38q-6 0 -6 -6v-164q0 -10 -10 -10h-143q-10 0 -10 10v164q0 6 -6 6h-258q-10 0 -10 10v127q0 8 3 14l158 328q4 8 15 8z" />
    <glyph glyph-name="five.osf" horiz-adv-x="530" 
d="M75 487h396q10 0 10 -10v-120q0 -10 -10 -10h-258q-6 0 -6 -6v-113h2q38 36 105 36q135 0 172 -114q15 -47 15 -111q0 -53 -15 -98q-45 -133 -222 -133q-115 0 -193 44q-8 4 -8 15v142q0 10 10 10h127q10 0 10 -10v-47q0 -7 6 -9q18 -8 47 -8q52 0 66 40q8 21 8 51
q0 33 -7 53q-13 38 -58 38q-39 0 -55 -32q-5 -10 -14 -10h-128q-10 0 -10 10v382q0 10 10 10z" />
    <glyph glyph-name="six.osf" horiz-adv-x="540" 
d="M250 680h157q13 0 7 -11l-136 -254l2 -1q12 5 33 5q85 0 140.5 -58.5t55.5 -151.5q0 -100 -67 -160.5t-172 -60.5t-171.5 60.5t-66.5 158.5q0 78 54 183l151 283q4 7 13 7zM270 287q-35 0 -56 -22.5t-21 -57.5q0 -36 21 -58.5t56 -22.5t56.5 22.5t21.5 58.5
q0 35 -21.5 57.5t-56.5 22.5z" />
    <glyph glyph-name="seven.osf" horiz-adv-x="528" 
d="M51 487h430q10 0 10 -10v-131q0 -8 -3 -15l-200 -501q-4 -10 -14 -10h-154q-12 0 -7 11l205 508v3h-115q-6 0 -6 -6v-64q0 -10 -10 -10h-136q-10 0 -10 10v205q0 10 10 10z" />
    <glyph glyph-name="eight.osf" horiz-adv-x="546" 
d="M273 692q103 0 164 -59t61 -144q0 -87 -63 -134v-2q78 -53 78 -154q0 -96 -68 -153.5t-172 -57.5t-172 57.5t-68 153.5q0 99 78 154v2q-63 49 -63 134t61 144t164 59zM273 554q-29 0 -48 -19.5t-19 -47.5t19 -47.5t48 -19.5t48 19.5t19 47.5t-19 47.5t-48 19.5zM273 285
q-34 0 -56.5 -22.5t-22.5 -56.5q0 -35 22 -57.5t57 -22.5t57 22.5t22 57.5q0 34 -22 56.5t-57 22.5z" />
    <glyph glyph-name="nine.osf" horiz-adv-x="540" 
d="M269 499q106 0 172.5 -60t66.5 -159q0 -82 -54 -183l-144 -270q-4 -7 -13 -7h-157q-12 0 -7 11l129 241l-1 1q-15 -5 -35 -5q-85 0 -140 58.5t-55 151.5q0 100 66.5 160.5t171.5 60.5zM269 361q-35 0 -56 -22.5t-21 -57.5q0 -36 21 -58.5t56 -22.5t56.5 22.5t21.5 58.5
q0 35 -21.5 57.5t-56.5 22.5z" />
    <glyph glyph-name="zero.tosf" 
d="M281 499q116 0 189 -72.5t73 -182.5q0 -111 -73 -183.5t-189 -72.5q-115 0 -188.5 73t-73.5 183t73.5 182.5t188.5 72.5zM281 348q-43 0 -69.5 -30t-26.5 -74q0 -45 26.5 -75t69.5 -30q44 0 70 30t26 75q0 44 -26 74t-70 30z" />
    <glyph glyph-name="one.tosf" 
d="M234 487h141q10 0 10 -10v-335q0 -6 6 -6h112q10 0 10 -10v-116q0 -10 -10 -10h-407q-10 0 -10 10v116q0 10 10 10h115q6 0 6 6v184h-2l-117 -42q-12 -4 -12 7v129q0 11 9 15l120 48q9 4 19 4z" />
    <glyph glyph-name="two.tosf" 
d="M281 499q108 0 166 -46t58 -126q0 -53 -24.5 -87.5t-73.5 -61.5l-86 -47v-2h174q10 0 10 -10v-109q0 -10 -10 -10h-430q-10 0 -10 10v98q0 11 8 16l205 115q44 25 59 41t15 37q0 51 -69 51q-32 0 -54 -9q-6 -2 -6 -9v-52q0 -10 -10 -10h-127q-10 0 -10 10v137q0 10 8 15
q81 49 207 49z" />
    <glyph glyph-name="three.tosf" 
d="M61 487h422q10 0 10 -10v-116q0 -9 -6 -16l-118 -135v-2q142 -36 142 -190q0 -100 -65.5 -155t-178.5 -55q-122 0 -198 42q-7 6 -7 13v147q0 10 10 10h126q10 0 10 -10v-47q0 -7 5 -10q16 -8 54 -8q80 0 80 78q0 75 -97 75h-41q-10 0 -10 10v110q0 8 6 16l104 116v2h-108
q-6 0 -6 -6v-36q0 -10 -10 -10h-124q-10 0 -10 10v167q0 10 10 10z" />
    <glyph glyph-name="four.tosf" 
d="M215 487h155q5 0 7 -3t0 -7l-160 -331v-2h90q6 0 6 6v116q0 10 10 10h143q10 0 10 -10v-116q0 -6 5 -6h39q10 0 10 -10v-124q0 -10 -10 -10h-38q-6 0 -6 -6v-164q0 -10 -10 -10h-143q-10 0 -10 10v164q0 6 -6 6h-258q-10 0 -10 10v127q0 8 3 14l158 328q4 8 15 8z" />
    <glyph glyph-name="five.tosf" 
d="M86 487h396q10 0 10 -10v-120q0 -10 -10 -10h-258q-6 0 -6 -6v-113h2q38 36 105 36q135 0 172 -114q15 -47 15 -111q0 -53 -15 -98q-45 -133 -222 -133q-115 0 -193 44q-8 4 -8 15v142q0 10 10 10h127q10 0 10 -10v-47q0 -7 6 -9q18 -8 47 -8q52 0 66 40q8 21 8 51
q0 33 -7 53q-13 38 -58 38q-39 0 -55 -32q-5 -10 -14 -10h-128q-10 0 -10 10v382q0 10 10 10z" />
    <glyph glyph-name="six.tosf" 
d="M261 680h157q12 0 7 -11l-136 -254l2 -1q12 5 33 5q85 0 140.5 -58.5t55.5 -151.5q0 -100 -67 -160.5t-172 -60.5t-171.5 60.5t-66.5 158.5q0 78 54 183l151 283q4 7 13 7zM281 287q-35 0 -56 -22.5t-21 -57.5q0 -36 21 -58.5t56 -22.5t56.5 22.5t21.5 58.5
q0 35 -21.5 57.5t-56.5 22.5z" />
    <glyph glyph-name="seven.tosf" 
d="M68 487h430q10 0 10 -10v-131q0 -8 -3 -15l-200 -501q-4 -10 -14 -10h-154q-5 0 -7 3.5t0 7.5l205 508v3h-115q-6 0 -6 -6v-64q0 -10 -10 -10h-136q-10 0 -10 10v205q0 10 10 10z" />
    <glyph glyph-name="eight.tosf" 
d="M281 692q103 0 164 -59t61 -144q0 -87 -63 -134v-2q78 -53 78 -154q0 -96 -68 -153.5t-172 -57.5t-172 57.5t-68 153.5q0 99 78 154v2q-63 49 -63 134t61 144t164 59zM281 554q-29 0 -48 -19.5t-19 -47.5t19 -47.5t48 -19.5t48 19.5t19 47.5t-19 47.5t-48 19.5zM281 285
q-34 0 -56.5 -22.5t-22.5 -56.5q0 -35 22 -57.5t57 -22.5t57 22.5t22 57.5q0 34 -22 56.5t-57 22.5z" />
    <glyph glyph-name="nine.tosf" 
d="M280 499q106 0 172.5 -60t66.5 -159q0 -82 -54 -183l-144 -270q-4 -7 -13 -7h-157q-13 0 -7 11l129 241l-1 1q-15 -5 -35 -5q-85 0 -140 58.5t-55 151.5q0 100 66.5 160.5t171.5 60.5zM280 361q-35 0 -56 -22.5t-21 -57.5q0 -36 21 -58.5t56 -22.5t56.5 22.5t21.5 58.5
q0 35 -21.5 57.5t-56.5 22.5z" />
    <glyph glyph-name="zero.denominator" horiz-adv-x="366" 
d="M183 413q117 0 148 -94q10 -30 10 -116t-10 -116q-31 -94 -148 -94t-148 94q-10 30 -10 116t10 116q31 94 148 94zM183 317q-24 0 -30 -21q-3 -10 -3 -93t3 -93q6 -21 30 -21t30 21q3 10 3 93t-3 93q-6 21 -30 21z" />
    <glyph glyph-name="one.denominator" horiz-adv-x="366" 
d="M150 406h101q10 0 10 -10v-287q0 -6 6 -6h61q10 0 10 -10v-83q0 -10 -10 -10h-256q-10 0 -10 10v83q0 10 10 10h61q6 0 6 6v171h-2l-66 -38q-4 -2 -7 0t-3 7v96q0 10 9 15l63 40q9 6 17 6z" />
    <glyph glyph-name="two.denominator" horiz-adv-x="366" 
d="M183 413q70 0 109.5 -32.5t39.5 -93.5q0 -55 -55 -107l-84 -78v-1h129q10 0 10 -10v-81q0 -10 -10 -10h-278q-10 0 -10 10v76q0 10 9 19l146 137q24 22 24 44q0 32 -34 32q-15 0 -27 -6q-4 -3 -4 -8v-28q0 -10 -10 -10h-87q-10 0 -10 10v86q0 10 8 15q61 36 134 36z" />
    <glyph glyph-name="three.denominator" horiz-adv-x="366" 
d="M183 413q69 0 107.5 -30.5t38.5 -83.5q0 -51 -46 -82v-2q53 -24 53 -93q0 -61 -41.5 -95t-117.5 -34q-81 0 -132 31q-7 6 -7 15v81q0 10 10 10h85q11 0 11 -10v-20q0 -4 4 -7q9 -5 28 -5q40 0 40 36q0 35 -43 35h-13q-10 0 -10 10v74q0 10 10 10h13q36 0 36 33
q0 32 -34 32q-14 0 -26 -5q-5 -3 -5 -9v-20q0 -10 -10 -10h-86q-10 0 -10 10v79q0 10 7 14q59 36 138 36z" />
    <glyph glyph-name="four.denominator" horiz-adv-x="366" 
d="M147 406h107q11 0 7 -10l-111 -241v-2h47q6 0 6 6v57q0 10 10 10h93q10 0 10 -10v-57q0 -6 5 -6h14q10 0 10 -10v-81q0 -10 -10 -10h-13q-6 0 -6 -6v-36q0 -10 -10 -10h-93q-10 0 -10 10v36q0 6 -6 6h-166q-10 0 -10 10v85q0 10 4 18l107 231q4 10 15 10z" />
    <glyph glyph-name="five.denominator" horiz-adv-x="366" 
d="M51 406h258q10 0 10 -10v-79q0 -10 -10 -10h-155q-6 0 -6 -7v-47h1q23 16 62 16q91 0 115 -72q8 -21 8 -60q0 -36 -7 -57q-29 -87 -152 -87q-83 0 -126 28q-8 5 -8 14v78q0 10 10 10h87q10 0 10 -10v-14q0 -5 5 -8q7 -3 24 -3q28 0 35 21q3 10 3 23q0 14 -3 23
q-6 19 -31 19q-17 0 -27 -10q-6 -6 -13 -6h-90q-10 0 -10 10v228q0 10 10 10z" />
    <glyph glyph-name="six.denominator" horiz-adv-x="366" 
d="M165 406h112q11 0 5 -10l-77 -137l1 -1q5 1 9 1q56 0 91.5 -35.5t35.5 -94.5q0 -61 -44 -98.5t-115 -37.5q-70 0 -114.5 37.5t-44.5 98.5q0 51 38 116l87 151q7 10 16 10zM183 165q-18 0 -29 -10.5t-11 -27.5t11 -28t29 -11t29 11t11 28t-11 27.5t-29 10.5z" />
    <glyph glyph-name="seven.denominator" horiz-adv-x="366" 
d="M44 406h282q10 0 10 -10v-88q0 -8 -3 -15l-121 -283q-3 -10 -13 -10h-108q-9 0 -6 12l126 293v2h-60q-6 0 -6 -6v-36q0 -10 -10 -10h-91q-10 0 -10 10v131q0 10 10 10z" />
    <glyph glyph-name="eight.denominator" horiz-adv-x="366" 
d="M183 413q70 0 110.5 -36.5t40.5 -88.5q0 -42 -36 -76v-1q44 -35 44 -89q0 -59 -45 -94t-114 -35t-114 35t-45 94q0 54 44 89v1q-36 34 -36 76q0 52 40.5 88.5t110.5 36.5zM183 318q-15 0 -24.5 -9.5t-9.5 -23.5t9.5 -23.5t24.5 -9.5t24.5 9.5t9.5 23.5t-9.5 23.5
t-24.5 9.5zM183 166q-17 0 -29 -11.5t-12 -27.5t12 -27.5t29 -11.5t29 11.5t12 27.5t-12 27.5t-29 11.5z" />
    <glyph glyph-name="nine.denominator" horiz-adv-x="366" 
d="M183 413q70 0 114.5 -37.5t44.5 -98.5q0 -51 -38 -116l-87 -151q-7 -10 -16 -10h-112q-11 0 -5 10l78 137l-1 1q-5 -1 -10 -1q-56 0 -91.5 35.5t-35.5 94.5q0 61 44 98.5t115 37.5zM183 318q-18 0 -29 -11t-11 -28t11 -27.5t29 -10.5t29 10.5t11 27.5t-11 28t-29 11z" />
    <glyph glyph-name="zero.numerator" horiz-adv-x="366" 
d="M183 687q117 0 148 -94q10 -30 10 -116t-10 -116q-31 -94 -148 -94t-148 94q-10 30 -10 116t10 116q31 94 148 94zM183 591q-24 0 -30 -21q-3 -10 -3 -93t3 -93q6 -21 30 -21t30 21q3 10 3 93t-3 93q-6 21 -30 21z" />
    <glyph glyph-name="one.numerator" horiz-adv-x="366" 
d="M150 680h101q10 0 10 -10v-287q0 -6 6 -6h61q10 0 10 -10v-83q0 -10 -10 -10h-256q-10 0 -10 10v83q0 10 10 10h61q6 0 6 6v171h-2l-66 -38q-4 -2 -7 0t-3 7v96q0 10 9 15l63 40q9 6 17 6z" />
    <glyph glyph-name="two.numerator" horiz-adv-x="366" 
d="M183 687q70 0 109.5 -32.5t39.5 -93.5q0 -55 -55 -107l-84 -78v-1h129q10 0 10 -10v-81q0 -10 -10 -10h-278q-10 0 -10 10v76q0 10 9 19l146 137q24 22 24 44q0 32 -34 32q-15 0 -27 -6q-4 -3 -4 -8v-28q0 -10 -10 -10h-87q-10 0 -10 10v86q0 10 8 15q61 36 134 36z" />
    <glyph glyph-name="three.numerator" horiz-adv-x="366" 
d="M183 687q69 0 107.5 -30.5t38.5 -83.5q0 -51 -46 -82v-2q53 -24 53 -93q0 -61 -41.5 -95t-117.5 -34q-81 0 -132 31q-7 6 -7 15v81q0 10 10 10h85q11 0 11 -10v-20q0 -4 4 -7q9 -5 28 -5q40 0 40 36q0 35 -43 35h-13q-10 0 -10 10v74q0 10 10 10h13q36 0 36 33
q0 32 -34 32q-14 0 -26 -5q-5 -3 -5 -9v-20q0 -10 -10 -10h-86q-10 0 -10 10v79q0 10 7 14q59 36 138 36z" />
    <glyph glyph-name="four.numerator" horiz-adv-x="366" 
d="M147 680h107q11 0 7 -10l-111 -241v-2h47q6 0 6 6v57q0 10 10 10h93q10 0 10 -10v-57q0 -6 5 -6h14q10 0 10 -10v-81q0 -10 -10 -10h-13q-6 0 -6 -6v-36q0 -10 -10 -10h-93q-10 0 -10 10v36q0 6 -6 6h-166q-10 0 -10 10v85q0 10 4 18l107 231q4 10 15 10z" />
    <glyph glyph-name="five.numerator" horiz-adv-x="366" 
d="M51 680h258q10 0 10 -10v-79q0 -10 -10 -10h-155q-6 0 -6 -7v-47h1q23 16 62 16q91 0 115 -72q8 -21 8 -60q0 -36 -7 -57q-29 -87 -152 -87q-83 0 -126 28q-8 5 -8 14v78q0 10 10 10h87q10 0 10 -10v-14q0 -5 5 -8q7 -3 24 -3q28 0 35 21q3 11 3 23q0 14 -3 23
q-6 19 -31 19q-17 0 -27 -10q-6 -6 -13 -6h-90q-10 0 -10 10v228q0 10 10 10z" />
    <glyph glyph-name="six.numerator" horiz-adv-x="366" 
d="M165 680h112q11 0 5 -10l-77 -137l1 -1q5 1 9 1q56 0 91.5 -35.5t35.5 -94.5q0 -61 -44 -98.5t-115 -37.5q-70 0 -114.5 37.5t-44.5 98.5q0 51 38 116l87 151q7 10 16 10zM183 439q-18 0 -29 -10.5t-11 -27.5t11 -28t29 -11t29 11t11 28t-11 27.5t-29 10.5z" />
    <glyph glyph-name="seven.numerator" horiz-adv-x="366" 
d="M44 680h282q10 0 10 -10v-88q0 -8 -3 -15l-121 -283q-3 -10 -13 -10h-108q-9 0 -6 12l126 293v2h-60q-6 0 -6 -6v-36q0 -10 -10 -10h-91q-10 0 -10 10v131q0 10 10 10z" />
    <glyph glyph-name="eight.numerator" horiz-adv-x="366" 
d="M183 687q70 0 110.5 -36.5t40.5 -88.5q0 -42 -36 -76v-1q44 -35 44 -89q0 -59 -45 -94t-114 -35t-114 35t-45 94q0 54 44 89v1q-36 34 -36 76q0 52 40.5 88.5t110.5 36.5zM183 592q-15 0 -24.5 -9.5t-9.5 -23.5t9.5 -23.5t24.5 -9.5t24.5 9.5t9.5 23.5t-9.5 23.5
t-24.5 9.5zM183 440q-17 0 -29 -11.5t-12 -27.5t12 -27.5t29 -11.5t29 11.5t12 27.5t-12 27.5t-29 11.5z" />
    </font>
</defs>
</svg>
