<?xml version="1.0" standalone="no"?>
<!DOCTYPE svg PUBLIC "-//W3C//DTD SVG 1.1//EN" "http://www.w3.org/Graphics/SVG/1.1/DTD/svg11.dtd" >
<svg>
<metadata>
Created by FontForge 20090622 at Tue Jan 23 10:36:55 2018
 By deploy user
Copyright &#194;&#169; 2014 Monotype Imaging Inc.  All rights reserved.
</metadata>
<defs>
<font id="DINNextSlabPro-Light" horiz-adv-x="532" >
  <font-face 
    font-family="DIN Next Slab Pro Light"
    font-weight="300"
    font-stretch="normal"
    units-per-em="1000"
    panose-1="2 8 3 4 2 2 5 2 2 4"
    ascent="750"
    descent="-250"
    x-height="477"
    cap-height="680"
    bbox="-146.562 -213 985 914"
    underline-thickness="50"
    underline-position="-75"
    unicode-range="U+000D-U+FB02"
  />
<missing-glyph horiz-adv-x="470" 
d="M10 680h450q10 0 10 -10v-660q0 -10 -10 -10h-450q-10 0 -10 10v660q0 10 10 10zM425 643h-380q-6 0 -6 -6v-594q0 -6 6 -6h380q6 0 6 6v594q0 6 -6 6zM226 562q55 0 85.5 -29.5t30.5 -77.5t-38 -96l-37 -48q-20 -25 -20 -55v-22q0 -10 -10 -10h-22q-10 0 -10 10v24
q0 40 22 67l37 47q22 27 29.5 43.5t7.5 37.5q0 32 -20 51t-55 19q-36 0 -59 -16q-5 -4 -5 -10v-45q0 -10 -10 -10h-20q-10 0 -10 10v64q0 10 9 16q42 30 95 30zM210 172h31q10 0 10 -10v-39q0 -10 -10 -10h-31q-10 0 -10 10v39q0 10 10 10z" />
    <glyph glyph-name="fi" unicode="fi" horiz-adv-x="593" 
d="M246 680h28q10 0 10 -10v-30q0 -10 -10 -10h-22q-54 0 -69.5 -16.5t-15.5 -71.5v-59q0 -6 6 -6h101q10 0 10 -10v-30q0 -10 -10 -10h-101q-6 0 -6 -6v-365q0 -6 6 -6h61q10 0 10 -10v-30q0 -10 -10 -10h-181q-10 0 -10 10v30q0 10 10 10h54q6 0 6 6v365q0 6 -6 6h-51
q-10 0 -10 10v30q0 10 10 10h51q6 0 6 6v51q0 84 29.5 115t103.5 31zM432 680h44q10 0 10 -10v-56q0 -10 -10 -10h-44q-10 0 -10 10v56q0 10 10 10zM365 477h106q10 0 10 -10v-411q0 -6 6 -6h56q10 0 10 -10v-30q0 -10 -10 -10h-178q-10 0 -10 10v30q0 10 10 10h56q6 0 6 6
v365q0 6 -6 6h-56q-10 0 -10 10v30q0 10 10 10z" />
    <glyph glyph-name="fl" unicode="fl" horiz-adv-x="587" 
d="M246 680h28q10 0 10 -10v-30q0 -10 -10 -10h-22q-54 0 -69.5 -16.5t-15.5 -71.5v-59q0 -6 6 -6h101q10 0 10 -10v-30q0 -10 -10 -10h-101q-6 0 -6 -6v-365q0 -6 6 -6h61q10 0 10 -10v-30q0 -10 -10 -10h-181q-10 0 -10 10v30q0 10 10 10h54q6 0 6 6v365q0 6 -6 6h-51
q-10 0 -10 10v30q0 10 10 10h51q6 0 6 6v51q0 84 29.5 115t103.5 31zM350 680h106q10 0 10 -10v-559q0 -35 11.5 -48.5t39.5 -13.5h17q10 0 10 -10v-31q0 -10 -10 -10h-23q-53 0 -76 26.5t-23 85.5v514q0 6 -6 6h-56q-10 0 -10 10v30q0 10 10 10z" />
    <glyph glyph-name="f_f" unicode="ff" horiz-adv-x="624" 
d="M246 680h28q10 0 10 -10v-30q0 -10 -10 -10h-22q-54 0 -69.5 -16.5t-15.5 -71.5v-59q0 -6 6 -6h101q10 0 10 -10v-30q0 -10 -10 -10h-101q-6 0 -6 -6v-365q0 -6 6 -6h61q10 0 10 -10v-30q0 -10 -10 -10h-181q-10 0 -10 10v30q0 10 10 10h54q6 0 6 6v365q0 6 -6 6h-51
q-10 0 -10 10v30q0 10 10 10h51q6 0 6 6v51q0 84 29.5 115t103.5 31zM558 680h28q10 0 10 -10v-30q0 -10 -10 -10h-22q-54 0 -69.5 -16.5t-15.5 -71.5v-59q0 -6 6 -6h101q10 0 10 -10v-30q0 -10 -10 -10h-101q-6 0 -6 -6v-365q0 -6 6 -6h61q10 0 10 -10v-30q0 -10 -10 -10
h-181q-10 0 -10 10v30q0 10 10 10h54q6 0 6 6v365q0 6 -6 6h-51q-10 0 -10 10v30q0 10 10 10h51q6 0 6 6v51q0 84 29.5 115t103.5 31z" />
    <glyph glyph-name="f_f_i" unicode="ffi" horiz-adv-x="905" 
d="M246 680h28q10 0 10 -10v-30q0 -10 -10 -10h-22q-54 0 -69.5 -16.5t-15.5 -71.5v-59q0 -6 6 -6h101q10 0 10 -10v-30q0 -10 -10 -10h-101q-6 0 -6 -6v-365q0 -6 6 -6h61q10 0 10 -10v-30q0 -10 -10 -10h-181q-10 0 -10 10v30q0 10 10 10h54q6 0 6 6v365q0 6 -6 6h-51
q-10 0 -10 10v30q0 10 10 10h51q6 0 6 6v51q0 84 29.5 115t103.5 31zM558 680h28q10 0 10 -10v-30q0 -10 -10 -10h-22q-54 0 -69.5 -16.5t-15.5 -71.5v-59q0 -6 6 -6h101q10 0 10 -10v-30q0 -10 -10 -10h-101q-6 0 -6 -6v-365q0 -6 6 -6h61q10 0 10 -10v-30q0 -10 -10 -10
h-181q-10 0 -10 10v30q0 10 10 10h54q6 0 6 6v365q0 6 -6 6h-51q-10 0 -10 10v30q0 10 10 10h51q6 0 6 6v51q0 84 29.5 115t103.5 31zM744 680h44q10 0 10 -10v-56q0 -10 -10 -10h-44q-10 0 -10 10v56q0 10 10 10zM677 477h106q10 0 10 -10v-411q0 -6 6 -6h56q10 0 10 -10
v-30q0 -10 -10 -10h-178q-10 0 -10 10v30q0 10 10 10h56q6 0 6 6v365q0 6 -6 6h-56q-10 0 -10 10v30q0 10 10 10z" />
    <glyph glyph-name="f_f_l" unicode="ffl" horiz-adv-x="899" 
d="M246 680h28q10 0 10 -10v-30q0 -10 -10 -10h-22q-54 0 -69.5 -16.5t-15.5 -71.5v-59q0 -6 6 -6h101q10 0 10 -10v-30q0 -10 -10 -10h-101q-6 0 -6 -6v-365q0 -6 6 -6h61q10 0 10 -10v-30q0 -10 -10 -10h-181q-10 0 -10 10v30q0 10 10 10h54q6 0 6 6v365q0 6 -6 6h-51
q-10 0 -10 10v30q0 10 10 10h51q6 0 6 6v51q0 84 29.5 115t103.5 31zM558 680h28q10 0 10 -10v-30q0 -10 -10 -10h-22q-54 0 -69.5 -16.5t-15.5 -71.5v-59q0 -6 6 -6h101q10 0 10 -10v-30q0 -10 -10 -10h-101q-6 0 -6 -6v-365q0 -6 6 -6h61q10 0 10 -10v-30q0 -10 -10 -10
h-181q-10 0 -10 10v30q0 10 10 10h54q6 0 6 6v365q0 6 -6 6h-51q-10 0 -10 10v30q0 10 10 10h51q6 0 6 6v51q0 84 29.5 115t103.5 31zM662 680h106q10 0 10 -10v-559q0 -35 11.5 -48.5t39.5 -13.5h17q10 0 10 -10v-31q0 -10 -10 -10h-23q-53 0 -76 26.5t-23 85.5v514
q0 6 -6 6h-56q-10 0 -10 10v30q0 10 10 10z" />
    <glyph glyph-name=".notdef" horiz-adv-x="470" 
d="M10 680h450q10 0 10 -10v-660q0 -10 -10 -10h-450q-10 0 -10 10v660q0 10 10 10zM425 643h-380q-6 0 -6 -6v-594q0 -6 6 -6h380q6 0 6 6v594q0 6 -6 6zM226 562q55 0 85.5 -29.5t30.5 -77.5t-38 -96l-37 -48q-20 -25 -20 -55v-22q0 -10 -10 -10h-22q-10 0 -10 10v24
q0 40 22 67l37 47q22 27 29.5 43.5t7.5 37.5q0 32 -20 51t-55 19q-36 0 -59 -16q-5 -4 -5 -10v-45q0 -10 -10 -10h-20q-10 0 -10 10v64q0 10 9 16q42 30 95 30zM210 172h31q10 0 10 -10v-39q0 -10 -10 -10h-31q-10 0 -10 10v39q0 10 10 10z" />
    <glyph glyph-name=".null" horiz-adv-x="0" 
 />
    <glyph glyph-name="nonmarkingreturn" horiz-adv-x="333" 
 />
    <glyph glyph-name="CR" unicode="&#xd;" horiz-adv-x="600" 
 />
    <glyph glyph-name="space" unicode=" " horiz-adv-x="246" 
 />
    <glyph glyph-name="exclam" unicode="!" horiz-adv-x="266" 
d="M114 680h39q10 0 10 -10l-8 -483q0 -10 -10 -10h-23q-10 0 -10 10l-8 483q0 10 10 10zM108 87h50q10 0 10 -10v-67q0 -10 -10 -10h-50q-10 0 -10 10v67q0 10 10 10z" />
    <glyph glyph-name="quotedbl" unicode="&#x22;" horiz-adv-x="314" 
d="M84 680h26q10 0 10 -10v-140q0 -10 -10 -10h-26q-10 0 -10 10v140q0 10 10 10zM204 680h26q10 0 10 -10v-140q0 -10 -10 -10h-26q-10 0 -10 10v140q0 10 10 10z" />
    <glyph glyph-name="numbersign" unicode="#" horiz-adv-x="518" 
d="M387 680h27q11 0 9 -10l-27 -193h85q10 0 10 -10v-25q0 -10 -10 -10h-91l-23 -169h90q10 0 10 -10v-24q0 -10 -10 -10h-96l-28 -209q-2 -10 -11 -10h-27q-11 0 -9 10l28 209h-150l-28 -209q-2 -10 -11 -10h-27q-11 0 -9 10l28 209h-80q-10 0 -10 10v24q0 10 10 10h86
l23 169h-84q-10 0 -10 10v25q0 10 10 10h90l27 193q2 10 11 10h27q11 0 9 -10l-27 -193h150l27 193q2 10 11 10zM193 432l-23 -169h150l23 169h-150z" />
    <glyph glyph-name="dollar" unicode="$" 
d="M262 751h19q10 0 10 -10v-51q84 -5 147 -39q6 -4 6 -12v-97q0 -10 -10 -10h-30q-10 0 -10 10v64q0 8 -6 10q-44 19 -97 22v-270q181 -27 181 -181q0 -82 -47.5 -135t-133.5 -60v-53q0 -10 -10 -10h-19q-10 0 -10 10v51q-105 3 -174 46q-5 3 -5 9v108q0 10 10 10h33
q10 0 10 -10v-74q0 -7 5 -9q52 -25 121 -28v277q-87 13 -131 60.5t-44 120.5q0 80 48 131t127 58v52q0 10 10 10zM252 373v264q-57 -6 -89.5 -41.5t-32.5 -90.5q0 -111 122 -132zM291 313v-270q60 6 94 43t34 98q0 53 -29.5 85t-98.5 44z" />
    <glyph glyph-name="percent" unicode="%" horiz-adv-x="770" 
d="M572 690h27q11 0 6 -10l-394 -680q-6 -10 -14 -10h-27q-11 0 -6 10l394 680q6 10 14 10zM205 688q41 0 69.5 -20t38.5 -54q8 -26 8 -105t-8 -105q-10 -34 -38.5 -54t-69.5 -20t-70 19.5t-39 54.5q-8 26 -8 105t8 105q10 35 39 54.5t70 19.5zM205 647q-50 0 -65 -43
q-7 -18 -7 -95t7 -95q15 -43 65 -43q49 0 64 43q7 18 7 95t-7 95q-15 43 -64 43zM566 350q40 0 68.5 -19.5t39.5 -54.5q8 -26 8 -105q0 -81 -8 -105q-11 -35 -39.5 -54.5t-68.5 -19.5t-68.5 19.5t-39.5 54.5q-8 24 -8 105q0 79 8 105q11 35 39.5 54.5t68.5 19.5zM566 308
q-50 0 -65 -43q-7 -21 -7 -94q0 -72 7 -95q15 -43 65 -43t65 43q7 23 7 95q0 73 -7 94q-15 43 -65 43z" />
    <glyph glyph-name="ampersand" unicode="&#x26;" horiz-adv-x="618" 
d="M256 690q63 0 103 -39t40 -97q0 -45 -26.5 -84.5t-97.5 -97.5l148 -194l76 97q6 9 15 9h55q10 0 10 -10v-30q0 -10 -10 -10h-35q-6 0 -10 -5l-70 -90l51 -67q17 -22 37 -22h25q10 0 10 -10v-31q0 -10 -10 -10h-31q-25 0 -40 8.5t-32 31.5l-44 58q-48 -59 -92.5 -83
t-98.5 -24q-76 0 -121 47.5t-45 124.5q0 105 141 218q-56 74 -74.5 107t-18.5 66q0 60 41 98.5t104 38.5zM256 640q-41 0 -66.5 -24t-25.5 -62q0 -24 14.5 -49.5t65.5 -92.5q64 52 84 81t20 61q0 37 -26 61.5t-66 24.5zM390 136l-156 204q-62 -50 -90.5 -91t-28.5 -86
q0 -55 31.5 -89t84.5 -34q43 0 78.5 20.5t80.5 75.5z" />
    <glyph glyph-name="quotesingle" unicode="'" horiz-adv-x="194" 
d="M84 680h26q10 0 10 -10v-140q0 -10 -10 -10h-26q-10 0 -10 10v140q0 10 10 10z" />
    <glyph glyph-name="parenleft" unicode="(" horiz-adv-x="276" 
d="M200 740h20q12 0 7 -10q-99 -192 -99 -402q0 -209 99 -402q5 -10 -7 -10h-20q-8 0 -15 10q-110 187 -110 402q0 216 110 402q7 10 15 10z" />
    <glyph glyph-name="parenright" unicode=")" horiz-adv-x="276" 
d="M56 740h21q7 0 14 -10q110 -186 110 -402q0 -215 -110 -402q-7 -10 -14 -10h-21q-12 0 -7 10q99 190 99 402q0 210 -99 402q-5 10 7 10z" />
    <glyph glyph-name="asterisk" unicode="*" horiz-adv-x="349" 
d="M166 680h17q10 0 10 -10v-97l84 49q9 5 14 -4l8 -15q6 -9 -4 -14l-84 -48l84 -48q10 -5 4 -14l-8 -15q-5 -9 -14 -4l-84 49v-97q0 -10 -10 -10h-17q-10 0 -10 10v96l-84 -48q-9 -5 -14 4l-8 15q-6 9 4 14l83 48l-83 48q-10 5 -4 14l8 15q5 9 14 4l84 -49v97q0 10 10 10z
" />
    <glyph glyph-name="plus" unicode="+" 
d="M250 477h32q10 0 10 -10v-160q0 -6 6 -6h158q10 0 10 -10v-30q0 -10 -10 -10h-158q-6 0 -6 -6v-160q0 -10 -10 -10h-32q-10 0 -10 10v160q0 6 -6 6h-158q-10 0 -10 10v30q0 10 10 10h158q6 0 6 6v160q0 10 10 10z" />
    <glyph glyph-name="comma" unicode="," horiz-adv-x="213" 
d="M85 87h43q10 0 10 -10v-75q0 -12 -5 -22l-39 -77q-4 -8 -12 -8q-7 0 -7 9v173q0 10 10 10z" />
    <glyph glyph-name="hyphen" unicode="-" horiz-adv-x="374" 
d="M59 292h256q10 0 10 -10v-31q0 -10 -10 -10h-256q-10 0 -10 10v31q0 10 10 10z" />
    <glyph glyph-name="period" unicode="." horiz-adv-x="219" 
d="M85 87h49q10 0 10 -10v-67q0 -10 -10 -10h-49q-10 0 -10 10v67q0 10 10 10z" />
    <glyph glyph-name="slash" unicode="/" horiz-adv-x="407" 
d="M302 690h30q10 0 7 -10l-221 -680q-3 -10 -13 -10h-30q-10 0 -7 10l221 680q3 10 13 10z" />
    <glyph glyph-name="zero" unicode="0" 
d="M266 690q65 0 110.5 -31.5t64.5 -90.5q15 -45 15 -228t-15 -228q-19 -59 -64.5 -90.5t-110.5 -31.5t-110.5 31.5t-64.5 90.5q-15 45 -15 228t15 228q19 59 64.5 90.5t110.5 31.5zM266 639q-94 0 -122 -83q-14 -44 -14 -216t14 -216q28 -83 122 -83t122 83q14 44 14 216
t-14 216q-28 83 -122 83z" />
    <glyph glyph-name="one" unicode="1" 
d="M276 680h32q10 0 10 -10v-614q0 -6 6 -6h122q10 0 10 -10v-30q0 -10 -10 -10h-311q-10 0 -10 10v30q0 10 10 10h123q6 0 6 6v553h-2l-126 -88q-4 -3 -7.5 -1.5t-3.5 7.5v41q0 9 7 15l129 91q7 6 15 6z" />
    <glyph glyph-name="two" unicode="2" 
d="M261 690q85 0 134 -48t49 -129q0 -77 -68 -166l-226 -295v-1h245q6 0 6 6v76q0 10 10 10h33q10 0 10 -10v-123q0 -10 -10 -10h-355q-10 0 -10 10v27q0 7 4 12l251 329q56 74 56 134q0 58 -35 92t-95 34q-65 0 -110 -31q-5 -4 -5 -10v-79q0 -10 -10 -10h-33q-10 0 -10 10
v104q0 9 8 16q69 52 161 52z" />
    <glyph glyph-name="three" unicode="3" 
d="M261 690q85 0 134 -48.5t49 -129.5q0 -101 -92 -153v-2q43 -18 74.5 -61t31.5 -111q0 -89 -53.5 -142t-143.5 -53q-101 0 -164 50q-8 7 -8 16v102q0 10 10 10h33q10 0 10 -10v-74q0 -6 5 -10q44 -32 114 -32q67 0 105 39t38 104q0 62 -40 102.5t-104 40.5h-30
q-10 0 -10 10v32q0 10 10 10h30q58 0 93.5 36.5t35.5 94.5q0 59 -34 93t-96 34q-71 0 -112 -32q-5 -4 -5 -10v-74q0 -10 -10 -10h-33q-10 0 -10 10v100q0 9 8 16q67 52 164 52z" />
    <glyph glyph-name="four" unicode="4" 
d="M293 680h37q11 0 7 -9l-219 -482v-1h210q6 0 6 6v186q0 10 10 10h34q10 0 10 -10v-186q0 -6 6 -6h75q10 0 10 -10v-32q0 -10 -10 -10h-75q-6 0 -6 -6v-120q0 -10 -10 -10h-34q-10 0 -10 10v120q0 6 -6 6h-261q-10 0 -10 10v30q0 3 2 11l221 485q4 8 13 8z" />
    <glyph glyph-name="five" unicode="5" 
d="M117 680h319q10 0 10 -10v-32q0 -10 -10 -10h-271q-6 0 -6 -6v-235h2q14 24 46.5 41.5t76.5 17.5q123 0 158 -105q15 -48 15 -121q0 -69 -14 -111q-39 -119 -187 -119q-94 0 -155 45q-6 5 -6 16v100q0 10 10 10h33q10 0 10 -10v-71q0 -7 4 -10q35 -28 104 -28
q105 0 134 82q13 36 13 96q0 61 -12 100q-25 74 -113 74q-46 0 -76.5 -23t-41.5 -58q-3 -10 -11 -10h-32q-10 0 -10 10v357q0 10 10 10z" />
    <glyph glyph-name="six" unicode="6" 
d="M294 680h37q11 0 6 -9l-153 -295l2 -1q29 24 88 24q83 0 137 -55.5t54 -146.5q0 -94 -55.5 -150.5t-142.5 -56.5q-88 0 -143.5 56t-55.5 149q0 70 44 153l169 325q4 7 13 7zM267 347q-64 0 -104.5 -42.5t-40.5 -110.5t40.5 -110t104.5 -42t104 42.5t40 109.5
q0 68 -40 110.5t-104 42.5z" />
    <glyph glyph-name="seven" unicode="7" 
d="M104 680h344q10 0 10 -10v-37q0 -4 -2 -10l-244 -614q-4 -9 -13 -9h-37q-10 0 -5 11l243 614v3h-246q-6 0 -6 -6v-93q0 -10 -10 -10h-34q-10 0 -10 10v141q0 10 10 10z" />
    <glyph glyph-name="eight" unicode="8" 
d="M266 690q81 0 131.5 -51t50.5 -128q0 -52 -25 -92t-66 -60v-2q50 -21 79.5 -66.5t29.5 -106.5q0 -85 -56 -139.5t-144 -54.5t-144 54.5t-56 139.5q0 61 29.5 106.5t79.5 66.5v2q-41 20 -66 60t-25 92q0 77 50.5 128t131.5 51zM266 638q-57 0 -92.5 -36t-35.5 -91t35 -91
t93 -36q57 0 92.5 36t35.5 91t-35.5 91t-92.5 36zM266 332q-65 0 -105.5 -41t-40.5 -105q0 -63 40 -103.5t106 -40.5t106 40.5t40 103.5q0 64 -40.5 105t-105.5 41z" />
    <glyph glyph-name="nine" unicode="9" 
d="M265 690q88 0 143.5 -56t55.5 -149q0 -70 -44 -153l-169 -325q-4 -7 -13 -7h-37q-11 0 -6 9l153 295l-2 1q-29 -24 -88 -24q-83 0 -137 55.5t-54 146.5q0 94 55.5 150.5t142.5 56.5zM265 638q-64 0 -104 -42.5t-40 -109.5q0 -68 40 -110.5t104 -42.5t104.5 42.5
t40.5 110.5t-40.5 110t-104.5 42z" />
    <glyph glyph-name="colon" unicode=":" horiz-adv-x="227" 
d="M89 477h49q10 0 10 -10v-68q0 -10 -10 -10h-49q-10 0 -10 10v68q0 10 10 10zM89 87h49q10 0 10 -10v-67q0 -10 -10 -10h-49q-10 0 -10 10v67q0 10 10 10z" />
    <glyph glyph-name="semicolon" unicode=";" horiz-adv-x="227" 
d="M89 477h49q10 0 10 -10v-68q0 -10 -10 -10h-49q-10 0 -10 10v68q0 10 10 10zM92 87h43q10 0 10 -10v-75q0 -12 -5 -22l-39 -77q-4 -8 -12 -8q-7 0 -7 9v173q0 10 10 10z" />
    <glyph glyph-name="less" unicode="&#x3c;" 
d="M76 302l380 155q10 3 10 -7v-35q0 -9 -10 -13l-316 -125v-2l316 -125q10 -4 10 -13v-35q0 -10 -10 -7l-380 155q-10 4 -10 13v26q0 9 10 13z" />
    <glyph glyph-name="equal" unicode="=" 
d="M76 398h380q10 0 10 -10v-30q0 -10 -10 -10h-380q-10 0 -10 10v30q0 10 10 10zM76 204h380q10 0 10 -10v-30q0 -10 -10 -10h-380q-10 0 -10 10v30q0 10 10 10z" />
    <glyph glyph-name="greater" unicode="&#x3e;" 
d="M76 457l380 -155q10 -4 10 -13v-26q0 -9 -10 -13l-380 -155q-10 -3 -10 7v35q0 9 10 13l316 125v2l-316 125q-10 4 -10 13v35q0 10 10 7z" />
    <glyph glyph-name="question" unicode="?" horiz-adv-x="446" 
d="M224 690q81 0 128 -46t47 -119q0 -39 -13 -68.5t-48 -76.5l-55 -73q-20 -26 -26 -42.5t-6 -45.5v-35q0 -10 -10 -10h-35q-10 0 -10 10v39q0 57 32 98l57 74q35 47 47 73t12 57q0 54 -33.5 83.5t-88.5 29.5q-61 0 -105 -29q-6 -4 -6 -10v-74q0 -10 -10 -10h-32
q-10 0 -10 10v99q0 9 8 15q67 51 157 51zM198 87h50q10 0 10 -10v-67q0 -10 -10 -10h-50q-10 0 -10 10v67q0 10 10 10z" />
    <glyph glyph-name="at" unicode="@" horiz-adv-x="884" 
d="M442 660q173 0 283.5 -108.5t110.5 -278.5q0 -109 -43.5 -163t-112.5 -54q-43 0 -74.5 21t-44.5 57h-1q-35 -78 -138 -78q-107 0 -140 100q-13 42 -13 106t13 106q33 100 139 100q88 0 122 -59h2v39q0 10 10 10h90q10 0 10 -10v-26q0 -10 -10 -10h-46q-6 0 -6 -6v-203
q0 -49 25.5 -75t62.5 -26q46 0 76 40t30 131q0 152 -95 246.5t-250 94.5t-249.5 -95.5t-94.5 -251.5t94.5 -252t249.5 -96q128 0 217 47q11 5 15 -3l10 -23q3 -8 -5 -13q-95 -54 -237 -54q-174 0 -283.5 109.5t-109.5 284.5q0 174 109.5 283.5t283.5 109.5zM431 421
q-80 0 -103 -71q-10 -30 -10 -88q0 -57 10 -88q23 -71 103 -71q79 0 104 71q10 31 10 88q0 58 -10 88q-24 71 -104 71z" />
    <glyph glyph-name="A" unicode="A" horiz-adv-x="618" 
d="M290 680h41q9 0 12 -10l218 -614q1 -6 8 -6h35q10 0 10 -10v-30q0 -10 -10 -10h-165q-10 0 -10 10v30q0 10 10 10h56q8 0 5 7l-52 147h-278l-52 -147q-3 -7 5 -7h56q10 0 10 -10v-30q0 -10 -10 -10h-165q-10 0 -10 10v30q0 10 10 10h36q6 0 8 6l220 614q3 10 12 10z
M309 595l-120 -337h240l-118 337h-2z" />
    <glyph glyph-name="B" unicode="B" horiz-adv-x="610" 
d="M53 680h293q95 0 146 -47t51 -129q0 -121 -105 -153v-2q44 -9 80 -51.5t36 -110.5q0 -88 -54.5 -137.5t-153.5 -49.5h-293q-10 0 -10 10v30q0 10 10 10h60q6 0 6 6v568q0 6 -6 6h-60q-10 0 -10 10v30q0 10 10 10zM345 628h-164q-6 0 -6 -6v-243q0 -6 6 -6h164
q67 0 104 34.5t37 91.5q0 60 -36.5 94.5t-104.5 34.5zM350 319h-169q-6 0 -6 -6v-255q0 -6 6 -6h169q71 0 109 36t38 98q0 61 -38 97t-109 36z" />
    <glyph glyph-name="C" unicode="C" horiz-adv-x="578" 
d="M314 690q120 0 193 -55q8 -6 8 -16v-105q0 -10 -10 -10h-34q-10 0 -10 10v75q0 6 -5 10q-52 37 -139 37q-137 0 -176 -114q-18 -54 -18 -182q0 -133 16 -183q38 -113 180 -113q92 0 137 32q5 3 5 10v78q0 10 10 10h34q10 0 10 -10v-106q0 -10 -7 -16q-70 -52 -192 -52
q-185 0 -233 149q-18 56 -18 201q0 135 20 197q49 153 229 153z" />
    <glyph glyph-name="D" unicode="D" horiz-adv-x="642" 
d="M53 680h280q172 0 217 -138q18 -55 18 -202t-18 -202q-45 -138 -217 -138h-280q-10 0 -10 10v30q0 10 10 10h60q6 0 6 6v568q0 6 -6 6h-60q-10 0 -10 10v30q0 10 10 10zM324 626h-142q-6 0 -6 -6v-560q0 -6 6 -6h142q137 0 171 102q16 48 16 184t-16 184
q-34 102 -171 102z" />
    <glyph glyph-name="E" unicode="E" horiz-adv-x="582" 
d="M53 680h459q10 0 10 -10v-117q0 -10 -10 -10h-34q-10 0 -10 10v67q0 6 -6 6h-280q-6 0 -6 -6v-242q0 -6 6 -6h220q6 0 6 6v51q0 10 10 10h34q10 0 10 -10v-168q0 -10 -10 -10h-34q-10 0 -10 10v51q0 6 -6 6h-220q-6 0 -6 -6v-252q0 -6 6 -6h280q6 0 6 6v70q0 10 10 10h34
q10 0 10 -10v-120q0 -10 -10 -10h-459q-10 0 -10 10v30q0 10 10 10h60q6 0 6 6v568q0 6 -6 6h-60q-10 0 -10 10v30q0 10 10 10z" />
    <glyph glyph-name="F" unicode="F" horiz-adv-x="572" 
d="M53 680h459q10 0 10 -10v-118q0 -10 -10 -10h-34q-10 0 -10 10v68q0 6 -6 6h-280q-6 0 -6 -6v-249q0 -6 6 -6h220q6 0 6 6v51q0 10 10 10h34q10 0 10 -10v-168q0 -10 -10 -10h-34q-10 0 -10 10v51q0 6 -6 6h-220q-6 0 -6 -6v-249q0 -6 6 -6h63q10 0 10 -10v-30
q0 -10 -10 -10h-192q-10 0 -10 10v30q0 10 10 10h60q6 0 6 6v568q0 6 -6 6h-60q-10 0 -10 10v30q0 10 10 10z" />
    <glyph glyph-name="G" unicode="G" horiz-adv-x="615" 
d="M325 690q122 0 197 -61q7 -6 7 -16v-97q0 -10 -10 -10h-34q-10 0 -10 10v68q0 7 -5 11q-52 41 -146 41q-143 0 -183 -117q-18 -52 -18 -181q0 -132 16 -180q39 -114 180 -114q94 0 151 36q6 4 6 11v196q0 6 -6 6h-145q-10 0 -10 10v33q0 10 10 10h197q10 0 10 -10v-272
q0 -10 -7 -15q-77 -59 -206 -59q-187 0 -236 151q-18 56 -18 197q0 135 20 197q51 155 240 155z" />
    <glyph glyph-name="H" unicode="H" horiz-adv-x="692" 
d="M450 680h189q10 0 10 -10v-30q0 -10 -10 -10h-60q-6 0 -6 -6v-568q0 -6 6 -6h60q10 0 10 -10v-30q0 -10 -10 -10h-189q-10 0 -10 10v30q0 10 10 10h60q6 0 6 6v256q0 6 -6 6h-328q-6 0 -6 -6v-256q0 -6 6 -6h60q10 0 10 -10v-30q0 -10 -10 -10h-189q-10 0 -10 10v30
q0 10 10 10h60q6 0 6 6v568q0 6 -6 6h-60q-10 0 -10 10v30q0 10 10 10h189q10 0 10 -10v-30q0 -10 -10 -10h-60q-6 0 -6 -6v-246q0 -6 6 -6h328q6 0 6 6v246q0 6 -6 6h-60q-10 0 -10 10v30q0 10 10 10z" />
    <glyph glyph-name="I" unicode="I" horiz-adv-x="295" 
d="M53 680h189q10 0 10 -10v-30q0 -10 -10 -10h-60q-6 0 -6 -6v-568q0 -6 6 -6h60q10 0 10 -10v-30q0 -10 -10 -10h-189q-10 0 -10 10v30q0 10 10 10h60q6 0 6 6v568q0 6 -6 6h-60q-10 0 -10 10v30q0 10 10 10z" />
    <glyph glyph-name="J" unicode="J" horiz-adv-x="500" 
d="M260 680h190q10 0 10 -10v-30q0 -10 -10 -10h-58q-6 0 -6 -6v-421q0 -106 -52.5 -159.5t-143.5 -53.5q-88 0 -145 39q-6 5 -6 11v119q0 10 10 10h34q10 0 10 -10v-83q0 -8 5 -10q37 -22 93 -22q138 0 138 160v420q0 6 -6 6h-63q-10 0 -10 10v30q0 10 10 10z" />
    <glyph glyph-name="K" unicode="K" horiz-adv-x="638" 
d="M418 680h177q10 0 10 -10v-30q0 -10 -10 -10h-50q-6 0 -11 -6l-182 -209l189 -359q4 -6 9 -6h66q10 0 10 -10v-30q0 -10 -10 -10h-101q-9 0 -13 8l-190 361l-136 -156v-157q0 -6 6 -6h60q10 0 10 -10v-30q0 -10 -10 -10h-189q-10 0 -10 10v30q0 10 10 10h60q6 0 6 6v568
q0 6 -6 6h-60q-10 0 -10 10v30q0 10 10 10h189q10 0 10 -10v-30q0 -10 -10 -10h-60q-6 0 -6 -6v-331l291 331q4 6 -3 6h-46q-10 0 -10 10v30q0 10 10 10z" />
    <glyph glyph-name="L" unicode="L" horiz-adv-x="549" 
d="M53 680h189q10 0 10 -10v-30q0 -10 -10 -10h-60q-6 0 -6 -6v-564q0 -6 6 -6h277q6 0 6 6v70q0 10 10 10h34q10 0 10 -10v-120q0 -10 -10 -10h-456q-10 0 -10 10v30q0 10 10 10h60q6 0 6 6v568q0 6 -6 6h-60q-10 0 -10 10v30q0 10 10 10z" />
    <glyph glyph-name="M" unicode="M" horiz-adv-x="800" 
d="M632 680h115q10 0 10 -10v-30q0 -10 -10 -10h-60q-6 0 -6 -6v-568q0 -6 6 -6h60q10 0 10 -10v-30q0 -10 -10 -10h-189q-10 0 -10 10v30q0 10 10 10h60q6 0 6 6v486h-4l-192 -431q-6 -11 -18 -11h-20q-12 0 -18 11l-193 431h-3v-486q0 -6 6 -6h58q10 0 10 -10v-30
q0 -10 -10 -10h-187q-10 0 -10 10v30q0 10 10 10h60q6 0 6 6v568q0 6 -6 6h-60q-10 0 -10 10v30q0 10 10 10h115q10 0 14 -10l217 -490h4l215 490q4 10 14 10z" />
    <glyph glyph-name="N" unicode="N" horiz-adv-x="695" 
d="M453 680h189q10 0 10 -10v-30q0 -10 -10 -10h-60q-6 0 -6 -6v-614q0 -10 -10 -10h-39q-11 0 -17 10l-331 561h-3v-515q0 -6 6 -6h60q10 0 10 -10v-30q0 -10 -10 -10h-189q-10 0 -10 10v30q0 10 10 10h60q6 0 6 6v568q0 6 -6 6h-60q-10 0 -10 10v30q0 10 10 10h113
q12 0 17 -10l332 -559h4v513q0 6 -6 6h-60q-10 0 -10 10v30q0 10 10 10z" />
    <glyph glyph-name="O" unicode="O" horiz-adv-x="609" 
d="M305 690q169 0 219 -153q20 -60 20 -197t-20 -197q-50 -153 -219 -153q-170 0 -220 153q-20 60 -20 197t20 197q50 153 220 153zM305 636q-127 0 -165 -115q-17 -51 -17 -181t17 -181q38 -115 165 -115q126 0 164 115q17 51 17 181t-17 181q-38 115 -164 115z" />
    <glyph glyph-name="P" unicode="P" horiz-adv-x="597" 
d="M53 680h297q97 0 153 -52t56 -141t-56 -140.5t-153 -51.5h-168q-6 0 -6 -6v-233q0 -6 6 -6h64q10 0 10 -10v-30q0 -10 -10 -10h-193q-10 0 -10 10v30q0 10 10 10h60q6 0 6 6v568q0 6 -6 6h-60q-10 0 -10 10v30q0 10 10 10zM348 626h-166q-6 0 -6 -6v-265q0 -6 6 -6h166
q74 0 114 36t40 102t-40 102.5t-114 36.5z" />
    <glyph glyph-name="Q" unicode="Q" horiz-adv-x="610" 
d="M305 690q169 0 219 -153q20 -60 20 -197t-20 -197q-11 -34 -32 -65l69 -72q7 -8 0 -15l-25 -24q-7 -7 -14 1l-66 71q-60 -49 -151 -49q-170 0 -220 153q-20 60 -20 197t20 197q50 153 220 153zM305 636q-127 0 -165 -115q-17 -51 -17 -181t17 -181q38 -115 165 -115
q70 0 113 36l-82 88q-7 7 0 14l24 22q8 8 15 0l77 -83q9 15 17 38q17 51 17 181t-17 181q-38 115 -164 115z" />
    <glyph glyph-name="R" unicode="R" horiz-adv-x="634" 
d="M53 680h297q99 0 153.5 -49t54.5 -137q0 -68 -36.5 -114.5t-103.5 -62.5l110 -262q2 -5 8 -5h56q10 0 10 -10v-30q0 -10 -10 -10h-97q-9 0 -13 9l-124 299h-176q-6 0 -6 -6v-246q0 -6 6 -6h60q10 0 10 -10v-30q0 -10 -10 -10h-189q-10 0 -10 10v30q0 10 10 10h60q6 0 6 6
v568q0 6 -6 6h-60q-10 0 -10 10v30q0 10 10 10zM349 626h-167q-6 0 -6 -6v-252q0 -6 6 -6h167q73 0 112.5 35t39.5 98t-39.5 97t-112.5 34z" />
    <glyph glyph-name="S" unicode="S" horiz-adv-x="587" 
d="M298 690q105 0 181 -44q7 -4 7 -11v-106q0 -10 -10 -10h-34q-10 0 -10 10v70q0 8 -6 10q-57 27 -132 27q-76 0 -116 -34t-40 -93q0 -56 34 -87t119 -44l40 -6q99 -15 145.5 -61t46.5 -126q0 -90 -60.5 -142.5t-176.5 -52.5q-118 0 -207 56q-5 3 -5 10v108q0 10 10 10h34
q10 0 10 -10v-73q0 -7 5 -9q73 -38 159 -38q82 0 127.5 36t45.5 101q0 57 -34.5 90.5t-122.5 46.5l-35 5q-100 14 -146.5 59t-46.5 123q0 88 57.5 136.5t160.5 48.5z" />
    <glyph glyph-name="T" unicode="T" horiz-adv-x="573" 
d="M35 680h503q10 0 10 -10v-118q0 -10 -10 -10h-34q-10 0 -10 10v69q0 6 -6 6h-167q-6 0 -6 -6v-565q0 -6 6 -6h63q10 0 10 -10v-30q0 -10 -10 -10h-195q-10 0 -10 10v30q0 10 10 10h63q6 0 6 6v565q0 6 -6 6h-167q-6 0 -6 -6v-69q0 -10 -10 -10h-34q-10 0 -10 10v118
q0 10 10 10z" />
    <glyph glyph-name="U" unicode="U" horiz-adv-x="665" 
d="M439 680h186q10 0 10 -10v-30q0 -10 -10 -10h-58q-6 0 -6 -6v-389q0 -119 -60 -182t-169 -63q-108 0 -168 62.5t-60 182.5v389q0 6 -6 6h-58q-10 0 -10 10v30q0 10 10 10h186q10 0 10 -10v-30q0 -10 -10 -10h-59q-6 0 -6 -6v-389q0 -94 44.5 -142.5t126.5 -48.5
q83 0 127.5 48.5t44.5 142.5v389q0 6 -6 6h-59q-10 0 -10 10v30q0 10 10 10z" />
    <glyph glyph-name="V" unicode="V" horiz-adv-x="605" 
d="M419 680h169q10 0 10 -10v-30q0 -10 -10 -10h-33q-5 0 -7 -6l-214 -614q-3 -10 -11 -10h-40q-9 0 -12 10l-214 615q-2 5 -8 5h-32q-10 0 -10 10v30q0 10 10 10h169q10 0 10 -10v-30q0 -10 -10 -10h-64q-8 0 -5 -8l186 -538h2l185 540q2 6 -5 6h-66q-10 0 -10 10v30
q0 10 10 10z" />
    <glyph glyph-name="W" unicode="W" horiz-adv-x="863" 
d="M674 680h168q10 0 10 -10v-30q0 -10 -10 -10h-33q-7 0 -8 -6l-150 -614q-2 -10 -12 -10h-35q-8 0 -11 10l-160 561h-2l-161 -561q-3 -10 -11 -10h-35q-9 0 -12 10l-151 615q-2 5 -8 5h-32q-10 0 -10 10v30q0 10 10 10h167q10 0 10 -10v-30q0 -10 -10 -10h-61q-8 0 -6 -8
l123 -515h2l156 563q3 10 12 10h35q9 0 12 -10l159 -561h2l123 514q2 7 -5 7h-66q-10 0 -10 10v30q0 10 10 10z" />
    <glyph glyph-name="X" unicode="X" horiz-adv-x="584" 
d="M372 680h168q10 0 10 -10v-30q0 -10 -10 -10h-31q-5 0 -10 -6l-172 -268l192 -300q5 -6 10 -6h33q10 0 10 -10v-30q0 -10 -10 -10h-169q-10 0 -10 10v30q0 10 10 10h58q7 0 4 7l-163 255h-1l-162 -254q-5 -8 4 -8h58q10 0 10 -10v-30q0 -10 -10 -10h-169q-10 0 -10 10v30
q0 10 10 10h32q7 0 10 5l193 301l-173 269q-3 5 -9 5h-31q-10 0 -10 10v30q0 10 10 10h169q10 0 10 -10v-30q0 -10 -10 -10h-59q-9 0 -4 -8l142 -222h1l142 223q3 7 -4 7h-59q-10 0 -10 10v30q0 10 10 10z" />
    <glyph glyph-name="Y" unicode="Y" horiz-adv-x="545" 
d="M360 680h168q10 0 10 -10v-30q0 -10 -10 -10h-32q-5 0 -9 -6l-186 -345v-223q0 -6 6 -6h62q10 0 10 -10v-30q0 -10 -10 -10h-193q-10 0 -10 10v30q0 10 10 10h62q6 0 6 6v223l-187 344q-3 7 -9 7h-31q-10 0 -10 10v30q0 10 10 10h168q10 0 10 -10v-30q0 -10 -10 -10h-58
q-9 0 -5 -8l151 -281h2l151 282q4 7 -5 7h-61q-10 0 -10 10v30q0 10 10 10z" />
    <glyph glyph-name="Z" unicode="Z" horiz-adv-x="540" 
d="M69 680h414q10 0 10 -10v-34q0 -6 -4 -13l-377 -568v-1h321q6 0 6 6v70q0 10 10 10h34q10 0 10 -10v-120q0 -10 -10 -10h-428q-10 0 -10 10v34q0 8 5 14l376 567v1h-307q-6 0 -6 -6v-68q0 -10 -10 -10h-34q-10 0 -10 10v118q0 10 10 10z" />
    <glyph glyph-name="bracketleft" unicode="[" horiz-adv-x="283" 
d="M110 740h119q10 0 10 -10v-27q0 -10 -10 -10h-71q-6 0 -6 -6v-718q0 -6 6 -6h71q10 0 10 -10v-27q0 -10 -10 -10h-119q-10 0 -10 10v804q0 10 10 10z" />
    <glyph glyph-name="backslash" unicode="\" horiz-adv-x="407" 
d="M75 690h30q10 0 13 -10l221 -680q3 -10 -7 -10h-30q-10 0 -13 10l-221 680q-3 10 7 10z" />
    <glyph glyph-name="bracketright" unicode="]" horiz-adv-x="283" 
d="M54 740h119q10 0 10 -10v-804q0 -10 -10 -10h-119q-10 0 -10 10v27q0 10 10 10h71q6 0 6 6v718q0 6 -6 6h-71q-10 0 -10 10v27q0 10 10 10z" />
    <glyph glyph-name="asciicircum" unicode="^" 
d="M254 680h24q9 0 14 -10l172 -378q5 -10 -6 -10h-32q-9 0 -13 10l-146 318h-2l-147 -318q-4 -10 -13 -10h-31q-12 0 -7 10l173 378q5 10 14 10z" />
    <glyph glyph-name="underscore" unicode="_" horiz-adv-x="459" 
d="M459 -123h-459v41h459v-41z" />
    <glyph glyph-name="grave" unicode="`" horiz-adv-x="421" 
d="M147 700h38q10 0 16 -10l77 -122q7 -10 -5 -10h-25q-11 0 -18 10l-88 122q-3 4 -1.5 7t6.5 3z" />
    <glyph glyph-name="a" unicode="a" horiz-adv-x="518" 
d="M243 487q91 0 130.5 -35.5t39.5 -122.5v-273q0 -6 6 -6h56q10 0 10 -10v-30q0 -10 -10 -10h-104q-10 0 -10 10v50h-1q-15 -32 -52.5 -51t-93.5 -19q-74 0 -117 36.5t-43 104.5q0 141 181 141h119q6 0 6 6v48q0 61 -26 86.5t-93 25.5q-57 0 -96 -18q-5 -2 -5 -7v-59
q0 -10 -10 -10h-33q-10 0 -10 10v86q0 9 7 13q60 34 149 34zM354 226h-112q-135 0 -135 -94q0 -45 30.5 -69t87.5 -24q62 0 98.5 29.5t36.5 78.5v73q0 6 -6 6z" />
    <glyph glyph-name="b" unicode="b" horiz-adv-x="551" 
d="M53 680h106q10 0 10 -10v-261h1q40 78 144 78q126 0 163 -114q17 -55 17 -135q0 -79 -17 -134q-37 -114 -163 -114q-104 0 -144 78h-1v-58q0 -10 -10 -10h-106q-10 0 -10 10v30q0 10 10 10h56q6 0 6 6v568q0 6 -6 6h-56q-10 0 -10 10v30q0 10 10 10zM304 435
q-95 0 -122 -84q-13 -38 -13 -113q0 -74 13 -112q27 -84 122 -84q94 0 122 84q13 39 13 112q0 74 -13 113q-28 84 -122 84z" />
    <glyph glyph-name="c" unicode="c" horiz-adv-x="474" 
d="M258 487q92 0 146 -36q7 -6 7 -12v-92q0 -10 -10 -10h-33q-10 0 -10 10v61q0 4 -4 7q-33 20 -95 20q-105 0 -134 -90q-13 -38 -13 -107q0 -70 13 -108q29 -88 134 -88q63 0 95 18q4 3 4 7v59q0 10 10 10h33q10 0 10 -10v-90q0 -8 -8 -12q-57 -34 -145 -34
q-146 0 -186 122q-15 48 -15 126q0 75 15 125q19 59 67 91.5t119 32.5z" />
    <glyph glyph-name="d" unicode="d" horiz-adv-x="551" 
d="M320 680h106q10 0 10 -10v-614q0 -6 6 -6h56q10 0 10 -10v-30q0 -10 -10 -10h-106q-10 0 -10 10v58h-1q-40 -78 -144 -78q-125 0 -163 114q-17 51 -17 134q0 84 17 135q38 114 161 114q107 0 146 -78h1v215q0 6 -6 6h-56q-10 0 -10 10v30q0 10 10 10zM247 435
q-94 0 -122 -84q-13 -39 -13 -113q0 -73 13 -112q28 -84 122 -84q95 0 122 84q13 38 13 112q0 75 -13 113q-27 84 -122 84z" />
    <glyph glyph-name="e" unicode="e" horiz-adv-x="496" 
d="M248 487q66 0 112.5 -32t65.5 -92q14 -42 14 -127q0 -10 -11 -10h-311q-6 0 -6 -7q0 -54 10 -84q32 -93 135 -93q84 0 133 61q6 8 14 2l23 -21q7 -6 1 -14q-60 -80 -174 -80q-142 0 -183 126q-14 41 -14 123q0 79 14 124q19 60 65.5 92t111.5 32zM248 437q-98 0 -127 -90
q-9 -29 -9 -69q0 -6 6 -6h261q6 0 6 6q0 40 -9 69q-29 90 -128 90z" />
    <glyph glyph-name="f" unicode="f" horiz-adv-x="312" 
d="M246 680h28q10 0 10 -10v-30q0 -10 -10 -10h-22q-54 0 -69.5 -16.5t-15.5 -71.5v-59q0 -6 6 -6h101q10 0 10 -10v-30q0 -10 -10 -10h-101q-6 0 -6 -6v-365q0 -6 6 -6h61q10 0 10 -10v-30q0 -10 -10 -10h-181q-10 0 -10 10v30q0 10 10 10h54q6 0 6 6v365q0 6 -6 6h-51
q-10 0 -10 10v30q0 10 10 10h51q6 0 6 6v51q0 84 29.5 115t103.5 31z" />
    <glyph glyph-name="g" unicode="g" horiz-adv-x="541" 
d="M232 487q103 0 141 -79h1v59q0 10 10 10h106q10 0 10 -10v-30q0 -10 -10 -10h-56q-6 0 -6 -6v-412q0 -98 -50 -148.5t-141 -50.5q-51 0 -94 19.5t-64 49.5q-5 8 2 14l24 21q8 8 15 -1q44 -51 118 -51q136 0 136 145v69h-1q-38 -78 -141 -78q-122 0 -159 114
q-16 49 -16 130t16 130q38 115 159 115zM243 435q-89 0 -117 -83q-14 -39 -14 -110q0 -67 14 -109q29 -84 117 -84q91 0 119 84q12 36 12 109t-12 109q-28 84 -119 84z" />
    <glyph glyph-name="h" unicode="h" horiz-adv-x="581" 
d="M53 680h106q10 0 10 -10v-260h1q38 77 138 77q79 0 122 -47.5t43 -134.5v-249q0 -6 6 -6h55q10 0 10 -10v-30q0 -10 -10 -10h-177q-10 0 -10 10v30q0 10 10 10h56q6 0 6 6v236q0 143 -123 143q-55 0 -91 -36t-36 -97v-246q0 -6 6 -6h56q10 0 10 -10v-30q0 -10 -10 -10
h-178q-10 0 -10 10v30q0 10 10 10h56q6 0 6 6v568q0 6 -6 6h-56q-10 0 -10 10v30q0 10 10 10z" />
    <glyph glyph-name="uni0069" unicode="i" horiz-adv-x="281" 
d="M120 680h44q10 0 10 -10v-56q0 -10 -10 -10h-44q-10 0 -10 10v56q0 10 10 10zM53 477h106q10 0 10 -10v-411q0 -6 6 -6h56q10 0 10 -10v-30q0 -10 -10 -10h-178q-10 0 -10 10v30q0 10 10 10h56q6 0 6 6v365q0 6 -6 6h-56q-10 0 -10 10v30q0 10 10 10z" />
    <glyph glyph-name="j" unicode="j" horiz-adv-x="276" 
d="M120 680h44q10 0 10 -10v-56q0 -10 -10 -10h-44q-10 0 -10 10v56q0 10 10 10zM53 477h106q10 0 10 -10v-522q0 -69 -28.5 -97t-94.5 -28h-11q-10 0 -10 10v30q0 10 10 10h9q41 0 56 15t15 59v477q0 6 -6 6h-56q-10 0 -10 10v30q0 10 10 10z" />
    <glyph glyph-name="k" unicode="k" horiz-adv-x="537" 
d="M53 680h106q10 0 10 -10v-454l214 252q7 9 17 9h76q10 0 10 -10v-30q0 -10 -10 -10h-58q-6 0 -11 -6l-101 -120l146 -245q4 -6 11 -6h52q10 0 10 -10v-30q0 -10 -10 -10h-81q-10 0 -17 10l-147 249l-101 -119v-84q0 -6 6 -6h56q10 0 10 -10v-30q0 -10 -10 -10h-178
q-10 0 -10 10v30q0 10 10 10h56q6 0 6 6v568q0 6 -6 6h-56q-10 0 -10 10v30q0 10 10 10z" />
    <glyph glyph-name="l" unicode="l" horiz-adv-x="275" 
d="M38 680h106q10 0 10 -10v-559q0 -35 11.5 -48.5t39.5 -13.5h17q10 0 10 -10v-31q0 -10 -10 -10h-23q-53 0 -76 26.5t-23 85.5v514q0 6 -6 6h-56q-10 0 -10 10v30q0 10 10 10z" />
    <glyph glyph-name="m" unicode="m" horiz-adv-x="885" 
d="M610 487q81 0 124 -47.5t43 -134.5v-249q0 -6 6 -6h55q10 0 10 -10v-30q0 -10 -10 -10h-177q-10 0 -10 10v30q0 10 10 10h56q6 0 6 6v236q0 143 -123 143q-55 0 -91 -36t-36 -97v-246q0 -6 6 -6h56q10 0 10 -10v-30q0 -10 -10 -10h-178q-10 0 -10 10v30q0 10 10 10h56
q6 0 6 6v236q0 143 -123 143q-55 0 -91 -36t-36 -97v-246q0 -6 6 -6h56q10 0 10 -10v-30q0 -10 -10 -10h-178q-10 0 -10 10v30q0 10 10 10h56q6 0 6 6v365q0 6 -6 6h-56q-10 0 -10 10v30q0 10 10 10h106q10 0 10 -10v-57h1q38 77 138 77q110 0 147 -90h1q45 90 154 90z" />
    <glyph glyph-name="n" unicode="n" horiz-adv-x="581" 
d="M308 487q79 0 122 -47.5t43 -134.5v-249q0 -6 6 -6h55q10 0 10 -10v-30q0 -10 -10 -10h-177q-10 0 -10 10v30q0 10 10 10h56q6 0 6 6v236q0 143 -123 143q-55 0 -91 -36t-36 -97v-246q0 -6 6 -6h56q10 0 10 -10v-30q0 -10 -10 -10h-178q-10 0 -10 10v30q0 10 10 10h56
q6 0 6 6v365q0 6 -6 6h-56q-10 0 -10 10v30q0 10 10 10h106q10 0 10 -10v-57h1q38 77 138 77z" />
    <glyph glyph-name="o" unicode="o" horiz-adv-x="503" 
d="M251 487q66 0 113 -32.5t66 -91.5q16 -51 16 -124q0 -74 -16 -125q-19 -59 -66 -91.5t-113 -32.5q-65 0 -112 32.5t-66 91.5q-16 51 -16 125q0 73 16 124q19 59 66 91.5t112 32.5zM251 435q-96 0 -126 -89q-13 -39 -13 -107q0 -69 13 -108q30 -89 126 -89q97 0 127 89
q13 39 13 108q0 68 -13 107q-30 89 -127 89z" />
    <glyph glyph-name="p" unicode="p" horiz-adv-x="551" 
d="M314 487q126 0 163 -114q17 -55 17 -135q0 -79 -17 -134q-37 -114 -163 -114q-104 0 -144 78h-1v-192q0 -6 6 -6h56q10 0 10 -10v-30q0 -10 -10 -10h-178q-10 0 -10 10v30q0 10 10 10h56q6 0 6 6v545q0 6 -6 6h-56q-10 0 -10 10v30q0 10 10 10h106q10 0 10 -10v-58h1
q41 78 144 78zM304 435q-95 0 -122 -84q-13 -38 -13 -113q0 -74 13 -112q27 -84 122 -84q94 0 122 84q13 39 13 112q0 74 -13 113q-28 84 -122 84z" />
    <glyph glyph-name="q" unicode="q" horiz-adv-x="551" 
d="M236 487q105 0 145 -78h1v58q0 10 10 10h106q10 0 10 -10v-30q0 -10 -10 -10h-56q-6 0 -6 -6v-545q0 -6 6 -6h56q10 0 10 -10v-30q0 -10 -10 -10h-178q-10 0 -10 10v30q0 10 10 10h56q6 0 6 6v192h-1q-40 -78 -145 -78q-126 0 -162 115q-17 51 -17 133q0 84 17 135
q36 114 162 114zM247 435q-94 0 -122 -84q-13 -39 -13 -113q0 -73 13 -112q28 -84 122 -84q95 0 122 84q13 38 13 112q0 75 -13 113q-27 84 -122 84z" />
    <glyph glyph-name="r" unicode="r" horiz-adv-x="398" 
d="M301 484q38 0 57 -7q9 -3 9 -11v-33q0 -12 -11 -9q-33 7 -60 7q-57 0 -92 -41.5t-35 -121.5v-212q0 -6 6 -6h64q10 0 10 -10v-30q0 -10 -10 -10h-186q-10 0 -10 10v30q0 10 10 10h56q6 0 6 6v365q0 6 -6 6h-56q-10 0 -10 10v30q0 10 10 10h106q10 0 10 -10v-71h1
q16 39 49.5 63.5t81.5 24.5z" />
    <glyph glyph-name="s" unicode="s" horiz-adv-x="473" 
d="M235 487q83 0 147 -31q8 -4 8 -12v-88q0 -10 -10 -10h-32q-10 0 -10 10v56q0 6 -5 8q-40 18 -99 18q-115 0 -115 -82q0 -36 24.5 -55.5t83.5 -26.5l50 -6q140 -17 140 -132q0 -69 -48 -107.5t-137 -38.5q-92 0 -164 40q-6 3 -6 12v92q0 10 10 10h32q10 0 10 -10v-61
q0 -6 4 -9q52 -25 120 -25q61 0 93 24t32 67q0 39 -23.5 59.5t-86.5 27.5l-50 6q-138 17 -138 128q0 64 45 100t125 36z" />
    <glyph glyph-name="t" unicode="t" horiz-adv-x="313" 
d="M117 630h34q10 0 10 -10v-137q0 -6 6 -6h90q10 0 10 -10v-30q0 -10 -10 -10h-90q-6 0 -6 -6v-291q0 -47 17.5 -64t60.5 -17h18q10 0 10 -10v-31q0 -10 -10 -10h-26q-67 0 -95.5 29.5t-28.5 99.5v294q0 6 -6 6h-50q-10 0 -10 10v30q0 10 10 10h50q6 0 6 6v137q0 10 10 10z
" />
    <glyph glyph-name="u" unicode="u" horiz-adv-x="569" 
d="M341 477h106q10 0 10 -10v-411q0 -6 6 -6h56q10 0 10 -10v-30q0 -10 -10 -10h-106q-10 0 -10 10v56h-1q-38 -76 -137 -76q-78 0 -120.5 47t-42.5 134v250q0 6 -6 6h-56q-10 0 -10 10v30q0 10 10 10h106q10 0 10 -10v-282q0 -143 121 -143q55 0 90.5 36t35.5 96v247
q0 6 -6 6h-56q-10 0 -10 10v30q0 10 10 10z" />
    <glyph glyph-name="v" unicode="v" horiz-adv-x="491" 
d="M321 477h148q10 0 10 -10v-30q0 -10 -10 -10h-32q-6 0 -8 -6l-154 -411q-3 -10 -11 -10h-37q-8 0 -11 10l-155 411q-1 6 -7 6h-32q-10 0 -10 10v30q0 10 10 10h152q10 0 10 -10v-30q0 -10 -10 -10h-48q-8 0 -4 -7l125 -343h1l124 343q2 7 -5 7h-46q-10 0 -10 10v30
q0 10 10 10z" />
    <glyph glyph-name="w" unicode="w" horiz-adv-x="751" 
d="M581 477h149q10 0 10 -10v-30q0 -10 -10 -10h-32q-6 0 -8 -6l-134 -411q-3 -10 -12 -10h-30q-9 0 -12 10l-125 379h-2l-126 -379q-3 -10 -12 -10h-30q-9 0 -12 10l-134 411q-1 6 -8 6h-32q-10 0 -10 10v30q0 10 10 10h153q10 0 10 -10v-30q0 -10 -10 -10h-51q-7 0 -5 -7
l106 -336h1l123 383q3 10 12 10h31q9 0 12 -10l126 -382h2l105 335q2 7 -5 7h-50q-10 0 -10 10v30q0 10 10 10z" />
    <glyph glyph-name="x" unicode="x" horiz-adv-x="471" 
d="M356 477h72q10 0 10 -10v-30q0 -10 -10 -10h-45q-6 0 -10 -6l-108 -171l125 -195q4 -5 10 -5h45q10 0 10 -10v-30q0 -10 -10 -10h-73q-10 0 -16 10l-120 191h-1l-123 -193q-5 -8 -14 -8h-71q-10 0 -10 10v30q0 10 10 10h44q7 0 10 5l124 195l-108 172q-3 5 -9 5h-46
q-10 0 -10 10v30q0 10 10 10h73q9 0 14 -8l106 -170h1l106 169q6 9 14 9z" />
    <glyph glyph-name="y" unicode="y" horiz-adv-x="484" 
d="M319 477h148q10 0 10 -10v-30q0 -10 -10 -10h-31q-6 0 -8 -6l-179 -468q-30 -79 -59.5 -106t-77.5 -27h-21q-10 0 -10 10v32q0 10 10 10h18q32 0 51 18t39 71l19 49l-160 411q-2 6 -8 6h-31q-10 0 -10 10v30q0 10 10 10h152q10 0 10 -10v-30q0 -10 -10 -10h-50
q-7 0 -4 -8l127 -338h2l126 338q3 8 -4 8h-49q-10 0 -10 10v30q0 10 10 10z" />
    <glyph glyph-name="z" unicode="z" horiz-adv-x="485" 
d="M78 477h332q10 0 10 -10v-31q0 -5 -5 -13l-292 -372v-1h243q6 0 6 6v65q0 10 10 10h33q10 0 10 -10v-111q0 -10 -10 -10h-350q-10 0 -10 10v29q0 6 5 14l293 373v1h-227q-6 0 -6 -6v-64q0 -10 -10 -10h-32q-10 0 -10 10v110q0 10 10 10z" />
    <glyph glyph-name="braceleft" unicode="{" horiz-adv-x="318" 
d="M230 740h34q10 0 10 -10v-27q0 -10 -10 -10h-26q-49 0 -49 -56v-191q0 -55 -11.5 -79.5t-39.5 -35.5v-2q28 -11 39.5 -35t11.5 -80v-195q0 -56 49 -56h26q10 0 10 -10v-27q0 -10 -10 -10h-34q-48 0 -70 25t-22 80v199q0 81 -57 84q-10 2 -10 10v32q0 8 10 10q57 3 57 84
v195q0 55 22 80t70 25z" />
    <glyph glyph-name="bar" unicode="|" horiz-adv-x="246" 
d="M109 740h28q10 0 10 -10v-804q0 -10 -10 -10h-28q-10 0 -10 10v804q0 10 10 10z" />
    <glyph glyph-name="braceright" unicode="}" horiz-adv-x="318" 
d="M54 740h34q48 0 70 -25t22 -80v-195q0 -81 57 -84q10 -2 10 -10v-32q0 -8 -10 -10q-57 -3 -57 -84v-199q0 -55 -22 -80t-70 -25h-34q-10 0 -10 10v27q0 10 10 10h26q49 0 49 56v195q0 56 11.5 80t39.5 35v2q-28 11 -39.5 35.5t-11.5 79.5v191q0 56 -49 56h-26
q-10 0 -10 10v27q0 10 10 10z" />
    <glyph glyph-name="asciitilde" unicode="~" 
d="M180 334q43 0 98 -39q46 -32 74 -32q46 0 81 57q5 9 15 2l19 -12q8 -5 3 -14q-41 -80 -119 -80q-43 0 -98 39q-46 32 -74 32q-47 0 -81 -57q-5 -8 -14 -2l-20 13q-7 5 -3 14q19 37 50.5 58t68.5 21z" />
    <glyph glyph-name="uni00A0" unicode="&#xa0;" horiz-adv-x="246" 
 />
    <glyph glyph-name="exclamdown" unicode="&#xa1;" horiz-adv-x="266" 
d="M108 477h50q10 0 10 -10v-67q0 -10 -10 -10h-50q-10 0 -10 10v67q0 10 10 10zM121 300h23q10 0 10 -10l8 -483q0 -10 -10 -10h-39q-10 0 -10 10l8 483q0 10 10 10z" />
    <glyph glyph-name="cent" unicode="&#xa2;" 
d="M265 578h18q10 0 10 -10v-81q87 -1 140 -36q6 -5 6 -12v-92q0 -10 -10 -10h-32q-10 0 -10 10v61q0 4 -4 7q-31 18 -90 20v-394q58 0 90 19q4 3 4 7v59q0 10 10 10h32q10 0 10 -10v-90q0 -8 -7 -12q-53 -33 -139 -34v-82q0 -10 -10 -10h-18q-10 0 -10 10v84
q-120 12 -155 120q-16 46 -16 126q0 77 16 125q17 52 57 83.5t98 38.5v83q0 10 10 10zM255 43v389q-79 -12 -103 -87q-13 -38 -13 -107q0 -70 13 -108q24 -73 103 -87z" />
    <glyph glyph-name="sterling" unicode="&#xa3;" 
d="M299 690q80 0 126 -36q7 -6 7 -13v-92q0 -10 -10 -10h-33q-10 0 -10 10v60q0 8 -5 12q-27 18 -75 18q-101 0 -101 -114v-169q0 -6 6 -6h136q10 0 10 -10v-26q0 -10 -10 -10h-136q-6 0 -6 -6v-138q0 -71 -32 -107v-1h241q6 0 6 6v70q0 10 10 10h33q10 0 10 -10v-118
q0 -10 -10 -10h-347q-10 0 -10 10v31q0 6 5 11q23 23 31 43t8 58v145q0 6 -6 6h-50q-10 0 -10 10v26q0 10 10 10h50q6 0 6 6v163q0 82 41 126.5t115 44.5z" />
    <glyph glyph-name="currency" unicode="&#xa4;" 
d="M461 540l20 -22q8 -8 0 -14l-64 -64q38 -51 38 -117t-37 -116l64 -64q6 -8 0 -14l-20 -23q-8 -6 -14 0l-65 65q-51 -38 -116 -38q-66 0 -117 38l-64 -64q-7 -7 -14 0l-20 22q-7 7 0 14l63 63q-37 49 -37 117q0 66 38 117l-64 64q-7 7 0 14l20 22q7 7 14 0l65 -65
q49 38 116 38q64 0 115 -38l65 65q8 8 14 0zM267 466q-60 0 -100 -41.5t-40 -101.5t40 -101.5t100 -41.5t99.5 41t39.5 102t-39.5 102t-99.5 41z" />
    <glyph glyph-name="yen" unicode="&#xa5;" 
d="M331 680h163q10 0 10 -10v-30q0 -10 -10 -10h-34q-6 0 -8 -6l-138 -290v-2h116q10 0 10 -10v-25q0 -10 -10 -10h-132q-6 0 -6 -6v-60q0 -6 6 -6h132q10 0 10 -10v-25q0 -10 -10 -10h-132q-6 0 -6 -6v-108q0 -6 6 -6h62q10 0 10 -10v-30q0 -10 -10 -10h-190q-10 0 -10 10
v30q0 10 10 10h62q6 0 6 6v108q0 6 -6 6h-132q-10 0 -10 10v25q0 10 10 10h132q6 0 6 6v60q0 6 -6 6h-132q-10 0 -10 10v25q0 10 10 10h115v2l-136 290q-3 6 -9 6h-33q-10 0 -10 10v30q0 10 10 10h162q10 0 10 -10v-30q0 -10 -10 -10h-57q-9 0 -5 -8l128 -278h2l130 278
q3 8 -5 8h-61q-10 0 -10 10v30q0 10 10 10z" />
    <glyph glyph-name="brokenbar" unicode="&#xa6;" horiz-adv-x="246" 
d="M109 740h28q10 0 10 -10v-332q0 -10 -10 -10h-28q-10 0 -10 10v332q0 10 10 10zM109 272h28q10 0 10 -10v-336q0 -10 -10 -10h-28q-10 0 -10 10v336q0 10 10 10z" />
    <glyph glyph-name="section" unicode="&#xa7;" horiz-adv-x="530" 
d="M268 690q76 0 132 -37q7 -4 7 -12v-97q0 -10 -10 -10h-30q-10 0 -10 10v65q0 8 -5 12q-36 20 -84 20q-47 0 -74 -24.5t-27 -68.5q0 -48 29 -74.5t102 -42.5q140 -31 140 -178q0 -60 -27.5 -103.5t-78.5 -59.5v-1q90 -37 90 -131q0 -69 -45.5 -108.5t-123.5 -39.5t-137 35
q-7 4 -7 11v101q0 10 10 10h31q10 0 10 -10v-67q0 -8 5 -12q34 -19 89 -19q57 0 86.5 26.5t29.5 74.5q0 47 -31.5 73.5t-106.5 41.5q-140 29 -140 178q0 59 27.5 103.5t81.5 59.5v1q-46 22 -66.5 52t-20.5 79q0 63 42 102.5t112 39.5zM265 381q-55 0 -88 -33.5t-33 -94.5
q0 -62 33.5 -95.5t87.5 -33.5t87.5 33.5t33.5 95.5q0 61 -33.5 94.5t-87.5 33.5z" />
    <glyph glyph-name="dieresis" unicode="&#xa8;" horiz-adv-x="421" 
d="M91 680h40q10 0 10 -10v-56q0 -10 -10 -10h-40q-10 0 -10 10v56q0 10 10 10zM290 680h40q10 0 10 -10v-56q0 -10 -10 -10h-40q-10 0 -10 10v56q0 10 10 10z" />
    <glyph glyph-name="copyright" unicode="&#xa9;" horiz-adv-x="830" 
d="M415 690q149 0 249.5 -100.5t100.5 -249.5t-100.5 -249.5t-249.5 -100.5t-249.5 100.5t-100.5 249.5t100.5 249.5t249.5 100.5zM415 648q-131 0 -219 -88t-88 -220t88 -220t219 -88t219 88t88 220t-88 220t-219 88zM422 536q70 0 117 -30q8 -5 8 -15v-68q0 -10 -10 -10
h-23q-10 0 -10 10v47q0 4 -4 7q-31 17 -77 17q-86 0 -110 -73q-9 -27 -9 -81t9 -81q24 -73 110 -73q46 0 77 14q4 3 4 7v48q0 10 10 10h23q10 0 10 -10v-71q0 -9 -8 -14q-50 -26 -117 -26q-119 0 -152 99q-11 33 -11 97q0 61 11 94q16 49 56 75.5t96 26.5z" />
    <glyph glyph-name="ordfeminine" unicode="&#xaa;" horiz-adv-x="340" 
d="M168 687q64 0 90.5 -22t26.5 -75v-152q0 -6 6 -6h27q10 0 10 -10v-20q0 -10 -10 -10h-67q-10 0 -10 10v20h-2q-25 -36 -92 -36q-45 0 -73.5 23t-28.5 63q0 91 120 91h69q6 0 6 6v20q0 31 -15.5 44t-57.5 13q-32 0 -52 -8q-5 -2 -5 -7v-31q0 -10 -10 -10h-25q-10 0 -10 10
v53q0 7 6 11q38 23 97 23zM234 525h-65q-79 0 -79 -49q0 -50 68 -50q36 0 59 15t23 39v39q0 6 -6 6z" />
    <glyph glyph-name="guillemotleft" unicode="&#xab;" horiz-adv-x="528" 
d="M69 271l171 176q3 3 6.5 1.5t3.5 -5.5v-45q0 -11 -7 -18l-111 -112q-4 -4 0 -8l111 -112q7 -7 7 -18v-45q0 -4 -3.5 -5.5t-6.5 1.5l-171 176q-7 7 0 14zM271 271l171 176q3 3 6.5 1.5t3.5 -5.5v-45q0 -11 -7 -18l-111 -112q-4 -4 0 -8l111 -112q7 -7 7 -18v-45
q0 -4 -3.5 -5.5t-6.5 1.5l-171 176q-7 7 0 14z" />
    <glyph glyph-name="logicalnot" unicode="&#xac;" 
d="M76 301h380q10 0 10 -10v-164q0 -10 -10 -10h-32q-10 0 -10 10v118q0 6 -6 6h-332q-10 0 -10 10v30q0 10 10 10z" />
    <glyph glyph-name="uni00AD" unicode="&#xad;" horiz-adv-x="373" 
d="M59 292h256q10 0 10 -10v-31q0 -10 -10 -10h-256q-10 0 -10 10v31q0 10 10 10z" />
    <glyph glyph-name="registered" unicode="&#xae;" horiz-adv-x="459" 
d="M229 685q82 0 137.5 -55t55.5 -137q0 -83 -55 -138t-138 -55q-82 0 -137 55.5t-55 137.5t55 137t137 55zM229 656q-70 0 -116 -46.5t-46 -116.5q0 -71 46 -117.5t116 -46.5q71 0 117 46.5t46 117.5t-46 117t-117 46zM149 602h103q32 0 50 -16.5t18 -43.5q0 -47 -44 -58
l27 -66q3 -5 7 -5h12q9 0 9 -8v-11q0 -8 -9 -8h-31q-7 0 -10 7l-36 88h-43q-5 0 -5 -5v-58q0 -5 5 -5h14q9 0 9 -8v-11q0 -8 -9 -8h-67q-8 0 -8 8v11q0 8 8 8h14q5 0 5 5v152q0 5 -5 5h-14q-8 0 -8 9v10q0 8 8 8zM252 575h-50q-5 0 -5 -5v-57q0 -5 5 -5h50q39 0 39 34
q0 33 -39 33z" />
    <glyph glyph-name="macron" unicode="&#xaf;" horiz-adv-x="421" 
d="M90 664h240q10 0 10 -10v-26q0 -10 -10 -10h-240q-10 0 -10 10v26q0 10 10 10z" />
    <glyph glyph-name="degree" unicode="&#xb0;" horiz-adv-x="448" 
d="M223 687q61 0 102 -40.5t41 -102.5t-41 -102.5t-102 -40.5t-101.5 41t-40.5 102t40.5 102t101.5 41zM223 649q-44 0 -72.5 -30t-28.5 -75t28.5 -75t72.5 -30t73 30t29 75t-28.5 75t-73.5 30z" />
    <glyph glyph-name="plusminus" unicode="&#xb1;" 
d="M250 510h32q10 0 10 -10v-160q0 -6 6 -6h158q10 0 10 -10v-30q0 -10 -10 -10h-158q-6 0 -6 -6v-160q0 -10 -10 -10h-32q-10 0 -10 10v160q0 6 -6 6h-158q-10 0 -10 10v30q0 10 10 10h158q6 0 6 6v160q0 10 10 10zM76 50h380q10 0 10 -10v-30q0 -10 -10 -10h-380
q-10 0 -10 10v30q0 10 10 10z" />
    <glyph glyph-name="twosuperior" unicode="&#xb2;" horiz-adv-x="331" 
d="M166 843q56 0 87.5 -30.5t31.5 -80.5q0 -48 -44 -101l-138 -157v-1h178q10 0 10 -10v-23q0 -10 -10 -10h-228q-10 0 -10 10v23q0 7 6 14l156 181q34 39 34 74q0 31 -20 49.5t-53 18.5q-37 0 -62 -16q-5 -4 -5 -10v-43q0 -10 -10 -10h-24q-10 0 -10 10v65q0 10 8 16
q43 31 103 31z" />
    <glyph glyph-name="threesuperior" unicode="&#xb3;" horiz-adv-x="331" 
d="M164 843q54 0 85.5 -30t31.5 -79q0 -57 -52 -90v-1q24 -10 42.5 -36t18.5 -64q0 -54 -34 -87t-93 -33q-63 0 -103 30q-8 6 -8 16v62q0 10 10 10h24q10 0 10 -10v-39q0 -6 5 -10q23 -16 63 -16q36 0 58 21.5t22 54.5t-22.5 55t-58.5 22h-18q-10 0 -10 10v23q0 10 10 10h16
q33 0 53.5 19t20.5 51q0 31 -19.5 49.5t-53.5 18.5q-37 0 -61 -16q-5 -4 -5 -10v-39q0 -10 -10 -10h-24q-10 0 -10 10v60q0 9 8 16q43 32 104 32z" />
    <glyph glyph-name="acute" unicode="&#xb4;" horiz-adv-x="421" 
d="M236 700h38q5 0 6.5 -3t-1.5 -7l-88 -122q-9 -10 -18 -10h-25q-11 0 -6 10l77 122q6 10 17 10z" />
    <glyph glyph-name="mu" unicode="&#xb5;" horiz-adv-x="573" 
d="M417 477h34q10 0 10 -10v-411q0 -6 6 -6h56q10 0 10 -10v-30q0 -10 -10 -10h-106q-10 0 -10 10v58h-1q-16 -36 -51.5 -57t-82.5 -21q-82 0 -115 51h-1v-211q0 -10 -10 -10h-34q-10 0 -10 10v637q0 10 10 10h34q10 0 10 -10v-292q0 -133 123 -133q56 0 92 36t36 97v292
q0 10 10 10z" />
    <glyph glyph-name="paragraph" unicode="&#xb6;" horiz-adv-x="599" 
d="M298 680h248q10 0 10 -10v-30q0 -10 -10 -10h-59q-6 0 -6 -6v-794q0 -10 -10 -10h-31q-10 0 -10 10v794q0 6 -6 6h-96q-6 0 -6 -6v-794q0 -10 -10 -10h-31q-10 0 -10 10v436q-89 5 -141 62.5t-52 144.5q0 91 58 149t162 58z" />
    <glyph glyph-name="periodcentered" unicode="&#xb7;" horiz-adv-x="219" 
d="M85 309h49q10 0 10 -10v-67q0 -10 -10 -10h-49q-10 0 -10 10v67q0 10 10 10z" />
    <glyph glyph-name="cedilla" unicode="&#xb8;" horiz-adv-x="421" 
d="M229 10h26q10 0 7 -10l-46 -138q-4 -10 -16 -10h-31q-10 0 -7 10l54 138q4 10 13 10z" />
    <glyph glyph-name="onesuperior" unicode="&#xb9;" horiz-adv-x="331" 
d="M167 836h25q10 0 10 -10v-347q0 -6 6 -6h67q10 0 10 -10v-23q0 -10 -10 -10h-192q-10 0 -10 10v23q0 10 10 10h67q6 0 6 6v300h-1l-72 -49q-4 -2 -7 0t-3 6v31q0 10 7 14l71 49q9 6 16 6z" />
    <glyph glyph-name="ordmasculine" unicode="&#xba;" horiz-adv-x="346" 
d="M173 687q92 0 119 -80q10 -30 10 -71t-10 -71q-27 -80 -119 -80t-119 80q-10 30 -10 71t10 71q27 80 119 80zM173 644q-57 0 -73 -52q-8 -22 -8 -56t8 -56q16 -52 73 -52t73 52q8 22 8 56t-8 56q-16 52 -73 52z" />
    <glyph glyph-name="guillemotright" unicode="&#xbb;" horiz-adv-x="528" 
d="M86 447l171 -176q7 -7 0 -14l-171 -176q-3 -3 -6.5 -1.5t-3.5 5.5v45q0 11 7 18l111 112q4 4 0 8l-111 112q-7 7 -7 18v45q0 4 3.5 5.5t6.5 -1.5zM288 447l171 -176q7 -7 0 -14l-171 -176q-3 -3 -6.5 -1.5t-3.5 5.5v45q0 11 7 18l111 112q4 4 0 8l-111 112q-7 7 -7 18v45
q0 4 3.5 5.5t6.5 -1.5z" />
    <glyph glyph-name="onequarter" unicode="&#xbc;" horiz-adv-x="763" 
d="M594 690h27q11 0 6 -10l-394 -680q-6 -10 -14 -10h-27q-11 0 -6 10l394 680q6 10 14 10zM167 680h25q10 0 10 -10v-347q0 -6 6 -6h67q10 0 10 -10v-23q0 -10 -10 -10h-192q-10 0 -10 10v23q0 10 10 10h67q6 0 6 6v300h-1l-72 -49q-4 -2 -7 0t-3 6v31q0 10 7 14l71 49
q9 6 16 6zM610 406h29q5 0 6.5 -3t-0.5 -7l-133 -276v-1h119q6 0 6 6v98q0 10 10 10h25q10 0 10 -10v-98q0 -6 6 -6h36q10 0 10 -10v-23q0 -10 -10 -10h-36q-6 0 -6 -6v-60q0 -10 -10 -10h-25q-10 0 -10 10v60q0 6 -6 6h-161q-10 0 -10 10v22q0 8 4 16l133 272q4 10 13 10z
" />
    <glyph glyph-name="onehalf" unicode="&#xbd;" horiz-adv-x="813" 
d="M594 690h27q11 0 6 -10l-394 -680q-6 -10 -14 -10h-27q-11 0 -6 10l394 680q6 10 14 10zM167 680h25q10 0 10 -10v-347q0 -6 6 -6h67q10 0 10 -10v-23q0 -10 -10 -10h-192q-10 0 -10 10v23q0 10 10 10h67q6 0 6 6v300h-1l-72 -49q-4 -2 -7 0t-3 6v31q0 10 7 14l71 49
q9 6 16 6zM648 413q56 0 87.5 -30.5t31.5 -80.5q0 -48 -44 -101l-138 -157v-1h178q10 0 10 -10v-23q0 -10 -10 -10h-228q-10 0 -10 10v23q0 7 6 14l156 181q34 39 34 74q0 31 -20 49.5t-53 18.5q-37 0 -62 -16q-5 -4 -5 -10v-43q0 -10 -10 -10h-24q-10 0 -10 10v65
q0 10 8 16q43 31 103 31z" />
    <glyph glyph-name="threequarters" unicode="&#xbe;" horiz-adv-x="763" 
d="M594 690h27q11 0 6 -10l-394 -680q-6 -10 -14 -10h-27q-11 0 -6 10l394 680q6 10 14 10zM164 687q54 0 85.5 -30t31.5 -79q0 -57 -52 -90v-1q24 -10 42.5 -36t18.5 -64q0 -54 -34 -87t-93 -33q-63 0 -103 30q-8 6 -8 16v62q0 10 10 10h24q10 0 10 -10v-39q0 -6 5 -10
q23 -16 63 -16q36 0 58 21.5t22 54.5t-22.5 55t-58.5 22h-18q-10 0 -10 10v23q0 10 10 10h16q33 0 53.5 19t20.5 51q0 31 -19.5 49.5t-53.5 18.5q-37 0 -61 -16q-5 -4 -5 -10v-39q0 -10 -10 -10h-24q-10 0 -10 10v60q0 9 8 16q43 32 104 32zM610 406h29q5 0 6.5 -3t-0.5 -7
l-133 -276v-1h119q6 0 6 6v98q0 10 10 10h25q10 0 10 -10v-98q0 -6 6 -6h36q10 0 10 -10v-23q0 -10 -10 -10h-36q-6 0 -6 -6v-60q0 -10 -10 -10h-25q-10 0 -10 10v60q0 6 -6 6h-161q-10 0 -10 10v22q0 8 4 16l133 272q4 10 13 10z" />
    <glyph glyph-name="questiondown" unicode="&#xbf;" horiz-adv-x="446" 
d="M201 477h50q10 0 10 -10v-67q0 -10 -10 -10h-50q-10 0 -10 10v67q0 10 10 10zM208 303h35q10 0 10 -10v-39q0 -57 -32 -98l-57 -74q-35 -47 -47 -73t-12 -57q0 -54 33.5 -83.5t88.5 -29.5q61 0 105 29q6 4 6 10v74q0 10 10 10h32q10 0 10 -10v-99q0 -9 -8 -15
q-67 -51 -157 -51q-81 0 -128 46t-47 119q0 39 13 68.5t48 76.5l55 73q20 26 26 42.5t6 45.5v35q0 10 10 10z" />
    <glyph glyph-name="Agrave" unicode="&#xc0;" horiz-adv-x="618" 
d="M190 888h40q11 0 18 -10l82 -104q8 -10 -4 -10h-26q-10 0 -18 9l-96 105q-3 4 -1.5 7t5.5 3zM290 680h41q9 0 12 -10l218 -614q1 -6 8 -6h35q10 0 10 -10v-30q0 -10 -10 -10h-165q-10 0 -10 10v30q0 10 10 10h56q8 0 5 7l-52 147h-278l-52 -147q-3 -7 5 -7h56
q10 0 10 -10v-30q0 -10 -10 -10h-165q-10 0 -10 10v30q0 10 10 10h36q6 0 8 6l220 614q3 10 12 10zM309 595l-120 -337h240l-118 337h-2z" />
    <glyph glyph-name="Aacute" unicode="&#xc1;" horiz-adv-x="618" 
d="M389 888h40q5 0 6 -3t-2 -7l-96 -105q-8 -9 -18 -9h-26q-12 0 -4 10l82 104q7 10 18 10zM290 680h41q9 0 12 -10l218 -614q1 -6 8 -6h35q10 0 10 -10v-30q0 -10 -10 -10h-165q-10 0 -10 10v30q0 10 10 10h56q8 0 5 7l-52 147h-278l-52 -147q-3 -7 5 -7h56q10 0 10 -10
v-30q0 -10 -10 -10h-165q-10 0 -10 10v30q0 10 10 10h36q6 0 8 6l220 614q3 10 12 10zM309 595l-120 -337h240l-118 337h-2z" />
    <glyph glyph-name="Acircumflex" unicode="&#xc2;" horiz-adv-x="618" 
d="M299 896h23q9 0 15 -9l91 -123q3 -4 1.5 -7t-5.5 -3h-25q-9 0 -17 10l-71 85h-2l-70 -85q-9 -10 -17 -10h-25q-5 0 -6 3t2 7l90 123q6 9 16 9zM290 680h41q9 0 12 -10l218 -614q1 -6 8 -6h35q10 0 10 -10v-30q0 -10 -10 -10h-165q-10 0 -10 10v30q0 10 10 10h56q8 0 5 7
l-52 147h-278l-52 -147q-3 -7 5 -7h56q10 0 10 -10v-30q0 -10 -10 -10h-165q-10 0 -10 10v30q0 10 10 10h36q6 0 8 6l220 614q3 10 12 10zM309 595l-120 -337h240l-118 337h-2z" />
    <glyph glyph-name="Atilde" unicode="&#xc3;" horiz-adv-x="618" 
d="M257 866q29 0 60 -20q29 -18 49 -18q28 0 59 33q3 3 5.5 2t2.5 -5v-30q0 -8 -7 -16q-30 -30 -62 -30q-26 0 -60 21q-29 18 -49 18q-25 0 -58 -33q-9 -7 -9 3v30q0 7 8 15q27 30 61 30zM290 680h41q9 0 12 -10l218 -614q1 -6 8 -6h35q10 0 10 -10v-30q0 -10 -10 -10h-165
q-10 0 -10 10v30q0 10 10 10h56q8 0 5 7l-52 147h-278l-52 -147q-3 -7 5 -7h56q10 0 10 -10v-30q0 -10 -10 -10h-165q-10 0 -10 10v30q0 10 10 10h36q6 0 8 6l220 614q3 10 12 10zM309 595l-120 -337h240l-118 337h-2z" />
    <glyph glyph-name="Adieresis" unicode="&#xc4;" horiz-adv-x="618" 
d="M191 862h39q10 0 10 -10v-56q0 -10 -10 -10h-39q-10 0 -10 10v56q0 10 10 10zM391 862h39q10 0 10 -10v-56q0 -10 -10 -10h-39q-10 0 -10 10v56q0 10 10 10zM290 680h41q9 0 12 -10l218 -614q1 -6 8 -6h35q10 0 10 -10v-30q0 -10 -10 -10h-165q-10 0 -10 10v30
q0 10 10 10h56q8 0 5 7l-52 147h-278l-52 -147q-3 -7 5 -7h56q10 0 10 -10v-30q0 -10 -10 -10h-165q-10 0 -10 10v30q0 10 10 10h36q6 0 8 6l220 614q3 10 12 10zM309 595l-120 -337h240l-118 337h-2z" />
    <glyph glyph-name="Aring" unicode="&#xc5;" horiz-adv-x="618" 
d="M310 914q38 0 63 -25t25 -63t-25 -63t-63 -25t-63 25t-25 63t25 63t63 25zM310 882q-24 0 -38.5 -16t-14.5 -40t14.5 -40t38.5 -16t38.5 16t14.5 40t-14.5 40t-38.5 16zM290 680h41q9 0 12 -10l218 -614q1 -6 8 -6h35q10 0 10 -10v-30q0 -10 -10 -10h-165q-10 0 -10 10
v30q0 10 10 10h56q8 0 5 7l-52 147h-278l-52 -147q-3 -7 5 -7h56q10 0 10 -10v-30q0 -10 -10 -10h-165q-10 0 -10 10v30q0 10 10 10h36q6 0 8 6l220 614q3 10 12 10zM309 595l-120 -337h240l-118 337h-2z" />
    <glyph glyph-name="AE" unicode="&#xc6;" horiz-adv-x="942" 
d="M453 680h419q10 0 10 -10v-117q0 -10 -10 -10h-34q-10 0 -10 10v67q0 6 -6 6h-280q-6 0 -6 -6v-242q0 -6 6 -6h220q6 0 6 6v51q0 10 10 10h34q10 0 10 -10v-168q0 -10 -10 -10h-34q-10 0 -10 10v51q0 6 -6 6h-220q-6 0 -6 -6v-252q0 -6 6 -6h280q6 0 6 6v70q0 10 10 10
h34q10 0 10 -10v-120q0 -10 -10 -10h-383q-10 0 -10 10v171q0 6 -6 6h-272l-81 -130q-4 -7 3 -7h56q10 0 10 -10v-30q0 -10 -10 -10h-163q-10 0 -10 10v30q0 10 10 10h30q5 0 8 6l384 615q6 9 15 9zM477 625l-242 -384h238q6 0 6 6v378h-2z" />
    <glyph glyph-name="Ccedilla" unicode="&#xc7;" horiz-adv-x="578" 
d="M314 690q120 0 193 -55q8 -6 8 -16v-105q0 -10 -10 -10h-34q-10 0 -10 10v75q0 6 -5 10q-52 37 -139 37q-137 0 -176 -114q-18 -54 -18 -182q0 -133 16 -183q38 -113 180 -113q92 0 137 32q5 3 5 10v78q0 10 10 10h34q10 0 10 -10v-106q0 -10 -7 -16q-67 -49 -178 -52
l-43 -128q-4 -10 -16 -10h-31q-10 0 -7 10l51 130q-157 12 -201 147q-18 56 -18 201q0 135 20 197q49 153 229 153z" />
    <glyph glyph-name="Egrave" unicode="&#xc8;" horiz-adv-x="582" 
d="M207 888h40q11 0 18 -10l82 -104q8 -10 -4 -10h-26q-10 0 -18 9l-96 105q-3 4 -2 7t6 3zM53 680h459q10 0 10 -10v-117q0 -10 -10 -10h-34q-10 0 -10 10v67q0 6 -6 6h-280q-6 0 -6 -6v-242q0 -6 6 -6h220q6 0 6 6v51q0 10 10 10h34q10 0 10 -10v-168q0 -10 -10 -10h-34
q-10 0 -10 10v51q0 6 -6 6h-220q-6 0 -6 -6v-252q0 -6 6 -6h280q6 0 6 6v70q0 10 10 10h34q10 0 10 -10v-120q0 -10 -10 -10h-459q-10 0 -10 10v30q0 10 10 10h60q6 0 6 6v568q0 6 -6 6h-60q-10 0 -10 10v30q0 10 10 10z" />
    <glyph glyph-name="Eacute" unicode="&#xc9;" horiz-adv-x="582" 
d="M364 888h40q4 0 5.5 -3t-1.5 -7l-96 -105q-8 -9 -18 -9h-26q-12 0 -4 10l82 104q7 10 18 10zM53 680h459q10 0 10 -10v-117q0 -10 -10 -10h-34q-10 0 -10 10v67q0 6 -6 6h-280q-6 0 -6 -6v-242q0 -6 6 -6h220q6 0 6 6v51q0 10 10 10h34q10 0 10 -10v-168q0 -10 -10 -10
h-34q-10 0 -10 10v51q0 6 -6 6h-220q-6 0 -6 -6v-252q0 -6 6 -6h280q6 0 6 6v70q0 10 10 10h34q10 0 10 -10v-120q0 -10 -10 -10h-459q-10 0 -10 10v30q0 10 10 10h60q6 0 6 6v568q0 6 -6 6h-60q-10 0 -10 10v30q0 10 10 10z" />
    <glyph glyph-name="Ecircumflex" unicode="&#xca;" horiz-adv-x="582" 
d="M298 896h23q9 0 15 -9l91 -123q3 -4 2 -7t-6 -3h-25q-10 0 -17 10l-71 85h-2l-70 -85q-9 -10 -17 -10h-25q-4 0 -5.5 3t1.5 7l90 123q6 9 16 9zM53 680h459q10 0 10 -10v-117q0 -10 -10 -10h-34q-10 0 -10 10v67q0 6 -6 6h-280q-6 0 -6 -6v-242q0 -6 6 -6h220q6 0 6 6v51
q0 10 10 10h34q10 0 10 -10v-168q0 -10 -10 -10h-34q-10 0 -10 10v51q0 6 -6 6h-220q-6 0 -6 -6v-252q0 -6 6 -6h280q6 0 6 6v70q0 10 10 10h34q10 0 10 -10v-120q0 -10 -10 -10h-459q-10 0 -10 10v30q0 10 10 10h60q6 0 6 6v568q0 6 -6 6h-60q-10 0 -10 10v30q0 10 10 10z
" />
    <glyph glyph-name="Edieresis" unicode="&#xcb;" horiz-adv-x="582" 
d="M186 862h39q10 0 10 -10v-56q0 -10 -10 -10h-39q-10 0 -10 10v56q0 10 10 10zM386 862h39q10 0 10 -10v-56q0 -10 -10 -10h-39q-10 0 -10 10v56q0 10 10 10zM53 680h459q10 0 10 -10v-117q0 -10 -10 -10h-34q-10 0 -10 10v67q0 6 -6 6h-280q-6 0 -6 -6v-242q0 -6 6 -6
h220q6 0 6 6v51q0 10 10 10h34q10 0 10 -10v-168q0 -10 -10 -10h-34q-10 0 -10 10v51q0 6 -6 6h-220q-6 0 -6 -6v-252q0 -6 6 -6h280q6 0 6 6v70q0 10 10 10h34q10 0 10 -10v-120q0 -10 -10 -10h-459q-10 0 -10 10v30q0 10 10 10h60q6 0 6 6v568q0 6 -6 6h-60q-10 0 -10 10
v30q0 10 10 10z" />
    <glyph glyph-name="Igrave" unicode="&#xcc;" horiz-adv-x="295" 
d="M30 888h40q11 0 18 -10l82 -104q8 -10 -4 -10h-26q-10 0 -18 9l-96 105q-3 4 -1.5 7t5.5 3zM53 680h189q10 0 10 -10v-30q0 -10 -10 -10h-60q-6 0 -6 -6v-568q0 -6 6 -6h60q10 0 10 -10v-30q0 -10 -10 -10h-189q-10 0 -10 10v30q0 10 10 10h60q6 0 6 6v568q0 6 -6 6h-60
q-10 0 -10 10v30q0 10 10 10z" />
    <glyph glyph-name="Iacute" unicode="&#xcd;" horiz-adv-x="295" 
d="M226 888h40q4 0 5.5 -3t-1.5 -7l-96 -105q-8 -9 -18 -9h-26q-12 0 -4 10l82 104q7 10 18 10zM53 680h189q10 0 10 -10v-30q0 -10 -10 -10h-60q-6 0 -6 -6v-568q0 -6 6 -6h60q10 0 10 -10v-30q0 -10 -10 -10h-189q-10 0 -10 10v30q0 10 10 10h60q6 0 6 6v568q0 6 -6 6h-60
q-10 0 -10 10v30q0 10 10 10z" />
    <glyph glyph-name="Icircumflex" unicode="&#xce;" horiz-adv-x="295" 
d="M136 896h23q9 0 15 -9l91 -123q3 -4 2 -7t-6 -3h-25q-10 0 -17 10l-71 85h-2l-70 -85q-9 -10 -17 -10h-25q-4 0 -5.5 3t1.5 7l90 123q6 9 16 9zM53 680h189q10 0 10 -10v-30q0 -10 -10 -10h-60q-6 0 -6 -6v-568q0 -6 6 -6h60q10 0 10 -10v-30q0 -10 -10 -10h-189
q-10 0 -10 10v30q0 10 10 10h60q6 0 6 6v568q0 6 -6 6h-60q-10 0 -10 10v30q0 10 10 10z" />
    <glyph glyph-name="Idieresis" unicode="&#xcf;" horiz-adv-x="295" 
d="M28 862h39q10 0 10 -10v-56q0 -10 -10 -10h-39q-10 0 -10 10v56q0 10 10 10zM228 862h39q10 0 10 -10v-56q0 -10 -10 -10h-39q-10 0 -10 10v56q0 10 10 10zM53 680h189q10 0 10 -10v-30q0 -10 -10 -10h-60q-6 0 -6 -6v-568q0 -6 6 -6h60q10 0 10 -10v-30q0 -10 -10 -10
h-189q-10 0 -10 10v30q0 10 10 10h60q6 0 6 6v568q0 6 -6 6h-60q-10 0 -10 10v30q0 10 10 10z" />
    <glyph glyph-name="Eth" unicode="&#xd0;" horiz-adv-x="642" 
d="M53 680h280q172 0 217 -138q18 -55 18 -202t-18 -202q-45 -138 -217 -138h-280q-10 0 -10 10v30q0 10 10 10h60q6 0 6 6v259q0 5 -6 5h-40q-10 0 -10 10v30q0 10 10 10h40q6 0 6 6v248q0 6 -6 6h-60q-10 0 -10 10v30q0 10 10 10zM324 626h-142q-6 0 -6 -6v-244q0 -6 6 -6
h130q10 0 10 -10v-30q0 -10 -10 -10h-130q-6 0 -6 -5v-255q0 -6 6 -6h142q137 0 171 102q16 48 16 184t-16 184q-34 102 -171 102z" />
    <glyph glyph-name="Ntilde" unicode="&#xd1;" horiz-adv-x="695" 
d="M293 866q29 0 60 -20q29 -18 49 -18q28 0 59 33q3 3 5.5 2t2.5 -5v-30q0 -8 -7 -16q-30 -30 -62 -30q-26 0 -60 21q-29 18 -49 18q-25 0 -58 -33q-9 -7 -9 3v30q0 7 8 15q27 30 61 30zM453 680h189q10 0 10 -10v-30q0 -10 -10 -10h-60q-6 0 -6 -6v-614q0 -10 -10 -10h-39
q-11 0 -17 10l-331 561h-3v-515q0 -6 6 -6h60q10 0 10 -10v-30q0 -10 -10 -10h-189q-10 0 -10 10v30q0 10 10 10h60q6 0 6 6v568q0 6 -6 6h-60q-10 0 -10 10v30q0 10 10 10h113q12 0 17 -10l332 -559h4v513q0 6 -6 6h-60q-10 0 -10 10v30q0 10 10 10z" />
    <glyph glyph-name="Ograve" unicode="&#xd2;" horiz-adv-x="609" 
d="M198 888h40q11 0 18 -10l82 -104q8 -10 -4 -10h-26q-10 0 -18 9l-96 105q-3 4 -1.5 7t5.5 3zM305 690q169 0 219 -153q20 -60 20 -197t-20 -197q-50 -153 -219 -153q-170 0 -220 153q-20 60 -20 197t20 197q50 153 220 153zM305 636q-127 0 -165 -115q-17 -51 -17 -181
t17 -181q38 -115 165 -115q126 0 164 115q17 51 17 181t-17 181q-38 115 -164 115z" />
    <glyph glyph-name="Oacute" unicode="&#xd3;" horiz-adv-x="609" 
d="M369 888h40q5 0 6 -3t-2 -7l-96 -105q-8 -9 -18 -9h-26q-12 0 -4 10l82 104q7 10 18 10zM305 690q169 0 219 -153q20 -60 20 -197t-20 -197q-50 -153 -219 -153q-170 0 -220 153q-20 60 -20 197t20 197q50 153 220 153zM305 636q-127 0 -165 -115q-17 -51 -17 -181
t17 -181q38 -115 165 -115q126 0 164 115q17 51 17 181t-17 181q-38 115 -164 115z" />
    <glyph glyph-name="Ocircumflex" unicode="&#xd4;" horiz-adv-x="609" 
d="M292 896h23q9 0 15 -9l91 -123q3 -4 2 -7t-6 -3h-25q-10 0 -17 10l-71 85h-2l-70 -85q-9 -10 -17 -10h-25q-4 0 -5.5 3t1.5 7l90 123q6 9 16 9zM305 690q169 0 219 -153q20 -60 20 -197t-20 -197q-50 -153 -219 -153q-170 0 -220 153q-20 60 -20 197t20 197
q50 153 220 153zM305 636q-127 0 -165 -115q-17 -51 -17 -181t17 -181q38 -115 165 -115q126 0 164 115q17 51 17 181t-17 181q-38 115 -164 115z" />
    <glyph glyph-name="Otilde" unicode="&#xd5;" horiz-adv-x="609" 
d="M251 866q29 0 60 -20q29 -18 49 -18q28 0 59 33q3 3 5.5 2t2.5 -5v-30q0 -8 -7 -16q-30 -30 -62 -30q-26 0 -60 21q-29 18 -49 18q-25 0 -58 -33q-9 -7 -9 3v30q0 7 8 15q27 30 61 30zM305 690q169 0 219 -153q20 -60 20 -197t-20 -197q-50 -153 -219 -153
q-170 0 -220 153q-20 60 -20 197t20 197q50 153 220 153zM305 636q-127 0 -165 -115q-17 -51 -17 -181t17 -181q38 -115 165 -115q126 0 164 115q17 51 17 181t-17 181q-38 115 -164 115z" />
    <glyph glyph-name="Odieresis" unicode="&#xd6;" horiz-adv-x="609" 
d="M184 862h39q10 0 10 -10v-56q0 -10 -10 -10h-39q-10 0 -10 10v56q0 10 10 10zM384 862h39q10 0 10 -10v-56q0 -10 -10 -10h-39q-10 0 -10 10v56q0 10 10 10zM305 690q169 0 219 -153q20 -60 20 -197t-20 -197q-50 -153 -219 -153q-170 0 -220 153q-20 60 -20 197t20 197
q50 153 220 153zM305 636q-127 0 -165 -115q-17 -51 -17 -181t17 -181q38 -115 165 -115q126 0 164 115q17 51 17 181t-17 181q-38 115 -164 115z" />
    <glyph glyph-name="multiply" unicode="&#xd7;" 
d="M412 443l20 -22q7 -7 0 -14l-127 -127q-4 -4 0 -8l127 -127q7 -7 0 -14l-20 -22q-7 -7 -14 0l-127 127q-4 4 -8 0l-128 -127q-7 -7 -14 0l-20 22q-7 7 0 14l127 127q4 4 0 8l-127 127q-7 7 0 14l20 22q7 7 14 0l128 -127q4 -4 8 0l127 127q7 7 14 0z" />
    <glyph glyph-name="Oslash" unicode="&#xd8;" horiz-adv-x="609" 
d="M503 710h24q11 0 6 -10l-50 -87q26 -32 41 -76q20 -60 20 -197t-20 -197q-50 -153 -219 -153q-92 0 -151 48l-33 -58q-5 -10 -15 -10h-24q-11 0 -6 10l49 86q-25 33 -40 77q-20 60 -20 197t20 197q50 153 220 153q91 0 150 -48l33 58q5 10 15 10zM305 636
q-127 0 -165 -115q-17 -51 -17 -181q0 -123 17 -180q6 -22 17 -39l269 471q-46 44 -121 44zM452 558l-269 -471q44 -43 122 -43q126 0 164 115q17 51 17 181t-17 181q-10 26 -17 37z" />
    <glyph glyph-name="Ugrave" unicode="&#xd9;" horiz-adv-x="665" 
d="M225 888h40q11 0 18 -10l82 -104q8 -10 -4 -10h-26q-10 0 -18 9l-96 105q-3 4 -2 7t6 3zM439 680h186q10 0 10 -10v-30q0 -10 -10 -10h-58q-6 0 -6 -6v-389q0 -119 -60 -182t-169 -63q-108 0 -168 62.5t-60 182.5v389q0 6 -6 6h-58q-10 0 -10 10v30q0 10 10 10h186
q10 0 10 -10v-30q0 -10 -10 -10h-59q-6 0 -6 -6v-389q0 -94 44.5 -142.5t126.5 -48.5q83 0 127.5 48.5t44.5 142.5v389q0 6 -6 6h-59q-10 0 -10 10v30q0 10 10 10z" />
    <glyph glyph-name="Uacute" unicode="&#xda;" horiz-adv-x="665" 
d="M397 888h40q5 0 6 -3t-2 -7l-96 -105q-8 -9 -18 -9h-26q-12 0 -4 10l82 104q7 10 18 10zM439 680h186q10 0 10 -10v-30q0 -10 -10 -10h-58q-6 0 -6 -6v-389q0 -119 -60 -182t-169 -63q-108 0 -168 62.5t-60 182.5v389q0 6 -6 6h-58q-10 0 -10 10v30q0 10 10 10h186
q10 0 10 -10v-30q0 -10 -10 -10h-59q-6 0 -6 -6v-389q0 -94 44.5 -142.5t126.5 -48.5q83 0 127.5 48.5t44.5 142.5v389q0 6 -6 6h-59q-10 0 -10 10v30q0 10 10 10z" />
    <glyph glyph-name="Ucircumflex" unicode="&#xdb;" horiz-adv-x="665" 
d="M320 896h23q9 0 15 -9l91 -123q3 -4 2 -7t-6 -3h-25q-9 0 -17 10l-71 85h-2l-70 -85q-9 -10 -17 -10h-25q-4 0 -5.5 3t1.5 7l90 123q6 9 16 9zM439 680h186q10 0 10 -10v-30q0 -10 -10 -10h-58q-6 0 -6 -6v-389q0 -119 -60 -182t-169 -63q-108 0 -168 62.5t-60 182.5v389
q0 6 -6 6h-58q-10 0 -10 10v30q0 10 10 10h186q10 0 10 -10v-30q0 -10 -10 -10h-59q-6 0 -6 -6v-389q0 -94 44.5 -142.5t126.5 -48.5q83 0 127.5 48.5t44.5 142.5v389q0 6 -6 6h-59q-10 0 -10 10v30q0 10 10 10z" />
    <glyph glyph-name="Udieresis" unicode="&#xdc;" horiz-adv-x="665" 
d="M212 862h39q10 0 10 -10v-56q0 -10 -10 -10h-39q-10 0 -10 10v56q0 10 10 10zM412 862h39q10 0 10 -10v-56q0 -10 -10 -10h-39q-10 0 -10 10v56q0 10 10 10zM439 680h186q10 0 10 -10v-30q0 -10 -10 -10h-58q-6 0 -6 -6v-389q0 -119 -60 -182t-169 -63q-108 0 -168 62.5
t-60 182.5v389q0 6 -6 6h-58q-10 0 -10 10v30q0 10 10 10h186q10 0 10 -10v-30q0 -10 -10 -10h-59q-6 0 -6 -6v-389q0 -94 44.5 -142.5t126.5 -48.5q83 0 127.5 48.5t44.5 142.5v389q0 6 -6 6h-59q-10 0 -10 10v30q0 10 10 10z" />
    <glyph glyph-name="Yacute" unicode="&#xdd;" horiz-adv-x="545" 
d="M346 888h40q4 0 5.5 -3t-1.5 -7l-96 -105q-8 -9 -18 -9h-26q-12 0 -4 10l82 104q7 10 18 10zM360 680h168q10 0 10 -10v-30q0 -10 -10 -10h-32q-5 0 -9 -6l-186 -345v-223q0 -6 6 -6h62q10 0 10 -10v-30q0 -10 -10 -10h-193q-10 0 -10 10v30q0 10 10 10h62q6 0 6 6v223
l-187 344q-3 7 -9 7h-31q-10 0 -10 10v30q0 10 10 10h168q10 0 10 -10v-30q0 -10 -10 -10h-58q-9 0 -5 -8l151 -281h2l151 282q4 7 -5 7h-61q-10 0 -10 10v30q0 10 10 10z" />
    <glyph glyph-name="Thorn" unicode="&#xde;" horiz-adv-x="599" 
d="M53 680h189q10 0 10 -10v-30q0 -10 -10 -10h-60q-6 0 -6 -6v-81q0 -5 6 -5h167q97 0 153.5 -51.5t56.5 -140.5t-56.5 -140t-153.5 -51h-167q-6 0 -6 -6v-93q0 -6 6 -6h60q10 0 10 -10v-30q0 -10 -10 -10h-189q-10 0 -10 10v30q0 10 10 10h60q6 0 6 6v568q0 6 -6 6h-60
q-10 0 -10 10v30q0 10 10 10zM347 484h-165q-6 0 -6 -6v-263q0 -6 6 -6h165q75 0 115 35.5t40 101.5t-40 102t-115 36z" />
    <glyph glyph-name="germandbls" unicode="&#xdf;" horiz-adv-x="559" 
d="M294 690q88 0 134 -39t46 -108q0 -86 -72 -116v-2q51 -19 71 -74q11 -34 11 -129q0 -91 -12 -129q-30 -94 -162 -94h-15q-10 0 -10 10v30q0 10 10 10h13q91 0 112 65q10 30 10 108q0 80 -10 112q-11 35 -39 49.5t-75 15.5h-11q-10 0 -10 10v32q0 10 10 10h15
q57 0 83.5 22t26.5 70q0 96 -125 96q-73 0 -104.5 -33t-31.5 -110v-440q0 -6 6 -6h52q10 0 10 -10v-30q0 -10 -10 -10h-174q-10 0 -10 10v30q0 10 10 10h56q6 0 6 6v440q0 97 44 145.5t145 48.5z" />
    <glyph glyph-name="agrave" unicode="&#xe0;" horiz-adv-x="518" 
d="M170 700h38q10 0 16 -10l77 -122q7 -10 -5 -10h-25q-11 0 -18 10l-88 122q-3 4 -1.5 7t6.5 3zM243 487q91 0 130.5 -35.5t39.5 -122.5v-273q0 -6 6 -6h56q10 0 10 -10v-30q0 -10 -10 -10h-104q-10 0 -10 10v50h-1q-15 -32 -52.5 -51t-93.5 -19q-74 0 -117 36.5t-43 104.5
q0 141 181 141h119q6 0 6 6v48q0 61 -26 86.5t-93 25.5q-57 0 -96 -18q-5 -2 -5 -7v-59q0 -10 -10 -10h-33q-10 0 -10 10v86q0 9 7 13q60 34 149 34zM354 226h-112q-135 0 -135 -94q0 -45 30.5 -69t87.5 -24q62 0 98.5 29.5t36.5 78.5v73q0 6 -6 6z" />
    <glyph glyph-name="aacute" unicode="&#xe1;" horiz-adv-x="518" 
d="M312 700h38q5 0 6.5 -3t-1.5 -7l-88 -122q-9 -10 -18 -10h-25q-11 0 -6 10l77 122q6 10 17 10zM243 487q91 0 130.5 -35.5t39.5 -122.5v-273q0 -6 6 -6h56q10 0 10 -10v-30q0 -10 -10 -10h-104q-10 0 -10 10v50h-1q-15 -32 -52.5 -51t-93.5 -19q-74 0 -117 36.5
t-43 104.5q0 141 181 141h119q6 0 6 6v48q0 61 -26 86.5t-93 25.5q-57 0 -96 -18q-5 -2 -5 -7v-59q0 -10 -10 -10h-33q-10 0 -10 10v86q0 9 7 13q60 34 149 34zM354 226h-112q-135 0 -135 -94q0 -45 30.5 -69t87.5 -24q62 0 98.5 29.5t36.5 78.5v73q0 6 -6 6z" />
    <glyph glyph-name="acircumflex" unicode="&#xe2;" horiz-adv-x="518" 
d="M235 700h23q9 0 15 -9l91 -123q3 -4 1.5 -7t-5.5 -3h-25q-9 0 -17 10l-71 85h-2l-70 -85q-9 -10 -17 -10h-25q-5 0 -6 3t2 7l90 123q6 9 16 9zM243 487q91 0 130.5 -35.5t39.5 -122.5v-273q0 -6 6 -6h56q10 0 10 -10v-30q0 -10 -10 -10h-104q-10 0 -10 10v50h-1
q-15 -32 -52.5 -51t-93.5 -19q-74 0 -117 36.5t-43 104.5q0 141 181 141h119q6 0 6 6v48q0 61 -26 86.5t-93 25.5q-57 0 -96 -18q-5 -2 -5 -7v-59q0 -10 -10 -10h-33q-10 0 -10 10v86q0 9 7 13q60 34 149 34zM354 226h-112q-135 0 -135 -94q0 -45 30.5 -69t87.5 -24
q62 0 98.5 29.5t36.5 78.5v73q0 6 -6 6z" />
    <glyph glyph-name="atilde" unicode="&#xe3;" horiz-adv-x="518" 
d="M192 680q29 0 60 -20q29 -18 49 -18q28 0 59 33q3 3 5.5 2t2.5 -5v-30q0 -8 -7 -16q-30 -30 -62 -30q-26 0 -60 21q-29 18 -49 18q-25 0 -58 -33q-9 -7 -9 3v30q0 7 8 15q27 30 61 30zM243 487q91 0 130.5 -35.5t39.5 -122.5v-273q0 -6 6 -6h56q10 0 10 -10v-30
q0 -10 -10 -10h-104q-10 0 -10 10v50h-1q-15 -32 -52.5 -51t-93.5 -19q-74 0 -117 36.5t-43 104.5q0 141 181 141h119q6 0 6 6v48q0 61 -26 86.5t-93 25.5q-57 0 -96 -18q-5 -2 -5 -7v-59q0 -10 -10 -10h-33q-10 0 -10 10v86q0 9 7 13q60 34 149 34zM354 226h-112
q-135 0 -135 -94q0 -45 30.5 -69t87.5 -24q62 0 98.5 29.5t36.5 78.5v73q0 6 -6 6z" />
    <glyph glyph-name="adieresis" unicode="&#xe4;" horiz-adv-x="518" 
d="M126 680h40q10 0 10 -10v-56q0 -10 -10 -10h-40q-10 0 -10 10v56q0 10 10 10zM325 680h40q10 0 10 -10v-56q0 -10 -10 -10h-40q-10 0 -10 10v56q0 10 10 10zM243 487q91 0 130.5 -35.5t39.5 -122.5v-273q0 -6 6 -6h56q10 0 10 -10v-30q0 -10 -10 -10h-104q-10 0 -10 10
v50h-1q-15 -32 -52.5 -51t-93.5 -19q-74 0 -117 36.5t-43 104.5q0 141 181 141h119q6 0 6 6v48q0 61 -26 86.5t-93 25.5q-57 0 -96 -18q-5 -2 -5 -7v-59q0 -10 -10 -10h-33q-10 0 -10 10v86q0 9 7 13q60 34 149 34zM354 226h-112q-135 0 -135 -94q0 -45 30.5 -69t87.5 -24
q62 0 98.5 29.5t36.5 78.5v73q0 6 -6 6z" />
    <glyph glyph-name="aring" unicode="&#xe5;" horiz-adv-x="518" 
d="M247 717q38 0 63 -25t25 -63t-25 -63t-63 -25t-63 25t-25 63t25 63t63 25zM247 685q-24 0 -38.5 -16t-14.5 -40t14.5 -40t38.5 -16t38.5 16t14.5 40t-14.5 40t-38.5 16zM243 487q91 0 130.5 -35.5t39.5 -122.5v-273q0 -6 6 -6h56q10 0 10 -10v-30q0 -10 -10 -10h-104
q-10 0 -10 10v50h-1q-15 -32 -52.5 -51t-93.5 -19q-74 0 -117 36.5t-43 104.5q0 141 181 141h119q6 0 6 6v48q0 61 -26 86.5t-93 25.5q-57 0 -96 -18q-5 -2 -5 -7v-59q0 -10 -10 -10h-33q-10 0 -10 10v86q0 9 7 13q60 34 149 34zM354 226h-112q-135 0 -135 -94
q0 -45 30.5 -69t87.5 -24q62 0 98.5 29.5t36.5 78.5v73q0 6 -6 6z" />
    <glyph glyph-name="ae" unicode="&#xe6;" horiz-adv-x="800" 
d="M552 487q65 0 111.5 -32t65.5 -92q14 -42 14 -127q0 -10 -11 -10h-311q-6 0 -6 -7q0 -54 10 -84q32 -93 135 -93q84 0 133 61q6 8 14 2l23 -21q7 -6 1 -14q-60 -80 -174 -80q-119 0 -167 93h-1q-39 -93 -175 -93q-74 0 -117 36.5t-43 104.5q0 141 181 141h121q6 0 6 6v47
q0 61 -26.5 87t-94.5 26q-53 0 -96 -18q-5 -2 -5 -7v-59q0 -10 -10 -10h-33q-10 0 -10 10v87q0 9 7 12q63 34 149 34q131 0 156 -80h1q47 80 152 80zM552 437q-100 0 -128 -90q-9 -24 -9 -69q0 -6 6 -6h261q6 0 6 6q0 40 -9 69q-30 90 -127 90zM356 226h-114
q-135 0 -135 -94q0 -45 30.5 -68.5t87.5 -23.5q62 0 99.5 29t37.5 78v73q0 6 -6 6z" />
    <glyph glyph-name="ccedilla" unicode="&#xe7;" horiz-adv-x="474" 
d="M258 487q92 0 146 -36q7 -6 7 -12v-92q0 -10 -10 -10h-33q-10 0 -10 10v61q0 4 -4 7q-33 20 -95 20q-105 0 -134 -90q-13 -38 -13 -107q0 -70 13 -108q29 -88 134 -88q63 0 95 18q4 3 4 7v59q0 10 10 10h33q10 0 10 -10v-90q0 -8 -8 -12q-52 -31 -129 -34l-42 -128
q-4 -10 -16 -10h-31q-10 0 -7 10l51 130q-122 12 -157 120q-15 48 -15 126q0 75 15 125q19 59 67 91.5t119 32.5z" />
    <glyph glyph-name="egrave" unicode="&#xe8;" horiz-adv-x="496" 
d="M151 700h38q10 0 16 -10l77 -122q7 -10 -5 -10h-25q-11 0 -18 10l-88 122q-3 4 -1.5 7t6.5 3zM248 487q66 0 112.5 -32t65.5 -92q14 -42 14 -127q0 -10 -11 -10h-311q-6 0 -6 -7q0 -54 10 -84q32 -93 135 -93q84 0 133 61q6 8 14 2l23 -21q7 -6 1 -14q-60 -80 -174 -80
q-142 0 -183 126q-14 41 -14 123q0 79 14 124q19 60 65.5 92t111.5 32zM248 437q-98 0 -127 -90q-9 -29 -9 -69q0 -6 6 -6h261q6 0 6 6q0 40 -9 69q-29 90 -128 90z" />
    <glyph glyph-name="eacute" unicode="&#xe9;" horiz-adv-x="496" 
d="M310 700h38q5 0 6.5 -3t-1.5 -7l-88 -122q-9 -10 -18 -10h-25q-11 0 -6 10l77 122q6 10 17 10zM248 487q66 0 112.5 -32t65.5 -92q14 -42 14 -127q0 -10 -11 -10h-311q-6 0 -6 -7q0 -54 10 -84q32 -93 135 -93q84 0 133 61q6 8 14 2l23 -21q7 -6 1 -14q-60 -80 -174 -80
q-142 0 -183 126q-14 41 -14 123q0 79 14 124q19 60 65.5 92t111.5 32zM248 437q-98 0 -127 -90q-9 -29 -9 -69q0 -6 6 -6h261q6 0 6 6q0 40 -9 69q-29 90 -128 90z" />
    <glyph glyph-name="ecircumflex" unicode="&#xea;" horiz-adv-x="496" 
d="M236 700h23q9 0 15 -9l91 -123q3 -4 2 -7t-6 -3h-25q-10 0 -17 10l-71 85h-2l-70 -85q-9 -10 -17 -10h-25q-4 0 -5.5 3t1.5 7l90 123q6 9 16 9zM248 487q66 0 112.5 -32t65.5 -92q14 -42 14 -127q0 -10 -11 -10h-311q-6 0 -6 -7q0 -54 10 -84q32 -93 135 -93q84 0 133 61
q6 8 14 2l23 -21q7 -6 1 -14q-60 -80 -174 -80q-142 0 -183 126q-14 41 -14 123q0 79 14 124q19 60 65.5 92t111.5 32zM248 437q-98 0 -127 -90q-9 -29 -9 -69q0 -6 6 -6h261q6 0 6 6q0 40 -9 69q-29 90 -128 90z" />
    <glyph glyph-name="edieresis" unicode="&#xeb;" horiz-adv-x="496" 
d="M128 680h40q10 0 10 -10v-56q0 -10 -10 -10h-40q-10 0 -10 10v56q0 10 10 10zM327 680h40q10 0 10 -10v-56q0 -10 -10 -10h-40q-10 0 -10 10v56q0 10 10 10zM248 487q66 0 112.5 -32t65.5 -92q14 -42 14 -127q0 -10 -11 -10h-311q-6 0 -6 -7q0 -54 10 -84q32 -93 135 -93
q84 0 133 61q6 8 14 2l23 -21q7 -6 1 -14q-60 -80 -174 -80q-142 0 -183 126q-14 41 -14 123q0 79 14 124q19 60 65.5 92t111.5 32zM248 437q-98 0 -127 -90q-9 -29 -9 -69q0 -6 6 -6h261q6 0 6 6q0 40 -9 69q-29 90 -128 90z" />
    <glyph glyph-name="igrave" unicode="&#xec;" horiz-adv-x="281" 
d="M34 700h38q10 0 16 -10l77 -122q7 -10 -5 -10h-25q-11 0 -18 10l-88 122q-3 4 -1.5 7t6.5 3zM53 477h106q10 0 10 -10v-411q0 -6 6 -6h56q10 0 10 -10v-30q0 -10 -10 -10h-178q-10 0 -10 10v30q0 10 10 10h56q6 0 6 6v365q0 6 -6 6h-56q-10 0 -10 10v30q0 10 10 10z" />
    <glyph glyph-name="iacute" unicode="&#xed;" horiz-adv-x="281" 
d="M211 700h38q5 0 6.5 -3t-1.5 -7l-88 -122q-9 -10 -18 -10h-25q-11 0 -6 10l77 122q6 10 17 10zM53 477h106q10 0 10 -10v-411q0 -6 6 -6h56q10 0 10 -10v-30q0 -10 -10 -10h-178q-10 0 -10 10v30q0 10 10 10h56q6 0 6 6v365q0 6 -6 6h-56q-10 0 -10 10v30q0 10 10 10z
" />
    <glyph glyph-name="icircumflex" unicode="&#xee;" horiz-adv-x="281" 
d="M124 700h23q9 0 15 -9l91 -123q3 -4 2 -7t-6 -3h-25q-10 0 -17 10l-71 85h-2l-70 -85q-9 -10 -17 -10h-25q-4 0 -5.5 3t1.5 7l90 123q6 9 16 9zM53 477h106q10 0 10 -10v-411q0 -6 6 -6h56q10 0 10 -10v-30q0 -10 -10 -10h-178q-10 0 -10 10v30q0 10 10 10h56q6 0 6 6
v365q0 6 -6 6h-56q-10 0 -10 10v30q0 10 10 10z" />
    <glyph glyph-name="idieresis" unicode="&#xef;" horiz-adv-x="281" 
d="M16 680h40q10 0 10 -10v-56q0 -10 -10 -10h-40q-10 0 -10 10v56q0 10 10 10zM215 680h40q10 0 10 -10v-56q0 -10 -10 -10h-40q-10 0 -10 10v56q0 10 10 10zM53 477h106q10 0 10 -10v-411q0 -6 6 -6h56q10 0 10 -10v-30q0 -10 -10 -10h-178q-10 0 -10 10v30q0 10 10 10h56
q6 0 6 6v365q0 6 -6 6h-56q-10 0 -10 10v30q0 10 10 10z" />
    <glyph glyph-name="eth" unicode="&#xf0;" horiz-adv-x="503" 
d="M155 680h41q10 0 18 -10l48 -59l94 28q11 3 13 -6l7 -25q2 -9 -7 -12l-77 -23l36 -44q64 -79 91 -143t27 -142q0 -82 -16 -130q-19 -59 -66 -91.5t-113 -32.5t-112 32.5t-66 91.5q-16 48 -16 119q0 76 15 121q19 58 62.5 90t102.5 32q48 0 89 -28h2l-89 109l-95 -29
q-11 -4 -13 7l-7 24q-2 9 8 12l79 23l-61 76q-3 4 -1.5 7t6.5 3zM251 425q-96 0 -126 -89q-13 -38 -13 -103t13 -103q30 -89 126 -89q97 0 127 89q13 42 13 103q0 60 -14 102q-30 90 -126 90z" />
    <glyph glyph-name="ntilde" unicode="&#xf1;" horiz-adv-x="581" 
d="M237 680q29 0 60 -20q29 -18 49 -18q28 0 59 33q3 3 5.5 2t2.5 -5v-30q0 -8 -7 -16q-30 -30 -62 -30q-26 0 -60 21q-29 18 -49 18q-25 0 -58 -33q-9 -7 -9 3v30q0 7 8 15q27 30 61 30zM308 487q79 0 122 -47.5t43 -134.5v-249q0 -6 6 -6h55q10 0 10 -10v-30
q0 -10 -10 -10h-177q-10 0 -10 10v30q0 10 10 10h56q6 0 6 6v236q0 143 -123 143q-55 0 -91 -36t-36 -97v-246q0 -6 6 -6h56q10 0 10 -10v-30q0 -10 -10 -10h-178q-10 0 -10 10v30q0 10 10 10h56q6 0 6 6v365q0 6 -6 6h-56q-10 0 -10 10v30q0 10 10 10h106q10 0 10 -10v-57
h1q38 77 138 77z" />
    <glyph glyph-name="ograve" unicode="&#xf2;" horiz-adv-x="503" 
d="M151 700h38q10 0 16 -10l77 -122q7 -10 -5 -10h-25q-11 0 -18 10l-88 122q-3 4 -1.5 7t6.5 3zM251 487q66 0 113 -32.5t66 -91.5q16 -51 16 -124q0 -74 -16 -125q-19 -59 -66 -91.5t-113 -32.5q-65 0 -112 32.5t-66 91.5q-16 51 -16 125q0 73 16 124q19 59 66 91.5
t112 32.5zM251 435q-96 0 -126 -89q-13 -39 -13 -107q0 -69 13 -108q30 -89 126 -89q97 0 127 89q13 39 13 108q0 68 -13 107q-30 89 -127 89z" />
    <glyph glyph-name="oacute" unicode="&#xf3;" horiz-adv-x="503" 
d="M313 700h38q5 0 6.5 -3t-1.5 -7l-88 -122q-9 -10 -18 -10h-25q-11 0 -6 10l77 122q6 10 17 10zM251 487q66 0 113 -32.5t66 -91.5q16 -51 16 -124q0 -74 -16 -125q-19 -59 -66 -91.5t-113 -32.5q-65 0 -112 32.5t-66 91.5q-16 51 -16 125q0 73 16 124q19 59 66 91.5
t112 32.5zM251 435q-96 0 -126 -89q-13 -39 -13 -107q0 -69 13 -108q30 -89 126 -89q97 0 127 89q13 39 13 108q0 68 -13 107q-30 89 -127 89z" />
    <glyph glyph-name="ocircumflex" unicode="&#xf4;" horiz-adv-x="503" 
d="M239 700h23q9 0 15 -9l91 -123q3 -4 1.5 -7t-5.5 -3h-25q-9 0 -17 10l-71 85h-2l-70 -85q-9 -10 -17 -10h-25q-5 0 -6 3t2 7l90 123q6 9 16 9zM251 487q66 0 113 -32.5t66 -91.5q16 -51 16 -124q0 -74 -16 -125q-19 -59 -66 -91.5t-113 -32.5q-65 0 -112 32.5t-66 91.5
q-16 51 -16 125q0 73 16 124q19 59 66 91.5t112 32.5zM251 435q-96 0 -126 -89q-13 -39 -13 -107q0 -69 13 -108q30 -89 126 -89q97 0 127 89q13 39 13 108q0 68 -13 107q-30 89 -127 89z" />
    <glyph glyph-name="otilde" unicode="&#xf5;" horiz-adv-x="503" 
d="M197 680q29 0 60 -20q29 -18 49 -18q28 0 59 33q3 3 5.5 2t2.5 -5v-30q0 -8 -7 -16q-30 -30 -62 -30q-26 0 -60 21q-29 18 -49 18q-25 0 -58 -33q-9 -7 -9 3v30q0 7 8 15q27 30 61 30zM251 487q66 0 113 -32.5t66 -91.5q16 -51 16 -124q0 -74 -16 -125q-19 -59 -66 -91.5
t-113 -32.5q-65 0 -112 32.5t-66 91.5q-16 51 -16 125q0 73 16 124q19 59 66 91.5t112 32.5zM251 435q-96 0 -126 -89q-13 -39 -13 -107q0 -69 13 -108q30 -89 126 -89q97 0 127 89q13 39 13 108q0 68 -13 107q-30 89 -127 89z" />
    <glyph glyph-name="odieresis" unicode="&#xf6;" horiz-adv-x="503" 
d="M131 680h40q10 0 10 -10v-56q0 -10 -10 -10h-40q-10 0 -10 10v56q0 10 10 10zM330 680h40q10 0 10 -10v-56q0 -10 -10 -10h-40q-10 0 -10 10v56q0 10 10 10zM251 487q66 0 113 -32.5t66 -91.5q16 -51 16 -124q0 -74 -16 -125q-19 -59 -66 -91.5t-113 -32.5
q-65 0 -112 32.5t-66 91.5q-16 51 -16 125q0 73 16 124q19 59 66 91.5t112 32.5zM251 435q-96 0 -126 -89q-13 -39 -13 -107q0 -69 13 -108q30 -89 126 -89q97 0 127 89q13 39 13 108q0 68 -13 107q-30 89 -127 89z" />
    <glyph glyph-name="divide" unicode="&#xf7;" 
d="M266 466q18 0 30.5 -12.5t12.5 -30.5t-12.5 -30.5t-30.5 -12.5t-30.5 12.5t-12.5 30.5t12.5 30.5t30.5 12.5zM76 301h380q10 0 10 -10v-30q0 -10 -10 -10h-380q-10 0 -10 10v30q0 10 10 10zM266 172q18 0 30.5 -12.5t12.5 -30.5t-12.5 -30.5t-30.5 -12.5t-30.5 12.5
t-12.5 30.5t12.5 30.5t30.5 12.5z" />
    <glyph glyph-name="oslash" unicode="&#xf8;" horiz-adv-x="503" 
d="M422 507h17q11 0 5 -10l-48 -73q21 -24 34 -61q16 -51 16 -124q0 -74 -16 -125q-19 -59 -66 -91.5t-113 -32.5q-72 0 -120 39l-33 -49q-7 -10 -17 -10h-17q-11 0 -5 10l47 72q-22 28 -33 62q-16 51 -16 125q0 73 16 124q19 59 66 91.5t112 32.5q71 0 121 -39l33 49
q7 10 17 10zM251 435q-96 0 -126 -89q-13 -39 -13 -107q0 -69 13 -108q6 -17 14 -31l203 303q-35 32 -91 32zM364 377l-203 -303q35 -32 90 -32q97 0 127 89q13 39 13 108q0 68 -13 107q-7 19 -14 31z" />
    <glyph glyph-name="ugrave" unicode="&#xf9;" horiz-adv-x="569" 
d="M177 700h38q10 0 16 -10l77 -122q7 -10 -5 -10h-25q-11 0 -18 10l-88 122q-3 4 -1.5 7t6.5 3zM341 477h106q10 0 10 -10v-411q0 -6 6 -6h56q10 0 10 -10v-30q0 -10 -10 -10h-106q-10 0 -10 10v56h-1q-38 -76 -137 -76q-78 0 -120.5 47t-42.5 134v250q0 6 -6 6h-56
q-10 0 -10 10v30q0 10 10 10h106q10 0 10 -10v-282q0 -143 121 -143q55 0 90.5 36t35.5 96v247q0 6 -6 6h-56q-10 0 -10 10v30q0 10 10 10z" />
    <glyph glyph-name="uacute" unicode="&#xfa;" horiz-adv-x="569" 
d="M334 700h38q5 0 6.5 -3t-1.5 -7l-88 -122q-9 -10 -18 -10h-25q-11 0 -6 10l77 122q6 10 17 10zM341 477h106q10 0 10 -10v-411q0 -6 6 -6h56q10 0 10 -10v-30q0 -10 -10 -10h-106q-10 0 -10 10v56h-1q-38 -76 -137 -76q-78 0 -120.5 47t-42.5 134v250q0 6 -6 6h-56
q-10 0 -10 10v30q0 10 10 10h106q10 0 10 -10v-282q0 -143 121 -143q55 0 90.5 36t35.5 96v247q0 6 -6 6h-56q-10 0 -10 10v30q0 10 10 10z" />
    <glyph glyph-name="ucircumflex" unicode="&#xfb;" horiz-adv-x="569" 
d="M262 700h23q9 0 15 -9l91 -123q3 -4 2 -7t-6 -3h-25q-10 0 -17 10l-71 85h-2l-70 -85q-9 -10 -17 -10h-25q-4 0 -5.5 3t1.5 7l90 123q6 9 16 9zM341 477h106q10 0 10 -10v-411q0 -6 6 -6h56q10 0 10 -10v-30q0 -10 -10 -10h-106q-10 0 -10 10v56h-1q-38 -76 -137 -76
q-78 0 -120.5 47t-42.5 134v250q0 6 -6 6h-56q-10 0 -10 10v30q0 10 10 10h106q10 0 10 -10v-282q0 -143 121 -143q55 0 90.5 36t35.5 96v247q0 6 -6 6h-56q-10 0 -10 10v30q0 10 10 10z" />
    <glyph glyph-name="udieresis" unicode="&#xfc;" horiz-adv-x="569" 
d="M154 680h40q10 0 10 -10v-56q0 -10 -10 -10h-40q-10 0 -10 10v56q0 10 10 10zM353 680h40q10 0 10 -10v-56q0 -10 -10 -10h-40q-10 0 -10 10v56q0 10 10 10zM341 477h106q10 0 10 -10v-411q0 -6 6 -6h56q10 0 10 -10v-30q0 -10 -10 -10h-106q-10 0 -10 10v56h-1
q-38 -76 -137 -76q-78 0 -120.5 47t-42.5 134v250q0 6 -6 6h-56q-10 0 -10 10v30q0 10 10 10h106q10 0 10 -10v-282q0 -143 121 -143q55 0 90.5 36t35.5 96v247q0 6 -6 6h-56q-10 0 -10 10v30q0 10 10 10z" />
    <glyph glyph-name="yacute" unicode="&#xfd;" horiz-adv-x="484" 
d="M307 700h38q5 0 6.5 -3t-1.5 -7l-88 -122q-9 -10 -18 -10h-25q-11 0 -6 10l77 122q6 10 17 10zM319 477h148q10 0 10 -10v-30q0 -10 -10 -10h-31q-6 0 -8 -6l-179 -468q-30 -79 -59.5 -106t-77.5 -27h-21q-10 0 -10 10v32q0 10 10 10h18q32 0 51 18t39 71l19 49l-160 411
q-2 6 -8 6h-31q-10 0 -10 10v30q0 10 10 10h152q10 0 10 -10v-30q0 -10 -10 -10h-50q-7 0 -4 -8l127 -338h2l126 338q3 8 -4 8h-49q-10 0 -10 10v30q0 10 10 10z" />
    <glyph glyph-name="thorn" unicode="&#xfe;" horiz-adv-x="551" 
d="M53 680h106q10 0 10 -10v-261h1q41 78 144 78q126 0 163 -114q17 -55 17 -135q0 -79 -17 -134q-37 -114 -163 -114q-104 0 -144 78h-1v-192q0 -6 6 -6h56q10 0 10 -10v-30q0 -10 -10 -10h-178q-10 0 -10 10v30q0 10 10 10h56q6 0 6 6v748q0 6 -6 6h-56q-10 0 -10 10v30
q0 10 10 10zM304 435q-95 0 -122 -84q-13 -38 -13 -113q0 -74 13 -112q27 -84 122 -84q94 0 122 84q13 39 13 112q0 74 -13 113q-28 84 -122 84z" />
    <glyph glyph-name="ydieresis" unicode="&#xff;" horiz-adv-x="484" 
d="M124 680h40q10 0 10 -10v-56q0 -10 -10 -10h-40q-10 0 -10 10v56q0 10 10 10zM323 680h40q10 0 10 -10v-56q0 -10 -10 -10h-40q-10 0 -10 10v56q0 10 10 10zM319 477h148q10 0 10 -10v-30q0 -10 -10 -10h-31q-6 0 -8 -6l-179 -468q-30 -79 -59.5 -106t-77.5 -27h-21
q-10 0 -10 10v32q0 10 10 10h18q32 0 51 18t39 71l19 49l-160 411q-2 6 -8 6h-31q-10 0 -10 10v30q0 10 10 10h152q10 0 10 -10v-30q0 -10 -10 -10h-50q-7 0 -4 -8l127 -338h2l126 338q3 8 -4 8h-49q-10 0 -10 10v30q0 10 10 10z" />
    <glyph glyph-name="Amacron" unicode="&#x100;" horiz-adv-x="618" 
d="M190 846h240q10 0 10 -10v-26q0 -10 -10 -10h-240q-10 0 -10 10v26q0 10 10 10zM290 680h41q9 0 12 -10l218 -614q1 -6 8 -6h35q10 0 10 -10v-30q0 -10 -10 -10h-165q-10 0 -10 10v30q0 10 10 10h56q8 0 5 7l-52 147h-278l-52 -147q-3 -7 5 -7h56q10 0 10 -10v-30
q0 -10 -10 -10h-165q-10 0 -10 10v30q0 10 10 10h36q6 0 8 6l220 614q3 10 12 10zM309 595l-120 -337h240l-118 337h-2z" />
    <glyph glyph-name="amacron" unicode="&#x101;" horiz-adv-x="518" 
d="M126 664h240q10 0 10 -10v-26q0 -10 -10 -10h-240q-10 0 -10 10v26q0 10 10 10zM243 487q91 0 130.5 -35.5t39.5 -122.5v-273q0 -6 6 -6h56q10 0 10 -10v-30q0 -10 -10 -10h-104q-10 0 -10 10v50h-1q-15 -32 -52.5 -51t-93.5 -19q-74 0 -117 36.5t-43 104.5
q0 141 181 141h119q6 0 6 6v48q0 61 -26 86.5t-93 25.5q-57 0 -96 -18q-5 -2 -5 -7v-59q0 -10 -10 -10h-33q-10 0 -10 10v86q0 9 7 13q60 34 149 34zM354 226h-112q-135 0 -135 -94q0 -45 30.5 -69t87.5 -24q62 0 98.5 29.5t36.5 78.5v73q0 6 -6 6z" />
    <glyph glyph-name="Abreve" unicode="&#x102;" horiz-adv-x="618" 
d="M407 881h19q11 0 9 -10q-7 -46 -40.5 -74.5t-84.5 -28.5t-84.5 28.5t-39.5 74.5q-2 10 9 10h19q9 0 12 -10q17 -59 84 -59q68 0 86 59q3 10 11 10zM290 680h41q9 0 12 -10l218 -614q1 -6 8 -6h35q10 0 10 -10v-30q0 -10 -10 -10h-165q-10 0 -10 10v30q0 10 10 10h56
q8 0 5 7l-52 147h-278l-52 -147q-3 -7 5 -7h56q10 0 10 -10v-30q0 -10 -10 -10h-165q-10 0 -10 10v30q0 10 10 10h36q6 0 8 6l220 614q3 10 12 10zM309 595l-120 -337h240l-118 337h-2z" />
    <glyph glyph-name="abreve" unicode="&#x103;" horiz-adv-x="518" 
d="M341 684h19q11 0 9 -10q-7 -47 -40.5 -75.5t-84.5 -28.5q-50 0 -84 29t-40 75q-2 10 9 10h19q9 0 12 -10q17 -60 84 -60q68 0 86 60q3 10 11 10zM243 487q91 0 130.5 -35.5t39.5 -122.5v-273q0 -6 6 -6h56q10 0 10 -10v-30q0 -10 -10 -10h-104q-10 0 -10 10v50h-1
q-15 -32 -52.5 -51t-93.5 -19q-74 0 -117 36.5t-43 104.5q0 141 181 141h119q6 0 6 6v48q0 61 -26 86.5t-93 25.5q-57 0 -96 -18q-5 -2 -5 -7v-59q0 -10 -10 -10h-33q-10 0 -10 10v86q0 9 7 13q60 34 149 34zM354 226h-112q-135 0 -135 -94q0 -45 30.5 -69t87.5 -24
q62 0 98.5 29.5t36.5 78.5v73q0 6 -6 6z" />
    <glyph glyph-name="Aogonek" unicode="&#x104;" horiz-adv-x="618" 
d="M290 680h41q9 0 12 -10l218 -614q1 -6 8 -6h35q10 0 10 -10v-30q0 -10 -10 -10h-128q-83 -60 -83 -97q0 -28 29 -28q13 0 28 9q8 5 13 -3l11 -21q3 -7 -4 -13q-25 -19 -56 -19q-32 0 -51 18t-19 50q0 56 85 112v32q0 10 10 10h56q8 0 5 7l-52 147h-278l-52 -147
q-3 -7 5 -7h56q10 0 10 -10v-30q0 -10 -10 -10h-165q-10 0 -10 10v30q0 10 10 10h36q6 0 8 6l220 614q3 10 12 10zM309 595l-120 -337h240l-118 337h-2z" />
    <glyph glyph-name="aogonek" unicode="&#x105;" horiz-adv-x="518" 
d="M243 487q91 0 130.5 -35.5t39.5 -122.5v-273q0 -6 6 -6h56q10 0 10 -10v-30q0 -10 -10 -10h-64q-83 -60 -83 -97q0 -28 29 -28q13 0 28 9q8 5 13 -3l11 -21q3 -7 -4 -13q-25 -19 -56 -19q-32 0 -51 18t-19 50q0 27 17.5 52t64.5 59v53h-1q-15 -32 -52.5 -51t-93.5 -19
q-74 0 -117 36.5t-43 104.5q0 141 181 141h119q6 0 6 6v48q0 61 -26 86.5t-93 25.5q-57 0 -96 -18q-5 -2 -5 -7v-59q0 -10 -10 -10h-33q-10 0 -10 10v86q0 9 7 13q60 34 149 34zM354 226h-112q-135 0 -135 -94q0 -45 30.5 -69t87.5 -24q62 0 98.5 29.5t36.5 78.5v73
q0 6 -6 6z" />
    <glyph glyph-name="Cacute" unicode="&#x106;" horiz-adv-x="578" 
d="M372 888h40q4 0 5.5 -3t-1.5 -7l-96 -105q-8 -9 -18 -9h-26q-12 0 -4 10l82 104q7 10 18 10zM314 690q120 0 193 -55q8 -6 8 -16v-105q0 -10 -10 -10h-34q-10 0 -10 10v75q0 6 -5 10q-52 37 -139 37q-137 0 -176 -114q-18 -54 -18 -182q0 -133 16 -183q38 -113 180 -113
q92 0 137 32q5 3 5 10v78q0 10 10 10h34q10 0 10 -10v-106q0 -10 -7 -16q-70 -52 -192 -52q-185 0 -233 149q-18 56 -18 201q0 135 20 197q49 153 229 153z" />
    <glyph glyph-name="cacute" unicode="&#x107;" horiz-adv-x="474" 
d="M307 700h38q5 0 6.5 -3t-1.5 -7l-88 -122q-9 -10 -18 -10h-25q-11 0 -6 10l77 122q6 10 17 10zM258 487q92 0 146 -36q7 -6 7 -12v-92q0 -10 -10 -10h-33q-10 0 -10 10v61q0 4 -4 7q-33 20 -95 20q-105 0 -134 -90q-13 -38 -13 -107q0 -70 13 -108q29 -88 134 -88
q63 0 95 18q4 3 4 7v59q0 10 10 10h33q10 0 10 -10v-90q0 -8 -8 -12q-57 -34 -145 -34q-146 0 -186 122q-15 48 -15 126q0 75 15 125q19 59 67 91.5t119 32.5z" />
    <glyph glyph-name="Ccircumflex" unicode="&#x108;" horiz-adv-x="578" 
d="M303 896h23q9 0 15 -9l91 -123q3 -4 1.5 -7t-5.5 -3h-25q-9 0 -17 10l-71 85h-2l-70 -85q-9 -10 -17 -10h-25q-5 0 -6 3t2 7l90 123q6 9 16 9zM314 690q120 0 193 -55q8 -6 8 -16v-105q0 -10 -10 -10h-34q-10 0 -10 10v75q0 6 -5 10q-52 37 -139 37q-137 0 -176 -114
q-18 -54 -18 -182q0 -133 16 -183q38 -113 180 -113q92 0 137 32q5 3 5 10v78q0 10 10 10h34q10 0 10 -10v-106q0 -10 -7 -16q-70 -52 -192 -52q-185 0 -233 149q-18 56 -18 201q0 135 20 197q49 153 229 153z" />
    <glyph glyph-name="ccircumflex" unicode="&#x109;" horiz-adv-x="474" 
d="M242 700h23q9 0 15 -9l91 -123q3 -4 2 -7t-6 -3h-25q-10 0 -17 10l-71 85h-2l-70 -85q-9 -10 -17 -10h-25q-4 0 -5.5 3t1.5 7l90 123q6 9 16 9zM258 487q92 0 146 -36q7 -6 7 -12v-92q0 -10 -10 -10h-33q-10 0 -10 10v61q0 4 -4 7q-33 20 -95 20q-105 0 -134 -90
q-13 -38 -13 -107q0 -70 13 -108q29 -88 134 -88q63 0 95 18q4 3 4 7v59q0 10 10 10h33q10 0 10 -10v-90q0 -8 -8 -12q-57 -34 -145 -34q-146 0 -186 122q-15 48 -15 126q0 75 15 125q19 59 67 91.5t119 32.5z" />
    <glyph glyph-name="Cdotaccent" unicode="&#x10a;" horiz-adv-x="578" 
d="M292 862h44q10 0 10 -10v-56q0 -10 -10 -10h-44q-10 0 -10 10v56q0 10 10 10zM314 690q120 0 193 -55q8 -6 8 -16v-105q0 -10 -10 -10h-34q-10 0 -10 10v75q0 6 -5 10q-52 37 -139 37q-137 0 -176 -114q-18 -54 -18 -182q0 -133 16 -183q38 -113 180 -113q92 0 137 32
q5 3 5 10v78q0 10 10 10h34q10 0 10 -10v-106q0 -10 -7 -16q-70 -52 -192 -52q-185 0 -233 149q-18 56 -18 201q0 135 20 197q49 153 229 153z" />
    <glyph glyph-name="cdotaccent" unicode="&#x10b;" horiz-adv-x="474" 
d="M230 680h44q10 0 10 -10v-56q0 -10 -10 -10h-44q-10 0 -10 10v56q0 10 10 10zM258 487q92 0 146 -36q7 -6 7 -12v-92q0 -10 -10 -10h-33q-10 0 -10 10v61q0 4 -4 7q-33 20 -95 20q-105 0 -134 -90q-13 -38 -13 -107q0 -70 13 -108q29 -88 134 -88q63 0 95 18q4 3 4 7v59
q0 10 10 10h33q10 0 10 -10v-90q0 -8 -8 -12q-57 -34 -145 -34q-146 0 -186 122q-15 48 -15 126q0 75 15 125q19 59 67 91.5t119 32.5z" />
    <glyph glyph-name="Ccaron" unicode="&#x10c;" horiz-adv-x="578" 
d="M403 895h25q4 0 5.5 -3t-1.5 -7l-91 -122q-6 -9 -15 -9h-23q-10 0 -16 9l-90 122q-3 4 -2 7t6 3h25q8 0 17 -10l70 -85h2l71 85q8 10 17 10zM314 690q120 0 193 -55q8 -6 8 -16v-105q0 -10 -10 -10h-34q-10 0 -10 10v75q0 6 -5 10q-52 37 -139 37q-137 0 -176 -114
q-18 -54 -18 -182q0 -133 16 -183q38 -113 180 -113q92 0 137 32q5 3 5 10v78q0 10 10 10h34q10 0 10 -10v-106q0 -10 -7 -16q-70 -52 -192 -52q-185 0 -233 149q-18 56 -18 201q0 135 20 197q49 153 229 153z" />
    <glyph glyph-name="ccaron" unicode="&#x10d;" horiz-adv-x="474" 
d="M341 699h25q4 0 5.5 -3t-1.5 -7l-91 -122q-6 -9 -15 -9h-23q-10 0 -16 9l-90 122q-3 4 -2 7t6 3h25q8 0 17 -10l70 -85h2l71 85q8 10 17 10zM258 487q92 0 146 -36q7 -6 7 -12v-92q0 -10 -10 -10h-33q-10 0 -10 10v61q0 4 -4 7q-33 20 -95 20q-105 0 -134 -90
q-13 -38 -13 -107q0 -70 13 -108q29 -88 134 -88q63 0 95 18q4 3 4 7v59q0 10 10 10h33q10 0 10 -10v-90q0 -8 -8 -12q-57 -34 -145 -34q-146 0 -186 122q-15 48 -15 126q0 75 15 125q19 59 67 91.5t119 32.5z" />
    <glyph glyph-name="Dcaron" unicode="&#x10e;" horiz-adv-x="642" 
d="M402 895h25q5 0 6 -3t-2 -7l-91 -122q-6 -9 -15 -9h-23q-10 0 -16 9l-90 122q-3 4 -1.5 7t5.5 3h25q8 0 17 -10l70 -85h2l71 85q8 10 17 10zM53 680h280q172 0 217 -138q18 -55 18 -202t-18 -202q-45 -138 -217 -138h-280q-10 0 -10 10v30q0 10 10 10h60q6 0 6 6v568
q0 6 -6 6h-60q-10 0 -10 10v30q0 10 10 10zM324 626h-142q-6 0 -6 -6v-560q0 -6 6 -6h142q137 0 171 102q16 48 16 184t-16 184q-34 102 -171 102z" />
    <glyph glyph-name="dcaron" unicode="&#x10f;" horiz-adv-x="551" 
d="M320 680h106q10 0 10 -10v-614q0 -6 6 -6h56q10 0 10 -10v-30q0 -10 -10 -10h-106q-10 0 -10 10v58h-1q-40 -78 -144 -78q-125 0 -163 114q-17 51 -17 134q0 84 17 135q38 114 161 114q107 0 146 -78h1v215q0 6 -6 6h-56q-10 0 -10 10v30q0 10 10 10zM490 680h37
q10 0 10 -10v-48q0 -11 -5 -21l-32 -57q-4 -9 -11 -9q-9 0 -9 10v125q0 10 10 10zM247 435q-94 0 -122 -84q-13 -39 -13 -113q0 -73 13 -112q28 -84 122 -84q95 0 122 84q13 38 13 112q0 75 -13 113q-27 84 -122 84z" />
    <glyph glyph-name="Dcroat" unicode="&#x110;" horiz-adv-x="642" 
d="M53 680h280q172 0 217 -138q18 -55 18 -202t-18 -202q-45 -138 -217 -138h-280q-10 0 -10 10v30q0 10 10 10h60q6 0 6 6v259q0 5 -6 5h-40q-10 0 -10 10v30q0 10 10 10h40q6 0 6 6v248q0 6 -6 6h-60q-10 0 -10 10v30q0 10 10 10zM324 626h-142q-6 0 -6 -6v-244q0 -6 6 -6
h130q10 0 10 -10v-30q0 -10 -10 -10h-130q-6 0 -6 -5v-255q0 -6 6 -6h142q137 0 171 102q16 48 16 184t-16 184q-34 102 -171 102z" />
    <glyph glyph-name="dcroat" unicode="&#x111;" horiz-adv-x="551" 
d="M320 680h106q10 0 10 -10v-84q0 -6 6 -6h34q10 0 10 -10v-26q0 -10 -10 -10h-34q-6 0 -6 -6v-472q0 -6 6 -6h56q10 0 10 -10v-30q0 -10 -10 -10h-106q-10 0 -10 10v58h-1q-40 -78 -144 -78q-125 0 -163 114q-17 51 -17 134q0 84 17 135q38 114 161 114q107 0 146 -78h1
v119q0 6 -6 6h-131q-10 0 -10 10v26q0 10 10 10h131q6 0 6 6v38q0 6 -6 6h-56q-10 0 -10 10v30q0 10 10 10zM247 435q-94 0 -122 -84q-13 -39 -13 -113q0 -73 13 -112q28 -84 122 -84q95 0 122 84q13 38 13 112q0 75 -13 113q-27 84 -122 84z" />
    <glyph glyph-name="Emacron" unicode="&#x112;" horiz-adv-x="582" 
d="M185 846h240q10 0 10 -10v-26q0 -10 -10 -10h-240q-10 0 -10 10v26q0 10 10 10zM53 680h459q10 0 10 -10v-117q0 -10 -10 -10h-34q-10 0 -10 10v67q0 6 -6 6h-280q-6 0 -6 -6v-242q0 -6 6 -6h220q6 0 6 6v51q0 10 10 10h34q10 0 10 -10v-168q0 -10 -10 -10h-34
q-10 0 -10 10v51q0 6 -6 6h-220q-6 0 -6 -6v-252q0 -6 6 -6h280q6 0 6 6v70q0 10 10 10h34q10 0 10 -10v-120q0 -10 -10 -10h-459q-10 0 -10 10v30q0 10 10 10h60q6 0 6 6v568q0 6 -6 6h-60q-10 0 -10 10v30q0 10 10 10z" />
    <glyph glyph-name="emacron" unicode="&#x113;" horiz-adv-x="496" 
d="M127 664h240q10 0 10 -10v-26q0 -10 -10 -10h-240q-10 0 -10 10v26q0 10 10 10zM248 487q66 0 112.5 -32t65.5 -92q14 -42 14 -127q0 -10 -11 -10h-311q-6 0 -6 -7q0 -54 10 -84q32 -93 135 -93q84 0 133 61q6 8 14 2l23 -21q7 -6 1 -14q-60 -80 -174 -80
q-142 0 -183 126q-14 41 -14 123q0 79 14 124q19 60 65.5 92t111.5 32zM248 437q-98 0 -127 -90q-9 -29 -9 -69q0 -6 6 -6h261q6 0 6 6q0 40 -9 69q-29 90 -128 90z" />
    <glyph glyph-name="Ebreve" unicode="&#x114;" horiz-adv-x="582" 
d="M403 881h19q11 0 9 -10q-7 -46 -40.5 -74.5t-84.5 -28.5t-84.5 28.5t-39.5 74.5q-2 10 9 10h19q9 0 12 -10q17 -59 84 -59q68 0 86 59q3 10 11 10zM53 680h459q10 0 10 -10v-117q0 -10 -10 -10h-34q-10 0 -10 10v67q0 6 -6 6h-280q-6 0 -6 -6v-242q0 -6 6 -6h220q6 0 6 6
v51q0 10 10 10h34q10 0 10 -10v-168q0 -10 -10 -10h-34q-10 0 -10 10v51q0 6 -6 6h-220q-6 0 -6 -6v-252q0 -6 6 -6h280q6 0 6 6v70q0 10 10 10h34q10 0 10 -10v-120q0 -10 -10 -10h-459q-10 0 -10 10v30q0 10 10 10h60q6 0 6 6v568q0 6 -6 6h-60q-10 0 -10 10v30
q0 10 10 10z" />
    <glyph glyph-name="ebreve" unicode="&#x115;" horiz-adv-x="496" 
d="M344 684h19q11 0 9 -10q-7 -47 -40.5 -75.5t-84.5 -28.5q-50 0 -84 29t-40 75q-2 10 9 10h19q9 0 12 -10q17 -60 84 -60q68 0 86 60q3 10 11 10zM248 487q66 0 112.5 -32t65.5 -92q14 -42 14 -127q0 -10 -11 -10h-311q-6 0 -6 -7q0 -54 10 -84q32 -93 135 -93
q84 0 133 61q6 8 14 2l23 -21q7 -6 1 -14q-60 -80 -174 -80q-142 0 -183 126q-14 41 -14 123q0 79 14 124q19 60 65.5 92t111.5 32zM248 437q-98 0 -127 -90q-9 -29 -9 -69q0 -6 6 -6h261q6 0 6 6q0 40 -9 69q-29 90 -128 90z" />
    <glyph glyph-name="Edotaccent" unicode="&#x116;" horiz-adv-x="582" 
d="M288 862h44q10 0 10 -10v-56q0 -10 -10 -10h-44q-10 0 -10 10v56q0 10 10 10zM53 680h459q10 0 10 -10v-117q0 -10 -10 -10h-34q-10 0 -10 10v67q0 6 -6 6h-280q-6 0 -6 -6v-242q0 -6 6 -6h220q6 0 6 6v51q0 10 10 10h34q10 0 10 -10v-168q0 -10 -10 -10h-34
q-10 0 -10 10v51q0 6 -6 6h-220q-6 0 -6 -6v-252q0 -6 6 -6h280q6 0 6 6v70q0 10 10 10h34q10 0 10 -10v-120q0 -10 -10 -10h-459q-10 0 -10 10v30q0 10 10 10h60q6 0 6 6v568q0 6 -6 6h-60q-10 0 -10 10v30q0 10 10 10z" />
    <glyph glyph-name="edotaccent" unicode="&#x117;" horiz-adv-x="496" 
d="M225 680h44q10 0 10 -10v-56q0 -10 -10 -10h-44q-10 0 -10 10v56q0 10 10 10zM248 487q66 0 112.5 -32t65.5 -92q14 -42 14 -127q0 -10 -11 -10h-311q-6 0 -6 -7q0 -54 10 -84q32 -93 135 -93q84 0 133 61q6 8 14 2l23 -21q7 -6 1 -14q-60 -80 -174 -80q-142 0 -183 126
q-14 41 -14 123q0 79 14 124q19 60 65.5 92t111.5 32zM248 437q-98 0 -127 -90q-9 -29 -9 -69q0 -6 6 -6h261q6 0 6 6q0 40 -9 69q-29 90 -128 90z" />
    <glyph glyph-name="Eogonek" unicode="&#x118;" horiz-adv-x="582" 
d="M53 680h459q10 0 10 -10v-117q0 -10 -10 -10h-34q-10 0 -10 10v67q0 6 -6 6h-280q-6 0 -6 -6v-242q0 -6 6 -6h220q6 0 6 6v51q0 10 10 10h34q10 0 10 -10v-168q0 -10 -10 -10h-34q-10 0 -10 10v51q0 6 -6 6h-220q-6 0 -6 -6v-252q0 -6 6 -6h280q6 0 6 6v70q0 10 10 10h34
q10 0 10 -10v-120q0 -10 -10 -10h-15q-83 -60 -83 -97q0 -28 29 -28q13 0 28 9q8 5 13 -3l11 -21q3 -7 -4 -13q-25 -19 -56 -19q-32 0 -51 18t-19 50q0 50 72 104h-384q-10 0 -10 10v30q0 10 10 10h60q6 0 6 6v568q0 6 -6 6h-60q-10 0 -10 10v30q0 10 10 10z" />
    <glyph glyph-name="eogonek" unicode="&#x119;" horiz-adv-x="496" 
d="M248 487q65 0 112 -32t66 -92q14 -42 14 -127q0 -10 -11 -10h-311q-6 0 -6 -7q0 -53 10 -84q32 -93 135 -93q84 0 133 61q6 8 14 2l23 -21q7 -6 1 -14q-13 -17 -34 -35q-53 -56 -69.5 -83.5t-16.5 -48.5q0 -28 29 -28q13 0 28 9q8 5 13 -3l11 -21q3 -7 -4 -13
q-25 -19 -56 -19q-32 0 -51 18t-19 50q0 41 50 100q-25 -6 -55 -6q-142 0 -183 126q-14 45 -14 123q0 79 14 124q19 60 65.5 92t111.5 32zM248 437q-98 0 -127 -90q-9 -29 -9 -69q0 -6 6 -6h261q6 0 6 6q0 40 -9 69q-29 90 -128 90z" />
    <glyph glyph-name="Ecaron" unicode="&#x11a;" horiz-adv-x="582" 
d="M398 895h25q5 0 6 -3t-2 -7l-91 -122q-6 -9 -15 -9h-23q-10 0 -16 9l-90 122q-3 4 -1.5 7t5.5 3h25q8 0 17 -10l70 -85h2l71 85q7 10 17 10zM53 680h459q10 0 10 -10v-117q0 -10 -10 -10h-34q-10 0 -10 10v67q0 6 -6 6h-280q-6 0 -6 -6v-242q0 -6 6 -6h220q6 0 6 6v51
q0 10 10 10h34q10 0 10 -10v-168q0 -10 -10 -10h-34q-10 0 -10 10v51q0 6 -6 6h-220q-6 0 -6 -6v-252q0 -6 6 -6h280q6 0 6 6v70q0 10 10 10h34q10 0 10 -10v-120q0 -10 -10 -10h-459q-10 0 -10 10v30q0 10 10 10h60q6 0 6 6v568q0 6 -6 6h-60q-10 0 -10 10v30q0 10 10 10z
" />
    <glyph glyph-name="ecaron" unicode="&#x11b;" horiz-adv-x="496" 
d="M336 699h25q5 0 6 -3t-2 -7l-91 -122q-6 -9 -15 -9h-23q-10 0 -16 9l-90 122q-3 4 -1.5 7t5.5 3h25q8 0 17 -10l70 -85h2l71 85q7 10 17 10zM248 487q66 0 112.5 -32t65.5 -92q14 -42 14 -127q0 -10 -11 -10h-311q-6 0 -6 -7q0 -54 10 -84q32 -93 135 -93q84 0 133 61
q6 8 14 2l23 -21q7 -6 1 -14q-60 -80 -174 -80q-142 0 -183 126q-14 41 -14 123q0 79 14 124q19 60 65.5 92t111.5 32zM248 437q-98 0 -127 -90q-9 -29 -9 -69q0 -6 6 -6h261q6 0 6 6q0 40 -9 69q-29 90 -128 90z" />
    <glyph glyph-name="Gcircumflex" unicode="&#x11c;" horiz-adv-x="615" 
d="M305 896h23q9 0 15 -9l91 -123q3 -4 1.5 -7t-5.5 -3h-25q-9 0 -17 10l-71 85h-2l-70 -85q-9 -10 -17 -10h-25q-5 0 -6 3t2 7l90 123q6 9 16 9zM325 690q122 0 197 -61q7 -6 7 -16v-97q0 -10 -10 -10h-34q-10 0 -10 10v68q0 7 -5 11q-52 41 -146 41q-143 0 -183 -117
q-18 -52 -18 -181q0 -132 16 -180q39 -114 180 -114q94 0 151 36q6 4 6 11v196q0 6 -6 6h-145q-10 0 -10 10v33q0 10 10 10h197q10 0 10 -10v-272q0 -10 -7 -15q-77 -59 -206 -59q-187 0 -236 151q-18 56 -18 197q0 135 20 197q51 155 240 155z" />
    <glyph glyph-name="gcircumflex" unicode="&#x11d;" horiz-adv-x="541" 
d="M237 700h23q9 0 15 -9l91 -123q3 -4 1.5 -7t-5.5 -3h-25q-9 0 -17 10l-71 85h-2l-70 -85q-9 -10 -17 -10h-25q-5 0 -6 3t2 7l90 123q6 9 16 9zM232 487q103 0 141 -79h1v59q0 10 10 10h106q10 0 10 -10v-30q0 -10 -10 -10h-56q-6 0 -6 -6v-412q0 -98 -50 -148.5
t-141 -50.5q-51 0 -94 19.5t-64 49.5q-5 8 2 14l24 21q8 8 15 -1q44 -51 118 -51q136 0 136 145v69h-1q-38 -78 -141 -78q-122 0 -159 114q-16 49 -16 130t16 130q38 115 159 115zM243 435q-89 0 -117 -83q-14 -39 -14 -110q0 -67 14 -109q29 -84 117 -84q91 0 119 84
q12 36 12 109t-12 109q-28 84 -119 84z" />
    <glyph glyph-name="Gbreve" unicode="&#x11e;" horiz-adv-x="615" 
d="M413 881h19q11 0 9 -10q-7 -46 -40.5 -74.5t-84.5 -28.5t-84.5 28.5t-39.5 74.5q-2 10 9 10h19q9 0 12 -10q17 -59 84 -59q68 0 86 59q3 10 11 10zM325 690q122 0 197 -61q7 -6 7 -16v-97q0 -10 -10 -10h-34q-10 0 -10 10v68q0 7 -5 11q-52 41 -146 41q-143 0 -183 -117
q-18 -52 -18 -181q0 -132 16 -180q39 -114 180 -114q94 0 151 36q6 4 6 11v196q0 6 -6 6h-145q-10 0 -10 10v33q0 10 10 10h197q10 0 10 -10v-272q0 -10 -7 -15q-77 -59 -206 -59q-187 0 -236 151q-18 56 -18 197q0 135 20 197q51 155 240 155z" />
    <glyph glyph-name="gbreve" unicode="&#x11f;" horiz-adv-x="541" 
d="M347 684h19q11 0 9 -10q-7 -47 -40.5 -75.5t-84.5 -28.5q-50 0 -84 29t-40 75q-2 10 9 10h19q9 0 12 -10q17 -60 84 -60q68 0 86 60q3 10 11 10zM232 487q103 0 141 -79h1v59q0 10 10 10h106q10 0 10 -10v-30q0 -10 -10 -10h-56q-6 0 -6 -6v-412q0 -98 -50 -148.5
t-141 -50.5q-51 0 -94 19.5t-64 49.5q-5 8 2 14l24 21q8 8 15 -1q44 -51 118 -51q136 0 136 145v69h-1q-38 -78 -141 -78q-122 0 -159 114q-16 49 -16 130t16 130q38 115 159 115zM243 435q-89 0 -117 -83q-14 -39 -14 -110q0 -67 14 -109q29 -84 117 -84q91 0 119 84
q12 36 12 109t-12 109q-28 84 -119 84z" />
    <glyph glyph-name="Gdotaccent" unicode="&#x120;" horiz-adv-x="615" 
d="M294 862h44q10 0 10 -10v-56q0 -10 -10 -10h-44q-10 0 -10 10v56q0 10 10 10zM325 690q122 0 197 -61q7 -6 7 -16v-97q0 -10 -10 -10h-34q-10 0 -10 10v68q0 7 -5 11q-52 41 -146 41q-143 0 -183 -117q-18 -52 -18 -181q0 -132 16 -180q39 -114 180 -114q94 0 151 36
q6 4 6 11v196q0 6 -6 6h-145q-10 0 -10 10v33q0 10 10 10h197q10 0 10 -10v-272q0 -10 -7 -15q-77 -59 -206 -59q-187 0 -236 151q-18 56 -18 197q0 135 20 197q51 155 240 155z" />
    <glyph glyph-name="gdotaccent" unicode="&#x121;" horiz-adv-x="541" 
d="M229 680h44q10 0 10 -10v-56q0 -10 -10 -10h-44q-10 0 -10 10v56q0 10 10 10zM232 487q103 0 141 -79h1v59q0 10 10 10h106q10 0 10 -10v-30q0 -10 -10 -10h-56q-6 0 -6 -6v-412q0 -98 -50 -148.5t-141 -50.5q-51 0 -94 19.5t-64 49.5q-5 8 2 14l24 21q8 8 15 -1
q44 -51 118 -51q136 0 136 145v69h-1q-38 -78 -141 -78q-122 0 -159 114q-16 49 -16 130t16 130q38 115 159 115zM243 435q-89 0 -117 -83q-14 -39 -14 -110q0 -67 14 -109q29 -84 117 -84q91 0 119 84q12 36 12 109t-12 109q-28 84 -119 84z" />
    <glyph glyph-name="Gcommaaccent" unicode="&#x122;" horiz-adv-x="615" 
d="M325 690q122 0 197 -61q7 -6 7 -16v-97q0 -10 -10 -10h-34q-10 0 -10 10v68q0 7 -5 11q-52 41 -146 41q-143 0 -183 -117q-18 -52 -18 -181q0 -132 16 -180q39 -114 180 -114q94 0 151 36q6 4 6 11v196q0 6 -6 6h-145q-10 0 -10 10v33q0 10 10 10h197q10 0 10 -10v-272
q0 -10 -7 -15q-77 -59 -206 -59q-187 0 -236 151q-18 56 -18 197q0 135 20 197q51 155 240 155zM299 -56h37q10 0 10 -10v-42q0 -12 -5 -22l-32 -57q-4 -8 -11 -8q-9 0 -9 9v120q0 10 10 10z" />
    <glyph glyph-name="gcommaaccent" unicode="&#x123;" horiz-adv-x="541" 
d="M265 715q9 0 9 -9v-124q0 -10 -10 -10h-37q-10 0 -10 10v46q0 12 5 22l32 57q4 8 11 8zM232 487q103 0 141 -79h1v59q0 10 10 10h106q10 0 10 -10v-30q0 -10 -10 -10h-56q-6 0 -6 -6v-412q0 -98 -50 -148.5t-141 -50.5q-51 0 -94 19.5t-64 49.5q-5 8 2 14l24 21
q8 8 15 -1q44 -51 118 -51q136 0 136 145v69h-1q-38 -78 -141 -78q-122 0 -159 114q-16 49 -16 130t16 130q38 115 159 115zM243 435q-89 0 -117 -83q-14 -39 -14 -110q0 -67 14 -109q29 -84 117 -84q91 0 119 84q12 36 12 109t-12 109q-28 84 -119 84z" />
    <glyph glyph-name="Hcircumflex" unicode="&#x124;" horiz-adv-x="692" 
d="M334 896h23q9 0 15 -9l91 -123q3 -4 2 -7t-6 -3h-25q-10 0 -17 10l-71 85h-2l-70 -85q-9 -10 -17 -10h-25q-4 0 -5.5 3t1.5 7l90 123q6 9 16 9zM450 680h189q10 0 10 -10v-30q0 -10 -10 -10h-60q-6 0 -6 -6v-568q0 -6 6 -6h60q10 0 10 -10v-30q0 -10 -10 -10h-189
q-10 0 -10 10v30q0 10 10 10h60q6 0 6 6v256q0 6 -6 6h-328q-6 0 -6 -6v-256q0 -6 6 -6h60q10 0 10 -10v-30q0 -10 -10 -10h-189q-10 0 -10 10v30q0 10 10 10h60q6 0 6 6v568q0 6 -6 6h-60q-10 0 -10 10v30q0 10 10 10h189q10 0 10 -10v-30q0 -10 -10 -10h-60q-6 0 -6 -6
v-246q0 -6 6 -6h328q6 0 6 6v246q0 6 -6 6h-60q-10 0 -10 10v30q0 10 10 10z" />
    <glyph glyph-name="uni0125" unicode="&#x125;" horiz-adv-x="581" 
d="M285 896h23q9 0 15 -9l91 -123q3 -4 1.5 -7t-5.5 -3h-25q-9 0 -17 10l-71 85h-2l-70 -85q-9 -10 -17 -10h-25q-5 0 -6 3t2 7l90 123q6 9 16 9zM53 680h106q10 0 10 -10v-260h1q38 77 138 77q79 0 122 -47.5t43 -134.5v-249q0 -6 6 -6h55q10 0 10 -10v-30q0 -10 -10 -10
h-177q-10 0 -10 10v30q0 10 10 10h56q6 0 6 6v236q0 143 -123 143q-55 0 -91 -36t-36 -97v-246q0 -6 6 -6h56q10 0 10 -10v-30q0 -10 -10 -10h-178q-10 0 -10 10v30q0 10 10 10h56q6 0 6 6v568q0 6 -6 6h-56q-10 0 -10 10v30q0 10 10 10z" />
    <glyph glyph-name="Hbar" unicode="&#x126;" horiz-adv-x="692" 
d="M450 680h189q10 0 10 -10v-30q0 -10 -10 -10h-60q-6 0 -6 -6v-85q0 -6 6 -6h40q10 0 10 -10v-28q0 -10 -10 -10h-40q-6 0 -6 -6v-423q0 -6 6 -6h60q10 0 10 -10v-30q0 -10 -10 -10h-189q-10 0 -10 10v30q0 10 10 10h60q6 0 6 6v256q0 6 -6 6h-328q-6 0 -6 -6v-256
q0 -6 6 -6h60q10 0 10 -10v-30q0 -10 -10 -10h-189q-10 0 -10 10v30q0 10 10 10h60q6 0 6 6v423q0 6 -6 6h-40q-10 0 -10 10v28q0 10 10 10h40q6 0 6 6v85q0 6 -6 6h-60q-10 0 -10 10v30q0 10 10 10h189q10 0 10 -10v-30q0 -10 -10 -10h-60q-6 0 -6 -6v-85q0 -6 6 -6h328
q6 0 6 6v85q0 6 -6 6h-60q-10 0 -10 10v30q0 10 10 10zM510 485h-328q-6 0 -6 -6v-101q0 -6 6 -6h328q6 0 6 6v101q0 6 -6 6z" />
    <glyph glyph-name="hbar" unicode="&#x127;" horiz-adv-x="581" 
d="M53 680h106q10 0 10 -10v-84q0 -6 6 -6h131q10 0 10 -10v-26q0 -10 -10 -10h-131q-6 0 -6 -6v-118h1q38 77 138 77q79 0 122 -47.5t43 -134.5v-249q0 -6 6 -6h55q10 0 10 -10v-30q0 -10 -10 -10h-177q-10 0 -10 10v30q0 10 10 10h56q6 0 6 6v236q0 143 -123 143
q-55 0 -91 -36t-36 -97v-246q0 -6 6 -6h56q10 0 10 -10v-30q0 -10 -10 -10h-178q-10 0 -10 10v30q0 10 10 10h56q6 0 6 6v472q0 6 -6 6h-34q-10 0 -10 10v26q0 10 10 10h34q6 0 6 6v38q0 6 -6 6h-56q-10 0 -10 10v30q0 10 10 10z" />
    <glyph glyph-name="Itilde" unicode="&#x128;" horiz-adv-x="295" 
d="M94 866q29 0 60 -20q29 -18 49 -18q28 0 59 33q3 3 5.5 2t2.5 -5v-30q0 -8 -7 -16q-30 -30 -62 -30q-26 0 -60 21q-29 18 -49 18q-25 0 -58 -33q-9 -7 -9 3v30q0 7 8 15q27 30 61 30zM53 680h189q10 0 10 -10v-30q0 -10 -10 -10h-60q-6 0 -6 -6v-568q0 -6 6 -6h60
q10 0 10 -10v-30q0 -10 -10 -10h-189q-10 0 -10 10v30q0 10 10 10h60q6 0 6 6v568q0 6 -6 6h-60q-10 0 -10 10v30q0 10 10 10z" />
    <glyph glyph-name="itilde" unicode="&#x129;" horiz-adv-x="281" 
d="M82 680q29 0 60 -20q29 -18 49 -18q28 0 59 33q3 3 5.5 2t2.5 -5v-30q0 -8 -7 -16q-30 -30 -62 -30q-26 0 -60 21q-29 18 -49 18q-25 0 -58 -33q-9 -7 -9 3v30q0 7 8 15q27 30 61 30zM53 477h106q10 0 10 -10v-411q0 -6 6 -6h56q10 0 10 -10v-30q0 -10 -10 -10h-178
q-10 0 -10 10v30q0 10 10 10h56q6 0 6 6v365q0 6 -6 6h-56q-10 0 -10 10v30q0 10 10 10z" />
    <glyph glyph-name="Imacron" unicode="&#x12a;" horiz-adv-x="295" 
d="M27 846h240q10 0 10 -10v-26q0 -10 -10 -10h-240q-10 0 -10 10v26q0 10 10 10zM53 680h189q10 0 10 -10v-30q0 -10 -10 -10h-60q-6 0 -6 -6v-568q0 -6 6 -6h60q10 0 10 -10v-30q0 -10 -10 -10h-189q-10 0 -10 10v30q0 10 10 10h60q6 0 6 6v568q0 6 -6 6h-60q-10 0 -10 10
v30q0 10 10 10z" />
    <glyph glyph-name="imacron" unicode="&#x12b;" horiz-adv-x="281" 
d="M16 664h240q10 0 10 -10v-26q0 -10 -10 -10h-240q-10 0 -10 10v26q0 10 10 10zM53 477h106q10 0 10 -10v-411q0 -6 6 -6h56q10 0 10 -10v-30q0 -10 -10 -10h-178q-10 0 -10 10v30q0 10 10 10h56q6 0 6 6v365q0 6 -6 6h-56q-10 0 -10 10v30q0 10 10 10z" />
    <glyph glyph-name="Ibreve" unicode="&#x12c;" horiz-adv-x="295" 
d="M244 881h19q11 0 9 -10q-7 -46 -40.5 -74.5t-84.5 -28.5t-84.5 28.5t-39.5 74.5q-2 10 9 10h19q9 0 12 -10q17 -59 84 -59q68 0 86 59q3 10 11 10zM53 680h189q10 0 10 -10v-30q0 -10 -10 -10h-60q-6 0 -6 -6v-568q0 -6 6 -6h60q10 0 10 -10v-30q0 -10 -10 -10h-189
q-10 0 -10 10v30q0 10 10 10h60q6 0 6 6v568q0 6 -6 6h-60q-10 0 -10 10v30q0 10 10 10z" />
    <glyph glyph-name="ibreve" unicode="&#x12d;" horiz-adv-x="281" 
d="M232 684h19q11 0 9 -10q-7 -47 -40.5 -75.5t-84.5 -28.5q-50 0 -84 29t-40 75q-2 10 9 10h19q9 0 12 -10q17 -60 84 -60q68 0 86 60q3 10 11 10zM53 477h106q10 0 10 -10v-411q0 -6 6 -6h56q10 0 10 -10v-30q0 -10 -10 -10h-178q-10 0 -10 10v30q0 10 10 10h56q6 0 6 6
v365q0 6 -6 6h-56q-10 0 -10 10v30q0 10 10 10z" />
    <glyph glyph-name="Iogonek" unicode="&#x12e;" horiz-adv-x="295" 
d="M53 680h189q10 0 10 -10v-30q0 -10 -10 -10h-60q-6 0 -6 -6v-568q0 -6 6 -6h60q10 0 10 -10v-30q0 -10 -10 -10h-67q-60 -63 -60 -97q0 -28 29 -28q13 0 28 9q8 5 13 -3l10 -19q5 -9 -3 -15q-23 -19 -56 -19q-32 0 -51 18t-19 50q0 44 55 104h-68q-10 0 -10 10v30
q0 10 10 10h60q6 0 6 6v568q0 6 -6 6h-60q-10 0 -10 10v30q0 10 10 10z" />
    <glyph glyph-name="uni012F" unicode="&#x12f;" horiz-adv-x="281" 
d="M120 680h44q10 0 10 -10v-56q0 -10 -10 -10h-44q-10 0 -10 10v56q0 10 10 10zM53 477h106q10 0 10 -10v-411q0 -6 6 -6h56q10 0 10 -10v-30q0 -10 -10 -10h-63q-60 -62 -60 -97q0 -28 29 -28q13 0 28 9q8 5 13 -3l11 -21q3 -7 -4 -13q-25 -19 -56 -19q-32 0 -51 18
t-19 50q0 45 55 104h-61q-10 0 -10 10v30q0 10 10 10h56q6 0 6 6v365q0 6 -6 6h-56q-10 0 -10 10v30q0 10 10 10z" />
    <glyph glyph-name="Idotaccent" unicode="&#x130;" horiz-adv-x="295" 
d="M125 862h44q10 0 10 -10v-56q0 -10 -10 -10h-44q-10 0 -10 10v56q0 10 10 10zM53 680h189q10 0 10 -10v-30q0 -10 -10 -10h-60q-6 0 -6 -6v-568q0 -6 6 -6h60q10 0 10 -10v-30q0 -10 -10 -10h-189q-10 0 -10 10v30q0 10 10 10h60q6 0 6 6v568q0 6 -6 6h-60q-10 0 -10 10
v30q0 10 10 10z" />
    <glyph glyph-name="dotlessi" unicode="&#x131;" horiz-adv-x="281" 
d="M53 477h106q10 0 10 -10v-411q0 -6 6 -6h56q10 0 10 -10v-30q0 -10 -10 -10h-178q-10 0 -10 10v30q0 10 10 10h56q6 0 6 6v365q0 6 -6 6h-56q-10 0 -10 10v30q0 10 10 10z" />
    <glyph glyph-name="IJ" unicode="&#x132;" horiz-adv-x="795" 
d="M53 680h189q10 0 10 -10v-30q0 -10 -10 -10h-60q-6 0 -6 -6v-568q0 -6 6 -6h60q10 0 10 -10v-30q0 -10 -10 -10h-189q-10 0 -10 10v30q0 10 10 10h60q6 0 6 6v568q0 6 -6 6h-60q-10 0 -10 10v30q0 10 10 10zM555 680h190q10 0 10 -10v-30q0 -10 -10 -10h-58q-6 0 -6 -6
v-421q0 -106 -52.5 -159.5t-143.5 -53.5q-88 0 -145 39q-6 4 -6 11v119q0 10 10 10h34q10 0 10 -10v-83q0 -8 5 -10q37 -22 93 -22q138 0 138 160v420q0 6 -6 6h-63q-10 0 -10 10v30q0 10 10 10z" />
    <glyph glyph-name="ij" unicode="&#x133;" horiz-adv-x="557" 
d="M120 680h44q10 0 10 -10v-56q0 -10 -10 -10h-44q-10 0 -10 10v56q0 10 10 10zM401 680h44q10 0 10 -10v-56q0 -10 -10 -10h-44q-10 0 -10 10v56q0 10 10 10zM53 477h106q10 0 10 -10v-411q0 -6 6 -6h56q10 0 10 -10v-30q0 -10 -10 -10h-178q-10 0 -10 10v30q0 10 10 10
h56q6 0 6 6v365q0 6 -6 6h-56q-10 0 -10 10v30q0 10 10 10zM334 477h106q10 0 10 -10v-522q0 -69 -28 -97t-95 -28h-11q-10 0 -10 10v30q0 10 10 10h9q41 0 56 15t15 59v477q0 6 -6 6h-56q-10 0 -10 10v30q0 10 10 10z" />
    <glyph glyph-name="Jcircumflex" unicode="&#x134;" horiz-adv-x="500" 
d="M344 896h23q9 0 15 -9l91 -123q3 -4 2 -7t-6 -3h-25q-9 0 -17 10l-71 85h-2l-70 -85q-9 -10 -17 -10h-25q-4 0 -5.5 3t1.5 7l90 123q6 9 16 9zM260 680h190q10 0 10 -10v-30q0 -10 -10 -10h-58q-6 0 -6 -6v-421q0 -106 -52.5 -159.5t-143.5 -53.5q-88 0 -145 39
q-6 5 -6 11v119q0 10 10 10h34q10 0 10 -10v-83q0 -8 5 -10q37 -22 93 -22q138 0 138 160v420q0 6 -6 6h-63q-10 0 -10 10v30q0 10 10 10z" />
    <glyph glyph-name="jcircumflex" unicode="&#x135;" horiz-adv-x="276" 
d="M115 700h23q9 0 15 -9l91 -123q3 -4 1.5 -7t-5.5 -3h-25q-9 0 -17 10l-71 85h-2l-70 -85q-9 -10 -17 -10h-25q-5 0 -6 3t2 7l90 123q6 9 16 9zM53 477h106q10 0 10 -10v-522q0 -69 -28.5 -97t-94.5 -28h-11q-10 0 -10 10v30q0 10 10 10h9q41 0 56 15t15 59v477q0 6 -6 6
h-56q-10 0 -10 10v30q0 10 10 10z" />
    <glyph glyph-name="Kcommaaccent" unicode="&#x136;" horiz-adv-x="638" 
d="M418 680h177q10 0 10 -10v-30q0 -10 -10 -10h-50q-6 0 -11 -6l-182 -209l189 -359q4 -6 9 -6h66q10 0 10 -10v-30q0 -10 -10 -10h-101q-9 0 -13 8l-190 361l-136 -156v-157q0 -6 6 -6h60q10 0 10 -10v-30q0 -10 -10 -10h-189q-10 0 -10 10v30q0 10 10 10h60q6 0 6 6v568
q0 6 -6 6h-60q-10 0 -10 10v30q0 10 10 10h189q10 0 10 -10v-30q0 -10 -10 -10h-60q-6 0 -6 -6v-331l291 331q4 6 -3 6h-46q-10 0 -10 10v30q0 10 10 10zM302 -56h37q10 0 10 -10v-42q0 -12 -5 -22l-32 -57q-4 -8 -11 -8q-9 0 -9 9v120q0 10 10 10z" />
    <glyph glyph-name="kcommaaccent" unicode="&#x137;" horiz-adv-x="537" 
d="M53 680h106q10 0 10 -10v-454l214 252q7 9 17 9h76q10 0 10 -10v-30q0 -10 -10 -10h-58q-6 0 -11 -6l-101 -120l146 -245q4 -6 11 -6h52q10 0 10 -10v-30q0 -10 -10 -10h-81q-10 0 -17 10l-147 249l-101 -119v-84q0 -6 6 -6h56q10 0 10 -10v-30q0 -10 -10 -10h-178
q-10 0 -10 10v30q0 10 10 10h56q6 0 6 6v568q0 6 -6 6h-56q-10 0 -10 10v30q0 10 10 10zM252 -56h37q10 0 10 -10v-42q0 -12 -5 -22l-32 -57q-4 -8 -11 -8q-9 0 -9 9v120q0 10 10 10z" />
    <glyph glyph-name="kgreenlandic" unicode="&#x138;" horiz-adv-x="537" 
d="M400 477h76q10 0 10 -10v-30q0 -10 -10 -10h-58q-6 0 -11 -6l-101 -120l146 -245q4 -6 11 -6h52q10 0 10 -10v-30q0 -10 -10 -10h-81q-10 0 -17 10l-147 249l-101 -119v-84q0 -6 6 -6h56q10 0 10 -10v-30q0 -10 -10 -10h-178q-10 0 -10 10v30q0 10 10 10h56q6 0 6 6v365
q0 6 -6 6h-56q-10 0 -10 10v30q0 10 10 10h106q10 0 10 -10v-251l214 252q7 9 17 9z" />
    <glyph glyph-name="Lacute" unicode="&#x139;" horiz-adv-x="549" 
d="M228 888h40q4 0 5.5 -3t-1.5 -7l-96 -105q-8 -9 -18 -9h-26q-12 0 -4 10l82 104q7 10 18 10zM53 680h189q10 0 10 -10v-30q0 -10 -10 -10h-60q-6 0 -6 -6v-564q0 -6 6 -6h277q6 0 6 6v70q0 10 10 10h34q10 0 10 -10v-120q0 -10 -10 -10h-456q-10 0 -10 10v30q0 10 10 10
h60q6 0 6 6v568q0 6 -6 6h-60q-10 0 -10 10v30q0 10 10 10z" />
    <glyph glyph-name="lacute" unicode="&#x13a;" horiz-adv-x="275" 
d="M213 888h40q5 0 6 -3t-2 -7l-96 -105q-8 -9 -18 -9h-26q-12 0 -4 10l82 104q7 10 18 10zM38 680h106q10 0 10 -10v-559q0 -35 11.5 -48.5t39.5 -13.5h17q10 0 10 -10v-31q0 -10 -10 -10h-23q-53 0 -76 26.5t-23 85.5v514q0 6 -6 6h-56q-10 0 -10 10v30q0 10 10 10z" />
    <glyph glyph-name="Lcommaaccent" unicode="&#x13b;" horiz-adv-x="549" 
d="M53 680h189q10 0 10 -10v-30q0 -10 -10 -10h-60q-6 0 -6 -6v-564q0 -6 6 -6h277q6 0 6 6v70q0 10 10 10h34q10 0 10 -10v-120q0 -10 -10 -10h-456q-10 0 -10 10v30q0 10 10 10h60q6 0 6 6v568q0 6 -6 6h-60q-10 0 -10 10v30q0 10 10 10zM288 -56h37q10 0 10 -10v-42
q0 -12 -5 -22l-32 -57q-4 -8 -11 -8q-9 0 -9 9v120q0 10 10 10z" />
    <glyph glyph-name="lcommaaccent" unicode="&#x13c;" horiz-adv-x="275" 
d="M38 680h106q10 0 10 -10v-559q0 -35 11.5 -48.5t39.5 -13.5h17q10 0 10 -10v-31q0 -10 -10 -10h-23q-53 0 -76 26.5t-23 85.5v514q0 6 -6 6h-56q-10 0 -10 10v30q0 10 10 10zM146 -56h37q10 0 10 -10v-42q0 -12 -5 -22l-32 -57q-4 -8 -11 -8q-9 0 -9 9v120q0 10 10 10z
" />
    <glyph glyph-name="Lcaron" unicode="&#x13d;" horiz-adv-x="549" 
d="M53 680h189q10 0 10 -10v-30q0 -10 -10 -10h-60q-6 0 -6 -6v-564q0 -6 6 -6h277q6 0 6 6v70q0 10 10 10h34q10 0 10 -10v-120q0 -10 -10 -10h-456q-10 0 -10 10v30q0 10 10 10h60q6 0 6 6v568q0 6 -6 6h-60q-10 0 -10 10v30q0 10 10 10zM304 680h37q10 0 10 -10v-48
q0 -11 -5 -21l-32 -57q-4 -9 -11 -9q-9 0 -9 10v125q0 10 10 10z" />
    <glyph glyph-name="lcaron" unicode="&#x13e;" horiz-adv-x="275" 
d="M38 680h106q10 0 10 -10v-559q0 -35 11.5 -48.5t39.5 -13.5h17q10 0 10 -10v-31q0 -10 -10 -10h-23q-53 0 -76 26.5t-23 85.5v514q0 6 -6 6h-56q-10 0 -10 10v30q0 10 10 10zM206 680h37q10 0 10 -10v-48q0 -11 -5 -21l-32 -57q-4 -9 -11 -9q-9 0 -9 10v125q0 10 10 10z
" />
    <glyph glyph-name="Ldot" unicode="&#x13f;" horiz-adv-x="549" 
d="M53 680h189q10 0 10 -10v-30q0 -10 -10 -10h-60q-6 0 -6 -6v-564q0 -6 6 -6h277q6 0 6 6v70q0 10 10 10h34q10 0 10 -10v-120q0 -10 -10 -10h-456q-10 0 -10 10v30q0 10 10 10h60q6 0 6 6v568q0 6 -6 6h-60q-10 0 -10 10v30q0 10 10 10zM397 370h49q10 0 10 -10v-67
q0 -10 -10 -10h-49q-10 0 -10 10v67q0 10 10 10z" />
    <glyph glyph-name="ldot" unicode="&#x140;" horiz-adv-x="275" 
d="M38 680h106q10 0 10 -10v-559q0 -35 11.5 -48.5t39.5 -13.5h17q10 0 10 -10v-31q0 -10 -10 -10h-23q-53 0 -76 26.5t-23 85.5v514q0 6 -6 6h-56q-10 0 -10 10v30q0 10 10 10zM255 373h49q10 0 10 -10v-67q0 -10 -10 -10h-49q-10 0 -10 10v67q0 10 10 10z" />
    <glyph glyph-name="Lslash" unicode="&#x141;" horiz-adv-x="549" 
d="M53 680h189q10 0 10 -10v-30q0 -10 -10 -10h-60q-6 0 -6 -6v-249l158 82q10 5 10 -6v-36q0 -9 -10 -14l-158 -82v-259q0 -6 6 -6h277q6 0 6 6v70q0 10 10 10h34q10 0 10 -10v-120q0 -10 -10 -10h-456q-10 0 -10 10v30q0 10 10 10h60q6 0 6 6v235l-57 -29q-10 -5 -10 6v36
q0 9 10 14l57 29v277q0 6 -6 6h-60q-10 0 -10 10v30q0 10 10 10z" />
    <glyph glyph-name="lslash" unicode="&#x142;" horiz-adv-x="275" 
d="M38 680h106q10 0 10 -10v-270l68 36q10 5 10 -6v-33q0 -9 -10 -14l-68 -36v-236q0 -35 11.5 -48.5t39.5 -13.5h17q10 0 10 -10v-31q0 -10 -10 -10h-23q-53 0 -76 26.5t-23 85.5v212l-39 -20q-10 -5 -10 6v33q0 9 10 14l39 20v249q0 6 -6 6h-56q-10 0 -10 10v30
q0 10 10 10z" />
    <glyph glyph-name="Nacute" unicode="&#x143;" horiz-adv-x="695" 
d="M401 888h40q5 0 6 -3t-2 -7l-96 -105q-8 -9 -18 -9h-26q-12 0 -4 10l82 104q7 10 18 10zM453 680h189q10 0 10 -10v-30q0 -10 -10 -10h-60q-6 0 -6 -6v-614q0 -10 -10 -10h-39q-11 0 -17 10l-331 561h-3v-515q0 -6 6 -6h60q10 0 10 -10v-30q0 -10 -10 -10h-189
q-10 0 -10 10v30q0 10 10 10h60q6 0 6 6v568q0 6 -6 6h-60q-10 0 -10 10v30q0 10 10 10h113q12 0 17 -10l332 -559h4v513q0 6 -6 6h-60q-10 0 -10 10v30q0 10 10 10z" />
    <glyph glyph-name="nacute" unicode="&#x144;" horiz-adv-x="581" 
d="M335 700h38q5 0 6.5 -3t-1.5 -7l-88 -122q-9 -10 -18 -10h-25q-11 0 -6 10l77 122q6 10 17 10zM308 487q79 0 122 -47.5t43 -134.5v-249q0 -6 6 -6h55q10 0 10 -10v-30q0 -10 -10 -10h-177q-10 0 -10 10v30q0 10 10 10h56q6 0 6 6v236q0 143 -123 143q-55 0 -91 -36
t-36 -97v-246q0 -6 6 -6h56q10 0 10 -10v-30q0 -10 -10 -10h-178q-10 0 -10 10v30q0 10 10 10h56q6 0 6 6v365q0 6 -6 6h-56q-10 0 -10 10v30q0 10 10 10h106q10 0 10 -10v-57h1q38 77 138 77z" />
    <glyph glyph-name="Ncommaaccent" unicode="&#x145;" horiz-adv-x="695" 
d="M453 680h189q10 0 10 -10v-30q0 -10 -10 -10h-60q-6 0 -6 -6v-614q0 -10 -10 -10h-39q-11 0 -17 10l-331 561h-3v-515q0 -6 6 -6h60q10 0 10 -10v-30q0 -10 -10 -10h-189q-10 0 -10 10v30q0 10 10 10h60q6 0 6 6v568q0 6 -6 6h-60q-10 0 -10 10v30q0 10 10 10h113
q12 0 17 -10l332 -559h4v513q0 6 -6 6h-60q-10 0 -10 10v30q0 10 10 10zM332 -56h37q10 0 10 -10v-42q0 -12 -5 -22l-32 -57q-4 -8 -11 -8q-9 0 -9 9v120q0 10 10 10z" />
    <glyph glyph-name="ncommaaccent" unicode="&#x146;" horiz-adv-x="581" 
d="M308 487q79 0 122 -47.5t43 -134.5v-249q0 -6 6 -6h55q10 0 10 -10v-30q0 -10 -10 -10h-177q-10 0 -10 10v30q0 10 10 10h56q6 0 6 6v236q0 143 -123 143q-55 0 -91 -36t-36 -97v-246q0 -6 6 -6h56q10 0 10 -10v-30q0 -10 -10 -10h-178q-10 0 -10 10v30q0 10 10 10h56
q6 0 6 6v365q0 6 -6 6h-56q-10 0 -10 10v30q0 10 10 10h106q10 0 10 -10v-57h1q38 77 138 77zM272 -56h37q10 0 10 -10v-42q0 -12 -5 -22l-32 -57q-4 -8 -11 -8q-9 0 -9 9v120q0 10 10 10z" />
    <glyph glyph-name="Ncaron" unicode="&#x147;" horiz-adv-x="695" 
d="M435 895h25q4 0 5.5 -3t-1.5 -7l-91 -122q-6 -9 -15 -9h-23q-10 0 -16 9l-90 122q-3 4 -2 7t6 3h25q8 0 17 -10l70 -85h2l71 85q8 10 17 10zM453 680h189q10 0 10 -10v-30q0 -10 -10 -10h-60q-6 0 -6 -6v-614q0 -10 -10 -10h-39q-11 0 -17 10l-331 561h-3v-515q0 -6 6 -6
h60q10 0 10 -10v-30q0 -10 -10 -10h-189q-10 0 -10 10v30q0 10 10 10h60q6 0 6 6v568q0 6 -6 6h-60q-10 0 -10 10v30q0 10 10 10h113q12 0 17 -10l332 -559h4v513q0 6 -6 6h-60q-10 0 -10 10v30q0 10 10 10z" />
    <glyph glyph-name="ncaron" unicode="&#x148;" horiz-adv-x="581" 
d="M380 699h25q5 0 6 -3t-2 -7l-91 -122q-6 -9 -15 -9h-23q-10 0 -16 9l-90 122q-3 4 -1.5 7t5.5 3h25q8 0 17 -10l70 -85h2l71 85q7 10 17 10zM308 487q79 0 122 -47.5t43 -134.5v-249q0 -6 6 -6h55q10 0 10 -10v-30q0 -10 -10 -10h-177q-10 0 -10 10v30q0 10 10 10h56
q6 0 6 6v236q0 143 -123 143q-55 0 -91 -36t-36 -97v-246q0 -6 6 -6h56q10 0 10 -10v-30q0 -10 -10 -10h-178q-10 0 -10 10v30q0 10 10 10h56q6 0 6 6v365q0 6 -6 6h-56q-10 0 -10 10v30q0 10 10 10h106q10 0 10 -10v-57h1q38 77 138 77z" />
    <glyph glyph-name="uni0149" unicode="&#x149;" horiz-adv-x="581" 
d="M39 680h37q10 0 10 -10v-48q0 -11 -5 -21l-32 -57q-5 -9 -11 -9q-9 0 -9 10v125q0 10 10 10zM308 487q79 0 122 -47.5t43 -134.5v-249q0 -6 6 -6h55q10 0 10 -10v-30q0 -10 -10 -10h-177q-10 0 -10 10v30q0 10 10 10h56q6 0 6 6v236q0 143 -123 143q-55 0 -91 -36
t-36 -97v-246q0 -6 6 -6h56q10 0 10 -10v-30q0 -10 -10 -10h-178q-10 0 -10 10v30q0 10 10 10h56q6 0 6 6v365q0 6 -6 6h-56q-10 0 -10 10v30q0 10 10 10h106q10 0 10 -10v-57h1q38 77 138 77z" />
    <glyph glyph-name="Eng" unicode="&#x14a;" horiz-adv-x="695" 
d="M453 680h189q10 0 10 -10v-30q0 -10 -10 -10h-60q-6 0 -6 -6v-653q0 -79 -35.5 -115t-110.5 -36h-13q-10 0 -10 10v32q0 10 10 10h13q47 0 68 21.5t21 71.5v35l-340 572h-3v-516q0 -6 6 -6h60q10 0 10 -10v-30q0 -10 -10 -10h-189q-10 0 -10 10v30q0 10 10 10h60q6 0 6 6
v568q0 6 -6 6h-60q-10 0 -10 10v30q0 10 10 10h113q12 0 17 -10l332 -555h4v509q0 6 -6 6h-60q-10 0 -10 10v30q0 10 10 10z" />
    <glyph glyph-name="eng" unicode="&#x14b;" horiz-adv-x="572" 
d="M310 487q79 0 122 -47.5t43 -134.5v-360q0 -69 -28.5 -97t-94.5 -28h-12q-10 0 -10 10v30q0 10 10 10h10q41 0 56 14.5t15 58.5v349q0 143 -124 143q-55 0 -91 -36t-36 -97v-246q0 -6 6 -6h56q10 0 10 -10v-30q0 -10 -10 -10h-178q-10 0 -10 10v30q0 10 10 10h56q6 0 6 6
v365q0 6 -6 6h-56q-10 0 -10 10v30q0 10 10 10h106q10 0 10 -10v-57h1q38 77 139 77z" />
    <glyph glyph-name="Omacron" unicode="&#x14c;" horiz-adv-x="609" 
d="M183 846h240q10 0 10 -10v-26q0 -10 -10 -10h-240q-10 0 -10 10v26q0 10 10 10zM305 690q169 0 219 -153q20 -60 20 -197t-20 -197q-50 -153 -219 -153q-170 0 -220 153q-20 60 -20 197t20 197q50 153 220 153zM305 636q-127 0 -165 -115q-17 -51 -17 -181t17 -181
q38 -115 165 -115q126 0 164 115q17 51 17 181t-17 181q-38 115 -164 115z" />
    <glyph glyph-name="omacron" unicode="&#x14d;" horiz-adv-x="503" 
d="M131 664h240q10 0 10 -10v-26q0 -10 -10 -10h-240q-10 0 -10 10v26q0 10 10 10zM251 487q66 0 113 -32.5t66 -91.5q16 -51 16 -124q0 -74 -16 -125q-19 -59 -66 -91.5t-113 -32.5q-65 0 -112 32.5t-66 91.5q-16 51 -16 125q0 73 16 124q19 59 66 91.5t112 32.5zM251 435
q-96 0 -126 -89q-13 -39 -13 -107q0 -69 13 -108q30 -89 126 -89q97 0 127 89q13 39 13 108q0 68 -13 107q-30 89 -127 89z" />
    <glyph glyph-name="Obreve" unicode="&#x14e;" horiz-adv-x="609" 
d="M400 881h19q11 0 9 -10q-7 -46 -40.5 -74.5t-84.5 -28.5t-84.5 28.5t-39.5 74.5q-2 10 9 10h19q9 0 12 -10q17 -59 84 -59q68 0 86 59q3 10 11 10zM305 690q169 0 219 -153q20 -60 20 -197t-20 -197q-50 -153 -219 -153q-170 0 -220 153q-20 60 -20 197t20 197
q50 153 220 153zM305 636q-127 0 -165 -115q-17 -51 -17 -181t17 -181q38 -115 165 -115q126 0 164 115q17 51 17 181t-17 181q-38 115 -164 115z" />
    <glyph glyph-name="obreve" unicode="&#x14f;" horiz-adv-x="503" 
d="M347 684h19q11 0 9 -10q-7 -47 -40.5 -75.5t-84.5 -28.5q-50 0 -84 29t-40 75q-2 10 9 10h19q9 0 12 -10q17 -60 84 -60q68 0 86 60q3 10 11 10zM251 487q66 0 113 -32.5t66 -91.5q16 -51 16 -124q0 -74 -16 -125q-19 -59 -66 -91.5t-113 -32.5q-65 0 -112 32.5t-66 91.5
q-16 51 -16 125q0 73 16 124q19 59 66 91.5t112 32.5zM251 435q-96 0 -126 -89q-13 -39 -13 -107q0 -69 13 -108q30 -89 126 -89q97 0 127 89q13 39 13 108q0 68 -13 107q-30 89 -127 89z" />
    <glyph glyph-name="Ohungarumlaut" unicode="&#x150;" horiz-adv-x="609" 
d="M306 889h33q5 0 6 -3t-2 -7l-75 -105q-7 -10 -16 -10h-25q-5 0 -6 3t2 7l67 105q6 10 16 10zM430 889h34q4 0 5.5 -3t-1.5 -7l-76 -105q-7 -10 -16 -10h-25q-5 0 -6 3t2 7l67 105q7 10 16 10zM305 690q169 0 219 -153q20 -60 20 -197t-20 -197q-50 -153 -219 -153
q-170 0 -220 153q-20 60 -20 197t20 197q50 153 220 153zM305 636q-127 0 -165 -115q-17 -51 -17 -181t17 -181q38 -115 165 -115q126 0 164 115q17 51 17 181t-17 181q-38 115 -164 115z" />
    <glyph glyph-name="ohungarumlaut" unicode="&#x151;" horiz-adv-x="503" 
d="M254 700h33q11 0 5 -10l-76 -123q-6 -9 -15 -9h-24q-11 0 -6 10l67 122q6 10 16 10zM379 700h32q11 0 5 -10l-76 -123q-6 -9 -15 -9h-24q-10 0 -5 10l67 122q6 10 16 10zM251 487q66 0 113 -32.5t66 -91.5q16 -51 16 -124q0 -74 -16 -125q-19 -59 -66 -91.5t-113 -32.5
q-65 0 -112 32.5t-66 91.5q-16 51 -16 125q0 73 16 124q19 59 66 91.5t112 32.5zM251 435q-96 0 -126 -89q-13 -39 -13 -107q0 -69 13 -108q30 -89 126 -89q97 0 127 89q13 39 13 108q0 68 -13 107q-30 89 -127 89z" />
    <glyph glyph-name="OE" unicode="&#x152;" horiz-adv-x="949" 
d="M304 690q131 0 181 -98h1v78q0 10 10 10h383q10 0 10 -10v-117q0 -10 -10 -10h-34q-10 0 -10 10v67q0 6 -6 6h-280q-6 0 -6 -6v-242q0 -6 6 -6h220q6 0 6 6v51q0 10 10 10h34q10 0 10 -10v-168q0 -10 -10 -10h-34q-10 0 -10 10v51q0 6 -6 6h-220q-6 0 -6 -6v-252
q0 -6 6 -6h280q6 0 6 6v70q0 10 10 10h34q10 0 10 -10v-120q0 -10 -10 -10h-383q-10 0 -10 10v78h-1q-50 -98 -181 -98q-169 0 -219 153q-20 62 -20 197t20 197q50 153 219 153zM304 636q-125 0 -164 -114q-17 -51 -17 -182t17 -182q39 -114 164 -114q126 0 165 114
q17 51 17 182t-17 182q-39 114 -165 114z" />
    <glyph glyph-name="oe" unicode="&#x153;" horiz-adv-x="830" 
d="M582 487q65 0 111.5 -32t65.5 -92q14 -42 14 -127q0 -10 -11 -10h-311q-6 0 -6 -7q1 -54 11 -84q31 -93 134 -93q82 0 134 61q8 9 16 1l20 -20q7 -7 1 -14q-60 -80 -174 -80q-123 0 -168 100h-2q-44 -100 -166 -100q-66 0 -112.5 32.5t-65.5 91.5q-16 47 -16 124
q0 78 16 125q19 59 65.5 91.5t112.5 32.5q121 0 166 -100h1q45 100 164 100zM582 437q-98 0 -127 -90q-10 -32 -10 -69q0 -6 6 -6h261q6 0 6 6q0 40 -9 69q-31 90 -127 90zM251 435q-96 0 -126 -89q-13 -39 -13 -107q0 -69 13 -108q30 -89 126 -89q97 0 127 89q13 39 13 108
q0 68 -13 107q-30 89 -127 89z" />
    <glyph glyph-name="Racute" unicode="&#x154;" horiz-adv-x="634" 
d="M365 888h40q5 0 6 -3t-2 -7l-96 -105q-8 -9 -18 -9h-26q-12 0 -4 10l82 104q7 10 18 10zM53 680h297q99 0 153.5 -49t54.5 -137q0 -68 -36.5 -114.5t-103.5 -62.5l110 -262q2 -5 8 -5h56q10 0 10 -10v-30q0 -10 -10 -10h-97q-9 0 -13 9l-124 299h-176q-6 0 -6 -6v-246
q0 -6 6 -6h60q10 0 10 -10v-30q0 -10 -10 -10h-189q-10 0 -10 10v30q0 10 10 10h60q6 0 6 6v568q0 6 -6 6h-60q-10 0 -10 10v30q0 10 10 10zM349 626h-167q-6 0 -6 -6v-252q0 -6 6 -6h167q73 0 112.5 35t39.5 98t-39.5 97t-112.5 34z" />
    <glyph glyph-name="racute" unicode="&#x155;" horiz-adv-x="398" 
d="M271 700h38q5 0 6.5 -3t-1.5 -7l-88 -122q-9 -10 -18 -10h-25q-11 0 -6 10l77 122q6 10 17 10zM301 484q38 0 57 -7q9 -3 9 -11v-33q0 -12 -11 -9q-33 7 -60 7q-57 0 -92 -41.5t-35 -121.5v-212q0 -6 6 -6h64q10 0 10 -10v-30q0 -10 -10 -10h-186q-10 0 -10 10v30
q0 10 10 10h56q6 0 6 6v365q0 6 -6 6h-56q-10 0 -10 10v30q0 10 10 10h106q10 0 10 -10v-71h1q16 39 49.5 63.5t81.5 24.5z" />
    <glyph glyph-name="Rcommaaccent" unicode="&#x156;" horiz-adv-x="634" 
d="M53 680h297q99 0 153.5 -49t54.5 -137q0 -68 -36.5 -114.5t-103.5 -62.5l110 -262q2 -5 8 -5h56q10 0 10 -10v-30q0 -10 -10 -10h-97q-9 0 -13 9l-124 299h-176q-6 0 -6 -6v-246q0 -6 6 -6h60q10 0 10 -10v-30q0 -10 -10 -10h-189q-10 0 -10 10v30q0 10 10 10h60q6 0 6 6
v568q0 6 -6 6h-60q-10 0 -10 10v30q0 10 10 10zM349 626h-167q-6 0 -6 -6v-252q0 -6 6 -6h167q73 0 112.5 35t39.5 98t-39.5 97t-112.5 34zM301 -56h37q10 0 10 -10v-42q0 -12 -5 -22l-32 -57q-4 -8 -11 -8q-9 0 -9 9v120q0 10 10 10z" />
    <glyph glyph-name="rcommaaccent" unicode="&#x157;" horiz-adv-x="398" 
d="M301 484q38 0 57 -7q9 -3 9 -11v-33q0 -12 -11 -9q-33 7 -60 7q-57 0 -92 -41.5t-35 -121.5v-212q0 -6 6 -6h64q10 0 10 -10v-30q0 -10 -10 -10h-186q-10 0 -10 10v30q0 10 10 10h56q6 0 6 6v365q0 6 -6 6h-56q-10 0 -10 10v30q0 10 10 10h106q10 0 10 -10v-71h1
q16 39 49.5 63.5t81.5 24.5zM121 -56h37q10 0 10 -10v-42q0 -12 -5 -22l-32 -57q-4 -8 -11 -8q-9 0 -9 9v120q0 10 10 10z" />
    <glyph glyph-name="Rcaron" unicode="&#x158;" horiz-adv-x="634" 
d="M390 895h25q5 0 6 -3t-2 -7l-91 -122q-6 -9 -15 -9h-23q-10 0 -16 9l-90 122q-3 4 -1.5 7t5.5 3h25q8 0 17 -10l70 -85h2l71 85q7 10 17 10zM53 680h297q99 0 153.5 -49t54.5 -137q0 -68 -36.5 -114.5t-103.5 -62.5l110 -262q2 -5 8 -5h56q10 0 10 -10v-30q0 -10 -10 -10
h-97q-9 0 -13 9l-124 299h-176q-6 0 -6 -6v-246q0 -6 6 -6h60q10 0 10 -10v-30q0 -10 -10 -10h-189q-10 0 -10 10v30q0 10 10 10h60q6 0 6 6v568q0 6 -6 6h-60q-10 0 -10 10v30q0 10 10 10zM349 626h-167q-6 0 -6 -6v-252q0 -6 6 -6h167q73 0 112.5 35t39.5 98t-39.5 97
t-112.5 34z" />
    <glyph glyph-name="rcaron" unicode="&#x159;" horiz-adv-x="398" 
d="M319 699h25q4 0 5.5 -3t-1.5 -7l-91 -122q-6 -9 -15 -9h-23q-10 0 -16 9l-90 122q-3 4 -2 7t6 3h25q8 0 17 -10l70 -85h2l71 85q8 10 17 10zM301 484q38 0 57 -7q9 -3 9 -11v-33q0 -12 -11 -9q-33 7 -60 7q-57 0 -92 -41.5t-35 -121.5v-212q0 -6 6 -6h64q10 0 10 -10v-30
q0 -10 -10 -10h-186q-10 0 -10 10v30q0 10 10 10h56q6 0 6 6v365q0 6 -6 6h-56q-10 0 -10 10v30q0 10 10 10h106q10 0 10 -10v-71h1q16 39 49.5 63.5t81.5 24.5z" />
    <glyph glyph-name="Sacute" unicode="&#x15a;" horiz-adv-x="587" 
d="M356 888h40q4 0 5.5 -3t-1.5 -7l-96 -105q-8 -9 -18 -9h-26q-12 0 -4 10l82 104q7 10 18 10zM298 690q105 0 181 -44q7 -4 7 -11v-106q0 -10 -10 -10h-34q-10 0 -10 10v70q0 8 -6 10q-57 27 -132 27q-76 0 -116 -34t-40 -93q0 -56 34 -87t119 -44l40 -6q99 -15 145.5 -61
t46.5 -126q0 -90 -60.5 -142.5t-176.5 -52.5q-118 0 -207 56q-5 3 -5 10v108q0 10 10 10h34q10 0 10 -10v-73q0 -7 5 -9q73 -38 159 -38q82 0 127.5 36t45.5 101q0 57 -34.5 90.5t-122.5 46.5l-35 5q-100 14 -146.5 59t-46.5 123q0 88 57.5 136.5t160.5 48.5z" />
    <glyph glyph-name="sacute" unicode="&#x15b;" horiz-adv-x="473" 
d="M286 700h38q5 0 6.5 -3t-1.5 -7l-88 -122q-9 -10 -18 -10h-25q-11 0 -6 10l77 122q6 10 17 10zM235 487q83 0 147 -31q8 -4 8 -12v-88q0 -10 -10 -10h-32q-10 0 -10 10v56q0 6 -5 8q-40 18 -99 18q-115 0 -115 -82q0 -36 24.5 -55.5t83.5 -26.5l50 -6q140 -17 140 -132
q0 -69 -48 -107.5t-137 -38.5q-92 0 -164 40q-6 3 -6 12v92q0 10 10 10h32q10 0 10 -10v-61q0 -6 4 -9q52 -25 120 -25q61 0 93 24t32 67q0 39 -23.5 59.5t-86.5 27.5l-50 6q-138 17 -138 128q0 64 45 100t125 36z" />
    <glyph glyph-name="Scircumflex" unicode="&#x15c;" horiz-adv-x="587" 
d="M280 896h23q9 0 15 -9l91 -123q3 -4 2 -7t-6 -3h-25q-10 0 -17 10l-71 85h-2l-70 -85q-9 -10 -17 -10h-25q-4 0 -5.5 3t1.5 7l90 123q6 9 16 9zM298 690q105 0 181 -44q7 -4 7 -11v-106q0 -10 -10 -10h-34q-10 0 -10 10v70q0 8 -6 10q-57 27 -132 27q-76 0 -116 -34
t-40 -93q0 -56 34 -87t119 -44l40 -6q99 -15 145.5 -61t46.5 -126q0 -90 -60.5 -142.5t-176.5 -52.5q-118 0 -207 56q-5 3 -5 10v108q0 10 10 10h34q10 0 10 -10v-73q0 -7 5 -9q73 -38 159 -38q82 0 127.5 36t45.5 101q0 57 -34.5 90.5t-122.5 46.5l-35 5q-100 14 -146.5 59
t-46.5 123q0 88 57.5 136.5t160.5 48.5z" />
    <glyph glyph-name="scircumflex" unicode="&#x15d;" horiz-adv-x="473" 
d="M217 700h23q9 0 15 -9l91 -123q3 -4 1.5 -7t-5.5 -3h-25q-9 0 -17 10l-71 85h-2l-70 -85q-9 -10 -17 -10h-25q-5 0 -6 3t2 7l90 123q6 9 16 9zM235 487q83 0 147 -31q8 -4 8 -12v-88q0 -10 -10 -10h-32q-10 0 -10 10v56q0 6 -5 8q-40 18 -99 18q-115 0 -115 -82
q0 -36 24.5 -55.5t83.5 -26.5l50 -6q140 -17 140 -132q0 -69 -48 -107.5t-137 -38.5q-92 0 -164 40q-6 3 -6 12v92q0 10 10 10h32q10 0 10 -10v-61q0 -6 4 -9q52 -25 120 -25q61 0 93 24t32 67q0 39 -23.5 59.5t-86.5 27.5l-50 6q-138 17 -138 128q0 64 45 100t125 36z" />
    <glyph glyph-name="Scedilla" unicode="&#x15e;" horiz-adv-x="587" 
d="M298 690q105 0 181 -44q7 -4 7 -11v-106q0 -10 -10 -10h-34q-10 0 -10 10v70q0 8 -6 10q-57 27 -132 27q-76 0 -116 -34t-40 -93q0 -56 34 -87t119 -44l40 -6q99 -15 145.5 -61t46.5 -126q0 -83 -52 -134.5t-151 -58.5l-43 -130q-4 -10 -16 -10h-31q-10 0 -7 10l50 128
q-109 3 -194 56q-5 3 -5 10v108q0 10 10 10h34q10 0 10 -10v-73q0 -7 5 -9q73 -38 159 -38q82 0 127.5 36t45.5 101q0 57 -34.5 90.5t-122.5 46.5l-35 5q-100 14 -146.5 59t-46.5 123q0 88 57.5 136.5t160.5 48.5z" />
    <glyph glyph-name="scedilla" unicode="&#x15f;" horiz-adv-x="473" 
d="M235 487q83 0 147 -31q8 -4 8 -12v-88q0 -10 -10 -10h-32q-10 0 -10 10v56q0 6 -5 8q-40 18 -99 18q-115 0 -115 -82q0 -36 24.5 -55.5t83.5 -26.5l50 -6q140 -17 140 -132q0 -63 -40 -100.5t-114 -43.5l-43 -130q-4 -10 -16 -10h-31q-10 0 -7 10l50 128q-82 3 -148 40
q-6 3 -6 12v92q0 10 10 10h32q10 0 10 -10v-61q0 -6 4 -9q52 -25 120 -25q61 0 93 24t32 67q0 39 -23.5 59.5t-86.5 27.5l-50 6q-138 17 -138 128q0 64 45 100t125 36z" />
    <glyph glyph-name="Scaron" unicode="&#x160;" horiz-adv-x="587" 
d="M380 895h25q5 0 6 -3t-2 -7l-91 -122q-6 -9 -15 -9h-23q-10 0 -16 9l-90 122q-3 4 -1.5 7t5.5 3h25q8 0 17 -10l70 -85h2l71 85q7 10 17 10zM298 690q105 0 181 -44q7 -4 7 -11v-106q0 -10 -10 -10h-34q-10 0 -10 10v70q0 8 -6 10q-57 27 -132 27q-76 0 -116 -34t-40 -93
q0 -56 34 -87t119 -44l40 -6q99 -15 145.5 -61t46.5 -126q0 -90 -60.5 -142.5t-176.5 -52.5q-118 0 -207 56q-5 3 -5 10v108q0 10 10 10h34q10 0 10 -10v-73q0 -7 5 -9q73 -38 159 -38q82 0 127.5 36t45.5 101q0 57 -34.5 90.5t-122.5 46.5l-35 5q-100 14 -146.5 59
t-46.5 123q0 88 57.5 136.5t160.5 48.5z" />
    <glyph glyph-name="scaron" unicode="&#x161;" horiz-adv-x="473" 
d="M316 699h25q5 0 6 -3t-2 -7l-91 -122q-6 -9 -15 -9h-23q-10 0 -16 9l-90 122q-3 4 -1.5 7t5.5 3h25q8 0 17 -10l70 -85h2l71 85q7 10 17 10zM235 487q83 0 147 -31q8 -4 8 -12v-88q0 -10 -10 -10h-32q-10 0 -10 10v56q0 6 -5 8q-40 18 -99 18q-115 0 -115 -82
q0 -36 24.5 -55.5t83.5 -26.5l50 -6q140 -17 140 -132q0 -69 -48 -107.5t-137 -38.5q-92 0 -164 40q-6 3 -6 12v92q0 10 10 10h32q10 0 10 -10v-61q0 -6 4 -9q52 -25 120 -25q61 0 93 24t32 67q0 39 -23.5 59.5t-86.5 27.5l-50 6q-138 17 -138 128q0 64 45 100t125 36z" />
    <glyph glyph-name="uni0162" unicode="&#x162;" horiz-adv-x="573" 
d="M35 680h503q10 0 10 -10v-118q0 -10 -10 -10h-34q-10 0 -10 10v69q0 6 -6 6h-167q-6 0 -6 -6v-565q0 -6 6 -6h63q10 0 10 -10v-30q0 -10 -10 -10h-195q-10 0 -10 10v30q0 10 10 10h63q6 0 6 6v565q0 6 -6 6h-167q-6 0 -6 -6v-69q0 -10 -10 -10h-34q-10 0 -10 10v118
q0 10 10 10zM268 -56h37q10 0 10 -10v-42q0 -12 -5 -22l-32 -57q-4 -8 -11 -8q-9 0 -9 9v120q0 10 10 10z" />
    <glyph glyph-name="uni0163" unicode="&#x163;" horiz-adv-x="313" 
d="M117 630h34q10 0 10 -10v-137q0 -6 6 -6h90q10 0 10 -10v-30q0 -10 -10 -10h-90q-6 0 -6 -6v-291q0 -47 17.5 -64t60.5 -17h18q10 0 10 -10v-31q0 -10 -10 -10h-26q-67 0 -95.5 29.5t-28.5 99.5v294q0 6 -6 6h-50q-10 0 -10 10v30q0 10 10 10h50q6 0 6 6v137q0 10 10 10z
M162 -56h37q10 0 10 -10v-42q0 -12 -5 -22l-32 -57q-4 -8 -11 -8q-9 0 -9 9v120q0 10 10 10z" />
    <glyph glyph-name="Tcaron" unicode="&#x164;" horiz-adv-x="573" 
d="M374 895h25q5 0 6 -3t-2 -7l-91 -122q-6 -9 -15 -9h-23q-10 0 -16 9l-90 122q-3 4 -1.5 7t5.5 3h25q8 0 17 -10l70 -85h2l71 85q7 10 17 10zM35 680h503q10 0 10 -10v-118q0 -10 -10 -10h-34q-10 0 -10 10v69q0 6 -6 6h-167q-6 0 -6 -6v-565q0 -6 6 -6h63q10 0 10 -10
v-30q0 -10 -10 -10h-195q-10 0 -10 10v30q0 10 10 10h63q6 0 6 6v565q0 6 -6 6h-167q-6 0 -6 -6v-69q0 -10 -10 -10h-34q-10 0 -10 10v118q0 10 10 10z" />
    <glyph glyph-name="tcaron" unicode="&#x165;" horiz-adv-x="313" 
d="M240 680h37q10 0 10 -10v-48q0 -11 -5 -21l-32 -57q-4 -9 -11 -9q-9 0 -9 10v125q0 10 10 10zM117 630h34q10 0 10 -10v-137q0 -6 6 -6h90q10 0 10 -10v-30q0 -10 -10 -10h-90q-6 0 -6 -6v-291q0 -47 17.5 -64t60.5 -17h18q10 0 10 -10v-31q0 -10 -10 -10h-26
q-67 0 -95.5 29.5t-28.5 99.5v294q0 6 -6 6h-50q-10 0 -10 10v30q0 10 10 10h50q6 0 6 6v137q0 10 10 10z" />
    <glyph glyph-name="Tbar" unicode="&#x166;" horiz-adv-x="573" 
d="M35 680h503q10 0 10 -10v-118q0 -10 -10 -10h-34q-10 0 -10 10v69q0 6 -6 6h-167q-6 0 -6 -6v-195q0 -6 6 -6h105q10 0 10 -10v-30q0 -10 -10 -10h-105q-6 0 -6 -6v-308q0 -6 6 -6h63q10 0 10 -10v-30q0 -10 -10 -10h-195q-10 0 -10 10v30q0 10 10 10h63q6 0 6 6v308
q0 6 -6 6h-105q-10 0 -10 10v30q0 10 10 10h105q6 0 6 6v195q0 6 -6 6h-167q-6 0 -6 -6v-69q0 -10 -10 -10h-34q-10 0 -10 10v118q0 10 10 10z" />
    <glyph glyph-name="tbar" unicode="&#x167;" horiz-adv-x="313" 
d="M117 630h34q10 0 10 -10v-137q0 -6 6 -6h90q10 0 10 -10v-30q0 -10 -10 -10h-90q-6 0 -6 -6v-71q0 -6 6 -6h77q10 0 10 -10v-26q0 -10 -10 -10h-77q-6 0 -6 -6v-161q0 -47 17 -64.5t60 -17.5h19q10 0 10 -10v-31q0 -10 -10 -10h-27q-67 0 -95 29.5t-28 99.5v165q0 6 -6 6
h-40q-10 0 -10 10v26q0 10 10 10h40q6 0 6 6v71q0 6 -6 6h-50q-10 0 -10 10v30q0 10 10 10h50q6 0 6 6v137q0 10 10 10z" />
    <glyph glyph-name="Utilde" unicode="&#x168;" horiz-adv-x="665" 
d="M278 866q29 0 60 -20q29 -18 49 -18q28 0 59 33q3 3 5.5 2t2.5 -5v-30q0 -8 -7 -16q-30 -30 -62 -30q-26 0 -60 21q-29 18 -49 18q-25 0 -58 -33q-9 -7 -9 3v30q0 7 8 15q27 30 61 30zM439 680h186q10 0 10 -10v-30q0 -10 -10 -10h-58q-6 0 -6 -6v-389q0 -119 -60 -182
t-169 -63q-108 0 -168 62.5t-60 182.5v389q0 6 -6 6h-58q-10 0 -10 10v30q0 10 10 10h186q10 0 10 -10v-30q0 -10 -10 -10h-59q-6 0 -6 -6v-389q0 -94 44.5 -142.5t126.5 -48.5q83 0 127.5 48.5t44.5 142.5v389q0 6 -6 6h-59q-10 0 -10 10v30q0 10 10 10z" />
    <glyph glyph-name="utilde" unicode="&#x169;" horiz-adv-x="569" 
d="M220 680q29 0 60 -20q29 -18 49 -18q28 0 59 33q3 3 5.5 2t2.5 -5v-30q0 -8 -7 -16q-30 -30 -62 -30q-26 0 -60 21q-29 18 -49 18q-25 0 -58 -33q-9 -7 -9 3v30q0 7 8 15q27 30 61 30zM341 477h106q10 0 10 -10v-411q0 -6 6 -6h56q10 0 10 -10v-30q0 -10 -10 -10h-106
q-10 0 -10 10v56h-1q-38 -76 -137 -76q-78 0 -120.5 47t-42.5 134v250q0 6 -6 6h-56q-10 0 -10 10v30q0 10 10 10h106q10 0 10 -10v-282q0 -143 121 -143q55 0 90.5 36t35.5 96v247q0 6 -6 6h-56q-10 0 -10 10v30q0 10 10 10z" />
    <glyph glyph-name="Umacron" unicode="&#x16a;" horiz-adv-x="665" 
d="M212 846h240q10 0 10 -10v-26q0 -10 -10 -10h-240q-10 0 -10 10v26q0 10 10 10zM439 680h186q10 0 10 -10v-30q0 -10 -10 -10h-58q-6 0 -6 -6v-389q0 -119 -60 -182t-169 -63q-108 0 -168 62.5t-60 182.5v389q0 6 -6 6h-58q-10 0 -10 10v30q0 10 10 10h186q10 0 10 -10
v-30q0 -10 -10 -10h-59q-6 0 -6 -6v-389q0 -94 44.5 -142.5t126.5 -48.5q83 0 127.5 48.5t44.5 142.5v389q0 6 -6 6h-59q-10 0 -10 10v30q0 10 10 10z" />
    <glyph glyph-name="umacron" unicode="&#x16b;" horiz-adv-x="569" 
d="M153 664h240q10 0 10 -10v-26q0 -10 -10 -10h-240q-10 0 -10 10v26q0 10 10 10zM341 477h106q10 0 10 -10v-411q0 -6 6 -6h56q10 0 10 -10v-30q0 -10 -10 -10h-106q-10 0 -10 10v56h-1q-38 -76 -137 -76q-78 0 -120.5 47t-42.5 134v250q0 6 -6 6h-56q-10 0 -10 10v30
q0 10 10 10h106q10 0 10 -10v-282q0 -143 121 -143q55 0 90.5 36t35.5 96v247q0 6 -6 6h-56q-10 0 -10 10v30q0 10 10 10z" />
    <glyph glyph-name="Ubreve" unicode="&#x16c;" horiz-adv-x="665" 
d="M428 881h19q11 0 9 -10q-7 -46 -40.5 -74.5t-84.5 -28.5t-84.5 28.5t-39.5 74.5q-2 10 9 10h19q9 0 12 -10q17 -59 84 -59q68 0 86 59q3 10 11 10zM439 680h186q10 0 10 -10v-30q0 -10 -10 -10h-58q-6 0 -6 -6v-389q0 -119 -60 -182t-169 -63q-108 0 -168 62.5t-60 182.5
v389q0 6 -6 6h-58q-10 0 -10 10v30q0 10 10 10h186q10 0 10 -10v-30q0 -10 -10 -10h-59q-6 0 -6 -6v-389q0 -94 44.5 -142.5t126.5 -48.5q83 0 127.5 48.5t44.5 142.5v389q0 6 -6 6h-59q-10 0 -10 10v30q0 10 10 10z" />
    <glyph glyph-name="ubreve" unicode="&#x16d;" horiz-adv-x="569" 
d="M370 684h19q11 0 9 -10q-7 -47 -40.5 -75.5t-84.5 -28.5q-50 0 -84 29t-40 75q-2 10 9 10h19q9 0 12 -10q17 -60 84 -60q68 0 86 60q3 10 11 10zM341 477h106q10 0 10 -10v-411q0 -6 6 -6h56q10 0 10 -10v-30q0 -10 -10 -10h-106q-10 0 -10 10v56h-1q-38 -76 -137 -76
q-78 0 -120.5 47t-42.5 134v250q0 6 -6 6h-56q-10 0 -10 10v30q0 10 10 10h106q10 0 10 -10v-282q0 -143 121 -143q55 0 90.5 36t35.5 96v247q0 6 -6 6h-56q-10 0 -10 10v30q0 10 10 10z" />
    <glyph glyph-name="Uring" unicode="&#x16e;" horiz-adv-x="665" 
d="M331 914q38 0 63 -25t25 -63t-25 -63t-63 -25t-63 25t-25 63t25 63t63 25zM331 882q-24 0 -38.5 -16t-14.5 -40t14.5 -40t38.5 -16t38.5 16t14.5 40t-14.5 40t-38.5 16zM439 680h186q10 0 10 -10v-30q0 -10 -10 -10h-58q-6 0 -6 -6v-389q0 -119 -60 -182t-169 -63
q-108 0 -168 62.5t-60 182.5v389q0 6 -6 6h-58q-10 0 -10 10v30q0 10 10 10h186q10 0 10 -10v-30q0 -10 -10 -10h-59q-6 0 -6 -6v-389q0 -94 44.5 -142.5t126.5 -48.5q83 0 127.5 48.5t44.5 142.5v389q0 6 -6 6h-59q-10 0 -10 10v30q0 10 10 10z" />
    <glyph glyph-name="uring" unicode="&#x16f;" horiz-adv-x="569" 
d="M273 717q38 0 63 -25t25 -63t-25 -63t-63 -25t-63 25t-25 63t25 63t63 25zM273 685q-24 0 -38.5 -16t-14.5 -40t14.5 -40t38.5 -16t38.5 16t14.5 40t-14.5 40t-38.5 16zM341 477h106q10 0 10 -10v-411q0 -6 6 -6h56q10 0 10 -10v-30q0 -10 -10 -10h-106q-10 0 -10 10v56
h-1q-38 -76 -137 -76q-78 0 -120.5 47t-42.5 134v250q0 6 -6 6h-56q-10 0 -10 10v30q0 10 10 10h106q10 0 10 -10v-282q0 -143 121 -143q55 0 90.5 36t35.5 96v247q0 6 -6 6h-56q-10 0 -10 10v30q0 10 10 10z" />
    <glyph glyph-name="Uhungarumlaut" unicode="&#x170;" horiz-adv-x="665" 
d="M330 889h33q5 0 6 -3t-2 -7l-75 -105q-7 -10 -16 -10h-25q-5 0 -6 3t2 7l67 105q6 10 16 10zM454 889h34q4 0 5.5 -3t-1.5 -7l-76 -105q-7 -10 -16 -10h-25q-5 0 -6 3t2 7l67 105q7 10 16 10zM439 680h186q10 0 10 -10v-30q0 -10 -10 -10h-58q-6 0 -6 -6v-389
q0 -119 -60 -182t-169 -63q-108 0 -168 62.5t-60 182.5v389q0 6 -6 6h-58q-10 0 -10 10v30q0 10 10 10h186q10 0 10 -10v-30q0 -10 -10 -10h-59q-6 0 -6 -6v-389q0 -94 44.5 -142.5t126.5 -48.5q83 0 127.5 48.5t44.5 142.5v389q0 6 -6 6h-59q-10 0 -10 10v30q0 10 10 10z
" />
    <glyph glyph-name="uhungarumlaut" unicode="&#x171;" horiz-adv-x="569" 
d="M266 700h33q11 0 5 -10l-76 -123q-6 -9 -15 -9h-24q-11 0 -6 10l67 122q6 10 16 10zM391 700h32q11 0 5 -10l-76 -123q-6 -9 -15 -9h-24q-10 0 -5 10l67 122q6 10 16 10zM341 477h106q10 0 10 -10v-411q0 -6 6 -6h56q10 0 10 -10v-30q0 -10 -10 -10h-106q-10 0 -10 10v56
h-1q-38 -76 -137 -76q-78 0 -120.5 47t-42.5 134v250q0 6 -6 6h-56q-10 0 -10 10v30q0 10 10 10h106q10 0 10 -10v-282q0 -143 121 -143q55 0 90.5 36t35.5 96v247q0 6 -6 6h-56q-10 0 -10 10v30q0 10 10 10z" />
    <glyph glyph-name="Uogonek" unicode="&#x172;" horiz-adv-x="665" 
d="M439 680h186q10 0 10 -10v-30q0 -10 -10 -10h-58q-6 0 -6 -6v-389q0 -109 -50.5 -171t-141.5 -72q-54 -55 -54 -89q0 -28 29 -28q14 0 28 9q8 5 13 -3l10 -19q5 -9 -3 -15q-23 -19 -56 -19q-32 0 -51 18t-19 50q0 40 48 95q-100 5 -155 67t-55 177v389q0 6 -6 6h-58
q-10 0 -10 10v30q0 10 10 10h186q10 0 10 -10v-30q0 -10 -10 -10h-59q-6 0 -6 -6v-389q0 -94 44.5 -142.5t126.5 -48.5q83 0 127.5 48.5t44.5 142.5v389q0 6 -6 6h-59q-10 0 -10 10v30q0 10 10 10z" />
    <glyph glyph-name="uogonek" unicode="&#x173;" horiz-adv-x="569" 
d="M341 477h106q10 0 10 -10v-411q0 -6 6 -6h56q10 0 10 -10v-30q0 -10 -10 -10h-65q-83 -60 -83 -97q0 -28 29 -28q13 0 28 9q8 5 13 -3l11 -21q3 -7 -4 -13q-25 -19 -56 -19q-32 0 -51 18t-19 50q0 54 81 110v60h-1q-38 -76 -137 -76q-78 0 -120.5 47t-42.5 134v250
q0 6 -6 6h-56q-10 0 -10 10v30q0 10 10 10h106q10 0 10 -10v-282q0 -143 121 -143q55 0 90.5 36t35.5 96v247q0 6 -6 6h-56q-10 0 -10 10v30q0 10 10 10z" />
    <glyph glyph-name="Wcircumflex" unicode="&#x174;" horiz-adv-x="863" 
d="M419 896h23q9 0 15 -9l91 -123q3 -4 1.5 -7t-5.5 -3h-25q-9 0 -17 10l-71 85h-2l-70 -85q-9 -10 -17 -10h-25q-5 0 -6 3t2 7l90 123q6 9 16 9zM674 680h168q10 0 10 -10v-30q0 -10 -10 -10h-33q-7 0 -8 -6l-150 -614q-2 -10 -12 -10h-35q-8 0 -11 10l-160 561h-2
l-161 -561q-3 -10 -11 -10h-35q-9 0 -12 10l-151 615q-2 5 -8 5h-32q-10 0 -10 10v30q0 10 10 10h167q10 0 10 -10v-30q0 -10 -10 -10h-61q-8 0 -6 -8l123 -515h2l156 563q3 10 12 10h35q9 0 12 -10l159 -561h2l123 514q2 7 -5 7h-66q-10 0 -10 10v30q0 10 10 10z" />
    <glyph glyph-name="wcircumflex" unicode="&#x175;" horiz-adv-x="751" 
d="M364 700h23q9 0 15 -9l91 -123q3 -4 2 -7t-6 -3h-25q-10 0 -17 10l-71 85h-2l-70 -85q-9 -10 -17 -10h-25q-4 0 -5.5 3t1.5 7l90 123q6 9 16 9zM581 477h149q10 0 10 -10v-30q0 -10 -10 -10h-32q-6 0 -8 -6l-134 -411q-3 -10 -12 -10h-30q-9 0 -12 10l-125 379h-2
l-126 -379q-3 -10 -12 -10h-30q-9 0 -12 10l-134 411q-1 6 -8 6h-32q-10 0 -10 10v30q0 10 10 10h153q10 0 10 -10v-30q0 -10 -10 -10h-51q-7 0 -5 -7l106 -336h1l123 383q3 10 12 10h31q9 0 12 -10l126 -382h2l105 335q2 7 -5 7h-50q-10 0 -10 10v30q0 10 10 10z" />
    <glyph glyph-name="Ycircumflex" unicode="&#x176;" horiz-adv-x="545" 
d="M260 896h23q9 0 15 -9l91 -123q3 -4 2 -7t-6 -3h-25q-10 0 -17 10l-71 85h-2l-70 -85q-9 -10 -17 -10h-25q-4 0 -5.5 3t1.5 7l90 123q6 9 16 9zM360 680h168q10 0 10 -10v-30q0 -10 -10 -10h-32q-5 0 -9 -6l-186 -345v-223q0 -6 6 -6h62q10 0 10 -10v-30q0 -10 -10 -10
h-193q-10 0 -10 10v30q0 10 10 10h62q6 0 6 6v223l-187 344q-3 7 -9 7h-31q-10 0 -10 10v30q0 10 10 10h168q10 0 10 -10v-30q0 -10 -10 -10h-58q-9 0 -5 -8l151 -281h2l151 282q4 7 -5 7h-61q-10 0 -10 10v30q0 10 10 10z" />
    <glyph glyph-name="ycircumflex" unicode="&#x177;" horiz-adv-x="484" 
d="M232 700h23q9 0 15 -9l91 -123q3 -4 2 -7t-6 -3h-25q-10 0 -17 10l-71 85h-2l-70 -85q-9 -10 -17 -10h-25q-4 0 -5.5 3t1.5 7l90 123q6 9 16 9zM319 477h148q10 0 10 -10v-30q0 -10 -10 -10h-31q-6 0 -8 -6l-179 -468q-30 -79 -59.5 -106t-77.5 -27h-21q-10 0 -10 10v32
q0 10 10 10h18q32 0 51 18t39 71l19 49l-160 411q-2 6 -8 6h-31q-10 0 -10 10v30q0 10 10 10h152q10 0 10 -10v-30q0 -10 -10 -10h-50q-7 0 -4 -8l127 -338h2l126 338q3 8 -4 8h-49q-10 0 -10 10v30q0 10 10 10z" />
    <glyph glyph-name="Ydieresis" unicode="&#x178;" horiz-adv-x="545" 
d="M152 862h39q10 0 10 -10v-56q0 -10 -10 -10h-39q-10 0 -10 10v56q0 10 10 10zM352 862h39q10 0 10 -10v-56q0 -10 -10 -10h-39q-10 0 -10 10v56q0 10 10 10zM360 680h168q10 0 10 -10v-30q0 -10 -10 -10h-32q-5 0 -9 -6l-186 -345v-223q0 -6 6 -6h62q10 0 10 -10v-30
q0 -10 -10 -10h-193q-10 0 -10 10v30q0 10 10 10h62q6 0 6 6v223l-187 344q-3 7 -9 7h-31q-10 0 -10 10v30q0 10 10 10h168q10 0 10 -10v-30q0 -10 -10 -10h-58q-9 0 -5 -8l151 -281h2l151 282q4 7 -5 7h-61q-10 0 -10 10v30q0 10 10 10z" />
    <glyph glyph-name="Zacute" unicode="&#x179;" horiz-adv-x="540" 
d="M333 888h40q5 0 6 -3t-2 -7l-96 -105q-8 -9 -18 -9h-26q-12 0 -4 10l82 104q7 10 18 10zM69 680h414q10 0 10 -10v-34q0 -6 -4 -13l-377 -568v-1h321q6 0 6 6v70q0 10 10 10h34q10 0 10 -10v-120q0 -10 -10 -10h-428q-10 0 -10 10v34q0 8 5 14l376 567v1h-307q-6 0 -6 -6
v-68q0 -10 -10 -10h-34q-10 0 -10 10v118q0 10 10 10z" />
    <glyph glyph-name="zacute" unicode="&#x17a;" horiz-adv-x="485" 
d="M298 700h38q5 0 6.5 -3t-1.5 -7l-88 -122q-9 -10 -18 -10h-25q-11 0 -6 10l77 122q6 10 17 10zM78 477h332q10 0 10 -10v-31q0 -5 -5 -13l-292 -372v-1h243q6 0 6 6v65q0 10 10 10h33q10 0 10 -10v-111q0 -10 -10 -10h-350q-10 0 -10 10v29q0 6 5 14l293 373v1h-227
q-6 0 -6 -6v-64q0 -10 -10 -10h-32q-10 0 -10 10v110q0 10 10 10z" />
    <glyph glyph-name="Zdotaccent" unicode="&#x17b;" horiz-adv-x="540" 
d="M249 862h44q10 0 10 -10v-56q0 -10 -10 -10h-44q-10 0 -10 10v56q0 10 10 10zM69 680h414q10 0 10 -10v-34q0 -6 -4 -13l-377 -568v-1h321q6 0 6 6v70q0 10 10 10h34q10 0 10 -10v-120q0 -10 -10 -10h-428q-10 0 -10 10v34q0 8 5 14l376 567v1h-307q-6 0 -6 -6v-68
q0 -10 -10 -10h-34q-10 0 -10 10v118q0 10 10 10z" />
    <glyph glyph-name="zdotaccent" unicode="&#x17c;" horiz-adv-x="485" 
d="M218 680h44q10 0 10 -10v-56q0 -10 -10 -10h-44q-10 0 -10 10v56q0 10 10 10zM78 477h332q10 0 10 -10v-31q0 -5 -5 -13l-292 -372v-1h243q6 0 6 6v65q0 10 10 10h33q10 0 10 -10v-111q0 -10 -10 -10h-350q-10 0 -10 10v29q0 6 5 14l293 373v1h-227q-6 0 -6 -6v-64
q0 -10 -10 -10h-32q-10 0 -10 10v110q0 10 10 10z" />
    <glyph glyph-name="Zcaron" unicode="&#x17d;" horiz-adv-x="540" 
d="M360 895h25q5 0 6 -3t-2 -7l-91 -122q-6 -9 -15 -9h-23q-10 0 -16 9l-90 122q-3 4 -1.5 7t5.5 3h25q8 0 17 -10l70 -85h2l71 85q7 10 17 10zM69 680h414q10 0 10 -10v-34q0 -6 -4 -13l-377 -568v-1h321q6 0 6 6v70q0 10 10 10h34q10 0 10 -10v-120q0 -10 -10 -10h-428
q-10 0 -10 10v34q0 8 5 14l376 567v1h-307q-6 0 -6 -6v-68q0 -10 -10 -10h-34q-10 0 -10 10v118q0 10 10 10z" />
    <glyph glyph-name="zcaron" unicode="&#x17e;" horiz-adv-x="485" 
d="M327 699h25q4 0 5.5 -3t-1.5 -7l-91 -122q-6 -9 -15 -9h-23q-10 0 -16 9l-90 122q-3 4 -2 7t6 3h25q8 0 17 -10l70 -85h2l71 85q8 10 17 10zM78 477h332q10 0 10 -10v-31q0 -5 -5 -13l-292 -372v-1h243q6 0 6 6v65q0 10 10 10h33q10 0 10 -10v-111q0 -10 -10 -10h-350
q-10 0 -10 10v29q0 6 5 14l293 373v1h-227q-6 0 -6 -6v-64q0 -10 -10 -10h-32q-10 0 -10 10v110q0 10 10 10z" />
    <glyph glyph-name="florin" unicode="&#x192;" 
d="M429 680h21q10 0 10 -10v-31q0 -10 -10 -10h-24q-41 0 -61 -19.5t-27 -69.5l-23 -145h100q10 0 10 -10v-27q0 -10 -10 -10h-107l-59 -385q-13 -80 -45.5 -111.5t-100.5 -31.5h-21q-10 0 -10 10v31q0 10 10 10h23q42 0 62 19t28 70l59 388h-86q-10 0 -10 10v27q0 10 10 10
h94l22 143q12 78 44.5 110t100.5 32z" />
    <glyph glyph-name="Scommaaccent" unicode="&#x218;" horiz-adv-x="587" 
d="M298 690q105 0 181 -44q7 -4 7 -11v-106q0 -10 -10 -10h-34q-10 0 -10 10v70q0 8 -6 10q-57 27 -132 27q-76 0 -116 -34t-40 -93q0 -56 34 -87t119 -44l40 -6q99 -15 145.5 -61t46.5 -126q0 -90 -60.5 -142.5t-176.5 -52.5q-118 0 -207 56q-5 3 -5 10v108q0 10 10 10h34
q10 0 10 -10v-73q0 -7 5 -9q73 -38 159 -38q82 0 127.5 36t45.5 101q0 57 -34.5 90.5t-122.5 46.5l-35 5q-100 14 -146.5 59t-46.5 123q0 88 57.5 136.5t160.5 48.5zM275 -56h37q10 0 10 -10v-42q0 -12 -5 -22l-32 -57q-4 -8 -11 -8q-9 0 -9 9v120q0 10 10 10z" />
    <glyph glyph-name="scommaaccent" unicode="&#x219;" horiz-adv-x="473" 
d="M235 487q83 0 147 -31q8 -4 8 -12v-88q0 -10 -10 -10h-32q-10 0 -10 10v56q0 6 -5 8q-40 18 -99 18q-115 0 -115 -82q0 -36 24.5 -55.5t83.5 -26.5l50 -6q140 -17 140 -132q0 -69 -48 -107.5t-137 -38.5q-92 0 -164 40q-6 3 -6 12v92q0 10 10 10h32q10 0 10 -10v-61
q0 -6 4 -9q52 -25 120 -25q61 0 93 24t32 67q0 39 -23.5 59.5t-86.5 27.5l-50 6q-138 17 -138 128q0 64 45 100t125 36zM219 -56h37q10 0 10 -10v-42q0 -12 -5 -22l-32 -57q-4 -8 -11 -8q-9 0 -9 9v120q0 10 10 10z" />
    <glyph glyph-name="uni021A" unicode="&#x21a;" horiz-adv-x="573" 
d="M35 680h503q10 0 10 -10v-118q0 -10 -10 -10h-34q-10 0 -10 10v69q0 6 -6 6h-167q-6 0 -6 -6v-565q0 -6 6 -6h63q10 0 10 -10v-30q0 -10 -10 -10h-195q-10 0 -10 10v30q0 10 10 10h63q6 0 6 6v565q0 6 -6 6h-167q-6 0 -6 -6v-69q0 -10 -10 -10h-34q-10 0 -10 10v118
q0 10 10 10zM268 -56h37q10 0 10 -10v-42q0 -12 -5 -22l-32 -57q-4 -8 -11 -8q-9 0 -9 9v120q0 10 10 10z" />
    <glyph glyph-name="uni021B" unicode="&#x21b;" horiz-adv-x="313" 
d="M117 630h34q10 0 10 -10v-137q0 -6 6 -6h90q10 0 10 -10v-30q0 -10 -10 -10h-90q-6 0 -6 -6v-291q0 -47 17.5 -64t60.5 -17h18q10 0 10 -10v-31q0 -10 -10 -10h-26q-67 0 -95.5 29.5t-28.5 99.5v294q0 6 -6 6h-50q-10 0 -10 10v30q0 10 10 10h50q6 0 6 6v137q0 10 10 10z
M162 -56h37q10 0 10 -10v-42q0 -12 -5 -22l-32 -57q-4 -8 -11 -8q-9 0 -9 9v120q0 10 10 10z" />
    <glyph glyph-name="dotlessj" unicode="&#x237;" horiz-adv-x="276" 
d="M53 477h106q10 0 10 -10v-522q0 -69 -28.5 -97t-94.5 -28h-11q-10 0 -10 10v30q0 10 10 10h9q41 0 56 15t15 59v477q0 6 -6 6h-56q-10 0 -10 10v30q0 10 10 10z" />
    <glyph glyph-name="circumflex" unicode="&#x2c6;" horiz-adv-x="421" 
d="M199 700h23q9 0 15 -9l91 -123q3 -4 1.5 -7t-5.5 -3h-25q-9 0 -17 10l-71 85h-2l-70 -85q-9 -10 -17 -10h-25q-5 0 -6 3t2 7l90 123q6 9 16 9z" />
    <glyph glyph-name="caron" unicode="&#x2c7;" horiz-adv-x="421" 
d="M299 699h25q4 0 5.5 -3t-1.5 -7l-91 -122q-6 -9 -15 -9h-23q-10 0 -16 9l-90 122q-3 4 -2 7t6 3h25q8 0 17 -10l70 -85h2l71 85q8 10 17 10z" />
    <glyph glyph-name="uni02C9" unicode="&#x2c9;" horiz-adv-x="421" 
d="M88 846h244q10 0 10 -10v-26q0 -10 -10 -10h-244q-10 0 -10 10v26q0 10 10 10z" />
    <glyph glyph-name="breve" unicode="&#x2d8;" horiz-adv-x="421" 
d="M307 684h19q11 0 9 -10q-7 -47 -40.5 -75.5t-84.5 -28.5q-50 0 -84 29t-40 75q-2 10 9 10h19q9 0 12 -10q17 -60 84 -60q68 0 86 60q3 10 11 10z" />
    <glyph glyph-name="dotaccent" unicode="&#x2d9;" horiz-adv-x="421" 
d="M188 680h44q10 0 10 -10v-56q0 -10 -10 -10h-44q-10 0 -10 10v56q0 10 10 10z" />
    <glyph glyph-name="ring" unicode="&#x2da;" horiz-adv-x="421" 
d="M210 717q38 0 63 -25t25 -63t-25 -63t-63 -25t-63 25t-25 63t25 63t63 25zM210 685q-24 0 -38.5 -16t-14.5 -40t14.5 -40t38.5 -16t38.5 16t14.5 40t-14.5 40t-38.5 16z" />
    <glyph glyph-name="ogonek" unicode="&#x2db;" horiz-adv-x="421" 
d="M236 10h34q4 0 5 -4t-3 -6q-83 -60 -83 -97q0 -28 29 -28q13 0 28 9q8 5 13 -3l11 -21q3 -7 -4 -13q-25 -19 -56 -19q-32 0 -51 18t-19 50q0 50 72 104q12 10 24 10z" />
    <glyph glyph-name="tilde" unicode="&#x2dc;" horiz-adv-x="421" 
d="M156 680q29 0 60 -20q29 -18 49 -18q28 0 59 33q3 3 5.5 2t2.5 -5v-30q0 -8 -7 -16q-30 -30 -62 -30q-26 0 -60 21q-29 18 -49 18q-25 0 -58 -33q-9 -7 -9 3v30q0 7 8 15q27 30 61 30z" />
    <glyph glyph-name="hungarumlaut" unicode="&#x2dd;" horiz-adv-x="421" 
d="M172 700h33q11 0 5 -10l-76 -123q-6 -9 -15 -9h-24q-11 0 -6 10l67 122q6 10 16 10zM297 700h32q11 0 5 -10l-76 -123q-6 -9 -15 -9h-24q-10 0 -5 10l67 122q6 10 16 10z" />
    <glyph glyph-name="uni0326" unicode="&#x326;" horiz-adv-x="0" 
d="M192 -56h37q10 0 10 -10v-42q0 -12 -5 -22l-32 -57q-4 -8 -11 -8q-9 0 -9 9v120q0 10 10 10z" />
    <glyph glyph-name="uni0394" unicode="&#x394;" horiz-adv-x="596" 
d="M281 680h36q8 0 11 -10l237 -660q3 -10 -8 -10h-518q-11 0 -8 10l238 660q3 10 12 10zM297 588l-192 -531q-1 -6 6 -6h374q7 0 5 6l-190 531h-3z" />
    <glyph glyph-name="uni03A9" unicode="&#x3a9;" horiz-adv-x="612" 
d="M306 690q172 0 221 -154q20 -62 20 -196q0 -130 -24 -193t-81 -95v-2h87q10 0 10 -10v-30q0 -10 -10 -10h-174q-10 0 -10 10v32q0 9 10 12q79 28 106.5 88t27.5 198q0 127 -18 181q-38 115 -165 115t-165 -115q-18 -54 -18 -181q0 -138 27.5 -198t106.5 -88q10 -3 10 -12
v-32q0 -10 -10 -10h-174q-10 0 -10 10v30q0 10 10 10h87v2q-58 32 -81.5 94.5t-23.5 193.5q0 134 20 196q49 154 221 154z" />
    <glyph glyph-name="uni03BC" unicode="&#x3bc;" horiz-adv-x="573" 
d="M417 477h34q10 0 10 -10v-411q0 -6 6 -6h56q10 0 10 -10v-30q0 -10 -10 -10h-106q-10 0 -10 10v58h-1q-16 -36 -51.5 -57t-82.5 -21q-82 0 -115 51h-1v-211q0 -10 -10 -10h-34q-10 0 -10 10v637q0 10 10 10h34q10 0 10 -10v-292q0 -133 123 -133q56 0 92 36t36 97v292
q0 10 10 10z" />
    <glyph glyph-name="pi" unicode="&#x3c0;" horiz-adv-x="561" 
d="M64 477h432q10 0 10 -10v-32q0 -10 -10 -10h-38q-6 0 -6 -6v-340q0 -33 26 -33h6q10 0 10 -10v-32q0 -10 -10 -10h-11q-41 0 -58.5 20.5t-17.5 63.5v341q0 6 -6 6h-222q-6 0 -6 -6v-409q0 -10 -10 -10h-35q-10 0 -10 10v409q0 6 -7 6h-37q-10 0 -10 10v32q0 10 10 10z
" />
    <glyph glyph-name="Wgrave" unicode="&#x1e80;" horiz-adv-x="863" 
d="M309 888h40q11 0 18 -10l82 -104q8 -10 -4 -10h-26q-10 0 -18 9l-96 105q-3 4 -2 7t6 3zM674 680h168q10 0 10 -10v-30q0 -10 -10 -10h-33q-7 0 -8 -6l-150 -614q-2 -10 -12 -10h-35q-8 0 -11 10l-160 561h-2l-161 -561q-3 -10 -11 -10h-35q-9 0 -12 10l-151 615
q-2 5 -8 5h-32q-10 0 -10 10v30q0 10 10 10h167q10 0 10 -10v-30q0 -10 -10 -10h-61q-8 0 -6 -8l123 -515h2l156 563q3 10 12 10h35q9 0 12 -10l159 -561h2l123 514q2 7 -5 7h-66q-10 0 -10 10v30q0 10 10 10z" />
    <glyph glyph-name="wgrave" unicode="&#x1e81;" horiz-adv-x="751" 
d="M260 700h38q10 0 16 -10l77 -122q7 -10 -5 -10h-25q-11 0 -18 10l-88 122q-3 4 -1.5 7t6.5 3zM581 477h149q10 0 10 -10v-30q0 -10 -10 -10h-32q-6 0 -8 -6l-134 -411q-3 -10 -12 -10h-30q-9 0 -12 10l-125 379h-2l-126 -379q-3 -10 -12 -10h-30q-9 0 -12 10l-134 411
q-1 6 -8 6h-32q-10 0 -10 10v30q0 10 10 10h153q10 0 10 -10v-30q0 -10 -10 -10h-51q-7 0 -5 -7l106 -336h1l123 383q3 10 12 10h31q9 0 12 -10l126 -382h2l105 335q2 7 -5 7h-50q-10 0 -10 10v30q0 10 10 10z" />
    <glyph glyph-name="Wacute" unicode="&#x1e82;" horiz-adv-x="863" 
d="M515 888h40q5 0 6 -3t-2 -7l-96 -105q-8 -9 -18 -9h-26q-12 0 -4 10l82 104q7 10 18 10zM674 680h168q10 0 10 -10v-30q0 -10 -10 -10h-33q-7 0 -8 -6l-150 -614q-2 -10 -12 -10h-35q-8 0 -11 10l-160 561h-2l-161 -561q-3 -10 -11 -10h-35q-9 0 -12 10l-151 615
q-2 5 -8 5h-32q-10 0 -10 10v30q0 10 10 10h167q10 0 10 -10v-30q0 -10 -10 -10h-61q-8 0 -6 -8l123 -515h2l156 563q3 10 12 10h35q9 0 12 -10l159 -561h2l123 514q2 7 -5 7h-66q-10 0 -10 10v30q0 10 10 10z" />
    <glyph glyph-name="wacute" unicode="&#x1e83;" horiz-adv-x="751" 
d="M452 700h38q5 0 6.5 -3t-1.5 -7l-88 -122q-9 -10 -18 -10h-25q-11 0 -6 10l77 122q6 10 17 10zM581 477h149q10 0 10 -10v-30q0 -10 -10 -10h-32q-6 0 -8 -6l-134 -411q-3 -10 -12 -10h-30q-9 0 -12 10l-125 379h-2l-126 -379q-3 -10 -12 -10h-30q-9 0 -12 10l-134 411
q-1 6 -8 6h-32q-10 0 -10 10v30q0 10 10 10h153q10 0 10 -10v-30q0 -10 -10 -10h-51q-7 0 -5 -7l106 -336h1l123 383q3 10 12 10h31q9 0 12 -10l126 -382h2l105 335q2 7 -5 7h-50q-10 0 -10 10v30q0 10 10 10z" />
    <glyph glyph-name="Wdieresis" unicode="&#x1e84;" horiz-adv-x="863" 
d="M311 862h39q10 0 10 -10v-56q0 -10 -10 -10h-39q-10 0 -10 10v56q0 10 10 10zM511 862h39q10 0 10 -10v-56q0 -10 -10 -10h-39q-10 0 -10 10v56q0 10 10 10zM674 680h168q10 0 10 -10v-30q0 -10 -10 -10h-33q-7 0 -8 -6l-150 -614q-2 -10 -12 -10h-35q-8 0 -11 10
l-160 561h-2l-161 -561q-3 -10 -11 -10h-35q-9 0 -12 10l-151 615q-2 5 -8 5h-32q-10 0 -10 10v30q0 10 10 10h167q10 0 10 -10v-30q0 -10 -10 -10h-61q-8 0 -6 -8l123 -515h2l156 563q3 10 12 10h35q9 0 12 -10l159 -561h2l123 514q2 7 -5 7h-66q-10 0 -10 10v30
q0 10 10 10z" />
    <glyph glyph-name="wdieresis" unicode="&#x1e85;" horiz-adv-x="751" 
d="M255 680h40q10 0 10 -10v-56q0 -10 -10 -10h-40q-10 0 -10 10v56q0 10 10 10zM454 680h40q10 0 10 -10v-56q0 -10 -10 -10h-40q-10 0 -10 10v56q0 10 10 10zM581 477h149q10 0 10 -10v-30q0 -10 -10 -10h-32q-6 0 -8 -6l-134 -411q-3 -10 -12 -10h-30q-9 0 -12 10
l-125 379h-2l-126 -379q-3 -10 -12 -10h-30q-9 0 -12 10l-134 411q-1 6 -8 6h-32q-10 0 -10 10v30q0 10 10 10h153q10 0 10 -10v-30q0 -10 -10 -10h-51q-7 0 -5 -7l106 -336h1l123 383q3 10 12 10h31q9 0 12 -10l126 -382h2l105 335q2 7 -5 7h-50q-10 0 -10 10v30
q0 10 10 10z" />
    <glyph glyph-name="uni1E9E" unicode="&#x1e9e;" horiz-adv-x="660" 
d="M348 690q112 0 198 -56q9 -6 9 -14v-27q0 -6 -5 -13l-125 -156q93 -8 140 -56t47 -151q0 -109 -51.5 -166t-150.5 -57q-70 0 -112 24q-9 4 -6 14l11 29q4 11 13 6q44 -20 92 -20q71 0 109 43.5t38 127.5q0 80 -40.5 119t-130.5 39h-16q-10 0 -10 10v29q0 7 4 12l134 170
q-60 40 -150 40q-79 0 -127 -47.5t-48 -134.5v-399q0 -6 6 -6h56q10 0 10 -10v-30q0 -10 -10 -10h-182q-10 0 -10 10v30q0 10 10 10h57q6 0 6 6v400q0 108 63 171t171 63z" />
    <glyph glyph-name="Ygrave" unicode="&#x1ef2;" horiz-adv-x="545" 
d="M162 888h40q11 0 18 -10l82 -104q8 -10 -4 -10h-26q-10 0 -18 9l-96 105q-3 4 -1.5 7t5.5 3zM360 680h168q10 0 10 -10v-30q0 -10 -10 -10h-32q-5 0 -9 -6l-186 -345v-223q0 -6 6 -6h62q10 0 10 -10v-30q0 -10 -10 -10h-193q-10 0 -10 10v30q0 10 10 10h62q6 0 6 6v223
l-187 344q-3 7 -9 7h-31q-10 0 -10 10v30q0 10 10 10h168q10 0 10 -10v-30q0 -10 -10 -10h-58q-9 0 -5 -8l151 -281h2l151 282q4 7 -5 7h-61q-10 0 -10 10v30q0 10 10 10z" />
    <glyph glyph-name="ygrave" unicode="&#x1ef3;" horiz-adv-x="484" 
d="M152 700h38q10 0 16 -10l77 -122q7 -10 -5 -10h-25q-11 0 -18 10l-88 122q-3 4 -1.5 7t6.5 3zM319 477h148q10 0 10 -10v-30q0 -10 -10 -10h-31q-6 0 -8 -6l-179 -468q-30 -79 -59.5 -106t-77.5 -27h-21q-10 0 -10 10v32q0 10 10 10h18q32 0 51 18t39 71l19 49l-160 411
q-2 6 -8 6h-31q-10 0 -10 10v30q0 10 10 10h152q10 0 10 -10v-30q0 -10 -10 -10h-50q-7 0 -4 -8l127 -338h2l126 338q3 8 -4 8h-49q-10 0 -10 10v30q0 10 10 10z" />
    <glyph glyph-name="endash" unicode="&#x2013;" horiz-adv-x="504" 
d="M37 291h430q10 0 10 -10v-29q0 -10 -10 -10h-430q-10 0 -10 10v29q0 10 10 10z" />
    <glyph glyph-name="emdash" unicode="&#x2014;" horiz-adv-x="830" 
d="M37 291h756q10 0 10 -10v-29q0 -10 -10 -10h-756q-10 0 -10 10v29q0 10 10 10z" />
    <glyph glyph-name="quoteleft" unicode="&#x2018;" horiz-adv-x="207" 
d="M124 681q9 0 9 -10v-140q0 -10 -10 -10h-39q-10 0 -10 10v69q0 14 5 22l34 52q5 7 11 7z" />
    <glyph glyph-name="quoteright" unicode="&#x2019;" horiz-adv-x="207" 
d="M84 680h39q10 0 10 -10v-69q0 -15 -5 -22l-34 -52q-5 -7 -11 -7q-9 0 -9 10v140q0 10 10 10z" />
    <glyph glyph-name="quotesinglbase" unicode="&#x201a;" horiz-adv-x="207" 
d="M84 77h39q10 0 10 -10v-69q0 -14 -5 -22l-34 -52q-5 -7 -11 -7q-9 0 -9 10v140q0 10 10 10z" />
    <glyph glyph-name="quotedblleft" unicode="&#x201c;" horiz-adv-x="346" 
d="M124 681q9 0 9 -10v-140q0 -10 -10 -10h-39q-10 0 -10 10v69q0 14 5 22l34 52q5 7 11 7zM263 681q9 0 9 -10v-140q0 -10 -10 -10h-39q-10 0 -10 10v69q0 14 5 22l34 52q5 7 11 7z" />
    <glyph glyph-name="quotedblright" unicode="&#x201d;" horiz-adv-x="346" 
d="M84 680h39q10 0 10 -10v-69q0 -15 -5 -22l-34 -52q-5 -7 -11 -7q-9 0 -9 10v140q0 10 10 10zM223 680h39q10 0 10 -10v-69q0 -15 -5 -22l-34 -52q-5 -7 -11 -7q-9 0 -9 10v140q0 10 10 10z" />
    <glyph glyph-name="quotedblbase" unicode="&#x201e;" horiz-adv-x="346" 
d="M84 104h39q10 0 10 -10v-69q0 -15 -5 -22l-34 -52q-5 -7 -11 -7q-9 0 -9 10v140q0 10 10 10zM223 104h39q10 0 10 -10v-69q0 -15 -5 -22l-34 -52q-5 -7 -11 -7q-9 0 -9 10v140q0 10 10 10z" />
    <glyph glyph-name="dagger" unicode="&#x2020;" horiz-adv-x="447" 
d="M207 680h33q10 0 10 -10v-235q0 -6 6 -6h137q10 0 10 -10v-29q0 -10 -10 -10h-137q-6 0 -6 -6v-544q0 -10 -10 -10h-33q-10 0 -10 10v544q0 6 -6 6h-137q-10 0 -10 10v29q0 10 10 10h137q6 0 6 6v235q0 10 10 10z" />
    <glyph glyph-name="daggerdbl" unicode="&#x2021;" horiz-adv-x="447" 
d="M207 680h33q10 0 10 -10v-206q0 -6 6 -6h137q10 0 10 -10v-29q0 -10 -10 -10h-137q-6 0 -6 -6v-304q0 -6 6 -6h137q10 0 10 -10v-29q0 -10 -10 -10h-137q-6 0 -6 -6v-208q0 -10 -10 -10h-33q-10 0 -10 10v208q0 6 -6 6h-137q-10 0 -10 10v29q0 10 10 10h137q6 0 6 6v304
q0 6 -6 6h-137q-10 0 -10 10v29q0 10 10 10h137q6 0 6 6v206q0 10 10 10z" />
    <glyph glyph-name="bullet" unicode="&#x2022;" horiz-adv-x="423" 
d="M211 424q50 0 82.5 -33t32.5 -83t-32.5 -83t-82.5 -33q-49 0 -81.5 33t-32.5 83t32.5 83t81.5 33z" />
    <glyph glyph-name="ellipsis" unicode="&#x2026;" horiz-adv-x="657" 
d="M85 87h49q10 0 10 -10v-67q0 -10 -10 -10h-49q-10 0 -10 10v67q0 10 10 10zM304 87h49q10 0 10 -10v-67q0 -10 -10 -10h-49q-10 0 -10 10v67q0 10 10 10zM523 87h49q10 0 10 -10v-67q0 -10 -10 -10h-49q-10 0 -10 10v67q0 10 10 10z" />
    <glyph glyph-name="perthousand" unicode="&#x2030;" horiz-adv-x="1073" 
d="M572 690h27q11 0 6 -10l-394 -680q-6 -10 -14 -10h-27q-11 0 -6 10l394 680q6 10 14 10zM205 688q40 0 68.5 -19.5t39.5 -54.5q8 -32 8 -105t-8 -105q-11 -35 -39.5 -54.5t-68.5 -19.5q-85 0 -109 74q-8 32 -8 105t8 105q24 74 109 74zM205 647q-52 0 -65 -43
q-7 -18 -7 -95t7 -95q13 -43 65 -43q51 0 64 43q7 18 7 95t-7 95q-13 43 -64 43zM566 350q40 0 68.5 -19.5t39.5 -54.5q8 -26 8 -105q0 -81 -8 -105q-11 -35 -39.5 -54.5t-68.5 -19.5t-68.5 19.5t-39.5 54.5q-8 24 -8 105q0 79 8 105q11 35 39.5 54.5t68.5 19.5zM869 350
q40 0 68.5 -19.5t39.5 -54.5q8 -26 8 -105q0 -81 -8 -105q-11 -35 -39.5 -54.5t-68.5 -19.5t-68.5 19.5t-39.5 54.5q-8 24 -8 105q0 79 8 105q11 35 39.5 54.5t68.5 19.5zM566 308q-50 0 -65 -43q-7 -21 -7 -94q0 -72 7 -95q15 -43 65 -43t65 43q7 23 7 95q0 73 -7 94
q-15 43 -65 43zM869 308q-50 0 -65 -43q-7 -21 -7 -94q0 -72 7 -95q15 -43 65 -43t65 43q7 23 7 95q0 73 -7 94q-15 43 -65 43z" />
    <glyph glyph-name="guilsinglleft" unicode="&#x2039;" horiz-adv-x="326" 
d="M69 271l171 176q3 3 6.5 1.5t3.5 -5.5v-45q0 -11 -7 -18l-111 -112q-4 -4 0 -8l111 -112q7 -7 7 -18v-45q0 -4 -3.5 -5.5t-6.5 1.5l-171 176q-7 7 0 14z" />
    <glyph glyph-name="guilsinglright" unicode="&#x203a;" horiz-adv-x="326" 
d="M86 447l171 -176q7 -7 0 -14l-171 -176q-3 -3 -6.5 -1.5t-3.5 5.5v45q0 11 7 18l111 112q4 4 0 8l-111 112q-7 7 -7 18v45q0 4 3.5 5.5t6.5 -1.5z" />
    <glyph glyph-name="fraction" unicode="&#x2044;" horiz-adv-x="151" 
d="M263 690h27q11 0 6 -10l-394 -680q-6 -10 -14 -10h-27q-11 0 -6 10l394 680q6 10 14 10z" />
    <glyph glyph-name="zero.superior" unicode="&#x2070;" horiz-adv-x="331" 
d="M166 843q91 0 116 -80q9 -27 9 -130t-9 -130q-25 -80 -116 -80q-92 0 -117 80q-9 32 -9 130t9 130q27 80 117 80zM166 800q-57 0 -72 -50q-7 -24 -7 -117t7 -117q15 -50 72 -50t72 50q6 21 6 117t-6 117q-15 50 -72 50z" />
    <glyph glyph-name="four.superior" unicode="&#x2074;" horiz-adv-x="331" 
d="M178 836h29q5 0 6.5 -3t-0.5 -7l-133 -276v-1h119q6 0 6 6v98q0 10 10 10h25q10 0 10 -10v-98q0 -6 6 -6h36q10 0 10 -10v-23q0 -10 -10 -10h-36q-6 0 -6 -6v-60q0 -10 -10 -10h-25q-10 0 -10 10v60q0 6 -6 6h-161q-10 0 -10 10v22q0 8 4 16l133 272q4 10 13 10z" />
    <glyph glyph-name="five.superior" unicode="&#x2075;" horiz-adv-x="331" 
d="M72 836h202q10 0 10 -10v-23q0 -10 -10 -10h-161q-6 0 -6 -6v-120h1q22 30 74 30q80 0 102 -66q7 -22 7 -70q0 -43 -8 -67q-25 -71 -119 -71q-63 0 -98 25q-8 6 -8 15v66q0 10 10 10h23q10 0 10 -10v-42q0 -7 5 -9q22 -12 58 -12q62 0 76 45q5 18 5 50t-5 50
q-14 43 -66 43q-46 0 -65 -37q-5 -9 -14 -9h-23q-10 0 -10 10v208q0 10 10 10z" />
    <glyph glyph-name="six.superior" unicode="&#x2076;" horiz-adv-x="331" 
d="M182 836h30q4 0 6 -3t0 -7l-92 -165l1 -1q17 12 47 12q53 0 86.5 -34.5t33.5 -89.5q0 -56 -35.5 -90.5t-92.5 -34.5t-92.5 34.5t-35.5 90.5q0 45 28 95l102 184q6 9 14 9zM166 629q-37 0 -59.5 -22.5t-22.5 -58.5q0 -37 22.5 -59.5t59.5 -22.5t59.5 22.5t22.5 59.5
q0 36 -22.5 58.5t-59.5 22.5z" />
    <glyph glyph-name="seven.superior" unicode="&#x2077;" horiz-adv-x="331" 
d="M60 836h221q10 0 10 -10v-28q0 -7 -3 -13l-148 -347q-4 -8 -13 -8h-28q-11 0 -6 11l149 351v1h-140q-6 0 -6 -6v-46q0 -10 -10 -10h-26q-10 0 -10 10v85q0 10 10 10z" />
    <glyph glyph-name="eight.superior" unicode="&#x2078;" horiz-adv-x="331" 
d="M166 843q52 0 85.5 -32t33.5 -80q0 -58 -52 -86v-2q27 -12 45 -38t18 -62q0 -54 -36.5 -87t-93.5 -33t-93.5 33t-36.5 87q0 35 17.5 61.5t44.5 38.5v2q-52 28 -52 86q0 48 33.5 80t86.5 32zM166 800q-31 0 -52.5 -19.5t-21.5 -49.5q0 -29 21.5 -48.5t52.5 -19.5t52 19.5
t21 48.5q0 30 -21 49.5t-52 19.5zM166 622q-37 0 -60.5 -22t-23.5 -56t23.5 -56t60.5 -22t60.5 22t23.5 56t-23.5 56t-60.5 22z" />
    <glyph glyph-name="nine.superior" unicode="&#x2079;" horiz-adv-x="331" 
d="M166 843q57 0 92.5 -34.5t35.5 -90.5q0 -43 -29 -95l-102 -184q-5 -9 -13 -9h-31q-5 0 -6.5 3t0.5 7l92 165l-1 1q-15 -12 -46 -12q-53 0 -86.5 34.5t-33.5 89.5q0 56 35.5 90.5t92.5 34.5zM166 800q-37 0 -59.5 -22.5t-22.5 -59.5q0 -36 22.5 -58.5t59.5 -22.5
t59.5 22.5t22.5 58.5q0 37 -22.5 59.5t-59.5 22.5z" />
    <glyph glyph-name="plussuperior" unicode="&#x207a;" horiz-adv-x="331" 
d="M154 747h23q10 0 10 -10v-88q0 -6 6 -6h87q10 0 10 -10v-23q0 -10 -10 -10h-87q-6 0 -6 -6v-88q0 -10 -10 -10h-23q-10 0 -10 10v88q0 6 -6 6h-87q-10 0 -10 10v23q0 10 10 10h87q6 0 6 6v88q0 10 10 10z" />
    <glyph glyph-name="uni207B" unicode="&#x207b;" horiz-adv-x="331" 
d="M51 643h229q10 0 10 -10v-23q0 -10 -10 -10h-229q-10 0 -10 10v23q0 10 10 10z" />
    <glyph glyph-name="equalsuperior" unicode="&#x207c;" horiz-adv-x="331" 
d="M51 693h229q10 0 10 -10v-22q0 -10 -10 -10h-229q-10 0 -10 10v22q0 10 10 10zM51 592h229q10 0 10 -10v-22q0 -10 -10 -10h-229q-10 0 -10 10v22q0 10 10 10z" />
    <glyph glyph-name="parenleftsuperior" unicode="&#x207d;" horiz-adv-x="200" 
d="M134 860h21q12 0 7 -10q-51 -104 -51 -217t51 -217q5 -10 -7 -10h-21q-7 0 -13 10q-58 98 -58 217t58 217q6 10 13 10z" />
    <glyph glyph-name="parenrightsuperior" unicode="&#x207e;" horiz-adv-x="200" 
d="M45 860h21q7 0 13 -10q58 -98 58 -217t-58 -217q-6 -10 -13 -10h-21q-12 0 -7 10q51 100 51 217t-51 217q-5 10 7 10z" />
    <glyph glyph-name="zero.inferior" unicode="&#x2080;" horiz-adv-x="331" 
d="M166 257q91 0 116 -80q9 -27 9 -130t-9 -130q-25 -80 -116 -80q-92 0 -117 80q-9 32 -9 130t9 130q27 80 117 80zM166 214q-57 0 -72 -50q-7 -24 -7 -117q0 -92 7 -117q15 -50 72 -50t72 50q6 21 6 117t-6 117q-15 50 -72 50z" />
    <glyph glyph-name="one.inferior" unicode="&#x2081;" horiz-adv-x="331" 
d="M167 250h25q10 0 10 -10v-347q0 -6 6 -6h67q10 0 10 -10v-23q0 -10 -10 -10h-192q-10 0 -10 10v23q0 10 10 10h67q6 0 6 6v300h-1l-72 -49q-4 -2 -7 0t-3 6v31q0 10 7 14l71 49q9 6 16 6z" />
    <glyph glyph-name="two.inferior" unicode="&#x2082;" horiz-adv-x="331" 
d="M166 257q56 0 87.5 -30.5t31.5 -80.5q0 -48 -44 -101l-138 -157v-1h178q10 0 10 -10v-23q0 -10 -10 -10h-228q-10 0 -10 10v23q0 6 6 14l156 181q34 39 34 74q0 31 -20 49.5t-53 18.5q-37 0 -62 -16q-5 -4 -5 -10v-43q0 -10 -10 -10h-24q-10 0 -10 10v65q0 10 8 16
q43 31 103 31z" />
    <glyph glyph-name="three.inferior" unicode="&#x2083;" horiz-adv-x="331" 
d="M164 257q54 0 85.5 -30t31.5 -79q0 -57 -52 -90v-1q24 -10 42.5 -36t18.5 -64q0 -54 -34 -87t-93 -33q-63 0 -103 30q-8 6 -8 16v62q0 10 10 10h24q10 0 10 -10v-39q0 -6 5 -10q23 -16 63 -16q36 0 58 21.5t22 54.5t-22.5 55t-58.5 22h-18q-10 0 -10 10v23q0 10 10 10h16
q33 0 53.5 19t20.5 51q0 31 -19.5 49.5t-53.5 18.5q-37 0 -61 -16q-5 -4 -5 -10v-39q0 -10 -10 -10h-24q-10 0 -10 10v60q0 9 8 16q43 32 104 32z" />
    <glyph glyph-name="four.inferior" unicode="&#x2084;" horiz-adv-x="331" 
d="M178 250h29q5 0 6.5 -3t-0.5 -7l-133 -276v-1h119q6 0 6 6v98q0 10 10 10h25q10 0 10 -10v-98q0 -6 6 -6h36q10 0 10 -10v-23q0 -10 -10 -10h-36q-6 0 -6 -6v-60q0 -10 -10 -10h-25q-10 0 -10 10v60q0 6 -6 6h-161q-10 0 -10 10v22q0 8 4 16l133 272q4 10 13 10z" />
    <glyph glyph-name="five.inferior" unicode="&#x2085;" horiz-adv-x="331" 
d="M72 250h202q10 0 10 -10v-23q0 -10 -10 -10h-161q-6 0 -6 -6v-120h1q22 30 74 30q80 0 102 -66q7 -22 7 -70q0 -43 -8 -67q-25 -71 -119 -71q-63 0 -98 25q-8 6 -8 15v66q0 10 10 10h23q10 0 10 -10v-42q0 -7 5 -9q22 -12 58 -12q62 0 76 45q5 18 5 50t-5 50
q-14 43 -66 43q-46 0 -65 -37q-5 -9 -14 -9h-23q-10 0 -10 10v208q0 10 10 10z" />
    <glyph glyph-name="six.inferior" unicode="&#x2086;" horiz-adv-x="331" 
d="M182 250h30q4 0 6 -3t0 -7l-92 -165l1 -1q17 12 47 12q53 0 86.5 -34.5t33.5 -89.5q0 -56 -35.5 -90.5t-92.5 -34.5t-92.5 34.5t-35.5 90.5q0 45 28 95l102 184q6 9 14 9zM166 43q-37 0 -59.5 -22.5t-22.5 -58.5q0 -37 22.5 -59.5t59.5 -22.5t59.5 22.5t22.5 59.5
q0 36 -22.5 58.5t-59.5 22.5z" />
    <glyph glyph-name="seven.inferior" unicode="&#x2087;" horiz-adv-x="331" 
d="M60 250h221q10 0 10 -10v-28q0 -7 -3 -13l-148 -347q-4 -8 -13 -8h-28q-11 0 -6 11l149 351v1h-140q-6 0 -6 -6v-46q0 -10 -10 -10h-26q-10 0 -10 10v85q0 10 10 10z" />
    <glyph glyph-name="eight.inferior" unicode="&#x2088;" horiz-adv-x="331" 
d="M166 257q52 0 85.5 -32t33.5 -80q0 -58 -52 -86v-2q27 -12 45 -38t18 -62q0 -54 -36.5 -87t-93.5 -33t-93.5 33t-36.5 87q0 35 17.5 61.5t44.5 38.5v2q-52 28 -52 86q0 48 33.5 80t86.5 32zM166 214q-31 0 -52.5 -19.5t-21.5 -49.5q0 -29 21.5 -48.5t52.5 -19.5t52 19.5
t21 48.5q0 30 -21 49.5t-52 19.5zM166 36q-37 0 -60.5 -22t-23.5 -56t23.5 -56t60.5 -22t60.5 22t23.5 56t-23.5 56t-60.5 22z" />
    <glyph glyph-name="nine.inferior" unicode="&#x2089;" horiz-adv-x="331" 
d="M166 257q57 0 92.5 -34.5t35.5 -90.5q0 -43 -29 -95l-102 -184q-5 -9 -13 -9h-31q-5 0 -6.5 3t0.5 7l92 165l-1 1q-15 -12 -46 -12q-53 0 -86.5 34.5t-33.5 89.5q0 56 35.5 90.5t92.5 34.5zM166 214q-37 0 -59.5 -22.5t-22.5 -59.5q0 -36 22.5 -58.5t59.5 -22.5
t59.5 22.5t22.5 58.5q0 37 -22.5 59.5t-59.5 22.5z" />
    <glyph glyph-name="uni208A" unicode="&#x208a;" horiz-adv-x="331" 
d="M154 161h23q10 0 10 -10v-88q0 -6 6 -6h87q10 0 10 -10v-23q0 -10 -10 -10h-87q-6 0 -6 -6v-88q0 -10 -10 -10h-23q-10 0 -10 10v88q0 6 -6 6h-87q-10 0 -10 10v23q0 10 10 10h87q6 0 6 6v88q0 10 10 10z" />
    <glyph glyph-name="uni208B" unicode="&#x208b;" horiz-adv-x="331" 
d="M51 57h229q10 0 10 -10v-23q0 -10 -10 -10h-229q-10 0 -10 10v23q0 10 10 10z" />
    <glyph glyph-name="uni208C" unicode="&#x208c;" horiz-adv-x="331" 
d="M51 107h229q10 0 10 -10v-22q0 -10 -10 -10h-229q-10 0 -10 10v22q0 10 10 10zM51 6h229q10 0 10 -10v-22q0 -10 -10 -10h-229q-10 0 -10 10v22q0 10 10 10z" />
    <glyph glyph-name="uni208D" unicode="&#x208d;" horiz-adv-x="200" 
d="M134 274h21q12 0 7 -10q-51 -104 -51 -217t51 -217q5 -10 -7 -10h-21q-7 0 -13 10q-58 98 -58 217t58 217q6 10 13 10z" />
    <glyph glyph-name="uni208E" unicode="&#x208e;" horiz-adv-x="200" 
d="M45 274h21q7 0 13 -10q58 -98 58 -217t-58 -217q-6 -10 -13 -10h-21q-12 0 -7 10q51 100 51 217t-51 217q-5 10 7 10z" />
    <glyph glyph-name="Euro" unicode="&#x20ac;" 
d="M308 690q98 0 157 -50q7 -6 7 -16v-92q0 -10 -10 -10h-31q-10 0 -10 10v65q0 6 -5 11q-36 31 -106 31q-106 0 -135 -88q-12 -37 -12 -118q0 -6 6 -6h213q5 0 7 -3.5t1 -7.5l-8 -24q-3 -10 -14 -10h-199q-6 0 -6 -6v-66q0 -6 6 -6h183q5 0 7 -3.5t1 -7.5l-8 -24
q-3 -10 -12 -10h-171q-6 0 -6 -6q0 -91 13 -126q31 -86 131 -86q75 0 109 28q5 4 5 10v69q0 10 10 10h31q10 0 10 -10v-93q0 -9 -7 -16q-57 -49 -159 -49q-144 0 -184 124q-14 47 -14 139q0 6 -6 6h-47q-10 0 -10 10v25q0 10 10 10h47q6 0 6 6v66q0 6 -6 6h-47q-10 0 -10 10
v25q0 10 10 10h47q6 0 6 6q0 91 13 130q20 61 68 94t119 33z" />
    <glyph glyph-name="uni20B9" unicode="&#x20b9;" 
d="M90 680h369q10 0 10 -10v-25q0 -10 -10 -10h-133q34 -30 48 -78h85q10 0 10 -10v-25q0 -10 -10 -10h-78v-13q0 -79 -52 -133t-154 -54h-18l198 -257q4 -5 9 -5h58q10 0 10 -10v-30q0 -10 -10 -10h-89q-8 0 -15 8l-229 302q-6 8 -6 14v28q0 10 10 10h78q75 0 114.5 35.5
t39.5 101.5q0 9 -1 13h-234q-10 0 -10 10v25q0 10 10 10h225q-30 78 -138 78h-87q-10 0 -10 10v25q0 10 10 10z" />
    <glyph glyph-name="uni20BA" unicode="&#x20ba;" 
d="M72 680h185q10 0 10 -10v-30q0 -10 -10 -10h-59q-6 0 -6 -6v-133l196 98q4 2 7 0.5t3 -6.5v-31q0 -10 -10 -14l-196 -98v-80l196 98q4 2 7 0t3 -6v-31q0 -8 -10 -14l-196 -97v-252q0 -6 6 -6q106 0 169.5 67.5t63.5 185.5q0 10 10 10h31q10 0 10 -10q0 -145 -78 -225
t-221 -80h-111q-10 0 -10 10v30q0 10 10 10h59q6 0 6 6v226l-58 -29q-10 -5 -10 6v31q0 9 10 14l58 28v80l-58 -29q-10 -5 -10 6v31q0 10 10 14l58 29v161q0 6 -6 6h-59q-10 0 -10 10v30q0 10 10 10z" />
    <glyph glyph-name="uni2113" unicode="&#x2113;" horiz-adv-x="371" 
d="M221 690q43 0 68.5 -32.5t25.5 -92.5q0 -71 -33.5 -138t-111.5 -147v-177q0 -61 48 -61q32 0 61 29q7 7 14 -1l15 -21q6 -7 -1 -14q-42 -45 -97 -45q-94 0 -94 114v135l-33 -28q-8 -5 -14 2l-16 23q-6 7 1 14l62 53v211q0 176 105 176zM221 642q-51 0 -51 -125v-168
q52 59 74 109.5t22 106.5q0 36 -12.5 56.5t-32.5 20.5z" />
    <glyph glyph-name="published" unicode="&#x2117;" horiz-adv-x="830" 
d="M415 690q149 0 249.5 -100.5t100.5 -249.5t-100.5 -249.5t-249.5 -100.5t-249.5 100.5t-100.5 249.5t100.5 249.5t249.5 100.5zM415 648q-131 0 -219 -88t-88 -220t88 -220t219 -88t219 88t88 220t-88 220t-219 88zM286 532h173q65 0 98.5 -29.5t33.5 -83.5t-34 -84
t-98 -30h-87q-6 0 -6 -6v-107q0 -6 6 -6h33q10 0 10 -10v-18q0 -10 -10 -10h-119q-10 0 -10 10v18q0 10 10 10h32q6 0 6 6v296q0 6 -6 6h-32q-10 0 -10 10v18q0 10 10 10zM457 493h-85q-6 0 -6 -6v-137q0 -6 6 -6h85q92 0 92 75q0 74 -92 74z" />
    <glyph glyph-name="trademark" unicode="&#x2122;" horiz-adv-x="884" 
d="M51 680h292q10 0 10 -10v-69q0 -10 -10 -10h-23q-10 0 -10 10v33q0 6 -6 6h-79q-6 0 -6 -6v-303q0 -6 6 -6h29q10 0 10 -10v-19q0 -10 -10 -10h-115q-10 0 -10 10v19q0 10 10 10h30q6 0 6 6v303q0 6 -6 6h-79q-6 0 -6 -6v-33q0 -10 -10 -10h-23q-10 0 -10 10v69
q0 10 10 10zM756 680h68q10 0 10 -10v-22q0 -10 -10 -10h-29q-6 0 -6 -6v-301q0 -6 6 -6h29q10 0 10 -10v-19q0 -10 -10 -10h-112q-10 0 -10 10v19q0 10 10 10h29q6 0 6 6v249h-2l-109 -230q-4 -8 -12 -8h-19q-8 0 -12 8l-109 230h-2v-249q0 -6 6 -6h29q10 0 10 -10v-19
q0 -10 -10 -10h-113q-10 0 -10 10v19q0 10 10 10h30q6 0 6 6v301q0 6 -6 6h-30q-10 0 -10 10v22q0 10 10 10h69q9 0 13 -9l128 -274h3l126 274q5 9 13 9z" />
    <glyph glyph-name="Omega" unicode="&#x2126;" horiz-adv-x="612" 
d="M306 690q172 0 221 -154q20 -62 20 -196q0 -130 -24 -193t-81 -95v-2h87q10 0 10 -10v-30q0 -10 -10 -10h-174q-10 0 -10 10v32q0 9 10 12q79 28 106.5 88t27.5 198q0 127 -18 181q-38 115 -165 115t-165 -115q-18 -54 -18 -181q0 -138 27.5 -198t106.5 -88q10 -3 10 -12
v-32q0 -10 -10 -10h-174q-10 0 -10 10v30q0 10 10 10h87v2q-58 32 -81.5 94.5t-23.5 193.5q0 134 20 196q49 154 221 154z" />
    <glyph glyph-name="estimated" unicode="&#x212e;" horiz-adv-x="830" 
d="M415 671q156 0 267 -99.5t111 -247.5h-608q-10 0 -10 -11v-197q47 -51 110 -78.5t130 -27.5q73 0 139 32.5t113 88.5h57q-56 -68 -138 -105t-171 -37q-100 0 -186 42.5t-139.5 121.5t-53.5 177q0 145 110.5 243t268.5 98zM415 650q-70 0 -133 -28.5t-107 -78.5v-185
q0 -11 10 -11h461q9 0 9 11v184q-44 51 -108 79.5t-132 28.5z" />
    <glyph glyph-name="partialdiff" unicode="&#x2202;" horiz-adv-x="537" 
d="M248 690q113 0 171 -95.5t58 -244.5q0 -171 -57.5 -265.5t-169.5 -94.5q-87 0 -138.5 59t-51.5 153q0 92 55 152t140 60q105 0 169 -86h1q3 136 -42.5 224t-135.5 88q-58 0 -117 -45q-8 -5 -13 3l-16 25q-5 8 3 14q67 53 144 53zM264 365q-70 0 -110 -44t-40 -119
q0 -72 38 -116t102 -44q75 0 117 60t50 171q-61 92 -157 92z" />
    <glyph glyph-name="Delta" unicode="&#x2206;" horiz-adv-x="596" 
d="M281 680h36q8 0 11 -10l237 -660q3 -10 -8 -10h-518q-11 0 -8 10l238 660q3 10 12 10zM297 588l-192 -531q-1 -6 6 -6h374q7 0 5 6l-190 531h-3z" />
    <glyph glyph-name="product" unicode="&#x220f;" horiz-adv-x="637" 
d="M34 740h569q10 0 10 -10v-30q0 -10 -10 -10h-59q-6 0 -6 -6v-854q0 -10 -10 -10h-37q-10 0 -10 10v853q0 6 -6 6h-313q-6 0 -6 -6v-853q0 -10 -10 -10h-37q-10 0 -10 10v854q0 6 -6 6h-59q-10 0 -10 10v30q0 10 10 10z" />
    <glyph glyph-name="summation" unicode="&#x2211;" horiz-adv-x="531" 
d="M72 740h409q10 0 10 -10v-118q0 -10 -10 -10h-32q-10 0 -10 10v68q0 6 -6 6h-306l190 -353q3 -7 0 -14l-196 -445h322q6 0 6 6v68q0 10 10 10h32q10 0 10 -10v-118q0 -10 -10 -10h-423q-10 0 -10 10v30q0 5 2 9l198 453l-193 363q-3 6 -3 11v34q0 10 10 10z" />
    <glyph glyph-name="minus" unicode="&#x2212;" 
d="M76 301h380q10 0 10 -10v-30q0 -10 -10 -10h-380q-10 0 -10 10v30q0 10 10 10z" />
    <glyph glyph-name="uni2215" unicode="&#x2215;" horiz-adv-x="151" 
d="M263 690h27q11 0 6 -10l-394 -680q-6 -10 -14 -10h-27q-11 0 -6 10l394 680q6 10 14 10z" />
    <glyph glyph-name="uni2219" unicode="&#x2219;" horiz-adv-x="219" 
d="M85 309h49q10 0 10 -10v-67q0 -10 -10 -10h-49q-10 0 -10 10v67q0 10 10 10z" />
    <glyph glyph-name="radical" unicode="&#x221a;" horiz-adv-x="616" 
d="M558 740h30q11 0 8 -10l-251 -900q-3 -10 -12 -10h-29q-9 0 -12 10l-147 299q-3 6 -9 3l-72 -34q-10 -5 -13 4l-12 26q-5 10 4 13l115 57q10 5 14 -4l140 -291h3l231 827q3 10 12 10z" />
    <glyph glyph-name="infinity" unicode="&#x221e;" horiz-adv-x="769" 
d="M569 404q68 0 110.5 -43t42.5 -114q0 -69 -42.5 -113.5t-109.5 -44.5q-48 0 -91.5 29t-94.5 92q-51 -63 -94 -92t-92 -29q-66 0 -108.5 44t-42.5 114t42 113.5t110 43.5q47 0 89.5 -29t95.5 -92q53 64 96 92.5t89 28.5zM200 360q-50 0 -79 -31.5t-29 -80.5t30.5 -81.5
t77.5 -32.5q37 0 71.5 26t83.5 87q-50 62 -84.5 87.5t-70.5 25.5zM568 360q-36 0 -70.5 -26t-84.5 -88q53 -64 85.5 -88t69.5 -24q49 0 79 34t30 80q0 48 -29 80t-80 32z" />
    <glyph glyph-name="integral" unicode="&#x222b;" horiz-adv-x="382" 
d="M289 741q14 0 30 -2q10 -2 10 -10v-32q0 -5 -3 -8t-7 -2q-9 2 -25 2q-39 0 -57.5 -26.5t-18.5 -86.5v-577q0 -94 -29.5 -135.5t-94.5 -43.5q-23 0 -31 2q-10 2 -10 10v31q0 5 3 8t7 2q9 -1 25 -1q39 0 57.5 26.5t18.5 86.5v577q0 94 30 135.5t95 43.5z" />
    <glyph glyph-name="approxequal" unicode="&#x2248;" 
d="M180 430q43 0 98 -39q46 -32 74 -32q46 0 81 57q5 9 15 2l19 -12q8 -5 3 -14q-41 -80 -119 -80q-43 0 -98 39q-46 32 -74 32q-47 0 -81 -57q-5 -8 -14 -2l-20 13q-7 5 -3 14q19 37 50.5 58t68.5 21zM180 240q43 0 98 -39q46 -32 74 -32q46 0 81 57q5 9 15 2l19 -12
q8 -5 3 -14q-41 -80 -119 -80q-43 0 -98 39q-46 32 -74 32q-47 0 -81 -57q-5 -8 -14 -2l-20 13q-7 5 -3 14q19 37 50.5 58t68.5 21z" />
    <glyph glyph-name="notequal" unicode="&#x2260;" 
d="M381 510h30q4 0 5.5 -3.5t-0.5 -7.5l-57 -101h97q10 0 10 -10v-30q0 -10 -10 -10h-125l-81 -144h206q10 0 10 -10v-30q0 -10 -10 -10h-234l-57 -102q-6 -10 -15 -10h-29q-4 0 -5.5 3.5t0.5 7.5l56 101h-96q-10 0 -10 10v30q0 10 10 10h124l81 144h-205q-10 0 -10 10v30
q0 10 10 10h233l58 102q6 10 14 10z" />
    <glyph glyph-name="lessequal" unicode="&#x2264;" 
d="M76 335l380 155q10 3 10 -7v-34q0 -9 -10 -13l-316 -126v-2l316 -125q10 -4 10 -13v-35q0 -10 -10 -7l-380 155q-10 4 -10 13v26q0 9 10 13zM76 50h380q10 0 10 -10v-30q0 -10 -10 -10h-380q-10 0 -10 10v30q0 10 10 10z" />
    <glyph glyph-name="greaterequal" unicode="&#x2265;" 
d="M76 490l380 -155q10 -4 10 -13v-26q0 -9 -10 -13l-380 -155q-10 -3 -10 7v35q0 9 10 13l316 125v2l-316 126q-10 4 -10 13v34q0 10 10 7zM76 50h380q10 0 10 -10v-30q0 -10 -10 -10h-380q-10 0 -10 10v30q0 10 10 10z" />
    <glyph glyph-name="lozenge" unicode="&#x25ca;" horiz-adv-x="556" 
d="M262 710h32q7 0 12 -10l179 -364q3 -7 0 -14l-179 -364q-5 -10 -12 -10h-32q-7 0 -12 10l-179 364q-3 7 0 14l179 364q5 10 12 10zM277 642l-152 -313l154 -313h2l151 313l-153 313h-2z" />
    <glyph glyph-name="uniF8FF" unicode="&#xf8ff;" horiz-adv-x="470" 
d="M10 680h450q10 0 10 -10v-660q0 -10 -10 -10h-450q-10 0 -10 10v660q0 10 10 10zM425 643h-380q-6 0 -6 -6v-594q0 -6 6 -6h380q6 0 6 6v594q0 6 -6 6zM226 562q55 0 85.5 -29.5t30.5 -77.5t-38 -96l-37 -48q-20 -25 -20 -55v-22q0 -10 -10 -10h-22q-10 0 -10 10v24
q0 40 22 67l37 47q22 27 29.5 43.5t7.5 37.5q0 32 -20 51t-55 19q-36 0 -59 -16q-5 -4 -5 -10v-45q0 -10 -10 -10h-20q-10 0 -10 10v64q0 10 9 16q42 30 95 30zM210 172h31q10 0 10 -10v-39q0 -10 -10 -10h-31q-10 0 -10 10v39q0 10 10 10z" />
    <glyph glyph-name="Z.alt01" horiz-adv-x="540" 
d="M69 680h414q10 0 10 -10v-35q0 -5 -4 -12l-169 -253h106q10 0 10 -10v-30q0 -10 -10 -10h-139l-176 -265v-1h322q6 0 6 6v67q0 10 10 10h34q10 0 10 -10v-117q0 -10 -10 -10h-428q-10 0 -10 10v35q0 7 5 13l173 262h-101q-10 0 -10 10v30q0 10 10 10h134l170 255v1h-307
q-6 0 -6 -6v-65q0 -10 -10 -10h-34q-10 0 -10 10v115q0 10 10 10z" />
    <glyph glyph-name="Zacute.alt01" horiz-adv-x="540" 
d="M334 888h40q4 0 5.5 -3t-1.5 -7l-96 -105q-8 -9 -18 -9h-26q-12 0 -4 10l82 104q7 10 18 10zM69 680h414q10 0 10 -10v-35q0 -5 -4 -12l-169 -253h106q10 0 10 -10v-30q0 -10 -10 -10h-139l-176 -265v-1h322q6 0 6 6v67q0 10 10 10h34q10 0 10 -10v-117q0 -10 -10 -10
h-428q-10 0 -10 10v35q0 7 5 13l173 262h-101q-10 0 -10 10v30q0 10 10 10h134l170 255v1h-307q-6 0 -6 -6v-65q0 -10 -10 -10h-34q-10 0 -10 10v115q0 10 10 10z" />
    <glyph glyph-name="Zcaron.alt01" horiz-adv-x="540" 
d="M361 895h25q4 0 5.5 -3t-1.5 -7l-91 -122q-6 -9 -15 -9h-23q-10 0 -16 9l-90 122q-3 4 -2 7t6 3h25q8 0 17 -10l70 -85h2l71 85q8 10 17 10zM69 680h414q10 0 10 -10v-35q0 -5 -4 -12l-169 -253h106q10 0 10 -10v-30q0 -10 -10 -10h-139l-176 -265v-1h322q6 0 6 6v67
q0 10 10 10h34q10 0 10 -10v-117q0 -10 -10 -10h-428q-10 0 -10 10v35q0 7 5 13l173 262h-101q-10 0 -10 10v30q0 10 10 10h134l170 255v1h-307q-6 0 -6 -6v-65q0 -10 -10 -10h-34q-10 0 -10 10v115q0 10 10 10z" />
    <glyph glyph-name="Zdotaccent.alt01" horiz-adv-x="540" 
d="M250 862h44q10 0 10 -10v-56q0 -10 -10 -10h-44q-10 0 -10 10v56q0 10 10 10zM69 680h414q10 0 10 -10v-35q0 -5 -4 -12l-169 -253h106q10 0 10 -10v-30q0 -10 -10 -10h-139l-176 -265v-1h322q6 0 6 6v67q0 10 10 10h34q10 0 10 -10v-117q0 -10 -10 -10h-428
q-10 0 -10 10v35q0 7 5 13l173 262h-101q-10 0 -10 10v30q0 10 10 10h134l170 255v1h-307q-6 0 -6 -6v-65q0 -10 -10 -10h-34q-10 0 -10 10v115q0 10 10 10z" />
    <glyph glyph-name="a.alt01" horiz-adv-x="551" 
d="M237 487q105 0 144 -79h1v59q0 10 10 10h106q10 0 10 -10v-30q0 -10 -10 -10h-56q-6 0 -6 -6v-365q0 -6 6 -6h56q10 0 10 -10v-30q0 -10 -10 -10h-106q-10 0 -10 10v58h-1q-40 -78 -144 -78q-127 0 -163 114q-17 51 -17 134q0 84 17 135q36 114 163 114zM247 435
q-94 0 -122 -84q-13 -39 -13 -113q0 -73 13 -112q28 -84 122 -84q95 0 122 84q13 38 13 112q0 75 -13 113q-27 84 -122 84z" />
    <glyph glyph-name="aacute.alt01" horiz-adv-x="551" 
d="M308 700h38q5 0 6.5 -3t-1.5 -7l-88 -122q-9 -10 -18 -10h-25q-11 0 -6 10l77 122q6 10 17 10zM237 487q105 0 144 -79h1v59q0 10 10 10h106q10 0 10 -10v-30q0 -10 -10 -10h-56q-6 0 -6 -6v-365q0 -6 6 -6h56q10 0 10 -10v-30q0 -10 -10 -10h-106q-10 0 -10 10v58h-1
q-40 -78 -144 -78q-127 0 -163 114q-17 51 -17 134q0 84 17 135q36 114 163 114zM247 435q-94 0 -122 -84q-13 -39 -13 -113q0 -73 13 -112q28 -84 122 -84q95 0 122 84q13 38 13 112q0 75 -13 113q-27 84 -122 84z" />
    <glyph glyph-name="abreve.alt01" horiz-adv-x="551" 
d="M353 684h19q11 0 9 -10q-7 -47 -40.5 -75.5t-84.5 -28.5q-50 0 -84 29t-40 75q-2 10 9 10h19q9 0 12 -10q17 -60 84 -60q68 0 86 60q3 10 11 10zM237 487q105 0 144 -79h1v59q0 10 10 10h106q10 0 10 -10v-30q0 -10 -10 -10h-56q-6 0 -6 -6v-365q0 -6 6 -6h56
q10 0 10 -10v-30q0 -10 -10 -10h-106q-10 0 -10 10v58h-1q-40 -78 -144 -78q-127 0 -163 114q-17 51 -17 134q0 84 17 135q36 114 163 114zM247 435q-94 0 -122 -84q-13 -39 -13 -113q0 -73 13 -112q28 -84 122 -84q95 0 122 84q13 38 13 112q0 75 -13 113q-27 84 -122 84z
" />
    <glyph glyph-name="acircumflex.alt01" horiz-adv-x="551" 
d="M248 700h23q9 0 15 -9l91 -123q3 -4 2 -7t-6 -3h-25q-10 0 -17 10l-71 85h-2l-70 -85q-9 -10 -17 -10h-25q-4 0 -5.5 3t1.5 7l90 123q6 9 16 9zM237 487q105 0 144 -79h1v59q0 10 10 10h106q10 0 10 -10v-30q0 -10 -10 -10h-56q-6 0 -6 -6v-365q0 -6 6 -6h56q10 0 10 -10
v-30q0 -10 -10 -10h-106q-10 0 -10 10v58h-1q-40 -78 -144 -78q-127 0 -163 114q-17 51 -17 134q0 84 17 135q36 114 163 114zM247 435q-94 0 -122 -84q-13 -39 -13 -113q0 -73 13 -112q28 -84 122 -84q95 0 122 84q13 38 13 112q0 75 -13 113q-27 84 -122 84z" />
    <glyph glyph-name="adieresis.alt01" horiz-adv-x="551" 
d="M139 680h40q10 0 10 -10v-56q0 -10 -10 -10h-40q-10 0 -10 10v56q0 10 10 10zM338 680h40q10 0 10 -10v-56q0 -10 -10 -10h-40q-10 0 -10 10v56q0 10 10 10zM237 487q105 0 144 -79h1v59q0 10 10 10h106q10 0 10 -10v-30q0 -10 -10 -10h-56q-6 0 -6 -6v-365q0 -6 6 -6h56
q10 0 10 -10v-30q0 -10 -10 -10h-106q-10 0 -10 10v58h-1q-40 -78 -144 -78q-127 0 -163 114q-17 51 -17 134q0 84 17 135q36 114 163 114zM247 435q-94 0 -122 -84q-13 -39 -13 -113q0 -73 13 -112q28 -84 122 -84q95 0 122 84q13 38 13 112q0 75 -13 113q-27 84 -122 84z
" />
    <glyph glyph-name="agrave.alt01" horiz-adv-x="551" 
d="M160 700h38q10 0 16 -10l77 -122q7 -10 -5 -10h-25q-11 0 -18 10l-88 122q-3 4 -1.5 7t6.5 3zM237 487q105 0 144 -79h1v59q0 10 10 10h106q10 0 10 -10v-30q0 -10 -10 -10h-56q-6 0 -6 -6v-365q0 -6 6 -6h56q10 0 10 -10v-30q0 -10 -10 -10h-106q-10 0 -10 10v58h-1
q-40 -78 -144 -78q-127 0 -163 114q-17 51 -17 134q0 84 17 135q36 114 163 114zM247 435q-94 0 -122 -84q-13 -39 -13 -113q0 -73 13 -112q28 -84 122 -84q95 0 122 84q13 38 13 112q0 75 -13 113q-27 84 -122 84z" />
    <glyph glyph-name="amacron.alt01" horiz-adv-x="551" 
d="M135 664h240q10 0 10 -10v-26q0 -10 -10 -10h-240q-10 0 -10 10v26q0 10 10 10zM237 487q105 0 144 -79h1v59q0 10 10 10h106q10 0 10 -10v-30q0 -10 -10 -10h-56q-6 0 -6 -6v-365q0 -6 6 -6h56q10 0 10 -10v-30q0 -10 -10 -10h-106q-10 0 -10 10v58h-1q-40 -78 -144 -78
q-127 0 -163 114q-17 51 -17 134q0 84 17 135q36 114 163 114zM247 435q-94 0 -122 -84q-13 -39 -13 -113q0 -73 13 -112q28 -84 122 -84q95 0 122 84q13 38 13 112q0 75 -13 113q-27 84 -122 84z" />
    <glyph glyph-name="aogonek.alt01" horiz-adv-x="551" 
d="M237 487q105 0 144 -79h1v59q0 10 10 10h106q10 0 10 -10v-30q0 -10 -10 -10h-56q-6 0 -6 -6v-365q0 -6 6 -6h56q10 0 10 -10v-30q0 -10 -10 -10h-61q-83 -60 -83 -97q0 -28 29 -28q13 0 28 9q8 5 13 -3l11 -21q3 -7 -4 -13q-25 -19 -56 -19q-32 0 -51 18t-19 50
q0 52 77 108v64h-1q-40 -78 -144 -78q-127 0 -163 114q-17 51 -17 134q0 84 17 135q36 114 163 114zM247 435q-94 0 -122 -84q-13 -39 -13 -113q0 -73 13 -112q28 -84 122 -84q95 0 122 84q13 38 13 112q0 75 -13 113q-27 84 -122 84z" />
    <glyph glyph-name="aring.alt01" horiz-adv-x="551" 
d="M258 717q38 0 63 -25t25 -63t-25 -63t-63 -25t-63 25t-25 63t25 63t63 25zM258 685q-24 0 -38.5 -16t-14.5 -40t14.5 -40t38.5 -16t38.5 16t14.5 40t-14.5 40t-38.5 16zM237 487q105 0 144 -79h1v59q0 10 10 10h106q10 0 10 -10v-30q0 -10 -10 -10h-56q-6 0 -6 -6v-365
q0 -6 6 -6h56q10 0 10 -10v-30q0 -10 -10 -10h-106q-10 0 -10 10v58h-1q-40 -78 -144 -78q-127 0 -163 114q-17 51 -17 134q0 84 17 135q36 114 163 114zM247 435q-94 0 -122 -84q-13 -39 -13 -113q0 -73 13 -112q28 -84 122 -84q95 0 122 84q13 38 13 112q0 75 -13 113
q-27 84 -122 84z" />
    <glyph glyph-name="atilde.alt01" horiz-adv-x="551" 
d="M205 680q29 0 60 -20q29 -18 49 -18q28 0 59 33q3 3 5.5 2t2.5 -5v-30q0 -8 -7 -16q-30 -30 -62 -30q-26 0 -60 21q-29 18 -49 18q-25 0 -58 -33q-9 -7 -9 3v30q0 7 8 15q27 30 61 30zM237 487q105 0 144 -79h1v59q0 10 10 10h106q10 0 10 -10v-30q0 -10 -10 -10h-56
q-6 0 -6 -6v-365q0 -6 6 -6h56q10 0 10 -10v-30q0 -10 -10 -10h-106q-10 0 -10 10v58h-1q-40 -78 -144 -78q-127 0 -163 114q-17 51 -17 134q0 84 17 135q36 114 163 114zM247 435q-94 0 -122 -84q-13 -39 -13 -113q0 -73 13 -112q28 -84 122 -84q95 0 122 84q13 38 13 112
q0 75 -13 113q-27 84 -122 84z" />
    <glyph glyph-name="germandbls.alt01" horiz-adv-x="560" 
d="M238 680h29q10 0 10 -10v-31q0 -10 -10 -10h-22q-54 0 -70 -16.5t-16 -70.5v-59q0 -6 6 -6h311q10 0 10 -10v-31q0 -8 -5 -14l-126 -165v-2q68 -22 105.5 -74.5t37.5 -132.5q0 -101 -68 -165t-178 -64q-10 0 -10 10v32q0 10 10 10q85 0 138 49t53 127q0 68 -36.5 111
t-102.5 56q-10 2 -10 10v31q0 7 6 14l119 154v2h-254q-6 0 -6 -6v-363q0 -6 6 -6h56q10 0 10 -10v-30q0 -10 -10 -10h-178q-10 0 -10 10v30q0 10 10 10h56q6 0 6 6v478q0 84 29.5 115t103.5 31z" />
    <glyph glyph-name="f_i" horiz-adv-x="593" 
d="M246 680h28q10 0 10 -10v-30q0 -10 -10 -10h-22q-54 0 -69.5 -16.5t-15.5 -71.5v-59q0 -6 6 -6h101q10 0 10 -10v-30q0 -10 -10 -10h-101q-6 0 -6 -6v-365q0 -6 6 -6h61q10 0 10 -10v-30q0 -10 -10 -10h-181q-10 0 -10 10v30q0 10 10 10h54q6 0 6 6v365q0 6 -6 6h-51
q-10 0 -10 10v30q0 10 10 10h51q6 0 6 6v51q0 84 29.5 115t103.5 31zM432 680h44q10 0 10 -10v-56q0 -10 -10 -10h-44q-10 0 -10 10v56q0 10 10 10zM365 477h106q10 0 10 -10v-411q0 -6 6 -6h56q10 0 10 -10v-30q0 -10 -10 -10h-178q-10 0 -10 10v30q0 10 10 10h56q6 0 6 6
v365q0 6 -6 6h-56q-10 0 -10 10v30q0 10 10 10z" />
    <glyph glyph-name="f_l" horiz-adv-x="587" 
d="M246 680h28q10 0 10 -10v-30q0 -10 -10 -10h-22q-54 0 -69.5 -16.5t-15.5 -71.5v-59q0 -6 6 -6h101q10 0 10 -10v-30q0 -10 -10 -10h-101q-6 0 -6 -6v-365q0 -6 6 -6h61q10 0 10 -10v-30q0 -10 -10 -10h-181q-10 0 -10 10v30q0 10 10 10h54q6 0 6 6v365q0 6 -6 6h-51
q-10 0 -10 10v30q0 10 10 10h51q6 0 6 6v51q0 84 29.5 115t103.5 31zM350 680h106q10 0 10 -10v-559q0 -35 11.5 -48.5t39.5 -13.5h17q10 0 10 -10v-31q0 -10 -10 -10h-23q-53 0 -76 26.5t-23 85.5v514q0 6 -6 6h-56q-10 0 -10 10v30q0 10 10 10z" />
    <glyph glyph-name="uni1E9E.sc" horiz-adv-x="567" 
d="M300 527q95 0 165 -44q9 -5 9 -14v-23q0 -9 -6 -15l-93 -97q149 -8 149 -163q0 -84 -42 -129.5t-125 -45.5q-53 0 -82 12q-8 3 -5 13l10 31q3 9 13 5q30 -10 62 -10q114 0 114 124q0 63 -32.5 90t-101.5 27h-19q-10 0 -10 11v23q0 8 5 15l101 111q-46 27 -113 27
q-65 0 -105 -34.5t-40 -96.5v-288q0 -6 6 -6h53q10 0 10 -10v-30q0 -10 -10 -10h-175q-10 0 -10 10v30q0 10 10 10h56q6 0 6 6v288q0 84 54.5 133.5t145.5 49.5z" />
    <glyph glyph-name="a.sc" horiz-adv-x="533" 
d="M246 517h44q9 0 12 -10l167 -450q3 -7 9 -7h42q10 0 10 -10v-30q0 -10 -10 -10h-174q-10 0 -10 10v30q0 10 10 10h62q8 0 5 7l-38 104h-216l-38 -104q-3 -7 4 -7h63q10 0 10 -10v-30q0 -10 -10 -10h-175q-10 0 -10 10v30q0 10 10 10h43q6 0 9 7l169 450q3 10 12 10z
M267 451l-89 -240h178l-87 240h-2z" />
    <glyph glyph-name="aacute.sc" horiz-adv-x="533" 
d="M339 740h38q5 0 6.5 -3t-1.5 -7l-88 -122q-9 -10 -18 -10h-25q-11 0 -6 10l77 122q6 10 17 10zM246 517h44q9 0 12 -10l167 -450q3 -7 9 -7h42q10 0 10 -10v-30q0 -10 -10 -10h-174q-10 0 -10 10v30q0 10 10 10h62q8 0 5 7l-38 104h-216l-38 -104q-3 -7 4 -7h63
q10 0 10 -10v-30q0 -10 -10 -10h-175q-10 0 -10 10v30q0 10 10 10h43q6 0 9 7l169 450q3 10 12 10zM267 451l-89 -240h178l-87 240h-2z" />
    <glyph glyph-name="abreve.sc" horiz-adv-x="533" 
d="M363 724h19q11 0 9 -10q-7 -47 -40.5 -75.5t-84.5 -28.5q-50 0 -84 29t-40 75q-2 10 9 10h19q9 0 12 -10q17 -60 84 -60q68 0 86 60q3 10 11 10zM246 517h44q9 0 12 -10l167 -450q3 -7 9 -7h42q10 0 10 -10v-30q0 -10 -10 -10h-174q-10 0 -10 10v30q0 10 10 10h62
q8 0 5 7l-38 104h-216l-38 -104q-3 -7 4 -7h63q10 0 10 -10v-30q0 -10 -10 -10h-175q-10 0 -10 10v30q0 10 10 10h43q6 0 9 7l169 450q3 10 12 10zM267 451l-89 -240h178l-87 240h-2z" />
    <glyph glyph-name="acircumflex.sc" horiz-adv-x="533" 
d="M255 740h23q9 0 15 -9l91 -123q3 -4 1.5 -7t-5.5 -3h-25q-9 0 -17 10l-71 85h-2l-70 -85q-9 -10 -17 -10h-25q-5 0 -6 3t2 7l90 123q6 9 16 9zM246 517h44q9 0 12 -10l167 -450q3 -7 9 -7h42q10 0 10 -10v-30q0 -10 -10 -10h-174q-10 0 -10 10v30q0 10 10 10h62q8 0 5 7
l-38 104h-216l-38 -104q-3 -7 4 -7h63q10 0 10 -10v-30q0 -10 -10 -10h-175q-10 0 -10 10v30q0 10 10 10h43q6 0 9 7l169 450q3 10 12 10zM267 451l-89 -240h178l-87 240h-2z" />
    <glyph glyph-name="adieresis.sc" horiz-adv-x="533" 
d="M147 720h40q10 0 10 -10v-56q0 -10 -10 -10h-40q-10 0 -10 10v56q0 10 10 10zM346 720h40q10 0 10 -10v-56q0 -10 -10 -10h-40q-10 0 -10 10v56q0 10 10 10zM246 517h44q9 0 12 -10l167 -450q3 -7 9 -7h42q10 0 10 -10v-30q0 -10 -10 -10h-174q-10 0 -10 10v30
q0 10 10 10h62q8 0 5 7l-38 104h-216l-38 -104q-3 -7 4 -7h63q10 0 10 -10v-30q0 -10 -10 -10h-175q-10 0 -10 10v30q0 10 10 10h43q6 0 9 7l169 450q3 10 12 10zM267 451l-89 -240h178l-87 240h-2z" />
    <glyph glyph-name="agrave.sc" horiz-adv-x="533" 
d="M159 740h38q10 0 16 -10l77 -122q7 -10 -5 -10h-25q-9 0 -18 10l-88 122q-3 4 -1.5 7t6.5 3zM246 517h44q9 0 12 -10l167 -450q3 -7 9 -7h42q10 0 10 -10v-30q0 -10 -10 -10h-174q-10 0 -10 10v30q0 10 10 10h62q8 0 5 7l-38 104h-216l-38 -104q-3 -7 4 -7h63
q10 0 10 -10v-30q0 -10 -10 -10h-175q-10 0 -10 10v30q0 10 10 10h43q6 0 9 7l169 450q3 10 12 10zM267 451l-89 -240h178l-87 240h-2z" />
    <glyph glyph-name="amacron.sc" horiz-adv-x="533" 
d="M146 704h240q10 0 10 -10v-26q0 -10 -10 -10h-240q-10 0 -10 10v26q0 10 10 10zM246 517h44q9 0 12 -10l167 -450q3 -7 9 -7h42q10 0 10 -10v-30q0 -10 -10 -10h-174q-10 0 -10 10v30q0 10 10 10h62q8 0 5 7l-38 104h-216l-38 -104q-3 -7 4 -7h63q10 0 10 -10v-30
q0 -10 -10 -10h-175q-10 0 -10 10v30q0 10 10 10h43q6 0 9 7l169 450q3 10 12 10zM267 451l-89 -240h178l-87 240h-2z" />
    <glyph glyph-name="aogonek.sc" horiz-adv-x="533" 
d="M246 517h44q9 0 12 -10l167 -450q3 -7 9 -7h42q10 0 10 -10v-30q0 -10 -10 -10h-136q-83 -60 -83 -97q0 -28 29 -28q13 0 28 9q8 5 13 -3l11 -21q3 -7 -4 -13q-25 -19 -56 -19q-32 0 -51 18t-19 50q0 56 84 112v32q0 10 10 10h62q8 0 5 7l-38 104h-216l-38 -104
q-3 -7 4 -7h63q10 0 10 -10v-30q0 -10 -10 -10h-175q-10 0 -10 10v30q0 10 10 10h43q6 0 9 7l169 450q3 10 12 10zM267 451l-89 -240h178l-87 240h-2z" />
    <glyph glyph-name="aring.sc" horiz-adv-x="533" 
d="M266 758q38 0 63 -25.5t25 -63.5t-25 -63.5t-63 -25.5t-63 25.5t-25 63.5t25 63.5t63 25.5zM266 724q-23 0 -38.5 -15.5t-15.5 -39.5t15.5 -39.5t38.5 -15.5q24 0 39 15.5t15 39.5t-15 39.5t-39 15.5zM246 517h44q9 0 12 -10l167 -450q3 -7 9 -7h42q10 0 10 -10v-30
q0 -10 -10 -10h-174q-10 0 -10 10v30q0 10 10 10h62q8 0 5 7l-38 104h-216l-38 -104q-3 -7 4 -7h63q10 0 10 -10v-30q0 -10 -10 -10h-175q-10 0 -10 10v30q0 10 10 10h43q6 0 9 7l169 450q3 10 12 10zM267 451l-89 -240h178l-87 240h-2z" />
    <glyph glyph-name="atilde.sc" horiz-adv-x="533" 
d="M213 720q28 0 60 -21q29 -18 49 -18q26 0 59 33q3 3 5.5 2t2.5 -5v-30q0 -8 -7 -15q-28 -30 -62 -30q-24 0 -60 20q-29 18 -49 18q-27 0 -58 -33q-9 -7 -9 3v30q0 7 8 16q28 30 61 30zM246 517h44q9 0 12 -10l167 -450q3 -7 9 -7h42q10 0 10 -10v-30q0 -10 -10 -10h-174
q-10 0 -10 10v30q0 10 10 10h62q8 0 5 7l-38 104h-216l-38 -104q-3 -7 4 -7h63q10 0 10 -10v-30q0 -10 -10 -10h-175q-10 0 -10 10v30q0 10 10 10h43q6 0 9 7l169 450q3 10 12 10zM267 451l-89 -240h178l-87 240h-2z" />
    <glyph glyph-name="ae.sc" horiz-adv-x="760" 
d="M340 517h349q10 0 10 -10v-105q0 -10 -10 -10h-31q-10 0 -10 10v58q0 6 -6 6h-219q-6 0 -6 -6v-167q0 -6 6 -6h160q6 0 6 6v44q0 10 10 10h31q10 0 10 -10v-150q0 -10 -10 -10h-31q-10 0 -10 10v44q0 6 -6 6h-160q-6 0 -6 -6v-174q0 -6 6 -6h220q6 0 6 6v61q0 10 10 10
h31q10 0 10 -10v-108q0 -10 -10 -10h-317q-10 0 -10 10v125q0 6 -6 6h-197l-51 -84q-4 -7 3 -7h58q10 0 10 -10v-30q0 -10 -10 -10h-159q-10 0 -10 10v30q0 10 10 10h31q6 0 9 5l273 452q7 10 16 10zM360 466l-168 -274h165q6 0 6 6v268h-3z" />
    <glyph glyph-name="b.sc" horiz-adv-x="519" 
d="M53 517h249q78 0 120.5 -36.5t42.5 -98.5q0 -89 -84 -115v-2q35 -7 64 -39t29 -83q0 -68 -45.5 -105.5t-130.5 -37.5h-245q-10 0 -10 10v30q0 10 10 10h56q6 0 6 6v405q0 6 -6 6h-56q-10 0 -10 10v30q0 10 10 10zM300 466h-125q-6 0 -6 -6v-166q0 -6 6 -6h125
q53 0 81.5 24t28.5 65q0 42 -28.5 65.5t-81.5 23.5zM303 238h-128q-6 0 -6 -6v-175q0 -6 6 -6h128q57 0 87 24.5t30 68.5t-30 69t-87 25z" />
    <glyph glyph-name="c.sc" horiz-adv-x="510" 
d="M272 527q89 0 157 -41q8 -5 8 -17v-96q0 -10 -10 -10h-32q-10 0 -10 10v69q0 5 -4 8q-47 26 -110 26q-114 0 -146 -96q-13 -41 -13 -122q0 -86 12 -123q32 -94 148 -94q66 0 109 23q4 3 4 8v71q0 10 10 10h32q10 0 10 -10v-98q0 -11 -7 -16q-63 -39 -159 -39
q-158 0 -199 128q-15 47 -15 140q0 88 16 138q42 131 199 131z" />
    <glyph glyph-name="cacute.sc" horiz-adv-x="510" 
d="M319 740h38q5 0 6.5 -3t-1.5 -7l-88 -122q-9 -10 -18 -10h-25q-11 0 -6 10l77 122q6 10 17 10zM272 527q89 0 157 -41q8 -5 8 -17v-96q0 -10 -10 -10h-32q-10 0 -10 10v69q0 5 -4 8q-47 26 -110 26q-114 0 -146 -96q-13 -41 -13 -122q0 -86 12 -123q32 -94 148 -94
q66 0 109 23q4 3 4 8v71q0 10 10 10h32q10 0 10 -10v-98q0 -11 -7 -16q-63 -39 -159 -39q-158 0 -199 128q-15 47 -15 140q0 88 16 138q42 131 199 131z" />
    <glyph glyph-name="ccaron.sc" horiz-adv-x="510" 
d="M356 740h25q5 0 6 -3t-2 -7l-91 -122q-7 -10 -15 -10h-23q-9 0 -16 10l-90 122q-3 4 -1.5 7t5.5 3h25q8 0 17 -10l70 -85h2l71 85q7 10 17 10zM272 527q89 0 157 -41q8 -5 8 -17v-96q0 -10 -10 -10h-32q-10 0 -10 10v69q0 5 -4 8q-47 26 -110 26q-114 0 -146 -96
q-13 -41 -13 -122q0 -86 12 -123q32 -94 148 -94q66 0 109 23q4 3 4 8v71q0 10 10 10h32q10 0 10 -10v-98q0 -11 -7 -16q-63 -39 -159 -39q-158 0 -199 128q-15 47 -15 140q0 88 16 138q42 131 199 131z" />
    <glyph glyph-name="ccedilla.sc" horiz-adv-x="510" 
d="M272 527q89 0 157 -41q8 -5 8 -17v-96q0 -10 -10 -10h-32q-10 0 -10 10v69q0 5 -4 8q-47 26 -110 26q-114 0 -146 -96q-13 -41 -13 -122q0 -86 12 -123q32 -94 148 -94q66 0 109 23q4 3 4 8v71q0 10 10 10h32q10 0 10 -10v-98q0 -11 -7 -16q-59 -36 -145 -39l-42 -128
q-4 -10 -16 -10h-31q-10 0 -7 10l50 129q-131 12 -167 127q-15 47 -15 140q0 88 16 138q42 131 199 131z" />
    <glyph glyph-name="ccircumflex.sc" horiz-adv-x="510" 
d="M257 740h23q9 0 15 -9l91 -123q3 -4 1.5 -7t-5.5 -3h-25q-9 0 -17 10l-71 85h-2l-70 -85q-9 -10 -17 -10h-25q-5 0 -6 3t2 7l90 123q6 9 16 9zM272 527q89 0 157 -41q8 -5 8 -17v-96q0 -10 -10 -10h-32q-10 0 -10 10v69q0 5 -4 8q-47 26 -110 26q-114 0 -146 -96
q-13 -41 -13 -122q0 -86 12 -123q32 -94 148 -94q66 0 109 23q4 3 4 8v71q0 10 10 10h32q10 0 10 -10v-98q0 -11 -7 -16q-63 -39 -159 -39q-158 0 -199 128q-15 47 -15 140q0 88 16 138q42 131 199 131z" />
    <glyph glyph-name="cdotaccent.sc" horiz-adv-x="510" 
d="M245 720h44q10 0 10 -10v-56q0 -10 -10 -10h-44q-10 0 -10 10v56q0 10 10 10zM272 527q89 0 157 -41q8 -5 8 -17v-96q0 -10 -10 -10h-32q-10 0 -10 10v69q0 5 -4 8q-47 26 -110 26q-114 0 -146 -96q-13 -41 -13 -122q0 -86 12 -123q32 -94 148 -94q66 0 109 23q4 3 4 8
v71q0 10 10 10h32q10 0 10 -10v-98q0 -11 -7 -16q-63 -39 -159 -39q-158 0 -199 128q-15 47 -15 140q0 88 16 138q42 131 199 131z" />
    <glyph glyph-name="d.sc" horiz-adv-x="545" 
d="M53 517h237q147 0 184 -114q13 -41 13 -145q0 -103 -14 -145q-37 -113 -184 -113h-236q-10 0 -10 10v30q0 10 10 10h56q6 0 6 6v405q0 6 -6 6h-56q-10 0 -10 10v30q0 10 10 10zM279 465h-104q-6 0 -6 -6v-401q0 -6 6 -6h104q115 0 142 80q11 30 11 126q0 92 -12 127
q-26 80 -141 80z" />
    <glyph glyph-name="eth.sc" horiz-adv-x="545" 
d="M53 517h237q147 0 184 -114q13 -41 13 -145q0 -100 -14 -145q-37 -113 -184 -113h-236q-10 0 -10 10v30q0 10 10 10h56q6 0 6 6v175q0 6 -6 6h-33q-10 0 -10 10v30q0 10 10 10h33q6 0 6 6v168q0 6 -6 6h-56q-10 0 -10 10v30q0 10 10 10zM279 465h-104q-6 0 -6 -6v-166
q0 -6 6 -6h106q10 0 10 -10v-30q0 -10 -10 -10h-106q-6 0 -6 -5v-174q0 -6 6 -6h104q115 0 142 80q11 30 11 126q0 92 -12 127q-26 80 -141 80z" />
    <glyph glyph-name="dcaron.sc" horiz-adv-x="545" 
d="M365 740h25q4 0 5.5 -3t-1.5 -7l-91 -122q-7 -10 -15 -10h-23q-9 0 -16 10l-90 122q-3 4 -2 7t6 3h25q8 0 17 -10l70 -85h2l71 85q8 10 17 10zM53 517h237q147 0 184 -114q13 -41 13 -145q0 -103 -14 -145q-37 -113 -184 -113h-236q-10 0 -10 10v30q0 10 10 10h56
q6 0 6 6v405q0 6 -6 6h-56q-10 0 -10 10v30q0 10 10 10zM279 465h-104q-6 0 -6 -6v-401q0 -6 6 -6h104q115 0 142 80q11 30 11 126q0 92 -12 127q-26 80 -141 80z" />
    <glyph glyph-name="dcroat.sc" horiz-adv-x="545" 
d="M53 517h237q147 0 184 -114q13 -41 13 -145q0 -100 -14 -145q-37 -113 -184 -113h-236q-10 0 -10 10v30q0 10 10 10h56q6 0 6 6v175q0 6 -6 6h-33q-10 0 -10 10v30q0 10 10 10h33q6 0 6 6v168q0 6 -6 6h-56q-10 0 -10 10v30q0 10 10 10zM279 465h-104q-6 0 -6 -6v-166
q0 -6 6 -6h106q10 0 10 -10v-30q0 -10 -10 -10h-106q-6 0 -6 -5v-174q0 -6 6 -6h104q115 0 142 80q11 30 11 126q0 92 -12 127q-26 80 -141 80z" />
    <glyph glyph-name="e.sc" horiz-adv-x="510" 
d="M53 517h386q10 0 10 -10v-105q0 -10 -10 -10h-31q-10 0 -10 10v58q0 6 -6 6h-217q-6 0 -6 -6v-167q0 -6 6 -6h158q6 0 6 6v44q0 10 10 10h31q10 0 10 -10v-150q0 -10 -10 -10h-31q-10 0 -10 10v44q0 6 -6 6h-158q-6 0 -6 -6v-174q0 -6 6 -6h218q6 0 6 6v61q0 10 10 10h31
q10 0 10 -10v-108q0 -10 -10 -10h-387q-10 0 -10 10v30q0 10 10 10h56q6 0 6 6v405q0 6 -6 6h-56q-10 0 -10 10v30q0 10 10 10z" />
    <glyph glyph-name="eacute.sc" horiz-adv-x="510" 
d="M317 740h38q5 0 6.5 -3t-1.5 -7l-88 -122q-9 -10 -18 -10h-25q-11 0 -6 10l77 122q6 10 17 10zM53 517h386q10 0 10 -10v-105q0 -10 -10 -10h-31q-10 0 -10 10v58q0 6 -6 6h-217q-6 0 -6 -6v-167q0 -6 6 -6h158q6 0 6 6v44q0 10 10 10h31q10 0 10 -10v-150q0 -10 -10 -10
h-31q-10 0 -10 10v44q0 6 -6 6h-158q-6 0 -6 -6v-174q0 -6 6 -6h218q6 0 6 6v61q0 10 10 10h31q10 0 10 -10v-108q0 -10 -10 -10h-387q-10 0 -10 10v30q0 10 10 10h56q6 0 6 6v405q0 6 -6 6h-56q-10 0 -10 10v30q0 10 10 10z" />
    <glyph glyph-name="ebreve.sc" horiz-adv-x="510" 
d="M363 724h19q11 0 9 -10q-7 -47 -40.5 -75.5t-84.5 -28.5q-50 0 -84 29t-40 75q-2 10 9 10h19q9 0 12 -10q17 -60 84 -60q68 0 86 60q3 10 11 10zM53 517h386q10 0 10 -10v-105q0 -10 -10 -10h-31q-10 0 -10 10v58q0 6 -6 6h-217q-6 0 -6 -6v-167q0 -6 6 -6h158q6 0 6 6
v44q0 10 10 10h31q10 0 10 -10v-150q0 -10 -10 -10h-31q-10 0 -10 10v44q0 6 -6 6h-158q-6 0 -6 -6v-174q0 -6 6 -6h218q6 0 6 6v61q0 10 10 10h31q10 0 10 -10v-108q0 -10 -10 -10h-387q-10 0 -10 10v30q0 10 10 10h56q6 0 6 6v405q0 6 -6 6h-56q-10 0 -10 10v30
q0 10 10 10z" />
    <glyph glyph-name="ecaron.sc" horiz-adv-x="510" 
d="M357 740h25q4 0 5.5 -3t-1.5 -7l-91 -122q-7 -10 -15 -10h-23q-9 0 -16 10l-90 122q-3 4 -2 7t6 3h25q8 0 17 -10l70 -85h2l71 85q8 10 17 10zM53 517h386q10 0 10 -10v-105q0 -10 -10 -10h-31q-10 0 -10 10v58q0 6 -6 6h-217q-6 0 -6 -6v-167q0 -6 6 -6h158q6 0 6 6v44
q0 10 10 10h31q10 0 10 -10v-150q0 -10 -10 -10h-31q-10 0 -10 10v44q0 6 -6 6h-158q-6 0 -6 -6v-174q0 -6 6 -6h218q6 0 6 6v61q0 10 10 10h31q10 0 10 -10v-108q0 -10 -10 -10h-387q-10 0 -10 10v30q0 10 10 10h56q6 0 6 6v405q0 6 -6 6h-56q-10 0 -10 10v30q0 10 10 10z
" />
    <glyph glyph-name="ecircumflex.sc" horiz-adv-x="510" 
d="M257 740h23q9 0 15 -9l91 -123q3 -4 1.5 -7t-5.5 -3h-25q-9 0 -17 10l-71 85h-2l-70 -85q-9 -10 -17 -10h-25q-5 0 -6 3t2 7l90 123q6 9 16 9zM53 517h386q10 0 10 -10v-105q0 -10 -10 -10h-31q-10 0 -10 10v58q0 6 -6 6h-217q-6 0 -6 -6v-167q0 -6 6 -6h158q6 0 6 6v44
q0 10 10 10h31q10 0 10 -10v-150q0 -10 -10 -10h-31q-10 0 -10 10v44q0 6 -6 6h-158q-6 0 -6 -6v-174q0 -6 6 -6h218q6 0 6 6v61q0 10 10 10h31q10 0 10 -10v-108q0 -10 -10 -10h-387q-10 0 -10 10v30q0 10 10 10h56q6 0 6 6v405q0 6 -6 6h-56q-10 0 -10 10v30q0 10 10 10z
" />
    <glyph glyph-name="edieresis.sc" horiz-adv-x="510" 
d="M147 720h40q10 0 10 -10v-56q0 -10 -10 -10h-40q-10 0 -10 10v56q0 10 10 10zM346 720h40q10 0 10 -10v-56q0 -10 -10 -10h-40q-10 0 -10 10v56q0 10 10 10zM53 517h386q10 0 10 -10v-105q0 -10 -10 -10h-31q-10 0 -10 10v58q0 6 -6 6h-217q-6 0 -6 -6v-167q0 -6 6 -6
h158q6 0 6 6v44q0 10 10 10h31q10 0 10 -10v-150q0 -10 -10 -10h-31q-10 0 -10 10v44q0 6 -6 6h-158q-6 0 -6 -6v-174q0 -6 6 -6h218q6 0 6 6v61q0 10 10 10h31q10 0 10 -10v-108q0 -10 -10 -10h-387q-10 0 -10 10v30q0 10 10 10h56q6 0 6 6v405q0 6 -6 6h-56q-10 0 -10 10
v30q0 10 10 10z" />
    <glyph glyph-name="edotaccent.sc" horiz-adv-x="510" 
d="M241 720h44q10 0 10 -10v-56q0 -10 -10 -10h-44q-10 0 -10 10v56q0 10 10 10zM53 517h386q10 0 10 -10v-105q0 -10 -10 -10h-31q-10 0 -10 10v58q0 6 -6 6h-217q-6 0 -6 -6v-167q0 -6 6 -6h158q6 0 6 6v44q0 10 10 10h31q10 0 10 -10v-150q0 -10 -10 -10h-31
q-10 0 -10 10v44q0 6 -6 6h-158q-6 0 -6 -6v-174q0 -6 6 -6h218q6 0 6 6v61q0 10 10 10h31q10 0 10 -10v-108q0 -10 -10 -10h-387q-10 0 -10 10v30q0 10 10 10h56q6 0 6 6v405q0 6 -6 6h-56q-10 0 -10 10v30q0 10 10 10z" />
    <glyph glyph-name="egrave.sc" horiz-adv-x="510" 
d="M177 740h38q10 0 16 -10l77 -122q7 -10 -5 -10h-25q-9 0 -18 10l-88 122q-3 4 -1.5 7t6.5 3zM53 517h386q10 0 10 -10v-105q0 -10 -10 -10h-31q-10 0 -10 10v58q0 6 -6 6h-217q-6 0 -6 -6v-167q0 -6 6 -6h158q6 0 6 6v44q0 10 10 10h31q10 0 10 -10v-150q0 -10 -10 -10
h-31q-10 0 -10 10v44q0 6 -6 6h-158q-6 0 -6 -6v-174q0 -6 6 -6h218q6 0 6 6v61q0 10 10 10h31q10 0 10 -10v-108q0 -10 -10 -10h-387q-10 0 -10 10v30q0 10 10 10h56q6 0 6 6v405q0 6 -6 6h-56q-10 0 -10 10v30q0 10 10 10z" />
    <glyph glyph-name="emacron.sc" horiz-adv-x="510" 
d="M148 704h240q10 0 10 -10v-26q0 -10 -10 -10h-240q-10 0 -10 10v26q0 10 10 10zM53 517h386q10 0 10 -10v-105q0 -10 -10 -10h-31q-10 0 -10 10v58q0 6 -6 6h-217q-6 0 -6 -6v-167q0 -6 6 -6h158q6 0 6 6v44q0 10 10 10h31q10 0 10 -10v-150q0 -10 -10 -10h-31
q-10 0 -10 10v44q0 6 -6 6h-158q-6 0 -6 -6v-174q0 -6 6 -6h218q6 0 6 6v61q0 10 10 10h31q10 0 10 -10v-108q0 -10 -10 -10h-387q-10 0 -10 10v30q0 10 10 10h56q6 0 6 6v405q0 6 -6 6h-56q-10 0 -10 10v30q0 10 10 10z" />
    <glyph glyph-name="eogonek.sc" horiz-adv-x="510" 
d="M53 517h386q10 0 10 -10v-105q0 -10 -10 -10h-31q-10 0 -10 10v58q0 6 -6 6h-217q-6 0 -6 -6v-167q0 -6 6 -6h158q6 0 6 6v44q0 10 10 10h31q10 0 10 -10v-150q0 -10 -10 -10h-31q-10 0 -10 10v44q0 6 -6 6h-158q-6 0 -6 -6v-174q0 -6 6 -6h218q6 0 6 6v61q0 10 10 10h31
q10 0 10 -10v-108q0 -10 -10 -10h-9q-83 -60 -83 -97q0 -28 29 -28q13 0 28 9q8 5 13 -3l11 -21q3 -7 -4 -13q-25 -19 -56 -19q-32 0 -51 18t-19 50q0 50 72 104h-318q-10 0 -10 10v30q0 10 10 10h56q6 0 6 6v405q0 6 -6 6h-56q-10 0 -10 10v30q0 10 10 10z" />
    <glyph glyph-name="f.sc" horiz-adv-x="494" 
d="M53 517h386q10 0 10 -10v-106q0 -10 -10 -10h-31q-10 0 -10 10v60q0 6 -6 6h-217q-6 0 -6 -6v-174q0 -6 6 -6h158q6 0 6 6v44q0 10 10 10h31q10 0 10 -10v-150q0 -10 -10 -10h-31q-10 0 -10 10v44q0 6 -6 6h-158q-6 0 -6 -6v-169q0 -6 6 -6h57q10 0 10 -10v-30
q0 -10 -10 -10h-179q-10 0 -10 10v30q0 10 10 10h56q6 0 6 6v405q0 6 -6 6h-56q-10 0 -10 10v30q0 10 10 10z" />
    <glyph glyph-name="fi.sc" horiz-adv-x="778" 
d="M53 517h386q10 0 10 -10v-106q0 -10 -10 -10h-31q-10 0 -10 10v60q0 6 -6 6h-217q-6 0 -6 -6v-174q0 -6 6 -6h158q6 0 6 6v44q0 10 10 10h31q10 0 10 -10v-150q0 -10 -10 -10h-31q-10 0 -10 10v44q0 6 -6 6h-158q-6 0 -6 -6v-169q0 -6 6 -6h57q10 0 10 -10v-30
q0 -10 -10 -10h-179q-10 0 -10 10v30q0 10 10 10h56q6 0 6 6v405q0 6 -6 6h-56q-10 0 -10 10v30q0 10 10 10zM547 517h178q10 0 10 -10v-30q0 -10 -10 -10h-56q-6 0 -6 -6v-405q0 -6 6 -6h56q10 0 10 -10v-30q0 -10 -10 -10h-178q-10 0 -10 10v30q0 10 10 10h56q6 0 6 6v405
q0 6 -6 6h-56q-10 0 -10 10v30q0 10 10 10z" />
    <glyph glyph-name="fl.sc" horiz-adv-x="971" 
d="M53 517h386q10 0 10 -10v-106q0 -10 -10 -10h-31q-10 0 -10 10v60q0 6 -6 6h-217q-6 0 -6 -6v-174q0 -6 6 -6h158q6 0 6 6v44q0 10 10 10h31q10 0 10 -10v-150q0 -10 -10 -10h-31q-10 0 -10 10v44q0 6 -6 6h-158q-6 0 -6 -6v-169q0 -6 6 -6h57q10 0 10 -10v-30
q0 -10 -10 -10h-179q-10 0 -10 10v30q0 10 10 10h56q6 0 6 6v405q0 6 -6 6h-56q-10 0 -10 10v30q0 10 10 10zM547 517h178q10 0 10 -10v-30q0 -10 -10 -10h-56q-6 0 -6 -6v-404q0 -6 6 -6h211q6 0 6 6v64q0 10 10 10h32q10 0 10 -10v-111q0 -10 -10 -10h-381q-10 0 -10 10
v30q0 10 10 10h56q6 0 6 6v405q0 6 -6 6h-56q-10 0 -10 10v30q0 10 10 10z" />
    <glyph glyph-name="g.sc" horiz-adv-x="534" 
d="M275 527q94 0 165 -45q8 -6 8 -16v-93q0 -10 -10 -10h-32q-10 0 -10 10v64q0 7 -4 10q-45 29 -117 29q-118 0 -150 -96q-13 -39 -13 -123q0 -83 12 -120q33 -96 151 -96q77 0 118 25q5 4 5 9v138q0 5 -5 5h-101q-9 0 -9 9v31q0 9 9 9h151q8 0 8 -9v-212q0 -8 -6 -12
q-63 -44 -170 -44q-162 0 -204 130q-14 44 -14 137q0 89 16 139q42 131 202 131z" />
    </font>
</defs>
</svg>
