<?xml version="1.0" standalone="no"?>
<!DOCTYPE svg PUBLIC "-//W3C//DTD SVG 1.1//EN" "http://www.w3.org/Graphics/SVG/1.1/DTD/svg11.dtd" >
<svg>
<metadata>
Created by FontForge 20090622 at Tue Jan 23 10:37:59 2018
 By deploy user
Copyright &#194;&#169; 2014 Monotype Imaging Inc.  All rights reserved.
</metadata>
<defs>
<font id="DINNextSlabPro-HeavyItalic" horiz-adv-x="544" >
  <font-face 
    font-family="DIN Next Slab Pro Heavy"
    font-weight="800"
    font-style="italic"
    font-stretch="normal"
    units-per-em="1000"
    panose-1="2 8 9 4 2 2 5 9 2 4"
    ascent="750"
    descent="-250"
    x-height="487"
    cap-height="680"
    bbox="-171.368 -244 1092 930"
    underline-thickness="50"
    underline-position="-75"
    slope="-10"
    unicode-range="U+000D-U+FB02"
  />
<missing-glyph horiz-adv-x="530" 
d="M10 680h510q10 0 10 -10v-660q0 -10 -10 -10h-510q-10 0 -10 10v660q0 10 10 10zM445 605h-360q-6 0 -6 -6v-518q0 -6 6 -6h360q6 0 6 6v518q0 6 -6 6zM263 563q64 0 101 -33t37 -85q0 -46 -40 -95l-38 -46q-13 -16 -13 -35v-10q0 -10 -10 -10h-81q-10 0 -10 10v24
q0 29 21 55l37 45q30 36 30 54q0 16 -10 25.5t-28 9.5q-16 0 -28 -6q-5 -2 -5 -9v-27q0 -10 -10 -10h-72q-10 0 -10 10v83q0 8 7 14q50 36 122 36zM218 208h83q10 0 10 -10v-75q0 -10 -10 -10h-83q-10 0 -10 10v75q0 10 10 10z" />
    <glyph glyph-name="fi" unicode="fi" horiz-adv-x="621" 
d="M324 680h61q10 0 8 -10l-18 -102q-2 -10 -10 -10h-28q-29 0 -41.5 -9.5t-16.5 -36.5l-3 -18q-1 -7 5 -7h69q10 0 8 -10l-20 -111q-2 -10 -11 -10h-69q-6 0 -7 -6l-36 -213q-1 -6 4 -6h40q10 0 8 -10l-19 -111q-2 -10 -12 -10h-241q-10 0 -8 10l19 111q2 10 12 10h29
q5 0 7 6l37 213q1 6 -4 6h-27q-9 0 -7 10l19 111q2 10 10 10h28q6 0 7 6l3 16q16 93 63.5 132t140.5 39zM490 680h142q10 0 8 -10l-19 -107q-2 -10 -11 -10h-142q-10 0 -8 10l19 107q2 10 11 10zM412 487h186q10 0 8 -10l-61 -340q-1 -6 5 -6h29q10 0 8 -10l-19 -111
q-2 -10 -12 -10h-230q-10 0 -8 10l19 111q2 10 12 10h29q6 0 7 6l38 213q1 6 -5 6h-29q-10 0 -8 10l19 111q2 10 12 10z" />
    <glyph glyph-name="fl" unicode="fl" horiz-adv-x="618" 
d="M324 680h61q10 0 8 -10l-18 -102q-2 -10 -10 -10h-28q-29 0 -41.5 -9.5t-16.5 -36.5l-3 -18q-1 -7 5 -7h69q10 0 8 -10l-20 -111q-2 -10 -11 -10h-69q-6 0 -7 -6l-36 -213q-1 -6 4 -6h40q10 0 8 -10l-19 -111q-2 -10 -12 -10h-241q-10 0 -8 10l19 111q2 10 12 10h29
q5 0 7 6l37 213q1 6 -4 6h-27q-9 0 -7 10l19 111q2 10 10 10h28q6 0 7 6l3 16q16 93 63.5 132t140.5 39zM425 680h185q11 0 9 -10l-90 -491q-2 -14 -2 -18q0 -30 33 -30h19q10 0 8 -10l-19 -114q-2 -10 -11 -10h-56q-74 0 -107 25.5t-33 82.5q0 25 6 58l68 379q1 7 -5 7h-28
q-10 0 -8 10l19 111q2 10 12 10z" />
    <glyph glyph-name="f_f" unicode="ff" horiz-adv-x="658" 
d="M324 680h61q10 0 8 -10l-18 -102q-2 -10 -10 -10h-28q-29 0 -41.5 -9.5t-16.5 -36.5l-3 -18q-1 -7 5 -7h69q10 0 8 -10l-20 -111q-2 -10 -11 -10h-69q-6 0 -7 -6l-36 -213q-1 -6 4 -6h40q10 0 8 -10l-19 -111q-2 -10 -12 -10h-241q-10 0 -8 10l19 111q2 10 12 10h29
q5 0 7 6l37 213q1 6 -4 6h-27q-9 0 -7 10l19 111q2 10 10 10h28q6 0 7 6l3 16q16 93 63.5 132t140.5 39zM653 680h61q10 0 8 -10l-18 -102q-2 -10 -10 -10h-28q-29 0 -41.5 -9.5t-16.5 -36.5l-3 -18q-1 -7 5 -7h69q10 0 8 -10l-20 -111q-2 -10 -11 -10h-69q-5 0 -7 -6
l-36 -213q-2 -6 4 -6h40q10 0 8 -10l-19 -111q-2 -10 -12 -10h-241q-10 0 -8 10l19 111q2 10 12 10h29q6 0 7 6l37 213q2 6 -4 6h-27q-9 0 -7 10l19 111q2 10 10 10h28q5 0 7 6l3 16q16 93 63.5 132t140.5 39z" />
    <glyph glyph-name="f_f_i" unicode="ffi" horiz-adv-x="950" 
d="M324 680h61q10 0 8 -10l-18 -102q-2 -10 -10 -10h-28q-29 0 -41.5 -9.5t-16.5 -36.5l-3 -18q-1 -7 5 -7h69q10 0 8 -10l-20 -111q-2 -10 -11 -10h-69q-6 0 -7 -6l-36 -213q-1 -6 4 -6h40q10 0 8 -10l-19 -111q-2 -10 -12 -10h-241q-10 0 -8 10l19 111q2 10 12 10h29
q5 0 7 6l37 213q1 6 -4 6h-27q-9 0 -7 10l19 111q2 10 10 10h28q6 0 7 6l3 16q16 93 63.5 132t140.5 39zM653 680h61q10 0 8 -10l-18 -102q-2 -10 -10 -10h-28q-29 0 -41.5 -9.5t-16.5 -36.5l-3 -18q-1 -7 5 -7h69q10 0 8 -10l-20 -111q-2 -10 -11 -10h-69q-5 0 -7 -6
l-36 -213q-2 -6 4 -6h40q10 0 8 -10l-19 -111q-2 -10 -12 -10h-241q-10 0 -8 10l19 111q2 10 12 10h29q6 0 7 6l37 213q2 6 -4 6h-27q-9 0 -7 10l19 111q2 10 10 10h28q5 0 7 6l3 16q16 93 63.5 132t140.5 39zM819 680h142q10 0 8 -10l-19 -107q-2 -10 -11 -10h-142
q-10 0 -8 10l19 107q2 10 11 10zM741 487h186q10 0 8 -10l-61 -340q-2 -6 5 -6h29q10 0 8 -10l-19 -111q-2 -10 -12 -10h-230q-10 0 -8 10l19 111q2 10 12 10h29q5 0 7 6l38 213q2 6 -5 6h-29q-10 0 -8 10l19 111q2 10 12 10z" />
    <glyph glyph-name="f_f_l" unicode="ffl" horiz-adv-x="947" 
d="M324 680h61q10 0 8 -10l-18 -102q-2 -10 -10 -10h-28q-29 0 -41.5 -9.5t-16.5 -36.5l-3 -18q-1 -7 5 -7h69q10 0 8 -10l-20 -111q-2 -10 -11 -10h-69q-6 0 -7 -6l-36 -213q-1 -6 4 -6h40q10 0 8 -10l-19 -111q-2 -10 -12 -10h-241q-10 0 -8 10l19 111q2 10 12 10h29
q5 0 7 6l37 213q1 6 -4 6h-27q-9 0 -7 10l19 111q2 10 10 10h28q6 0 7 6l3 16q16 93 63.5 132t140.5 39zM653 680h61q10 0 8 -10l-18 -102q-2 -10 -10 -10h-28q-29 0 -41.5 -9.5t-16.5 -36.5l-3 -18q-1 -7 5 -7h69q10 0 8 -10l-20 -111q-2 -10 -11 -10h-69q-5 0 -7 -6
l-36 -213q-2 -6 4 -6h40q10 0 8 -10l-19 -111q-2 -10 -12 -10h-241q-10 0 -8 10l19 111q2 10 12 10h29q6 0 7 6l37 213q2 6 -4 6h-27q-9 0 -7 10l19 111q2 10 10 10h28q5 0 7 6l3 16q16 93 63.5 132t140.5 39zM754 680h185q11 0 9 -10l-90 -491q-2 -14 -2 -18q0 -30 33 -30
h19q10 0 8 -10l-19 -114q-2 -10 -11 -10h-56q-74 0 -107 25.5t-33 82.5q0 25 6 58l68 379q1 7 -5 7h-28q-10 0 -8 10l19 111q2 10 12 10z" />
    <glyph glyph-name=".notdef" horiz-adv-x="530" 
d="M10 680h510q10 0 10 -10v-660q0 -10 -10 -10h-510q-10 0 -10 10v660q0 10 10 10zM445 605h-360q-6 0 -6 -6v-518q0 -6 6 -6h360q6 0 6 6v518q0 6 -6 6zM263 563q64 0 101 -33t37 -85q0 -46 -40 -95l-38 -46q-13 -16 -13 -35v-10q0 -10 -10 -10h-81q-10 0 -10 10v24
q0 29 21 55l37 45q30 36 30 54q0 16 -10 25.5t-28 9.5q-16 0 -28 -6q-5 -2 -5 -9v-27q0 -10 -10 -10h-72q-10 0 -10 10v83q0 8 7 14q50 36 122 36zM218 208h83q10 0 10 -10v-75q0 -10 -10 -10h-83q-10 0 -10 10v75q0 10 10 10z" />
    <glyph glyph-name=".null" horiz-adv-x="0" 
 />
    <glyph glyph-name="nonmarkingreturn" horiz-adv-x="333" 
 />
    <glyph glyph-name="CR" unicode="&#xd;" horiz-adv-x="600" 
 />
    <glyph glyph-name="space" unicode=" " horiz-adv-x="231" 
 />
    <glyph glyph-name="exclam" unicode="!" horiz-adv-x="305" 
d="M163 680h148q10 0 8 -10l-103 -452q-2 -10 -10 -10h-102q-10 0 -8 10l57 452q2 10 10 10zM78 143h132q10 0 8 -10l-21 -123q-2 -10 -11 -10h-133q-10 0 -8 10l21 123q2 10 12 10z" />
    <glyph glyph-name="quotedbl" unicode="&#x22;" horiz-adv-x="386" 
d="M144 680h93q11 0 9 -10l-36 -201q-2 -10 -11 -10h-94q-10 0 -8 10l36 201q2 10 11 10zM315 680h94q10 0 8 -10l-35 -201q-2 -10 -12 -10h-93q-10 0 -8 10l35 201q2 10 11 10z" />
    <glyph glyph-name="numbersign" unicode="#" horiz-adv-x="579" 
d="M496 680h112q10 0 7 -10l-50 -163h61q10 0 8 -10l-17 -96q-2 -10 -11 -10h-77l-29 -94h64q11 0 9 -10l-17 -96q-2 -10 -11 -10h-81l-53 -171q-3 -10 -12 -10h-112q-11 0 -8 10l53 171h-91l-53 -171q-3 -10 -12 -10h-112q-11 0 -8 10l53 171h-58q-11 0 -9 10l17 96
q2 10 11 10h75l29 94h-62q-11 0 -9 10l17 96q2 10 12 10h78l50 163q3 10 12 10h112q11 0 8 -10l-50 -163h91l51 163q3 10 12 10zM306 391l-29 -94h91l29 94h-91z" />
    <glyph glyph-name="dollar" unicode="$" 
d="M334 765h79q10 0 8 -10l-12 -66q76 -9 134 -36q9 -4 8 -13l-24 -134q-2 -10 -11 -10h-124q-10 0 -8 10l6 34q1 6 -5 8q-17 5 -36 5q-38 0 -62.5 -22t-24.5 -58q0 -42 60 -52l25 -4q157 -25 157 -158q0 -111 -59 -181.5t-159 -85.5l-11 -67q-3 -10 -12 -10h-78
q-10 0 -8 10l11 65q-97 6 -163 41q-8 4 -7 13l25 141q2 10 10 10h124q11 0 9 -10l-6 -39q-1 -7 4 -10q20 -9 55 -9q47 0 73 25t26 64q0 43 -60 53l-19 3q-78 12 -120 56t-42 113q0 99 58.5 166t154.5 81l12 67q2 10 12 10z" />
    <glyph glyph-name="percent" unicode="%" horiz-adv-x="823" 
d="M645 692h98q10 0 2 -10l-503 -684q-7 -10 -18 -10h-97q-9 0 -3 10l503 684q7 10 18 10zM284 688q51 0 84 -29t33 -81q0 -98 -33 -166q-40 -82 -146 -82q-52 0 -84.5 28.5t-32.5 80.5q0 36 8.5 86.5t23.5 80.5q40 82 147 82zM269 605q-20 0 -30 -21q-6 -12 -16.5 -71
t-10.5 -75q0 -25 24 -25q20 0 31 21q6 12 16 71t10 75q0 25 -24 25zM648 350q51 0 84 -29t33 -81q0 -100 -32 -166q-42 -82 -147 -82q-52 0 -84.5 28.5t-32.5 80.5q0 36 9 86.5t24 80.5q39 82 146 82zM633 267q-20 0 -30 -21q-6 -12 -16.5 -71t-10.5 -75q0 -25 24 -25
q21 0 30 21q6 12 16.5 71t10.5 74q0 26 -24 26z" />
    <glyph glyph-name="ampersand" unicode="&#x26;" horiz-adv-x="623" 
d="M352 692q72 0 113 -38.5t41 -99.5q0 -55 -32 -100t-118 -106l52 -88l69 66q7 6 14 6h87q10 0 8 -10l-18 -98q-2 -10 -11 -10h-23q-5 0 -10 -5l-53 -54q11 -21 20.5 -27t25.5 -6h23q10 0 8 -10l-18 -104q-2 -10 -11 -10h-46q-41 0 -63.5 12.5t-42.5 46.5
q-46 -38 -87.5 -53.5t-93.5 -15.5q-75 0 -118 44.5t-43 109.5q0 61 32.5 113t123.5 118q-46 80 -46 127q0 84 61 138t156 54zM331 580q-24 0 -40.5 -17t-16.5 -42q0 -29 22 -69q44 32 58 51t14 41q0 17 -10 26.5t-27 9.5zM305 162l-64 108q-40 -30 -56 -52.5t-16 -48.5
q0 -22 14 -36t38 -14q35 0 84 43z" />
    <glyph glyph-name="quotesingle" unicode="'" horiz-adv-x="215" 
d="M144 680h93q11 0 9 -10l-36 -201q-2 -10 -12 -10h-93q-10 0 -8 10l36 201q2 10 11 10z" />
    <glyph glyph-name="parenleft" unicode="(" horiz-adv-x="319" 
d="M286 740h93q12 0 5 -10q-171 -272 -171 -574q0 -129 29 -230q3 -10 -8 -10h-93q-8 0 -13 10q-64 124 -64 279q0 139 54 276t152 249q8 10 16 10z" />
    <glyph glyph-name="parenright" unicode=")" horiz-adv-x="319" 
d="M128 740h94q8 0 13 -10q64 -127 64 -279q0 -139 -54 -275.5t-152 -249.5q-8 -10 -16 -10h-94q-11 0 -4 10q171 272 171 574q0 128 -29 230q-3 10 7 10z" />
    <glyph glyph-name="asterisk" unicode="*" horiz-adv-x="394" 
d="M250 680h65q10 0 8 -10l-16 -80l74 40q9 5 12 -3l24 -56q3 -8 -6 -13l-79 -41l63 -40q9 -5 2 -14l-39 -52q-6 -10 -14 -2l-61 41l-13 -83q-2 -10 -12 -10h-65q-10 0 -8 10l15 79l-71 -39q-10 -5 -13 3l-24 55q-3 8 6 13l79 42l-63 41q-7 5 -1 13l38 51q6 8 15 3l60 -41
l13 83q2 10 11 10z" />
    <glyph glyph-name="plus" unicode="+" 
d="M222 508h119q10 0 10 -10v-149q0 -6 6 -6h145q10 0 10 -10v-114q0 -10 -10 -10h-145q-6 0 -6 -6v-149q0 -10 -10 -10h-119q-10 0 -10 10v149q0 6 -6 6h-145q-10 0 -10 10v114q0 10 10 10h145q6 0 6 6v149q0 10 10 10z" />
    <glyph glyph-name="comma" unicode="," horiz-adv-x="245" 
d="M54 154h125q11 0 9 -10l-22 -128q-3 -12 -13 -20l-124 -93q-11 -8 -18 -8q-12 0 -9 14l41 235q2 10 11 10z" />
    <glyph glyph-name="hyphen" unicode="-" horiz-adv-x="380" 
d="M68 335h291q11 0 9 -10l-21 -120q-2 -10 -12 -10h-291q-10 0 -8 10l21 120q2 10 11 10z" />
    <glyph glyph-name="period" unicode="." horiz-adv-x="245" 
d="M46 154h133q11 0 9 -10l-23 -134q-2 -10 -11 -10h-133q-11 0 -9 10l23 134q2 10 11 10z" />
    <glyph glyph-name="slash" unicode="/" horiz-adv-x="423" 
d="M337 692h141q10 0 5 -10l-329 -684q-5 -10 -14 -10h-138q-11 0 -6 10l327 684q5 10 14 10z" />
    <glyph glyph-name="zero" unicode="0" 
d="M353 692q86 0 138 -45.5t52 -128.5q0 -60 -25 -201t-49 -189q-68 -140 -232 -140q-86 0 -138.5 45.5t-52.5 128.5q0 59 25.5 200t48.5 190q69 140 233 140zM333 558q-40 0 -59 -39q-12 -26 -38.5 -168.5t-26.5 -179.5q0 -23 12.5 -36t35.5 -13q40 0 59 39q13 25 39 167.5
t26 180.5q0 49 -48 49z" />
    <glyph glyph-name="one" unicode="1" 
d="M318 680h135q10 0 8 -10l-95 -533q-2 -6 5 -6h114q10 0 8 -10l-19 -111q-2 -10 -10 -10h-404q-10 0 -8 10l19 111q2 10 11 10h114q6 0 7 6l65 367h-1l-129 -73q-3 -2 -6 -2t-5 2.5t-1 6.5l26 141q2 9 9 14l138 81q7 6 19 6z" />
    <glyph glyph-name="two" unicode="2" 
d="M348 692q88 0 138.5 -45t50.5 -116q0 -110 -105 -209l-196 -187l-1 -2h97q6 0 8 6l7 39q2 10 11 10h122q10 0 8 -10l-30 -168q-2 -10 -11 -10h-423q-10 0 -8 10l19 108q2 9 9 16l275 270q55 55 55 103q0 52 -55 52q-28 0 -50 -11q-7 -4 -8 -9l-10 -55q-2 -10 -11 -10
h-122q-10 0 -8 10l25 141q1 8 9 13q88 54 204 54z" />
    <glyph glyph-name="three" unicode="3" 
d="M348 692q90 0 140 -41.5t50 -110.5q0 -116 -102 -176v-2q61 -36 61 -121q0 -112 -73.5 -182.5t-190.5 -70.5q-120 0 -189 47q-7 5 -6 15l23 134q2 10 11 10h122q10 0 8 -10l-8 -45q-1 -6 6 -10q17 -8 45 -8q42 0 66.5 28.5t24.5 71.5q0 29 -17.5 45.5t-48.5 16.5h-26
q-10 0 -8 10l19 112q2 10 12 10h25q36 0 59 25.5t23 65.5q0 52 -55 52q-24 0 -46 -10q-5 -3 -7 -9l-9 -51q-2 -10 -11 -10h-122q-11 0 -9 10l25 138q1 8 9 13q83 53 199 53z" />
    <glyph glyph-name="four" unicode="4" 
d="M312 680h150q12 0 5 -10l-254 -431l-1 -3h90q7 0 7 6l22 124q2 10 12 10h134q11 0 9 -10l-22 -124q-2 -6 4 -6h37q11 0 9 -10l-21 -118q-2 -10 -11 -10h-38q-6 0 -7 -6l-14 -82q-2 -10 -11 -10h-135q-11 0 -9 10l14 82q2 6 -5 6h-254q-10 0 -8 10l22 122q1 7 6 14
l253 427q4 9 16 9z" />
    <glyph glyph-name="five" unicode="5" 
d="M164 680h380q11 0 9 -10l-21 -116q-2 -10 -12 -10h-247q-5 0 -7 -6l-22 -122h2q39 39 109 39q148 0 148 -147q0 -110 -41 -192q-63 -128 -229 -128q-122 0 -185 49q-8 5 -6 15l23 132q2 10 11 10h122q11 0 9 -10l-8 -46q-1 -7 5 -10q18 -7 43 -7q52 0 73 44t21 103
q0 55 -50 55q-40 0 -59 -35q-5 -10 -14 -10h-124q-10 0 -8 10l67 382q2 10 11 10z" />
    <glyph glyph-name="six" unicode="6" 
d="M333 680h152q12 0 5 -11l-175 -256l1 -1q10 6 34 6q70 0 113 -44.5t43 -118.5q0 -113 -76.5 -190t-195.5 -77q-90 0 -143.5 47.5t-53.5 127.5q0 99 87 225l196 285q6 7 13 7zM286 290q-38 0 -65.5 -30t-27.5 -73q0 -29 17 -47t46 -18q38 0 65 30t27 73q0 30 -16.5 47.5
t-45.5 17.5z" />
    <glyph glyph-name="seven" unicode="7" 
d="M141 680h419q11 0 9 -10l-22 -119q-2 -12 -7 -22l-290 -519q-5 -10 -15 -10h-149q-12 0 -5 11l297 526v3h-114q-6 0 -7 -6l-12 -65q-2 -10 -11 -10h-132q-10 0 -8 10l36 201q2 10 11 10z" />
    <glyph glyph-name="eight" unicode="8" 
d="M354 692q88 0 137 -47t49 -118q0 -106 -88 -172l-1 -2q53 -44 53 -116q0 -105 -78.5 -177t-193.5 -72q-90 0 -145 46t-55 124q0 59 27.5 110.5t79.5 84.5l1 2q-41 35 -41 101q0 94 71.5 165t183.5 71zM332 558q-32 0 -56 -25t-24 -60q0 -24 14.5 -39.5t39.5 -15.5
q32 0 55.5 25t23.5 60q0 25 -14 40t-39 15zM283 287q-39 0 -66 -29t-27 -71q0 -29 18 -47t47 -18q39 0 66 29t27 71q0 29 -17.5 47t-47.5 18z" />
    <glyph glyph-name="nine" unicode="9" 
d="M351 692q89 0 142.5 -47.5t53.5 -127.5q0 -97 -88 -225l-195 -285q-6 -7 -13 -7h-152q-13 0 -6 11l176 256l-1 1q-8 -5 -34 -5q-71 0 -114 45.5t-43 120.5q0 110 77 186.5t197 76.5zM328 558q-39 0 -65.5 -30t-26.5 -72q0 -30 16.5 -48t45.5 -18q39 0 66 30t27 72
q0 30 -16.5 48t-46.5 18z" />
    <glyph glyph-name="colon" unicode=":" horiz-adv-x="245" 
d="M104 487h133q11 0 9 -10l-23 -135q-2 -10 -11 -10h-133q-11 0 -9 10l23 135q2 10 11 10zM46 154h133q11 0 9 -10l-23 -134q-2 -10 -11 -10h-133q-11 0 -9 10l23 134q2 10 11 10z" />
    <glyph glyph-name="semicolon" unicode=";" horiz-adv-x="245" 
d="M104 487h133q11 0 9 -10l-23 -135q-2 -10 -11 -10h-133q-11 0 -9 10l23 135q2 10 11 10zM49 154h126q11 0 9 -10l-22 -128q-2 -11 -13 -20l-124 -93q-11 -8 -18 -8q-12 0 -10 14l41 235q2 10 11 10z" />
    <glyph glyph-name="less" unicode="&#x3c;" 
d="M57 339l441 167q10 3 10 -7v-124q0 -9 -10 -13l-244 -85v-2l244 -85q10 -4 10 -13v-124q0 -10 -10 -7l-441 167q-10 3 -10 14v98q0 11 10 14z" />
    <glyph glyph-name="equal" unicode="=" 
d="M68 453h441q10 0 10 -10v-115q0 -10 -10 -10h-441q-10 0 -10 10v115q0 10 10 10zM68 234h441q10 0 10 -10v-115q0 -10 -10 -10h-441q-10 0 -10 10v115q0 10 10 10z" />
    <glyph glyph-name="greater" unicode="&#x3e;" 
d="M65 506l441 -167q10 -3 10 -14v-98q0 -11 -10 -14l-441 -167q-10 -3 -10 7v124q0 9 10 13l243 85v2l-243 85q-10 4 -10 13v124q0 10 10 7z" />
    <glyph glyph-name="question" unicode="?" horiz-adv-x="481" 
d="M318 692q90 0 138.5 -43.5t48.5 -112.5q0 -49 -23 -90t-73 -89l-60 -60q-24 -24 -32 -61l-4 -18q-2 -10 -11 -10h-130q-11 0 -9 10l8 41q9 48 46 85l69 70q35 35 47 54.5t12 41.5q0 47 -52 47q-27 0 -48 -10q-6 -3 -7 -8l-9 -51q-2 -10 -11 -10h-122q-11 0 -9 10l24 137
q1 9 10 14q89 53 197 53zM159 143h134q10 0 8 -10l-22 -123q-2 -10 -11 -10h-132q-11 0 -9 10l21 123q2 10 11 10z" />
    <glyph glyph-name="at" unicode="@" horiz-adv-x="903" 
d="M529 679q160 0 254.5 -91.5t94.5 -240.5q0 -136 -65 -215.5t-168 -79.5q-49 0 -82 18t-44 49h-1q-45 -67 -135 -67q-59 0 -93 34.5t-34 95.5q0 44 13 107.5t29 95.5q46 93 140 93q75 0 96 -50h1l5 30q2 10 11 10h143q10 0 8 -10l-15 -87q-2 -10 -11 -10h-18q-6 0 -8 -6
l-22 -127q-3 -15 -3 -24q0 -42 40 -42q38 0 63 46.5t25 126.5q0 114 -64 174t-179 60q-153 0 -248 -107t-95 -265q0 -108 64.5 -171.5t177.5 -63.5q96 0 196 50q10 5 14 -2l41 -79q5 -8 -5 -15q-108 -69 -264 -69q-160 0 -255.5 93t-95.5 245q0 217 135 355.5t354 138.5z
M467 368q-39 0 -58 -40q-8 -16 -15.5 -55t-7.5 -60q0 -50 46 -51q39 0 57 40q9 17 16.5 55t7.5 60q0 51 -46 51z" />
    <glyph glyph-name="A" unicode="A" horiz-adv-x="661" 
d="M323 680h186q9 0 11 -10l76 -533q1 -6 7 -6h28q10 0 8 -10l-19 -111q-2 -10 -12 -10h-231q-10 0 -8 10l19 111q2 10 12 10h31q6 0 6 6l-8 62h-191l-29 -62q-3 -6 3 -6h32q10 0 8 -10l-19 -111q-2 -10 -12 -10h-241q-10 0 -8 10l20 111q2 10 11 10h30q5 0 8 5l268 534
q5 10 14 10zM388 516l-86 -182h111l-22 182h-3z" />
    <glyph glyph-name="B" unicode="B" horiz-adv-x="600" 
d="M114 680h309q94 0 140 -37.5t46 -105.5q0 -126 -110 -184l-1 -2q68 -30 68 -121q0 -106 -71.5 -168t-192.5 -62h-308q-10 0 -8 10l19 111q2 10 12 10h33q6 0 8 6l72 406q2 6 -5 6h-34q-10 0 -8 10l19 111q2 10 12 10zM368 552h-64q-6 0 -7 -6l-24 -135q-1 -6 5 -6h64
q42 0 68.5 24.5t26.5 67.5q0 55 -69 55zM331 289h-73q-6 0 -7 -6l-26 -148q-1 -6 4 -6h73q44 0 71 27t27 74q0 59 -69 59z" />
    <glyph glyph-name="C" unicode="C" horiz-adv-x="563" 
d="M381 692q68 0 125 -17t85 -39q8 -7 7 -17l-25 -146q-2 -10 -11 -10h-127q-10 0 -8 10l8 49q2 8 -5 11q-22 11 -64 11q-69 0 -99 -64q-14 -31 -32.5 -128t-18.5 -136q0 -80 86 -80q36 0 60 11q7 4 8 9l10 52q2 10 11 10h127q10 0 8 -10l-28 -160q-1 -8 -10 -13
q-85 -47 -210 -47q-233 0 -233 211q0 57 21 168.5t47 166.5q41 82 104.5 120t163.5 38z" />
    <glyph glyph-name="D" unicode="D" horiz-adv-x="623" 
d="M114 680h297q208 0 208 -199q0 -66 -19.5 -172t-46.5 -161q-39 -80 -103.5 -114t-157.5 -34h-298q-10 0 -8 10l19 111q2 10 12 10h33q6 0 8 6l72 406q2 6 -5 6h-34q-10 0 -8 10l19 111q2 10 12 10zM351 530h-50q-5 0 -7 -6l-65 -368q-1 -6 4 -6h53q45 0 72 15t46 52
q15 30 29.5 109t14.5 117q0 46 -22.5 66.5t-74.5 20.5z" />
    <glyph glyph-name="E" unicode="E" horiz-adv-x="548" 
d="M114 680h474q10 0 8 -10l-29 -164q-2 -10 -11 -10h-124q-10 0 -8 10l6 35q2 6 -4 6h-124q-4 0 -6 -6l-22 -125q-2 -6 4 -6h75q5 0 7 6l4 21q2 10 11 10h118q10 0 8 -10l-33 -188q-2 -10 -11 -10h-118q-10 0 -8 10l4 22q1 6 -4 6h-77q-4 0 -6 -6l-24 -132q-2 -6 5 -6h123
q6 0 7 6l7 39q2 10 11 10h124q10 0 8 -10l-29 -168q-2 -10 -11 -10h-475q-10 0 -8 10l19 111q2 10 12 10h33q6 0 8 6l72 406q2 6 -5 6h-34q-10 0 -8 10l19 111q2 10 12 10z" />
    <glyph glyph-name="F" unicode="F" horiz-adv-x="539" 
d="M114 680h474q11 0 9 -10l-30 -166q-2 -10 -10 -10h-124q-11 0 -9 10l6 34q2 6 -4 6h-125q-5 0 -6 -6l-22 -130q-1 -6 4 -6h75q6 0 7 6l4 21q2 10 11 10h118q10 0 8 -10l-33 -188q-2 -10 -11 -10h-118q-10 0 -8 10l4 22q2 6 -4 6h-77q-5 0 -6 -6l-22 -126q-1 -6 4 -6h43
q10 0 8 -10l-19 -111q-2 -10 -11 -10h-256q-10 0 -8 10l19 111q2 10 12 10h33q6 0 8 6l72 406q2 6 -5 6h-34q-10 0 -8 10l19 111q2 10 12 10z" />
    <glyph glyph-name="G" unicode="G" horiz-adv-x="604" 
d="M390 692q79 0 138 -21.5t88 -50.5q4 -5 3 -15l-23 -130q-2 -10 -10 -10h-127q-10 0 -8 10l8 45q1 7 -4 10q-26 14 -74 14q-81 0 -115 -69q-14 -28 -32 -123t-18 -134q0 -82 94 -82q49 0 74 13q8 4 9 12l15 84q2 6 -5 6h-72q-9 0 -7 10l20 108q2 10 11 10h225q9 0 7 -10
l-53 -301q-3 -16 -17 -25q-80 -55 -221 -55q-122 0 -186.5 54.5t-64.5 160.5q0 55 21 166.5t46 162.5q40 83 108 121.5t170 38.5z" />
    <glyph glyph-name="H" unicode="H" horiz-adv-x="661" 
d="M467 680h248q10 0 8 -10l-19 -111q-2 -10 -12 -10h-34q-6 0 -7 -6l-72 -406q-1 -6 5 -6h34q10 0 8 -10l-19 -111q-2 -10 -12 -10h-247q-10 0 -8 10l19 111q2 10 12 10h33q6 0 8 6l22 126q2 6 -5 6h-175q-4 0 -6 -6l-23 -126q-1 -6 5 -6h34q10 0 8 -10l-19 -111
q-2 -10 -12 -10h-247q-10 0 -8 10l19 111q2 10 12 10h33q6 0 8 6l72 406q2 6 -5 6h-34q-10 0 -8 10l19 111q2 10 12 10h247q10 0 8 -10l-19 -111q-2 -10 -12 -10h-33q-7 0 -8 -6l-20 -117q-1 -6 4 -6h175q6 0 7 6l21 117q2 6 -4 6h-35q-10 0 -8 10l19 111q2 10 11 10z" />
    <glyph glyph-name="I" unicode="I" horiz-adv-x="307" 
d="M114 680h247q10 0 8 -10l-19 -111q-2 -10 -12 -10h-33q-7 0 -8 -6l-72 -406q-1 -6 5 -6h34q10 0 8 -10l-19 -111q-2 -10 -12 -10h-247q-10 0 -8 10l19 111q2 10 12 10h33q6 0 8 6l72 406q2 6 -5 6h-34q-10 0 -8 10l19 111q2 10 12 10z" />
    <glyph glyph-name="J" unicode="J" horiz-adv-x="519" 
d="M333 680h248q10 0 8 -10l-19 -111q-2 -10 -12 -10h-33q-5 0 -7 -6l-51 -287q-47 -268 -289 -268q-114 0 -184 42q-8 4 -6 15l28 154q2 10 11 10h136q10 0 8 -10l-8 -46q-1 -6 4 -9q12 -5 31 -5q82 0 99 104l54 300q1 6 -5 6h-36q-10 0 -8 10l19 111q2 10 12 10z" />
    <glyph glyph-name="K" unicode="K" horiz-adv-x="641" 
d="M434 680h243q10 0 8 -10l-19 -111q-2 -10 -12 -10h-26q-6 0 -12 -6l-164 -155l90 -251q3 -6 8 -6h55q10 0 8 -10l-19 -111q-2 -10 -12 -10h-161q-12 0 -15 10l-86 252l-87 -82l-8 -43q-1 -6 5 -6h34q10 0 8 -10l-19 -111q-2 -10 -12 -10h-247q-10 0 -8 10l19 111
q2 10 12 10h33q6 0 8 6l72 406q2 6 -5 6h-34q-10 0 -8 10l19 111q2 10 12 10h247q10 0 8 -10l-19 -111q-2 -10 -12 -10h-34q-6 0 -7 -6l-27 -149l157 148q2 2 1.5 4.5t-4.5 2.5h-13q-10 0 -8 10l19 111q2 10 12 10z" />
    <glyph glyph-name="L" unicode="L" horiz-adv-x="534" 
d="M113 680h248q10 0 8 -10l-19 -111q-2 -10 -12 -10h-33q-7 0 -8 -6l-70 -398q-1 -6 4 -6h121q6 0 7 6l8 44q2 10 11 10h126q10 0 8 -10l-32 -179q-2 -10 -11 -10h-475q-10 0 -8 10l19 111q2 10 12 10h33q7 0 8 6l72 406q2 6 -5 6h-34q-10 0 -8 10l19 111q2 10 11 10z" />
    <glyph glyph-name="M" unicode="M" horiz-adv-x="781" 
d="M638 680h197q10 0 8 -10l-19 -111q-2 -10 -12 -10h-33q-7 0 -8 -6l-72 -406q-1 -6 5 -6h34q10 0 8 -10l-19 -111q-2 -10 -12 -10h-230q-10 0 -8 10l19 111q2 10 12 10h30q6 0 8 6l41 236h-4l-155 -267q-8 -13 -20 -13h-74q-14 0 -17 14l-62 266h-3l-42 -236q-2 -6 5 -6
h31q10 0 8 -10l-19 -111q-2 -10 -12 -10h-229q-10 0 -8 10l19 111q2 10 12 10h33q6 0 8 6l72 406q2 6 -5 6h-34q-10 0 -8 10l19 111q2 10 12 10h184q12 0 15 -10l90 -362h3l215 362q5 10 17 10z" />
    <glyph glyph-name="N" unicode="N" horiz-adv-x="660" 
d="M481 680h233q10 0 8 -10l-19 -111q-2 -10 -11 -10h-35q-5 0 -7 -6l-95 -533q-2 -10 -11 -10h-142q-10 0 -14 10l-126 393h-4l-47 -266q-1 -6 4 -6h35q10 0 8 -10l-19 -111q-2 -10 -12 -10h-233q-10 0 -8 10l19 111q2 10 12 10h33q6 0 8 6l72 406q2 6 -5 6h-34
q-10 0 -8 10l19 111q2 10 12 10h190q12 0 15 -10l127 -394h4l47 267q1 6 -5 6h-34q-10 0 -8 10l19 111q2 10 12 10z" />
    <glyph glyph-name="O" unicode="O" horiz-adv-x="604" 
d="M381 692q104 0 165 -55t61 -159q0 -57 -20.5 -168t-46.5 -163q-79 -159 -269 -159q-104 0 -165 55t-61 159q0 57 20.5 168t46.5 163q77 159 269 159zM361 541q-65 0 -96 -65q-14 -28 -31.5 -123t-17.5 -135q0 -37 19.5 -58t55.5 -21q65 0 96 65q14 28 31.5 123t17.5 135
q0 37 -19.5 58t-55.5 21z" />
    <glyph glyph-name="P" unicode="P" horiz-adv-x="600" 
d="M114 680h304q103 0 156 -47t53 -129q0 -126 -80 -198.5t-207 -72.5h-92q-6 0 -7 -6l-16 -90q-1 -6 4 -6h38q10 0 8 -10l-19 -111q-2 -10 -11 -10h-251q-10 0 -8 10l19 111q2 10 12 10h33q6 0 8 6l72 406q2 6 -5 6h-34q-10 0 -8 10l19 111q2 10 12 10zM384 536h-81
q-5 0 -7 -6l-26 -146q-2 -7 4 -7h82q45 0 72 27t27 72q0 28 -18.5 44t-52.5 16z" />
    <glyph glyph-name="Q" unicode="Q" horiz-adv-x="604" 
d="M381 692q104 0 165 -55t61 -159q0 -63 -23.5 -182t-57.5 -174l50 -73q6 -10 -4 -16l-115 -87q-9 -7 -15 1l-43 64q-60 -23 -128 -23q-104 0 -165 55t-61 159q0 57 20.5 168t46.5 163q77 159 269 159zM361 541q-65 0 -96 -65q-14 -28 -31.5 -123t-17.5 -135
q0 -37 19.5 -58t55.5 -21q65 0 96 65q14 28 31.5 123t17.5 135q0 37 -19.5 58t-55.5 21z" />
    <glyph glyph-name="R" unicode="R" horiz-adv-x="618" 
d="M114 680h308q98 0 150.5 -47.5t52.5 -127.5q0 -74 -40 -130.5t-108 -85.5l44 -152q1 -6 7 -6h48q10 0 8 -10l-20 -111q-2 -10 -11 -10h-152q-11 0 -14 10l-61 253h-73q-5 0 -7 -6l-21 -120q-1 -6 5 -6h34q10 0 8 -10l-19 -111q-2 -10 -12 -10h-247q-10 0 -8 10l19 111
q2 10 12 10h33q6 0 8 6l72 406q2 6 -5 6h-34q-10 0 -8 10l19 111q2 10 12 10zM388 543h-85q-5 0 -7 -6l-25 -137q-1 -6 5 -6h84q42 1 69 25.5t27 68.5q0 25 -18 40t-50 15z" />
    <glyph glyph-name="S" unicode="S" horiz-adv-x="582" 
d="M361 692q125 0 219 -50q8 -5 7 -16l-23 -131q-2 -10 -11 -10h-125q-11 0 -9 10l6 35q1 5 -5 8q-32 13 -69 13q-41 0 -64 -20t-23 -51q0 -24 14.5 -37t56.5 -19l33 -5q185 -28 185 -172q0 -120 -81 -189.5t-218 -69.5q-128 0 -232 52q-9 5 -8 13l26 145q2 10 11 10h135
q10 0 8 -10l-7 -43q-1 -7 5 -10q38 -15 80 -15q50 0 77 22.5t27 57.5q0 24 -15.5 37t-55.5 19l-34 5q-184 27 -184 177q0 112 74.5 178t199.5 66z" />
    <glyph glyph-name="T" unicode="T" horiz-adv-x="617" 
d="M104 680h572q11 0 9 -10l-31 -176q-2 -10 -11 -10h-124q-11 0 -9 10l8 43q2 6 -4 6h-58q-6 0 -7 -6l-71 -400q-2 -6 4 -6h47q10 0 8 -10l-19 -111q-2 -10 -11 -10h-272q-10 0 -8 10l19 111q2 10 12 10h46q6 0 7 6l71 400q2 6 -5 6h-56q-7 0 -8 -6l-7 -43q-2 -10 -11 -10
h-124q-10 0 -8 10l30 176q2 10 11 10z" />
    <glyph glyph-name="U" unicode="U" horiz-adv-x="644" 
d="M455 680h248q10 0 8 -10l-19 -111q-2 -10 -12 -10h-34q-6 0 -7 -6l-50 -284q-26 -145 -97 -208t-194 -63q-109 0 -169.5 53t-60.5 154q0 31 6 69l50 279q2 6 -4 6h-35q-10 0 -8 10l19 111q2 10 12 10h247q10 0 8 -10l-19 -111q-2 -10 -11 -10h-34q-7 0 -8 -6l-51 -291
q-3 -18 -3 -32q0 -38 19.5 -59t56.5 -21q44 0 70.5 26t37.5 86l51 291q2 6 -4 6h-35q-10 0 -8 10l19 111q2 10 11 10z" />
    <glyph glyph-name="V" unicode="V" horiz-adv-x="632" 
d="M452 680h244q10 0 8 -10l-19 -111q-2 -10 -11 -10h-24q-6 0 -8 -5l-255 -534q-4 -10 -14 -10h-181q-11 0 -12 10l-67 533q-1 6 -7 6h-27q-10 0 -8 10l19 111q2 10 12 10h237q10 0 8 -10l-19 -111q-2 -10 -12 -10h-32q-6 0 -6 -6l40 -339h3l146 339q3 6 -3 6h-34
q-10 0 -8 10l19 111q2 10 11 10z" />
    <glyph glyph-name="W" unicode="W" horiz-adv-x="910" 
d="M732 680h243q10 0 8 -10l-19 -111q-2 -10 -12 -10h-23q-7 0 -9 -5l-242 -534q-4 -10 -13 -10h-125q-10 0 -11 10l-36 392h-2l-174 -392q-4 -10 -13 -10h-124q-11 0 -12 10l-53 532q0 7 -6 7h-29q-10 0 -8 10l19 111q2 10 12 10h237q10 0 8 -10l-19 -111q-2 -10 -11 -10
h-34q-6 0 -6 -6l16 -283h2l174 410q4 10 13 10h103q11 0 12 -10l35 -410h2l113 282q4 7 -4 7h-35q-10 0 -8 10l19 111q2 10 12 10z" />
    <glyph glyph-name="X" unicode="X" horiz-adv-x="617" 
d="M428 680h237q10 0 8 -10l-19 -111q-2 -10 -11 -10h-22q-6 0 -11 -5l-174 -197l104 -210q4 -6 9 -6h35q10 0 8 -10l-19 -111q-2 -10 -11 -10h-242q-10 0 -8 10l19 111q2 10 12 10h27q8 0 4 7l-53 115h-1l-97 -115q-5 -7 3 -7h24q10 0 8 -10l-19 -111q-2 -10 -12 -10h-243
q-10 0 -8 10l19 111q2 10 12 10h23q6 0 11 5l189 215l-95 192q-2 6 -9 6h-30q-10 0 -8 10l19 111q2 10 11 10h232q8 0 6 -10l-19 -111q-2 -10 -12 -10h-18q-9 0 -5 -7l44 -98h1l82 98q5 7 -3 7h-20q-10 0 -8 10l19 111q2 10 11 10z" />
    <glyph glyph-name="Y" unicode="Y" horiz-adv-x="599" 
d="M425 680h235q10 0 8 -10l-19 -111q-2 -10 -12 -10h-28q-5 0 -10 -6l-201 -280l-23 -126q-1 -6 6 -6h44q10 0 8 -10l-19 -111q-2 -10 -11 -10h-270q-10 0 -8 10l19 111q2 10 11 10h45q6 0 8 6l22 126l-104 280q-2 6 -9 6h-35q-10 0 -8 10l19 111q2 10 12 10h232
q10 0 8 -10l-19 -111q-2 -10 -12 -10h-23q-7 0 -5 -6l47 -133h3l94 132q5 7 -3 7h-24q-10 0 -8 10l19 111q2 10 11 10z" />
    <glyph glyph-name="Z" unicode="Z" horiz-adv-x="563" 
d="M140 680h460q11 0 9 -10l-23 -126q-1 -7 -5 -12l-359 -385l-1 -3h144q5 0 7 6l7 39q2 10 11 10h126q10 0 8 -10l-31 -179q-2 -10 -11 -10h-472q-11 0 -9 10l23 129q2 7 6 11l357 385l1 2h-132q-6 0 -7 -6l-7 -37q-2 -10 -11 -10h-126q-10 0 -8 10l32 176q2 10 11 10z" />
    <glyph glyph-name="bracketleft" unicode="[" horiz-adv-x="303" 
d="M156 740h206q9 0 7 -10l-17 -100q-2 -10 -11 -10h-71q-6 0 -7 -6l-101 -572q-2 -6 5 -6h70q10 0 8 -10l-17 -100q-2 -10 -11 -10h-206q-11 0 -9 10l142 804q2 10 12 10z" />
    <glyph glyph-name="backslash" unicode="\" horiz-adv-x="423" 
d="M117 692h132q9 0 11 -10l97 -684q2 -10 -8 -10h-133q-9 0 -11 10l-97 684q0 10 9 10z" />
    <glyph glyph-name="bracketright" unicode="]" horiz-adv-x="303" 
d="M128 740h206q11 0 9 -10l-142 -804q-2 -10 -12 -10h-205q-11 0 -9 10l18 100q2 10 11 10h71q5 0 7 6l101 572q1 6 -4 6h-71q-11 0 -9 10l18 100q2 10 11 10z" />
    <glyph glyph-name="asciicircum" unicode="^" 
d="M225 680h107q9 0 14 -10l164 -415q5 -10 -6 -10h-130q-10 0 -14 10l-81 230h-2l-81 -230q-4 -10 -14 -10h-129q-10 0 -7 10l165 415q5 10 14 10z" />
    <glyph glyph-name="underscore" unicode="_" horiz-adv-x="534" 
d="M468 -168h-534l20 109h533z" />
    <glyph glyph-name="grave" unicode="`" horiz-adv-x="478" 
d="M239 702h125q11 0 15 -10l53 -136q3 -10 -8 -10h-100q-13 0 -18 10l-74 136q-2 4 0 7t7 3z" />
    <glyph glyph-name="a" unicode="a" horiz-adv-x="520" 
d="M287 499q99 0 147 -30t48 -100q0 -19 -6 -55l-32 -177q-2 -6 5 -6h28q10 0 8 -10l-19 -111q-2 -10 -12 -10h-177q-11 0 -9 10l5 30h-1q-48 -50 -135 -50q-55 0 -91.5 32t-36.5 87q0 91 59.5 139t170.5 48h74q7 0 8 6q6 26 6 36q0 39 -64 39q-21 0 -35 -4q-6 -1 -7 -7
l-4 -24q-2 -10 -11 -10h-122q-10 0 -8 10l19 113q1 10 9 13q88 31 183 31zM295 197h-57q-74 0 -74 -56q0 -37 48 -37q74 0 83 55l5 32q2 6 -5 6z" />
    <glyph glyph-name="b" unicode="b" horiz-adv-x="553" 
d="M117 680h185q11 0 9 -10l-41 -230h1q45 58 131 58q134 0 134 -158q0 -52 -15 -125t-38 -119q-52 -106 -170 -106q-87 0 -111 58h-1l-7 -38q-2 -10 -11 -10h-186q-10 0 -8 10l19 111q2 10 12 10h29q5 0 7 6l72 406q2 6 -5 6h-29q-10 0 -8 10l20 111q2 10 11 10zM322 366
q-46 0 -67 -44q-9 -20 -18.5 -68.5t-9.5 -72.5q0 -60 52 -60q43 0 65 44q9 20 19 68.5t10 72.5q0 60 -51 60z" />
    <glyph glyph-name="c" unicode="c" horiz-adv-x="482" 
d="M302 499q113 0 175 -55q6 -6 5 -15l-18 -108q-2 -10 -11 -10h-119q-10 0 -8 10l5 29q1 6 -4 9q-14 8 -42 8q-46 0 -68 -45q-11 -23 -20 -70.5t-9 -71.5q0 -30 13 -44.5t45 -14.5q26 0 40 6q5 2 7 9l6 34q2 10 11 10h119q10 0 8 -10l-23 -128q-1 -8 -9 -13
q-75 -41 -177 -41q-100 0 -150.5 46.5t-50.5 131.5q0 116 42 201q64 132 233 132z" />
    <glyph glyph-name="d" unicode="d" horiz-adv-x="545" 
d="M365 680h185q11 0 9 -10l-94 -533q-1 -6 5 -6h29q10 0 8 -10l-19 -111q-2 -10 -11 -10h-186q-10 0 -8 10l6 37h-1q-45 -58 -130 -58q-135 0 -135 158q0 53 15 125.5t38 118.5q52 106 170 106q87 0 111 -58h1l19 104q1 6 -5 6h-29q-10 0 -8 10l19 111q2 10 11 10zM280 366
q-44 0 -65 -45q-10 -19 -19.5 -67.5t-9.5 -73.5q0 -59 51 -59q45 0 66 43q9 20 19 68.5t10 73.5q0 60 -52 60z" />
    <glyph glyph-name="e" unicode="e" horiz-adv-x="507" 
d="M302 499q85 0 136.5 -45t51.5 -128q0 -45 -13 -119q-2 -10 -12 -10h-278q-9 0 -9 -19q0 -66 84 -66q56 0 112 43q8 6 15 -1l54 -70q6 -8 -2 -16q-88 -80 -217 -80q-92 0 -145 46t-53 135q0 114 40 193q69 137 236 137zM284 383q-52 0 -74 -45q-10 -18 -10 -36q0 -6 6 -6
h126q6 0 8 6q3 12 3 24q0 57 -59 57z" />
    <glyph glyph-name="f" unicode="f" horiz-adv-x="329" 
d="M324 680h61q10 0 8 -10l-18 -102q-2 -10 -10 -10h-28q-29 0 -41.5 -9.5t-16.5 -36.5l-3 -18q-1 -7 5 -7h69q10 0 8 -10l-20 -111q-2 -10 -11 -10h-69q-6 0 -7 -6l-36 -213q-1 -6 4 -6h40q10 0 8 -10l-19 -111q-2 -10 -12 -10h-241q-10 0 -8 10l19 111q2 10 12 10h29
q5 0 7 6l37 213q1 6 -4 6h-27q-9 0 -7 10l19 111q2 10 10 10h28q6 0 7 6l3 16q16 93 63.5 132t140.5 39z" />
    <glyph glyph-name="g" unicode="g" horiz-adv-x="534" 
d="M240 498q86 0 110 -59h1l7 38q2 10 12 10h184q10 0 8 -10l-19 -111q-2 -10 -12 -10h-29q-6 0 -7 -6l-46 -283q-23 -140 -90 -199.5t-190 -59.5q-59 0 -108 23t-73 60q-6 9 3 16l88 74q10 8 17 1q40 -40 84 -40t68.5 23t34.5 78l8 41h-1q-43 -57 -129 -57q-135 0 -135 151
q0 48 12.5 109t31.5 101q54 110 170 110zM274 366q-42 0 -63 -44q-22 -44 -22 -108q0 -58 49 -58q42 0 64 43q23 44 23 108q0 59 -51 59z" />
    <glyph glyph-name="h" unicode="h" horiz-adv-x="569" 
d="M117 680h186q10 0 8 -10l-42 -230h1q49 58 133 58q66 0 97.5 -34.5t31.5 -93.5q0 -29 -5 -53l-32 -180q-1 -6 5 -6h28q10 0 8 -10l-19 -111q-2 -10 -12 -10h-223q-10 0 -8 10l19 111q2 10 11 10h24q6 0 7 6l27 152q2 16 2 24q0 51 -48 51q-28 0 -47 -19.5t-26 -54.5
l-27 -153q-2 -6 5 -6h23q10 0 8 -10l-19 -111q-2 -10 -11 -10h-225q-10 0 -8 10l19 111q2 10 12 10h29q5 0 7 6l72 406q2 6 -5 6h-29q-10 0 -8 10l19 111q2 10 12 10z" />
    <glyph glyph-name="uni0069" unicode="i" horiz-adv-x="292" 
d="M161 680h142q10 0 8 -10l-19 -107q-2 -10 -11 -10h-142q-10 0 -8 10l19 107q2 10 11 10zM83 487h186q10 0 8 -10l-61 -340q-2 -6 5 -6h29q10 0 8 -10l-19 -111q-2 -10 -12 -10h-230q-10 0 -8 10l19 111q2 10 12 10h29q5 0 7 6l38 213q2 6 -5 6h-29q-10 0 -8 10l19 111
q2 10 12 10z" />
    <glyph glyph-name="j" unicode="j" horiz-adv-x="281" 
d="M159 680h142q10 0 8 -10l-19 -107q-2 -10 -11 -10h-142q-10 0 -8 10l19 107q2 10 11 10zM81 487h186q10 0 8 -10l-83 -467q-19 -110 -69 -150t-156 -40h-35q-9 0 -7 10l20 113q2 10 11 10h13q29 0 42.5 11.5t19.5 45.5l61 340q2 6 -5 6h-29q-10 0 -8 10l19 111
q2 10 12 10z" />
    <glyph glyph-name="k" unicode="k" horiz-adv-x="540" 
d="M115 680h186q10 0 8 -10l-58 -330l132 138q8 9 20 9h124q10 0 8 -10l-19 -111q-2 -10 -11 -10h-59q-6 0 -10 -4l-48 -45l59 -170q2 -6 8 -6h40q10 0 8 -10l-19 -111q-2 -10 -11 -10h-134q-10 0 -13 10l-59 184l-50 -47l-24 -137q-2 -10 -11 -10h-185q-10 0 -8 10l19 111
q2 10 12 10h28q6 0 8 6l70 405q1 7 -5 7h-29q-10 0 -8 10l19 111q2 10 12 10z" />
    <glyph glyph-name="l" unicode="l" horiz-adv-x="289" 
d="M96 680h185q11 0 9 -10l-90 -491q-2 -14 -2 -18q0 -30 33 -30h19q10 0 8 -10l-19 -114q-2 -10 -11 -10h-56q-74 0 -107 25.5t-33 82.5q0 25 6 58l68 379q1 7 -5 7h-28q-10 0 -8 10l19 111q2 10 12 10z" />
    <glyph glyph-name="m" unicode="m" horiz-adv-x="848" 
d="M678 498q133 0 133 -126q0 -26 -5 -55l-32 -180q-2 -6 5 -6h28q10 0 8 -10l-19 -111q-2 -10 -12 -10h-223q-10 0 -8 10l19 111q2 10 12 10h23q5 0 7 6l26 146q3 18 3 29q0 52 -48 52q-27 0 -47 -19.5t-26 -54.5l-27 -153q-1 -6 5 -6h23q10 0 8 -10l-19 -111
q-2 -10 -11 -10h-219q-10 0 -8 10l19 111q2 10 11 10h24q6 0 7 6l27 152q2 10 2 24q0 51 -48 51q-28 0 -47.5 -19.5t-25.5 -54.5l-27 -153q-2 -6 5 -6h23q10 0 8 -10l-19 -111q-2 -10 -11 -10h-225q-10 0 -8 10l19 111q2 10 12 10h29q5 0 7 6l38 213q2 6 -5 6h-29
q-10 0 -8 10l19 111q2 10 12 10h185q10 0 8 -10l-7 -37h1q49 58 133 58q87 0 116 -62h1q62 62 158 62z" />
    <glyph glyph-name="n" unicode="n" horiz-adv-x="569" 
d="M403 498q66 0 97.5 -34.5t31.5 -93.5q0 -27 -5 -52l-32 -181q-1 -6 5 -6h28q10 0 8 -10l-19 -111q-2 -10 -12 -10h-223q-10 0 -8 10l19 111q2 10 11 10h24q6 0 7 6l27 152q2 13 2 24q0 51 -48 51q-28 0 -47 -19.5t-26 -54.5l-27 -153q-2 -6 5 -6h23q10 0 8 -10l-19 -111
q-2 -10 -11 -10h-225q-10 0 -8 10l19 111q2 10 12 10h29q5 0 7 6l38 213q2 6 -5 6h-29q-10 0 -8 10l19 111q2 10 12 10h186q9 0 7 -10l-7 -37h1q49 58 133 58z" />
    <glyph glyph-name="o" unicode="o" horiz-adv-x="511" 
d="M301 499q88 0 139.5 -47t51.5 -135q0 -113 -40 -194q-67 -135 -235 -135q-88 0 -139.5 47t-51.5 135q0 113 40 194q65 135 235 135zM281 366q-45 0 -66 -44q-10 -21 -19.5 -69.5t-9.5 -72.5q0 -59 51 -59q45 0 66 44q10 21 19.5 70t9.5 72q0 59 -51 59z" />
    <glyph glyph-name="p" unicode="p" horiz-adv-x="551" 
d="M400 498q134 0 134 -158q0 -52 -15 -125t-38 -119q-27 -56 -68.5 -81t-101.5 -25q-87 0 -111 58h-1l-16 -91q-1 -6 5 -6h29q10 0 8 -10l-19 -111q-2 -10 -12 -10h-230q-10 0 -8 10l19 111q2 10 12 10h28q7 0 8 6l69 393q2 6 -5 6h-29q-10 0 -8 10l20 111q2 10 12 10h184
q11 0 9 -10l-7 -38h1q44 59 131 59zM320 366q-45 0 -66 -44q-9 -20 -19 -68.5t-10 -72.5q0 -60 52 -60q42 0 65 44q10 20 19.5 68.5t9.5 72.5q0 60 -51 60z" />
    <glyph glyph-name="q" unicode="q" horiz-adv-x="545" 
d="M246 497q87 0 111 -58h1l7 38q2 10 11 10h186q10 0 8 -10l-19 -111q-2 -10 -12 -10h-29q-6 0 -7 -6l-69 -393q-2 -6 5 -6h29q10 0 8 -10l-19 -111q-2 -10 -12 -10h-230q-10 0 -8 10l19 111q2 10 11 10h29q6 0 8 6l15 90h-1q-43 -58 -131 -58q-134 0 -134 158
q0 53 15 125.5t38 118.5q52 106 170 106zM280 366q-44 0 -65 -45q-10 -19 -19.5 -67.5t-9.5 -73.5q0 -59 51 -59q45 0 66 43q9 20 19 68.5t10 73.5q0 60 -52 60z" />
    <glyph glyph-name="r" unicode="r" horiz-adv-x="401" 
d="M386 492q17 0 35 -4q9 -3 8 -12l-25 -137q-1 -10 -14 -7q-32 8 -54 8q-83 0 -101 -100l-19 -103q-1 -6 5 -6h33q10 0 8 -10l-19 -111q-2 -10 -12 -10h-234q-10 0 -8 10l19 111q2 10 12 10h29q5 0 7 6l38 213q2 6 -5 6h-29q-10 0 -8 10l19 111q2 10 12 10h185q10 0 8 -10
l-8 -46h1q44 61 117 61z" />
    <glyph glyph-name="s" unicode="s" horiz-adv-x="491" 
d="M293 499q109 0 182 -42q8 -5 7 -13l-18 -98q-2 -10 -11 -10h-119q-10 0 -8 10l4 24q2 7 -4 8q-20 6 -51 6q-29 0 -45 -10.5t-16 -27.5q0 -27 48 -32l51 -5q147 -16 147 -124q0 -91 -64.5 -144t-181.5 -53q-112 0 -196 41q-8 4 -7 14l20 110q2 10 11 10h121q10 0 8 -10
l-5 -30q-1 -7 6 -9q21 -7 60 -7q34 0 53 12t19 32q0 15 -11 22t-41 10l-52 6q-66 7 -102 40t-36 87q0 84 59 133.5t172 49.5z" />
    <glyph glyph-name="t" unicode="t" horiz-adv-x="330" 
d="M151 630h141q10 0 8 -10l-23 -127q-1 -6 4 -6h60q10 0 8 -10l-19 -111q-2 -10 -12 -10h-61q-5 0 -7 -6l-30 -159q-4 -18 -4 -30q0 -17 8.5 -23.5t29.5 -6.5h19q11 0 9 -10l-19 -114q-2 -10 -11 -10h-55q-77 0 -111.5 27.5t-34.5 87.5q0 32 7 66l32 172q2 6 -5 6h-27
q-10 0 -8 10l19 111q2 10 11 10h29q5 0 7 6l23 127q2 10 12 10z" />
    <glyph glyph-name="u" unicode="u" horiz-adv-x="554" 
d="M344 487h184q10 0 8 -10l-60 -340q-2 -6 5 -6h29q10 0 8 -10l-19 -111q-2 -10 -12 -10h-186q-10 0 -8 10l6 37h-1q-49 -59 -131 -59q-127 0 -127 127q0 25 6 55l31 180q1 6 -5 6h-27q-10 0 -8 10l19 111q2 10 12 10h183q11 0 9 -10l-49 -274q-3 -13 -3 -27q0 -52 47 -52
q28 0 47 19t25 54l27 153q2 6 -5 6h-28q-10 0 -8 10l19 111q2 10 12 10z" />
    <glyph glyph-name="v" unicode="v" horiz-adv-x="510" 
d="M334 487h208q10 0 8 -10l-19 -111q-2 -10 -12 -10h-22q-5 0 -8 -6l-181 -340q-6 -10 -17 -10h-145q-9 0 -11 10l-60 341q-1 5 -6 5h-28q-10 0 -8 10l19 111q2 10 12 10h207q10 0 8 -10l-19 -111q-2 -10 -12 -10h-19q-7 0 -6 -7l26 -172h2l84 172q3 7 -4 7h-20
q-10 0 -8 10l19 111q2 10 12 10z" />
    <glyph glyph-name="w" unicode="w" horiz-adv-x="742" 
d="M561 487h209q10 0 8 -10l-19 -111q-2 -10 -11 -10h-24q-5 0 -8 -6l-171 -340q-4 -10 -12 -10h-114q-9 0 -10 10l-26 259h-2l-119 -259q-4 -10 -15 -10h-112q-10 0 -11 10l-50 340q-1 6 -7 6h-28q-10 0 -8 10l19 111q2 10 11 10h207q10 0 8 -10l-19 -111q-2 -10 -12 -10
h-22q-6 0 -6 -7l14 -142h2l120 270q4 10 15 10h95q10 0 11 -10l26 -271h1l63 143q4 7 -4 7h-22q-10 0 -8 10l19 111q2 10 12 10z" />
    <glyph glyph-name="x" unicode="x" horiz-adv-x="496" 
d="M380 487h127q10 0 8 -10l-19 -111q-2 -10 -12 -10h-49q-7 0 -12 -6l-79 -98l54 -115q4 -6 11 -6h51q10 0 8 -10l-19 -111q-2 -10 -11 -10h-126q-10 0 -14 9l-58 124h-2l-100 -125q-7 -8 -16 -8h-131q-10 0 -8 10l19 111q2 10 12 10h43q7 0 12 5l102 122l-43 92
q-2 6 -10 6h-52q-10 0 -8 10l19 111q2 10 11 10h125q11 0 14 -8l49 -106h2l86 106q7 8 16 8z" />
    <glyph glyph-name="y" unicode="y" horiz-adv-x="520" 
d="M337 487h208q10 0 8 -10l-19 -111q-2 -10 -11 -10h-23q-5 0 -9 -6l-237 -406q-42 -71 -83 -97.5t-109 -26.5h-38q-10 0 -8 10l20 114q2 10 12 10h25q45 0 66 44l17 34l-76 319q-1 5 -6 5h-29q-10 0 -8 10l19 111q2 10 11 10h208q10 0 8 -10l-19 -111q-2 -10 -12 -10h-18
q-8 0 -6 -7l28 -153h2l80 153q4 7 -4 7h-19q-10 0 -8 10l19 111q2 10 11 10z" />
    <glyph glyph-name="z" unicode="z" horiz-adv-x="471" 
d="M93 487h388q9 0 7 -10l-19 -106q-1 -8 -6 -13l-264 -231v-2h90q5 0 7 6l5 27q2 10 11 10h114q11 0 9 -10l-26 -148q-2 -10 -11 -10h-398q-10 0 -8 10l18 105q2 7 6 12l263 237v2h-78q-7 0 -8 -6l-5 -27q-2 -12 -11 -12h-112q-11 0 -9 10l26 146q1 10 11 10z" />
    <glyph glyph-name="braceleft" unicode="{" horiz-adv-x="354" 
d="M330 740h71q10 0 8 -10l-17 -100q-2 -10 -12 -10h-22q-42 0 -50 -45l-21 -117q-10 -56 -30 -84.5t-60 -43.5v-1q50 -21 50 -79q0 -17 -5 -49l-18 -103q-4 -20 -4 -30q0 -32 34 -32h22q11 0 9 -10l-18 -100q-2 -10 -11 -10h-71q-108 0 -108 90q0 16 3 35l24 141q3 16 3 30
q0 55 -55 56q-10 0 -8 10l18 104q2 10 12 10q68 0 82 84l24 139q23 125 150 125z" />
    <glyph glyph-name="bar" unicode="|" horiz-adv-x="330" 
d="M127 740h121q10 0 10 -10v-804q0 -10 -10 -10h-121q-10 0 -10 10v804q0 10 10 10z" />
    <glyph glyph-name="braceright" unicode="}" horiz-adv-x="354" 
d="M140 740h71q108 0 108 -91q0 -16 -3 -34l-22 -132q-4 -23 -4 -36q0 -55 54 -55q11 0 9 -10l-19 -104q-2 -10 -11 -10q-66 0 -82 -85l-25 -142q-23 -125 -150 -125h-71q-10 0 -8 10l17 100q2 10 12 10h23q41 0 49 45l21 120q10 56 30.5 84.5t60.5 43.5v1q-51 22 -51 80
q0 23 5 49l20 110q2 10 2 19q0 32 -33 32h-23q-11 0 -9 10l18 100q2 10 11 10z" />
    <glyph glyph-name="asciitilde" unicode="~" 
d="M192 366q49 0 100 -33q41 -25 64 -25q35 0 63 46q5 9 14 4l78 -50q9 -4 4 -14q-23 -49 -62 -79t-86 -30q-49 0 -100 32q-43 26 -63 26q-35 0 -64 -47q-5 -9 -14 -3l-78 49q-7 4 -4 14q23 49 62 79.5t86 30.5z" />
    <glyph glyph-name="uni00A0" unicode="&#xa0;" horiz-adv-x="231" 
 />
    <glyph glyph-name="exclamdown" unicode="&#xa1;" horiz-adv-x="305" 
d="M137 487h132q11 0 9 -10l-21 -123q-2 -10 -12 -10h-131q-11 0 -9 10l21 123q2 10 11 10zM118 279h102q9 0 7 -10l-57 -452q-2 -10 -11 -10h-147q-10 0 -8 10l103 452q2 10 11 10z" />
    <glyph glyph-name="cent" unicode="&#xa2;" 
d="M316 583h76q10 0 8 -10l-14 -78q74 -11 130 -50q7 -5 6 -14l-18 -108q-2 -10 -11 -10h-119q-10 0 -8 10l5 27q1 6 -5 9q-18 8 -42 8q-45 0 -67 -45q-11 -22 -20.5 -70t-9.5 -72q0 -59 54 -59q30 0 44 7q7 3 8 8l5 34q2 10 11 10h119q11 0 9 -10l-23 -127q-1 -8 -11 -13
q-69 -35 -146 -41l-13 -76q-2 -10 -12 -10h-76q-10 0 -8 10l14 81q-66 13 -102 57.5t-36 114.5q0 110 42 197q56 116 184 133l14 77q2 10 12 10z" />
    <glyph glyph-name="sterling" unicode="&#xa3;" 
d="M387 692q99 0 165 -49q7 -6 6 -14l-19 -113q-2 -10 -11 -10h-119q-10 0 -8 10l5 28q1 6 -4 9q-14 6 -30 6q-44 0 -55 -57l-17 -96q-2 -6 4 -6h122q10 0 8 -10l-16 -92q-2 -10 -11 -10h-122q-6 0 -7 -7l-10 -54q-11 -62 -45 -92l-1 -2h122q6 0 8 6l6 35q2 10 11 10h124
q10 0 8 -10l-29 -164q-2 -10 -11 -10h-423q-11 0 -9 10l20 112q2 10 9 15q21 17 31 33.5t16 46.5l12 65q1 6 -5 6h-32q-10 0 -8 10l16 92q2 10 11 10h32q7 0 8 6l15 86q17 98 78 149t155 51z" />
    <glyph glyph-name="currency" unicode="&#xa4;" 
d="M490 533l69 -83q5 -7 -3 -14l-72 -63q7 -21 7 -50q0 -69 -39 -132l48 -59q6 -6 -2 -14l-91 -76q-9 -7 -14 0l-46 56q-45 -20 -95 -20q-52 0 -85 20l-68 -59q-7 -7 -14 0l-69 83q-5 6 3 14l70 61q-6 24 -6 49q0 70 40 132l-48 61q-5 8 3 14l90 76q9 7 14 0l46 -58
q42 21 95 21q45 0 82 -20l71 61q8 8 14 0zM304 378q-42 0 -72 -35t-30 -79q0 -31 19 -51t50 -20q42 0 71.5 34t29.5 77q0 32 -18.5 53t-49.5 21z" />
    <glyph glyph-name="yen" unicode="&#xa5;" 
d="M387 680h210q10 0 8 -10l-20 -111q-2 -10 -11 -10h-19q-6 0 -11 -6l-117 -162l1 -1h71q10 0 8 -10l-10 -59q-2 -10 -11 -10h-113q-5 0 -7 -6l-5 -30q-1 -6 5 -6h112q10 0 8 -10l-11 -59q-2 -10 -11 -10h-113q-5 0 -7 -6l-7 -37q-1 -6 5 -6h51q10 0 8 -10l-19 -111
q-2 -10 -12 -10h-266q-10 0 -8 10l19 111q2 10 12 10h50q7 0 8 6l7 37q2 6 -5 6h-114q-9 0 -7 10l10 59q2 10 11 10h113q6 0 8 6l5 30q1 6 -5 6h-113q-9 0 -7 10l10 59q2 10 11 10h73l1 1l-60 162q-2 6 -8 6h-23q-10 0 -8 10l20 111q2 10 12 10h210q10 0 8 -10l-19 -111
q-2 -10 -12 -10h-29q-6 0 -5 -6l39 -133h3l85 132q5 7 -3 7h-28q-10 0 -8 10l19 111q2 10 11 10z" />
    <glyph glyph-name="brokenbar" unicode="&#xa6;" horiz-adv-x="330" 
d="M127 740h121q10 0 10 -10v-332q0 -10 -10 -10h-121q-10 0 -10 10v332q0 10 10 10zM127 272h121q10 0 10 -10v-336q0 -10 -10 -10h-121q-10 0 -10 10v336q0 10 10 10z" />
    <glyph glyph-name="section" unicode="&#xa7;" horiz-adv-x="510" 
d="M341 694q101 0 160 -45q7 -6 6 -15l-19 -109q-2 -10 -11 -10h-106q-10 0 -8 10l6 34q1 6 -4 9q-12 7 -36 7q-29 0 -45 -17t-16 -44q0 -40 79 -65q127 -38 127 -152q0 -60 -29 -110.5t-82 -81.5v-2q42 -31 42 -93q0 -92 -63.5 -148t-160.5 -56q-106 0 -165 41q-7 5 -6 14
l20 114q2 10 11 10h107q10 0 8 -10l-6 -34q-1 -6 4 -9q14 -7 39 -7q32 0 49 17t17 47q0 22 -18 37.5t-62 28.5q-127 38 -127 149q0 129 111 195v2q-41 34 -41 91q0 88 60 145t159 57zM276 326q-34 0 -56.5 -28t-22.5 -65q0 -26 14 -40.5t39 -14.5q34 0 56 28t22 65
q0 26 -13.5 40.5t-38.5 14.5z" />
    <glyph glyph-name="dieresis" unicode="&#xa8;" horiz-adv-x="475" 
d="M170 682h105q10 0 8 -10l-20 -106q-2 -10 -11 -10h-104q-11 0 -9 10l20 106q2 10 11 10zM369 682h104q10 0 8 -10l-19 -106q-2 -10 -11 -10h-105q-11 0 -9 10l20 106q2 10 12 10z" />
    <glyph glyph-name="copyright" unicode="&#xa9;" horiz-adv-x="795" 
d="M421 692q151 0 251.5 -101t100.5 -252t-100.5 -251.5t-251.5 -100.5t-252 100.5t-101 251.5t101 252t252 101zM421 611q-117 0 -193 -77t-76 -195q0 -117 76 -194t193 -77t192.5 77t75.5 194q0 118 -75.5 195t-192.5 77zM423 536q84 0 142 -37q9 -6 9 -15v-85
q0 -10 -10 -10h-85q-10 0 -10 10v21q0 4 -5 7q-16 7 -35 7q-42 0 -55 -36q-5 -17 -5 -57t5 -57q13 -36 54 -36q24 0 36 5q5 3 5 8v24q0 10 10 10h85q10 0 10 -10v-89q0 -9 -9 -14q-63 -37 -143 -37q-132 0 -169 111q-10 32 -10 85q0 50 10 83q18 55 63 83.5t107 28.5z" />
    <glyph glyph-name="ordfeminine" unicode="&#xaa;" horiz-adv-x="355" 
d="M258 689q64 0 94.5 -19.5t30.5 -60.5q0 -11 -3 -28l-18 -98q-2 -6 5 -6h9q10 0 8 -10l-11 -65q-2 -10 -12 -10h-106q-11 0 -9 10l3 14h-1q-30 -30 -83 -30q-35 0 -59 19t-24 55q0 51 39 80.5t103 29.5h45q5 0 7 6q3 11 3 18q0 20 -38 20q-8 0 -18 -2q-6 -1 -7 -6l-2 -10
q-2 -10 -11 -10h-79q-11 0 -9 10l11 60q2 10 9 12q55 21 123 21zM259 507h-37q-39 0 -39 -28q0 -21 28 -21q44 0 50 31l2 12q1 6 -4 6z" />
    <glyph glyph-name="guillemotleft" unicode="&#xab;" horiz-adv-x="569" 
d="M33 271l270 231q4 3 7 1.5t2 -6.5l-24 -137q-3 -12 -14 -22l-88 -78q-5 -4 -2 -8l61 -78q8 -11 6 -22l-21 -123q-1 -4 -4.5 -5t-6.5 3l-188 230q-6 8 2 14zM286 271l270 231q3 3 6.5 1t2.5 -6l-25 -137q-3 -12 -14 -22l-88 -78q-5 -4 -2 -8l61 -78q9 -10 6 -22l-21 -123
q-1 -4 -4.5 -5t-6.5 3l-187 230q-6 8 2 14z" />
    <glyph glyph-name="logicalnot" unicode="&#xac;" 
d="M59 343h441q10 0 10 -10v-245q0 -10 -10 -10h-119q-10 0 -10 10v115q0 6 -6 6h-306q-10 0 -10 10v114q0 10 10 10z" />
    <glyph glyph-name="uni00AD" unicode="&#xad;" horiz-adv-x="387" 
d="M71 338h291q10 0 8 -10l-21 -121q-2 -10 -12 -10h-291q-10 0 -8 10l21 121q2 10 12 10z" />
    <glyph glyph-name="registered" unicode="&#xae;" horiz-adv-x="439" 
d="M269 684q82 0 137.5 -55t55.5 -136q0 -82 -55.5 -137t-137.5 -55t-137.5 55t-55.5 137q0 81 55.5 136t137.5 55zM269 644q-65 0 -107 -42.5t-42 -108.5q0 -67 42 -109.5t107 -42.5t107 42.5t42 109.5q0 66 -42 108.5t-107 42.5zM186 600h97q40 0 61.5 -17t21.5 -48
q0 -40 -35 -57l15 -40q2 -5 7 -5h7q9 0 9 -8v-28q0 -9 -9 -9h-48q-7 0 -10 7l-27 74h-16q-5 0 -5 -5v-26q0 -5 5 -5h5q8 0 8 -8v-28q0 -9 -8 -9h-78q-8 0 -8 9v28q0 8 8 8h6q5 0 5 5v112q0 5 -5 5h-6q-8 0 -8 9v27q0 9 8 9zM283 554h-24q-5 0 -5 -5v-32q0 -4 5 -4h24
q26 0 26 20q0 21 -26 21z" />
    <glyph glyph-name="macron" unicode="&#xaf;" horiz-adv-x="475" 
d="M174 673h291q10 0 8 -10l-15 -87q-2 -10 -11 -10h-291q-10 0 -8 10l15 87q2 10 11 10z" />
    <glyph glyph-name="degree" unicode="&#xb0;" horiz-adv-x="407" 
d="M253 694q68 0 113 -45t45 -113q0 -67 -45 -112t-113 -45q-67 0 -112 45t-45 112t45 112.5t112 45.5zM253 600q-26 0 -43.5 -18t-17.5 -46t17.5 -45.5t43.5 -17.5q27 0 44.5 17.5t17.5 45.5q0 29 -17 46.5t-45 17.5z" />
    <glyph glyph-name="plusminus" unicode="&#xb1;" 
d="M229 641h119q10 0 10 -10v-147q0 -6 6 -6h145q10 0 10 -10v-115q0 -10 -10 -10h-145q-6 0 -6 -6v-147q0 -10 -10 -10h-119q-10 0 -10 10v147q0 6 -6 6h-145q-10 0 -10 10v115q0 10 10 10h145q6 0 6 6v147q0 10 10 10zM68 135h441q10 0 10 -10v-115q0 -10 -10 -10h-441
q-10 0 -10 10v115q0 10 10 10z" />
    <glyph glyph-name="twosuperior" unicode="&#xb2;" horiz-adv-x="354" 
d="M287 843q58 0 91.5 -27.5t33.5 -74.5q0 -72 -73 -130l-98 -82v-1h126q10 0 8 -10l-13 -78q-2 -10 -12 -10h-269q-10 0 -8 10l13 72q3 11 12 19l166 140q32 26 32 54q0 26 -31 26q-16 0 -26 -5q-6 -3 -7 -8l-5 -29q-2 -10 -11 -10h-80q-10 0 -8 10l15 88q1 8 9 12
q61 34 135 34z" />
    <glyph glyph-name="threesuperior" unicode="&#xb3;" horiz-adv-x="354" 
d="M283 843q62 0 95 -25.5t33 -68.5q0 -66 -61 -101v-2q36 -20 36 -69q0 -71 -48 -112.5t-122 -41.5q-81 0 -128 31q-9 4 -7 14l15 82q2 10 10 10h80q11 0 9 -10l-3 -21q-1 -6 5 -10q9 -4 26 -4q22 0 34.5 13t12.5 34q0 29 -36 29h-13q-10 0 -8 10l12 71q2 10 11 10h13
q18 0 30.5 11.5t12.5 30.5q0 27 -32 27q-17 0 -25 -5q-5 -2 -7 -9l-3 -18q-2 -10 -11 -10h-80q-11 0 -9 10l14 77q1 8 9 13q57 34 135 34z" />
    <glyph glyph-name="acute" unicode="&#xb4;" horiz-adv-x="475" 
d="M302 702h134q5 0 6 -3t-3 -7l-123 -136q-10 -10 -20 -10h-110q-4 0 -5.5 3t1.5 7l101 136q7 10 19 10z" />
    <glyph glyph-name="mu" unicode="&#xb5;" horiz-adv-x="555" 
d="M386 487h142q11 0 9 -10l-61 -340q-2 -6 5 -6h28q10 0 8 -10l-19 -111q-2 -10 -12 -10h-185q-11 0 -9 10l7 38h-1q-42 -52 -90 -52q-17 0 -30 9h-1l-30 -175q-2 -10 -10 -10h-143q-11 0 -9 10l114 647q2 10 12 10h142q9 0 7 -10l-49 -280q-2 -10 -2 -22q0 -51 46 -51
q57 0 70 73l49 280q2 10 12 10z" />
    <glyph glyph-name="paragraph" unicode="&#xb6;" horiz-adv-x="660" 
d="M369 680h344q10 0 8 -10l-20 -111q-2 -10 -11 -10h-34q-6 0 -7 -6l-126 -713q-2 -10 -11 -10h-110q-9 0 -7 10l126 714q1 6 -5 6h-68q-6 0 -7 -6l-125 -714q-2 -10 -11 -10h-110q-9 0 -7 10l67 388q-78 5 -123.5 54.5t-45.5 128.5q0 118 81 198.5t202 80.5z" />
    <glyph glyph-name="periodcentered" unicode="&#xb7;" horiz-adv-x="245" 
d="M78 342h134q11 0 9 -10l-24 -134q-2 -10 -11 -10h-133q-11 0 -9 10l23 134q2 10 11 10z" />
    <glyph glyph-name="cedilla" unicode="&#xb8;" horiz-adv-x="475" 
d="M189 10h96q11 0 6 -10l-73 -155q-4 -10 -17 -10h-111q-10 0 -5 10l88 155q6 10 16 10z" />
    <glyph glyph-name="onesuperior" unicode="&#xb9;" horiz-adv-x="354" 
d="M257 836h95q11 0 9 -10l-51 -288q-2 -6 5 -6h59q10 0 8 -10l-15 -82q-2 -10 -11 -10h-249q-10 0 -8 10l14 82q2 10 11 10h59q7 0 8 6l31 176h-2l-70 -38q-4 -2 -7 0t-2 6l17 94q1 9 11 15l66 39q12 6 22 6z" />
    <glyph glyph-name="ordmasculine" unicode="&#xba;" horiz-adv-x="375" 
d="M272 689q59 0 94 -30t35 -84q0 -59 -24 -107q-42 -85 -158 -85q-60 0 -94.5 29.5t-34.5 84.5q0 61 23 107q42 85 159 85zM257 601q-29 0 -42 -26q-13 -30 -13 -67t31 -37q29 0 42 26q14 28 14 67q0 37 -32 37z" />
    <glyph glyph-name="guillemotright" unicode="&#xbb;" horiz-adv-x="569" 
d="M117 501l187 -230q6 -8 -2 -14l-270 -231q-3 -3 -6.5 -1t-2.5 6l25 137q3 13 13 22l89 78q5 4 2 8l-61 78q-9 10 -6 22l21 123q1 4 4.5 5t6.5 -3zM369 501l187 -230q6 -8 -2 -14l-269 -231q-4 -3 -7 -1.5t-2 6.5l24 137q3 12 14 22l88 78q5 4 2 8l-61 78q-8 11 -6 22
l21 123q1 4 4.5 5t6.5 -3z" />
    <glyph glyph-name="onequarter" unicode="&#xbc;" horiz-adv-x="895" 
d="M705 692h98q9 0 3 -10l-502 -684q-7 -10 -18 -10h-97q-11 0 -3 10l502 684q7 10 17 10zM230 680h95q11 0 9 -10l-51 -288q-1 -6 5 -6h59q10 0 8 -10l-15 -82q-2 -10 -11 -10h-249q-10 0 -8 10l14 82q2 10 11 10h59q7 0 8 6l31 176h-2l-70 -38q-4 -2 -7 0t-2 6l17 94
q1 9 11 15l66 39q12 6 22 6zM720 406h101q4 0 5.5 -3t-0.5 -7l-149 -243v-2h47q6 0 7 6l11 58q2 10 11 10h88q10 0 8 -10l-10 -58q-1 -6 4 -6h15q9 0 7 -10l-14 -77q-2 -10 -11 -10h-13q-5 0 -7 -6l-7 -38q-2 -10 -11 -10h-90q-9 0 -7 10l7 38q2 6 -5 6h-162q-10 0 -8 10
l14 81q1 8 9 19l144 232q6 10 16 10z" />
    <glyph glyph-name="onehalf" unicode="&#xbd;" horiz-adv-x="945" 
d="M705 692h98q9 0 3 -10l-502 -684q-7 -10 -18 -10h-97q-11 0 -3 10l502 684q7 10 17 10zM230 680h95q11 0 9 -10l-51 -288q-1 -6 5 -6h59q10 0 8 -10l-15 -82q-2 -10 -11 -10h-249q-10 0 -8 10l14 82q2 10 11 10h59q7 0 8 6l31 176h-2l-70 -38q-4 -2 -7 0t-2 6l17 94
q1 9 11 15l66 39q12 6 22 6zM803 413q58 0 91.5 -27.5t33.5 -74.5q0 -72 -73 -130l-98 -82v-1h126q10 0 8 -10l-13 -78q-2 -10 -12 -10h-269q-10 0 -8 10l13 72q3 11 12 19l166 140q32 26 32 54q0 26 -31 26q-16 0 -26 -5q-6 -3 -7 -8l-5 -29q-2 -10 -11 -10h-80
q-10 0 -8 10l15 88q1 8 9 12q61 34 135 34z" />
    <glyph glyph-name="threequarters" unicode="&#xbe;" horiz-adv-x="895" 
d="M705 692h98q9 0 3 -10l-502 -684q-7 -10 -18 -10h-97q-11 0 -3 10l502 684q7 10 17 10zM256 687q62 0 95 -25.5t33 -68.5q0 -66 -61 -101v-2q36 -20 36 -69q0 -71 -48 -112.5t-122 -41.5q-81 0 -128 31q-9 4 -7 14l15 82q2 10 10 10h80q11 0 9 -10l-3 -21q-1 -6 5 -10
q9 -4 26 -4q22 0 34.5 13t12.5 34q0 29 -36 29h-13q-10 0 -8 10l12 71q2 10 11 10h13q18 0 30.5 11.5t12.5 30.5q0 27 -32 27q-17 0 -25 -5q-5 -2 -7 -9l-3 -18q-2 -10 -11 -10h-80q-11 0 -9 10l14 77q1 8 9 13q57 34 135 34zM720 406h101q4 0 5.5 -3t-0.5 -7l-149 -243v-2
h47q6 0 7 6l11 58q2 10 11 10h88q10 0 8 -10l-10 -58q-1 -6 4 -6h15q9 0 7 -10l-14 -77q-2 -10 -11 -10h-13q-5 0 -7 -6l-7 -38q-2 -10 -11 -10h-90q-9 0 -7 10l7 38q2 6 -5 6h-162q-10 0 -8 10l14 81q1 8 9 19l144 232q6 10 16 10z" />
    <glyph glyph-name="questiondown" unicode="&#xbf;" horiz-adv-x="481" 
d="M226 487h132q11 0 9 -10l-21 -123q-2 -10 -11 -10h-134q-10 0 -8 10l22 123q2 10 11 10zM192 279h130q11 0 9 -10l-8 -41q-9 -48 -46 -85l-69 -70q-35 -35 -47 -54.5t-12 -41.5q0 -47 52 -47q27 0 48 10q6 3 7 8l9 51q2 10 11 10h122q11 0 9 -10l-24 -137q-1 -9 -10 -14
q-89 -53 -197 -53q-90 0 -138.5 43.5t-48.5 112.5q0 49 23 90t73 89l60 60q24 24 32 61l4 18q2 10 11 10z" />
    <glyph glyph-name="Agrave" unicode="&#xc0;" horiz-adv-x="661" 
d="M270 889h129q12 0 19 -10l78 -122q2 -4 0 -7t-6 -3h-106q-9 0 -18 10l-101 122q-3 4 -1.5 7t6.5 3zM323 680h186q9 0 11 -10l76 -533q1 -6 7 -6h28q10 0 8 -10l-19 -111q-2 -10 -12 -10h-231q-10 0 -8 10l19 111q2 10 12 10h31q6 0 6 6l-8 62h-191l-29 -62q-3 -6 3 -6h32
q10 0 8 -10l-19 -111q-2 -10 -12 -10h-241q-10 0 -8 10l20 111q2 10 11 10h30q5 0 8 5l268 534q5 10 14 10zM388 516l-86 -182h111l-22 182h-3z" />
    <glyph glyph-name="Aacute" unicode="&#xc1;" horiz-adv-x="661" 
d="M488 889h135q5 0 6.5 -3t-2.5 -7l-145 -122q-11 -10 -22 -10h-109q-5 0 -6 3t2 7l119 122q10 10 22 10zM323 680h186q9 0 11 -10l76 -533q1 -6 7 -6h28q10 0 8 -10l-19 -111q-2 -10 -12 -10h-231q-10 0 -8 10l19 111q2 10 12 10h31q6 0 6 6l-8 62h-191l-29 -62
q-3 -6 3 -6h32q10 0 8 -10l-19 -111q-2 -10 -12 -10h-241q-10 0 -8 10l20 111q2 10 11 10h30q5 0 8 5l268 534q5 10 14 10zM388 516l-86 -182h111l-22 182h-3z" />
    <glyph glyph-name="Acircumflex" unicode="&#xc2;" horiz-adv-x="661" 
d="M406 898h87q11 0 17 -10l80 -136q2 -4 0 -7t-6 -3h-87q-11 0 -19 10l-39 51h-1l-58 -51q-10 -10 -24 -10h-95q-5 0 -6 3t3 7l128 136q9 10 20 10zM323 680h186q9 0 11 -10l76 -533q1 -6 7 -6h28q10 0 8 -10l-19 -111q-2 -10 -12 -10h-231q-10 0 -8 10l19 111q2 10 12 10
h31q6 0 6 6l-8 62h-191l-29 -62q-3 -6 3 -6h32q10 0 8 -10l-19 -111q-2 -10 -12 -10h-241q-10 0 -8 10l20 111q2 10 11 10h30q5 0 8 5l268 534q5 10 14 10zM388 516l-86 -182h111l-22 182h-3z" />
    <glyph glyph-name="Atilde" unicode="&#xc3;" horiz-adv-x="661" 
d="M381 891q36 0 78 -24q27 -17 54 -17q37 0 78 32q4 3 7.5 1.5t2.5 -5.5l-14 -79q-2 -12 -13 -21q-41 -36 -84 -36q-39 0 -78 24q-29 17 -54 17q-37 0 -78 -32q-4 -3 -7.5 -1.5t-2.5 5.5l14 78q2 13 13 22q43 36 84 36zM323 680h186q9 0 11 -10l76 -533q1 -6 7 -6h28
q10 0 8 -10l-19 -111q-2 -10 -12 -10h-231q-10 0 -8 10l19 111q2 10 12 10h31q6 0 6 6l-8 62h-191l-29 -62q-3 -6 3 -6h32q10 0 8 -10l-19 -111q-2 -10 -12 -10h-241q-10 0 -8 10l20 111q2 10 11 10h30q5 0 8 5l268 534q5 10 14 10zM388 516l-86 -182h111l-22 182h-3z" />
    <glyph glyph-name="Adieresis" unicode="&#xc4;" horiz-adv-x="661" 
d="M297 879h104q10 0 8 -10l-19 -107q-2 -10 -11 -10h-105q-11 0 -9 10l20 107q2 10 12 10zM495 879h104q10 0 8 -10l-19 -107q-2 -10 -11 -10h-105q-10 0 -8 10l19 107q2 10 12 10zM323 680h186q9 0 11 -10l76 -533q1 -6 7 -6h28q10 0 8 -10l-19 -111q-2 -10 -12 -10h-231
q-10 0 -8 10l19 111q2 10 12 10h31q6 0 6 6l-8 62h-191l-29 -62q-3 -6 3 -6h32q10 0 8 -10l-19 -111q-2 -10 -12 -10h-241q-10 0 -8 10l20 111q2 10 11 10h30q5 0 8 5l268 534q5 10 14 10zM388 516l-86 -182h111l-22 182h-3z" />
    <glyph glyph-name="Aring" unicode="&#xc5;" horiz-adv-x="661" 
d="M454 930q42 0 68.5 -25t26.5 -65q0 -56 -37 -95t-95 -39q-42 0 -68.5 25t-26.5 65q0 56 37 95t95 39zM444 864q-21 0 -36 -16t-15 -40q0 -16 9 -26t25 -10q21 0 36 16.5t15 40.5q0 15 -9.5 25t-24.5 10zM323 680h186q9 0 11 -10l76 -533q1 -6 7 -6h28q10 0 8 -10
l-19 -111q-2 -10 -12 -10h-231q-10 0 -8 10l19 111q2 10 12 10h31q6 0 6 6l-8 62h-191l-29 -62q-3 -6 3 -6h32q10 0 8 -10l-19 -111q-2 -10 -12 -10h-241q-10 0 -8 10l20 111q2 10 11 10h30q5 0 8 5l268 534q5 10 14 10zM388 516l-86 -182h111l-22 182h-3z" />
    <glyph glyph-name="AE" unicode="&#xc6;" horiz-adv-x="897" 
d="M394 680h542q11 0 9 -10l-29 -164q-2 -10 -10 -10h-124q-11 0 -9 10l6 35q1 6 -4 6h-123q-6 0 -7 -6l-22 -125q-1 -6 5 -6h74q6 0 8 6l3 21q2 10 11 10h118q10 0 8 -10l-33 -188q-2 -10 -10 -10h-118q-11 0 -9 10l4 22q2 6 -4 6h-76q-6 0 -7 -6l-23 -132q-2 -6 5 -6h122
q5 0 7 6l7 39q2 10 11 10h124q10 0 8 -10l-29 -168q-2 -10 -11 -10h-424q-11 0 -9 10l28 159q1 6 -5 6h-163l-23 -38q-3 -6 4 -6h20q10 0 8 -10l-19 -111q-2 -10 -12 -10h-243q-10 0 -8 10l19 111q2 10 11 10h29q5 0 9 5l340 534q7 10 14 10zM474 543l-142 -229h101q5 0 7 6
l39 223h-5z" />
    <glyph glyph-name="Ccedilla" unicode="&#xc7;" horiz-adv-x="563" 
d="M381 692q68 0 125 -17t85 -39q8 -7 7 -17l-25 -146q-2 -10 -11 -10h-127q-10 0 -8 10l8 49q2 8 -5 11q-22 11 -64 11q-69 0 -99 -64q-14 -31 -32.5 -128t-18.5 -136q0 -80 86 -80q36 0 60 11q7 4 8 9l10 52q2 10 11 10h127q10 0 8 -10l-28 -160q-1 -8 -10 -13
q-74 -40 -171 -46l-68 -144q-4 -10 -17 -10h-111q-10 0 -5 10l85 150q-156 31 -156 204q0 57 21 168.5t47 166.5q41 82 104.5 120t163.5 38z" />
    <glyph glyph-name="Egrave" unicode="&#xc8;" horiz-adv-x="548" 
d="M218 889h129q12 0 19 -10l78 -122q2 -4 0 -7t-6 -3h-106q-9 0 -18 10l-101 122q-3 4 -1.5 7t6.5 3zM114 680h474q10 0 8 -10l-29 -164q-2 -10 -11 -10h-124q-10 0 -8 10l6 35q2 6 -4 6h-124q-4 0 -6 -6l-22 -125q-2 -6 4 -6h75q5 0 7 6l4 21q2 10 11 10h118q10 0 8 -10
l-33 -188q-2 -10 -11 -10h-118q-10 0 -8 10l4 22q1 6 -4 6h-77q-4 0 -6 -6l-24 -132q-2 -6 5 -6h123q6 0 7 6l7 39q2 10 11 10h124q10 0 8 -10l-29 -168q-2 -10 -11 -10h-475q-10 0 -8 10l19 111q2 10 12 10h33q6 0 8 6l72 406q2 6 -5 6h-34q-10 0 -8 10l19 111q2 10 12 10z
" />
    <glyph glyph-name="Eacute" unicode="&#xc9;" horiz-adv-x="548" 
d="M423 889h135q5 0 6.5 -3t-2.5 -7l-145 -122q-11 -10 -22 -10h-109q-4 0 -5.5 3t1.5 7l119 122q10 10 22 10zM114 680h474q10 0 8 -10l-29 -164q-2 -10 -11 -10h-124q-10 0 -8 10l6 35q2 6 -4 6h-124q-4 0 -6 -6l-22 -125q-2 -6 4 -6h75q5 0 7 6l4 21q2 10 11 10h118
q10 0 8 -10l-33 -188q-2 -10 -11 -10h-118q-10 0 -8 10l4 22q1 6 -4 6h-77q-4 0 -6 -6l-24 -132q-2 -6 5 -6h123q6 0 7 6l7 39q2 10 11 10h124q10 0 8 -10l-29 -168q-2 -10 -11 -10h-475q-10 0 -8 10l19 111q2 10 12 10h33q6 0 8 6l72 406q2 6 -5 6h-34q-10 0 -8 10l19 111
q2 10 12 10z" />
    <glyph glyph-name="Ecircumflex" unicode="&#xca;" horiz-adv-x="548" 
d="M353 898h87q11 0 17 -10l80 -136q2 -4 0.5 -7t-6.5 -3h-87q-12 0 -19 10l-39 51h-1l-58 -51q-10 -10 -24 -10h-95q-5 0 -6 3t3 7l128 136q9 10 20 10zM114 680h474q10 0 8 -10l-29 -164q-2 -10 -11 -10h-124q-10 0 -8 10l6 35q2 6 -4 6h-124q-4 0 -6 -6l-22 -125
q-2 -6 4 -6h75q5 0 7 6l4 21q2 10 11 10h118q10 0 8 -10l-33 -188q-2 -10 -11 -10h-118q-10 0 -8 10l4 22q1 6 -4 6h-77q-4 0 -6 -6l-24 -132q-2 -6 5 -6h123q6 0 7 6l7 39q2 10 11 10h124q10 0 8 -10l-29 -168q-2 -10 -11 -10h-475q-10 0 -8 10l19 111q2 10 12 10h33
q6 0 8 6l72 406q2 6 -5 6h-34q-10 0 -8 10l19 111q2 10 12 10z" />
    <glyph glyph-name="Edieresis" unicode="&#xcb;" horiz-adv-x="548" 
d="M245 879h104q10 0 8 -10l-19 -107q-2 -10 -11 -10h-105q-11 0 -9 10l20 107q2 10 12 10zM443 879h104q10 0 8 -10l-19 -107q-2 -10 -11 -10h-105q-10 0 -8 10l19 107q2 10 12 10zM114 680h474q10 0 8 -10l-29 -164q-2 -10 -11 -10h-124q-10 0 -8 10l6 35q2 6 -4 6h-124
q-4 0 -6 -6l-22 -125q-2 -6 4 -6h75q5 0 7 6l4 21q2 10 11 10h118q10 0 8 -10l-33 -188q-2 -10 -11 -10h-118q-10 0 -8 10l4 22q1 6 -4 6h-77q-4 0 -6 -6l-24 -132q-2 -6 5 -6h123q6 0 7 6l7 39q2 10 11 10h124q10 0 8 -10l-29 -168q-2 -10 -11 -10h-475q-10 0 -8 10l19 111
q2 10 12 10h33q6 0 8 6l72 406q2 6 -5 6h-34q-10 0 -8 10l19 111q2 10 12 10z" />
    <glyph glyph-name="Igrave" unicode="&#xcc;" horiz-adv-x="307" 
d="M85 889h129q12 0 19 -10l78 -122q2 -4 0.5 -7t-6.5 -3h-106q-9 0 -18 10l-101 122q-3 4 -1.5 7t6.5 3zM114 680h247q10 0 8 -10l-19 -111q-2 -10 -12 -10h-33q-7 0 -8 -6l-72 -406q-1 -6 5 -6h34q10 0 8 -10l-19 -111q-2 -10 -12 -10h-247q-10 0 -8 10l19 111q2 10 12 10
h33q6 0 8 6l72 406q2 6 -5 6h-34q-10 0 -8 10l19 111q2 10 12 10z" />
    <glyph glyph-name="Iacute" unicode="&#xcd;" horiz-adv-x="307" 
d="M323 889h135q5 0 6.5 -3t-2.5 -7l-145 -122q-11 -10 -22 -10h-109q-4 0 -5.5 3t1.5 7l119 122q10 10 22 10zM114 680h247q10 0 8 -10l-19 -111q-2 -10 -12 -10h-33q-7 0 -8 -6l-72 -406q-1 -6 5 -6h34q10 0 8 -10l-19 -111q-2 -10 -12 -10h-247q-10 0 -8 10l19 111
q2 10 12 10h33q6 0 8 6l72 406q2 6 -5 6h-34q-10 0 -8 10l19 111q2 10 12 10z" />
    <glyph glyph-name="Icircumflex" unicode="&#xce;" horiz-adv-x="307" 
d="M232 898h87q11 0 17 -10l80 -136q2 -4 0 -7t-6 -3h-87q-11 0 -19 10l-39 51h-1l-58 -51q-10 -10 -24 -10h-95q-5 0 -6 3t3 7l128 136q9 10 20 10zM114 680h247q10 0 8 -10l-19 -111q-2 -10 -12 -10h-33q-7 0 -8 -6l-72 -406q-1 -6 5 -6h34q10 0 8 -10l-19 -111
q-2 -10 -12 -10h-247q-10 0 -8 10l19 111q2 10 12 10h33q6 0 8 6l72 406q2 6 -5 6h-34q-10 0 -8 10l19 111q2 10 12 10z" />
    <glyph glyph-name="Idieresis" unicode="&#xcf;" horiz-adv-x="307" 
d="M121 879h104q10 0 8 -10l-19 -107q-2 -10 -11 -10h-105q-11 0 -9 10l20 107q2 10 12 10zM319 879h104q10 0 8 -10l-19 -107q-2 -10 -11 -10h-105q-10 0 -8 10l19 107q2 10 12 10zM114 680h247q10 0 8 -10l-19 -111q-2 -10 -12 -10h-33q-7 0 -8 -6l-72 -406q-1 -6 5 -6h34
q10 0 8 -10l-19 -111q-2 -10 -12 -10h-247q-10 0 -8 10l19 111q2 10 12 10h33q6 0 8 6l72 406q2 6 -5 6h-34q-10 0 -8 10l19 111q2 10 12 10z" />
    <glyph glyph-name="Eth" unicode="&#xd0;" horiz-adv-x="623" 
d="M114 680h297q208 0 208 -199q0 -66 -19.5 -172t-46.5 -161q-39 -80 -103.5 -114t-157.5 -34h-298q-10 0 -8 10l19 111q2 10 12 10h33q6 0 8 6l25 143q1 6 -5 6h-25q-10 0 -8 10l16 95q2 10 12 10h26q5 0 7 6l24 136q2 6 -5 6h-34q-10 0 -8 10l19 111q2 10 12 10zM350 530
h-49q-5 0 -7 -6l-21 -117q-1 -6 4 -6h68q10 0 8 -10l-16 -95q-2 -10 -11 -10h-68q-6 0 -7 -6l-22 -124q-1 -6 4 -6h53q45 0 72.5 15.5t45.5 51.5q15 30 29.5 108.5t14.5 116.5q0 46 -23 67t-75 21z" />
    <glyph glyph-name="Ntilde" unicode="&#xd1;" horiz-adv-x="660" 
d="M376 891q36 0 78 -24q27 -17 54 -17q37 0 78 32q4 3 7.5 1.5t2.5 -5.5l-14 -79q-2 -12 -13 -21q-41 -36 -84 -36q-39 0 -78 24q-29 17 -54 17q-37 0 -78 -32q-4 -3 -7.5 -1.5t-2.5 5.5l14 78q2 13 13 22q43 36 84 36zM481 680h233q10 0 8 -10l-19 -111q-2 -10 -11 -10
h-35q-5 0 -7 -6l-95 -533q-2 -10 -11 -10h-142q-10 0 -14 10l-126 393h-4l-47 -266q-1 -6 4 -6h35q10 0 8 -10l-19 -111q-2 -10 -12 -10h-233q-10 0 -8 10l19 111q2 10 12 10h33q6 0 8 6l72 406q2 6 -5 6h-34q-10 0 -8 10l19 111q2 10 12 10h190q12 0 15 -10l127 -394h4
l47 267q1 6 -5 6h-34q-10 0 -8 10l19 111q2 10 12 10z" />
    <glyph glyph-name="Ograve" unicode="&#xd2;" horiz-adv-x="604" 
d="M233 889h129q12 0 19 -10l78 -122q2 -4 0.5 -7t-6.5 -3h-106q-9 0 -18 10l-101 122q-3 4 -1.5 7t6.5 3zM381 692q104 0 165 -55t61 -159q0 -57 -20.5 -168t-46.5 -163q-79 -159 -269 -159q-104 0 -165 55t-61 159q0 57 20.5 168t46.5 163q77 159 269 159zM361 541
q-65 0 -96 -65q-14 -28 -31.5 -123t-17.5 -135q0 -37 19.5 -58t55.5 -21q65 0 96 65q14 28 31.5 123t17.5 135q0 37 -19.5 58t-55.5 21z" />
    <glyph glyph-name="Oacute" unicode="&#xd3;" horiz-adv-x="604" 
d="M469 889h135q5 0 6.5 -3t-2.5 -7l-145 -122q-11 -10 -22 -10h-109q-4 0 -5.5 3t1.5 7l119 122q10 10 22 10zM381 692q104 0 165 -55t61 -159q0 -57 -20.5 -168t-46.5 -163q-79 -159 -269 -159q-104 0 -165 55t-61 159q0 57 20.5 168t46.5 163q77 159 269 159zM361 541
q-65 0 -96 -65q-14 -28 -31.5 -123t-17.5 -135q0 -37 19.5 -58t55.5 -21q65 0 96 65q14 28 31.5 123t17.5 135q0 37 -19.5 58t-55.5 21z" />
    <glyph glyph-name="Ocircumflex" unicode="&#xd4;" horiz-adv-x="604" 
d="M381 898h87q11 0 17 -10l80 -136q2 -4 0.5 -7t-6.5 -3h-87q-12 0 -19 10l-39 51h-1l-58 -51q-10 -10 -24 -10h-95q-5 0 -6 3t3 7l128 136q9 10 20 10zM381 692q104 0 165 -55t61 -159q0 -57 -20.5 -168t-46.5 -163q-79 -159 -269 -159q-104 0 -165 55t-61 159
q0 57 20.5 168t46.5 163q77 159 269 159zM361 541q-65 0 -96 -65q-14 -28 -31.5 -123t-17.5 -135q0 -37 19.5 -58t55.5 -21q65 0 96 65q14 28 31.5 123t17.5 135q0 37 -19.5 58t-55.5 21z" />
    <glyph glyph-name="Otilde" unicode="&#xd5;" horiz-adv-x="604" 
d="M347 891q36 0 78 -24q27 -17 54 -17q37 0 78 32q4 3 7.5 1.5t2.5 -5.5l-14 -79q-2 -12 -13 -21q-41 -36 -84 -36q-39 0 -78 24q-29 17 -54 17q-37 0 -78 -32q-4 -3 -7.5 -1.5t-2.5 5.5l14 78q2 13 13 22q43 36 84 36zM381 692q104 0 165 -55t61 -159q0 -57 -20.5 -168
t-46.5 -163q-79 -159 -269 -159q-104 0 -165 55t-61 159q0 57 20.5 168t46.5 163q77 159 269 159zM361 541q-65 0 -96 -65q-14 -28 -31.5 -123t-17.5 -135q0 -37 19.5 -58t55.5 -21q65 0 96 65q14 28 31.5 123t17.5 135q0 37 -19.5 58t-55.5 21z" />
    <glyph glyph-name="Odieresis" unicode="&#xd6;" horiz-adv-x="604" 
d="M262 879h104q10 0 8 -10l-19 -107q-2 -10 -11 -10h-105q-11 0 -9 10l20 107q2 10 12 10zM460 879h104q10 0 8 -10l-19 -107q-2 -10 -11 -10h-105q-10 0 -8 10l19 107q2 10 12 10zM381 692q104 0 165 -55t61 -159q0 -57 -20.5 -168t-46.5 -163q-79 -159 -269 -159
q-104 0 -165 55t-61 159q0 57 20.5 168t46.5 163q77 159 269 159zM361 541q-65 0 -96 -65q-14 -28 -31.5 -123t-17.5 -135q0 -37 19.5 -58t55.5 -21q65 0 96 65q14 28 31.5 123t17.5 135q0 37 -19.5 58t-55.5 21z" />
    <glyph glyph-name="multiply" unicode="&#xd7;" 
d="M417 490l77 -77q6 -8 0 -14l-118 -118q-5 -5 0 -8l118 -118q7 -7 0 -14l-78 -79q-7 -7 -14 0l-119 118q-4 4 -8 0l-118 -118q-7 -7 -14 0l-77 78q-7 7 0 14l117 117q5 5 0 9l-117 117q-7 7 0 14l79 79q7 7 14 0l117 -118q4 -3 9 0l118 118q7 7 14 0z" />
    <glyph glyph-name="Oslash" unicode="&#xd8;" horiz-adv-x="604" 
d="M569 710h97q10 0 4 -10l-89 -109q26 -47 26 -113q0 -57 -20.5 -168t-46.5 -163q-79 -159 -269 -159q-83 0 -138 34l-34 -42q-8 -10 -18 -10h-96q-11 0 -3 10l88 109q-25 48 -25 113q0 57 20.5 168t46.5 163q77 159 269 159q81 0 137 -34l34 42q9 10 17 10zM361 541
q-65 0 -96 -65q-14 -28 -31.5 -123t-17.5 -135q0 -37 19.5 -58t55.5 -21q65 0 96 65q14 28 31.5 123t17.5 135q0 37 -19.5 58t-55.5 21z" />
    <glyph glyph-name="Ugrave" unicode="&#xd9;" horiz-adv-x="644" 
d="M249 889h129q12 0 19 -10l78 -122q2 -4 0.5 -7t-6.5 -3h-106q-9 0 -18 10l-101 122q-3 4 -1.5 7t6.5 3zM455 680h248q10 0 8 -10l-19 -111q-2 -10 -12 -10h-34q-6 0 -7 -6l-50 -284q-26 -145 -97 -208t-194 -63q-109 0 -169.5 53t-60.5 154q0 31 6 69l50 279q2 6 -4 6
h-35q-10 0 -8 10l19 111q2 10 12 10h247q10 0 8 -10l-19 -111q-2 -10 -11 -10h-34q-7 0 -8 -6l-51 -291q-3 -18 -3 -32q0 -38 19.5 -59t56.5 -21q44 0 70.5 26t37.5 86l51 291q2 6 -4 6h-35q-10 0 -8 10l19 111q2 10 11 10z" />
    <glyph glyph-name="Uacute" unicode="&#xda;" horiz-adv-x="644" 
d="M490 889h135q5 0 6.5 -3t-2.5 -7l-145 -122q-11 -10 -22 -10h-109q-5 0 -6 3t2 7l119 122q10 10 22 10zM455 680h248q10 0 8 -10l-19 -111q-2 -10 -12 -10h-34q-6 0 -7 -6l-50 -284q-26 -145 -97 -208t-194 -63q-109 0 -169.5 53t-60.5 154q0 31 6 69l50 279q2 6 -4 6
h-35q-10 0 -8 10l19 111q2 10 12 10h247q10 0 8 -10l-19 -111q-2 -10 -11 -10h-34q-7 0 -8 -6l-51 -291q-3 -18 -3 -32q0 -38 19.5 -59t56.5 -21q44 0 70.5 26t37.5 86l51 291q2 6 -4 6h-35q-10 0 -8 10l19 111q2 10 11 10z" />
    <glyph glyph-name="Ucircumflex" unicode="&#xdb;" horiz-adv-x="644" 
d="M402 898h87q11 0 17 -10l80 -136q2 -4 0 -7t-6 -3h-87q-11 0 -19 10l-39 51h-1l-58 -51q-10 -10 -24 -10h-95q-5 0 -6 3t3 7l128 136q9 10 20 10zM455 680h248q10 0 8 -10l-19 -111q-2 -10 -12 -10h-34q-6 0 -7 -6l-50 -284q-26 -145 -97 -208t-194 -63q-109 0 -169.5 53
t-60.5 154q0 31 6 69l50 279q2 6 -4 6h-35q-10 0 -8 10l19 111q2 10 12 10h247q10 0 8 -10l-19 -111q-2 -10 -11 -10h-34q-7 0 -8 -6l-51 -291q-3 -18 -3 -32q0 -38 19.5 -59t56.5 -21q44 0 70.5 26t37.5 86l51 291q2 6 -4 6h-35q-10 0 -8 10l19 111q2 10 11 10z" />
    <glyph glyph-name="Udieresis" unicode="&#xdc;" horiz-adv-x="644" 
d="M291 879h104q10 0 8 -10l-19 -107q-2 -10 -11 -10h-105q-11 0 -9 10l20 107q2 10 12 10zM489 879h104q10 0 8 -10l-19 -107q-2 -10 -11 -10h-105q-10 0 -8 10l19 107q2 10 12 10zM455 680h248q10 0 8 -10l-19 -111q-2 -10 -12 -10h-34q-6 0 -7 -6l-50 -284
q-26 -145 -97 -208t-194 -63q-109 0 -169.5 53t-60.5 154q0 31 6 69l50 279q2 6 -4 6h-35q-10 0 -8 10l19 111q2 10 12 10h247q10 0 8 -10l-19 -111q-2 -10 -11 -10h-34q-7 0 -8 -6l-51 -291q-3 -18 -3 -32q0 -38 19.5 -59t56.5 -21q44 0 70.5 26t37.5 86l51 291q2 6 -4 6
h-35q-10 0 -8 10l19 111q2 10 11 10z" />
    <glyph glyph-name="Yacute" unicode="&#xdd;" horiz-adv-x="599" 
d="M461 889h135q5 0 6.5 -3t-2.5 -7l-145 -122q-11 -10 -22 -10h-109q-4 0 -5.5 3t1.5 7l119 122q10 10 22 10zM425 680h235q10 0 8 -10l-19 -111q-2 -10 -12 -10h-28q-5 0 -10 -6l-201 -280l-23 -126q-1 -6 6 -6h44q10 0 8 -10l-19 -111q-2 -10 -11 -10h-270q-10 0 -8 10
l19 111q2 10 11 10h45q6 0 8 6l22 126l-104 280q-2 6 -9 6h-35q-10 0 -8 10l19 111q2 10 12 10h232q10 0 8 -10l-19 -111q-2 -10 -12 -10h-23q-7 0 -5 -6l47 -133h3l94 132q5 7 -3 7h-24q-10 0 -8 10l19 111q2 10 11 10z" />
    <glyph glyph-name="Thorn" unicode="&#xde;" horiz-adv-x="600" 
d="M114 680h198q9 0 8 -10l-17 -98q-1 -6 5 -6h86q104 0 156.5 -46t52.5 -130q0 -125 -78.5 -192.5t-207.5 -67.5h-85q-6 0 -7 -6l-20 -114q-2 -10 -12 -10h-199q-10 0 -8 10l19 111q2 10 12 10h33q6 0 8 6l72 406q2 6 -5 6h-34q-10 0 -8 10l19 111q2 10 12 10zM360 422h-76
q-6 0 -7 -6l-24 -134q-2 -7 4 -7h76q45 0 72 24t27 66q0 57 -72 57z" />
    <glyph glyph-name="germandbls" unicode="&#xdf;" horiz-adv-x="573" 
d="M373 692q98 0 149.5 -37.5t51.5 -101.5q0 -102 -79 -149v-2q45 -26 45 -92q0 -124 -42 -208q-27 -55 -80 -79t-138 -24h-38q-10 0 -8 10l18 110q2 10 12 10h24q49 0 68 40q7 14 15 58t8 64q0 47 -59 47h-16q-10 0 -8 10l19 104q2 10 11 10h23q29 0 46 17t17 45
q0 39 -60 39q-41 0 -62.5 -19.5t-29.5 -61.5l-84 -472q-2 -10 -11 -10h-184q-10 0 -8 10l19 111q2 10 12 10h27q7 0 8 6l61 344q19 104 84.5 157.5t188.5 53.5z" />
    <glyph glyph-name="agrave" unicode="&#xe0;" horiz-adv-x="520" 
d="M190 702h125q11 0 15 -10l53 -136q3 -10 -8 -10h-100q-13 0 -18 10l-74 136q-2 4 0 7t7 3zM287 499q99 0 147 -30t48 -100q0 -19 -6 -55l-32 -177q-2 -6 5 -6h28q10 0 8 -10l-19 -111q-2 -10 -12 -10h-177q-11 0 -9 10l5 30h-1q-48 -50 -135 -50q-55 0 -91.5 32t-36.5 87
q0 91 59.5 139t170.5 48h74q7 0 8 6q6 26 6 36q0 39 -64 39q-21 0 -35 -4q-6 -1 -7 -7l-4 -24q-2 -10 -11 -10h-122q-10 0 -8 10l19 113q1 10 9 13q88 31 183 31zM295 197h-57q-74 0 -74 -56q0 -37 48 -37q74 0 83 55l5 32q2 6 -5 6z" />
    <glyph glyph-name="aacute" unicode="&#xe1;" horiz-adv-x="520" 
d="M354 702h134q5 0 6 -3t-3 -7l-123 -136q-10 -10 -20 -10h-110q-4 0 -5.5 3t1.5 7l101 136q7 10 19 10zM287 499q99 0 147 -30t48 -100q0 -19 -6 -55l-32 -177q-2 -6 5 -6h28q10 0 8 -10l-19 -111q-2 -10 -12 -10h-177q-11 0 -9 10l5 30h-1q-48 -50 -135 -50
q-55 0 -91.5 32t-36.5 87q0 91 59.5 139t170.5 48h74q7 0 8 6q6 26 6 36q0 39 -64 39q-21 0 -35 -4q-6 -1 -7 -7l-4 -24q-2 -10 -11 -10h-122q-10 0 -8 10l19 113q1 10 9 13q88 31 183 31zM295 197h-57q-74 0 -74 -56q0 -37 48 -37q74 0 83 55l5 32q2 6 -5 6z" />
    <glyph glyph-name="acircumflex" unicode="&#xe2;" horiz-adv-x="520" 
d="M291 701h87q12 0 17 -9l80 -137q2 -4 0.5 -7t-6.5 -3h-87q-12 0 -20 10l-38 52h-2l-57 -52q-11 -10 -24 -10h-95q-4 0 -5.5 3t1.5 7l129 137q8 9 20 9zM287 499q99 0 147 -30t48 -100q0 -19 -6 -55l-32 -177q-2 -6 5 -6h28q10 0 8 -10l-19 -111q-2 -10 -12 -10h-177
q-11 0 -9 10l5 30h-1q-48 -50 -135 -50q-55 0 -91.5 32t-36.5 87q0 91 59.5 139t170.5 48h74q7 0 8 6q6 26 6 36q0 39 -64 39q-21 0 -35 -4q-6 -1 -7 -7l-4 -24q-2 -10 -11 -10h-122q-10 0 -8 10l19 113q1 10 9 13q88 31 183 31zM295 197h-57q-74 0 -74 -56q0 -37 48 -37
q74 0 83 55l5 32q2 6 -5 6z" />
    <glyph glyph-name="atilde" unicode="&#xe3;" horiz-adv-x="520" 
d="M262 696q40 0 78 -23q28 -18 54 -18q36 0 78 33q4 3 7.5 1.5t2.5 -6.5l-14 -78q-3 -13 -13 -22q-41 -35 -84 -35q-37 0 -78 23q-29 18 -54 18q-36 0 -78 -33q-4 -3 -7.5 -1.5t-2.5 6.5l14 78q3 14 13 22q43 35 84 35zM287 499q99 0 147 -30t48 -100q0 -19 -6 -55
l-32 -177q-2 -6 5 -6h28q10 0 8 -10l-19 -111q-2 -10 -12 -10h-177q-11 0 -9 10l5 30h-1q-48 -50 -135 -50q-55 0 -91.5 32t-36.5 87q0 91 59.5 139t170.5 48h74q7 0 8 6q6 26 6 36q0 39 -64 39q-21 0 -35 -4q-6 -1 -7 -7l-4 -24q-2 -10 -11 -10h-122q-10 0 -8 10l19 113
q1 10 9 13q88 31 183 31zM295 197h-57q-74 0 -74 -56q0 -37 48 -37q74 0 83 55l5 32q2 6 -5 6z" />
    <glyph glyph-name="adieresis" unicode="&#xe4;" horiz-adv-x="520" 
d="M176 682h105q10 0 8 -10l-20 -106q-2 -10 -11 -10h-104q-11 0 -9 10l20 106q2 10 11 10zM375 682h104q10 0 8 -10l-19 -106q-2 -10 -11 -10h-105q-11 0 -9 10l20 106q2 10 12 10zM287 499q99 0 147 -30t48 -100q0 -19 -6 -55l-32 -177q-2 -6 5 -6h28q10 0 8 -10l-19 -111
q-2 -10 -12 -10h-177q-11 0 -9 10l5 30h-1q-48 -50 -135 -50q-55 0 -91.5 32t-36.5 87q0 91 59.5 139t170.5 48h74q7 0 8 6q6 26 6 36q0 39 -64 39q-21 0 -35 -4q-6 -1 -7 -7l-4 -24q-2 -10 -11 -10h-122q-10 0 -8 10l19 113q1 10 9 13q88 31 183 31zM295 197h-57
q-74 0 -74 -56q0 -37 48 -37q74 0 83 55l5 32q2 6 -5 6z" />
    <glyph glyph-name="aring" unicode="&#xe5;" horiz-adv-x="520" 
d="M343 744q42 0 68 -25t26 -65q0 -56 -36.5 -95t-94.5 -39q-42 0 -68.5 25t-26.5 65q0 56 37 95t95 39zM332 678q-21 0 -36 -16t-15 -40q0 -16 9.5 -26t25.5 -10q21 0 36 16t15 40q0 16 -9.5 26t-25.5 10zM287 499q99 0 147 -30t48 -100q0 -19 -6 -55l-32 -177q-2 -6 5 -6
h28q10 0 8 -10l-19 -111q-2 -10 -12 -10h-177q-11 0 -9 10l5 30h-1q-48 -50 -135 -50q-55 0 -91.5 32t-36.5 87q0 91 59.5 139t170.5 48h74q7 0 8 6q6 26 6 36q0 39 -64 39q-21 0 -35 -4q-6 -1 -7 -7l-4 -24q-2 -10 -11 -10h-122q-10 0 -8 10l19 113q1 10 9 13q88 31 183 31
zM295 197h-57q-74 0 -74 -56q0 -37 48 -37q74 0 83 55l5 32q2 6 -5 6z" />
    <glyph glyph-name="ae" unicode="&#xe6;" horiz-adv-x="781" 
d="M576 499q85 0 136.5 -45t51.5 -128q0 -45 -13 -119q-2 -10 -12 -10h-278q-9 0 -9 -19q0 -66 83 -66q53 0 113 43q10 6 15 -1l54 -70q6 -8 -2 -16q-88 -80 -217 -80q-54 0 -92.5 20t-55.5 50h-1q-69 -70 -185 -70q-72 0 -113.5 34t-41.5 95q0 88 59.5 133.5t170.5 45.5h75
q6 0 8 6q6 24 6 36q0 18 -13 28.5t-52 10.5q-22 0 -35 -4q-6 -1 -7 -7l-4 -24q-2 -10 -11 -10h-122q-10 0 -8 10l19 113q1 10 9 13q90 31 181 31q110 0 152 -45h1q57 45 138 45zM558 383q-52 0 -74 -45q-10 -18 -10 -36q0 -6 6 -6h126q6 0 8 6q3 12 3 23q0 58 -59 58z
M296 197h-58q-74 0 -74 -56q0 -37 48 -37q75 0 84 55l5 32q1 6 -5 6z" />
    <glyph glyph-name="ccedilla" unicode="&#xe7;" horiz-adv-x="482" 
d="M302 499q113 0 175 -55q6 -6 5 -15l-18 -108q-2 -10 -11 -10h-119q-10 0 -8 10l5 29q1 6 -4 9q-14 8 -42 8q-46 0 -68 -45q-11 -23 -20 -70.5t-9 -71.5q0 -30 13 -44.5t45 -14.5q26 0 40 6q5 2 7 9l6 34q2 10 11 10h119q10 0 8 -10l-23 -128q-1 -8 -9 -13
q-59 -32 -137 -39l-68 -145q-4 -10 -17 -10h-111q-10 0 -5 10l86 152q-126 30 -126 169q0 116 42 201q64 132 233 132z" />
    <glyph glyph-name="egrave" unicode="&#xe8;" horiz-adv-x="507" 
d="M178 702h125q11 0 15 -10l53 -136q3 -10 -8 -10h-100q-13 0 -18 10l-74 136q-2 4 0 7t7 3zM302 499q85 0 136.5 -45t51.5 -128q0 -45 -13 -119q-2 -10 -12 -10h-278q-9 0 -9 -19q0 -66 84 -66q56 0 112 43q8 6 15 -1l54 -70q6 -8 -2 -16q-88 -80 -217 -80q-92 0 -145 46
t-53 135q0 114 40 193q69 137 236 137zM284 383q-52 0 -74 -45q-10 -18 -10 -36q0 -6 6 -6h126q6 0 8 6q3 12 3 24q0 57 -59 57z" />
    <glyph glyph-name="eacute" unicode="&#xe9;" horiz-adv-x="507" 
d="M359 702h134q5 0 6 -3t-3 -7l-123 -136q-10 -10 -20 -10h-110q-5 0 -6 3t2 7l101 136q7 10 19 10zM302 499q85 0 136.5 -45t51.5 -128q0 -45 -13 -119q-2 -10 -12 -10h-278q-9 0 -9 -19q0 -66 84 -66q56 0 112 43q8 6 15 -1l54 -70q6 -8 -2 -16q-88 -80 -217 -80
q-92 0 -145 46t-53 135q0 114 40 193q69 137 236 137zM284 383q-52 0 -74 -45q-10 -18 -10 -36q0 -6 6 -6h126q6 0 8 6q3 12 3 24q0 57 -59 57z" />
    <glyph glyph-name="ecircumflex" unicode="&#xea;" horiz-adv-x="507" 
d="M286 701h87q12 0 17 -9l80 -137q2 -4 0 -7t-6 -3h-87q-13 0 -20 10l-38 52h-2l-57 -52q-11 -10 -24 -10h-95q-5 0 -6 3t2 7l129 137q8 9 20 9zM302 499q85 0 136.5 -45t51.5 -128q0 -45 -13 -119q-2 -10 -12 -10h-278q-9 0 -9 -19q0 -66 84 -66q56 0 112 43q8 6 15 -1
l54 -70q6 -8 -2 -16q-88 -80 -217 -80q-92 0 -145 46t-53 135q0 114 40 193q69 137 236 137zM284 383q-52 0 -74 -45q-10 -18 -10 -36q0 -6 6 -6h126q6 0 8 6q3 12 3 24q0 57 -59 57z" />
    <glyph glyph-name="edieresis" unicode="&#xeb;" horiz-adv-x="507" 
d="M178 682h105q10 0 8 -10l-20 -106q-2 -10 -11 -10h-104q-11 0 -9 10l20 106q2 10 11 10zM377 682h104q10 0 8 -10l-19 -106q-2 -10 -11 -10h-105q-11 0 -9 10l20 106q2 10 12 10zM302 499q85 0 136.5 -45t51.5 -128q0 -45 -13 -119q-2 -10 -12 -10h-278q-9 0 -9 -19
q0 -66 84 -66q56 0 112 43q8 6 15 -1l54 -70q6 -8 -2 -16q-88 -80 -217 -80q-92 0 -145 46t-53 135q0 114 40 193q69 137 236 137zM284 383q-52 0 -74 -45q-10 -18 -10 -36q0 -6 6 -6h126q6 0 8 6q3 12 3 24q0 57 -59 57z" />
    <glyph glyph-name="igrave" unicode="&#xec;" horiz-adv-x="292" 
d="M70 702h125q11 0 15 -10l53 -136q3 -10 -8 -10h-100q-13 0 -18 10l-74 136q-2 4 0 7t7 3zM83 487h186q10 0 8 -10l-61 -340q-2 -6 5 -6h29q10 0 8 -10l-19 -111q-2 -10 -12 -10h-230q-10 0 -8 10l19 111q2 10 12 10h29q5 0 7 6l38 213q2 6 -5 6h-29q-10 0 -8 10l19 111
q2 10 12 10z" />
    <glyph glyph-name="iacute" unicode="&#xed;" horiz-adv-x="292" 
d="M255 702h134q5 0 6 -3t-3 -7l-123 -136q-10 -10 -20 -10h-110q-5 0 -6 3t2 7l101 136q7 10 19 10zM83 487h186q10 0 8 -10l-61 -340q-2 -6 5 -6h29q10 0 8 -10l-19 -111q-2 -10 -12 -10h-230q-10 0 -8 10l19 111q2 10 12 10h29q5 0 7 6l38 213q2 6 -5 6h-29q-10 0 -8 10
l19 111q2 10 12 10z" />
    <glyph glyph-name="icircumflex" unicode="&#xee;" horiz-adv-x="292" 
d="M180 701h87q12 0 17 -9l80 -137q2 -4 0 -7t-6 -3h-87q-13 0 -20 10l-38 52h-2l-57 -52q-11 -10 -24 -10h-95q-5 0 -6 3t2 7l129 137q8 9 20 9zM83 487h186q10 0 8 -10l-61 -340q-2 -6 5 -6h29q10 0 8 -10l-19 -111q-2 -10 -12 -10h-230q-10 0 -8 10l19 111q2 10 12 10h29
q5 0 7 6l38 213q2 6 -5 6h-29q-10 0 -8 10l19 111q2 10 12 10z" />
    <glyph glyph-name="idieresis" unicode="&#xef;" horiz-adv-x="292" 
d="M73 682h105q10 0 8 -10l-20 -106q-2 -10 -11 -10h-104q-11 0 -9 10l20 106q2 10 11 10zM272 682h104q10 0 8 -10l-19 -106q-2 -10 -11 -10h-105q-11 0 -9 10l20 106q2 10 12 10zM83 487h186q10 0 8 -10l-61 -340q-2 -6 5 -6h29q10 0 8 -10l-19 -111q-2 -10 -12 -10h-230
q-10 0 -8 10l19 111q2 10 12 10h29q5 0 7 6l38 213q2 6 -5 6h-29q-10 0 -8 10l19 111q2 10 12 10z" />
    <glyph glyph-name="eth" unicode="&#xf0;" horiz-adv-x="512" 
d="M184 680h142q12 0 16 -9l18 -33l93 27q9 2 10 -7l7 -70q2 -10 -8 -13l-58 -17l12 -21q75 -134 75 -243q0 -94 -38 -171q-67 -135 -236 -135q-91 0 -141 49t-50 136q0 82 32 149q59 122 182 122q39 0 66 -19h2l-48 91l-99 -28q-9 -2 -10 7l-7 70q-2 10 8 13l65 18l-39 74
q-2 4 0 7t6 3zM274 318q-45 0 -66 -43q-22 -44 -22 -95q0 -58 52 -58q44 0 66 43q21 44 21 95q0 58 -51 58z" />
    <glyph glyph-name="ntilde" unicode="&#xf1;" horiz-adv-x="569" 
d="M294 696q40 0 78 -23q29 -18 54 -18q36 0 78 33q4 3 7.5 1.5t2.5 -6.5l-14 -78q-3 -13 -13 -22q-41 -35 -84 -35q-37 0 -78 23q-28 18 -54 18q-36 0 -78 -33q-4 -3 -7.5 -1.5t-2.5 6.5l14 78q3 14 13 22q43 35 84 35zM403 498q66 0 97.5 -34.5t31.5 -93.5q0 -27 -5 -52
l-32 -181q-1 -6 5 -6h28q10 0 8 -10l-19 -111q-2 -10 -12 -10h-223q-10 0 -8 10l19 111q2 10 11 10h24q6 0 7 6l27 152q2 13 2 24q0 51 -48 51q-28 0 -47 -19.5t-26 -54.5l-27 -153q-2 -6 5 -6h23q10 0 8 -10l-19 -111q-2 -10 -11 -10h-225q-10 0 -8 10l19 111q2 10 12 10
h29q5 0 7 6l38 213q2 6 -5 6h-29q-10 0 -8 10l19 111q2 10 12 10h186q9 0 7 -10l-7 -37h1q49 58 133 58z" />
    <glyph glyph-name="ograve" unicode="&#xf2;" horiz-adv-x="511" 
d="M177 702h125q11 0 15 -10l53 -136q3 -10 -8 -10h-100q-13 0 -18 10l-74 136q-2 4 0 7t7 3zM301 499q88 0 139.5 -47t51.5 -135q0 -113 -40 -194q-67 -135 -235 -135q-88 0 -139.5 47t-51.5 135q0 113 40 194q65 135 235 135zM281 366q-45 0 -66 -44q-10 -21 -19.5 -69.5
t-9.5 -72.5q0 -59 51 -59q45 0 66 44q10 21 19.5 70t9.5 72q0 59 -51 59z" />
    <glyph glyph-name="oacute" unicode="&#xf3;" horiz-adv-x="511" 
d="M357 702h134q5 0 6 -3t-3 -7l-123 -136q-10 -10 -20 -10h-110q-5 0 -6 3t2 7l101 136q7 10 19 10zM301 499q88 0 139.5 -47t51.5 -135q0 -113 -40 -194q-67 -135 -235 -135q-88 0 -139.5 47t-51.5 135q0 113 40 194q65 135 235 135zM281 366q-45 0 -66 -44
q-10 -21 -19.5 -69.5t-9.5 -72.5q0 -59 51 -59q45 0 66 44q10 21 19.5 70t9.5 72q0 59 -51 59z" />
    <glyph glyph-name="ocircumflex" unicode="&#xf4;" horiz-adv-x="511" 
d="M286 701h87q12 0 17 -9l80 -137q2 -4 0 -7t-6 -3h-87q-13 0 -20 10l-38 52h-2l-57 -52q-11 -10 -24 -10h-95q-5 0 -6 3t2 7l129 137q8 9 20 9zM301 499q88 0 139.5 -47t51.5 -135q0 -113 -40 -194q-67 -135 -235 -135q-88 0 -139.5 47t-51.5 135q0 113 40 194
q65 135 235 135zM281 366q-45 0 -66 -44q-10 -21 -19.5 -69.5t-9.5 -72.5q0 -59 51 -59q45 0 66 44q10 21 19.5 70t9.5 72q0 59 -51 59z" />
    <glyph glyph-name="otilde" unicode="&#xf5;" horiz-adv-x="511" 
d="M259 696q40 0 78 -23q29 -18 54 -18q36 0 78 33q4 3 7.5 1.5t2.5 -6.5l-14 -78q-3 -13 -13 -22q-41 -35 -84 -35q-37 0 -78 23q-28 18 -54 18q-36 0 -78 -33q-4 -3 -7.5 -1.5t-2.5 6.5l14 78q3 14 13 22q43 35 84 35zM301 499q88 0 139.5 -47t51.5 -135q0 -113 -40 -194
q-67 -135 -235 -135q-88 0 -139.5 47t-51.5 135q0 113 40 194q65 135 235 135zM281 366q-45 0 -66 -44q-10 -21 -19.5 -69.5t-9.5 -72.5q0 -59 51 -59q45 0 66 44q10 21 19.5 70t9.5 72q0 59 -51 59z" />
    <glyph glyph-name="odieresis" unicode="&#xf6;" horiz-adv-x="511" 
d="M175 682h105q10 0 8 -10l-20 -106q-2 -10 -11 -10h-104q-11 0 -9 10l20 106q2 10 11 10zM374 682h104q10 0 8 -10l-19 -106q-2 -10 -11 -10h-105q-11 0 -9 10l20 106q2 10 12 10zM301 499q88 0 139.5 -47t51.5 -135q0 -113 -40 -194q-67 -135 -235 -135q-88 0 -139.5 47
t-51.5 135q0 113 40 194q65 135 235 135zM281 366q-45 0 -66 -44q-10 -21 -19.5 -69.5t-9.5 -72.5q0 -59 51 -59q45 0 66 44q10 21 19.5 70t9.5 72q0 59 -51 59z" />
    <glyph glyph-name="divide" unicode="&#xf7;" 
d="M289 553q34 0 58 -24t24 -58t-24 -58.5t-58 -24.5q-35 0 -59 24t-24 59q0 34 24 58t59 24zM68 343h441q10 0 10 -10v-114q0 -10 -10 -10h-441q-10 0 -10 10v114q0 10 10 10zM289 164q34 0 58 -24.5t24 -58.5t-24 -58t-58 -24q-35 0 -59 24t-24 58q0 35 24 59t59 24z" />
    <glyph glyph-name="oslash" unicode="&#xf8;" horiz-adv-x="511" 
d="M463 516h75q11 0 3 -10l-76 -85q27 -43 27 -104q0 -113 -40 -194q-67 -135 -235 -135q-65 0 -112 26l-30 -33q-9 -10 -20 -10h-75q-11 0 -3 10l76 84q-27 42 -27 105q0 113 40 194q65 135 235 135q65 0 112 -27l30 34q10 10 20 10zM281 366q-45 0 -66 -44
q-10 -21 -19.5 -69.5t-9.5 -72.5q0 -59 51 -59q45 0 66 44q10 21 19.5 70t9.5 72q0 59 -51 59z" />
    <glyph glyph-name="ugrave" unicode="&#xf9;" horiz-adv-x="554" 
d="M195 702h125q11 0 15 -10l53 -136q3 -10 -8 -10h-100q-13 0 -18 10l-74 136q-2 4 0 7t7 3zM344 487h184q10 0 8 -10l-60 -340q-2 -6 5 -6h29q10 0 8 -10l-19 -111q-2 -10 -12 -10h-186q-10 0 -8 10l6 37h-1q-49 -59 -131 -59q-127 0 -127 127q0 25 6 55l31 180q1 6 -5 6
h-27q-10 0 -8 10l19 111q2 10 12 10h183q11 0 9 -10l-49 -274q-3 -13 -3 -27q0 -52 47 -52q28 0 47 19t25 54l27 153q2 6 -5 6h-28q-10 0 -8 10l19 111q2 10 12 10z" />
    <glyph glyph-name="uacute" unicode="&#xfa;" horiz-adv-x="554" 
d="M369 702h134q5 0 6 -3t-3 -7l-123 -136q-10 -10 -20 -10h-110q-5 0 -6 3t2 7l101 136q7 10 19 10zM344 487h184q10 0 8 -10l-60 -340q-2 -6 5 -6h29q10 0 8 -10l-19 -111q-2 -10 -12 -10h-186q-10 0 -8 10l6 37h-1q-49 -59 -131 -59q-127 0 -127 127q0 25 6 55l31 180
q1 6 -5 6h-27q-10 0 -8 10l19 111q2 10 12 10h183q11 0 9 -10l-49 -274q-3 -13 -3 -27q0 -52 47 -52q28 0 47 19t25 54l27 153q2 6 -5 6h-28q-10 0 -8 10l19 111q2 10 12 10z" />
    <glyph glyph-name="ucircumflex" unicode="&#xfb;" horiz-adv-x="554" 
d="M301 701h87q12 0 17 -9l80 -137q2 -4 0.5 -7t-6.5 -3h-87q-12 0 -20 10l-38 52h-2l-57 -52q-11 -10 -24 -10h-95q-4 0 -5.5 3t1.5 7l129 137q8 9 20 9zM344 487h184q10 0 8 -10l-60 -340q-2 -6 5 -6h29q10 0 8 -10l-19 -111q-2 -10 -12 -10h-186q-10 0 -8 10l6 37h-1
q-49 -59 -131 -59q-127 0 -127 127q0 25 6 55l31 180q1 6 -5 6h-27q-10 0 -8 10l19 111q2 10 12 10h183q11 0 9 -10l-49 -274q-3 -13 -3 -27q0 -52 47 -52q28 0 47 19t25 54l27 153q2 6 -5 6h-28q-10 0 -8 10l19 111q2 10 12 10z" />
    <glyph glyph-name="udieresis" unicode="&#xfc;" horiz-adv-x="554" 
d="M192 682h105q10 0 8 -10l-20 -106q-2 -10 -11 -10h-104q-11 0 -9 10l20 106q2 10 11 10zM391 682h104q10 0 8 -10l-19 -106q-2 -10 -11 -10h-105q-11 0 -9 10l20 106q2 10 12 10zM344 487h184q10 0 8 -10l-60 -340q-2 -6 5 -6h29q10 0 8 -10l-19 -111q-2 -10 -12 -10
h-186q-10 0 -8 10l6 37h-1q-49 -59 -131 -59q-127 0 -127 127q0 25 6 55l31 180q1 6 -5 6h-27q-10 0 -8 10l19 111q2 10 12 10h183q11 0 9 -10l-49 -274q-3 -13 -3 -27q0 -52 47 -52q28 0 47 19t25 54l27 153q2 6 -5 6h-28q-10 0 -8 10l19 111q2 10 12 10z" />
    <glyph glyph-name="yacute" unicode="&#xfd;" horiz-adv-x="520" 
d="M359 702h134q5 0 6 -3t-3 -7l-123 -136q-10 -10 -20 -10h-110q-5 0 -6 3t2 7l101 136q7 10 19 10zM337 487h208q10 0 8 -10l-19 -111q-2 -10 -11 -10h-23q-5 0 -9 -6l-237 -406q-42 -71 -83 -97.5t-109 -26.5h-38q-10 0 -8 10l20 114q2 10 12 10h25q45 0 66 44l17 34
l-76 319q-1 5 -6 5h-29q-10 0 -8 10l19 111q2 10 11 10h208q10 0 8 -10l-19 -111q-2 -10 -12 -10h-18q-8 0 -6 -7l28 -153h2l80 153q4 7 -4 7h-19q-10 0 -8 10l19 111q2 10 11 10z" />
    <glyph glyph-name="thorn" unicode="&#xfe;" horiz-adv-x="551" 
d="M115 680h185q10 0 8 -10l-40 -231h1q44 59 131 59q134 0 134 -158q0 -52 -15 -125t-38 -119q-27 -56 -68.5 -81t-101.5 -25q-87 0 -111 58h-1l-16 -91q-1 -6 5 -6h29q10 0 8 -10l-19 -111q-2 -10 -12 -10h-230q-10 0 -8 10l19 111q2 10 12 10h27q8 0 9 6l103 586
q2 6 -5 6h-29q-10 0 -8 10l20 111q2 10 11 10zM320 366q-45 0 -66 -44q-9 -20 -19 -68.5t-10 -72.5q0 -60 51 -60q43 0 66 44q10 20 19.5 68.5t9.5 72.5q0 60 -51 60z" />
    <glyph glyph-name="ydieresis" unicode="&#xff;" horiz-adv-x="520" 
d="M193 682h105q10 0 8 -10l-20 -106q-2 -10 -11 -10h-104q-11 0 -9 10l20 106q2 10 11 10zM392 682h104q10 0 8 -10l-19 -106q-2 -10 -11 -10h-105q-11 0 -9 10l20 106q2 10 12 10zM337 487h208q10 0 8 -10l-19 -111q-2 -10 -11 -10h-23q-5 0 -9 -6l-237 -406
q-42 -71 -83 -97.5t-109 -26.5h-38q-10 0 -8 10l20 114q2 10 12 10h25q45 0 66 44l17 34l-76 319q-1 5 -6 5h-29q-10 0 -8 10l19 111q2 10 11 10h208q10 0 8 -10l-19 -111q-2 -10 -12 -10h-18q-8 0 -6 -7l28 -153h2l80 153q4 7 -4 7h-19q-10 0 -8 10l19 111q2 10 11 10z" />
    <glyph glyph-name="Amacron" unicode="&#x100;" horiz-adv-x="661" 
d="M300 870h291q10 0 8 -10l-15 -87q-2 -10 -11 -10h-291q-10 0 -8 10l15 87q2 10 11 10zM323 680h186q9 0 11 -10l76 -533q1 -6 7 -6h28q10 0 8 -10l-19 -111q-2 -10 -12 -10h-231q-10 0 -8 10l19 111q2 10 12 10h31q6 0 6 6l-8 62h-191l-29 -62q-3 -6 3 -6h32q10 0 8 -10
l-19 -111q-2 -10 -12 -10h-241q-10 0 -8 10l20 111q2 10 11 10h30q5 0 8 5l268 534q5 10 14 10zM388 516l-86 -182h111l-22 182h-3z" />
    <glyph glyph-name="amacron" unicode="&#x101;" horiz-adv-x="520" 
d="M179 673h291q10 0 8 -10l-15 -87q-2 -10 -11 -10h-291q-10 0 -8 10l15 87q2 10 11 10zM287 499q99 0 147 -30t48 -100q0 -19 -6 -55l-32 -177q-2 -6 5 -6h28q10 0 8 -10l-19 -111q-2 -10 -12 -10h-177q-11 0 -9 10l5 30h-1q-48 -50 -135 -50q-55 0 -91.5 32t-36.5 87
q0 91 59.5 139t170.5 48h74q7 0 8 6q6 26 6 36q0 39 -64 39q-21 0 -35 -4q-6 -1 -7 -7l-4 -24q-2 -10 -11 -10h-122q-10 0 -8 10l19 113q1 10 9 13q88 31 183 31zM295 197h-57q-74 0 -74 -56q0 -37 48 -37q74 0 83 55l5 32q2 6 -5 6z" />
    <glyph glyph-name="Abreve" unicode="&#x102;" horiz-adv-x="661" 
d="M532 885h62q12 0 10 -11q-11 -59 -63 -99t-116 -40q-60 0 -96.5 33t-36.5 85q0 13 1 20q2 12 13 12h62q11 0 14 -11q8 -41 58 -41q52 0 75 41q5 11 17 11zM323 680h186q9 0 11 -10l76 -533q1 -6 7 -6h28q10 0 8 -10l-19 -111q-2 -10 -12 -10h-231q-10 0 -8 10l19 111
q2 10 12 10h31q6 0 6 6l-8 62h-191l-29 -62q-3 -6 3 -6h32q10 0 8 -10l-19 -111q-2 -10 -12 -10h-241q-10 0 -8 10l20 111q2 10 11 10h30q5 0 8 5l268 534q5 10 14 10zM388 516l-86 -182h111l-22 182h-3z" />
    <glyph glyph-name="abreve" unicode="&#x103;" horiz-adv-x="520" 
d="M408 690h62q12 0 10 -11q-11 -59 -63 -99t-116 -40q-60 0 -96.5 33t-36.5 85q0 13 1 20q2 12 13 12h62q11 0 14 -11q8 -41 58 -41q52 0 75 41q5 11 17 11zM287 499q99 0 147 -30t48 -100q0 -19 -6 -55l-32 -177q-2 -6 5 -6h28q10 0 8 -10l-19 -111q-2 -10 -12 -10h-177
q-11 0 -9 10l5 30h-1q-48 -50 -135 -50q-55 0 -91.5 32t-36.5 87q0 91 59.5 139t170.5 48h74q7 0 8 6q6 26 6 36q0 39 -64 39q-21 0 -35 -4q-6 -1 -7 -7l-4 -24q-2 -10 -11 -10h-122q-10 0 -8 10l19 113q1 10 9 13q88 31 183 31zM295 197h-57q-74 0 -74 -56q0 -37 48 -37
q74 0 83 55l5 32q2 6 -5 6z" />
    <glyph glyph-name="Aogonek" unicode="&#x104;" horiz-adv-x="661" 
d="M323 680h186q9 0 11 -10l76 -533q1 -6 7 -6h28q10 0 8 -10l-19 -111q-2 -10 -12 -10h-101q-53 -24 -73.5 -40.5t-20.5 -30.5q0 -13 14 -13q10 0 24 8q10 6 13 -3l24 -68q4 -9 -5 -13q-49 -30 -102 -30q-42 0 -67 21.5t-25 56.5q0 64 79 117l20 116q2 10 12 10h31q6 0 6 6
l-8 62h-191l-29 -62q-3 -6 3 -6h32q10 0 8 -10l-19 -111q-2 -10 -12 -10h-241q-10 0 -8 10l20 111q2 10 11 10h30q5 0 8 5l268 534q5 10 14 10zM388 516l-86 -182h111l-22 182h-3z" />
    <glyph glyph-name="aogonek" unicode="&#x105;" horiz-adv-x="520" 
d="M287 499q99 0 147 -30t48 -100q0 -19 -6 -55l-32 -177q-2 -6 5 -6h28q10 0 8 -10l-19 -111q-2 -10 -12 -10h-46q-53 -24 -73.5 -40.5t-20.5 -30.5q0 -13 14 -13q10 0 24 8q10 6 13 -3l24 -68q3 -9 -5 -13q-49 -30 -102 -30q-42 0 -67 21.5t-25 56.5q0 61 77 116l6 36h-1
q-48 -50 -135 -50q-55 0 -91.5 32t-36.5 87q0 91 59.5 139t170.5 48h74q7 0 8 6q6 26 6 36q0 39 -64 39q-21 0 -35 -4q-6 -1 -7 -7l-4 -24q-2 -10 -11 -10h-122q-10 0 -8 10l19 113q1 10 9 13q88 31 183 31zM295 197h-57q-74 0 -74 -56q0 -37 48 -37q74 0 83 55l5 32
q2 6 -5 6z" />
    <glyph glyph-name="Cacute" unicode="&#x106;" horiz-adv-x="563" 
d="M460 889h135q5 0 6.5 -3t-2.5 -7l-145 -122q-11 -10 -22 -10h-109q-5 0 -6 3t2 7l119 122q10 10 22 10zM381 692q68 0 125 -17t85 -39q8 -7 7 -17l-25 -146q-2 -10 -11 -10h-127q-10 0 -8 10l8 49q2 8 -5 11q-22 11 -64 11q-69 0 -99 -64q-14 -31 -32.5 -128t-18.5 -136
q0 -80 86 -80q36 0 60 11q7 4 8 9l10 52q2 10 11 10h127q10 0 8 -10l-28 -160q-1 -8 -10 -13q-85 -47 -210 -47q-233 0 -233 211q0 57 21 168.5t47 166.5q41 82 104.5 120t163.5 38z" />
    <glyph glyph-name="cacute" unicode="&#x107;" horiz-adv-x="482" 
d="M353 702h134q5 0 6 -3t-3 -7l-123 -136q-10 -10 -20 -10h-110q-5 0 -6 3t2 7l101 136q7 10 19 10zM302 499q113 0 175 -55q6 -6 5 -15l-18 -108q-2 -10 -11 -10h-119q-10 0 -8 10l5 29q1 6 -4 9q-14 8 -42 8q-46 0 -68 -45q-11 -23 -20 -70.5t-9 -71.5q0 -30 13 -44.5
t45 -14.5q26 0 40 6q5 2 7 9l6 34q2 10 11 10h119q10 0 8 -10l-23 -128q-1 -8 -9 -13q-75 -41 -177 -41q-100 0 -150.5 46.5t-50.5 131.5q0 116 42 201q64 132 233 132z" />
    <glyph glyph-name="Ccircumflex" unicode="&#x108;" horiz-adv-x="563" 
d="M381 898h87q11 0 17 -10l80 -136q2 -4 0.5 -7t-6.5 -3h-87q-12 0 -19 10l-39 51h-1l-58 -51q-10 -10 -24 -10h-95q-5 0 -6 3t3 7l128 136q9 10 20 10zM381 692q68 0 125 -17t85 -39q8 -7 7 -17l-25 -146q-2 -10 -11 -10h-127q-10 0 -8 10l8 49q2 8 -5 11q-22 11 -64 11
q-69 0 -99 -64q-14 -31 -32.5 -128t-18.5 -136q0 -80 86 -80q36 0 60 11q7 4 8 9l10 52q2 10 11 10h127q10 0 8 -10l-28 -160q-1 -8 -10 -13q-85 -47 -210 -47q-233 0 -233 211q0 57 21 168.5t47 166.5q41 82 104.5 120t163.5 38z" />
    <glyph glyph-name="ccircumflex" unicode="&#x109;" horiz-adv-x="482" 
d="M294 701h87q12 0 17 -9l80 -137q2 -4 0 -7t-6 -3h-87q-13 0 -20 10l-38 52h-2l-57 -52q-11 -10 -24 -10h-95q-5 0 -6 3t2 7l129 137q8 9 20 9zM302 499q113 0 175 -55q6 -6 5 -15l-18 -108q-2 -10 -11 -10h-119q-10 0 -8 10l5 29q1 6 -4 9q-14 8 -42 8q-46 0 -68 -45
q-11 -23 -20 -70.5t-9 -71.5q0 -30 13 -44.5t45 -14.5q26 0 40 6q5 2 7 9l6 34q2 10 11 10h119q10 0 8 -10l-23 -128q-1 -8 -9 -13q-75 -41 -177 -41q-100 0 -150.5 46.5t-50.5 131.5q0 116 42 201q64 132 233 132z" />
    <glyph glyph-name="Cdotaccent" unicode="&#x10a;" horiz-adv-x="563" 
d="M347 879h133q10 0 8 -10l-19 -107q-2 -10 -11 -10h-133q-10 0 -8 10l19 107q2 10 11 10zM381 692q68 0 125 -17t85 -39q8 -7 7 -17l-25 -146q-2 -10 -11 -10h-127q-10 0 -8 10l8 49q2 8 -5 11q-22 11 -64 11q-69 0 -99 -64q-14 -31 -32.5 -128t-18.5 -136q0 -80 86 -80
q36 0 60 11q7 4 8 9l10 52q2 10 11 10h127q10 0 8 -10l-28 -160q-1 -8 -10 -13q-85 -47 -210 -47q-233 0 -233 211q0 57 21 168.5t47 166.5q41 82 104.5 120t163.5 38z" />
    <glyph glyph-name="cdotaccent" unicode="&#x10b;" horiz-adv-x="482" 
d="M260 680h133q10 0 8 -10l-19 -107q-2 -10 -11 -10h-134q-10 0 -8 10l20 107q2 10 11 10zM302 499q113 0 175 -55q6 -6 5 -15l-18 -108q-2 -10 -11 -10h-119q-10 0 -8 10l5 29q1 6 -4 9q-14 8 -42 8q-46 0 -68 -45q-11 -23 -20 -70.5t-9 -71.5q0 -30 13 -44.5t45 -14.5
q26 0 40 6q5 2 7 9l6 34q2 10 11 10h119q10 0 8 -10l-23 -128q-1 -8 -9 -13q-75 -41 -177 -41q-100 0 -150.5 46.5t-50.5 131.5q0 116 42 201q64 132 233 132z" />
    <glyph glyph-name="Ccaron" unicode="&#x10c;" horiz-adv-x="563" 
d="M486 892h95q5 0 6 -3t-2 -7l-129 -136q-9 -10 -20 -10h-86q-12 0 -18 10l-80 136q-2 4 0 7t6 3h87q13 0 20 -10l38 -51h2l57 51q10 10 24 10zM381 692q68 0 125 -17t85 -39q8 -7 7 -17l-25 -146q-2 -10 -11 -10h-127q-10 0 -8 10l8 49q2 8 -5 11q-22 11 -64 11
q-69 0 -99 -64q-14 -31 -32.5 -128t-18.5 -136q0 -80 86 -80q36 0 60 11q7 4 8 9l10 52q2 10 11 10h127q10 0 8 -10l-28 -160q-1 -8 -10 -13q-85 -47 -210 -47q-233 0 -233 211q0 57 21 168.5t47 166.5q41 82 104.5 120t163.5 38z" />
    <glyph glyph-name="ccaron" unicode="&#x10d;" horiz-adv-x="482" 
d="M398 698h95q5 0 6 -3t-2 -7l-129 -136q-9 -10 -20 -10h-87q-11 0 -17 10l-80 136q-2 4 -0.5 7t6.5 3h87q13 0 20 -10l38 -51h2l57 51q10 10 24 10zM302 499q113 0 175 -55q6 -6 5 -15l-18 -108q-2 -10 -11 -10h-119q-10 0 -8 10l5 29q1 6 -4 9q-14 8 -42 8q-46 0 -68 -45
q-11 -23 -20 -70.5t-9 -71.5q0 -30 13 -44.5t45 -14.5q26 0 40 6q5 2 7 9l6 34q2 10 11 10h119q10 0 8 -10l-23 -128q-1 -8 -9 -13q-75 -41 -177 -41q-100 0 -150.5 46.5t-50.5 131.5q0 116 42 201q64 132 233 132z" />
    <glyph glyph-name="Dcaron" unicode="&#x10e;" horiz-adv-x="623" 
d="M475 892h95q4 0 5.5 -3t-1.5 -7l-129 -136q-9 -10 -20 -10h-86q-12 0 -18 10l-80 136q-2 4 -0.5 7t6.5 3h87q12 0 20 -10l38 -51h2l57 51q10 10 24 10zM114 680h297q208 0 208 -199q0 -66 -19.5 -172t-46.5 -161q-39 -80 -103.5 -114t-157.5 -34h-298q-10 0 -8 10l19 111
q2 10 12 10h33q6 0 8 6l72 406q2 6 -5 6h-34q-10 0 -8 10l19 111q2 10 12 10zM351 530h-50q-5 0 -7 -6l-65 -368q-1 -6 4 -6h53q45 0 72 15t46 52q15 30 29.5 109t14.5 117q0 46 -22.5 66.5t-74.5 20.5z" />
    <glyph glyph-name="dcaron" unicode="&#x10f;" horiz-adv-x="545" 
d="M365 680h185q11 0 9 -10l-94 -533q-1 -6 5 -6h29q10 0 8 -10l-19 -111q-2 -10 -11 -10h-186q-10 0 -8 10l6 37h-1q-45 -58 -130 -58q-135 0 -135 158q0 53 15 125.5t38 118.5q52 106 170 106q87 0 111 -58h1l19 104q1 6 -5 6h-29q-10 0 -8 10l19 111q2 10 11 10zM604 680
h105q11 0 9 -10l-17 -92q-3 -15 -12 -21l-102 -74q-10 -7 -16 -7q-12 0 -10 12l32 182q2 10 11 10zM280 366q-44 0 -65 -45q-10 -19 -19.5 -67.5t-9.5 -73.5q0 -59 51 -59q45 0 66 43q9 20 19 68.5t10 73.5q0 60 -52 60z" />
    <glyph glyph-name="Dcroat" unicode="&#x110;" horiz-adv-x="623" 
d="M114 680h297q208 0 208 -199q0 -66 -19.5 -172t-46.5 -161q-39 -80 -103.5 -114t-157.5 -34h-298q-10 0 -8 10l19 111q2 10 12 10h33q6 0 8 6l25 143q1 6 -5 6h-25q-10 0 -8 10l16 95q2 10 12 10h26q5 0 7 6l24 136q2 6 -5 6h-34q-10 0 -8 10l19 111q2 10 12 10zM350 530
h-49q-5 0 -7 -6l-21 -117q-1 -6 4 -6h68q10 0 8 -10l-16 -95q-2 -10 -11 -10h-68q-6 0 -7 -6l-22 -124q-1 -6 4 -6h53q45 0 72.5 15.5t45.5 51.5q15 30 29.5 108.5t14.5 116.5q0 46 -23 67t-75 21z" />
    <glyph glyph-name="dcroat" unicode="&#x111;" horiz-adv-x="545" 
d="M409 680h141q11 0 9 -10l-4 -25q-1 -6 5 -6h22q11 0 9 -10l-14 -77q-2 -10 -11 -10h-24q-6 0 -7 -6l-70 -399q-1 -6 5 -6h29q10 0 8 -10l-19 -111q-2 -10 -12 -10h-185q-10 0 -8 10l6 37h-1q-45 -58 -130 -58q-135 0 -135 158q0 53 15 125.5t38 118.5q52 106 170 106
q89 0 111 -58h1l18 97q2 6 -5 6h-94q-9 0 -7 10l14 77q2 10 11 10h92q5 0 7 6l5 25q2 10 10 10zM281 365q-45 0 -66 -44q-10 -19 -19.5 -67.5t-9.5 -73.5q0 -59 51 -59q45 0 66 43q10 20 19.5 68.5t9.5 73.5q0 59 -51 59z" />
    <glyph glyph-name="Emacron" unicode="&#x112;" horiz-adv-x="548" 
d="M242 870h291q10 0 8 -10l-15 -87q-2 -10 -11 -10h-291q-10 0 -8 10l15 87q2 10 11 10zM114 680h474q10 0 8 -10l-29 -164q-2 -10 -11 -10h-124q-10 0 -8 10l6 35q2 6 -4 6h-124q-4 0 -6 -6l-22 -125q-2 -6 4 -6h75q5 0 7 6l4 21q2 10 11 10h118q10 0 8 -10l-33 -188
q-2 -10 -11 -10h-118q-10 0 -8 10l4 22q1 6 -4 6h-77q-4 0 -6 -6l-24 -132q-2 -6 5 -6h123q6 0 7 6l7 39q2 10 11 10h124q10 0 8 -10l-29 -168q-2 -10 -11 -10h-475q-10 0 -8 10l19 111q2 10 12 10h33q6 0 8 6l72 406q2 6 -5 6h-34q-10 0 -8 10l19 111q2 10 12 10z" />
    <glyph glyph-name="emacron" unicode="&#x113;" horiz-adv-x="507" 
d="M175 673h291q10 0 8 -10l-15 -87q-2 -10 -11 -10h-291q-10 0 -8 10l15 87q2 10 11 10zM302 499q85 0 136.5 -45t51.5 -128q0 -45 -13 -119q-2 -10 -12 -10h-278q-9 0 -9 -19q0 -66 84 -66q56 0 112 43q8 6 15 -1l54 -70q6 -8 -2 -16q-88 -80 -217 -80q-92 0 -145 46
t-53 135q0 114 40 193q69 137 236 137zM284 383q-52 0 -74 -45q-10 -18 -10 -36q0 -6 6 -6h126q6 0 8 6q3 12 3 24q0 57 -59 57z" />
    <glyph glyph-name="Ebreve" unicode="&#x114;" horiz-adv-x="548" 
d="M466 885h62q12 0 10 -11q-11 -59 -63 -99t-116 -40q-60 0 -96.5 33t-36.5 85q0 13 1 20q2 12 13 12h62q11 0 14 -11q8 -41 58 -41q52 0 75 41q5 11 17 11zM114 680h474q10 0 8 -10l-29 -164q-2 -10 -11 -10h-124q-10 0 -8 10l6 35q2 6 -4 6h-124q-4 0 -6 -6l-22 -125
q-2 -6 4 -6h75q5 0 7 6l4 21q2 10 11 10h118q10 0 8 -10l-33 -188q-2 -10 -11 -10h-118q-10 0 -8 10l4 22q1 6 -4 6h-77q-4 0 -6 -6l-24 -132q-2 -6 5 -6h123q6 0 7 6l7 39q2 10 11 10h124q10 0 8 -10l-29 -168q-2 -10 -11 -10h-475q-10 0 -8 10l19 111q2 10 12 10h33
q6 0 8 6l72 406q2 6 -5 6h-34q-10 0 -8 10l19 111q2 10 12 10z" />
    <glyph glyph-name="ebreve" unicode="&#x115;" horiz-adv-x="507" 
d="M410 690h62q12 0 10 -11q-11 -59 -63 -99t-116 -40q-60 0 -96.5 33t-36.5 85q0 13 1 20q2 12 13 12h62q11 0 14 -11q8 -41 58 -41q52 0 75 41q5 11 17 11zM302 499q85 0 136.5 -45t51.5 -128q0 -45 -13 -119q-2 -10 -12 -10h-278q-9 0 -9 -19q0 -66 84 -66q56 0 112 43
q8 6 15 -1l54 -70q6 -8 -2 -16q-88 -80 -217 -80q-92 0 -145 46t-53 135q0 114 40 193q69 137 236 137zM284 383q-52 0 -74 -45q-10 -18 -10 -36q0 -6 6 -6h126q6 0 8 6q3 12 3 24q0 57 -59 57z" />
    <glyph glyph-name="Edotaccent" unicode="&#x116;" horiz-adv-x="548" 
d="M324 879h133q10 0 8 -10l-19 -107q-2 -10 -11 -10h-133q-10 0 -8 10l19 107q2 10 11 10zM114 680h474q10 0 8 -10l-29 -164q-2 -10 -11 -10h-124q-10 0 -8 10l6 35q2 6 -4 6h-124q-4 0 -6 -6l-22 -125q-2 -6 4 -6h75q5 0 7 6l4 21q2 10 11 10h118q10 0 8 -10l-33 -188
q-2 -10 -11 -10h-118q-10 0 -8 10l4 22q1 6 -4 6h-77q-4 0 -6 -6l-24 -132q-2 -6 5 -6h123q6 0 7 6l7 39q2 10 11 10h124q10 0 8 -10l-29 -168q-2 -10 -11 -10h-475q-10 0 -8 10l19 111q2 10 12 10h33q6 0 8 6l72 406q2 6 -5 6h-34q-10 0 -8 10l19 111q2 10 12 10z" />
    <glyph glyph-name="edotaccent" unicode="&#x117;" horiz-adv-x="507" 
d="M260 680h133q10 0 8 -10l-19 -107q-2 -10 -11 -10h-134q-10 0 -8 10l20 107q2 10 11 10zM302 499q85 0 136.5 -45t51.5 -128q0 -45 -13 -119q-2 -10 -12 -10h-278q-9 0 -9 -19q0 -66 84 -66q56 0 112 43q8 6 15 -1l54 -70q6 -8 -2 -16q-88 -80 -217 -80q-92 0 -145 46
t-53 135q0 114 40 193q69 137 236 137zM284 383q-52 0 -74 -45q-10 -18 -10 -36q0 -6 6 -6h126q6 0 8 6q3 12 3 24q0 57 -59 57z" />
    <glyph glyph-name="Eogonek" unicode="&#x118;" horiz-adv-x="548" 
d="M114 680h474q10 0 8 -10l-29 -164q-2 -10 -11 -10h-124q-10 0 -8 10l6 35q2 6 -4 6h-124q-4 0 -6 -6l-22 -125q-2 -6 4 -6h75q5 0 7 6l4 21q2 10 11 10h118q10 0 8 -10l-33 -188q-2 -10 -11 -10h-118q-10 0 -8 10l4 22q1 6 -4 6h-77q-4 0 -6 -6l-24 -132q-2 -6 5 -6h123
q6 0 7 6l7 39q2 10 11 10h124q10 0 8 -10l-29 -168q-2 -10 -11 -10h-17q-53 -24 -73.5 -40.5t-20.5 -30.5q0 -13 14 -13q10 0 24 8q10 6 13 -3l24 -68q3 -9 -5 -13q-49 -30 -102 -30q-42 0 -67 21.5t-25 56.5q0 61 71 112h-311q-10 0 -8 10l19 111q2 10 12 10h33q6 0 8 6
l72 406q2 6 -5 6h-34q-10 0 -8 10l19 111q2 10 12 10z" />
    <glyph glyph-name="eogonek" unicode="&#x119;" horiz-adv-x="507" 
d="M302 499q85 0 136.5 -45.5t51.5 -127.5q0 -44 -13 -119q-2 -10 -12 -10h-278q-9 0 -9 -18q0 -67 83 -67q56 0 113 43q10 6 15 -1l54 -70q6 -8 -2 -16q-27 -24 -53 -39q-97 -68 -97 -100q0 -13 14 -13q10 0 24 8q10 5 13 -3l25 -68q3 -8 -6 -13q-49 -30 -101 -30
q-42 0 -67 21.5t-25 56.5q0 52 52 101h-6q-88 2 -138 48t-50 131q0 114 40 194q66 137 236 137zM284 383q-52 0 -74 -45q-10 -18 -10 -36q0 -6 6 -6h126q6 0 8 6q3 12 3 24q0 57 -59 57z" />
    <glyph glyph-name="Ecaron" unicode="&#x11a;" horiz-adv-x="548" 
d="M457 892h95q4 0 5.5 -3t-1.5 -7l-129 -136q-9 -10 -20 -10h-86q-12 0 -18 10l-80 136q-2 4 -0.5 7t6.5 3h87q12 0 20 -10l38 -51h2l57 51q10 10 24 10zM114 680h474q10 0 8 -10l-29 -164q-2 -10 -11 -10h-124q-10 0 -8 10l6 35q2 6 -4 6h-124q-4 0 -6 -6l-22 -125
q-2 -6 4 -6h75q5 0 7 6l4 21q2 10 11 10h118q10 0 8 -10l-33 -188q-2 -10 -11 -10h-118q-10 0 -8 10l4 22q1 6 -4 6h-77q-4 0 -6 -6l-24 -132q-2 -6 5 -6h123q6 0 7 6l7 39q2 10 11 10h124q10 0 8 -10l-29 -168q-2 -10 -11 -10h-475q-10 0 -8 10l19 111q2 10 12 10h33
q6 0 8 6l72 406q2 6 -5 6h-34q-10 0 -8 10l19 111q2 10 12 10z" />
    <glyph glyph-name="ecaron" unicode="&#x11b;" horiz-adv-x="507" 
d="M396 698h95q5 0 6 -3t-2 -7l-129 -136q-9 -10 -20 -10h-87q-11 0 -17 10l-80 136q-2 4 0 7t6 3h87q13 0 20 -10l38 -51h2l57 51q10 10 24 10zM302 499q85 0 136.5 -45t51.5 -128q0 -45 -13 -119q-2 -10 -12 -10h-278q-9 0 -9 -19q0 -66 84 -66q56 0 112 43q8 6 15 -1
l54 -70q6 -8 -2 -16q-88 -80 -217 -80q-92 0 -145 46t-53 135q0 114 40 193q69 137 236 137zM284 383q-52 0 -74 -45q-10 -18 -10 -36q0 -6 6 -6h126q6 0 8 6q3 12 3 24q0 57 -59 57z" />
    <glyph glyph-name="Gcircumflex" unicode="&#x11c;" horiz-adv-x="604" 
d="M382 898h87q11 0 17 -10l80 -136q2 -4 0 -7t-6 -3h-87q-11 0 -19 10l-39 51h-1l-58 -51q-10 -10 -24 -10h-95q-5 0 -6 3t3 7l128 136q9 10 20 10zM390 692q79 0 138 -21.5t88 -50.5q4 -5 3 -15l-23 -130q-2 -10 -10 -10h-127q-10 0 -8 10l8 45q1 7 -4 10q-26 14 -74 14
q-81 0 -115 -69q-14 -28 -32 -123t-18 -134q0 -82 94 -82q49 0 74 13q8 4 9 12l15 84q2 6 -5 6h-72q-9 0 -7 10l20 108q2 10 11 10h225q9 0 7 -10l-53 -301q-3 -16 -17 -25q-80 -55 -221 -55q-122 0 -186.5 54.5t-64.5 160.5q0 55 21 166.5t46 162.5q40 83 108 121.5
t170 38.5z" />
    <glyph glyph-name="gcircumflex" unicode="&#x11d;" horiz-adv-x="534" 
d="M299 701h87q12 0 17 -9l80 -137q2 -4 0.5 -7t-6.5 -3h-87q-12 0 -20 10l-38 52h-2l-57 -52q-11 -10 -24 -10h-95q-4 0 -5.5 3t1.5 7l129 137q8 9 20 9zM240 498q86 0 110 -59h1l7 38q2 10 12 10h184q10 0 8 -10l-19 -111q-2 -10 -12 -10h-29q-6 0 -7 -6l-46 -283
q-23 -140 -90 -199.5t-190 -59.5q-59 0 -108 23t-73 60q-6 9 3 16l88 74q10 8 17 1q40 -40 84 -40t68.5 23t34.5 78l8 41h-1q-43 -57 -129 -57q-135 0 -135 151q0 48 12.5 109t31.5 101q54 110 170 110zM274 366q-42 0 -63 -44q-22 -44 -22 -108q0 -58 49 -58q42 0 64 43
q23 44 23 108q0 59 -51 59z" />
    <glyph glyph-name="Gbreve" unicode="&#x11e;" horiz-adv-x="604" 
d="M501 885h62q12 0 10 -11q-11 -59 -63 -99t-116 -40q-60 0 -96.5 33t-36.5 85q0 13 1 20q2 12 13 12h62q11 0 14 -11q8 -41 58 -41q52 0 75 41q6 11 17 11zM390 692q79 0 138 -21.5t88 -50.5q4 -5 3 -15l-23 -130q-2 -10 -10 -10h-127q-10 0 -8 10l8 45q1 7 -4 10
q-26 14 -74 14q-81 0 -115 -69q-14 -28 -32 -123t-18 -134q0 -82 94 -82q49 0 74 13q8 4 9 12l15 84q2 6 -5 6h-72q-9 0 -7 10l20 108q2 10 11 10h225q9 0 7 -10l-53 -301q-3 -16 -17 -25q-80 -55 -221 -55q-122 0 -186.5 54.5t-64.5 160.5q0 55 21 166.5t46 162.5
q40 83 108 121.5t170 38.5z" />
    <glyph glyph-name="gbreve" unicode="&#x11f;" horiz-adv-x="534" 
d="M415 690h62q12 0 10 -11q-11 -59 -63 -99t-116 -40q-60 0 -96.5 33t-36.5 85q0 13 1 20q2 12 13 12h62q11 0 14 -11q8 -41 58 -41q52 0 75 41q6 11 17 11zM240 498q86 0 110 -59h1l7 38q2 10 12 10h184q10 0 8 -10l-19 -111q-2 -10 -12 -10h-29q-6 0 -7 -6l-46 -283
q-23 -140 -90 -199.5t-190 -59.5q-59 0 -108 23t-73 60q-6 9 3 16l88 74q10 8 17 1q40 -40 84 -40t68.5 23t34.5 78l8 41h-1q-43 -57 -129 -57q-135 0 -135 151q0 48 12.5 109t31.5 101q54 110 170 110zM274 366q-42 0 -63 -44q-22 -44 -22 -108q0 -58 49 -58q42 0 64 43
q23 44 23 108q0 59 -51 59z" />
    <glyph glyph-name="Gdotaccent" unicode="&#x120;" horiz-adv-x="604" 
d="M351 879h133q10 0 8 -10l-19 -107q-2 -10 -11 -10h-133q-10 0 -8 10l19 107q2 10 11 10zM390 692q79 0 138 -21.5t88 -50.5q4 -5 3 -15l-23 -130q-2 -10 -10 -10h-127q-10 0 -8 10l8 45q1 7 -4 10q-26 14 -74 14q-81 0 -115 -69q-14 -28 -32 -123t-18 -134q0 -82 94 -82
q49 0 74 13q8 4 9 12l15 84q2 6 -5 6h-72q-9 0 -7 10l20 108q2 10 11 10h225q9 0 7 -10l-53 -301q-3 -16 -17 -25q-80 -55 -221 -55q-122 0 -186.5 54.5t-64.5 160.5q0 55 21 166.5t46 162.5q40 83 108 121.5t170 38.5z" />
    <glyph glyph-name="gdotaccent" unicode="&#x121;" horiz-adv-x="534" 
d="M269 680h133q10 0 8 -10l-19 -107q-2 -10 -11 -10h-134q-10 0 -8 10l20 107q2 10 11 10zM240 498q86 0 110 -59h1l7 38q2 10 12 10h184q10 0 8 -10l-19 -111q-2 -10 -12 -10h-29q-6 0 -7 -6l-46 -283q-23 -140 -90 -199.5t-190 -59.5q-59 0 -108 23t-73 60q-6 9 3 16
l88 74q10 8 17 1q40 -40 84 -40t68.5 23t34.5 78l8 41h-1q-43 -57 -129 -57q-135 0 -135 151q0 48 12.5 109t31.5 101q54 110 170 110zM274 366q-42 0 -63 -44q-22 -44 -22 -108q0 -58 49 -58q42 0 64 43q23 44 23 108q0 59 -51 59z" />
    <glyph glyph-name="Gcommaaccent" unicode="&#x122;" horiz-adv-x="604" 
d="M390 692q79 0 138 -21.5t88 -50.5q4 -5 3 -15l-23 -130q-2 -10 -10 -10h-127q-10 0 -8 10l8 45q1 7 -4 10q-26 14 -74 14q-81 0 -115 -69q-14 -28 -32 -123t-18 -134q0 -82 94 -82q49 0 74 13q8 4 9 12l15 84q2 6 -5 6h-72q-9 0 -7 10l20 108q2 10 11 10h225q9 0 7 -10
l-53 -301q-3 -16 -17 -25q-80 -55 -221 -55q-122 0 -186.5 54.5t-64.5 160.5q0 55 21 166.5t46 162.5q40 83 108 121.5t170 38.5zM199 -46h115q11 0 9 -10l-15 -87q-3 -15 -13 -21l-112 -73q-11 -7 -17 -7q-11 0 -9 11l31 177q2 10 11 10z" />
    <glyph glyph-name="gcommaaccent" unicode="&#x123;" horiz-adv-x="534" 
d="M400 749q11 0 9 -13l-30 -176q-2 -10 -12 -10h-115q-10 0 -8 10l14 87q3 14 14 21l111 73q13 8 17 8zM240 498q86 0 110 -59h1l7 38q2 10 12 10h184q10 0 8 -10l-19 -111q-2 -10 -12 -10h-29q-6 0 -7 -6l-46 -283q-23 -140 -90 -199.5t-190 -59.5q-59 0 -108 23t-73 60
q-6 9 3 16l88 74q10 8 17 1q40 -40 84 -40t68.5 23t34.5 78l8 41h-1q-43 -57 -129 -57q-135 0 -135 151q0 48 12.5 109t31.5 101q54 110 170 110zM274 366q-42 0 -63 -44q-22 -44 -22 -108q0 -58 49 -58q42 0 64 43q23 44 23 108q0 59 -51 59z" />
    <glyph glyph-name="Hcircumflex" unicode="&#x124;" horiz-adv-x="661" 
d="M409 898h87q11 0 17 -10l80 -136q2 -4 0.5 -7t-6.5 -3h-87q-11 0 -19 10l-39 51h-1l-58 -51q-10 -10 -24 -10h-95q-5 0 -6 3t3 7l128 136q9 10 20 10zM467 680h248q10 0 8 -10l-19 -111q-2 -10 -12 -10h-34q-6 0 -7 -6l-72 -406q-1 -6 5 -6h34q10 0 8 -10l-19 -111
q-2 -10 -12 -10h-247q-10 0 -8 10l19 111q2 10 12 10h33q6 0 8 6l22 126q2 6 -5 6h-175q-4 0 -6 -6l-23 -126q-1 -6 5 -6h34q10 0 8 -10l-19 -111q-2 -10 -12 -10h-247q-10 0 -8 10l19 111q2 10 12 10h33q6 0 8 6l72 406q2 6 -5 6h-34q-10 0 -8 10l19 111q2 10 12 10h247
q10 0 8 -10l-19 -111q-2 -10 -12 -10h-33q-7 0 -8 -6l-20 -117q-1 -6 4 -6h175q6 0 7 6l21 117q2 6 -4 6h-35q-10 0 -8 10l19 111q2 10 11 10z" />
    <glyph glyph-name="uni0125" unicode="&#x125;" horiz-adv-x="569" 
d="M370 898h87q11 0 17 -10l80 -136q2 -4 0 -7t-6 -3h-87q-11 0 -19 10l-39 51h-1l-58 -51q-10 -10 -24 -10h-95q-5 0 -6 3t3 7l128 136q9 10 20 10zM117 680h186q10 0 8 -10l-42 -230h1q49 58 133 58q66 0 97.5 -34.5t31.5 -93.5q0 -29 -5 -53l-32 -180q-1 -6 5 -6h28
q10 0 8 -10l-19 -111q-2 -10 -12 -10h-223q-10 0 -8 10l19 111q2 10 11 10h24q6 0 7 6l27 152q2 16 2 24q0 51 -48 51q-28 0 -47 -19.5t-26 -54.5l-27 -153q-2 -6 5 -6h23q10 0 8 -10l-19 -111q-2 -10 -11 -10h-225q-10 0 -8 10l19 111q2 10 12 10h29q5 0 7 6l72 406
q2 6 -5 6h-29q-10 0 -8 10l19 111q2 10 12 10z" />
    <glyph glyph-name="Hbar" unicode="&#x126;" horiz-adv-x="661" 
d="M467 680h248q10 0 8 -10l-19 -111q-2 -10 -12 -10h-34q-6 0 -7 -6l-4 -26q-1 -6 5 -6h27q10 0 8 -10l-11 -60q-2 -10 -11 -10h-28q-5 0 -7 -6l-51 -288q-1 -6 5 -6h34q10 0 8 -10l-19 -111q-2 -10 -12 -10h-247q-10 0 -8 10l19 111q2 10 12 10h33q6 0 8 6l22 126
q2 6 -5 6h-174q-5 0 -7 -6l-23 -126q-1 -6 5 -6h34q10 0 8 -10l-19 -111q-2 -10 -12 -10h-247q-10 0 -8 10l19 111q2 10 12 10h33q6 0 8 6l50 288q2 6 -4 6h-30q-10 0 -8 10l11 60q2 10 11 10h30q6 0 7 6l5 26q2 6 -5 6h-34q-10 0 -8 10l19 111q2 10 12 10h247q10 0 8 -10
l-19 -111q-2 -10 -12 -10h-33q-7 0 -8 -6l-4 -26q-1 -6 4 -6h176q5 0 7 6l4 26q2 6 -4 6h-35q-10 0 -8 10l19 111q2 10 11 10zM458 431h-175q-5 0 -7 -6l-5 -31q-1 -6 4 -6h175q6 0 7 6l6 31q1 6 -5 6z" />
    <glyph glyph-name="hbar" unicode="&#x127;" horiz-adv-x="569" 
d="M161 680h142q10 0 8 -10l-5 -25q-2 -6 5 -6h94q9 0 7 -10l-14 -77q-2 -10 -11 -10h-93q-6 0 -7 -6l-18 -96h1q49 58 133 58q66 0 97.5 -34.5t31.5 -93.5q0 -27 -5 -53l-32 -180q-1 -6 5 -6h28q10 0 8 -10l-19 -111q-2 -10 -12 -10h-223q-10 0 -8 10l19 111q2 10 11 10h24
q6 0 7 6l27 152q2 13 2 24q0 51 -48 51q-28 0 -47 -19.5t-26 -54.5l-27 -153q-2 -6 5 -6h23q10 0 8 -10l-19 -111q-2 -10 -11 -10h-225q-10 0 -8 10l19 111q2 10 12 10h29q5 0 7 6l71 399q1 6 -5 6h-23q-10 0 -8 10l14 77q2 10 11 10h23q5 0 7 6l4 25q2 10 11 10z" />
    <glyph glyph-name="Itilde" unicode="&#x128;" horiz-adv-x="307" 
d="M211 891q36 0 78 -24q27 -17 54 -17q37 0 78 32q4 3 7.5 1.5t2.5 -5.5l-14 -79q-2 -12 -13 -21q-41 -36 -84 -36q-39 0 -78 24q-29 17 -54 17q-37 0 -78 -32q-4 -3 -7.5 -1.5t-2.5 5.5l14 78q2 13 13 22q43 36 84 36zM114 680h247q10 0 8 -10l-19 -111q-2 -10 -12 -10
h-33q-7 0 -8 -6l-72 -406q-1 -6 5 -6h34q10 0 8 -10l-19 -111q-2 -10 -12 -10h-247q-10 0 -8 10l19 111q2 10 12 10h33q6 0 8 6l72 406q2 6 -5 6h-34q-10 0 -8 10l19 111q2 10 12 10z" />
    <glyph glyph-name="itilde" unicode="&#x129;" horiz-adv-x="292" 
d="M156 696q40 0 78 -23q29 -18 54 -18q36 0 78 33q4 3 7.5 1.5t2.5 -6.5l-14 -78q-3 -13 -13 -22q-41 -35 -84 -35q-37 0 -78 23q-29 18 -54 18q-36 0 -78 -33q-4 -3 -7.5 -1.5t-2.5 6.5l14 78q3 14 13 22q43 35 84 35zM83 487h186q10 0 8 -10l-61 -340q-2 -6 5 -6h29
q10 0 8 -10l-19 -111q-2 -10 -12 -10h-230q-10 0 -8 10l19 111q2 10 12 10h29q5 0 7 6l38 213q2 6 -5 6h-29q-10 0 -8 10l19 111q2 10 12 10z" />
    <glyph glyph-name="Imacron" unicode="&#x12a;" horiz-adv-x="307" 
d="M121 870h291q10 0 8 -10l-15 -87q-2 -10 -11 -10h-291q-10 0 -8 10l15 87q2 10 11 10zM114 680h247q10 0 8 -10l-19 -111q-2 -10 -12 -10h-33q-7 0 -8 -6l-72 -406q-1 -6 5 -6h34q10 0 8 -10l-19 -111q-2 -10 -12 -10h-247q-10 0 -8 10l19 111q2 10 12 10h33q6 0 8 6
l72 406q2 6 -5 6h-34q-10 0 -8 10l19 111q2 10 12 10z" />
    <glyph glyph-name="imacron" unicode="&#x12b;" horiz-adv-x="292" 
d="M73 673h291q10 0 8 -10l-15 -87q-2 -10 -11 -10h-291q-10 0 -8 10l15 87q2 10 11 10zM83 487h186q10 0 8 -10l-61 -340q-2 -6 5 -6h29q10 0 8 -10l-19 -111q-2 -10 -12 -10h-230q-10 0 -8 10l19 111q2 10 12 10h29q5 0 7 6l38 213q2 6 -5 6h-29q-10 0 -8 10l19 111
q2 10 12 10z" />
    <glyph glyph-name="Ibreve" unicode="&#x12c;" horiz-adv-x="307" 
d="M355 885h62q12 0 10 -11q-11 -59 -63 -99t-116 -40q-60 0 -96.5 33t-36.5 85q0 13 1 20q2 12 13 12h62q11 0 14 -11q8 -41 58 -41q52 0 75 41q6 11 17 11zM114 680h247q10 0 8 -10l-19 -111q-2 -10 -12 -10h-33q-7 0 -8 -6l-72 -406q-1 -6 5 -6h34q10 0 8 -10l-19 -111
q-2 -10 -12 -10h-247q-10 0 -8 10l19 111q2 10 12 10h33q6 0 8 6l72 406q2 6 -5 6h-34q-10 0 -8 10l19 111q2 10 12 10z" />
    <glyph glyph-name="ibreve" unicode="&#x12d;" horiz-adv-x="292" 
d="M300 690h62q12 0 10 -11q-11 -59 -63 -99t-116 -40q-60 0 -96.5 33t-36.5 85q0 13 1 20q2 12 13 12h62q11 0 14 -11q8 -41 58 -41q52 0 75 41q5 11 17 11zM83 487h186q10 0 8 -10l-61 -340q-2 -6 5 -6h29q10 0 8 -10l-19 -111q-2 -10 -12 -10h-230q-10 0 -8 10l19 111
q2 10 12 10h29q5 0 7 6l38 213q2 6 -5 6h-29q-10 0 -8 10l19 111q2 10 12 10z" />
    <glyph glyph-name="Iogonek" unicode="&#x12e;" horiz-adv-x="307" 
d="M114 680h247q10 0 8 -10l-19 -111q-2 -10 -12 -10h-33q-7 0 -8 -6l-72 -406q-1 -6 5 -6h34q10 0 8 -10l-19 -111q-2 -10 -12 -10h-48q-83 -40 -83 -71q0 -13 14 -13q10 0 24 8q10 6 13 -3l24 -68q2 -9 -5 -13q-51 -30 -101 -30q-42 0 -67 21.5t-25 56.5q0 61 63 112h-56
q-10 0 -8 10l19 111q2 10 12 10h33q6 0 8 6l72 406q2 6 -5 6h-34q-10 0 -8 10l19 111q2 10 12 10z" />
    <glyph glyph-name="uni012F" unicode="&#x12f;" horiz-adv-x="292" 
d="M161 680h142q10 0 8 -10l-19 -107q-2 -10 -11 -10h-142q-10 0 -8 10l19 107q2 10 11 10zM83 487h186q10 0 8 -10l-61 -340q-2 -6 5 -6h29q10 0 8 -10l-19 -111q-2 -10 -12 -10h-41q-82 -39 -82 -71q0 -13 14 -13q10 0 24 8q10 5 13 -3l24 -68q3 -8 -5 -13
q-49 -30 -101 -30q-43 0 -68 21t-25 57q0 61 63 112h-46q-10 0 -8 10l19 111q2 10 12 10h29q5 0 7 6l38 213q2 6 -5 6h-29q-10 0 -8 10l19 111q2 10 12 10z" />
    <glyph glyph-name="Idotaccent" unicode="&#x130;" horiz-adv-x="307" 
d="M204 879h133q10 0 8 -10l-19 -107q-2 -10 -11 -10h-133q-10 0 -8 10l19 107q2 10 11 10zM114 680h247q10 0 8 -10l-19 -111q-2 -10 -12 -10h-33q-7 0 -8 -6l-72 -406q-1 -6 5 -6h34q10 0 8 -10l-19 -111q-2 -10 -12 -10h-247q-10 0 -8 10l19 111q2 10 12 10h33q6 0 8 6
l72 406q2 6 -5 6h-34q-10 0 -8 10l19 111q2 10 12 10z" />
    <glyph glyph-name="dotlessi" unicode="&#x131;" horiz-adv-x="292" 
d="M83 487h186q10 0 8 -10l-61 -340q-2 -6 5 -6h29q10 0 8 -10l-19 -111q-2 -10 -12 -10h-230q-10 0 -8 10l19 111q2 10 12 10h29q5 0 7 6l38 213q2 6 -5 6h-29q-10 0 -8 10l19 111q2 10 12 10z" />
    <glyph glyph-name="IJ" unicode="&#x132;" horiz-adv-x="826" 
d="M114 680h247q10 0 8 -10l-19 -111q-2 -10 -12 -10h-33q-7 0 -8 -6l-72 -406q-1 -6 5 -6h34q10 0 8 -10l-19 -111q-2 -10 -12 -10h-247q-10 0 -8 10l19 111q2 10 12 10h33q6 0 8 6l72 406q2 6 -5 6h-34q-10 0 -8 10l19 111q2 10 12 10zM640 680h248q10 0 8 -10l-19 -111
q-2 -10 -12 -10h-33q-6 0 -7 -6l-51 -287q-47 -268 -289 -268q-114 0 -184 42q-7 4 -6 15l28 154q2 10 11 10h136q10 0 8 -10l-8 -46q-1 -6 4 -9q12 -5 31 -5q82 0 99 104l54 300q2 6 -5 6h-36q-10 0 -8 10l19 111q2 10 12 10z" />
    <glyph glyph-name="ij" unicode="&#x133;" horiz-adv-x="573" 
d="M161 680h142q10 0 8 -10l-19 -107q-2 -10 -11 -10h-142q-10 0 -8 10l19 107q2 10 11 10zM451 680h142q10 0 8 -10l-19 -107q-2 -10 -11 -10h-142q-10 0 -8 10l19 107q2 10 11 10zM83 487h186q10 0 8 -10l-61 -340q-2 -6 5 -6h29q10 0 8 -10l-19 -111q-2 -10 -12 -10h-230
q-10 0 -8 10l19 111q2 10 12 10h29q5 0 7 6l38 213q2 6 -5 6h-29q-10 0 -8 10l19 111q2 10 12 10zM373 487h186q10 0 8 -10l-83 -467q-19 -110 -69 -150t-156 -40h-35q-9 0 -7 10l20 113q2 10 11 10h13q29 0 42.5 11.5t19.5 45.5l61 340q2 6 -5 6h-29q-10 0 -8 10l19 111
q2 10 12 10z" />
    <glyph glyph-name="Jcircumflex" unicode="&#x134;" horiz-adv-x="519" 
d="M452 898h87q11 0 17 -10l80 -136q2 -4 0 -7t-6 -3h-87q-11 0 -19 10l-39 51h-1l-58 -51q-10 -10 -24 -10h-95q-5 0 -6 3t3 7l128 136q9 10 20 10zM333 680h248q10 0 8 -10l-19 -111q-2 -10 -12 -10h-33q-5 0 -7 -6l-51 -287q-47 -268 -289 -268q-114 0 -184 42
q-8 4 -6 15l28 154q2 10 11 10h136q10 0 8 -10l-8 -46q-1 -6 4 -9q12 -5 31 -5q82 0 99 104l54 300q1 6 -5 6h-36q-10 0 -8 10l19 111q2 10 12 10z" />
    <glyph glyph-name="jcircumflex" unicode="&#x135;" horiz-adv-x="281" 
d="M175 701h87q12 0 17 -9l80 -137q2 -4 0.5 -7t-6.5 -3h-87q-12 0 -20 10l-38 52h-2l-57 -52q-11 -10 -24 -10h-95q-4 0 -5.5 3t1.5 7l129 137q8 9 20 9zM81 487h186q10 0 8 -10l-83 -467q-19 -110 -69 -150t-156 -40h-35q-9 0 -7 10l20 113q2 10 11 10h13q29 0 42.5 11.5
t19.5 45.5l61 340q2 6 -5 6h-29q-10 0 -8 10l19 111q2 10 12 10z" />
    <glyph glyph-name="Kcommaaccent" unicode="&#x136;" horiz-adv-x="641" 
d="M434 680h243q10 0 8 -10l-19 -111q-2 -10 -12 -10h-26q-6 0 -12 -6l-164 -155l90 -251q3 -6 8 -6h55q10 0 8 -10l-19 -111q-2 -10 -12 -10h-161q-12 0 -15 10l-86 252l-87 -82l-8 -43q-1 -6 5 -6h34q10 0 8 -10l-19 -111q-2 -10 -12 -10h-247q-10 0 -8 10l19 111
q2 10 12 10h33q6 0 8 6l72 406q2 6 -5 6h-34q-10 0 -8 10l19 111q2 10 12 10h247q10 0 8 -10l-19 -111q-2 -10 -12 -10h-34q-6 0 -7 -6l-27 -149l157 148q2 2 1.5 4.5t-4.5 2.5h-13q-10 0 -8 10l19 111q2 10 12 10zM240 -46h115q11 0 9 -10l-15 -87q-3 -15 -13 -21l-112 -73
q-11 -7 -17 -7q-11 0 -9 11l31 177q2 10 11 10z" />
    <glyph glyph-name="kcommaaccent" unicode="&#x137;" horiz-adv-x="540" 
d="M115 680h186q10 0 8 -10l-58 -330l132 138q8 9 20 9h124q10 0 8 -10l-19 -111q-2 -10 -11 -10h-59q-6 0 -10 -4l-48 -45l59 -170q2 -6 8 -6h40q10 0 8 -10l-19 -111q-2 -10 -11 -10h-134q-10 0 -13 10l-59 184l-50 -47l-24 -137q-2 -10 -11 -10h-185q-10 0 -8 10l19 111
q2 10 12 10h28q6 0 8 6l70 405q1 7 -5 7h-29q-10 0 -8 10l19 111q2 10 12 10zM194 -46h115q11 0 9 -10l-15 -87q-3 -15 -13 -21l-112 -73q-11 -7 -17 -7q-11 0 -9 11l31 177q2 10 11 10z" />
    <glyph glyph-name="kgreenlandic" unicode="&#x138;" horiz-adv-x="540" 
d="M403 487h124q10 0 8 -10l-19 -111q-2 -10 -11 -10h-59q-6 0 -10 -4l-48 -45l59 -170q2 -6 8 -6h40q10 0 8 -10l-19 -111q-2 -10 -11 -10h-134q-10 0 -13 10l-59 184l-50 -47l-24 -137q-2 -10 -11 -10h-185q-10 0 -8 10l19 111q2 10 12 10h28q6 0 8 6l37 212q1 7 -5 7h-29
q-10 0 -8 10l19 111q2 10 12 10h186q10 0 8 -10l-25 -137l132 138q8 9 20 9z" />
    <glyph glyph-name="Lacute" unicode="&#x139;" horiz-adv-x="534" 
d="M329 889h135q5 0 6.5 -3t-2.5 -7l-145 -122q-11 -10 -22 -10h-109q-4 0 -5.5 3t1.5 7l119 122q10 10 22 10zM113 680h248q10 0 8 -10l-19 -111q-2 -10 -12 -10h-33q-7 0 -8 -6l-70 -398q-1 -6 4 -6h121q6 0 7 6l8 44q2 10 11 10h126q10 0 8 -10l-32 -179q-2 -10 -11 -10
h-475q-10 0 -8 10l19 111q2 10 12 10h33q7 0 8 6l72 406q2 6 -5 6h-34q-10 0 -8 10l19 111q2 10 11 10z" />
    <glyph glyph-name="lacute" unicode="&#x13a;" horiz-adv-x="289" 
d="M302 889h135q5 0 6.5 -3t-2.5 -7l-145 -122q-11 -10 -22 -10h-109q-5 0 -6 3t2 7l119 122q10 10 22 10zM96 680h185q11 0 9 -10l-90 -491q-2 -14 -2 -18q0 -30 33 -30h19q10 0 8 -10l-19 -114q-2 -10 -11 -10h-56q-74 0 -107 25.5t-33 82.5q0 25 6 58l68 379q1 7 -5 7
h-28q-10 0 -8 10l19 111q2 10 12 10z" />
    <glyph glyph-name="Lcommaaccent" unicode="&#x13b;" horiz-adv-x="534" 
d="M113 680h248q10 0 8 -10l-19 -111q-2 -10 -12 -10h-33q-7 0 -8 -6l-70 -398q-1 -6 4 -6h121q6 0 7 6l8 44q2 10 11 10h126q10 0 8 -10l-32 -179q-2 -10 -11 -10h-475q-10 0 -8 10l19 111q2 10 12 10h33q7 0 8 6l72 406q2 6 -5 6h-34q-10 0 -8 10l19 111q2 10 11 10z
M190 -46h115q11 0 9 -10l-15 -87q-3 -15 -13 -21l-112 -73q-11 -7 -17 -7q-11 0 -9 11l31 177q2 10 11 10z" />
    <glyph glyph-name="lcommaaccent" unicode="&#x13c;" horiz-adv-x="289" 
d="M96 680h185q11 0 9 -10l-90 -491q-2 -14 -2 -18q0 -30 33 -30h19q10 0 8 -10l-19 -114q-2 -10 -11 -10h-56q-74 0 -107 25.5t-33 82.5q0 25 6 58l68 379q1 7 -5 7h-28q-10 0 -8 10l19 111q2 10 12 10zM72 -46h115q11 0 9 -10l-15 -87q-3 -15 -13 -21l-112 -73
q-11 -7 -17 -7q-11 0 -9 11l31 177q2 10 11 10z" />
    <glyph glyph-name="Lcaron" unicode="&#x13d;" horiz-adv-x="534" 
d="M113 680h248q10 0 8 -10l-19 -111q-2 -10 -12 -10h-33q-7 0 -8 -6l-70 -398q-1 -6 4 -6h121q6 0 7 6l8 44q2 10 11 10h126q10 0 8 -10l-32 -179q-2 -10 -11 -10h-475q-10 0 -8 10l19 111q2 10 12 10h33q7 0 8 6l72 406q2 6 -5 6h-34q-10 0 -8 10l19 111q2 10 11 10z
M412 680h105q11 0 9 -10l-17 -92q-3 -15 -12 -21l-102 -74q-10 -7 -16 -7q-12 0 -10 12l32 182q2 10 11 10z" />
    <glyph glyph-name="lcaron" unicode="&#x13e;" horiz-adv-x="289" 
d="M96 680h185q11 0 9 -10l-90 -491q-2 -14 -2 -18q0 -30 33 -30h19q10 0 8 -10l-19 -114q-2 -10 -11 -10h-56q-74 0 -107 25.5t-33 82.5q0 25 6 58l68 379q1 7 -5 7h-28q-10 0 -8 10l19 111q2 10 12 10zM334 680h105q11 0 9 -10l-17 -92q-3 -15 -12 -21l-102 -74
q-10 -7 -16 -7q-12 0 -10 12l32 182q2 10 11 10z" />
    <glyph glyph-name="Ldot" unicode="&#x13f;" horiz-adv-x="534" 
d="M113 680h248q10 0 8 -10l-19 -111q-2 -10 -12 -10h-33q-7 0 -8 -6l-70 -398q-1 -6 4 -6h121q6 0 7 6l8 44q2 10 11 10h126q10 0 8 -10l-32 -179q-2 -10 -11 -10h-475q-10 0 -8 10l19 111q2 10 12 10h33q7 0 8 6l72 406q2 6 -5 6h-34q-10 0 -8 10l19 111q2 10 11 10z
M389 421h134q11 0 9 -10l-24 -134q-2 -10 -11 -10h-133q-11 0 -9 10l23 134q2 10 11 10z" />
    <glyph glyph-name="ldot" unicode="&#x140;" horiz-adv-x="289" 
d="M96 680h185q11 0 9 -10l-90 -491q-2 -14 -2 -18q0 -30 33 -30h19q10 0 8 -10l-19 -114q-2 -10 -11 -10h-56q-74 0 -107 25.5t-33 82.5q0 25 6 58l68 379q1 7 -5 7h-28q-10 0 -8 10l19 111q2 10 12 10zM291 406h134q11 0 9 -10l-24 -134q-2 -10 -11 -10h-133q-11 0 -9 10
l23 134q2 10 11 10z" />
    <glyph glyph-name="Lslash" unicode="&#x141;" horiz-adv-x="534" 
d="M113 680h248q10 0 8 -10l-19 -111q-2 -10 -12 -10h-33q-7 0 -8 -6l-16 -93l136 64q4 2 6.5 0.5t1.5 -6.5l-19 -103q-2 -10 -10 -14l-137 -64l-32 -182q-1 -6 4 -6h121q6 0 7 6l8 44q2 10 11 10h126q10 0 8 -10l-32 -179q-2 -10 -11 -10h-475q-10 0 -8 10l19 111
q2 10 12 10h33q7 0 8 6l18 104l-45 -21q-4 -2 -7 -0.5t-2 6.5l18 102q2 11 11 15l47 22l32 178q2 6 -5 6h-34q-10 0 -8 10l19 111q2 10 11 10z" />
    <glyph glyph-name="lslash" unicode="&#x142;" horiz-adv-x="289" 
d="M96 680h185q11 0 9 -10l-41 -220l66 31q4 2 7 0t2 -7l-18 -98q-2 -10 -11 -15l-68 -33l-27 -149q-2 -14 -2 -18q0 -30 33 -30h19q10 0 8 -10l-19 -114q-2 -10 -11 -10h-56q-74 0 -107 25.5t-33 82.5q0 25 6 58l15 87l-34 -16q-4 -2 -7 -0.5t-2 6.5l18 99q1 10 10 14
l37 17l31 172q1 7 -5 7h-28q-10 0 -8 10l19 111q2 10 12 10z" />
    <glyph glyph-name="Nacute" unicode="&#x143;" horiz-adv-x="660" 
d="M485 889h135q5 0 6.5 -3t-2.5 -7l-145 -122q-11 -10 -22 -10h-109q-4 0 -5.5 3t1.5 7l119 122q10 10 22 10zM481 680h233q10 0 8 -10l-19 -111q-2 -10 -11 -10h-35q-5 0 -7 -6l-95 -533q-2 -10 -11 -10h-142q-10 0 -14 10l-126 393h-4l-47 -266q-1 -6 4 -6h35q10 0 8 -10
l-19 -111q-2 -10 -12 -10h-233q-10 0 -8 10l19 111q2 10 12 10h33q6 0 8 6l72 406q2 6 -5 6h-34q-10 0 -8 10l19 111q2 10 12 10h190q12 0 15 -10l127 -394h4l47 267q1 6 -5 6h-34q-10 0 -8 10l19 111q2 10 12 10z" />
    <glyph glyph-name="nacute" unicode="&#x144;" horiz-adv-x="569" 
d="M382 702h134q5 0 6 -3t-3 -7l-123 -136q-10 -10 -20 -10h-110q-4 0 -5.5 3t1.5 7l101 136q7 10 19 10zM403 498q66 0 97.5 -34.5t31.5 -93.5q0 -27 -5 -52l-32 -181q-1 -6 5 -6h28q10 0 8 -10l-19 -111q-2 -10 -12 -10h-223q-10 0 -8 10l19 111q2 10 11 10h24q6 0 7 6
l27 152q2 13 2 24q0 51 -48 51q-28 0 -47 -19.5t-26 -54.5l-27 -153q-2 -6 5 -6h23q10 0 8 -10l-19 -111q-2 -10 -11 -10h-225q-10 0 -8 10l19 111q2 10 12 10h29q5 0 7 6l38 213q2 6 -5 6h-29q-10 0 -8 10l19 111q2 10 12 10h186q9 0 7 -10l-7 -37h1q49 58 133 58z" />
    <glyph glyph-name="Ncommaaccent" unicode="&#x145;" horiz-adv-x="660" 
d="M481 680h233q10 0 8 -10l-19 -111q-2 -10 -11 -10h-35q-5 0 -7 -6l-95 -533q-2 -10 -11 -10h-142q-10 0 -14 10l-126 393h-4l-47 -266q-1 -6 4 -6h35q10 0 8 -10l-19 -111q-2 -10 -12 -10h-233q-10 0 -8 10l19 111q2 10 12 10h33q6 0 8 6l72 406q2 6 -5 6h-34
q-10 0 -8 10l19 111q2 10 12 10h190q12 0 15 -10l127 -394h4l47 267q1 6 -5 6h-34q-10 0 -8 10l19 111q2 10 12 10zM251 -46h115q11 0 9 -10l-15 -87q-3 -15 -13 -21l-112 -73q-11 -7 -17 -7q-11 0 -9 11l31 177q2 10 11 10z" />
    <glyph glyph-name="ncommaaccent" unicode="&#x146;" horiz-adv-x="569" 
d="M403 498q66 0 97.5 -34.5t31.5 -93.5q0 -27 -5 -52l-32 -181q-1 -6 5 -6h28q10 0 8 -10l-19 -111q-2 -10 -12 -10h-223q-10 0 -8 10l19 111q2 10 11 10h24q6 0 7 6l27 152q2 13 2 24q0 51 -48 51q-28 0 -47 -19.5t-26 -54.5l-27 -153q-2 -6 5 -6h23q10 0 8 -10l-19 -111
q-2 -10 -11 -10h-225q-10 0 -8 10l19 111q2 10 12 10h29q5 0 7 6l38 213q2 6 -5 6h-29q-10 0 -8 10l19 111q2 10 12 10h186q9 0 7 -10l-7 -37h1q49 58 133 58zM191 -46h115q11 0 9 -10l-15 -87q-3 -15 -13 -21l-112 -73q-11 -7 -17 -7q-11 0 -9 11l31 177q2 10 11 10z" />
    <glyph glyph-name="Ncaron" unicode="&#x147;" horiz-adv-x="660" 
d="M511 892h95q4 0 5.5 -3t-1.5 -7l-129 -136q-9 -10 -20 -10h-86q-12 0 -18 10l-80 136q-2 4 -0.5 7t6.5 3h87q12 0 20 -10l38 -51h2l57 51q10 10 24 10zM481 680h233q10 0 8 -10l-19 -111q-2 -10 -11 -10h-35q-5 0 -7 -6l-95 -533q-2 -10 -11 -10h-142q-10 0 -14 10
l-126 393h-4l-47 -266q-1 -6 4 -6h35q10 0 8 -10l-19 -111q-2 -10 -12 -10h-233q-10 0 -8 10l19 111q2 10 12 10h33q6 0 8 6l72 406q2 6 -5 6h-34q-10 0 -8 10l19 111q2 10 12 10h190q12 0 15 -10l127 -394h4l47 267q1 6 -5 6h-34q-10 0 -8 10l19 111q2 10 12 10z" />
    <glyph glyph-name="ncaron" unicode="&#x148;" horiz-adv-x="569" 
d="M429 698h95q4 0 5.5 -3t-1.5 -7l-129 -136q-9 -10 -20 -10h-87q-11 0 -17 10l-80 136q-2 4 -0.5 7t6.5 3h87q12 0 20 -10l38 -51h2l57 51q10 10 24 10zM403 498q66 0 97.5 -34.5t31.5 -93.5q0 -27 -5 -52l-32 -181q-1 -6 5 -6h28q10 0 8 -10l-19 -111q-2 -10 -12 -10
h-223q-10 0 -8 10l19 111q2 10 11 10h24q6 0 7 6l27 152q2 13 2 24q0 51 -48 51q-28 0 -47 -19.5t-26 -54.5l-27 -153q-2 -6 5 -6h23q10 0 8 -10l-19 -111q-2 -10 -11 -10h-225q-10 0 -8 10l19 111q2 10 12 10h29q5 0 7 6l38 213q2 6 -5 6h-29q-10 0 -8 10l19 111
q2 10 12 10h186q9 0 7 -10l-7 -37h1q49 58 133 58z" />
    <glyph glyph-name="uni0149" unicode="&#x149;" horiz-adv-x="569" 
d="M52 680h105q11 0 9 -10l-17 -92q-3 -15 -12 -21l-102 -74q-10 -7 -16 -7q-12 0 -10 12l32 182q2 10 11 10zM403 498q66 0 97.5 -34.5t31.5 -93.5q0 -27 -5 -52l-32 -181q-1 -6 5 -6h28q10 0 8 -10l-19 -111q-2 -10 -12 -10h-223q-10 0 -8 10l19 111q2 10 11 10h24
q6 0 7 6l27 152q2 13 2 24q0 51 -48 51q-28 0 -47 -19.5t-26 -54.5l-27 -153q-2 -6 5 -6h23q10 0 8 -10l-19 -111q-2 -10 -11 -10h-225q-10 0 -8 10l19 111q2 10 12 10h29q5 0 7 6l38 213q2 6 -5 6h-29q-10 0 -8 10l19 111q2 10 12 10h186q9 0 7 -10l-7 -37h1q49 58 133 58z
" />
    <glyph glyph-name="Eng" unicode="&#x14a;" horiz-adv-x="660" 
d="M481 680h233q10 0 8 -10l-19 -111q-2 -10 -11 -10h-35q-5 0 -7 -6l-91 -511q-39 -220 -253 -220h-36q-10 0 -8 10l22 122q2 10 11 10h13q66 0 82 52l-128 397h-4l-47 -266q-1 -6 4 -6h35q10 0 8 -10l-19 -111q-2 -10 -12 -10h-233q-10 0 -8 10l19 111q2 10 12 10h33
q6 0 8 6l72 406q2 6 -5 6h-34q-10 0 -8 10l19 111q2 10 12 10h190q12 0 15 -10l127 -394h4l47 267q1 6 -5 6h-34q-10 0 -8 10l19 111q2 10 12 10z" />
    <glyph glyph-name="eng" unicode="&#x14b;" horiz-adv-x="557" 
d="M403 498q66 0 97.5 -34.5t31.5 -93.5q0 -26 -5 -52l-54 -308q-18 -103 -70.5 -146.5t-150.5 -43.5h-36q-10 0 -8 10l20 114q2 10 11 10h13q29 0 41.5 11t18.5 42l49 276q3 17 3 30q0 51 -48 51q-28 0 -47 -19.5t-26 -54.5l-27 -153q-2 -6 5 -6h23q10 0 8 -10l-19 -111
q-2 -10 -11 -10h-225q-10 0 -8 10l19 111q2 10 12 10h29q5 0 7 6l38 213q2 6 -5 6h-29q-10 0 -8 10l19 111q2 10 12 10h186q9 0 7 -10l-7 -37h1q49 58 133 58z" />
    <glyph glyph-name="Omacron" unicode="&#x14c;" horiz-adv-x="604" 
d="M267 870h291q10 0 8 -10l-15 -87q-2 -10 -11 -10h-291q-10 0 -8 10l15 87q2 10 11 10zM381 692q104 0 165 -55t61 -159q0 -57 -20.5 -168t-46.5 -163q-79 -159 -269 -159q-104 0 -165 55t-61 159q0 57 20.5 168t46.5 163q77 159 269 159zM361 541q-65 0 -96 -65
q-14 -28 -31.5 -123t-17.5 -135q0 -37 19.5 -58t55.5 -21q65 0 96 65q14 28 31.5 123t17.5 135q0 37 -19.5 58t-55.5 21z" />
    <glyph glyph-name="omacron" unicode="&#x14d;" horiz-adv-x="511" 
d="M175 673h291q10 0 8 -10l-15 -87q-2 -10 -11 -10h-291q-10 0 -8 10l15 87q2 10 11 10zM301 499q88 0 139.5 -47t51.5 -135q0 -113 -40 -194q-67 -135 -235 -135q-88 0 -139.5 47t-51.5 135q0 113 40 194q65 135 235 135zM281 366q-45 0 -66 -44q-10 -21 -19.5 -69.5
t-9.5 -72.5q0 -59 51 -59q45 0 66 44q10 21 19.5 70t9.5 72q0 59 -51 59z" />
    <glyph glyph-name="Obreve" unicode="&#x14e;" horiz-adv-x="604" 
d="M496 885h62q12 0 10 -11q-11 -59 -63 -99t-116 -40q-60 0 -96.5 33t-36.5 85q0 13 1 20q2 12 13 12h62q11 0 14 -11q8 -41 58 -41q52 0 75 41q5 11 17 11zM381 692q104 0 165 -55t61 -159q0 -57 -20.5 -168t-46.5 -163q-79 -159 -269 -159q-104 0 -165 55t-61 159
q0 57 20.5 168t46.5 163q77 159 269 159zM361 541q-65 0 -96 -65q-14 -28 -31.5 -123t-17.5 -135q0 -37 19.5 -58t55.5 -21q65 0 96 65q14 28 31.5 123t17.5 135q0 37 -19.5 58t-55.5 21z" />
    <glyph glyph-name="obreve" unicode="&#x14f;" horiz-adv-x="511" 
d="M414 690h62q12 0 10 -11q-11 -59 -63 -99t-116 -40q-60 0 -96.5 33t-36.5 85q0 13 1 20q2 12 13 12h62q11 0 14 -11q8 -41 58 -41q52 0 75 41q5 11 17 11zM301 499q88 0 139.5 -47t51.5 -135q0 -113 -40 -194q-67 -135 -235 -135q-88 0 -139.5 47t-51.5 135q0 113 40 194
q65 135 235 135zM281 366q-45 0 -66 -44q-10 -21 -19.5 -69.5t-9.5 -72.5q0 -59 51 -59q45 0 66 44q10 21 19.5 70t9.5 72q0 59 -51 59z" />
    <glyph glyph-name="Ohungarumlaut" unicode="&#x150;" horiz-adv-x="604" 
d="M359 886h108q5 0 6.5 -3t-1.5 -7l-108 -118q-9 -10 -21 -10h-92q-5 0 -6 3t2 7l94 118q6 10 18 10zM537 886h108q5 0 6.5 -3t-1.5 -7l-108 -118q-9 -10 -21 -10h-91q-5 0 -6.5 3t1.5 7l94 118q6 10 18 10zM381 692q104 0 165 -55t61 -159q0 -57 -20.5 -168t-46.5 -163
q-79 -159 -269 -159q-104 0 -165 55t-61 159q0 57 20.5 168t46.5 163q77 159 269 159zM361 541q-65 0 -96 -65q-14 -28 -31.5 -123t-17.5 -135q0 -37 19.5 -58t55.5 -21q65 0 96 65q14 28 31.5 123t17.5 135q0 37 -19.5 58t-55.5 21z" />
    <glyph glyph-name="ohungarumlaut" unicode="&#x151;" horiz-adv-x="511" 
d="M269 700h108q5 0 6.5 -3t-1.5 -7l-106 -136q-8 -10 -19 -10h-93q-11 0 -4 10l91 136q7 10 18 10zM446 700h108q5 0 6.5 -3t-1.5 -7l-106 -136q-6 -10 -19 -10h-93q-11 0 -4 10l91 136q7 10 18 10zM301 499q88 0 139.5 -47t51.5 -135q0 -113 -40 -194q-67 -135 -235 -135
q-88 0 -139.5 47t-51.5 135q0 113 40 194q65 135 235 135zM281 366q-45 0 -66 -44q-10 -21 -19.5 -69.5t-9.5 -72.5q0 -59 51 -59q45 0 66 44q10 21 19.5 70t9.5 72q0 59 -51 59z" />
    <glyph glyph-name="OE" unicode="&#x152;" horiz-adv-x="876" 
d="M360 692q81 0 114 -45h1l4 23q2 10 11 10h425q11 0 9 -10l-29 -164q-2 -10 -10 -10h-124q-11 0 -9 10l6 35q2 6 -4 6h-123q-5 0 -7 -6l-22 -125q-2 -6 5 -6h74q5 0 7 6l4 21q2 10 11 10h118q10 0 8 -10l-33 -188q-2 -10 -10 -10h-118q-11 0 -9 10l4 22q1 6 -4 6h-76
q-5 0 -7 -6l-24 -132q-2 -6 5 -6h123q6 0 7 6l7 39q2 10 11 10h124q10 0 8 -10l-29 -168q-2 -10 -11 -10h-426q-11 0 -9 10l4 22h-2q-46 -44 -124 -44q-94 0 -144.5 54.5t-50.5 160.5q0 55 21 166.5t46 162.5q78 160 248 160zM362 541q-65 0 -97 -65q-14 -28 -31.5 -123
t-17.5 -135q0 -36 19 -57.5t56 -21.5q64 0 96 65q14 28 31.5 123t17.5 135q0 36 -19.5 57.5t-54.5 21.5z" />
    <glyph glyph-name="oe" unicode="&#x153;" horiz-adv-x="800" 
d="M594 499q85 0 137 -45t52 -128q0 -39 -14 -119q-2 -10 -12 -10h-279q-8 0 -8 -19q0 -66 84 -66q54 0 112 43q10 6 15 -1l54 -70q6 -8 -2 -16q-89 -80 -216 -80q-94 0 -146 55h-1q-64 -55 -153 -55q-88 0 -139.5 47t-51.5 135q0 113 40 194q65 135 235 135q91 0 139 -55h2
q58 55 152 55zM576 383q-52 0 -74 -45q-10 -18 -10 -36q0 -6 6 -6h126q6 0 8 6q3 12 3 24q0 57 -59 57zM281 366q-45 0 -66 -44q-10 -21 -19.5 -69.5t-9.5 -72.5q0 -59 51 -59q45 0 66 44q10 21 19.5 70t9.5 72q0 59 -51 59z" />
    <glyph glyph-name="Racute" unicode="&#x154;" horiz-adv-x="618" 
d="M437 889h135q5 0 6.5 -3t-2.5 -7l-145 -122q-11 -10 -22 -10h-109q-4 0 -5.5 3t1.5 7l119 122q10 10 22 10zM114 680h308q98 0 150.5 -47.5t52.5 -127.5q0 -74 -40 -130.5t-108 -85.5l44 -152q1 -6 7 -6h48q10 0 8 -10l-20 -111q-2 -10 -11 -10h-152q-11 0 -14 10
l-61 253h-73q-5 0 -7 -6l-21 -120q-1 -6 5 -6h34q10 0 8 -10l-19 -111q-2 -10 -12 -10h-247q-10 0 -8 10l19 111q2 10 12 10h33q6 0 8 6l72 406q2 6 -5 6h-34q-10 0 -8 10l19 111q2 10 12 10zM388 543h-85q-5 0 -7 -6l-25 -137q-1 -6 5 -6h84q42 1 69 25.5t27 68.5
q0 25 -18 40t-50 15z" />
    <glyph glyph-name="racute" unicode="&#x155;" horiz-adv-x="401" 
d="M334 702h134q5 0 6 -3t-3 -7l-123 -136q-10 -10 -20 -10h-110q-4 0 -5.5 3t1.5 7l101 136q7 10 19 10zM386 492q17 0 35 -4q9 -3 8 -12l-25 -137q-1 -10 -14 -7q-32 8 -54 8q-83 0 -101 -100l-19 -103q-1 -6 5 -6h33q10 0 8 -10l-19 -111q-2 -10 -12 -10h-234
q-10 0 -8 10l19 111q2 10 12 10h29q5 0 7 6l38 213q2 6 -5 6h-29q-10 0 -8 10l19 111q2 10 12 10h185q10 0 8 -10l-8 -46h1q44 61 117 61z" />
    <glyph glyph-name="Rcommaaccent" unicode="&#x156;" horiz-adv-x="618" 
d="M114 680h308q98 0 150.5 -47.5t52.5 -127.5q0 -74 -40 -130.5t-108 -85.5l44 -152q1 -6 7 -6h48q10 0 8 -10l-20 -111q-2 -10 -11 -10h-152q-11 0 -14 10l-61 253h-73q-5 0 -7 -6l-21 -120q-1 -6 5 -6h34q10 0 8 -10l-19 -111q-2 -10 -12 -10h-247q-10 0 -8 10l19 111
q2 10 12 10h33q6 0 8 6l72 406q2 6 -5 6h-34q-10 0 -8 10l19 111q2 10 12 10zM388 543h-85q-5 0 -7 -6l-25 -137q-1 -6 5 -6h84q42 1 69 25.5t27 68.5q0 25 -18 40t-50 15zM220 -46h115q11 0 9 -10l-15 -87q-3 -15 -13 -21l-112 -73q-11 -7 -17 -7q-11 0 -9 11l31 177
q2 10 11 10z" />
    <glyph glyph-name="rcommaaccent" unicode="&#x157;" horiz-adv-x="401" 
d="M386 492q17 0 35 -4q9 -3 8 -12l-25 -137q-1 -10 -14 -7q-32 8 -54 8q-83 0 -101 -100l-19 -103q-1 -6 5 -6h33q10 0 8 -10l-19 -111q-2 -10 -12 -10h-234q-10 0 -8 10l19 111q2 10 12 10h29q5 0 7 6l38 213q2 6 -5 6h-29q-10 0 -8 10l19 111q2 10 12 10h185q10 0 8 -10
l-8 -46h1q44 61 117 61zM45 -46h115q11 0 9 -10l-15 -87q-3 -15 -13 -21l-112 -73q-11 -7 -17 -7q-11 0 -9 11l31 177q2 10 11 10z" />
    <glyph glyph-name="Rcaron" unicode="&#x158;" horiz-adv-x="618" 
d="M462 892h95q5 0 6 -3t-2 -7l-129 -136q-9 -10 -20 -10h-86q-12 0 -18 10l-80 136q-2 4 0 7t6 3h87q13 0 20 -10l38 -51h2l57 51q10 10 24 10zM114 680h308q98 0 150.5 -47.5t52.5 -127.5q0 -74 -40 -130.5t-108 -85.5l44 -152q1 -6 7 -6h48q10 0 8 -10l-20 -111
q-2 -10 -11 -10h-152q-11 0 -14 10l-61 253h-73q-5 0 -7 -6l-21 -120q-1 -6 5 -6h34q10 0 8 -10l-19 -111q-2 -10 -12 -10h-247q-10 0 -8 10l19 111q2 10 12 10h33q6 0 8 6l72 406q2 6 -5 6h-34q-10 0 -8 10l19 111q2 10 12 10zM388 543h-85q-5 0 -7 -6l-25 -137q-1 -6 5 -6
h84q42 1 69 25.5t27 68.5q0 25 -18 40t-50 15z" />
    <glyph glyph-name="rcaron" unicode="&#x159;" horiz-adv-x="401" 
d="M385 698h95q4 0 5.5 -3t-1.5 -7l-129 -136q-9 -10 -20 -10h-87q-11 0 -17 10l-80 136q-2 4 -0.5 7t6.5 3h87q12 0 20 -10l38 -51h2l57 51q10 10 24 10zM386 492q17 0 35 -4q9 -3 8 -12l-25 -137q-1 -10 -14 -7q-32 8 -54 8q-83 0 -101 -100l-19 -103q-1 -6 5 -6h33
q10 0 8 -10l-19 -111q-2 -10 -12 -10h-234q-10 0 -8 10l19 111q2 10 12 10h29q5 0 7 6l38 213q2 6 -5 6h-29q-10 0 -8 10l19 111q2 10 12 10h185q10 0 8 -10l-8 -46h1q44 61 117 61z" />
    <glyph glyph-name="Sacute" unicode="&#x15a;" horiz-adv-x="582" 
d="M436 889h135q5 0 6.5 -3t-2.5 -7l-145 -122q-11 -10 -22 -10h-109q-5 0 -6 3t2 7l119 122q10 10 22 10zM361 692q125 0 219 -50q8 -5 7 -16l-23 -131q-2 -10 -11 -10h-125q-11 0 -9 10l6 35q1 5 -5 8q-32 13 -69 13q-41 0 -64 -20t-23 -51q0 -24 14.5 -37t56.5 -19l33 -5
q185 -28 185 -172q0 -120 -81 -189.5t-218 -69.5q-128 0 -232 52q-9 5 -8 13l26 145q2 10 11 10h135q10 0 8 -10l-7 -43q-1 -7 5 -10q38 -15 80 -15q50 0 77 22.5t27 57.5q0 24 -15.5 37t-55.5 19l-34 5q-184 27 -184 177q0 112 74.5 178t199.5 66z" />
    <glyph glyph-name="sacute" unicode="&#x15b;" horiz-adv-x="491" 
d="M330 702h134q5 0 6 -3t-3 -7l-123 -136q-10 -10 -20 -10h-110q-4 0 -5.5 3t1.5 7l101 136q7 10 19 10zM293 499q109 0 182 -42q8 -5 7 -13l-18 -98q-2 -10 -11 -10h-119q-10 0 -8 10l4 24q2 7 -4 8q-20 6 -51 6q-29 0 -45 -10.5t-16 -27.5q0 -27 48 -32l51 -5
q147 -16 147 -124q0 -91 -64.5 -144t-181.5 -53q-112 0 -196 41q-8 4 -7 14l20 110q2 10 11 10h121q10 0 8 -10l-5 -30q-1 -7 6 -9q21 -7 60 -7q34 0 53 12t19 32q0 15 -11 22t-41 10l-52 6q-66 7 -102 40t-36 87q0 84 59 133.5t172 49.5z" />
    <glyph glyph-name="Scircumflex" unicode="&#x15c;" horiz-adv-x="582" 
d="M355 898h87q11 0 17 -10l80 -136q2 -4 0.5 -7t-6.5 -3h-87q-11 0 -19 10l-39 51h-1l-58 -51q-10 -10 -24 -10h-95q-5 0 -6 3t3 7l128 136q9 10 20 10zM361 692q125 0 219 -50q8 -5 7 -16l-23 -131q-2 -10 -11 -10h-125q-11 0 -9 10l6 35q1 5 -5 8q-32 13 -69 13
q-41 0 -64 -20t-23 -51q0 -24 14.5 -37t56.5 -19l33 -5q185 -28 185 -172q0 -120 -81 -189.5t-218 -69.5q-128 0 -232 52q-9 5 -8 13l26 145q2 10 11 10h135q10 0 8 -10l-7 -43q-1 -7 5 -10q38 -15 80 -15q50 0 77 22.5t27 57.5q0 24 -15.5 37t-55.5 19l-34 5
q-184 27 -184 177q0 112 74.5 178t199.5 66z" />
    <glyph glyph-name="scircumflex" unicode="&#x15d;" horiz-adv-x="491" 
d="M279 701h87q12 0 17 -9l80 -137q2 -4 0.5 -7t-6.5 -3h-87q-12 0 -20 10l-38 52h-2l-57 -52q-11 -10 -24 -10h-95q-4 0 -5.5 3t1.5 7l129 137q8 9 20 9zM293 499q109 0 182 -42q8 -5 7 -13l-18 -98q-2 -10 -11 -10h-119q-10 0 -8 10l4 24q2 7 -4 8q-20 6 -51 6
q-29 0 -45 -10.5t-16 -27.5q0 -27 48 -32l51 -5q147 -16 147 -124q0 -91 -64.5 -144t-181.5 -53q-112 0 -196 41q-8 4 -7 14l20 110q2 10 11 10h121q10 0 8 -10l-5 -30q-1 -7 6 -9q21 -7 60 -7q34 0 53 12t19 32q0 15 -11 22t-41 10l-52 6q-66 7 -102 40t-36 87
q0 84 59 133.5t172 49.5z" />
    <glyph glyph-name="Scedilla" unicode="&#x15e;" horiz-adv-x="582" 
d="M361 692q125 0 219 -50q8 -5 7 -16l-23 -131q-2 -10 -11 -10h-125q-11 0 -9 10l6 35q1 5 -5 8q-32 13 -69 13q-41 0 -64 -20t-23 -51q0 -24 14.5 -37t56.5 -19l33 -5q185 -28 185 -172q0 -105 -63 -172t-172 -82l-69 -148q-4 -10 -17 -10h-111q-10 0 -5 10l82 146
q-99 10 -176 49q-9 5 -8 13l26 145q2 10 11 10h135q10 0 8 -10l-7 -43q-1 -7 5 -10q38 -15 80 -15q50 0 77 22.5t27 57.5q0 24 -15.5 37t-55.5 19l-34 5q-184 27 -184 177q0 112 74.5 178t199.5 66z" />
    <glyph glyph-name="scedilla" unicode="&#x15f;" horiz-adv-x="491" 
d="M293 499q109 0 182 -42q8 -5 7 -13l-18 -98q-2 -10 -11 -10h-119q-10 0 -8 10l4 24q2 7 -4 8q-20 6 -51 6q-29 0 -45 -10.5t-16 -27.5q0 -27 48 -32l51 -5q147 -16 147 -124q0 -78 -47 -128.5t-135 -63.5l-69 -148q-4 -10 -17 -10h-111q-10 0 -5 10l82 146q-78 7 -140 38
q-8 4 -7 14l20 110q2 10 11 10h121q10 0 8 -10l-5 -30q-1 -7 6 -9q21 -7 60 -7q34 0 53 12t19 32q0 15 -11 22t-41 10l-52 6q-66 7 -102 40t-36 87q0 84 59 133.5t172 49.5z" />
    <glyph glyph-name="Scaron" unicode="&#x160;" horiz-adv-x="582" 
d="M459 892h95q4 0 5.5 -3t-1.5 -7l-129 -136q-9 -10 -20 -10h-86q-12 0 -18 10l-80 136q-2 4 -0.5 7t6.5 3h87q12 0 20 -10l38 -51h2l57 51q10 10 24 10zM361 692q125 0 219 -50q8 -5 7 -16l-23 -131q-2 -10 -11 -10h-125q-11 0 -9 10l6 35q1 5 -5 8q-32 13 -69 13
q-41 0 -64 -20t-23 -51q0 -24 14.5 -37t56.5 -19l33 -5q185 -28 185 -172q0 -120 -81 -189.5t-218 -69.5q-128 0 -232 52q-9 5 -8 13l26 145q2 10 11 10h135q10 0 8 -10l-7 -43q-1 -7 5 -10q38 -15 80 -15q50 0 77 22.5t27 57.5q0 24 -15.5 37t-55.5 19l-34 5
q-184 27 -184 177q0 112 74.5 178t199.5 66z" />
    <glyph glyph-name="scaron" unicode="&#x161;" horiz-adv-x="491" 
d="M384 698h95q5 0 6 -3t-2 -7l-129 -136q-9 -10 -20 -10h-87q-11 0 -17 10l-80 136q-2 4 0 7t6 3h87q13 0 20 -10l38 -51h2l57 51q10 10 24 10zM293 499q109 0 182 -42q8 -5 7 -13l-18 -98q-2 -10 -11 -10h-119q-10 0 -8 10l4 24q2 7 -4 8q-20 6 -51 6q-29 0 -45 -10.5
t-16 -27.5q0 -27 48 -32l51 -5q147 -16 147 -124q0 -91 -64.5 -144t-181.5 -53q-112 0 -196 41q-8 4 -7 14l20 110q2 10 11 10h121q10 0 8 -10l-5 -30q-1 -7 6 -9q21 -7 60 -7q34 0 53 12t19 32q0 15 -11 22t-41 10l-52 6q-66 7 -102 40t-36 87q0 84 59 133.5t172 49.5z" />
    <glyph glyph-name="uni0162" unicode="&#x162;" horiz-adv-x="617" 
d="M104 680h572q11 0 9 -10l-31 -176q-2 -10 -11 -10h-124q-11 0 -9 10l8 43q2 6 -4 6h-58q-6 0 -7 -6l-71 -400q-2 -6 4 -6h47q10 0 8 -10l-19 -111q-2 -10 -11 -10h-272q-10 0 -8 10l19 111q2 10 12 10h46q6 0 7 6l71 400q2 6 -5 6h-56q-7 0 -8 -6l-7 -43q-2 -10 -11 -10
h-124q-10 0 -8 10l30 176q2 10 11 10zM207 -46h115q11 0 9 -10l-15 -87q-3 -15 -13 -21l-112 -73q-11 -7 -17 -7q-11 0 -9 11l31 177q2 10 11 10z" />
    <glyph glyph-name="uni0163" unicode="&#x163;" horiz-adv-x="330" 
d="M151 630h141q10 0 8 -10l-23 -127q-1 -6 4 -6h60q10 0 8 -10l-19 -111q-2 -10 -12 -10h-61q-5 0 -7 -6l-30 -159q-4 -18 -4 -30q0 -17 8.5 -23.5t29.5 -6.5h19q11 0 9 -10l-19 -114q-2 -10 -11 -10h-55q-77 0 -111.5 27.5t-34.5 87.5q0 32 7 66l32 172q2 6 -5 6h-27
q-10 0 -8 10l19 111q2 10 11 10h29q5 0 7 6l23 127q2 10 12 10zM85 -46h115q11 0 9 -10l-15 -87q-3 -15 -13 -21l-112 -73q-11 -7 -17 -7q-11 0 -9 11l31 177q2 10 11 10z" />
    <glyph glyph-name="Tcaron" unicode="&#x164;" horiz-adv-x="617" 
d="M479 892h95q4 0 5.5 -3t-1.5 -7l-129 -136q-9 -10 -20 -10h-86q-12 0 -18 10l-80 136q-2 4 -0.5 7t6.5 3h87q12 0 20 -10l38 -51h2l57 51q10 10 24 10zM104 680h572q11 0 9 -10l-31 -176q-2 -10 -11 -10h-124q-11 0 -9 10l8 43q2 6 -4 6h-58q-6 0 -7 -6l-71 -400
q-2 -6 4 -6h47q10 0 8 -10l-19 -111q-2 -10 -11 -10h-272q-10 0 -8 10l19 111q2 10 12 10h46q6 0 7 6l71 400q2 6 -5 6h-56q-7 0 -8 -6l-7 -43q-2 -10 -11 -10h-124q-10 0 -8 10l30 176q2 10 11 10z" />
    <glyph glyph-name="tcaron" unicode="&#x165;" horiz-adv-x="330" 
d="M402 680h105q11 0 9 -10l-17 -92q-3 -15 -12 -21l-102 -74q-10 -7 -16 -7q-12 0 -10 12l32 182q2 10 11 10zM151 630h141q10 0 8 -10l-23 -127q-1 -6 4 -6h60q10 0 8 -10l-19 -111q-2 -10 -12 -10h-61q-5 0 -7 -6l-30 -159q-4 -18 -4 -30q0 -17 8.5 -23.5t29.5 -6.5h19
q11 0 9 -10l-19 -114q-2 -10 -11 -10h-55q-77 0 -111.5 27.5t-34.5 87.5q0 32 7 66l32 172q2 6 -5 6h-27q-10 0 -8 10l19 111q2 10 11 10h29q5 0 7 6l23 127q2 10 12 10z" />
    <glyph glyph-name="Tbar" unicode="&#x166;" horiz-adv-x="617" 
d="M104 680h572q11 0 9 -10l-31 -176q-2 -10 -11 -10h-124q-11 0 -9 10l8 43q2 6 -4 6h-58q-6 0 -7 -6l-22 -126q-1 -6 5 -6h75q9 0 7 -10l-17 -98q-2 -10 -11 -10h-75q-5 0 -7 -6l-26 -144q-2 -6 4 -6h47q10 0 8 -10l-19 -111q-2 -10 -11 -10h-272q-10 0 -8 10l19 111
q2 10 12 10h46q6 0 7 6l26 144q1 6 -5 6h-73q-11 0 -9 10l17 98q2 10 11 10h75q5 0 7 6l22 126q2 6 -5 6h-56q-7 0 -8 -6l-7 -43q-2 -10 -11 -10h-124q-10 0 -8 10l30 176q2 10 11 10z" />
    <glyph glyph-name="tbar" unicode="&#x167;" horiz-adv-x="330" 
d="M151 630h141q10 0 8 -10l-23 -127q-1 -6 4 -6h60q10 0 8 -10l-19 -111q-2 -10 -12 -10h-61q-5 0 -7 -6l-6 -33q-2 -6 5 -6h47q9 0 7 -10l-12 -69q-2 -10 -11 -10h-48q-6 0 -7 -6l-4 -19q-5 -28 -5 -37q0 -16 9 -22.5t30 -6.5h18q11 0 9 -10l-19 -114q-2 -10 -11 -10h-54
q-78 0 -112.5 27t-34.5 87q0 22 7 66l7 39q1 6 -5 6h-18q-10 0 -8 10l12 69q2 10 12 10h19q5 0 7 6l6 33q2 6 -5 6h-28q-9 0 -7 10l19 111q2 10 11 10h29q5 0 7 6l23 127q2 10 12 10z" />
    <glyph glyph-name="Utilde" unicode="&#x168;" horiz-adv-x="644" 
d="M374 891q36 0 78 -24q27 -17 54 -17q37 0 78 32q4 3 7.5 1.5t2.5 -5.5l-14 -79q-2 -12 -13 -21q-41 -36 -84 -36q-39 0 -78 24q-29 17 -54 17q-37 0 -78 -32q-4 -3 -7.5 -1.5t-2.5 5.5l14 78q2 13 13 22q43 36 84 36zM455 680h248q10 0 8 -10l-19 -111q-2 -10 -12 -10
h-34q-6 0 -7 -6l-50 -284q-26 -145 -97 -208t-194 -63q-109 0 -169.5 53t-60.5 154q0 31 6 69l50 279q2 6 -4 6h-35q-10 0 -8 10l19 111q2 10 12 10h247q10 0 8 -10l-19 -111q-2 -10 -11 -10h-34q-7 0 -8 -6l-51 -291q-3 -18 -3 -32q0 -38 19.5 -59t56.5 -21q44 0 70.5 26
t37.5 86l51 291q2 6 -4 6h-35q-10 0 -8 10l19 111q2 10 11 10z" />
    <glyph glyph-name="utilde" unicode="&#x169;" horiz-adv-x="554" 
d="M280 696q40 0 78 -23q28 -18 54 -18q36 0 78 33q4 3 7.5 1.5t2.5 -6.5l-14 -78q-3 -13 -13 -22q-41 -35 -84 -35q-37 0 -78 23q-29 18 -54 18q-36 0 -78 -33q-4 -3 -7.5 -1.5t-2.5 6.5l14 78q3 14 13 22q43 35 84 35zM344 487h184q10 0 8 -10l-60 -340q-2 -6 5 -6h29
q10 0 8 -10l-19 -111q-2 -10 -12 -10h-186q-10 0 -8 10l6 37h-1q-49 -59 -131 -59q-127 0 -127 127q0 25 6 55l31 180q1 6 -5 6h-27q-10 0 -8 10l19 111q2 10 12 10h183q11 0 9 -10l-49 -274q-3 -13 -3 -27q0 -52 47 -52q28 0 47 19t25 54l27 153q2 6 -5 6h-28q-10 0 -8 10
l19 111q2 10 12 10z" />
    <glyph glyph-name="Umacron" unicode="&#x16a;" horiz-adv-x="644" 
d="M295 870h291q10 0 8 -10l-15 -87q-2 -10 -11 -10h-291q-10 0 -8 10l15 87q2 10 11 10zM455 680h248q10 0 8 -10l-19 -111q-2 -10 -12 -10h-34q-6 0 -7 -6l-50 -284q-26 -145 -97 -208t-194 -63q-109 0 -169.5 53t-60.5 154q0 31 6 69l50 279q2 6 -4 6h-35q-10 0 -8 10
l19 111q2 10 12 10h247q10 0 8 -10l-19 -111q-2 -10 -11 -10h-34q-7 0 -8 -6l-51 -291q-3 -18 -3 -32q0 -38 19.5 -59t56.5 -21q44 0 70.5 26t37.5 86l51 291q2 6 -4 6h-35q-10 0 -8 10l19 111q2 10 11 10z" />
    <glyph glyph-name="umacron" unicode="&#x16b;" horiz-adv-x="554" 
d="M193 673h291q10 0 8 -10l-15 -87q-2 -10 -11 -10h-291q-10 0 -8 10l15 87q2 10 11 10zM344 487h184q10 0 8 -10l-60 -340q-2 -6 5 -6h29q10 0 8 -10l-19 -111q-2 -10 -12 -10h-186q-10 0 -8 10l6 37h-1q-49 -59 -131 -59q-127 0 -127 127q0 25 6 55l31 180q1 6 -5 6h-27
q-10 0 -8 10l19 111q2 10 12 10h183q11 0 9 -10l-49 -274q-3 -13 -3 -27q0 -52 47 -52q28 0 47 19t25 54l27 153q2 6 -5 6h-28q-10 0 -8 10l19 111q2 10 12 10z" />
    <glyph glyph-name="Ubreve" unicode="&#x16c;" horiz-adv-x="644" 
d="M521 885h62q12 0 10 -11q-11 -59 -63 -99t-116 -40q-60 0 -96.5 33t-36.5 85q0 13 1 20q2 12 13 12h62q11 0 14 -11q8 -41 58 -41q52 0 75 41q6 11 17 11zM455 680h248q10 0 8 -10l-19 -111q-2 -10 -12 -10h-34q-6 0 -7 -6l-50 -284q-26 -145 -97 -208t-194 -63
q-109 0 -169.5 53t-60.5 154q0 31 6 69l50 279q2 6 -4 6h-35q-10 0 -8 10l19 111q2 10 12 10h247q10 0 8 -10l-19 -111q-2 -10 -11 -10h-34q-7 0 -8 -6l-51 -291q-3 -18 -3 -32q0 -38 19.5 -59t56.5 -21q44 0 70.5 26t37.5 86l51 291q2 6 -4 6h-35q-10 0 -8 10l19 111
q2 10 11 10z" />
    <glyph glyph-name="ubreve" unicode="&#x16d;" horiz-adv-x="554" 
d="M424 690h62q12 0 10 -11q-11 -59 -63 -99t-116 -40q-60 0 -96.5 33t-36.5 85q0 13 1 20q2 12 13 12h62q11 0 14 -11q8 -41 58 -41q52 0 75 41q5 11 17 11zM344 487h184q10 0 8 -10l-60 -340q-2 -6 5 -6h29q10 0 8 -10l-19 -111q-2 -10 -12 -10h-186q-10 0 -8 10l6 37h-1
q-49 -59 -131 -59q-127 0 -127 127q0 25 6 55l31 180q1 6 -5 6h-27q-10 0 -8 10l19 111q2 10 12 10h183q11 0 9 -10l-49 -274q-3 -13 -3 -27q0 -52 47 -52q28 0 47 19t25 54l27 153q2 6 -5 6h-28q-10 0 -8 10l19 111q2 10 12 10z" />
    <glyph glyph-name="Uring" unicode="&#x16e;" horiz-adv-x="644" 
d="M446 930q42 0 68.5 -25t26.5 -65q0 -56 -37 -95t-95 -39q-42 0 -68.5 25t-26.5 65q0 56 37 95t95 39zM436 864q-21 0 -36 -16t-15 -40q0 -16 9 -26t25 -10q21 0 36 16.5t15 40.5q0 15 -9.5 25t-24.5 10zM455 680h248q10 0 8 -10l-19 -111q-2 -10 -12 -10h-34q-6 0 -7 -6
l-50 -284q-26 -145 -97 -208t-194 -63q-109 0 -169.5 53t-60.5 154q0 31 6 69l50 279q2 6 -4 6h-35q-10 0 -8 10l19 111q2 10 12 10h247q10 0 8 -10l-19 -111q-2 -10 -11 -10h-34q-7 0 -8 -6l-51 -291q-3 -18 -3 -32q0 -38 19.5 -59t56.5 -21q44 0 70.5 26t37.5 86l51 291
q2 6 -4 6h-35q-10 0 -8 10l19 111q2 10 11 10z" />
    <glyph glyph-name="uring" unicode="&#x16f;" horiz-adv-x="554" 
d="M352 744q42 0 68 -25t26 -65q0 -56 -36.5 -95t-94.5 -39q-42 0 -68.5 25t-26.5 65q0 56 37 95t95 39zM341 678q-21 0 -36 -16t-15 -40q0 -16 9.5 -26t25.5 -10q21 0 36 16t15 40q0 16 -9.5 26t-25.5 10zM344 487h184q10 0 8 -10l-60 -340q-2 -6 5 -6h29q10 0 8 -10
l-19 -111q-2 -10 -12 -10h-186q-10 0 -8 10l6 37h-1q-49 -59 -131 -59q-127 0 -127 127q0 25 6 55l31 180q1 6 -5 6h-27q-10 0 -8 10l19 111q2 10 12 10h183q11 0 9 -10l-49 -274q-3 -13 -3 -27q0 -52 47 -52q28 0 47 19t25 54l27 153q2 6 -5 6h-28q-10 0 -8 10l19 111
q2 10 12 10z" />
    <glyph glyph-name="Uhungarumlaut" unicode="&#x170;" horiz-adv-x="644" 
d="M382 886h108q5 0 6.5 -3t-1.5 -7l-108 -118q-9 -10 -21 -10h-92q-4 0 -5.5 3t1.5 7l94 118q6 10 18 10zM560 886h108q5 0 6.5 -3t-1.5 -7l-108 -118q-9 -10 -21 -10h-91q-5 0 -6.5 3t1.5 7l94 118q6 10 18 10zM455 680h248q10 0 8 -10l-19 -111q-2 -10 -12 -10h-34
q-6 0 -7 -6l-50 -284q-26 -145 -97 -208t-194 -63q-109 0 -169.5 53t-60.5 154q0 31 6 69l50 279q2 6 -4 6h-35q-10 0 -8 10l19 111q2 10 12 10h247q10 0 8 -10l-19 -111q-2 -10 -11 -10h-34q-7 0 -8 -6l-51 -291q-3 -18 -3 -32q0 -38 19.5 -59t56.5 -21q44 0 70.5 26
t37.5 86l51 291q2 6 -4 6h-35q-10 0 -8 10l19 111q2 10 11 10z" />
    <glyph glyph-name="uhungarumlaut" unicode="&#x171;" horiz-adv-x="554" 
d="M285 700h108q5 0 6.5 -3t-1.5 -7l-106 -136q-8 -10 -19 -10h-93q-11 0 -4 10l91 136q7 10 18 10zM462 700h108q5 0 6.5 -3t-1.5 -7l-106 -136q-6 -10 -19 -10h-93q-11 0 -4 10l91 136q7 10 18 10zM344 487h184q10 0 8 -10l-60 -340q-2 -6 5 -6h29q10 0 8 -10l-19 -111
q-2 -10 -12 -10h-186q-10 0 -8 10l6 37h-1q-49 -59 -131 -59q-127 0 -127 127q0 25 6 55l31 180q1 6 -5 6h-27q-10 0 -8 10l19 111q2 10 12 10h183q11 0 9 -10l-49 -274q-3 -13 -3 -27q0 -52 47 -52q28 0 47 19t25 54l27 153q2 6 -5 6h-28q-10 0 -8 10l19 111q2 10 12 10z
" />
    <glyph glyph-name="Uogonek" unicode="&#x172;" horiz-adv-x="644" 
d="M455 680h248q10 0 8 -10l-19 -111q-2 -10 -12 -10h-34q-6 0 -7 -6l-50 -284q-23 -130 -82 -193.5t-160 -74.5q-56 -35 -56 -61q0 -14 14 -14q10 0 24 8q10 5 13 -3l24 -68q4 -9 -6 -14q-51 -29 -100 -29q-43 0 -68 21t-25 57q0 60 58 107q-157 33 -157 200q0 31 6 69
l50 279q2 6 -4 6h-35q-10 0 -8 10l19 111q2 10 12 10h247q10 0 8 -10l-19 -111q-2 -10 -11 -10h-34q-7 0 -8 -6l-51 -291q-3 -18 -3 -32q0 -38 19.5 -59t56.5 -21q44 0 70.5 26t37.5 86l51 291q2 6 -4 6h-35q-10 0 -8 10l19 111q2 10 11 10z" />
    <glyph glyph-name="uogonek" unicode="&#x173;" horiz-adv-x="554" 
d="M344 487h184q10 0 8 -10l-60 -340q-2 -6 5 -6h29q10 0 8 -10l-19 -111q-2 -10 -12 -10h-54q-53 -24 -73.5 -40.5t-20.5 -30.5q0 -13 14 -13q10 0 24 8q10 6 13 -3l24 -68q4 -9 -5 -13q-49 -30 -102 -30q-42 0 -67 21.5t-25 56.5q0 61 77 116l7 43h-1q-49 -59 -131 -59
q-127 0 -127 127q0 25 6 55l31 180q1 6 -5 6h-27q-10 0 -8 10l19 111q2 10 12 10h183q11 0 9 -10l-49 -272q-3 -19 -3 -29q0 -52 47 -52q28 0 47 19t25 54l27 153q2 6 -5 6h-28q-10 0 -8 10l19 111q2 10 12 10z" />
    <glyph glyph-name="Wcircumflex" unicode="&#x174;" horiz-adv-x="910" 
d="M534 898h87q11 0 17 -10l80 -136q2 -4 0 -7t-6 -3h-87q-11 0 -19 10l-39 51h-1l-58 -51q-10 -10 -24 -10h-95q-5 0 -6 3t3 7l128 136q9 10 20 10zM732 680h243q10 0 8 -10l-19 -111q-2 -10 -12 -10h-23q-7 0 -9 -5l-242 -534q-4 -10 -13 -10h-125q-10 0 -11 10l-36 392
h-2l-174 -392q-4 -10 -13 -10h-124q-11 0 -12 10l-53 532q0 7 -6 7h-29q-10 0 -8 10l19 111q2 10 12 10h237q10 0 8 -10l-19 -111q-2 -10 -11 -10h-34q-6 0 -6 -6l16 -283h2l174 410q4 10 13 10h103q11 0 12 -10l35 -410h2l113 282q4 7 -4 7h-35q-10 0 -8 10l19 111
q2 10 12 10z" />
    <glyph glyph-name="wcircumflex" unicode="&#x175;" horiz-adv-x="742" 
d="M406 701h87q12 0 17 -9l80 -137q2 -4 0 -7t-6 -3h-87q-13 0 -20 10l-38 52h-2l-57 -52q-11 -10 -24 -10h-95q-5 0 -6 3t2 7l129 137q8 9 20 9zM561 487h209q10 0 8 -10l-19 -111q-2 -10 -11 -10h-24q-5 0 -8 -6l-171 -340q-4 -10 -12 -10h-114q-9 0 -10 10l-26 259h-2
l-119 -259q-4 -10 -15 -10h-112q-10 0 -11 10l-50 340q-1 6 -7 6h-28q-10 0 -8 10l19 111q2 10 11 10h207q10 0 8 -10l-19 -111q-2 -10 -12 -10h-22q-6 0 -6 -7l14 -142h2l120 270q4 10 15 10h95q10 0 11 -10l26 -271h1l63 143q4 7 -4 7h-22q-10 0 -8 10l19 111q2 10 12 10z
" />
    <glyph glyph-name="Ycircumflex" unicode="&#x176;" horiz-adv-x="599" 
d="M378 898h87q11 0 17 -10l80 -136q2 -4 0 -7t-6 -3h-87q-11 0 -19 10l-39 51h-1l-58 -51q-10 -10 -24 -10h-95q-5 0 -6 3t3 7l128 136q9 10 20 10zM425 680h235q10 0 8 -10l-19 -111q-2 -10 -12 -10h-28q-5 0 -10 -6l-201 -280l-23 -126q-1 -6 6 -6h44q10 0 8 -10
l-19 -111q-2 -10 -11 -10h-270q-10 0 -8 10l19 111q2 10 11 10h45q6 0 8 6l22 126l-104 280q-2 6 -9 6h-35q-10 0 -8 10l19 111q2 10 12 10h232q10 0 8 -10l-19 -111q-2 -10 -12 -10h-23q-7 0 -5 -6l47 -133h3l94 132q5 7 -3 7h-24q-10 0 -8 10l19 111q2 10 11 10z" />
    <glyph glyph-name="ycircumflex" unicode="&#x177;" horiz-adv-x="520" 
d="M300 701h87q12 0 17 -9l80 -137q2 -4 0 -7t-6 -3h-87q-13 0 -20 10l-38 52h-2l-57 -52q-11 -10 -24 -10h-95q-5 0 -6 3t2 7l129 137q8 9 20 9zM337 487h208q10 0 8 -10l-19 -111q-2 -10 -11 -10h-23q-5 0 -9 -6l-237 -406q-42 -71 -83 -97.5t-109 -26.5h-38q-10 0 -8 10
l20 114q2 10 12 10h25q45 0 66 44l17 34l-76 319q-1 5 -6 5h-29q-10 0 -8 10l19 111q2 10 11 10h208q10 0 8 -10l-19 -111q-2 -10 -12 -10h-18q-8 0 -6 -7l28 -153h2l80 153q4 7 -4 7h-19q-10 0 -8 10l19 111q2 10 11 10z" />
    <glyph glyph-name="Ydieresis" unicode="&#x178;" horiz-adv-x="599" 
d="M268 879h104q10 0 8 -10l-19 -107q-2 -10 -11 -10h-105q-11 0 -9 10l20 107q2 10 12 10zM466 879h104q10 0 8 -10l-19 -107q-2 -10 -11 -10h-105q-10 0 -8 10l19 107q2 10 12 10zM425 680h235q10 0 8 -10l-19 -111q-2 -10 -12 -10h-28q-5 0 -10 -6l-201 -280l-23 -126
q-1 -6 6 -6h44q10 0 8 -10l-19 -111q-2 -10 -11 -10h-270q-10 0 -8 10l19 111q2 10 11 10h45q6 0 8 6l22 126l-104 280q-2 6 -9 6h-35q-10 0 -8 10l19 111q2 10 12 10h232q10 0 8 -10l-19 -111q-2 -10 -12 -10h-23q-7 0 -5 -6l47 -133h3l94 132q5 7 -3 7h-24q-10 0 -8 10
l19 111q2 10 11 10z" />
    <glyph glyph-name="Zacute" unicode="&#x179;" horiz-adv-x="563" 
d="M433 889h135q5 0 6.5 -3t-2.5 -7l-145 -122q-11 -10 -22 -10h-109q-4 0 -5.5 3t1.5 7l119 122q10 10 22 10zM140 680h460q11 0 9 -10l-23 -126q-1 -7 -5 -12l-359 -385l-1 -3h144q5 0 7 6l7 39q2 10 11 10h126q10 0 8 -10l-31 -179q-2 -10 -11 -10h-472q-11 0 -9 10
l23 129q2 7 6 11l357 385l1 2h-132q-6 0 -7 -6l-7 -37q-2 -10 -11 -10h-126q-10 0 -8 10l32 176q2 10 11 10z" />
    <glyph glyph-name="zacute" unicode="&#x17a;" horiz-adv-x="471" 
d="M335 702h134q5 0 6 -3t-3 -7l-123 -136q-10 -10 -20 -10h-110q-5 0 -6 3t2 7l101 136q7 10 19 10zM93 487h388q9 0 7 -10l-19 -106q-1 -8 -6 -13l-264 -231v-2h90q5 0 7 6l5 27q2 10 11 10h114q11 0 9 -10l-26 -148q-2 -10 -11 -10h-398q-10 0 -8 10l18 105q2 7 6 12
l263 237v2h-78q-7 0 -8 -6l-5 -27q-2 -12 -11 -12h-112q-11 0 -9 10l26 146q1 10 11 10z" />
    <glyph glyph-name="Zdotaccent" unicode="&#x17b;" horiz-adv-x="563" 
d="M323 879h133q10 0 8 -10l-19 -107q-2 -10 -11 -10h-133q-10 0 -8 10l19 107q2 10 11 10zM140 680h460q11 0 9 -10l-23 -126q-1 -7 -5 -12l-359 -385l-1 -3h144q5 0 7 6l7 39q2 10 11 10h126q10 0 8 -10l-31 -179q-2 -10 -11 -10h-472q-11 0 -9 10l23 129q2 7 6 11
l357 385l1 2h-132q-6 0 -7 -6l-7 -37q-2 -10 -11 -10h-126q-10 0 -8 10l32 176q2 10 11 10z" />
    <glyph glyph-name="zdotaccent" unicode="&#x17c;" horiz-adv-x="471" 
d="M245 680h133q10 0 8 -10l-19 -107q-2 -10 -11 -10h-134q-10 0 -8 10l20 107q2 10 11 10zM93 487h388q9 0 7 -10l-19 -106q-1 -8 -6 -13l-264 -231v-2h90q5 0 7 6l5 27q2 10 11 10h114q11 0 9 -10l-26 -148q-2 -10 -11 -10h-398q-10 0 -8 10l18 105q2 7 6 12l263 237v2
h-78q-7 0 -8 -6l-5 -27q-2 -12 -11 -12h-112q-11 0 -9 10l26 146q1 10 11 10z" />
    <glyph glyph-name="Zcaron" unicode="&#x17d;" horiz-adv-x="563" 
d="M460 892h95q5 0 6 -3t-2 -7l-129 -136q-9 -10 -20 -10h-86q-12 0 -18 10l-80 136q-2 4 0 7t6 3h87q13 0 20 -10l38 -51h2l57 51q10 10 24 10zM140 680h460q11 0 9 -10l-23 -126q-1 -7 -5 -12l-359 -385l-1 -3h144q5 0 7 6l7 39q2 10 11 10h126q10 0 8 -10l-31 -179
q-2 -10 -11 -10h-472q-11 0 -9 10l23 129q2 7 6 11l357 385l1 2h-132q-6 0 -7 -6l-7 -37q-2 -10 -11 -10h-126q-10 0 -8 10l32 176q2 10 11 10z" />
    <glyph glyph-name="zcaron" unicode="&#x17e;" horiz-adv-x="471" 
d="M382 698h95q5 0 6 -3t-2 -7l-129 -136q-9 -10 -20 -10h-87q-11 0 -17 10l-80 136q-2 4 0 7t6 3h87q13 0 20 -10l38 -51h2l57 51q10 10 24 10zM93 487h388q9 0 7 -10l-19 -106q-1 -8 -6 -13l-264 -231v-2h90q5 0 7 6l5 27q2 10 11 10h114q11 0 9 -10l-26 -148
q-2 -10 -11 -10h-398q-10 0 -8 10l18 105q2 7 6 12l263 237v2h-78q-7 0 -8 -6l-5 -27q-2 -12 -11 -12h-112q-11 0 -9 10l26 146q1 10 11 10z" />
    <glyph glyph-name="florin" unicode="&#x192;" 
d="M503 680h36q11 0 9 -10l-20 -113q-2 -10 -12 -10h-21q-49 0 -65 -53l-23 -71h66q10 0 8 -10l-18 -99q-2 -10 -11 -10h-84l-99 -307q-31 -97 -84 -137t-144 -40h-35q-11 0 -9 10l20 113q2 10 11 10h21q26 0 41 12t24 41l97 298h-57q-10 0 -8 10l18 99q2 10 12 10h74l26 80
q32 97 85 137t142 40z" />
    <glyph glyph-name="Scommaaccent" unicode="&#x218;" horiz-adv-x="582" 
d="M361 692q125 0 219 -50q8 -5 7 -16l-23 -131q-2 -10 -11 -10h-125q-11 0 -9 10l6 35q1 5 -5 8q-32 13 -69 13q-41 0 -64 -20t-23 -51q0 -24 14.5 -37t56.5 -19l33 -5q185 -28 185 -172q0 -120 -81 -189.5t-218 -69.5q-128 0 -232 52q-9 5 -8 13l26 145q2 10 11 10h135
q10 0 8 -10l-7 -43q-1 -7 5 -10q38 -15 80 -15q50 0 77 22.5t27 57.5q0 24 -15.5 37t-55.5 19l-34 5q-184 27 -184 177q0 112 74.5 178t199.5 66zM196 -46h115q11 0 9 -10l-15 -87q-3 -15 -13 -21l-112 -73q-11 -7 -17 -7q-11 0 -9 11l31 177q2 10 11 10z" />
    <glyph glyph-name="scommaaccent" unicode="&#x219;" horiz-adv-x="491" 
d="M293 499q109 0 182 -42q8 -5 7 -13l-18 -98q-2 -10 -11 -10h-119q-10 0 -8 10l4 24q2 7 -4 8q-20 6 -51 6q-29 0 -45 -10.5t-16 -27.5q0 -27 48 -32l51 -5q147 -16 147 -124q0 -91 -64.5 -144t-181.5 -53q-112 0 -196 41q-8 4 -7 14l20 110q2 10 11 10h121q10 0 8 -10
l-5 -30q-1 -7 6 -9q21 -7 60 -7q34 0 53 12t19 32q0 15 -11 22t-41 10l-52 6q-66 7 -102 40t-36 87q0 84 59 133.5t172 49.5zM149 -46h115q11 0 9 -10l-15 -87q-3 -15 -13 -21l-112 -73q-11 -7 -17 -7q-11 0 -9 11l31 177q2 10 11 10z" />
    <glyph glyph-name="uni021A" unicode="&#x21a;" horiz-adv-x="617" 
d="M104 680h572q11 0 9 -10l-31 -176q-2 -10 -11 -10h-124q-11 0 -9 10l8 43q2 6 -4 6h-58q-6 0 -7 -6l-71 -400q-2 -6 4 -6h47q10 0 8 -10l-19 -111q-2 -10 -11 -10h-272q-10 0 -8 10l19 111q2 10 12 10h46q6 0 7 6l71 400q2 6 -5 6h-56q-7 0 -8 -6l-7 -43q-2 -10 -11 -10
h-124q-10 0 -8 10l30 176q2 10 11 10zM207 -46h115q11 0 9 -10l-15 -87q-3 -15 -13 -21l-112 -73q-11 -7 -17 -7q-11 0 -9 11l31 177q2 10 11 10z" />
    <glyph glyph-name="uni021B" unicode="&#x21b;" horiz-adv-x="330" 
d="M151 630h141q10 0 8 -10l-23 -127q-1 -6 4 -6h60q10 0 8 -10l-19 -111q-2 -10 -12 -10h-61q-5 0 -7 -6l-30 -159q-4 -18 -4 -30q0 -17 8.5 -23.5t29.5 -6.5h19q11 0 9 -10l-19 -114q-2 -10 -11 -10h-55q-77 0 -111.5 27.5t-34.5 87.5q0 32 7 66l32 172q2 6 -5 6h-27
q-10 0 -8 10l19 111q2 10 11 10h29q5 0 7 6l23 127q2 10 12 10zM85 -46h115q11 0 9 -10l-15 -87q-3 -15 -13 -21l-112 -73q-11 -7 -17 -7q-11 0 -9 11l31 177q2 10 11 10z" />
    <glyph glyph-name="dotlessj" unicode="&#x237;" horiz-adv-x="281" 
d="M81 487h186q10 0 8 -10l-83 -467q-19 -110 -69 -150t-156 -40h-35q-9 0 -7 10l20 113q2 10 11 10h13q29 0 42.5 11.5t19.5 45.5l61 340q2 6 -5 6h-29q-10 0 -8 10l19 111q2 10 12 10z" />
    <glyph glyph-name="circumflex" unicode="&#x2c6;" horiz-adv-x="475" 
d="M279 701h87q12 0 17 -9l80 -137q2 -4 0.5 -7t-6.5 -3h-87q-12 0 -20 10l-38 52h-2l-57 -52q-11 -10 -24 -10h-95q-4 0 -5.5 3t1.5 7l129 137q8 9 20 9z" />
    <glyph glyph-name="caron" unicode="&#x2c7;" horiz-adv-x="475" 
d="M388 698h95q5 0 6 -3t-2 -7l-129 -136q-9 -10 -20 -10h-87q-11 0 -17 10l-80 136q-2 4 0 7t6 3h87q13 0 20 -10l38 -51h2l57 51q10 10 24 10z" />
    <glyph glyph-name="uni02C9" unicode="&#x2c9;" horiz-adv-x="475" 
d="M208 870h291q10 0 8 -10l-15 -87q-2 -10 -11 -10h-291q-10 0 -8 10l15 87q2 10 11 10z" />
    <glyph glyph-name="breve" unicode="&#x2d8;" horiz-adv-x="475" 
d="M404 690h62q12 0 10 -11q-11 -59 -63 -99t-116 -40q-60 0 -96.5 33t-36.5 85q0 13 1 20q2 12 13 12h62q11 0 14 -11q8 -41 58 -41q52 0 75 41q5 11 17 11z" />
    <glyph glyph-name="dotaccent" unicode="&#x2d9;" horiz-adv-x="475" 
d="M255 680h133q10 0 8 -10l-19 -107q-2 -10 -11 -10h-134q-10 0 -8 10l20 107q2 10 11 10z" />
    <glyph glyph-name="ring" unicode="&#x2da;" horiz-adv-x="475" 
d="M331 744q42 0 68 -25t26 -65q0 -56 -36.5 -95t-94.5 -39q-42 0 -68.5 25t-26.5 65q0 56 37 95t95 39zM320 678q-21 0 -36 -16t-15 -40q0 -16 9.5 -26t25.5 -10q21 0 36 16t15 40q0 16 -9.5 26t-25.5 10z" />
    <glyph glyph-name="ogonek" unicode="&#x2db;" horiz-adv-x="475" 
d="M171 10h119q5 0 5.5 -4t-4.5 -6q-53 -24 -73.5 -40.5t-20.5 -30.5q0 -13 14 -13q10 0 24 8q10 6 13 -3l24 -68q4 -9 -5 -13q-49 -30 -102 -30q-42 0 -67 21.5t-25 56.5q0 61 71 112q14 10 27 10z" />
    <glyph glyph-name="tilde" unicode="&#x2dc;" horiz-adv-x="475" 
d="M256 696q40 0 78 -23q29 -18 54 -18q36 0 78 33q4 3 7.5 1.5t2.5 -6.5l-14 -78q-3 -13 -13 -22q-41 -35 -84 -35q-37 0 -78 23q-28 18 -54 18q-36 0 -78 -33q-4 -3 -7.5 -1.5t-2.5 6.5l14 78q3 14 13 22q43 35 84 35z" />
    <glyph glyph-name="hungarumlaut" unicode="&#x2dd;" horiz-adv-x="475" 
d="M221 700h108q5 0 6.5 -3t-1.5 -7l-106 -136q-8 -10 -19 -10h-93q-11 0 -4 10l91 136q7 10 18 10zM398 700h108q5 0 6.5 -3t-1.5 -7l-106 -136q-6 -10 -19 -10h-93q-11 0 -4 10l91 136q7 10 18 10z" />
    <glyph glyph-name="uni0326" unicode="&#x326;" horiz-adv-x="0" 
d="M135 -46h115q11 0 9 -10l-15 -87q-3 -15 -13 -21l-112 -73q-11 -7 -17 -7q-11 0 -9 11l31 177q2 10 11 10z" />
    <glyph glyph-name="uni0394" unicode="&#x394;" horiz-adv-x="657" 
d="M601 0h-619q-11 0 -6 10l344 660q5 10 15 10h157q9 0 11 -10l106 -660q2 -10 -8 -10zM228 144h188q6 0 6 6l-39 330h-2l-156 -329q-3 -7 3 -7z" />
    <glyph glyph-name="uni03A9" unicode="&#x3a9;" horiz-adv-x="616" 
d="M394 692q102 0 161.5 -54.5t59.5 -158.5q0 -35 -17 -139q-28 -164 -95 -207l-1 -2h47q10 0 8 -10l-20 -111q-2 -10 -11 -10h-215q-10 0 -8 10l19 106q2 10 12 15q37 18 56 61t37 148q16 92 16 120q0 79 -76 81q-66 0 -97 -63q-17 -35 -35 -138q-15 -78 -15 -129
q0 -59 37 -80q7 -4 5 -15l-19 -106q-2 -10 -10 -10h-215q-11 0 -9 10l21 111q2 10 12 10h47l1 2q-35 29 -35 108q0 47 9 99q23 132 52 186q86 166 278 166z" />
    <glyph glyph-name="uni03BC" unicode="&#x3bc;" horiz-adv-x="555" 
d="M386 487h142q11 0 9 -10l-61 -340q-2 -6 5 -6h28q10 0 8 -10l-19 -111q-2 -10 -12 -10h-185q-11 0 -9 10l7 38h-1q-42 -52 -90 -52q-17 0 -30 9h-1l-30 -175q-2 -10 -10 -10h-143q-11 0 -9 10l114 647q2 10 12 10h142q9 0 7 -10l-49 -280q-2 -10 -2 -22q0 -51 46 -51
q57 0 70 73l49 280q2 10 12 10z" />
    <glyph glyph-name="pi" unicode="&#x3c0;" horiz-adv-x="580" 
d="M83 487h505q10 0 8 -10l-21 -119q-1 -10 -11 -10h-39q-7 0 -8 -6l-29 -165q-3 -18 -3 -24q0 -23 27 -23h4q11 0 9 -10l-21 -116q-2 -10 -12 -10h-37q-70 0 -102.5 26t-32.5 84q0 28 5 53l33 185q2 6 -4 6h-81q-7 0 -8 -6l-59 -332q-2 -10 -10 -10h-144q-11 0 -9 10
l60 332q0 6 -5 6h-39q-10 0 -8 10l20 119q2 10 12 10z" />
    <glyph glyph-name="Wgrave" unicode="&#x1e80;" horiz-adv-x="910" 
d="M372 889h129q12 0 19 -10l78 -122q2 -4 0 -7t-6 -3h-106q-9 0 -18 10l-101 122q-3 4 -1.5 7t6.5 3zM732 680h243q10 0 8 -10l-19 -111q-2 -10 -12 -10h-23q-7 0 -9 -5l-242 -534q-4 -10 -13 -10h-125q-10 0 -11 10l-36 392h-2l-174 -392q-4 -10 -13 -10h-124
q-11 0 -12 10l-53 532q0 7 -6 7h-29q-10 0 -8 10l19 111q2 10 12 10h237q10 0 8 -10l-19 -111q-2 -10 -11 -10h-34q-6 0 -6 -6l16 -283h2l174 410q4 10 13 10h103q11 0 12 -10l35 -410h2l113 282q4 7 -4 7h-35q-10 0 -8 10l19 111q2 10 12 10z" />
    <glyph glyph-name="wgrave" unicode="&#x1e81;" horiz-adv-x="742" 
d="M281 702h125q11 0 15 -10l53 -136q3 -10 -8 -10h-100q-13 0 -18 10l-74 136q-2 4 0 7t7 3zM561 487h209q10 0 8 -10l-19 -111q-2 -10 -11 -10h-24q-5 0 -8 -6l-171 -340q-4 -10 -12 -10h-114q-9 0 -10 10l-26 259h-2l-119 -259q-4 -10 -15 -10h-112q-10 0 -11 10l-50 340
q-1 6 -7 6h-28q-10 0 -8 10l19 111q2 10 11 10h207q10 0 8 -10l-19 -111q-2 -10 -12 -10h-22q-6 0 -6 -7l14 -142h2l120 270q4 10 15 10h95q10 0 11 -10l26 -271h1l63 143q4 7 -4 7h-22q-10 0 -8 10l19 111q2 10 12 10z" />
    <glyph glyph-name="Wacute" unicode="&#x1e82;" horiz-adv-x="910" 
d="M628 889h135q5 0 6.5 -3t-2.5 -7l-145 -122q-11 -10 -22 -10h-109q-5 0 -6 3t2 7l119 122q10 10 22 10zM732 680h243q10 0 8 -10l-19 -111q-2 -10 -12 -10h-23q-7 0 -9 -5l-242 -534q-4 -10 -13 -10h-125q-10 0 -11 10l-36 392h-2l-174 -392q-4 -10 -13 -10h-124
q-11 0 -12 10l-53 532q0 7 -6 7h-29q-10 0 -8 10l19 111q2 10 12 10h237q10 0 8 -10l-19 -111q-2 -10 -11 -10h-34q-6 0 -6 -6l16 -283h2l174 410q4 10 13 10h103q11 0 12 -10l35 -410h2l113 282q4 7 -4 7h-35q-10 0 -8 10l19 111q2 10 12 10z" />
    <glyph glyph-name="wacute" unicode="&#x1e83;" horiz-adv-x="742" 
d="M482 702h134q5 0 6 -3t-3 -7l-123 -136q-10 -10 -20 -10h-110q-4 0 -5.5 3t1.5 7l101 136q7 10 19 10zM561 487h209q10 0 8 -10l-19 -111q-2 -10 -11 -10h-24q-5 0 -8 -6l-171 -340q-4 -10 -12 -10h-114q-9 0 -10 10l-26 259h-2l-119 -259q-4 -10 -15 -10h-112
q-10 0 -11 10l-50 340q-1 6 -7 6h-28q-10 0 -8 10l19 111q2 10 11 10h207q10 0 8 -10l-19 -111q-2 -10 -12 -10h-22q-6 0 -6 -7l14 -142h2l120 270q4 10 15 10h95q10 0 11 -10l26 -271h1l63 143q4 7 -4 7h-22q-10 0 -8 10l19 111q2 10 12 10z" />
    <glyph glyph-name="Wdieresis" unicode="&#x1e84;" horiz-adv-x="910" 
d="M428 879h104q10 0 8 -10l-19 -107q-2 -10 -11 -10h-105q-11 0 -9 10l20 107q2 10 12 10zM626 879h104q10 0 8 -10l-19 -107q-2 -10 -11 -10h-105q-10 0 -8 10l19 107q2 10 12 10zM732 680h243q10 0 8 -10l-19 -111q-2 -10 -12 -10h-23q-7 0 -9 -5l-242 -534
q-4 -10 -13 -10h-125q-10 0 -11 10l-36 392h-2l-174 -392q-4 -10 -13 -10h-124q-11 0 -12 10l-53 532q0 7 -6 7h-29q-10 0 -8 10l19 111q2 10 12 10h237q10 0 8 -10l-19 -111q-2 -10 -11 -10h-34q-6 0 -6 -6l16 -283h2l174 410q4 10 13 10h103q11 0 12 -10l35 -410h2
l113 282q4 7 -4 7h-35q-10 0 -8 10l19 111q2 10 12 10z" />
    <glyph glyph-name="wdieresis" unicode="&#x1e85;" horiz-adv-x="742" 
d="M300 682h105q10 0 8 -10l-20 -106q-2 -10 -11 -10h-104q-11 0 -9 10l20 106q2 10 11 10zM499 682h104q10 0 8 -10l-19 -106q-2 -10 -11 -10h-105q-11 0 -9 10l20 106q2 10 12 10zM561 487h209q10 0 8 -10l-19 -111q-2 -10 -11 -10h-24q-5 0 -8 -6l-171 -340
q-4 -10 -12 -10h-114q-9 0 -10 10l-26 259h-2l-119 -259q-4 -10 -15 -10h-112q-10 0 -11 10l-50 340q-1 6 -7 6h-28q-10 0 -8 10l19 111q2 10 11 10h207q10 0 8 -10l-19 -111q-2 -10 -12 -10h-22q-6 0 -6 -7l14 -142h2l120 270q4 10 15 10h95q10 0 11 -10l26 -271h1l63 143
q4 7 -4 7h-22q-10 0 -8 10l19 111q2 10 12 10z" />
    <glyph glyph-name="uni1E9E" unicode="&#x1e9e;" horiz-adv-x="637" 
d="M400 690q65 0 127.5 -17t104.5 -45q8 -6 7 -15l-17 -92q-1 -9 -8 -17l-89 -101q96 -38 96 -148q0 -72 -27 -129q-62 -130 -238 -130q-44 0 -80 6q-9 1 -7 11l25 113q2 11 13 9q14 -2 40 -2q48 0 77.5 25.5t29.5 76.5q0 34 -21.5 48.5t-70.5 14.5h-19q-11 0 -9 10l17 96
q1 10 8 18l96 111q-30 15 -67 15q-44 0 -76 -25t-40 -72l-77 -441q-2 -10 -11 -10h-194q-10 0 -8 10l19 111q2 10 12 10h29q6 0 8 6l56 316q21 114 90.5 175.5t203.5 61.5z" />
    <glyph glyph-name="Ygrave" unicode="&#x1ef2;" horiz-adv-x="599" 
d="M225 889h129q12 0 19 -10l78 -122q2 -4 0.5 -7t-6.5 -3h-106q-9 0 -18 10l-101 122q-3 4 -1.5 7t6.5 3zM425 680h235q10 0 8 -10l-19 -111q-2 -10 -12 -10h-28q-5 0 -10 -6l-201 -280l-23 -126q-1 -6 6 -6h44q10 0 8 -10l-19 -111q-2 -10 -11 -10h-270q-10 0 -8 10
l19 111q2 10 11 10h45q6 0 8 6l22 126l-104 280q-2 6 -9 6h-35q-10 0 -8 10l19 111q2 10 12 10h232q10 0 8 -10l-19 -111q-2 -10 -12 -10h-23q-7 0 -5 -6l47 -133h3l94 132q5 7 -3 7h-24q-10 0 -8 10l19 111q2 10 11 10z" />
    <glyph glyph-name="ygrave" unicode="&#x1ef3;" horiz-adv-x="520" 
d="M179 702h125q11 0 15 -10l53 -136q3 -10 -8 -10h-100q-13 0 -18 10l-74 136q-2 4 0 7t7 3zM337 487h208q10 0 8 -10l-19 -111q-2 -10 -11 -10h-23q-5 0 -9 -6l-237 -406q-42 -71 -83 -97.5t-109 -26.5h-38q-10 0 -8 10l20 114q2 10 12 10h25q45 0 66 44l17 34l-76 319
q-1 5 -6 5h-29q-10 0 -8 10l19 111q2 10 11 10h208q10 0 8 -10l-19 -111q-2 -10 -12 -10h-18q-8 0 -6 -7l28 -153h2l80 153q4 7 -4 7h-19q-10 0 -8 10l19 111q2 10 11 10z" />
    <glyph glyph-name="endash" unicode="&#x2013;" horiz-adv-x="533" 
d="M52 333h475q9 0 7 -10l-20 -116q-2 -10 -11 -10h-475q-10 0 -8 10l20 116q2 10 12 10z" />
    <glyph glyph-name="emdash" unicode="&#x2014;" horiz-adv-x="890" 
d="M52 333h832q9 0 7 -10l-21 -116q-2 -10 -11 -10h-831q-10 0 -8 10l20 116q2 10 12 10z" />
    <glyph glyph-name="quoteleft" unicode="&#x2018;" horiz-adv-x="232" 
d="M252 682q12 0 10 -12l-36 -201q-2 -10 -11 -10h-109q-11 0 -9 10l20 113q3 14 13 22l105 70q11 8 17 8z" />
    <glyph glyph-name="quoteright" unicode="&#x2019;" horiz-adv-x="232" 
d="M144 680h109q11 0 9 -10l-20 -113q-3 -15 -14 -22l-104 -71q-11 -7 -18 -7q-10 0 -9 12l36 201q2 10 11 10z" />
    <glyph glyph-name="quotesinglbase" unicode="&#x201a;" horiz-adv-x="231" 
d="M47 134h110q10 0 8 -10l-20 -113q-3 -14 -13 -22l-105 -70q-11 -8 -17 -8q-11 0 -9 12l35 201q2 10 11 10z" />
    <glyph glyph-name="quotedblleft" unicode="&#x201c;" horiz-adv-x="422" 
d="M252 682q12 0 10 -12l-36 -201q-2 -10 -11 -10h-109q-11 0 -9 10l20 113q3 14 13 22l105 70q11 8 17 8zM443 682q11 0 9 -12l-35 -201q-2 -10 -11 -10h-110q-10 0 -8 10l20 113q3 14 13 22l105 70q11 8 17 8z" />
    <glyph glyph-name="quotedblright" unicode="&#x201d;" horiz-adv-x="422" 
d="M144 680h109q11 0 9 -10l-20 -113q-3 -15 -14 -22l-104 -71q-11 -7 -18 -7q-10 0 -9 12l36 201q2 10 11 10zM334 680h110q10 0 8 -10l-19 -113q-3 -15 -14 -22l-104 -71q-11 -7 -18 -7q-11 0 -9 12l35 201q2 10 11 10z" />
    <glyph glyph-name="quotedblbase" unicode="&#x201e;" horiz-adv-x="422" 
d="M47 134h110q10 0 8 -10l-20 -113q-3 -14 -13 -22l-105 -70q-11 -8 -17 -8q-11 0 -9 12l35 201q2 10 11 10zM238 134h109q11 0 9 -10l-20 -113q-3 -14 -13 -22l-105 -70q-11 -8 -17 -8q-12 0 -10 12l36 201q2 10 11 10z" />
    <glyph glyph-name="dagger" unicode="&#x2020;" horiz-adv-x="543" 
d="M287 680h142q11 0 9 -10l-35 -196q-1 -6 4 -6h139q11 0 9 -10l-23 -123q-2 -10 -11 -10h-138q-7 0 -8 -6l-85 -489q-3 -10 -12 -10h-142q-11 0 -8 10l87 489q0 6 -5 6h-140q-10 0 -8 10l23 123q2 10 10 10h139q6 0 8 6l34 196q2 10 11 10z" />
    <glyph glyph-name="daggerdbl" unicode="&#x2021;" horiz-adv-x="543" 
d="M287 680h142q11 0 9 -10l-29 -160q-1 -6 5 -6h139q10 0 8 -10l-22 -123q-2 -10 -12 -10h-138q-5 0 -7 -6l-37 -210q-1 -6 4 -6h140q10 0 8 -10l-22 -123q-2 -10 -11 -10h-140q-6 0 -7 -6l-27 -160q-3 -10 -12 -10h-142q-11 0 -8 10l29 160q1 6 -5 6h-139q-10 0 -8 10
l22 123q2 10 11 10h139q5 0 7 6l37 210q1 6 -5 6h-139q-10 0 -8 10l22 123q2 10 11 10h139q5 0 7 6l28 160q2 10 11 10z" />
    <glyph glyph-name="bullet" unicode="&#x2022;" horiz-adv-x="430" 
d="M236 469q69 0 114.5 -45.5t45.5 -114.5q0 -70 -45.5 -115.5t-114.5 -45.5t-114.5 45.5t-45.5 115.5q0 69 45.5 114.5t114.5 45.5z" />
    <glyph glyph-name="ellipsis" unicode="&#x2026;" horiz-adv-x="735" 
d="M46 154h133q11 0 9 -10l-23 -134q-2 -10 -11 -10h-133q-11 0 -9 10l23 134q2 10 11 10zM291 154h133q11 0 9 -10l-23 -134q-2 -10 -11 -10h-133q-11 0 -9 10l23 134q2 10 11 10zM536 154h133q11 0 9 -10l-23 -134q-2 -10 -11 -10h-133q-11 0 -9 10l23 134q2 10 11 10z
" />
    <glyph glyph-name="perthousand" unicode="&#x2030;" horiz-adv-x="1150" 
d="M643 692h99q10 0 2 -10l-503 -684q-7 -10 -18 -10h-97q-10 0 -2 10l502 684q7 10 17 10zM283 688q51 0 84 -29t33 -81q0 -97 -33 -166q-40 -82 -147 -82q-51 0 -83.5 29t-32.5 81q0 36 8.5 86t23.5 80q40 82 147 82zM268 605q-20 0 -30 -21q-6 -12 -16.5 -71t-10.5 -74
q0 -26 24 -26q21 0 31 21q6 12 16.5 71t10.5 74q0 26 -25 26zM647 350q52 0 85 -29.5t33 -81.5q0 -38 -9.5 -86t-23.5 -79q-40 -82 -147 -82q-52 0 -84.5 28.5t-32.5 80.5q0 36 8.5 85.5t23.5 80.5q41 83 147 83zM975 350q52 0 84.5 -29t32.5 -82q0 -99 -32 -165
q-40 -82 -147 -82q-52 0 -84.5 28.5t-32.5 80.5q0 36 9 86t24 80q39 83 146 83zM633 266q-21 0 -31 -21q-6 -11 -16.5 -70t-10.5 -75q0 -25 24 -25q21 0 31 21q6 12 16 71t10 74q0 25 -23 25zM960 266q-21 0 -30 -21q-6 -11 -16 -70t-10 -75q0 -25 23 -25q21 0 30 21
q7 12 17.5 70.5t10.5 74.5q0 25 -25 25z" />
    <glyph glyph-name="guilsinglleft" unicode="&#x2039;" horiz-adv-x="317" 
d="M33 271l270 231q4 3 7 1.5t2 -6.5l-24 -137q-3 -12 -14 -22l-88 -78q-5 -4 -2 -8l61 -78q8 -11 6 -22l-21 -123q-1 -4 -4.5 -5t-6.5 3l-188 230q-6 8 2 14z" />
    <glyph glyph-name="guilsinglright" unicode="&#x203a;" horiz-adv-x="317" 
d="M117 501l187 -230q6 -8 -2 -14l-270 -231q-3 -3 -6.5 -1t-2.5 6l25 137q3 13 13 22l89 78q5 4 2 8l-61 78q-9 10 -6 22l21 123q1 4 4.5 5t6.5 -3z" />
    <glyph glyph-name="fraction" unicode="&#x2044;" horiz-adv-x="237" 
d="M351 692h98q9 0 3 -10l-502 -684q-7 -10 -18 -10h-97q-11 0 -3 10l502 684q7 10 17 10z" />
    <glyph glyph-name="zero.superior" unicode="&#x2070;" horiz-adv-x="354" 
d="M288 843q59 0 93 -31t34 -89q0 -33 -13.5 -106.5t-28.5 -102.5q-44 -91 -159 -91q-60 0 -94 31t-34 89q0 32 13.5 106t27.5 103q45 91 161 91zM272 750q-23 0 -33 -22q-8 -15 -21 -88.5t-13 -96.5q0 -27 25 -27q22 0 33 23q8 15 21 88t13 96q0 27 -25 27z" />
    <glyph glyph-name="four.superior" unicode="&#x2074;" horiz-adv-x="354" 
d="M252 836h101q4 0 5.5 -3t-0.5 -7l-149 -243v-2h47q6 0 7 6l11 58q2 10 11 10h88q10 0 8 -10l-10 -58q-1 -6 4 -6h15q9 0 7 -10l-14 -77q-2 -10 -11 -10h-13q-5 0 -7 -6l-7 -38q-2 -10 -11 -10h-90q-9 0 -7 10l7 38q2 6 -5 6h-162q-10 0 -8 10l14 81q1 8 9 19l144 232
q6 10 16 10z" />
    <glyph glyph-name="five.superior" unicode="&#x2075;" horiz-adv-x="354" 
d="M159 836h248q11 0 9 -10l-13 -75q-2 -11 -11 -11h-150q-6 0 -7 -5l-10 -53h1q25 18 64 18q47 0 73 -23.5t26 -69.5q0 -57 -20 -99q-41 -85 -154 -85q-77 0 -124 28q-7 5 -6 15l14 82q2 10 11 10h80q10 0 8 -10l-3 -19q-1 -6 6 -9q9 -4 24 -4q25 0 36 21q10 18 10 41
q0 29 -27 29q-17 0 -30 -11q-7 -7 -15 -7h-83q-10 0 -8 10l40 227q2 10 11 10z" />
    <glyph glyph-name="six.superior" unicode="&#x2076;" horiz-adv-x="354" 
d="M269 836h107q4 0 5 -3t-2 -7l-99 -139v-1q2 1 14 1q46 0 73 -27.5t27 -71.5q0 -72 -51.5 -118.5t-128.5 -46.5q-61 0 -96 29.5t-35 79.5q0 36 13.5 67.5t45.5 74.5l110 152q8 10 17 10zM245 598q-19 0 -33.5 -15t-14.5 -35q0 -34 33 -34q19 0 33.5 15.5t14.5 35.5
q0 15 -9 24t-24 9z" />
    <glyph glyph-name="seven.superior" unicode="&#x2077;" horiz-adv-x="354" 
d="M152 836h272q11 0 9 -10l-16 -86q-1 -8 -6 -17l-166 -283q-4 -10 -15 -10h-103q-10 0 -5 12l175 296v2h-58q-5 0 -7 -6l-7 -36q-2 -10 -12 -10h-87q-10 0 -8 10l23 128q2 10 11 10z" />
    <glyph glyph-name="eight.superior" unicode="&#x2078;" horiz-adv-x="354" 
d="M288 843q60 0 92.5 -29t32.5 -74q0 -56 -50 -98v-1q30 -30 30 -68q0 -66 -53 -108t-126 -42q-60 0 -96.5 28t-36.5 77q0 70 62 113v1q-24 24 -24 59q0 59 50 100.5t119 41.5zM272 752q-17 0 -29 -12.5t-12 -31.5q0 -12 7.5 -19.5t20.5 -7.5q17 0 28.5 12.5t11.5 30.5
q0 12 -7.5 20t-19.5 8zM245 597q-20 0 -34.5 -14t-14.5 -35q0 -15 9.5 -24.5t24.5 -9.5q20 0 34 14.5t14 35.5q0 15 -9.5 24t-23.5 9z" />
    <glyph glyph-name="nine.superior" unicode="&#x2079;" horiz-adv-x="354" 
d="M288 843q61 0 96 -29.5t35 -79.5q0 -64 -59 -143l-110 -151q-8 -10 -17 -10h-107q-4 0 -5 3t2 7l99 139v1q-2 -1 -14 -1q-46 0 -73 27.5t-27 71.5q0 71 52 118t128 47zM272 752q-19 0 -33.5 -15.5t-14.5 -35.5q0 -15 9 -24t25 -9q19 0 33 15t14 35q0 34 -33 34z" />
    <glyph glyph-name="plussuperior" unicode="&#x207a;" horiz-adv-x="354" 
d="M205 763h75q10 0 10 -10v-80q0 -6 6 -6h77q10 0 10 -10v-72q0 -10 -10 -10h-77q-6 0 -6 -6v-80q0 -10 -10 -10h-75q-10 0 -10 10v80q0 6 -6 6h-77q-10 0 -10 10v72q0 10 10 10h77q6 0 6 6v80q0 10 10 10z" />
    <glyph glyph-name="uni207B" unicode="&#x207b;" horiz-adv-x="354" 
d="M112 667h261q10 0 10 -10v-72q0 -10 -10 -10h-261q-10 0 -10 10v72q0 10 10 10z" />
    <glyph glyph-name="equalsuperior" unicode="&#x207c;" horiz-adv-x="354" 
d="M112 735h261q10 0 10 -10v-72q0 -10 -10 -10h-261q-10 0 -10 10v72q0 10 10 10zM112 600h261q10 0 10 -10v-72q0 -10 -10 -10h-261q-10 0 -10 10v72q0 10 10 10z" />
    <glyph glyph-name="parenleftsuperior" unicode="&#x207d;" horiz-adv-x="238" 
d="M254 860h66q12 0 5 -10q-95 -155 -95 -299q0 -65 18 -135q3 -10 -8 -10h-66q-7 0 -13 9q-39 71 -39 156q0 153 116 280q8 9 16 9z" />
    <glyph glyph-name="parenrightsuperior" unicode="&#x207e;" horiz-adv-x="238" 
d="M145 860h67q6 0 12 -9q40 -72 40 -156q0 -153 -117 -280q-8 -9 -16 -9h-66q-12 0 -5 10q96 154 96 299q0 61 -19 135q-3 10 8 10z" />
    <glyph glyph-name="zero.inferior" unicode="&#x2080;" horiz-adv-x="354" 
d="M188 257q59 0 93 -31t34 -89q0 -33 -13.5 -106.5t-28.5 -102.5q-44 -91 -159 -91q-60 0 -94 31t-34 89q0 32 13.5 106t27.5 103q45 91 161 91zM172 164q-23 0 -33 -22q-8 -15 -21 -88.5t-13 -96.5q0 -27 25 -27q22 0 33 23q8 15 21 88t13 96q0 27 -25 27z" />
    <glyph glyph-name="one.inferior" unicode="&#x2081;" horiz-adv-x="354" 
d="M156 250h95q11 0 9 -10l-51 -288q-1 -6 5 -6h59q10 0 8 -10l-15 -82q-2 -10 -11 -10h-249q-10 0 -8 10l14 82q2 10 11 10h59q7 0 8 6l31 176h-2l-70 -38q-4 -2 -7 0t-2 6l17 94q1 9 11 15l66 39q12 6 22 6z" />
    <glyph glyph-name="two.inferior" unicode="&#x2082;" horiz-adv-x="354" 
d="M185 257q58 0 91.5 -27.5t33.5 -74.5q0 -72 -73 -130l-98 -82v-1h126q10 0 8 -10l-13 -78q-2 -10 -12 -10h-269q-10 0 -8 10l13 72q3 11 12 19l166 140q32 26 32 54q0 26 -31 26q-16 0 -26 -5q-6 -3 -7 -8l-5 -29q-2 -10 -11 -10h-80q-10 0 -8 10l15 88q1 8 9 12
q61 34 135 34z" />
    <glyph glyph-name="three.inferior" unicode="&#x2083;" horiz-adv-x="354" 
d="M182 257q62 0 95 -25.5t33 -68.5q0 -66 -61 -101v-2q36 -20 36 -69q0 -71 -48 -112.5t-122 -41.5q-81 0 -128 31q-9 4 -7 14l15 82q2 10 10 10h80q11 0 9 -10l-3 -21q-1 -6 5 -10q9 -4 26 -4q22 0 34.5 13t12.5 34q0 29 -36 29h-13q-10 0 -8 10l12 71q2 10 11 10h13
q18 0 30.5 11.5t12.5 30.5q0 27 -32 27q-17 0 -25 -5q-5 -2 -7 -9l-3 -18q-2 -10 -11 -10h-80q-11 0 -9 10l14 77q1 8 9 13q57 34 135 34z" />
    <glyph glyph-name="four.inferior" unicode="&#x2084;" horiz-adv-x="354" 
d="M152 250h101q4 0 5.5 -3t-0.5 -7l-149 -243v-2h47q6 0 7 6l11 58q2 10 11 10h88q10 0 8 -10l-10 -58q-1 -6 4 -6h15q9 0 7 -10l-14 -77q-2 -10 -11 -10h-13q-5 0 -7 -6l-7 -38q-2 -10 -11 -10h-90q-9 0 -7 10l7 38q2 6 -5 6h-162q-10 0 -8 10l14 81q1 8 9 19l144 232
q6 10 16 10z" />
    <glyph glyph-name="five.inferior" unicode="&#x2085;" horiz-adv-x="354" 
d="M57 250h248q11 0 9 -10l-13 -75q-2 -11 -11 -11h-150q-6 0 -7 -5l-10 -53h1q25 18 64 18q47 0 73 -23.5t26 -69.5q0 -57 -20 -99q-41 -85 -154 -85q-77 0 -124 28q-7 5 -6 15l14 82q2 10 11 10h80q10 0 8 -10l-3 -19q-1 -6 6 -9q9 -4 24 -4q25 0 36 21q10 18 10 41
q0 29 -27 29q-17 0 -30 -11q-7 -7 -15 -7h-83q-10 0 -8 10l40 227q2 10 11 10z" />
    <glyph glyph-name="six.inferior" unicode="&#x2086;" horiz-adv-x="354" 
d="M168 250h107q4 0 5 -3t-2 -7l-99 -139v-1q2 1 14 1q46 0 73 -27.5t27 -71.5q0 -72 -51.5 -118.5t-128.5 -46.5q-61 0 -96 29.5t-35 79.5q0 36 13.5 67.5t45.5 74.5l110 152q8 10 17 10zM144 12q-19 0 -33.5 -15t-14.5 -35q0 -34 33 -34q19 0 33.5 15.5t14.5 35.5
q0 15 -9 24t-24 9z" />
    <glyph glyph-name="seven.inferior" unicode="&#x2087;" horiz-adv-x="354" 
d="M50 250h272q11 0 9 -10l-16 -86q-1 -7 -6 -17l-166 -283q-4 -10 -15 -10h-103q-10 0 -5 12l175 296v2h-58q-5 0 -7 -6l-7 -36q-2 -10 -12 -10h-87q-10 0 -8 10l23 128q2 10 11 10z" />
    <glyph glyph-name="eight.inferior" unicode="&#x2088;" horiz-adv-x="354" 
d="M187 257q60 0 92.5 -29t32.5 -74q0 -56 -50 -98v-1q30 -30 30 -68q0 -66 -53 -108t-126 -42q-60 0 -96.5 28t-36.5 77q0 70 62 113v1q-24 24 -24 59q0 59 50 100.5t119 41.5zM171 166q-17 0 -29 -12.5t-12 -31.5q0 -12 7.5 -19.5t20.5 -7.5q17 0 28.5 12.5t11.5 30.5
q0 12 -7.5 20t-19.5 8zM144 11q-20 0 -34.5 -14t-14.5 -35q0 -15 9.5 -24.5t24.5 -9.5q20 0 34 14.5t14 35.5q0 15 -9.5 24t-23.5 9z" />
    <glyph glyph-name="nine.inferior" unicode="&#x2089;" horiz-adv-x="354" 
d="M187 257q61 0 96 -29.5t35 -79.5q0 -64 -59 -143l-110 -151q-8 -10 -17 -10h-107q-4 0 -5 3t2 7l99 139v1q-2 -1 -14 -1q-46 0 -73 27.5t-27 71.5q0 71 52 118t128 47zM171 166q-19 0 -33.5 -15.5t-14.5 -35.5q0 -15 9 -24t25 -9q19 0 33 15t14 35q0 34 -33 34z" />
    <glyph glyph-name="uni208A" unicode="&#x208a;" horiz-adv-x="354" 
d="M102 177h75q10 0 10 -10v-80q0 -6 6 -6h77q10 0 10 -10v-72q0 -10 -10 -10h-77q-6 0 -6 -6v-80q0 -10 -10 -10h-75q-10 0 -10 10v80q0 6 -6 6h-77q-10 0 -10 10v72q0 10 10 10h77q6 0 6 6v80q0 10 10 10z" />
    <glyph glyph-name="uni208B" unicode="&#x208b;" horiz-adv-x="354" 
d="M9 81h261q10 0 10 -10v-72q0 -10 -10 -10h-261q-10 0 -10 10v72q0 10 10 10z" />
    <glyph glyph-name="uni208C" unicode="&#x208c;" horiz-adv-x="354" 
d="M9 149h261q10 0 10 -10v-72q0 -10 -10 -10h-261q-10 0 -10 10v72q0 10 10 10zM9 14h261q10 0 10 -10v-72q0 -10 -10 -10h-261q-10 0 -10 10v72q0 10 10 10z" />
    <glyph glyph-name="uni208D" unicode="&#x208d;" horiz-adv-x="238" 
d="M151 274h66q12 0 5 -10q-95 -155 -95 -299q0 -65 18 -135q3 -10 -8 -10h-66q-7 0 -13 9q-39 71 -39 156q0 153 116 280q8 9 16 9z" />
    <glyph glyph-name="uni208E" unicode="&#x208e;" horiz-adv-x="238" 
d="M42 274h67q6 0 12 -9q40 -72 40 -156q0 -153 -117 -280q-8 -9 -16 -9h-66q-12 0 -5 10q96 154 96 299q0 61 -19 135q-3 10 8 10z" />
    <glyph glyph-name="Euro" unicode="&#x20ac;" 
d="M399 692q109 0 177 -54q6 -5 5 -14l-19 -112q-2 -10 -11 -10h-112q-10 0 -8 10l5 29q1 7 -5 10q-16 8 -45 8q-52 0 -75 -48q-11 -22 -18 -60q-1 -6 5 -6h147q11 0 8 -10l-20 -59q-3 -10 -12 -10h-137q-6 0 -7 -6l-5 -31q-2 -6 5 -6h127q11 0 8 -10l-21 -60
q-3 -10 -12 -10h-116q-5 0 -7 -6q-7 -38 -7 -57q0 -59 59 -59q31 0 50 12q6 3 7 9l6 33q2 10 11 10h112q10 0 8 -10l-22 -125q-1 -8 -10 -13q-80 -49 -189 -49q-196 0 -196 176q0 31 8 73q1 6 -5 6h-37q-10 0 -8 10l10 60q2 10 12 10h37q6 0 7 6l5 31q2 6 -4 6h-37
q-10 0 -8 10l10 59q2 10 12 10h36q5 0 7 6q10 58 31 99q71 142 238 142z" />
    <glyph glyph-name="uni20B9" unicode="&#x20b9;" 
d="M148 680h403q9 0 7 -10l-10 -59q-2 -10 -11 -10h-107q12 -22 16 -42h83q10 0 8 -10l-11 -59q-2 -10 -11 -10h-69q-12 -75 -63.5 -125.5t-132.5 -70.5l95 -147q5 -6 11 -6h53q10 0 8 -10l-19 -111q-2 -10 -12 -10h-125q-11 0 -17 8l-172 259q-5 7 -3 19l18 99q2 10 12 10
h37q51 0 88.5 21.5t51.5 63.5h-164q-9 0 -7 10l10 59q2 10 11 10h151q-18 42 -94 42h-49q-10 0 -8 10l11 59q2 10 11 10z" />
    <glyph glyph-name="uni20BA" unicode="&#x20ba;" 
d="M175 680h149q10 0 8 -10l-21 -119l152 63q4 2 7 0.5t2 -6.5l-13 -70q-2 -10 -12 -14l-152 -63l-8 -44l151 62q5 2 7.5 0.5t1.5 -6.5l-12 -69q-2 -10 -12 -14l-152 -63l-32 -180q-1 -6 5 -6q54 0 99.5 51t60.5 134q2 10 11 10h121q10 0 8 -10q-13 -70 -38.5 -126
t-67.5 -102.5t-107 -72t-149 -25.5h-176q-10 0 -8 10l19 111q2 10 12 10h33q6 0 7 6l20 116l-51 -21q-4 -2 -7 -0.5t-2 6.5l13 69q2 10 12 14l51 21l8 44l-50 -20q-5 -2 -7.5 -0.5t-1.5 6.5l12 70q2 10 12 14l51 21l34 193q2 10 12 10z" />
    <glyph glyph-name="uni2113" unicode="&#x2113;" horiz-adv-x="457" 
d="M356 692q56 0 88 -32t32 -89q0 -157 -221 -329l-15 -86q-1 -6 -1 -15q0 -31 29 -31q22 0 54 23q8 7 12 -2l38 -72q3 -7 -5 -14q-68 -57 -145 -57q-61 0 -93 30.5t-32 88.5q0 22 4 49l-29 -20q-8 -6 -13 2l-36 69q-5 9 4 14l97 66l31 178q40 227 201 227zM345 586
q-29 0 -46 -94l-18 -99q83 90 83 165q0 28 -19 28z" />
    <glyph glyph-name="published" unicode="&#x2117;" horiz-adv-x="795" 
d="M421 692q151 0 251.5 -101t100.5 -252t-100.5 -251.5t-251.5 -100.5t-252 100.5t-101 251.5t101 252t252 101zM421 611q-117 0 -193 -77t-76 -195q0 -117 76 -194t193 -77t192.5 77t75.5 194q0 118 -75.5 195t-192.5 77zM288 531h181q70 0 106.5 -33.5t36.5 -90.5
q0 -55 -37.5 -89.5t-105.5 -34.5h-47q-6 0 -6 -6v-42q0 -6 6 -6h19q10 0 10 -10v-62q0 -10 -10 -10h-153q-10 0 -10 10v62q0 10 10 10h17q6 0 6 6v209q0 6 -6 6h-17q-10 0 -10 10v61q0 10 10 10zM462 447h-41q-5 0 -5 -5v-71q0 -5 5 -5h41q46 0 46 41q0 40 -46 40z" />
    <glyph glyph-name="trademark" unicode="&#x2122;" horiz-adv-x="899" 
d="M103 680h333q10 0 10 -10v-104q0 -10 -10 -10h-71q-10 0 -10 10v19q0 6 -6 6h-22q-6 0 -6 -6v-209q0 -6 6 -6h16q10 0 10 -10v-64q0 -10 -10 -10h-147q-10 0 -10 10v64q0 10 10 10h16q6 0 6 6v209q0 6 -6 6h-22q-6 0 -6 -6v-19q0 -10 -10 -10h-71q-10 0 -10 10v104
q0 10 10 10zM808 680h104q10 0 10 -10v-68q0 -10 -10 -10h-14q-6 0 -6 -6v-210q0 -6 6 -6h14q10 0 10 -10v-64q0 -10 -10 -10h-127q-10 0 -10 10v64q0 10 10 10h9q6 0 6 6v110h-3l-60 -134q-4 -10 -13 -10h-47q-9 0 -13 10l-60 135h-3v-111q0 -6 6 -6h9q10 0 10 -10v-64
q0 -10 -10 -10h-127q-10 0 -10 10v64q0 10 10 10h13q6 0 6 6v210q0 6 -6 6h-13q-10 0 -10 10v68q0 10 10 10h105q10 0 14 -10l92 -202h4l89 202q4 10 15 10z" />
    <glyph glyph-name="Omega" unicode="&#x2126;" horiz-adv-x="616" 
d="M394 692q102 0 161.5 -54.5t59.5 -158.5q0 -35 -17 -139q-28 -164 -95 -207l-1 -2h47q10 0 8 -10l-20 -111q-2 -10 -11 -10h-215q-10 0 -8 10l19 106q2 10 12 15q37 18 56 61t37 148q16 92 16 120q0 79 -76 81q-66 0 -97 -63q-17 -35 -35 -138q-15 -78 -15 -129
q0 -59 37 -80q7 -4 5 -15l-19 -106q-2 -10 -10 -10h-215q-11 0 -9 10l21 111q2 10 12 10h47l1 2q-35 29 -35 108q0 47 9 99q23 132 52 186q86 166 278 166z" />
    <glyph glyph-name="estimated" unicode="&#x212e;" horiz-adv-x="830" 
d="M415 671q156 0 267 -99.5t111 -247.5h-608q-10 0 -10 -11v-197q47 -51 110 -78.5t130 -27.5q73 0 139 32.5t113 88.5h57q-56 -68 -138 -105t-171 -37q-100 0 -186 42.5t-139.5 121.5t-53.5 177q0 145 110.5 243t268.5 98zM415 650q-70 0 -133 -28.5t-107 -78.5v-185
q0 -11 10 -11h461q9 0 9 11v184q-44 51 -108 79.5t-132 28.5z" />
    <glyph glyph-name="partialdiff" unicode="&#x2202;" horiz-adv-x="534" 
d="M333 692q99 0 153 -61.5t54 -173.5q0 -63 -16.5 -140.5t-46.5 -138.5q-91 -190 -269 -190q-81 0 -129 49t-48 128q0 105 69 179t177 74q66 0 102 -40h1q8 32 8 60q0 56 -24.5 87t-67.5 31q-46 0 -98 -36q-9 -6 -14 3l-43 86q-4 9 4 15q36 30 87.5 49t100.5 19zM276 290
q-41 0 -67.5 -32.5t-26.5 -76.5q0 -27 15 -43t42 -16q71 0 114 136q-37 32 -77 32z" />
    <glyph glyph-name="Delta" unicode="&#x2206;" horiz-adv-x="657" 
d="M601 0h-619q-11 0 -6 10l344 660q5 10 15 10h157q9 0 11 -10l106 -660q2 -10 -8 -10zM228 144h188q6 0 6 6l-39 330h-2l-156 -329q-3 -7 3 -7z" />
    <glyph glyph-name="product" unicode="&#x220f;" horiz-adv-x="666" 
d="M35 740h610q10 0 10 -10v-111q0 -10 -10 -10h-38q-6 0 -6 -6v-773q0 -10 -10 -10h-149q-10 0 -10 10v767q0 6 -6 6h-172q-6 0 -6 -6v-767q0 -10 -10 -10h-149q-10 0 -10 10v773q0 6 -6 6h-38q-10 0 -10 10v111q0 10 10 10z" />
    <glyph glyph-name="summation" unicode="&#x2211;" horiz-adv-x="551" 
d="M41 740h465q10 0 10 -10v-181q0 -10 -10 -10h-125q-10 0 -10 10v40q0 6 -6 6h-151l161 -261q4 -7 1 -15l-178 -354h177q6 0 6 6v41q0 10 10 10h125q10 0 10 -10v-182q0 -10 -10 -10h-479q-10 0 -10 10v131q0 5 2 9l175 345l-170 276q-3 6 -3 11v128q0 10 10 10z" />
    <glyph glyph-name="minus" unicode="&#x2212;" 
d="M61 343h441q10 0 10 -10v-114q0 -10 -10 -10h-441q-10 0 -10 10v114q0 10 10 10z" />
    <glyph glyph-name="uni2215" unicode="&#x2215;" horiz-adv-x="237" 
d="M351 692h98q9 0 3 -10l-502 -684q-7 -10 -18 -10h-97q-11 0 -3 10l502 684q7 10 17 10z" />
    <glyph glyph-name="uni2219" unicode="&#x2219;" horiz-adv-x="245" 
d="M78 342h134q11 0 9 -10l-24 -134q-2 -10 -11 -10h-133q-11 0 -9 10l23 134q2 10 11 10z" />
    <glyph glyph-name="radical" unicode="&#x221a;" horiz-adv-x="646" 
d="M590 740h127q11 0 6 -10l-398 -900q-4 -10 -16 -10h-110q-8 0 -11 10l-70 238q-2 6 -9 3l-61 -29q-10 -5 -12 4l-26 83q-3 10 6 13l183 83q10 5 13 -4l55 -203h3l306 712q5 10 14 10z" />
    <glyph glyph-name="infinity" unicode="&#x221e;" horiz-adv-x="743" 
d="M547 417q74 0 122 -47t48 -124q0 -75 -47.5 -122.5t-121.5 -47.5q-86 0 -175 89q-88 -89 -175 -89q-73 0 -120.5 47t-47.5 123t48 123.5t122 47.5q44 0 84 -21.5t89 -70.5q49 50 88.5 71t85.5 21zM204 312q-30 0 -46.5 -18t-16.5 -46q0 -29 17 -48t46 -19q37 0 97 65
q-59 66 -97 66zM543 312q-21 0 -42 -13.5t-56 -52.5q59 -65 98 -65q30 0 46.5 19.5t16.5 47.5q0 27 -16.5 45.5t-46.5 18.5z" />
    <glyph glyph-name="integral" unicode="&#x222b;" horiz-adv-x="394" 
d="M391 740q36 0 52 -4q9 -2 8 -11l-19 -110q-2 -11 -12 -11q-27 3 -28 3q-23 0 -35.5 -14.5t-19.5 -50.5l-91 -514q-20 -111 -71.5 -159.5t-145.5 -48.5q-35 0 -52 4q-9 2 -8 11l19 110q2 11 12 11q1 0 12 -1.5t17 -1.5q23 0 35 14.5t19 50.5l91 514q19 111 71 159.5
t146 48.5z" />
    <glyph glyph-name="approxequal" unicode="&#x2248;" 
d="M194 475q47 0 100 -34q38 -25 64 -25q34 0 63 47q5 8 14 3l78 -49q8 -5 4 -14q-22 -50 -61.5 -80t-86.5 -30q-51 0 -100 33q-40 26 -63 26q-36 0 -64 -48q-5 -8 -14 -3l-78 49q-8 5 -4 14q23 50 62 80.5t86 30.5zM194 257q49 0 100 -33q40 -26 64 -26q35 0 63 48
q5 8 14 3l78 -49q8 -6 4 -14q-23 -50 -62 -80.5t-86 -30.5q-49 0 -100 34q-38 25 -63 25q-36 0 -64 -46q-5 -8 -14 -4l-78 49q-8 5 -4 14q22 50 61.5 80t86.5 30z" />
    <glyph glyph-name="notequal" unicode="&#x2260;" 
d="M387 558h84q5 0 6.5 -3t-0.5 -7l-48 -95h80q10 0 10 -10v-115q0 -10 -10 -10h-148l-42 -84h190q10 0 10 -10v-115q0 -10 -10 -10h-258l-47 -95q-4 -10 -14 -10h-84q-4 0 -6 3t0 7l47 95h-79q-10 0 -10 10v115q0 10 10 10h147l42 84h-189q-10 0 -10 10v115q0 10 10 10h257
l48 95q4 10 14 10z" />
    <glyph glyph-name="lessequal" unicode="&#x2264;" 
d="M63 460l441 167q10 3 10 -7v-124q0 -9 -10 -13l-244 -85v-2l244 -84q10 -4 10 -13v-124q0 -10 -10 -7l-441 166q-10 3 -10 14v99q0 10 10 13zM63 135h441q10 0 10 -10v-115q0 -10 -10 -10h-441q-10 0 -10 10v115q0 10 10 10z" />
    <glyph glyph-name="greaterequal" unicode="&#x2265;" 
d="M63 627l441 -167q10 -3 10 -13v-99q0 -11 -10 -14l-441 -166q-10 -3 -10 7v124q0 9 10 13l243 84v2l-243 85q-10 4 -10 13v124q0 10 10 7zM63 135h441q10 0 10 -10v-115q0 -10 -10 -10h-441q-10 0 -10 10v115q0 10 10 10z" />
    <glyph glyph-name="lozenge" unicode="&#x25ca;" horiz-adv-x="546" 
d="M306 710h111q10 0 13 -10l104 -364q1 -7 -3 -14l-232 -364q-6 -10 -16 -10h-112q-8 0 -11 10l-104 364q-1 7 3 14l231 364q6 10 16 10zM339 560l-152 -239l62 -223h2l152 239l-62 223h-2z" />
    <glyph glyph-name="uniF8FF" unicode="&#xf8ff;" horiz-adv-x="530" 
d="M10 680h510q10 0 10 -10v-660q0 -10 -10 -10h-510q-10 0 -10 10v660q0 10 10 10zM445 605h-360q-6 0 -6 -6v-518q0 -6 6 -6h360q6 0 6 6v518q0 6 -6 6zM263 563q64 0 101 -33t37 -85q0 -46 -40 -95l-38 -46q-13 -16 -13 -35v-10q0 -10 -10 -10h-81q-10 0 -10 10v24
q0 29 21 55l37 45q30 36 30 54q0 16 -10 25.5t-28 9.5q-16 0 -28 -6q-5 -2 -5 -9v-27q0 -10 -10 -10h-72q-10 0 -10 10v83q0 8 7 14q50 36 122 36zM218 208h83q10 0 10 -10v-75q0 -10 -10 -10h-83q-10 0 -10 10v75q0 10 10 10z" />
    <glyph glyph-name="Z.alt01" horiz-adv-x="563" 
d="M140 680h460q11 0 9 -10l-23 -126q-1 -7 -5 -12l-121 -129h58q10 0 8 -10l-16 -96q-2 -10 -12 -10h-146l-130 -140l-1 -3h144q5 0 7 6l7 35q2 10 11 10h126q10 0 8 -10l-31 -175q-2 -10 -11 -10h-472q-11 0 -9 10l23 129q2 7 6 11l127 137h-58q-10 0 -8 10l17 96
q2 10 12 10h144l123 132l1 2h-132q-6 0 -7 -6l-6 -33q-2 -10 -11 -10h-126q-10 0 -8 10l31 172q2 10 11 10z" />
    <glyph glyph-name="Zacute.alt01" horiz-adv-x="563" 
d="M433 889h135q5 0 6.5 -3t-2.5 -7l-145 -122q-11 -10 -22 -10h-109q-4 0 -5.5 3t1.5 7l119 122q10 10 22 10zM140 680h460q11 0 9 -10l-23 -126q-1 -7 -5 -12l-121 -129h58q10 0 8 -10l-16 -96q-2 -10 -12 -10h-146l-130 -140l-1 -3h144q5 0 7 6l7 35q2 10 11 10h126
q10 0 8 -10l-31 -175q-2 -10 -11 -10h-472q-11 0 -9 10l23 129q2 7 6 11l127 137h-58q-10 0 -8 10l17 96q2 10 12 10h144l123 132l1 2h-132q-6 0 -7 -6l-6 -33q-2 -10 -11 -10h-126q-10 0 -8 10l31 172q2 10 11 10z" />
    <glyph glyph-name="Zcaron.alt01" horiz-adv-x="563" 
d="M460 892h95q5 0 6 -3t-2 -7l-129 -136q-9 -10 -20 -10h-86q-12 0 -18 10l-80 136q-2 4 0 7t6 3h87q13 0 20 -10l38 -51h2l57 51q10 10 24 10zM140 680h460q11 0 9 -10l-23 -126q-1 -7 -5 -12l-121 -129h58q10 0 8 -10l-16 -96q-2 -10 -12 -10h-146l-130 -140l-1 -3h144
q5 0 7 6l7 35q2 10 11 10h126q10 0 8 -10l-31 -175q-2 -10 -11 -10h-472q-11 0 -9 10l23 129q2 7 6 11l127 137h-58q-10 0 -8 10l17 96q2 10 12 10h144l123 132l1 2h-132q-6 0 -7 -6l-6 -33q-2 -10 -11 -10h-126q-10 0 -8 10l31 172q2 10 11 10z" />
    <glyph glyph-name="Zdotaccent.alt01" horiz-adv-x="563" 
d="M323 879h133q10 0 8 -10l-19 -107q-2 -10 -11 -10h-133q-10 0 -8 10l19 107q2 10 11 10zM140 680h460q11 0 9 -10l-23 -126q-1 -7 -5 -12l-121 -129h58q10 0 8 -10l-16 -96q-2 -10 -12 -10h-146l-130 -140l-1 -3h144q5 0 7 6l7 35q2 10 11 10h126q10 0 8 -10l-31 -175
q-2 -10 -11 -10h-472q-11 0 -9 10l23 129q2 7 6 11l127 137h-58q-10 0 -8 10l17 96q2 10 12 10h144l123 132l1 2h-132q-6 0 -7 -6l-6 -33q-2 -10 -11 -10h-126q-10 0 -8 10l31 172q2 10 11 10z" />
    <glyph glyph-name="a.alt01" horiz-adv-x="545" 
d="M246 497q87 0 111 -58h1l7 38q2 10 11 10h185q10 0 8 -10l-19 -111q-2 -10 -12 -10h-28q-6 0 -7 -6l-38 -213q-1 -6 5 -6h29q10 0 8 -10l-19 -111q-2 -10 -11 -10h-186q-10 0 -8 10l6 37h-1q-45 -58 -131 -58q-134 0 -134 158q0 53 15 125.5t38 118.5q52 106 170 106z
M280 366q-44 0 -65 -45q-10 -19 -19.5 -67.5t-9.5 -73.5q0 -59 51 -59q45 0 66 43q9 20 19 68.5t10 73.5q0 60 -52 60z" />
    <glyph glyph-name="aacute.alt01" horiz-adv-x="545" 
d="M360 702h134q5 0 6 -3t-3 -7l-123 -136q-10 -10 -20 -10h-110q-4 0 -5.5 3t1.5 7l101 136q7 10 19 10zM246 497q87 0 111 -58h1l7 38q2 10 11 10h185q10 0 8 -10l-19 -111q-2 -10 -12 -10h-28q-6 0 -7 -6l-38 -213q-1 -6 5 -6h29q10 0 8 -10l-19 -111q-2 -10 -11 -10
h-186q-10 0 -8 10l6 37h-1q-45 -58 -131 -58q-134 0 -134 158q0 53 15 125.5t38 118.5q52 106 170 106zM280 366q-44 0 -65 -45q-10 -19 -19.5 -67.5t-9.5 -73.5q0 -59 51 -59q45 0 66 43q9 20 19 68.5t10 73.5q0 60 -52 60z" />
    <glyph glyph-name="abreve.alt01" horiz-adv-x="545" 
d="M440 690h62q12 0 10 -11q-11 -59 -63 -99t-116 -40q-60 0 -96.5 33t-36.5 85q0 13 1 20q2 12 13 12h62q11 0 14 -11q8 -41 58 -41q52 0 75 41q5 11 17 11zM246 497q87 0 111 -58h1l7 38q2 10 11 10h185q10 0 8 -10l-19 -111q-2 -10 -12 -10h-28q-6 0 -7 -6l-38 -213
q-1 -6 5 -6h29q10 0 8 -10l-19 -111q-2 -10 -11 -10h-186q-10 0 -8 10l6 37h-1q-45 -58 -131 -58q-134 0 -134 158q0 53 15 125.5t38 118.5q52 106 170 106zM280 366q-44 0 -65 -45q-10 -19 -19.5 -67.5t-9.5 -73.5q0 -59 51 -59q45 0 66 43q9 20 19 68.5t10 73.5
q0 60 -52 60z" />
    <glyph glyph-name="acircumflex.alt01" horiz-adv-x="545" 
d="M321 701h87q12 0 17 -9l80 -137q2 -4 0.5 -7t-6.5 -3h-87q-12 0 -20 10l-38 52h-2l-57 -52q-11 -10 -24 -10h-95q-4 0 -5.5 3t1.5 7l129 137q8 9 20 9zM246 497q87 0 111 -58h1l7 38q2 10 11 10h185q10 0 8 -10l-19 -111q-2 -10 -12 -10h-28q-6 0 -7 -6l-38 -213
q-1 -6 5 -6h29q10 0 8 -10l-19 -111q-2 -10 -11 -10h-186q-10 0 -8 10l6 37h-1q-45 -58 -131 -58q-134 0 -134 158q0 53 15 125.5t38 118.5q52 106 170 106zM280 366q-44 0 -65 -45q-10 -19 -19.5 -67.5t-9.5 -73.5q0 -59 51 -59q45 0 66 43q9 20 19 68.5t10 73.5
q0 60 -52 60z" />
    <glyph glyph-name="adieresis.alt01" horiz-adv-x="545" 
d="M211 682h105q10 0 8 -10l-20 -106q-2 -10 -11 -10h-104q-11 0 -9 10l20 106q2 10 11 10zM410 682h104q10 0 8 -10l-19 -106q-2 -10 -11 -10h-105q-11 0 -9 10l20 106q2 10 12 10zM246 497q87 0 111 -58h1l7 38q2 10 11 10h185q10 0 8 -10l-19 -111q-2 -10 -12 -10h-28
q-6 0 -7 -6l-38 -213q-1 -6 5 -6h29q10 0 8 -10l-19 -111q-2 -10 -11 -10h-186q-10 0 -8 10l6 37h-1q-45 -58 -131 -58q-134 0 -134 158q0 53 15 125.5t38 118.5q52 106 170 106zM280 366q-44 0 -65 -45q-10 -19 -19.5 -67.5t-9.5 -73.5q0 -59 51 -59q45 0 66 43
q9 20 19 68.5t10 73.5q0 60 -52 60z" />
    <glyph glyph-name="agrave.alt01" horiz-adv-x="545" 
d="M185 702h125q11 0 15 -10l53 -136q3 -10 -8 -10h-100q-13 0 -18 10l-74 136q-2 4 0 7t7 3zM246 497q87 0 111 -58h1l7 38q2 10 11 10h185q10 0 8 -10l-19 -111q-2 -10 -12 -10h-28q-6 0 -7 -6l-38 -213q-1 -6 5 -6h29q10 0 8 -10l-19 -111q-2 -10 -11 -10h-186
q-10 0 -8 10l6 37h-1q-45 -58 -131 -58q-134 0 -134 158q0 53 15 125.5t38 118.5q52 106 170 106zM280 366q-44 0 -65 -45q-10 -19 -19.5 -67.5t-9.5 -73.5q0 -59 51 -59q45 0 66 43q9 20 19 68.5t10 73.5q0 60 -52 60z" />
    <glyph glyph-name="amacron.alt01" horiz-adv-x="545" 
d="M212 673h291q10 0 8 -10l-15 -87q-2 -10 -11 -10h-291q-10 0 -8 10l15 87q2 10 11 10zM246 497q87 0 111 -58h1l7 38q2 10 11 10h185q10 0 8 -10l-19 -111q-2 -10 -12 -10h-28q-6 0 -7 -6l-38 -213q-1 -6 5 -6h29q10 0 8 -10l-19 -111q-2 -10 -11 -10h-186q-10 0 -8 10
l6 37h-1q-45 -58 -131 -58q-134 0 -134 158q0 53 15 125.5t38 118.5q52 106 170 106zM280 366q-44 0 -65 -45q-10 -19 -19.5 -67.5t-9.5 -73.5q0 -59 51 -59q45 0 66 43q9 20 19 68.5t10 73.5q0 60 -52 60z" />
    <glyph glyph-name="aogonek.alt01" horiz-adv-x="545" 
d="M246 497q87 0 111 -58h1l7 38q2 10 11 10h185q10 0 8 -10l-19 -111q-2 -10 -12 -10h-28q-6 0 -7 -6l-38 -213q-1 -6 5 -6h29q10 0 8 -10l-19 -111q-2 -10 -11 -10h-50q-53 -24 -73.5 -40.5t-20.5 -30.5q0 -13 14 -13q10 0 24 8q10 6 13 -3l24 -68q4 -9 -5 -13
q-49 -30 -102 -30q-42 0 -67 21.5t-25 56.5q0 60 74 114l6 45h-1q-45 -58 -131 -58q-134 0 -134 158q0 53 15 125.5t38 118.5q52 106 170 106zM280 366q-44 0 -65 -45q-10 -19 -19.5 -67.5t-9.5 -73.5q0 -59 51 -59q45 0 66 43q9 20 19 68.5t10 73.5q0 60 -52 60z" />
    <glyph glyph-name="aring.alt01" horiz-adv-x="545" 
d="M364 744q42 0 68 -25t26 -65q0 -56 -36.5 -95t-94.5 -39q-42 0 -68.5 25t-26.5 65q0 56 37 95t95 39zM353 678q-21 0 -36 -16t-15 -40q0 -16 9.5 -26t25.5 -10q21 0 36 16t15 40q0 16 -9.5 26t-25.5 10zM246 497q87 0 111 -58h1l7 38q2 10 11 10h185q10 0 8 -10l-19 -111
q-2 -10 -12 -10h-28q-6 0 -7 -6l-38 -213q-1 -6 5 -6h29q10 0 8 -10l-19 -111q-2 -10 -11 -10h-186q-10 0 -8 10l6 37h-1q-45 -58 -131 -58q-134 0 -134 158q0 53 15 125.5t38 118.5q52 106 170 106zM280 366q-44 0 -65 -45q-10 -19 -19.5 -67.5t-9.5 -73.5q0 -59 51 -59
q45 0 66 43q9 20 19 68.5t10 73.5q0 60 -52 60z" />
    <glyph glyph-name="atilde.alt01" horiz-adv-x="545" 
d="M294 696q40 0 78 -23q29 -18 54 -18q36 0 78 33q4 3 7.5 1.5t2.5 -6.5l-14 -78q-3 -13 -13 -22q-41 -35 -84 -35q-37 0 -78 23q-28 18 -54 18q-36 0 -78 -33q-4 -3 -7.5 -1.5t-2.5 6.5l14 78q3 14 13 22q43 35 84 35zM246 497q87 0 111 -58h1l7 38q2 10 11 10h185
q10 0 8 -10l-19 -111q-2 -10 -12 -10h-28q-6 0 -7 -6l-38 -213q-1 -6 5 -6h29q10 0 8 -10l-19 -111q-2 -10 -11 -10h-186q-10 0 -8 10l6 37h-1q-45 -58 -131 -58q-134 0 -134 158q0 53 15 125.5t38 118.5q52 106 170 106zM280 366q-44 0 -65 -45q-10 -19 -19.5 -67.5
t-9.5 -73.5q0 -59 51 -59q45 0 66 43q9 20 19 68.5t10 73.5q0 60 -52 60z" />
    <glyph glyph-name="germandbls.alt01" horiz-adv-x="591" 
d="M312 680h65q10 0 8 -10l-18 -103q-2 -10 -12 -10h-29q-29 0 -41 -9.5t-16 -36.5l-3 -18q-2 -6 5 -6h306q10 0 8 -10l-16 -97q-1 -11 -10 -18l-100 -111v-3q74 -45 74 -140q0 -130 -93 -209.5t-240 -79.5q-11 0 -8 10l19 109q2 10 12 10q64 1 105 34.5t41 95.5
q0 69 -77 80q-9 2 -8 10l18 100q1 8 8 15l74 80v4h-135q-5 0 -7 -6l-39 -224q-1 -6 5 -6h25q10 0 8 -10l-19 -111q-2 -10 -11 -10h-227q-10 0 -8 10l19 111q2 10 11 10h29q7 0 8 6l65 371q16 93 63.5 132.5t140.5 39.5z" />
    <glyph glyph-name="f_i" horiz-adv-x="621" 
d="M324 680h61q10 0 8 -10l-18 -102q-2 -10 -10 -10h-28q-29 0 -41.5 -9.5t-16.5 -36.5l-3 -18q-1 -7 5 -7h69q10 0 8 -10l-20 -111q-2 -10 -11 -10h-69q-6 0 -7 -6l-36 -213q-1 -6 4 -6h40q10 0 8 -10l-19 -111q-2 -10 -12 -10h-241q-10 0 -8 10l19 111q2 10 12 10h29
q5 0 7 6l37 213q1 6 -4 6h-27q-9 0 -7 10l19 111q2 10 10 10h28q6 0 7 6l3 16q16 93 63.5 132t140.5 39zM490 680h142q10 0 8 -10l-19 -107q-2 -10 -11 -10h-142q-10 0 -8 10l19 107q2 10 11 10zM412 487h186q10 0 8 -10l-61 -340q-1 -6 5 -6h29q10 0 8 -10l-19 -111
q-2 -10 -12 -10h-230q-10 0 -8 10l19 111q2 10 12 10h29q6 0 7 6l38 213q1 6 -5 6h-29q-10 0 -8 10l19 111q2 10 12 10z" />
    <glyph glyph-name="f_l" horiz-adv-x="618" 
d="M324 680h61q10 0 8 -10l-18 -102q-2 -10 -10 -10h-28q-29 0 -41.5 -9.5t-16.5 -36.5l-3 -18q-1 -7 5 -7h69q10 0 8 -10l-20 -111q-2 -10 -11 -10h-69q-6 0 -7 -6l-36 -213q-1 -6 4 -6h40q10 0 8 -10l-19 -111q-2 -10 -12 -10h-241q-10 0 -8 10l19 111q2 10 12 10h29
q5 0 7 6l37 213q1 6 -4 6h-27q-9 0 -7 10l19 111q2 10 10 10h28q6 0 7 6l3 16q16 93 63.5 132t140.5 39zM425 680h185q11 0 9 -10l-90 -491q-2 -14 -2 -18q0 -30 33 -30h19q10 0 8 -10l-19 -114q-2 -10 -11 -10h-56q-74 0 -107 25.5t-33 82.5q0 25 6 58l68 379q1 7 -5 7h-28
q-10 0 -8 10l19 111q2 10 12 10z" />
    <glyph glyph-name="zero.alt01" 
d="M353 692q86 0 138 -45.5t52 -128.5q0 -60 -25 -201t-49 -189q-68 -140 -232 -140q-86 0 -138.5 45.5t-52.5 128.5q0 59 25.5 200t48.5 190q69 140 233 140zM333 559q-41 0 -60 -39q-21 -38 -54 -254l160 262q-10 31 -46 31zM371 417l-161 -264q8 -32 47 -32q42 0 61 39
q19 38 53 257z" />
    <glyph glyph-name="six.alt01" 
d="M367 692q105 0 177 -46q8 -5 7 -14l-22 -128q-2 -10 -10 -10h-123q-10 0 -8 10l7 39q1 7 -6 10q-12 6 -36 6q-39 0 -62.5 -23t-33.5 -75l-8 -46h1q29 29 90 29q77 0 122.5 -37.5t45.5 -111.5q0 -37 -10.5 -90t-26.5 -85q-64 -132 -234 -132q-83 0 -135 42.5t-52 124.5
q0 33 6 67l40 225q44 245 271 245zM293 312q-44 0 -65 -43q-19 -41 -19 -96q0 -51 52 -51q46 0 65 42q19 40 19 96q0 52 -52 52z" />
    <glyph glyph-name="seven.alt01" 
d="M129 680h419q11 0 9 -10l-22 -119q-2 -12 -7 -22l-92 -164h49q11 0 9 -10l-18 -104q-2 -10 -12 -10h-97l-129 -231q-5 -10 -15 -10h-149q-12 0 -5 11l130 230h-86q-10 0 -8 10l18 104q2 10 11 10h135l97 172v3h-114q-6 0 -7 -6l-9 -46q-2 -10 -11 -10h-131q-10 0 -8 10
l32 182q2 10 11 10z" />
    <glyph glyph-name="nine.alt01" 
d="M353 692q83 0 135 -42.5t52 -124.5q0 -33 -6 -67l-40 -225q-44 -245 -277 -245q-101 0 -183 48q-8 6 -7 16l23 126q2 10 11 10h121q11 0 9 -10l-7 -39q-1 -7 6 -10q19 -8 44 -8q40 0 64.5 23t33.5 75l9 45h-1q-28 -28 -90 -28q-77 0 -122.5 37.5t-45.5 111.5
q0 37 10.5 89.5t26.5 84.5q64 133 234 133zM329 558q-46 0 -65 -42q-19 -40 -19 -96q0 -52 52 -52q45 0 65 43q19 38 19 96q0 51 -52 51z" />
    <glyph glyph-name="zero.alt02" horiz-adv-x="502" 
d="M349 692q86 0 138 -45.5t52 -128.5q0 -60 -25 -201t-49 -189q-68 -140 -232 -140q-86 0 -138.5 45.5t-52.5 128.5q0 59 25.5 200t48.5 190q69 140 233 140zM329 559q-41 0 -60 -39q-21 -38 -54 -254l160 262q-10 31 -46 31zM367 417l-161 -264q8 -32 47 -32q42 0 61 39
q19 38 53 257z" />
    <glyph glyph-name="six.alt02" horiz-adv-x="478" 
d="M353 692q105 0 177 -46q8 -5 7 -14l-22 -128q-2 -10 -10 -10h-123q-10 0 -8 10l7 39q1 7 -6 10q-12 6 -36 6q-39 0 -62.5 -23t-33.5 -75l-8 -46h1q29 29 90 29q77 0 122.5 -37.5t45.5 -111.5q0 -37 -10.5 -90t-26.5 -85q-64 -132 -234 -132q-83 0 -135 42.5t-52 124.5
q0 33 6 67l40 225q44 245 271 245zM279 312q-44 0 -65 -43q-19 -41 -19 -96q0 -51 52 -51q46 0 65 42q19 40 19 96q0 52 -52 52z" />
    <glyph glyph-name="seven.alt02" horiz-adv-x="444" 
d="M139 680h419q11 0 9 -10l-22 -119q-2 -12 -7 -22l-92 -164h49q11 0 9 -10l-18 -104q-2 -10 -12 -10h-97l-129 -231q-5 -10 -15 -10h-149q-12 0 -5 11l130 230h-86q-10 0 -8 10l18 104q2 10 11 10h135l97 172v3h-114q-6 0 -7 -6l-9 -46q-2 -10 -11 -10h-131q-10 0 -8 10
l32 182q2 10 11 10z" />
    <glyph glyph-name="nine.alt02" horiz-adv-x="466" 
d="M322 692q83 0 135 -42.5t52 -124.5q0 -33 -6 -67l-40 -225q-44 -245 -277 -245q-101 0 -183 48q-8 6 -7 16l23 126q2 10 11 10h121q11 0 9 -10l-7 -39q-1 -7 6 -10q19 -8 44 -8q40 0 64.5 23t33.5 75l9 45h-1q-28 -28 -90 -28q-77 0 -122.5 37.5t-45.5 111.5
q0 37 10.5 89.5t26.5 84.5q64 133 234 133zM298 558q-46 0 -65 -42q-19 -40 -19 -96q0 -52 52 -52q45 0 65 43q19 38 19 96q0 51 -52 51z" />
    <glyph glyph-name="zero.lf" horiz-adv-x="502" 
d="M351 692q86 0 138 -45.5t52 -128.5q0 -60 -25 -201t-49 -189q-68 -140 -232 -140q-86 0 -138.5 45.5t-52.5 128.5q0 59 25.5 200t48.5 190q69 140 233 140zM331 558q-40 0 -59 -39q-12 -26 -38.5 -168.5t-26.5 -179.5q0 -23 12.5 -36t35.5 -13q40 0 59 39q13 25 39 167.5
t26 180.5q0 49 -48 49z" />
    <glyph glyph-name="one.lf" horiz-adv-x="462" 
d="M244 680h135q10 0 8 -10l-95 -533q-2 -6 5 -6h114q10 0 8 -10l-19 -111q-2 -10 -10 -10h-404q-10 0 -8 10l19 111q2 10 11 10h114q6 0 7 6l65 367h-1l-129 -73q-3 -2 -6 -2t-5 2.5t-1 6.5l26 141q2 9 9 14l138 81q7 6 19 6z" />
    <glyph glyph-name="two.lf" horiz-adv-x="432" 
d="M290 692q88 0 138.5 -45t50.5 -116q0 -110 -105 -209l-196 -187l-1 -2h97q6 0 8 6l7 39q2 10 11 10h122q10 0 8 -10l-30 -168q-2 -10 -11 -10h-423q-10 0 -8 10l19 108q2 9 9 16l275 270q55 55 55 103q0 52 -55 52q-28 0 -50 -11q-7 -4 -8 -9l-10 -55q-2 -10 -11 -10
h-122q-10 0 -8 10l25 141q1 8 9 13q88 54 204 54z" />
    <glyph glyph-name="three.lf" horiz-adv-x="455" 
d="M303 692q90 0 140 -41.5t50 -110.5q0 -116 -102 -176v-2q61 -36 61 -121q0 -112 -73.5 -182.5t-190.5 -70.5q-120 0 -189 47q-7 5 -6 15l23 134q2 10 11 10h122q10 0 8 -10l-8 -45q-1 -6 6 -10q17 -8 45 -8q42 0 66.5 28.5t24.5 71.5q0 29 -17.5 45.5t-48.5 16.5h-26
q-10 0 -8 10l19 112q2 10 12 10h25q36 0 59 25.5t23 65.5q0 52 -55 52q-24 0 -46 -10q-5 -3 -7 -9l-9 -51q-2 -10 -11 -10h-122q-11 0 -9 10l25 138q1 8 9 13q83 53 199 53z" />
    <glyph glyph-name="four.lf" horiz-adv-x="522" 
d="M290 680h150q12 0 5 -10l-254 -431l-1 -3h90q7 0 7 6l22 124q2 10 12 10h134q11 0 9 -10l-22 -124q-2 -6 4 -6h37q11 0 9 -10l-21 -118q-2 -10 -11 -10h-38q-6 0 -7 -6l-14 -82q-2 -10 -11 -10h-135q-11 0 -9 10l14 82q2 6 -5 6h-254q-10 0 -8 10l22 122q1 7 6 14
l253 427q4 9 16 9z" />
    <glyph glyph-name="five.lf" horiz-adv-x="426" 
d="M118 680h380q11 0 9 -10l-21 -116q-2 -10 -12 -10h-247q-5 0 -7 -6l-22 -122h2q39 39 109 39q148 0 148 -147q0 -110 -41 -192q-63 -128 -229 -128q-122 0 -185 49q-8 5 -6 15l23 132q2 10 11 10h122q11 0 9 -10l-8 -46q-1 -7 5 -10q17 -7 43 -7q52 0 73 44t21 103
q0 55 -50 55q-40 0 -59 -35q-5 -10 -14 -10h-124q-10 0 -8 10l67 382q2 10 11 10z" />
    <glyph glyph-name="six.lf" horiz-adv-x="518" 
d="M318 680h152q12 0 5 -11l-175 -256l1 -1q10 6 34 6q70 0 113 -44.5t43 -118.5q0 -113 -76.5 -190t-195.5 -77q-90 0 -143.5 47.5t-53.5 127.5q0 99 87 225l196 285q6 7 13 7zM271 290q-38 0 -65.5 -30t-27.5 -73q0 -29 17 -47t46 -18q38 0 65 30t27 73q0 30 -16.5 47.5
t-45.5 17.5z" />
    <glyph glyph-name="seven.lf" horiz-adv-x="449" 
d="M150 680h419q11 0 9 -10l-22 -119q-2 -12 -7 -22l-290 -519q-5 -10 -15 -10h-149q-12 0 -5 11l297 526v3h-114q-5 0 -7 -6l-12 -65q-2 -10 -11 -10h-132q-10 0 -8 10l36 201q2 10 11 10z" />
    <glyph glyph-name="eight.lf" horiz-adv-x="498" 
d="M346 692q88 0 137 -47t49 -118q0 -106 -88 -172l-1 -2q53 -44 53 -116q0 -105 -78.5 -177t-193.5 -72q-90 0 -145 46t-55 124q0 59 27.5 110.5t79.5 84.5l1 2q-41 35 -41 101q0 94 71.5 165t183.5 71zM324 558q-32 0 -56 -25t-24 -60q0 -24 14.5 -39.5t39.5 -15.5
q32 0 55.5 25t23.5 60q0 25 -14 40t-39 15zM275 287q-39 0 -66 -29t-27 -71q0 -29 18 -47t47 -18q39 0 66 29t27 71q0 29 -17.5 47t-47.5 18z" />
    <glyph glyph-name="nine.lf" horiz-adv-x="521" 
d="M387 692q89 0 142.5 -47.5t53.5 -127.5q0 -97 -88 -225l-195 -285q-6 -7 -13 -7h-152q-13 0 -6 11l176 256l-1 1q-8 -5 -34 -5q-71 0 -114 45.5t-43 120.5q0 110 77 186.5t197 76.5zM364 558q-39 0 -65.5 -30t-26.5 -72q0 -30 16.5 -48t45.5 -18q39 0 66 30t27 72
q0 30 -16.5 48t-46.5 18z" />
    <glyph glyph-name="zero.osf" horiz-adv-x="556" 
d="M326 498q99 0 156.5 -56.5t57.5 -148.5q0 -133 -85.5 -219t-216.5 -86q-99 0 -156.5 56.5t-57.5 148.5q0 133 85.5 219t216.5 86zM302 353q-49 0 -82 -40t-33 -93q0 -40 19.5 -63.5t55.5 -23.5q49 0 82 39.5t33 93.5q0 40 -19.5 63.5t-55.5 23.5z" />
    <glyph glyph-name="one.osf" horiz-adv-x="470" 
d="M219 486h135q10 0 8 -10l-60 -339q-2 -6 5 -6h111q10 0 8 -10l-19 -111q-2 -10 -10 -10h-397q-10 0 -8 10l19 111q2 10 11 10h111q5 0 7 6l35 194h-2l-132 -44q-5 -2 -8.5 -0.5t-2.5 7.5l23 124q1 10 11 14l132 49q13 5 23 5z" />
    <glyph glyph-name="two.osf" horiz-adv-x="459" 
d="M264 498q89 0 140.5 -40t51.5 -106q0 -59 -29.5 -100t-92.5 -75l-96 -50l-1 -2h172q10 0 8 -10l-18 -105q-2 -10 -10 -10h-418q-11 0 -9 10l17 94q1 10 11 15l219 116q47 25 66 45.5t19 44.5q0 46 -58 46q-28 0 -52 -11q-6 -3 -7 -8l-8 -47q-2 -10 -11 -10h-122
q-10 0 -8 10l22 128q1 8 9 13q89 52 205 52z" />
    <glyph glyph-name="three.osf" horiz-adv-x="422" 
d="M40 486h399q10 0 8 -10l-20 -110q-1 -10 -9 -18l-143 -138v-2q52 -12 82.5 -49t30.5 -93q0 -116 -73 -187t-190 -71q-118 0 -191 44q-8 5 -6 16l24 136q2 10 10 10h122q10 0 8 -10l-7 -46q-1 -7 5 -10q15 -7 45 -7q45 0 70 27.5t25 74.5q0 61 -83 61h-39q-10 0 -8 10
l17 100q3 12 11 20l118 118v2h-92q-6 0 -7 -6l-6 -38q-2 -10 -11 -10h-123q-10 0 -8 10l30 166q2 10 11 10z" />
    <glyph glyph-name="four.osf" horiz-adv-x="511" 
d="M217 486h150q12 0 5 -10l-213 -335v-2h86q7 0 8 6l21 119q2 10 12 10h137q9 0 7 -10l-20 -119q-2 -6 3 -6h39q10 0 8 -10l-21 -119q-2 -10 -11 -10h-37q-7 0 -8 -6l-29 -164q-2 -10 -12 -10h-137q-10 0 -8 10l29 164q2 6 -4 6h-250q-10 0 -8 10l21 122q1 9 7 16l210 330
q5 8 15 8z" />
    <glyph glyph-name="five.osf" horiz-adv-x="412" 
d="M54 486h382q11 0 9 -10l-21 -115q-2 -10 -11 -10h-250q-5 0 -7 -6l-21 -120h3q40 38 110 38q148 0 148 -147q0 -99 -39 -180q-63 -128 -230 -128q-120 0 -185 47q-8 5 -6 16l22 127q2 10 11 10h122q10 0 8 -10l-6 -40q-1 -6 5 -10q12 -7 45 -7q48 0 68 41q23 48 23 94
q0 55 -51 55q-43 0 -61 -35q-5 -10 -15 -10h-122q-11 0 -9 10l67 380q2 10 11 10z" />
    <glyph glyph-name="six.osf" horiz-adv-x="521" 
d="M320 680h152q14 0 5 -11l-176 -257l1 -1q8 7 35 7q71 0 113.5 -44.5t42.5 -118.5q0 -113 -77 -190t-196 -77q-89 0 -142.5 47.5t-53.5 127.5q0 99 88 226l195 284q6 7 13 7zM273 290q-39 0 -66 -30t-27 -73q0 -29 17 -47t46 -18q38 0 65 30t27 73q0 30 -16.5 47.5
t-45.5 17.5z" />
    <glyph glyph-name="seven.osf" horiz-adv-x="462" 
d="M93 486h420q10 0 8 -10l-22 -119q-1 -8 -8 -22l-281 -505q-5 -10 -14 -10h-149q-11 0 -6 11l288 512v3h-113q-6 0 -7 -6l-13 -65q-2 -10 -11 -10h-131q-10 0 -8 10l36 201q2 10 11 10z" />
    <glyph glyph-name="eight.osf" horiz-adv-x="499" 
d="M348 692q88 0 137 -46.5t49 -117.5q0 -107 -88 -173l-1 -2q53 -42 53 -116q0 -105 -78.5 -177t-193.5 -72q-89 0 -144.5 46t-55.5 124q0 58 27.5 110t78.5 85l1 2q-40 38 -40 102q0 94 71.5 164.5t183.5 70.5zM326 558q-32 0 -55.5 -25t-23.5 -60q0 -25 14 -40t39 -15
q32 0 55.5 25t23.5 60q0 25 -14 40t-39 15zM276 287q-39 0 -66 -29t-27 -71q0 -29 18 -47t47 -18q39 0 66 29t27 71q0 29 -17.5 47t-47.5 18z" />
    <glyph glyph-name="nine.osf" horiz-adv-x="521" 
d="M318 498q90 0 143.5 -47.5t53.5 -127.5q0 -96 -88 -225l-187 -271q-6 -7 -14 -7h-150q-13 0 -6 11l167 243l-1 1q-8 -6 -34 -6q-71 0 -114 44.5t-43 118.5q0 113 77 189.5t196 76.5zM295 365q-38 0 -65 -30t-27 -73q0 -30 17 -48t46 -18q38 0 65 30t27 73q0 30 -16.5 48
t-46.5 18z" />
    </font>
</defs>
</svg>
