<?xml version="1.0" standalone="no"?>
<!DOCTYPE svg PUBLIC "-//W3C//DTD SVG 1.1//EN" "http://www.w3.org/Graphics/SVG/1.1/DTD/svg11.dtd" >
<svg>
<metadata>
Created by FontForge 20090622 at Tue Jan 23 10:37:26 2018
 By deploy user
Copyright &#194;&#169; 2014 Monotype Imaging Inc.  All rights reserved.
</metadata>
<defs>
<font id="DINNextSlabPro-Italic" horiz-adv-x="325" >
  <font-face 
    font-family="DIN Next Slab Pro"
    font-weight="400"
    font-style="italic"
    font-stretch="normal"
    units-per-em="1000"
    panose-1="2 8 5 4 2 2 5 9 2 4"
    ascent="750"
    descent="-250"
    x-height="479"
    cap-height="680"
    bbox="-153.25 -212 972 916"
    underline-thickness="50"
    underline-position="-75"
    slope="-10"
    unicode-range="U+000D-U+FB02"
  />
<missing-glyph horiz-adv-x="477" 
d="M10 680h457q10 0 10 -10v-660q0 -10 -10 -10h-457q-10 0 -10 10v660q0 10 10 10zM422 633h-367q-6 0 -6 -6v-574q0 -6 6 -6h367q6 0 6 6v574q0 6 -6 6zM229 562q56 0 88 -29t32 -78q0 -42 -32 -87l-44 -61q-16 -23 -16 -47v-19q0 -10 -10 -10h-39q-10 0 -10 10v24
q0 32 20 60l45 61q27 38 27 65q0 26 -17 42t-46 16t-46 -12q-5 -4 -5 -10v-38q0 -10 -10 -10h-34q-10 0 -10 10v68q0 9 9 15q42 30 98 30zM205 183h45q10 0 10 -10v-49q0 -10 -10 -10h-45q-10 0 -10 10v49q0 10 10 10z" />
    <glyph glyph-name="fi" unicode="fi" horiz-adv-x="595" 
d="M321 680h36q10 0 8 -10l-9 -52q-2 -10 -11 -10h-25q-43 0 -59.5 -14.5t-24.5 -59.5l-9 -49q-1 -6 4 -6h91q10 0 8 -10l-9 -52q-1 -10 -12 -10h-89q-4 0 -6 -6l-59 -323q-1 -6 4 -6h59q10 0 8 -10l-9 -52q-2 -10 -11 -10h-197q-10 0 -8 10l9 52q2 10 11 10h48q5 0 7 6
l58 323q2 6 -4 6h-41q-9 0 -7 10l9 52q2 10 10 10h41q6 0 7 6l7 43q14 83 53 117.5t112 34.5zM509 680h66q10 0 8 -10l-12 -69q-2 -10 -11 -10h-66q-10 0 -8 10l12 69q2 10 11 10zM414 479h123q10 0 8 -10l-70 -391q-1 -6 4 -6h48q10 0 8 -10l-9 -52q-2 -10 -11 -10h-186
q-10 0 -8 10l9 52q2 10 12 10h46q6 0 8 6l57 322q1 7 -5 7h-46q-10 0 -8 10l9 52q2 10 11 10z" />
    <glyph glyph-name="fl" unicode="fl" horiz-adv-x="579" 
d="M321 680h36q10 0 8 -10l-9 -52q-2 -10 -11 -10h-25q-43 0 -59.5 -14.5t-24.5 -59.5l-9 -49q-1 -6 4 -6h91q10 0 8 -10l-9 -52q-1 -10 -12 -10h-89q-4 0 -6 -6l-59 -323q-1 -6 4 -6h59q10 0 8 -10l-9 -52q-2 -10 -11 -10h-197q-10 0 -8 10l9 52q2 10 11 10h48q5 0 7 6
l58 323q2 6 -4 6h-41q-9 0 -7 10l9 52q2 10 10 10h41q6 0 7 6l7 43q14 83 53 117.5t112 34.5zM429 680h123q10 0 8 -10l-101 -547q-2 -14 -2 -19q0 -32 39 -32h17q10 0 8 -10l-8 -54q-2 -10 -12 -10h-32q-48 0 -70.5 20.5t-22.5 62.5q0 21 4 41l88 479q1 7 -5 7h-46
q-10 0 -8 10l9 52q2 10 11 10z" />
    <glyph glyph-name="f_f" unicode="ff" horiz-adv-x="630" 
d="M321 680h36q10 0 8 -10l-9 -52q-2 -10 -11 -10h-25q-43 0 -59.5 -14.5t-24.5 -59.5l-9 -49q-1 -6 4 -6h91q10 0 8 -10l-9 -52q-1 -10 -12 -10h-89q-4 0 -6 -6l-59 -323q-1 -6 4 -6h59q10 0 8 -10l-9 -52q-2 -10 -11 -10h-197q-10 0 -8 10l9 52q2 10 11 10h48q5 0 7 6
l58 323q2 6 -4 6h-41q-9 0 -7 10l9 52q2 10 10 10h41q6 0 7 6l7 43q14 83 53 117.5t112 34.5zM636 680h36q10 0 8 -10l-9 -52q-2 -10 -11 -10h-25q-43 0 -59.5 -14.5t-24.5 -59.5l-9 -49q-2 -6 4 -6h91q10 0 8 -10l-9 -52q-1 -10 -12 -10h-89q-5 0 -6 -6l-59 -323
q-2 -6 4 -6h59q10 0 8 -10l-9 -52q-2 -10 -11 -10h-197q-10 0 -8 10l9 52q2 10 11 10h48q6 0 7 6l58 323q1 6 -4 6h-41q-9 0 -7 10l9 52q2 10 10 10h41q5 0 7 6l7 43q14 83 53 117.5t112 34.5z" />
    <glyph glyph-name="f_f_i" unicode="ffi" horiz-adv-x="910" 
d="M321 680h36q10 0 8 -10l-9 -52q-2 -10 -11 -10h-25q-43 0 -59.5 -14.5t-24.5 -59.5l-9 -49q-1 -6 4 -6h91q10 0 8 -10l-9 -52q-1 -10 -12 -10h-89q-4 0 -6 -6l-59 -323q-1 -6 4 -6h59q10 0 8 -10l-9 -52q-2 -10 -11 -10h-197q-10 0 -8 10l9 52q2 10 11 10h48q5 0 7 6
l58 323q2 6 -4 6h-41q-9 0 -7 10l9 52q2 10 10 10h41q6 0 7 6l7 43q14 83 53 117.5t112 34.5zM636 680h36q10 0 8 -10l-9 -52q-2 -10 -11 -10h-25q-43 0 -59.5 -14.5t-24.5 -59.5l-9 -49q-2 -6 4 -6h91q10 0 8 -10l-9 -52q-1 -10 -12 -10h-89q-5 0 -6 -6l-59 -323
q-2 -6 4 -6h59q10 0 8 -10l-9 -52q-2 -10 -11 -10h-197q-10 0 -8 10l9 52q2 10 11 10h48q6 0 7 6l58 323q1 6 -4 6h-41q-9 0 -7 10l9 52q2 10 10 10h41q5 0 7 6l7 43q14 83 53 117.5t112 34.5zM824 680h66q10 0 8 -10l-12 -69q-2 -10 -11 -10h-66q-10 0 -8 10l12 69
q2 10 11 10zM729 479h123q10 0 8 -10l-70 -391q-2 -6 4 -6h48q10 0 8 -10l-9 -52q-2 -10 -11 -10h-186q-10 0 -8 10l9 52q2 10 12 10h46q7 0 8 6l57 322q1 7 -5 7h-46q-10 0 -8 10l9 52q2 10 11 10z" />
    <glyph glyph-name="f_f_l" unicode="ffl" horiz-adv-x="894" 
d="M321 680h36q10 0 8 -10l-9 -52q-2 -10 -11 -10h-25q-43 0 -59.5 -14.5t-24.5 -59.5l-9 -49q-1 -6 4 -6h91q10 0 8 -10l-9 -52q-1 -10 -12 -10h-89q-4 0 -6 -6l-59 -323q-1 -6 4 -6h59q10 0 8 -10l-9 -52q-2 -10 -11 -10h-197q-10 0 -8 10l9 52q2 10 11 10h48q5 0 7 6
l58 323q2 6 -4 6h-41q-9 0 -7 10l9 52q2 10 10 10h41q6 0 7 6l7 43q14 83 53 117.5t112 34.5zM636 680h36q10 0 8 -10l-9 -52q-2 -10 -11 -10h-25q-43 0 -59.5 -14.5t-24.5 -59.5l-9 -49q-2 -6 4 -6h91q10 0 8 -10l-9 -52q-1 -10 -12 -10h-89q-5 0 -6 -6l-59 -323
q-2 -6 4 -6h59q10 0 8 -10l-9 -52q-2 -10 -11 -10h-197q-10 0 -8 10l9 52q2 10 11 10h48q6 0 7 6l58 323q1 6 -4 6h-41q-9 0 -7 10l9 52q2 10 10 10h41q5 0 7 6l7 43q14 83 53 117.5t112 34.5zM744 680h123q10 0 8 -10l-101 -547q-2 -14 -2 -19q0 -32 39 -32h17q10 0 8 -10
l-8 -54q-2 -10 -12 -10h-32q-48 0 -70.5 20.5t-22.5 62.5q0 21 4 41l88 479q1 7 -5 7h-46q-10 0 -8 10l9 52q2 10 11 10z" />
    <glyph glyph-name=".notdef" horiz-adv-x="477" 
d="M10 680h457q10 0 10 -10v-660q0 -10 -10 -10h-457q-10 0 -10 10v660q0 10 10 10zM422 633h-367q-6 0 -6 -6v-574q0 -6 6 -6h367q6 0 6 6v574q0 6 -6 6zM229 562q56 0 88 -29t32 -78q0 -42 -32 -87l-44 -61q-16 -23 -16 -47v-19q0 -10 -10 -10h-39q-10 0 -10 10v24
q0 32 20 60l45 61q27 38 27 65q0 26 -17 42t-46 16t-46 -12q-5 -4 -5 -10v-38q0 -10 -10 -10h-34q-10 0 -10 10v68q0 9 9 15q42 30 98 30zM205 183h45q10 0 10 -10v-49q0 -10 -10 -10h-45q-10 0 -10 10v49q0 10 10 10z" />
    <glyph glyph-name=".null" horiz-adv-x="0" 
 />
    <glyph glyph-name="nonmarkingreturn" horiz-adv-x="333" 
 />
    <glyph glyph-name="CR" unicode="&#xd;" horiz-adv-x="600" 
 />
    <glyph glyph-name="space" unicode=" " horiz-adv-x="232" 
 />
    <glyph glyph-name="exclam" unicode="!" horiz-adv-x="273" 
d="M184 680h69q10 0 8 -10l-99 -477q-2 -10 -11 -10h-40q-9 0 -7 10l70 477q1 10 10 10zM83 103h70q11 0 9 -10l-14 -83q-2 -10 -11 -10h-71q-10 0 -8 10l14 83q2 10 11 10z" />
    <glyph glyph-name="quotedbl" unicode="&#x22;" horiz-adv-x="317" 
d="M157 680h41q10 0 8 -10l-27 -154q-2 -10 -11 -10h-41q-10 0 -8 10l27 154q2 10 11 10zM283 680h41q10 0 8 -10l-27 -154q-2 -10 -11 -10h-41q-10 0 -8 10l27 154q2 10 11 10z" />
    <glyph glyph-name="numbersign" unicode="#" horiz-adv-x="494" 
d="M447 680h43q11 0 8 -10l-59 -192h74q10 0 8 -10l-7 -38q-2 -10 -10 -10h-83l-45 -146h77q11 0 9 -10l-7 -38q-2 -10 -11 -10h-86l-63 -206q-3 -10 -12 -10h-43q-10 0 -7 10l63 206h-129l-63 -206q-3 -10 -12 -10h-43q-10 0 -7 10l63 206h-71q-11 0 -9 10l7 38q2 10 11 10
h80l45 146h-74q-10 0 -8 10l6 38q2 10 12 10h82l59 192q3 10 12 10h43q10 0 7 -10l-59 -192h129l59 192q3 10 11 10zM230 420l-45 -146h129l45 146h-129z" />
    <glyph glyph-name="dollar" unicode="$" horiz-adv-x="517" 
d="M343 750h26q10 0 8 -10l-9 -50q72 -6 126 -35q7 -4 6 -11l-18 -104q-2 -10 -10 -10h-56q-11 0 -9 10l10 55q1 5 -4 7q-27 10 -58 13l-41 -236q72 -13 109 -52.5t37 -100.5q0 -103 -59.5 -165.5t-154.5 -70.5l-9 -50q-2 -10 -12 -10h-26q-10 0 -8 10l8 50q-98 5 -155 40
q-7 4 -6 12l19 106q2 10 11 10h55q11 0 9 -10l-10 -57q-1 -5 4 -8q33 -16 86 -19l43 244q-69 12 -106 54t-37 105q0 95 58.5 156.5t152.5 66.5l9 50q2 10 11 10zM269 388l41 227q-53 -7 -86 -44t-33 -93q0 -70 78 -90zM300 300l-41 -233q56 9 88.5 48t32.5 97q0 68 -80 88z
" />
    <glyph glyph-name="percent" unicode="%" horiz-adv-x="748" 
d="M629 691h44q5 0 6 -3t-2 -7l-499 -682q-7 -10 -16 -10h-44q-4 0 -5.5 3t1.5 7l500 682q7 10 15 10zM272 688q44 0 72 -25t28 -70q0 -29 -12 -95.5t-24 -91.5q-37 -76 -122 -76q-44 0 -72.5 25.5t-28.5 69.5q0 28 12.5 94.5t24.5 92.5q37 76 122 76zM265 633
q-40 0 -58 -37q-10 -19 -21.5 -80.5t-11.5 -84.5q0 -21 12.5 -33.5t34.5 -12.5q39 0 58 37q10 19 21.5 80.5t11.5 84.5q0 21 -12.5 33.5t-34.5 12.5zM578 349q44 0 72 -25t28 -70q0 -29 -12 -94.5t-24 -91.5q-37 -77 -122 -77q-44 0 -72.5 25.5t-28.5 70.5q0 28 12.5 94
t24.5 92q37 76 122 76zM570 294q-38 0 -58 -36q-10 -20 -21.5 -81t-11.5 -84q0 -22 12.5 -34.5t34.5 -12.5q40 0 58 37q10 19 22 80t12 85q0 21 -13 33.5t-35 12.5z" />
    <glyph glyph-name="ampersand" unicode="&#x26;" horiz-adv-x="603" 
d="M336 691q57 0 91.5 -34t34.5 -86q0 -51 -33 -97.5t-120 -109.5l90 -161l88 92q7 7 15 7h60q10 0 8 -10l-9 -52q-2 -10 -12 -10h-27q-6 0 -11 -5l-78 -83l26 -47q13 -23 36 -23h25q10 0 8 -10l-9 -52q-2 -10 -11 -10h-32q-29 0 -45 9.5t-32 37.5l-21 37q-52 -51 -94.5 -73
t-93.5 -22q-68 0 -108 41t-40 105q0 63 38 120t133 126q-54 95 -54 143q0 69 52 118t125 49zM325 621q-38 0 -63.5 -25.5t-25.5 -63.5q0 -35 39 -107q66 48 89 77.5t23 57.5t-16.5 44.5t-45.5 16.5zM344 146l-97 174q-70 -49 -99 -89.5t-29 -85.5q0 -37 22.5 -59.5
t61.5 -22.5q35 0 64.5 18t76.5 65z" />
    <glyph glyph-name="quotesingle" unicode="'" horiz-adv-x="191" 
d="M157 680h41q10 0 8 -10l-27 -154q-2 -10 -11 -10h-41q-10 0 -8 10l27 154q2 10 11 10z" />
    <glyph glyph-name="parenleft" unicode="(" horiz-adv-x="280" 
d="M287 740h34q11 0 4 -10q-176 -275 -176 -562q0 -129 34 -242q3 -10 -7 -10h-34q-9 0 -13 10q-55 127 -55 271q0 284 197 533q7 10 16 10z" />
    <glyph glyph-name="parenright" unicode=")" horiz-adv-x="280" 
d="M142 740h34q9 0 13 -10q55 -123 55 -271q0 -284 -197 -533q-7 -10 -16 -10h-34q-11 0 -4 10q176 275 176 562q0 129 -34 242q-3 10 7 10z" />
    <glyph glyph-name="asterisk" unicode="*" horiz-adv-x="335" 
d="M232 680h27q10 0 8 -10l-17 -90l83 46q10 6 14 -3l9 -26q3 -8 -6 -13l-85 -46l68 -45q9 -6 2 -13l-17 -24q-5 -9 -14 -2l-68 45l-15 -91q-2 -10 -12 -10h-27q-10 0 -8 10l16 89l-81 -44q-11 -6 -14 3l-10 26q-3 9 7 13l84 45l-67 45q-9 5 -2 14l16 23q7 9 15 2l67 -46
l15 92q2 10 12 10z" />
    <glyph glyph-name="plus" unicode="+" horiz-adv-x="517" 
d="M242 486h53q10 0 10 -10v-158q0 -6 6 -6h156q10 0 10 -10v-52q0 -10 -10 -10h-156q-6 0 -6 -6v-157q0 -10 -10 -10h-53q-10 0 -10 10v157q0 6 -6 6h-156q-10 0 -10 10v52q0 10 10 10h156q6 0 6 6v158q0 10 10 10z" />
    <glyph glyph-name="comma" unicode="," horiz-adv-x="226" 
d="M63 103h65q10 0 8 -10l-15 -90q-3 -13 -9 -22l-71 -81q-6 -7 -13 -7q-10 0 -8 10l32 190q2 10 11 10z" />
    <glyph glyph-name="hyphen" unicode="-" horiz-adv-x="361" 
d="M71 302h253q10 0 8 -10l-8 -53q-2 -9 -12 -9h-254q-10 0 -8 10l9 53q1 9 12 9z" />
    <glyph glyph-name="period" unicode="." horiz-adv-x="226" 
d="M57 103h71q10 0 8 -10l-13 -83q-2 -10 -11 -10h-71q-10 0 -8 10l13 83q2 10 11 10z" />
    <glyph glyph-name="slash" unicode="/" horiz-adv-x="391" 
d="M364 691h51q10 0 5 -10l-332 -682q-4 -10 -14 -10h-52q-10 0 -5 10l333 682q4 10 14 10z" />
    <glyph glyph-name="zero" unicode="0" horiz-adv-x="517" 
d="M340 691q74 0 116.5 -41.5t42.5 -113.5q0 -58 -29.5 -217.5t-51.5 -205.5q-59 -124 -196 -124q-75 0 -117.5 41.5t-42.5 113.5q0 58 29.5 217.5t51.5 205.5q61 124 197 124zM330 618q-76 0 -111 -71q-19 -37 -47.5 -191.5t-28.5 -205.5q0 -40 22.5 -64t65.5 -24
q76 0 112 72q19 37 47 191t28 205q0 40 -22.5 64t-65.5 24z" />
    <glyph glyph-name="one" unicode="1" horiz-adv-x="517" 
d="M334 680h54q10 0 8 -10l-105 -592q-1 -6 5 -6h110q10 0 8 -10l-9 -52q-2 -10 -10 -10h-311q-10 0 -8 10l9 52q2 10 10 10h110q5 0 7 6l89 501h-1l-130 -81q-5 -3 -8 -1t-2 8l12 71q2 10 9 14l134 84q12 6 19 6z" />
    <glyph glyph-name="two" unicode="2" horiz-adv-x="517" 
d="M324 691q75 0 119 -42t44 -108q0 -53 -23 -99t-73 -99l-251 -269v-1h197q7 0 8 6l11 65q2 10 11 10h58q10 0 8 -10l-23 -134q-2 -10 -11 -10h-363q-11 0 -9 10l8 49q2 9 8 15l290 313q72 78 72 143q0 41 -24.5 64t-68.5 23q-48 0 -87 -22q-5 -3 -7 -9l-13 -71
q-2 -10 -11 -10h-57q-11 0 -9 10l21 115q1 8 9 13q76 48 166 48z" />
    <glyph glyph-name="three" unicode="3" horiz-adv-x="517" 
d="M326 691q78 0 122 -38t44 -107q0 -60 -30 -109.5t-83 -76.5v-2q30 -13 49.5 -46.5t19.5 -81.5q0 -106 -63.5 -173.5t-165.5 -67.5q-49 0 -94.5 13.5t-68.5 32.5q-7 7 -6 16l19 103q2 10 10 10h57q10 0 8 -10l-10 -60q-1 -6 4 -10q32 -21 89 -21q61 0 100 43.5t39 108.5
q0 46 -27 73.5t-74 27.5h-28q-10 0 -8 10l9 54q2 9 11 9h28q57 0 95 41.5t38 98.5q0 43 -25.5 65.5t-71.5 22.5q-47 0 -83 -20q-6 -3 -7 -9l-12 -71q-2 -10 -12 -10h-57q-10 0 -8 10l20 116q1 7 9 12q73 46 163 46z" />
    <glyph glyph-name="four" unicode="4" horiz-adv-x="517" 
d="M354 680h62q10 0 5 -9l-288 -475v-2h170q7 0 8 6l32 180q2 10 11 10h60q11 0 9 -10l-32 -180q-1 -6 5 -6h60q10 0 8 -10l-9 -53q-1 -9 -12 -9h-60q-5 0 -7 -6l-19 -106q-2 -10 -11 -10h-60q-10 0 -8 10l19 106q1 6 -5 6h-252q-10 0 -8 9l8 51q1 6 6 14l293 476q5 8 15 8z
" />
    <glyph glyph-name="five" unicode="5" horiz-adv-x="517" 
d="M183 680h324q11 0 9 -10l-9 -53q-2 -10 -11 -10h-257q-5 0 -7 -6l-35 -199h2q44 46 116 46q68 0 104.5 -36.5t36.5 -107.5q0 -42 -12 -104t-30 -100q-54 -111 -195 -111q-102 0 -156 43q-7 6 -6 15l19 106q2 10 11 10h56q11 0 9 -10l-11 -63q-1 -7 4 -10q30 -17 83 -17
q81 0 116 68q13 28 22.5 75.5t9.5 78.5q0 90 -85 90q-37 0 -66 -19t-42 -47q-4 -10 -13 -10h-54q-9 0 -8 10l64 361q2 10 11 10z" />
    <glyph glyph-name="six" unicode="6" horiz-adv-x="517" 
d="M361 680h64q10 0 5 -10l-196 -284l2 -1q22 16 70 16q68 0 110.5 -42.5t42.5 -114.5q0 -107 -66 -181t-171 -74q-77 0 -123 44t-46 120q0 95 71 198l223 322q5 7 14 7zM279 329q-63 0 -104.5 -48.5t-41.5 -116.5q0 -46 26.5 -73.5t71.5 -27.5q63 0 105 48.5t42 115.5
q0 46 -26.5 74t-72.5 28z" />
    <glyph glyph-name="seven" unicode="7" horiz-adv-x="517" 
d="M170 680h347q11 0 9 -10l-10 -56q-1 -7 -5 -13l-329 -592q-5 -9 -16 -9h-61q-10 0 -4 11l330 594v2h-202q-5 0 -7 -6l-16 -87q-2 -10 -11 -10h-56q-10 0 -8 10l28 156q2 10 11 10z" />
    <glyph glyph-name="eight" unicode="8" horiz-adv-x="517" 
d="M340 691q74 0 116 -42.5t42 -108.5q0 -56 -28.5 -105t-77.5 -77l-1 -2q68 -39 68 -129q0 -99 -66.5 -168.5t-170.5 -69.5q-79 0 -126 44t-47 116q0 66 33.5 123t92.5 86l1 2q-54 35 -54 111q0 87 59 153.5t159 66.5zM330 617q-54 0 -91 -39.5t-37 -95.5q0 -39 23.5 -63.5
t63.5 -24.5q54 0 91.5 39.5t37.5 96.5q0 38 -23.5 62.5t-64.5 24.5zM277 321q-62 0 -105 -46t-43 -112q0 -45 27.5 -72.5t74.5 -27.5q62 0 105 45.5t43 111.5q0 45 -27.5 73t-74.5 28z" />
    <glyph glyph-name="nine" unicode="9" horiz-adv-x="517" 
d="M340 691q77 0 123 -44t46 -120q0 -93 -72 -197l-223 -323q-6 -7 -14 -7h-63q-12 0 -6 10l195 284l-2 1q-21 -15 -68 -15q-68 0 -111 45t-43 117q0 101 65.5 175t172.5 74zM330 617q-63 0 -104.5 -48.5t-41.5 -114.5q0 -47 26.5 -75t72.5 -28q63 0 104.5 49t41.5 114
q0 47 -26 75t-73 28z" />
    <glyph glyph-name="colon" unicode=":" horiz-adv-x="226" 
d="M124 479h71q10 0 8 -10l-13 -83q-2 -10 -11 -10h-71q-11 0 -9 10l14 83q2 10 11 10zM57 103h71q10 0 8 -10l-13 -83q-2 -10 -11 -10h-71q-10 0 -8 10l13 83q2 10 11 10z" />
    <glyph glyph-name="semicolon" unicode=";" horiz-adv-x="226" 
d="M124 479h71q10 0 8 -10l-13 -83q-2 -10 -11 -10h-71q-11 0 -9 10l14 83q2 10 11 10zM60 103h65q11 0 9 -10l-15 -90q-2 -11 -10 -22l-71 -81q-6 -7 -13 -7q-10 0 -8 10l32 190q2 10 11 10z" />
    <glyph glyph-name="less" unicode="&#x3c;" horiz-adv-x="517" 
d="M65 312l397 162q10 3 10 -6v-60q0 -9 -10 -13l-304 -118v-2l304 -118q10 -4 10 -13v-60q0 -9 -10 -6l-397 162q-10 5 -10 14v44q0 9 10 14z" />
    <glyph glyph-name="equal" unicode="=" horiz-adv-x="517" 
d="M60 411h397q10 0 10 -10v-53q0 -10 -10 -10h-397q-10 0 -10 10v53q0 10 10 10zM60 214h397q10 0 10 -10v-53q0 -10 -10 -10h-397q-10 0 -10 10v53q0 10 10 10z" />
    <glyph glyph-name="greater" unicode="&#x3e;" horiz-adv-x="517" 
d="M66 474l397 -162q10 -5 10 -14v-44q0 -9 -10 -14l-397 -162q-10 -3 -10 6v60q0 9 10 13l303 118v2l-303 118q-10 4 -10 13v60q0 9 10 6z" />
    <glyph glyph-name="question" unicode="?" horiz-adv-x="437" 
d="M295 691q76 0 116 -37.5t40 -100.5q0 -71 -78 -163l-77 -90q-31 -36 -39 -76l-8 -33q-2 -10 -11 -10h-59q-10 0 -8 10l8 42q11 53 45 92l77 89q39 44 54 71t15 56q0 35 -21.5 55.5t-62.5 20.5q-47 0 -84 -22q-7 -4 -8 -9l-10 -62q-2 -10 -12 -10h-57q-10 0 -8 10l19 108
q1 7 9 12q76 47 160 47zM160 103h71q10 0 8 -10l-13 -83q-2 -10 -11 -10h-70q-11 0 -9 10l13 83q2 10 11 10z" />
    <glyph glyph-name="at" unicode="@" horiz-adv-x="868" 
d="M498 660q147 0 237.5 -87t90.5 -228q0 -130 -51.5 -209.5t-148.5 -79.5q-85 0 -103 71h-1q-46 -71 -139 -71q-54 0 -89 35t-35 97q0 104 39 184q48 98 150 98q79 0 102 -57h2l7 37q2 10 11 10h98q10 0 8 -10l-7 -42q-2 -10 -11 -10h-36q-6 0 -8 -6l-30 -171
q-5 -27 -5 -41q0 -31 16 -46.5t42 -15.5q58 0 90.5 63t32.5 154q0 122 -74 192.5t-199 70.5q-164 0 -266.5 -111t-102.5 -284q0 -123 73.5 -194.5t198.5 -71.5q103 0 204 46q10 6 13 -3l15 -42q3 -8 -6 -12q-100 -53 -237 -53q-147 0 -237.5 90t-90.5 237q0 205 123 332.5
t324 127.5zM457 408q-70 0 -100 -65q-13 -27 -22 -70t-9 -73q0 -38 19 -60t57 -22q68 0 100 65q30 60 30 143q0 38 -19 59.5t-56 22.5z" />
    <glyph glyph-name="A" unicode="A" horiz-adv-x="586" 
d="M342 680h70q9 0 11 -10l95 -592q2 -6 7 -6h29q10 0 8 -10l-9 -52q-2 -10 -11 -10h-176q-10 0 -8 10l9 52q2 10 11 10h54q6 0 5 6l-19 124h-246l-64 -124q-3 -6 3 -6h54q10 0 8 -10l-9 -52q-2 -10 -12 -10h-183q-10 0 -8 10l9 52q2 10 11 10h31q6 0 8 5l308 593
q5 10 14 10zM359 566l-148 -288h195l-44 288h-3z" />
    <glyph glyph-name="B" unicode="B" horiz-adv-x="597" 
d="M128 680h285q84 0 127 -38t43 -108q0 -133 -119 -182v-2q30 -11 52.5 -42.5t22.5 -79.5q0 -107 -64 -167.5t-183 -60.5h-284q-10 0 -8 10l9 52q2 10 12 10h50q7 0 8 6l93 524q2 6 -5 6h-51q-10 0 -8 10l9 52q2 10 11 10zM400 604h-139q-5 0 -7 -6l-36 -208q-2 -6 4 -6
h138q62 0 100 37.5t38 95.5q0 40 -25.5 63.5t-72.5 23.5zM352 307h-143q-5 0 -7 -6l-39 -219q-1 -6 5 -6h143q66 0 105.5 39t39.5 101q0 42 -26.5 66.5t-77.5 24.5z" />
    <glyph glyph-name="C" unicode="C" horiz-adv-x="562" 
d="M378 691q120 0 189 -54q9 -8 8 -17l-19 -109q-2 -10 -10 -10h-59q-11 0 -9 10l13 68q1 5 -3 8q-40 26 -113 26q-116 0 -168 -105q-22 -45 -42 -153.5t-20 -158.5q0 -129 141 -129q68 0 111 23q6 3 7 8l12 68q2 10 11 10h59q10 0 8 -10l-20 -116q-1 -8 -10 -14
q-75 -47 -187 -47q-217 0 -217 200q0 55 23 177t48 172q75 153 247 153z" />
    <glyph glyph-name="D" unicode="D" horiz-adv-x="619" 
d="M128 680h283q185 0 185 -184q0 -70 -21.5 -188.5t-50.5 -175.5q-35 -72 -90.5 -102t-141.5 -30h-284q-10 0 -8 10l9 52q2 10 11 10h51q7 0 8 6l93 524q2 6 -5 6h-51q-10 0 -8 10l9 52q2 10 11 10zM381 602h-120q-5 0 -7 -6l-91 -512q-1 -6 5 -6h119q120 0 167 96
q21 42 41 146.5t20 159.5q0 63 -33.5 92.5t-100.5 29.5z" />
    <glyph glyph-name="E" unicode="E" horiz-adv-x="561" 
d="M128 680h451q11 0 9 -10l-23 -132q-2 -10 -10 -10h-59q-11 0 -9 10l10 59q1 6 -4 6h-233q-6 0 -7 -6l-36 -208q-1 -6 5 -6h167q5 0 7 6l8 42q2 10 11 10h58q10 0 8 -10l-30 -173q-2 -10 -10 -10h-58q-11 0 -9 10l7 42q1 6 -4 6h-169q-6 0 -7 -6l-39 -217q-2 -6 5 -6h232
q7 0 8 6l11 64q2 10 11 10h59q10 0 8 -10l-24 -137q-2 -10 -12 -10h-452q-10 0 -8 10l9 52q2 10 12 10h50q7 0 8 6l93 524q2 6 -5 6h-51q-10 0 -8 10l9 52q2 10 11 10z" />
    <glyph glyph-name="F" unicode="F" horiz-adv-x="551" 
d="M128 680h452q11 0 9 -10l-23 -132q-2 -10 -11 -10h-58q-11 0 -9 10l10 59q2 6 -4 6h-234q-4 0 -6 -6l-38 -216q-2 -6 5 -6h170q7 0 8 6l8 42q2 10 11 10h58q10 0 8 -10l-30 -173q-2 -10 -10 -10h-58q-11 0 -9 10l7 42q2 6 -5 6h-171q-6 0 -7 -6l-39 -214q-2 -6 4 -6h64
q10 0 8 -10l-9 -52q-2 -10 -11 -10h-210q-10 0 -8 10l9 52q2 10 12 10h50q7 0 8 6l93 524q2 6 -5 6h-51q-10 0 -8 10l9 52q2 10 11 10z" />
    <glyph glyph-name="G" unicode="G" horiz-adv-x="602" 
d="M390 691q62 0 115.5 -18.5t81.5 -46.5q7 -7 5 -16l-18 -102q-2 -10 -10 -10h-59q-11 0 -9 10l12 67q2 6 -3 9q-46 29 -125 29q-121 0 -173 -106q-22 -45 -42 -153t-20 -158q0 -128 145 -128q84 0 128 27q9 5 11 15l30 169q1 6 -5 6h-124q-9 0 -7 10l9 54q2 10 11 10h203
q9 0 7 -10l-51 -285q-4 -17 -17 -26q-73 -49 -200 -49q-110 0 -167.5 51t-57.5 149q0 54 23.5 177t47.5 173q39 80 100 116t159 36z" />
    <glyph glyph-name="H" unicode="H" horiz-adv-x="663" 
d="M501 680h198q10 0 8 -10l-9 -52q-2 -10 -11 -10h-52q-5 0 -7 -6l-93 -524q-1 -6 5 -6h51q10 0 8 -10l-9 -52q-2 -10 -11 -10h-198q-10 0 -8 10l9 52q2 10 11 10h51q6 0 8 6l39 221q1 6 -5 6h-277q-5 0 -7 -6l-40 -221q-2 -6 4 -6h52q10 0 8 -10l-9 -52q-2 -10 -12 -10
h-197q-10 0 -8 10l9 52q2 10 12 10h50q7 0 8 6l93 524q2 6 -5 6h-51q-10 0 -8 10l9 52q2 10 11 10h198q10 0 8 -10l-9 -52q-2 -10 -11 -10h-51q-7 0 -8 -6l-38 -213q-1 -6 5 -6h278q6 0 7 6l38 213q1 6 -4 6h-52q-10 0 -8 10l9 52q2 10 11 10z" />
    <glyph glyph-name="I" unicode="I" horiz-adv-x="290" 
d="M128 680h198q10 0 8 -10l-9 -52q-2 -10 -11 -10h-51q-7 0 -8 -6l-93 -524q-2 -6 5 -6h51q10 0 8 -10l-9 -52q-2 -10 -12 -10h-197q-10 0 -8 10l9 52q2 10 11 10h51q7 0 8 6l93 524q2 6 -5 6h-51q-10 0 -8 10l9 52q2 10 11 10z" />
    <glyph glyph-name="J" unicode="J" horiz-adv-x="475" 
d="M336 680h197q10 0 8 -10l-9 -52q-2 -10 -11 -10h-50q-7 0 -8 -7l-69 -386q-22 -123 -79.5 -174.5t-155.5 -51.5q-44 0 -85.5 12.5t-62.5 28.5q-7 6 -6 15l20 113q2 10 10 10h63q10 0 8 -10l-11 -64q-2 -8 4 -11q25 -14 67 -14q120 0 146 147l68 385q1 7 -5 7h-51
q-10 0 -8 10l9 52q2 10 11 10z" />
    <glyph glyph-name="K" unicode="K" horiz-adv-x="620" 
d="M453 680h198q10 0 8 -10l-9 -52q-2 -10 -11 -10h-45q-8 0 -14 -6l-192 -194l121 -331q2 -5 6 -5h57q10 0 8 -10l-9 -52q-2 -10 -12 -10h-102q-9 0 -13 10l-120 334l-140 -141l-22 -125q-2 -6 5 -6h51q10 0 8 -10l-9 -52q-2 -10 -12 -10h-197q-10 0 -8 10l9 52q2 10 11 10
h51q7 0 8 6l93 523q1 7 -5 7h-51q-10 0 -8 10l9 52q2 10 11 10h198q10 0 8 -10l-9 -52q-2 -10 -11 -10h-51q-7 0 -8 -6l-48 -269l270 268q2 2 1.5 4.5t-4.5 2.5h-33q-10 0 -8 10l9 52q2 10 11 10z" />
    <glyph glyph-name="L" unicode="L" horiz-adv-x="531" 
d="M128 680h198q10 0 8 -10l-9 -52q-2 -10 -12 -10h-50q-7 0 -8 -6l-92 -519q-1 -6 5 -6h231q7 0 8 6l12 63q2 10 11 10h58q10 0 8 -10l-24 -136q-2 -10 -11 -10h-453q-10 0 -8 10l9 52q2 10 12 10h50q7 0 8 6l93 524q2 6 -5 6h-51q-10 0 -8 10l9 52q2 10 11 10z" />
    <glyph glyph-name="M" unicode="M" horiz-adv-x="771" 
d="M677 680h130q10 0 8 -10l-9 -52q-2 -10 -12 -10h-50q-6 0 -8 -6l-93 -524q-1 -6 5 -6h51q10 0 8 -10l-9 -52q-2 -10 -11 -10h-191q-10 0 -8 10l9 52q2 10 11 10h51q7 0 8 6l73 411h-3l-235 -380q-7 -12 -19 -12h-36q-11 0 -16 12l-98 381h-3l-74 -412q-2 -6 4 -6h52
q10 0 8 -10l-9 -52q-2 -10 -12 -10h-191q-10 0 -8 10l9 52q2 10 12 10h50q7 0 8 6l93 524q2 6 -5 6h-51q-10 0 -8 10l9 52q2 10 11 10h120q10 0 13 -10l119 -457h3l279 457q6 10 15 10z" />
    <glyph glyph-name="N" unicode="N" horiz-adv-x="667" 
d="M512 680h191q10 0 8 -10l-9 -52q-2 -10 -11 -10h-51q-6 0 -7 -6l-105 -592q-2 -10 -11 -10h-60q-10 0 -14 10l-203 519h-4l-80 -449q-2 -8 5 -8h51q10 0 8 -10l-9 -52q-2 -10 -12 -10h-191q-10 0 -8 10l9 52q2 10 12 10h50q7 0 8 6l93 524q2 6 -5 6h-51q-10 0 -8 10l9 52
q2 10 11 10h126q10 0 14 -10l204 -521h3l80 453q1 6 -4 6h-52q-10 0 -8 10l9 52q2 10 12 10z" />
    <glyph glyph-name="O" unicode="O" horiz-adv-x="593" 
d="M379 691q91 0 144 -52t53 -147q0 -56 -23 -178t-49 -173q-74 -152 -247 -152q-91 0 -144 52t-53 147q0 56 23 178t48 173q75 152 248 152zM366 613q-107 0 -158 -104q-22 -45 -42.5 -154t-20.5 -159q0 -61 32.5 -95t92.5 -34q107 0 158 104q22 45 42.5 154t20.5 159
q0 61 -32.5 95t-92.5 34z" />
    <glyph glyph-name="P" unicode="P" horiz-adv-x="583" 
d="M128 680h292q83 0 129.5 -42.5t46.5 -116.5q0 -116 -68 -180t-178 -64h-146q-6 0 -7 -6l-35 -193q-2 -6 5 -6h61q10 0 8 -10l-9 -52q-2 -10 -12 -10h-207q-10 0 -8 10l9 52q2 10 12 10h50q7 0 8 6l93 524q2 6 -5 6h-51q-10 0 -8 10l9 52q2 10 11 10zM402 602h-141
q-5 0 -7 -6l-42 -235q-2 -6 5 -6h140q70 1 113 41.5t43 111.5q0 44 -29 69t-82 25z" />
    <glyph glyph-name="Q" unicode="Q" horiz-adv-x="595" 
d="M379 691q91 0 144 -52t53 -147q0 -56 -23 -178t-49 -173q-21 -42 -47 -71l44 -72q5 -9 -4 -15l-44 -28q-10 -6 -16 3l-38 64q-60 -33 -142 -33q-91 0 -144 52t-53 147q0 56 23 178t48 173q75 152 248 152zM366 613q-107 0 -158 -104q-22 -45 -42.5 -154t-20.5 -159
q0 -61 32.5 -95t92.5 -34q50 0 88 23l-52 87q-5 9 4 15l44 28q11 7 16 -3l43 -72q10 16 15 26q22 45 42.5 154t20.5 159q0 61 -32.5 95t-92.5 34z" />
    <glyph glyph-name="R" unicode="R" horiz-adv-x="611" 
d="M128 680h294q81 0 128 -41.5t47 -112.5q0 -82 -46 -141t-123 -79l66 -229q2 -5 6 -5h52q10 0 8 -10l-9 -52q-2 -10 -11 -10h-99q-9 0 -12 10l-79 286h-143q-5 0 -7 -6l-38 -212q-2 -6 4 -6h52q10 0 8 -10l-9 -52q-2 -10 -12 -10h-197q-10 0 -8 10l9 52q2 10 12 10h50
q7 0 8 6l93 524q2 6 -5 6h-51q-10 0 -8 10l9 52q2 10 11 10zM408 602h-147q-5 0 -7 -6l-39 -216q-1 -6 5 -6h147q67 1 107 38.5t40 101.5q0 42 -28 65t-78 23z" />
    <glyph glyph-name="S" unicode="S" horiz-adv-x="568" 
d="M356 691q113 0 190 -47q7 -4 6 -13l-19 -108q-2 -10 -10 -10h-59q-11 0 -9 10l11 59q1 5 -4 8q-48 23 -108 23q-67 0 -108 -37.5t-41 -93.5q0 -40 25 -62t91 -32l31 -4q163 -24 163 -156q0 -111 -71.5 -175t-192.5 -64t-208 55q-8 5 -6 15l21 115q2 10 10 10h61
q11 0 9 -10l-12 -68q-1 -6 4 -10q58 -29 131 -29q75 0 121 41t46 105q0 39 -25.5 61t-89.5 31l-31 5q-164 24 -164 161q0 100 66 160t172 60z" />
    <glyph glyph-name="T" unicode="T" horiz-adv-x="558" 
d="M109 680h503q10 0 8 -10l-22 -130q-2 -10 -11 -10h-58q-11 0 -9 10l10 57q1 6 -5 6h-130q-5 0 -7 -6l-92 -519q-2 -6 4 -6h59q10 0 8 -10l-9 -52q-2 -10 -12 -10h-210q-10 0 -8 10l9 52q2 10 11 10h58q6 0 7 6l92 519q1 6 -4 6h-130q-5 0 -7 -6l-10 -57q-2 -10 -11 -10
h-59q-10 0 -8 10l22 130q2 10 11 10z" />
    <glyph glyph-name="U" unicode="U" horiz-adv-x="636" 
d="M489 680h197q10 0 8 -10l-9 -52q-2 -10 -11 -10h-51q-5 0 -7 -6l-66 -372q-23 -129 -86 -185t-172 -56q-95 0 -150 50.5t-55 141.5q0 21 9 75l61 346q1 6 -5 6h-51q-10 0 -8 10l9 52q2 10 11 10h198q10 0 8 -10l-9 -52q-2 -10 -11 -10h-52q-5 0 -7 -6l-65 -365
q-4 -23 -4 -46q0 -60 33 -92t94 -32q71 0 112.5 38.5t58.5 131.5l64 365q1 6 -4 6h-52q-10 0 -8 10l9 52q2 10 11 10z" />
    <glyph glyph-name="V" unicode="V" horiz-adv-x="577" 
d="M461 680h185q10 0 8 -10l-9 -52q-2 -10 -11 -10h-29q-5 0 -8 -5l-296 -593q-6 -10 -16 -10h-69q-9 0 -11 10l-87 592q-2 6 -7 6h-29q-10 0 -8 10l9 52q2 10 12 10h180q10 0 8 -10l-9 -52q-2 -10 -11 -10h-58q-7 0 -5 -7l70 -486h2l238 487q3 6 -3 6h-59q-10 0 -8 10l9 52
q2 10 12 10z" />
    <glyph glyph-name="W" unicode="W" horiz-adv-x="834" 
d="M715 680h185q10 0 8 -10l-9 -52q-2 -10 -11 -10h-29q-5 0 -8 -5l-248 -593q-4 -10 -13 -10h-57q-9 0 -10 10l-47 523h-2l-233 -523q-5 -10 -13 -10h-58q-10 0 -10 10l-38 591q0 7 -6 7h-31q-10 0 -8 10l9 52q2 10 11 10h181q10 0 8 -10l-9 -52q-2 -10 -12 -10h-58
q-6 0 -6 -6l26 -451h2l228 519q5 10 14 10h52q10 0 11 -10l48 -519h2l183 450q3 7 -3 7h-61q-10 0 -8 10l9 52q2 10 11 10z" />
    <glyph glyph-name="X" unicode="X" horiz-adv-x="565" 
d="M425 680h181q10 0 8 -10l-9 -52q-2 -10 -11 -10h-33q-5 0 -9 -5l-195 -250l119 -275q2 -6 8 -6h36q10 0 8 -10l-9 -52q-2 -10 -12 -10h-180q-10 0 -8 10l9 52q2 10 11 10h44q7 0 4 7l-92 214h-1l-167 -214q-5 -7 3 -7h39q10 0 8 -10l-9 -52q-2 -10 -11 -10h-182
q-10 0 -8 10l9 52q2 10 12 10h32q6 0 10 5l220 281l-107 244q-2 6 -8 6h-34q-10 0 -8 10l9 52q2 10 11 10h180q10 0 8 -10l-9 -52q-2 -10 -12 -10h-42q-7 0 -4 -8l78 -181h1l142 182q5 7 -2 7h-41q-10 0 -8 10l9 52q2 10 12 10z" />
    <glyph glyph-name="Y" unicode="Y" horiz-adv-x="541" 
d="M424 680h184q10 0 8 -10l-9 -52q-2 -10 -11 -10h-33q-5 0 -9 -5l-229 -325l-35 -200q-2 -6 4 -6h58q10 0 8 -10l-9 -52q-2 -10 -11 -10h-210q-10 0 -8 10l9 52q2 10 11 10h57q7 0 8 6l36 201l-113 323q-2 6 -8 6h-34q-10 0 -8 10l9 52q2 10 11 10h181q10 0 8 -10l-9 -52
q-2 -10 -12 -10h-52q-7 0 -4 -7l83 -236h3l170 237q4 6 -3 6h-53q-10 0 -8 10l9 52q2 10 11 10z" />
    <glyph glyph-name="Z" unicode="Z" horiz-adv-x="529" 
d="M148 680h408q10 0 8 -10l-9 -55q-1 -8 -7 -15l-430 -522v-1h258q6 0 8 6l12 64q2 10 11 10h58q10 0 8 -10l-23 -137q-2 -10 -12 -10h-422q-10 0 -8 10l10 59q1 7 7 14l427 519v1h-242q-6 0 -8 -6l-11 -60q-2 -10 -11 -10h-58q-10 0 -8 10l23 133q2 10 11 10z" />
    <glyph glyph-name="bracketleft" unicode="[" horiz-adv-x="272" 
d="M182 740h137q9 0 7 -10l-8 -45q-2 -10 -10 -10h-67q-7 0 -7 -6l-121 -682q-1 -6 5 -6h67q9 0 7 -10l-7 -45q-2 -10 -11 -10h-137q-10 0 -8 10l142 804q2 10 11 10z" />
    <glyph glyph-name="backslash" unicode="\" horiz-adv-x="391" 
d="M140 691h51q9 0 11 -10l91 -682q2 -10 -7 -10h-51q-9 0 -11 10l-92 682q0 10 8 10z" />
    <glyph glyph-name="bracketright" unicode="]" horiz-adv-x="272" 
d="M138 740h137q10 0 8 -10l-142 -804q-2 -10 -11 -10h-137q-10 0 -8 10l8 45q2 10 11 10h68q4 0 6 6l121 682q1 6 -4 6h-67q-11 0 -9 10l7 45q2 10 12 10z" />
    <glyph glyph-name="asciicircum" unicode="^" horiz-adv-x="517" 
d="M248 680h41q9 0 14 -10l173 -387q5 -10 -7 -10h-53q-10 0 -14 10l-133 298h-2l-133 -298q-4 -10 -14 -10h-53q-11 0 -6 10l173 387q5 10 14 10z" />
    <glyph glyph-name="underscore" unicode="_" horiz-adv-x="460" 
d="M400 -129h-456l9 52h456z" />
    <glyph glyph-name="grave" unicode="`" horiz-adv-x="409" 
d="M231 700h58q10 0 14 -10l52 -123q3 -10 -8 -10h-41q-10 0 -16 10l-66 123q-2 4 0 7t7 3z" />
    <glyph glyph-name="a" unicode="a" horiz-adv-x="504" 
d="M277 490q82 0 119.5 -26.5t37.5 -85.5q0 -20 -5 -50l-45 -250q-2 -6 5 -6h46q10 0 8 -10l-9 -52q-2 -10 -12 -10h-116q-10 0 -8 10l7 43h-1q-45 -64 -146 -64q-58 0 -94 33t-36 89q0 82 53 125t153 43h103q5 0 7 6q11 52 11 72q0 34 -21 49t-72 15q-35 0 -76 -13
q-5 -2 -6 -7l-9 -50q-2 -10 -10 -10h-58q-11 0 -9 10l16 93q1 10 8 13q68 33 159 33zM326 216h-89q-131 0 -131 -95q0 -30 21.5 -47.5t61.5 -17.5q53 0 89 26.5t43 71.5l10 56q1 6 -5 6z" />
    <glyph glyph-name="b" unicode="b" horiz-adv-x="540" 
d="M134 680h122q10 0 8 -10l-43 -247h1q51 67 143 67q67 0 103.5 -42t36.5 -115q0 -53 -14.5 -122t-34.5 -111q-55 -111 -177 -111q-94 0 -122 70h-1l-9 -49q-2 -10 -10 -10h-123q-10 0 -8 10l9 52q2 10 11 10h47q5 0 7 6l93 523q1 7 -5 7h-47q-10 0 -8 10l9 52q2 10 12 10z
M334 418q-80 0 -119 -79q-12 -24 -24 -83.5t-12 -95.5q0 -46 23 -72t68 -26q77 0 115 76q15 31 26.5 86.5t11.5 92.5q0 101 -89 101z" />
    <glyph glyph-name="c" unicode="c" horiz-adv-x="465" 
d="M293 490q95 0 147 -44q6 -5 5 -14l-15 -90q-2 -10 -11 -10h-56q-10 0 -8 10l9 50q1 5 -4 9q-26 17 -73 17q-85 0 -124 -79q-16 -32 -26.5 -85t-10.5 -86q0 -53 24 -79t80 -26q43 0 71 14q7 3 8 10l9 49q2 10 10 10h56q10 0 8 -10l-17 -98q-1 -9 -9 -14q-60 -35 -148 -35
q-86 0 -129.5 43.5t-43.5 122.5q0 42 12 106t33 107q30 63 78 92.5t125 29.5z" />
    <glyph glyph-name="d" unicode="d" horiz-adv-x="540" 
d="M386 680h123q11 0 9 -10l-104 -592q-2 -6 4 -6h47q10 0 8 -10l-9 -52q-1 -10 -12 -10h-122q-10 0 -8 10l8 47h-1q-51 -68 -143 -68q-67 0 -103.5 42t-36.5 116q0 52 14.5 121.5t34.5 110.5q54 111 176 111q95 0 123 -69h1l31 180q1 7 -5 7h-47q-10 0 -8 10l9 52
q2 10 11 10zM281 418q-78 0 -116 -77q-15 -30 -26 -85.5t-11 -93.5q0 -100 89 -100q79 0 119 78q12 25 24 84.5t12 94.5q0 46 -23 72.5t-68 26.5z" />
    <glyph glyph-name="e" unicode="e" horiz-adv-x="482" 
d="M288 490q71 0 115.5 -42.5t44.5 -120.5q0 -36 -12 -101q-2 -10 -12 -10h-293q-5 0 -7 -6q-3 -16 -3 -41q0 -107 102 -107q69 0 130 57q10 8 16 0l30 -34q7 -7 -1 -15q-79 -81 -188 -81q-81 0 -123.5 44t-42.5 124q0 121 42 207q60 126 202 126zM278 420q-84 0 -120 -76
q-12 -24 -19 -59q-1 -6 4 -6h216q7 0 8 6q4 19 4 40q0 95 -93 95z" />
    <glyph glyph-name="f" unicode="f" horiz-adv-x="315" 
d="M321 680h36q10 0 8 -10l-9 -52q-2 -10 -11 -10h-25q-43 0 -59.5 -14.5t-24.5 -59.5l-9 -49q-1 -6 4 -6h91q10 0 8 -10l-9 -52q-1 -10 -12 -10h-89q-4 0 -6 -6l-59 -323q-1 -6 4 -6h59q10 0 8 -10l-9 -52q-2 -10 -11 -10h-197q-10 0 -8 10l9 52q2 10 11 10h48q5 0 7 6
l58 323q2 6 -4 6h-41q-9 0 -7 10l9 52q2 10 10 10h41q6 0 7 6l7 43q14 83 53 117.5t112 34.5z" />
    <glyph glyph-name="g" unicode="g" horiz-adv-x="527" 
d="M267 490q92 0 116 -69h1l9 48q2 10 11 10h122q10 0 8 -10l-9 -52q-1 -10 -11 -10h-47q-7 0 -8 -7l-67 -380q-20 -112 -75 -161.5t-151 -49.5q-50 0 -90 20.5t-61 54.5q-6 9 3 16l40 34q9 7 16 -1q42 -50 100 -50q112 0 138 133l11 55h-1q-45 -66 -137 -66q-68 0 -103 41
t-35 112q0 46 12.5 110.5t32.5 106.5q54 115 175 115zM274 418q-73 0 -110 -75q-37 -72 -37 -168q0 -97 89 -97q71 0 109 73q15 29 26 82t11 87q0 98 -88 98z" />
    <glyph glyph-name="h" unicode="h" horiz-adv-x="564" 
d="M134 680h123q10 0 8 -10l-44 -246h1q52 66 140 66q64 0 98 -35.5t34 -98.5q0 -24 -6 -57l-40 -221q-2 -6 5 -6h46q10 0 8 -10l-9 -52q-2 -10 -12 -10h-183q-10 0 -8 10l9 52q2 10 11 10h47q6 0 7 6l36 202q6 34 6 51q0 87 -84 87q-46 0 -82 -34t-46 -87l-39 -219
q-2 -6 4 -6h48q10 0 8 -10l-9 -52q-2 -10 -11 -10h-186q-10 0 -8 10l9 52q2 10 12 10h46q7 0 8 6l93 523q1 7 -5 7h-47q-10 0 -8 10l9 52q2 10 11 10z" />
    <glyph glyph-name="uni0069" unicode="i" horiz-adv-x="280" 
d="M194 680h66q10 0 8 -10l-12 -69q-2 -10 -11 -10h-66q-10 0 -8 10l12 69q2 10 11 10zM99 479h123q10 0 8 -10l-70 -391q-2 -6 4 -6h48q10 0 8 -10l-9 -52q-2 -10 -11 -10h-186q-10 0 -8 10l9 52q2 10 12 10h46q7 0 8 6l57 322q1 7 -5 7h-46q-10 0 -8 10l9 52q2 10 11 10z
" />
    <glyph glyph-name="j" unicode="j" horiz-adv-x="268" 
d="M189 680h66q9 0 7 -10l-12 -70q-2 -10 -11 -10h-66q-10 0 -8 10l13 70q2 10 11 10zM94 479h123q10 0 8 -10l-90 -508q-15 -83 -49 -112t-111 -29h-19q-9 0 -8 10l9 52q2 10 11 10h15q33 0 49 14.5t23 53.5l78 440q1 7 -5 7h-47q-10 0 -8 10l9 52q2 10 12 10z" />
    <glyph glyph-name="k" unicode="k" horiz-adv-x="527" 
d="M134 680h123q10 0 8 -10l-73 -410l213 209q10 10 20 10h80q10 0 8 -10l-9 -52q-1 -10 -11 -10h-45q-6 0 -11 -5l-107 -103l88 -221q2 -6 8 -6h49q10 0 8 -10l-9 -52q-2 -10 -11 -10h-86q-10 0 -14 10l-91 233l-100 -96l-12 -68q-1 -7 5 -7h47q10 0 8 -10l-9 -52
q-2 -10 -11 -10h-186q-10 0 -8 10l9 52q2 10 12 10h46q7 0 8 7l93 522q1 7 -5 7h-47q-10 0 -8 10l9 52q2 10 11 10z" />
    <glyph glyph-name="l" unicode="l" horiz-adv-x="264" 
d="M114 680h123q10 0 8 -10l-101 -547q-2 -14 -2 -19q0 -32 39 -32h17q10 0 8 -10l-8 -54q-2 -10 -12 -10h-32q-48 0 -70.5 20.5t-22.5 62.5q0 21 4 41l88 479q1 7 -5 7h-46q-10 0 -8 10l9 52q2 10 11 10z" />
    <glyph glyph-name="m" unicode="m" horiz-adv-x="852" 
d="M646 490q67 0 101.5 -35.5t34.5 -99.5q0 -24 -4 -45l-42 -232q-2 -6 4 -6h47q10 0 8 -10l-9 -52q-2 -10 -11 -10h-184q-10 0 -8 10l9 52q2 10 12 10h45q7 0 8 6l38 212q4 21 4 39q0 89 -83 89q-46 0 -82.5 -33.5t-46.5 -87.5l-39 -219q-2 -6 4 -6h48q10 0 8 -10l-9 -52
q-2 -10 -12 -10h-185q-10 0 -8 10l9 52q2 10 11 10h47q7 0 8 6l38 212q4 19 4 40q0 88 -84 88q-46 0 -82 -34t-46 -87l-39 -219q-2 -6 4 -6h48q10 0 8 -10l-9 -52q-2 -10 -11 -10h-186q-10 0 -8 10l9 52q2 10 12 10h46q7 0 8 6l57 322q1 7 -5 7h-46q-10 0 -8 10l9 52
q2 10 11 10h122q10 0 8 -10l-8 -44h1q50 65 140 65q95 0 121 -77h1q62 77 162 77z" />
    <glyph glyph-name="n" unicode="n" horiz-adv-x="564" 
d="M362 490q64 0 98 -35.5t34 -98.5q0 -26 -6 -58l-40 -220q-2 -6 5 -6h46q10 0 8 -10l-9 -52q-2 -10 -12 -10h-183q-10 0 -8 10l9 52q2 10 11 10h47q6 0 7 6l36 201q6 30 6 51q0 88 -84 88q-46 0 -82 -34t-46 -87l-39 -219q-2 -6 4 -6h48q10 0 8 -10l-9 -52q-2 -10 -11 -10
h-186q-10 0 -8 10l9 52q2 10 12 10h46q7 0 8 6l57 322q1 7 -5 7h-46q-10 0 -8 10l9 52q2 10 11 10h122q10 0 8 -10l-8 -44h1q51 65 140 65z" />
    <glyph glyph-name="o" unicode="o" horiz-adv-x="492" 
d="M294 490q77 0 119.5 -43.5t42.5 -120.5q0 -49 -13.5 -113t-32.5 -102q-59 -122 -202 -122q-78 0 -120.5 43.5t-42.5 121.5q0 48 13.5 112.5t32.5 101.5q60 122 203 122zM282 418q-78 0 -118 -79q-14 -27 -26 -82.5t-12 -89.5q0 -105 93 -105q81 0 119 78q14 28 25.5 83
t11.5 90q0 105 -93 105z" />
    <glyph glyph-name="p" unicode="p" horiz-adv-x="540" 
d="M365 490q67 0 103.5 -42t36.5 -115q0 -53 -14.5 -122t-34.5 -111q-55 -111 -177 -111q-94 0 -122 70h-1l-28 -161q-2 -6 4 -6h48q10 0 8 -10l-9 -52q-2 -10 -11 -10h-186q-10 0 -8 10l9 52q2 10 12 10h46q7 0 8 6l88 502q1 7 -5 7h-46q-10 0 -8 10l9 52q2 10 11 10h123
q10 0 8 -10l-8 -46h1q51 67 143 67zM333 418q-79 0 -118 -79q-12 -24 -24 -83.5t-12 -95.5q0 -46 23 -72t68 -26q78 0 115 76q16 31 27 86t11 94q0 100 -90 100z" />
    <glyph glyph-name="q" unicode="q" horiz-adv-x="540" 
d="M270 490q96 0 123 -69h1l9 48q2 10 10 10h123q10 0 8 -10l-9 -52q-1 -10 -11 -10h-46q-6 0 -7 -7l-90 -501q-1 -7 5 -7h47q10 0 8 -10l-9 -52q-2 -10 -12 -10h-185q-10 0 -8 10l9 52q2 10 11 10h47q6 0 8 6l28 158h-1q-51 -67 -144 -67q-67 0 -103 42t-36 116
q0 52 14.5 121.5t34.5 110.5q55 111 175 111zM281 418q-77 0 -116 -77q-15 -30 -26.5 -85.5t-11.5 -93.5q0 -100 90 -100q80 0 118 78q12 25 24 84.5t12 94.5q0 99 -90 99z" />
    <glyph glyph-name="r" unicode="r" horiz-adv-x="402" 
d="M357 487q29 0 46 -6q9 -3 8 -10l-10 -61q-1 -9 -12 -7q-31 7 -55 7q-55 0 -91.5 -37.5t-48.5 -103.5l-34 -191q-1 -6 4 -6h55q10 0 8 -10l-9 -52q-2 -10 -12 -10h-192q-10 0 -8 10l9 52q2 10 12 10h46q7 0 8 6l57 322q1 7 -5 7h-46q-10 0 -8 10l9 52q2 10 11 10h123
q10 0 8 -10l-11 -58h1q22 34 58 55t79 21z" />
    <glyph glyph-name="s" unicode="s" horiz-adv-x="468" 
d="M273 490q96 0 154 -39q7 -5 6 -11l-16 -90q-2 -10 -10 -10h-56q-11 0 -9 10l9 49q1 5 -5 8q-31 14 -78 14q-48 0 -77.5 -22.5t-29.5 -57.5q0 -25 17.5 -38.5t59.5 -17.5l48 -5q122 -13 122 -113q0 -83 -57.5 -130.5t-155.5 -47.5q-94 0 -162 43q-7 4 -6 14l17 98
q2 10 11 10h56q11 0 9 -10l-9 -56q-1 -6 4 -9q36 -18 90 -18q56 0 89.5 24.5t33.5 64.5q0 27 -17.5 40.5t-57.5 17.5l-48 5q-60 6 -91.5 36t-31.5 78q0 75 53 119t138 44z" />
    <glyph glyph-name="t" unicode="t" horiz-adv-x="302" 
d="M175 630h60q10 0 8 -10l-24 -135q-1 -6 4 -6h75q10 0 8 -10l-9 -52q-1 -10 -11 -10h-74q-6 0 -7 -6l-51 -264q-3 -15 -3 -27q0 -21 12 -29.5t39 -8.5h20q10 0 8 -10l-9 -54q-2 -10 -12 -10h-35q-55 0 -80 21.5t-25 67.5q0 18 5 46l51 268q1 6 -5 6h-40q-10 0 -8 10l9 52
q2 10 11 10h41q5 0 7 6l24 135q2 10 11 10z" />
    <glyph glyph-name="u" unicode="u" horiz-adv-x="539" 
d="M352 479h122q11 0 9 -10l-69 -391q-2 -6 5 -6h47q10 0 8 -10l-9 -52q-2 -10 -11 -10h-124q-10 0 -8 10l8 45h-1q-53 -66 -136 -66q-63 0 -97 36t-34 98q0 24 6 57l39 220q1 7 -5 7h-47q-10 0 -8 10l9 52q2 10 12 10h121q11 0 9 -10l-48 -267q-6 -30 -6 -54q0 -85 83 -85
q46 0 81 33t45 87l38 217q1 7 -5 7h-46q-10 0 -8 10l9 52q2 10 11 10z" />
    <glyph glyph-name="v" unicode="v" horiz-adv-x="457" 
d="M330 479h159q10 0 8 -10l-9 -52q-1 -10 -11 -10h-22q-6 0 -10 -7l-210 -390q-5 -10 -13 -10h-63q-8 0 -10 10l-72 391q-1 6 -7 6h-27q-10 0 -8 10l9 52q2 10 12 10h160q10 0 8 -10l-9 -52q-1 -10 -11 -10h-43q-7 0 -6 -9l52 -293h1l156 295q4 7 -4 7h-43q-10 0 -8 10
l9 52q2 10 12 10z" />
    <glyph glyph-name="w" unicode="w" horiz-adv-x="702" 
d="M575 479h160q10 0 8 -10l-9 -52q-1 -10 -11 -10h-23q-6 0 -10 -7l-192 -390q-5 -10 -15 -10h-54q-9 0 -11 10l-39 354h-2l-168 -354q-4 -10 -15 -10h-56q-9 0 -11 10l-52 391q-1 6 -8 6h-26q-10 0 -8 10l9 52q2 10 11 10h157q10 0 8 -10l-9 -52q-1 -10 -11 -10h-43
q-7 0 -6 -9l35 -287h1l168 358q5 10 13 10h55q9 0 11 -10l41 -358h1l136 288q3 8 -4 8h-43q-10 0 -8 10l9 52q2 10 11 10z" />
    <glyph glyph-name="x" unicode="x" horiz-adv-x="474" 
d="M387 479h92q10 0 8 -10l-9 -52q-1 -10 -11 -10h-48q-5 0 -10 -6l-120 -151l74 -172q3 -6 9 -6h50q10 0 8 -10l-9 -52q-2 -10 -11 -10h-87q-10 0 -14 9l-73 171h-1l-134 -172q-7 -8 -17 -8h-92q-10 0 -8 10l9 52q2 10 12 10h45q8 0 12 6l137 174l-64 149q-3 6 -9 6h-51
q-10 0 -8 10l9 52q2 10 12 10h89q9 0 13 -9l63 -150h1l117 150q8 9 16 9z" />
    <glyph glyph-name="y" unicode="y" horiz-adv-x="465" 
d="M337 479h158q10 0 8 -10l-9 -52q-1 -10 -12 -10h-22q-6 0 -10 -6l-242 -439q-46 -83 -81 -112.5t-87 -29.5h-25q-10 0 -8 10l9 54q2 10 12 10h18q27 0 46.5 18t43.5 61l23 43l-78 385q-1 6 -6 6h-27q-10 0 -8 10l9 52q2 10 11 10h160q10 0 8 -10l-9 -52q-1 -10 -11 -10
h-43q-7 0 -6 -9l54 -282h2l153 283q3 8 -4 8h-39q-10 0 -8 10l9 52q2 10 11 10z" />
    <glyph glyph-name="z" unicode="z" horiz-adv-x="470" 
d="M119 479h334q10 0 8 -10l-9 -52q-1 -6 -7 -13l-319 -332v-2h181q7 0 8 6l9 53q2 10 10 10h58q11 0 9 -10l-21 -119q-1 -10 -11 -10h-346q-10 0 -8 10l8 49q2 7 6 11l323 338v1h-171q-7 0 -8 -6l-8 -47q-2 -11 -10 -11h-58q-11 0 -9 10l20 114q1 10 11 10z" />
    <glyph glyph-name="braceleft" unicode="{" horiz-adv-x="313" 
d="M317 740h42q10 0 8 -10l-7 -44q-1 -10 -11 -10h-25q-46 0 -55 -51l-31 -176q-10 -56 -27 -81.5t-52 -37.5v-1q42 -17 42 -70q0 -18 -5 -48l-30 -171q-3 -17 -3 -26q0 -34 36 -34h26q10 0 8 -10l-8 -44q-2 -10 -10 -10h-43q-84 0 -84 78q0 15 3 33l32 186q3 16 3 29
q0 49 -47 52q-10 0 -8 10l9 53q2 10 11 10q30 0 47.5 18.5t25.5 62.5l33 182q19 110 120 110z" />
    <glyph glyph-name="bar" unicode="|" horiz-adv-x="280" 
d="M130 740h47q10 0 10 -10v-804q0 -10 -10 -10h-47q-10 0 -10 10v804q0 10 10 10z" />
    <glyph glyph-name="braceright" unicode="}" horiz-adv-x="313" 
d="M139 740h42q85 0 85 -80q0 -14 -3 -31l-32 -181q-3 -16 -3 -30q0 -26 11.5 -38t35.5 -13q9 -2 8 -10l-8 -53q-2 -10 -12 -10q-30 -1 -47.5 -19.5t-25.5 -61.5l-34 -187q-19 -110 -119 -110h-43q-10 0 -8 10l7 44q1 10 11 10h26q46 0 54 51l32 181q10 56 27.5 81t51.5 37
v2q-42 18 -42 71q0 16 5 46l30 170q3 17 3 24q0 33 -37 33h-26q-10 0 -8 10l8 44q2 10 11 10z" />
    <glyph glyph-name="asciitilde" unicode="~" horiz-adv-x="517" 
d="M173 342q45 0 101 -37q40 -28 71 -28q44 0 76 53q5 8 14 2l33 -21q9 -4 3 -14q-19 -41 -52.5 -64t-74.5 -23q-48 0 -101 37q-43 28 -71 28q-45 0 -77 -53q-5 -8 -13 -3l-34 21q-8 5 -3 14q42 88 128 88z" />
    <glyph glyph-name="uni00A0" unicode="&#xa0;" horiz-adv-x="232" 
 />
    <glyph glyph-name="exclamdown" unicode="&#xa1;" horiz-adv-x="273" 
d="M149 479h71q10 0 8 -10l-14 -83q-2 -10 -11 -10h-70q-11 0 -9 10l14 83q2 10 11 10zM135 296h40q9 0 7 -10l-70 -477q-1 -10 -10 -10h-69q-10 0 -8 10l99 477q2 10 11 10z" />
    <glyph glyph-name="cent" unicode="&#xa2;" horiz-adv-x="517" 
d="M330 580h23q10 0 8 -10l-15 -81q72 -6 128 -41q6 -4 5 -12l-16 -92q-2 -10 -10 -10h-56q-11 0 -9 10l9 49q1 5 -4 8q-27 13 -59 15l-62 -353q39 1 62 12q7 3 8 9l9 52q2 10 11 10h55q11 0 9 -10l-18 -100q-1 -9 -10 -13q-65 -32 -139 -34l-14 -79q-2 -10 -11 -10h-23
q-10 0 -8 10l14 81q-139 17 -139 164q0 42 12 106t33 107q55 115 181 121l15 81q2 10 11 10zM230 65l61 350q-60 -10 -94 -76q-16 -32 -27 -85t-11 -86q0 -89 71 -103z" />
    <glyph glyph-name="sterling" unicode="&#xa3;" horiz-adv-x="517" 
d="M372 691q75 0 129 -39q7 -5 6 -14l-15 -89q-2 -10 -11 -10h-56q-10 0 -8 10l8 47q1 5 -4 8q-22 13 -54 13q-82 0 -99 -97l-26 -149q-2 -6 4 -6h123q10 0 8 -10l-7 -43q-2 -10 -12 -10h-122q-6 0 -7 -6l-20 -109q-14 -79 -49 -113v-2h196q6 0 8 6l11 59q2 10 11 10h57
q10 0 8 -10l-22 -127q-2 -10 -11 -10h-352q-10 0 -8 10l8 53q1 7 8 12q25 23 35.5 41t17.5 58l21 122q2 6 -5 6h-45q-9 0 -7 10l7 43q2 10 11 10h45q6 0 7 6l26 141q32 179 185 179z" />
    <glyph glyph-name="currency" unicode="&#xa4;" horiz-adv-x="517" 
d="M498 548l30 -38q7 -7 -3 -13l-71 -64q15 -35 15 -71q0 -87 -54 -154l48 -59q6 -8 -2 -14l-38 -33q-8 -6 -13 0l-48 59q-52 -33 -115 -33q-61 0 -104 35l-69 -62q-8 -6 -14 0l-29 37q-5 7 3 14l70 62q-14 33 -14 71q0 88 54 153l-47 60q-5 7 2 14l38 34q9 7 14 0l46 -60
q52 33 115 33q58 0 102 -34l70 63q8 6 14 0zM305 455q-63 0 -106 -48.5t-43 -112.5q0 -45 27 -73.5t71 -28.5q63 0 106 48.5t43 112.5q0 45 -27 73.5t-71 28.5z" />
    <glyph glyph-name="yen" unicode="&#xa5;" horiz-adv-x="517" 
d="M400 680h170q10 0 8 -10l-9 -52q-2 -10 -12 -10h-29q-5 0 -9 -5l-161 -244v-2h97q10 0 8 -10l-7 -40q-2 -10 -11 -10h-124q-5 0 -7 -6l-9 -51q-1 -6 4 -6h124q10 0 8 -10l-6 -41q-2 -10 -12 -10h-125q-4 0 -6 -6l-16 -89q-2 -6 5 -6h58q10 0 8 -10l-9 -52q-2 -10 -11 -10
h-205q-10 0 -8 10l9 52q2 10 11 10h58q6 0 8 6l16 89q2 6 -5 6h-123q-10 0 -8 10l7 41q2 10 11 10h123q5 0 7 6l9 51q1 6 -5 6h-123q-10 0 -8 10l7 40q2 10 11 10h99v2l-74 243q-2 6 -7 6h-30q-10 0 -8 10l9 52q2 10 12 10h166q10 0 8 -10l-9 -52q-2 -10 -11 -10h-47
q-6 0 -5 -7l64 -235h3l148 236q3 6 -4 6h-46q-10 0 -8 10l9 52q2 10 12 10z" />
    <glyph glyph-name="brokenbar" unicode="&#xa6;" horiz-adv-x="280" 
d="M130 740h47q10 0 10 -10v-332q0 -10 -10 -10h-47q-10 0 -10 10v332q0 10 10 10zM130 272h47q10 0 10 -10v-336q0 -10 -10 -10h-47q-10 0 -10 10v336q0 10 10 10z" />
    <glyph glyph-name="section" unicode="&#xa7;" horiz-adv-x="527" 
d="M347 691q78 0 130 -38q6 -5 5 -13l-16 -92q-2 -10 -10 -10h-51q-10 0 -8 10l9 54q1 5 -5 9q-26 14 -59 14q-47 0 -74.5 -29.5t-27.5 -75.5q0 -32 23.5 -53t77.5 -34q110 -28 110 -136q0 -68 -33.5 -125t-94.5 -80v-1q59 -27 59 -95q0 -84 -54 -135.5t-139 -51.5
q-88 0 -135 34q-7 5 -6 12l17 98q2 10 11 10h50q11 0 9 -10l-10 -56q-1 -5 4 -8q26 -14 68 -14q49 0 79 29.5t30 78.5q0 34 -23.5 55t-81.5 34q-111 26 -111 136q0 69 34.5 125.5t95.5 79.5v1q-56 32 -56 94q0 79 50 131t133 52zM291 367q-56 0 -91 -42t-35 -102
q0 -40 23 -62.5t62 -22.5q56 0 91 41.5t35 102.5q0 40 -23 62.5t-62 22.5z" />
    <glyph glyph-name="dieresis" unicode="&#xa8;" horiz-adv-x="407" 
d="M164 680h55q10 0 8 -10l-12 -69q-2 -10 -11 -10h-56q-10 0 -8 10l13 69q2 10 11 10zM354 680h55q10 0 8 -10l-12 -69q-2 -10 -11 -10h-56q-10 0 -8 10l13 69q2 10 11 10z" />
    <glyph glyph-name="copyright" unicode="&#xa9;" horiz-adv-x="829" 
d="M434 691q149 0 250 -101t101 -250t-101 -250t-250 -101q-148 0 -249 101t-101 250t101 250t249 101zM434 633q-124 0 -207.5 -83.5t-83.5 -209.5t83.5 -209.5t207.5 -83.5q125 0 208 83.5t83 209.5t-83 209.5t-208 83.5zM444 537q67 0 118 -30q7 -4 7 -13v-73
q0 -10 -10 -10h-39q-10 0 -10 10v39q0 4 -4 7q-26 12 -62 12q-73 0 -97 -66q-7 -21 -7 -73t7 -73q22 -66 97 -66q40 0 62 11q4 3 4 7v39q0 10 10 10h39q10 0 10 -10v-74q0 -8 -8 -12q-51 -29 -119 -29q-121 0 -154 103q-11 37 -11 94q0 54 11 91q16 52 57 79t99 27z" />
    <glyph glyph-name="ordfeminine" unicode="&#xaa;" horiz-adv-x="332" 
d="M246 688q55 0 79.5 -17.5t24.5 -54.5q0 -12 -3 -29l-23 -134q-2 -6 4 -6h21q9 0 8 -9l-6 -36q-2 -10 -11 -10h-76q-10 0 -8 10l3 17h-2q-29 -32 -90 -32q-37 0 -60 19.5t-23 54.5q0 52 37.5 78.5t96.5 26.5h59q5 0 7 6q4 20 4 29q0 34 -55 34q-23 0 -37 -6q-5 -2 -6 -7
l-3 -18q-2 -10 -11 -10h-43q-10 0 -8 10l9 53q1 7 7 10q45 21 105 21zM269 519h-54q-33 0 -51.5 -12.5t-18.5 -34.5q0 -34 47 -34q32 0 52.5 13.5t25.5 36.5l4 25q2 6 -5 6z" />
    <glyph glyph-name="guillemotleft" unicode="&#xab;" horiz-adv-x="506" 
d="M51 271l212 189q3 3 6.5 1.5t2.5 -5.5l-11 -72q-3 -11 -12 -20l-115 -99q-5 -4 -2 -8l79 -102q8 -9 5 -19l-10 -64q-1 -4 -4.5 -5.5t-6.5 1.5l-146 189q-7 7 2 14zM257 271l213 189q3 3 6.5 1.5t2.5 -5.5l-12 -72q-3 -10 -11 -20l-116 -99q-4 -4 -2 -8l79 -102
q8 -9 5 -19l-10 -64q-1 -4 -4.5 -5.5t-6.5 1.5l-146 189q-6 8 2 14z" />
    <glyph glyph-name="logicalnot" unicode="&#xac;" horiz-adv-x="517" 
d="M60 312h397q10 0 10 -10v-186q0 -10 -10 -10h-54q-10 0 -10 10v118q0 6 -6 6h-327q-10 0 -10 10v52q0 10 10 10z" />
    <glyph glyph-name="uni00AD" unicode="&#xad;" horiz-adv-x="365" 
d="M71 303h254q10 0 8 -10l-10 -57q-1 -9 -11 -9h-254q-10 0 -8 10l10 57q2 9 11 9z" />
    <glyph glyph-name="registered" unicode="&#xae;" horiz-adv-x="453" 
d="M275 684q82 0 136.5 -55t54.5 -136q0 -82 -54.5 -137t-136.5 -55t-136.5 55t-54.5 137q0 81 54.5 136t136.5 55zM275 652q-68 0 -113 -45.5t-45 -113.5q0 -69 45 -114.5t113 -45.5q67 0 112.5 45.5t45.5 114.5q0 68 -45.5 113.5t-112.5 45.5zM197 601h97q35 0 54 -16.5
t19 -46.5q0 -44 -42 -57l22 -55q3 -5 7 -5h10q9 0 9 -8v-17q0 -9 -9 -9h-34q-7 0 -10 7l-32 83h-34q-5 0 -5 -5v-46q0 -5 5 -5h11q8 0 8 -8v-17q0 -9 -8 -9h-68q-9 0 -9 9v17q0 8 9 8h10q5 0 5 5v137q0 5 -5 5h-10q-9 0 -9 8v16q0 9 9 9zM296 568h-42q-5 0 -5 -5v-49
q0 -5 5 -5h42q36 0 36 30q0 29 -36 29z" />
    <glyph glyph-name="macron" unicode="&#xaf;" horiz-adv-x="407" 
d="M161 666h244q10 0 8 -10l-7 -41q-2 -10 -11 -10h-244q-10 0 -8 10l7 41q2 10 11 10z" />
    <glyph glyph-name="degree" unicode="&#xb0;" horiz-adv-x="457" 
d="M279 689q62 0 104 -42t42 -104q0 -61 -42 -102.5t-104 -41.5t-103 41t-41 103t41 104t103 42zM279 638q-40 0 -66 -27t-26 -68q0 -40 26 -67t66 -27t66.5 27t26.5 67q0 41 -26 68t-67 27z" />
    <glyph glyph-name="plusminus" unicode="&#xb1;" horiz-adv-x="517" 
d="M232 550h53q10 0 10 -10v-157q0 -6 6 -6h156q10 0 10 -10v-53q0 -10 -10 -10h-156q-6 0 -6 -6v-157q0 -10 -10 -10h-53q-10 0 -10 10v157q0 6 -6 6h-156q-10 0 -10 10v53q0 10 10 10h156q6 0 6 6v157q0 10 10 10zM60 73h397q10 0 10 -10v-53q0 -10 -10 -10h-397
q-10 0 -10 10v53q0 10 10 10z" />
    <glyph glyph-name="twosuperior" unicode="&#xb2;" 
d="M266 843q53 0 81 -25t28 -67q0 -65 -61 -123l-145 -139v-1h156q10 0 8 -10l-7 -38q-2 -10 -12 -10h-227q-10 0 -8 10l7 38q2 8 8 14l174 171q43 43 43 78q0 45 -49 45q-25 0 -45 -10q-5 -3 -7 -9l-6 -36q-2 -10 -11 -10h-41q-11 0 -9 10l14 75q1 7 9 12q43 25 100 25z
" />
    <glyph glyph-name="threesuperior" unicode="&#xb3;" 
d="M260 843q54 0 83 -24t29 -66q0 -72 -63 -109v-1q39 -21 39 -74q0 -67 -41 -106.5t-108 -39.5q-61 0 -102 29q-7 6 -6 15l13 71q2 10 10 10h42q11 0 9 -10l-7 -37q-1 -7 4 -11q14 -9 45 -9q33 0 55 21t22 56q0 24 -15 38t-42 14h-17q-10 0 -8 10l6 38q2 10 12 10h14
q31 0 51.5 20t20.5 52q0 22 -14 34t-39 12t-41 -9q-6 -3 -7 -9l-6 -33q-2 -10 -11 -10h-41q-11 0 -9 10l13 70q1 7 10 13q37 25 99 25z" />
    <glyph glyph-name="acute" unicode="&#xb4;" horiz-adv-x="407" 
d="M299 700h62q5 0 6 -3.5t-3 -7.5l-109 -122q-9 -10 -20 -10h-42q-12 0 -5 10l92 123q7 10 19 10z" />
    <glyph glyph-name="mu" unicode="&#xb5;" horiz-adv-x="557" 
d="M432 479h60q11 0 9 -10l-70 -391q-1 -6 4 -6h48q10 0 8 -10l-9 -52q-2 -10 -11 -10h-123q-10 0 -8 10l9 47h-1q-47 -68 -127 -68q-63 0 -82 39h-2l-35 -198q-2 -10 -11 -10h-60q-10 0 -8 10l112 639q2 10 11 10h59q10 0 8 -10l-50 -285q-3 -20 -3 -36q0 -85 84 -85
q47 0 82.5 33.5t44.5 86.5l50 286q2 10 11 10z" />
    <glyph glyph-name="paragraph" unicode="&#xb6;" horiz-adv-x="597" 
d="M368 680h265q10 0 8 -10l-9 -52q-1 -10 -11 -10h-52q-7 0 -8 -7l-136 -771q-2 -10 -11 -10h-51q-10 0 -8 10l137 772q2 6 -5 6h-81q-6 0 -7 -6l-137 -772q-2 -10 -11 -10h-50q-10 0 -8 10l76 433q-74 4 -115 49.5t-41 115.5q0 107 73 179.5t182 72.5z" />
    <glyph glyph-name="periodcentered" unicode="&#xb7;" horiz-adv-x="226" 
d="M96 316h70q11 0 9 -10l-14 -82q-2 -10 -11 -10h-70q-11 0 -9 10l14 82q2 10 11 10z" />
    <glyph glyph-name="cedilla" unicode="&#xb8;" horiz-adv-x="407" 
d="M177 10h43q11 0 6 -10l-70 -141q-5 -10 -17 -10h-51q-10 0 -5 10l80 141q6 10 14 10z" />
    <glyph glyph-name="onesuperior" unicode="&#xb9;" 
d="M267 836h42q10 0 8 -10l-58 -330q-1 -6 5 -6h61q10 0 8 -10l-7 -40q-2 -10 -10 -10h-197q-10 0 -8 10l7 40q2 10 10 10h60q7 0 8 6l46 263h-1l-71 -44q-4 -3 -7.5 -1t-2.5 7l9 48q1 10 10 16l70 44q10 7 18 7z" />
    <glyph glyph-name="ordmasculine" unicode="&#xba;" horiz-adv-x="337" 
d="M251 688q52 0 81 -27t29 -80q0 -65 -25 -116q-39 -81 -137 -81q-51 0 -80 27t-29 80q0 62 25 116q39 81 136 81zM242 629q-44 0 -67 -44q-19 -36 -19 -81q0 -61 52 -61q44 0 68 44q18 36 18 81q0 61 -52 61z" />
    <glyph glyph-name="guillemotright" unicode="&#xbb;" horiz-adv-x="506" 
d="M121 460l147 -189q5 -8 -2 -14l-213 -189q-3 -3 -6.5 -1.5t-2.5 5.5l12 72q1 11 11 19l115 100q5 4 2 8l-78 101q-7 9 -6 20l11 64q1 4 4.5 5.5t5.5 -1.5zM328 460l146 -189q5 -8 -2 -14l-212 -189q-3 -3 -6.5 -1.5t-2.5 5.5l11 72q3 11 12 19l115 100q4 4 2 8l-79 101
q-8 9 -5 20l10 64q1 4 4.5 5.5t6.5 -1.5z" />
    <glyph glyph-name="onequarter" unicode="&#xbc;" horiz-adv-x="818" 
d="M689 691h44q5 0 6 -3t-2 -7l-498 -682q-7 -10 -16 -10h-45q-4 0 -5.5 3t1.5 7l499 682q7 10 16 10zM240 680h42q10 0 8 -10l-58 -330q-2 -6 5 -6h61q10 0 8 -10l-7 -40q-2 -10 -10 -10h-197q-10 0 -8 10l7 40q2 10 10 10h60q7 0 8 6l46 263h-1l-71 -44q-4 -3 -7.5 -1
t-2.5 7l9 48q1 10 10 16l70 44q10 7 18 7zM693 406h45q11 0 4 -10l-169 -269v-1h94q5 0 7 6l16 91q2 10 11 10h42q10 0 8 -10l-16 -91q-1 -6 5 -6h26q10 0 8 -10l-7 -38q-1 -9 -10 -9h-28q-5 0 -6 -6l-9 -53q-2 -10 -12 -10h-42q-9 0 -7 10l9 53q2 6 -5 6h-156q-10 0 -8 10
l7 37q2 8 7 16l170 264q7 10 16 10z" />
    <glyph glyph-name="onehalf" unicode="&#xbd;" horiz-adv-x="868" 
d="M689 691h44q5 0 6 -3t-2 -7l-498 -682q-7 -10 -16 -10h-45q-4 0 -5.5 3t1.5 7l499 682q7 10 16 10zM240 680h42q10 0 8 -10l-58 -330q-2 -6 5 -6h61q10 0 8 -10l-7 -40q-2 -10 -10 -10h-197q-10 0 -8 10l7 40q2 10 10 10h60q7 0 8 6l46 263h-1l-71 -44q-4 -3 -7.5 -1
t-2.5 7l9 48q1 10 10 16l70 44q10 7 18 7zM734 413q53 0 81 -25t28 -67q0 -65 -61 -123l-145 -139v-1h156q10 0 8 -10l-7 -38q-2 -10 -12 -10h-227q-10 0 -8 10l7 38q2 8 8 14l174 171q43 43 43 78q0 45 -49 45q-25 0 -45 -10q-5 -3 -7 -9l-6 -36q-2 -10 -11 -10h-41
q-11 0 -9 10l14 75q1 7 9 12q43 25 100 25z" />
    <glyph glyph-name="threequarters" unicode="&#xbe;" horiz-adv-x="818" 
d="M689 691h44q5 0 6 -3t-2 -7l-498 -682q-7 -10 -16 -10h-45q-4 0 -5.5 3t1.5 7l499 682q7 10 16 10zM233 687q54 0 83 -24t29 -66q0 -72 -63 -109v-1q39 -21 39 -74q0 -67 -41 -106.5t-108 -39.5q-61 0 -102 29q-7 6 -6 15l13 71q2 10 10 10h42q11 0 9 -10l-7 -37
q-1 -7 4 -11q14 -9 45 -9q33 0 55 21t22 56q0 24 -15 38t-42 14h-17q-10 0 -8 10l6 38q2 10 12 10h14q31 0 51.5 20t20.5 52q0 22 -14 34t-39 12t-41 -9q-6 -3 -7 -9l-6 -33q-2 -10 -11 -10h-41q-11 0 -9 10l13 70q1 7 10 13q37 25 99 25zM693 406h45q11 0 4 -10l-169 -269
v-1h94q5 0 7 6l16 91q2 10 11 10h42q10 0 8 -10l-16 -91q-1 -6 5 -6h26q10 0 8 -10l-7 -38q-1 -9 -10 -9h-28q-5 0 -6 -6l-9 -53q-2 -10 -12 -10h-42q-9 0 -7 10l9 53q2 6 -5 6h-156q-10 0 -8 10l7 37q2 8 7 16l170 264q7 10 16 10z" />
    <glyph glyph-name="questiondown" unicode="&#xbf;" horiz-adv-x="437" 
d="M239 479h70q11 0 9 -10l-13 -83q-2 -10 -11 -10h-71q-10 0 -8 10l13 83q2 10 11 10zM216 298h59q10 0 8 -10l-8 -42q-11 -53 -45 -92l-77 -89q-39 -44 -54 -71t-15 -56q0 -35 21.5 -55.5t62.5 -20.5q47 0 84 22q7 4 8 9l10 62q2 10 12 10h57q10 0 8 -10l-19 -108
q-1 -7 -9 -12q-76 -47 -160 -47q-76 0 -116 37.5t-40 100.5q0 71 78 163l77 90q31 36 39 76l8 33q2 10 11 10z" />
    <glyph glyph-name="Agrave" unicode="&#xc0;" horiz-adv-x="586" 
d="M269 888h61q12 0 19 -10l64 -105q5 -10 -6 -10h-45q-9 0 -16 8l-82 106q-2 4 -0.5 7.5t5.5 3.5zM342 680h70q9 0 11 -10l95 -592q2 -6 7 -6h29q10 0 8 -10l-9 -52q-2 -10 -11 -10h-176q-10 0 -8 10l9 52q2 10 11 10h54q6 0 5 6l-19 124h-246l-64 -124q-3 -6 3 -6h54
q10 0 8 -10l-9 -52q-2 -10 -12 -10h-183q-10 0 -8 10l9 52q2 10 11 10h31q6 0 8 5l308 593q5 10 14 10zM359 566l-148 -288h195l-44 288h-3z" />
    <glyph glyph-name="Aacute" unicode="&#xc1;" horiz-adv-x="586" 
d="M476 888h66q5 0 6 -3t-3 -7l-118 -107q-9 -8 -19 -8h-45q-5 0 -6 3t2 7l97 105q10 10 20 10zM342 680h70q9 0 11 -10l95 -592q2 -6 7 -6h29q10 0 8 -10l-9 -52q-2 -10 -11 -10h-176q-10 0 -8 10l9 52q2 10 11 10h54q6 0 5 6l-19 124h-246l-64 -124q-3 -6 3 -6h54
q10 0 8 -10l-9 -52q-2 -10 -12 -10h-183q-10 0 -8 10l9 52q2 10 11 10h31q6 0 8 5l308 593q5 10 14 10zM359 566l-148 -288h195l-44 288h-3z" />
    <glyph glyph-name="Acircumflex" unicode="&#xc2;" horiz-adv-x="586" 
d="M393 897h39q9 0 14 -9l69 -124q2 -4 0.5 -7t-5.5 -3h-38q-10 0 -17 10l-48 75h-1l-77 -75q-9 -10 -20 -10h-43q-5 0 -6 3t3 7l112 124q8 9 18 9zM342 680h70q9 0 11 -10l95 -592q2 -6 7 -6h29q10 0 8 -10l-9 -52q-2 -10 -11 -10h-176q-10 0 -8 10l9 52q2 10 11 10h54
q6 0 5 6l-19 124h-246l-64 -124q-3 -6 3 -6h54q10 0 8 -10l-9 -52q-2 -10 -12 -10h-183q-10 0 -8 10l9 52q2 10 11 10h31q6 0 8 5l308 593q5 10 14 10zM359 566l-148 -288h195l-44 288h-3z" />
    <glyph glyph-name="Atilde" unicode="&#xc3;" horiz-adv-x="586" 
d="M352 872q28 0 58 -20q26 -18 47 -18q32 0 66 32q3 3 6 1.5t2 -4.5l-8 -46q-1 -8 -10 -17q-31 -30 -70 -30q-28 0 -58 20q-25 18 -47 18q-32 0 -66 -31q-3 -3 -6 -2t-2 5l8 45q3 11 10 18q32 29 70 29zM342 680h70q9 0 11 -10l95 -592q2 -6 7 -6h29q10 0 8 -10l-9 -52
q-2 -10 -11 -10h-176q-10 0 -8 10l9 52q2 10 11 10h54q6 0 5 6l-19 124h-246l-64 -124q-3 -6 3 -6h54q10 0 8 -10l-9 -52q-2 -10 -12 -10h-183q-10 0 -8 10l9 52q2 10 11 10h31q6 0 8 5l308 593q5 10 14 10zM359 566l-148 -288h195l-44 288h-3z" />
    <glyph glyph-name="Adieresis" unicode="&#xc4;" horiz-adv-x="586" 
d="M286 868h55q10 0 8 -10l-12 -70q-2 -10 -11 -10h-56q-10 0 -8 10l13 70q2 10 11 10zM476 868h55q10 0 8 -10l-12 -70q-2 -10 -11 -10h-56q-10 0 -8 10l13 70q2 10 11 10zM342 680h70q9 0 11 -10l95 -592q2 -6 7 -6h29q10 0 8 -10l-9 -52q-2 -10 -11 -10h-176q-10 0 -8 10
l9 52q2 10 11 10h54q6 0 5 6l-19 124h-246l-64 -124q-3 -6 3 -6h54q10 0 8 -10l-9 -52q-2 -10 -12 -10h-183q-10 0 -8 10l9 52q2 10 11 10h31q6 0 8 5l308 593q5 10 14 10zM359 566l-148 -288h195l-44 288h-3z" />
    <glyph glyph-name="Aring" unicode="&#xc5;" horiz-adv-x="586" 
d="M415 916q34 0 55 -21.5t21 -54.5q0 -45 -30.5 -77.5t-77.5 -32.5q-34 0 -55 21t-21 54q0 46 30.5 78.5t77.5 32.5zM408 877q-25 0 -42.5 -18.5t-17.5 -46.5q0 -19 11.5 -31t30.5 -12q25 0 42.5 18.5t17.5 46.5q0 19 -11.5 31t-30.5 12zM342 680h70q9 0 11 -10l95 -592
q2 -6 7 -6h29q10 0 8 -10l-9 -52q-2 -10 -11 -10h-176q-10 0 -8 10l9 52q2 10 11 10h54q6 0 5 6l-19 124h-246l-64 -124q-3 -6 3 -6h54q10 0 8 -10l-9 -52q-2 -10 -12 -10h-183q-10 0 -8 10l9 52q2 10 11 10h31q6 0 8 5l308 593q5 10 14 10zM359 566l-148 -288h195l-44 288
h-3z" />
    <glyph glyph-name="AE" unicode="&#xc6;" horiz-adv-x="897" 
d="M475 680h440q11 0 9 -10l-23 -132q-2 -10 -10 -10h-60q-10 0 -8 10l10 59q1 6 -5 6h-232q-6 0 -7 -6l-36 -208q-1 -6 5 -6h166q6 0 8 6l8 42q2 10 11 10h58q10 0 8 -10l-30 -173q-2 -10 -10 -10h-58q-11 0 -9 10l7 42q1 6 -5 6h-168q-6 0 -7 -6l-39 -217q-2 -6 5 -6h233
q6 0 7 6l11 64q2 10 11 10h59q10 0 8 -10l-24 -137q-2 -10 -11 -10h-385q-11 0 -9 10l29 161q2 6 -5 6h-229l-70 -98q-5 -7 2 -7h49q10 0 8 -10l-9 -52q-2 -10 -11 -10h-183q-10 0 -8 10l9 52q2 10 12 10h26q7 0 10 5l427 593q7 10 15 10zM505 602l-251 -348h186q6 0 7 6
l61 342h-3z" />
    <glyph glyph-name="Ccedilla" unicode="&#xc7;" horiz-adv-x="562" 
d="M378 691q120 0 189 -54q9 -8 8 -17l-19 -109q-2 -10 -10 -10h-59q-11 0 -9 10l13 68q1 5 -3 8q-40 26 -113 26q-116 0 -168 -105q-22 -45 -42 -153.5t-20 -158.5q0 -129 141 -129q68 0 111 23q6 3 7 8l12 68q2 10 11 10h59q10 0 8 -10l-20 -116q-1 -8 -10 -14
q-75 -47 -186 -47l-64 -130q-5 -10 -17 -10h-51q-10 0 -5 10l76 135q-157 25 -157 195q0 55 23 177t48 172q75 153 247 153z" />
    <glyph glyph-name="Egrave" unicode="&#xc8;" horiz-adv-x="561" 
d="M275 888h61q12 0 19 -10l64 -105q5 -10 -6 -10h-45q-9 0 -16 8l-82 106q-2 4 -0.5 7.5t5.5 3.5zM128 680h451q11 0 9 -10l-23 -132q-2 -10 -10 -10h-59q-11 0 -9 10l10 59q1 6 -4 6h-233q-6 0 -7 -6l-36 -208q-1 -6 5 -6h167q5 0 7 6l8 42q2 10 11 10h58q10 0 8 -10
l-30 -173q-2 -10 -10 -10h-58q-11 0 -9 10l7 42q1 6 -4 6h-169q-6 0 -7 -6l-39 -217q-2 -6 5 -6h232q7 0 8 6l11 64q2 10 11 10h59q10 0 8 -10l-24 -137q-2 -10 -12 -10h-452q-10 0 -8 10l9 52q2 10 12 10h50q7 0 8 6l93 524q2 6 -5 6h-51q-10 0 -8 10l9 52q2 10 11 10z" />
    <glyph glyph-name="Eacute" unicode="&#xc9;" horiz-adv-x="561" 
d="M444 888h66q5 0 6 -3t-3 -7l-118 -107q-9 -8 -19 -8h-45q-5 0 -6 3t2 7l97 105q10 10 20 10zM128 680h451q11 0 9 -10l-23 -132q-2 -10 -10 -10h-59q-11 0 -9 10l10 59q1 6 -4 6h-233q-6 0 -7 -6l-36 -208q-1 -6 5 -6h167q5 0 7 6l8 42q2 10 11 10h58q10 0 8 -10
l-30 -173q-2 -10 -10 -10h-58q-11 0 -9 10l7 42q1 6 -4 6h-169q-6 0 -7 -6l-39 -217q-2 -6 5 -6h232q7 0 8 6l11 64q2 10 11 10h59q10 0 8 -10l-24 -137q-2 -10 -12 -10h-452q-10 0 -8 10l9 52q2 10 12 10h50q7 0 8 6l93 524q2 6 -5 6h-51q-10 0 -8 10l9 52q2 10 11 10z" />
    <glyph glyph-name="Ecircumflex" unicode="&#xca;" horiz-adv-x="561" 
d="M385 897h39q9 0 14 -9l69 -124q2 -4 0.5 -7t-5.5 -3h-38q-10 0 -17 10l-48 75h-1l-77 -75q-9 -10 -20 -10h-43q-5 0 -6 3t3 7l112 124q8 9 18 9zM128 680h451q11 0 9 -10l-23 -132q-2 -10 -10 -10h-59q-11 0 -9 10l10 59q1 6 -4 6h-233q-6 0 -7 -6l-36 -208q-1 -6 5 -6
h167q5 0 7 6l8 42q2 10 11 10h58q10 0 8 -10l-30 -173q-2 -10 -10 -10h-58q-11 0 -9 10l7 42q1 6 -4 6h-169q-6 0 -7 -6l-39 -217q-2 -6 5 -6h232q7 0 8 6l11 64q2 10 11 10h59q10 0 8 -10l-24 -137q-2 -10 -12 -10h-452q-10 0 -8 10l9 52q2 10 12 10h50q7 0 8 6l93 524
q2 6 -5 6h-51q-10 0 -8 10l9 52q2 10 11 10z" />
    <glyph glyph-name="Edieresis" unicode="&#xcb;" horiz-adv-x="561" 
d="M279 868h55q10 0 8 -10l-12 -70q-2 -10 -11 -10h-56q-10 0 -8 10l13 70q2 10 11 10zM469 868h55q10 0 8 -10l-12 -70q-2 -10 -11 -10h-56q-10 0 -8 10l13 70q2 10 11 10zM128 680h451q11 0 9 -10l-23 -132q-2 -10 -10 -10h-59q-11 0 -9 10l10 59q1 6 -4 6h-233
q-6 0 -7 -6l-36 -208q-1 -6 5 -6h167q5 0 7 6l8 42q2 10 11 10h58q10 0 8 -10l-30 -173q-2 -10 -10 -10h-58q-11 0 -9 10l7 42q1 6 -4 6h-169q-6 0 -7 -6l-39 -217q-2 -6 5 -6h232q7 0 8 6l11 64q2 10 11 10h59q10 0 8 -10l-24 -137q-2 -10 -12 -10h-452q-10 0 -8 10l9 52
q2 10 12 10h50q7 0 8 6l93 524q2 6 -5 6h-51q-10 0 -8 10l9 52q2 10 11 10z" />
    <glyph glyph-name="Igrave" unicode="&#xcc;" horiz-adv-x="290" 
d="M120 888h61q12 0 19 -10l64 -105q5 -10 -6 -10h-45q-9 0 -16 8l-82 106q-2 4 -0.5 7.5t5.5 3.5zM128 680h198q10 0 8 -10l-9 -52q-2 -10 -11 -10h-51q-7 0 -8 -6l-93 -524q-2 -6 5 -6h51q10 0 8 -10l-9 -52q-2 -10 -12 -10h-197q-10 0 -8 10l9 52q2 10 11 10h51q7 0 8 6
l93 524q2 6 -5 6h-51q-10 0 -8 10l9 52q2 10 11 10z" />
    <glyph glyph-name="Iacute" unicode="&#xcd;" horiz-adv-x="290" 
d="M331 888h66q5 0 6 -3t-3 -7l-118 -107q-9 -8 -19 -8h-45q-4 0 -5.5 3t1.5 7l97 105q10 10 20 10zM128 680h198q10 0 8 -10l-9 -52q-2 -10 -11 -10h-51q-7 0 -8 -6l-93 -524q-2 -6 5 -6h51q10 0 8 -10l-9 -52q-2 -10 -12 -10h-197q-10 0 -8 10l9 52q2 10 11 10h51q7 0 8 6
l93 524q2 6 -5 6h-51q-10 0 -8 10l9 52q2 10 11 10z" />
    <glyph glyph-name="Icircumflex" unicode="&#xce;" horiz-adv-x="290" 
d="M248 897h39q9 0 14 -9l69 -124q2 -4 0.5 -7t-5.5 -3h-38q-9 0 -17 10l-48 75h-1l-77 -75q-9 -10 -20 -10h-43q-5 0 -6 3t3 7l112 124q8 9 18 9zM128 680h198q10 0 8 -10l-9 -52q-2 -10 -11 -10h-51q-7 0 -8 -6l-93 -524q-2 -6 5 -6h51q10 0 8 -10l-9 -52q-2 -10 -12 -10
h-197q-10 0 -8 10l9 52q2 10 11 10h51q7 0 8 6l93 524q2 6 -5 6h-51q-10 0 -8 10l9 52q2 10 11 10z" />
    <glyph glyph-name="Idieresis" unicode="&#xcf;" horiz-adv-x="290" 
d="M139 868h55q10 0 8 -10l-12 -70q-2 -10 -11 -10h-56q-10 0 -8 10l13 70q2 10 11 10zM329 868h55q10 0 8 -10l-12 -70q-2 -10 -11 -10h-56q-10 0 -8 10l13 70q2 10 11 10zM128 680h198q10 0 8 -10l-9 -52q-2 -10 -11 -10h-51q-7 0 -8 -6l-93 -524q-2 -6 5 -6h51
q10 0 8 -10l-9 -52q-2 -10 -12 -10h-197q-10 0 -8 10l9 52q2 10 11 10h51q7 0 8 6l93 524q2 6 -5 6h-51q-10 0 -8 10l9 52q2 10 11 10z" />
    <glyph glyph-name="Eth" unicode="&#xd0;" horiz-adv-x="619" 
d="M128 680h283q185 0 185 -184q0 -70 -21.5 -188.5t-50.5 -175.5q-35 -72 -90.5 -102t-141.5 -30h-284q-10 0 -8 10l9 52q2 10 12 10h50q7 0 8 6l40 227q1 6 -5 6h-31q-10 0 -8 10l8 47q2 10 12 10h31q6 0 7 6l39 218q2 6 -5 6h-51q-10 0 -8 10l9 52q2 10 11 10zM381 602
h-120q-5 0 -7 -6l-38 -212q-2 -6 5 -6h109q10 0 8 -10l-7 -47q-2 -10 -12 -10h-110q-5 0 -7 -6l-39 -221q-1 -6 5 -6h119q120 0 167 96q21 42 41 146.5t20 159.5q0 63 -33.5 92.5t-100.5 29.5z" />
    <glyph glyph-name="Ntilde" unicode="&#xd1;" horiz-adv-x="667" 
d="M391 872q28 0 58 -20q26 -18 47 -18q32 0 66 32q3 3 6 1.5t2 -4.5l-8 -46q-1 -8 -10 -17q-32 -30 -70 -30q-28 0 -58 20q-25 18 -47 18q-32 0 -66 -31q-3 -3 -6 -2t-2 5l8 45q3 11 10 18q32 29 70 29zM512 680h191q10 0 8 -10l-9 -52q-2 -10 -11 -10h-51q-6 0 -7 -6
l-105 -592q-2 -10 -11 -10h-60q-10 0 -14 10l-203 519h-4l-80 -449q-2 -8 5 -8h51q10 0 8 -10l-9 -52q-2 -10 -12 -10h-191q-10 0 -8 10l9 52q2 10 12 10h50q7 0 8 6l93 524q2 6 -5 6h-51q-10 0 -8 10l9 52q2 10 11 10h126q10 0 14 -10l204 -521h3l80 453q1 6 -4 6h-52
q-10 0 -8 10l9 52q2 10 12 10z" />
    <glyph glyph-name="Ograve" unicode="&#xd2;" horiz-adv-x="593" 
d="M279 888h61q12 0 19 -10l64 -105q5 -10 -6 -10h-45q-9 0 -16 8l-82 106q-2 4 -0.5 7.5t5.5 3.5zM379 691q91 0 144 -52t53 -147q0 -56 -23 -178t-49 -173q-74 -152 -247 -152q-91 0 -144 52t-53 147q0 56 23 178t48 173q75 152 248 152zM366 613q-107 0 -158 -104
q-22 -45 -42.5 -154t-20.5 -159q0 -61 32.5 -95t92.5 -34q107 0 158 104q22 45 42.5 154t20.5 159q0 61 -32.5 95t-92.5 34z" />
    <glyph glyph-name="Oacute" unicode="&#xd3;" horiz-adv-x="593" 
d="M479 888h66q5 0 6 -3t-3 -7l-118 -107q-9 -8 -19 -8h-45q-4 0 -5.5 3t1.5 7l97 105q10 10 20 10zM379 691q91 0 144 -52t53 -147q0 -56 -23 -178t-49 -173q-74 -152 -247 -152q-91 0 -144 52t-53 147q0 56 23 178t48 173q75 152 248 152zM366 613q-107 0 -158 -104
q-22 -45 -42.5 -154t-20.5 -159q0 -61 32.5 -95t92.5 -34q107 0 158 104q22 45 42.5 154t20.5 159q0 61 -32.5 95t-92.5 34z" />
    <glyph glyph-name="Ocircumflex" unicode="&#xd4;" horiz-adv-x="593" 
d="M395 897h39q9 0 14 -9l69 -124q2 -4 0.5 -7t-5.5 -3h-38q-9 0 -17 10l-48 75h-1l-77 -75q-9 -10 -20 -10h-43q-5 0 -6 3t3 7l112 124q8 9 18 9zM379 691q91 0 144 -52t53 -147q0 -56 -23 -178t-49 -173q-74 -152 -247 -152q-91 0 -144 52t-53 147q0 56 23 178t48 173
q75 152 248 152zM366 613q-107 0 -158 -104q-22 -45 -42.5 -154t-20.5 -159q0 -61 32.5 -95t92.5 -34q107 0 158 104q22 45 42.5 154t20.5 159q0 61 -32.5 95t-92.5 34z" />
    <glyph glyph-name="Otilde" unicode="&#xd5;" horiz-adv-x="593" 
d="M355 872q28 0 58 -20q26 -18 47 -18q32 0 66 32q3 3 6 1.5t2 -4.5l-8 -46q-1 -8 -10 -17q-32 -30 -70 -30q-28 0 -58 20q-25 18 -47 18q-32 0 -66 -31q-3 -3 -6 -2t-2 5l8 45q3 11 10 18q32 29 70 29zM379 691q91 0 144 -52t53 -147q0 -56 -23 -178t-49 -173
q-74 -152 -247 -152q-91 0 -144 52t-53 147q0 56 23 178t48 173q75 152 248 152zM366 613q-107 0 -158 -104q-22 -45 -42.5 -154t-20.5 -159q0 -61 32.5 -95t92.5 -34q107 0 158 104q22 45 42.5 154t20.5 159q0 61 -32.5 95t-92.5 34z" />
    <glyph glyph-name="Odieresis" unicode="&#xd6;" horiz-adv-x="593" 
d="M287 868h55q10 0 8 -10l-12 -70q-2 -10 -11 -10h-56q-10 0 -8 10l13 70q2 10 11 10zM477 868h55q10 0 8 -10l-12 -70q-2 -10 -11 -10h-56q-10 0 -8 10l13 70q2 10 11 10zM379 691q91 0 144 -52t53 -147q0 -56 -23 -178t-49 -173q-74 -152 -247 -152q-91 0 -144 52
t-53 147q0 56 23 178t48 173q75 152 248 152zM366 613q-107 0 -158 -104q-22 -45 -42.5 -154t-20.5 -159q0 -61 32.5 -95t92.5 -34q107 0 158 104q22 45 42.5 154t20.5 159q0 61 -32.5 95t-92.5 34z" />
    <glyph glyph-name="multiply" unicode="&#xd7;" horiz-adv-x="517" 
d="M410 452l34 -36q7 -7 0 -14l-122 -121q-4 -5 0 -9l122 -122q7 -7 0 -14l-34 -36q-7 -7 -14 0l-123 121q-4 4 -8 0l-123 -121q-7 -7 -14 0l-35 36q-7 7 0 14l124 122q4 4 0 8l-124 122q-7 7 0 14l35 36q7 7 14 0l123 -121q5 -5 9 0l122 121q7 7 14 0z" />
    <glyph glyph-name="Oslash" unicode="&#xd8;" horiz-adv-x="593" 
d="M571 710h40q11 0 3 -10l-67 -92q29 -47 29 -116q0 -56 -23 -178t-49 -173q-74 -152 -247 -152q-85 0 -135 43l-38 -53q-5 -9 -16 -9h-39q-11 0 -3 10l64 89q-30 49 -30 119q0 56 23 178t48 173q75 152 248 152q86 0 137 -45l40 55q5 9 15 9zM366 614q-108 0 -159 -105
q-22 -44 -42 -153t-20 -160q0 -28 5 -46l312 424q-32 40 -96 40zM486 526l-311 -424q34 -36 95 -36q107 0 159 105q22 45 42 154.5t20 159.5q0 19 -5 41z" />
    <glyph glyph-name="Ugrave" unicode="&#xd9;" horiz-adv-x="636" 
d="M299 888h61q12 0 19 -10l64 -105q5 -10 -6 -10h-45q-9 0 -16 8l-82 106q-2 4 -0.5 7.5t5.5 3.5zM489 680h197q10 0 8 -10l-9 -52q-2 -10 -11 -10h-51q-5 0 -7 -6l-66 -372q-23 -129 -86 -185t-172 -56q-95 0 -150 50.5t-55 141.5q0 21 9 75l61 346q1 6 -5 6h-51
q-10 0 -8 10l9 52q2 10 11 10h198q10 0 8 -10l-9 -52q-2 -10 -11 -10h-52q-5 0 -7 -6l-65 -365q-4 -23 -4 -46q0 -60 33 -92t94 -32q71 0 112.5 38.5t58.5 131.5l64 365q1 6 -4 6h-52q-10 0 -8 10l9 52q2 10 11 10z" />
    <glyph glyph-name="Uacute" unicode="&#xda;" horiz-adv-x="636" 
d="M494 888h66q5 0 6 -3t-3 -7l-118 -107q-9 -8 -19 -8h-45q-5 0 -6 3t2 7l97 105q10 10 20 10zM489 680h197q10 0 8 -10l-9 -52q-2 -10 -11 -10h-51q-5 0 -7 -6l-66 -372q-23 -129 -86 -185t-172 -56q-95 0 -150 50.5t-55 141.5q0 21 9 75l61 346q1 6 -5 6h-51q-10 0 -8 10
l9 52q2 10 11 10h198q10 0 8 -10l-9 -52q-2 -10 -11 -10h-52q-5 0 -7 -6l-65 -365q-4 -23 -4 -46q0 -60 33 -92t94 -32q71 0 112.5 38.5t58.5 131.5l64 365q1 6 -4 6h-52q-10 0 -8 10l9 52q2 10 11 10z" />
    <glyph glyph-name="Ucircumflex" unicode="&#xdb;" horiz-adv-x="636" 
d="M424 897h39q9 0 14 -9l69 -124q2 -4 0.5 -7t-5.5 -3h-38q-9 0 -17 10l-48 75h-1l-77 -75q-9 -10 -20 -10h-43q-5 0 -6 3t3 7l112 124q8 9 18 9zM489 680h197q10 0 8 -10l-9 -52q-2 -10 -11 -10h-51q-5 0 -7 -6l-66 -372q-23 -129 -86 -185t-172 -56q-95 0 -150 50.5
t-55 141.5q0 21 9 75l61 346q1 6 -5 6h-51q-10 0 -8 10l9 52q2 10 11 10h198q10 0 8 -10l-9 -52q-2 -10 -11 -10h-52q-5 0 -7 -6l-65 -365q-4 -23 -4 -46q0 -60 33 -92t94 -32q71 0 112.5 38.5t58.5 131.5l64 365q1 6 -4 6h-52q-10 0 -8 10l9 52q2 10 11 10z" />
    <glyph glyph-name="Udieresis" unicode="&#xdc;" horiz-adv-x="636" 
d="M316 868h55q10 0 8 -10l-12 -70q-2 -10 -11 -10h-56q-10 0 -8 10l13 70q2 10 11 10zM506 868h55q10 0 8 -10l-12 -70q-2 -10 -11 -10h-56q-10 0 -8 10l13 70q2 10 11 10zM489 680h197q10 0 8 -10l-9 -52q-2 -10 -11 -10h-51q-5 0 -7 -6l-66 -372q-23 -129 -86 -185
t-172 -56q-95 0 -150 50.5t-55 141.5q0 21 9 75l61 346q1 6 -5 6h-51q-10 0 -8 10l9 52q2 10 11 10h198q10 0 8 -10l-9 -52q-2 -10 -11 -10h-52q-5 0 -7 -6l-65 -365q-4 -23 -4 -46q0 -60 33 -92t94 -32q71 0 112.5 38.5t58.5 131.5l64 365q1 6 -4 6h-52q-10 0 -8 10l9 52
q2 10 11 10z" />
    <glyph glyph-name="Yacute" unicode="&#xdd;" horiz-adv-x="541" 
d="M449 888h66q5 0 6 -3t-3 -7l-118 -107q-9 -8 -19 -8h-45q-4 0 -5.5 3t1.5 7l97 105q10 10 20 10zM424 680h184q10 0 8 -10l-9 -52q-2 -10 -11 -10h-33q-5 0 -9 -5l-229 -325l-35 -200q-2 -6 4 -6h58q10 0 8 -10l-9 -52q-2 -10 -11 -10h-210q-10 0 -8 10l9 52q2 10 11 10
h57q7 0 8 6l36 201l-113 323q-2 6 -8 6h-34q-10 0 -8 10l9 52q2 10 11 10h181q10 0 8 -10l-9 -52q-2 -10 -12 -10h-52q-7 0 -4 -7l83 -236h3l170 237q4 6 -3 6h-53q-10 0 -8 10l9 52q2 10 11 10z" />
    <glyph glyph-name="Thorn" unicode="&#xde;" horiz-adv-x="582" 
d="M128 680h198q10 0 8 -10l-9 -52q-2 -10 -11 -10h-52q-6 0 -8 -6l-9 -52q-2 -7 5 -7h145q84 0 130.5 -41t46.5 -115q0 -113 -68 -176t-178 -63h-146q-6 0 -7 -6l-11 -64q-2 -6 4 -6h52q10 0 8 -10l-9 -52q-2 -10 -11 -10h-198q-10 0 -8 10l9 52q2 10 12 10h50q7 0 8 6
l93 524q2 6 -5 6h-51q-10 0 -8 10l9 52q2 10 11 10zM377 465h-141q-6 0 -7 -6l-40 -227q-1 -6 5 -6h138q70 0 113 40t43 107q0 44 -28.5 68t-82.5 24z" />
    <glyph glyph-name="germandbls" unicode="&#xdf;" horiz-adv-x="543" 
d="M363 691q78 0 119.5 -32.5t41.5 -89.5q0 -106 -86 -145v-2q49 -24 49 -90q0 -45 -15 -125.5t-33 -117.5q-25 -49 -67 -69.5t-109 -20.5h-21q-10 0 -8 10l8 53q2 10 12 10h19q72 0 98 52q10 20 23 91.5t13 97.5q0 37 -21 53.5t-65 16.5h-11q-10 0 -8 10l9 54q2 10 11 10
h20q48 0 74.5 26.5t26.5 71.5q0 63 -90 63q-60 0 -93 -29t-44 -94l-74 -417q-2 -6 4 -6h44q10 0 8 -10l-9 -52q-2 -10 -11 -10h-182q-10 0 -8 10l9 52q2 10 12 10h46q7 0 8 6l73 415q35 198 227 198z" />
    <glyph glyph-name="agrave" unicode="&#xe0;" horiz-adv-x="504" 
d="M209 700h58q10 0 14 -10l52 -123q3 -10 -8 -10h-41q-10 0 -16 10l-66 123q-2 4 0 7t7 3zM277 490q82 0 119.5 -26.5t37.5 -85.5q0 -20 -5 -50l-45 -250q-2 -6 5 -6h46q10 0 8 -10l-9 -52q-2 -10 -12 -10h-116q-10 0 -8 10l7 43h-1q-45 -64 -146 -64q-58 0 -94 33t-36 89
q0 82 53 125t153 43h103q5 0 7 6q11 52 11 72q0 34 -21 49t-72 15q-35 0 -76 -13q-5 -2 -6 -7l-9 -50q-2 -10 -10 -10h-58q-11 0 -9 10l16 93q1 10 8 13q68 33 159 33zM326 216h-89q-131 0 -131 -95q0 -30 21.5 -47.5t61.5 -17.5q53 0 89 26.5t43 71.5l10 56q1 6 -5 6z" />
    <glyph glyph-name="aacute" unicode="&#xe1;" horiz-adv-x="504" 
d="M373 700h62q5 0 6 -3.5t-3 -7.5l-109 -122q-9 -10 -20 -10h-42q-12 0 -5 10l92 123q7 10 19 10zM277 490q82 0 119.5 -26.5t37.5 -85.5q0 -20 -5 -50l-45 -250q-2 -6 5 -6h46q10 0 8 -10l-9 -52q-2 -10 -12 -10h-116q-10 0 -8 10l7 43h-1q-45 -64 -146 -64q-58 0 -94 33
t-36 89q0 82 53 125t153 43h103q5 0 7 6q11 52 11 72q0 34 -21 49t-72 15q-35 0 -76 -13q-5 -2 -6 -7l-9 -50q-2 -10 -10 -10h-58q-11 0 -9 10l16 93q1 10 8 13q68 33 159 33zM326 216h-89q-131 0 -131 -95q0 -30 21.5 -47.5t61.5 -17.5q53 0 89 26.5t43 71.5l10 56
q1 6 -5 6z" />
    <glyph glyph-name="acircumflex" unicode="&#xe2;" horiz-adv-x="504" 
d="M306 700h39q10 0 14 -9l69 -124q6 -10 -5 -10h-38q-10 0 -16 10l-49 75h-1l-76 -75q-9 -10 -20 -10h-44q-4 0 -5 3t2 7l112 124q8 9 18 9zM277 490q82 0 119.5 -26.5t37.5 -85.5q0 -20 -5 -50l-45 -250q-2 -6 5 -6h46q10 0 8 -10l-9 -52q-2 -10 -12 -10h-116q-10 0 -8 10
l7 43h-1q-45 -64 -146 -64q-58 0 -94 33t-36 89q0 82 53 125t153 43h103q5 0 7 6q11 52 11 72q0 34 -21 49t-72 15q-35 0 -76 -13q-5 -2 -6 -7l-9 -50q-2 -10 -10 -10h-58q-11 0 -9 10l16 93q1 10 8 13q68 33 159 33zM326 216h-89q-131 0 -131 -95q0 -30 21.5 -47.5
t61.5 -17.5q53 0 89 26.5t43 71.5l10 56q1 6 -5 6z" />
    <glyph glyph-name="atilde" unicode="&#xe3;" horiz-adv-x="504" 
d="M266 682q28 0 58 -21q29 -18 48 -18q30 0 65 32q3 3 6 2t2 -5l-7 -46q-3 -10 -11 -17q-31 -29 -69 -29q-30 0 -58 20q-26 18 -48 18q-31 0 -65 -32q-3 -3 -6 -1.5t-2 4.5l7 46q2 10 11 17q31 30 69 30zM277 490q82 0 119.5 -26.5t37.5 -85.5q0 -20 -5 -50l-45 -250
q-2 -6 5 -6h46q10 0 8 -10l-9 -52q-2 -10 -12 -10h-116q-10 0 -8 10l7 43h-1q-45 -64 -146 -64q-58 0 -94 33t-36 89q0 82 53 125t153 43h103q5 0 7 6q11 52 11 72q0 34 -21 49t-72 15q-35 0 -76 -13q-5 -2 -6 -7l-9 -50q-2 -10 -10 -10h-58q-11 0 -9 10l16 93q1 10 8 13
q68 33 159 33zM326 216h-89q-131 0 -131 -95q0 -30 21.5 -47.5t61.5 -17.5q53 0 89 26.5t43 71.5l10 56q1 6 -5 6z" />
    <glyph glyph-name="adieresis" unicode="&#xe4;" horiz-adv-x="504" 
d="M202 680h55q10 0 8 -10l-12 -69q-2 -10 -11 -10h-56q-10 0 -8 10l13 69q2 10 11 10zM392 680h55q10 0 8 -10l-12 -69q-2 -10 -11 -10h-56q-10 0 -8 10l13 69q2 10 11 10zM277 490q82 0 119.5 -26.5t37.5 -85.5q0 -20 -5 -50l-45 -250q-2 -6 5 -6h46q10 0 8 -10l-9 -52
q-2 -10 -12 -10h-116q-10 0 -8 10l7 43h-1q-45 -64 -146 -64q-58 0 -94 33t-36 89q0 82 53 125t153 43h103q5 0 7 6q11 52 11 72q0 34 -21 49t-72 15q-35 0 -76 -13q-5 -2 -6 -7l-9 -50q-2 -10 -10 -10h-58q-11 0 -9 10l16 93q1 10 8 13q68 33 159 33zM326 216h-89
q-131 0 -131 -95q0 -30 21.5 -47.5t61.5 -17.5q53 0 89 26.5t43 71.5l10 56q1 6 -5 6z" />
    <glyph glyph-name="aring" unicode="&#xe5;" horiz-adv-x="504" 
d="M330 722q34 0 55 -21t21 -55q0 -45 -30.5 -77.5t-77.5 -32.5q-34 0 -54.5 21t-20.5 55q0 45 30 77.5t77 32.5zM323 683q-25 0 -42.5 -18.5t-17.5 -46.5q0 -19 11.5 -31t30.5 -12q25 0 42.5 18.5t17.5 46.5q0 19 -11 31t-31 12zM277 490q82 0 119.5 -26.5t37.5 -85.5
q0 -20 -5 -50l-45 -250q-2 -6 5 -6h46q10 0 8 -10l-9 -52q-2 -10 -12 -10h-116q-10 0 -8 10l7 43h-1q-45 -64 -146 -64q-58 0 -94 33t-36 89q0 82 53 125t153 43h103q5 0 7 6q11 52 11 72q0 34 -21 49t-72 15q-35 0 -76 -13q-5 -2 -6 -7l-9 -50q-2 -10 -10 -10h-58
q-11 0 -9 10l16 93q1 10 8 13q68 33 159 33zM326 216h-89q-131 0 -131 -95q0 -30 21.5 -47.5t61.5 -17.5q53 0 89 26.5t43 71.5l10 56q1 6 -5 6z" />
    <glyph glyph-name="ae" unicode="&#xe6;" horiz-adv-x="767" 
d="M574 490q71 0 115 -42.5t44 -120.5q0 -42 -11 -101q-2 -10 -13 -10h-291q-6 0 -8 -6q-3 -13 -3 -41q0 -107 101 -107q75 0 130 57q8 8 15 1l31 -35q6 -8 -1 -15q-77 -81 -188 -81q-114 0 -148 85h-1q-57 -85 -180 -85q-64 0 -101 32.5t-37 88.5q0 82 53.5 125.5
t153.5 43.5h106q5 0 7 6q10 49 10 71q0 34 -21 49t-73 15q-41 0 -75 -12q-5 -2 -6 -7l-9 -50q-2 -10 -11 -10h-58q-10 0 -8 10l15 93q1 10 8 13q66 33 160 33q120 0 142 -66h1q55 66 151 66zM564 420q-84 0 -122 -77q-11 -21 -18 -58q-2 -6 4 -6h217q5 0 7 6q5 22 5 40
q0 95 -93 95zM330 216h-92q-131 0 -131 -95q0 -65 83 -65q54 0 90.5 25.5t44.5 72.5l10 56q1 6 -5 6z" />
    <glyph glyph-name="ccedilla" unicode="&#xe7;" horiz-adv-x="465" 
d="M293 490q95 0 147 -44q6 -5 5 -14l-15 -90q-2 -10 -11 -10h-56q-10 0 -8 10l9 50q1 5 -4 9q-26 17 -73 17q-85 0 -124 -79q-16 -32 -26.5 -85t-10.5 -86q0 -53 24 -79t80 -26q43 0 71 14q7 3 8 10l9 49q2 10 10 10h56q10 0 8 -10l-17 -98q-1 -9 -9 -14q-56 -32 -138 -35
l-64 -130q-5 -10 -17 -10h-51q-10 0 -5 10l76 135q-122 22 -122 161q0 42 12 106t33 107q30 63 78 92.5t125 29.5z" />
    <glyph glyph-name="egrave" unicode="&#xe8;" horiz-adv-x="482" 
d="M202 700h58q10 0 14 -10l52 -123q3 -10 -8 -10h-41q-10 0 -16 10l-66 123q-2 4 0 7t7 3zM288 490q71 0 115.5 -42.5t44.5 -120.5q0 -36 -12 -101q-2 -10 -12 -10h-293q-5 0 -7 -6q-3 -16 -3 -41q0 -107 102 -107q69 0 130 57q10 8 16 0l30 -34q7 -7 -1 -15
q-79 -81 -188 -81q-81 0 -123.5 44t-42.5 124q0 121 42 207q60 126 202 126zM278 420q-84 0 -120 -76q-12 -24 -19 -59q-1 -6 4 -6h216q7 0 8 6q4 19 4 40q0 95 -93 95z" />
    <glyph glyph-name="eacute" unicode="&#xe9;" horiz-adv-x="482" 
d="M370 700h62q5 0 6 -3.5t-3 -7.5l-109 -122q-9 -10 -20 -10h-42q-12 0 -5 10l92 123q7 10 19 10zM288 490q71 0 115.5 -42.5t44.5 -120.5q0 -36 -12 -101q-2 -10 -12 -10h-293q-5 0 -7 -6q-3 -16 -3 -41q0 -107 102 -107q69 0 130 57q10 8 16 0l30 -34q7 -7 -1 -15
q-79 -81 -188 -81q-81 0 -123.5 44t-42.5 124q0 121 42 207q60 126 202 126zM278 420q-84 0 -120 -76q-12 -24 -19 -59q-1 -6 4 -6h216q7 0 8 6q4 19 4 40q0 95 -93 95z" />
    <glyph glyph-name="ecircumflex" unicode="&#xea;" horiz-adv-x="482" 
d="M296 700h39q10 0 14 -9l69 -124q6 -10 -5 -10h-38q-10 0 -16 10l-49 75h-1l-76 -75q-9 -10 -20 -10h-44q-4 0 -5 3t2 7l112 124q8 9 18 9zM288 490q71 0 115.5 -42.5t44.5 -120.5q0 -36 -12 -101q-2 -10 -12 -10h-293q-5 0 -7 -6q-3 -16 -3 -41q0 -107 102 -107
q69 0 130 57q10 8 16 0l30 -34q7 -7 -1 -15q-79 -81 -188 -81q-81 0 -123.5 44t-42.5 124q0 121 42 207q60 126 202 126zM278 420q-84 0 -120 -76q-12 -24 -19 -59q-1 -6 4 -6h216q7 0 8 6q4 19 4 40q0 95 -93 95z" />
    <glyph glyph-name="edieresis" unicode="&#xeb;" horiz-adv-x="482" 
d="M196 680h55q10 0 8 -10l-12 -69q-2 -10 -11 -10h-56q-10 0 -8 10l13 69q2 10 11 10zM386 680h55q10 0 8 -10l-12 -69q-2 -10 -11 -10h-56q-10 0 -8 10l13 69q2 10 11 10zM288 490q71 0 115.5 -42.5t44.5 -120.5q0 -36 -12 -101q-2 -10 -12 -10h-293q-5 0 -7 -6
q-3 -16 -3 -41q0 -107 102 -107q69 0 130 57q10 8 16 0l30 -34q7 -7 -1 -15q-79 -81 -188 -81q-81 0 -123.5 44t-42.5 124q0 121 42 207q60 126 202 126zM278 420q-84 0 -120 -76q-12 -24 -19 -59q-1 -6 4 -6h216q7 0 8 6q4 19 4 40q0 95 -93 95z" />
    <glyph glyph-name="igrave" unicode="&#xec;" horiz-adv-x="280" 
d="M102 700h58q10 0 14 -10l52 -123q3 -10 -8 -10h-41q-10 0 -16 10l-66 123q-2 4 0 7t7 3zM99 479h123q10 0 8 -10l-70 -391q-2 -6 4 -6h48q10 0 8 -10l-9 -52q-2 -10 -11 -10h-186q-10 0 -8 10l9 52q2 10 12 10h46q7 0 8 6l57 322q1 7 -5 7h-46q-10 0 -8 10l9 52
q2 10 11 10z" />
    <glyph glyph-name="iacute" unicode="&#xed;" horiz-adv-x="280" 
d="M277 700h62q5 0 6 -3.5t-3 -7.5l-109 -122q-9 -10 -20 -10h-42q-12 0 -5 10l92 123q7 10 19 10zM99 479h123q10 0 8 -10l-70 -391q-2 -6 4 -6h48q10 0 8 -10l-9 -52q-2 -10 -11 -10h-186q-10 0 -8 10l9 52q2 10 12 10h46q7 0 8 6l57 322q1 7 -5 7h-46q-10 0 -8 10l9 52
q2 10 11 10z" />
    <glyph glyph-name="icircumflex" unicode="&#xee;" horiz-adv-x="280" 
d="M201 700h39q10 0 14 -9l69 -124q6 -10 -5 -10h-38q-10 0 -16 10l-49 75h-1l-76 -75q-9 -10 -20 -10h-44q-4 0 -5 3t2 7l112 124q8 9 18 9zM99 479h123q10 0 8 -10l-70 -391q-2 -6 4 -6h48q10 0 8 -10l-9 -52q-2 -10 -11 -10h-186q-10 0 -8 10l9 52q2 10 12 10h46q7 0 8 6
l57 322q1 7 -5 7h-46q-10 0 -8 10l9 52q2 10 11 10z" />
    <glyph glyph-name="idieresis" unicode="&#xef;" horiz-adv-x="280" 
d="M100 680h55q10 0 8 -10l-12 -69q-2 -10 -11 -10h-56q-10 0 -8 10l13 69q2 10 11 10zM290 680h55q10 0 8 -10l-12 -69q-2 -10 -11 -10h-56q-10 0 -8 10l13 69q2 10 11 10zM99 479h123q10 0 8 -10l-70 -391q-2 -6 4 -6h48q10 0 8 -10l-9 -52q-2 -10 -11 -10h-186
q-10 0 -8 10l9 52q2 10 12 10h46q7 0 8 6l57 322q1 7 -5 7h-46q-10 0 -8 10l9 52q2 10 11 10z" />
    <glyph glyph-name="eth" unicode="&#xf0;" horiz-adv-x="494" 
d="M226 680h66q9 0 15 -10l28 -52l92 28q11 4 11 -6l3 -39q0 -11 -10 -14l-67 -20l28 -50q63 -113 63 -212q0 -108 -43 -194q-60 -122 -202 -122q-79 0 -120 45t-41 126q0 101 40 186q58 122 180 122q44 0 74 -22h2l-56 99l-98 -29q-11 -4 -11 6l-3 39q0 11 10 13l74 22
l-40 74q-2 4 -0.5 7t5.5 3zM281 396q-80 0 -118 -78q-34 -68 -34 -151q0 -104 93 -104q80 0 119 77q34 68 34 152q0 104 -94 104z" />
    <glyph glyph-name="ntilde" unicode="&#xf1;" horiz-adv-x="564" 
d="M299 682q28 0 58 -21q29 -18 48 -18q30 0 65 32q3 3 6 2t2 -5l-7 -46q-3 -10 -11 -17q-31 -29 -69 -29q-30 0 -58 20q-26 18 -48 18q-31 0 -65 -32q-3 -3 -6 -1.5t-2 4.5l7 46q2 10 11 17q32 30 69 30zM362 490q64 0 98 -35.5t34 -98.5q0 -26 -6 -58l-40 -220q-2 -6 5 -6
h46q10 0 8 -10l-9 -52q-2 -10 -12 -10h-183q-10 0 -8 10l9 52q2 10 11 10h47q6 0 7 6l36 201q6 30 6 51q0 88 -84 88q-46 0 -82 -34t-46 -87l-39 -219q-2 -6 4 -6h48q10 0 8 -10l-9 -52q-2 -10 -11 -10h-186q-10 0 -8 10l9 52q2 10 12 10h46q7 0 8 6l57 322q1 7 -5 7h-46
q-10 0 -8 10l9 52q2 10 11 10h122q10 0 8 -10l-8 -44h1q51 65 140 65z" />
    <glyph glyph-name="ograve" unicode="&#xf2;" horiz-adv-x="492" 
d="M207 700h58q10 0 14 -10l52 -123q3 -10 -8 -10h-41q-10 0 -16 10l-66 123q-2 4 0 7t7 3zM294 490q77 0 119.5 -43.5t42.5 -120.5q0 -49 -13.5 -113t-32.5 -102q-59 -122 -202 -122q-78 0 -120.5 43.5t-42.5 121.5q0 48 13.5 112.5t32.5 101.5q60 122 203 122zM282 418
q-78 0 -118 -79q-14 -27 -26 -82.5t-12 -89.5q0 -105 93 -105q81 0 119 78q14 28 25.5 83t11.5 90q0 105 -93 105z" />
    <glyph glyph-name="oacute" unicode="&#xf3;" horiz-adv-x="492" 
d="M379 700h62q5 0 6 -3.5t-3 -7.5l-109 -122q-9 -10 -20 -10h-42q-12 0 -5 10l92 123q7 10 19 10zM294 490q77 0 119.5 -43.5t42.5 -120.5q0 -49 -13.5 -113t-32.5 -102q-59 -122 -202 -122q-78 0 -120.5 43.5t-42.5 121.5q0 48 13.5 112.5t32.5 101.5q60 122 203 122z
M282 418q-78 0 -118 -79q-14 -27 -26 -82.5t-12 -89.5q0 -105 93 -105q81 0 119 78q14 28 25.5 83t11.5 90q0 105 -93 105z" />
    <glyph glyph-name="ocircumflex" unicode="&#xf4;" horiz-adv-x="492" 
d="M308 700h39q10 0 14 -9l69 -124q6 -10 -5 -10h-38q-10 0 -16 10l-49 75h-1l-76 -75q-9 -10 -20 -10h-44q-4 0 -5 3t2 7l112 124q8 9 18 9zM294 490q77 0 119.5 -43.5t42.5 -120.5q0 -49 -13.5 -113t-32.5 -102q-59 -122 -202 -122q-78 0 -120.5 43.5t-42.5 121.5
q0 48 13.5 112.5t32.5 101.5q60 122 203 122zM282 418q-78 0 -118 -79q-14 -27 -26 -82.5t-12 -89.5q0 -105 93 -105q81 0 119 78q14 28 25.5 83t11.5 90q0 105 -93 105z" />
    <glyph glyph-name="otilde" unicode="&#xf5;" horiz-adv-x="492" 
d="M273 682q28 0 58 -21q29 -18 48 -18q30 0 65 32q3 3 6 2t2 -5l-7 -46q-3 -10 -11 -17q-31 -29 -69 -29q-30 0 -58 20q-26 18 -48 18q-31 0 -65 -32q-3 -3 -6 -1.5t-2 4.5l7 46q2 10 11 17q32 30 69 30zM294 490q77 0 119.5 -43.5t42.5 -120.5q0 -49 -13.5 -113
t-32.5 -102q-59 -122 -202 -122q-78 0 -120.5 43.5t-42.5 121.5q0 48 13.5 112.5t32.5 101.5q60 122 203 122zM282 418q-78 0 -118 -79q-14 -27 -26 -82.5t-12 -89.5q0 -105 93 -105q81 0 119 78q14 28 25.5 83t11.5 90q0 105 -93 105z" />
    <glyph glyph-name="odieresis" unicode="&#xf6;" horiz-adv-x="492" 
d="M201 680h55q10 0 8 -10l-12 -69q-2 -10 -11 -10h-56q-10 0 -8 10l13 69q2 10 11 10zM391 680h55q10 0 8 -10l-12 -69q-2 -10 -11 -10h-56q-10 0 -8 10l13 69q2 10 11 10zM294 490q77 0 119.5 -43.5t42.5 -120.5q0 -49 -13.5 -113t-32.5 -102q-59 -122 -202 -122
q-78 0 -120.5 43.5t-42.5 121.5q0 48 13.5 112.5t32.5 101.5q60 122 203 122zM282 418q-78 0 -118 -79q-14 -27 -26 -82.5t-12 -89.5q0 -105 93 -105q81 0 119 78q14 28 25.5 83t11.5 90q0 105 -93 105z" />
    <glyph glyph-name="divide" unicode="&#xf7;" horiz-adv-x="517" 
d="M268 490q22 0 37.5 -15.5t15.5 -38.5t-15.5 -39t-37.5 -16q-23 0 -38.5 16t-15.5 39q0 22 16 38t38 16zM70 312h397q10 0 10 -10v-52q0 -10 -10 -10h-397q-10 0 -10 10v52q0 10 10 10zM268 171q22 0 37.5 -16t15.5 -39t-15.5 -39t-37.5 -16t-38 16t-16 39t15.5 39
t38.5 16z" />
    <glyph glyph-name="oslash" unicode="&#xf8;" horiz-adv-x="492" 
d="M460 509h26q11 0 3 -10l-59 -73q26 -40 26 -100q0 -49 -13.5 -113t-32.5 -102q-59 -122 -202 -122q-70 0 -112 36l-37 -45q-9 -10 -18 -10h-26q-11 0 -3 10l59 72q-26 41 -26 102q0 48 13.5 112.5t32.5 101.5q60 122 203 122q69 0 111 -36l37 45q9 10 18 10zM282 419
q-79 0 -119 -80q-14 -28 -26 -83t-12 -89q0 -23 5 -45l222 270q-24 27 -70 27zM371 357l-223 -270q24 -26 71 -26q81 0 120 79q14 28 25.5 83t11.5 90q0 22 -5 44z" />
    <glyph glyph-name="ugrave" unicode="&#xf9;" horiz-adv-x="539" 
d="M221 700h58q10 0 14 -10l52 -123q3 -10 -8 -10h-41q-10 0 -16 10l-66 123q-2 4 0 7t7 3zM352 479h122q11 0 9 -10l-69 -391q-2 -6 5 -6h47q10 0 8 -10l-9 -52q-2 -10 -11 -10h-124q-10 0 -8 10l8 45h-1q-53 -66 -136 -66q-63 0 -97 36t-34 98q0 24 6 57l39 220q1 7 -5 7
h-47q-10 0 -8 10l9 52q2 10 12 10h121q11 0 9 -10l-48 -267q-6 -30 -6 -54q0 -85 83 -85q46 0 81 33t45 87l38 217q1 7 -5 7h-46q-10 0 -8 10l9 52q2 10 11 10z" />
    <glyph glyph-name="uacute" unicode="&#xfa;" horiz-adv-x="539" 
d="M375 700h62q5 0 6 -3.5t-3 -7.5l-109 -122q-9 -10 -20 -10h-42q-12 0 -5 10l92 123q7 10 19 10zM352 479h122q11 0 9 -10l-69 -391q-2 -6 5 -6h47q10 0 8 -10l-9 -52q-2 -10 -11 -10h-124q-10 0 -8 10l8 45h-1q-53 -66 -136 -66q-63 0 -97 36t-34 98q0 24 6 57l39 220
q1 7 -5 7h-47q-10 0 -8 10l9 52q2 10 12 10h121q11 0 9 -10l-48 -267q-6 -30 -6 -54q0 -85 83 -85q46 0 81 33t45 87l38 217q1 7 -5 7h-46q-10 0 -8 10l9 52q2 10 11 10z" />
    <glyph glyph-name="ucircumflex" unicode="&#xfb;" horiz-adv-x="539" 
d="M316 700h39q10 0 14 -9l69 -124q6 -10 -5 -10h-38q-10 0 -16 10l-49 75h-1l-76 -75q-9 -10 -20 -10h-44q-4 0 -5 3t2 7l112 124q8 9 18 9zM352 479h122q11 0 9 -10l-69 -391q-2 -6 5 -6h47q10 0 8 -10l-9 -52q-2 -10 -11 -10h-124q-10 0 -8 10l8 45h-1q-53 -66 -136 -66
q-63 0 -97 36t-34 98q0 24 6 57l39 220q1 7 -5 7h-47q-10 0 -8 10l9 52q2 10 12 10h121q11 0 9 -10l-48 -267q-6 -30 -6 -54q0 -85 83 -85q46 0 81 33t45 87l38 217q1 7 -5 7h-46q-10 0 -8 10l9 52q2 10 11 10z" />
    <glyph glyph-name="udieresis" unicode="&#xfc;" horiz-adv-x="539" 
d="M207 680h55q10 0 8 -10l-12 -69q-2 -10 -11 -10h-56q-10 0 -8 10l13 69q2 10 11 10zM397 680h55q10 0 8 -10l-12 -69q-2 -10 -11 -10h-56q-10 0 -8 10l13 69q2 10 11 10zM352 479h122q11 0 9 -10l-69 -391q-2 -6 5 -6h47q10 0 8 -10l-9 -52q-2 -10 -11 -10h-124
q-10 0 -8 10l8 45h-1q-53 -66 -136 -66q-63 0 -97 36t-34 98q0 24 6 57l39 220q1 7 -5 7h-47q-10 0 -8 10l9 52q2 10 12 10h121q11 0 9 -10l-48 -267q-6 -30 -6 -54q0 -85 83 -85q46 0 81 33t45 87l38 217q1 7 -5 7h-46q-10 0 -8 10l9 52q2 10 11 10z" />
    <glyph glyph-name="yacute" unicode="&#xfd;" horiz-adv-x="465" 
d="M359 700h62q5 0 6 -3.5t-3 -7.5l-109 -122q-9 -10 -20 -10h-42q-12 0 -5 10l92 123q7 10 19 10zM337 479h158q10 0 8 -10l-9 -52q-1 -10 -12 -10h-22q-6 0 -10 -6l-242 -439q-46 -83 -81 -112.5t-87 -29.5h-25q-10 0 -8 10l9 54q2 10 12 10h18q27 0 46.5 18t43.5 61
l23 43l-78 385q-1 6 -6 6h-27q-10 0 -8 10l9 52q2 10 11 10h160q10 0 8 -10l-9 -52q-1 -10 -11 -10h-43q-7 0 -6 -9l54 -282h2l153 283q3 8 -4 8h-39q-10 0 -8 10l9 52q2 10 11 10z" />
    <glyph glyph-name="thorn" unicode="&#xfe;" horiz-adv-x="540" 
d="M134 680h123q10 0 8 -10l-44 -247h1q51 67 143 67q67 0 103.5 -42t36.5 -115q0 -53 -14.5 -122t-34.5 -111q-55 -111 -177 -111q-94 0 -122 70h-1l-28 -161q-2 -6 4 -6h48q10 0 8 -10l-9 -52q-2 -10 -11 -10h-186q-10 0 -8 10l9 52q2 10 12 10h46q7 0 8 6l124 703
q1 7 -5 7h-47q-10 0 -8 10l9 52q2 10 12 10zM334 417q-80 0 -118 -78q-12 -24 -24.5 -83.5t-12.5 -95.5q0 -46 23 -71.5t68 -25.5q78 0 116 75q15 31 26.5 86.5t11.5 92.5q0 100 -90 100z" />
    <glyph glyph-name="ydieresis" unicode="&#xff;" horiz-adv-x="465" 
d="M187 680h55q10 0 8 -10l-12 -69q-2 -10 -11 -10h-56q-10 0 -8 10l13 69q2 10 11 10zM377 680h55q10 0 8 -10l-12 -69q-2 -10 -11 -10h-56q-10 0 -8 10l13 69q2 10 11 10zM337 479h158q10 0 8 -10l-9 -52q-1 -10 -12 -10h-22q-6 0 -10 -6l-242 -439q-46 -83 -81 -112.5
t-87 -29.5h-25q-10 0 -8 10l9 54q2 10 12 10h18q27 0 46.5 18t43.5 61l23 43l-78 385q-1 6 -6 6h-27q-10 0 -8 10l9 52q2 10 11 10h160q10 0 8 -10l-9 -52q-1 -10 -11 -10h-43q-7 0 -6 -9l54 -282h2l153 283q3 8 -4 8h-39q-10 0 -8 10l9 52q2 10 11 10z" />
    <glyph glyph-name="Amacron" unicode="&#x100;" horiz-adv-x="586" 
d="M284 853h245q10 0 8 -10l-7 -41q-2 -10 -11 -10h-244q-10 0 -8 10l6 41q1 10 11 10zM342 680h70q9 0 11 -10l95 -592q2 -6 7 -6h29q10 0 8 -10l-9 -52q-2 -10 -11 -10h-176q-10 0 -8 10l9 52q2 10 11 10h54q6 0 5 6l-19 124h-246l-64 -124q-3 -6 3 -6h54q10 0 8 -10
l-9 -52q-2 -10 -12 -10h-183q-10 0 -8 10l9 52q2 10 11 10h31q6 0 8 5l308 593q5 10 14 10zM359 566l-148 -288h195l-44 288h-3z" />
    <glyph glyph-name="amacron" unicode="&#x101;" horiz-adv-x="504" 
d="M197 666h244q10 0 8 -10l-7 -41q-2 -10 -11 -10h-244q-10 0 -8 10l7 41q2 10 11 10zM277 490q82 0 119.5 -26.5t37.5 -85.5q0 -20 -5 -50l-45 -250q-2 -6 5 -6h46q10 0 8 -10l-9 -52q-2 -10 -12 -10h-116q-10 0 -8 10l7 43h-1q-45 -64 -146 -64q-58 0 -94 33t-36 89
q0 82 53 125t153 43h103q5 0 7 6q11 52 11 72q0 34 -21 49t-72 15q-35 0 -76 -13q-5 -2 -6 -7l-9 -50q-2 -10 -10 -10h-58q-11 0 -9 10l16 93q1 10 8 13q68 33 159 33zM326 216h-89q-131 0 -131 -95q0 -30 21.5 -47.5t61.5 -17.5q53 0 89 26.5t43 71.5l10 56q1 6 -5 6z" />
    <glyph glyph-name="Abreve" unicode="&#x102;" horiz-adv-x="586" 
d="M501 883h32q10 0 7 -10q-15 -50 -54.5 -80.5t-93.5 -30.5q-51 0 -80 27.5t-29 72.5v11q1 10 10 10h31q10 0 11 -10q5 -54 66 -54t87 54q4 10 13 10zM342 680h70q9 0 11 -10l95 -592q2 -6 7 -6h29q10 0 8 -10l-9 -52q-2 -10 -11 -10h-176q-10 0 -8 10l9 52q2 10 11 10h54
q6 0 5 6l-19 124h-246l-64 -124q-3 -6 3 -6h54q10 0 8 -10l-9 -52q-2 -10 -12 -10h-183q-10 0 -8 10l9 52q2 10 11 10h31q6 0 8 5l308 593q5 10 14 10zM359 566l-148 -288h195l-44 288h-3z" />
    <glyph glyph-name="abreve" unicode="&#x103;" horiz-adv-x="504" 
d="M409 684h32q10 0 7 -10q-15 -50 -54.5 -80.5t-93.5 -30.5q-51 0 -80 27.5t-29 72.5v11q1 10 10 10h31q10 0 11 -10q5 -54 66 -54t87 54q4 10 13 10zM277 490q82 0 119.5 -26.5t37.5 -85.5q0 -20 -5 -50l-45 -250q-2 -6 5 -6h46q10 0 8 -10l-9 -52q-2 -10 -12 -10h-116
q-10 0 -8 10l7 43h-1q-45 -64 -146 -64q-58 0 -94 33t-36 89q0 82 53 125t153 43h103q5 0 7 6q11 52 11 72q0 34 -21 49t-72 15q-35 0 -76 -13q-5 -2 -6 -7l-9 -50q-2 -10 -10 -10h-58q-11 0 -9 10l16 93q1 10 8 13q68 33 159 33zM326 216h-89q-131 0 -131 -95
q0 -30 21.5 -47.5t61.5 -17.5q53 0 89 26.5t43 71.5l10 56q1 6 -5 6z" />
    <glyph glyph-name="Aogonek" unicode="&#x104;" horiz-adv-x="586" 
d="M342 680h70q9 0 11 -10l95 -592q2 -6 7 -6h29q10 0 8 -10l-9 -52q-2 -10 -11 -10h-115q-54 -33 -76 -55.5t-22 -41.5q0 -21 22 -21q13 0 28 8q7 4 11 -3l11 -34q3 -7 -6 -13q-28 -20 -66 -20q-30 0 -49 16.5t-19 46.5q0 34 22 62t75 62l9 55q2 10 11 10h54q6 0 5 6
l-19 124h-246l-64 -124q-3 -6 3 -6h54q10 0 8 -10l-9 -52q-2 -10 -12 -10h-183q-10 0 -8 10l9 52q2 10 11 10h31q6 0 8 5l308 593q5 10 14 10zM359 566l-148 -288h195l-44 288h-3z" />
    <glyph glyph-name="aogonek" unicode="&#x105;" horiz-adv-x="504" 
d="M277 490q82 0 119.5 -26.5t37.5 -85.5q0 -20 -5 -50l-45 -250q-2 -6 5 -6h46q10 0 8 -10l-9 -52q-2 -10 -12 -10h-53q-54 -33 -76 -55.5t-22 -41.5q0 -21 22 -21q13 0 28 8q7 4 11 -3l11 -34q3 -7 -6 -13q-28 -20 -66 -20q-30 0 -49 16.5t-19 46.5q0 63 94 121l8 49h-1
q-45 -64 -146 -64q-58 0 -94 33t-36 89q0 82 53 125t153 43h103q5 0 7 6q11 52 11 72q0 34 -21 49t-72 15q-35 0 -76 -13q-5 -2 -6 -7l-9 -50q-2 -10 -10 -10h-58q-11 0 -9 10l16 93q1 10 8 13q68 33 159 33zM326 216h-89q-131 0 -131 -95q0 -30 21.5 -47.5t61.5 -17.5
q53 0 89 26.5t43 71.5l10 56q1 6 -5 6z" />
    <glyph glyph-name="Cacute" unicode="&#x106;" horiz-adv-x="562" 
d="M464 888h66q5 0 6 -3t-3 -7l-118 -107q-9 -8 -19 -8h-45q-5 0 -6 3t2 7l97 105q10 10 20 10zM378 691q120 0 189 -54q9 -8 8 -17l-19 -109q-2 -10 -10 -10h-59q-11 0 -9 10l13 68q1 5 -3 8q-40 26 -113 26q-116 0 -168 -105q-22 -45 -42 -153.5t-20 -158.5
q0 -129 141 -129q68 0 111 23q6 3 7 8l12 68q2 10 11 10h59q10 0 8 -10l-20 -116q-1 -8 -10 -14q-75 -47 -187 -47q-217 0 -217 200q0 55 23 177t48 172q75 153 247 153z" />
    <glyph glyph-name="cacute" unicode="&#x107;" horiz-adv-x="465" 
d="M384 700h62q5 0 6 -3.5t-3 -7.5l-109 -122q-9 -10 -20 -10h-42q-12 0 -5 10l92 123q7 10 19 10zM293 490q95 0 147 -44q6 -5 5 -14l-15 -90q-2 -10 -11 -10h-56q-10 0 -8 10l9 50q1 5 -4 9q-26 17 -73 17q-85 0 -124 -79q-16 -32 -26.5 -85t-10.5 -86q0 -53 24 -79
t80 -26q43 0 71 14q7 3 8 10l9 49q2 10 10 10h56q10 0 8 -10l-17 -98q-1 -9 -9 -14q-60 -35 -148 -35q-86 0 -129.5 43.5t-43.5 122.5q0 42 12 106t33 107q30 63 78 92.5t125 29.5z" />
    <glyph glyph-name="Ccircumflex" unicode="&#x108;" horiz-adv-x="562" 
d="M400 897h39q9 0 14 -9l69 -124q2 -4 0.5 -7t-5.5 -3h-38q-9 0 -17 10l-48 75h-1l-77 -75q-9 -10 -20 -10h-43q-5 0 -6 3t3 7l112 124q8 9 18 9zM378 691q120 0 189 -54q9 -8 8 -17l-19 -109q-2 -10 -10 -10h-59q-11 0 -9 10l13 68q1 5 -3 8q-40 26 -113 26
q-116 0 -168 -105q-22 -45 -42 -153.5t-20 -158.5q0 -129 141 -129q68 0 111 23q6 3 7 8l12 68q2 10 11 10h59q10 0 8 -10l-20 -116q-1 -8 -10 -14q-75 -47 -187 -47q-217 0 -217 200q0 55 23 177t48 172q75 153 247 153z" />
    <glyph glyph-name="ccircumflex" unicode="&#x109;" horiz-adv-x="465" 
d="M311 700h39q10 0 14 -9l69 -124q6 -10 -5 -10h-38q-10 0 -16 10l-49 75h-1l-76 -75q-9 -10 -20 -10h-44q-4 0 -5 3t2 7l112 124q8 9 18 9zM293 490q95 0 147 -44q6 -5 5 -14l-15 -90q-2 -10 -11 -10h-56q-10 0 -8 10l9 50q1 5 -4 9q-26 17 -73 17q-85 0 -124 -79
q-16 -32 -26.5 -85t-10.5 -86q0 -53 24 -79t80 -26q43 0 71 14q7 3 8 10l9 49q2 10 10 10h56q10 0 8 -10l-17 -98q-1 -9 -9 -14q-60 -35 -148 -35q-86 0 -129.5 43.5t-43.5 122.5q0 42 12 106t33 107q30 63 78 92.5t125 29.5z" />
    <glyph glyph-name="Cdotaccent" unicode="&#x10a;" horiz-adv-x="562" 
d="M375 868h66q10 0 8 -10l-12 -70q-2 -10 -11 -10h-66q-10 0 -8 10l12 70q2 10 11 10zM378 691q120 0 189 -54q9 -8 8 -17l-19 -109q-2 -10 -10 -10h-59q-11 0 -9 10l13 68q1 5 -3 8q-40 26 -113 26q-116 0 -168 -105q-22 -45 -42 -153.5t-20 -158.5q0 -129 141 -129
q68 0 111 23q6 3 7 8l12 68q2 10 11 10h59q10 0 8 -10l-20 -116q-1 -8 -10 -14q-75 -47 -187 -47q-217 0 -217 200q0 55 23 177t48 172q75 153 247 153z" />
    <glyph glyph-name="cdotaccent" unicode="&#x10b;" horiz-adv-x="465" 
d="M293 680h66q10 0 8 -10l-12 -69q-2 -10 -11 -10h-66q-10 0 -8 10l12 69q2 10 11 10zM293 490q95 0 147 -44q6 -5 5 -14l-15 -90q-2 -10 -11 -10h-56q-10 0 -8 10l9 50q1 5 -4 9q-26 17 -73 17q-85 0 -124 -79q-16 -32 -26.5 -85t-10.5 -86q0 -53 24 -79t80 -26
q43 0 71 14q7 3 8 10l9 49q2 10 10 10h56q10 0 8 -10l-17 -98q-1 -9 -9 -14q-60 -35 -148 -35q-86 0 -129.5 43.5t-43.5 122.5q0 42 12 106t33 107q30 63 78 92.5t125 29.5z" />
    <glyph glyph-name="Ccaron" unicode="&#x10c;" horiz-adv-x="562" 
d="M496 896h43q5 0 6 -3t-3 -7l-112 -124q-8 -9 -18 -9h-39q-9 0 -14 9l-69 124q-2 4 -0.5 7t5.5 3h38q9 0 17 -10l48 -75h1l76 75q10 10 21 10zM378 691q120 0 189 -54q9 -8 8 -17l-19 -109q-2 -10 -10 -10h-59q-11 0 -9 10l13 68q1 5 -3 8q-40 26 -113 26
q-116 0 -168 -105q-22 -45 -42 -153.5t-20 -158.5q0 -129 141 -129q68 0 111 23q6 3 7 8l12 68q2 10 11 10h59q10 0 8 -10l-20 -116q-1 -8 -10 -14q-75 -47 -187 -47q-217 0 -217 200q0 55 23 177t48 172q75 153 247 153z" />
    <glyph glyph-name="ccaron" unicode="&#x10d;" horiz-adv-x="465" 
d="M405 699h44q4 0 5 -3t-2 -7l-112 -124q-8 -9 -19 -9h-38q-9 0 -14 9l-69 124q-6 10 5 10h38q10 0 16 -9l49 -76h1l76 76q9 9 20 9zM293 490q95 0 147 -44q6 -5 5 -14l-15 -90q-2 -10 -11 -10h-56q-10 0 -8 10l9 50q1 5 -4 9q-26 17 -73 17q-85 0 -124 -79
q-16 -32 -26.5 -85t-10.5 -86q0 -53 24 -79t80 -26q43 0 71 14q7 3 8 10l9 49q2 10 10 10h56q10 0 8 -10l-17 -98q-1 -9 -9 -14q-60 -35 -148 -35q-86 0 -129.5 43.5t-43.5 122.5q0 42 12 106t33 107q30 63 78 92.5t125 29.5z" />
    <glyph glyph-name="Dcaron" unicode="&#x10e;" horiz-adv-x="619" 
d="M496 896h43q5 0 6 -3t-3 -7l-112 -124q-8 -9 -18 -9h-39q-9 0 -14 9l-69 124q-2 4 -0.5 7t5.5 3h38q9 0 17 -10l48 -75h1l76 75q10 10 21 10zM128 680h283q185 0 185 -184q0 -70 -21.5 -188.5t-50.5 -175.5q-35 -72 -90.5 -102t-141.5 -30h-284q-10 0 -8 10l9 52
q2 10 11 10h51q7 0 8 6l93 524q2 6 -5 6h-51q-10 0 -8 10l9 52q2 10 11 10zM381 602h-120q-5 0 -7 -6l-91 -512q-1 -6 5 -6h119q120 0 167 96q21 42 41 146.5t20 159.5q0 63 -33.5 92.5t-100.5 29.5z" />
    <glyph glyph-name="dcaron" unicode="&#x10f;" horiz-adv-x="540" 
d="M386 680h123q11 0 9 -10l-104 -592q-2 -6 4 -6h47q10 0 8 -10l-9 -52q-1 -10 -12 -10h-122q-10 0 -8 10l8 47h-1q-51 -68 -143 -68q-67 0 -103.5 42t-36.5 116q0 52 14.5 121.5t34.5 110.5q54 111 176 111q95 0 123 -69h1l31 180q1 7 -5 7h-47q-10 0 -8 10l9 52
q2 10 11 10zM579 680h57q10 0 8 -10l-10 -60q-3 -13 -9 -20l-60 -62q-7 -7 -13 -7q-10 0 -8 10l24 139q2 10 11 10zM281 418q-78 0 -116 -77q-15 -30 -26 -85.5t-11 -93.5q0 -100 89 -100q79 0 119 78q12 25 24 84.5t12 94.5q0 46 -23 72.5t-68 26.5z" />
    <glyph glyph-name="Dcroat" unicode="&#x110;" horiz-adv-x="619" 
d="M128 680h283q185 0 185 -184q0 -70 -21.5 -188.5t-50.5 -175.5q-35 -72 -90.5 -102t-141.5 -30h-284q-10 0 -8 10l9 52q2 10 12 10h50q7 0 8 6l40 227q1 6 -5 6h-31q-10 0 -8 10l8 47q2 10 12 10h31q6 0 7 6l39 218q2 6 -5 6h-51q-10 0 -8 10l9 52q2 10 11 10zM381 602
h-120q-5 0 -7 -6l-38 -212q-2 -6 5 -6h109q10 0 8 -10l-7 -47q-2 -10 -12 -10h-110q-5 0 -7 -6l-39 -221q-1 -6 5 -6h119q120 0 167 96q21 42 41 146.5t20 159.5q0 63 -33.5 92.5t-100.5 29.5z" />
    <glyph glyph-name="dcroat" unicode="&#x111;" horiz-adv-x="540" 
d="M386 680h123q11 0 9 -10l-15 -87q-1 -6 5 -6h27q11 0 9 -10l-7 -41q-1 -9 -12 -9h-28q-6 0 -7 -6l-76 -433q-2 -6 4 -6h47q10 0 8 -10l-9 -52q-1 -10 -12 -10h-122q-10 0 -8 10l8 47h-1q-51 -68 -143 -68q-67 0 -103.5 42t-36.5 116q0 52 14.5 121.5t34.5 110.5
q54 111 176 111q95 0 123 -69h1l16 90q1 6 -5 6h-116q-9 0 -7 10l6 40q2 10 12 10h115q6 0 7 6l3 18q1 7 -5 7h-47q-10 0 -8 10l9 52q2 10 11 10zM281 418q-78 0 -116 -77q-15 -30 -26 -85.5t-11 -93.5q0 -100 89 -100q79 0 119 78q12 25 24 84.5t12 94.5q0 46 -23 72.5
t-68 26.5z" />
    <glyph glyph-name="Emacron" unicode="&#x112;" horiz-adv-x="561" 
d="M271 853h245q10 0 8 -10l-7 -41q-2 -10 -11 -10h-244q-10 0 -8 10l6 41q1 10 11 10zM128 680h451q11 0 9 -10l-23 -132q-2 -10 -10 -10h-59q-11 0 -9 10l10 59q1 6 -4 6h-233q-6 0 -7 -6l-36 -208q-1 -6 5 -6h167q5 0 7 6l8 42q2 10 11 10h58q10 0 8 -10l-30 -173
q-2 -10 -10 -10h-58q-11 0 -9 10l7 42q1 6 -4 6h-169q-6 0 -7 -6l-39 -217q-2 -6 5 -6h232q7 0 8 6l11 64q2 10 11 10h59q10 0 8 -10l-24 -137q-2 -10 -12 -10h-452q-10 0 -8 10l9 52q2 10 12 10h50q7 0 8 6l93 524q2 6 -5 6h-51q-10 0 -8 10l9 52q2 10 11 10z" />
    <glyph glyph-name="emacron" unicode="&#x113;" horiz-adv-x="482" 
d="M193 666h244q10 0 8 -10l-7 -41q-2 -10 -11 -10h-244q-10 0 -8 10l7 41q2 10 11 10zM288 490q71 0 115.5 -42.5t44.5 -120.5q0 -36 -12 -101q-2 -10 -12 -10h-293q-5 0 -7 -6q-3 -16 -3 -41q0 -107 102 -107q69 0 130 57q10 8 16 0l30 -34q7 -7 -1 -15q-79 -81 -188 -81
q-81 0 -123.5 44t-42.5 124q0 121 42 207q60 126 202 126zM278 420q-84 0 -120 -76q-12 -24 -19 -59q-1 -6 4 -6h216q7 0 8 6q4 19 4 40q0 95 -93 95z" />
    <glyph glyph-name="Ebreve" unicode="&#x114;" horiz-adv-x="561" 
d="M481 883h32q10 0 7 -10q-15 -50 -54.5 -80.5t-93.5 -30.5q-51 0 -80 27.5t-29 72.5v11q1 10 10 10h31q10 0 11 -10q5 -54 66 -54t87 54q4 10 13 10zM128 680h451q11 0 9 -10l-23 -132q-2 -10 -10 -10h-59q-11 0 -9 10l10 59q1 6 -4 6h-233q-6 0 -7 -6l-36 -208
q-1 -6 5 -6h167q5 0 7 6l8 42q2 10 11 10h58q10 0 8 -10l-30 -173q-2 -10 -10 -10h-58q-11 0 -9 10l7 42q1 6 -4 6h-169q-6 0 -7 -6l-39 -217q-2 -6 5 -6h232q7 0 8 6l11 64q2 10 11 10h59q10 0 8 -10l-24 -137q-2 -10 -12 -10h-452q-10 0 -8 10l9 52q2 10 12 10h50q7 0 8 6
l93 524q2 6 -5 6h-51q-10 0 -8 10l9 52q2 10 11 10z" />
    <glyph glyph-name="ebreve" unicode="&#x115;" horiz-adv-x="482" 
d="M407 684h32q10 0 7 -10q-15 -50 -54.5 -80.5t-93.5 -30.5q-51 0 -80 27.5t-29 72.5v11q1 10 10 10h31q10 0 11 -10q5 -54 66 -54t87 54q4 10 13 10zM288 490q71 0 115.5 -42.5t44.5 -120.5q0 -36 -12 -101q-2 -10 -12 -10h-293q-5 0 -7 -6q-3 -16 -3 -41q0 -107 102 -107
q69 0 130 57q10 8 16 0l30 -34q7 -7 -1 -15q-79 -81 -188 -81q-81 0 -123.5 44t-42.5 124q0 121 42 207q60 126 202 126zM278 420q-84 0 -120 -76q-12 -24 -19 -59q-1 -6 4 -6h216q7 0 8 6q4 19 4 40q0 95 -93 95z" />
    <glyph glyph-name="Edotaccent" unicode="&#x116;" horiz-adv-x="561" 
d="M362 868h66q10 0 8 -10l-12 -70q-2 -10 -11 -10h-66q-10 0 -8 10l12 70q2 10 11 10zM128 680h451q11 0 9 -10l-23 -132q-2 -10 -10 -10h-59q-11 0 -9 10l10 59q1 6 -4 6h-233q-6 0 -7 -6l-36 -208q-1 -6 5 -6h167q5 0 7 6l8 42q2 10 11 10h58q10 0 8 -10l-30 -173
q-2 -10 -10 -10h-58q-11 0 -9 10l7 42q1 6 -4 6h-169q-6 0 -7 -6l-39 -217q-2 -6 5 -6h232q7 0 8 6l11 64q2 10 11 10h59q10 0 8 -10l-24 -137q-2 -10 -12 -10h-452q-10 0 -8 10l9 52q2 10 12 10h50q7 0 8 6l93 524q2 6 -5 6h-51q-10 0 -8 10l9 52q2 10 11 10z" />
    <glyph glyph-name="edotaccent" unicode="&#x117;" horiz-adv-x="482" 
d="M285 680h66q10 0 8 -10l-12 -69q-2 -10 -11 -10h-66q-10 0 -8 10l12 69q2 10 11 10zM288 490q71 0 115.5 -42.5t44.5 -120.5q0 -36 -12 -101q-2 -10 -12 -10h-293q-5 0 -7 -6q-3 -16 -3 -41q0 -107 102 -107q69 0 130 57q10 8 16 0l30 -34q7 -7 -1 -15q-79 -81 -188 -81
q-81 0 -123.5 44t-42.5 124q0 121 42 207q60 126 202 126zM278 420q-84 0 -120 -76q-12 -24 -19 -59q-1 -6 4 -6h216q7 0 8 6q4 19 4 40q0 95 -93 95z" />
    <glyph glyph-name="Eogonek" unicode="&#x118;" horiz-adv-x="561" 
d="M128 680h451q11 0 9 -10l-23 -132q-2 -10 -10 -10h-59q-11 0 -9 10l10 59q1 6 -4 6h-233q-6 0 -7 -6l-36 -208q-1 -6 5 -6h167q5 0 7 6l8 42q2 10 11 10h58q10 0 8 -10l-30 -173q-2 -10 -10 -10h-58q-11 0 -9 10l7 42q1 6 -4 6h-169q-6 0 -7 -6l-39 -217q-2 -6 5 -6h232
q7 0 8 6l11 64q2 10 11 10h59q10 0 8 -10l-24 -137q-2 -10 -12 -10h-13q-54 -33 -76 -55.5t-22 -41.5q0 -21 22 -21q13 0 28 8q7 4 11 -3l11 -34q3 -7 -6 -13q-28 -20 -66 -20q-30 0 -49 16.5t-19 46.5q0 33 21 60t65 57h-359q-10 0 -8 10l9 52q2 10 12 10h50q7 0 8 6
l93 524q2 6 -5 6h-51q-10 0 -8 10l9 52q2 10 11 10z" />
    <glyph glyph-name="eogonek" unicode="&#x119;" horiz-adv-x="482" 
d="M288 490q71 0 115.5 -42.5t44.5 -120.5q0 -36 -12 -101q-2 -10 -12 -10h-293q-5 0 -7 -6q-3 -16 -3 -41q0 -107 102 -107q73 0 130 57q10 8 15 1l31 -35q6 -6 -1 -15q-21 -21 -48 -40q-101 -85 -101 -127q0 -21 22 -21q14 0 27 8q10 6 12 -4l10 -33q3 -8 -5 -13
q-30 -20 -67 -20q-30 0 -48.5 16.5t-18.5 46.5q0 52 62 111q-17 -5 -33 -5q-81 0 -123.5 44t-42.5 124q0 121 42 207q60 126 202 126zM278 420q-84 0 -120 -76q-12 -24 -19 -59q-1 -6 4 -6h216q7 0 8 6q4 19 4 40q0 95 -93 95z" />
    <glyph glyph-name="Ecaron" unicode="&#x11a;" horiz-adv-x="561" 
d="M480 896h43q5 0 6 -3t-3 -7l-112 -124q-8 -9 -18 -9h-39q-9 0 -14 9l-69 124q-2 4 -0.5 7t5.5 3h38q9 0 17 -10l48 -75h1l76 75q10 10 21 10zM128 680h451q11 0 9 -10l-23 -132q-2 -10 -10 -10h-59q-11 0 -9 10l10 59q1 6 -4 6h-233q-6 0 -7 -6l-36 -208q-1 -6 5 -6h167
q5 0 7 6l8 42q2 10 11 10h58q10 0 8 -10l-30 -173q-2 -10 -10 -10h-58q-11 0 -9 10l7 42q1 6 -4 6h-169q-6 0 -7 -6l-39 -217q-2 -6 5 -6h232q7 0 8 6l11 64q2 10 11 10h59q10 0 8 -10l-24 -137q-2 -10 -12 -10h-452q-10 0 -8 10l9 52q2 10 12 10h50q7 0 8 6l93 524
q2 6 -5 6h-51q-10 0 -8 10l9 52q2 10 11 10z" />
    <glyph glyph-name="ecaron" unicode="&#x11b;" horiz-adv-x="482" 
d="M399 699h44q4 0 5 -3t-2 -7l-112 -124q-8 -9 -19 -9h-38q-9 0 -14 9l-69 124q-6 10 5 10h38q10 0 16 -9l49 -76h1l76 76q9 9 20 9zM288 490q71 0 115.5 -42.5t44.5 -120.5q0 -36 -12 -101q-2 -10 -12 -10h-293q-5 0 -7 -6q-3 -16 -3 -41q0 -107 102 -107q69 0 130 57
q10 8 16 0l30 -34q7 -7 -1 -15q-79 -81 -188 -81q-81 0 -123.5 44t-42.5 124q0 121 42 207q60 126 202 126zM278 420q-84 0 -120 -76q-12 -24 -19 -59q-1 -6 4 -6h216q7 0 8 6q4 19 4 40q0 95 -93 95z" />
    <glyph glyph-name="Gcircumflex" unicode="&#x11c;" horiz-adv-x="602" 
d="M408 897h39q9 0 14 -9l69 -124q2 -4 0.5 -7t-5.5 -3h-38q-9 0 -17 10l-48 75h-1l-77 -75q-9 -10 -20 -10h-43q-5 0 -6 3t3 7l112 124q8 9 18 9zM390 691q62 0 115.5 -18.5t81.5 -46.5q7 -7 5 -16l-18 -102q-2 -10 -10 -10h-59q-11 0 -9 10l12 67q2 6 -3 9q-46 29 -125 29
q-121 0 -173 -106q-22 -45 -42 -153t-20 -158q0 -128 145 -128q84 0 128 27q9 5 11 15l30 169q1 6 -5 6h-124q-9 0 -7 10l9 54q2 10 11 10h203q9 0 7 -10l-51 -285q-4 -17 -17 -26q-73 -49 -200 -49q-110 0 -167.5 51t-57.5 149q0 54 23.5 177t47.5 173q39 80 100 116
t159 36z" />
    <glyph glyph-name="gcircumflex" unicode="&#x11d;" horiz-adv-x="527" 
d="M318 700h39q10 0 14 -9l69 -124q6 -10 -5 -10h-38q-10 0 -16 10l-49 75h-1l-76 -75q-9 -10 -20 -10h-44q-4 0 -5 3t2 7l112 124q8 9 18 9zM267 490q92 0 116 -69h1l9 48q2 10 11 10h122q10 0 8 -10l-9 -52q-1 -10 -11 -10h-47q-7 0 -8 -7l-67 -380q-20 -112 -75 -161.5
t-151 -49.5q-50 0 -90 20.5t-61 54.5q-6 9 3 16l40 34q9 7 16 -1q42 -50 100 -50q112 0 138 133l11 55h-1q-45 -66 -137 -66q-68 0 -103 41t-35 112q0 46 12.5 110.5t32.5 106.5q54 115 175 115zM274 418q-73 0 -110 -75q-37 -72 -37 -168q0 -97 89 -97q71 0 109 73
q15 29 26 82t11 87q0 98 -88 98z" />
    <glyph glyph-name="Gbreve" unicode="&#x11e;" horiz-adv-x="602" 
d="M513 883h32q10 0 7 -10q-15 -50 -54.5 -80.5t-93.5 -30.5q-51 0 -80 27.5t-29 72.5v11q1 10 10 10h31q10 0 11 -10q5 -54 66 -54t87 54q4 10 13 10zM390 691q62 0 115.5 -18.5t81.5 -46.5q7 -7 5 -16l-18 -102q-2 -10 -10 -10h-59q-11 0 -9 10l12 67q2 6 -3 9
q-46 29 -125 29q-121 0 -173 -106q-22 -45 -42 -153t-20 -158q0 -128 145 -128q84 0 128 27q9 5 11 15l30 169q1 6 -5 6h-124q-9 0 -7 10l9 54q2 10 11 10h203q9 0 7 -10l-51 -285q-4 -17 -17 -26q-73 -49 -200 -49q-110 0 -167.5 51t-57.5 149q0 54 23.5 177t47.5 173
q39 80 100 116t159 36z" />
    <glyph glyph-name="gbreve" unicode="&#x11f;" horiz-adv-x="527" 
d="M422 684h32q10 0 7 -10q-15 -50 -54.5 -80.5t-93.5 -30.5q-51 0 -80 27.5t-29 72.5v11q1 10 10 10h31q10 0 11 -10q5 -54 66 -54t87 54q4 10 13 10zM267 490q92 0 116 -69h1l9 48q2 10 11 10h122q10 0 8 -10l-9 -52q-1 -10 -11 -10h-47q-7 0 -8 -7l-67 -380
q-20 -112 -75 -161.5t-151 -49.5q-50 0 -90 20.5t-61 54.5q-6 9 3 16l40 34q9 7 16 -1q42 -50 100 -50q112 0 138 133l11 55h-1q-45 -66 -137 -66q-68 0 -103 41t-35 112q0 46 12.5 110.5t32.5 106.5q54 115 175 115zM274 418q-73 0 -110 -75q-37 -72 -37 -168q0 -97 89 -97
q71 0 109 73q15 29 26 82t11 87q0 98 -88 98z" />
    <glyph glyph-name="Gdotaccent" unicode="&#x120;" horiz-adv-x="602" 
d="M388 868h66q10 0 8 -10l-12 -70q-2 -10 -11 -10h-66q-10 0 -8 10l12 70q2 10 11 10zM390 691q62 0 115.5 -18.5t81.5 -46.5q7 -7 5 -16l-18 -102q-2 -10 -10 -10h-59q-11 0 -9 10l12 67q2 6 -3 9q-46 29 -125 29q-121 0 -173 -106q-22 -45 -42 -153t-20 -158
q0 -128 145 -128q84 0 128 27q9 5 11 15l30 169q1 6 -5 6h-124q-9 0 -7 10l9 54q2 10 11 10h203q9 0 7 -10l-51 -285q-4 -17 -17 -26q-73 -49 -200 -49q-110 0 -167.5 51t-57.5 149q0 54 23.5 177t47.5 173q39 80 100 116t159 36z" />
    <glyph glyph-name="gdotaccent" unicode="&#x121;" horiz-adv-x="527" 
d="M300 680h66q10 0 8 -10l-12 -69q-2 -10 -11 -10h-66q-10 0 -8 10l12 69q2 10 11 10zM267 490q92 0 116 -69h1l9 48q2 10 11 10h122q10 0 8 -10l-9 -52q-1 -10 -11 -10h-47q-7 0 -8 -7l-67 -380q-20 -112 -75 -161.5t-151 -49.5q-50 0 -90 20.5t-61 54.5q-6 9 3 16l40 34
q9 7 16 -1q42 -50 100 -50q112 0 138 133l11 55h-1q-45 -66 -137 -66q-68 0 -103 41t-35 112q0 46 12.5 110.5t32.5 106.5q54 115 175 115zM274 418q-73 0 -110 -75q-37 -72 -37 -168q0 -97 89 -97q71 0 109 73q15 29 26 82t11 87q0 98 -88 98z" />
    <glyph glyph-name="Gcommaaccent" unicode="&#x122;" horiz-adv-x="602" 
d="M390 691q62 0 115.5 -18.5t81.5 -46.5q7 -7 5 -16l-18 -102q-2 -10 -10 -10h-59q-11 0 -9 10l12 67q2 6 -3 9q-46 29 -125 29q-121 0 -173 -106q-22 -45 -42 -153t-20 -158q0 -128 145 -128q84 0 128 27q9 5 11 15l30 169q1 6 -5 6h-124q-9 0 -7 10l9 54q2 10 11 10h203
q9 0 7 -10l-51 -285q-4 -17 -17 -26q-73 -49 -200 -49q-110 0 -167.5 51t-57.5 149q0 54 23.5 177t47.5 173q39 80 100 116t159 36zM222 -55h57q10 0 8 -10l-10 -57q-3 -14 -9 -20l-60 -62q-7 -7 -14 -7q-9 0 -7 10l23 136q2 10 12 10z" />
    <glyph glyph-name="gcommaaccent" unicode="&#x123;" horiz-adv-x="527" 
d="M369 729q9 0 7 -10l-23 -137q-2 -10 -12 -10h-57q-10 0 -8 10l10 57q2 11 10 20l59 62q7 8 14 8zM267 490q92 0 116 -69h1l9 48q2 10 11 10h122q10 0 8 -10l-9 -52q-1 -10 -11 -10h-47q-7 0 -8 -7l-67 -380q-20 -112 -75 -161.5t-151 -49.5q-50 0 -90 20.5t-61 54.5
q-6 9 3 16l40 34q9 7 16 -1q42 -50 100 -50q112 0 138 133l11 55h-1q-45 -66 -137 -66q-68 0 -103 41t-35 112q0 46 12.5 110.5t32.5 106.5q54 115 175 115zM274 418q-73 0 -110 -75q-37 -72 -37 -168q0 -97 89 -97q71 0 109 73q15 29 26 82t11 87q0 98 -88 98z" />
    <glyph glyph-name="Hcircumflex" unicode="&#x124;" horiz-adv-x="663" 
d="M434 897h39q9 0 14 -9l69 -124q2 -4 0.5 -7t-5.5 -3h-38q-9 0 -17 10l-48 75h-1l-77 -75q-9 -10 -20 -10h-43q-5 0 -6 3t3 7l112 124q8 9 18 9zM501 680h198q10 0 8 -10l-9 -52q-2 -10 -11 -10h-52q-5 0 -7 -6l-93 -524q-1 -6 5 -6h51q10 0 8 -10l-9 -52q-2 -10 -11 -10
h-198q-10 0 -8 10l9 52q2 10 11 10h51q6 0 8 6l39 221q1 6 -5 6h-277q-5 0 -7 -6l-40 -221q-2 -6 4 -6h52q10 0 8 -10l-9 -52q-2 -10 -12 -10h-197q-10 0 -8 10l9 52q2 10 12 10h50q7 0 8 6l93 524q2 6 -5 6h-51q-10 0 -8 10l9 52q2 10 11 10h198q10 0 8 -10l-9 -52
q-2 -10 -11 -10h-51q-7 0 -8 -6l-38 -213q-1 -6 5 -6h278q6 0 7 6l38 213q1 6 -4 6h-52q-10 0 -8 10l9 52q2 10 11 10z" />
    <glyph glyph-name="uni0125" unicode="&#x125;" horiz-adv-x="564" 
d="M388 897h39q9 0 14 -9l69 -124q2 -4 0.5 -7t-5.5 -3h-38q-9 0 -17 10l-48 75h-1l-77 -75q-9 -10 -20 -10h-43q-5 0 -6 3t3 7l112 124q8 9 18 9zM134 680h123q10 0 8 -10l-44 -246h1q52 66 140 66q64 0 98 -35.5t34 -98.5q0 -24 -6 -57l-40 -221q-2 -6 5 -6h46q10 0 8 -10
l-9 -52q-2 -10 -12 -10h-183q-10 0 -8 10l9 52q2 10 11 10h47q6 0 7 6l36 202q6 34 6 51q0 87 -84 87q-46 0 -82 -34t-46 -87l-39 -219q-2 -6 4 -6h48q10 0 8 -10l-9 -52q-2 -10 -11 -10h-186q-10 0 -8 10l9 52q2 10 12 10h46q7 0 8 6l93 523q1 7 -5 7h-47q-10 0 -8 10l9 52
q2 10 11 10z" />
    <glyph glyph-name="Hbar" unicode="&#x126;" horiz-adv-x="663" 
d="M501 680h198q10 0 8 -10l-9 -52q-2 -10 -11 -10h-52q-5 0 -7 -6l-11 -62q-1 -6 5 -6h35q10 0 8 -10l-7 -44q-2 -10 -12 -10h-35q-5 0 -7 -6l-69 -386q-1 -6 5 -6h51q10 0 8 -10l-9 -52q-2 -10 -11 -10h-198q-10 0 -8 10l9 52q2 10 11 10h51q6 0 8 6l39 221q1 6 -5 6h-277
q-5 0 -7 -6l-40 -221q-2 -6 4 -6h52q10 0 8 -10l-9 -52q-2 -10 -12 -10h-197q-10 0 -8 10l9 52q2 10 12 10h50q7 0 8 6l69 386q2 6 -5 6h-37q-9 0 -7 10l7 44q2 10 11 10h37q6 0 7 6l11 62q2 6 -5 6h-51q-10 0 -8 10l9 52q2 10 11 10h198q10 0 8 -10l-9 -52q-2 -10 -11 -10
h-51q-7 0 -8 -6l-11 -62q-2 -6 5 -6h278q5 0 7 6l11 62q1 6 -4 6h-52q-10 0 -8 10l9 52q2 10 11 10zM515 470h-278q-5 0 -7 -6l-13 -75q-1 -6 5 -6h278q6 0 7 6l13 75q2 6 -5 6z" />
    <glyph glyph-name="hbar" unicode="&#x127;" horiz-adv-x="564" 
d="M134 680h123q10 0 8 -10l-15 -87q-2 -6 5 -6h115q10 0 8 -10l-6 -40q-2 -10 -12 -10h-116q-6 0 -7 -6l-16 -87h1q52 66 140 66q64 0 98 -35.5t34 -98.5q0 -24 -6 -57l-40 -221q-2 -6 5 -6h46q10 0 8 -10l-9 -52q-2 -10 -12 -10h-183q-10 0 -8 10l9 52q2 10 11 10h47
q6 0 7 6l36 202q6 34 6 51q0 87 -84 87q-46 0 -82 -34t-46 -87l-39 -219q-2 -6 4 -6h48q10 0 8 -10l-9 -52q-2 -10 -11 -10h-186q-10 0 -8 10l9 52q2 10 12 10h46q7 0 8 6l77 433q2 6 -5 6h-27q-11 0 -9 10l7 41q2 9 12 9h28q6 0 7 6l3 18q1 7 -5 7h-47q-10 0 -8 10l9 52
q2 10 11 10z" />
    <glyph glyph-name="Itilde" unicode="&#x128;" horiz-adv-x="290" 
d="M209 872q28 0 58 -20q26 -18 47 -18q32 0 66 32q3 3 6 1.5t2 -4.5l-8 -46q-1 -8 -10 -17q-32 -30 -70 -30q-28 0 -58 20q-25 18 -47 18q-32 0 -66 -31q-3 -3 -6 -2t-2 5l8 45q3 11 10 18q32 29 70 29zM128 680h198q10 0 8 -10l-9 -52q-2 -10 -11 -10h-51q-7 0 -8 -6
l-93 -524q-2 -6 5 -6h51q10 0 8 -10l-9 -52q-2 -10 -12 -10h-197q-10 0 -8 10l9 52q2 10 11 10h51q7 0 8 6l93 524q2 6 -5 6h-51q-10 0 -8 10l9 52q2 10 11 10z" />
    <glyph glyph-name="itilde" unicode="&#x129;" horiz-adv-x="280" 
d="M156 682q28 0 58 -21q29 -18 48 -18q30 0 65 32q3 3 6 2t2 -5l-7 -46q-3 -10 -11 -17q-31 -29 -69 -29q-30 0 -58 20q-26 18 -48 18q-31 0 -65 -32q-3 -3 -6 -1.5t-2 4.5l7 46q2 10 11 17q31 30 69 30zM99 479h123q10 0 8 -10l-70 -391q-2 -6 4 -6h48q10 0 8 -10l-9 -52
q-2 -10 -11 -10h-186q-10 0 -8 10l9 52q2 10 12 10h46q7 0 8 6l57 322q1 7 -5 7h-46q-10 0 -8 10l9 52q2 10 11 10z" />
    <glyph glyph-name="Imacron" unicode="&#x12a;" horiz-adv-x="290" 
d="M139 853h245q10 0 8 -10l-7 -41q-2 -10 -11 -10h-244q-10 0 -8 10l6 41q1 10 11 10zM128 680h198q10 0 8 -10l-9 -52q-2 -10 -11 -10h-51q-7 0 -8 -6l-93 -524q-2 -6 5 -6h51q10 0 8 -10l-9 -52q-2 -10 -12 -10h-197q-10 0 -8 10l9 52q2 10 11 10h51q7 0 8 6l93 524
q2 6 -5 6h-51q-10 0 -8 10l9 52q2 10 11 10z" />
    <glyph glyph-name="imacron" unicode="&#x12b;" horiz-adv-x="280" 
d="M94 666h244q10 0 8 -10l-7 -41q-2 -10 -11 -10h-244q-10 0 -8 10l7 41q2 10 11 10zM99 479h123q10 0 8 -10l-70 -391q-2 -6 4 -6h48q10 0 8 -10l-9 -52q-2 -10 -11 -10h-186q-10 0 -8 10l9 52q2 10 12 10h46q7 0 8 6l57 322q1 7 -5 7h-46q-10 0 -8 10l9 52q2 10 11 10z
" />
    <glyph glyph-name="Ibreve" unicode="&#x12c;" horiz-adv-x="290" 
d="M356 883h32q10 0 7 -10q-15 -50 -54.5 -80.5t-93.5 -30.5q-51 0 -80 27.5t-29 72.5v11q1 10 10 10h31q10 0 11 -10q5 -54 66 -54t87 54q4 10 13 10zM128 680h198q10 0 8 -10l-9 -52q-2 -10 -11 -10h-51q-7 0 -8 -6l-93 -524q-2 -6 5 -6h51q10 0 8 -10l-9 -52
q-2 -10 -12 -10h-197q-10 0 -8 10l9 52q2 10 11 10h51q7 0 8 6l93 524q2 6 -5 6h-51q-10 0 -8 10l9 52q2 10 11 10z" />
    <glyph glyph-name="ibreve" unicode="&#x12d;" horiz-adv-x="280" 
d="M305 684h32q10 0 7 -10q-15 -50 -54.5 -80.5t-93.5 -30.5q-51 0 -80 27.5t-29 72.5v11q1 10 10 10h31q10 0 11 -10q5 -54 66 -54t87 54q4 10 13 10zM99 479h123q10 0 8 -10l-70 -391q-2 -6 4 -6h48q10 0 8 -10l-9 -52q-2 -10 -11 -10h-186q-10 0 -8 10l9 52q2 10 12 10
h46q7 0 8 6l57 322q1 7 -5 7h-46q-10 0 -8 10l9 52q2 10 11 10z" />
    <glyph glyph-name="Iogonek" unicode="&#x12e;" horiz-adv-x="290" 
d="M128 680h198q10 0 8 -10l-9 -52q-2 -10 -11 -10h-51q-7 0 -8 -6l-93 -524q-2 -6 5 -6h51q10 0 8 -10l-9 -52q-2 -10 -12 -10h-59q-83 -59 -83 -97q0 -21 22 -21q13 0 28 8q8 5 11 -3l11 -34q3 -7 -6 -13q-30 -20 -66 -20q-30 0 -49 16.5t-19 46.5q0 59 73 117h-60
q-10 0 -8 10l9 52q2 10 11 10h51q7 0 8 6l93 524q2 6 -5 6h-51q-10 0 -8 10l9 52q2 10 11 10z" />
    <glyph glyph-name="uni012F" unicode="&#x12f;" horiz-adv-x="280" 
d="M194 680h66q10 0 8 -10l-12 -69q-2 -10 -11 -10h-66q-10 0 -8 10l12 69q2 10 11 10zM99 479h123q10 0 8 -10l-70 -391q-2 -6 4 -6h48q10 0 8 -10l-9 -52q-2 -10 -11 -10h-53q-83 -59 -83 -97q0 -21 22 -21q13 0 28 8q8 5 11 -3l11 -34q3 -7 -6 -13q-30 -20 -66 -20
q-30 0 -49 16.5t-19 46.5q0 59 73 117h-55q-10 0 -8 10l9 52q2 10 12 10h46q7 0 8 6l57 322q1 7 -5 7h-46q-10 0 -8 10l9 52q2 10 11 10z" />
    <glyph glyph-name="Idotaccent" unicode="&#x130;" horiz-adv-x="290" 
d="M227 868h66q10 0 8 -10l-12 -70q-2 -10 -11 -10h-66q-10 0 -8 10l12 70q2 10 11 10zM128 680h198q10 0 8 -10l-9 -52q-2 -10 -11 -10h-51q-7 0 -8 -6l-93 -524q-2 -6 5 -6h51q10 0 8 -10l-9 -52q-2 -10 -12 -10h-197q-10 0 -8 10l9 52q2 10 11 10h51q7 0 8 6l93 524
q2 6 -5 6h-51q-10 0 -8 10l9 52q2 10 11 10z" />
    <glyph glyph-name="dotlessi" unicode="&#x131;" horiz-adv-x="280" 
d="M99 479h123q10 0 8 -10l-70 -391q-2 -6 4 -6h48q10 0 8 -10l-9 -52q-2 -10 -11 -10h-186q-10 0 -8 10l9 52q2 10 12 10h46q7 0 8 6l57 322q1 7 -5 7h-46q-10 0 -8 10l9 52q2 10 11 10z" />
    <glyph glyph-name="IJ" unicode="&#x132;" horiz-adv-x="765" 
d="M128 680h198q10 0 8 -10l-9 -52q-2 -10 -11 -10h-51q-7 0 -8 -6l-93 -524q-2 -6 5 -6h51q10 0 8 -10l-9 -52q-2 -10 -12 -10h-197q-10 0 -8 10l9 52q2 10 11 10h51q7 0 8 6l93 524q2 6 -5 6h-51q-10 0 -8 10l9 52q2 10 11 10zM626 680h197q10 0 8 -10l-9 -52
q-2 -10 -11 -10h-50q-7 0 -8 -7l-69 -386q-22 -123 -79.5 -174.5t-155.5 -51.5q-44 0 -85.5 12.5t-62.5 28.5q-7 6 -6 15l20 113q2 10 10 10h63q10 0 8 -10l-11 -64q-2 -8 4 -11q25 -14 67 -14q120 0 146 147l68 385q1 7 -5 7h-51q-10 0 -8 10l9 52q2 10 11 10z" />
    <glyph glyph-name="ij" unicode="&#x133;" horiz-adv-x="548" 
d="M194 680h66q10 0 8 -10l-12 -69q-2 -10 -11 -10h-66q-10 0 -8 10l12 69q2 10 11 10zM469 680h66q9 0 7 -10l-12 -70q-2 -10 -11 -10h-66q-10 0 -8 10l13 70q2 10 11 10zM99 479h123q10 0 8 -10l-70 -391q-2 -6 4 -6h48q10 0 8 -10l-9 -52q-2 -10 -11 -10h-186
q-10 0 -8 10l9 52q2 10 12 10h46q7 0 8 6l57 322q1 7 -5 7h-46q-10 0 -8 10l9 52q2 10 11 10zM374 479h123q10 0 8 -10l-90 -508q-15 -83 -49 -112t-111 -29h-19q-9 0 -8 10l9 52q2 10 11 10h15q33 0 49 14.5t23 53.5l78 440q1 7 -5 7h-47q-10 0 -8 10l9 52q2 10 12 10z" />
    <glyph glyph-name="Jcircumflex" unicode="&#x134;" horiz-adv-x="475" 
d="M453 897h39q9 0 14 -9l69 -124q2 -4 0.5 -7t-5.5 -3h-38q-10 0 -17 10l-48 75h-1l-77 -75q-9 -10 -20 -10h-43q-5 0 -6 3t3 7l112 124q8 9 18 9zM336 680h197q10 0 8 -10l-9 -52q-2 -10 -11 -10h-50q-7 0 -8 -7l-69 -386q-22 -123 -79.5 -174.5t-155.5 -51.5
q-44 0 -85.5 12.5t-62.5 28.5q-7 6 -6 15l20 113q2 10 10 10h63q10 0 8 -10l-11 -64q-2 -8 4 -11q25 -14 67 -14q120 0 146 147l68 385q1 7 -5 7h-51q-10 0 -8 10l9 52q2 10 11 10z" />
    <glyph glyph-name="jcircumflex" unicode="&#x135;" horiz-adv-x="268" 
d="M191 700h39q10 0 14 -9l69 -124q6 -10 -5 -10h-38q-10 0 -16 10l-49 75h-1l-76 -75q-9 -10 -20 -10h-44q-4 0 -5 3t2 7l112 124q8 9 18 9zM94 479h123q10 0 8 -10l-90 -508q-15 -83 -49 -112t-111 -29h-19q-9 0 -8 10l9 52q2 10 11 10h15q33 0 49 14.5t23 53.5l78 440
q1 7 -5 7h-47q-10 0 -8 10l9 52q2 10 12 10z" />
    <glyph glyph-name="Kcommaaccent" unicode="&#x136;" horiz-adv-x="620" 
d="M453 680h198q10 0 8 -10l-9 -52q-2 -10 -11 -10h-45q-8 0 -14 -6l-192 -194l121 -331q2 -5 6 -5h57q10 0 8 -10l-9 -52q-2 -10 -12 -10h-102q-9 0 -13 10l-120 334l-140 -141l-22 -125q-2 -6 5 -6h51q10 0 8 -10l-9 -52q-2 -10 -12 -10h-197q-10 0 -8 10l9 52q2 10 11 10
h51q7 0 8 6l93 523q1 7 -5 7h-51q-10 0 -8 10l9 52q2 10 11 10h198q10 0 8 -10l-9 -52q-2 -10 -11 -10h-51q-7 0 -8 -6l-48 -269l270 268q2 2 1.5 4.5t-4.5 2.5h-33q-10 0 -8 10l9 52q2 10 11 10zM258 -55h57q10 0 8 -10l-10 -57q-3 -14 -9 -20l-60 -62q-7 -7 -14 -7
q-9 0 -7 10l23 136q2 10 12 10z" />
    <glyph glyph-name="kcommaaccent" unicode="&#x137;" horiz-adv-x="527" 
d="M134 680h123q10 0 8 -10l-73 -410l213 209q10 10 20 10h80q10 0 8 -10l-9 -52q-1 -10 -11 -10h-45q-6 0 -11 -5l-107 -103l88 -221q2 -6 8 -6h49q10 0 8 -10l-9 -52q-2 -10 -11 -10h-86q-10 0 -14 10l-91 233l-100 -96l-12 -68q-1 -7 5 -7h47q10 0 8 -10l-9 -52
q-2 -10 -11 -10h-186q-10 0 -8 10l9 52q2 10 12 10h46q7 0 8 7l93 522q1 7 -5 7h-47q-10 0 -8 10l9 52q2 10 11 10zM221 -55h57q10 0 8 -10l-10 -57q-3 -14 -9 -20l-60 -62q-7 -7 -14 -7q-9 0 -7 10l23 136q2 10 12 10z" />
    <glyph glyph-name="kgreenlandic" unicode="&#x138;" horiz-adv-x="527" 
d="M425 479h80q10 0 8 -10l-9 -52q-1 -10 -11 -10h-45q-6 0 -11 -5l-107 -103l88 -221q2 -6 8 -6h49q10 0 8 -10l-9 -52q-2 -10 -11 -10h-86q-10 0 -14 10l-91 233l-100 -96l-12 -68q-1 -7 5 -7h47q10 0 8 -10l-9 -52q-2 -10 -11 -10h-186q-10 0 -8 10l9 52q2 10 12 10h46
q7 0 8 7l58 321q1 7 -5 7h-47q-10 0 -8 10l9 52q2 10 11 10h123q10 0 8 -10l-38 -209l213 209q10 10 20 10z" />
    <glyph glyph-name="Lacute" unicode="&#x139;" horiz-adv-x="531" 
d="M333 888h66q5 0 6 -3t-3 -7l-118 -107q-9 -8 -19 -8h-45q-4 0 -5.5 3t1.5 7l97 105q10 10 20 10zM128 680h198q10 0 8 -10l-9 -52q-2 -10 -12 -10h-50q-7 0 -8 -6l-92 -519q-1 -6 5 -6h231q7 0 8 6l12 63q2 10 11 10h58q10 0 8 -10l-24 -136q-2 -10 -11 -10h-453
q-10 0 -8 10l9 52q2 10 12 10h50q7 0 8 6l93 524q2 6 -5 6h-51q-10 0 -8 10l9 52q2 10 11 10z" />
    <glyph glyph-name="lacute" unicode="&#x13a;" horiz-adv-x="264" 
d="M311 888h66q5 0 6 -3t-3 -7l-118 -107q-9 -8 -19 -8h-45q-4 0 -5.5 3t1.5 7l97 105q10 10 20 10zM114 680h123q10 0 8 -10l-101 -547q-2 -14 -2 -19q0 -32 39 -32h17q10 0 8 -10l-8 -54q-2 -10 -12 -10h-32q-48 0 -70.5 20.5t-22.5 62.5q0 21 4 41l88 479q1 7 -5 7h-46
q-10 0 -8 10l9 52q2 10 11 10z" />
    <glyph glyph-name="Lcommaaccent" unicode="&#x13b;" horiz-adv-x="531" 
d="M128 680h198q10 0 8 -10l-9 -52q-2 -10 -12 -10h-50q-7 0 -8 -6l-92 -519q-1 -6 5 -6h231q7 0 8 6l12 63q2 10 11 10h58q10 0 8 -10l-24 -136q-2 -10 -11 -10h-453q-10 0 -8 10l9 52q2 10 12 10h50q7 0 8 6l93 524q2 6 -5 6h-51q-10 0 -8 10l9 52q2 10 11 10zM227 -55h57
q10 0 8 -10l-10 -57q-3 -14 -9 -20l-60 -62q-7 -7 -14 -7q-9 0 -7 10l23 136q2 10 12 10z" />
    <glyph glyph-name="lcommaaccent" unicode="&#x13c;" horiz-adv-x="264" 
d="M114 680h123q10 0 8 -10l-101 -547q-2 -14 -2 -19q0 -32 39 -32h17q10 0 8 -10l-8 -54q-2 -10 -12 -10h-32q-48 0 -70.5 20.5t-22.5 62.5q0 21 4 41l88 479q1 7 -5 7h-46q-10 0 -8 10l9 52q2 10 11 10zM78 -55h57q10 0 8 -10l-10 -57q-3 -14 -9 -20l-60 -62q-7 -7 -14 -7
q-9 0 -7 10l23 136q2 10 12 10z" />
    <glyph glyph-name="Lcaron" unicode="&#x13d;" horiz-adv-x="531" 
d="M128 680h198q10 0 8 -10l-9 -52q-2 -10 -12 -10h-50q-7 0 -8 -6l-92 -519q-1 -6 5 -6h231q7 0 8 6l12 63q2 10 11 10h58q10 0 8 -10l-24 -136q-2 -10 -11 -10h-453q-10 0 -8 10l9 52q2 10 12 10h50q7 0 8 6l93 524q2 6 -5 6h-51q-10 0 -8 10l9 52q2 10 11 10zM387 680h57
q10 0 8 -10l-10 -60q-3 -13 -9 -20l-60 -62q-7 -7 -13 -7q-10 0 -8 10l24 139q2 10 11 10z" />
    <glyph glyph-name="lcaron" unicode="&#x13e;" horiz-adv-x="264" 
d="M114 680h123q10 0 8 -10l-101 -547q-2 -14 -2 -19q0 -32 39 -32h17q10 0 8 -10l-8 -54q-2 -10 -12 -10h-32q-48 0 -70.5 20.5t-22.5 62.5q0 21 4 41l88 479q1 7 -5 7h-46q-10 0 -8 10l9 52q2 10 11 10zM306 680h57q10 0 8 -10l-10 -60q-3 -13 -9 -20l-60 -62
q-7 -7 -13 -7q-10 0 -8 10l24 139q2 10 11 10z" />
    <glyph glyph-name="Ldot" unicode="&#x13f;" horiz-adv-x="531" 
d="M128 680h198q10 0 8 -10l-9 -52q-2 -10 -12 -10h-50q-7 0 -8 -6l-92 -519q-1 -6 5 -6h231q7 0 8 6l12 63q2 10 11 10h58q10 0 8 -10l-24 -136q-2 -10 -11 -10h-453q-10 0 -8 10l9 52q2 10 12 10h50q7 0 8 6l93 524q2 6 -5 6h-51q-10 0 -8 10l9 52q2 10 11 10zM399 376h70
q11 0 9 -10l-14 -82q-2 -10 -11 -10h-70q-11 0 -9 10l14 82q2 10 11 10z" />
    <glyph glyph-name="ldot" unicode="&#x140;" horiz-adv-x="264" 
d="M114 680h123q10 0 8 -10l-101 -547q-2 -14 -2 -19q0 -32 39 -32h17q10 0 8 -10l-8 -54q-2 -10 -12 -10h-32q-48 0 -70.5 20.5t-22.5 62.5q0 21 4 41l88 479q1 7 -5 7h-46q-10 0 -8 10l9 52q2 10 11 10zM272 385h70q11 0 9 -10l-14 -82q-2 -10 -11 -10h-70q-11 0 -9 10
l14 82q2 10 11 10z" />
    <glyph glyph-name="Lslash" unicode="&#x141;" horiz-adv-x="531" 
d="M128 680h198q10 0 8 -10l-9 -52q-2 -10 -12 -10h-50q-7 0 -8 -6l-37 -205l151 73q4 2 7 0.5t2 -6.5l-9 -55q-1 -8 -12 -14l-152 -74l-42 -238q-1 -6 5 -6h231q7 0 8 6l12 63q2 10 11 10h58q10 0 8 -10l-24 -136q-2 -10 -11 -10h-453q-10 0 -8 10l9 52q2 10 12 10h50
q7 0 8 6l35 198l-56 -27q-4 -2 -7 0t-2 6l9 53q2 11 11 16l58 28l45 250q2 6 -5 6h-51q-10 0 -8 10l9 52q2 10 11 10z" />
    <glyph glyph-name="lslash" unicode="&#x142;" horiz-adv-x="264" 
d="M114 680h123q10 0 8 -10l-47 -254l63 31q5 2 8 0.5t2 -6.5l-8 -50q-2 -10 -12 -15l-66 -32l-41 -221q-2 -14 -2 -19q0 -32 39 -32h17q10 0 8 -10l-8 -54q-2 -10 -12 -10h-32q-48 0 -70.5 20.5t-22.5 62.5q0 21 4 41l33 180l-35 -17q-5 -2 -8 -0.5t-2 6.5l8 50q1 10 13 15
l37 18l42 227q1 7 -5 7h-46q-10 0 -8 10l9 52q2 10 11 10z" />
    <glyph glyph-name="Nacute" unicode="&#x143;" horiz-adv-x="667" 
d="M495 888h66q5 0 6 -3t-3 -7l-118 -107q-9 -8 -19 -8h-45q-4 0 -5.5 3t1.5 7l97 105q10 10 20 10zM512 680h191q10 0 8 -10l-9 -52q-2 -10 -11 -10h-51q-6 0 -7 -6l-105 -592q-2 -10 -11 -10h-60q-10 0 -14 10l-203 519h-4l-80 -449q-2 -8 5 -8h51q10 0 8 -10l-9 -52
q-2 -10 -12 -10h-191q-10 0 -8 10l9 52q2 10 12 10h50q7 0 8 6l93 524q2 6 -5 6h-51q-10 0 -8 10l9 52q2 10 11 10h126q10 0 14 -10l204 -521h3l80 453q1 6 -4 6h-52q-10 0 -8 10l9 52q2 10 12 10z" />
    <glyph glyph-name="nacute" unicode="&#x144;" horiz-adv-x="564" 
d="M405 700h62q5 0 6 -3.5t-3 -7.5l-109 -122q-9 -10 -20 -10h-42q-12 0 -5 10l92 123q7 10 19 10zM362 490q64 0 98 -35.5t34 -98.5q0 -26 -6 -58l-40 -220q-2 -6 5 -6h46q10 0 8 -10l-9 -52q-2 -10 -12 -10h-183q-10 0 -8 10l9 52q2 10 11 10h47q6 0 7 6l36 201q6 30 6 51
q0 88 -84 88q-46 0 -82 -34t-46 -87l-39 -219q-2 -6 4 -6h48q10 0 8 -10l-9 -52q-2 -10 -11 -10h-186q-10 0 -8 10l9 52q2 10 12 10h46q7 0 8 6l57 322q1 7 -5 7h-46q-10 0 -8 10l9 52q2 10 11 10h122q10 0 8 -10l-8 -44h1q51 65 140 65z" />
    <glyph glyph-name="Ncommaaccent" unicode="&#x145;" horiz-adv-x="667" 
d="M512 680h191q10 0 8 -10l-9 -52q-2 -10 -11 -10h-51q-6 0 -7 -6l-105 -592q-2 -10 -11 -10h-60q-10 0 -14 10l-203 519h-4l-80 -449q-2 -8 5 -8h51q10 0 8 -10l-9 -52q-2 -10 -12 -10h-191q-10 0 -8 10l9 52q2 10 12 10h50q7 0 8 6l93 524q2 6 -5 6h-51q-10 0 -8 10l9 52
q2 10 11 10h126q10 0 14 -10l204 -521h3l80 453q1 6 -4 6h-52q-10 0 -8 10l9 52q2 10 12 10zM273 -55h57q10 0 8 -10l-10 -57q-3 -14 -9 -20l-60 -62q-7 -7 -14 -7q-9 0 -7 10l23 136q2 10 12 10z" />
    <glyph glyph-name="ncommaaccent" unicode="&#x146;" horiz-adv-x="564" 
d="M362 490q64 0 98 -35.5t34 -98.5q0 -26 -6 -58l-40 -220q-2 -6 5 -6h46q10 0 8 -10l-9 -52q-2 -10 -12 -10h-183q-10 0 -8 10l9 52q2 10 11 10h47q6 0 7 6l36 201q6 30 6 51q0 88 -84 88q-46 0 -82 -34t-46 -87l-39 -219q-2 -6 4 -6h48q10 0 8 -10l-9 -52q-2 -10 -11 -10
h-186q-10 0 -8 10l9 52q2 10 12 10h46q7 0 8 6l57 322q1 7 -5 7h-46q-10 0 -8 10l9 52q2 10 11 10h122q10 0 8 -10l-8 -44h1q51 65 140 65zM222 -55h57q10 0 8 -10l-10 -57q-3 -14 -9 -20l-60 -62q-7 -7 -14 -7q-9 0 -7 10l23 136q2 10 12 10z" />
    <glyph glyph-name="Ncaron" unicode="&#x147;" horiz-adv-x="667" 
d="M529 896h43q5 0 6 -3t-3 -7l-112 -124q-8 -9 -18 -9h-39q-9 0 -14 9l-69 124q-2 4 -0.5 7t5.5 3h38q10 0 17 -10l48 -75h1l76 75q10 10 21 10zM512 680h191q10 0 8 -10l-9 -52q-2 -10 -11 -10h-51q-6 0 -7 -6l-105 -592q-2 -10 -11 -10h-60q-10 0 -14 10l-203 519h-4
l-80 -449q-2 -8 5 -8h51q10 0 8 -10l-9 -52q-2 -10 -12 -10h-191q-10 0 -8 10l9 52q2 10 12 10h50q7 0 8 6l93 524q2 6 -5 6h-51q-10 0 -8 10l9 52q2 10 11 10h126q10 0 14 -10l204 -521h3l80 453q1 6 -4 6h-52q-10 0 -8 10l9 52q2 10 12 10z" />
    <glyph glyph-name="ncaron" unicode="&#x148;" horiz-adv-x="564" 
d="M438 699h44q4 0 5 -3t-2 -7l-112 -124q-8 -9 -19 -9h-38q-10 0 -14 9l-69 124q-6 10 5 10h38q10 0 16 -9l49 -76h1l76 76q9 9 20 9zM362 490q64 0 98 -35.5t34 -98.5q0 -26 -6 -58l-40 -220q-2 -6 5 -6h46q10 0 8 -10l-9 -52q-2 -10 -12 -10h-183q-10 0 -8 10l9 52
q2 10 11 10h47q6 0 7 6l36 201q6 30 6 51q0 88 -84 88q-46 0 -82 -34t-46 -87l-39 -219q-2 -6 4 -6h48q10 0 8 -10l-9 -52q-2 -10 -11 -10h-186q-10 0 -8 10l9 52q2 10 12 10h46q7 0 8 6l57 322q1 7 -5 7h-46q-10 0 -8 10l9 52q2 10 11 10h122q10 0 8 -10l-8 -44h1
q51 65 140 65z" />
    <glyph glyph-name="uni0149" unicode="&#x149;" horiz-adv-x="564" 
d="M106 680h57q10 0 8 -10l-10 -60q-3 -13 -9 -20l-60 -62q-7 -7 -13 -7q-10 0 -8 10l24 139q2 10 11 10zM362 490q64 0 98 -35.5t34 -98.5q0 -26 -6 -58l-40 -220q-2 -6 5 -6h46q10 0 8 -10l-9 -52q-2 -10 -12 -10h-183q-10 0 -8 10l9 52q2 10 11 10h47q6 0 7 6l36 201
q6 30 6 51q0 88 -84 88q-46 0 -82 -34t-46 -87l-39 -219q-2 -6 4 -6h48q10 0 8 -10l-9 -52q-2 -10 -11 -10h-186q-10 0 -8 10l9 52q2 10 12 10h46q7 0 8 6l57 322q1 7 -5 7h-46q-10 0 -8 10l9 52q2 10 11 10h122q10 0 8 -10l-8 -44h1q51 65 140 65z" />
    <glyph glyph-name="Eng" unicode="&#x14a;" horiz-adv-x="667" 
d="M512 680h191q10 0 8 -10l-9 -52q-2 -10 -11 -10h-51q-6 0 -7 -6l-110 -616q-16 -86 -61.5 -126t-124.5 -40h-20q-10 0 -7 10l10 58q2 10 11 10h16q81 0 96 82l4 20l-207 529h-4l-80 -451q-2 -6 4 -6h52q10 0 8 -10l-9 -52q-2 -10 -12 -10h-191q-10 0 -8 10l9 52
q2 10 12 10h50q7 0 8 6l93 524q2 6 -5 6h-51q-10 0 -8 10l9 52q2 10 11 10h126q10 0 14 -10l204 -520h3l80 452q1 6 -4 6h-52q-10 0 -8 10l9 52q2 10 12 10z" />
    <glyph glyph-name="eng" unicode="&#x14b;" horiz-adv-x="547" 
d="M362 490q64 0 98 -35.5t34 -98.5q0 -24 -6 -58l-60 -337q-13 -76 -51 -108.5t-109 -32.5h-18q-10 0 -8 10l8 52q2 10 12 10h14q34 0 50 14.5t23 52.5l58 324q5 27 5 47q0 88 -85 88q-46 0 -82 -34t-46 -87l-39 -219q-2 -6 4 -6h48q10 0 8 -10l-9 -52q-2 -10 -11 -10h-186
q-10 0 -8 10l9 52q2 10 12 10h46q7 0 8 6l57 322q1 7 -5 7h-46q-10 0 -8 10l9 52q2 10 11 10h122q10 0 8 -10l-8 -44h1q51 65 140 65z" />
    <glyph glyph-name="Omacron" unicode="&#x14c;" horiz-adv-x="593" 
d="M284 853h245q10 0 8 -10l-7 -41q-2 -10 -11 -10h-244q-10 0 -8 10l6 41q1 10 11 10zM379 691q91 0 144 -52t53 -147q0 -56 -23 -178t-49 -173q-74 -152 -247 -152q-91 0 -144 52t-53 147q0 56 23 178t48 173q75 152 248 152zM366 613q-107 0 -158 -104
q-22 -45 -42.5 -154t-20.5 -159q0 -61 32.5 -95t92.5 -34q107 0 158 104q22 45 42.5 154t20.5 159q0 61 -32.5 95t-92.5 34z" />
    <glyph glyph-name="omacron" unicode="&#x14d;" horiz-adv-x="492" 
d="M201 666h244q10 0 8 -10l-7 -41q-2 -10 -11 -10h-244q-10 0 -8 10l7 41q2 10 11 10zM294 490q77 0 119.5 -43.5t42.5 -120.5q0 -49 -13.5 -113t-32.5 -102q-59 -122 -202 -122q-78 0 -120.5 43.5t-42.5 121.5q0 48 13.5 112.5t32.5 101.5q60 122 203 122zM282 418
q-78 0 -118 -79q-14 -27 -26 -82.5t-12 -89.5q0 -105 93 -105q81 0 119 78q14 28 25.5 83t11.5 90q0 105 -93 105z" />
    <glyph glyph-name="Obreve" unicode="&#x14e;" horiz-adv-x="593" 
d="M501 883h32q10 0 7 -10q-15 -50 -54.5 -80.5t-93.5 -30.5q-51 0 -80 27.5t-29 72.5v11q1 10 10 10h31q10 0 11 -10q5 -54 66 -54t87 54q4 10 13 10zM379 691q91 0 144 -52t53 -147q0 -56 -23 -178t-49 -173q-74 -152 -247 -152q-91 0 -144 52t-53 147q0 56 23 178t48 173
q75 152 248 152zM366 613q-107 0 -158 -104q-22 -45 -42.5 -154t-20.5 -159q0 -61 32.5 -95t92.5 -34q107 0 158 104q22 45 42.5 154t20.5 159q0 61 -32.5 95t-92.5 34z" />
    <glyph glyph-name="obreve" unicode="&#x14f;" horiz-adv-x="492" 
d="M421 684h32q10 0 7 -10q-15 -50 -54.5 -80.5t-93.5 -30.5q-51 0 -80 27.5t-29 72.5v11q1 10 10 10h31q10 0 11 -10q5 -54 66 -54t87 54q4 10 13 10zM294 490q77 0 119.5 -43.5t42.5 -120.5q0 -49 -13.5 -113t-32.5 -102q-59 -122 -202 -122q-78 0 -120.5 43.5
t-42.5 121.5q0 48 13.5 112.5t32.5 101.5q60 122 203 122zM282 418q-78 0 -118 -79q-14 -27 -26 -82.5t-12 -89.5q0 -105 93 -105q81 0 119 78q14 28 25.5 83t11.5 90q0 105 -93 105z" />
    <glyph glyph-name="Ohungarumlaut" unicode="&#x150;" horiz-adv-x="593" 
d="M404 889h50q4 0 5.5 -3t-1.5 -7l-92 -106q-9 -9 -19 -9h-40q-4 0 -5.5 3t1.5 7l83 105q8 10 18 10zM538 889h51q5 0 6 -3t-2 -7l-93 -106q-8 -9 -18 -9h-40q-12 0 -5 10l83 105q7 10 18 10zM379 691q91 0 144 -52t53 -147q0 -56 -23 -178t-49 -173q-74 -152 -247 -152
q-91 0 -144 52t-53 147q0 56 23 178t48 173q75 152 248 152zM366 613q-107 0 -158 -104q-22 -45 -42.5 -154t-20.5 -159q0 -61 32.5 -95t92.5 -34q107 0 158 104q22 45 42.5 154t20.5 159q0 61 -32.5 95t-92.5 34z" />
    <glyph glyph-name="ohungarumlaut" unicode="&#x151;" horiz-adv-x="492" 
d="M313 700h51q4 0 5.5 -3t-1.5 -7l-96 -124q-8 -9 -17 -9h-40q-12 0 -5 10l86 123q7 10 17 10zM448 700h51q5 0 6 -3t-2 -7l-96 -124q-7 -9 -17 -9h-40q-12 0 -5 10l85 123q8 10 18 10zM294 490q77 0 119.5 -43.5t42.5 -120.5q0 -49 -13.5 -113t-32.5 -102
q-59 -122 -202 -122q-78 0 -120.5 43.5t-42.5 121.5q0 48 13.5 112.5t32.5 101.5q60 122 203 122zM282 418q-78 0 -118 -79q-14 -27 -26 -82.5t-12 -89.5q0 -105 93 -105q81 0 119 78q14 28 25.5 83t11.5 90q0 105 -93 105z" />
    <glyph glyph-name="OE" unicode="&#x152;" horiz-adv-x="909" 
d="M379 691q108 0 141 -76h1l10 55q2 10 11 10h385q11 0 9 -10l-23 -132q-2 -10 -10 -10h-59q-11 0 -9 10l10 59q1 6 -4 6h-233q-6 0 -7 -6l-36 -208q-1 -6 5 -6h167q5 0 7 6l8 42q2 10 11 10h58q10 0 8 -10l-30 -173q-2 -10 -10 -10h-58q-11 0 -9 10l7 42q1 6 -4 6h-169
q-6 0 -7 -6l-39 -217q-2 -6 5 -6h232q7 0 8 6l11 64q2 10 11 10h59q10 0 8 -10l-24 -137q-2 -10 -12 -10h-385q-11 0 -9 10l10 53h-1q-60 -74 -167 -74q-90 0 -143 52t-53 148q0 54 23.5 177t47.5 173q75 152 248 152zM366 613q-107 0 -158 -104q-22 -45 -42.5 -154
t-20.5 -159q0 -60 32.5 -94.5t92.5 -34.5q107 0 158 104q22 45 42.5 154t20.5 159q0 60 -32.5 94.5t-92.5 34.5z" />
    <glyph glyph-name="oe" unicode="&#x153;" horiz-adv-x="798" 
d="M605 490q71 0 115 -42.5t44 -120.5q0 -41 -11 -101q-2 -10 -12 -10h-292q-7 0 -8 -6q-3 -16 -3 -41q0 -107 101 -107q74 0 131 57q8 8 14 1l31 -35q7 -7 -1 -15q-77 -81 -187 -81q-116 0 -146 88h-2q-62 -88 -171 -88q-78 0 -120.5 43.5t-42.5 121.5q0 48 13.5 112.5
t32.5 101.5q60 122 203 122q108 0 140 -86h2q59 86 169 86zM595 420q-84 0 -120 -76q-14 -27 -20 -59q-1 -6 5 -6h216q6 0 8 6q4 28 4 40q0 95 -93 95zM282 418q-78 0 -118 -79q-14 -27 -26 -82.5t-12 -89.5q0 -105 93 -105q81 0 119 78q14 28 25.5 83t11.5 90
q0 105 -93 105z" />
    <glyph glyph-name="Racute" unicode="&#x154;" horiz-adv-x="611" 
d="M455 888h66q5 0 6 -3t-3 -7l-118 -107q-9 -8 -19 -8h-45q-4 0 -5.5 3t1.5 7l97 105q10 10 20 10zM128 680h294q81 0 128 -41.5t47 -112.5q0 -82 -46 -141t-123 -79l66 -229q2 -5 6 -5h52q10 0 8 -10l-9 -52q-2 -10 -11 -10h-99q-9 0 -12 10l-79 286h-143q-5 0 -7 -6
l-38 -212q-2 -6 4 -6h52q10 0 8 -10l-9 -52q-2 -10 -12 -10h-197q-10 0 -8 10l9 52q2 10 12 10h50q7 0 8 6l93 524q2 6 -5 6h-51q-10 0 -8 10l9 52q2 10 11 10zM408 602h-147q-5 0 -7 -6l-39 -216q-1 -6 5 -6h147q67 1 107 38.5t40 101.5q0 42 -28 65t-78 23z" />
    <glyph glyph-name="racute" unicode="&#x155;" horiz-adv-x="402" 
d="M353 700h62q5 0 6 -3.5t-3 -7.5l-109 -122q-9 -10 -20 -10h-42q-12 0 -5 10l92 123q7 10 19 10zM357 487q29 0 46 -6q9 -3 8 -10l-10 -61q-1 -9 -12 -7q-31 7 -55 7q-55 0 -91.5 -37.5t-48.5 -103.5l-34 -191q-1 -6 4 -6h55q10 0 8 -10l-9 -52q-2 -10 -12 -10h-192
q-10 0 -8 10l9 52q2 10 12 10h46q7 0 8 6l57 322q1 7 -5 7h-46q-10 0 -8 10l9 52q2 10 11 10h123q10 0 8 -10l-11 -58h1q22 34 58 55t79 21z" />
    <glyph glyph-name="Rcommaaccent" unicode="&#x156;" horiz-adv-x="611" 
d="M128 680h294q81 0 128 -41.5t47 -112.5q0 -82 -46 -141t-123 -79l66 -229q2 -5 6 -5h52q10 0 8 -10l-9 -52q-2 -10 -11 -10h-99q-9 0 -12 10l-79 286h-143q-5 0 -7 -6l-38 -212q-2 -6 4 -6h52q10 0 8 -10l-9 -52q-2 -10 -12 -10h-197q-10 0 -8 10l9 52q2 10 12 10h50
q7 0 8 6l93 524q2 6 -5 6h-51q-10 0 -8 10l9 52q2 10 11 10zM408 602h-147q-5 0 -7 -6l-39 -216q-1 -6 5 -6h147q67 1 107 38.5t40 101.5q0 42 -28 65t-78 23zM246 -55h57q10 0 8 -10l-10 -57q-3 -14 -9 -20l-60 -62q-7 -7 -14 -7q-9 0 -7 10l23 136q2 10 12 10z" />
    <glyph glyph-name="rcommaaccent" unicode="&#x157;" horiz-adv-x="402" 
d="M357 487q29 0 46 -6q9 -3 8 -10l-10 -61q-1 -9 -12 -7q-31 7 -55 7q-55 0 -91.5 -37.5t-48.5 -103.5l-34 -191q-1 -6 4 -6h55q10 0 8 -10l-9 -52q-2 -10 -12 -10h-192q-10 0 -8 10l9 52q2 10 12 10h46q7 0 8 6l57 322q1 7 -5 7h-46q-10 0 -8 10l9 52q2 10 11 10h123
q10 0 8 -10l-11 -58h1q22 34 58 55t79 21zM68 -55h57q10 0 8 -10l-10 -57q-3 -14 -9 -20l-60 -62q-7 -7 -14 -7q-9 0 -7 10l23 136q2 10 12 10z" />
    <glyph glyph-name="Rcaron" unicode="&#x158;" horiz-adv-x="611" 
d="M482 896h43q5 0 6 -3t-3 -7l-112 -124q-8 -9 -18 -9h-39q-9 0 -14 9l-69 124q-2 4 -0.5 7t5.5 3h38q9 0 17 -10l48 -75h1l76 75q10 10 21 10zM128 680h294q81 0 128 -41.5t47 -112.5q0 -82 -46 -141t-123 -79l66 -229q2 -5 6 -5h52q10 0 8 -10l-9 -52q-2 -10 -11 -10h-99
q-9 0 -12 10l-79 286h-143q-5 0 -7 -6l-38 -212q-2 -6 4 -6h52q10 0 8 -10l-9 -52q-2 -10 -12 -10h-197q-10 0 -8 10l9 52q2 10 12 10h50q7 0 8 6l93 524q2 6 -5 6h-51q-10 0 -8 10l9 52q2 10 11 10zM408 602h-147q-5 0 -7 -6l-39 -216q-1 -6 5 -6h147q67 1 107 38.5
t40 101.5q0 42 -28 65t-78 23z" />
    <glyph glyph-name="rcaron" unicode="&#x159;" horiz-adv-x="402" 
d="M387 699h44q4 0 5 -3t-2 -7l-112 -124q-8 -9 -19 -9h-38q-9 0 -14 9l-69 124q-6 10 5 10h38q10 0 16 -9l49 -76h1l76 76q9 9 20 9zM357 487q29 0 46 -6q9 -3 8 -10l-10 -61q-1 -9 -12 -7q-31 7 -55 7q-55 0 -91.5 -37.5t-48.5 -103.5l-34 -191q-1 -6 4 -6h55q10 0 8 -10
l-9 -52q-2 -10 -12 -10h-192q-10 0 -8 10l9 52q2 10 12 10h46q7 0 8 6l57 322q1 7 -5 7h-46q-10 0 -8 10l9 52q2 10 11 10h123q10 0 8 -10l-11 -58h1q22 34 58 55t79 21z" />
    <glyph glyph-name="Sacute" unicode="&#x15a;" horiz-adv-x="568" 
d="M461 888h66q5 0 6 -3t-3 -7l-118 -107q-9 -8 -19 -8h-45q-4 0 -5.5 3t1.5 7l97 105q10 10 20 10zM356 691q113 0 190 -47q7 -4 6 -13l-19 -108q-2 -10 -10 -10h-59q-11 0 -9 10l11 59q1 5 -4 8q-48 23 -108 23q-67 0 -108 -37.5t-41 -93.5q0 -40 25 -62t91 -32l31 -4
q163 -24 163 -156q0 -111 -71.5 -175t-192.5 -64t-208 55q-8 5 -6 15l21 115q2 10 10 10h61q11 0 9 -10l-12 -68q-1 -6 4 -10q58 -29 131 -29q75 0 121 41t46 105q0 39 -25.5 61t-89.5 31l-31 5q-164 24 -164 161q0 100 66 160t172 60z" />
    <glyph glyph-name="sacute" unicode="&#x15b;" horiz-adv-x="468" 
d="M360 700h62q5 0 6 -3.5t-3 -7.5l-109 -122q-9 -10 -20 -10h-42q-12 0 -5 10l92 123q7 10 19 10zM273 490q96 0 154 -39q7 -5 6 -11l-16 -90q-2 -10 -10 -10h-56q-11 0 -9 10l9 49q1 5 -5 8q-31 14 -78 14q-48 0 -77.5 -22.5t-29.5 -57.5q0 -25 17.5 -38.5t59.5 -17.5
l48 -5q122 -13 122 -113q0 -83 -57.5 -130.5t-155.5 -47.5q-94 0 -162 43q-7 4 -6 14l17 98q2 10 11 10h56q11 0 9 -10l-9 -56q-1 -6 4 -9q36 -18 90 -18q56 0 89.5 24.5t33.5 64.5q0 27 -17.5 40.5t-57.5 17.5l-48 5q-60 6 -91.5 36t-31.5 78q0 75 53 119t138 44z" />
    <glyph glyph-name="Scircumflex" unicode="&#x15c;" horiz-adv-x="568" 
d="M383 897h39q9 0 14 -9l69 -124q2 -4 0.5 -7t-5.5 -3h-38q-9 0 -17 10l-48 75h-1l-77 -75q-9 -10 -20 -10h-43q-5 0 -6 3t3 7l112 124q8 9 18 9zM356 691q113 0 190 -47q7 -4 6 -13l-19 -108q-2 -10 -10 -10h-59q-11 0 -9 10l11 59q1 5 -4 8q-48 23 -108 23
q-67 0 -108 -37.5t-41 -93.5q0 -40 25 -62t91 -32l31 -4q163 -24 163 -156q0 -111 -71.5 -175t-192.5 -64t-208 55q-8 5 -6 15l21 115q2 10 10 10h61q11 0 9 -10l-12 -68q-1 -6 4 -10q58 -29 131 -29q75 0 121 41t46 105q0 39 -25.5 61t-89.5 31l-31 5q-164 24 -164 161
q0 100 66 160t172 60z" />
    <glyph glyph-name="scircumflex" unicode="&#x15d;" horiz-adv-x="468" 
d="M288 700h39q10 0 14 -9l69 -124q6 -10 -5 -10h-38q-10 0 -16 10l-49 75h-1l-76 -75q-9 -10 -20 -10h-44q-4 0 -5 3t2 7l112 124q8 9 18 9zM273 490q96 0 154 -39q7 -5 6 -11l-16 -90q-2 -10 -10 -10h-56q-11 0 -9 10l9 49q1 5 -5 8q-31 14 -78 14q-48 0 -77.5 -22.5
t-29.5 -57.5q0 -25 17.5 -38.5t59.5 -17.5l48 -5q122 -13 122 -113q0 -83 -57.5 -130.5t-155.5 -47.5q-94 0 -162 43q-7 4 -6 14l17 98q2 10 11 10h56q11 0 9 -10l-9 -56q-1 -6 4 -9q36 -18 90 -18q56 0 89.5 24.5t33.5 64.5q0 27 -17.5 40.5t-57.5 17.5l-48 5
q-60 6 -91.5 36t-31.5 78q0 75 53 119t138 44z" />
    <glyph glyph-name="Scedilla" unicode="&#x15e;" horiz-adv-x="568" 
d="M356 691q113 0 190 -47q7 -4 6 -13l-19 -108q-2 -10 -10 -10h-59q-11 0 -9 10l11 59q1 5 -4 8q-48 23 -108 23q-67 0 -108 -37.5t-41 -93.5q0 -40 25 -62t91 -32l31 -4q163 -24 163 -156q0 -102 -61.5 -165t-167.5 -72l-65 -132q-5 -10 -17 -10h-51q-10 0 -5 10l74 131
q-105 6 -179 54q-8 5 -6 15l21 115q2 10 10 10h61q11 0 9 -10l-12 -68q-1 -6 4 -10q58 -29 131 -29q75 0 121 41t46 105q0 39 -25.5 61t-89.5 31l-31 5q-164 24 -164 161q0 100 66 160t172 60z" />
    <glyph glyph-name="scedilla" unicode="&#x15f;" horiz-adv-x="468" 
d="M273 490q96 0 154 -39q7 -5 6 -11l-16 -90q-2 -10 -10 -10h-56q-11 0 -9 10l9 49q1 5 -5 8q-31 14 -78 14q-48 0 -77.5 -22.5t-29.5 -57.5q0 -25 17.5 -38.5t59.5 -17.5l48 -5q122 -13 122 -113q0 -73 -45 -119t-124 -56l-66 -133q-5 -10 -17 -10h-51q-10 0 -5 10l74 131
q-82 4 -141 42q-7 4 -6 14l17 98q2 10 11 10h56q11 0 9 -10l-9 -56q-1 -6 4 -9q36 -18 90 -18q56 0 89.5 24.5t33.5 64.5q0 27 -17.5 40.5t-57.5 17.5l-48 5q-60 6 -91.5 36t-31.5 78q0 75 53 119t138 44z" />
    <glyph glyph-name="Scaron" unicode="&#x160;" horiz-adv-x="568" 
d="M471 896h43q5 0 6 -3t-3 -7l-112 -124q-8 -9 -18 -9h-39q-9 0 -14 9l-69 124q-2 4 -0.5 7t5.5 3h38q10 0 17 -10l48 -75h1l76 75q10 10 21 10zM356 691q113 0 190 -47q7 -4 6 -13l-19 -108q-2 -10 -10 -10h-59q-11 0 -9 10l11 59q1 5 -4 8q-48 23 -108 23
q-67 0 -108 -37.5t-41 -93.5q0 -40 25 -62t91 -32l31 -4q163 -24 163 -156q0 -111 -71.5 -175t-192.5 -64t-208 55q-8 5 -6 15l21 115q2 10 10 10h61q11 0 9 -10l-12 -68q-1 -6 4 -10q58 -29 131 -29q75 0 121 41t46 105q0 39 -25.5 61t-89.5 31l-31 5q-164 24 -164 161
q0 100 66 160t172 60z" />
    <glyph glyph-name="scaron" unicode="&#x161;" horiz-adv-x="468" 
d="M394 699h44q4 0 5 -3t-2 -7l-112 -124q-8 -9 -19 -9h-38q-10 0 -14 9l-69 124q-6 10 5 10h38q10 0 16 -9l49 -76h1l76 76q9 9 20 9zM273 490q96 0 154 -39q7 -5 6 -11l-16 -90q-2 -10 -10 -10h-56q-11 0 -9 10l9 49q1 5 -5 8q-31 14 -78 14q-48 0 -77.5 -22.5
t-29.5 -57.5q0 -25 17.5 -38.5t59.5 -17.5l48 -5q122 -13 122 -113q0 -83 -57.5 -130.5t-155.5 -47.5q-94 0 -162 43q-7 4 -6 14l17 98q2 10 11 10h56q11 0 9 -10l-9 -56q-1 -6 4 -9q36 -18 90 -18q56 0 89.5 24.5t33.5 64.5q0 27 -17.5 40.5t-57.5 17.5l-48 5
q-60 6 -91.5 36t-31.5 78q0 75 53 119t138 44z" />
    <glyph glyph-name="uni0162" unicode="&#x162;" horiz-adv-x="558" 
d="M109 680h503q10 0 8 -10l-22 -130q-2 -10 -11 -10h-58q-11 0 -9 10l10 57q1 6 -5 6h-130q-5 0 -7 -6l-92 -519q-2 -6 4 -6h59q10 0 8 -10l-9 -52q-2 -10 -12 -10h-210q-10 0 -8 10l9 52q2 10 11 10h58q6 0 7 6l92 519q1 6 -4 6h-130q-5 0 -7 -6l-10 -57q-2 -10 -11 -10
h-59q-10 0 -8 10l22 130q2 10 11 10zM203 -55h57q10 0 8 -10l-10 -57q-3 -14 -9 -20l-60 -62q-7 -7 -14 -7q-9 0 -7 10l23 136q2 10 12 10z" />
    <glyph glyph-name="uni0163" unicode="&#x163;" horiz-adv-x="302" 
d="M175 630h60q10 0 8 -10l-24 -135q-1 -6 4 -6h75q10 0 8 -10l-9 -52q-1 -10 -11 -10h-74q-6 0 -7 -6l-51 -264q-3 -15 -3 -27q0 -21 12 -29.5t39 -8.5h20q10 0 8 -10l-9 -54q-2 -10 -12 -10h-35q-55 0 -80 21.5t-25 67.5q0 18 5 46l51 268q1 6 -5 6h-40q-10 0 -8 10l9 52
q2 10 11 10h41q5 0 7 6l24 135q2 10 11 10zM96 -55h57q10 0 8 -10l-10 -57q-3 -14 -9 -20l-60 -62q-7 -7 -14 -7q-9 0 -7 10l23 136q2 10 12 10z" />
    <glyph glyph-name="Tcaron" unicode="&#x164;" horiz-adv-x="558" 
d="M470 896h43q5 0 6 -3t-3 -7l-112 -124q-8 -9 -18 -9h-39q-9 0 -14 9l-69 124q-2 4 -0.5 7t5.5 3h38q9 0 17 -10l48 -75h1l76 75q10 10 21 10zM109 680h503q10 0 8 -10l-22 -130q-2 -10 -11 -10h-58q-11 0 -9 10l10 57q1 6 -5 6h-130q-5 0 -7 -6l-92 -519q-2 -6 4 -6h59
q10 0 8 -10l-9 -52q-2 -10 -12 -10h-210q-10 0 -8 10l9 52q2 10 11 10h58q6 0 7 6l92 519q1 6 -4 6h-130q-5 0 -7 -6l-10 -57q-2 -10 -11 -10h-59q-10 0 -8 10l22 130q2 10 11 10z" />
    <glyph glyph-name="tcaron" unicode="&#x165;" horiz-adv-x="302" 
d="M346 680h57q10 0 8 -10l-10 -60q-3 -13 -9 -20l-60 -62q-7 -7 -13 -7q-10 0 -8 10l24 139q2 10 11 10zM175 630h60q10 0 8 -10l-24 -135q-1 -6 4 -6h75q10 0 8 -10l-9 -52q-1 -10 -11 -10h-74q-6 0 -7 -6l-51 -264q-3 -15 -3 -27q0 -21 12 -29.5t39 -8.5h20q10 0 8 -10
l-9 -54q-2 -10 -12 -10h-35q-55 0 -80 21.5t-25 67.5q0 18 5 46l51 268q1 6 -5 6h-40q-10 0 -8 10l9 52q2 10 11 10h41q5 0 7 6l24 135q2 10 11 10z" />
    <glyph glyph-name="Tbar" unicode="&#x166;" horiz-adv-x="558" 
d="M109 680h503q10 0 8 -10l-22 -130q-2 -10 -11 -10h-58q-11 0 -9 10l10 57q1 6 -4 6h-132q-4 0 -6 -6l-32 -178q-2 -6 5 -6h99q9 0 7 -10l-9 -52q-1 -10 -11 -10h-98q-5 0 -7 -6l-46 -257q-2 -6 4 -6h59q10 0 8 -10l-9 -52q-2 -10 -12 -10h-210q-10 0 -8 10l9 52
q2 10 11 10h58q6 0 7 6l46 257q1 6 -5 6h-97q-10 0 -8 10l9 52q2 10 12 10h97q5 0 7 6l31 178q1 6 -4 6h-130q-5 0 -7 -6l-10 -57q-2 -10 -11 -10h-59q-10 0 -8 10l22 130q2 10 11 10z" />
    <glyph glyph-name="tbar" unicode="&#x167;" horiz-adv-x="302" 
d="M175 630h60q10 0 8 -10l-24 -135q-1 -6 4 -6h75q10 0 8 -10l-9 -52q-1 -10 -11 -10h-74q-6 0 -7 -6l-12 -63q-1 -6 4 -6h64q9 0 7 -10l-6 -41q-2 -10 -11 -10h-65q-6 0 -7 -6l-23 -117q-5 -25 -5 -38q0 -21 12 -29.5t39 -8.5h20q10 0 8 -10l-9 -54q-2 -10 -12 -10h-35
q-55 0 -80 21.5t-25 67.5q0 18 7 56l23 122q1 6 -5 6h-28q-10 0 -8 10l6 42q2 9 12 9h30q6 0 7 6l12 63q1 6 -5 6h-40q-10 0 -8 10l9 52q2 10 11 10h41q5 0 7 6l24 135q2 10 11 10z" />
    <glyph glyph-name="Utilde" unicode="&#x168;" horiz-adv-x="636" 
d="M383 872q28 0 58 -20q26 -18 47 -18q32 0 66 32q3 3 6 1.5t2 -4.5l-8 -46q-1 -8 -10 -17q-32 -30 -70 -30q-28 0 -58 20q-25 18 -47 18q-32 0 -66 -31q-3 -3 -6 -2t-2 5l8 45q3 11 10 18q32 29 70 29zM489 680h197q10 0 8 -10l-9 -52q-2 -10 -11 -10h-51q-5 0 -7 -6
l-66 -372q-23 -129 -86 -185t-172 -56q-95 0 -150 50.5t-55 141.5q0 21 9 75l61 346q1 6 -5 6h-51q-10 0 -8 10l9 52q2 10 11 10h198q10 0 8 -10l-9 -52q-2 -10 -11 -10h-52q-5 0 -7 -6l-65 -365q-4 -23 -4 -46q0 -60 33 -92t94 -32q71 0 112.5 38.5t58.5 131.5l64 365
q1 6 -4 6h-52q-10 0 -8 10l9 52q2 10 11 10z" />
    <glyph glyph-name="utilde" unicode="&#x169;" horiz-adv-x="539" 
d="M278 682q28 0 58 -21q29 -18 48 -18q30 0 65 32q3 3 6 2t2 -5l-7 -46q-3 -10 -11 -17q-31 -29 -69 -29q-30 0 -58 20q-26 18 -48 18q-31 0 -65 -32q-3 -3 -6 -1.5t-2 4.5l7 46q2 10 11 17q31 30 69 30zM352 479h122q11 0 9 -10l-69 -391q-2 -6 5 -6h47q10 0 8 -10l-9 -52
q-2 -10 -11 -10h-124q-10 0 -8 10l8 45h-1q-53 -66 -136 -66q-63 0 -97 36t-34 98q0 24 6 57l39 220q1 7 -5 7h-47q-10 0 -8 10l9 52q2 10 12 10h121q11 0 9 -10l-48 -267q-6 -30 -6 -54q0 -85 83 -85q46 0 81 33t45 87l38 217q1 7 -5 7h-46q-10 0 -8 10l9 52q2 10 11 10z
" />
    <glyph glyph-name="Umacron" unicode="&#x16a;" horiz-adv-x="636" 
d="M312 853h245q10 0 8 -10l-7 -41q-2 -10 -11 -10h-244q-10 0 -8 10l6 41q1 10 11 10zM489 680h197q10 0 8 -10l-9 -52q-2 -10 -11 -10h-51q-5 0 -7 -6l-66 -372q-23 -129 -86 -185t-172 -56q-95 0 -150 50.5t-55 141.5q0 21 9 75l61 346q1 6 -5 6h-51q-10 0 -8 10l9 52
q2 10 11 10h198q10 0 8 -10l-9 -52q-2 -10 -11 -10h-52q-5 0 -7 -6l-65 -365q-4 -23 -4 -46q0 -60 33 -92t94 -32q71 0 112.5 38.5t58.5 131.5l64 365q1 6 -4 6h-52q-10 0 -8 10l9 52q2 10 11 10z" />
    <glyph glyph-name="umacron" unicode="&#x16b;" horiz-adv-x="539" 
d="M204 666h244q10 0 8 -10l-7 -41q-2 -10 -11 -10h-244q-10 0 -8 10l7 41q2 10 11 10zM352 479h122q11 0 9 -10l-69 -391q-2 -6 5 -6h47q10 0 8 -10l-9 -52q-2 -10 -11 -10h-124q-10 0 -8 10l8 45h-1q-53 -66 -136 -66q-63 0 -97 36t-34 98q0 24 6 57l39 220q1 7 -5 7h-47
q-10 0 -8 10l9 52q2 10 12 10h121q11 0 9 -10l-48 -267q-6 -30 -6 -54q0 -85 83 -85q46 0 81 33t45 87l38 217q1 7 -5 7h-46q-10 0 -8 10l9 52q2 10 11 10z" />
    <glyph glyph-name="Ubreve" unicode="&#x16c;" horiz-adv-x="636" 
d="M529 883h32q10 0 7 -10q-15 -50 -54.5 -80.5t-93.5 -30.5q-51 0 -80 27.5t-29 72.5v11q1 10 10 10h31q10 0 11 -10q5 -54 66 -54t87 54q4 10 13 10zM489 680h197q10 0 8 -10l-9 -52q-2 -10 -11 -10h-51q-5 0 -7 -6l-66 -372q-23 -129 -86 -185t-172 -56q-95 0 -150 50.5
t-55 141.5q0 21 9 75l61 346q1 6 -5 6h-51q-10 0 -8 10l9 52q2 10 11 10h198q10 0 8 -10l-9 -52q-2 -10 -11 -10h-52q-5 0 -7 -6l-65 -365q-4 -23 -4 -46q0 -60 33 -92t94 -32q71 0 112.5 38.5t58.5 131.5l64 365q1 6 -4 6h-52q-10 0 -8 10l9 52q2 10 11 10z" />
    <glyph glyph-name="ubreve" unicode="&#x16d;" horiz-adv-x="539" 
d="M419 684h32q10 0 7 -10q-15 -50 -54.5 -80.5t-93.5 -30.5q-51 0 -80 27.5t-29 72.5v11q1 10 10 10h31q10 0 11 -10q5 -54 66 -54t87 54q4 10 13 10zM352 479h122q11 0 9 -10l-69 -391q-2 -6 5 -6h47q10 0 8 -10l-9 -52q-2 -10 -11 -10h-124q-10 0 -8 10l8 45h-1
q-53 -66 -136 -66q-63 0 -97 36t-34 98q0 24 6 57l39 220q1 7 -5 7h-47q-10 0 -8 10l9 52q2 10 12 10h121q11 0 9 -10l-48 -267q-6 -30 -6 -54q0 -85 83 -85q46 0 81 33t45 87l38 217q1 7 -5 7h-46q-10 0 -8 10l9 52q2 10 11 10z" />
    <glyph glyph-name="Uring" unicode="&#x16e;" horiz-adv-x="636" 
d="M446 916q34 0 55 -21.5t21 -54.5q0 -45 -30.5 -77.5t-77.5 -32.5q-34 0 -55 21t-21 54q0 46 30.5 78.5t77.5 32.5zM439 877q-25 0 -42.5 -18.5t-17.5 -46.5q0 -19 11.5 -31t30.5 -12q25 0 42.5 18.5t17.5 46.5q0 19 -11.5 31t-30.5 12zM489 680h197q10 0 8 -10l-9 -52
q-2 -10 -11 -10h-51q-5 0 -7 -6l-66 -372q-23 -129 -86 -185t-172 -56q-95 0 -150 50.5t-55 141.5q0 21 9 75l61 346q1 6 -5 6h-51q-10 0 -8 10l9 52q2 10 11 10h198q10 0 8 -10l-9 -52q-2 -10 -11 -10h-52q-5 0 -7 -6l-65 -365q-4 -23 -4 -46q0 -60 33 -92t94 -32
q71 0 112.5 38.5t58.5 131.5l64 365q1 6 -4 6h-52q-10 0 -8 10l9 52q2 10 11 10z" />
    <glyph glyph-name="uring" unicode="&#x16f;" horiz-adv-x="539" 
d="M342 722q34 0 55 -21t21 -55q0 -45 -30.5 -77.5t-77.5 -32.5q-34 0 -54.5 21t-20.5 55q0 45 30 77.5t77 32.5zM335 683q-25 0 -42.5 -18.5t-17.5 -46.5q0 -19 11.5 -31t30.5 -12q25 0 42.5 18.5t17.5 46.5q0 19 -11 31t-31 12zM352 479h122q11 0 9 -10l-69 -391
q-2 -6 5 -6h47q10 0 8 -10l-9 -52q-2 -10 -11 -10h-124q-10 0 -8 10l8 45h-1q-53 -66 -136 -66q-63 0 -97 36t-34 98q0 24 6 57l39 220q1 7 -5 7h-47q-10 0 -8 10l9 52q2 10 12 10h121q11 0 9 -10l-48 -267q-6 -30 -6 -54q0 -85 83 -85q46 0 81 33t45 87l38 217q1 7 -5 7
h-46q-10 0 -8 10l9 52q2 10 11 10z" />
    <glyph glyph-name="Uhungarumlaut" unicode="&#x170;" horiz-adv-x="636" 
d="M418 889h50q4 0 5.5 -3t-1.5 -7l-92 -106q-9 -9 -19 -9h-40q-4 0 -5.5 3t1.5 7l83 105q8 10 18 10zM552 889h51q5 0 6 -3t-2 -7l-93 -106q-7 -9 -18 -9h-40q-12 0 -5 10l83 105q7 10 18 10zM489 680h197q10 0 8 -10l-9 -52q-2 -10 -11 -10h-51q-5 0 -7 -6l-66 -372
q-23 -129 -86 -185t-172 -56q-95 0 -150 50.5t-55 141.5q0 21 9 75l61 346q1 6 -5 6h-51q-10 0 -8 10l9 52q2 10 11 10h198q10 0 8 -10l-9 -52q-2 -10 -11 -10h-52q-5 0 -7 -6l-65 -365q-4 -23 -4 -46q0 -60 33 -92t94 -32q71 0 112.5 38.5t58.5 131.5l64 365q1 6 -4 6h-52
q-10 0 -8 10l9 52q2 10 11 10z" />
    <glyph glyph-name="uhungarumlaut" unicode="&#x171;" horiz-adv-x="539" 
d="M317 700h51q4 0 5.5 -3t-1.5 -7l-96 -124q-8 -9 -17 -9h-40q-12 0 -5 10l86 123q7 10 17 10zM452 700h51q5 0 6 -3t-2 -7l-96 -124q-7 -9 -17 -9h-40q-12 0 -5 10l85 123q8 10 18 10zM352 479h122q11 0 9 -10l-69 -391q-2 -6 5 -6h47q10 0 8 -10l-9 -52q-2 -10 -11 -10
h-124q-10 0 -8 10l8 45h-1q-53 -66 -136 -66q-63 0 -97 36t-34 98q0 24 6 57l39 220q1 7 -5 7h-47q-10 0 -8 10l9 52q2 10 12 10h121q11 0 9 -10l-48 -267q-6 -30 -6 -54q0 -85 83 -85q46 0 81 33t45 87l38 217q1 7 -5 7h-46q-10 0 -8 10l9 52q2 10 11 10z" />
    <glyph glyph-name="Uogonek" unicode="&#x172;" horiz-adv-x="636" 
d="M489 680h197q10 0 8 -10l-9 -52q-2 -10 -11 -10h-51q-5 0 -7 -6l-66 -372q-21 -119 -76 -175.5t-148 -63.5q-69 -51 -69 -88q0 -21 22 -21q11 0 27 8q9 5 12 -3l11 -34q3 -7 -6 -13q-30 -20 -67 -20q-30 0 -48.5 16.5t-18.5 46.5q0 55 62 109q-77 10 -120.5 59t-43.5 130
q0 21 9 75l61 346q1 6 -5 6h-51q-10 0 -8 10l9 52q2 10 11 10h198q10 0 8 -10l-9 -52q-2 -10 -11 -10h-52q-5 0 -7 -6l-65 -365q-4 -23 -4 -46q0 -60 33 -92t94 -32q71 0 112.5 38.5t58.5 131.5l64 365q1 6 -4 6h-52q-10 0 -8 10l9 52q2 10 11 10z" />
    <glyph glyph-name="uogonek" unicode="&#x173;" horiz-adv-x="539" 
d="M352 479h122q11 0 9 -10l-69 -391q-2 -6 5 -6h47q10 0 8 -10l-9 -52q-2 -10 -11 -10h-59q-54 -33 -76 -55.5t-22 -41.5q0 -21 22 -21q13 0 28 8q7 4 11 -3l11 -34q3 -7 -6 -13q-28 -20 -66 -20q-30 0 -49 16.5t-19 46.5q0 33 21.5 60t70.5 61l9 51h-1q-53 -66 -136 -66
q-63 0 -97 36t-34 98q0 24 6 57l39 220q1 7 -5 7h-47q-10 0 -8 10l9 52q2 10 12 10h121q11 0 9 -10l-48 -267q-6 -30 -6 -54q0 -85 83 -85q46 0 81 33t45 87l38 217q1 7 -5 7h-46q-10 0 -8 10l9 52q2 10 11 10z" />
    <glyph glyph-name="Wcircumflex" unicode="&#x174;" horiz-adv-x="834" 
d="M519 897h39q9 0 14 -9l69 -124q2 -4 0.5 -7t-5.5 -3h-38q-10 0 -17 10l-48 75h-1l-77 -75q-9 -10 -20 -10h-43q-5 0 -6 3t3 7l112 124q8 9 18 9zM715 680h185q10 0 8 -10l-9 -52q-2 -10 -11 -10h-29q-5 0 -8 -5l-248 -593q-4 -10 -13 -10h-57q-9 0 -10 10l-47 523h-2
l-233 -523q-5 -10 -13 -10h-58q-10 0 -10 10l-38 591q0 7 -6 7h-31q-10 0 -8 10l9 52q2 10 11 10h181q10 0 8 -10l-9 -52q-2 -10 -12 -10h-58q-6 0 -6 -6l26 -451h2l228 519q5 10 14 10h52q10 0 11 -10l48 -519h2l183 450q3 7 -3 7h-61q-10 0 -8 10l9 52q2 10 11 10z" />
    <glyph glyph-name="wcircumflex" unicode="&#x175;" horiz-adv-x="702" 
d="M419 700h39q10 0 14 -9l69 -124q6 -10 -5 -10h-38q-10 0 -16 10l-49 75h-1l-76 -75q-9 -10 -20 -10h-44q-4 0 -5 3t2 7l112 124q8 9 18 9zM575 479h160q10 0 8 -10l-9 -52q-1 -10 -11 -10h-23q-6 0 -10 -7l-192 -390q-5 -10 -15 -10h-54q-9 0 -11 10l-39 354h-2
l-168 -354q-4 -10 -15 -10h-56q-9 0 -11 10l-52 391q-1 6 -8 6h-26q-10 0 -8 10l9 52q2 10 11 10h157q10 0 8 -10l-9 -52q-1 -10 -11 -10h-43q-7 0 -6 -9l35 -287h1l168 358q5 10 13 10h55q9 0 11 -10l41 -358h1l136 288q3 8 -4 8h-43q-10 0 -8 10l9 52q2 10 11 10z" />
    <glyph glyph-name="Ycircumflex" unicode="&#x176;" horiz-adv-x="541" 
d="M368 897h39q9 0 14 -9l69 -124q2 -4 0.5 -7t-5.5 -3h-38q-9 0 -17 10l-48 75h-1l-77 -75q-9 -10 -20 -10h-43q-5 0 -6 3t3 7l112 124q8 9 18 9zM424 680h184q10 0 8 -10l-9 -52q-2 -10 -11 -10h-33q-5 0 -9 -5l-229 -325l-35 -200q-2 -6 4 -6h58q10 0 8 -10l-9 -52
q-2 -10 -11 -10h-210q-10 0 -8 10l9 52q2 10 11 10h57q7 0 8 6l36 201l-113 323q-2 6 -8 6h-34q-10 0 -8 10l9 52q2 10 11 10h181q10 0 8 -10l-9 -52q-2 -10 -12 -10h-52q-7 0 -4 -7l83 -236h3l170 237q4 6 -3 6h-53q-10 0 -8 10l9 52q2 10 11 10z" />
    <glyph glyph-name="ycircumflex" unicode="&#x177;" horiz-adv-x="465" 
d="M299 700h39q10 0 14 -9l69 -124q6 -10 -5 -10h-38q-10 0 -16 10l-49 75h-1l-76 -75q-9 -10 -20 -10h-44q-4 0 -5 3t2 7l112 124q8 9 18 9zM337 479h158q10 0 8 -10l-9 -52q-1 -10 -12 -10h-22q-6 0 -10 -6l-242 -439q-46 -83 -81 -112.5t-87 -29.5h-25q-10 0 -8 10l9 54
q2 10 12 10h18q27 0 46.5 18t43.5 61l23 43l-78 385q-1 6 -6 6h-27q-10 0 -8 10l9 52q2 10 11 10h160q10 0 8 -10l-9 -52q-1 -10 -11 -10h-43q-7 0 -6 -9l54 -282h2l153 283q3 8 -4 8h-39q-10 0 -8 10l9 52q2 10 11 10z" />
    <glyph glyph-name="Ydieresis" unicode="&#x178;" horiz-adv-x="541" 
d="M260 868h55q10 0 8 -10l-12 -70q-2 -10 -11 -10h-56q-10 0 -8 10l13 70q2 10 11 10zM450 868h55q10 0 8 -10l-12 -70q-2 -10 -11 -10h-56q-10 0 -8 10l13 70q2 10 11 10zM424 680h184q10 0 8 -10l-9 -52q-2 -10 -11 -10h-33q-5 0 -9 -5l-229 -325l-35 -200q-2 -6 4 -6h58
q10 0 8 -10l-9 -52q-2 -10 -11 -10h-210q-10 0 -8 10l9 52q2 10 11 10h57q7 0 8 6l36 201l-113 323q-2 6 -8 6h-34q-10 0 -8 10l9 52q2 10 11 10h181q10 0 8 -10l-9 -52q-2 -10 -12 -10h-52q-7 0 -4 -7l83 -236h3l170 237q4 6 -3 6h-53q-10 0 -8 10l9 52q2 10 11 10z" />
    <glyph glyph-name="Zacute" unicode="&#x179;" horiz-adv-x="529" 
d="M430 888h66q5 0 6 -3t-3 -7l-118 -107q-9 -8 -19 -8h-45q-5 0 -6 3t2 7l97 105q10 10 20 10zM148 680h408q10 0 8 -10l-9 -55q-1 -8 -7 -15l-430 -522v-1h258q6 0 8 6l12 64q2 10 11 10h58q10 0 8 -10l-23 -137q-2 -10 -12 -10h-422q-10 0 -8 10l10 59q1 7 7 14l427 519
v1h-242q-6 0 -8 -6l-11 -60q-2 -10 -11 -10h-58q-10 0 -8 10l23 133q2 10 11 10z" />
    <glyph glyph-name="zacute" unicode="&#x17a;" horiz-adv-x="470" 
d="M361 700h62q5 0 6 -3.5t-3 -7.5l-109 -122q-9 -10 -20 -10h-42q-12 0 -5 10l92 123q7 10 19 10zM119 479h334q10 0 8 -10l-9 -52q-1 -6 -7 -13l-319 -332v-2h181q7 0 8 6l9 53q2 10 10 10h58q11 0 9 -10l-21 -119q-1 -10 -11 -10h-346q-10 0 -8 10l8 49q2 7 6 11l323 338
v1h-171q-7 0 -8 -6l-8 -47q-2 -11 -10 -11h-58q-11 0 -9 10l20 114q1 10 11 10z" />
    <glyph glyph-name="Zdotaccent" unicode="&#x17b;" horiz-adv-x="529" 
d="M340 868h66q10 0 8 -10l-12 -70q-2 -10 -11 -10h-66q-10 0 -8 10l12 70q2 10 11 10zM148 680h408q10 0 8 -10l-9 -55q-1 -8 -7 -15l-430 -522v-1h258q6 0 8 6l12 64q2 10 11 10h58q10 0 8 -10l-23 -137q-2 -10 -12 -10h-422q-10 0 -8 10l10 59q1 7 7 14l427 519v1h-242
q-6 0 -8 -6l-11 -60q-2 -10 -11 -10h-58q-10 0 -8 10l23 133q2 10 11 10z" />
    <glyph glyph-name="zdotaccent" unicode="&#x17c;" horiz-adv-x="470" 
d="M279 680h66q10 0 8 -10l-12 -69q-2 -10 -11 -10h-66q-10 0 -8 10l12 69q2 10 11 10zM119 479h334q10 0 8 -10l-9 -52q-1 -6 -7 -13l-319 -332v-2h181q7 0 8 6l9 53q2 10 10 10h58q11 0 9 -10l-21 -119q-1 -10 -11 -10h-346q-10 0 -8 10l8 49q2 7 6 11l323 338v1h-171
q-7 0 -8 -6l-8 -47q-2 -11 -10 -11h-58q-11 0 -9 10l20 114q1 10 11 10z" />
    <glyph glyph-name="Zcaron" unicode="&#x17d;" horiz-adv-x="529" 
d="M458 896h43q5 0 6 -3t-3 -7l-112 -124q-8 -9 -18 -9h-39q-9 0 -14 9l-69 124q-2 4 -0.5 7t5.5 3h38q9 0 17 -10l48 -75h1l76 75q10 10 21 10zM148 680h408q10 0 8 -10l-9 -55q-1 -8 -7 -15l-430 -522v-1h258q6 0 8 6l12 64q2 10 11 10h58q10 0 8 -10l-23 -137
q-2 -10 -12 -10h-422q-10 0 -8 10l10 59q1 7 7 14l427 519v1h-242q-6 0 -8 -6l-11 -60q-2 -10 -11 -10h-58q-10 0 -8 10l23 133q2 10 11 10z" />
    <glyph glyph-name="zcaron" unicode="&#x17e;" horiz-adv-x="470" 
d="M393 699h44q4 0 5 -3t-2 -7l-112 -124q-8 -9 -19 -9h-38q-9 0 -14 9l-69 124q-6 10 5 10h38q10 0 16 -9l49 -76h1l76 76q9 9 20 9zM119 479h334q10 0 8 -10l-9 -52q-1 -6 -7 -13l-319 -332v-2h181q7 0 8 6l9 53q2 10 10 10h58q11 0 9 -10l-21 -119q-1 -10 -11 -10h-346
q-10 0 -8 10l8 49q2 7 6 11l323 338v1h-171q-7 0 -8 -6l-8 -47q-2 -11 -10 -11h-58q-11 0 -9 10l20 114q1 10 11 10z" />
    <glyph glyph-name="florin" unicode="&#x192;" horiz-adv-x="517" 
d="M487 680h25q11 0 9 -10l-9 -51q-1 -10 -12 -10h-19q-35 0 -57 -17.5t-36 -59.5l-43 -131h90q10 0 8 -10l-7 -43q-2 -10 -12 -10h-99l-119 -369q-26 -80 -66.5 -114.5t-109.5 -34.5h-25q-11 0 -9 10l9 51q1 10 12 10h19q35 0 57 17.5t36 59.5l119 370h-73q-10 0 -8 10
l8 43q2 10 12 10h82l42 130q26 80 66.5 114.5t109.5 34.5z" />
    <glyph glyph-name="Scommaaccent" unicode="&#x218;" horiz-adv-x="568" 
d="M356 691q113 0 190 -47q7 -4 6 -13l-19 -108q-2 -10 -10 -10h-59q-11 0 -9 10l11 59q1 5 -4 8q-48 23 -108 23q-67 0 -108 -37.5t-41 -93.5q0 -40 25 -62t91 -32l31 -4q163 -24 163 -156q0 -111 -71.5 -175t-192.5 -64t-208 55q-8 5 -6 15l21 115q2 10 10 10h61
q11 0 9 -10l-12 -68q-1 -6 4 -10q58 -29 131 -29q75 0 121 41t46 105q0 39 -25.5 61t-89.5 31l-31 5q-164 24 -164 161q0 100 66 160t172 60zM218 -55h57q10 0 8 -10l-10 -57q-3 -14 -9 -20l-60 -62q-7 -7 -14 -7q-9 0 -7 10l23 136q2 10 12 10z" />
    <glyph glyph-name="scommaaccent" unicode="&#x219;" horiz-adv-x="468" 
d="M273 490q96 0 154 -39q7 -5 6 -11l-16 -90q-2 -10 -10 -10h-56q-11 0 -9 10l9 49q1 5 -5 8q-31 14 -78 14q-48 0 -77.5 -22.5t-29.5 -57.5q0 -25 17.5 -38.5t59.5 -17.5l48 -5q122 -13 122 -113q0 -83 -57.5 -130.5t-155.5 -47.5q-94 0 -162 43q-7 4 -6 14l17 98
q2 10 11 10h56q11 0 9 -10l-9 -56q-1 -6 4 -9q36 -18 90 -18q56 0 89.5 24.5t33.5 64.5q0 27 -17.5 40.5t-57.5 17.5l-48 5q-60 6 -91.5 36t-31.5 78q0 75 53 119t138 44zM152 -55h57q10 0 8 -10l-10 -57q-3 -14 -9 -20l-60 -62q-7 -7 -14 -7q-9 0 -7 10l23 136q2 10 12 10z
" />
    <glyph glyph-name="uni021A" unicode="&#x21a;" horiz-adv-x="558" 
d="M109 680h503q10 0 8 -10l-22 -130q-2 -10 -11 -10h-58q-11 0 -9 10l10 57q1 6 -5 6h-130q-5 0 -7 -6l-92 -519q-2 -6 4 -6h59q10 0 8 -10l-9 -52q-2 -10 -12 -10h-210q-10 0 -8 10l9 52q2 10 11 10h58q6 0 7 6l92 519q1 6 -4 6h-130q-5 0 -7 -6l-10 -57q-2 -10 -11 -10
h-59q-10 0 -8 10l22 130q2 10 11 10zM203 -55h57q10 0 8 -10l-10 -57q-3 -14 -9 -20l-60 -62q-7 -7 -14 -7q-9 0 -7 10l23 136q2 10 12 10z" />
    <glyph glyph-name="uni021B" unicode="&#x21b;" horiz-adv-x="302" 
d="M175 630h60q10 0 8 -10l-24 -135q-1 -6 4 -6h75q10 0 8 -10l-9 -52q-1 -10 -11 -10h-74q-6 0 -7 -6l-51 -264q-3 -15 -3 -27q0 -21 12 -29.5t39 -8.5h20q10 0 8 -10l-9 -54q-2 -10 -12 -10h-35q-55 0 -80 21.5t-25 67.5q0 18 5 46l51 268q1 6 -5 6h-40q-10 0 -8 10l9 52
q2 10 11 10h41q5 0 7 6l24 135q2 10 11 10zM96 -55h57q10 0 8 -10l-10 -57q-3 -14 -9 -20l-60 -62q-7 -7 -14 -7q-9 0 -7 10l23 136q2 10 12 10z" />
    <glyph glyph-name="dotlessj" unicode="&#x237;" horiz-adv-x="268" 
d="M94 479h123q10 0 8 -10l-90 -508q-15 -83 -49 -112t-111 -29h-19q-9 0 -8 10l9 52q2 10 11 10h15q33 0 49 14.5t23 53.5l78 440q1 7 -5 7h-47q-10 0 -8 10l9 52q2 10 12 10z" />
    <glyph glyph-name="circumflex" unicode="&#x2c6;" horiz-adv-x="407" 
d="M267 700h39q10 0 14 -9l69 -124q6 -10 -5 -10h-38q-10 0 -16 10l-49 75h-1l-76 -75q-9 -10 -20 -10h-44q-4 0 -5 3t2 7l112 124q8 9 18 9z" />
    <glyph glyph-name="caron" unicode="&#x2c7;" horiz-adv-x="407" 
d="M364 699h44q4 0 5 -3t-2 -7l-112 -124q-8 -9 -19 -9h-38q-10 0 -14 9l-69 124q-6 10 5 10h38q10 0 16 -9l49 -76h1l76 76q9 9 20 9z" />
    <glyph glyph-name="uni02C9" unicode="&#x2c9;" horiz-adv-x="407" 
d="M193 853h245q10 0 8 -10l-7 -41q-2 -10 -11 -10h-244q-10 0 -8 10l6 41q1 10 11 10z" />
    <glyph glyph-name="breve" unicode="&#x2d8;" horiz-adv-x="407" 
d="M374 684h32q10 0 7 -10q-15 -50 -54.5 -80.5t-93.5 -30.5q-51 0 -80 27.5t-29 72.5v11q1 10 10 10h31q10 0 11 -10q5 -54 66 -54t87 54q4 10 13 10z" />
    <glyph glyph-name="dotaccent" unicode="&#x2d9;" horiz-adv-x="407" 
d="M253 680h66q10 0 8 -10l-12 -69q-2 -10 -11 -10h-66q-10 0 -8 10l12 69q2 10 11 10z" />
    <glyph glyph-name="ring" unicode="&#x2da;" horiz-adv-x="407" 
d="M292 722q34 0 55 -21t21 -55q0 -45 -30.5 -77.5t-77.5 -32.5q-34 0 -54.5 21t-20.5 55q0 45 30 77.5t77 32.5zM285 683q-25 0 -42.5 -18.5t-17.5 -46.5q0 -19 11.5 -31t30.5 -12q25 0 42.5 18.5t17.5 46.5q0 19 -11 31t-31 12z" />
    <glyph glyph-name="ogonek" unicode="&#x2db;" horiz-adv-x="407" 
d="M176 10h54q5 0 5 -4t-4 -6q-54 -33 -76 -55.5t-22 -41.5q0 -21 22 -21q13 0 28 8q7 4 11 -3l11 -34q3 -7 -6 -13q-28 -20 -66 -20q-30 0 -49 16.5t-19 46.5q0 33 21 60t65 57q14 10 25 10z" />
    <glyph glyph-name="tilde" unicode="&#x2dc;" horiz-adv-x="407" 
d="M230 682q28 0 58 -21q29 -18 48 -18q30 0 65 32q3 3 6 2t2 -5l-7 -46q-3 -10 -11 -17q-31 -29 -69 -29q-30 0 -58 20q-26 18 -48 18q-31 0 -65 -32q-3 -3 -6 -1.5t-2 4.5l7 46q2 10 11 17q31 30 69 30z" />
    <glyph glyph-name="hungarumlaut" unicode="&#x2dd;" horiz-adv-x="407" 
d="M235 700h51q4 0 5.5 -3t-1.5 -7l-96 -124q-8 -9 -17 -9h-40q-12 0 -5 10l86 123q7 10 17 10zM370 700h51q5 0 6 -3t-2 -7l-96 -124q-7 -9 -17 -9h-40q-12 0 -5 10l85 123q8 10 18 10z" />
    <glyph glyph-name="uni0326" unicode="&#x326;" horiz-adv-x="0" 
d="M128 -55h57q10 0 8 -10l-10 -57q-3 -14 -9 -20l-60 -62q-7 -7 -14 -7q-9 0 -7 10l23 136q2 10 12 10z" />
    <glyph glyph-name="uni0394" unicode="&#x394;" horiz-adv-x="585" 
d="M347 680h59q9 0 11 -10l107 -660q2 -10 -8 -10h-521q-11 0 -6 10l344 660q5 10 14 10zM360 554h-3l-248 -478q-3 -6 3 -6h317q7 0 6 6z" />
    <glyph glyph-name="uni03A9" unicode="&#x3a9;" horiz-adv-x="597" 
d="M383 691q93 0 145 -52t52 -150q0 -50 -18 -149q-21 -117 -51.5 -176t-84.5 -90v-2h75q9 0 7 -10l-8 -52q-2 -10 -10 -10h-181q-10 0 -8 10l9 53q1 9 11 12q65 21 100 81t57 184q17 91 17 140q0 63 -31.5 98t-93.5 35q-109 0 -159 -103q-27 -54 -48 -170q-14 -78 -14 -125
q0 -113 78 -140q8 -3 7 -12l-9 -53q-2 -10 -11 -10h-178q-11 0 -9 10l8 52q2 10 11 10h78l1 2q-59 42 -59 138q0 49 14 128q24 133 52 194q74 157 251 157z" />
    <glyph glyph-name="uni03BC" unicode="&#x3bc;" horiz-adv-x="557" 
d="M432 479h60q11 0 9 -10l-70 -391q-1 -6 4 -6h48q10 0 8 -10l-9 -52q-2 -10 -11 -10h-123q-10 0 -8 10l9 47h-1q-47 -68 -127 -68q-63 0 -82 39h-2l-35 -198q-2 -10 -11 -10h-60q-10 0 -8 10l112 639q2 10 11 10h59q10 0 8 -10l-50 -285q-3 -20 -3 -36q0 -85 84 -85
q47 0 82.5 33.5t44.5 86.5l50 286q2 10 11 10z" />
    <glyph glyph-name="pi" unicode="&#x3c0;" horiz-adv-x="552" 
d="M101 479h440q10 0 8 -10l-9 -52q-2 -10 -11 -10h-39q-7 0 -7 -6l-54 -297q-1 -5 -1 -14q0 -23 23 -23h5q10 0 8 -10l-8 -53q-2 -10 -12 -10h-17q-81 0 -81 73q0 15 3 35l54 299q1 6 -4 6h-179q-6 0 -7 -6l-70 -391q-2 -10 -10 -10h-60q-11 0 -9 10l69 391q0 6 -5 6h-39
q-11 0 -9 10l10 52q1 10 11 10z" />
    <glyph glyph-name="Wgrave" unicode="&#x1e80;" horiz-adv-x="834" 
d="M389 888h61q12 0 19 -10l64 -105q5 -10 -6 -10h-45q-9 0 -16 8l-82 106q-2 4 -0.5 7.5t5.5 3.5zM715 680h185q10 0 8 -10l-9 -52q-2 -10 -11 -10h-29q-5 0 -8 -5l-248 -593q-4 -10 -13 -10h-57q-9 0 -10 10l-47 523h-2l-233 -523q-5 -10 -13 -10h-58q-10 0 -10 10
l-38 591q0 7 -6 7h-31q-10 0 -8 10l9 52q2 10 11 10h181q10 0 8 -10l-9 -52q-2 -10 -12 -10h-58q-6 0 -6 -6l26 -451h2l228 519q5 10 14 10h52q10 0 11 -10l48 -519h2l183 450q3 7 -3 7h-61q-10 0 -8 10l9 52q2 10 11 10z" />
    <glyph glyph-name="wgrave" unicode="&#x1e81;" horiz-adv-x="702" 
d="M300 700h58q10 0 14 -10l52 -123q3 -10 -8 -10h-41q-10 0 -16 10l-66 123q-2 4 0 7t7 3zM575 479h160q10 0 8 -10l-9 -52q-1 -10 -11 -10h-23q-6 0 -10 -7l-192 -390q-5 -10 -15 -10h-54q-9 0 -11 10l-39 354h-2l-168 -354q-4 -10 -15 -10h-56q-9 0 -11 10l-52 391
q-1 6 -8 6h-26q-10 0 -8 10l9 52q2 10 11 10h157q10 0 8 -10l-9 -52q-1 -10 -11 -10h-43q-7 0 -6 -9l35 -287h1l168 358q5 10 13 10h55q9 0 11 -10l41 -358h1l136 288q3 8 -4 8h-43q-10 0 -8 10l9 52q2 10 11 10z" />
    <glyph glyph-name="Wacute" unicode="&#x1e82;" horiz-adv-x="834" 
d="M608 888h66q5 0 6 -3t-3 -7l-118 -107q-9 -8 -19 -8h-45q-5 0 -6 3t2 7l97 105q10 10 20 10zM715 680h185q10 0 8 -10l-9 -52q-2 -10 -11 -10h-29q-5 0 -8 -5l-248 -593q-4 -10 -13 -10h-57q-9 0 -10 10l-47 523h-2l-233 -523q-5 -10 -13 -10h-58q-10 0 -10 10l-38 591
q0 7 -6 7h-31q-10 0 -8 10l9 52q2 10 11 10h181q10 0 8 -10l-9 -52q-2 -10 -12 -10h-58q-6 0 -6 -6l26 -451h2l228 519q5 10 14 10h52q10 0 11 -10l48 -519h2l183 450q3 7 -3 7h-61q-10 0 -8 10l9 52q2 10 11 10z" />
    <glyph glyph-name="wacute" unicode="&#x1e83;" horiz-adv-x="702" 
d="M494 700h62q5 0 6 -3.5t-3 -7.5l-109 -122q-9 -10 -20 -10h-42q-12 0 -5 10l92 123q7 10 19 10zM575 479h160q10 0 8 -10l-9 -52q-1 -10 -11 -10h-23q-6 0 -10 -7l-192 -390q-5 -10 -15 -10h-54q-9 0 -11 10l-39 354h-2l-168 -354q-4 -10 -15 -10h-56q-9 0 -11 10
l-52 391q-1 6 -8 6h-26q-10 0 -8 10l9 52q2 10 11 10h157q10 0 8 -10l-9 -52q-1 -10 -11 -10h-43q-7 0 -6 -9l35 -287h1l168 358q5 10 13 10h55q9 0 11 -10l41 -358h1l136 288q3 8 -4 8h-43q-10 0 -8 10l9 52q2 10 11 10z" />
    <glyph glyph-name="Wdieresis" unicode="&#x1e84;" horiz-adv-x="834" 
d="M413 868h55q10 0 8 -10l-12 -70q-2 -10 -11 -10h-56q-10 0 -8 10l13 70q2 10 11 10zM603 868h55q10 0 8 -10l-12 -70q-2 -10 -11 -10h-56q-10 0 -8 10l13 70q2 10 11 10zM715 680h185q10 0 8 -10l-9 -52q-2 -10 -11 -10h-29q-5 0 -8 -5l-248 -593q-4 -10 -13 -10h-57
q-9 0 -10 10l-47 523h-2l-233 -523q-5 -10 -13 -10h-58q-10 0 -10 10l-38 591q0 7 -6 7h-31q-10 0 -8 10l9 52q2 10 11 10h181q10 0 8 -10l-9 -52q-2 -10 -12 -10h-58q-6 0 -6 -6l26 -451h2l228 519q5 10 14 10h52q10 0 11 -10l48 -519h2l183 450q3 7 -3 7h-61q-10 0 -8 10
l9 52q2 10 11 10z" />
    <glyph glyph-name="wdieresis" unicode="&#x1e85;" horiz-adv-x="702" 
d="M311 680h55q10 0 8 -10l-12 -69q-2 -10 -11 -10h-56q-10 0 -8 10l13 69q2 10 11 10zM501 680h55q10 0 8 -10l-12 -69q-2 -10 -11 -10h-56q-10 0 -8 10l13 69q2 10 11 10zM575 479h160q10 0 8 -10l-9 -52q-1 -10 -11 -10h-23q-6 0 -10 -7l-192 -390q-5 -10 -15 -10h-54
q-9 0 -11 10l-39 354h-2l-168 -354q-4 -10 -15 -10h-56q-9 0 -11 10l-52 391q-1 6 -8 6h-26q-10 0 -8 10l9 52q2 10 11 10h157q10 0 8 -10l-9 -52q-1 -10 -11 -10h-43q-7 0 -6 -9l35 -287h1l168 358q5 10 13 10h55q9 0 11 -10l41 -358h1l136 288q3 8 -4 8h-43q-10 0 -8 10
l9 52q2 10 11 10z" />
    <glyph glyph-name="uni1E9E" unicode="&#x1e9e;" horiz-adv-x="638" 
d="M411 691q114 0 196 -64q7 -6 6 -13l-9 -46q-1 -8 -9 -16l-123 -134q131 -22 131 -149q0 -83 -31 -149q-60 -125 -208 -125q-56 0 -94 18q-8 3 -4 12l22 56q4 9 13 5q35 -14 73 -14q84 0 125 81q23 44 23 104q0 99 -128 100h-20q-10 0 -8 10l9 48q2 10 8 17l138 151
q-47 31 -114 31q-68 0 -120.5 -43.5t-65.5 -118.5l-66 -374q-1 -6 4 -6h52q10 0 8 -10l-9 -52q-2 -10 -11 -10h-197q-10 0 -8 10l9 52q2 10 11 10h51q5 0 7 6l66 374q20 113 92 176t181 63z" />
    <glyph glyph-name="Ygrave" unicode="&#x1ef2;" horiz-adv-x="541" 
d="M245 888h61q12 0 19 -10l64 -105q5 -10 -6 -10h-45q-9 0 -16 8l-82 106q-2 4 -0.5 7.5t5.5 3.5zM424 680h184q10 0 8 -10l-9 -52q-2 -10 -11 -10h-33q-5 0 -9 -5l-229 -325l-35 -200q-2 -6 4 -6h58q10 0 8 -10l-9 -52q-2 -10 -11 -10h-210q-10 0 -8 10l9 52q2 10 11 10
h57q7 0 8 6l36 201l-113 323q-2 6 -8 6h-34q-10 0 -8 10l9 52q2 10 11 10h181q10 0 8 -10l-9 -52q-2 -10 -12 -10h-52q-7 0 -4 -7l83 -236h3l170 237q4 6 -3 6h-53q-10 0 -8 10l9 52q2 10 11 10z" />
    <glyph glyph-name="ygrave" unicode="&#x1ef3;" horiz-adv-x="465" 
d="M190 700h58q10 0 14 -10l52 -123q3 -10 -8 -10h-41q-10 0 -16 10l-66 123q-2 4 0 7t7 3zM337 479h158q10 0 8 -10l-9 -52q-1 -10 -12 -10h-22q-6 0 -10 -6l-242 -439q-46 -83 -81 -112.5t-87 -29.5h-25q-10 0 -8 10l9 54q2 10 12 10h18q27 0 46.5 18t43.5 61l23 43
l-78 385q-1 6 -6 6h-27q-10 0 -8 10l9 52q2 10 11 10h160q10 0 8 -10l-9 -52q-1 -10 -11 -10h-43q-7 0 -6 -9l54 -282h2l153 283q3 8 -4 8h-39q-10 0 -8 10l9 52q2 10 11 10z" />
    <glyph glyph-name="endash" unicode="&#x2013;" horiz-adv-x="492" 
d="M48 301h427q9 0 7 -10l-8 -50q-2 -9 -11 -9h-426q-10 0 -8 10l8 49q2 10 11 10z" />
    <glyph glyph-name="emdash" unicode="&#x2014;" horiz-adv-x="815" 
d="M48 301h749q10 0 8 -10l-8 -50q-1 -9 -11 -9h-749q-10 0 -8 10l8 49q2 10 11 10z" />
    <glyph glyph-name="quoteleft" unicode="&#x2018;" horiz-adv-x="207" 
d="M214 682q10 0 8 -10l-27 -156q-2 -10 -11 -10h-57q-10 0 -8 10l14 81q3 15 9 21l59 56q8 8 13 8z" />
    <glyph glyph-name="quoteright" unicode="&#x2019;" horiz-adv-x="207" 
d="M157 680h57q10 0 8 -10l-14 -81q-3 -14 -10 -21l-58 -56q-7 -7 -13 -7q-9 0 -8 9l27 156q2 10 11 10z" />
    <glyph glyph-name="quotesinglbase" unicode="&#x201a;" horiz-adv-x="207" 
d="M52 89h58q9 0 7 -10l-14 -81q-3 -16 -9 -21l-58 -55q-7 -8 -14 -8q-10 0 -8 10l27 155q2 10 11 10z" />
    <glyph glyph-name="quotedblleft" unicode="&#x201c;" horiz-adv-x="355" 
d="M214 682q10 0 8 -10l-27 -156q-2 -10 -11 -10h-57q-10 0 -8 10l14 81q3 15 9 21l59 56q8 8 13 8zM363 682q9 0 7 -10l-27 -156q-2 -10 -11 -10h-57q-10 0 -8 10l14 81q3 14 10 21l58 56q8 8 14 8z" />
    <glyph glyph-name="quotedblright" unicode="&#x201d;" horiz-adv-x="355" 
d="M157 680h57q10 0 8 -10l-14 -81q-3 -15 -10 -21l-58 -56q-7 -7 -13 -7q-9 0 -8 9l27 156q2 10 11 10zM305 680h58q9 0 7 -10l-14 -81q-3 -16 -9 -21l-58 -56q-7 -7 -14 -7q-9 0 -8 9l27 156q2 10 11 10z" />
    <glyph glyph-name="quotedblbase" unicode="&#x201e;" horiz-adv-x="355" 
d="M52 89h58q9 0 7 -10l-14 -81q-3 -13 -9 -21l-58 -55q-7 -8 -14 -8q-10 0 -8 10l27 155q2 10 11 10zM201 89h57q10 0 8 -10l-14 -81q-2 -12 -10 -21l-58 -55q-7 -8 -14 -8q-9 0 -7 10l27 155q2 10 11 10z" />
    <glyph glyph-name="dagger" unicode="&#x2020;" horiz-adv-x="465" 
d="M287 680h57q11 0 9 -10l-40 -226q-1 -6 4 -6h134q10 0 8 -10l-9 -50q-2 -9 -11 -9h-132q-7 0 -8 -6l-94 -533q-3 -10 -12 -10h-57q-10 0 -8 10l95 533q1 6 -5 6h-135q-10 0 -8 10l9 50q2 9 12 9h133q5 0 7 6l40 226q2 10 11 10z" />
    <glyph glyph-name="daggerdbl" unicode="&#x2021;" horiz-adv-x="465" 
d="M287 680h57q11 0 9 -10l-35 -196q-2 -6 4 -6h134q10 0 8 -10l-9 -50q-1 -9 -11 -9h-132q-6 0 -8 -6l-51 -285q-1 -6 4 -6h135q10 0 8 -10l-9 -50q-1 -9 -11 -9h-134q-6 0 -7 -6l-34 -197q-3 -10 -12 -10h-57q-11 0 -8 10l35 197q1 6 -5 6h-134q-10 0 -8 10l9 50q1 9 11 9
h134q6 0 7 6l51 285q2 6 -5 6h-135q-10 0 -8 10l9 50q1 9 11 9h134q6 0 7 6l35 196q2 10 11 10z" />
    <glyph glyph-name="bullet" unicode="&#x2022;" horiz-adv-x="383" 
d="M212 436q55 0 91 -36t36 -92t-36 -92t-91 -36q-56 0 -91.5 36t-35.5 92t35.5 92t91.5 36z" />
    <glyph glyph-name="ellipsis" unicode="&#x2026;" horiz-adv-x="673" 
d="M32 103h70q11 0 9 -10l-14 -83q-2 -10 -11 -10h-70q-11 0 -9 10l14 83q2 10 11 10zM256 103h71q10 0 8 -10l-13 -83q-2 -10 -11 -10h-71q-10 0 -8 10l13 83q2 10 11 10zM481 103h70q11 0 9 -10l-14 -83q-2 -10 -11 -10h-70q-11 0 -9 10l14 83q2 10 11 10z" />
    <glyph glyph-name="perthousand" unicode="&#x2030;" horiz-adv-x="1037" 
d="M628 691h44q10 0 4 -10l-499 -682q-9 -10 -17 -10h-43q-5 0 -6 3t2 7l499 682q7 10 16 10zM271 688q44 0 72 -25.5t28 -70.5q0 -27 -12.5 -93t-24.5 -92q-37 -77 -122 -77q-44 0 -72 25.5t-28 70.5q0 27 12.5 93t24.5 92q37 77 122 77zM264 633q-39 0 -58 -37
q-10 -20 -22 -81t-12 -83t12.5 -34.5t34.5 -12.5q40 0 59 37q10 20 21.5 80.5t11.5 83.5q0 22 -12.5 34.5t-34.5 12.5zM577 349q44 0 72 -25.5t28 -69.5q0 -28 -12.5 -94t-24.5 -92q-38 -77 -122 -77q-44 0 -72 25.5t-28 70.5q0 28 12.5 94t24.5 92q37 76 122 76zM872 349
q44 0 72 -25.5t28 -69.5q0 -28 -12.5 -94t-24.5 -92q-38 -77 -122 -77q-44 0 -72 25.5t-28 70.5q0 28 12.5 94t24.5 92q37 76 122 76zM569 294q-39 0 -58 -37q-10 -19 -21.5 -80t-11.5 -84q0 -22 12.5 -34.5t34.5 -12.5q38 0 58 37q10 20 21.5 81t11.5 84q0 21 -12.5 33.5
t-34.5 12.5zM864 294q-40 0 -58 -37q-10 -19 -22 -80.5t-12 -83.5t13 -34.5t35 -12.5q38 0 58 37q10 20 21.5 81t11.5 84q0 21 -12.5 33.5t-34.5 12.5z" />
    <glyph glyph-name="guilsinglleft" unicode="&#x2039;" horiz-adv-x="299" 
d="M51 271l212 189q3 3 6.5 1.5t2.5 -5.5l-11 -72q-3 -11 -12 -20l-115 -99q-5 -4 -2 -8l79 -102q8 -9 5 -19l-10 -64q-1 -4 -4.5 -5.5t-6.5 1.5l-146 189q-7 7 2 14z" />
    <glyph glyph-name="guilsinglright" unicode="&#x203a;" horiz-adv-x="299" 
d="M121 460l147 -189q5 -8 -2 -14l-213 -189q-3 -3 -6.5 -1.5t-2.5 5.5l12 72q1 11 11 19l115 100q5 4 2 8l-78 101q-7 9 -6 20l11 64q1 4 4.5 5.5t5.5 -1.5z" />
    <glyph glyph-name="fraction" unicode="&#x2044;" horiz-adv-x="218" 
d="M364 691h44q4 0 5.5 -3t-1.5 -7l-498 -682q-7 -10 -16 -10h-45q-5 0 -6 3t2 7l499 682q7 10 16 10z" />
    <glyph glyph-name="zero.superior" unicode="&#x2070;" 
d="M272 843q49 0 77 -27t28 -76q0 -35 -16.5 -122t-29.5 -115q-38 -80 -133 -80q-49 0 -77 27t-28 76q0 35 16.5 122t29.5 115q38 80 133 80zM263 785q-44 0 -64 -39q-11 -21 -26 -104t-15 -112q0 -49 49 -49q45 0 65 41q11 22 25.5 103.5t14.5 110.5q0 49 -49 49z" />
    <glyph glyph-name="four.superior" unicode="&#x2074;" 
d="M274 836h45q11 0 4 -10l-169 -269v-1h94q6 0 7 6l16 91q2 10 11 10h42q10 0 8 -10l-16 -91q-2 -6 5 -6h26q10 0 8 -10l-7 -38q-2 -9 -10 -9h-28q-4 0 -6 -6l-9 -53q-2 -10 -12 -10h-42q-9 0 -7 10l9 53q1 6 -5 6h-156q-10 0 -8 10l7 37q2 8 7 16l170 264q7 10 16 10z" />
    <glyph glyph-name="five.superior" unicode="&#x2075;" 
d="M169 836h209q10 0 8 -10l-7 -39q-1 -9 -10 -9h-152q-6 0 -7 -6l-19 -99h1q27 23 68 23t66.5 -22.5t25.5 -65.5q0 -65 -23 -111q-36 -74 -130 -74q-68 0 -101 23q-7 6 -6 15l13 74q2 10 10 10h42q11 0 9 -10l-7 -37q-1 -7 4 -10q16 -7 41 -7q48 0 67 39q17 28 17 70
q0 48 -49 48q-34 0 -55 -26q-6 -8 -15 -8h-40q-10 0 -8 10l37 212q2 10 11 10z" />
    <glyph glyph-name="six.superior" unicode="&#x2076;" 
d="M280 836h51q4 0 5 -3.5t-2 -7.5l-113 -158l1 -1q13 8 35 8q44 0 70 -26.5t26 -70.5q0 -65 -43 -109.5t-111 -44.5q-50 0 -80 27.5t-30 73.5q0 55 49 125l126 178q8 9 16 9zM233 617q-33 0 -56.5 -24t-23.5 -59q0 -24 15 -38.5t41 -14.5q33 0 56.5 23.5t23.5 59.5
q0 24 -15 38.5t-41 14.5z" />
    <glyph glyph-name="seven.superior" unicode="&#x2077;" 
d="M162 836h225q10 0 8 -10l-8 -43q-1 -7 -6 -15l-193 -329q-5 -9 -14 -9h-45q-10 0 -4 11l196 335v2h-111q-6 0 -7 -6l-8 -43q-2 -10 -11 -10h-42q-10 0 -8 10l17 97q2 10 11 10z" />
    <glyph glyph-name="eight.superior" unicode="&#x2078;" 
d="M273 843q48 0 75 -26.5t27 -67.5q0 -66 -59 -104v-2q37 -26 37 -74q0 -63 -44.5 -104.5t-110.5 -41.5q-50 0 -80.5 27.5t-30.5 72.5q0 37 19 69.5t54 51.5v1q-31 24 -31 64q0 55 42 94.5t102 39.5zM262 786q-27 0 -48.5 -21t-21.5 -49q0 -20 14 -33t36 -13q28 0 49 21
t21 49q0 21 -13.5 33.5t-36.5 12.5zM232 614q-34 0 -58 -24t-24 -56q0 -24 16 -39t42 -15q34 0 58 24t24 56q0 24 -16 39t-42 15z" />
    <glyph glyph-name="nine.superior" unicode="&#x2079;" 
d="M272 843q50 0 80 -27.5t30 -73.5q0 -55 -49 -125l-126 -178q-7 -9 -15 -9h-52q-4 0 -4.5 3.5t2.5 7.5l112 158v1q-13 -8 -35 -8q-44 0 -70.5 26.5t-26.5 70.5q0 65 43 109.5t111 44.5zM263 785q-33 0 -57 -23.5t-24 -59.5q0 -24 15 -38.5t41 -14.5q33 0 56.5 24t23.5 59
q0 24 -15 38.5t-40 14.5z" />
    <glyph glyph-name="plussuperior" unicode="&#x207a;" 
d="M206 751h39q10 0 10 -10v-85q0 -6 6 -6h81q10 0 10 -10v-37q0 -10 -10 -10h-81q-6 0 -6 -6v-85q0 -10 -10 -10h-39q-9 0 -9 10v85q0 6 -6 6h-82q-10 0 -10 10v37q0 10 10 10h82q6 0 6 6v85q0 10 9 10z" />
    <glyph glyph-name="uni207B" unicode="&#x207b;" 
d="M109 650h233q10 0 10 -10v-37q0 -10 -10 -10h-233q-10 0 -10 10v37q0 10 10 10z" />
    <glyph glyph-name="equalsuperior" unicode="&#x207c;" 
d="M109 706h233q10 0 10 -10v-37q0 -10 -10 -10h-233q-10 0 -10 10v37q0 10 10 10zM109 594h233q10 0 10 -10v-37q0 -10 -10 -10h-233q-10 0 -10 10v37q0 10 10 10z" />
    <glyph glyph-name="parenleftsuperior" unicode="&#x207d;" horiz-adv-x="207" 
d="M244 860h31q12 0 5 -10q-96 -147 -96 -298q0 -69 19 -136q3 -10 -8 -10h-31q-8 0 -13 9q-30 67 -30 147q0 160 107 289q8 9 16 9z" />
    <glyph glyph-name="parenrightsuperior" unicode="&#x207e;" horiz-adv-x="207" 
d="M147 860h32q8 0 13 -9q30 -67 30 -147q0 -160 -107 -289q-8 -9 -16 -9h-31q-12 0 -5 10q96 147 96 298q0 69 -19 136q-3 10 7 10z" />
    <glyph glyph-name="zero.inferior" unicode="&#x2080;" 
d="M172 257q49 0 77 -27t28 -76q0 -35 -16.5 -122t-29.5 -115q-38 -80 -133 -80q-49 0 -77 27t-28 76q0 35 16.5 122t29.5 115q38 80 133 80zM163 199q-44 0 -64 -39q-11 -21 -26 -104t-15 -112q0 -49 49 -49q45 0 65 41q11 22 25.5 103.5t14.5 110.5q0 49 -49 49z" />
    <glyph glyph-name="one.inferior" unicode="&#x2081;" 
d="M166 250h42q10 0 8 -10l-58 -330q-2 -6 5 -6h61q10 0 8 -10l-7 -40q-2 -10 -10 -10h-197q-10 0 -8 10l7 40q2 10 10 10h60q7 0 8 6l46 263h-1l-71 -44q-4 -3 -7.5 -1t-2.5 7l9 48q1 10 10 16l70 44q10 7 18 7z" />
    <glyph glyph-name="two.inferior" unicode="&#x2082;" 
d="M164 257q53 0 81 -25t28 -67q0 -65 -61 -123l-145 -139v-1h156q10 0 8 -10l-7 -38q-2 -10 -12 -10h-227q-10 0 -8 10l7 38q2 8 8 14l174 171q43 43 43 78q0 45 -49 45q-25 0 -45 -10q-5 -3 -7 -9l-6 -36q-2 -10 -11 -10h-41q-11 0 -9 10l14 75q1 7 9 12q43 25 100 25z
" />
    <glyph glyph-name="three.inferior" unicode="&#x2083;" 
d="M159 257q55 0 83.5 -24t28.5 -66q0 -72 -63 -109v-1q39 -21 39 -74q0 -67 -41 -106.5t-108 -39.5q-61 0 -102 29q-7 6 -6 15l13 71q2 10 10 10h42q11 0 9 -10l-7 -37q-1 -7 4 -11q14 -9 45 -9q33 0 55 21t22 56q0 24 -15 38t-42 14h-17q-10 0 -8 10l6 38q2 10 12 10h14
q31 0 51.5 20t20.5 52q0 22 -14 34t-39 12t-41 -9q-6 -3 -7 -9l-6 -33q-2 -10 -11 -10h-41q-11 0 -9 10l13 70q1 7 10 13q38 25 99 25z" />
    <glyph glyph-name="four.inferior" unicode="&#x2084;" 
d="M173 250h45q11 0 4 -10l-169 -269v-1h94q5 0 7 6l16 91q2 10 11 10h42q10 0 8 -10l-16 -91q-1 -6 5 -6h26q10 0 8 -10l-7 -38q-1 -9 -10 -9h-28q-5 0 -6 -6l-9 -53q-2 -10 -12 -10h-42q-9 0 -7 10l9 53q2 6 -5 6h-156q-10 0 -8 10l7 37q2 8 7 16l170 264q7 10 16 10z" />
    <glyph glyph-name="five.inferior" unicode="&#x2085;" 
d="M67 250h209q10 0 8 -10l-7 -39q-1 -9 -10 -9h-152q-6 0 -7 -6l-19 -99h1q27 23 68 23t66.5 -22.5t25.5 -65.5q0 -65 -23 -111q-36 -74 -130 -74q-68 0 -101 23q-7 6 -6 15l13 74q2 10 10 10h42q11 0 9 -10l-7 -37q-1 -7 4 -10q16 -7 41 -7q48 0 67 39q17 28 17 70
q0 48 -49 48q-34 0 -55 -26q-6 -8 -15 -8h-40q-10 0 -8 10l37 212q2 10 11 10z" />
    <glyph glyph-name="six.inferior" unicode="&#x2086;" 
d="M179 250h51q4 0 5 -3.5t-2 -7.5l-113 -158l1 -1q13 8 35 8q44 0 70 -26.5t26 -70.5q0 -65 -43 -109.5t-111 -44.5q-50 0 -80 27.5t-30 73.5q0 55 49 125l126 178q7 9 16 9zM132 31q-33 0 -56.5 -24t-23.5 -59q0 -24 15 -38.5t41 -14.5q33 0 56.5 23.5t23.5 59.5
q0 24 -15 38.5t-41 14.5z" />
    <glyph glyph-name="seven.inferior" unicode="&#x2087;" 
d="M60 250h225q10 0 8 -10l-8 -43q-1 -7 -6 -15l-193 -329q-5 -9 -14 -9h-45q-10 0 -4 11l196 335v2h-111q-6 0 -7 -6l-8 -43q-2 -10 -11 -10h-42q-10 0 -8 10l17 97q2 10 11 10z" />
    <glyph glyph-name="eight.inferior" unicode="&#x2088;" 
d="M172 257q48 0 75 -26.5t27 -67.5q0 -66 -59 -104v-2q37 -26 37 -74q0 -63 -44.5 -104.5t-110.5 -41.5q-50 0 -80.5 27.5t-30.5 72.5q0 37 19 69.5t54 51.5v1q-31 24 -31 64q0 55 42 94.5t102 39.5zM161 200q-27 0 -48.5 -21t-21.5 -49q0 -20 14 -33t36 -13q28 0 49 21
t21 49q0 21 -13.5 33.5t-36.5 12.5zM131 28q-34 0 -58 -24t-24 -56q0 -24 16 -39t42 -15q34 0 58 24t24 56q0 24 -16 39t-42 15z" />
    <glyph glyph-name="nine.inferior" unicode="&#x2089;" 
d="M171 257q50 0 80 -27.5t30 -73.5q0 -55 -49 -125l-126 -178q-7 -9 -15 -9h-52q-4 0 -4.5 3.5t2.5 7.5l112 158v1q-13 -8 -35 -8q-44 0 -70.5 26.5t-26.5 70.5q0 65 43 109.5t111 44.5zM162 199q-34 0 -57.5 -23.5t-23.5 -59.5q0 -24 15 -38.5t41 -14.5q33 0 56.5 24
t23.5 59q0 24 -15 38.5t-40 14.5z" />
    <glyph glyph-name="uni208A" unicode="&#x208a;" 
d="M103 165h39q10 0 10 -10v-85q0 -6 6 -6h81q10 0 10 -10v-37q0 -10 -10 -10h-81q-6 0 -6 -6v-85q0 -10 -10 -10h-39q-9 0 -9 10v85q0 6 -6 6h-82q-10 0 -10 10v37q0 10 10 10h82q6 0 6 6v85q0 10 9 10z" />
    <glyph glyph-name="uni208B" unicode="&#x208b;" 
d="M6 64h233q10 0 10 -10v-37q0 -10 -10 -10h-233q-10 0 -10 10v37q0 10 10 10z" />
    <glyph glyph-name="uni208C" unicode="&#x208c;" 
d="M6 120h233q10 0 10 -10v-37q0 -10 -10 -10h-233q-10 0 -10 10v37q0 10 10 10zM6 8h233q10 0 10 -10v-37q0 -10 -10 -10h-233q-10 0 -10 10v37q0 10 10 10z" />
    <glyph glyph-name="uni208D" unicode="&#x208d;" horiz-adv-x="207" 
d="M141 274h31q12 0 5 -10q-96 -147 -96 -298q0 -69 19 -136q3 -10 -8 -10h-31q-8 0 -13 9q-30 67 -30 147q0 160 107 289q8 9 16 9z" />
    <glyph glyph-name="uni208E" unicode="&#x208e;" horiz-adv-x="207" 
d="M44 274h32q8 0 13 -9q30 -67 30 -147q0 -160 -107 -289q-8 -9 -16 -9h-31q-12 0 -5 10q96 147 96 298q0 69 -19 136q-3 10 7 10z" />
    <glyph glyph-name="Euro" unicode="&#x20ac;" horiz-adv-x="517" 
d="M376 691q89 0 148 -44q6 -5 5 -13l-15 -89q-2 -10 -10 -10h-56q-11 0 -9 10l8 47q1 6 -4 9q-32 16 -75 16q-88 0 -129 -79q-18 -39 -28 -95q-1 -6 5 -6h185q11 0 8 -10l-16 -40q-4 -10 -14 -10h-174q-5 0 -7 -6l-9 -55q-1 -6 5 -6h165q11 0 8 -10l-17 -40q-4 -10 -12 -10
h-155q-5 0 -7 -6q-9 -48 -9 -81q0 -100 100 -100q54 0 85 20q5 3 6 9l10 56q2 10 11 10h56q10 0 8 -10l-18 -103q-1 -7 -9 -13q-64 -43 -160 -43q-85 0 -127.5 43t-42.5 124q0 36 10 88q2 6 -5 6h-40q-10 0 -8 10l7 40q2 10 11 10h40q5 0 7 6l10 55q2 6 -4 6h-41
q-10 0 -8 10l7 40q2 10 12 10h40q6 0 7 5q15 81 34 118q66 131 211 131z" />
    <glyph glyph-name="uni20B9" unicode="&#x20b9;" horiz-adv-x="517" 
d="M160 680h362q10 0 8 -10l-6 -40q-2 -10 -11 -10h-115q23 -29 27 -67h75q10 0 8 -10l-7 -40q-2 -10 -11 -10h-66q-11 -88 -75.5 -140.5t-165.5 -52.5l127 -224q3 -4 8 -4h52q10 0 8 -10l-9 -52q-2 -10 -11 -10h-88q-10 0 -15 8l-163 293q-4 8 -3 16l8 45q2 10 12 10h72
q68 0 110.5 31t51.5 90h-215q-10 0 -8 10l7 40q2 10 11 10h204q-18 67 -112 67h-79q-10 0 -8 10l6 40q2 10 11 10z" />
    <glyph glyph-name="uni20BA" unicode="&#x20ba;" horiz-adv-x="517" 
d="M138 680h196q10 0 8 -10l-9 -52q-2 -10 -11 -10h-52q-6 0 -7 -6l-18 -100l195 88q4 2 7 0t2 -6l-9 -50q-1 -9 -12 -14l-195 -88l-12 -67l195 88q4 2 7 0.5t2 -6.5l-8 -49q-3 -10 -13 -14l-195 -88l-38 -214q-1 -6 4 -6q95 0 161.5 63.5t84.5 170.5q2 10 11 10h56
q10 0 8 -10q-53 -310 -358 -310h-119q-10 0 -8 10l9 52q2 10 11 10h51q6 0 7 6l31 179l-59 -27q-4 -2 -7 0t-2 6l9 49q2 10 12 14l60 27l12 67l-60 -27q-4 -2 -7 -0.5t-2 6.5l9 50q2 10 12 14l60 27l25 139q2 6 -5 6h-51q-10 0 -8 10l9 52q2 10 11 10z" />
    <glyph glyph-name="uni2113" unicode="&#x2113;" horiz-adv-x="389" 
d="M309 691q42 0 66.5 -26.5t24.5 -74.5q0 -155 -207 -326l-23 -131q-4 -20 -4 -32q0 -38 34 -38q28 0 62 30q8 6 13 -2l19 -39q4 -7 -3 -14q-54 -49 -114 -49q-91 0 -91 94q0 18 6 52l12 72l-35 -25q-9 -5 -13 2l-18 37q-5 8 3 14l78 58l37 209q34 189 153 189zM301 625
q-45 0 -65 -114l-27 -156q122 119 122 226q0 44 -30 44z" />
    <glyph glyph-name="published" unicode="&#x2117;" horiz-adv-x="829" 
d="M434 691q149 0 250 -101t101 -250t-101 -250t-250 -101q-148 0 -249 101t-101 250t101 250t249 101zM434 633q-124 0 -207.5 -83.5t-83.5 -209.5t83.5 -209.5t207.5 -83.5q125 0 208 83.5t83 209.5t-83 209.5t-208 83.5zM307 532h171q63 0 98 -31t35 -86t-35 -85.5
t-98 -30.5h-74q-5 0 -5 -6v-87q0 -6 5 -6h30q10 0 10 -10v-32q0 -10 -10 -10h-127q-9 0 -9 10v32q0 10 9 10h29q6 0 6 6v268q0 6 -6 6h-29q-9 0 -9 10v32q0 10 9 10zM478 480h-73q-6 0 -6 -6v-118q0 -6 5 -6h74q76 0 76 66q0 64 -76 64z" />
    <glyph glyph-name="trademark" unicode="&#x2122;" horiz-adv-x="874" 
d="M92 680h297q10 0 10 -10v-76q0 -10 -10 -10h-39q-10 0 -10 10v27q0 6 -6 6h-58q-6 0 -6 -6v-277q0 -6 6 -6h24q10 0 10 -10v-32q0 -10 -10 -10h-119q-10 0 -10 10v32q0 10 10 10h24q6 0 6 6v277q0 6 -6 6h-58q-6 0 -6 -6v-27q0 -10 -10 -10h-39q-10 0 -10 10v76
q0 10 10 10zM792 680h73q10 0 10 -10v-39q0 -10 -10 -10h-23q-6 0 -6 -6v-271q0 -6 6 -6h23q10 0 10 -10v-32q0 -10 -10 -10h-113q-10 0 -10 10v32q0 10 10 10h21q6 0 6 6v191h-2l-89 -183q-5 -10 -12 -10h-33q-7 0 -12 10l-90 186h-2v-194q0 -6 6 -6h22q10 0 10 -10v-32
q0 -10 -10 -10h-114q-10 0 -10 10v32q0 10 10 10h24q6 0 6 6v272q0 6 -6 6h-24q-10 0 -10 10v38q0 10 10 10h74q9 0 13 -9l119 -254h3l117 254q5 9 13 9z" />
    <glyph glyph-name="Omega" unicode="&#x2126;" horiz-adv-x="597" 
d="M383 691q93 0 145 -52t52 -150q0 -50 -18 -149q-21 -117 -51.5 -176t-84.5 -90v-2h75q9 0 7 -10l-8 -52q-2 -10 -10 -10h-181q-10 0 -8 10l9 53q1 9 11 12q65 21 100 81t57 184q17 91 17 140q0 63 -31.5 98t-93.5 35q-109 0 -159 -103q-27 -54 -48 -170q-14 -78 -14 -125
q0 -113 78 -140q8 -3 7 -12l-9 -53q-2 -10 -11 -10h-178q-11 0 -9 10l8 52q2 10 11 10h78l1 2q-59 42 -59 138q0 49 14 128q24 133 52 194q74 157 251 157z" />
    <glyph glyph-name="estimated" unicode="&#x212e;" horiz-adv-x="830" 
d="M415 671q156 0 267 -99.5t111 -247.5h-608q-10 0 -10 -11v-197q47 -51 110 -78.5t130 -27.5q73 0 139 32.5t113 88.5h57q-56 -68 -138 -105t-171 -37q-100 0 -186 42.5t-139.5 121.5t-53.5 177q0 145 110.5 243t268.5 98zM415 650q-70 0 -133 -28.5t-107 -78.5v-185
q0 -11 10 -11h461q9 0 9 11v184q-44 51 -108 79.5t-132 28.5z" />
    <glyph glyph-name="partialdiff" unicode="&#x2202;" horiz-adv-x="511" 
d="M315 691q88 0 133 -59.5t45 -165.5q0 -72 -18.5 -157t-50.5 -154q-79 -166 -232 -166q-73 0 -114.5 46.5t-41.5 120.5q0 105 65.5 182.5t168.5 77.5q94 0 135 -72h1q11 60 11 106q0 79 -29 124t-87 45q-52 0 -115 -42q-8 -5 -12 3l-20 43q-3 8 4 14q77 54 157 54z
M271 349q-70 0 -114.5 -54t-44.5 -127q0 -48 26 -76.5t72 -28.5q62 0 108.5 56.5t73.5 158.5q-43 71 -121 71z" />
    <glyph glyph-name="Delta" unicode="&#x2206;" horiz-adv-x="585" 
d="M347 680h59q9 0 11 -10l107 -660q2 -10 -8 -10h-521q-11 0 -6 10l344 660q5 10 14 10zM360 554h-3l-248 -478q-3 -6 3 -6h317q7 0 6 6z" />
    <glyph glyph-name="product" unicode="&#x220f;" horiz-adv-x="652" 
d="M49 740h567q10 0 10 -10v-52q0 -10 -10 -10h-53q-6 0 -6 -6v-832q0 -10 -10 -10h-62q-10 0 -10 10v831q0 6 -6 6h-273q-6 0 -6 -6v-831q0 -10 -10 -10h-62q-10 0 -10 10v832q0 6 -6 6h-53q-10 0 -10 10v52q0 10 10 10z" />
    <glyph glyph-name="summation" unicode="&#x2211;" horiz-adv-x="534" 
d="M68 740h422q10 0 10 -10v-139q0 -10 -10 -10h-57q-10 0 -10 10v65q0 6 -6 6h-265l183 -328q4 -7 1 -15l-194 -421h285q6 0 6 6v65q0 10 10 10h57q10 0 10 -10v-139q0 -10 -10 -10h-436q-10 0 -10 10v59q0 5 2 9l193 422l-188 339q-3 6 -3 11v60q0 10 10 10z" />
    <glyph glyph-name="minus" unicode="&#x2212;" horiz-adv-x="517" 
d="M76 312h397q10 0 10 -10v-52q0 -10 -10 -10h-397q-10 0 -10 10v52q0 10 10 10z" />
    <glyph glyph-name="uni2215" unicode="&#x2215;" horiz-adv-x="218" 
d="M364 691h44q4 0 5.5 -3t-1.5 -7l-498 -682q-7 -10 -16 -10h-45q-5 0 -6 3t2 7l499 682q7 10 16 10z" />
    <glyph glyph-name="uni2219" unicode="&#x2219;" horiz-adv-x="226" 
d="M96 316h70q11 0 9 -10l-14 -82q-2 -10 -11 -10h-70q-11 0 -9 10l14 82q2 10 11 10z" />
    <glyph glyph-name="radical" unicode="&#x221a;" horiz-adv-x="621" 
d="M619 740h51q4 0 6 -3t0 -7l-398 -900q-5 -10 -13 -10h-48q-8 0 -11 10l-84 284q-2 6 -8 3l-68 -32q-9 -4 -12 4l-13 42q-3 9 6 13l131 60q10 5 12 -4l77 -276h3l355 806q4 10 14 10z" />
    <glyph glyph-name="infinity" unicode="&#x221e;" horiz-adv-x="767" 
d="M567 406q68 0 112.5 -44t44.5 -115q0 -70 -44 -114.5t-112 -44.5q-91 0 -185 110q-97 -110 -185 -110q-67 0 -111 44t-44 115q0 70 44 114.5t112 44.5q46 0 89 -27t94 -86q54 61 96 87t89 26zM202 347q-46 0 -72 -28t-26 -71q0 -44 27 -73t71 -29q31 0 63 23.5t78 77.5
q-47 55 -78 77.5t-63 22.5zM565 347q-33 0 -64.5 -23t-77.5 -79q47 -56 78 -77.5t64 -21.5q45 0 71.5 30t26.5 72q0 43 -26 71t-72 28z" />
    <glyph glyph-name="integral" unicode="&#x222b;" horiz-adv-x="392" 
d="M384 740q27 0 38 -2q8 -2 7 -10l-8 -52q-2 -12 -11 -10q-20 2 -28 2q-34 0 -54 -24t-30 -78l-98 -553q-18 -103 -58 -147.5t-110 -45.5q-18 0 -38 2q-9 2 -8 10l9 52q2 12 11 10q10 -1 28 -1q66 0 84 102l98 553q18 102 58 146.5t110 45.5z" />
    <glyph glyph-name="approxequal" unicode="&#x2248;" horiz-adv-x="517" 
d="M173 439q47 0 101 -38q43 -28 71 -28q43 0 76 53q5 8 14 2l33 -20q8 -5 3 -14q-19 -41 -52.5 -64.5t-74.5 -23.5q-48 0 -101 37q-44 29 -71 29q-45 0 -77 -54q-5 -8 -13 -2l-34 21q-8 5 -3 14q20 41 53.5 64.5t74.5 23.5zM173 246q45 0 101 -37q44 -29 71 -29q44 0 76 54
q5 8 14 2l33 -21q8 -5 3 -14q-19 -41 -52.5 -64.5t-74.5 -23.5q-46 0 -101 38q-40 28 -71 28q-44 0 -77 -53q-4 -7 -13 -2l-34 20q-8 5 -3 14q20 41 53.5 64.5t74.5 23.5z" />
    <glyph glyph-name="notequal" unicode="&#x2260;" horiz-adv-x="517" 
d="M364 521h46q11 0 5 -10l-53 -100h95q10 0 10 -10v-53q0 -10 -10 -10h-133l-65 -124h198q10 0 10 -10v-53q0 -10 -10 -10h-237l-52 -100q-4 -10 -15 -10h-46q-11 0 -5 10l52 100h-94q-10 0 -10 10v53q0 10 10 10h133l65 124h-198q-10 0 -10 10v53q0 10 10 10h236l53 100
q4 10 15 10z" />
    <glyph glyph-name="lessequal" unicode="&#x2264;" horiz-adv-x="517" 
d="M60 375l397 162q10 3 10 -6v-59q0 -9 -10 -13l-304 -118v-2l304 -118q10 -4 10 -13v-60q0 -9 -10 -6l-397 162q-10 3 -10 14v44q0 10 10 13zM60 73h397q10 0 10 -10v-53q0 -10 -10 -10h-397q-10 0 -10 10v53q0 10 10 10z" />
    <glyph glyph-name="greaterequal" unicode="&#x2265;" horiz-adv-x="517" 
d="M70 537l397 -162q10 -3 10 -13v-44q0 -11 -10 -14l-397 -162q-10 -3 -10 6v60q0 9 10 13l303 118v2l-303 118q-10 4 -10 13v59q0 9 10 6zM70 73h397q10 0 10 -10v-53q0 -10 -10 -10h-397q-10 0 -10 10v53q0 10 10 10z" />
    <glyph glyph-name="lozenge" unicode="&#x25ca;" horiz-adv-x="538" 
d="M331 710h52q8 0 11 -10l106 -364q1 -7 -3 -14l-233 -364q-6 -10 -16 -10h-52q-8 0 -11 10l-106 364q-1 7 3 14l234 364q7 10 15 10zM346 631l-198 -309l85 -295h2l198 309l-85 295h-2z" />
    <glyph glyph-name="uniF8FF" unicode="&#xf8ff;" horiz-adv-x="477" 
d="M10 680h457q10 0 10 -10v-660q0 -10 -10 -10h-457q-10 0 -10 10v660q0 10 10 10zM422 633h-367q-6 0 -6 -6v-574q0 -6 6 -6h367q6 0 6 6v574q0 6 -6 6zM229 562q56 0 88 -29t32 -78q0 -42 -32 -87l-44 -61q-16 -23 -16 -47v-19q0 -10 -10 -10h-39q-10 0 -10 10v24
q0 32 20 60l45 61q27 38 27 65q0 26 -17 42t-46 16t-46 -12q-5 -4 -5 -10v-38q0 -10 -10 -10h-34q-10 0 -10 10v68q0 9 9 15q42 30 98 30zM205 183h45q10 0 10 -10v-49q0 -10 -10 -10h-45q-10 0 -10 10v49q0 10 10 10z" />
    <glyph glyph-name="Z.alt01" horiz-adv-x="529" 
d="M148 680h408q10 0 8 -10l-9 -55q-1 -8 -7 -15l-181 -220h90q10 0 8 -10l-9 -51q-2 -10 -12 -10h-136l-190 -231v-1h258q6 0 8 6l11 60q2 10 11 10h58q10 0 8 -10l-22 -133q-2 -10 -12 -10h-422q-10 0 -8 10l10 59q1 7 7 14l186 226h-73q-10 0 -8 10l9 51q2 10 11 10h119
l183 222v1h-242q-6 0 -8 -6l-10 -56q-2 -10 -11 -10h-58q-10 0 -8 10l22 129q2 10 11 10z" />
    <glyph glyph-name="Zacute.alt01" horiz-adv-x="529" 
d="M421 888h66q5 0 6 -3t-3 -7l-118 -107q-9 -8 -19 -8h-45q-4 0 -5.5 3t1.5 7l97 105q10 10 20 10zM148 680h408q10 0 8 -10l-9 -55q-1 -8 -7 -15l-181 -220h90q10 0 8 -10l-9 -51q-2 -10 -12 -10h-136l-190 -231v-1h258q6 0 8 6l11 60q2 10 11 10h58q10 0 8 -10l-22 -133
q-2 -10 -12 -10h-422q-10 0 -8 10l10 59q1 7 7 14l186 226h-73q-10 0 -8 10l9 51q2 10 11 10h119l183 222v1h-242q-6 0 -8 -6l-10 -56q-2 -10 -11 -10h-58q-10 0 -8 10l22 129q2 10 11 10z" />
    <glyph glyph-name="Zcaron.alt01" horiz-adv-x="529" 
d="M452 896h43q5 0 6 -3t-3 -7l-112 -124q-8 -9 -18 -9h-39q-9 0 -14 9l-69 124q-2 4 -0.5 7t5.5 3h38q9 0 17 -10l48 -75h1l76 75q10 10 21 10zM148 680h408q10 0 8 -10l-9 -55q-1 -8 -7 -15l-181 -220h90q10 0 8 -10l-9 -51q-2 -10 -12 -10h-136l-190 -231v-1h258q6 0 8 6
l11 60q2 10 11 10h58q10 0 8 -10l-22 -133q-2 -10 -12 -10h-422q-10 0 -8 10l10 59q1 7 7 14l186 226h-73q-10 0 -8 10l9 51q2 10 11 10h119l183 222v1h-242q-6 0 -8 -6l-10 -56q-2 -10 -11 -10h-58q-10 0 -8 10l22 129q2 10 11 10z" />
    <glyph glyph-name="Zdotaccent.alt01" horiz-adv-x="529" 
d="M334 868h66q10 0 8 -10l-12 -70q-2 -10 -11 -10h-66q-10 0 -8 10l12 70q2 10 11 10zM148 680h408q10 0 8 -10l-9 -55q-1 -8 -7 -15l-181 -220h90q10 0 8 -10l-9 -51q-2 -10 -12 -10h-136l-190 -231v-1h258q6 0 8 6l11 60q2 10 11 10h58q10 0 8 -10l-22 -133
q-2 -10 -12 -10h-422q-10 0 -8 10l10 59q1 7 7 14l186 226h-73q-10 0 -8 10l9 51q2 10 11 10h119l183 222v1h-242q-6 0 -8 -6l-10 -56q-2 -10 -11 -10h-58q-10 0 -8 10l22 129q2 10 11 10z" />
    <glyph glyph-name="a.alt01" horiz-adv-x="540" 
d="M271 490q95 0 123 -69h1l9 48q2 10 10 10h122q10 0 8 -10l-9 -52q-1 -10 -11 -10h-46q-6 0 -7 -7l-57 -321q-1 -7 5 -7h45q11 0 9 -10l-9 -52q-2 -10 -12 -10h-122q-10 0 -8 10l8 47h-1q-51 -68 -143 -68q-67 0 -103.5 42t-36.5 116q0 52 14.5 121.5t34.5 110.5
q54 111 176 111zM281 418q-78 0 -116 -77q-15 -30 -26 -85.5t-11 -93.5q0 -100 89 -100q79 0 119 78q12 25 24 84.5t12 94.5q0 46 -23 72.5t-68 26.5z" />
    <glyph glyph-name="aacute.alt01" horiz-adv-x="540" 
d="M372 700h62q5 0 6 -3.5t-3 -7.5l-109 -122q-9 -10 -20 -10h-42q-12 0 -5 10l92 123q7 10 19 10zM271 490q95 0 123 -69h1l9 48q2 10 10 10h122q10 0 8 -10l-9 -52q-1 -10 -11 -10h-46q-6 0 -7 -7l-57 -321q-1 -7 5 -7h45q11 0 9 -10l-9 -52q-2 -10 -12 -10h-122
q-10 0 -8 10l8 47h-1q-51 -68 -143 -68q-67 0 -103.5 42t-36.5 116q0 52 14.5 121.5t34.5 110.5q54 111 176 111zM281 418q-78 0 -116 -77q-15 -30 -26 -85.5t-11 -93.5q0 -100 89 -100q79 0 119 78q12 25 24 84.5t12 94.5q0 46 -23 72.5t-68 26.5z" />
    <glyph glyph-name="abreve.alt01" horiz-adv-x="540" 
d="M420 684h32q10 0 7 -10q-15 -50 -54.5 -80.5t-93.5 -30.5q-51 0 -80 27.5t-29 72.5v11q1 10 10 10h31q10 0 11 -10q5 -54 66 -54t87 54q4 10 13 10zM271 490q95 0 123 -69h1l9 48q2 10 10 10h122q10 0 8 -10l-9 -52q-1 -10 -11 -10h-46q-6 0 -7 -7l-57 -321q-1 -7 5 -7
h45q11 0 9 -10l-9 -52q-2 -10 -12 -10h-122q-10 0 -8 10l8 47h-1q-51 -68 -143 -68q-67 0 -103.5 42t-36.5 116q0 52 14.5 121.5t34.5 110.5q54 111 176 111zM281 418q-78 0 -116 -77q-15 -30 -26 -85.5t-11 -93.5q0 -100 89 -100q79 0 119 78q12 25 24 84.5t12 94.5
q0 46 -23 72.5t-68 26.5z" />
    <glyph glyph-name="acircumflex.alt01" horiz-adv-x="540" 
d="M317 700h39q10 0 14 -9l69 -124q6 -10 -5 -10h-38q-10 0 -16 10l-49 75h-1l-76 -75q-9 -10 -20 -10h-44q-4 0 -5 3t2 7l112 124q8 9 18 9zM271 490q95 0 123 -69h1l9 48q2 10 10 10h122q10 0 8 -10l-9 -52q-1 -10 -11 -10h-46q-6 0 -7 -7l-57 -321q-1 -7 5 -7h45
q11 0 9 -10l-9 -52q-2 -10 -12 -10h-122q-10 0 -8 10l8 47h-1q-51 -68 -143 -68q-67 0 -103.5 42t-36.5 116q0 52 14.5 121.5t34.5 110.5q54 111 176 111zM281 418q-78 0 -116 -77q-15 -30 -26 -85.5t-11 -93.5q0 -100 89 -100q79 0 119 78q12 25 24 84.5t12 94.5
q0 46 -23 72.5t-68 26.5z" />
    <glyph glyph-name="adieresis.alt01" horiz-adv-x="540" 
d="M213 680h55q10 0 8 -10l-12 -69q-2 -10 -11 -10h-56q-10 0 -8 10l13 69q2 10 11 10zM403 680h55q10 0 8 -10l-12 -69q-2 -10 -11 -10h-56q-10 0 -8 10l13 69q2 10 11 10zM271 490q95 0 123 -69h1l9 48q2 10 10 10h122q10 0 8 -10l-9 -52q-1 -10 -11 -10h-46q-6 0 -7 -7
l-57 -321q-1 -7 5 -7h45q11 0 9 -10l-9 -52q-2 -10 -12 -10h-122q-10 0 -8 10l8 47h-1q-51 -68 -143 -68q-67 0 -103.5 42t-36.5 116q0 52 14.5 121.5t34.5 110.5q54 111 176 111zM281 418q-78 0 -116 -77q-15 -30 -26 -85.5t-11 -93.5q0 -100 89 -100q79 0 119 78
q12 25 24 84.5t12 94.5q0 46 -23 72.5t-68 26.5z" />
    <glyph glyph-name="agrave.alt01" horiz-adv-x="540" 
d="M203 700h58q10 0 14 -10l52 -123q3 -10 -8 -10h-41q-10 0 -16 10l-66 123q-2 4 0 7t7 3zM271 490q95 0 123 -69h1l9 48q2 10 10 10h122q10 0 8 -10l-9 -52q-1 -10 -11 -10h-46q-6 0 -7 -7l-57 -321q-1 -7 5 -7h45q11 0 9 -10l-9 -52q-2 -10 -12 -10h-122q-10 0 -8 10
l8 47h-1q-51 -68 -143 -68q-67 0 -103.5 42t-36.5 116q0 52 14.5 121.5t34.5 110.5q54 111 176 111zM281 418q-78 0 -116 -77q-15 -30 -26 -85.5t-11 -93.5q0 -100 89 -100q79 0 119 78q12 25 24 84.5t12 94.5q0 46 -23 72.5t-68 26.5z" />
    <glyph glyph-name="amacron.alt01" horiz-adv-x="540" 
d="M207 666h244q10 0 8 -10l-7 -41q-2 -10 -11 -10h-244q-10 0 -8 10l7 41q2 10 11 10zM271 490q95 0 123 -69h1l9 48q2 10 10 10h122q10 0 8 -10l-9 -52q-1 -10 -11 -10h-46q-6 0 -7 -7l-57 -321q-1 -7 5 -7h45q11 0 9 -10l-9 -52q-2 -10 -12 -10h-122q-10 0 -8 10l8 47h-1
q-51 -68 -143 -68q-67 0 -103.5 42t-36.5 116q0 52 14.5 121.5t34.5 110.5q54 111 176 111zM281 418q-78 0 -116 -77q-15 -30 -26 -85.5t-11 -93.5q0 -100 89 -100q79 0 119 78q12 25 24 84.5t12 94.5q0 46 -23 72.5t-68 26.5z" />
    <glyph glyph-name="aogonek.alt01" horiz-adv-x="540" 
d="M271 490q95 0 123 -69h1l9 48q2 10 10 10h122q10 0 8 -10l-9 -52q-1 -10 -11 -10h-46q-6 0 -7 -7l-57 -321q-1 -7 5 -7h45q11 0 9 -10l-9 -52q-2 -10 -12 -10h-59q-54 -33 -76 -55t-22 -42q0 -21 22 -21q11 0 27 8q9 4 12 -3l11 -34q3 -7 -5 -13q-32 -20 -67 -20
q-30 0 -49 16.5t-19 46.5q0 37 28 71t66 51l9 52h-1q-51 -68 -143 -68q-67 0 -103.5 42t-36.5 116q0 52 14.5 121.5t34.5 110.5q54 111 176 111zM281 418q-78 0 -116 -77q-15 -30 -26 -85.5t-11 -93.5q0 -100 89 -100q79 0 119 78q12 25 24 84.5t12 94.5q0 46 -23 72.5
t-68 26.5z" />
    <glyph glyph-name="aring.alt01" horiz-adv-x="540" 
d="M333 722q34 0 55 -21t21 -55q0 -45 -30.5 -77.5t-77.5 -32.5q-34 0 -54.5 21t-20.5 55q0 45 30 77.5t77 32.5zM326 683q-25 0 -42.5 -18.5t-17.5 -46.5q0 -19 11.5 -31t30.5 -12q25 0 42.5 18.5t17.5 46.5q0 19 -11 31t-31 12zM271 490q95 0 123 -69h1l9 48q2 10 10 10
h122q10 0 8 -10l-9 -52q-1 -10 -11 -10h-46q-6 0 -7 -7l-57 -321q-1 -7 5 -7h45q11 0 9 -10l-9 -52q-2 -10 -12 -10h-122q-10 0 -8 10l8 47h-1q-51 -68 -143 -68q-67 0 -103.5 42t-36.5 116q0 52 14.5 121.5t34.5 110.5q54 111 176 111zM281 418q-78 0 -116 -77
q-15 -30 -26 -85.5t-11 -93.5q0 -100 89 -100q79 0 119 78q12 25 24 84.5t12 94.5q0 46 -23 72.5t-68 26.5z" />
    <glyph glyph-name="atilde.alt01" horiz-adv-x="540" 
d="M274 682q28 0 58 -21q29 -18 48 -18q30 0 65 32q3 3 6 2t2 -5l-7 -46q-3 -10 -11 -17q-31 -29 -69 -29q-30 0 -58 20q-26 18 -48 18q-31 0 -65 -32q-3 -3 -6 -1.5t-2 4.5l7 46q2 10 11 17q31 30 69 30zM271 490q95 0 123 -69h1l9 48q2 10 10 10h122q10 0 8 -10l-9 -52
q-1 -10 -11 -10h-46q-6 0 -7 -7l-57 -321q-1 -7 5 -7h45q11 0 9 -10l-9 -52q-2 -10 -12 -10h-122q-10 0 -8 10l8 47h-1q-51 -68 -143 -68q-67 0 -103.5 42t-36.5 116q0 52 14.5 121.5t34.5 110.5q54 111 176 111zM281 418q-78 0 -116 -77q-15 -30 -26 -85.5t-11 -93.5
q0 -100 89 -100q79 0 119 78q12 25 24 84.5t12 94.5q0 46 -23 72.5t-68 26.5z" />
    <glyph glyph-name="germandbls.alt01" horiz-adv-x="541" 
d="M306 680h37q10 0 8 -10l-8 -53q-2 -10 -12 -10h-27q-43 0 -60.5 -15.5t-24.5 -60.5l-8 -46q-1 -6 5 -6h289q11 0 9 -10l-8 -49q-2 -10 -7 -15l-136 -152v-1q45 -20 71 -61.5t26 -94.5q0 -121 -82 -199t-216 -78q-10 0 -8 10l9 53q2 10 12 10q88 0 146 53.5t58 140.5
q0 91 -96 113q-9 2 -8 10l8 56q1 6 9 14l114 127v2h-202q-6 0 -7 -6l-58 -323q-1 -7 5 -7h45q10 0 8 -10l-9 -52q-2 -10 -12 -10h-182q-10 0 -8 10l9 52q2 10 11 10h47q5 0 7 6l79 450q15 83 54 117.5t113 34.5z" />
    <glyph glyph-name="f_i" horiz-adv-x="595" 
d="M321 680h36q10 0 8 -10l-9 -52q-2 -10 -11 -10h-25q-43 0 -59.5 -14.5t-24.5 -59.5l-9 -49q-1 -6 4 -6h91q10 0 8 -10l-9 -52q-1 -10 -12 -10h-89q-4 0 -6 -6l-59 -323q-1 -6 4 -6h59q10 0 8 -10l-9 -52q-2 -10 -11 -10h-197q-10 0 -8 10l9 52q2 10 11 10h48q5 0 7 6
l58 323q2 6 -4 6h-41q-9 0 -7 10l9 52q2 10 10 10h41q6 0 7 6l7 43q14 83 53 117.5t112 34.5zM509 680h66q10 0 8 -10l-12 -69q-2 -10 -11 -10h-66q-10 0 -8 10l12 69q2 10 11 10zM414 479h123q10 0 8 -10l-70 -391q-1 -6 4 -6h48q10 0 8 -10l-9 -52q-2 -10 -11 -10h-186
q-10 0 -8 10l9 52q2 10 12 10h46q6 0 8 6l57 322q1 7 -5 7h-46q-10 0 -8 10l9 52q2 10 11 10z" />
    <glyph glyph-name="f_l" horiz-adv-x="579" 
d="M321 680h36q10 0 8 -10l-9 -52q-2 -10 -11 -10h-25q-43 0 -59.5 -14.5t-24.5 -59.5l-9 -49q-1 -6 4 -6h91q10 0 8 -10l-9 -52q-1 -10 -12 -10h-89q-4 0 -6 -6l-59 -323q-1 -6 4 -6h59q10 0 8 -10l-9 -52q-2 -10 -11 -10h-197q-10 0 -8 10l9 52q2 10 11 10h48q5 0 7 6
l58 323q2 6 -4 6h-41q-9 0 -7 10l9 52q2 10 10 10h41q6 0 7 6l7 43q14 83 53 117.5t112 34.5zM429 680h123q10 0 8 -10l-101 -547q-2 -14 -2 -19q0 -32 39 -32h17q10 0 8 -10l-8 -54q-2 -10 -12 -10h-32q-48 0 -70.5 20.5t-22.5 62.5q0 21 4 41l88 479q1 7 -5 7h-46
q-10 0 -8 10l9 52q2 10 11 10z" />
    <glyph glyph-name="zero.alt01" horiz-adv-x="517" 
d="M340 691q74 0 116.5 -42t42.5 -114q0 -58 -29.5 -217t-51.5 -205q-59 -124 -196 -124q-75 0 -117.5 42t-42.5 114q0 58 29.5 217t51.5 205q61 124 197 124zM330 618q-76 0 -111 -71q-19 -37 -47.5 -192t-28.5 -209l261 440q-24 32 -74 32zM418 536l-261 -442
q22 -32 74 -32q76 0 112 72q19 38 47 190.5t28 211.5z" />
    <glyph glyph-name="six.alt01" horiz-adv-x="517" 
d="M360 691q81 0 142 -41q7 -6 6 -14l-19 -105q-2 -10 -10 -10h-57q-11 0 -9 10l11 61q1 7 -4 10q-28 15 -69 15q-121 0 -145 -137l-16 -95h1q44 56 127 56q70 0 110 -36t40 -104q0 -40 -12 -100.5t-29 -94.5q-57 -117 -198 -117q-73 0 -115 38.5t-42 112.5q0 30 8 75
l46 262q37 214 234 214zM296 368q-81 0 -116 -72q-11 -23 -19.5 -70.5t-8.5 -76.5q0 -41 23 -63.5t66 -22.5q81 0 115 72q13 24 21 70t8 77q0 40 -23 63t-66 23z" />
    <glyph glyph-name="seven.alt01" horiz-adv-x="517" 
d="M158 680h347q11 0 9 -10l-10 -56q-2 -8 -5 -13l-129 -232h59q10 0 8 -10l-9 -52q-2 -10 -11 -10h-87l-160 -288q-5 -9 -16 -9h-61q-10 0 -4 11l159 286h-98q-10 0 -8 10l9 52q2 10 11 10h126l131 236v2h-202q-5 0 -7 -6l-13 -73q-2 -10 -11 -10h-56q-10 0 -8 10l25 142
q2 10 11 10z" />
    <glyph glyph-name="nine.alt01" horiz-adv-x="517" 
d="M335 691q73 0 115 -38.5t42 -112.5q0 -30 -8 -75l-46 -262q-37 -214 -236 -214q-85 0 -149 43q-7 4 -6 14l19 105q2 10 11 10h56q11 0 9 -10l-11 -62q-1 -6 5 -10q28 -16 76 -16q121 0 145 137l16 96h-1q-45 -57 -126 -57q-70 0 -110 36t-40 104q0 40 12 101t28 94
q57 117 199 117zM323 617q-81 0 -115 -72q-13 -24 -21 -70t-8 -77q0 -40 23 -63t66 -23q81 0 116 72q11 23 19 70.5t8 76.5q0 86 -88 86z" />
    <glyph glyph-name="zero.alt02" horiz-adv-x="466" 
d="M332 691q74 0 116.5 -42t42.5 -114q0 -58 -29.5 -217t-51.5 -205q-59 -124 -196 -124q-75 0 -117.5 42t-42.5 114q0 58 29.5 217t51.5 205q61 124 197 124zM322 618q-76 0 -111 -71q-19 -37 -47.5 -192t-28.5 -209l261 440q-24 32 -74 32zM410 536l-261 -442
q22 -32 74 -32q76 0 112 72q19 38 47 190.5t28 211.5z" />
    <glyph glyph-name="six.alt02" horiz-adv-x="441" 
d="M335 691q81 0 142 -41q7 -6 6 -14l-19 -105q-2 -10 -10 -10h-57q-11 0 -9 10l11 61q1 7 -4 10q-28 15 -69 15q-121 0 -145 -137l-16 -95h1q44 56 127 56q70 0 110 -36t40 -104q0 -40 -12 -100.5t-29 -94.5q-57 -117 -198 -117q-73 0 -115 38.5t-42 112.5q0 30 8 75
l46 262q37 214 234 214zM271 368q-81 0 -116 -72q-11 -23 -19.5 -70.5t-8.5 -76.5q0 -41 23 -63.5t66 -22.5q81 0 115 72q13 24 21 70t8 77q0 40 -23 63t-66 23z" />
    <glyph glyph-name="seven.alt02" horiz-adv-x="391" 
d="M147 680h347q11 0 9 -10l-10 -56q-2 -8 -5 -13l-129 -232h59q10 0 8 -10l-9 -52q-2 -10 -11 -10h-87l-160 -288q-5 -9 -16 -9h-61q-10 0 -4 11l159 286h-98q-10 0 -8 10l9 52q2 10 11 10h126l131 236v2h-202q-6 0 -7 -6l-13 -73q-2 -10 -11 -10h-56q-10 0 -8 10l25 142
q2 10 11 10z" />
    <glyph glyph-name="nine.alt02" horiz-adv-x="436" 
d="M309 691q73 0 115 -38.5t42 -112.5q0 -30 -8 -75l-46 -262q-37 -214 -236 -214q-85 0 -149 43q-7 4 -6 14l19 105q2 10 11 10h56q11 0 9 -10l-11 -62q-1 -6 5 -10q28 -16 76 -16q121 0 145 137l16 96h-1q-45 -57 -126 -57q-70 0 -110 36t-40 104q0 40 12 101t28 94
q57 117 199 117zM297 617q-81 0 -115 -72q-13 -24 -21 -70t-8 -77q0 -40 23 -63t66 -23q81 0 116 72q11 23 19 70.5t8 76.5q0 86 -88 86z" />
    <glyph glyph-name="zero.lf" horiz-adv-x="466" 
d="M332 691q74 0 116.5 -41.5t42.5 -113.5q0 -58 -29.5 -217.5t-51.5 -205.5q-59 -124 -196 -124q-75 0 -117.5 41.5t-42.5 113.5q0 58 29.5 217.5t51.5 205.5q61 124 197 124zM322 618q-76 0 -111 -71q-19 -37 -47.5 -191.5t-28.5 -205.5q0 -40 22.5 -64t65.5 -24
q76 0 112 72q19 37 47 191t28 205q0 40 -22.5 64t-65.5 24z" />
    <glyph glyph-name="one.lf" horiz-adv-x="395" 
d="M239 680h54q10 0 8 -10l-105 -592q-2 -6 5 -6h110q10 0 8 -10l-9 -52q-2 -10 -10 -10h-311q-10 0 -8 10l9 52q2 10 10 10h110q6 0 7 6l89 501h-1l-130 -81q-5 -3 -8 -1t-2 8l12 71q2 10 9 14l134 84q12 6 19 6z" />
    <glyph glyph-name="two.lf" horiz-adv-x="398" 
d="M262 691q75 0 119 -42t44 -108q0 -53 -23 -99t-73 -99l-251 -269v-1h197q7 0 8 6l11 65q2 10 11 10h58q10 0 8 -10l-23 -134q-2 -10 -11 -10h-363q-11 0 -9 10l8 49q2 9 8 15l290 313q72 78 72 143q0 41 -24.5 64t-68.5 23q-48 0 -87 -22q-5 -3 -7 -9l-13 -71
q-2 -10 -11 -10h-57q-11 0 -9 10l21 115q1 8 9 13q76 48 166 48z" />
    <glyph glyph-name="three.lf" horiz-adv-x="433" 
d="M283 691q78 0 122 -38t44 -107q0 -60 -30 -109.5t-83 -76.5v-2q30 -13 49.5 -46.5t19.5 -81.5q0 -106 -63.5 -173.5t-165.5 -67.5q-49 0 -94.5 13.5t-68.5 32.5q-7 7 -6 16l19 103q2 10 10 10h57q10 0 8 -10l-10 -60q-1 -6 4 -10q32 -21 89 -21q61 0 100 43.5t39 108.5
q0 46 -27 73.5t-74 27.5h-28q-10 0 -8 10l9 54q1 9 11 9h28q57 0 95 41.5t38 98.5q0 43 -25.5 65.5t-71.5 22.5q-47 0 -83 -20q-6 -3 -7 -9l-12 -71q-2 -10 -12 -10h-57q-10 0 -8 10l20 116q1 7 9 12q73 46 163 46z" />
    <glyph glyph-name="four.lf" horiz-adv-x="508" 
d="M339 680h62q10 0 5 -9l-288 -475v-2h170q6 0 8 6l32 180q2 10 11 10h60q11 0 9 -10l-32 -180q-1 -6 5 -6h60q10 0 8 -10l-9 -53q-2 -9 -12 -9h-60q-6 0 -7 -6l-19 -106q-2 -10 -11 -10h-60q-10 0 -8 10l19 106q2 6 -5 6h-252q-9 0 -8 9l8 51q1 6 6 14l293 476q5 8 15 8z
" />
    <glyph glyph-name="five.lf" horiz-adv-x="402" 
d="M139 680h324q11 0 9 -10l-9 -53q-2 -10 -11 -10h-257q-5 0 -7 -6l-35 -199h2q44 46 116 46q68 0 104.5 -36.5t36.5 -107.5q0 -42 -12 -104t-30 -100q-54 -111 -195 -111q-102 0 -156 43q-7 6 -6 15l19 106q2 10 11 10h56q11 0 9 -10l-11 -63q-1 -7 4 -10q30 -17 83 -17
q81 0 116 68q13 28 22.5 75.5t9.5 78.5q0 90 -85 90q-37 0 -66 -19t-42 -47q-4 -10 -13 -10h-54q-9 0 -8 10l64 361q2 10 11 10z" />
    <glyph glyph-name="six.lf" horiz-adv-x="493" 
d="M347 680h64q10 0 5 -10l-196 -284l2 -1q22 16 70 16q68 0 110.5 -42.5t42.5 -114.5q0 -107 -66 -181t-171 -74q-77 0 -123 44t-46 120q0 95 71 198l223 322q5 7 14 7zM265 329q-63 0 -104.5 -48.5t-41.5 -116.5q0 -46 26.5 -73.5t71.5 -27.5q63 0 105 48.5t42 115.5
q0 46 -26.5 74t-72.5 28z" />
    <glyph glyph-name="seven.lf" horiz-adv-x="402" 
d="M164 680h347q11 0 9 -10l-10 -56q-1 -7 -5 -13l-329 -592q-5 -9 -16 -9h-61q-10 0 -4 11l330 594v2h-202q-5 0 -7 -6l-16 -87q-2 -10 -11 -10h-56q-10 0 -8 10l28 156q2 10 11 10z" />
    <glyph glyph-name="eight.lf" horiz-adv-x="465" 
d="M325 691q74 0 116 -42.5t42 -108.5q0 -56 -28.5 -105t-77.5 -77l-1 -2q68 -39 68 -129q0 -99 -66.5 -168.5t-170.5 -69.5q-79 0 -126 44t-47 116q0 66 33.5 123t92.5 86l1 2q-54 35 -54 111q0 87 59 153.5t159 66.5zM315 617q-54 0 -91 -39.5t-37 -95.5q0 -39 23.5 -63.5
t63.5 -24.5q54 0 91.5 39.5t37.5 96.5q0 38 -23.5 62.5t-64.5 24.5zM262 321q-62 0 -105 -46t-43 -112q0 -45 27.5 -72.5t74.5 -27.5q62 0 105 45.5t43 111.5q0 45 -27.5 73t-74.5 28z" />
    <glyph glyph-name="nine.lf" horiz-adv-x="497" 
d="M373 691q77 0 123 -44t46 -120q0 -93 -72 -197l-223 -323q-6 -7 -14 -7h-63q-12 0 -6 10l195 284l-2 1q-21 -15 -68 -15q-68 0 -111 45t-43 117q0 101 65.5 175t172.5 74zM363 617q-63 0 -104.5 -48.5t-41.5 -114.5q0 -47 26.5 -75t72.5 -28q63 0 104.5 49t41.5 114
q0 47 -26 75t-73 28z" />
    <glyph glyph-name="zero.osf" horiz-adv-x="552" 
d="M323 489q89 0 141.5 -55t52.5 -145q0 -126 -78 -213t-202 -87q-89 0 -141.5 55.5t-52.5 144.5q0 126 77.5 213t202.5 87zM311 415q-81 0 -135 -64t-54 -148q0 -63 33 -101t94 -38q81 0 135 63.5t54 148.5q0 63 -33 101t-94 38z" />
    <glyph glyph-name="one.osf" horiz-adv-x="416" 
d="M224 479h56q10 0 8 -10l-69 -391q-1 -6 5 -6h129q10 0 8 -10l-8 -52q-2 -10 -11 -10h-350q-10 0 -8 10l9 52q2 10 11 10h130q6 0 7 6l56 314h-2l-144 -58q-5 -2 -7.5 0t-1.5 7l10 59q1 9 10 13l143 61q10 5 19 5z" />
    <glyph glyph-name="two.osf" horiz-adv-x="445" 
d="M252 489q80 0 123 -38.5t43 -101.5t-33.5 -107.5t-111.5 -88.5l-137 -78v-2h225q10 0 8 -10l-9 -53q-2 -10 -11 -10h-355q-11 0 -9 10l8 49q2 10 9 14l218 127q65 38 91 69t26 71q0 35 -24.5 56t-70.5 21q-54 0 -93 -24q-6 -4 -8 -10l-10 -63q-2 -10 -12 -10h-57
q-10 0 -8 10l20 110q2 8 9 12q75 47 169 47z" />
    <glyph glyph-name="three.osf" horiz-adv-x="402" 
d="M58 479h336q11 0 9 -10l-9 -51q-1 -7 -7 -14l-179 -194v-2q64 -5 100 -44t36 -102q0 -110 -64 -181.5t-172 -71.5q-97 0 -160 44q-6 5 -5 15l18 106q2 10 10 10h57q11 0 9 -10l-11 -62q-1 -7 4 -11q33 -18 86 -18q70 0 110.5 46t40.5 114q0 99 -121 99h-28q-10 0 -8 10
l9 52q1 8 9 16l169 183v3h-178q-7 0 -8 -6l-12 -67q-2 -10 -11 -10h-56q-10 0 -8 10l23 136q2 10 11 10z" />
    <glyph glyph-name="four.osf" horiz-adv-x="498" 
d="M261 479h62q11 0 6 -9l-248 -395l-1 -2h167q5 0 7 6l30 172q2 10 11 10h61q9 0 7 -10l-30 -172q-1 -6 5 -6h60q10 0 8 -10l-8 -53q-2 -10 -10 -10h-62q-6 0 -8 -6l-29 -164q-2 -10 -12 -10h-58q-10 0 -8 10l29 164q2 6 -4 6h-246q-10 0 -8 10l9 51q2 8 5 13l251 397
q5 8 14 8z" />
    <glyph glyph-name="five.osf" horiz-adv-x="386" 
d="M81 479h326q11 0 9 -10l-10 -53q-2 -10 -12 -10h-255q-5 0 -7 -6l-35 -193h2q44 46 116 46q68 0 105 -36.5t37 -107.5q0 -40 -11 -95.5t-29 -93.5q-54 -111 -194 -111q-99 0 -157 42q-6 4 -5 15l18 107q2 10 10 10h57q11 0 9 -10l-11 -63q-1 -7 4 -10q28 -17 83 -17
q81 0 115 68q31 64 31 139q0 90 -86 90q-37 0 -66 -19t-42 -47q-4 -10 -12 -10h-55q-9 0 -8 10l63 355q2 10 10 10z" />
    <glyph glyph-name="six.osf" horiz-adv-x="494" 
d="M347 680h64q12 0 5 -10l-196 -284l2 -1q22 16 70 16q68 0 111 -42.5t43 -114.5q0 -107 -66.5 -181t-171.5 -74q-77 0 -123 44t-46 120q0 95 71 198l224 322q5 7 13 7zM265 329q-63 0 -104.5 -49t-41.5 -116q0 -46 26.5 -73.5t72.5 -27.5q63 0 104.5 48.5t41.5 115.5
q0 46 -26.5 74t-72.5 28z" />
    <glyph glyph-name="seven.osf" horiz-adv-x="417" 
d="M104 479h348q10 0 8 -10l-9 -55q-2 -8 -5 -14l-319 -571q-5 -9 -15 -9h-61q-11 0 -5 11l319 573v2h-201q-6 0 -7 -6l-16 -87q-2 -10 -12 -10h-56q-9 0 -7 10l27 156q2 10 11 10z" />
    </font>
</defs>
</svg>
