<?xml version="1.0" encoding="utf-8"?>
<!-- Generator: Adobe Illustrator 22.0.1, SVG Export Plug-In . SVG Version: 6.00 Build 0)  -->
<svg version="1.1" id="GLYPHS" xmlns="http://www.w3.org/2000/svg" xmlns:xlink="http://www.w3.org/1999/xlink" x="0px" y="0px"
	 viewBox="0 0 260 20" style="enable-background:new 0 0 260 20;" xml:space="preserve">
<style type="text/css">
	.st0{fill:none;}
	.st1{fill:#555555;}
</style>
<g id="Mac">
	<g>
		<rect y="0" class="st0" width="260" height="20"/>
	</g>
	<g>
		<g>
			<rect x="11.5" y="10.3" class="st1" width="1.2" height="1.2"/>
			<polygon class="st1" points="8.8,11.4 10,11.4 10.3,10.3 9.1,10.3 			"/>
			<path class="st1" d="M4.1,2.2v1.1h1.7L5.5,2.2L6,2.1V2L5.9,1L5.8,0.9l-1,0.2l-1-0.2c0,0-0.1,0-0.1,0.1L3.4,2c0,0,0,0.1,0.1,0.1
				L4.1,2.2z"/>
			<path class="st1" d="M5.3,16.6H4.1V17l-0.6,0.1l-0.1,0.1l0.2,1l0.1,0.1l1-0.2l1,0.2c0,0,0.1,0,0.1-0.1l0.2-1c0,0,0-0.1-0.1-0.1
				L5.3,17V16.6z"/>
			<path class="st1" d="M12.7,13.4h-1.2V17l-0.6,0.1l-0.1,0.1l0.2,1l0.1,0.1l1-0.2l1,0.2c0,0,0.1,0,0.1-0.1l0.2-1c0,0,0-0.1-0.1-0.1
				L12.7,17V13.4z"/>
			<path class="st1" d="M14.1,11.8H5.7V13h8.4c0.5,0,1,0.4,1,1c0,0.5-0.4,1-1,1h-1v1.2h1c1.2,0,2.2-1,2.2-2.2S15.3,11.8,14.1,11.8z"
				/>
			<path class="st1" d="M2.8,13h1v-1.2h-1c-0.5,0-1-0.4-1-1c0-0.5,0.4-1,1-1h1V8.7h-1c-1.2,0-2.2,1-2.2,2.2C0.6,12,1.6,13,2.8,13z"
				/>
			<path class="st1" d="M11.1,16.2V15h-2L9,14.8l0.4-1.3h-2l0.4,1.3L7.7,15H2.2l-0.1-0.7l-1.2,0.2l0.2,1.1l-0.2,1.1l1.2,0.2l0.1-0.7
				h5.2l-0.3,1.2l0,0c-0.1,0.3,0,0.7,0.1,1C7.4,18.7,7.7,19,8,19.1c0.1,0,0.3,0.1,0.4,0.1c0.6,0,1.2-0.4,1.3-1
				c0.1-0.2,0.1-0.5,0-0.7l0,0l-0.3-1.2L11.1,16.2C11.1,16.3,11.1,16.2,11.1,16.2z M8.6,17.6v0.1c0,0,0,0,0,0.1l0,0l0,0l0,0l0,0l0,0
				l0,0l0,0c-0.1,0-0.1-0.1-0.1-0.1s0-0.1,0-0.2L8.4,17l0,0L8.6,17.6z"/>
			<polygon class="st1" points="4.1,14.6 5.3,14.6 5.3,6 6.9,11.4 8.1,11.4 6.4,5.3 4.1,5.3 			"/>
			<path class="st1" d="M15.7,2.2l0.6-0.1L16.4,2l-0.2-1l-0.1-0.1l-1,0.2l-1-0.2c0,0-0.1,0-0.1,0.1l-0.2,1c0,0,0,0.1,0.1,0.1
				l0.6,0.1v1.5h-1.4v1.2h1.4v1.5l-0.6,0.1l-0.1,0.1l0.2,1l0.1,0.1l1-0.2l1,0.2c0,0,0.1,0,0.1-0.1l0.2-1c0,0,0-0.1-0.1-0.1l-0.6-0.1
				C15.7,6.4,15.7,2.2,15.7,2.2z"/>
			<path class="st1" d="M0.5,6.6l0.2,1l0.1,0.1l1-0.2l1,0.2c0,0,0.1,0,0.1-0.1l0.2-1c0,0,0-0.1-0.1-0.1L2.4,6.4V4.9h7.8l0.3-1.2H2.4
				V2.2L3,2.1L3.1,2L2.9,1L2.8,0.9l-1,0.2l-1-0.2c0,0-0.1,0-0.1,0.1L0.5,2c0,0,0,0.1,0.1,0.1l0.6,0.1v4.2L0.5,6.6
				C0.5,6.5,0.5,6.6,0.5,6.6z"/>
			<path class="st1" d="M9.7,8.3h1.2L11.5,6v2.3h1.2V2.2l0.6-0.1L13.4,2l-0.2-1l-0.1-0.1l-1,0.2l-1-0.2c0,0-0.1,0-0.1,0.1l-0.2,1
				c0,0,0,0.1,0.1,0.1l0.5,0.1L9.7,8.3z"/>
			<path class="st1" d="M15.5,8.1l-1-0.2c0,0-0.1,0-0.1,0.1l-0.1,0.6H7.8l0.3,1.2h6.2l0.1,0.6l0.1,0.1l1-0.2l0.1-0.1l-0.2-1
				L15.5,8.1C15.6,8.2,15.6,8.1,15.5,8.1z"/>
		</g>
		<g>
			<path class="st1" d="M46.1,4.4C46.1,4.3,46.1,4.3,46.1,4.4L48,4.3c0.1,0,0.1,0,0.1,0.1V8c0,0.1,0,0.1,0.1,0.1h3.2
				c0.1,0,0.1,0,0.1-0.1V4.4c0-0.1,0-0.1,0.1-0.1h1.8c0.1,0,0.1,0,0.1,0.1v9.4c0,0.1,0,0.1-0.1,0.1h-1.8c-0.1,0-0.1,0-0.1-0.1v-3.7
				c0-0.1,0-0.1-0.1-0.1h-3.2c-0.1,0-0.1,0-0.1,0.1v3.7c0,0.1,0,0.1-0.1,0.1h-1.8c-0.1,0-0.1,0-0.1-0.1C46.1,13.8,46.1,4.4,46.1,4.4
				z"/>
			<path class="st1" d="M58.1,4.4c0-0.1,0.1-0.1,0.2-0.1h1.8c0.1,0,0.2,0,0.2,0.1l3.3,9.4c0,0.1,0,0.1-0.1,0.1h-1.9
				c-0.1,0-0.2,0-0.2-0.1l-0.6-1.7h-3.4l-0.5,1.7c0,0.1-0.1,0.1-0.2,0.1h-1.9c-0.1,0-0.1,0-0.1-0.1L58.1,4.4z M58.1,10.4h2.2L59.2,7
				l0,0L58.1,10.4z"/>
			<path class="st1" d="M64.7,4.4C64.7,4.3,64.7,4.3,64.7,4.4l1.8-0.1c0.1,0,0.2,0,0.2,0.1l2.5,5.5h0.1l2.4-5.5
				c0-0.1,0.1-0.1,0.2-0.1h1.7c0.1,0,0.1,0,0.1,0.1v9.4c0,0.1,0,0.1-0.1,0.1H72c-0.1,0-0.1,0-0.1-0.1V8.4h-0.1L70,12.5
				c-0.1,0.1-0.1,0.2-0.3,0.2h-1c-0.1,0-0.2-0.1-0.3-0.2l-1.8-4.1h-0.1v5.5c0,0.1,0,0.1-0.1,0.1h-1.6c-0.1,0-0.1,0-0.1-0.1V4.4
				L64.7,4.4z"/>
			<path class="st1" d="M78.2,4.4c0-0.1,0.1-0.1,0.2-0.1h1.8c0.1,0,0.2,0,0.2,0.1l3.3,9.4c0,0.1,0,0.1-0.1,0.1h-1.9
				c-0.1,0-0.2,0-0.2-0.1L81,12.2h-3.4L77,13.9c0,0.1,0,0.1-0.2,0.1H75c-0.1,0-0.1,0-0.1-0.1L78.2,4.4z M78.2,10.4h2.2L79.3,7l0,0
				L78.2,10.4z"/>
			<path class="st1" d="M84.8,4.4C84.8,4.3,84.8,4.3,84.8,4.4l1.8-0.1c0.1,0,0.2,0,0.2,0.1l2.5,5.5h0.1l2.4-5.5
				c0-0.1,0.1-0.1,0.2-0.1h1.7c0.1,0,0.1,0,0.1,0.1v9.4c0,0.1,0,0.1-0.1,0.1h-1.6c-0.1,0-0.1,0-0.1-0.1V8.4h-0.1l-1.8,4.1
				c-0.1,0.1-0.1,0.2-0.3,0.2h-1c-0.1,0-0.2-0.1-0.3-0.2l-1.8-4.1h-0.1v5.5c0,0.1,0,0.1-0.1,0.1h-1.6c-0.1,0-0.1,0-0.1-0.1L84.8,4.4
				L84.8,4.4z"/>
			<path class="st1" d="M96.9,13.8c-0.7-0.3-1.2-0.6-1.6-1c-0.1-0.1-0.1-0.2,0-0.2l1.1-1.2c0.1-0.1,0.1-0.1,0.2,0
				c0.8,0.7,1.7,1,2.5,1c1,0,1.6-0.5,1.6-1.2c0-0.6-0.4-0.9-1.5-1.1L98.7,10c-2-0.3-3.1-1.3-3.1-2.9c0-0.9,0.3-1.6,0.9-2.2
				C97.1,4.4,98,4.1,99,4.1c1.3,0,2.4,0.3,3.3,1c0.1,0.1,0.1,0.1,0,0.2l-0.9,1.3c-0.1,0.1-0.1,0.1-0.2,0C100.6,6.2,99.8,6,99.1,6
				c-0.8,0-1.3,0.4-1.3,1.1c0,0.6,0.4,0.9,1.5,1.1l0.5,0.1c2,0.3,3.1,1.3,3.1,2.9c0,1.8-1.4,3.1-3.8,3.1
				C98.3,14.2,97.6,14,96.9,13.8z"/>
			<path class="st1" d="M106.2,14c-0.1,0-0.1,0-0.1-0.1v-3.7l-2.9-5.7c0-0.1,0-0.1,0.1-0.1h1.9c0.1,0,0.2,0,0.2,0.1l1.8,3.5l0,0
				l1.8-3.5c0-0.1,0.1-0.1,0.2-0.1h1.8c0.1,0,0.1,0.1,0.1,0.1l-2.9,5.7v3.7c0,0.1,0,0.1-0.1,0.1H106.2z"/>
			<path class="st1" d="M115,4.4C115,4.3,115,4.3,115,4.4l1.8-0.1c0.1,0,0.2,0,0.2,0.1l2.5,5.5h0.1l2.4-5.5c0-0.1,0.1-0.1,0.2-0.1
				h1.7c0.1,0,0.1,0,0.1,0.1v9.4c0,0.1,0,0.1-0.1,0.1h-1.6c-0.1,0-0.1,0-0.1-0.1V8.4h-0.1l-1.8,4.1c-0.1,0.1-0.1,0.2-0.3,0.2h-1
				c-0.1,0-0.2-0.1-0.3-0.2L117,8.4h-0.1v5.5c0,0.1,0,0.1-0.1,0.1h-1.6c-0.1,0-0.1,0-0.1-0.1V4.4H115z"/>
			<path class="st1" d="M128.6,4.4c0-0.1,0.1-0.1,0.2-0.1h1.8c0.1,0,0.2,0,0.2,0.1l3.3,9.4c0,0.1,0,0.1-0.1,0.1h-1.9
				c-0.1,0-0.2,0-0.2-0.1l-0.6-1.7h-3.4l-0.5,1.7c0,0.1-0.1,0.1-0.2,0.1h-1.9c-0.1,0-0.1,0-0.1-0.1L128.6,4.4z M128.5,10.4h2.2
				l-1-3.4l0,0L128.5,10.4z"/>
			<path class="st1" d="M140.5,14c-0.1,0-0.2,0-0.2-0.1l-1.7-3.6h-1.3c-0.1,0-0.1,0-0.1,0.1v3.5c0,0.1,0,0.1-0.1,0.1h-1.8
				c-0.1,0-0.1,0-0.1-0.1V4.4c0-0.1,0-0.1,0.1-0.1h3.9c1,0,1.8,0.3,2.4,0.8c0.6,0.6,0.9,1.3,0.9,2.2c0,1.2-0.6,2.2-1.7,2.7l1.9,3.8
				c0,0.1,0,0.2-0.1,0.2H140.5z M139,8.5c0.8,0,1.3-0.5,1.3-1.2s-0.5-1.2-1.3-1.2h-1.7c-0.1,0-0.1,0-0.1,0.1v2.2
				c0,0.1,0,0.1,0.1,0.1C137.3,8.5,139,8.5,139,8.5z"/>
			<path class="st1" d="M144,4.4c0-0.1,0-0.1,0.1-0.1h1.8c0.1,0,0.1,0,0.1,0.1v9.4c0,0.1,0,0.1-0.1,0.1h-1.8c-0.1,0-0.1,0-0.1-0.1
				V4.4z"/>
			<path class="st1" d="M148,4.4c0-0.1,0-0.1,0.1-0.1h1.7c0.1,0,0.2,0,0.2,0.1l3.4,6.1h0.1V4.4c0-0.1,0-0.1,0.1-0.1h1.6
				c0.1,0,0.1,0,0.1,0.1v9.4c0,0.1,0,0.1-0.1,0.1h-1.7c-0.1,0-0.2,0-0.2-0.1l-3.3-6h-0.1v6.1c0,0.1,0,0.1-0.1,0.1h-1.6
				c-0.1,0-0.1,0-0.1-0.1L148,4.4L148,4.4z"/>
			<path class="st1" d="M157.4,4.4c0-0.1,0-0.1,0.1-0.1h6.2c0.1,0,0.1,0,0.1,0.1V6c0,0.1,0,0.1-0.1,0.1h-4.2c-0.1,0-0.1,0-0.1,0.1
				v1.9c0,0.1,0,0.1,0.1,0.1h3.5c0.1,0,0.1,0,0.1,0.1v1.5c0,0.1,0,0.1-0.1,0.1h-3.5c-0.1,0-0.1,0-0.1,0.1v2c0,0.1,0,0.1,0.1,0.1h4.2
				c0.1,0,0.1,0,0.1,0.1v1.5c0,0.1,0,0.1-0.1,0.1h-6.2c-0.1,0-0.1,0-0.1-0.1V4.4z"/>
			<path class="st1" d="M170,13.8c-0.7-0.3-1.2-0.6-1.6-1c-0.1-0.1-0.1-0.2,0-0.2l1.1-1.2c0.1-0.1,0.1-0.1,0.2,0
				c0.8,0.7,1.7,1,2.5,1c1,0,1.6-0.5,1.6-1.2c0-0.6-0.4-0.9-1.5-1.1l-0.5-0.1c-2-0.3-3.1-1.3-3.1-2.9c0-0.9,0.3-1.6,0.9-2.2
				c0.6-0.5,1.5-0.8,2.5-0.8c1.3,0,2.4,0.3,3.3,1c0.1,0.1,0.1,0.1,0,0.2l-0.9,1.3c-0.1,0.1-0.1,0.1-0.2,0c-0.8-0.5-1.5-0.7-2.3-0.7
				s-1.3,0.4-1.3,1.1c0,0.6,0.4,0.9,1.5,1.1l0.5,0.1c2,0.3,3.1,1.3,3.1,2.9c0,1.8-1.4,3.1-3.8,3.1C171.4,14.2,170.7,14,170,13.8z"/>
			<path class="st1" d="M177.3,4.4c0-0.1,0-0.1,0.1-0.1h6.2c0.1,0,0.1,0,0.1,0.1V6c0,0.1,0,0.1-0.1,0.1h-4.2c-0.1,0-0.1,0-0.1,0.1
				v1.9c0,0.1,0,0.1,0.1,0.1h3.5c0.1,0,0.1,0,0.1,0.1v1.5c0,0.1,0,0.1-0.1,0.1h-3.5c-0.1,0-0.1,0-0.1,0.1v2c0,0.1,0,0.1,0.1,0.1h4.2
				c0.1,0,0.1,0,0.1,0.1v1.5c0,0.1,0,0.1-0.1,0.1h-6.2c-0.1,0-0.1,0-0.1-0.1V4.4z"/>
			<path class="st1" d="M190.7,14c-0.1,0-0.2,0-0.2-0.1l-1.7-3.6h-1.3c-0.1,0-0.1,0-0.1,0.1v3.5c0,0.1,0,0.1-0.1,0.1h-1.8
				c-0.1,0-0.1,0-0.1-0.1V4.4c0-0.1,0-0.1,0.1-0.1h3.9c1,0,1.8,0.3,2.4,0.8c0.6,0.6,0.9,1.3,0.9,2.2c0,1.2-0.6,2.2-1.7,2.7l1.9,3.8
				c0,0.1,0,0.2-0.1,0.2H190.7z M189.3,8.5c0.8,0,1.3-0.5,1.3-1.2s-0.5-1.2-1.3-1.2h-1.7c-0.1,0-0.1,0-0.1,0.1v2.2
				c0,0.1,0,0.1,0.1,0.1C187.6,8.5,189.3,8.5,189.3,8.5z"/>
			<path class="st1" d="M196.6,14c-0.1,0-0.2,0-0.2-0.1l-3.1-9.4c0-0.1,0-0.2,0.1-0.2h1.9c0.1,0,0.2,0,0.2,0.1l1.9,6.4l0,0l1.9-6.4
				c0-0.1,0.1-0.1,0.2-0.1h1.8c0.1,0,0.1,0.1,0.1,0.2l-3.1,9.4c0,0.1-0.1,0.1-0.2,0.1H196.6z"/>
			<path class="st1" d="M202.6,4.4c0-0.1,0-0.1,0.1-0.1h1.8c0.1,0,0.1,0,0.1,0.1v9.4c0,0.1,0,0.1-0.1,0.1h-1.8c-0.1,0-0.1,0-0.1-0.1
				V4.4z"/>
			<path class="st1" d="M206.3,9.1c0-1.2,0.1-2.1,0.3-2.6c0.5-1.6,1.7-2.4,3.5-2.4c1.6,0,2.8,0.8,3.4,2.2c0,0.1,0,0.1-0.1,0.2
				l-1.6,0.7c-0.1,0-0.2,0-0.2-0.1C211.3,6.4,210.7,6,210,6s-1.2,0.4-1.5,1.1c-0.1,0.3-0.2,1-0.2,2.1s0.1,1.8,0.2,2.1
				c0.2,0.7,0.7,1.1,1.5,1.1c0.7,0,1.2-0.4,1.5-1.1c0-0.1,0.1-0.1,0.2-0.1l1.6,0.7c0.1,0,0.1,0.1,0.1,0.2c-0.6,1.4-1.7,2.2-3.4,2.2
				s-2.9-0.8-3.5-2.4C206.4,11.2,206.3,10.4,206.3,9.1z"/>
			<path class="st1" d="M214.8,4.4c0-0.1,0-0.1,0.1-0.1h6.2c0.1,0,0.1,0,0.1,0.1V6c0,0.1,0,0.1-0.1,0.1h-4.2c-0.1,0-0.1,0-0.1,0.1
				v1.9c0,0.1,0,0.1,0.1,0.1h3.5c0.1,0,0.1,0,0.1,0.1v1.5c0,0.1,0,0.1-0.1,0.1h-3.5c-0.1,0-0.1,0-0.1,0.1v2c0,0.1,0,0.1,0.1,0.1h4.2
				c0.1,0,0.1,0,0.1,0.1v1.5c0,0.1,0,0.1-0.1,0.1h-6.2c-0.1,0-0.1,0-0.1-0.1V4.4z"/>
			<path class="st1" d="M224.1,13.8c-0.7-0.3-1.2-0.6-1.6-1c-0.1-0.1-0.1-0.2,0-0.2l1.1-1.2c0.1-0.1,0.1-0.1,0.2,0
				c0.8,0.7,1.7,1,2.5,1c1,0,1.6-0.5,1.6-1.2c0-0.6-0.4-0.9-1.5-1.1l-0.5-0.1c-2-0.3-3.1-1.3-3.1-2.9c0-0.9,0.3-1.6,0.9-2.2
				c0.6-0.5,1.5-0.8,2.5-0.8c1.3,0,2.4,0.3,3.3,1c0.1,0.1,0.1,0.1,0,0.2l-0.9,1.3c-0.1,0.1-0.1,0.1-0.2,0C227.7,6.2,227,6,226.2,6
				s-1.3,0.4-1.3,1.1c0,0.6,0.4,0.9,1.5,1.1l0.5,0.1c2,0.3,3.1,1.3,3.1,2.9c0,1.8-1.4,3.1-3.8,3.1C225.5,14.2,224.8,14,224.1,13.8z"
				/>
			<path class="st1" d="M234.8,4.4c0-0.1,0-0.1,0.1-0.1h1.4c0.1,0,0.1,0,0.1,0.1v8c0,0.1,0,0.1,0.1,0.1h4.5c0.1,0,0.1,0,0.1,0.1v1.2
				c0,0.1,0,0.1-0.1,0.1h-6c-0.1,0-0.1,0-0.1-0.1L234.8,4.4L234.8,4.4z"/>
			<path class="st1" d="M243.5,14c-0.1,0-0.1,0-0.1-0.1v-8c0-0.1,0-0.1-0.1-0.1h-2.5c-0.1,0-0.1,0-0.1-0.1V4.4c0-0.1,0-0.1,0.1-0.1
				h6.9c0.1,0,0.1,0,0.1,0.1v1.2c0,0.1,0,0.1-0.1,0.1h-2.5c-0.1,0-0.1,0-0.1,0.1v8c0,0.1,0,0.1-0.1,0.1L243.5,14L243.5,14z"/>
			<path class="st1" d="M249.2,4.4c0-0.1,0-0.1,0.1-0.1h3.5c1.7,0,2.8,0.7,3.2,2.2c0.2,0.5,0.2,1.4,0.2,2.7s-0.1,2.2-0.2,2.7
				c-0.5,1.4-1.5,2.2-3.2,2.2h-3.5c-0.1,0-0.1,0-0.1-0.1V4.4z M250.9,12.4C250.9,12.5,250.9,12.5,250.9,12.4l1.5,0.1
				c1.1,0,1.7-0.4,2-1.2c0.1-0.3,0.2-1,0.2-2.1s-0.1-1.8-0.2-2.1c-0.3-0.8-0.9-1.2-2-1.2H251c-0.1,0-0.1,0-0.1,0.1V12.4z"/>
			<path class="st1" d="M257.8,12.4c0-0.1,0-0.1,0.1-0.1h1.4c0.1,0,0.1,0,0.1,0.1v1.5c0,0.1,0,0.1-0.1,0.1H258c-0.1,0-0.1,0-0.1-0.1
				v-1.5H257.8z"/>
			<g>
				<path class="st1" d="M26.6,4.4c0-0.1,0-0.1,0.1-0.1H33c0.1,0,0.1,0,0.1,0.1V6c0,0.1,0,0.1-0.1,0.1h-4.2c-0.1,0-0.1,0-0.1,0.1
					v1.9c0,0.1,0,0.1,0.1,0.1h3.5c0.1,0,0.1,0,0.1,0.1v1.5c0,0.1,0,0.1-0.1,0.1h-3.5c-0.1,0-0.1,0-0.1,0.1v2c0,0.1,0,0.1,0.1,0.1H33
					c0.1,0,0.1,0,0.1,0.1v1.5c0,0.1,0,0.1-0.1,0.1h-6.2c-0.1,0-0.1,0-0.1-0.1L26.6,4.4L26.6,4.4z"/>
				<path class="st1" d="M34.7,4.4C34.7,4.3,34.7,4.3,34.7,4.4l1.9-0.1c0.1,0,0.1,0,0.1,0.1V12c0,0.1,0,0.1,0.1,0.1h3.6
					c0.1,0,0.1,0,0.1,0.1v1.6c0,0.1,0,0.1-0.1,0.1h-5.6c-0.1,0-0.1,0-0.1-0.1C34.7,13.8,34.7,4.4,34.7,4.4z"/>
			</g>
		</g>
	</g>
</g>
</svg>
