<?xml version="1.0" encoding="utf-8"?>
<!-- Generator: Adobe Illustrator 22.0.1, SVG Export Plug-In . SVG Version: 6.00 Build 0)  -->
<svg version="1.1" id="GLYPHS" xmlns="http://www.w3.org/2000/svg" xmlns:xlink="http://www.w3.org/1999/xlink" x="0px" y="0px"
	 viewBox="0 0 18 48" style="enable-background:new 0 0 18 48;" xml:space="preserve">
<style type="text/css">
	.st0{fill:none;}
	.st1{fill:#555555;}
</style>
<g id="Apple_1_">
	<g>
		<rect y="0" class="st0" width="18" height="48"/>
	</g>
	<g>
		<rect x="12.4" y="24.3" class="st1" width="1.3" height="1.3"/>
		<polygon class="st1" points="9.3,25.5 10.7,25.5 11.1,24.3 9.7,24.3 		"/>
		<path class="st1" d="M4.3,15.5v1.2h1.8l-0.4-1.2l0.5-0.1c0.1,0,0.1-0.1,0.1-0.1l-0.2-1.1c0-0.1-0.1-0.1-0.1-0.1l-1,0.2l-1.1-0.2
			c-0.1,0-0.1,0-0.1,0.1l-0.2,1.1c0,0.1,0,0.1,0.1,0.1L4.3,15.5z"/>
		<path class="st1" d="M5.6,31.1H4.3v0.5l-0.7,0.1c-0.1,0-0.1,0.1-0.1,0.1l0.2,1.1C3.8,33,3.8,33,3.9,33L5,32.8L6.1,33
			c0.1,0,0.1,0,0.1-0.1l0.2-1.1c0-0.1,0-0.1-0.1-0.1l-0.7-0.1V31.1z"/>
		<path class="st1" d="M13.7,27.7h-1.3v3.9l-0.7,0.1c-0.1,0-0.1,0.1-0.1,0.1l0.2,1.1c0,0.1,0.1,0.1,0.1,0.1l1.1-0.2l1.1,0.2
			c0.1,0,0.1,0,0.1-0.1l0.2-1.1c0-0.1,0-0.1-0.1-0.1l-0.7-0.1L13.7,27.7z"/>
		<path class="st1" d="M15.2,26H6.1v1.3h9.1c0.6,0,1.1,0.5,1.1,1.1s-0.5,1.1-1.1,1.1h-1.1v1.3h1.1c1.3,0,2.4-1.1,2.4-2.4
			C17.5,27,16.5,26,15.2,26z"/>
		<path class="st1" d="M2.9,27.3H4V26H2.9c-0.6,0-1.1-0.5-1.1-1.1s0.5-1.1,1.1-1.1H4v-1.3H2.9c-1.3,0-2.4,1.1-2.4,2.4
			C0.5,26.2,1.6,27.3,2.9,27.3z"/>
		<path class="st1" d="M11.9,30.7v-1.3H9.7l-0.1-0.2l0.4-1.4H7.9l0.4,1.4l-0.1,0.2h-6l-0.1-0.8l-1.3,0.2L1,30l-0.2,1.2l1.3,0.2
			l0.1-0.8h5.7L7.5,32l0,0c-0.1,0.4,0,0.8,0.1,1.1c0.2,0.4,0.5,0.6,0.9,0.7c0.1,0,0.3,0.1,0.4,0.1c0.7,0,1.3-0.4,1.5-1.1
			c0.1-0.3,0.1-0.5,0-0.8l0,0L10,30.7H11.9z M9.2,32.3L9.2,32.3c0,0.1,0,0.1,0,0.2l0,0l0,0l0,0l0,0l0,0l0,0l0,0
			c-0.1,0-0.1-0.1-0.1-0.1s0-0.1,0-0.2L9,31.6l0,0L9.2,32.3z"/>
		<polygon class="st1" points="4.3,29 5.6,29 5.6,19.7 7.3,25.5 8.7,25.5 6.8,18.9 4.3,18.9 		"/>
		<path class="st1" d="M16.9,15.5l0.7-0.1c0.1,0,0.1-0.1,0.1-0.1l-0.2-1.1c0-0.1-0.1-0.1-0.1-0.1l-1.1,0.2l-1.1-0.2
			c-0.1,0-0.1,0-0.1,0.1l-0.2,1.1c0,0.1,0,0.1,0.1,0.1l0.7,0.1v1.6h-1.5v1.3h1.5V20L15,20.1c-0.1,0-0.1,0.1-0.1,0.1l0.2,1.1
			c0,0.1,0.1,0.1,0.1,0.1l1.1-0.2l1.1,0.2c0.1,0,0.1,0,0.1-0.1l0.2-1.1c0-0.1,0-0.1-0.1-0.1L16.9,20V15.5z"/>
		<path class="st1" d="M0.4,20.3l0.2,1.1c0,0.1,0.1,0.1,0.1,0.1l1.1-0.2l1.1,0.2c0.1,0,0.1,0,0.1-0.1l0.2-1.1c0-0.1,0-0.1-0.1-0.1
			l-0.7-0.1v-1.6h8.4l0.4-1.3H2.4v-1.6l0.7-0.1c0.1,0,0.1-0.1,0.1-0.1L3,14.2c0-0.1-0.1-0.1-0.1-0.1l-1.1,0.2l-1.1-0.2
			c-0.1,0-0.1,0-0.1,0.1l-0.2,1.1c0,0.1,0,0.1,0.1,0.1l0.7,0.1v4.6l-0.7,0.1C0.4,20.2,0.4,20.3,0.4,20.3z"/>
		<path class="st1" d="M10.3,22.1h1.4l0.7-2.4v2.4h1.3v-6.6l0.7-0.1c0.1,0,0.1-0.1,0.1-0.1l-0.2-1.1c0-0.1-0.1-0.1-0.1-0.1L13,14.3
			l-1.1-0.2c-0.1,0-0.1,0-0.1,0.1l-0.2,1.1c0,0.1,0,0.1,0.1,0.1l0.5,0.1L10.3,22.1z"/>
		<path class="st1" d="M16.7,22l-1.1-0.2c-0.1,0-0.1,0-0.1,0.1l-0.1,0.7H8.3l0.4,1.3h6.7l0.1,0.7c0,0.1,0.1,0.1,0.1,0.1l1.1-0.2
			c0.1,0,0.1-0.1,0.1-0.1l-0.2-1.1l0.2-1.1C16.8,22,16.7,22,16.7,22z"/>
	</g>
</g>
</svg>
